<svg width="420" height="314" viewBox="0 0 420 314" fill="none" xmlns="http://www.w3.org/2000/svg">
<g id="oci-oad-kafka-oi" clip-path="url(#clip0_14321_1110)">
<rect width="420" height="314" fill="white"/>
<g id="Group 1">
<g id="OCI Region">
<rect x="0.5" y="0.5" width="120" height="108" rx="3.5" fill="#F5F4F2"/>
<rect x="0.5" y="0.5" width="120" height="108" rx="3.5" stroke="#9E9892"/>
<text id="OCI Region_2" fill="#312D2A" xml:space="preserve" style="white-space: pre" font-family="Oracle Sans" font-size="16" font-weight="bold" letter-spacing="0em"><tspan x="8" y="21.816">On-premises</tspan></text>
</g>
<g id="Icon Master">
<g id="kafka logo">
<g id="Kafka">
<g id="logo">
<path id="Vector" d="M70.3583 47.0782C70.02 46.4862 69.4704 46.1056 68.8784 45.9788C68.2864 45.8097 67.6099 45.8942 67.0602 46.2325C66.4683 46.5708 66.0877 47.0782 65.9186 47.7124C65.7495 48.3044 65.834 48.9809 66.1723 49.5306C66.5106 50.0803 67.0179 50.4608 67.6099 50.6299C68.2019 50.7991 68.8784 50.7145 69.4281 50.3762H69.4704C70.02 50.038 70.4006 49.5306 70.5697 48.9386C70.7389 48.3044 70.6543 47.6701 70.3583 47.0782ZM56.87 48.9386C58.2654 49.15 59.5338 49.8266 60.4641 50.7991C60.6332 50.9682 60.7601 51.1373 60.8869 51.3065L63.297 49.9111C62.9588 48.9386 62.9588 47.9238 63.2125 46.9513C63.5507 45.6828 64.3964 44.5412 65.6226 43.8224L65.6649 43.7801C66.8911 43.1036 68.2864 42.9344 69.5549 43.2727C70.8234 43.6109 71.9651 44.4566 72.6839 45.6828C73.4027 46.909 73.5295 48.3467 73.1913 49.6151C72.853 50.8836 72.0073 52.0253 70.7811 52.7441L70.4429 52.9555H70.4006C69.259 53.5052 67.9905 53.5897 66.8488 53.2938C65.8763 53.0401 65.0306 52.4904 64.3541 51.7716L61.944 53.1669C62.24 53.8857 62.3668 54.6891 62.3668 55.4925C62.3668 56.3381 62.1977 57.0992 61.944 57.8603L64.3541 59.2557C65.0306 58.4946 65.9186 57.9872 66.8488 57.7335C68.1173 57.3952 69.5549 57.5221 70.7811 58.2409L70.8657 58.2832C72.0496 59.002 72.853 60.1436 73.1913 61.3698C73.5295 62.6383 73.4027 64.0337 72.6839 65.3022L72.6416 65.3867C71.9228 66.5706 70.7811 67.374 69.5549 67.7123C68.2864 68.0506 66.8488 67.9237 65.6226 67.2049C64.3964 66.4861 63.5507 65.3444 63.2125 64.0759C62.9588 63.1034 62.9588 62.0886 63.297 61.1161L60.8869 59.7208C60.7601 59.8899 60.5909 60.0591 60.4641 60.1859C59.4916 61.1584 58.2654 61.8349 56.87 62.0464V64.837C57.8848 65.0485 58.7728 65.5559 59.4493 66.2324C60.3795 67.1626 60.9715 68.4734 60.9715 69.8687C60.9715 71.3064 60.3795 72.5748 59.4493 73.5051C58.5191 74.4353 57.2083 75.0273 55.7707 75.0273C54.333 75.0273 53.0645 74.4353 52.1343 73.5051C51.2041 72.5748 50.6121 71.2641 50.6121 69.8687C50.6121 68.4311 51.2041 67.1626 52.1343 66.2324C52.8108 65.5136 53.7411 65.0485 54.7136 64.837V62.0464C53.3182 61.8349 52.0497 61.1584 51.1195 60.1859C49.9356 59.002 49.1745 57.3107 49.1745 55.4925C49.1745 53.6743 49.9356 52.0253 51.1195 50.7991C52.092 49.8266 53.3182 49.15 54.7136 48.9386V46.1902C53.7411 45.9788 52.8108 45.4714 52.1343 44.7949C51.2041 43.8646 50.6121 42.5539 50.6121 41.1585C50.6121 39.7209 51.2041 38.4524 52.1343 37.5222C53.0645 36.592 54.3753 36 55.7707 36C57.2083 36 58.4768 36.592 59.4493 37.5222C60.3795 38.4524 60.9715 39.7632 60.9715 41.1585C60.9715 42.5962 60.3795 43.8646 59.4493 44.7949C58.7305 45.4714 57.8425 45.9788 56.87 46.1902V48.9386V48.9386ZM58.2654 52.9978C57.6311 52.4058 56.7432 51.983 55.8129 51.983C54.8404 51.983 53.9948 52.3635 53.3605 52.9978C52.7263 53.632 52.3457 54.4777 52.3457 55.4502C52.3457 56.4227 52.7263 57.2684 53.3605 57.9026C53.9948 58.5369 54.8404 58.9174 55.8129 58.9174C56.7855 58.9174 57.6311 58.5369 58.2654 57.9026C58.8996 57.2684 59.2802 56.3804 59.2802 55.4502C59.2802 54.52 58.8996 53.632 58.2654 52.9978ZM68.8784 65.0062C69.4704 64.837 70.02 64.4565 70.3583 63.9068L70.4006 63.8222C70.6966 63.2726 70.7389 62.6383 70.5697 62.0886C70.4006 61.4967 70.02 60.947 69.4704 60.6087L69.4281 60.5665C68.8784 60.2705 68.2442 60.1859 67.6522 60.355C67.0602 60.5242 66.5106 60.9047 66.1723 61.4544C65.834 62.0041 65.7917 62.6806 65.9186 63.2726C66.0877 63.8645 66.4683 64.4142 67.018 64.7525C67.6099 65.0907 68.2864 65.133 68.8784 65.0062ZM55.8129 72.2789C56.4895 72.2789 57.0814 72.0252 57.5043 71.56C57.9271 71.1372 58.1808 70.5453 58.1808 69.8687C58.1808 69.1922 57.9271 68.6002 57.5043 68.1774C57.0814 67.7546 56.4895 67.4586 55.8129 67.4586C55.1364 67.4586 54.5444 67.7123 54.1216 68.1774C53.6988 68.6002 53.4451 69.1922 53.4451 69.8687C53.4451 70.5453 53.6988 71.1372 54.1216 71.56C54.5444 71.9829 55.1364 72.2789 55.8129 72.2789ZM57.5043 39.3826C57.0814 38.9598 56.4895 38.6638 55.8129 38.6638C55.1364 38.6638 54.5444 38.9175 54.1216 39.3826C53.6988 39.8055 53.4451 40.3974 53.4451 41.074C53.4451 41.7505 53.6988 42.3425 54.1216 42.7653C54.5444 43.1881 55.1364 43.4418 55.8129 43.4418C56.4895 43.4418 57.0814 43.1881 57.5043 42.7653C57.9271 42.3425 58.1808 41.7505 58.1808 41.074C58.2231 40.4397 57.9271 39.8478 57.5043 39.3826Z" fill="black"/>
</g>
<g id="text">
<path id="Vector_2" d="M34.3333 80.5669H36.9971V88.7275L40.8449 84.4569H44.0584L39.4073 89.4041L44.1007 95.6619H41.0563L37.0394 90.0806V95.6619H34.3333V80.5669Z" fill="black"/>
<path id="Vector_3" d="M56.6588 95.6614H53.995V94.0547C53.2762 95.3655 51.7962 95.9997 50.2318 95.9997C46.6377 95.9997 44.5236 93.209 44.5236 90.0378C44.5236 86.5283 47.0605 84.1182 50.2318 84.1182C52.2614 84.1182 53.5299 85.2175 53.995 86.1055V84.4564H56.6588V95.6614ZM47.1874 90.1224C47.1874 91.5177 48.2022 93.5473 50.6123 93.5473C52.0922 93.5473 53.0647 92.7862 53.5721 91.7714C53.8258 91.264 53.9527 90.7566 53.995 90.2069C53.995 89.6572 53.9104 89.1076 53.699 88.6424C53.2339 87.5854 52.1768 86.6551 50.57 86.6551C48.4136 86.6129 47.1874 88.3888 47.1874 90.1224Z" fill="black"/>
<path id="Vector_4" d="M59.6609 86.5284H58.2656V84.4565H59.6609V83.8223C59.6609 80.4819 62.1979 80.3128 64.1006 80.2705V82.3424C63.4241 82.3424 62.3247 82.3424 62.3247 83.9068V84.4565H64.1006V86.5284H62.3247V95.6615H59.6609V86.5284Z" fill="black"/>
<path id="Vector_5" d="M65.9612 80.5669H68.625V88.7275L72.4728 84.4569H75.6863L71.0351 89.4041L75.7286 95.6619H72.6842L68.6673 90.0806V95.6619H66.0035V80.5669H65.9612Z" fill="black"/>
<path id="Vector_6" d="M88.2866 95.6614H85.6228V94.0547C84.904 95.3655 83.4241 95.9997 81.8596 95.9997C78.2655 95.9997 76.1514 93.209 76.1514 90.0378C76.1514 86.5283 78.6884 84.1182 81.8596 84.1182C83.8892 84.1182 85.1577 85.2175 85.6228 86.1055V84.4564H88.2866V95.6614ZM78.8152 90.1224C78.8152 91.5177 79.83 93.5473 82.2401 93.5473C83.72 93.5473 84.6925 92.7862 85.1999 91.7714C85.4536 91.264 85.5805 90.7566 85.6228 90.2069C85.6228 89.6572 85.5382 89.1076 85.3268 88.6424C84.8617 87.5854 83.8046 86.6551 82.1978 86.6551C80.0414 86.6129 78.8152 88.3888 78.8152 90.1224Z" fill="black"/>
</g>
</g>
</g>
</g>
<g id="OCI Region_3">
<rect x="137.5" y="0.5" width="282" height="313" rx="3.5" fill="#F5F4F2"/>
<rect x="137.5" y="0.5" width="282" height="313" rx="3.5" stroke="#9E9892"/>
<text id="OCI Region_4" fill="#312D2A" xml:space="preserve" style="white-space: pre" font-family="Oracle Sans" font-size="16" font-weight="bold" letter-spacing="0em"><tspan x="145" y="21.816">OCI Region</tspan></text>
</g>
<g id="OCI Region_5">
<rect x="146.5" y="180.5" width="153" height="124" rx="3.5" fill="#E4E1DD"/>
<rect x="146.5" y="180.5" width="153" height="124" rx="3.5" stroke="#9E9892"/>
<text id="Availability Domain" fill="#312D2A" xml:space="preserve" style="white-space: pre" font-family="Oracle Sans" font-size="16" font-weight="600" letter-spacing="0em"><tspan x="179.156" y="201.816">GoldenGate </tspan><tspan x="160.219" y="217.816">Stream Analytics</tspan></text>
</g>
<g id="Oracle Integration">
<g id="Srv-Oracle Integration Cloud Service">
<g id="Group 518">
<path id="Vector_7" d="M235.641 95.2597C234.819 95.2661 234.01 95.0625 233.29 94.6683C232.569 94.2741 231.962 93.7024 231.525 93.0075C231.088 92.3126 230.836 91.5176 230.793 90.698C230.75 89.8785 230.918 89.0616 231.28 88.3249C231.42 88.0272 231.592 87.7456 231.793 87.4848C230.086 88.1946 228.255 88.5577 226.406 88.5528C223.123 88.5502 219.942 87.4151 217.399 85.3395C214.857 83.2638 213.11 80.3749 212.454 77.1609C212.387 76.8647 212.334 76.5653 212.297 76.2638V76.2638C211.893 77.3357 211.12 78.2285 210.117 78.782C209.113 79.3354 207.945 79.5131 206.822 79.2833C205.699 79.0534 204.695 78.4309 203.99 77.5277C203.285 76.6246 202.926 75.4999 202.977 74.3557C202.982 73.4994 203.213 72.6596 203.647 71.9207H193.671L193.927 69.8132C194.119 67.422 194.921 65.1198 196.256 63.1258C197.59 61.1317 199.413 59.5122 201.552 58.4213C202.006 58.1716 202.396 57.8207 202.693 57.396C202.989 56.9713 203.184 56.4841 203.262 55.9721C203.745 53.5104 205.07 51.2932 207.009 49.7006C208.949 48.108 211.383 47.2392 213.893 47.2431C214.221 47.2431 214.563 47.2431 214.891 47.2431H215.233C215.681 47.2482 216.126 47.1596 216.538 46.9831C216.951 46.8065 217.321 46.5459 217.627 46.2178C218.87 44.8777 220.376 43.8071 222.05 43.0722C223.724 42.3374 225.532 41.954 227.361 41.9459C229.828 41.9373 232.248 42.6199 234.346 43.9162C236.444 45.2125 238.137 47.0705 239.232 49.2794C239.447 49.779 239.775 50.2217 240.19 50.5727C240.606 50.9237 241.097 51.1731 241.626 51.3014C243.145 51.6327 244.592 52.2306 245.902 53.0672C248.809 54.9002 250.913 57.7667 251.788 61.0886C252.664 64.4105 252.246 67.9405 250.619 70.9666L250.077 71.9776H240.429C240.581 72.7804 240.658 73.5956 240.657 74.4126C240.655 76.5814 240.157 78.7209 239.201 80.668C238.245 82.6152 236.857 84.3184 235.142 85.6478V85.719H235.584H235.997C236.286 85.7436 236.573 85.796 236.852 85.8757C237.976 86.183 238.95 86.8867 239.594 87.8565C240.238 88.8263 240.508 89.9964 240.355 91.1502C240.202 92.304 239.636 93.3634 238.761 94.132C237.887 94.9007 236.763 95.3266 235.598 95.3309L235.641 95.2597Z" fill="white"/>
<path id="Vector_8" d="M227.36 42.756C229.697 42.7464 231.99 43.3926 233.978 44.6211C235.966 45.8497 237.569 47.6111 238.604 49.705C238.883 50.2644 239.284 50.7543 239.777 51.1387C240.27 51.5231 240.844 51.7922 241.454 51.9265C242.899 52.2516 244.277 52.8198 245.53 53.6067C248.294 55.3357 250.295 58.0515 251.126 61.2019C251.957 64.3522 251.557 67.7007 250.005 70.5664L249.663 71.2071H239.559C240.219 73.8492 240.058 76.6294 239.098 79.178C238.139 81.7267 236.425 83.9232 234.186 85.4754L234.828 86.5007C235.09 86.4442 235.357 86.4155 235.626 86.4153H235.982C236.227 86.437 236.471 86.4798 236.709 86.5434C237.577 86.7796 238.343 87.2941 238.89 88.0079C239.437 88.7217 239.733 89.5952 239.735 90.4941C239.736 91.3929 239.442 92.2673 238.898 92.9828C238.353 93.6983 237.588 94.2152 236.721 94.4541C235.854 94.6929 234.932 94.6404 234.098 94.3047C233.263 93.969 232.562 93.3687 232.102 92.596C231.643 91.8233 231.45 90.9212 231.553 90.0283C231.657 89.1354 232.051 88.3012 232.676 87.6541L232.063 86.6858C230.211 87.544 228.189 87.9713 226.148 87.9356C224.107 87.8998 222.1 87.4019 220.28 86.4793C218.459 85.5568 216.872 84.2336 215.637 82.6094C214.402 80.9852 213.552 79.1023 213.151 77.1024C213.052 76.6324 212.981 76.1569 212.938 75.6784H211.769C211.57 76.2825 211.234 76.832 210.786 77.2838C210.338 77.7355 209.791 78.077 209.188 78.2812C208.586 78.4855 207.944 78.547 207.314 78.4608C206.683 78.3746 206.081 78.1431 205.556 77.7846C205.03 77.426 204.595 76.9503 204.285 76.395C203.975 75.8397 203.799 75.22 203.77 74.5848C203.741 73.9496 203.86 73.3164 204.118 72.7352C204.376 72.1539 204.765 71.6405 205.256 71.2356H194.539L194.639 69.9256C194.796 67.6491 195.534 65.4507 196.781 63.5391C198.028 61.6276 199.744 60.0663 201.765 59.0036C202.316 58.7207 202.796 58.3181 203.171 57.8252C203.546 57.3324 203.806 56.7619 203.931 56.1557C204.243 54.5575 204.937 53.0585 205.955 51.7864C206.972 50.5144 208.282 49.5072 209.774 48.8507C211.06 48.2912 212.447 48.0005 213.85 47.9963H214.79H215.189C215.724 47.989 216.252 47.8743 216.742 47.659C217.231 47.4437 217.673 47.1323 218.04 46.7432C219.232 45.4704 220.677 44.4589 222.281 43.7726C223.885 43.0863 225.615 42.7401 227.36 42.756V42.756ZM227.36 41.332C225.436 41.3336 223.533 41.7314 221.77 42.5008C220.007 43.2701 218.422 44.3943 217.113 45.8033C216.872 46.0593 216.58 46.2624 216.257 46.3997C215.933 46.537 215.584 46.6054 215.232 46.6008H214.961C214.605 46.5795 214.248 46.5795 213.892 46.6008C211.218 46.6056 208.627 47.5361 206.562 49.234C204.496 50.9318 203.083 53.2922 202.563 55.9136C202.481 56.3137 202.311 56.6904 202.065 57.0158C201.818 57.3412 201.501 57.6069 201.137 57.7933C198.904 58.9592 197.004 60.6744 195.618 62.7772C194.232 64.8799 193.404 67.3008 193.214 69.8116L193.114 71.1217L193 72.6596H202.605C202.419 73.215 202.322 73.7967 202.32 74.3826C202.318 75.4968 202.653 76.5856 203.281 77.5062C203.909 78.4268 204.801 79.1361 205.84 79.5411C206.879 79.9461 208.016 80.0279 209.102 79.7756C210.188 79.5234 211.172 78.949 211.926 78.1277C212.765 81.3295 214.64 84.1644 217.258 86.1912C219.877 88.218 223.093 89.323 226.405 89.3344C227.743 89.3321 229.075 89.155 230.367 88.8075C230.131 89.5352 230.051 90.3042 230.132 91.0647C230.213 91.8252 230.453 92.5602 230.837 93.2219C231.322 94.0665 232.021 94.7682 232.865 95.2558C233.708 95.7434 234.666 95.9997 235.64 95.9987C236.6 96.0026 237.544 95.752 238.376 95.2724C239.007 94.912 239.561 94.4307 240.006 93.8562C240.451 93.2816 240.778 92.6251 240.969 91.9241C241.159 91.2231 241.21 90.4914 241.117 89.771C241.024 89.0505 240.79 88.3553 240.428 87.7253C240.07 87.0943 239.59 86.5412 239.014 86.0986C238.439 85.6559 237.781 85.3327 237.079 85.1479L236.837 85.0767C238.268 83.6863 239.406 82.0239 240.185 80.1873C240.963 78.3507 241.366 76.3771 241.369 74.3826C241.366 73.8065 241.328 73.2311 241.255 72.6596H250.518L250.917 71.9191L251.259 71.2783C252.32 69.3365 252.912 67.1746 252.991 64.9639C253.07 62.7533 252.632 60.5548 251.712 58.5427C250.792 56.5307 249.416 54.7603 247.692 53.3721C245.969 51.9839 243.945 51.016 241.782 50.5452C241.38 50.4596 241.001 50.288 240.671 50.0422C240.342 49.7964 240.069 49.4822 239.873 49.1212C238.725 46.7829 236.945 44.8132 234.733 43.4362C232.521 42.0591 229.966 41.3301 227.36 41.332V41.332Z" fill="white"/>
<path id="Vector_9" d="M245.545 53.6087C244.287 52.8202 242.904 52.252 241.455 51.9284C240.844 51.7941 240.271 51.525 239.778 51.1406C239.285 50.7562 238.884 50.2663 238.605 49.7069C237.57 47.613 235.967 45.8516 233.979 44.623C231.991 43.3945 229.698 42.7483 227.36 42.7579C225.632 42.7614 223.924 43.1196 222.34 43.8104C220.756 44.5012 219.332 45.5097 218.154 46.7735C217.734 47.2209 217.215 47.5644 216.638 47.777C216.062 47.9895 215.444 48.0652 214.834 47.9982C213.12 47.8448 211.395 48.1239 209.817 48.8098C208.326 49.4664 207.016 50.4736 205.998 51.7456C204.981 53.0176 204.286 54.5167 203.974 56.1149C203.849 56.7211 203.589 57.2916 203.214 57.7844C202.84 58.2773 202.359 58.6799 201.808 58.9628C199.787 60.0255 198.071 61.5868 196.824 63.4983C195.577 65.4099 194.84 67.6083 194.682 69.8847L194.54 71.2375H202.82C203.518 70.1003 204.576 69.2283 205.827 68.7598H197.276C197.595 67.1463 198.272 65.6251 199.259 64.3088C200.246 62.9925 201.516 61.9149 202.977 61.1557C203.855 60.7011 204.619 60.0537 205.211 59.262C205.803 58.4704 206.209 57.5552 206.397 56.5848C206.635 55.375 207.163 54.2408 207.934 53.2788C208.706 52.3167 209.699 51.5554 210.829 51.0597C212.02 50.5352 213.324 50.3196 214.62 50.4332C215.601 50.5361 216.592 50.4109 217.517 50.0676C218.442 49.7242 219.274 49.1719 219.95 48.4538C220.897 47.4363 222.044 46.6242 223.319 46.0682C224.594 45.5121 225.969 45.2239 227.36 45.2214C229.24 45.2069 231.085 45.7232 232.684 46.7108C234.282 47.6984 235.569 49.117 236.396 50.8034C236.843 51.6928 237.483 52.4713 238.27 53.0822C239.056 53.6931 239.969 54.1211 240.942 54.3349C242.115 54.6124 243.229 55.0945 244.234 55.7589C246.357 57.1013 247.923 59.1642 248.646 61.5683C249.369 63.9724 249.199 66.5563 248.167 68.8452H240.714C241.022 69.6224 241.27 70.4222 241.455 71.2375H249.664L250.006 70.5967C251.567 67.7299 251.975 64.376 251.146 61.2192C250.317 58.0623 248.314 55.3404 245.545 53.6087V53.6087Z" fill="#2D5967"/>
<path id="Vector_10" d="M234.829 86.43L234.188 85.476C235.972 84.2336 237.43 82.5788 238.436 80.6523C239.443 78.7258 239.968 76.5848 239.968 74.4116C239.968 72.2384 239.443 70.0975 238.436 68.171C237.43 66.2445 235.972 64.5896 234.188 63.3473L234.729 62.3363C235.037 62.409 235.353 62.4472 235.67 62.4502H236.026C236.27 62.4213 236.513 62.3785 236.753 62.322C237.57 62.1026 238.3 61.6368 238.843 60.988C239.386 60.3393 239.716 59.5392 239.788 58.6965C239.859 57.8538 239.67 57.0095 239.244 56.2784C238.818 55.5474 238.178 54.9651 237.409 54.6109C236.641 54.2566 235.781 54.1476 234.949 54.2985C234.116 54.4495 233.35 54.8532 232.755 55.4547C232.16 56.0562 231.765 56.8263 231.623 57.6601C231.482 58.4939 231.601 59.3511 231.964 60.1149C232.139 60.4739 232.359 60.8089 232.62 61.1117L232.05 62.1512C230.293 61.3443 228.382 60.9266 226.449 60.9265C223.328 60.9299 220.305 62.0102 217.89 63.9849C215.474 65.9596 213.816 68.7072 213.195 71.763C213.096 72.233 213.025 72.7085 212.982 73.187H211.813C211.521 72.2463 210.902 71.4413 210.067 70.9181C209.232 70.3949 208.237 70.1882 207.263 70.3355C206.288 70.4829 205.399 70.9744 204.756 71.721C204.113 72.4676 203.76 73.4198 203.76 74.4045C203.76 75.3893 204.113 76.3414 204.756 77.088C205.399 77.8346 206.288 78.3262 207.263 78.4735C208.237 78.6208 209.232 78.4141 210.067 77.8909C210.902 77.3677 211.521 76.5627 211.813 75.622H212.953C212.996 76.1005 213.067 76.576 213.167 77.046C213.568 79.0459 214.418 80.9288 215.653 82.553C216.887 84.1772 218.475 85.5004 220.295 86.4229C222.116 87.3455 224.122 87.8434 226.163 87.8791C228.204 87.9149 230.227 87.4876 232.078 86.6294L232.691 87.5977C232.381 87.9193 232.126 88.2898 231.936 88.6942C231.636 89.3195 231.5 90.0108 231.542 90.703C231.583 91.3952 231.8 92.0655 232.172 92.6509C232.544 93.2362 233.059 93.7174 233.668 94.049C234.278 94.3807 234.961 94.552 235.655 94.5467C236.65 94.5459 237.61 94.1843 238.358 93.529C239.106 92.8738 239.59 91.9696 239.721 90.9844C239.852 89.9992 239.62 89.0001 239.069 88.1729C238.517 87.3457 237.684 86.7466 236.724 86.487C236.486 86.4234 236.243 86.3805 235.997 86.3588C235.607 86.3242 235.213 86.3482 234.829 86.43V86.43ZM234.188 57.452C234.331 57.2002 234.538 56.9902 234.788 56.8428C235.038 56.6955 235.322 56.6159 235.613 56.6119C235.899 56.6122 236.18 56.691 236.425 56.8397C236.755 57.0792 236.986 57.4324 237.071 57.8313C237.156 58.2302 237.091 58.6466 236.887 59.0002C236.684 59.3538 236.357 59.6197 235.969 59.7466C235.581 59.8736 235.159 59.8526 234.786 59.6877C234.419 59.4627 234.152 59.1052 234.04 58.6892C233.929 58.2732 233.982 57.8303 234.188 57.452V57.452ZM237.494 74.3547C237.497 76.5464 236.849 78.6897 235.632 80.5135C234.416 82.3372 232.685 83.7594 230.659 84.6001C228.633 85.4408 226.404 85.6622 224.252 85.2363C222.1 84.8105 220.123 83.7565 218.571 82.2077C217.019 80.6589 215.962 78.6849 215.533 76.5355C215.104 74.3861 215.323 72.1578 216.161 70.1326C217 68.1074 218.421 66.3764 220.245 65.1584C222.069 63.9405 224.213 63.2903 226.406 63.2903C229.343 63.2941 232.159 64.4606 234.237 66.5343C236.315 68.608 237.486 71.4201 237.494 74.3547V74.3547ZM207.851 76.0207C207.521 76.0207 207.199 75.923 206.925 75.74C206.651 75.5569 206.437 75.2967 206.311 74.9922C206.184 74.6878 206.151 74.3528 206.216 74.0296C206.28 73.7065 206.439 73.4096 206.672 73.1766C206.905 72.9436 207.202 72.7849 207.526 72.7206C207.849 72.6563 208.185 72.6893 208.489 72.8154C208.794 72.9415 209.054 73.1551 209.237 73.4291C209.421 73.703 209.518 74.0252 209.518 74.3547C209.52 74.574 209.479 74.7915 209.395 74.9945C209.312 75.1975 209.19 75.3819 209.034 75.537C208.879 75.6921 208.695 75.8147 208.491 75.8978C208.288 75.9808 208.071 76.0226 207.851 76.0207V76.0207ZM237.066 89.6197C237.244 89.9942 237.274 90.4218 237.151 90.8176C237.028 91.2133 236.761 91.5484 236.402 91.7564C236.043 91.9643 235.619 92.0299 235.214 91.9401C234.809 91.8503 234.453 91.6117 234.216 91.2716C234.071 91.0209 233.995 90.7367 233.995 90.4473C233.994 90.1579 234.07 89.8735 234.214 89.6226C234.359 89.3717 234.566 89.163 234.817 89.0176C235.067 88.8721 235.352 88.795 235.641 88.7938C235.931 88.7935 236.215 88.8698 236.465 89.0149C236.715 89.1599 236.923 89.3686 237.066 89.6197V89.6197Z" fill="#2D5967"/>
<path id="Vector_11" d="M224.979 71.5206L223.326 73.1724L225.05 74.9096L229.596 70.3814L225.05 65.8389L223.326 67.5761L224.751 69.0713H218.908C218.377 69.823 217.96 70.6481 217.668 71.5206H224.979Z" fill="#2D5967"/>
<path id="Vector_12" d="M227.76 77.6295L229.442 75.9492L227.717 74.2119L223.186 78.7402L227.717 83.2827L229.442 81.5454L228.017 80.1214H233.618C234.218 79.3849 234.699 78.5583 235.043 77.6722L227.76 77.6295Z" fill="#2D5967"/>
</g>
</g>
<g id="Icon Text Label">
<text id="IconLabel" fill="black" xml:space="preserve" style="white-space: pre" font-family="Oracle Sans" font-size="16" letter-spacing="0em"><tspan x="199.938" y="113.816">Oracle</tspan></text>
<text id="IconLabel_2" fill="black" xml:space="preserve" style="white-space: pre" font-family="Oracle Sans" font-size="16" letter-spacing="0em"><tspan x="177.258" y="129.816">Integration 3</tspan></text>
<text id="IconLabel_3" fill="black" xml:space="preserve" style="white-space: pre" font-family="Oracle Sans" font-size="16" letter-spacing="0em"><tspan x="192.484" y="145.816">Instance</tspan></text>
</g>
</g>
<g id="Autonomous DB">
<g id="Srv-Oracle Autonomous Database">
<g id="Group 7">
<path id="Vector_13" d="M361.391 95.4495C357.548 95.4495 353.829 95.0776 351.102 94.4578C347.507 93.59 345.647 92.2264 345.647 90.3669V72.3916H334.118L334.242 70.5321C334.614 65.9454 337.218 61.9784 341.309 59.871C342.176 59.3751 342.796 58.6313 343.044 57.6396C343.664 54.4164 345.895 51.6892 348.871 50.4495C350.11 49.9536 351.474 49.5817 352.961 49.5817C353.209 49.5817 353.581 49.5817 353.953 49.5817C354.077 49.5817 354.201 49.5817 354.325 49.5817C355.193 49.5817 356.061 49.2098 356.556 48.59C358.664 46.2346 361.515 44.871 364.614 44.623H365.854C370.441 44.747 374.532 47.3503 376.515 51.4412C376.639 51.6892 376.887 52.0611 377.135 52.309C377.383 52.6809 377.879 53.3007 378.127 53.7966C381.846 53.9206 385.193 55.904 387.176 59.0032V59.1272L387.548 60.9867L392.631 66.0693L390.152 68.5487L388.54 66.9371C387.548 72.1437 382.961 75.9867 377.507 75.9867C377.383 75.9867 377.135 75.9867 377.011 75.9867V90.2429C377.011 92.1024 375.275 93.466 371.556 94.3338C368.953 95.0776 365.234 95.4495 361.391 95.4495Z" fill="white"/>
<path id="Vector_14" d="M365.36 45.2441C369.822 45.2441 373.789 47.7234 375.773 51.6903C376.021 52.0622 376.145 52.4341 376.517 52.6821C376.764 53.054 377.26 53.7978 377.632 54.2937C381.351 54.2937 384.698 56.2771 386.558 59.2523L387.054 61.2358L391.888 66.0705L390.277 67.6821L388.169 65.5746C387.798 71.0292 383.211 75.368 377.632 75.368C377.26 75.368 376.888 75.368 376.517 75.2441V90.2441C376.517 91.7317 374.905 92.9713 371.558 93.7151C368.831 94.335 365.236 94.7069 361.393 94.7069C357.55 94.7069 353.955 94.335 351.227 93.7151C347.88 92.9713 346.269 91.7317 346.269 90.2441V71.649H334.864L334.988 70.4094C335.36 66.0705 337.839 62.2275 341.682 60.2441C342.674 59.8722 343.417 58.8804 343.665 57.7647C344.285 54.7895 346.269 52.1862 349.12 50.9465C350.36 50.4507 351.599 50.2027 352.963 50.2027C353.211 50.2027 353.583 50.2027 353.831 50.2027C353.955 50.2027 354.079 50.2027 354.202 50.2027C355.194 50.2027 356.186 49.8308 356.93 49.087C359.037 46.7317 362.012 45.492 365.112 45.368V46.4837V45.368C365.112 45.2441 365.236 45.2441 365.36 45.2441ZM366.227 44.0044H364.988H363.748V44.1284C360.773 44.5003 357.921 45.8639 355.814 48.0953C355.442 48.7151 354.822 48.9631 354.079 48.9631C353.955 48.9631 353.955 48.9631 353.831 48.9631C353.459 48.9631 353.211 48.9631 352.839 48.9631C351.351 48.9631 349.864 49.335 348.5 49.8308C345.277 51.1945 343.045 54.0457 342.302 57.5168C342.178 58.2606 341.682 59.0044 340.938 59.3763C336.723 61.6077 333.996 65.8226 333.624 70.5333L333.5 71.773V73.0127H334.864H345.029V90.368C345.029 93.5912 349.492 94.7069 350.979 95.0788C353.831 95.6986 357.55 96.0705 361.393 96.0705C365.36 96.0705 368.955 95.6986 371.806 95.0788C373.293 94.7069 377.756 93.7151 377.756 90.368V76.7317C382.963 76.7317 387.55 73.1366 388.913 68.1779L389.285 68.5498L390.153 69.4176L391.021 68.5498L392.632 66.9383L393.5 66.0705L392.632 65.2027L388.045 60.616L387.674 59.0044V58.7565L387.55 58.6325C385.566 55.4094 382.095 53.3019 378.252 53.054C378.004 52.6821 377.632 52.1862 377.508 51.9383V51.8143L377.384 51.6903C377.26 51.6903 377.012 51.4424 376.888 51.1945C374.905 46.9796 370.814 44.3763 366.227 44.0044Z" fill="white"/>
<path id="Vector_15" d="M337.343 69.5412H344.533V71.7726H334.863L334.987 70.533C335.359 66.1941 337.839 62.3511 341.682 60.3677C342.673 59.8718 343.417 58.8801 343.665 57.7644C344.285 54.7892 346.268 52.1859 349.12 50.9462C350.483 50.2024 352.095 49.9545 353.706 50.2024C354.946 50.3264 356.062 49.9545 356.806 49.0867C358.913 46.7313 361.888 45.4916 364.987 45.3677C365.111 45.3677 365.235 45.3677 365.235 45.3677C369.698 45.3677 373.665 47.847 375.649 51.814C375.897 52.1859 376.02 52.5578 376.392 52.8057C375.525 52.9297 374.657 53.0536 373.913 53.3016C373.789 53.1776 373.789 53.0536 373.665 52.8057C372.054 49.5826 368.83 47.5991 365.235 47.5991C365.111 47.5991 365.111 47.5991 364.987 47.5991C362.508 47.5991 360.029 48.7148 358.293 50.5743C357.054 51.9379 355.194 52.6817 353.335 52.4338C352.095 52.3098 350.979 52.5578 349.739 53.0536C347.632 54.0454 346.02 55.9049 345.649 58.2602C345.277 60.1197 344.161 61.6073 342.425 62.4751C339.822 63.8387 337.963 66.4421 337.343 69.5412ZM376.516 58.8801H378.748L381.847 69.9131H379.368L378.996 67.5578H376.268L375.649 69.9131H373.293L376.516 58.8801ZM376.64 65.6983H378.5L377.508 61.6073L376.64 65.6983ZM367.095 64.2106L364.987 62.1032L363.376 63.7148L368.211 68.5495L373.045 63.7148L371.434 62.1032L369.45 64.0867C369.822 59.8718 373.417 56.6487 377.632 56.6487C380.731 56.6487 383.458 58.3842 384.946 60.9875L386.558 59.3759C384.698 56.4007 381.351 54.4173 377.632 54.4173C372.054 54.4173 367.467 58.7561 367.095 64.2106ZM391.888 66.0702L387.054 61.3594L382.219 66.1941L383.83 67.8057L385.814 65.8222C385.442 70.0371 381.847 73.2602 377.632 73.2602C374.533 73.2602 371.806 71.5247 370.318 68.9214L368.706 70.533C370.566 73.5082 373.913 75.4916 377.632 75.4916C383.211 75.4916 387.797 71.1528 388.169 65.6983L390.277 67.8057L391.888 66.0702ZM374.161 76.9792C374.905 77.2272 375.649 77.3511 376.392 77.4751V90.4916C376.392 91.9792 374.781 93.2189 371.434 93.9627C368.706 94.5826 365.111 94.9545 361.268 94.9545C357.425 94.9545 353.83 94.5826 351.103 93.9627C347.756 93.2189 346.144 91.9792 346.144 90.4916V66.0702C346.144 64.5826 347.756 63.4668 351.103 62.723C353.706 62.1032 357.301 61.8553 361.268 61.8553C361.392 61.8553 361.64 61.8553 361.888 61.8553V64.0867C361.764 64.0867 361.516 64.0867 361.268 64.0867C353.087 64.0867 348.996 65.4503 348.5 66.1941V66.3181C348.996 67.1859 353.706 68.5495 361.268 68.5495C362.88 68.5495 364.244 68.5495 365.607 68.4255C365.855 69.1693 366.103 69.9131 366.475 70.6569C364.863 70.7809 363.128 70.9049 361.268 70.9049C357.425 70.9049 353.83 70.533 351.103 69.9131C349.987 69.6652 349.12 69.4173 348.376 69.0454V74.3759C348.872 75.2437 353.582 76.6073 361.144 76.6073C365.359 76.6073 368.706 76.1115 370.938 75.6156C372.054 76.1115 373.045 76.6073 374.161 76.9792C373.417 77.3511 372.549 77.5991 371.434 77.847C368.706 78.4668 365.111 78.8388 361.268 78.8388C357.425 78.8388 353.83 78.4668 351.103 77.847C349.987 77.5991 349.12 77.3511 348.376 76.9792V82.3098C348.872 83.1776 353.582 84.5412 361.144 84.5412C368.706 84.5412 373.417 83.0536 373.913 82.3098L374.161 76.9792ZM374.161 85.0371C373.417 85.409 372.549 85.6569 371.434 85.9049C368.706 86.5247 365.111 86.8966 361.268 86.8966C357.425 86.8966 353.83 86.5247 351.103 85.9049C349.987 85.6569 349.12 85.409 348.376 85.0371V90.3677C348.872 91.1115 353.087 92.5991 361.144 92.5991C369.202 92.5991 373.541 90.9875 373.913 90.3677L374.161 85.0371Z" fill="#2D5967"/>
</g>
</g>
<g id="Icon Text Label_2">
<text id="IconLabel_4" fill="black" xml:space="preserve" style="white-space: pre" font-family="Oracle Sans" font-size="16" letter-spacing="0em"><tspan x="340.438" y="113.816">Oracle</tspan></text>
<text id="IconLabel_5" fill="black" xml:space="preserve" style="white-space: pre" font-family="Oracle Sans" font-size="16" letter-spacing="0em"><tspan x="316.453" y="129.816">Autonomous</tspan></text>
<text id="IconLabel_6" fill="black" xml:space="preserve" style="white-space: pre" font-family="Oracle Sans" font-size="16" letter-spacing="0em"><tspan x="329.742" y="145.816">Database</tspan></text>
</g>
</g>
<g id="Icon Master_2">
<g id="kafka logo_2">
<g id="Kafka_2">
<g id="logo_2">
<path id="Vector_16" d="M232.358 243.078C232.02 242.486 231.47 242.106 230.878 241.979C230.286 241.81 229.61 241.894 229.06 242.232C228.468 242.571 228.088 243.078 227.919 243.712C227.749 244.304 227.834 244.981 228.172 245.531C228.511 246.08 229.018 246.461 229.61 246.63C230.202 246.799 230.878 246.715 231.428 246.376H231.47C232.02 246.038 232.401 245.531 232.57 244.939C232.739 244.304 232.654 243.67 232.358 243.078ZM218.87 244.939C220.265 245.15 221.534 245.827 222.464 246.799C222.633 246.968 222.76 247.137 222.887 247.306L225.297 245.911C224.959 244.939 224.959 243.924 225.212 242.951C225.551 241.683 226.396 240.541 227.623 239.822L227.665 239.78C228.891 239.104 230.286 238.934 231.555 239.273C232.823 239.611 233.965 240.457 234.684 241.683C235.403 242.909 235.53 244.347 235.191 245.615C234.853 246.884 234.007 248.025 232.781 248.744L232.443 248.956H232.401C231.259 249.505 229.99 249.59 228.849 249.294C227.876 249.04 227.031 248.49 226.354 247.772L223.944 249.167C224.24 249.886 224.367 250.689 224.367 251.492C224.367 252.338 224.198 253.099 223.944 253.86L226.354 255.256C227.031 254.495 227.919 253.987 228.849 253.733C230.117 253.395 231.555 253.522 232.781 254.241L232.866 254.283C234.05 255.002 234.853 256.144 235.191 257.37C235.53 258.638 235.403 260.034 234.684 261.302L234.642 261.387C233.923 262.571 232.781 263.374 231.555 263.712C230.286 264.051 228.849 263.924 227.623 263.205C226.396 262.486 225.551 261.344 225.212 260.076C224.959 259.103 224.959 258.089 225.297 257.116L222.887 255.721C222.76 255.89 222.591 256.059 222.464 256.186C221.492 257.158 220.265 257.835 218.87 258.046V260.837C219.885 261.048 220.773 261.556 221.449 262.232C222.38 263.163 222.971 264.473 222.971 265.869C222.971 267.306 222.38 268.575 221.449 269.505C220.519 270.435 219.208 271.027 217.771 271.027C216.333 271.027 215.065 270.435 214.134 269.505C213.204 268.575 212.612 267.264 212.612 265.869C212.612 264.431 213.204 263.163 214.134 262.232C214.811 261.514 215.741 261.048 216.714 260.837V258.046C215.318 257.835 214.05 257.158 213.12 256.186C211.936 255.002 211.174 253.311 211.174 251.492C211.174 249.674 211.936 248.025 213.12 246.799C214.092 245.827 215.318 245.15 216.714 244.939V242.19C215.741 241.979 214.811 241.471 214.134 240.795C213.204 239.865 212.612 238.554 212.612 237.159C212.612 235.721 213.204 234.452 214.134 233.522C215.065 232.592 216.375 232 217.771 232C219.208 232 220.477 232.592 221.449 233.522C222.38 234.452 222.971 235.763 222.971 237.159C222.971 238.596 222.38 239.865 221.449 240.795C220.73 241.471 219.843 241.979 218.87 242.19V244.939V244.939ZM220.265 248.998C219.631 248.406 218.743 247.983 217.813 247.983C216.84 247.983 215.995 248.364 215.361 248.998C214.726 249.632 214.346 250.478 214.346 251.45C214.346 252.423 214.726 253.268 215.361 253.903C215.995 254.537 216.84 254.917 217.813 254.917C218.785 254.917 219.631 254.537 220.265 253.903C220.9 253.268 221.28 252.38 221.28 251.45C221.28 250.52 220.9 249.632 220.265 248.998ZM230.878 261.006C231.47 260.837 232.02 260.456 232.358 259.907L232.401 259.822C232.697 259.273 232.739 258.638 232.57 258.089C232.401 257.497 232.02 256.947 231.47 256.609L231.428 256.566C230.878 256.27 230.244 256.186 229.652 256.355C229.06 256.524 228.511 256.905 228.172 257.454C227.834 258.004 227.792 258.681 227.919 259.273C228.088 259.865 228.468 260.414 229.018 260.752C229.61 261.091 230.286 261.133 230.878 261.006ZM217.813 268.279C218.489 268.279 219.081 268.025 219.504 267.56C219.927 267.137 220.181 266.545 220.181 265.869C220.181 265.192 219.927 264.6 219.504 264.177C219.081 263.755 218.489 263.459 217.813 263.459C217.136 263.459 216.544 263.712 216.122 264.177C215.699 264.6 215.445 265.192 215.445 265.869C215.445 266.545 215.699 267.137 216.122 267.56C216.544 267.983 217.136 268.279 217.813 268.279ZM219.504 235.383C219.081 234.96 218.489 234.664 217.813 234.664C217.136 234.664 216.544 234.918 216.122 235.383C215.699 235.805 215.445 236.397 215.445 237.074C215.445 237.75 215.699 238.342 216.122 238.765C216.544 239.188 217.136 239.442 217.813 239.442C218.489 239.442 219.081 239.188 219.504 238.765C219.927 238.342 220.181 237.75 220.181 237.074C220.223 236.44 219.927 235.848 219.504 235.383Z" fill="black"/>
</g>
<g id="text_2">
<path id="Vector_17" d="M196.333 276.567H198.997V284.728L202.845 280.457H206.058L201.407 285.404L206.101 291.662H203.056L199.039 286.081V291.662H196.333V276.567Z" fill="black"/>
<path id="Vector_18" d="M218.659 291.661H215.995V290.055C215.276 291.365 213.796 292 212.232 292C208.638 292 206.524 289.209 206.524 286.038C206.524 282.528 209.061 280.118 212.232 280.118C214.261 280.118 215.53 281.218 215.995 282.105V280.456H218.659V291.661ZM209.187 286.122C209.187 287.518 210.202 289.547 212.612 289.547C214.092 289.547 215.065 288.786 215.572 287.771C215.826 287.264 215.953 286.757 215.995 286.207C215.995 285.657 215.91 285.108 215.699 284.642C215.234 283.585 214.177 282.655 212.57 282.655C210.414 282.613 209.187 284.389 209.187 286.122Z" fill="black"/>
<path id="Vector_19" d="M221.661 282.528H220.266V280.457H221.661V279.822C221.661 276.482 224.198 276.313 226.101 276.271V278.342C225.424 278.342 224.325 278.342 224.325 279.907V280.457H226.101V282.528H224.325V291.662H221.661V282.528Z" fill="black"/>
<path id="Vector_20" d="M227.961 276.567H230.625V284.728L234.473 280.457H237.686L233.035 285.404L237.729 291.662H234.684L230.667 286.081V291.662H228.003V276.567H227.961Z" fill="black"/>
<path id="Vector_21" d="M250.287 291.661H247.623V290.055C246.904 291.365 245.424 292 243.86 292C240.266 292 238.151 289.209 238.151 286.038C238.151 282.528 240.688 280.118 243.86 280.118C245.889 280.118 247.158 281.218 247.623 282.105V280.456H250.287V291.661ZM240.815 286.122C240.815 287.518 241.83 289.547 244.24 289.547C245.72 289.547 246.693 288.786 247.2 287.771C247.454 287.264 247.58 286.757 247.623 286.207C247.623 285.657 247.538 285.108 247.327 284.642C246.862 283.585 245.805 282.655 244.198 282.655C242.041 282.613 240.815 284.389 240.815 286.122Z" fill="black"/>
</g>
</g>
</g>
</g>
<path id="Vector 1" d="M192.707 63.7071C193.098 63.3166 193.098 62.6834 192.707 62.2929L186.343 55.9289C185.953 55.5384 185.319 55.5384 184.929 55.9289C184.538 56.3195 184.538 56.9526 184.929 57.3431L190.586 63L184.929 68.6569C184.538 69.0474 184.538 69.6805 184.929 70.0711C185.319 70.4616 185.953 70.4616 186.343 70.0711L192.707 63.7071ZM77 64H192V62H77V64Z" fill="#312D2A"/>
<path id="Vector 2" d="M332.707 63.7071C333.098 63.3166 333.098 62.6834 332.707 62.2929L326.343 55.9289C325.953 55.5384 325.319 55.5384 324.929 55.9289C324.538 56.3195 324.538 56.9526 324.929 57.3432L330.586 63L324.929 68.6569C324.538 69.0474 324.538 69.6805 324.929 70.0711C325.319 70.4616 325.953 70.4616 326.343 70.0711L332.707 63.7071ZM255 64L332 64L332 62L255 62L255 64Z" fill="#312D2A"/>
<path id="Vector 3" d="M223.707 148.293C223.317 147.902 222.683 147.902 222.293 148.293L215.929 154.657C215.538 155.047 215.538 155.681 215.929 156.071C216.319 156.462 216.953 156.462 217.343 156.071L223 150.414L228.657 156.071C229.047 156.462 229.681 156.462 230.071 156.071C230.462 155.681 230.462 155.047 230.071 154.657L223.707 148.293ZM224 180L224 149L222 149L222 180L224 180Z" fill="#312D2A"/>
</g>
</g>
<defs>
<clipPath id="clip0_14321_1110">
<rect width="420" height="314" fill="white"/>
</clipPath>
</defs>
</svg>
