<svg width="593" height="368" viewBox="0 0 593 368" fill="none" xmlns="http://www.w3.org/2000/svg">
<g id="exadata-dedicated-in-region-dg-two-ad" clip-path="url(#clip0_9334_206417)">
<rect width="593" height="368" fill="white"/>
<g id="OCI Region">
<rect x="0.5" y="0.5" width="592" height="367" rx="3.5" fill="#F5F4F2"/>
<text id="OCI Region_2" fill="#312D2A" xml:space="preserve" style="white-space: pre" font-family="Oracle Sans" font-size="16" font-weight="bold" letter-spacing="0em"><tspan x="8" y="21.816">OCI Region</tspan></text>
<rect x="0.5" y="0.5" width="592" height="367" rx="3.5" stroke="#9E9892"/>
</g>
<g id="OCI Region_3">
<rect x="137.5" y="16.5" width="175" height="327" rx="3.5" fill="#E4E1DD"/>
<text id="Availability Domain" fill="#312D2A" xml:space="preserve" style="white-space: pre" font-family="Oracle Sans" font-size="16" font-weight="600" letter-spacing="0em"><tspan x="147.969" y="37.816">Availability Domain 1</tspan></text>
<rect x="137.5" y="16.5" width="175" height="327" rx="3.5" stroke="#9E9892"/>
</g>
<g id="OCI Region_4">
<rect x="344.5" y="16.5" width="175" height="327" rx="3.5" fill="#E4E1DD"/>
<text id="Availability Domain_2" fill="#312D2A" xml:space="preserve" style="white-space: pre" font-family="Oracle Sans" font-size="16" font-weight="600" letter-spacing="0em"><tspan x="353.914" y="37.816">Availability Domain 2</tspan></text>
<rect x="344.5" y="16.5" width="175" height="327" rx="3.5" stroke="#9E9892"/>
</g>
<g id="VCN box_New">
<rect id="Rectangle 28" x="27" y="48.9575" width="557" height="310" stroke="#AA643B" stroke-width="2" stroke-dasharray="8 4"/>
<g id="Icon Master">
<g id="Virtual-Cloud-Network-VCN_red">
<g id="Group 39">
<path id="Vector" d="M563.416 71.51C562.161 71.5094 560.944 71.0768 559.97 70.2847C558.995 69.4927 558.323 68.3894 558.066 67.1601H551.595C551.408 68.0542 551 68.8872 550.408 69.583C549.816 70.2788 549.06 70.8154 548.208 71.1436C547.356 71.4719 546.435 71.5815 545.53 71.4624C544.625 71.3432 543.764 70.9992 543.026 70.4617C542.287 69.9242 541.695 69.2102 541.304 68.385C540.912 67.5598 540.733 66.6496 540.783 65.7374C540.833 64.8252 541.111 63.94 541.59 63.1627C542.07 62.3854 542.737 61.7407 543.529 61.2873L541.533 55.1409C541.336 55.1545 541.138 55.1545 540.941 55.1409C540.053 55.1429 539.179 54.9287 538.392 54.5167C537.606 54.1048 536.932 53.5075 536.428 52.7764C535.924 52.0454 535.605 51.2025 535.499 50.3207C535.394 49.4389 535.504 48.5446 535.821 47.715C536.138 46.8855 536.652 46.1456 537.319 45.5593C537.986 44.973 538.785 44.558 539.648 44.35C540.511 44.142 541.412 44.1473 542.272 44.3654C543.132 44.5836 543.927 45.0081 544.587 45.6022L549.845 41.8724C549.528 41.1672 549.363 40.4026 549.362 39.629C549.362 38.1779 549.938 36.7862 550.964 35.7601C551.989 34.734 553.38 34.1575 554.831 34.1575C556.281 34.1575 557.672 34.734 558.697 35.7601C559.723 36.7862 560.299 38.1779 560.299 39.629C560.301 40.4019 560.14 41.1665 559.825 41.8724L565.093 45.6386C566.088 44.7255 567.388 44.218 568.738 44.216C570.189 44.216 571.579 44.7925 572.605 45.8186C573.63 46.8447 574.207 48.2364 574.207 49.6876C574.207 51.1387 573.63 52.5304 572.605 53.5566C571.579 54.5827 570.189 55.1591 568.738 55.1591C568.547 55.1591 568.346 55.1591 568.155 55.1591L566.15 61.3055C567.199 61.9049 568.02 62.8349 568.485 63.9503C568.95 65.0657 569.033 66.3038 568.72 67.4712C568.408 68.6387 567.718 69.6698 566.759 70.4038C565.799 71.1377 564.624 71.5331 563.416 71.5282V71.51Z" fill="white"/>
<path id="Vector_2" d="M554.84 34.5769C555.707 34.5788 556.56 34.8058 557.314 35.2355C558.068 35.6652 558.697 36.2831 559.142 37.0289C559.586 37.7747 559.829 38.6229 559.849 39.4909C559.868 40.3589 559.662 41.2171 559.251 41.9817L565.093 46.2313C565.665 45.6322 566.377 45.1843 567.164 44.9276C567.951 44.671 568.79 44.6136 569.605 44.7605C570.42 44.9075 571.186 45.2543 571.835 45.7698C572.483 46.2854 572.994 46.9536 573.321 47.7149C573.648 48.4762 573.782 49.3067 573.71 50.1323C573.638 50.9579 573.363 51.7527 572.909 52.4459C572.455 53.139 571.836 53.7087 571.109 54.1042C570.381 54.4997 569.566 54.7086 568.738 54.7122C568.433 54.7164 568.128 54.692 567.827 54.6392L565.594 61.5243C566.375 61.9012 567.045 62.4745 567.538 63.188C568.032 63.9015 568.332 64.7308 568.409 65.595C568.486 66.4592 568.338 67.3287 567.979 68.1185C567.62 68.9083 567.062 69.5914 566.36 70.101C565.659 70.6106 564.837 70.9294 563.975 71.0261C563.113 71.1228 562.241 70.9942 561.444 70.6529C560.647 70.3115 559.952 69.7691 559.427 69.0785C558.902 68.388 558.565 67.573 558.449 66.7131H551.212C551.095 67.573 550.757 68.3878 550.231 69.0779C549.706 69.768 549.01 70.3098 548.212 70.6502C547.414 70.9907 546.542 71.1182 545.68 71.0203C544.818 70.9224 543.996 70.6024 543.295 70.0917C542.594 69.5809 542.037 68.8969 541.679 68.1064C541.322 67.3159 541.175 66.446 541.253 65.5817C541.332 64.7175 541.634 63.8884 542.128 63.1756C542.623 62.4629 543.294 61.8907 544.076 61.5152L541.843 54.6392C541.543 54.6951 541.237 54.7225 540.932 54.7213C540.101 54.7198 539.284 54.5121 538.553 54.117C537.822 53.7218 537.201 53.1514 536.745 52.4569C536.289 51.7625 536.011 50.9656 535.939 50.1377C535.866 49.3098 535.999 48.4767 536.327 47.7131C536.655 46.9495 537.167 46.2791 537.817 45.7622C538.468 45.2452 539.236 44.8978 540.054 44.7509C540.871 44.6041 541.712 44.6625 542.502 44.9208C543.291 45.1792 544.005 45.6294 544.577 46.2313L550.419 41.9817C550.008 41.2164 549.802 40.3574 549.821 39.4886C549.841 38.6199 550.085 37.771 550.531 37.025C550.976 36.2789 551.607 35.6612 552.362 35.2321C553.118 34.803 553.971 34.5773 554.84 34.5769ZM554.84 33.6649C553.268 33.6649 551.76 34.2891 550.647 35.4005C549.535 36.5119 548.909 38.0195 548.906 39.5925C548.906 40.3061 549.035 41.0139 549.289 41.6808L544.632 45.0549C543.891 44.4636 543.019 44.0586 542.089 43.8738C541.16 43.6889 540.199 43.7297 539.288 43.9926C538.378 44.2555 537.543 44.7329 536.855 45.3849C536.166 46.0368 535.644 46.8443 535.332 47.7397C535.019 48.6352 534.926 49.5925 535.059 50.5315C535.192 51.4705 535.548 52.3639 536.098 53.1368C536.647 53.9098 537.373 54.5398 538.216 54.9741C539.059 55.4085 539.993 55.6345 540.941 55.6332H541.205L543.028 61.1048C542.23 61.633 541.572 62.3467 541.11 63.1849C540.648 64.023 540.396 64.9607 540.375 65.9177C540.354 66.8747 540.564 67.8225 540.989 68.6802C541.414 69.5378 542.04 70.2798 542.814 70.8426C543.588 71.4054 544.486 71.7724 545.433 71.9121C546.379 72.0517 547.345 71.96 548.249 71.6447C549.152 71.3294 549.965 70.7999 550.62 70.1015C551.274 69.403 551.749 68.5565 552.005 67.6342H557.747C558.001 68.5597 558.476 69.4099 559.13 70.1117C559.784 70.8135 560.599 71.346 561.504 71.6637C562.41 71.9814 563.378 72.0747 564.328 71.9356C565.277 71.7966 566.178 71.4293 566.954 70.8653C567.73 70.3013 568.358 69.5574 568.784 68.6973C569.21 67.8373 569.421 66.8867 569.4 65.9271C569.378 64.9675 569.124 64.0274 568.66 63.1876C568.195 62.3477 567.534 61.633 566.733 61.1048L568.556 55.6332H568.738C569.544 55.678 570.35 55.5578 571.108 55.2801C571.865 55.0025 572.558 54.5731 573.144 54.0183C573.73 53.4635 574.197 52.7949 574.516 52.0534C574.835 51.3118 575 50.513 575 49.7057C575 48.8984 574.835 48.0996 574.516 47.3581C574.197 46.6166 573.73 45.948 573.144 45.3931C572.558 44.8383 571.865 44.409 571.108 44.1313C570.35 43.8536 569.544 43.7335 568.738 43.7782C567.396 43.7749 566.093 44.2319 565.047 45.0731L560.399 41.699C560.646 41.0304 560.772 40.3234 560.773 39.6107C560.774 38.8303 560.621 38.0574 560.324 37.336C560.026 36.6147 559.589 35.9592 559.038 35.407C558.487 34.8547 557.833 34.4166 557.112 34.1177C556.392 33.8188 555.619 33.6649 554.84 33.6649V33.6649Z" fill="white"/>
<path id="Vector_3" d="M568.738 44.6708C568.057 44.6691 567.382 44.8064 566.755 45.0746C566.128 45.3427 565.563 45.7359 565.093 46.2302L559.251 41.9807C559.665 41.2153 559.874 40.3553 559.856 39.4851C559.838 38.6148 559.595 37.7641 559.15 37.0163C558.705 36.2685 558.073 35.6492 557.317 35.2191C556.56 34.789 555.705 34.5629 554.835 34.5629C553.965 34.5629 553.11 34.789 552.354 35.2191C551.598 35.6492 550.966 36.2685 550.521 37.0163C550.076 37.7641 549.832 38.6148 549.815 39.4851C549.797 40.3553 550.005 41.2153 550.42 41.9807L544.569 46.2302C543.995 45.6332 543.284 45.1875 542.496 44.9327C541.709 44.6779 540.871 44.622 540.057 44.77C539.243 44.918 538.479 45.2652 537.831 45.7808C537.184 46.2964 536.675 46.9643 536.348 47.7248C536.021 48.4854 535.888 49.315 535.96 50.1397C536.032 50.9644 536.306 51.7585 536.759 52.4511C537.212 53.1438 537.829 53.7135 538.556 54.1094C539.283 54.5054 540.096 54.7152 540.923 54.7203C541.229 54.7215 541.534 54.694 541.834 54.6382L544.067 61.505C543.285 61.8806 542.614 62.4527 542.12 63.1655C541.625 63.8783 541.323 64.7073 541.245 65.5716C541.166 66.4358 541.313 67.3057 541.671 68.0962C542.029 68.8867 542.585 69.5708 543.286 70.0815C543.988 70.5923 544.809 70.9122 545.671 71.0101C546.533 71.108 547.405 70.9805 548.203 70.6401C549.001 70.2996 549.697 69.7579 550.223 69.0678C550.749 68.3777 551.086 67.5629 551.203 66.703H558.44C558.556 67.5628 558.893 68.3778 559.418 69.0684C559.943 69.7589 560.638 70.3014 561.435 70.6427C562.232 70.9841 563.104 71.1127 563.966 71.016C564.828 70.9192 565.65 70.6005 566.352 70.0908C567.053 69.5812 567.611 68.8981 567.97 68.1083C568.329 67.3186 568.477 66.4491 568.4 65.5849C568.323 64.7207 568.023 63.8913 567.529 63.1778C567.036 62.4643 566.366 61.8911 565.585 61.5141L567.827 54.6382C568.128 54.694 568.433 54.7215 568.738 54.7203C569.422 54.7615 570.107 54.6624 570.751 54.429C571.395 54.1956 571.985 53.8329 572.483 53.3631C572.982 52.8933 573.379 52.3264 573.651 51.6973C573.922 51.0681 574.063 50.39 574.063 49.7047C574.063 49.0193 573.922 48.3412 573.651 47.7121C573.379 47.0829 572.982 46.516 572.483 46.0462C571.985 45.5765 571.395 45.2137 570.751 44.9803C570.107 44.7469 569.422 44.6478 568.738 44.6891V44.6708ZM563.416 69.7123C562.695 69.7123 561.99 69.4984 561.391 69.0976C560.791 68.6968 560.324 68.1271 560.048 67.4605C559.772 66.794 559.7 66.0606 559.84 65.353C559.981 64.6454 560.328 63.9954 560.838 63.4853C561.348 62.9752 561.998 62.6278 562.705 62.487C563.412 62.3463 564.145 62.4185 564.811 62.6946C565.477 62.9707 566.047 63.4382 566.447 64.0381C566.848 64.6379 567.062 65.3432 567.062 66.0646C567.062 67.0321 566.677 67.9599 565.994 68.6439C565.31 69.328 564.383 69.7123 563.416 69.7123ZM551.213 65.3624C551.063 64.2301 550.529 63.1837 549.7 62.3987L552.434 58.5777C553.166 58.9668 553.983 59.1703 554.813 59.1705C555.639 59.1733 556.454 58.9696 557.182 58.5777L559.916 62.3987C559.084 63.1828 558.547 64.2292 558.394 65.3624H551.213ZM542.563 66.0373C542.563 65.3158 542.777 64.6106 543.178 64.0107C543.578 63.4108 544.148 62.9433 544.814 62.6672C545.48 62.3911 546.213 62.3189 546.92 62.4597C547.627 62.6004 548.277 62.9478 548.787 63.4579C549.297 63.9681 549.644 64.618 549.785 65.3256C549.925 66.0332 549.853 66.7667 549.577 67.4332C549.301 68.0997 548.834 68.6694 548.234 69.0702C547.635 69.471 546.93 69.685 546.209 69.685C545.242 69.685 544.315 69.3007 543.631 68.6166C542.948 67.9325 542.563 67.0047 542.563 66.0373ZM540.941 46.0205C541.662 46.0205 542.367 46.2344 542.967 46.6352C543.566 47.0361 544.033 47.6057 544.309 48.2723C544.585 48.9388 544.657 49.6722 544.517 50.3798C544.376 51.0874 544.029 51.7374 543.519 52.2475C543.009 52.7576 542.36 53.1051 541.652 53.2458C540.945 53.3866 540.212 53.3143 539.546 53.0382C538.88 52.7621 538.311 52.2946 537.91 51.6947C537.509 51.0949 537.296 50.3896 537.296 49.6682C537.296 48.7008 537.68 47.773 538.363 47.0889C539.047 46.4048 539.974 46.0205 540.941 46.0205ZM551.158 39.637C551.158 38.9156 551.372 38.2103 551.772 37.6104C552.173 37.0106 552.742 36.5431 553.408 36.267C554.074 35.9909 554.807 35.9186 555.515 36.0594C556.222 36.2001 556.871 36.5475 557.381 37.0577C557.891 37.5678 558.238 38.2178 558.379 38.9254C558.52 39.633 558.447 40.3664 558.171 41.0329C557.896 41.6995 557.428 42.2691 556.829 42.67C556.229 43.0708 555.524 43.2847 554.803 43.2847C554.321 43.2847 553.843 43.1889 553.398 43.0027C552.952 42.8166 552.548 42.5438 552.209 42.2003C551.87 41.8567 551.603 41.4492 551.422 41.0013C551.242 40.5535 551.152 40.0743 551.158 39.5914V39.637ZM563.79 50.5801L559.369 51.9936C559.009 51.2393 558.468 50.5862 557.793 50.0928C557.119 49.5994 556.333 49.2812 555.505 49.1666V44.607C556.634 44.4567 557.677 43.9222 558.458 43.0932L564.318 47.3428C563.922 48.0732 563.715 48.8916 563.717 49.7229C563.719 50.0071 563.743 50.2906 563.79 50.571V50.5801ZM558.513 54.164C558.513 54.8854 558.299 55.5907 557.898 56.1905C557.498 56.7904 556.928 57.2579 556.262 57.534C555.596 57.8101 554.863 57.8823 554.156 57.7416C553.449 57.6009 552.799 57.2534 552.289 56.7433C551.78 56.2332 551.432 55.5832 551.292 54.8756C551.151 54.168 551.223 53.4346 551.499 52.7681C551.775 52.1015 552.242 51.5318 552.842 51.131C553.441 50.7302 554.146 50.5163 554.867 50.5163C555.832 50.5163 556.758 50.8993 557.442 51.5814C558.125 52.2635 558.51 53.189 558.513 54.1549V54.164ZM554.156 44.607V49.1666C553.33 49.2793 552.546 49.5959 551.873 50.0878C551.2 50.5798 550.66 51.2316 550.301 51.9845L545.872 50.571C545.929 50.2704 545.956 49.965 545.954 49.6591C545.946 48.8504 545.743 48.0557 545.361 47.3428L551.213 43.0841C551.99 43.9145 553.03 44.4522 554.156 44.607ZM545.462 51.9024L549.891 53.3159C549.835 53.6165 549.807 53.9219 549.809 54.2278C549.806 54.911 549.943 55.5875 550.213 56.2151C550.483 56.8427 550.879 57.408 551.377 57.8755L548.642 61.7056C547.915 61.3099 547.101 61.1029 546.273 61.1037C545.967 61.1019 545.662 61.1294 545.361 61.1858L543.119 54.2187C544.142 53.7343 544.971 52.9179 545.471 51.9024H545.462ZM563.416 61.0217C562.59 61.023 561.776 61.2265 561.046 61.6144L558.312 57.8026C558.808 57.3337 559.203 56.7682 559.473 56.1409C559.742 55.5136 559.881 54.8377 559.88 54.1549C559.882 53.8489 559.855 53.5435 559.798 53.2429L564.182 51.8477C564.678 52.879 565.506 53.7139 566.533 54.2187L564.3 61.0946C564.008 61.0435 563.712 61.0191 563.416 61.0217ZM565.093 49.6955C565.093 48.9741 565.307 48.2689 565.707 47.669C566.108 47.0691 566.677 46.6016 567.343 46.3255C568.01 46.0494 568.743 45.9772 569.45 46.1179C570.157 46.2587 570.806 46.6061 571.316 47.1162C571.826 47.6264 572.173 48.2763 572.314 48.9839C572.455 49.6915 572.382 50.4249 572.107 51.0915C571.831 51.758 571.363 52.3277 570.764 52.7285C570.164 53.1293 569.459 53.3433 568.738 53.3433C567.772 53.3433 566.844 52.9589 566.161 52.2749C565.477 51.5908 565.093 50.663 565.093 49.6955Z" fill="#AA643B"/>
</g>
</g>
</g>
<text id="VCN" fill="#AE562C" xml:space="preserve" style="white-space: pre" font-family="Oracle Sans" font-size="16" font-weight="600" letter-spacing="0em"><tspan x="35" y="70.816">VCN</tspan></text>
</g>
<g id="Subnet_New">
<text id="Subnet" fill="#AE562C" xml:space="preserve" style="white-space: pre" font-family="Oracle Sans" font-size="16" font-weight="600" letter-spacing="0em"><tspan x="65" y="117.816">Client</tspan></text>
<text id="Subnet_2" fill="#AE562C" xml:space="preserve" style="white-space: pre" font-family="Oracle Sans" font-size="16" font-weight="600" letter-spacing="0em"><tspan x="65" y="133.816">Subnet</tspan></text>
<g id="Icon Master_2">
<g id="OCI-SL_RT">
<g id="Group">
<g id="Group_2">
<path id="Vector_4" d="M528.476 115.519V89.0769H545.238V81.2885L556.476 76.4808L567.619 81.2885V91.4808C567.619 91.5769 567.619 94.0769 566.19 97.0577C564.952 99.75 562.381 103.404 556.857 105.423V115.423H528.476V115.519Z" fill="white"/>
<path id="Vector_5" d="M556.381 77.0577L567.048 81.5769V91.4808C567.048 91.5769 567.048 93.9808 565.714 96.8654C564.476 99.5577 562 103.115 556.667 105.038L556.476 105.135H556.381V115.038H528.952V89.5577H545.714V81.5769L556.381 77.0577ZM556.381 76L556 76.1923L545.333 80.7115L544.762 81V81.6731V88.6923H528.952H528V89.6538V115.038V116H528.952H556.381H557.333V115.038V105.808C562.667 103.692 565.333 100.038 566.571 97.25C568 94.1731 568 91.5769 568 91.4808V81.5769V81L567.429 80.7115L556.762 76.1923L556.381 76Z" fill="white"/>
</g>
<g id="Group_3">
<path id="Vector_6" d="M555.047 105.712H537.524V98.9811H547.047C546.762 98.5004 546.571 98.1158 546.381 97.7311H537.524V91.0004H544.666V89.7504H528.952V115.135H556.381V106.289L555.905 106.097C555.619 105.904 555.333 105.808 555.047 105.712ZM530.19 90.9042H536.285V97.635H530.19V90.9042ZM536.285 98.885V105.616H530.19V98.885H536.285ZM530.19 106.962H536.285V113.693H530.19V106.962ZM555.047 113.693H537.524V106.962H555.047V113.693Z" fill="#AA643B"/>
<path id="Vector_7" d="M553.619 111.192H552.381V112.442H553.619V111.192Z" fill="#AA643B"/>
<path id="Vector_8" d="M548.381 112.442L549.523 111.289L550.666 112.442L551.523 111.481L550.381 110.327L551.523 109.173L550.666 108.308L549.523 109.462L548.381 108.308L547.428 109.173L548.571 110.327L547.428 111.481L548.381 112.442Z" fill="#AA643B"/>
<path id="Vector_9" d="M545.619 111.192H544.381V112.442H545.619V111.192Z" fill="#AA643B"/>
<path id="Vector_10" d="M539.523 111.481L540.381 112.442L541.523 111.289L542.666 112.442L543.619 111.481L542.476 110.327L543.619 109.173L542.666 108.308L541.523 109.462L540.381 108.308L539.523 109.173L540.666 110.327L539.523 111.481Z" fill="#AA643B"/>
<path id="Vector_11" d="M545.619 103.116H544.381V104.366H545.619V103.116Z" fill="#AA643B"/>
<path id="Vector_12" d="M539.523 103.404L540.381 104.366L541.523 103.212L542.666 104.366L543.619 103.404L542.476 102.25L543.619 101.096L542.666 100.231L541.523 101.385L540.381 100.231L539.523 101.096L540.666 102.25L539.523 103.404Z" fill="#AA643B"/>
<path id="Vector_13" d="M544.095 96.385H545.333V95.135C545.333 95.135 545.333 95.135 545.333 95.0388H544.095V96.385Z" fill="#AA643B"/>
<path id="Vector_14" d="M539.143 95.4234L540.095 96.2888L541.238 95.135L542.381 96.2888L543.238 95.4234L542.095 94.2696L543.238 93.1157L542.381 92.1542L541.238 93.3081L540.095 92.1542L539.143 93.1157L540.285 94.2696L539.143 95.4234Z" fill="#AA643B"/>
<path id="Vector_15" d="M545.714 81.5771V91.4809C545.714 91.5771 545.809 93.9809 547.047 96.8656C548.285 99.5579 550.857 103.116 556.19 105.039L556.381 105.135L556.571 105.039C561.904 103.116 564.476 99.5579 565.619 96.8656C566.952 93.9809 566.952 91.5771 566.952 91.4809V81.5771L556.381 77.0579L545.714 81.5771ZM565.809 91.4809C565.809 91.5771 565.619 100.231 556.476 103.692C552.666 102.25 549.904 99.7502 548.285 96.3848C547.047 93.7886 547.047 91.4809 547.047 91.4809V82.4425L556.476 78.404L565.809 82.4425V91.4809Z" fill="#AA643B"/>
<path id="Vector_16" d="M555.238 92.827H550.285V94.077H555.238V92.827Z" fill="#AA643B"/>
<path id="Vector_17" d="M555.238 86.385H550.285V87.635H555.238V86.385Z" fill="#AA643B"/>
<path id="Vector_18" d="M561.904 84.9427L559.143 87.635L558.19 86.6734L557.238 87.5388L559.143 89.4619L562.762 85.8081L561.904 84.9427Z" fill="#AA643B"/>
<path id="Vector_19" d="M550.285 90.904H555.047H555.238V89.5579H550.285V90.904Z" fill="#AA643B"/>
</g>
</g>
</g>
</g>
<rect x="57.5" y="96.5" width="519" height="71" stroke="#AA643B" stroke-dasharray="8 4"/>
</g>
<g id="Subnet_New_2">
<text id="Subnet_3" fill="#AE562C" xml:space="preserve" style="white-space: pre" font-family="Oracle Sans" font-size="16" font-weight="600" letter-spacing="0em"><tspan x="65" y="228.816">Backup</tspan></text>
<text id="Subnet_4" fill="#AE562C" xml:space="preserve" style="white-space: pre" font-family="Oracle Sans" font-size="16" font-weight="600" letter-spacing="0em"><tspan x="65" y="244.816">Subnet</tspan></text>
<g id="Icon Master_3">
<g id="OCI-SL_RT_2">
<g id="Group_4">
<g id="Group_5">
<path id="Vector_20" d="M528.476 226.519V200.077H545.238V192.288L556.476 187.481L567.619 192.288V202.481C567.619 202.577 567.619 205.077 566.19 208.058C564.952 210.75 562.381 214.404 556.857 216.423V226.423H528.476V226.519Z" fill="white"/>
<path id="Vector_21" d="M556.381 188.058L567.048 192.577V202.481C567.048 202.577 567.048 204.981 565.714 207.865C564.476 210.558 562 214.115 556.667 216.038L556.476 216.135H556.381V226.038H528.952V200.558H545.714V192.577L556.381 188.058ZM556.381 187L556 187.192L545.333 191.712L544.762 192V192.673V199.692H528.952H528V200.654V226.038V227H528.952H556.381H557.333V226.038V216.808C562.667 214.692 565.333 211.038 566.571 208.25C568 205.173 568 202.577 568 202.481V192.577V192L567.429 191.712L556.762 187.192L556.381 187Z" fill="white"/>
</g>
<g id="Group_6">
<path id="Vector_22" d="M555.047 216.712H537.524V209.981H547.047C546.762 209.5 546.571 209.116 546.381 208.731H537.524V202H544.666V200.75H528.952V226.135H556.381V217.289L555.905 217.097C555.619 216.904 555.333 216.808 555.047 216.712ZM530.19 201.904H536.285V208.635H530.19V201.904ZM536.285 209.885V216.616H530.19V209.885H536.285ZM530.19 217.962H536.285V224.693H530.19V217.962ZM555.047 224.693H537.524V217.962H555.047V224.693Z" fill="#AA643B"/>
<path id="Vector_23" d="M553.619 222.193H552.381V223.443H553.619V222.193Z" fill="#AA643B"/>
<path id="Vector_24" d="M548.381 223.443L549.523 222.289L550.666 223.443L551.523 222.481L550.381 221.327L551.523 220.173L550.666 219.308L549.523 220.462L548.381 219.308L547.428 220.173L548.571 221.327L547.428 222.481L548.381 223.443Z" fill="#AA643B"/>
<path id="Vector_25" d="M545.619 222.193H544.381V223.443H545.619V222.193Z" fill="#AA643B"/>
<path id="Vector_26" d="M539.523 222.481L540.381 223.443L541.523 222.289L542.666 223.443L543.619 222.481L542.476 221.327L543.619 220.173L542.666 219.308L541.523 220.462L540.381 219.308L539.523 220.173L540.666 221.327L539.523 222.481Z" fill="#AA643B"/>
<path id="Vector_27" d="M545.619 214.116H544.381V215.366H545.619V214.116Z" fill="#AA643B"/>
<path id="Vector_28" d="M539.523 214.404L540.381 215.366L541.523 214.212L542.666 215.366L543.619 214.404L542.476 213.25L543.619 212.096L542.666 211.231L541.523 212.385L540.381 211.231L539.523 212.096L540.666 213.25L539.523 214.404Z" fill="#AA643B"/>
<path id="Vector_29" d="M544.095 207.385H545.333V206.135C545.333 206.135 545.333 206.135 545.333 206.039H544.095V207.385Z" fill="#AA643B"/>
<path id="Vector_30" d="M539.143 206.423L540.095 207.289L541.238 206.135L542.381 207.289L543.238 206.423L542.095 205.27L543.238 204.116L542.381 203.154L541.238 204.308L540.095 203.154L539.143 204.116L540.285 205.27L539.143 206.423Z" fill="#AA643B"/>
<path id="Vector_31" d="M545.714 192.577V202.481C545.714 202.577 545.809 204.981 547.047 207.866C548.285 210.558 550.857 214.116 556.19 216.039L556.381 216.135L556.571 216.039C561.904 214.116 564.476 210.558 565.619 207.866C566.952 204.981 566.952 202.577 566.952 202.481V192.577L556.381 188.058L545.714 192.577ZM565.809 202.481C565.809 202.577 565.619 211.231 556.476 214.693C552.666 213.25 549.904 210.75 548.285 207.385C547.047 204.789 547.047 202.481 547.047 202.481V193.443L556.476 189.404L565.809 193.443V202.481Z" fill="#AA643B"/>
<path id="Vector_32" d="M555.238 203.827H550.285V205.077H555.238V203.827Z" fill="#AA643B"/>
<path id="Vector_33" d="M555.238 197.385H550.285V198.635H555.238V197.385Z" fill="#AA643B"/>
<path id="Vector_34" d="M561.904 195.943L559.143 198.635L558.19 197.673L557.238 198.539L559.143 200.462L562.762 196.808L561.904 195.943Z" fill="#AA643B"/>
<path id="Vector_35" d="M550.285 201.904H555.047H555.238V200.558H550.285V201.904Z" fill="#AA643B"/>
</g>
</g>
</g>
</g>
<rect x="57.5" y="207.5" width="519" height="120" stroke="#AA643B" stroke-dasharray="8 4"/>
</g>
<g id="exadata-1">
<g id="Technology - Exadata-Cloud-Service">
<g id="Group 826">
<g id="Union">
<path fill-rule="evenodd" clip-rule="evenodd" d="M444.978 219.457V164.501H421.015V219.457H444.978ZM422.692 217.78H443.301V166.178H422.692V217.78Z" fill="white"/>
<path fill-rule="evenodd" clip-rule="evenodd" d="M423.733 150.934L423.857 149.262C423.279 149.22 422.7 149.218 422.123 149.258H420.78L419.976 149.43H419.532L419.287 149.507C418.847 149.646 418.415 149.807 417.993 149.991L418.661 151.528L417.979 149.996C417.102 150.387 416.272 150.876 415.506 151.456L415.498 151.461C415.116 151.754 414.753 152.072 414.412 152.413L414.407 152.418C412.628 154.214 411.463 156.527 411.078 159.025C411.012 159.318 410.886 159.593 410.707 159.834C410.525 160.08 410.294 160.284 410.028 160.433C408.304 161.313 406.765 162.515 405.492 163.974L405.478 163.991C403.815 165.949 402.67 168.293 402.148 170.809L402.146 170.817C402.016 171.46 401.929 172.112 401.887 172.767L401.657 176.333H416.238V224.238H449.755V176.333H459.093L460.002 174.631L460.005 174.627C461.776 171.354 462.241 167.531 461.308 163.929C460.373 160.325 458.108 157.209 454.969 155.211L454.959 155.205C453.531 154.31 451.961 153.666 450.316 153.302L450.294 153.297C449.989 153.234 449.7 153.105 449.45 152.919C449.205 152.738 449.002 152.507 448.853 152.241C448.541 151.622 448.193 151.023 447.809 150.446L447.799 150.431L447.789 150.417C447.036 149.337 446.143 148.363 445.133 147.52L445.125 147.514C442.499 145.348 439.189 144.188 435.786 144.239C432.384 144.291 429.11 145.552 426.551 147.796L426.546 147.8C426.201 148.105 425.84 148.444 425.509 148.796C425.421 148.885 425.328 148.969 425.23 149.048L425.04 149.143H424.942L424.483 149.258H424.308L424.233 149.265C424.117 149.275 423.999 149.275 423.883 149.265L423.733 150.934ZM403.56 172.875C403.597 172.295 403.674 171.719 403.789 171.15C404.255 168.909 405.275 166.82 406.756 165.076C407.894 163.771 409.271 162.698 410.814 161.914C411.301 161.648 411.724 161.278 412.055 160.832C412.385 160.385 412.615 159.872 412.728 159.327C413.052 157.161 414.058 155.154 415.598 153.598C415.887 153.31 416.193 153.041 416.517 152.793C417.181 152.291 417.9 151.867 418.661 151.528C419.029 151.368 419.406 151.228 419.79 151.107H420.154L420.957 150.934H422.182C422.698 150.896 423.217 150.896 423.733 150.934C423.949 150.954 424.167 150.954 424.383 150.934H424.69L425.149 150.819H425.436C425.6 150.766 425.755 150.689 425.895 150.59L426.125 150.475C426.336 150.318 426.535 150.145 426.718 149.957C427.005 149.651 427.331 149.344 427.656 149.057C429.917 147.075 432.807 145.961 435.812 145.916C438.816 145.87 441.739 146.895 444.059 148.807C444.954 149.554 445.746 150.418 446.413 151.375C446.765 151.904 447.085 152.455 447.37 153.023C447.636 153.511 448.005 153.935 448.451 154.266C448.897 154.597 449.41 154.827 449.954 154.939C451.411 155.262 452.803 155.832 454.069 156.625C456.85 158.395 458.857 161.156 459.685 164.349C460.512 167.543 460.099 170.932 458.528 173.833L458.088 174.657H450.432V171.533H456.174C457.084 169.374 457.199 166.962 456.498 164.727C455.796 162.491 454.325 160.578 452.346 159.327C451.387 158.681 450.316 158.219 449.188 157.967C448.183 157.746 447.24 157.303 446.429 156.669C445.617 156.036 444.958 155.229 444.499 154.307C443.706 152.723 442.491 151.391 440.987 150.457C439.484 149.523 437.751 149.025 435.982 149.018C434.668 149.017 433.368 149.287 432.163 149.812C430.957 150.336 429.873 151.103 428.977 152.065C428.279 152.818 427.417 153.399 426.457 153.762C425.497 154.124 424.466 154.258 423.446 154.154C422.236 154.036 421.016 154.234 419.905 154.728C418.853 155.2 417.93 155.918 417.213 156.821C416.497 157.725 416.009 158.789 415.79 159.921C415.585 160.926 415.157 161.871 414.538 162.687C413.918 163.503 413.123 164.169 412.211 164.635C410.89 165.324 409.732 166.29 408.817 167.467C408.265 168.178 407.809 168.956 407.459 169.78C407.229 170.321 407.045 170.881 406.909 171.457H415.598V174.657H403.445L403.56 172.875ZM421.025 161.397L417.915 163.624V222.561H448.078V161.397H421.025Z" fill="white"/>
</g>
<path id="Vector_36" d="M406.909 171.457C407.252 170.005 407.903 168.644 408.817 167.467C409.732 166.29 410.89 165.324 412.211 164.635C413.123 164.169 413.918 163.503 414.538 162.687C415.157 161.871 415.585 160.926 415.79 159.921C416.009 158.789 416.497 157.725 417.213 156.821C417.93 155.918 418.853 155.2 419.905 154.728C421.016 154.234 422.235 154.036 423.445 154.154C424.466 154.258 425.497 154.124 426.457 153.761C427.417 153.399 428.279 152.818 428.977 152.065C429.873 151.103 430.957 150.336 432.163 149.812C433.368 149.287 434.668 149.017 435.982 149.018C437.751 149.025 439.484 149.523 440.987 150.457C442.491 151.391 443.706 152.723 444.499 154.307C444.958 155.229 445.617 156.036 446.429 156.669C447.24 157.303 448.183 157.746 449.188 157.967C450.316 158.219 451.387 158.681 452.346 159.327C454.325 160.578 455.796 162.491 456.497 164.727C457.199 166.962 457.084 169.374 456.174 171.533H450.432V174.657H458.088L458.528 173.833C460.099 170.932 460.512 167.543 459.684 164.349C458.857 161.156 456.85 158.395 454.069 156.625C452.803 155.832 451.411 155.262 449.954 154.939C449.41 154.827 448.897 154.597 448.451 154.266C448.005 153.935 447.636 153.511 447.37 153.023C447.085 152.455 446.765 151.904 446.413 151.375C445.746 150.418 444.954 149.554 444.059 148.807C441.739 146.895 438.816 145.87 435.812 145.916C432.807 145.961 429.917 147.075 427.656 149.057C427.331 149.344 427.005 149.651 426.718 149.957C426.534 150.145 426.336 150.318 426.125 150.475L425.895 150.59C425.755 150.689 425.6 150.766 425.436 150.819H425.149L424.69 150.934H424.383C424.167 150.954 423.949 150.954 423.733 150.934C423.217 150.896 422.698 150.896 422.182 150.934H421.378H420.957L420.154 151.107H419.79C419.406 151.228 419.029 151.368 418.661 151.528C417.9 151.867 417.181 152.291 416.517 152.793C416.193 153.041 415.886 153.31 415.598 153.598C414.058 155.154 413.052 157.161 412.727 159.327C412.615 159.872 412.385 160.385 412.055 160.832C411.724 161.278 411.301 161.648 410.813 161.914C409.271 162.698 407.894 163.771 406.756 165.076C405.275 166.82 404.255 168.909 403.789 171.15C403.674 171.719 403.597 172.295 403.56 172.875L403.445 174.657H415.598V171.457H406.909Z" fill="#2D5967"/>
<path id="Union_2" fill-rule="evenodd" clip-rule="evenodd" d="M444.977 219.457H421.015V164.501H444.977V219.457ZM442.585 166.82H423.331V169.924H442.585V166.82ZM425.646 174.945H423.331V178.049H425.646V180.751H440.345V178.049H442.585V174.945H440.345V172.243H425.646V174.945ZM442.585 183.069H423.331V186.154H442.585V183.069ZM442.585 188.492H423.331V191.596H442.585V188.492Z" fill="white"/>
<path id="Vector_37" d="M437.245 175.328H428.747V177.646H437.245V175.328Z" fill="white"/>
<path id="Vector_38" d="M417.915 161.397V222.561H448.078V161.397H417.915ZM444.978 219.457H421.015V164.501H444.978V219.457Z" fill="#2D5967"/>
<path id="Vector_39" d="M442.662 166.82H423.331V169.924H442.662V166.82Z" fill="#2D5967"/>
<path id="Vector_40" d="M425.647 180.751H440.346V178.049H442.585V174.945H440.346V172.243H425.647V174.945H423.331V178.049H425.647V180.751ZM428.748 175.328H437.245V177.666H428.748V175.328Z" fill="#2D5967"/>
<path id="Vector_41" d="M442.662 183.069H423.331V186.173H442.662V183.069Z" fill="#2D5967"/>
<path id="Vector_42" d="M442.662 188.492H423.331V191.596H442.662V188.492Z" fill="#2D5967"/>
<path id="Vector_43" d="M438.681 198.136L435.348 198.154L433.168 203.679L430.859 198.173H427.506L431.194 206.265L427.376 214.86H430.71L433.038 208.907L435.534 214.841L438.886 214.823L435.031 206.358L438.681 198.136Z" fill="#2D5967"/>
</g>
</g>
<g id="Icon Text Label">
<text id="IconLabel" fill="black" xml:space="preserve" style="white-space: pre" font-family="Oracle Sans" font-size="16" letter-spacing="0em"><tspan x="378.938" y="241.816">Oracle Exadata</tspan></text>
<text id="IconLabel_2" fill="black" xml:space="preserve" style="white-space: pre" font-family="Oracle Sans" font-size="16" letter-spacing="0em"><tspan x="371.07" y="257.816">Database Service</tspan></text>
<text id="IconLabel_3" fill="black" xml:space="preserve" style="white-space: pre" font-family="Oracle Sans" font-size="16" letter-spacing="0em"><tspan x="385.195" y="273.816">on Dedicated</tspan></text>
<text id="IconLabel_4" fill="black" xml:space="preserve" style="white-space: pre" font-family="Oracle Sans" font-size="16" letter-spacing="0em"><tspan x="383.68" y="289.816">Infrastructure</tspan></text>
</g>
</g>
<g id="exatada-2">
<g id="Technology - Exadata-Cloud-Service_2">
<g id="Group 826_2">
<g id="Union_3">
<path fill-rule="evenodd" clip-rule="evenodd" d="M237.478 219.457V164.501H213.515V219.457H237.478ZM215.192 217.78H235.801V166.178H215.192V217.78Z" fill="white"/>
<path fill-rule="evenodd" clip-rule="evenodd" d="M216.233 150.934L216.357 149.262C215.779 149.22 215.2 149.218 214.623 149.258H213.28L212.476 149.43H212.032L211.787 149.507C211.347 149.646 210.915 149.807 210.493 149.991L211.161 151.528L210.479 149.996C209.602 150.387 208.772 150.876 208.006 151.456L207.998 151.461C207.616 151.754 207.253 152.072 206.912 152.413L206.907 152.418C205.128 154.214 203.963 156.527 203.578 159.025C203.512 159.318 203.386 159.593 203.207 159.834C203.025 160.08 202.794 160.284 202.528 160.433C200.804 161.313 199.265 162.515 197.992 163.974L197.978 163.991C196.315 165.949 195.17 168.293 194.648 170.809L194.646 170.817C194.516 171.46 194.429 172.112 194.387 172.767L194.157 176.333H208.738V224.238H242.255V176.333H251.593L252.502 174.631L252.505 174.627C254.276 171.354 254.741 167.531 253.808 163.929C252.873 160.325 250.608 157.209 247.469 155.211L247.459 155.205C246.031 154.31 244.461 153.666 242.816 153.302L242.794 153.297C242.489 153.234 242.2 153.105 241.95 152.919C241.705 152.738 241.502 152.507 241.353 152.241C241.041 151.622 240.693 151.023 240.309 150.446L240.299 150.431L240.289 150.417C239.536 149.337 238.643 148.363 237.633 147.52L237.625 147.514C234.999 145.348 231.689 144.188 228.286 144.239C224.884 144.291 221.61 145.552 219.051 147.796L219.046 147.8C218.701 148.105 218.34 148.444 218.009 148.796C217.921 148.885 217.828 148.969 217.73 149.048L217.54 149.143H217.442L216.983 149.258H216.808L216.733 149.265C216.617 149.275 216.499 149.275 216.383 149.265L216.233 150.934ZM196.06 172.875C196.097 172.295 196.174 171.719 196.289 171.15C196.755 168.909 197.775 166.82 199.256 165.076C200.394 163.771 201.771 162.698 203.314 161.914C203.801 161.648 204.224 161.278 204.555 160.832C204.885 160.385 205.115 159.872 205.228 159.327C205.552 157.161 206.558 155.154 208.098 153.598C208.387 153.31 208.693 153.041 209.017 152.793C209.681 152.291 210.4 151.867 211.161 151.528C211.529 151.368 211.906 151.228 212.29 151.107H212.654L213.457 150.934H214.682C215.198 150.896 215.717 150.896 216.233 150.934C216.449 150.954 216.667 150.954 216.883 150.934H217.19L217.649 150.819H217.936C218.1 150.766 218.255 150.689 218.395 150.59L218.625 150.475C218.836 150.318 219.035 150.145 219.218 149.957C219.505 149.651 219.831 149.344 220.156 149.057C222.417 147.075 225.307 145.961 228.312 145.916C231.316 145.87 234.239 146.895 236.559 148.807C237.454 149.554 238.246 150.418 238.913 151.375C239.265 151.904 239.585 152.455 239.87 153.023C240.136 153.511 240.505 153.935 240.951 154.266C241.397 154.597 241.91 154.827 242.454 154.939C243.911 155.262 245.303 155.832 246.569 156.625C249.35 158.395 251.357 161.156 252.185 164.349C253.012 167.543 252.599 170.932 251.028 173.833L250.588 174.657H242.932V171.533H248.674C249.584 169.374 249.699 166.962 248.998 164.727C248.296 162.491 246.825 160.578 244.846 159.327C243.887 158.681 242.816 158.219 241.688 157.967C240.683 157.746 239.74 157.303 238.929 156.669C238.117 156.036 237.458 155.229 236.999 154.307C236.206 152.723 234.991 151.391 233.487 150.457C231.984 149.523 230.251 149.025 228.482 149.018C227.168 149.017 225.868 149.287 224.663 149.812C223.457 150.336 222.373 151.103 221.477 152.065C220.779 152.818 219.917 153.399 218.957 153.762C217.997 154.124 216.966 154.258 215.946 154.154C214.736 154.036 213.516 154.234 212.405 154.728C211.353 155.2 210.43 155.918 209.713 156.821C208.997 157.725 208.509 158.789 208.29 159.921C208.085 160.926 207.657 161.871 207.038 162.687C206.418 163.503 205.623 164.169 204.711 164.635C203.39 165.324 202.232 166.29 201.317 167.467C200.765 168.178 200.309 168.956 199.959 169.78C199.729 170.321 199.545 170.881 199.409 171.457H208.098V174.657H195.945L196.06 172.875ZM213.525 161.397L210.415 163.624V222.561H240.578V161.397H213.525Z" fill="white"/>
</g>
<path id="Vector_44" d="M199.409 171.457C199.752 170.005 200.403 168.644 201.317 167.467C202.232 166.29 203.39 165.324 204.711 164.635C205.623 164.169 206.418 163.503 207.038 162.687C207.657 161.871 208.085 160.926 208.29 159.921C208.509 158.789 208.997 157.725 209.713 156.821C210.43 155.918 211.353 155.2 212.405 154.728C213.516 154.234 214.735 154.036 215.945 154.154C216.966 154.258 217.997 154.124 218.957 153.761C219.917 153.399 220.779 152.818 221.477 152.065C222.373 151.103 223.457 150.336 224.663 149.812C225.868 149.287 227.168 149.017 228.482 149.018C230.251 149.025 231.984 149.523 233.487 150.457C234.991 151.391 236.206 152.723 236.999 154.307C237.458 155.229 238.117 156.036 238.929 156.669C239.74 157.303 240.683 157.746 241.688 157.967C242.816 158.219 243.887 158.681 244.846 159.327C246.825 160.578 248.296 162.491 248.997 164.727C249.699 166.962 249.584 169.374 248.674 171.533H242.932V174.657H250.588L251.028 173.833C252.599 170.932 253.012 167.543 252.184 164.349C251.357 161.156 249.35 158.395 246.569 156.625C245.303 155.832 243.911 155.262 242.454 154.939C241.91 154.827 241.397 154.597 240.951 154.266C240.505 153.935 240.136 153.511 239.87 153.023C239.585 152.455 239.265 151.904 238.913 151.375C238.246 150.418 237.454 149.554 236.559 148.807C234.239 146.895 231.316 145.87 228.312 145.916C225.307 145.961 222.417 147.075 220.156 149.057C219.831 149.344 219.505 149.651 219.218 149.957C219.034 150.145 218.836 150.318 218.625 150.475L218.395 150.59C218.255 150.689 218.1 150.766 217.936 150.819H217.649L217.19 150.934H216.883C216.667 150.954 216.449 150.954 216.233 150.934C215.717 150.896 215.198 150.896 214.682 150.934H213.878H213.457L212.654 151.107H212.29C211.906 151.228 211.529 151.368 211.161 151.528C210.4 151.867 209.681 152.291 209.017 152.793C208.693 153.041 208.386 153.31 208.098 153.598C206.558 155.154 205.552 157.161 205.227 159.327C205.115 159.872 204.885 160.385 204.555 160.832C204.224 161.278 203.801 161.648 203.313 161.914C201.771 162.698 200.394 163.771 199.256 165.076C197.775 166.82 196.755 168.909 196.289 171.15C196.174 171.719 196.097 172.295 196.06 172.875L195.945 174.657H208.098V171.457H199.409Z" fill="#2D5967"/>
<path id="Union_4" fill-rule="evenodd" clip-rule="evenodd" d="M237.477 219.457H213.515V164.501H237.477V219.457ZM235.085 166.82H215.831V169.924H235.085V166.82ZM218.146 174.945H215.831V178.049H218.146V180.751H232.845V178.049H235.085V174.945H232.845V172.243H218.146V174.945ZM235.085 183.069H215.831V186.154H235.085V183.069ZM235.085 188.492H215.831V191.596H235.085V188.492Z" fill="white"/>
<path id="Vector_45" d="M229.745 175.328H221.247V177.646H229.745V175.328Z" fill="white"/>
<path id="Vector_46" d="M210.415 161.397V222.561H240.578V161.397H210.415ZM237.478 219.457H213.515V164.501H237.478V219.457Z" fill="#2D5967"/>
<path id="Vector_47" d="M235.162 166.82H215.831V169.924H235.162V166.82Z" fill="#2D5967"/>
<path id="Vector_48" d="M218.147 180.751H232.846V178.049H235.085V174.945H232.846V172.243H218.147V174.945H215.831V178.049H218.147V180.751ZM221.248 175.328H229.745V177.666H221.248V175.328Z" fill="#2D5967"/>
<path id="Vector_49" d="M235.162 183.069H215.831V186.173H235.162V183.069Z" fill="#2D5967"/>
<path id="Vector_50" d="M235.162 188.492H215.831V191.596H235.162V188.492Z" fill="#2D5967"/>
<path id="Vector_51" d="M231.181 198.136L227.848 198.154L225.668 203.679L223.359 198.173H220.006L223.694 206.265L219.876 214.86H223.21L225.538 208.907L228.034 214.841L231.386 214.823L227.531 206.358L231.181 198.136Z" fill="#2D5967"/>
</g>
</g>
<g id="Icon Text Label_2">
<text id="IconLabel_5" fill="black" xml:space="preserve" style="white-space: pre" font-family="Oracle Sans" font-size="16" letter-spacing="0em"><tspan x="171.438" y="241.816">Oracle Exadata</tspan></text>
<text id="IconLabel_6" fill="black" xml:space="preserve" style="white-space: pre" font-family="Oracle Sans" font-size="16" letter-spacing="0em"><tspan x="163.57" y="257.816">Database Service</tspan></text>
<text id="IconLabel_7" fill="black" xml:space="preserve" style="white-space: pre" font-family="Oracle Sans" font-size="16" letter-spacing="0em"><tspan x="177.695" y="273.816">on Dedicated</tspan></text>
<text id="IconLabel_8" fill="black" xml:space="preserve" style="white-space: pre" font-family="Oracle Sans" font-size="16" letter-spacing="0em"><tspan x="176.18" y="289.816">Infrastructure</tspan></text>
</g>
</g>
<g id="Gateway">
<rect id="Rectangle 699" x="26" y="178" width="2" height="60" fill="#F5F4F2"/>
<g id="Icon Master_4">
<g id="Dynamic-Routing-Gateway-DRG">
<path id="Vector_52" d="M26.9999 217.524C37.7826 217.524 46.5237 208.783 46.5237 198C46.5237 187.217 37.7826 178.476 26.9999 178.476C16.2172 178.476 7.47607 187.217 7.47607 198C7.47607 208.783 16.2172 217.524 26.9999 217.524Z" fill="white"/>
<path id="Vector_53" d="M27 178.952C30.7673 178.952 34.4499 180.07 37.5823 182.162C40.7147 184.255 43.156 187.23 44.5977 190.711C46.0394 194.191 46.4166 198.021 45.6816 201.716C44.9467 205.411 43.1326 208.805 40.4687 211.469C37.8048 214.133 34.4109 215.947 30.716 216.682C27.0211 217.417 23.1913 217.039 19.7108 215.598C16.2303 214.156 13.2555 211.715 11.1625 208.582C9.06951 205.45 7.95239 201.767 7.95239 198C7.95239 192.948 9.95919 188.103 13.5313 184.531C17.1034 180.959 21.9483 178.952 27 178.952ZM27 178C23.0444 178 19.1776 179.173 15.8886 181.371C12.5996 183.568 10.0362 186.692 8.52242 190.346C7.00867 194.001 6.6126 198.022 7.3843 201.902C8.15601 205.781 10.0608 209.345 12.8579 212.142C15.6549 214.939 19.2186 216.844 23.0982 217.616C26.9778 218.387 30.9992 217.991 34.6537 216.478C38.3082 214.964 41.4318 212.4 43.6294 209.111C45.827 205.822 47 201.956 47 198C47 192.696 44.8929 187.609 41.1421 183.858C37.3914 180.107 32.3043 178 27 178V178Z" fill="white"/>
<path id="Vector_54" d="M26.9998 178.952C23.2325 178.952 19.5499 180.07 16.4175 182.162C13.2851 184.255 10.8437 187.23 9.40207 190.711C7.9604 194.191 7.5832 198.021 8.31815 201.716C9.05311 205.411 10.8672 208.805 13.5311 211.469C16.1949 214.133 19.5889 215.947 23.2838 216.682C26.9786 217.417 30.8085 217.039 34.289 215.598C37.7695 214.156 40.7443 211.715 42.8373 208.582C44.9303 205.45 46.0474 201.767 46.0474 198C46.0474 195.499 45.5547 193.022 44.5975 190.711C43.6403 188.4 42.2372 186.3 40.4685 184.531C38.6997 182.763 36.5999 181.36 34.289 180.402C31.978 179.445 29.5011 178.952 26.9998 178.952ZM26.9998 215.457C23.5471 215.457 20.1719 214.433 17.3011 212.515C14.4303 210.597 12.1928 207.87 10.8715 204.681C9.55019 201.491 9.20448 197.981 9.87807 194.594C10.5517 191.208 12.2143 188.097 14.6557 185.656C17.0971 183.215 20.2077 181.552 23.5941 180.878C26.9804 180.205 30.4905 180.55 33.6803 181.872C36.8702 183.193 39.5966 185.431 41.5149 188.301C43.4331 191.172 44.4569 194.547 44.4569 198C44.4519 202.628 42.611 207.066 39.3383 210.339C36.0655 213.611 31.6282 215.452 26.9998 215.457Z" fill="#2D5967"/>
<path id="Vector_55" d="M27.7908 209.181V187.019L30.2098 189.438L31.3337 188.314L27.0003 183.981L22.667 188.314L23.7908 189.438L26.2098 187.019V209.181L23.7908 206.762L22.667 207.886L27.0003 212.219L31.3337 207.886L30.2098 206.762L27.7908 209.181Z" fill="#2D5967"/>
<path id="Vector_56" d="M21.8093 193.667L20.6855 194.79L23.1045 197.209H12.9141V198.79H23.1045L20.6855 201.209L21.8093 202.333L26.1331 198L21.8093 193.667Z" fill="#2D5967"/>
<path id="Vector_57" d="M30.8953 197.209L33.3143 194.79L32.1905 193.667L27.8667 198L32.1905 202.333L33.3143 201.209L30.8953 198.79H41.0857V197.209H30.8953Z" fill="#2D5967"/>
</g>
<g id="Icon Text Label_3">
<text id="IconLabel_9" fill="black" xml:space="preserve" style="white-space: pre" font-family="Oracle Sans" font-size="16" letter-spacing="0em"><tspan x="10.8359" y="235.816">DRG</tspan></text>
</g>
</g>
</g>
<g id="Group 1240">
<path id="Vector 58" d="M245.293 187.293C244.902 187.683 244.902 188.317 245.293 188.707L251.657 195.071C252.047 195.462 252.681 195.462 253.071 195.071C253.462 194.681 253.462 194.047 253.071 193.657L247.414 188L253.071 182.343C253.462 181.953 253.462 181.319 253.071 180.929C252.681 180.538 252.047 180.538 251.657 180.929L245.293 187.293ZM410.707 188.707C411.098 188.317 411.098 187.683 410.707 187.293L404.343 180.929C403.953 180.538 403.319 180.538 402.929 180.929C402.538 181.319 402.538 181.953 402.929 182.343L408.586 188L402.929 193.657C402.538 194.047 402.538 194.681 402.929 195.071C403.319 195.462 403.953 195.462 404.343 195.071L410.707 188.707ZM246 189L410 189L410 187L246 187L246 189Z" fill="#312D2A"/>
<g id="Connector Line Label">
<rect width="124" height="14" transform="translate(266.5 183)" fill="#F5F4F2"/>
<text id="Line Label" fill="#312D2A" xml:space="preserve" style="white-space: pre" font-family="Oracle Sans" font-size="14" letter-spacing="0em"><tspan x="270.812" y="195.089">Oracle Data Guard</tspan></text>
</g>
<g id="Connector Line Label_2">
<rect width="48" height="14" transform="translate(344.5 183)" fill="#E4E1DD"/>
<text id="Line Label_2" fill="#312D2A" xml:space="preserve" style="white-space: pre" font-family="Oracle Sans" font-size="14" letter-spacing="0em"><tspan x="348.716" y="195.089">Guard</tspan></text>
</g>
<g id="Connector Line Label_3">
<rect width="48" height="14" transform="translate(265 183)" fill="#E4E1DD"/>
<text id="Line Label_3" fill="#312D2A" xml:space="preserve" style="white-space: pre" font-family="Oracle Sans" font-size="14" letter-spacing="0em"><tspan x="269.32" y="195.089">Oracle</tspan></text>
</g>
</g>
</g>
<defs>
<clipPath id="clip0_9334_206417">
<rect width="593" height="368" fill="white"/>
</clipPath>
</defs>
</svg>
