<svg width="1032" height="440" viewBox="0 0 1032 440" fill="none" xmlns="http://www.w3.org/2000/svg">
<g id="secure-backup-oci-object-storage" clip-path="url(#clip0_19887_208)">
<rect width="1032" height="440" fill="white"/>
<g id="OCI Region">
<rect x="0.5" y="0.5" width="175" height="439" rx="3.5" fill="#F5F4F2"/>
<rect x="0.5" y="0.5" width="175" height="439" rx="3.5" stroke="#9E9892"/>
<text id="On-premises" fill="#312D2A" xml:space="preserve" style="white-space: pre" font-family="Oracle Sans" font-size="16" font-weight="bold" letter-spacing="0em"><tspan x="38.7656" y="21.816">On-premises</tspan></text>
</g>
<g id="OCI Region_2">
<rect x="344.5" y="0.5" width="687" height="439" rx="3.5" fill="#F5F4F2"/>
<rect x="344.5" y="0.5" width="687" height="439" rx="3.5" stroke="#9E9892"/>
<text id="OCI Region_3" fill="#312D2A" xml:space="preserve" style="white-space: pre" font-family="Oracle Sans" font-size="16" font-weight="bold" letter-spacing="0em"><tspan x="352" y="21.816">OCI Region</tspan></text>
</g>
<g id="OCI Region_4">
<rect x="504.5" y="16.5" width="239" height="407" rx="3.5" fill="#E4E1DD"/>
<rect x="504.5" y="16.5" width="239" height="407" rx="3.5" stroke="#9E9892"/>
<text id="Availability Domain" fill="#312D2A" xml:space="preserve" style="white-space: pre" font-family="Oracle Sans" font-size="16" font-weight="600" letter-spacing="0em"><tspan x="546.969" y="37.816">Availability Domain 1</tspan></text>
</g>
<g id="OCI DNS">
<g id="Srv-OCI DNS">
<g id="Group">
<g id="Group_2">
<g id="Group_3">
<path id="Vector" d="M86.8146 347.283C71.5786 347.283 59.1741 334.878 59.1741 319.642C59.1741 304.406 71.5786 292.002 86.8146 292.002C100.163 292.002 111.624 301.44 114.051 314.654C116.208 315.328 117.826 317.35 117.826 319.777C117.826 322.204 116.343 324.092 114.051 324.901C111.624 337.845 100.298 347.283 86.8146 347.283Z" fill="white"/>
<path id="Vector_2" d="M86.8146 292.676C100.163 292.676 111.219 302.384 113.376 315.058C115.399 315.597 117.017 317.35 117.017 319.642C117.017 321.8 115.399 323.687 113.376 324.227C111.354 336.901 100.163 346.609 86.8146 346.609C71.9831 346.609 59.8483 334.474 59.8483 319.642C59.8483 304.811 71.9831 292.676 86.8146 292.676ZM86.8146 291.328C71.1742 291.328 58.5 304.002 58.5 319.642C58.5 335.283 71.1742 347.957 86.8146 347.957C100.433 347.957 112.028 338.384 114.59 325.17C116.882 324.227 118.365 322.069 118.365 319.642C118.365 317.215 116.747 314.923 114.59 314.114C112.028 300.901 100.433 291.328 86.8146 291.328Z" fill="white"/>
</g>
<g id="Group_4">
<path id="Vector_3" d="M117.152 319.642C117.152 317.485 115.534 315.597 113.511 315.058C111.354 302.384 100.163 292.676 86.8146 292.676C71.9832 292.676 59.8483 304.811 59.8483 319.642C59.8483 334.474 71.9832 346.608 86.8146 346.608C100.163 346.608 111.219 336.9 113.376 324.226C115.534 323.687 117.152 321.799 117.152 319.642ZM112.433 322.069C111.084 322.069 110.006 320.99 110.006 319.642C110.006 318.294 111.084 317.215 112.433 317.215C113.781 317.215 114.86 318.294 114.86 319.642C114.86 320.99 113.781 322.069 112.433 322.069ZM111.219 315.193C109.601 315.597 108.388 316.945 107.983 318.563H97.6011C97.6011 316.271 97.3315 314.114 96.927 311.957C99.0843 311.013 100.702 308.856 100.702 306.294C100.702 302.923 97.8708 300.092 94.5 300.092C93.8259 300.092 93.2865 300.226 92.7472 300.361C91.8034 298.608 90.7247 296.856 89.3764 295.238C100.298 296.181 109.197 304.541 111.219 315.193ZM79.2641 327.867C82.6348 327.058 85.1966 324.226 85.6011 320.856H95.309C95.0393 329.215 92.073 337.305 86.8146 343.777C83.0393 339.058 80.4775 333.665 79.2641 327.867ZM71.0393 319.642C71.0393 316.271 73.8708 313.44 77.2416 313.44C80.6124 313.44 83.4438 316.271 83.4438 319.642C83.4438 323.013 80.6124 325.844 77.2416 325.844C73.8708 325.844 71.0393 323.013 71.0393 319.642ZM85.6011 318.563C85.1966 315.058 82.5 312.226 79.1292 311.552C80.3427 305.754 83.0393 300.361 86.6798 295.642C88.1629 297.395 89.3764 299.417 90.4551 301.305C88.9719 302.384 88.0281 304.271 88.0281 306.159C88.0281 309.53 90.8596 312.361 94.2303 312.361H94.3652C94.7697 314.384 95.0393 316.406 95.0393 318.563H85.6011ZM94.5 302.249C96.6573 302.249 98.4101 304.002 98.4101 306.159C98.4101 308.316 96.6573 310.069 94.5 310.069C92.3427 310.069 90.5899 308.316 90.5899 306.159C90.5899 304.002 92.2079 302.249 94.5 302.249ZM84.3877 295.103C80.7472 299.957 78.1854 305.35 76.9719 311.283C72.7921 311.417 69.4214 314.518 68.882 318.563H62.1405C62.6798 306.294 72.2528 296.316 84.3877 295.103ZM62.1405 320.721H68.882C69.4214 324.766 72.7921 327.867 76.9719 328.002C78.1854 333.799 80.7472 339.327 84.3877 344.181C72.2528 342.968 62.6798 332.99 62.1405 320.721ZM89.3764 344.181C94.5 337.44 97.3315 329.215 97.6011 320.721H107.983C108.388 322.339 109.601 323.552 111.219 324.092C109.197 334.743 100.298 343.103 89.3764 344.181Z" fill="#2D5967"/>
</g>
</g>
</g>
</g>
<g id="Icon Text Label">
<text id="IconLabel" fill="black" xml:space="preserve" style="white-space: pre" font-family="Oracle Sans" font-size="16" letter-spacing="0em"><tspan x="53.2109" y="365.816">Customer</tspan></text>
<text id="IconLabel_2" fill="black" xml:space="preserve" style="white-space: pre" font-family="Oracle Sans" font-size="16" letter-spacing="0em"><tspan x="72.5" y="381.816">DNS</tspan></text>
</g>
</g>
<g id="Exadata C@C">
<g id="Technology - Exadata-Cloud-at-Customer-Service">
<path id="Union" fill-rule="evenodd" clip-rule="evenodd" d="M97.2894 160.257H79.4245V119.286H97.2894V160.257ZM95.5058 121.014H81.1511V123.329H95.5058V121.014ZM82.8776 127.071H81.1511V129.386H82.8776V131.4H93.8363V129.386H95.5058V127.071H93.8363V125.057H82.8776V127.071ZM95.5058 133.128H81.1511V135.429H95.5058V133.128ZM95.5058 137.171H81.1511V139.486H95.5058V137.171Z" fill="white"/>
<g id="Group 681">
<path id="Vector_4" d="M91.5249 127.357H85.1895V129.086H91.5249V127.357Z" fill="white"/>
<path id="Vector_5" d="M115.483 126.543L104.396 129.114L101.085 129.814V128.286H107.963L108.362 127.529L108.634 126.857C109.956 124.378 110.294 121.49 109.58 118.772C108.865 116.054 107.151 113.706 104.781 112.2C103.703 111.523 102.515 111.039 101.271 110.772C101.064 110.727 100.87 110.638 100.702 110.509C100.534 110.381 100.397 110.217 100.3 110.029C99.4088 108.212 98.0247 106.684 96.3064 105.618C94.588 104.552 92.6047 103.991 90.5832 104C89.0968 104.01 87.6281 104.323 86.2666 104.92C84.905 105.517 83.6792 106.385 82.6638 107.472C82.5518 107.598 82.4131 107.699 82.2577 107.766C82.1022 107.832 81.9339 107.864 81.7648 107.857H81.6364H80.7803C78.6745 107.837 76.6279 108.554 74.9943 109.884C73.3606 111.215 72.2426 113.075 71.8335 115.143C71.798 115.342 71.7163 115.53 71.5948 115.691C71.4733 115.852 71.3156 115.983 71.1343 116.072C69.3976 116.977 67.9209 118.312 66.8445 119.95C65.7681 121.588 65.1278 123.474 64.9843 125.429L64.8987 126.672L64.7846 128.286H75.6862V134.657H59.8332V164H117.167V126.129L115.483 126.543ZM101.328 150.457V148.143H103.639V150.457H101.328ZM103.639 152.186V154.486H101.328V152.186H103.639ZM101.328 146.472V144.1H103.639V146.414L101.328 146.472ZM101.328 142.429V140.057H103.639V142.372L101.328 142.429ZM101.328 138.386V136.014H103.639V138.286L101.328 138.386ZM66.3256 126.857L66.4113 125.614C66.4393 125.182 66.4965 124.753 66.5825 124.329C66.916 122.627 67.6772 121.039 68.7942 119.714C69.6313 118.734 70.6485 117.925 71.7907 117.329C72.1562 117.136 72.4756 116.867 72.7268 116.539C72.9781 116.211 73.1553 115.832 73.2462 115.429C73.5412 113.91 74.2872 112.516 75.3865 111.429C75.6013 111.214 75.8301 111.013 76.0715 110.829C76.5664 110.454 77.1027 110.138 77.6696 109.886C77.9445 109.766 78.2255 109.661 78.5115 109.572H78.7826L79.3819 109.443H79.6958H80.2951C80.6799 109.414 81.0662 109.414 81.4509 109.443C81.1655 109.443 80.8801 109.443 80.5948 109.443H80.7375C80.9751 109.428 81.2133 109.428 81.4509 109.443C81.6123 109.457 81.7747 109.457 81.9361 109.443H82.1644L82.5068 109.357H82.7209C82.8429 109.318 82.9584 109.26 83.0633 109.186L83.2346 109.1C83.3919 108.983 83.5398 108.854 83.6769 108.714C83.8909 108.486 84.1335 108.257 84.3761 108.043C86.0614 106.565 88.2164 105.735 90.4563 105.701C92.6963 105.667 94.8754 106.431 96.6047 107.857C97.2552 108.33 97.8447 108.882 98.3598 109.5C98.6054 109.873 98.8293 110.259 99.0305 110.657C99.2289 111.021 99.5039 111.337 99.8365 111.584C100.169 111.831 100.551 112.002 100.957 112.086C102.063 112.344 103.116 112.793 104.067 113.414C106.13 114.726 107.622 116.769 108.244 119.134C108.865 121.5 108.571 124.014 107.421 126.172L107.093 126.786H101.385V124.472H105.666C106.326 122.866 106.399 121.078 105.872 119.424C105.344 117.769 104.251 116.355 102.783 115.429C102.073 114.97 101.285 114.646 100.457 114.472C99.6976 114.305 98.9855 113.967 98.375 113.485C97.7645 113.002 97.2714 112.387 96.9329 111.686C96.3398 110.501 95.4291 109.504 94.3027 108.808C93.1762 108.112 91.8785 107.743 90.5546 107.743C89.575 107.742 88.6057 107.944 87.7072 108.334C86.8087 108.725 86.0002 109.297 85.3321 110.014C84.8152 110.572 84.1768 111.003 83.4664 111.273C82.7561 111.543 81.9931 111.645 81.2369 111.572C80.3347 111.484 79.4253 111.632 78.5971 112C77.8128 112.351 77.1246 112.887 76.5906 113.561C76.0566 114.234 75.6926 115.027 75.5292 115.872C75.3799 116.618 75.0652 117.321 74.6083 117.929C74.1514 118.537 73.564 119.035 72.8894 119.386C71.9045 119.9 71.0417 120.62 70.3596 121.497C69.6776 122.375 69.1923 123.389 68.9369 124.472H75.3865V126.857H66.3256ZM61.2601 162.572V136.014H75.3865V138.286H63.5717V160.257H69.0368V157.086H71.3484V160.257H75.6291V162.572H61.2601ZM65.2983 150.457V148.143H75.3865V150.457H65.2983ZM75.3865 152.186V154.486H65.2983V152.186H75.3865ZM65.2983 146.472V144.1H75.3865V146.414L65.2983 146.472ZM65.2983 142.429V140.057H75.3865V142.372L65.2983 142.429ZM97.0471 162.572H77.0703V116.972H99.6012V162.572H97.0471ZM115.74 160.257V162.572H101.328V160.257H105.366V157.086H107.678V160.257H113.385V130.829L101.271 133.686V131.286L115.683 127.929L115.74 160.257ZM107.678 140.057V142.372H105.366V140.057H107.678ZM105.366 138.286V136.014H107.678V138.286H105.366ZM107.678 144V146.314H105.366V144.1L107.678 144ZM107.678 148.043V150.357H105.366V148.143L107.678 148.043ZM107.678 152.086V154.386H105.366V152.186L107.678 152.086ZM111.701 139.957V142.272H109.404V140.057L111.701 139.957ZM109.404 138.286V136.014H111.701V138.286H109.404ZM111.701 144V146.314H109.404V144.1L111.701 144ZM111.701 148.043V150.357H109.404V148.143L111.701 148.043ZM111.701 152.086V154.386H109.404V152.186L111.701 152.086Z" fill="white"/>
<path id="Vector_6" d="M77.1133 116.971V162.571H99.6015V116.971H77.1133ZM97.2899 160.257H79.4249V119.285H97.2899V160.257Z" fill="#2D5967"/>
<path id="Vector_7" d="M95.563 121.014H81.1512V123.328H95.563V121.014Z" fill="#2D5967"/>
<path id="Vector_8" d="M82.8777 131.4H93.8364V129.386H95.5059V127.071H93.8364V125.057H82.8777V127.071H81.1512V129.386H82.8777V131.4ZM85.1893 127.357H91.5248V129.1H85.1893V127.357Z" fill="#2D5967"/>
<path id="Vector_9" d="M95.563 133.128H81.1512V135.443H95.563V133.128Z" fill="#2D5967"/>
<path id="Vector_10" d="M95.563 137.171H81.1512V139.486H95.563V137.171Z" fill="#2D5967"/>
<path id="Vector_11" d="M92.5945 143.861L90.109 143.875L88.4843 147.994L86.7625 143.889H84.2631L87.0125 149.922L84.1659 156.329H86.6514L88.3871 151.891L90.2478 156.315L92.7472 156.301L89.8729 149.991L92.5945 143.861Z" fill="#2D5967"/>
<path id="Vector_12" d="M75.3867 140.057H65.2985V142.371H75.3867V140.057Z" fill="#2D5967"/>
<path id="Vector_13" d="M75.3867 144.1H65.2985V146.414H75.3867V144.1Z" fill="#2D5967"/>
<path id="Vector_14" d="M75.3867 148.143H65.2985V150.457H75.3867V148.143Z" fill="#2D5967"/>
<path id="Vector_15" d="M75.3867 152.186H65.2985V154.5H75.3867V152.186Z" fill="#2D5967"/>
<path id="Vector_16" d="M103.639 136.014H101.328V138.328H103.639V136.014Z" fill="#2D5967"/>
<path id="Vector_17" d="M103.639 140.057H101.328V142.371H103.639V140.057Z" fill="#2D5967"/>
<path id="Vector_18" d="M107.677 136.014H105.366V138.328H107.677V136.014Z" fill="#2D5967"/>
<path id="Vector_19" d="M107.677 140.057H105.366V142.371H107.677V140.057Z" fill="#2D5967"/>
<path id="Vector_20" d="M107.677 144.1H105.366V146.414H107.677V144.1Z" fill="#2D5967"/>
<path id="Vector_21" d="M107.677 148.143H105.366V150.457H107.677V148.143Z" fill="#2D5967"/>
<path id="Vector_22" d="M111.716 136.014H109.404V138.328H111.716V136.014Z" fill="#2D5967"/>
<path id="Vector_23" d="M111.716 140.057H109.404V142.371H111.716V140.057Z" fill="#2D5967"/>
<path id="Vector_24" d="M111.716 144.1H109.404V146.414H111.716V144.1Z" fill="#2D5967"/>
<path id="Vector_25" d="M111.716 148.143H109.404V150.457H111.716V148.143Z" fill="#2D5967"/>
<path id="Vector_26" d="M107.677 152.186H105.366V154.5H107.677V152.186Z" fill="#2D5967"/>
<path id="Vector_27" d="M103.639 144.1H101.328V146.414H103.639V144.1Z" fill="#2D5967"/>
<path id="Vector_28" d="M103.639 148.143H101.328V150.457H103.639V148.143Z" fill="#2D5967"/>
<path id="Vector_29" d="M103.639 152.186H101.328V154.5H103.639V152.186Z" fill="#2D5967"/>
<path id="Vector_30" d="M111.716 152.186H109.404V154.5H111.716V152.186Z" fill="#2D5967"/>
<path id="Vector_31" d="M101.328 131.271V133.643L113.442 130.843V160.257H107.663V157.085H105.366V160.257H101.328V162.571H115.74V161.414V160.257V127.928L101.328 131.271Z" fill="#2D5967"/>
<path id="Vector_32" d="M71.3485 160.257V157.086H69.0511V160.257H63.5718V138.328H75.3866V136.014H61.2602V160.257V161.414V162.571H75.672V160.257H71.3485Z" fill="#2D5967"/>
<path id="Vector_33" d="M68.9086 124.471C69.164 123.389 69.6493 122.374 70.3313 121.497C71.0133 120.619 71.8762 119.899 72.8611 119.385C73.5411 119.038 74.134 118.541 74.596 117.933C75.058 117.325 75.377 116.62 75.5294 115.871C75.6928 115.026 76.0569 114.234 76.5909 113.56C77.1248 112.886 77.8131 112.351 78.5973 112C79.4255 111.631 80.335 111.483 81.2371 111.571C81.998 111.649 82.7665 111.549 83.4822 111.279C84.1978 111.008 84.841 110.575 85.3609 110.014C86.029 109.297 86.8375 108.725 87.736 108.334C88.6345 107.943 89.6037 107.742 90.5834 107.742C91.9024 107.748 93.1941 108.119 94.315 108.815C95.436 109.511 96.3422 110.505 96.9331 111.685C97.2754 112.372 97.767 112.974 98.372 113.446C98.9769 113.919 99.6798 114.249 100.429 114.414C101.27 114.602 102.069 114.946 102.783 115.428C104.259 116.36 105.356 117.787 105.879 119.454C106.401 121.12 106.316 122.919 105.637 124.528H101.357V126.857H107.064L107.392 126.242C108.564 124.08 108.872 121.553 108.255 119.172C107.638 116.791 106.141 114.733 104.068 113.414C103.124 112.822 102.087 112.397 101 112.157C100.594 112.073 100.212 111.901 99.8796 111.655C99.5469 111.408 99.2719 111.092 99.0735 110.728C98.861 110.304 98.6227 109.894 98.36 109.5C97.8629 108.786 97.2726 108.142 96.6049 107.585C94.8757 106.159 92.6965 105.395 90.4566 105.429C88.2166 105.463 86.0616 106.293 84.3763 107.771C84.1337 107.985 83.8912 108.214 83.6771 108.442C83.54 108.582 83.3921 108.711 83.2348 108.828L83.0635 108.914C82.9586 108.988 82.8432 109.046 82.7211 109.085H82.507L82.1646 109.171H81.9363C81.7749 109.185 81.6125 109.185 81.4511 109.171C81.0664 109.142 80.6801 109.142 80.2953 109.171H79.696H79.3821L78.7828 109.3H78.5117C78.2258 109.389 77.9448 109.494 77.6698 109.614C77.1029 109.866 76.5667 110.182 76.0717 110.557C75.8304 110.741 75.6016 110.942 75.3868 111.157C74.2381 112.317 73.4884 113.813 73.2464 115.428C73.1625 115.834 72.9914 116.217 72.745 116.55C72.4986 116.883 72.1828 117.158 71.8195 117.357C70.6695 117.941 69.6425 118.741 68.7944 119.714C67.6904 121.014 66.9299 122.571 66.5827 124.242C66.4967 124.667 66.4395 125.096 66.4115 125.528L66.3259 126.857H75.3868V124.471H68.9086Z" fill="#2D5967"/>
</g>
</g>
<g id="Icon Text Label_2">
<text id="IconLabel_3" fill="black" xml:space="preserve" style="white-space: pre" font-family="Oracle Sans" font-size="16" letter-spacing="0em"><tspan x="34.4375" y="181.816">Oracle Exadata</tspan></text>
<text id="IconLabel_4" fill="black" xml:space="preserve" style="white-space: pre" font-family="Oracle Sans" font-size="16" letter-spacing="0em"><tspan x="24.0703" y="197.816">Cloud@Customer</tspan></text>
</g>
</g>
<g id="Private Endpoint IP">
<g id="Srv-OCI Private Endpoint IP">
<g id="Group 424">
<path id="Vector_34" d="M606.78 140.811C603.603 136.216 602.38 130.545 603.378 125.047C604.377 119.548 607.517 114.672 612.106 111.491C616.696 108.311 622.359 107.086 627.851 108.086C633.342 109.086 638.212 112.23 641.389 116.825C643.813 120.364 645.111 124.554 645.111 128.846C645.111 133.137 643.813 137.328 641.389 140.867L624.091 165.779L606.78 140.811Z" fill="white"/>
<path id="Vector_35" d="M624.062 108.404C627.785 108.39 631.441 109.398 634.632 111.319C637.822 113.24 640.426 116 642.16 119.298C643.894 122.597 644.692 126.309 644.467 130.03C644.242 133.751 643.002 137.338 640.883 140.404L624.09 164.544L607.354 140.404C605.24 137.346 604.001 133.769 603.772 130.058C603.542 126.347 604.33 122.643 606.051 119.348C607.771 116.053 610.359 113.292 613.533 111.363C616.708 109.434 620.349 108.41 624.062 108.404ZM624.062 107C620.093 107.007 616.201 108.101 612.808 110.163C609.415 112.225 606.649 115.176 604.811 118.698C602.972 122.22 602.129 126.179 602.375 130.145C602.621 134.112 603.945 137.936 606.204 141.204L622.941 165.344L624.09 167L625.24 165.344L641.963 141.204C644.224 137.933 645.548 134.105 645.792 130.135C646.036 126.165 645.19 122.203 643.346 118.68C641.503 115.156 638.731 112.205 635.332 110.147C631.932 108.088 628.035 107 624.062 107V107Z" fill="white"/>
<path id="Vector_36" d="M640.815 117.176C637.738 112.733 633.025 109.696 627.713 108.733C622.4 107.769 616.923 108.958 612.486 112.039C608.049 115.119 605.015 119.838 604.053 125.157C603.091 130.477 604.279 135.961 607.355 140.404L624.092 164.544L640.815 140.404C643.16 136.986 644.416 132.937 644.416 128.79C644.416 124.643 643.16 120.593 640.815 117.176ZM638.782 139.014L624.092 160.235L609.346 139C607.487 136.311 606.398 133.164 606.197 129.899C605.997 126.635 606.693 123.378 608.209 120.481C609.725 117.584 612.004 115.157 614.798 113.465C617.593 111.772 620.797 110.877 624.064 110.877C627.33 110.877 630.534 111.772 633.329 113.465C636.124 115.157 638.403 117.584 639.919 120.481C641.435 123.378 642.131 126.635 641.93 129.899C641.73 133.164 640.641 136.311 638.782 139V139.014Z" fill="#2D5967"/>
<path id="Vector_37" d="M630.258 123.253V120.221C630.249 119.261 630.019 118.316 629.587 117.459C629.154 116.602 628.53 115.857 627.763 115.281C627.002 114.701 626.116 114.308 625.176 114.135C624.236 113.962 623.269 114.013 622.352 114.284C621.057 114.677 619.924 115.478 619.121 116.568C618.318 117.658 617.887 118.979 617.894 120.333V123.253C616.661 124.479 615.818 126.044 615.475 127.75C615.131 129.456 615.301 131.226 615.963 132.836C616.625 134.445 617.75 135.821 619.194 136.789C620.639 137.757 622.338 138.274 624.076 138.274C625.814 138.274 627.513 137.757 628.958 136.789C630.402 135.821 631.527 134.445 632.189 132.836C632.851 131.226 633.021 129.456 632.677 127.75C632.334 126.044 631.491 124.479 630.258 123.253ZM620.347 120.333C620.335 119.511 620.589 118.707 621.072 118.041C621.555 117.376 622.24 116.885 623.025 116.642C623.578 116.48 624.162 116.45 624.729 116.555C625.297 116.66 625.831 116.896 626.291 117.246C626.753 117.593 627.13 118.042 627.393 118.557C627.655 119.073 627.796 119.642 627.805 120.221V121.526C626.637 120.981 625.364 120.698 624.076 120.698C622.788 120.698 621.515 120.981 620.347 121.526V120.333ZM624.076 135.772C622.82 135.78 621.59 135.415 620.542 134.721C619.494 134.028 618.675 133.039 618.19 131.879C617.705 130.719 617.575 129.44 617.817 128.206C618.059 126.972 618.662 125.838 619.549 124.948C620.436 124.057 621.568 123.451 622.8 123.206C624.032 122.961 625.309 123.088 626.468 123.571C627.628 124.055 628.618 124.872 629.313 125.92C630.007 126.968 630.375 128.199 630.37 129.456C630.379 130.289 630.223 131.115 629.911 131.887C629.598 132.659 629.136 133.361 628.551 133.953C627.965 134.544 627.268 135.013 626.5 135.333C625.732 135.652 624.908 135.816 624.076 135.814V135.772Z" fill="#2D5967"/>
<path id="Vector_38" d="M624.077 126.761H623.853C623.45 126.811 623.074 126.992 622.783 127.276C622.492 127.559 622.302 127.931 622.241 128.333C622.183 128.712 622.245 129.1 622.418 129.443C622.592 129.785 622.868 130.064 623.208 130.241L622.843 132.627H625.31L624.974 130.241C625.264 130.077 625.505 129.838 625.673 129.55C625.84 129.261 625.928 128.933 625.927 128.599C625.923 128.11 625.727 127.643 625.38 127.298C625.034 126.954 624.565 126.761 624.077 126.761Z" fill="#2D5967"/>
</g>
</g>
<g id="Icon Text Label_3">
<text id="IconLabel_5" fill="black" xml:space="preserve" style="white-space: pre" font-family="Oracle Sans" font-size="16" letter-spacing="0em"><tspan x="598.969" y="184.816">Private</tspan></text>
<text id="IconLabel_6" fill="black" xml:space="preserve" style="white-space: pre" font-family="Oracle Sans" font-size="16" letter-spacing="0em"><tspan x="591.016" y="200.816">Endpoint</tspan></text>
</g>
</g>
<g id="Private Endpoint IP_2">
<g id="Srv-OCI Private Endpoint IP_2">
<g id="Group 424_2">
<path id="Vector_39" d="M607.28 310.811C604.103 306.216 602.88 300.545 603.878 295.047C604.877 289.548 608.017 284.672 612.606 281.491C617.196 278.311 622.859 277.086 628.351 278.086C633.842 279.086 638.712 282.23 641.889 286.825C644.313 290.364 645.611 294.554 645.611 298.846C645.611 303.137 644.313 307.328 641.889 310.867L624.591 335.779L607.28 310.811Z" fill="white"/>
<path id="Vector_40" d="M624.562 278.404C628.285 278.39 631.941 279.398 635.132 281.319C638.322 283.24 640.926 286 642.66 289.298C644.394 292.597 645.192 296.309 644.967 300.03C644.742 303.751 643.502 307.338 641.383 310.404L624.59 334.544L607.854 310.404C605.74 307.346 604.501 303.769 604.272 300.058C604.042 296.347 604.83 292.643 606.551 289.348C608.271 286.053 610.859 283.292 614.033 281.363C617.208 279.434 620.849 278.41 624.562 278.404ZM624.562 277C620.593 277.007 616.701 278.101 613.308 280.163C609.915 282.225 607.149 285.176 605.311 288.698C603.472 292.22 602.629 296.179 602.875 300.145C603.121 304.112 604.445 307.936 606.704 311.204L623.441 335.344L624.59 337L625.74 335.344L642.463 311.204C644.724 307.933 646.048 304.105 646.292 300.135C646.536 296.165 645.69 292.203 643.846 288.68C642.003 285.156 639.231 282.205 635.832 280.147C632.432 278.088 628.535 277 624.562 277V277Z" fill="white"/>
<path id="Vector_41" d="M641.315 287.176C638.238 282.733 633.525 279.696 628.213 278.733C622.9 277.769 617.423 278.958 612.986 282.039C608.549 285.119 605.515 289.838 604.553 295.157C603.591 300.477 604.779 305.961 607.855 310.404L624.592 334.544L641.315 310.404C643.66 306.986 644.916 302.937 644.916 298.79C644.916 294.643 643.66 290.593 641.315 287.176ZM639.282 309.014L624.592 330.235L609.846 309C607.987 306.311 606.898 303.164 606.697 299.899C606.497 296.635 607.193 293.378 608.709 290.481C610.225 287.584 612.504 285.157 615.298 283.465C618.093 281.772 621.297 280.877 624.564 280.877C627.83 280.877 631.034 281.772 633.829 283.465C636.624 285.157 638.903 287.584 640.419 290.481C641.935 293.378 642.631 296.635 642.43 299.899C642.23 303.164 641.141 306.311 639.282 309V309.014Z" fill="#2D5967"/>
<path id="Vector_42" d="M630.758 293.253V290.221C630.749 289.261 630.519 288.316 630.087 287.459C629.654 286.602 629.03 285.857 628.263 285.281C627.502 284.701 626.616 284.308 625.676 284.135C624.736 283.962 623.769 284.013 622.852 284.284C621.557 284.677 620.424 285.478 619.621 286.568C618.818 287.658 618.387 288.979 618.394 290.333V293.253C617.161 294.479 616.318 296.044 615.975 297.75C615.631 299.456 615.801 301.226 616.463 302.836C617.125 304.445 618.25 305.821 619.694 306.789C621.139 307.757 622.838 308.274 624.576 308.274C626.314 308.274 628.013 307.757 629.458 306.789C630.902 305.821 632.027 304.445 632.689 302.836C633.351 301.226 633.521 299.456 633.177 297.75C632.834 296.044 631.991 294.479 630.758 293.253ZM620.847 290.333C620.835 289.511 621.089 288.707 621.572 288.041C622.055 287.376 622.74 286.885 623.525 286.642C624.078 286.48 624.662 286.45 625.229 286.555C625.797 286.66 626.331 286.896 626.791 287.246C627.253 287.593 627.63 288.042 627.893 288.557C628.155 289.073 628.296 289.642 628.305 290.221V291.526C627.137 290.981 625.864 290.698 624.576 290.698C623.288 290.698 622.015 290.981 620.847 291.526V290.333ZM624.576 305.772C623.32 305.78 622.09 305.415 621.042 304.721C619.994 304.028 619.175 303.039 618.69 301.879C618.205 300.719 618.075 299.44 618.317 298.206C618.559 296.972 619.162 295.838 620.049 294.948C620.936 294.057 622.068 293.451 623.3 293.206C624.532 292.961 625.809 293.088 626.968 293.571C628.128 294.055 629.118 294.872 629.813 295.92C630.507 296.968 630.875 298.199 630.87 299.456C630.879 300.289 630.723 301.115 630.411 301.887C630.098 302.659 629.636 303.361 629.051 303.953C628.465 304.544 627.768 305.013 627 305.333C626.232 305.652 625.408 305.816 624.576 305.814V305.772Z" fill="#2D5967"/>
<path id="Vector_43" d="M624.577 296.761H624.353C623.95 296.811 623.574 296.992 623.283 297.276C622.992 297.559 622.802 297.931 622.741 298.333C622.683 298.712 622.745 299.1 622.918 299.443C623.092 299.785 623.368 300.064 623.708 300.241L623.343 302.627H625.81L625.474 300.241C625.764 300.077 626.005 299.838 626.173 299.55C626.34 299.261 626.428 298.933 626.427 298.599C626.423 298.11 626.227 297.643 625.88 297.298C625.534 296.954 625.065 296.761 624.577 296.761Z" fill="#2D5967"/>
</g>
</g>
<g id="Icon Text Label_4">
<text id="IconLabel_7" fill="black" xml:space="preserve" style="white-space: pre" font-family="Oracle Sans" font-size="16" letter-spacing="0em"><tspan x="591.148" y="354.816">Listening</tspan></text>
<text id="IconLabel_8" fill="black" xml:space="preserve" style="white-space: pre" font-family="Oracle Sans" font-size="16" letter-spacing="0em"><tspan x="591.516" y="370.816">Endpoint</tspan></text>
</g>
</g>
<g id="Object Storage">
<g id="Srv-OCI Object Storage">
<g id="Group_5">
<g id="Group_6">
<g id="Group_7">
<path id="Vector_44" d="M952.85 165.286C951.139 165.286 949.714 163.857 949.714 162.143V109.857C949.714 108.143 951.139 106.714 952.85 106.714H1005.15C1006.86 106.714 1008.29 108.143 1008.29 109.857V162.286C1008.29 164 1006.86 165.429 1005.15 165.429L952.85 165.286Z" fill="white"/>
<path id="Vector_45" d="M1005.01 107.429C1006.29 107.429 1007.43 108.571 1007.43 109.857V162.286C1007.43 163.571 1006.29 164.714 1005.01 164.714H952.848C951.565 164.571 950.425 163.429 950.425 162.143V109.857C950.425 108.571 951.565 107.429 952.848 107.429H1005.01ZM1005.01 106H952.848C950.71 106 949 107.714 949 109.857V162.286C949 164.286 950.71 166 952.848 166H1005.15C1007.29 166 1009 164.286 1009 162.143V109.857C1008.86 107.714 1007.15 106 1005.01 106Z" fill="white"/>
</g>
<g id="Group_8">
<g id="Group_9">
<path id="Vector_46" d="M992.325 122.572L996.173 129.286L992.325 136H984.629L980.781 129.286L984.629 122.572H992.325ZM993.608 120.572H983.346L978.216 129.429L983.346 138.286H993.608L998.738 129.429L993.608 120.572Z" fill="#2D5967"/>
</g>
<g id="Group_10">
<path id="Vector_47" d="M978.499 143C982.205 143 985.198 146 985.198 149.714C985.198 153.429 982.205 156.429 978.499 156.429C974.794 156.429 971.801 153.429 971.801 149.714C971.801 146 974.794 143 978.499 143ZM978.499 141C973.654 141 969.663 145 969.663 149.857C969.663 154.714 973.654 158.714 978.499 158.714C983.345 158.714 987.336 154.714 987.336 149.857C987.336 144.857 983.345 141 978.499 141Z" fill="#2D5967"/>
</g>
<g id="Group_11">
<path id="Vector_48" d="M968.382 124.286L974.652 135.572H962.253L968.382 124.286ZM968.382 120L958.69 137.715H978.215L968.382 120Z" fill="#2D5967"/>
</g>
</g>
<g id="Group_12">
<path id="Vector_49" d="M1005.01 164.572H952.848C951.566 164.572 950.426 163.429 950.426 162.144V113.144H1007.43V162.144C1007.43 163.429 1006.29 164.572 1005.01 164.572ZM952.563 115.286V162.286C952.563 162.429 952.706 162.572 952.848 162.572H1005.15C1005.3 162.572 1005.44 162.429 1005.44 162.286V115.286H952.563Z" fill="#2D5967"/>
</g>
<g id="Group_13">
<path id="Vector_50" d="M1007.43 111.572H950.426V109.858C950.426 108.572 951.566 107.429 952.848 107.429H1005.15C1006.29 107.429 1007.43 108.572 1007.43 109.858V111.572Z" fill="#2D5967"/>
</g>
</g>
</g>
</g>
<g id="Icon Text Label_5">
<text id="IconLabel_9" fill="black" xml:space="preserve" style="white-space: pre" font-family="Oracle Sans" font-size="16" letter-spacing="0em"><tspan x="940.367" y="183.816">OCI Object</tspan></text>
<text id="IconLabel_10" fill="black" xml:space="preserve" style="white-space: pre" font-family="Oracle Sans" font-size="16" letter-spacing="0em"><tspan x="951.188" y="199.816">Storage</tspan></text>
</g>
</g>
<g id="VCN box_New">
<rect id="Rectangle 28" x="393" y="48.9507" width="478" height="358" stroke="#AA643B" stroke-width="2" stroke-dasharray="8 4"/>
<g id="Icon Master">
<g id="Srv-VCN">
<g id="Group 39">
<path id="Vector_51" d="M850.416 71.5102C849.16 71.5097 847.944 71.077 846.969 70.285C845.995 69.4929 845.323 68.3896 845.066 67.1603H838.595C838.408 68.0545 838 68.8874 837.408 69.5832C836.816 70.2791 836.06 70.8156 835.208 71.1439C834.356 71.4721 833.435 71.5817 832.53 71.4626C831.625 71.3435 830.764 70.9995 830.026 70.4619C829.287 69.9244 828.695 69.2104 828.304 68.3852C827.912 67.56 827.733 66.6498 827.783 65.7376C827.833 64.8254 828.111 63.9403 828.59 63.163C829.07 62.3857 829.737 61.7409 830.529 61.2875L828.533 55.1411C828.336 55.1547 828.138 55.1547 827.941 55.1411C827.053 55.1431 826.179 54.9289 825.392 54.5169C824.606 54.105 823.932 53.5077 823.428 52.7766C822.923 52.0456 822.605 51.2028 822.499 50.3209C822.394 49.4391 822.504 48.5448 822.821 47.7152C823.138 46.8857 823.652 46.1458 824.319 45.5595C824.986 44.9733 825.785 44.5582 826.648 44.3502C827.511 44.1422 828.411 44.1475 829.272 44.3657C830.132 44.5838 830.927 45.0083 831.586 45.6024L836.845 41.8726C836.527 41.1674 836.363 40.4028 836.362 39.6293C836.362 38.1781 836.938 36.7864 837.964 35.7603C838.989 34.7342 840.38 34.1577 841.83 34.1577C843.281 34.1577 844.672 34.7342 845.697 35.7603C846.723 36.7864 847.299 38.1781 847.299 39.6293C847.301 40.4021 847.139 41.1667 846.825 41.8726L852.093 45.6389C853.088 44.7257 854.388 44.2182 855.738 44.2163C857.188 44.2163 858.579 44.7927 859.605 45.8188C860.63 46.845 861.206 48.2367 861.206 49.6878C861.206 51.139 860.63 52.5307 859.605 53.5568C858.579 54.5829 857.188 55.1594 855.738 55.1594C855.547 55.1594 855.346 55.1594 855.155 55.1594L853.15 61.3058C854.199 61.9051 855.02 62.8351 855.485 63.9505C855.95 65.0659 856.032 66.304 855.72 67.4714C855.408 68.6389 854.718 69.6701 853.759 70.404C852.799 71.1379 851.624 71.5333 850.416 71.5284V71.5102Z" fill="white"/>
<path id="Vector_52" d="M841.84 34.577C842.707 34.579 843.56 34.8059 844.314 35.2356C845.068 35.6653 845.697 36.2832 846.142 37.029C846.586 37.7748 846.829 38.623 846.849 39.491C846.868 40.359 846.662 41.2172 846.251 41.9818L852.093 46.2314C852.665 45.6323 853.377 45.1844 854.164 44.9277C854.951 44.6711 855.79 44.6137 856.605 44.7607C857.42 44.9076 858.186 45.2544 858.835 45.7699C859.483 46.2855 859.994 46.9538 860.321 47.715C860.648 48.4763 860.782 49.3068 860.71 50.1324C860.638 50.958 860.363 51.7529 859.909 52.446C859.455 53.1391 858.836 53.7089 858.109 54.1043C857.381 54.4998 856.566 54.7087 855.738 54.7123C855.433 54.7165 855.128 54.6921 854.827 54.6393L852.594 61.5244C853.375 61.9013 854.045 62.4746 854.538 63.1881C855.032 63.9016 855.332 64.7309 855.409 65.5951C855.486 66.4593 855.338 67.3288 854.979 68.1186C854.62 68.9084 854.062 69.5915 853.36 70.1011C852.659 70.6107 851.837 70.9295 850.975 71.0262C850.113 71.123 849.241 70.9944 848.444 70.653C847.647 70.3116 846.952 69.7692 846.427 69.0786C845.902 68.3881 845.565 67.5731 845.449 66.7132H838.212C838.095 67.5731 837.757 68.388 837.231 69.078C836.706 69.7681 836.01 70.3099 835.212 70.6503C834.414 70.9908 833.542 71.1183 832.68 71.0204C831.818 70.9225 830.996 70.6025 830.295 70.0918C829.594 69.581 829.037 68.897 828.679 68.1065C828.322 67.316 828.175 66.4461 828.253 65.5818C828.332 64.7176 828.634 63.8885 829.128 63.1758C829.623 62.463 830.294 61.8908 831.076 61.5153L828.843 54.6393C828.543 54.6952 828.237 54.7226 827.932 54.7214C827.101 54.7199 826.284 54.5123 825.553 54.1171C824.822 53.7219 824.201 53.1515 823.745 52.457C823.289 51.7626 823.011 50.9657 822.939 50.1378C822.866 49.3099 822.999 48.4768 823.327 47.7132C823.655 46.9496 824.167 46.2793 824.817 45.7623C825.468 45.2453 826.236 44.8979 827.054 44.751C827.871 44.6042 828.712 44.6626 829.502 44.9209C830.291 45.1793 831.005 45.6295 831.577 46.2314L837.419 41.9818C837.008 41.2165 836.802 40.3575 836.821 39.4887C836.841 38.62 837.085 37.7711 837.531 37.0251C837.976 36.279 838.607 35.6613 839.362 35.2322C840.118 34.8032 840.971 34.5774 841.84 34.577ZM841.84 33.665C840.268 33.665 838.76 34.2893 837.647 35.4006C836.535 36.512 835.909 38.0196 835.906 39.5926C835.906 40.3062 836.035 41.014 836.289 41.6809L831.632 45.055C830.891 44.4637 830.019 44.0587 829.089 43.8739C828.16 43.6891 827.199 43.7298 826.288 43.9927C825.378 44.2556 824.543 44.733 823.855 45.385C823.166 46.0369 822.644 46.8444 822.332 47.7398C822.019 48.6353 821.926 49.5926 822.059 50.5316C822.192 51.4706 822.548 52.364 823.098 53.1369C823.647 53.9099 824.373 54.5399 825.216 54.9742C826.059 55.4086 826.993 55.6346 827.941 55.6333H828.205L830.028 61.1049C829.23 61.6331 828.572 62.3468 828.11 63.185C827.648 64.0231 827.396 64.9608 827.375 65.9178C827.354 66.8748 827.564 67.8226 827.989 68.6803C828.414 69.5379 829.04 70.2799 829.814 70.8427C830.588 71.4055 831.486 71.7725 832.433 71.9122C833.379 72.0518 834.345 71.9601 835.249 71.6448C836.152 71.3295 836.965 70.8 837.62 70.1016C838.274 69.4031 838.749 68.5566 839.005 67.6343H844.747C845.001 68.5599 845.476 69.41 846.13 70.1118C846.784 70.8136 847.599 71.3461 848.504 71.6638C849.41 71.9815 850.378 72.0748 851.328 71.9357C852.277 71.7967 853.178 71.4294 853.954 70.8654C854.73 70.3014 855.358 69.5575 855.784 68.6974C856.21 67.8374 856.421 66.8868 856.4 65.9272C856.378 64.9676 856.124 64.0275 855.66 63.1877C855.195 62.3478 854.534 61.6331 853.733 61.1049L855.556 55.6333H855.738C856.544 55.6781 857.35 55.5579 858.108 55.2802C858.865 55.0026 859.558 54.5732 860.144 54.0184C860.73 53.4636 861.197 52.795 861.516 52.0535C861.835 51.312 862 50.5131 862 49.7058C862 48.8985 861.835 48.0997 861.516 47.3582C861.197 46.6167 860.73 45.9481 860.144 45.3933C859.558 44.8384 858.865 44.4091 858.108 44.1314C857.35 43.8537 856.544 43.7336 855.738 43.7783C854.396 43.775 853.093 44.232 852.047 45.0732L847.399 41.6991C847.646 41.0305 847.772 40.3235 847.773 39.6108C847.774 38.8304 847.621 38.0575 847.324 37.3361C847.026 36.6148 846.589 35.9593 846.038 35.4071C845.487 34.8548 844.833 34.4167 844.112 34.1178C843.392 33.8189 842.619 33.665 841.84 33.665V33.665Z" fill="white"/>
<path id="Vector_53" d="M855.739 44.6709C855.057 44.6691 854.382 44.8065 853.755 45.0746C853.128 45.3428 852.563 45.736 852.093 46.2303L846.251 41.9807C846.665 41.2153 846.874 40.3554 846.856 39.4851C846.838 38.6149 846.595 37.7642 846.15 37.0164C845.705 36.2685 845.073 35.6493 844.317 35.2192C843.56 34.7891 842.705 34.563 841.835 34.563C840.966 34.563 840.111 34.7891 839.354 35.2192C838.598 35.6493 837.966 36.2685 837.521 37.0164C837.076 37.7642 836.832 38.6149 836.815 39.4851C836.797 40.3554 837.005 41.2153 837.42 41.9807L831.569 46.2303C830.996 45.6333 830.284 45.1875 829.497 44.9327C828.709 44.6779 827.871 44.622 827.058 44.77C826.244 44.918 825.479 45.2653 824.832 45.7809C824.184 46.2965 823.675 46.9643 823.348 47.7249C823.022 48.4855 822.888 49.3151 822.96 50.1398C823.032 50.9644 823.306 51.7585 823.759 52.4512C824.212 53.1439 824.83 53.7136 825.556 54.1095C826.283 54.5054 827.096 54.7153 827.923 54.7203C828.229 54.7216 828.534 54.6941 828.835 54.6383L831.067 61.5051C830.286 61.8806 829.614 62.4528 829.12 63.1656C828.625 63.8783 828.323 64.7074 828.245 65.5716C828.166 66.4359 828.313 67.3058 828.671 68.0963C829.029 68.8868 829.585 69.5708 830.287 70.0816C830.988 70.5923 831.809 70.9123 832.671 71.0102C833.533 71.1081 834.405 70.9806 835.203 70.6401C836.001 70.2997 836.697 69.7579 837.223 69.0678C837.749 68.3778 838.087 67.5629 838.204 66.703H845.44C845.556 67.5629 845.893 68.3779 846.418 69.0684C846.943 69.759 847.638 70.3014 848.435 70.6428C849.233 70.9841 850.105 71.1127 850.966 71.016C851.828 70.9193 852.65 70.6005 853.352 70.0909C854.054 69.5813 854.611 68.8982 854.97 68.1084C855.329 67.3186 855.477 66.4491 855.4 65.5849C855.323 64.7207 855.023 63.8914 854.53 63.1779C854.036 62.4644 853.366 61.8911 852.585 61.5142L854.827 54.6383C855.128 54.6941 855.433 54.7216 855.739 54.7203C856.422 54.7616 857.107 54.6625 857.751 54.4291C858.395 54.1957 858.985 53.8329 859.483 53.3632C859.982 52.8934 860.379 52.3265 860.651 51.6973C860.923 51.0682 861.063 50.3901 861.063 49.7047C861.063 49.0194 860.923 48.3413 860.651 47.7121C860.379 47.083 859.982 46.5161 859.483 46.0463C858.985 45.5765 858.395 45.2138 857.751 44.9804C857.107 44.747 856.422 44.6479 855.739 44.6891V44.6709ZM850.416 69.7124C849.695 69.7124 848.99 69.4985 848.391 69.0976C847.791 68.6968 847.324 68.1271 847.048 67.4606C846.772 66.7941 846.7 66.0606 846.841 65.3531C846.981 64.6455 847.328 63.9955 847.838 63.4854C848.348 62.9752 848.998 62.6278 849.705 62.4871C850.412 62.3463 851.145 62.4186 851.811 62.6946C852.477 62.9707 853.047 63.4383 853.447 64.0381C853.848 64.638 854.062 65.3432 854.062 66.0647C854.062 67.0321 853.678 67.9599 852.994 68.644C852.31 69.3281 851.383 69.7124 850.416 69.7124ZM838.213 65.3625C838.063 64.2302 837.529 63.1838 836.7 62.3987L839.434 58.5778C840.167 58.9668 840.983 59.1703 841.813 59.1705C842.639 59.1734 843.454 58.9696 844.182 58.5778L846.916 62.3987C846.085 63.1829 845.547 64.2292 845.394 65.3625H838.213ZM829.564 66.0373C829.564 65.3159 829.777 64.6106 830.178 64.0108C830.579 63.4109 831.148 62.9434 831.814 62.6673C832.48 62.3912 833.213 62.319 833.92 62.4597C834.628 62.6005 835.277 62.9479 835.787 63.458C836.297 63.9681 836.644 64.6181 836.785 65.3257C836.925 66.0333 836.853 66.7667 836.577 67.4332C836.301 68.0998 835.834 68.6695 835.235 69.0703C834.635 69.4711 833.93 69.685 833.209 69.685C832.242 69.685 831.315 69.3007 830.631 68.6166C829.948 67.9326 829.564 67.0048 829.564 66.0373ZM827.941 46.0205C828.662 46.0205 829.367 46.2345 829.967 46.6353C830.566 47.0361 831.033 47.6058 831.309 48.2723C831.585 48.9389 831.658 49.6723 831.517 50.3799C831.376 51.0875 831.029 51.7374 830.519 52.2476C830.009 52.7577 829.36 53.1051 828.653 53.2459C827.945 53.3866 827.212 53.3144 826.546 53.0383C825.88 52.7622 825.311 52.2947 824.91 51.6948C824.51 51.0949 824.296 50.3897 824.296 49.6683C824.296 48.7008 824.68 47.773 825.364 47.0889C826.047 46.4049 826.974 46.0205 827.941 46.0205ZM838.158 39.6371C838.158 38.9156 838.372 38.2104 838.772 37.6105C839.173 37.0106 839.742 36.5431 840.408 36.267C841.075 35.9909 841.808 35.9187 842.515 36.0595C843.222 36.2002 843.871 36.5476 844.381 37.0577C844.891 37.5679 845.238 38.2178 845.379 38.9254C845.52 39.633 845.447 40.3665 845.172 41.033C844.896 41.6995 844.428 42.2692 843.829 42.67C843.229 43.0708 842.525 43.2848 841.804 43.2848C841.321 43.2848 840.843 43.189 840.398 43.0028C839.953 42.8167 839.549 42.5439 839.209 42.2003C838.87 41.8567 838.603 41.4492 838.422 41.0014C838.242 40.5536 838.152 40.0743 838.158 39.5915V39.6371ZM850.79 50.5802L846.37 51.9937C846.009 51.2393 845.468 50.5862 844.794 50.0928C844.119 49.5994 843.333 49.2812 842.505 49.1667V44.6071C843.634 44.4568 844.677 43.9222 845.458 43.0933L851.318 47.3428C850.922 48.0733 850.715 48.8917 850.717 49.723C850.719 50.0071 850.743 50.2907 850.79 50.5711V50.5802ZM845.513 54.164C845.513 54.8855 845.299 55.5907 844.898 56.1906C844.498 56.7905 843.929 57.258 843.262 57.5341C842.596 57.8102 841.863 57.8824 841.156 57.7417C840.449 57.6009 839.799 57.2535 839.29 56.7434C838.78 56.2332 838.432 55.5833 838.292 54.8757C838.151 54.1681 838.223 53.4347 838.499 52.7681C838.775 52.1016 839.242 51.5319 839.842 51.1311C840.441 50.7303 841.146 50.5163 841.867 50.5163C842.833 50.5163 843.758 50.8994 844.442 51.5815C845.125 52.2636 845.51 53.1891 845.513 54.1549V54.164ZM841.156 44.6071V49.1667C840.331 49.2794 839.546 49.596 838.873 50.0879C838.2 50.5798 837.66 51.2316 837.301 51.9845L832.872 50.5711C832.929 50.2705 832.956 49.9651 832.954 49.6591C832.946 48.8505 832.743 48.0557 832.362 47.3428L838.213 43.0841C838.99 43.9146 840.03 44.4523 841.156 44.6071ZM832.462 51.9025L836.891 53.316C836.835 53.6166 836.807 53.922 836.809 54.2279C836.806 54.9111 836.943 55.5876 837.213 56.2152C837.483 56.8428 837.879 57.408 838.377 57.8756L835.643 61.7057C834.915 61.3099 834.101 61.103 833.273 61.1038C832.967 61.102 832.662 61.1294 832.362 61.1859L830.12 54.2188C831.142 53.7343 831.971 52.918 832.471 51.9025H832.462ZM850.416 61.0217C849.59 61.023 848.776 61.2265 848.047 61.6145L845.312 57.8026C845.808 57.3337 846.203 56.7682 846.473 56.1409C846.743 55.5136 846.881 54.8378 846.88 54.1549C846.882 53.849 846.855 53.5436 846.798 53.243L851.182 51.8478C851.678 52.8791 852.506 53.7139 853.533 54.2188L851.3 61.0947C851.008 61.0436 850.712 61.0192 850.416 61.0217ZM852.093 49.6956C852.093 48.9742 852.307 48.2689 852.707 47.6691C853.108 47.0692 853.677 46.6017 854.343 46.3256C855.01 46.0495 855.743 45.9772 856.45 46.118C857.157 46.2587 857.807 46.6062 858.316 47.1163C858.826 47.6264 859.173 48.2764 859.314 48.984C859.455 49.6916 859.383 50.425 859.107 51.0915C858.831 51.7581 858.363 52.3278 857.764 52.7286C857.164 53.1294 856.46 53.3433 855.739 53.3433C854.772 53.3433 853.844 52.959 853.161 52.2749C852.477 51.5908 852.093 50.663 852.093 49.6956Z" fill="#AA643B"/>
</g>
</g>
</g>
<text id="VCN" fill="#AE562C" xml:space="preserve" style="white-space: pre" font-family="Oracle Sans" font-size="16" font-weight="600" letter-spacing="0em"><tspan x="401" y="70.816">VCN</tspan></text>
</g>
<g id="Gateway">
<rect id="Rectangle 699" x="392" y="124.004" width="2" height="60" fill="#F5F4F2"/>
<g id="Icon Master_2">
<g id="Srv-OCI DRG">
<path id="Vector_54" d="M393 163.528C403.782 163.528 412.524 154.786 412.524 144.004C412.524 133.221 403.782 124.48 393 124.48C382.217 124.48 373.476 133.221 373.476 144.004C373.476 154.786 382.217 163.528 393 163.528Z" fill="white"/>
<path id="Vector_55" d="M393 124.956C396.767 124.956 400.45 126.073 403.582 128.166C406.714 130.259 409.156 133.234 410.597 136.715C412.039 140.195 412.416 144.025 411.681 147.72C410.946 151.415 409.132 154.809 406.468 157.473C403.805 160.136 400.411 161.951 396.716 162.686C393.021 163.42 389.191 163.043 385.71 161.602C382.23 160.16 379.255 157.719 377.162 154.586C375.069 151.454 373.952 147.771 373.952 144.004C373.952 138.952 375.959 134.107 379.531 130.535C383.103 126.963 387.948 124.956 393 124.956ZM393 124.004C389.044 124.004 385.177 125.177 381.888 127.375C378.599 129.572 376.036 132.696 374.522 136.35C373.008 140.005 372.612 144.026 373.384 147.906C374.156 151.785 376.061 155.349 378.858 158.146C381.655 160.943 385.218 162.848 389.098 163.62C392.978 164.391 396.999 163.995 400.653 162.481C404.308 160.968 407.431 158.404 409.629 155.115C411.827 151.826 413 147.96 413 144.004C413 138.7 410.893 133.612 407.142 129.862C403.391 126.111 398.304 124.004 393 124.004V124.004Z" fill="white"/>
<path id="Vector_56" d="M393 124.956C389.232 124.956 385.55 126.073 382.417 128.166C379.285 130.259 376.844 133.234 375.402 136.714C373.96 140.195 373.583 144.025 374.318 147.72C375.053 151.415 376.867 154.809 379.531 157.472C382.195 160.136 385.589 161.95 389.284 162.685C392.979 163.42 396.808 163.043 400.289 161.601C403.769 160.16 406.744 157.718 408.837 154.586C410.93 151.454 412.047 147.771 412.047 144.004C412.047 141.502 411.555 139.025 410.597 136.714C409.64 134.404 408.237 132.304 406.468 130.535C404.7 128.766 402.6 127.363 400.289 126.406C397.978 125.449 395.501 124.956 393 124.956ZM393 161.461C389.547 161.461 386.172 160.437 383.301 158.519C380.43 156.601 378.193 153.874 376.871 150.684C375.55 147.494 375.204 143.984 375.878 140.598C376.552 137.212 378.214 134.101 380.656 131.66C383.097 129.218 386.208 127.556 389.594 126.882C392.98 126.208 396.49 126.554 399.68 127.875C402.87 129.197 405.597 131.434 407.515 134.305C409.433 137.176 410.457 140.551 410.457 144.004C410.452 148.632 408.611 153.069 405.338 156.342C402.065 159.615 397.628 161.456 393 161.461Z" fill="#2D5967"/>
<path id="Vector_57" d="M393.79 155.185V133.023L396.209 135.442L397.333 134.318L393 129.985L388.667 134.318L389.79 135.442L392.209 133.023V155.185L389.79 152.766L388.667 153.89L393 158.223L397.333 153.89L396.209 152.766L393.79 155.185Z" fill="#2D5967"/>
<path id="Vector_58" d="M387.809 139.67L386.685 140.794L389.104 143.213H378.914V144.794H389.104L386.685 147.213L387.809 148.337L392.133 144.004L387.809 139.67Z" fill="#2D5967"/>
<path id="Vector_59" d="M396.895 143.213L399.314 140.794L398.19 139.67L393.866 144.004L398.19 148.337L399.314 147.213L396.895 144.794H407.085V143.213H396.895Z" fill="#2D5967"/>
</g>
<g id="Icon Text Label_6">
<text id="IconLabel_11" fill="black" xml:space="preserve" style="white-space: pre" font-family="Oracle Sans" font-size="16" letter-spacing="0em"><tspan x="376.836" y="181.82">DRG</tspan></text>
</g>
</g>
</g>
<path id="Vector 1" d="M121.293 144.293C120.902 144.683 120.902 145.317 121.293 145.707L127.657 152.071C128.047 152.462 128.681 152.462 129.071 152.071C129.462 151.681 129.462 151.047 129.071 150.657L123.414 145L129.071 139.343C129.462 138.953 129.462 138.319 129.071 137.929C128.681 137.538 128.047 137.538 127.657 137.929L121.293 144.293ZM368.707 145.707C369.098 145.317 369.098 144.683 368.707 144.293L362.343 137.929C361.953 137.538 361.319 137.538 360.929 137.929C360.538 138.319 360.538 138.953 360.929 139.343L366.586 145L360.929 150.657C360.538 151.047 360.538 151.681 360.929 152.071C361.319 152.462 361.953 152.462 362.343 152.071L368.707 145.707ZM122 145V146H368V145V144H122V145Z" fill="#312D2A"/>
<path id="Vector 2" d="M944.707 144.707C945.098 144.317 945.098 143.683 944.707 143.293L938.343 136.929C937.953 136.538 937.319 136.538 936.929 136.929C936.538 137.319 936.538 137.953 936.929 138.343L942.586 144L936.929 149.657C936.538 150.047 936.538 150.681 936.929 151.071C937.319 151.462 937.953 151.462 938.343 151.071L944.707 144.707ZM646 144V145H944V144V143H646V144Z" fill="#312D2A"/>
<path id="Vector 3" d="M122 320.398L604 320.398" stroke="#312D2A" stroke-width="2" stroke-dasharray="4 4"/>
<path id="Vector 4" d="M640 320.399L835 320.398" stroke="#312D2A" stroke-width="2" stroke-dasharray="4 4"/>
<g id="OCI Subnet Boxes_New">
<rect x="432.5" y="88.5" width="383" height="135" stroke="#AA643B" stroke-dasharray="8 4"/>
<text id="Subnet" fill="#AE562C" xml:space="preserve" style="white-space: pre" font-family="Oracle Sans" font-size="16" font-weight="600" letter-spacing="0em"><tspan x="440" y="109.816">Storage</tspan></text>
<text id="Subnet_2" fill="#AE562C" xml:space="preserve" style="white-space: pre" font-family="Oracle Sans" font-size="16" font-weight="600" letter-spacing="0em"><tspan x="440" y="125.816">Subnet</tspan></text>
<g id="Icon Master_3">
<g id="Srv-Route table and security list">
<g id="Group_14">
<g id="Group_15">
<path id="Vector_60" d="M767.476 107.519V81.0771H784.238V73.2886L795.476 68.481L806.619 73.2886V83.481C806.619 83.5771 806.619 86.0771 805.19 89.0579C803.952 91.7502 801.381 95.404 795.857 97.4233V107.423H767.476V107.519Z" fill="white"/>
<path id="Vector_61" d="M795.381 69.0577L806.048 73.5769V83.4808C806.048 83.5769 806.048 85.9808 804.714 88.8654C803.476 91.5577 801 95.1154 795.667 97.0385L795.476 97.1346H795.381V107.038H767.952V81.5577H784.714V73.5769L795.381 69.0577ZM795.381 68L795 68.1923L784.333 72.7115L783.762 73V73.6731V80.6923H767.952H767V81.6538V107.038V108H767.952H795.381H796.333V107.038V97.8077C801.667 95.6923 804.333 92.0385 805.571 89.25C807 86.1731 807 83.5769 807 83.4808V73.5769V73L806.429 72.7115L795.762 68.1923L795.381 68Z" fill="white"/>
</g>
<g id="Group_16">
<path id="Vector_62" d="M794.048 97.7115H776.524V90.9808H786.048C785.762 90.5 785.571 90.1154 785.381 89.7308H776.524V83H783.667V81.75H767.952V107.135H795.381V98.2885L794.905 98.0962C794.619 97.9038 794.333 97.8077 794.048 97.7115ZM769.19 82.9038H775.286V89.6346H769.19V82.9038ZM775.286 90.8846V97.6154H769.19V90.8846H775.286ZM769.19 98.9615H775.286V105.692H769.19V98.9615ZM794.048 105.692H776.524V98.9615H794.048V105.692Z" fill="#AA643B"/>
<path id="Vector_63" d="M792.619 103.192H791.381V104.442H792.619V103.192Z" fill="#AA643B"/>
<path id="Vector_64" d="M787.381 104.442L788.524 103.288L789.667 104.442L790.524 103.481L789.381 102.327L790.524 101.173L789.667 100.308L788.524 101.461L787.381 100.308L786.428 101.173L787.571 102.327L786.428 103.481L787.381 104.442Z" fill="#AA643B"/>
<path id="Vector_65" d="M784.619 103.192H783.381V104.442H784.619V103.192Z" fill="#AA643B"/>
<path id="Vector_66" d="M778.524 103.481L779.381 104.442L780.524 103.288L781.667 104.442L782.619 103.481L781.476 102.327L782.619 101.173L781.667 100.308L780.524 101.461L779.381 100.308L778.524 101.173L779.667 102.327L778.524 103.481Z" fill="#AA643B"/>
<path id="Vector_67" d="M784.619 95.1157H783.381V96.3657H784.619V95.1157Z" fill="#AA643B"/>
<path id="Vector_68" d="M778.524 95.404L779.381 96.3656L780.524 95.2117L781.667 96.3656L782.619 95.404L781.476 94.2502L782.619 93.0963L781.667 92.231L780.524 93.3848L779.381 92.231L778.524 93.0963L779.667 94.2502L778.524 95.404Z" fill="#AA643B"/>
<path id="Vector_69" d="M783.095 88.3847H784.333V87.1347C784.333 87.1347 784.333 87.1347 784.333 87.0386H783.095V88.3847Z" fill="#AA643B"/>
<path id="Vector_70" d="M778.143 87.423L779.095 88.2884L780.238 87.1346L781.381 88.2884L782.238 87.423L781.095 86.2692L782.238 85.1153L781.381 84.1538L780.238 85.3077L779.095 84.1538L778.143 85.1153L779.286 86.2692L778.143 87.423Z" fill="#AA643B"/>
<path id="Vector_71" d="M784.714 73.5768V83.4807C784.714 83.5768 784.81 85.9807 786.048 88.8653C787.286 91.5576 789.857 95.1153 795.191 97.0384L795.381 97.1345L795.571 97.0384C800.905 95.1153 803.476 91.5576 804.619 88.8653C805.952 85.9807 805.952 83.5768 805.952 83.4807V73.5768L795.381 69.0576L784.714 73.5768ZM804.81 83.4807C804.81 83.5768 804.619 92.2307 795.476 95.6922C791.667 94.2499 788.905 91.7499 787.286 88.3845C786.048 85.7884 786.048 83.4807 786.048 83.4807V74.4422L795.476 70.4038L804.81 74.4422V83.4807Z" fill="#AA643B"/>
<path id="Vector_72" d="M794.238 84.8267H789.286V86.0767H794.238V84.8267Z" fill="#AA643B"/>
<path id="Vector_73" d="M794.238 78.3848H789.286V79.6348H794.238V78.3848Z" fill="#AA643B"/>
<path id="Vector_74" d="M800.905 76.9424L798.143 79.6347L797.19 78.6732L796.238 79.5385L798.143 81.4616L801.762 77.8078L800.905 76.9424Z" fill="#AA643B"/>
<path id="Vector_75" d="M789.286 82.9038H794.048H794.238V81.5576H789.286V82.9038Z" fill="#AA643B"/>
</g>
</g>
</g>
</g>
</g>
<g id="OCI Subnet Boxes_New_2">
<rect x="432.5" y="256.5" width="383" height="135" stroke="#AA643B" stroke-dasharray="8 4"/>
<text id="Subnet_3" fill="#AE562C" xml:space="preserve" style="white-space: pre" font-family="Oracle Sans" font-size="16" font-weight="600" letter-spacing="0em"><tspan x="440" y="277.816">DNS</tspan></text>
<text id="Subnet_4" fill="#AE562C" xml:space="preserve" style="white-space: pre" font-family="Oracle Sans" font-size="16" font-weight="600" letter-spacing="0em"><tspan x="440" y="293.816">Subnet</tspan></text>
<g id="Icon Master_4">
<g id="Srv-Route table and security list_2">
<g id="Group_17">
<g id="Group_18">
<path id="Vector_76" d="M767.476 275.519V249.077H784.238V241.289L795.476 236.481L806.619 241.289V251.481C806.619 251.577 806.619 254.077 805.19 257.058C803.952 259.75 801.381 263.404 795.857 265.423V275.423H767.476V275.519Z" fill="white"/>
<path id="Vector_77" d="M795.381 237.058L806.048 241.577V251.481C806.048 251.577 806.048 253.981 804.714 256.865C803.476 259.558 801 263.115 795.667 265.038L795.476 265.135H795.381V275.038H767.952V249.558H784.714V241.577L795.381 237.058ZM795.381 236L795 236.192L784.333 240.712L783.762 241V241.673V248.692H767.952H767V249.654V275.038V276H767.952H795.381H796.333V275.038V265.808C801.667 263.692 804.333 260.038 805.571 257.25C807 254.173 807 251.577 807 251.481V241.577V241L806.429 240.712L795.762 236.192L795.381 236Z" fill="white"/>
</g>
<g id="Group_19">
<path id="Vector_78" d="M794.048 265.712H776.524V258.981H786.048C785.762 258.5 785.571 258.115 785.381 257.731H776.524V251H783.667V249.75H767.952V275.135H795.381V266.288L794.905 266.096C794.619 265.904 794.333 265.808 794.048 265.712ZM769.19 250.904H775.286V257.635H769.19V250.904ZM775.286 258.885V265.615H769.19V258.885H775.286ZM769.19 266.962H775.286V273.692H769.19V266.962ZM794.048 273.692H776.524V266.962H794.048V273.692Z" fill="#AA643B"/>
<path id="Vector_79" d="M792.619 271.192H791.381V272.442H792.619V271.192Z" fill="#AA643B"/>
<path id="Vector_80" d="M787.381 272.442L788.524 271.288L789.667 272.442L790.524 271.481L789.381 270.327L790.524 269.173L789.667 268.308L788.524 269.461L787.381 268.308L786.428 269.173L787.571 270.327L786.428 271.481L787.381 272.442Z" fill="#AA643B"/>
<path id="Vector_81" d="M784.619 271.192H783.381V272.442H784.619V271.192Z" fill="#AA643B"/>
<path id="Vector_82" d="M778.524 271.481L779.381 272.442L780.524 271.288L781.667 272.442L782.619 271.481L781.476 270.327L782.619 269.173L781.667 268.308L780.524 269.461L779.381 268.308L778.524 269.173L779.667 270.327L778.524 271.481Z" fill="#AA643B"/>
<path id="Vector_83" d="M784.619 263.116H783.381V264.366H784.619V263.116Z" fill="#AA643B"/>
<path id="Vector_84" d="M778.524 263.404L779.381 264.366L780.524 263.212L781.667 264.366L782.619 263.404L781.476 262.25L782.619 261.096L781.667 260.231L780.524 261.385L779.381 260.231L778.524 261.096L779.667 262.25L778.524 263.404Z" fill="#AA643B"/>
<path id="Vector_85" d="M783.095 256.385H784.333V255.135C784.333 255.135 784.333 255.135 784.333 255.039H783.095V256.385Z" fill="#AA643B"/>
<path id="Vector_86" d="M778.143 255.423L779.095 256.288L780.238 255.135L781.381 256.288L782.238 255.423L781.095 254.269L782.238 253.115L781.381 252.154L780.238 253.308L779.095 252.154L778.143 253.115L779.286 254.269L778.143 255.423Z" fill="#AA643B"/>
<path id="Vector_87" d="M784.714 241.577V251.481C784.714 251.577 784.81 253.981 786.048 256.865C787.286 259.558 789.857 263.115 795.191 265.038L795.381 265.135L795.571 265.038C800.905 263.115 803.476 259.558 804.619 256.865C805.952 253.981 805.952 251.577 805.952 251.481V241.577L795.381 237.058L784.714 241.577ZM804.81 251.481C804.81 251.577 804.619 260.231 795.476 263.692C791.667 262.25 788.905 259.75 787.286 256.385C786.048 253.788 786.048 251.481 786.048 251.481V242.442L795.476 238.404L804.81 242.442V251.481Z" fill="#AA643B"/>
<path id="Vector_88" d="M794.238 252.827H789.286V254.077H794.238V252.827Z" fill="#AA643B"/>
<path id="Vector_89" d="M794.238 246.385H789.286V247.635H794.238V246.385Z" fill="#AA643B"/>
<path id="Vector_90" d="M800.905 244.942L798.143 247.635L797.19 246.673L796.238 247.539L798.143 249.462L801.762 245.808L800.905 244.942Z" fill="#AA643B"/>
<path id="Vector_91" d="M789.286 250.904H794.048H794.238V249.558H789.286V250.904Z" fill="#AA643B"/>
</g>
</g>
</g>
</g>
</g>
<g id="Special Connector">
<path id="Vector 46" d="M182 145.001H329" stroke="#312D2A" stroke-width="2"/>
<g id="Group 1237">
<g id="Background color=white bg">
<rect width="88" height="14" transform="translate(233 138.001)" fill="white"/>
<text id="Yes" fill="#312D2A" xml:space="preserve" style="white-space: pre" font-family="Oracle Sans" font-size="14" letter-spacing="0em"><tspan x="237.372" y="150.09">FastConnect</tspan></text>
</g>
<g id="Icon Master_5">
<g id="Srv-OCI FastConnect">
<g id="Group_20">
<g id="Group_21">
<g id="Group_22">
<path id="Vector_92" d="M211 158.687C210.801 158.687 210.602 158.687 210.336 158.687C208.608 158.488 207.014 157.624 205.951 156.295C205.685 156.295 205.485 156.361 205.22 156.361C205.02 156.361 204.887 156.361 204.688 156.361C203.293 156.228 201.964 155.564 201.034 154.501H195.585V152.64H200.037C199.771 151.91 199.705 151.112 199.771 150.315V150.248H193.525V148.388H198.642C198.044 147.723 197.578 146.86 197.379 145.996H191.333V144.135H197.313C197.446 143.338 197.711 142.541 198.243 141.876H193.525V140.016H200.17C200.103 139.484 200.037 138.953 200.103 138.421C200.103 138.155 200.17 137.89 200.236 137.624H195.585V135.63H201.1C201.432 135.165 201.764 134.767 202.23 134.368C203.293 133.504 204.555 133.039 205.884 133.039C206.083 133.039 206.283 133.039 206.482 133.039C206.881 133.106 207.213 133.172 207.545 133.238C209.007 131.976 210.867 131.312 212.794 131.312C213.06 131.312 213.326 131.312 213.592 131.378C216.25 131.644 218.642 133.238 219.904 135.564H226.283V137.424H220.635C220.768 137.89 220.834 138.355 220.901 138.82C221.499 139.086 222.03 139.418 222.495 139.883H228.475V141.743H223.957C224.356 142.474 224.622 143.205 224.688 144.003H230.668V145.863H224.688C224.555 146.727 224.289 147.524 223.891 148.255H228.542V150.115H222.296C222.23 150.182 222.163 150.248 222.097 150.248C222.163 150.714 222.163 151.112 222.097 151.577C222.097 151.91 222.03 152.242 221.897 152.508H226.15L226.216 152.707C226.216 152.773 226.283 152.906 226.216 154.036V154.368H220.901C220.037 155.63 218.509 156.361 216.914 156.361C216.715 156.361 216.582 156.361 216.382 156.361C216.25 156.361 216.117 156.361 215.984 156.295C214.788 157.823 212.927 158.687 211 158.687Z" fill="white"/>
<path id="Vector_93" d="M212.794 131.777C213.06 131.777 213.326 131.777 213.591 131.844C216.316 132.109 218.575 133.771 219.771 136.03H226.017V137.226H220.236C220.435 137.824 220.568 138.488 220.635 139.153C221.299 139.418 221.897 139.817 222.429 140.282H228.209V141.478H223.425C224.023 142.342 224.355 143.339 224.422 144.402H230.402V145.598H224.422C224.422 145.598 224.422 145.598 224.422 145.664C224.289 146.794 223.89 147.791 223.292 148.721H228.209V149.917H222.229C222.096 150.05 221.963 150.183 221.764 150.249C221.831 150.714 221.897 151.179 221.831 151.644C221.764 152.109 221.698 152.575 221.498 152.973H226.017C226.083 153.106 226.017 154.169 226.017 154.169H220.834C219.904 155.365 218.442 156.163 216.847 156.163C216.714 156.163 216.515 156.163 216.316 156.163C216.116 156.163 215.983 156.096 215.784 156.096C214.721 157.492 212.927 158.355 211 158.355C210.801 158.355 210.601 158.355 210.402 158.355C208.674 158.156 207.146 157.292 206.15 155.963C205.884 156.03 205.551 156.03 205.286 156.03C205.086 156.03 204.953 156.03 204.754 156.03C203.359 155.897 202.096 155.232 201.233 154.169H195.917V152.973H200.502C200.169 152.176 199.97 151.246 200.103 150.382C200.103 150.249 200.169 150.05 200.169 149.917H193.857V148.721H199.439C198.508 147.923 197.844 146.86 197.645 145.664H191.664V144.468H197.645V144.402C197.777 143.339 198.243 142.342 198.907 141.545H193.857V140.349H200.568C200.568 140.349 200.568 140.349 200.635 140.349C200.502 139.751 200.435 139.086 200.502 138.422C200.568 138.023 200.635 137.624 200.767 137.226H195.917V135.963H201.233C201.565 135.498 201.963 135.033 202.362 134.634C203.359 133.837 204.555 133.438 205.751 133.438C205.95 133.438 206.15 133.438 206.282 133.438C206.681 133.505 207.08 133.571 207.478 133.704C209.073 132.442 210.867 131.777 212.794 131.777ZM212.794 131.113C210.867 131.113 208.94 131.777 207.478 132.973C207.146 132.907 206.814 132.84 206.482 132.774C206.282 132.774 206.083 132.774 205.884 132.774C204.488 132.774 203.159 133.239 202.03 134.169C201.631 134.501 201.233 134.9 200.967 135.365H195.917H195.252V136.03V137.226V137.89H195.917H199.837C199.837 138.023 199.771 138.156 199.771 138.289C199.704 138.754 199.704 139.153 199.771 139.618H193.857H193.193V140.282V141.478V142.143H193.857H197.645C197.379 142.674 197.179 143.206 197.047 143.737H191.664H191V144.402V145.598V146.262H191.664H197.113C197.246 146.927 197.578 147.458 197.91 147.99H193.857H193.193V148.654V149.85V150.515H193.857H199.372C199.306 151.113 199.372 151.711 199.571 152.242H195.917H195.252V152.907V154.103V154.767H195.917H200.9C201.897 155.83 203.226 156.495 204.621 156.628C204.821 156.628 205.02 156.628 205.219 156.628C205.419 156.628 205.618 156.628 205.817 156.628C206.947 157.957 208.542 158.82 210.336 159.02C210.535 159.02 210.801 159.02 211 159.02C212.993 159.02 214.854 158.156 216.116 156.628C216.183 156.628 216.249 156.628 216.316 156.628C216.515 156.628 216.714 156.628 216.914 156.628C218.575 156.628 220.103 155.897 221.166 154.634H226.017H226.615V154.036C226.681 152.907 226.615 152.707 226.548 152.575L226.415 152.176H225.95H222.362C222.429 151.977 222.429 151.777 222.429 151.578C222.495 151.179 222.429 150.781 222.429 150.382H228.209H228.874V149.717V148.521V147.857H228.209H224.422C224.688 147.325 224.887 146.727 224.953 146.129H230.336H231V145.465V144.402V143.737H230.336H224.953C224.821 143.206 224.688 142.674 224.488 142.143H228.209H228.874V141.478V140.282V139.618H228.209H222.694C222.229 139.219 221.831 138.953 221.299 138.688C221.299 138.422 221.233 138.156 221.166 137.89H226.017H226.681V137.226V135.963V135.299H226.017H220.169C218.774 132.973 216.382 131.379 213.658 131.113C213.392 131.113 213.06 131.113 212.794 131.113Z" fill="white"/>
</g>
<g id="Group_23">
<path id="Vector_94" d="M195.916 135.963V137.159H199.77C199.903 136.761 200.036 136.362 200.235 135.963H195.916Z" fill="#312D2A"/>
<path id="Vector_95" d="M226.018 137.159V135.963H220.768C220.968 136.362 221.101 136.761 221.233 137.159H226.018Z" fill="#312D2A"/>
<path id="Vector_96" d="M198.907 140.283H193.857V141.479H197.778C198.11 141.014 198.442 140.615 198.907 140.283Z" fill="#312D2A"/>
<path id="Vector_97" d="M228.209 141.412V140.216H223.625C223.957 140.615 224.223 140.947 224.422 141.412H228.209Z" fill="#312D2A"/>
<path id="Vector_98" d="M225.353 145.532H230.469V144.336H225.353C225.353 144.735 225.353 145.133 225.353 145.532Z" fill="#312D2A"/>
<path id="Vector_99" d="M196.714 144.336H191.664V145.532H196.78C196.714 145.133 196.714 144.735 196.714 144.336Z" fill="#312D2A"/>
<path id="Vector_100" d="M198.176 148.655H193.857V149.851H199.239C199.239 149.784 199.239 149.718 199.306 149.651C198.907 149.319 198.509 148.987 198.176 148.655Z" fill="#312D2A"/>
<path id="Vector_101" d="M228.21 149.785V148.589H224.356C224.09 148.988 223.824 149.386 223.492 149.785H228.21Z" fill="#312D2A"/>
<path id="Vector_102" d="M226.016 154.036V152.84H222.428C222.295 153.239 222.096 153.638 221.897 154.036H226.016Z" fill="#312D2A"/>
<path id="Vector_103" d="M195.916 152.907V154.103H200.102C199.836 153.704 199.703 153.305 199.504 152.907H195.916Z" fill="#312D2A"/>
<path id="Vector_104" d="M224.423 145.598C224.688 142.808 223.16 140.216 220.635 139.087C220.37 135.299 217.446 132.176 213.592 131.844C211.399 131.645 209.273 132.309 207.612 133.771C207.213 133.638 206.815 133.572 206.416 133.505C204.954 133.372 203.559 133.771 202.429 134.701C201.3 135.632 200.635 136.894 200.436 138.356C200.37 139.02 200.436 139.618 200.569 140.283C198.908 141.014 197.778 142.542 197.579 144.336C197.38 146.396 198.443 148.323 200.237 149.253C200.104 149.585 200.037 149.984 200.037 150.316C199.904 151.711 200.303 153.04 201.167 154.103C202.031 155.166 203.293 155.831 204.688 155.964C205.154 156.03 205.619 155.964 206.017 155.897C207.014 157.293 208.609 158.156 210.27 158.289C210.469 158.289 210.669 158.289 210.868 158.289C212.795 158.289 214.589 157.426 215.718 155.831C215.918 155.897 216.051 155.897 216.25 155.897C216.383 155.897 216.582 155.897 216.782 155.897C219.306 155.897 221.433 153.97 221.698 151.445C221.765 150.98 221.698 150.515 221.632 150.05C223.293 149.053 224.223 147.459 224.423 145.598ZM220.569 150.05C220.702 150.515 220.768 150.98 220.702 151.445C220.569 152.442 220.104 153.372 219.306 153.97C218.509 154.635 217.512 154.901 216.516 154.834C216.25 154.834 216.051 154.768 215.785 154.701L215.386 154.568L215.12 154.967C214.124 156.495 212.33 157.359 210.469 157.16C209.007 157.027 207.679 156.163 206.815 154.967L206.615 154.635L206.217 154.768C205.752 154.901 205.287 154.901 204.888 154.901C203.825 154.768 202.828 154.303 202.164 153.439C201.499 152.575 201.167 151.578 201.3 150.515C201.366 150.117 201.433 149.651 201.632 149.253L201.898 148.655L201.3 148.455C200.037 147.99 199.174 146.927 198.908 145.665H207.147L205.552 147.259L206.35 148.057L209.34 145L206.35 141.944L205.552 142.741L207.147 144.336H198.841C199.041 142.808 200.037 141.545 201.566 141.146L202.164 140.947L201.898 140.416C201.632 139.751 201.566 139.153 201.632 138.489C201.765 137.359 202.296 136.362 203.16 135.632C204.024 134.901 205.154 134.568 206.283 134.701C206.682 134.768 207.081 134.834 207.479 135.034L207.878 135.1L208.144 134.834C209.539 133.439 211.532 132.774 213.459 132.974C216.848 133.306 219.439 136.097 219.506 139.485V139.884L219.904 140.017C221.765 140.681 223.094 142.409 223.293 144.336H215.054L216.516 142.874L215.718 142.077L212.861 144.934L215.851 147.99L216.649 147.193L215.054 145.598H223.227C223.027 147.193 222.164 148.588 220.768 149.452L220.37 149.718L220.569 150.05Z" fill="#312D2A"/>
</g>
</g>
</g>
</g>
</g>
<rect id="Rectangle 695" x="231" y="143.001" width="2" height="4" fill="white"/>
</g>
</g>
<rect id="Rectangle 1" x="857" y="335" width="31" height="57" fill="#F5F4F2"/>
<g id="OCI DNS_2">
<g id="Srv-OCI DNS_2">
<g id="Group_24">
<g id="Group_25">
<g id="Group_26">
<path id="Vector_105" d="M870.214 349.283C854.978 349.283 842.574 336.878 842.574 321.642C842.574 306.406 854.978 294.002 870.214 294.002C883.563 294.002 895.023 303.44 897.45 316.654C899.608 317.328 901.226 319.35 901.226 321.777C901.226 324.204 899.742 326.092 897.45 326.901C895.023 339.845 883.697 349.283 870.214 349.283Z" fill="white"/>
<path id="Vector_106" d="M870.214 294.676C883.563 294.676 894.619 304.384 896.776 317.058C898.799 317.597 900.417 319.35 900.417 321.642C900.417 323.8 898.799 325.687 896.776 326.227C894.754 338.901 883.563 348.609 870.214 348.609C855.383 348.609 843.248 336.474 843.248 321.642C843.248 306.811 855.383 294.676 870.214 294.676ZM870.214 293.328C854.574 293.328 841.9 306.002 841.9 321.642C841.9 337.283 854.574 349.957 870.214 349.957C883.832 349.957 895.428 340.384 897.99 327.17C900.282 326.227 901.765 324.069 901.765 321.642C901.765 319.215 900.147 316.923 897.99 316.114C895.428 302.901 883.832 293.328 870.214 293.328Z" fill="white"/>
</g>
<g id="Group_27">
<path id="Vector_107" d="M900.551 321.642C900.551 319.485 898.933 317.597 896.911 317.058C894.754 304.384 883.563 294.676 870.214 294.676C855.383 294.676 843.248 306.811 843.248 321.642C843.248 336.474 855.383 348.608 870.214 348.608C883.563 348.608 894.619 338.9 896.776 326.226C898.933 325.687 900.551 323.799 900.551 321.642ZM895.832 324.069C894.484 324.069 893.405 322.99 893.405 321.642C893.405 320.294 894.484 319.215 895.832 319.215C897.181 319.215 898.259 320.294 898.259 321.642C898.259 322.99 897.181 324.069 895.832 324.069ZM894.619 317.193C893.001 317.597 891.787 318.945 891.383 320.563H881.001C881.001 318.271 880.731 316.114 880.327 313.957C882.484 313.013 884.102 310.856 884.102 308.294C884.102 304.923 881.27 302.092 877.9 302.092C877.225 302.092 876.686 302.226 876.147 302.361C875.203 300.608 874.124 298.856 872.776 297.238C883.697 298.181 892.596 306.541 894.619 317.193ZM862.664 329.867C866.034 329.058 868.596 326.226 869.001 322.856H878.709C878.439 331.215 875.473 339.305 870.214 345.777C866.439 341.058 863.877 335.665 862.664 329.867ZM854.439 321.642C854.439 318.271 857.27 315.44 860.641 315.44C864.012 315.44 866.843 318.271 866.843 321.642C866.843 325.013 864.012 327.844 860.641 327.844C857.27 327.844 854.439 325.013 854.439 321.642ZM869.001 320.563C868.596 317.058 865.9 314.226 862.529 313.552C863.742 307.754 866.439 302.361 870.079 297.642C871.563 299.395 872.776 301.417 873.855 303.305C872.372 304.384 871.428 306.271 871.428 308.159C871.428 311.53 874.259 314.361 877.63 314.361H877.765C878.169 316.384 878.439 318.406 878.439 320.563H869.001ZM877.9 304.249C880.057 304.249 881.81 306.002 881.81 308.159C881.81 310.316 880.057 312.069 877.9 312.069C875.742 312.069 873.989 310.316 873.989 308.159C873.989 306.002 875.607 304.249 877.9 304.249ZM867.787 297.103C864.147 301.957 861.585 307.35 860.372 313.283C856.192 313.417 852.821 316.518 852.282 320.563H845.54C846.079 308.294 855.652 298.316 867.787 297.103ZM845.54 322.721H852.282C852.821 326.766 856.192 329.867 860.372 330.002C861.585 335.799 864.147 341.327 867.787 346.181C855.652 344.968 846.079 334.99 845.54 322.721ZM872.776 346.181C877.9 339.44 880.731 331.215 881.001 322.721H891.383C891.787 324.339 893.001 325.552 894.619 326.092C892.596 336.743 883.697 345.103 872.776 346.181Z" fill="#2D5967"/>
</g>
</g>
</g>
</g>
<g id="Icon Text Label_7">
<text id="IconLabel_12" fill="black" xml:space="preserve" style="white-space: pre" font-family="Oracle Sans" font-size="16" letter-spacing="0em"><tspan x="831.837" y="367.816">OCI Private</tspan></text>
<text id="IconLabel_13" fill="black" xml:space="preserve" style="white-space: pre" font-family="Oracle Sans" font-size="16" letter-spacing="0em"><tspan x="855.9" y="383.816">DNS</tspan></text>
</g>
</g>
</g>
<defs>
<clipPath id="clip0_19887_208">
<rect width="1032" height="440" fill="white"/>
</clipPath>
</defs>
</svg>
