<svg width="392" height="479" viewBox="0 0 392 479" fill="none" xmlns="http://www.w3.org/2000/svg">
<g id="base-database-recovery-backup-architecture" clip-path="url(#clip0_9423_208451)">
<rect width="392" height="479" fill="white"/>
<g id="Group 1237">
<g id="OCI Region">
<rect x="0.5" y="0.5" width="391" height="478" rx="3.5" fill="#F5F4F2"/>
<text id="OCI Region_2" fill="#312D2A" xml:space="preserve" style="white-space: pre" font-family="Oracle Sans" font-size="16" font-weight="bold" letter-spacing="0em"><tspan x="8" y="21.816">OCI Region</tspan></text>
<rect x="0.5" y="0.5" width="391" height="478" rx="3.5" stroke="#9E9892"/>
</g>
<path id="Vector 57" d="M50 170L64 170" stroke="#312D2A" stroke-width="2"/>
<g id="VCN box_New">
<rect id="Rectangle 28" x="29" y="42.969" width="353" height="225" stroke="#AA643B" stroke-width="2" stroke-dasharray="8 4"/>
<g id="Icon Master">
<g id="Virtual-Cloud-Network-VCN_red">
<g id="Group 39">
<path id="Vector" d="M361.416 65.5102C360.16 65.5097 358.944 65.077 357.969 64.285C356.995 63.4929 356.323 62.3896 356.066 61.1603H349.595C349.408 62.0545 349 62.8874 348.408 63.5832C347.816 64.2791 347.06 64.8156 346.208 65.1439C345.356 65.4721 344.435 65.5817 343.53 65.4626C342.625 65.3435 341.764 64.9994 341.026 64.4619C340.287 63.9244 339.695 63.2104 339.304 62.3852C338.912 61.56 338.733 60.6498 338.783 59.7376C338.833 58.8254 339.111 57.9403 339.59 57.163C340.07 56.3856 340.737 55.7409 341.529 55.2875L339.533 49.1411C339.336 49.1547 339.138 49.1547 338.941 49.1411C338.053 49.1431 337.179 48.9289 336.392 48.5169C335.606 48.105 334.931 47.5077 334.427 46.7766C333.923 46.0456 333.605 45.2028 333.499 44.3209C333.393 43.4391 333.504 42.5448 333.821 41.7152C334.138 40.8857 334.652 40.1458 335.319 39.5595C335.986 38.9733 336.785 38.5582 337.648 38.3502C338.511 38.1422 339.411 38.1475 340.272 38.3657C341.132 38.5838 341.927 39.0083 342.586 39.6024L347.845 35.8726C347.527 35.1674 347.363 34.4028 347.362 33.6293C347.362 32.1781 347.938 30.7864 348.964 29.7603C349.989 28.7342 351.38 28.1577 352.83 28.1577C354.281 28.1577 355.672 28.7342 356.697 29.7603C357.723 30.7864 358.299 32.1781 358.299 33.6293C358.301 34.4021 358.139 35.1667 357.825 35.8726L363.093 39.6389C364.088 38.7257 365.388 38.2182 366.738 38.2163C368.188 38.2163 369.579 38.7927 370.605 39.8188C371.63 40.845 372.206 42.2367 372.206 43.6878C372.206 45.139 371.63 46.5307 370.605 47.5568C369.579 48.5829 368.188 49.1594 366.738 49.1594C366.547 49.1594 366.346 49.1594 366.155 49.1594L364.15 55.3058C365.199 55.9051 366.02 56.8351 366.485 57.9505C366.95 59.0659 367.032 60.304 366.72 61.4714C366.408 62.6389 365.718 63.6701 364.759 64.404C363.799 65.1379 362.623 65.5333 361.416 65.5284V65.5102Z" fill="white"/>
<path id="Vector_2" d="M352.84 28.577C353.707 28.579 354.56 28.8059 355.314 29.2356C356.068 29.6653 356.697 30.2832 357.142 31.029C357.586 31.7748 357.829 32.623 357.849 33.491C357.868 34.359 357.662 35.2172 357.251 35.9818L363.093 40.2314C363.665 39.6323 364.377 39.1844 365.164 38.9277C365.951 38.6711 366.79 38.6137 367.605 38.7607C368.42 38.9076 369.186 39.2544 369.835 39.7699C370.483 40.2855 370.994 40.9538 371.321 41.715C371.648 42.4763 371.782 43.3068 371.71 44.1324C371.638 44.958 371.363 45.7529 370.909 46.446C370.455 47.1391 369.836 47.7089 369.109 48.1043C368.381 48.4998 367.566 48.7087 366.738 48.7123C366.433 48.7165 366.128 48.6921 365.827 48.6393L363.594 55.5244C364.375 55.9013 365.045 56.4746 365.538 57.1881C366.032 57.9016 366.332 58.7309 366.409 59.5951C366.486 60.4593 366.338 61.3288 365.979 62.1186C365.62 62.9084 365.062 63.5915 364.36 64.1011C363.659 64.6107 362.837 64.9295 361.975 65.0262C361.113 65.123 360.241 64.9943 359.444 64.653C358.647 64.3116 357.952 63.7692 357.427 63.0786C356.902 62.3881 356.565 61.5731 356.449 60.7132H349.212C349.095 61.5731 348.757 62.388 348.231 63.078C347.706 63.7681 347.01 64.3099 346.212 64.6503C345.414 64.9908 344.542 65.1183 343.68 65.0204C342.818 64.9225 341.996 64.6025 341.295 64.0918C340.594 63.581 340.037 62.897 339.679 62.1065C339.322 61.316 339.175 60.4461 339.253 59.5818C339.332 58.7176 339.634 57.8885 340.128 57.1758C340.623 56.463 341.294 55.8908 342.076 55.5153L339.843 48.6393C339.543 48.6952 339.237 48.7226 338.932 48.7214C338.101 48.7199 337.284 48.5123 336.553 48.1171C335.822 47.7219 335.201 47.1515 334.745 46.457C334.289 45.7626 334.011 44.9657 333.939 44.1378C333.866 43.3099 333.999 42.4768 334.327 41.7132C334.655 40.9496 335.167 40.2793 335.817 39.7623C336.468 39.2453 337.236 38.8979 338.054 38.751C338.871 38.6042 339.712 38.6626 340.502 38.9209C341.291 39.1793 342.005 39.6295 342.577 40.2314L348.419 35.9818C348.008 35.2165 347.802 34.3575 347.821 33.4887C347.841 32.62 348.085 31.7711 348.531 31.0251C348.976 30.279 349.607 29.6613 350.362 29.2322C351.118 28.8032 351.971 28.5774 352.84 28.577V28.577ZM352.84 27.665C351.268 27.665 349.76 28.2893 348.647 29.4006C347.535 30.512 346.909 32.0196 346.906 33.5926C346.906 34.3062 347.035 35.014 347.289 35.6809L342.632 39.055C341.891 38.4637 341.019 38.0587 340.089 37.8739C339.16 37.6891 338.199 37.7298 337.288 37.9927C336.378 38.2556 335.543 38.733 334.855 39.385C334.166 40.0369 333.644 40.8444 333.332 41.7398C333.019 42.6353 332.926 43.5926 333.059 44.5316C333.192 45.4706 333.548 46.364 334.098 47.1369C334.647 47.9099 335.373 48.5399 336.216 48.9742C337.059 49.4086 337.993 49.6346 338.941 49.6333H339.205L341.028 55.1049C340.23 55.6331 339.572 56.3468 339.11 57.185C338.648 58.0231 338.396 58.9608 338.375 59.9178C338.354 60.8748 338.564 61.8226 338.989 62.6803C339.414 63.5379 340.04 64.2799 340.814 64.8427C341.588 65.4055 342.486 65.7725 343.433 65.9122C344.379 66.0518 345.345 65.9601 346.249 65.6448C347.152 65.3295 347.965 64.8 348.62 64.1016C349.274 63.4031 349.749 62.5566 350.005 61.6343H355.747C356.001 62.5599 356.476 63.41 357.13 64.1118C357.784 64.8136 358.599 65.3461 359.504 65.6638C360.41 65.9815 361.378 66.0748 362.328 65.9357C363.277 65.7967 364.178 65.4294 364.954 64.8654C365.73 64.3014 366.358 63.5575 366.784 62.6974C367.21 61.8374 367.421 60.8868 367.4 59.9272C367.378 58.9676 367.124 58.0275 366.66 57.1877C366.195 56.3478 365.534 55.6331 364.733 55.1049L366.556 49.6333H366.738C367.544 49.6781 368.35 49.5579 369.108 49.2802C369.865 49.0026 370.558 48.5732 371.144 48.0184C371.73 47.4636 372.197 46.795 372.516 46.0535C372.835 45.312 373 44.5131 373 43.7058C373 42.8985 372.835 42.0997 372.516 41.3582C372.197 40.6167 371.73 39.9481 371.144 39.3933C370.558 38.8384 369.865 38.4091 369.108 38.1314C368.35 37.8537 367.544 37.7336 366.738 37.7783C365.396 37.775 364.093 38.232 363.047 39.0732L358.399 35.6991C358.646 35.0305 358.772 34.3235 358.773 33.6108C358.774 32.8304 358.621 32.0575 358.324 31.3361C358.026 30.6148 357.589 29.9593 357.038 29.4071C356.487 28.8548 355.833 28.4167 355.112 28.1178C354.392 27.8189 353.619 27.665 352.84 27.665V27.665Z" fill="white"/>
<path id="Vector_3" d="M366.739 38.6709C366.057 38.6691 365.382 38.8065 364.755 39.0746C364.128 39.3428 363.563 39.736 363.093 40.2303L357.251 35.9807C357.665 35.2153 357.874 34.3554 357.856 33.4851C357.838 32.6149 357.595 31.7642 357.15 31.0164C356.705 30.2685 356.073 29.6493 355.317 29.2192C354.56 28.7891 353.705 28.563 352.835 28.563C351.966 28.563 351.111 28.7891 350.354 29.2192C349.598 29.6493 348.966 30.2685 348.521 31.0164C348.076 31.7642 347.832 32.6149 347.815 33.4851C347.797 34.3554 348.005 35.2153 348.42 35.9807L342.569 40.2303C341.996 39.6333 341.284 39.1875 340.497 38.9327C339.709 38.6779 338.871 38.622 338.058 38.77C337.244 38.918 336.479 39.2653 335.832 39.7809C335.184 40.2965 334.675 40.9643 334.348 41.7249C334.022 42.4855 333.888 43.3151 333.96 44.1398C334.032 44.9644 334.306 45.7585 334.759 46.4512C335.212 47.1439 335.83 47.7136 336.556 48.1095C337.283 48.5054 338.096 48.7153 338.923 48.7203C339.229 48.7216 339.534 48.6941 339.835 48.6382L342.067 55.5051C341.286 55.8806 340.614 56.4528 340.12 57.1655C339.625 57.8783 339.323 58.7074 339.245 59.5716C339.166 60.4359 339.313 61.3058 339.671 62.0963C340.029 62.8868 340.585 63.5708 341.287 64.0816C341.988 64.5923 342.809 64.9123 343.671 65.0102C344.533 65.1081 345.405 64.9806 346.203 64.6401C347.001 64.2997 347.697 63.7579 348.223 63.0678C348.749 62.3778 349.087 61.5629 349.204 60.703H356.44C356.556 61.5629 356.893 62.3779 357.418 63.0684C357.943 63.759 358.638 64.3014 359.435 64.6428C360.233 64.9841 361.105 65.1127 361.966 65.016C362.828 64.9193 363.65 64.6005 364.352 64.0909C365.054 63.5813 365.611 62.8982 365.97 62.1084C366.329 61.3186 366.477 60.4491 366.4 59.5849C366.323 58.7207 366.023 57.8914 365.53 57.1779C365.036 56.4644 364.366 55.8911 363.585 55.5142L365.827 48.6382C366.128 48.6941 366.433 48.7216 366.739 48.7203C367.422 48.7616 368.107 48.6625 368.751 48.4291C369.395 48.1957 369.985 47.8329 370.483 47.3632C370.982 46.8934 371.379 46.3265 371.651 45.6973C371.923 45.0682 372.063 44.3901 372.063 43.7047C372.063 43.0194 371.923 42.3413 371.651 41.7121C371.379 41.083 370.982 40.5161 370.483 40.0463C369.985 39.5765 369.395 39.2138 368.751 38.9804C368.107 38.747 367.422 38.6479 366.739 38.6891V38.6709ZM361.416 63.7124C360.695 63.7124 359.99 63.4985 359.391 63.0976C358.791 62.6968 358.324 62.1271 358.048 61.4606C357.772 60.7941 357.7 60.0606 357.841 59.3531C357.981 58.6455 358.328 57.9955 358.838 57.4854C359.348 56.9752 359.998 56.6278 360.705 56.4871C361.412 56.3463 362.145 56.4186 362.811 56.6946C363.477 56.9707 364.047 57.4383 364.447 58.0381C364.848 58.638 365.062 59.3432 365.062 60.0647C365.062 61.0321 364.678 61.9599 363.994 62.644C363.31 63.3281 362.383 63.7124 361.416 63.7124V63.7124ZM349.213 59.3625C349.063 58.2302 348.529 57.1838 347.7 56.3987L350.434 52.5778C351.167 52.9668 351.983 53.1703 352.813 53.1705C353.639 53.1734 354.454 52.9696 355.182 52.5778L357.916 56.3987C357.085 57.1829 356.547 58.2292 356.394 59.3625H349.213ZM340.564 60.0373C340.564 59.3159 340.777 58.6106 341.178 58.0108C341.579 57.4109 342.148 56.9434 342.814 56.6673C343.48 56.3912 344.213 56.319 344.92 56.4597C345.628 56.6005 346.277 56.9479 346.787 57.458C347.297 57.9681 347.644 58.6181 347.785 59.3257C347.925 60.0333 347.853 60.7667 347.577 61.4332C347.301 62.0998 346.834 62.6695 346.235 63.0703C345.635 63.4711 344.93 63.685 344.209 63.685C343.242 63.685 342.315 63.3007 341.631 62.6166C340.948 61.9326 340.564 61.0048 340.564 60.0373V60.0373ZM338.941 40.0205C339.662 40.0205 340.367 40.2345 340.967 40.6353C341.566 41.0361 342.033 41.6058 342.309 42.2723C342.585 42.9389 342.658 43.6723 342.517 44.3799C342.376 45.0875 342.029 45.7374 341.519 46.2476C341.009 46.7577 340.36 47.1051 339.653 47.2459C338.945 47.3866 338.212 47.3144 337.546 47.0383C336.88 46.7622 336.311 46.2947 335.91 45.6948C335.51 45.0949 335.296 44.3897 335.296 43.6683C335.296 42.7008 335.68 41.773 336.364 41.0889C337.047 40.4049 337.974 40.0205 338.941 40.0205V40.0205ZM349.158 33.6371C349.158 32.9156 349.372 32.2104 349.772 31.6105C350.173 31.0106 350.742 30.5431 351.408 30.267C352.075 29.9909 352.808 29.9187 353.515 30.0595C354.222 30.2002 354.871 30.5476 355.381 31.0577C355.891 31.5679 356.238 32.2178 356.379 32.9254C356.52 33.633 356.447 34.3665 356.172 35.033C355.896 35.6995 355.428 36.2692 354.829 36.67C354.229 37.0708 353.525 37.2848 352.804 37.2848C352.321 37.2848 351.843 37.189 351.398 37.0028C350.953 36.8167 350.549 36.5439 350.209 36.2003C349.87 35.8567 349.603 35.4492 349.422 35.0014C349.242 34.5536 349.152 34.0743 349.158 33.5915V33.6371ZM361.79 44.5802L357.37 45.9937C357.009 45.2393 356.468 44.5862 355.794 44.0928C355.119 43.5994 354.333 43.2812 353.505 43.1667V38.6071C354.634 38.4568 355.677 37.9222 356.458 37.0933L362.318 41.3428C361.922 42.0733 361.715 42.8917 361.717 43.723C361.719 44.0071 361.743 44.2907 361.79 44.5711V44.5802ZM356.513 48.164C356.513 48.8855 356.299 49.5907 355.898 50.1906C355.498 50.7905 354.929 51.258 354.262 51.5341C353.596 51.8102 352.863 51.8824 352.156 51.7417C351.449 51.6009 350.799 51.2535 350.29 50.7434C349.78 50.2332 349.432 49.5833 349.292 48.8757C349.151 48.1681 349.223 47.4347 349.499 46.7681C349.775 46.1016 350.242 45.5319 350.842 45.1311C351.441 44.7303 352.146 44.5163 352.867 44.5163C353.833 44.5163 354.758 44.8994 355.442 45.5815C356.125 46.2636 356.51 47.1891 356.513 48.1549V48.164ZM352.156 38.6071V43.1667C351.331 43.2794 350.546 43.596 349.873 44.0879C349.2 44.5798 348.66 45.2316 348.301 45.9845L343.872 44.5711C343.929 44.2705 343.956 43.9651 343.954 43.6591C343.946 42.8505 343.743 42.0557 343.362 41.3428L349.213 37.0841C349.99 37.9146 351.03 38.4523 352.156 38.6071V38.6071ZM343.462 45.9025L347.891 47.316C347.835 47.6166 347.807 47.922 347.809 48.2279C347.806 48.9111 347.943 49.5876 348.213 50.2152C348.483 50.8428 348.879 51.408 349.377 51.8756L346.643 55.7057C345.915 55.3099 345.101 55.103 344.273 55.1038C343.967 55.102 343.662 55.1295 343.362 55.1859L341.12 48.2188C342.142 47.7343 342.971 46.918 343.471 45.9025H343.462ZM361.416 55.0217C360.59 55.023 359.776 55.2265 359.047 55.6145L356.312 51.8026C356.808 51.3337 357.203 50.7682 357.473 50.1409C357.743 49.5136 357.881 48.8378 357.88 48.1549C357.882 47.849 357.855 47.5436 357.798 47.243L362.182 45.8478C362.678 46.8791 363.506 47.7139 364.533 48.2188L362.3 55.0947C362.008 55.0436 361.712 55.0192 361.416 55.0217V55.0217ZM363.093 43.6956C363.093 42.9742 363.307 42.2689 363.707 41.6691C364.108 41.0692 364.677 40.6017 365.343 40.3256C366.01 40.0495 366.743 39.9772 367.45 40.118C368.157 40.2587 368.807 40.6062 369.316 41.1163C369.826 41.6264 370.173 42.2764 370.314 42.984C370.455 43.6916 370.383 44.425 370.107 45.0915C369.831 45.7581 369.363 46.3278 368.764 46.7286C368.164 47.1294 367.46 47.3433 366.739 47.3433C365.772 47.3433 364.844 46.959 364.161 46.2749C363.477 45.5908 363.093 44.663 363.093 43.6956Z" fill="#AA643B"/>
</g>
</g>
</g>
<text id="VCN" fill="#AE562C" xml:space="preserve" style="white-space: pre" font-family="Oracle Sans" font-size="16" font-weight="600" letter-spacing="0em"><tspan x="37" y="64.816">VCN</tspan></text>
</g>
<g id="Subnet_New">
<text id="Subnet" fill="#AE562C" xml:space="preserve" style="white-space: pre" font-family="Oracle Sans" font-size="16" font-weight="600" letter-spacing="0em"><tspan x="72" y="107.816">Client</tspan></text>
<text id="Subnet_2" fill="#AE562C" xml:space="preserve" style="white-space: pre" font-family="Oracle Sans" font-size="16" font-weight="600" letter-spacing="0em"><tspan x="72" y="123.816">Subnet</tspan></text>
<g id="Icon Master_2">
<g id="OCI-SL_RT">
<g id="Group">
<g id="Group_2">
<path id="Vector_4" d="M324.476 105.519V79.0769H341.238V71.2884L352.476 66.4807L363.619 71.2884V81.4807C363.619 81.5769 363.619 84.0769 362.19 87.0576C360.952 89.7499 358.381 93.4038 352.857 95.423V105.423H324.476V105.519Z" fill="white"/>
<path id="Vector_5" d="M352.381 67.0577L363.048 71.5769V81.4808C363.048 81.5769 363.048 83.9808 361.714 86.8654C360.476 89.5577 358 93.1154 352.667 95.0385L352.476 95.1346H352.381V105.038H324.952V79.5577H341.714V71.5769L352.381 67.0577ZM352.381 66L352 66.1923L341.333 70.7115L340.762 71V71.6731V78.6923H324.952H324V79.6538V105.038V106H324.952H352.381H353.333V105.038V95.8077C358.667 93.6923 361.333 90.0385 362.571 87.25C364 84.1731 364 81.5769 364 81.4808V71.5769V71L363.429 70.7115L352.762 66.1923L352.381 66Z" fill="white"/>
</g>
<g id="Group_3">
<path id="Vector_6" d="M351.048 95.712H333.524V88.9813H343.048C342.762 88.5005 342.571 88.1159 342.381 87.7313H333.524V81.0005H340.667V79.7505H324.952V105.135H352.381V96.289L351.905 96.0966C351.619 95.9043 351.333 95.8082 351.048 95.712ZM326.19 80.9043H332.286V87.6351H326.19V80.9043ZM332.286 88.8851V95.6159H326.19V88.8851H332.286ZM326.19 96.962H332.286V103.693H326.19V96.962ZM351.048 103.693H333.524V96.962H351.048V103.693Z" fill="#AA643B"/>
<path id="Vector_7" d="M349.619 101.193H348.381V102.443H349.619V101.193Z" fill="#AA643B"/>
<path id="Vector_8" d="M344.381 102.442L345.524 101.289L346.667 102.442L347.524 101.481L346.381 100.327L347.524 99.1732L346.667 98.3079L345.524 99.4617L344.381 98.3079L343.428 99.1732L344.571 100.327L343.428 101.481L344.381 102.442Z" fill="#AA643B"/>
<path id="Vector_9" d="M341.619 101.193H340.381V102.443H341.619V101.193Z" fill="#AA643B"/>
<path id="Vector_10" d="M335.524 101.481L336.381 102.442L337.524 101.289L338.667 102.442L339.619 101.481L338.476 100.327L339.619 99.1732L338.667 98.3079L337.524 99.4617L336.381 98.3079L335.524 99.1732L336.667 100.327L335.524 101.481Z" fill="#AA643B"/>
<path id="Vector_11" d="M341.619 93.1157H340.381V94.3657H341.619V93.1157Z" fill="#AA643B"/>
<path id="Vector_12" d="M335.524 93.4043L336.381 94.3658L337.524 93.212L338.667 94.3658L339.619 93.4043L338.476 92.2504L339.619 91.0966L338.667 90.2312L337.524 91.385L336.381 90.2312L335.524 91.0966L336.667 92.2504L335.524 93.4043Z" fill="#AA643B"/>
<path id="Vector_13" d="M340.095 86.385H341.333V85.135C341.333 85.135 341.333 85.135 341.333 85.0388H340.095V86.385Z" fill="#AA643B"/>
<path id="Vector_14" d="M335.143 85.4235L336.095 86.2889L337.238 85.1351L338.381 86.2889L339.238 85.4235L338.095 84.2697L339.238 83.1158L338.381 82.1543L337.238 83.3081L336.095 82.1543L335.143 83.1158L336.286 84.2697L335.143 85.4235Z" fill="#AA643B"/>
<path id="Vector_15" d="M341.714 71.5771V81.4809C341.714 81.5771 341.81 83.9809 343.048 86.8656C344.286 89.5579 346.857 93.1156 352.191 95.0386L352.381 95.1348L352.571 95.0386C357.905 93.1156 360.476 89.5579 361.619 86.8656C362.952 83.9809 362.952 81.5771 362.952 81.4809V71.5771L352.381 67.0579L341.714 71.5771ZM361.81 81.4809C361.81 81.5771 361.619 90.2309 352.476 93.6925C348.667 92.2502 345.905 89.7502 344.286 86.3848C343.048 83.7886 343.048 81.4809 343.048 81.4809V72.4425L352.476 68.404L361.81 72.4425V81.4809Z" fill="#AA643B"/>
<path id="Vector_16" d="M351.238 82.8271H346.286V84.0771H351.238V82.8271Z" fill="#AA643B"/>
<path id="Vector_17" d="M351.238 76.385H346.286V77.635H351.238V76.385Z" fill="#AA643B"/>
<path id="Vector_18" d="M357.905 74.9426L355.143 77.6349L354.19 76.6734L353.238 77.5388L355.143 79.4619L358.762 75.808L357.905 74.9426Z" fill="#AA643B"/>
<path id="Vector_19" d="M346.286 80.904H351.047H351.238V79.5579H346.286V80.904Z" fill="#AA643B"/>
</g>
</g>
</g>
</g>
<rect x="64.5" y="86.5" width="308" height="152" stroke="#AA643B" stroke-dasharray="8 4"/>
</g>
<g id="Oracle Services Network">
<text id="Oracle Services Network_2" fill="#312D2A" xml:space="preserve" style="white-space: pre" font-family="Oracle Sans" font-size="16" font-weight="600" letter-spacing="0em"><tspan x="61" y="361.816">Oracle Services Network</tspan></text>
<rect id="Rectangle 692" x="332" y="340" width="44" height="2" fill="#F5F4F2"/>
<g id="Oracle Services Network_3">
<g id="Group 747">
<path id="Vector_20" d="M357.153 356.837L357.153 355.486L350.842 355.486L350.842 356.837L346.42 359.388L342.007 356.837L342.007 351.735L343.128 351.091L339.995 345.637L338.847 346.29L334.434 343.739L334.434 338.646L338.847 336.095L340.074 336.802L343.137 331.365L342.007 330.712L342.007 325.619L346.42 323.068L350.842 325.619L350.842 326.969L357.153 326.969L357.153 325.619L361.566 323.068L365.979 325.619L365.979 330.712L364.867 331.365L367.991 336.757L369.139 336.095L373.56 338.646L373.56 343.739L369.139 346.29L368.071 345.672L364.867 351.1L365.979 351.735L365.979 356.837L361.566 359.388L357.153 356.837Z" fill="white"/>
<path id="Vector_21" d="M361.566 323.571L365.546 325.875L365.546 330.499L364.258 331.241L367.788 337.419L369.103 336.66L373.075 338.955L373.075 343.553L369.103 345.848L367.876 345.133L364.231 351.311L365.511 352.044L365.511 356.634L361.53 358.928L357.559 356.634L357.559 355.045L350.401 355.045L350.401 356.581L346.42 358.875L342.448 356.581L342.448 351.991L343.702 351.25L340.171 345.071L338.865 345.83L334.875 343.491L334.875 338.893L338.847 336.598L340.242 337.401L343.772 331.223L342.448 330.499L342.448 325.875L346.42 323.571L350.401 325.875L350.401 327.41L357.594 327.41L357.594 325.875L361.566 323.571V323.571ZM361.566 322.556L361.124 322.812L357.153 325.107L356.711 325.363L356.711 326.528L351.283 326.528L351.283 325.363L350.842 325.107L346.861 322.812L346.42 322.556L345.979 322.812L342.007 325.107L341.566 325.363L341.566 330.967L342.007 331.223L342.537 331.532L339.889 336.192L339.271 335.839L338.83 335.583L338.388 335.839L334.434 338.134L333.993 338.39L333.993 343.995L334.434 344.251L338.406 346.545L338.847 346.801L339.289 346.545L339.827 346.236L342.528 350.932L342.007 351.232L341.566 351.488L341.566 357.093L342.007 357.348L345.979 359.643L346.42 359.899L346.861 359.643L350.842 357.348L351.283 357.093L351.283 355.927L356.711 355.927L356.711 357.093L357.153 357.348L361.124 359.643L361.566 359.899L362.007 359.643L365.988 357.348L366.429 357.093L366.429 351.488L365.988 351.232L365.476 350.941L368.229 346.272L368.697 346.545L369.138 346.801L369.58 346.545L373.552 344.251L373.993 343.995L373.993 338.39L373.552 338.134L369.58 335.839L369.138 335.583L368.697 335.839L368.15 336.157L365.502 331.523L366.023 331.223L366.464 330.967L366.464 325.363L366.023 325.107L362.007 322.812L361.566 322.556V322.556Z" fill="white"/>
<path id="Vector_22" d="M369.139 336.598L367.823 337.357L364.293 331.179L365.546 330.5L365.546 325.875L361.566 323.571L357.594 325.875L357.594 327.41L350.401 327.41L350.401 325.875L346.42 323.571L342.448 325.875L342.448 330.5L343.702 331.206L340.171 337.384L338.847 336.598L334.875 338.893L334.875 343.492L338.847 345.786L340.171 345.027L343.702 351.206L342.422 351.947L342.422 356.537L346.394 358.831L350.374 356.537L350.374 355.045L357.567 355.045L357.567 356.581L361.539 358.876L365.52 356.581L365.52 351.991L364.24 351.259L367.885 345.08L369.112 345.795L373.084 343.5L373.084 338.893L369.139 336.598ZM359.103 326.748L361.566 325.327L364.002 326.748L364.002 329.617L361.566 331.011L359.103 329.617L359.103 326.748ZM343.966 326.748L346.42 325.327L348.883 326.748L348.883 329.617L346.42 331.011L343.966 329.617L343.966 326.748ZM336.394 342.635L336.394 339.776L338.847 338.355L341.31 339.776L341.31 342.609L338.847 344.03L336.394 342.635ZM348.883 355.707L346.42 357.128L343.966 355.707L343.966 352.865L346.42 351.444L348.883 352.865L348.883 355.707ZM364.028 355.707L361.566 357.128L359.103 355.707L359.103 352.865L361.566 351.444L364.002 352.865L364.028 355.707ZM362.951 350.5L361.566 349.696L360.33 350.411L357.973 346.387L356.208 346.387L359.006 351.214L357.576 352.035L357.576 353.536L350.401 353.536L350.401 351.991L348.997 351.17L351.795 346.387L350.03 346.387L347.656 350.464L346.411 349.741L345.034 350.544L341.504 344.365L342.819 343.492L342.819 341.974L346.438 341.974C346.829 341.387 347.344 340.892 347.947 340.526C347.95 340.506 347.95 340.485 347.947 340.464L342.819 340.464L342.819 338.893L341.539 338.161L345.07 331.982L346.438 332.777L347.885 331.894L351.195 337.596C351.411 337.56 351.629 337.543 351.848 337.543L351.919 337.543C352.133 337.347 352.363 337.17 352.607 337.013L349.183 331.162L350.401 330.5L350.401 328.92L357.594 328.92L357.594 330.5L358.856 331.223L355.829 336.431C356.339 336.52 356.831 336.693 357.285 336.943L360.171 331.982L361.566 332.794L362.951 331.991L366.482 338.169L365.131 338.946L365.131 340.473L361.583 340.473C361.89 340.93 362.111 341.438 362.236 341.974L365.14 341.974L365.14 343.483L366.57 344.304L362.951 350.5ZM371.601 342.609L369.139 344.03L366.65 342.609L366.65 339.776L369.112 338.355L371.575 339.776L371.601 342.609Z" fill="#2D5967"/>
<path id="Vector_23" d="M360.639 345.204L360.851 344.806C361.277 344.013 361.383 343.086 361.149 342.217C360.914 341.347 360.356 340.6 359.589 340.129C359.247 339.913 358.871 339.758 358.477 339.67C358.399 339.654 358.325 339.621 358.261 339.574C358.197 339.527 358.144 339.466 358.106 339.396C357.824 338.815 357.383 338.326 356.835 337.984C356.287 337.642 355.654 337.461 355.008 337.463C354.542 337.471 354.082 337.573 353.656 337.763C353.23 337.952 352.846 338.226 352.528 338.566C352.476 338.623 352.411 338.666 352.339 338.692C352.266 338.718 352.189 338.727 352.113 338.716C351.627 338.671 351.137 338.753 350.692 338.955C350.262 339.139 349.883 339.424 349.588 339.787C349.292 340.15 349.09 340.579 348.997 341.038C348.984 341.111 348.955 341.18 348.912 341.241C348.869 341.302 348.814 341.353 348.75 341.391C348.192 341.681 347.716 342.109 347.369 342.634C347.021 343.159 346.813 343.764 346.764 344.392L346.702 345.204L360.639 345.204ZM350.489 341.329C350.532 341.113 350.627 340.91 350.765 340.738C350.904 340.566 351.081 340.43 351.283 340.34C351.493 340.246 351.724 340.206 351.954 340.226C352.26 340.258 352.57 340.219 352.858 340.11C353.146 340.001 353.405 339.826 353.613 339.599C353.827 339.366 354.094 339.188 354.392 339.083C354.69 338.977 355.009 338.945 355.322 338.992C355.635 339.038 355.931 339.16 356.186 339.347C356.44 339.535 356.645 339.782 356.782 340.067C356.919 340.339 357.115 340.577 357.357 340.764C357.598 340.95 357.878 341.08 358.176 341.144C358.404 341.197 358.622 341.286 358.821 341.408C359.192 341.644 359.478 341.992 359.637 342.402C359.795 342.812 359.819 343.262 359.703 343.686L348.512 343.686C348.717 343.275 349.048 342.941 349.456 342.732C349.723 342.592 349.955 342.392 350.134 342.149C350.313 341.906 350.434 341.626 350.489 341.329V341.329Z" fill="#2D5967"/>
</g>
</g>
<rect x="54" y="341" width="328" height="128" stroke="#9E9892" stroke-width="2" stroke-dasharray="8 4"/>
</g>
<g id="IAM">
<g id="Services/IAM">
<g id="Group 22">
<path id="Vector_24" d="M116.267 438.984C108.633 435.18 104.077 429.199 103.7 422.627V416.887H71.6706V384.172H118.714V405.342L130.327 410.382V422.64C129.95 429.266 125.367 435.234 117.759 439.038L117.02 439.414L116.267 438.984Z" fill="white"/>
<path id="Vector_25" d="M118.043 384.844V405.785L129.683 410.772V422.586C129.32 428.93 124.884 434.683 117.492 438.379L117.048 438.608L116.605 438.379C109.212 434.683 104.763 428.97 104.401 422.586V416.215H72.3441V384.844H118.043ZM119.387 383.5H71V417.559H103.03V422.478V422.559C103.433 429.427 108.137 435.597 115.973 439.522L116.417 439.737L117.022 440.046L117.613 439.737L118.056 439.522C125.892 435.597 130.61 429.427 131 422.599V409.884L130.194 409.535L119.387 404.898V383.5Z" fill="white"/>
<path id="Vector_26" d="M74.3337 386.834H116.027V404.159L117.022 403.729L118.016 404.159V384.844H72.3444V416.215H102.882V414.226H74.3337V386.834Z" fill="#2D5967"/>
<path id="Vector_27" d="M117.02 405.355L104.372 410.732V422.546C104.735 428.89 109.184 434.643 116.577 438.339L117.02 438.568L117.464 438.339C124.856 434.643 129.292 428.931 129.655 422.546V410.772L117.02 405.355ZM127.665 422.479C127.37 427.667 123.875 432.452 118.015 435.812V418.931H116.026V435.839C110.165 432.479 106.617 427.694 106.362 422.506V412.076L116.026 407.936V416.807H118.042V407.936L127.692 412.076L127.665 422.479Z" fill="#2D5967"/>
<path id="Vector_28" d="M99.2928 393.54L97.8815 394.938L101.591 398.648L108.715 391.524L107.317 390.113L101.591 395.839L99.2928 393.54Z" fill="#2D5967"/>
<path id="Vector_29" d="M106.915 407.102L104.307 404.508L106.915 401.9L105.517 400.489L102.909 403.096L100.302 400.489L98.8906 401.9L101.498 404.508L98.8906 407.102L100.302 408.513L102.909 405.906L105.517 408.513L106.915 407.102Z" fill="#2D5967"/>
<path id="Vector_30" d="M92.5041 409.845V405.49C92.5041 404.584 92.1445 403.716 91.5042 403.076C90.864 402.435 89.9956 402.076 89.0902 402.076H82.3697C81.4643 402.076 80.5959 402.435 79.9557 403.076C79.3154 403.716 78.9557 404.584 78.9557 405.49V409.845H80.8778V405.49C80.8778 405.301 80.915 405.114 80.9873 404.939C81.0595 404.765 81.1655 404.606 81.299 404.473C81.4326 404.339 81.5911 404.233 81.7656 404.161C81.9401 404.089 82.1271 404.052 82.316 404.052H89.0364C89.2246 404.052 89.411 404.089 89.5847 404.161C89.7585 404.234 89.9161 404.34 90.0486 404.474C90.1811 404.607 90.2858 404.766 90.3566 404.94C90.4274 405.115 90.4629 405.302 90.4611 405.49V409.845H92.5041Z" fill="#2D5967"/>
<path id="Vector_31" d="M85.705 400.462C86.6195 400.462 87.5134 400.191 88.2738 399.683C89.0341 399.175 89.6268 398.453 89.9767 397.608C90.3267 396.763 90.4182 395.833 90.2398 394.936C90.0614 394.04 89.6211 393.216 88.9744 392.569C88.3278 391.922 87.5039 391.482 86.607 391.304C85.7101 391.125 84.7805 391.217 83.9356 391.567C83.0908 391.917 82.3686 392.509 81.8606 393.27C81.3525 394.03 81.0814 394.924 81.0814 395.839C81.0814 397.065 81.5685 398.241 82.4356 399.108C83.3027 399.975 84.4787 400.462 85.705 400.462V400.462ZM85.705 393.204C86.2367 393.204 86.7564 393.362 87.1985 393.657C87.6406 393.953 87.9851 394.372 88.1886 394.864C88.392 395.355 88.4453 395.895 88.3415 396.417C88.2378 396.938 87.9818 397.417 87.6058 397.793C87.2299 398.169 86.7509 398.425 86.2295 398.529C85.708 398.633 85.1675 398.579 84.6763 398.376C84.1851 398.172 83.7653 397.828 83.4699 397.386C83.1745 396.944 83.0168 396.424 83.0168 395.892C83.0168 395.179 83.3001 394.496 83.8042 393.991C84.3083 393.487 84.9921 393.204 85.705 393.204Z" fill="#2D5967"/>
</g>
</g>
<g id="Icon Text Label">
<text id="IconLabel" fill="black" xml:space="preserve" style="white-space: pre" font-family="Oracle Sans" font-size="16" letter-spacing="0em"><tspan x="86.4219" y="457.816">IAM</tspan></text>
</g>
</g>
<g id="Gateway">
<rect id="Rectangle 699" x="217" y="247" width="2" height="76" fill="#F5F4F2"/>
<g id="Icon Master_3">
<g id="Service-Gateway">
<g id="Group 37">
<path id="Vector_32" d="M220.146 286.706C217.435 286.712 214.76 286.086 212.333 284.879C209.906 283.672 207.795 281.916 206.167 279.752C205.218 279.102 204.334 278.362 203.527 277.544V277.544C203.131 277.18 202.768 276.782 202.441 276.355C202.288 276.165 201.631 275.289 201.488 275.013C201.345 274.738 201.307 274.728 201.221 274.576L200.964 274.157C200.849 273.957 200.725 273.767 200.621 273.567C200.516 273.368 200.459 273.253 200.382 273.092L200.163 272.625C200.068 272.435 199.973 272.245 199.887 272.045C199.801 271.845 199.744 271.684 199.677 271.493L199.468 271.008C199.391 270.827 199.325 270.637 199.258 270.437C199.191 270.237 199.144 270 199.086 269.781L198.953 269.267C198.953 269.105 198.867 268.934 198.829 268.763C198.791 268.591 198.724 268.154 198.686 267.811L198.629 267.383C198.629 267.25 198.581 267.126 198.562 266.993C198.505 266.441 198.477 265.842 198.477 265.242C198.482 260.591 200.335 256.131 203.629 252.842C206.923 249.553 211.39 247.703 216.048 247.698C216.611 247.698 217.201 247.698 217.792 247.784L218.145 247.831H218.354C218.726 247.831 219.107 247.927 219.479 248.003L219.917 248.174L220.108 248.222C220.46 248.307 220.775 248.383 221.061 248.478L221.556 248.64L221.747 248.707L222.624 249.03C222.824 249.106 223.014 249.201 223.205 249.287H223.31L224.12 249.677L224.768 250.039C225.034 250.191 225.292 250.343 225.54 250.505L226.168 250.933L226.864 251.456C227.171 251.682 227.461 251.93 227.731 252.198C228.559 252.938 229.315 253.753 229.99 254.634C233.103 256.739 235.459 259.785 236.71 263.325C237.961 266.866 238.041 270.713 236.94 274.303C235.838 277.892 233.612 281.034 230.589 283.267C227.567 285.499 223.906 286.705 220.146 286.706V286.706Z" fill="white"/>
<path id="Vector_33" d="M216.048 248.173C216.615 248.173 217.181 248.201 217.745 248.259L218.288 248.335C218.659 248.382 219.021 248.43 219.384 248.506C219.603 248.506 219.812 248.611 220.032 248.658L220.984 248.896L221.632 249.125C221.928 249.229 222.214 249.324 222.5 249.438L223.157 249.733L223.948 250.114C224.167 250.228 224.377 250.352 224.587 250.476C224.796 250.599 225.092 250.77 225.33 250.923C225.568 251.075 225.74 251.199 225.94 251.341C226.14 251.484 226.397 251.674 226.626 251.855L227.445 252.55C228.276 253.293 229.032 254.115 229.704 255.004C231.765 256.389 233.498 258.206 234.784 260.329C236.07 262.451 236.876 264.828 237.147 267.294C237.418 269.76 237.148 272.255 236.354 274.605C235.561 276.956 234.263 279.105 232.553 280.904C230.842 282.702 228.759 284.107 226.449 285.019C224.138 285.932 221.657 286.33 219.177 286.187C216.696 286.043 214.277 285.362 212.088 284.19C209.899 283.017 207.992 281.382 206.5 279.399C205.552 278.759 204.671 278.026 203.87 277.21V277.21C203.87 277.21 203.012 276.259 202.822 276.05C202.631 275.84 202.021 274.994 201.869 274.737C201.716 274.48 201.612 274.318 201.488 274.109C201.364 273.899 201.164 273.595 201.021 273.338C200.878 273.081 200.792 272.872 200.687 272.644C200.582 272.415 200.42 272.12 200.306 271.844C200.192 271.569 200.116 271.331 200.02 271.074C199.925 270.817 199.82 270.56 199.734 270.294C199.649 270.027 199.582 269.694 199.506 269.399C199.429 269.104 199.372 268.914 199.315 268.667C199.258 268.419 199.201 267.944 199.153 267.582C199.153 267.382 199.077 267.182 199.058 266.983C198.988 266.412 198.953 265.831 198.953 265.242C198.968 260.719 200.774 256.387 203.977 253.189C207.179 249.991 211.519 248.188 216.048 248.173V248.173ZM216.048 247.222C211.266 247.237 206.684 249.14 203.303 252.516C199.921 255.892 198.015 260.467 198 265.242C197.999 265.855 198.03 266.468 198.095 267.078C198.095 267.221 198.095 267.363 198.153 267.496C198.21 267.63 198.153 267.639 198.153 267.715V267.915C198.153 268.22 198.229 268.533 198.295 268.866C198.362 269.199 198.381 269.219 198.429 269.399C198.477 269.58 198.429 269.561 198.496 269.637L198.553 269.884C198.61 270.122 198.667 270.351 198.743 270.579C198.82 270.807 198.877 270.979 198.953 271.178L199.039 271.407L199.124 271.645C199.188 271.842 199.261 272.035 199.344 272.225C199.429 272.434 199.534 272.644 199.63 272.843L199.744 273.062L199.849 273.291C199.922 273.463 200.004 273.632 200.096 273.795C200.211 274.004 200.335 274.204 200.459 274.413L200.582 274.613L200.706 274.813C200.802 274.975 200.887 275.127 200.992 275.279C201.097 275.431 201.85 276.459 202.021 276.659C202.365 277.107 202.744 277.527 203.155 277.914C203.953 278.726 204.827 279.459 205.766 280.103C207.363 282.136 209.38 283.803 211.679 284.989C213.979 286.176 216.507 286.854 219.092 286.979C221.677 287.103 224.259 286.671 226.662 285.711C229.065 284.751 231.233 283.286 233.019 281.415C234.804 279.545 236.166 277.313 237.011 274.87C237.856 272.428 238.165 269.832 237.917 267.26C237.668 264.688 236.868 262.199 235.571 259.963C234.274 257.727 232.51 255.796 230.399 254.3C229.716 253.41 228.95 252.585 228.112 251.836V251.836C227.842 251.574 227.556 251.33 227.255 251.103L226.53 250.561L225.882 250.124C225.635 249.962 225.368 249.81 225.111 249.657C224.853 249.505 224.663 249.391 224.434 249.277L223.595 248.868L223.481 248.82L222.9 248.563C222.604 248.439 222.3 248.335 222.004 248.23L221.766 248.173L221.251 247.992C220.937 247.897 220.622 247.821 220.298 247.745H220.232L220.041 247.678L219.574 247.574C219.183 247.498 218.793 247.441 218.412 247.393H218.231L217.83 247.307C217.23 247.222 216.63 247.222 216.048 247.222Z" fill="white"/>
<path id="Vector_34" d="M202.365 272.854C201.059 270.53 200.376 267.908 200.383 265.243C200.385 262.576 201.069 259.953 202.371 257.624C203.674 255.296 205.55 253.338 207.823 251.937C210.096 250.535 212.69 249.737 215.359 249.618C218.028 249.5 220.683 250.063 223.072 251.257C224.613 251.497 226.115 251.939 227.541 252.57C224.267 249.437 219.88 247.731 215.347 247.828C210.813 247.924 206.503 249.815 203.365 253.084C200.228 256.352 198.519 260.732 198.616 265.259C198.712 269.785 200.606 274.088 203.88 277.221C203.185 275.838 202.675 274.37 202.365 272.854V272.854Z" fill="#2D5967"/>
<path id="Vector_35" d="M220.146 252.083C216.767 252.093 213.467 253.101 210.661 254.981C207.856 256.862 205.671 259.529 204.382 262.648C203.093 265.767 202.758 269.196 203.42 272.505C204.082 275.813 205.71 278.852 208.099 281.237C210.488 283.623 213.532 285.248 216.845 285.909C220.159 286.569 223.594 286.235 226.718 284.949C229.841 283.662 232.513 281.48 234.396 278.679C236.279 275.878 237.289 272.583 237.299 269.209C237.299 264.667 235.492 260.311 232.275 257.099C229.058 253.888 224.695 252.083 220.146 252.083V252.083ZM220.146 284.803C217.045 284.803 214.014 283.885 211.436 282.165C208.858 280.444 206.849 277.999 205.663 275.139C204.477 272.279 204.167 269.131 204.773 266.095C205.378 263.059 206.872 260.27 209.065 258.082C211.259 255.893 214.053 254.403 217.094 253.801C220.135 253.198 223.287 253.509 226.152 254.695C229.016 255.881 231.463 257.889 233.185 260.464C234.906 263.039 235.824 266.066 235.822 269.161C235.817 273.31 234.163 277.287 231.224 280.219C228.285 283.152 224.301 284.8 220.146 284.803V284.803Z" fill="#2D5967"/>
<path id="Vector_36" d="M224.033 278.02L223.033 277.011L220.86 279.181V259.315L223.033 261.484L224.033 260.476L220.145 256.594L216.257 260.476L217.267 261.484L219.44 259.315V279.181L217.267 277.011L216.257 278.02L220.145 281.902L224.033 278.02Z" fill="#2D5967"/>
<path id="Vector_37" d="M215.485 273.042L219.373 269.161L215.485 265.279L214.475 266.278L216.648 268.447H207.5V269.865H216.648L214.475 272.034L215.485 273.042Z" fill="#2D5967"/>
<path id="Vector_38" d="M232.791 268.447H223.653L225.816 266.278L224.815 265.279L220.918 269.161L224.815 273.042L225.816 272.034L223.653 269.865H232.791V268.447Z" fill="#2D5967"/>
</g>
</g>
<g id="Icon Text Label_2">
<text id="IconLabel_2" fill="black" xml:space="preserve" style="white-space: pre" font-family="Oracle Sans" font-size="16" letter-spacing="0em"><tspan x="191.789" y="304.816">Service</tspan></text>
<text id="IconLabel_3" fill="black" xml:space="preserve" style="white-space: pre" font-family="Oracle Sans" font-size="16" letter-spacing="0em"><tspan x="187.117" y="320.816">Gateway</tspan></text>
</g>
</g>
</g>
<g id="Gateway_2">
<rect id="Rectangle 699_2" x="28" y="150" width="2" height="60" fill="#F5F4F2"/>
<g id="Icon Master_4">
<g id="Dynamic-Routing-Gateway-DRG">
<path id="Vector_39" d="M29 189.524C39.7827 189.524 48.5238 180.783 48.5238 170C48.5238 159.217 39.7827 150.476 29 150.476C18.2173 150.476 9.4762 159.217 9.4762 170C9.4762 180.783 18.2173 189.524 29 189.524Z" fill="white"/>
<path id="Vector_40" d="M29 150.952C32.7673 150.952 36.4499 152.07 39.5823 154.162C42.7147 156.255 45.156 159.23 46.5977 162.711C48.0394 166.191 48.4166 170.021 47.6816 173.716C46.9467 177.411 45.1326 180.805 42.4687 183.469C39.8048 186.133 36.4109 187.947 32.716 188.682C29.0211 189.417 25.1913 189.039 21.7108 187.598C18.2303 186.156 15.2555 183.715 13.1625 180.582C11.0695 177.45 9.95239 173.767 9.95239 170C9.95239 164.948 11.9592 160.103 15.5313 156.531C19.1034 152.959 23.9483 150.952 29 150.952V150.952ZM29 150C25.0444 150 21.1776 151.173 17.8886 153.371C14.5996 155.568 12.0362 158.692 10.5224 162.346C9.00867 166.001 8.6126 170.022 9.3843 173.902C10.156 177.781 12.0608 181.345 14.8579 184.142C17.6549 186.939 21.2186 188.844 25.0982 189.616C28.9778 190.387 32.9992 189.991 36.6537 188.478C40.3082 186.964 43.4318 184.4 45.6294 181.111C47.827 177.822 49 173.956 49 170C49 164.696 46.8929 159.609 43.1421 155.858C39.3914 152.107 34.3043 150 29 150V150Z" fill="white"/>
<path id="Vector_41" d="M29 150.952C25.2328 150.952 21.5501 152.07 18.4177 154.162C15.2854 156.255 12.844 159.23 11.4023 162.711C9.96065 166.191 9.58344 170.021 10.3184 173.716C11.0534 177.411 12.8675 180.805 15.5313 183.469C18.1952 186.133 21.5891 187.947 25.284 188.682C28.9789 189.417 32.8087 189.039 36.2892 187.598C39.7697 186.156 42.7446 183.715 44.8375 180.582C46.9305 177.45 48.0476 173.767 48.0476 170C48.0476 167.499 47.555 165.022 46.5977 162.711C45.6405 160.4 44.2375 158.3 42.4687 156.531C40.7 154.763 38.6002 153.36 36.2892 152.402C33.9783 151.445 31.5014 150.952 29 150.952V150.952ZM29 187.457C25.5473 187.457 22.1722 186.433 19.3014 184.515C16.4305 182.597 14.193 179.87 12.8717 176.681C11.5504 173.491 11.2047 169.981 11.8783 166.594C12.5519 163.208 14.2145 160.097 16.656 157.656C19.0974 155.215 22.2079 153.552 25.5943 152.878C28.9807 152.205 32.4907 152.55 35.6806 153.872C38.8705 155.193 41.5969 157.431 43.5151 160.301C45.4333 163.172 46.4572 166.547 46.4572 170C46.4521 174.628 44.6113 179.066 41.3385 182.339C38.0658 185.611 33.6284 187.452 29 187.457V187.457Z" fill="#2D5967"/>
<path id="Vector_42" d="M29.7906 181.181V159.019L32.2097 161.438L33.3335 160.314L29.0001 155.981L24.6668 160.314L25.7906 161.438L28.2097 159.019V181.181L25.7906 178.762L24.6668 179.886L29.0001 184.219L33.3335 179.886L32.2097 178.762L29.7906 181.181Z" fill="#2D5967"/>
<path id="Vector_43" d="M23.8094 165.667L22.6856 166.791L25.1046 169.21H14.9141V170.791H25.1046L22.6856 173.21L23.8094 174.333L28.1332 170L23.8094 165.667Z" fill="#2D5967"/>
<path id="Vector_44" d="M32.8952 169.21L35.3143 166.791L34.1904 165.667L29.8666 170L34.1904 174.333L35.3143 173.21L32.8952 170.791H43.0857V169.21H32.8952Z" fill="#2D5967"/>
</g>
<g id="Icon Text Label_3">
<text id="IconLabel_4" fill="black" xml:space="preserve" style="white-space: pre" font-family="Oracle Sans" font-size="16" letter-spacing="0em"><tspan x="12.8359" y="207.816">DRG</tspan></text>
</g>
</g>
</g>
<g id="Icon Master_5">
<g id="Zero-Data-Loss-Recovery-Appliance">
<g id="Group_4">
<g id="Group_5">
<path id="Vector_45" d="M200.881 439.286V436.714L203.738 435.286V380.714H233.452V435.286L236.31 436.714V439.286H200.881Z" fill="white"/>
<path id="Vector_46" d="M232.738 381.429V435.714L235.595 437.143V438.571H232.738H204.452H201.595V437.143L204.452 435.714V381.429H232.738ZM234.167 380H232.738H204.452H203.024V381.429V434.857L200.881 435.857L200.167 436.286V437.143V438.571V440H201.595H204.452H232.595H235.452H236.881V438.571V437.143V436.286L236.024 435.857L233.881 434.857V381.429V380H234.167Z" fill="white"/>
</g>
<g id="Group_6">
<path id="Vector_47" d="M232.738 435.714V381.429H204.452V435.714L201.595 437.143V438.571H204.452H232.595H235.452V437.143L232.738 435.714ZM207.452 435.714V384.286H229.881V435.714H207.452Z" fill="#2C5967"/>
<path id="Vector_48" d="M227.738 386.429H209.595V389.286H227.738V386.429Z" fill="#2C5967"/>
<path id="Vector_49" d="M225.452 391.571H211.738V394.143H209.595V397H211.738V399.571H225.452V397H227.595V394.143H225.452V391.571ZM222.595 396.571H214.595V394.429H222.595V396.571Z" fill="#2C5967"/>
<path id="Vector_50" d="M212.452 401.714H209.595V404.571H212.452V401.714Z" fill="#2C5967"/>
<path id="Vector_51" d="M217.452 401.714H214.595V404.571H217.452V401.714Z" fill="#2C5967"/>
<path id="Vector_52" d="M222.595 401.714H219.738V404.571H222.595V401.714Z" fill="#2C5967"/>
<path id="Vector_53" d="M227.595 401.714H224.738V404.571H227.595V401.714Z" fill="#2C5967"/>
<path id="Vector_54" d="M212.452 406.714H209.595V409.571H212.452V406.714Z" fill="#2C5967"/>
<path id="Vector_55" d="M217.452 406.714H214.595V409.571H217.452V406.714Z" fill="#2C5967"/>
<path id="Vector_56" d="M222.595 406.714H219.738V409.571H222.595V406.714Z" fill="#2C5967"/>
<path id="Vector_57" d="M227.595 406.714H224.738V409.571H227.595V406.714Z" fill="#2C5967"/>
</g>
<g id="Group_7">
<path id="Vector_58" d="M213.738 431V414.714H218.31C220.167 414.714 221.595 415.143 222.595 416C223.452 416.857 224.024 418.143 224.024 419.714C224.024 420.714 223.738 421.714 223.31 422.429C222.881 423.143 222.167 423.714 221.167 424.143L224.595 431H220.881L218.167 424.714L217.024 424.429V431H213.738ZM217.024 422.429H218.167C219.738 422.429 220.595 421.571 220.595 419.857C220.595 418.143 219.738 417.286 218.167 417.286H217.024V422.429Z" fill="#2C5967"/>
</g>
</g>
</g>
<g id="Icon Text Label_4">
<text id="IconLabel_5" fill="black" xml:space="preserve" style="white-space: pre" font-family="Oracle Sans" font-size="16" letter-spacing="0em"><tspan x="157.195" y="457.816">Recovery Service</tspan></text>
</g>
</g>
<g id="DNS">
<g id="Domain-Name-System-DNS">
<g id="Group_8">
<g id="Group_9">
<g id="Group_10">
<path id="Vector_59" d="M333.315 439.283C318.079 439.283 305.674 426.878 305.674 411.642C305.674 396.406 318.079 384.002 333.315 384.002C346.663 384.002 358.124 393.44 360.551 406.653C362.708 407.328 364.326 409.35 364.326 411.777C364.326 414.204 362.843 416.092 360.551 416.901C358.124 429.844 346.798 439.283 333.315 439.283Z" fill="white"/>
<path id="Vector_60" d="M333.315 384.676C346.663 384.676 357.719 394.384 359.876 407.058C361.899 407.597 363.517 409.35 363.517 411.642C363.517 413.799 361.899 415.687 359.876 416.226C357.854 428.901 346.663 438.608 333.315 438.608C318.483 438.608 306.348 426.474 306.348 411.642C306.348 396.811 318.483 384.676 333.315 384.676ZM333.315 383.328C317.674 383.328 305 396.002 305 411.642C305 427.283 317.674 439.957 333.315 439.957C346.933 439.957 358.528 430.384 361.09 417.17C363.382 416.226 364.865 414.069 364.865 411.642C364.865 409.215 363.247 406.923 361.09 406.114C358.528 392.901 346.933 383.328 333.315 383.328Z" fill="white"/>
</g>
<g id="Group_11">
<path id="Vector_61" d="M363.652 411.642C363.652 409.485 362.034 407.597 360.011 407.058C357.854 394.384 346.663 384.676 333.315 384.676C318.483 384.676 306.348 396.811 306.348 411.642C306.348 426.474 318.483 438.608 333.315 438.608C346.663 438.608 357.719 428.9 359.876 416.226C362.034 415.687 363.652 413.799 363.652 411.642ZM358.933 414.069C357.584 414.069 356.506 412.99 356.506 411.642C356.506 410.294 357.584 409.215 358.933 409.215C360.281 409.215 361.36 410.294 361.36 411.642C361.36 412.99 360.281 414.069 358.933 414.069ZM357.719 407.193C356.101 407.597 354.888 408.945 354.483 410.563H344.101C344.101 408.271 343.831 406.114 343.427 403.957C345.584 403.013 347.202 400.856 347.202 398.294C347.202 394.923 344.371 392.092 341 392.092C340.326 392.092 339.787 392.226 339.247 392.361C338.303 390.608 337.225 388.856 335.876 387.238C346.798 388.181 355.697 396.541 357.719 407.193ZM325.764 419.867C329.135 419.058 331.697 416.226 332.101 412.856H341.809C341.539 421.215 338.573 429.305 333.315 435.777C329.539 431.058 326.978 425.665 325.764 419.867ZM317.539 411.642C317.539 408.271 320.371 405.44 323.742 405.44C327.112 405.44 329.944 408.271 329.944 411.642C329.944 415.013 327.112 417.844 323.742 417.844C320.371 417.844 317.539 415.013 317.539 411.642ZM332.101 410.563C331.697 407.058 329 404.226 325.629 403.552C326.843 397.754 329.539 392.361 333.18 387.642C334.663 389.395 335.876 391.417 336.955 393.305C335.472 394.384 334.528 396.271 334.528 398.159C334.528 401.53 337.36 404.361 340.73 404.361H340.865C341.27 406.384 341.539 408.406 341.539 410.563H332.101ZM341 394.249C343.157 394.249 344.91 396.002 344.91 398.159C344.91 400.316 343.157 402.069 341 402.069C338.843 402.069 337.09 400.316 337.09 398.159C337.09 396.002 338.708 394.249 341 394.249ZM330.888 387.103C327.247 391.957 324.685 397.35 323.472 403.283C319.292 403.417 315.921 406.518 315.382 410.563H308.64C309.18 398.294 318.753 388.316 330.888 387.103ZM308.64 412.721H315.382C315.921 416.766 319.292 419.867 323.472 420.002C324.685 425.799 327.247 431.327 330.888 436.181C318.753 434.968 309.18 424.99 308.64 412.721ZM335.876 436.181C341 429.44 343.831 421.215 344.101 412.721H354.483C354.888 414.339 356.101 415.552 357.719 416.092C355.697 426.743 346.798 435.103 335.876 436.181Z" fill="#2D5967"/>
</g>
</g>
</g>
</g>
<g id="Icon Text Label_5">
<text id="IconLabel_6" fill="black" xml:space="preserve" style="white-space: pre" font-family="Oracle Sans" font-size="16" letter-spacing="0em"><tspan x="319" y="457.816">DNS</tspan></text>
</g>
</g>
<g id="Database-Cloud DBaaS">
<g id="Database-Cloud-Service-DBaaS">
<g id="Group 13">
<path id="Vector_62" d="M217 189.317H214.519C211.779 189.222 209.051 188.906 206.362 188.373C205.544 188.204 204.738 187.983 203.948 187.712C203.247 187.493 202.573 187.195 201.939 186.823C201.368 186.567 200.876 186.161 200.517 185.648C200.159 185.135 199.946 184.535 199.903 183.91V163.915H187.768L187.917 161.865C188.09 159.462 188.876 157.143 190.2 155.129C191.524 153.116 193.342 151.475 195.481 150.364C195.945 150.124 196.35 149.782 196.665 149.365C196.98 148.947 197.198 148.464 197.301 147.951C197.636 146.241 198.38 144.638 199.469 143.278C200.559 141.919 201.961 140.843 203.557 140.144C204.931 139.545 206.413 139.233 207.912 139.227C208.249 139.207 208.587 139.207 208.923 139.227H209.26C209.717 139.23 210.169 139.14 210.588 138.961C211.008 138.783 211.387 138.52 211.701 138.189C213.159 136.621 214.976 135.43 216.994 134.716C219.013 134.003 221.175 133.788 223.295 134.092C225.414 134.395 227.429 135.207 229.167 136.458C230.905 137.709 232.314 139.362 233.274 141.276C233.509 141.754 233.85 142.172 234.27 142.499C234.691 142.826 235.18 143.054 235.701 143.164C237.749 143.618 239.664 144.541 241.296 145.859C242.928 147.178 244.232 148.857 245.106 150.764C245.98 152.671 246.4 154.755 246.333 156.852C246.266 158.949 245.715 161.002 244.721 162.849L244.182 163.847H234.096V183.802C234.092 184.277 233.976 184.743 233.758 185.165C233.54 185.586 233.227 185.951 232.842 186.229C232.585 186.431 232.315 186.615 232.033 186.782C229.175 188.467 223.768 189.02 220.788 189.196C219.548 189.276 218.227 189.317 217 189.317Z" fill="white"/>
<path id="Vector_63" d="M221.382 134.683C223.725 134.673 226.024 135.321 228.017 136.554C230.01 137.786 231.616 139.553 232.654 141.654C232.939 142.218 233.346 142.711 233.845 143.098C234.344 143.485 234.923 143.756 235.539 143.892C236.971 144.222 238.338 144.787 239.584 145.564C242.352 147.304 244.359 150.028 245.199 153.188C246.04 156.347 245.652 159.708 244.115 162.593L243.764 163.241H233.422V183.87C233.408 184.23 233.311 184.582 233.141 184.9C232.97 185.217 232.73 185.492 232.438 185.703C232.213 185.888 231.974 186.055 231.724 186.202C229.324 187.551 224.82 188.279 220.775 188.535C219.427 188.616 218.146 188.643 217 188.643H214.546C211.829 188.554 209.123 188.242 206.456 187.712C205.667 187.548 204.888 187.337 204.124 187.079C203.469 186.861 202.837 186.581 202.236 186.243C201.769 186.043 201.364 185.721 201.065 185.31C200.766 184.9 200.584 184.416 200.537 183.91V163.241H188.402L188.497 161.892C188.667 159.606 189.417 157.4 190.677 155.485C191.937 153.569 193.665 152.006 195.697 150.944C196.258 150.665 196.75 150.263 197.135 149.768C197.52 149.273 197.789 148.698 197.921 148.085C198.377 145.781 199.618 143.705 201.432 142.213C203.247 140.72 205.523 139.903 207.872 139.901C208.182 139.901 208.506 139.901 208.816 139.901H209.22C209.762 139.918 210.302 139.822 210.806 139.62C211.309 139.418 211.765 139.115 212.146 138.728C213.326 137.457 214.755 136.442 216.344 135.747C217.933 135.051 219.648 134.689 221.382 134.683V134.683ZM221.382 133.335C219.463 133.336 217.565 133.733 215.807 134.501C214.048 135.269 212.467 136.391 211.162 137.798C210.91 138.058 210.608 138.265 210.275 138.407C209.941 138.548 209.583 138.621 209.22 138.62H208.951C208.591 138.6 208.231 138.6 207.872 138.62C206.28 138.623 204.706 138.954 203.247 139.591C201.55 140.335 200.059 141.479 198.902 142.926C197.744 144.372 196.954 146.078 196.6 147.897C196.501 148.3 196.314 148.678 196.053 149.001C195.792 149.325 195.463 149.588 195.09 149.771C192.861 150.943 190.967 152.664 189.588 154.77C188.208 156.877 187.387 159.3 187.202 161.811L187.108 163.16L187 164.589H199.229V183.87C199.265 184.614 199.505 185.334 199.924 185.95C200.343 186.566 200.923 187.055 201.602 187.362C202.274 187.751 202.983 188.072 203.719 188.319C204.461 188.562 205.297 188.791 206.213 188.993C208.943 189.533 211.711 189.849 214.492 189.937C215.342 189.937 216.191 189.937 217 189.937C218.24 189.937 219.575 189.937 220.87 189.816C224.564 189.6 229.58 188.98 232.398 187.308C232.715 187.126 233.018 186.919 233.301 186.688C233.748 186.352 234.113 185.919 234.367 185.421C234.622 184.924 234.76 184.375 234.771 183.816V164.589H244.573L244.951 163.874L245.301 163.227C246.343 161.29 246.922 159.138 246.993 156.939C247.064 154.741 246.625 152.556 245.711 150.555C244.797 148.555 243.432 146.793 241.724 145.408C240.015 144.022 238.009 143.051 235.863 142.571C235.442 142.481 235.046 142.297 234.705 142.033C234.364 141.77 234.087 141.433 233.894 141.047C232.739 138.72 230.954 136.763 228.742 135.4C226.53 134.037 223.98 133.321 221.382 133.335V133.335Z" fill="white"/>
<path id="Vector_64" d="M239.583 145.563C238.337 144.786 236.97 144.221 235.538 143.891C234.921 143.756 234.343 143.484 233.844 143.097C233.345 142.71 232.938 142.217 232.653 141.653C231.615 139.553 230.008 137.785 228.016 136.553C226.023 135.321 223.724 134.672 221.381 134.682C219.646 134.688 217.932 135.05 216.343 135.746C214.754 136.442 213.325 137.457 212.145 138.727C211.72 139.172 211.199 139.513 210.622 139.726C210.044 139.938 209.426 140.017 208.815 139.954C206.321 139.724 203.831 140.423 201.82 141.916C199.81 143.409 198.421 145.591 197.92 148.044C197.797 148.657 197.538 149.234 197.163 149.733C196.787 150.233 196.304 150.642 195.749 150.93C193.712 151.995 191.981 153.564 190.721 155.488C189.46 157.411 188.713 159.625 188.549 161.918L188.455 163.267H199.242V160.786H191.152C191.466 159.163 192.144 157.632 193.134 156.308C194.124 154.984 195.401 153.902 196.869 153.141C197.748 152.684 198.512 152.034 199.105 151.241C199.698 150.447 200.104 149.529 200.293 148.557C200.657 146.683 201.707 145.012 203.239 143.872C204.77 142.732 206.672 142.205 208.572 142.395C209.565 142.501 210.569 142.374 211.505 142.026C212.441 141.677 213.283 141.116 213.965 140.386C215.082 139.188 216.472 138.278 218.016 137.735C219.561 137.191 221.214 137.03 222.835 137.264C224.455 137.499 225.995 138.122 227.322 139.082C228.649 140.041 229.724 141.307 230.455 142.772C230.905 143.664 231.547 144.445 232.335 145.058C233.123 145.671 234.038 146.102 235.012 146.318C236.185 146.569 237.303 147.026 238.316 147.667C240.446 149.009 242.021 151.075 242.749 153.486C243.477 155.896 243.311 158.488 242.28 160.786H234.77V163.24H243.763L244.114 162.593C245.651 159.707 246.039 156.346 245.198 153.187C244.358 150.027 242.351 147.303 239.583 145.563V145.563Z" fill="#2D5967"/>
<path id="Vector_65" d="M233.422 157.079C233.429 157.039 233.429 156.998 233.422 156.957C233.429 156.904 233.429 156.849 233.422 156.796C233.407 156.428 233.31 156.068 233.14 155.742C232.97 155.416 232.73 155.131 232.438 154.908C232.21 154.723 231.971 154.552 231.723 154.396C229.323 152.953 224.82 152.265 220.775 152.009C219.427 151.928 218.146 151.888 217 151.888C216.231 151.888 215.409 151.888 214.546 151.888C211.827 151.972 209.12 152.293 206.456 152.845C205.665 153.007 204.885 153.223 204.123 153.492C203.47 153.719 202.839 154.004 202.236 154.342C201.766 154.556 201.361 154.891 201.063 155.313C200.765 155.734 200.583 156.227 200.537 156.742C200.53 156.795 200.53 156.85 200.537 156.903C200.53 156.944 200.53 156.985 200.537 157.025V183.87C200.584 184.376 200.766 184.859 201.065 185.27C201.364 185.681 201.769 186.003 202.236 186.202C202.837 186.541 203.469 186.821 204.123 187.038C204.888 187.296 205.666 187.508 206.456 187.672C209.123 188.202 211.828 188.513 214.546 188.602H217C218.146 188.602 219.44 188.602 220.775 188.494C224.82 188.238 229.323 187.578 231.723 186.162C231.974 186.014 232.213 185.848 232.438 185.663C232.73 185.452 232.97 185.177 233.141 184.859C233.311 184.541 233.407 184.189 233.422 183.829V157.079ZM217 154.126C225.589 154.126 230.739 155.852 231.184 156.823C230.739 157.78 225.589 159.519 217 159.519C208.411 159.519 203.26 157.793 202.816 156.823C203.26 155.852 208.411 154.126 217 154.126ZM202.802 159.519C206.173 161.178 212.618 161.649 217 161.649C221.382 161.649 227.786 161.124 231.198 159.425V165.937C230.874 166.53 226.856 168.526 217 168.526C207.144 168.526 203.18 166.584 202.802 165.991V159.519ZM231.198 168.674V174.93C230.874 175.537 226.856 177.533 217 177.533C207.144 177.533 203.18 175.497 202.802 174.89V168.634C206.173 170.292 212.658 170.805 217 170.805C221.341 170.805 227.827 170.292 231.198 168.634V168.674ZM217 186.418C207.144 186.418 203.126 184.423 202.802 183.829V177.546C206.173 179.178 212.618 179.717 217 179.717C221.382 179.717 227.786 179.205 231.198 177.546V183.829C230.874 184.423 226.856 186.418 217 186.418Z" fill="#2D5967"/>
</g>
</g>
<g id="Icon Text Label_6">
<text id="IconLabel_7" fill="black" xml:space="preserve" style="white-space: pre" font-family="Oracle Sans" font-size="16" letter-spacing="0em"><tspan x="174.68" y="207.816">Oracle Base</tspan></text>
<text id="IconLabel_8" fill="black" xml:space="preserve" style="white-space: pre" font-family="Oracle Sans" font-size="16" letter-spacing="0em"><tspan x="155.07" y="223.816">Database Service</tspan></text>
</g>
</g>
</g>
</g>
<defs>
<clipPath id="clip0_9423_208451">
<rect width="392" height="479" fill="white"/>
</clipPath>
</defs>
</svg>
