<svg width="536" height="649" viewBox="0 0 536 649" fill="none" xmlns="http://www.w3.org/2000/svg">
<g>
<rect width="536" height="649" fill="white"/>
<rect x="0.5" y="135.5" width="535" height="336" stroke="#AA643B" stroke-dasharray="6 4"/>
<path d="M197.909 157V145.368H202.069C203.499 145.368 204.576 145.699 205.301 146.36C206.037 147.021 206.405 148.003 206.405 149.304C206.405 150.595 206.037 151.576 205.301 152.248C204.576 152.909 203.499 153.24 202.069 153.24H200.389V157H197.909ZM201.557 147.4H200.389V151.208H201.557C202.411 151.208 203.013 151.064 203.365 150.776C203.728 150.477 203.909 149.987 203.909 149.304C203.909 148.611 203.728 148.12 203.365 147.832C203.013 147.544 202.411 147.4 201.557 147.4ZM213.016 157L212.696 155.816C212.408 156.243 212.03 156.579 211.56 156.824C211.102 157.069 210.59 157.192 210.024 157.192C209.15 157.192 208.456 156.952 207.944 156.472C207.443 155.992 207.192 155.331 207.192 154.488C207.192 153.603 207.528 152.904 208.2 152.392C208.872 151.88 209.779 151.624 210.92 151.624H212.312V151.32C212.312 150.851 212.195 150.547 211.96 150.408C211.726 150.269 211.358 150.2 210.856 150.2C209.96 150.2 208.995 150.403 207.96 150.808V148.968C208.387 148.787 208.883 148.637 209.448 148.52C210.024 148.403 210.606 148.344 211.192 148.344C212.302 148.344 213.144 148.6 213.72 149.112C214.307 149.613 214.6 150.339 214.6 151.288V157H213.016ZM210.648 155.416C211 155.416 211.326 155.325 211.624 155.144C211.923 154.963 212.168 154.717 212.36 154.408V153.032H211.224C210.67 153.032 210.238 153.139 209.928 153.352C209.63 153.565 209.48 153.869 209.48 154.264C209.48 155.032 209.87 155.416 210.648 155.416ZM222.946 154.84V156.744C222.616 156.872 222.226 156.979 221.778 157.064C221.33 157.149 220.872 157.192 220.402 157.192C217.597 157.192 216.194 155.688 216.194 152.68C216.194 151.336 216.578 150.28 217.346 149.512C218.125 148.733 219.192 148.344 220.546 148.344C221.282 148.344 222.002 148.467 222.706 148.712V150.584C222.184 150.317 221.608 150.184 220.978 150.184C220.232 150.184 219.656 150.392 219.25 150.808C218.845 151.213 218.642 151.837 218.642 152.68C218.642 153.491 218.818 154.136 219.17 154.616C219.533 155.085 220.061 155.32 220.754 155.32C221.096 155.32 221.448 155.277 221.81 155.192C222.173 155.107 222.552 154.989 222.946 154.84ZM231.557 156.6C230.735 156.995 229.754 157.192 228.613 157.192C227.162 157.192 226.047 156.813 225.269 156.056C224.49 155.288 224.101 154.184 224.101 152.744C224.101 151.368 224.474 150.291 225.221 149.512C225.978 148.733 227.018 148.344 228.341 148.344C229.514 148.344 230.41 148.685 231.029 149.368C231.647 150.051 231.957 150.995 231.957 152.2V153.432H226.517C226.613 154.093 226.847 154.573 227.221 154.872C227.605 155.171 228.154 155.32 228.869 155.32C229.317 155.32 229.743 155.283 230.149 155.208C230.565 155.123 231.034 154.979 231.557 154.776V156.6ZM228.309 150.104C227.167 150.104 226.554 150.685 226.469 151.848H229.797C229.775 151.304 229.631 150.877 229.365 150.568C229.098 150.259 228.746 150.104 228.309 150.104ZM233.595 157V148.536H235.179L235.515 149.784C236.23 148.824 237.158 148.344 238.299 148.344C239.462 148.344 240.267 148.797 240.715 149.704C241.046 149.277 241.451 148.947 241.931 148.712C242.422 148.467 242.944 148.344 243.499 148.344C244.427 148.344 245.136 148.643 245.627 149.24C246.118 149.827 246.363 150.68 246.363 151.8V157H243.931V151.88C243.931 150.845 243.531 150.328 242.731 150.328C242.368 150.328 242.054 150.44 241.787 150.664C241.52 150.888 241.318 151.203 241.179 151.608V157H238.779V151.88C238.779 150.845 238.384 150.328 237.595 150.328C237.232 150.328 236.912 150.44 236.635 150.664C236.368 150.888 236.166 151.203 236.027 151.608V157H233.595ZM253.704 157L253.384 155.816C253.096 156.243 252.717 156.579 252.248 156.824C251.789 157.069 251.277 157.192 250.712 157.192C249.837 157.192 249.144 156.952 248.632 156.472C248.131 155.992 247.88 155.331 247.88 154.488C247.88 153.603 248.216 152.904 248.888 152.392C249.56 151.88 250.467 151.624 251.608 151.624H253V151.32C253 150.851 252.883 150.547 252.648 150.408C252.413 150.269 252.045 150.2 251.544 150.2C250.648 150.2 249.683 150.403 248.648 150.808V148.968C249.075 148.787 249.571 148.637 250.136 148.52C250.712 148.403 251.293 148.344 251.88 148.344C252.989 148.344 253.832 148.6 254.408 149.112C254.995 149.613 255.288 150.339 255.288 151.288V157H253.704ZM251.336 155.416C251.688 155.416 252.013 155.325 252.312 155.144C252.611 154.963 252.856 154.717 253.048 154.408V153.032H251.912C251.357 153.032 250.925 153.139 250.616 153.352C250.317 153.565 250.168 153.869 250.168 154.264C250.168 155.032 250.557 155.416 251.336 155.416ZM257.314 157V144.984H259.746V151.88L262.642 148.536H265.298L262.258 152.04L265.442 157H262.722L260.402 153.288H259.746V157H257.314ZM273.26 156.6C272.438 156.995 271.457 157.192 270.316 157.192C268.865 157.192 267.75 156.813 266.972 156.056C266.193 155.288 265.804 154.184 265.804 152.744C265.804 151.368 266.177 150.291 266.924 149.512C267.681 148.733 268.721 148.344 270.044 148.344C271.217 148.344 272.113 148.685 272.732 149.368C273.35 150.051 273.66 150.995 273.66 152.2V153.432H268.22C268.316 154.093 268.55 154.573 268.924 154.872C269.308 155.171 269.857 155.32 270.572 155.32C271.02 155.32 271.446 155.283 271.852 155.208C272.268 155.123 272.737 154.979 273.26 154.776V156.6ZM270.012 150.104C268.87 150.104 268.257 150.685 268.172 151.848H271.5C271.478 151.304 271.334 150.877 271.068 150.568C270.801 150.259 270.449 150.104 270.012 150.104ZM277.73 157H275.298V148.536H276.882L277.218 149.784C277.496 149.379 277.842 149.064 278.258 148.84C278.674 148.605 279.154 148.488 279.698 148.488C279.933 148.488 280.136 148.504 280.306 148.536V150.728H279.794C279.25 150.728 278.797 150.872 278.434 151.16C278.072 151.437 277.837 151.811 277.73 152.28V157ZM294.407 154.456V156.536C293.991 156.728 293.505 156.888 292.951 157.016C292.407 157.155 291.804 157.224 291.143 157.224C289.276 157.224 287.863 156.696 286.903 155.64C285.943 154.573 285.463 153.043 285.463 151.048C285.463 149.821 285.697 148.771 286.167 147.896C286.636 147.011 287.303 146.333 288.167 145.864C289.031 145.384 290.06 145.144 291.255 145.144C291.82 145.144 292.343 145.203 292.823 145.32C293.303 145.437 293.724 145.587 294.087 145.768V147.88C293.521 147.667 293.031 147.517 292.615 147.432C292.209 147.347 291.815 147.304 291.431 147.304C290.332 147.304 289.489 147.629 288.903 148.28C288.316 148.931 288.023 149.853 288.023 151.048C288.023 152.339 288.311 153.336 288.887 154.04C289.463 154.733 290.311 155.08 291.431 155.08C291.879 155.08 292.332 155.032 292.791 154.936C293.26 154.829 293.799 154.669 294.407 154.456ZM296.223 157V146.696L295.343 145.96V144.984H298.655V157H296.223ZM300.687 153.736V148.536H303.119V153.656C303.119 154.691 303.524 155.208 304.335 155.208C304.698 155.208 305.028 155.096 305.327 154.872C305.636 154.637 305.876 154.323 306.047 153.928V148.536H308.479V157H306.895L306.559 155.704C305.78 156.696 304.794 157.192 303.599 157.192C302.66 157.192 301.94 156.893 301.439 156.296C300.938 155.699 300.687 154.845 300.687 153.736ZM310.243 156.632V154.712C310.787 154.915 311.283 155.064 311.731 155.16C312.179 155.245 312.643 155.288 313.123 155.288C314.04 155.288 314.499 155.053 314.499 154.584C314.499 154.403 314.408 154.253 314.227 154.136C314.056 154.019 313.768 153.901 313.363 153.784L312.179 153.448C311.464 153.235 310.926 152.936 310.563 152.552C310.2 152.168 310.019 151.667 310.019 151.048C310.019 150.205 310.339 149.544 310.979 149.064C311.619 148.584 312.499 148.344 313.619 148.344C314.099 148.344 314.584 148.387 315.075 148.472C315.566 148.557 315.987 148.675 316.339 148.824V150.712C315.464 150.381 314.574 150.216 313.667 150.216C312.814 150.216 312.387 150.435 312.387 150.872C312.387 151.021 312.472 151.155 312.643 151.272C312.814 151.389 313.096 151.507 313.491 151.624L314.675 151.96C315.486 152.195 316.051 152.493 316.371 152.856C316.702 153.219 316.867 153.747 316.867 154.44C316.867 155.347 316.552 156.035 315.923 156.504C315.294 156.963 314.376 157.192 313.171 157.192C312.627 157.192 312.083 157.139 311.539 157.032C310.995 156.936 310.563 156.803 310.243 156.632ZM318.933 154.088V150.36H317.445V149.144L319.045 148.488L319.765 146.104H321.365V148.536H323.173V150.36H321.365V153.96C321.365 154.376 321.467 154.675 321.669 154.856C321.883 155.027 322.187 155.112 322.581 155.112C322.688 155.112 322.805 155.112 322.933 155.112C323.061 155.101 323.173 155.091 323.269 155.08V157.016C323.013 157.059 322.779 157.085 322.565 157.096C322.363 157.107 322.133 157.112 321.877 157.112C320.907 157.112 320.171 156.867 319.669 156.376C319.179 155.885 318.933 155.123 318.933 154.088ZM331.682 156.6C330.86 156.995 329.879 157.192 328.738 157.192C327.287 157.192 326.172 156.813 325.394 156.056C324.615 155.288 324.226 154.184 324.226 152.744C324.226 151.368 324.599 150.291 325.346 149.512C326.103 148.733 327.143 148.344 328.466 148.344C329.639 148.344 330.535 148.685 331.154 149.368C331.772 150.051 332.082 150.995 332.082 152.2V153.432H326.642C326.738 154.093 326.972 154.573 327.346 154.872C327.73 155.171 328.279 155.32 328.994 155.32C329.442 155.32 329.868 155.283 330.274 155.208C330.69 155.123 331.159 154.979 331.682 154.776V156.6ZM328.434 150.104C327.292 150.104 326.679 150.685 326.594 151.848H329.922C329.9 151.304 329.756 150.877 329.49 150.568C329.223 150.259 328.871 150.104 328.434 150.104ZM336.152 157H333.72V148.536H335.304L335.64 149.784C335.917 149.379 336.264 149.064 336.68 148.84C337.096 148.605 337.576 148.488 338.12 148.488C338.355 148.488 338.557 148.504 338.728 148.536V150.728H338.216C337.672 150.728 337.219 150.872 336.856 151.16C336.493 151.437 336.259 151.811 336.152 152.28V157Z" fill="#AE562C"/>
<rect x="8.5" y="0.5" width="519" height="263" stroke="#AA643B" stroke-dasharray="6 4"/>
<path d="M213.305 19.456V21.536C212.889 21.728 212.404 21.888 211.849 22.016C211.305 22.1547 210.702 22.224 210.041 22.224C208.174 22.224 206.761 21.696 205.801 20.64C204.841 19.5733 204.361 18.0427 204.361 16.048C204.361 14.8213 204.596 13.7707 205.065 12.896C205.534 12.0107 206.201 11.3333 207.065 10.864C207.929 10.384 208.958 10.144 210.153 10.144C210.718 10.144 211.241 10.2027 211.721 10.32C212.201 10.4373 212.622 10.5867 212.985 10.768V12.88C212.42 12.6667 211.929 12.5173 211.513 12.432C211.108 12.3467 210.713 12.304 210.329 12.304C209.23 12.304 208.388 12.6293 207.801 13.28C207.214 13.9307 206.921 14.8533 206.921 16.048C206.921 17.3387 207.209 18.336 207.785 19.04C208.361 19.7333 209.209 20.08 210.329 20.08C210.777 20.08 211.23 20.032 211.689 19.936C212.158 19.8293 212.697 19.6693 213.305 19.456ZM218.629 22.192C217.306 22.192 216.272 21.8027 215.525 21.024C214.789 20.2453 214.421 19.1573 214.421 17.76C214.421 16.3627 214.789 15.28 215.525 14.512C216.272 13.7333 217.306 13.344 218.629 13.344C219.962 13.344 220.997 13.7333 221.733 14.512C222.469 15.28 222.837 16.3627 222.837 17.76C222.837 19.1573 222.469 20.2453 221.733 21.024C220.997 21.8027 219.962 22.192 218.629 22.192ZM218.629 20.352C219.802 20.352 220.389 19.488 220.389 17.76C220.389 16.0427 219.802 15.184 218.629 15.184C217.456 15.184 216.869 16.0427 216.869 17.76C216.869 19.488 217.456 20.352 218.629 20.352ZM226.941 22H224.509V13.536H226.093L226.429 14.784C226.706 14.3787 227.053 14.064 227.469 13.84C227.885 13.6053 228.365 13.488 228.909 13.488C229.144 13.488 229.346 13.504 229.517 13.536V15.728H229.005C228.461 15.728 228.008 15.872 227.645 16.16C227.282 16.4373 227.048 16.8107 226.941 17.28V22ZM234.598 22.192C233.275 22.192 232.24 21.8027 231.494 21.024C230.758 20.2453 230.39 19.1573 230.39 17.76C230.39 16.3627 230.758 15.28 231.494 14.512C232.24 13.7333 233.275 13.344 234.598 13.344C235.931 13.344 236.966 13.7333 237.702 14.512C238.438 15.28 238.806 16.3627 238.806 17.76C238.806 19.1573 238.438 20.2453 237.702 21.024C236.966 21.8027 235.931 22.192 234.598 22.192ZM234.598 20.352C235.771 20.352 236.358 19.488 236.358 17.76C236.358 16.0427 235.771 15.184 234.598 15.184C233.424 15.184 232.838 16.0427 232.838 17.76C232.838 19.488 233.424 20.352 234.598 20.352ZM240.126 21.632V19.712C240.67 19.9147 241.166 20.064 241.614 20.16C242.062 20.2453 242.526 20.288 243.006 20.288C243.923 20.288 244.382 20.0533 244.382 19.584C244.382 19.4027 244.291 19.2533 244.11 19.136C243.939 19.0187 243.651 18.9013 243.246 18.784L242.062 18.448C241.347 18.2347 240.809 17.936 240.446 17.552C240.083 17.168 239.902 16.6667 239.902 16.048C239.902 15.2053 240.222 14.544 240.862 14.064C241.502 13.584 242.382 13.344 243.502 13.344C243.982 13.344 244.467 13.3867 244.958 13.472C245.449 13.5573 245.87 13.6747 246.222 13.824V15.712C245.347 15.3813 244.457 15.216 243.55 15.216C242.697 15.216 242.27 15.4347 242.27 15.872C242.27 16.0213 242.355 16.1547 242.526 16.272C242.697 16.3893 242.979 16.5067 243.374 16.624L244.558 16.96C245.369 17.1947 245.934 17.4933 246.254 17.856C246.585 18.2187 246.75 18.7467 246.75 19.44C246.75 20.3467 246.435 21.0347 245.806 21.504C245.177 21.9627 244.259 22.192 243.054 22.192C242.51 22.192 241.966 22.1387 241.422 22.032C240.878 21.936 240.446 21.8027 240.126 21.632ZM250.024 21.824L247.192 13.536H249.688L251.848 20.288L253.496 13.536H255.896L253.784 21.328C253.538 22.2133 253.224 22.944 252.84 23.52C252.466 24.096 251.992 24.544 251.416 24.864C250.84 25.184 250.12 25.4187 249.256 25.568L248.76 23.584C249.581 23.392 250.173 23.1627 250.536 22.896C250.898 22.64 251.149 22.2827 251.288 21.824H250.024ZM257.134 22V13.536H258.718L259.054 14.832C259.833 13.84 260.841 13.344 262.078 13.344C263.049 13.344 263.79 13.6427 264.302 14.24C264.814 14.8267 265.07 15.68 265.07 16.8V22H262.638V16.88C262.638 15.8453 262.206 15.328 261.342 15.328C260.958 15.328 260.606 15.44 260.286 15.664C259.977 15.888 259.737 16.2027 259.566 16.608V22H257.134ZM273.423 19.84V21.744C273.092 21.872 272.703 21.9787 272.255 22.064C271.807 22.1493 271.348 22.192 270.879 22.192C268.074 22.192 266.671 20.688 266.671 17.68C266.671 16.336 267.055 15.28 267.823 14.512C268.602 13.7333 269.668 13.344 271.023 13.344C271.759 13.344 272.479 13.4667 273.183 13.712V15.584C272.66 15.3173 272.084 15.184 271.455 15.184C270.708 15.184 270.132 15.392 269.727 15.808C269.322 16.2133 269.119 16.8373 269.119 17.68C269.119 18.4907 269.295 19.136 269.647 19.616C270.01 20.0853 270.538 20.32 271.231 20.32C271.572 20.32 271.924 20.2773 272.287 20.192C272.65 20.1067 273.028 19.9893 273.423 19.84ZM287.555 19.456V21.536C287.139 21.728 286.654 21.888 286.099 22.016C285.555 22.1547 284.952 22.224 284.291 22.224C282.424 22.224 281.011 21.696 280.051 20.64C279.091 19.5733 278.611 18.0427 278.611 16.048C278.611 14.8213 278.846 13.7707 279.315 12.896C279.784 12.0107 280.451 11.3333 281.315 10.864C282.179 10.384 283.208 10.144 284.403 10.144C284.968 10.144 285.491 10.2027 285.971 10.32C286.451 10.4373 286.872 10.5867 287.235 10.768V12.88C286.67 12.6667 286.179 12.5173 285.763 12.432C285.358 12.3467 284.963 12.304 284.579 12.304C283.48 12.304 282.638 12.6293 282.051 13.28C281.464 13.9307 281.171 14.8533 281.171 16.048C281.171 17.3387 281.459 18.336 282.035 19.04C282.611 19.7333 283.459 20.08 284.579 20.08C285.027 20.08 285.48 20.032 285.939 19.936C286.408 19.8293 286.947 19.6693 287.555 19.456ZM289.371 22V11.696L288.491 10.96V9.984H291.803V22H289.371ZM293.835 18.736V13.536H296.267V18.656C296.267 19.6907 296.673 20.208 297.483 20.208C297.846 20.208 298.177 20.096 298.475 19.872C298.785 19.6373 299.025 19.3227 299.195 18.928V13.536H301.627V22H300.043L299.707 20.704C298.929 21.696 297.942 22.192 296.747 22.192C295.809 22.192 295.089 21.8933 294.587 21.296C294.086 20.6987 293.835 19.8453 293.835 18.736ZM303.392 21.632V19.712C303.936 19.9147 304.432 20.064 304.88 20.16C305.328 20.2453 305.792 20.288 306.272 20.288C307.189 20.288 307.648 20.0533 307.648 19.584C307.648 19.4027 307.557 19.2533 307.376 19.136C307.205 19.0187 306.917 18.9013 306.512 18.784L305.328 18.448C304.613 18.2347 304.074 17.936 303.712 17.552C303.349 17.168 303.168 16.6667 303.168 16.048C303.168 15.2053 303.488 14.544 304.128 14.064C304.768 13.584 305.648 13.344 306.768 13.344C307.248 13.344 307.733 13.3867 308.224 13.472C308.714 13.5573 309.136 13.6747 309.488 13.824V15.712C308.613 15.3813 307.722 15.216 306.816 15.216C305.962 15.216 305.536 15.4347 305.536 15.872C305.536 16.0213 305.621 16.1547 305.792 16.272C305.962 16.3893 306.245 16.5067 306.64 16.624L307.824 16.96C308.634 17.1947 309.2 17.4933 309.52 17.856C309.85 18.2187 310.016 18.7467 310.016 19.44C310.016 20.3467 309.701 21.0347 309.072 21.504C308.442 21.9627 307.525 22.192 306.32 22.192C305.776 22.192 305.232 22.1387 304.688 22.032C304.144 21.936 303.712 21.8027 303.392 21.632ZM312.082 19.088V15.36H310.594V14.144L312.194 13.488L312.914 11.104H314.514V13.536H316.322V15.36H314.514V18.96C314.514 19.376 314.615 19.6747 314.818 19.856C315.031 20.0267 315.335 20.112 315.73 20.112C315.836 20.112 315.954 20.112 316.082 20.112C316.21 20.1013 316.322 20.0907 316.418 20.08V22.016C316.162 22.0587 315.927 22.0853 315.714 22.096C315.511 22.1067 315.282 22.112 315.026 22.112C314.055 22.112 313.319 21.8667 312.818 21.376C312.327 20.8853 312.082 20.1227 312.082 19.088ZM324.83 21.6C324.009 21.9947 323.027 22.192 321.886 22.192C320.435 22.192 319.321 21.8133 318.542 21.056C317.763 20.288 317.374 19.184 317.374 17.744C317.374 16.368 317.747 15.2907 318.494 14.512C319.251 13.7333 320.291 13.344 321.614 13.344C322.787 13.344 323.683 13.6853 324.302 14.368C324.921 15.0507 325.23 15.9947 325.23 17.2V18.432H319.79C319.886 19.0933 320.121 19.5733 320.494 19.872C320.878 20.1707 321.427 20.32 322.142 20.32C322.59 20.32 323.017 20.2827 323.422 20.208C323.838 20.1227 324.307 19.9787 324.83 19.776V21.6ZM321.582 15.104C320.441 15.104 319.827 15.6853 319.742 16.848H323.07C323.049 16.304 322.905 15.8773 322.638 15.568C322.371 15.2587 322.019 15.104 321.582 15.104ZM329.301 22H326.868V13.536H328.453L328.789 14.784C329.066 14.3787 329.413 14.064 329.829 13.84C330.245 13.6053 330.725 13.488 331.269 13.488C331.503 13.488 331.706 13.504 331.877 13.536V15.728H331.365C330.821 15.728 330.367 15.872 330.005 16.16C329.642 16.4373 329.407 16.8107 329.301 17.28V22Z" fill="#AE562C"/>
<path d="M249.684 100.318V98.0002L252.638 96.5138H253.333V41.682H282.674V96.5138H283.382L286.322 98.0002V100.318H249.684Z" fill="white"/>
<path d="M281.992 42.3636V97.1955H283.217L285.64 98.4227V99.6364H250.363V98.4227L252.801 97.1955H254.012V42.3636H281.992ZM283.353 41H252.651V95.8318H252.474L252.188 95.9818L249.751 97.1955L249.002 97.5773V101H287.002V97.5773L286.253 97.1955L283.83 95.9818L283.53 95.8318H283.353V41Z" fill="white"/>
<path d="M258.275 93.5412H277.731V91.1139H258.275V93.5412ZM258.275 89.273H277.731V86.8457H258.275V89.273ZM260.712 78.923H275.307V82.5776H260.712V78.923ZM258.275 85.0185H277.731V76.4548H258.275V85.0185ZM260.712 68.5594H275.307V72.2139H260.712V68.5594ZM258.275 74.6548H277.731V66.1321H258.275V74.6548ZM258.275 64.2912H277.731V61.8639H258.275V64.2912ZM263.135 55.1548H272.87V57.5957H263.135V55.1548ZM260.712 52.7276V55.1548H258.275V57.5957H260.712V60.0912H275.307V57.5957H277.744V55.1548H275.307V52.7276H260.712ZM258.275 50.9003H277.731V48.4594H258.275V50.9003ZM256.45 44.8048H279.596V97.1957H256.45V44.8048ZM254.013 42.3639V97.1957H252.801L250.364 98.423V99.6367H285.641V98.423L283.218 97.1957H281.992V42.3639H254.013Z" fill="#2D5967"/>
<path d="M245.288 119V107.368H246.776V112.376H252.904V107.368H254.392V119H252.904V113.656H246.776V119H245.288ZM260.335 119.176C259.077 119.176 258.101 118.792 257.407 118.024C256.714 117.245 256.367 116.179 256.367 114.824C256.367 113.459 256.714 112.392 257.407 111.624C258.101 110.856 259.077 110.472 260.335 110.472C261.605 110.472 262.586 110.856 263.279 111.624C263.973 112.392 264.319 113.459 264.319 114.824C264.319 116.179 263.973 117.245 263.279 118.024C262.586 118.792 261.605 119.176 260.335 119.176ZM260.335 117.992C261.157 117.992 261.781 117.725 262.207 117.192C262.634 116.648 262.847 115.859 262.847 114.824C262.847 113.789 262.634 113.005 262.207 112.472C261.781 111.928 261.157 111.656 260.335 111.656C259.525 111.656 258.906 111.928 258.479 112.472C258.053 113.005 257.839 113.789 257.839 114.824C257.839 115.859 258.053 116.648 258.479 117.192C258.906 117.725 259.525 117.992 260.335 117.992ZM265.744 118.584V117.368C266.246 117.581 266.699 117.736 267.104 117.832C267.52 117.928 267.958 117.976 268.416 117.976C269.803 117.976 270.496 117.56 270.496 116.728C270.496 116.397 270.395 116.141 270.192 115.96C269.99 115.768 269.632 115.603 269.12 115.464L267.808 115.112C267.04 114.899 266.48 114.611 266.128 114.248C265.776 113.875 265.6 113.4 265.6 112.824C265.6 112.099 265.883 111.528 266.448 111.112C267.024 110.685 267.798 110.472 268.768 110.472C269.302 110.472 269.787 110.515 270.224 110.6C270.662 110.685 271.04 110.803 271.36 110.952V112.168C270.539 111.837 269.707 111.672 268.864 111.672C267.648 111.672 267.04 112.024 267.04 112.728C267.04 113.027 267.131 113.267 267.312 113.448C267.504 113.619 267.835 113.768 268.304 113.896L269.632 114.248C270.443 114.461 271.03 114.76 271.392 115.144C271.755 115.517 271.936 116.024 271.936 116.664C271.936 117.443 271.632 118.056 271.024 118.504C270.416 118.952 269.574 119.176 268.496 119.176C267.984 119.176 267.483 119.123 266.992 119.016C266.502 118.909 266.086 118.765 265.744 118.584ZM274.074 116.456V111.832H272.634V111.096L274.074 110.616L274.65 108.344H275.514V110.648H277.322V111.832H275.514V116.44C275.514 117.357 275.908 117.816 276.698 117.816C276.826 117.816 276.948 117.811 277.066 117.8C277.194 117.779 277.311 117.763 277.418 117.752V119C277.268 119.032 277.114 119.053 276.954 119.064C276.804 119.075 276.644 119.08 276.474 119.08C275.652 119.08 275.044 118.867 274.65 118.44C274.266 118.013 274.074 117.352 274.074 116.456ZM291.466 117.16V118.44C291.039 118.675 290.532 118.861 289.946 119C289.37 119.128 288.783 119.192 288.186 119.192C286.458 119.192 285.119 118.664 284.17 117.608C283.231 116.541 282.762 115.027 282.762 113.064C282.762 111.837 282.98 110.787 283.418 109.912C283.866 109.037 284.5 108.365 285.322 107.896C286.143 107.416 287.119 107.176 288.25 107.176C288.751 107.176 289.258 107.24 289.77 107.368C290.292 107.496 290.719 107.672 291.05 107.896V109.176C290.495 108.931 290.01 108.755 289.594 108.648C289.178 108.541 288.762 108.488 288.346 108.488C287.066 108.488 286.068 108.888 285.354 109.688C284.639 110.477 284.282 111.603 284.282 113.064C284.282 114.611 284.634 115.8 285.338 116.632C286.052 117.464 287.055 117.88 288.346 117.88C289.306 117.88 290.346 117.64 291.466 117.16Z" fill="black"/>
<path d="M99.6839 228.318V226L102.638 224.514H103.333V169.682H132.674V224.514H133.382L136.322 226V228.318H99.6839Z" fill="white"/>
<path d="M131.992 170.364V225.195H133.217L135.64 226.423V227.636H100.363V226.423L102.801 225.195H104.012V170.364H131.992ZM133.353 169H102.651V223.832H102.474L102.188 223.982L99.7508 225.195L99.002 225.577V229H137.002V225.577L136.253 225.195L133.83 223.982L133.53 223.832H133.353V169Z" fill="white"/>
<path d="M108.275 221.541H127.731V219.114H108.275V221.541ZM108.275 217.273H127.731V214.846H108.275V217.273ZM110.712 206.923H125.307V210.578H110.712V206.923ZM108.275 213.018H127.731V204.455H108.275V213.018ZM110.712 196.559H125.307V200.214H110.712V196.559ZM108.275 202.655H127.731V194.132H108.275V202.655ZM108.275 192.291H127.731V189.864H108.275V192.291ZM113.135 183.155H122.87V185.596H113.135V183.155ZM110.712 180.728V183.155H108.275V185.596H110.712V188.091H125.307V185.596H127.744V183.155H125.307V180.728H110.712ZM108.275 178.9H127.731V176.459H108.275V178.9ZM106.45 172.805H129.596V225.196H106.45V172.805ZM104.013 170.364V225.196H102.801L100.364 226.423V227.637H135.641V226.423L133.218 225.196H131.992V170.364H104.013Z" fill="#2D5967"/>
<path d="M94.9366 247V235.368H96.4246V240.376H102.553V235.368H104.041V247H102.553V241.656H96.4246V247H94.9366ZM109.984 247.176C108.725 247.176 107.749 246.792 107.056 246.024C106.362 245.245 106.016 244.179 106.016 242.824C106.016 241.459 106.362 240.392 107.056 239.624C107.749 238.856 108.725 238.472 109.984 238.472C111.253 238.472 112.234 238.856 112.928 239.624C113.621 240.392 113.968 241.459 113.968 242.824C113.968 244.179 113.621 245.245 112.928 246.024C112.234 246.792 111.253 247.176 109.984 247.176ZM109.984 245.992C110.805 245.992 111.429 245.725 111.856 245.192C112.282 244.648 112.496 243.859 112.496 242.824C112.496 241.789 112.282 241.005 111.856 240.472C111.429 239.928 110.805 239.656 109.984 239.656C109.173 239.656 108.554 239.928 108.128 240.472C107.701 241.005 107.488 241.789 107.488 242.824C107.488 243.859 107.701 244.648 108.128 245.192C108.554 245.725 109.173 245.992 109.984 245.992ZM115.393 246.584V245.368C115.894 245.581 116.347 245.736 116.753 245.832C117.169 245.928 117.606 245.976 118.065 245.976C119.451 245.976 120.145 245.56 120.145 244.728C120.145 244.397 120.043 244.141 119.841 243.96C119.638 243.768 119.281 243.603 118.769 243.464L117.457 243.112C116.689 242.899 116.129 242.611 115.777 242.248C115.425 241.875 115.249 241.4 115.249 240.824C115.249 240.099 115.531 239.528 116.097 239.112C116.673 238.685 117.446 238.472 118.417 238.472C118.95 238.472 119.435 238.515 119.873 238.6C120.31 238.685 120.689 238.803 121.009 238.952V240.168C120.187 239.837 119.355 239.672 118.513 239.672C117.297 239.672 116.689 240.024 116.689 240.728C116.689 241.027 116.779 241.267 116.961 241.448C117.153 241.619 117.483 241.768 117.953 241.896L119.281 242.248C120.091 242.461 120.678 242.76 121.041 243.144C121.403 243.517 121.585 244.024 121.585 244.664C121.585 245.443 121.281 246.056 120.673 246.504C120.065 246.952 119.222 247.176 118.145 247.176C117.633 247.176 117.131 247.123 116.641 247.016C116.15 246.909 115.734 246.765 115.393 246.584ZM123.722 244.456V239.832H122.282V239.096L123.722 238.616L124.298 236.344H125.162V238.648H126.97V239.832H125.162V244.44C125.162 245.357 125.557 245.816 126.346 245.816C126.474 245.816 126.597 245.811 126.714 245.8C126.842 245.779 126.959 245.763 127.066 245.752V247C126.917 247.032 126.762 247.053 126.602 247.064C126.453 247.075 126.293 247.08 126.122 247.08C125.301 247.08 124.693 246.867 124.298 246.44C123.914 246.013 123.722 245.352 123.722 244.456ZM131.722 247L136.218 235.368H137.706L142.218 247H140.57L139.546 244.136H134.346L133.322 247H131.722ZM134.81 242.856H139.082L136.938 236.92L134.81 242.856Z" fill="black"/>
<path d="M399.684 228.318V226L402.638 224.514H403.333V169.682H432.674V224.514H433.382L436.322 226V228.318H399.684Z" fill="white"/>
<path d="M431.992 170.364V225.195H433.217L435.64 226.423V227.636H400.363V226.423L402.801 225.195H404.012V170.364H431.992ZM433.353 169H402.651V223.832H402.474L402.188 223.982L399.751 225.195L399.002 225.577V229H437.002V225.577L436.253 225.195L433.83 223.982L433.53 223.832H433.353V169Z" fill="white"/>
<path d="M408.275 221.541H427.731V219.114H408.275V221.541ZM408.275 217.273H427.731V214.846H408.275V217.273ZM410.712 206.923H425.307V210.578H410.712V206.923ZM408.275 213.018H427.731V204.455H408.275V213.018ZM410.712 196.559H425.307V200.214H410.712V196.559ZM408.275 202.655H427.731V194.132H408.275V202.655ZM408.275 192.291H427.731V189.864H408.275V192.291ZM413.135 183.155H422.87V185.596H413.135V183.155ZM410.712 180.728V183.155H408.275V185.596H410.712V188.091H425.307V185.596H427.744V183.155H425.307V180.728H410.712ZM408.275 178.9H427.731V176.459H408.275V178.9ZM406.45 172.805H429.596V225.196H406.45V172.805ZM404.013 170.364V225.196H402.801L400.364 226.423V227.637H435.641V226.423L433.218 225.196H431.992V170.364H404.013Z" fill="#2D5967"/>
<path d="M395.28 247V235.368H396.768V240.376H402.896V235.368H404.384V247H402.896V241.656H396.768V247H395.28ZM410.328 247.176C409.069 247.176 408.093 246.792 407.4 246.024C406.706 245.245 406.36 244.179 406.36 242.824C406.36 241.459 406.706 240.392 407.4 239.624C408.093 238.856 409.069 238.472 410.328 238.472C411.597 238.472 412.578 238.856 413.272 239.624C413.965 240.392 414.312 241.459 414.312 242.824C414.312 244.179 413.965 245.245 413.272 246.024C412.578 246.792 411.597 247.176 410.328 247.176ZM410.328 245.992C411.149 245.992 411.773 245.725 412.2 245.192C412.626 244.648 412.84 243.859 412.84 242.824C412.84 241.789 412.626 241.005 412.2 240.472C411.773 239.928 411.149 239.656 410.328 239.656C409.517 239.656 408.898 239.928 408.472 240.472C408.045 241.005 407.832 241.789 407.832 242.824C407.832 243.859 408.045 244.648 408.472 245.192C408.898 245.725 409.517 245.992 410.328 245.992ZM415.736 246.584V245.368C416.238 245.581 416.691 245.736 417.096 245.832C417.512 245.928 417.95 245.976 418.408 245.976C419.795 245.976 420.488 245.56 420.488 244.728C420.488 244.397 420.387 244.141 420.184 243.96C419.982 243.768 419.624 243.603 419.112 243.464L417.8 243.112C417.032 242.899 416.472 242.611 416.12 242.248C415.768 241.875 415.592 241.4 415.592 240.824C415.592 240.099 415.875 239.528 416.44 239.112C417.016 238.685 417.79 238.472 418.76 238.472C419.294 238.472 419.779 238.515 420.216 238.6C420.654 238.685 421.032 238.803 421.352 238.952V240.168C420.531 239.837 419.699 239.672 418.856 239.672C417.64 239.672 417.032 240.024 417.032 240.728C417.032 241.027 417.123 241.267 417.304 241.448C417.496 241.619 417.827 241.768 418.296 241.896L419.624 242.248C420.435 242.461 421.022 242.76 421.384 243.144C421.747 243.517 421.928 244.024 421.928 244.664C421.928 245.443 421.624 246.056 421.016 246.504C420.408 246.952 419.566 247.176 418.488 247.176C417.976 247.176 417.475 247.123 416.984 247.016C416.494 246.909 416.078 246.765 415.736 246.584ZM424.066 244.456V239.832H422.626V239.096L424.066 238.616L424.642 236.344H425.506V238.648H427.314V239.832H425.506V244.44C425.506 245.357 425.9 245.816 426.69 245.816C426.818 245.816 426.94 245.811 427.058 245.8C427.186 245.779 427.303 245.763 427.41 245.752V247C427.26 247.032 427.106 247.053 426.946 247.064C426.796 247.075 426.636 247.08 426.466 247.08C425.644 247.08 425.036 246.867 424.642 246.44C424.258 246.013 424.066 245.352 424.066 244.456ZM433.218 247V235.368H436.946C438.343 235.368 439.367 235.624 440.018 236.136C440.669 236.637 440.994 237.432 440.994 238.52C440.994 239.053 440.85 239.523 440.562 239.928C440.274 240.323 439.869 240.637 439.346 240.872C440.775 241.277 441.49 242.221 441.49 243.704C441.49 245.901 440.023 247 437.09 247H433.218ZM434.642 240.408H436.674C437.687 240.408 438.413 240.264 438.85 239.976C439.298 239.688 439.522 239.203 439.522 238.52C439.522 237.805 439.303 237.304 438.866 237.016C438.429 236.717 437.698 236.568 436.674 236.568H434.642V240.408ZM434.642 245.784H436.898C438.029 245.784 438.829 245.629 439.298 245.32C439.767 245 440.002 244.467 440.002 243.72C440.002 242.963 439.762 242.424 439.282 242.104C438.802 241.784 438.007 241.624 436.898 241.624H434.642V245.784Z" fill="black"/>
<path d="M117.994 348.286C115.326 348.286 91.8812 348.072 91.8812 340.429V297.8C91.8812 289.943 115.326 289.715 117.994 289.715C120.662 289.715 144.121 289.943 144.121 297.8V340.429C144.121 348.072 120.677 348.286 117.994 348.286Z" fill="white"/>
<path d="M117.993 290.429C126.84 290.429 143.406 291.971 143.406 297.8V340.429C143.406 346.143 126.783 347.571 117.993 347.571C109.203 347.571 92.5936 346.143 92.5936 340.429V297.8C92.5936 291.971 109.217 290.429 117.993 290.429ZM117.993 289C113.512 289 91.1667 289.429 91.1667 297.8V340.429C91.1667 348.614 113.512 349 117.993 349C122.473 349 144.833 348.586 144.833 340.429V297.8C144.833 289.429 122.559 289 117.993 289Z" fill="white"/>
<path d="M143.409 297.8C143.409 291.972 126.842 290.429 117.995 290.429C109.148 290.429 92.5957 291.972 92.5957 297.8V340.429C92.5957 346.143 109.219 347.572 117.995 347.572C126.771 347.572 143.409 346.143 143.409 340.429V297.8ZM140.555 326.372C140.555 326.629 139.484 327.915 134.59 329.1C129.137 330.263 123.57 330.81 117.995 330.729C112.4 330.805 106.814 330.249 101.343 329.072C96.4484 327.886 95.4496 326.6 95.4496 326.343V315.858C100.558 318.643 111.502 319.486 118.066 319.486C124.63 319.486 135.589 318.643 140.697 315.858L140.555 326.372ZM140.555 312.343C140.555 312.6 139.484 313.9 134.59 315.072C129.137 316.235 123.57 316.781 117.995 316.7C112.4 316.776 106.814 316.22 101.343 315.043C96.4484 313.872 95.4496 312.572 95.4496 312.315V301.429C100.558 304.286 111.502 305.158 118.066 305.158C124.63 305.158 135.589 304.3 140.697 301.429L140.555 312.343ZM101.357 294.929C106.821 293.74 112.404 293.189 117.995 293.286C123.593 293.211 129.181 293.787 134.647 295C139.684 296.143 140.626 297.572 140.626 297.8C140.626 298.029 139.613 299.429 134.647 300.658C129.181 301.871 123.593 302.446 117.995 302.372C112.402 302.45 106.819 301.879 101.357 300.672C96.3913 299.429 95.4496 298.086 95.4496 297.8C95.4496 297.515 96.4627 296.158 101.428 294.943L101.357 294.929ZM134.661 343.129C129.186 344.307 123.595 344.863 117.995 344.786C112.4 344.862 106.814 344.306 101.343 343.129C96.4484 341.958 95.4496 340.658 95.4496 340.429V329.886C100.558 332.672 111.502 333.515 118.066 333.515C124.63 333.515 135.589 332.672 140.697 329.886V340.429C140.697 340.686 139.627 341.986 134.733 343.158" fill="#2D5967"/>
<path d="M98.0148 367V355.368H101.503C103.38 355.368 104.793 355.859 105.743 356.84C106.703 357.821 107.183 359.272 107.183 361.192C107.183 363.112 106.703 364.563 105.743 365.544C104.793 366.515 103.38 367 101.503 367H98.0148ZM101.471 356.632H99.5028V365.736H101.471C102.879 365.736 103.929 365.363 104.623 364.616C105.316 363.869 105.663 362.728 105.663 361.192C105.663 358.152 104.265 356.632 101.471 356.632ZM109.234 367V355.368H113.186C115.884 355.368 117.234 356.509 117.234 358.792C117.234 360.573 116.327 361.672 114.514 362.088L117.746 367H116.05L113.106 362.392L110.706 362.008V367H109.234ZM110.706 361.016H112.482C113.676 361.016 114.519 360.851 115.01 360.52C115.5 360.179 115.746 359.603 115.746 358.792C115.746 358.237 115.644 357.8 115.442 357.48C115.239 357.149 114.898 356.915 114.418 356.776C113.948 356.627 113.303 356.552 112.482 356.552H110.706V361.016ZM119.265 367V355.368H122.993C124.39 355.368 125.414 355.624 126.065 356.136C126.715 356.637 127.041 357.432 127.041 358.52C127.041 359.053 126.897 359.523 126.609 359.928C126.321 360.323 125.915 360.637 125.393 360.872C126.822 361.277 127.537 362.221 127.537 363.704C127.537 365.901 126.07 367 123.137 367H119.265ZM120.689 360.408H122.721C123.734 360.408 124.459 360.264 124.897 359.976C125.345 359.688 125.569 359.203 125.569 358.52C125.569 357.805 125.35 357.304 124.913 357.016C124.475 356.717 123.745 356.568 122.721 356.568H120.689V360.408ZM120.689 365.784H122.945C124.075 365.784 124.875 365.629 125.345 365.32C125.814 365 126.049 364.467 126.049 363.72C126.049 362.963 125.809 362.424 125.329 362.104C124.849 361.784 124.054 361.624 122.945 361.624H120.689V365.784ZM129.359 367V355.368H132.847C134.724 355.368 136.137 355.859 137.087 356.84C138.047 357.821 138.527 359.272 138.527 361.192C138.527 363.112 138.047 364.563 137.087 365.544C136.137 366.515 134.724 367 132.847 367H129.359ZM132.815 356.632H130.847V365.736H132.815C134.223 365.736 135.273 365.363 135.967 364.616C136.66 363.869 137.007 362.728 137.007 361.192C137.007 358.152 135.609 356.632 132.815 356.632Z" fill="black"/>
<path d="M417.994 348.286C415.326 348.286 391.881 348.072 391.881 340.429V297.8C391.881 289.943 415.326 289.715 417.994 289.715C420.662 289.715 444.121 289.943 444.121 297.8V340.429C444.121 348.072 420.677 348.286 417.994 348.286Z" fill="white"/>
<path d="M417.993 290.429C426.84 290.429 443.406 291.971 443.406 297.8V340.429C443.406 346.143 426.783 347.571 417.993 347.571C409.203 347.571 392.594 346.143 392.594 340.429V297.8C392.594 291.971 409.217 290.429 417.993 290.429ZM417.993 289C413.512 289 391.167 289.429 391.167 297.8V340.429C391.167 348.614 413.512 349 417.993 349C422.473 349 444.833 348.586 444.833 340.429V297.8C444.833 289.429 422.559 289 417.993 289Z" fill="white"/>
<path d="M443.409 297.8C443.409 291.972 426.842 290.429 417.995 290.429C409.148 290.429 392.596 291.972 392.596 297.8V340.429C392.596 346.143 409.219 347.572 417.995 347.572C426.771 347.572 443.409 346.143 443.409 340.429V297.8ZM440.555 326.372C440.555 326.629 439.484 327.915 434.59 329.1C429.137 330.263 423.57 330.81 417.995 330.729C412.4 330.805 406.814 330.249 401.343 329.072C396.448 327.886 395.45 326.6 395.45 326.343V315.858C400.558 318.643 411.502 319.486 418.066 319.486C424.63 319.486 435.589 318.643 440.697 315.858L440.555 326.372ZM440.555 312.343C440.555 312.6 439.484 313.9 434.59 315.072C429.137 316.235 423.57 316.781 417.995 316.7C412.4 316.776 406.814 316.22 401.343 315.043C396.448 313.872 395.45 312.572 395.45 312.315V301.429C400.558 304.286 411.502 305.158 418.066 305.158C424.63 305.158 435.589 304.3 440.697 301.429L440.555 312.343ZM401.357 294.929C406.821 293.74 412.404 293.189 417.995 293.286C423.593 293.211 429.181 293.787 434.647 295C439.684 296.143 440.626 297.572 440.626 297.8C440.626 298.029 439.613 299.429 434.647 300.658C429.181 301.871 423.593 302.446 417.995 302.372C412.402 302.45 406.819 301.879 401.357 300.672C396.391 299.429 395.45 298.086 395.45 297.8C395.45 297.515 396.463 296.158 401.428 294.943L401.357 294.929ZM434.661 343.129C429.186 344.307 423.595 344.863 417.995 344.786C412.4 344.862 406.814 344.306 401.343 343.129C396.448 341.958 395.45 340.658 395.45 340.429V329.886C400.558 332.672 411.502 333.515 418.066 333.515C424.63 333.515 435.589 332.672 440.697 329.886V340.429C440.697 340.686 439.627 341.986 434.733 343.158" fill="#2D5967"/>
<path d="M398.015 367V355.368H401.503C403.38 355.368 404.793 355.859 405.743 356.84C406.703 357.821 407.183 359.272 407.183 361.192C407.183 363.112 406.703 364.563 405.743 365.544C404.793 366.515 403.38 367 401.503 367H398.015ZM401.471 356.632H399.503V365.736H401.471C402.879 365.736 403.929 365.363 404.623 364.616C405.316 363.869 405.663 362.728 405.663 361.192C405.663 358.152 404.265 356.632 401.471 356.632ZM409.234 367V355.368H413.186C415.884 355.368 417.234 356.509 417.234 358.792C417.234 360.573 416.327 361.672 414.514 362.088L417.746 367H416.05L413.106 362.392L410.706 362.008V367H409.234ZM410.706 361.016H412.482C413.676 361.016 414.519 360.851 415.01 360.52C415.5 360.179 415.746 359.603 415.746 358.792C415.746 358.237 415.644 357.8 415.442 357.48C415.239 357.149 414.898 356.915 414.418 356.776C413.948 356.627 413.303 356.552 412.482 356.552H410.706V361.016ZM419.265 367V355.368H422.993C424.39 355.368 425.414 355.624 426.065 356.136C426.715 356.637 427.041 357.432 427.041 358.52C427.041 359.053 426.897 359.523 426.609 359.928C426.321 360.323 425.915 360.637 425.393 360.872C426.822 361.277 427.537 362.221 427.537 363.704C427.537 365.901 426.07 367 423.137 367H419.265ZM420.689 360.408H422.721C423.734 360.408 424.459 360.264 424.897 359.976C425.345 359.688 425.569 359.203 425.569 358.52C425.569 357.805 425.35 357.304 424.913 357.016C424.475 356.717 423.745 356.568 422.721 356.568H420.689V360.408ZM420.689 365.784H422.945C424.075 365.784 424.875 365.629 425.345 365.32C425.814 365 426.049 364.467 426.049 363.72C426.049 362.963 425.809 362.424 425.329 362.104C424.849 361.784 424.054 361.624 422.945 361.624H420.689V365.784ZM429.359 367V355.368H432.847C434.724 355.368 436.137 355.859 437.087 356.84C438.047 357.821 438.527 359.272 438.527 361.192C438.527 363.112 438.047 364.563 437.087 365.544C436.137 366.515 434.724 367 432.847 367H429.359ZM432.815 356.632H430.847V365.736H432.815C434.223 365.736 435.273 365.363 435.967 364.616C436.66 363.869 437.007 362.728 437.007 361.192C437.007 358.152 435.609 356.632 432.815 356.632Z" fill="black"/>
<path d="M267.994 437.286C265.326 437.286 241.881 437.072 241.881 429.429V386.8C241.881 378.943 265.326 378.715 267.994 378.715C270.662 378.715 294.121 378.943 294.121 386.8V429.429C294.121 437.072 270.677 437.286 267.994 437.286Z" fill="white"/>
<path d="M267.993 379.429C276.84 379.429 293.406 380.971 293.406 386.8V429.429C293.406 435.143 276.783 436.571 267.993 436.571C259.203 436.571 242.594 435.143 242.594 429.429V386.8C242.594 380.971 259.217 379.429 267.993 379.429ZM267.993 378C263.512 378 241.167 378.429 241.167 386.8V429.429C241.167 437.614 263.512 438 267.993 438C272.473 438 294.833 437.586 294.833 429.429V386.8C294.833 378.429 272.559 378 267.993 378Z" fill="white"/>
<path d="M293.409 386.8C293.409 380.972 276.842 379.429 267.995 379.429C259.148 379.429 242.596 380.972 242.596 386.8V429.429C242.596 435.143 259.219 436.572 267.995 436.572C276.771 436.572 293.409 435.143 293.409 429.429V386.8ZM290.555 415.372C290.555 415.629 289.484 416.915 284.59 418.1C279.137 419.263 273.57 419.81 267.995 419.729C262.4 419.805 256.814 419.249 251.343 418.072C246.448 416.886 245.45 415.6 245.45 415.343V404.858C250.558 407.643 261.502 408.486 268.066 408.486C274.63 408.486 285.589 407.643 290.697 404.858L290.555 415.372ZM290.555 401.343C290.555 401.6 289.484 402.9 284.59 404.072C279.137 405.235 273.57 405.781 267.995 405.7C262.4 405.776 256.814 405.22 251.343 404.043C246.448 402.872 245.45 401.572 245.45 401.315V390.429C250.558 393.286 261.502 394.158 268.066 394.158C274.63 394.158 285.589 393.3 290.697 390.429L290.555 401.343ZM251.357 383.929C256.821 382.74 262.404 382.189 267.995 382.286C273.593 382.211 279.181 382.787 284.647 384C289.684 385.143 290.626 386.572 290.626 386.8C290.626 387.029 289.613 388.429 284.647 389.658C279.181 390.871 273.593 391.446 267.995 391.372C262.402 391.45 256.819 390.879 251.357 389.672C246.391 388.429 245.45 387.086 245.45 386.8C245.45 386.515 246.463 385.158 251.428 383.943L251.357 383.929ZM284.661 432.129C279.186 433.307 273.595 433.863 267.995 433.786C262.4 433.862 256.814 433.306 251.343 432.129C246.448 430.958 245.45 429.658 245.45 429.429V418.886C250.558 421.672 261.502 422.515 268.066 422.515C274.63 422.515 285.589 421.672 290.697 418.886V429.429C290.697 429.686 289.627 430.986 284.733 432.158" fill="#2D5967"/>
<path d="M222.398 445.712V444.416H224.158V445.712H222.398ZM222.734 456V448.768L221.902 448.24V447.648H224.174V456H222.734ZM226.175 455.488V454.176C227.348 454.656 228.468 454.896 229.535 454.896C230.431 454.896 231.13 454.72 231.631 454.368C232.143 454.016 232.399 453.531 232.399 452.912C232.399 452.453 232.244 452.075 231.935 451.776C231.626 451.477 231.066 451.173 230.255 450.864L229.023 450.384C227.988 449.979 227.242 449.531 226.783 449.04C226.335 448.539 226.111 447.952 226.111 447.28C226.111 446.32 226.474 445.563 227.199 445.008C227.924 444.453 228.916 444.176 230.175 444.176C230.698 444.176 231.236 444.24 231.791 444.368C232.346 444.485 232.82 444.651 233.215 444.864V446.176C232.127 445.707 231.124 445.472 230.207 445.472C228.468 445.472 227.599 446.064 227.599 447.248C227.599 447.643 227.754 447.979 228.063 448.256C228.372 448.533 228.916 448.827 229.695 449.136L230.927 449.616C231.994 450.032 232.751 450.501 233.199 451.024C233.658 451.536 233.887 452.155 233.887 452.88C233.887 453.925 233.514 454.741 232.767 455.328C232.031 455.904 230.996 456.192 229.663 456.192C229.258 456.192 228.831 456.16 228.383 456.096C227.946 456.032 227.535 455.947 227.151 455.84C226.767 455.733 226.442 455.616 226.175 455.488ZM244.036 454.16V455.44C243.609 455.675 243.103 455.861 242.516 456C241.94 456.128 241.353 456.192 240.756 456.192C239.028 456.192 237.689 455.664 236.74 454.608C235.801 453.541 235.332 452.027 235.332 450.064C235.332 448.837 235.551 447.787 235.988 446.912C236.436 446.037 237.071 445.365 237.892 444.896C238.713 444.416 239.689 444.176 240.82 444.176C241.321 444.176 241.828 444.24 242.34 444.368C242.863 444.496 243.289 444.672 243.62 444.896V446.176C243.065 445.931 242.58 445.755 242.164 445.648C241.748 445.541 241.332 445.488 240.916 445.488C239.636 445.488 238.639 445.888 237.924 446.688C237.209 447.477 236.852 448.603 236.852 450.064C236.852 451.611 237.204 452.8 237.908 453.632C238.623 454.464 239.625 454.88 240.916 454.88C241.876 454.88 242.916 454.64 244.036 454.16ZM245.534 455.488V454.176C246.708 454.656 247.828 454.896 248.894 454.896C249.79 454.896 250.489 454.72 250.99 454.368C251.502 454.016 251.758 453.531 251.758 452.912C251.758 452.453 251.604 452.075 251.294 451.776C250.985 451.477 250.425 451.173 249.614 450.864L248.382 450.384C247.348 449.979 246.601 449.531 246.142 449.04C245.694 448.539 245.47 447.952 245.47 447.28C245.47 446.32 245.833 445.563 246.558 445.008C247.284 444.453 248.276 444.176 249.534 444.176C250.057 444.176 250.596 444.24 251.15 444.368C251.705 444.485 252.18 444.651 252.574 444.864V446.176C251.486 445.707 250.484 445.472 249.566 445.472C247.828 445.472 246.958 446.064 246.958 447.248C246.958 447.643 247.113 447.979 247.422 448.256C247.732 448.533 248.276 448.827 249.054 449.136L250.286 449.616C251.353 450.032 252.11 450.501 252.558 451.024C253.017 451.536 253.246 452.155 253.246 452.88C253.246 453.925 252.873 454.741 252.126 455.328C251.39 455.904 250.356 456.192 249.022 456.192C248.617 456.192 248.19 456.16 247.742 456.096C247.305 456.032 246.894 455.947 246.51 455.84C246.126 455.733 245.801 455.616 245.534 455.488ZM255.155 456V444.368H256.643V456H255.155ZM269.123 456L268.883 454.656C268.563 455.136 268.153 455.509 267.651 455.776C267.161 456.043 266.627 456.176 266.051 456.176C264.953 456.176 264.089 455.792 263.459 455.024C262.841 454.256 262.531 453.195 262.531 451.84C262.531 450.464 262.841 449.392 263.459 448.624C264.089 447.856 264.963 447.472 266.083 447.472C266.553 447.472 267.011 447.563 267.459 447.744C267.907 447.925 268.307 448.181 268.659 448.512V443.984H270.099V456H269.123ZM264.003 451.824C264.003 452.837 264.201 453.621 264.595 454.176C264.99 454.731 265.55 455.008 266.275 455.008C266.777 455.008 267.235 454.875 267.651 454.608C268.078 454.331 268.414 453.957 268.659 453.488V449.776C268.009 449.019 267.235 448.64 266.339 448.64C265.593 448.64 265.017 448.912 264.611 449.456C264.206 450 264.003 450.789 264.003 451.824ZM278.801 455.584C278.502 455.765 278.102 455.909 277.601 456.016C277.11 456.123 276.572 456.176 275.985 456.176C274.662 456.176 273.66 455.803 272.977 455.056C272.305 454.299 271.969 453.195 271.969 451.744C271.969 450.347 272.289 449.285 272.929 448.56C273.58 447.835 274.508 447.472 275.713 447.472C278.038 447.472 279.201 448.757 279.201 451.328V452.256H273.425C273.489 453.195 273.74 453.883 274.177 454.32C274.614 454.747 275.265 454.96 276.129 454.96C276.609 454.96 277.062 454.912 277.489 454.816C277.916 454.72 278.353 454.571 278.801 454.368V455.584ZM275.713 448.656C275.009 448.656 274.46 448.869 274.065 449.296C273.681 449.712 273.468 450.32 273.425 451.12H277.809C277.809 450.245 277.644 449.616 277.313 449.232C276.993 448.848 276.46 448.656 275.713 448.656ZM281.028 456V447.648H282.004L282.292 449.216C282.836 448.16 283.615 447.632 284.628 447.632C284.841 447.632 285.028 447.648 285.188 447.68V448.944H284.82C284.212 448.944 283.705 449.115 283.3 449.456C282.895 449.797 282.617 450.293 282.468 450.944V456H281.028ZM289.41 456L286.13 447.648H287.634L290.05 454.272L292.45 447.648H293.922L290.626 456H289.41ZM295.445 445.712V444.416H297.205V445.712H295.445ZM295.781 456V448.768L294.949 448.24V447.648H297.221V456H295.781ZM305.51 454.4V455.584C304.849 455.979 304.011 456.176 302.998 456.176C301.707 456.176 300.731 455.803 300.07 455.056C299.419 454.299 299.094 453.189 299.094 451.728C299.094 450.373 299.441 449.328 300.134 448.592C300.827 447.845 301.809 447.472 303.078 447.472C303.867 447.472 304.598 447.648 305.27 448V449.184C304.566 448.832 303.91 448.656 303.302 448.656C301.478 448.656 300.566 449.68 300.566 451.728C300.566 452.837 300.774 453.659 301.19 454.192C301.617 454.725 302.283 454.992 303.19 454.992C303.553 454.992 303.921 454.944 304.294 454.848C304.667 454.752 305.073 454.603 305.51 454.4ZM313.567 455.584C313.268 455.765 312.868 455.909 312.367 456.016C311.876 456.123 311.337 456.176 310.751 456.176C309.428 456.176 308.425 455.803 307.743 455.056C307.071 454.299 306.735 453.195 306.735 451.744C306.735 450.347 307.055 449.285 307.695 448.56C308.345 447.835 309.273 447.472 310.479 447.472C312.804 447.472 313.967 448.757 313.967 451.328V452.256H308.191C308.255 453.195 308.505 453.883 308.943 454.32C309.38 454.747 310.031 454.96 310.895 454.96C311.375 454.96 311.828 454.912 312.255 454.816C312.681 454.72 313.119 454.571 313.567 454.368V455.584ZM310.479 448.656C309.775 448.656 309.225 448.869 308.831 449.296C308.447 449.712 308.233 450.32 308.191 451.12H312.575C312.575 450.245 312.409 449.616 312.079 449.232C311.759 448.848 311.225 448.656 310.479 448.656Z" fill="black"/>
<path d="M249.684 612.318V610L252.638 608.514H253.333V553.682H282.674V608.514H283.382L286.322 610V612.318H249.684Z" fill="white"/>
<path d="M281.992 554.364V609.195H283.217L285.64 610.423V611.636H250.363V610.423L252.801 609.195H254.012V554.364H281.992ZM283.353 553H252.651V607.832H252.474L252.188 607.982L249.751 609.195L249.002 609.577V613H287.002V609.577L286.253 609.195L283.83 607.982L283.53 607.832H283.353V553Z" fill="white"/>
<path d="M258.275 605.541H277.731V603.114H258.275V605.541ZM258.275 601.273H277.731V598.846H258.275V601.273ZM260.712 590.923H275.307V594.578H260.712V590.923ZM258.275 597.018H277.731V588.455H258.275V597.018ZM260.712 580.559H275.307V584.214H260.712V580.559ZM258.275 586.655H277.731V578.132H258.275V586.655ZM258.275 576.291H277.731V573.864H258.275V576.291ZM263.135 567.155H272.87V569.596H263.135V567.155ZM260.712 564.728V567.155H258.275V569.596H260.712V572.091H275.307V569.596H277.744V567.155H275.307V564.728H260.712ZM258.275 562.9H277.731V560.459H258.275V562.9ZM256.45 556.805H279.596V609.196H256.45V556.805ZM254.013 554.364V609.196H252.801L250.364 610.423V611.637H285.641V610.423L283.218 609.196H281.992V554.364H254.013Z" fill="#2D5967"/>
<path d="M218.152 631L215.352 619.368H216.856L219.048 628.584L221.56 620.008H222.904L225.448 628.68L227.672 619.368H229.112L226.312 631H224.872L222.232 622.216L219.592 631H218.152ZM230.445 620.712V619.416H232.205V620.712H230.445ZM230.781 631V623.768L229.949 623.24V622.648H232.221V631H230.781ZM234.622 631V622.648H235.598L235.854 624.072C236.206 623.56 236.638 623.165 237.15 622.888C237.662 622.611 238.238 622.472 238.878 622.472C239.838 622.472 240.574 622.76 241.086 623.336C241.598 623.912 241.854 624.744 241.854 625.832V631H240.414V625.88C240.414 624.429 239.785 623.704 238.526 623.704C237.993 623.704 237.502 623.869 237.054 624.2C236.617 624.52 236.286 624.957 236.062 625.512V631H234.622ZM250.233 631L249.993 629.656C249.673 630.136 249.262 630.509 248.761 630.776C248.27 631.043 247.737 631.176 247.161 631.176C246.062 631.176 245.198 630.792 244.569 630.024C243.95 629.256 243.641 628.195 243.641 626.84C243.641 625.464 243.95 624.392 244.569 623.624C245.198 622.856 246.073 622.472 247.193 622.472C247.662 622.472 248.121 622.563 248.569 622.744C249.017 622.925 249.417 623.181 249.769 623.512V618.984H251.209V631H250.233ZM245.113 626.824C245.113 627.837 245.31 628.621 245.705 629.176C246.099 629.731 246.659 630.008 247.385 630.008C247.886 630.008 248.345 629.875 248.761 629.608C249.187 629.331 249.523 628.957 249.769 628.488V624.776C249.118 624.019 248.345 623.64 247.449 623.64C246.702 623.64 246.126 623.912 245.721 624.456C245.315 625 245.113 625.789 245.113 626.824ZM257.046 631.176C255.788 631.176 254.812 630.792 254.118 630.024C253.425 629.245 253.078 628.179 253.078 626.824C253.078 625.459 253.425 624.392 254.118 623.624C254.812 622.856 255.788 622.472 257.046 622.472C258.316 622.472 259.297 622.856 259.99 623.624C260.684 624.392 261.03 625.459 261.03 626.824C261.03 628.179 260.684 629.245 259.99 630.024C259.297 630.792 258.316 631.176 257.046 631.176ZM257.046 629.992C257.868 629.992 258.492 629.725 258.918 629.192C259.345 628.648 259.558 627.859 259.558 626.824C259.558 625.789 259.345 625.005 258.918 624.472C258.492 623.928 257.868 623.656 257.046 623.656C256.236 623.656 255.617 623.928 255.19 624.472C254.764 625.005 254.55 625.789 254.55 626.824C254.55 627.859 254.764 628.648 255.19 629.192C255.617 629.725 256.236 629.992 257.046 629.992ZM264.439 631L261.975 622.648H263.447L265.159 628.776L266.951 622.856H268.167L269.959 628.84L271.703 622.648H273.143L270.679 631H269.463L267.559 624.632L265.655 631H264.439ZM272.613 634.216L279.205 618.984H280.693L274.085 634.216H272.613ZM282.14 631V619.368H283.628V629.672H289.324V631H282.14ZM290.82 620.712V619.416H292.58V620.712H290.82ZM291.156 631V623.768L290.324 623.24V622.648H292.596V631H291.156ZM294.997 631V622.648H295.973L296.229 624.072C296.581 623.56 297.013 623.165 297.525 622.888C298.037 622.611 298.613 622.472 299.253 622.472C300.213 622.472 300.949 622.76 301.461 623.336C301.973 623.912 302.229 624.744 302.229 625.832V631H300.789V625.88C300.789 624.429 300.16 623.704 298.901 623.704C298.368 623.704 297.877 623.869 297.429 624.2C296.992 624.52 296.661 624.957 296.437 625.512V631H294.997ZM304.464 627.816V622.648H305.904V627.768C305.904 628.483 306.058 629.032 306.368 629.416C306.677 629.8 307.13 629.992 307.728 629.992C308.229 629.992 308.698 629.821 309.136 629.48C309.584 629.128 309.92 628.664 310.144 628.088V622.648H311.584V631H310.608L310.352 629.576C310.01 630.088 309.578 630.483 309.056 630.76C308.544 631.037 307.984 631.176 307.376 631.176C306.448 631.176 305.728 630.888 305.216 630.312C304.714 629.736 304.464 628.904 304.464 627.816ZM312.973 631L315.997 626.696L313.133 622.648H314.781L316.941 625.816L319.165 622.648H320.637L317.757 626.68L320.797 631H319.149L316.813 627.56L314.445 631H312.973ZM238.098 647V638.648H239.074L239.33 640.04C239.64 639.56 240.029 639.181 240.498 638.904C240.978 638.616 241.501 638.472 242.066 638.472C243.304 638.472 244.141 639.005 244.578 640.072C244.877 639.592 245.277 639.208 245.778 638.92C246.28 638.621 246.829 638.472 247.426 638.472C248.333 638.472 249.026 638.76 249.506 639.336C249.986 639.901 250.226 640.733 250.226 641.832V647H248.786V641.864C248.786 640.424 248.226 639.704 247.106 639.704C246.562 639.704 246.093 639.859 245.698 640.168C245.314 640.467 245.042 640.883 244.882 641.416V647H243.458V641.864C243.458 640.424 242.882 639.704 241.73 639.704C241.208 639.704 240.749 639.869 240.354 640.2C239.96 640.52 239.688 640.957 239.538 641.512V647H238.098ZM257.768 647L257.528 645.656C256.845 646.669 255.917 647.176 254.744 647.176C253.901 647.176 253.224 646.941 252.712 646.472C252.21 645.992 251.96 645.357 251.96 644.568C251.96 643.693 252.258 643.016 252.856 642.536C253.464 642.045 254.306 641.8 255.384 641.8H257.304V641.272C257.304 640.675 257.17 640.253 256.904 640.008C256.648 639.763 256.205 639.64 255.576 639.64C255.17 639.64 254.738 639.688 254.28 639.784C253.821 639.869 253.304 640.013 252.728 640.216V639.048C253.133 638.867 253.597 638.728 254.12 638.632C254.642 638.525 255.133 638.472 255.592 638.472C257.693 638.472 258.744 639.405 258.744 641.272V647H257.768ZM254.92 646.024C255.41 646.024 255.869 645.885 256.296 645.608C256.722 645.32 257.064 644.931 257.32 644.44V642.856H255.528C254.802 642.856 254.264 642.989 253.912 643.256C253.57 643.512 253.4 643.912 253.4 644.456C253.4 644.936 253.533 645.32 253.8 645.608C254.077 645.885 254.45 646.024 254.92 646.024ZM266.955 645.4V646.584C266.294 646.979 265.457 647.176 264.443 647.176C263.153 647.176 262.177 646.803 261.515 646.056C260.865 645.299 260.539 644.189 260.539 642.728C260.539 641.373 260.886 640.328 261.579 639.592C262.273 638.845 263.254 638.472 264.523 638.472C265.313 638.472 266.043 638.648 266.715 639V640.184C266.011 639.832 265.355 639.656 264.747 639.656C262.923 639.656 262.011 640.68 262.011 642.728C262.011 643.837 262.219 644.659 262.635 645.192C263.062 645.725 263.729 645.992 264.635 645.992C264.998 645.992 265.366 645.944 265.739 645.848C266.113 645.752 266.518 645.603 266.955 645.4ZM268.708 647V634.984H270.148V639.864C270.478 639.427 270.878 639.085 271.348 638.84C271.828 638.595 272.366 638.472 272.964 638.472C273.924 638.472 274.66 638.76 275.172 639.336C275.684 639.912 275.94 640.744 275.94 641.832V647H274.5V641.88C274.5 640.429 273.87 639.704 272.612 639.704C272.078 639.704 271.588 639.869 271.14 640.2C270.702 640.52 270.372 640.957 270.148 641.512V647H268.708ZM278.047 636.712V635.416H279.807V636.712H278.047ZM278.383 647V639.768L277.551 639.24V638.648H279.823V647H278.383ZM282.223 647V638.648H283.199L283.455 640.072C283.807 639.56 284.239 639.165 284.751 638.888C285.263 638.611 285.839 638.472 286.479 638.472C287.439 638.472 288.175 638.76 288.687 639.336C289.199 639.912 289.455 640.744 289.455 641.832V647H288.015V641.88C288.015 640.429 287.386 639.704 286.127 639.704C285.594 639.704 285.103 639.869 284.655 640.2C284.218 640.52 283.887 640.957 283.663 641.512V647H282.223ZM298.074 646.584C297.776 646.765 297.376 646.909 296.874 647.016C296.384 647.123 295.845 647.176 295.258 647.176C293.936 647.176 292.933 646.803 292.25 646.056C291.578 645.299 291.242 644.195 291.242 642.744C291.242 641.347 291.562 640.285 292.202 639.56C292.853 638.835 293.781 638.472 294.986 638.472C297.312 638.472 298.474 639.757 298.474 642.328V643.256H292.698C292.762 644.195 293.013 644.883 293.45 645.32C293.888 645.747 294.538 645.96 295.402 645.96C295.882 645.96 296.336 645.912 296.762 645.816C297.189 645.72 297.626 645.571 298.074 645.368V646.584ZM294.986 639.656C294.282 639.656 293.733 639.869 293.338 640.296C292.954 640.712 292.741 641.32 292.698 642.12H297.082C297.082 641.245 296.917 640.616 296.586 640.232C296.266 639.848 295.733 639.656 294.986 639.656Z" fill="black"/>
<path d="M250.707 65.7071C251.098 65.3166 251.098 64.6834 250.707 64.2929L244.343 57.9289C243.953 57.5384 243.319 57.5384 242.929 57.9289C242.538 58.3195 242.538 58.9526 242.929 59.3431L248.586 65L242.929 70.6569C242.538 71.0474 242.538 71.6805 242.929 72.0711C243.319 72.4616 243.953 72.4616 244.343 72.0711L250.707 65.7071ZM118 65V64H117V65H118ZM117.293 165.707C117.683 166.098 118.317 166.098 118.707 165.707L125.071 159.343C125.462 158.953 125.462 158.319 125.071 157.929C124.681 157.538 124.047 157.538 123.657 157.929L118 163.586L112.343 157.929C111.953 157.538 111.319 157.538 110.929 157.929C110.538 158.319 110.538 158.953 110.929 159.343L117.293 165.707ZM250 64H118V66H250V64ZM117 65V165H119V65H117Z" fill="#312D2A"/>
<path d="M285.293 65.7071C284.902 65.3166 284.902 64.6834 285.293 64.2929L291.657 57.9289C292.047 57.5384 292.681 57.5384 293.071 57.9289C293.462 58.3195 293.462 58.9526 293.071 59.3431L287.414 65L293.071 70.6569C293.462 71.0474 293.462 71.6805 293.071 72.0711C292.681 72.4616 292.047 72.4616 291.657 72.0711L285.293 65.7071ZM418 65V64H419V65H418ZM418.707 165.707C418.317 166.098 417.683 166.098 417.293 165.707L410.929 159.343C410.538 158.953 410.538 158.319 410.929 157.929C411.319 157.538 411.953 157.538 412.343 157.929L418 163.586L423.657 157.929C424.047 157.538 424.681 157.538 425.071 157.929C425.462 158.319 425.462 158.953 425.071 159.343L418.707 165.707ZM286 64H418V66H286V64ZM419 65V165H417V65H419Z" fill="#312D2A"/>
<path d="M118 409V410H117V409H118ZM119 370V371.95H117V370H119ZM119 375.85V379.75H117V375.85H119ZM119 383.65V387.55H117V383.65H119ZM119 391.45V395.35H117V391.45H119ZM119 399.25V403.15H117V399.25H119ZM119 407.05V409H117V407.05H119ZM118 408H120V410H118V408ZM124 408H128V410H124V408ZM132 408H136V410H132V408ZM140 408H144V410H140V408ZM148 408H152V410H148V408ZM156 408H160V410H156V408ZM164 408H168V410H164V408ZM172 408H176V410H172V408ZM180 408H184V410H180V408ZM188 408H192V410H188V408ZM196 408H200V410H196V408ZM204 408H208V410H204V408ZM212 408H216V410H212V408ZM220 408H224V410H220V408ZM228 408H232V410H228V408ZM236 408H238V410H236V408Z" fill="#312D2A"/>
<path d="M418 409V410H419V409H418ZM417 370V371.95H419V370H417ZM417 375.85V379.75H419V375.85H417ZM417 383.65V387.55H419V383.65H417ZM417 391.45V395.35H419V391.45H417ZM417 399.25V403.15H419V399.25H417ZM417 407.05V409H419V407.05H417ZM418 408H416V410H418V408ZM412 408H408V410H412V408ZM404 408H400V410H404V408ZM396 408H392V410H396V408ZM388 408H384V410H388V408ZM380 408H376V410H380V408ZM372 408H368V410H372V408ZM364 408H360V410H364V408ZM356 408H352V410H356V408ZM348 408H344V410H348V408ZM340 408H336V410H340V408ZM332 408H328V410H332V408ZM324 408H320V410H324V408ZM316 408H312V410H316V408ZM308 408H304V410H308V408ZM300 408H298V410H300V408Z" fill="#312D2A"/>
<path d="M148.293 207.293C147.902 207.683 147.902 208.317 148.293 208.707L154.657 215.071C155.047 215.462 155.681 215.462 156.071 215.071C156.462 214.681 156.462 214.047 156.071 213.657L150.414 208L156.071 202.343C156.462 201.953 156.462 201.319 156.071 200.929C155.681 200.538 155.047 200.538 154.657 200.929L148.293 207.293ZM387.707 208.707C388.098 208.317 388.098 207.683 387.707 207.293L381.343 200.929C380.953 200.538 380.319 200.538 379.929 200.929C379.538 201.319 379.538 201.953 379.929 202.343L385.586 208L379.929 213.657C379.538 214.047 379.538 214.681 379.929 215.071C380.319 215.462 380.953 215.462 381.343 215.071L387.707 208.707ZM149 209L387 209V207L149 207V209Z" fill="#312D2A"/>
<path d="M148.293 320.293C147.902 320.683 147.902 321.317 148.293 321.707L154.657 328.071C155.047 328.462 155.681 328.462 156.071 328.071C156.462 327.681 156.462 327.047 156.071 326.657L150.414 321L156.071 315.343C156.462 314.953 156.462 314.319 156.071 313.929C155.681 313.538 155.047 313.538 154.657 313.929L148.293 320.293ZM387.707 321.707C388.098 321.317 388.098 320.683 387.707 320.293L381.343 313.929C380.953 313.538 380.319 313.538 379.929 313.929C379.538 314.319 379.538 314.953 379.929 315.343L385.586 321L379.929 326.657C379.538 327.047 379.538 327.681 379.929 328.071C380.319 328.462 380.953 328.462 381.343 328.071L387.707 321.707ZM149 322L387 322V320L149 320V322Z" fill="#312D2A"/>
<path d="M268 460L268 551" stroke="#312D2A" stroke-width="2" stroke-dasharray="4 4"/>
<path d="M118 250L118 286" stroke="#312D2A" stroke-width="2"/>
<path d="M418 250L418 286" stroke="#312D2A" stroke-width="2"/>
<rect width="76" height="14" transform="translate(230 200)" fill="white"/>
<path d="M235.617 212V201.822H241.763V202.942H236.919V206.498H241.273V207.618H236.919V212H235.617ZM243.354 212V202.466L242.626 202.004V201.486H244.614V212H243.354ZM249.727 212.154C248.626 212.154 247.772 211.818 247.165 211.146C246.558 210.465 246.255 209.531 246.255 208.346C246.255 207.151 246.558 206.218 247.165 205.546C247.772 204.874 248.626 204.538 249.727 204.538C250.838 204.538 251.696 204.874 252.303 205.546C252.91 206.218 253.213 207.151 253.213 208.346C253.213 209.531 252.91 210.465 252.303 211.146C251.696 211.818 250.838 212.154 249.727 212.154ZM249.727 211.118C250.446 211.118 250.992 210.885 251.365 210.418C251.738 209.942 251.925 209.251 251.925 208.346C251.925 207.441 251.738 206.755 251.365 206.288C250.992 205.812 250.446 205.574 249.727 205.574C249.018 205.574 248.476 205.812 248.103 206.288C247.73 206.755 247.543 207.441 247.543 208.346C247.543 209.251 247.73 209.942 248.103 210.418C248.476 210.885 249.018 211.118 249.727 211.118ZM259.416 212L259.206 210.824C258.608 211.711 257.796 212.154 256.77 212.154C256.032 212.154 255.44 211.949 254.992 211.538C254.553 211.118 254.334 210.563 254.334 209.872C254.334 209.107 254.595 208.514 255.118 208.094C255.65 207.665 256.387 207.45 257.33 207.45H259.01V206.988C259.01 206.465 258.893 206.097 258.66 205.882C258.436 205.667 258.048 205.56 257.498 205.56C257.143 205.56 256.765 205.602 256.364 205.686C255.962 205.761 255.51 205.887 255.006 206.064V205.042C255.36 204.883 255.766 204.762 256.224 204.678C256.681 204.585 257.11 204.538 257.512 204.538C259.35 204.538 260.27 205.355 260.27 206.988V212H259.416ZM256.924 211.146C257.353 211.146 257.754 211.025 258.128 210.782C258.501 210.53 258.8 210.189 259.024 209.76V208.374H257.456C256.821 208.374 256.35 208.491 256.042 208.724C255.743 208.948 255.594 209.298 255.594 209.774C255.594 210.194 255.71 210.53 255.944 210.782C256.186 211.025 256.513 211.146 256.924 211.146ZM262.541 209.774V205.728H261.281V205.084L262.541 204.664L263.045 202.676H263.801V204.692H265.383V205.728H263.801V209.76C263.801 210.563 264.146 210.964 264.837 210.964C264.949 210.964 265.056 210.959 265.159 210.95C265.271 210.931 265.374 210.917 265.467 210.908V212C265.336 212.028 265.201 212.047 265.061 212.056C264.93 212.065 264.79 212.07 264.641 212.07C263.922 212.07 263.39 211.883 263.045 211.51C262.709 211.137 262.541 210.558 262.541 209.774ZM266.988 202.998V201.864H268.528V202.998H266.988ZM267.282 212V205.672L266.554 205.21V204.692H268.542V212H267.282ZM270.643 212V204.692H271.497L271.721 205.938C272.029 205.49 272.407 205.145 272.855 204.902C273.303 204.659 273.807 204.538 274.367 204.538C275.207 204.538 275.851 204.79 276.299 205.294C276.747 205.798 276.971 206.526 276.971 207.478V212H275.711V207.52C275.711 206.251 275.16 205.616 274.059 205.616C273.592 205.616 273.163 205.761 272.771 206.05C272.388 206.33 272.099 206.713 271.903 207.198V212H270.643ZM278.842 211.118L278.59 210.39L279.696 208.682C279.248 208.243 279.024 207.683 279.024 207.002C279.024 206.227 279.29 205.625 279.822 205.196C280.364 204.757 281.11 204.538 282.062 204.538C282.548 204.538 282.986 204.608 283.378 204.748L285.73 204.72V205.35L284.75 205.658C285.114 206.013 285.296 206.475 285.296 207.044C285.296 207.809 285.016 208.407 284.456 208.836C283.906 209.265 283.14 209.48 282.16 209.48C281.554 209.48 281.022 209.391 280.564 209.214L279.934 210.194L283.504 210.684C284.279 210.787 284.844 211.001 285.198 211.328C285.562 211.655 285.744 212.103 285.744 212.672C285.744 213.381 285.422 213.941 284.778 214.352C284.144 214.763 283.271 214.968 282.16 214.968C281.04 214.968 280.177 214.786 279.57 214.422C278.973 214.067 278.674 213.554 278.674 212.882C278.674 212.247 278.968 211.692 279.556 211.216L278.842 211.118ZM280.228 207.002C280.228 208.001 280.872 208.5 282.16 208.5C283.448 208.5 284.092 208.001 284.092 207.002C284.092 206.003 283.448 205.504 282.16 205.504C280.872 205.504 280.228 206.003 280.228 207.002ZM279.906 212.658C279.906 213.535 280.658 213.974 282.16 213.974C282.879 213.974 283.444 213.857 283.854 213.624C284.274 213.4 284.484 213.097 284.484 212.714C284.484 212.425 284.396 212.205 284.218 212.056C284.05 211.907 283.747 211.799 283.308 211.734L280.536 211.356C280.116 211.72 279.906 212.154 279.906 212.658ZM290.647 212V201.822H291.949V212H290.647ZM294.215 212V201.822H297.547C299.908 201.822 301.089 202.9 301.089 205.056C301.089 207.212 299.908 208.29 297.547 208.29H295.503V212H294.215ZM297.281 202.858H295.503V207.254H297.281C298.158 207.254 298.793 207.077 299.185 206.722C299.586 206.367 299.787 205.812 299.787 205.056C299.787 204.3 299.586 203.745 299.185 203.39C298.793 203.035 298.158 202.858 297.281 202.858Z" fill="#312D2A"/>
<rect width="115" height="14" transform="translate(210 313)" fill="white"/>
<path d="M215.15 325V314.822H218.202C219.844 314.822 221.081 315.251 221.912 316.11C222.752 316.969 223.172 318.238 223.172 319.918C223.172 321.598 222.752 322.867 221.912 323.726C221.081 324.575 219.844 325 218.202 325H215.15ZM218.174 315.928H216.452V323.894H218.174C219.406 323.894 220.325 323.567 220.932 322.914C221.538 322.261 221.842 321.262 221.842 319.918C221.842 317.258 220.619 315.928 218.174 315.928ZM224.966 325V314.822H228.424C230.785 314.822 231.966 315.821 231.966 317.818C231.966 319.377 231.173 320.338 229.586 320.702L232.414 325H230.93L228.354 320.968L226.254 320.632V325H224.966ZM226.254 319.764H227.808C228.853 319.764 229.591 319.619 230.02 319.33C230.449 319.031 230.664 318.527 230.664 317.818C230.664 317.333 230.575 316.95 230.398 316.67C230.221 316.381 229.922 316.175 229.502 316.054C229.091 315.923 228.527 315.858 227.808 315.858H226.254V319.764ZM233.743 325V314.822H237.005C238.228 314.822 239.124 315.046 239.693 315.494C240.263 315.933 240.547 316.628 240.547 317.58C240.547 318.047 240.421 318.457 240.169 318.812C239.917 319.157 239.563 319.433 239.105 319.638C240.356 319.993 240.981 320.819 240.981 322.116C240.981 324.039 239.698 325 237.131 325H233.743ZM234.989 319.232H236.767C237.654 319.232 238.289 319.106 238.671 318.854C239.063 318.602 239.259 318.177 239.259 317.58C239.259 316.955 239.068 316.516 238.685 316.264C238.303 316.003 237.663 315.872 236.767 315.872H234.989V319.232ZM234.989 323.936H236.963C237.953 323.936 238.653 323.801 239.063 323.53C239.474 323.25 239.679 322.783 239.679 322.13C239.679 321.467 239.469 320.996 239.049 320.716C238.629 320.436 237.934 320.296 236.963 320.296H234.989V323.936ZM242.575 325V314.822H245.627C247.27 314.822 248.507 315.251 249.337 316.11C250.177 316.969 250.597 318.238 250.597 319.918C250.597 321.598 250.177 322.867 249.337 323.726C248.507 324.575 247.27 325 245.627 325H242.575ZM245.599 315.928H243.877V323.894H245.599C246.831 323.894 247.751 323.567 248.357 322.914C248.964 322.261 249.267 321.262 249.267 319.918C249.267 317.258 248.045 315.928 245.599 315.928ZM255.739 325V317.692H256.593L256.845 319.064C257.321 318.14 258.003 317.678 258.889 317.678C259.076 317.678 259.239 317.692 259.379 317.72V318.826H259.057C258.525 318.826 258.082 318.975 257.727 319.274C257.373 319.573 257.13 320.007 256.999 320.576V325H255.739ZM266.164 324.636C265.902 324.795 265.552 324.921 265.114 325.014C264.684 325.107 264.213 325.154 263.7 325.154C262.542 325.154 261.665 324.827 261.068 324.174C260.48 323.511 260.186 322.545 260.186 321.276C260.186 320.053 260.466 319.125 261.026 318.49C261.595 317.855 262.407 317.538 263.462 317.538C265.496 317.538 266.514 318.663 266.514 320.912V321.724H261.46C261.516 322.545 261.735 323.147 262.118 323.53C262.5 323.903 263.07 324.09 263.826 324.09C264.246 324.09 264.642 324.048 265.016 323.964C265.389 323.88 265.772 323.749 266.164 323.572V324.636ZM263.462 318.574C262.846 318.574 262.365 318.761 262.02 319.134C261.684 319.498 261.497 320.03 261.46 320.73H265.296C265.296 319.965 265.151 319.414 264.862 319.078C264.582 318.742 264.115 318.574 263.462 318.574ZM268.113 327.814V317.692H268.967L269.177 318.868C269.457 318.448 269.811 318.121 270.241 317.888C270.679 317.655 271.151 317.538 271.655 317.538C272.625 317.538 273.381 317.874 273.923 318.546C274.464 319.209 274.735 320.137 274.735 321.332C274.735 322.536 274.459 323.474 273.909 324.146C273.367 324.818 272.607 325.154 271.627 325.154C271.216 325.154 270.815 325.075 270.423 324.916C270.031 324.757 269.681 324.533 269.373 324.244V327.814H268.113ZM271.459 318.56C271.02 318.56 270.614 318.681 270.241 318.924C269.877 319.157 269.587 319.479 269.373 319.89V323.138C269.942 323.801 270.619 324.132 271.403 324.132C272.065 324.132 272.569 323.894 272.915 323.418C273.269 322.942 273.447 322.251 273.447 321.346C273.447 320.459 273.274 319.773 272.929 319.288C272.583 318.803 272.093 318.56 271.459 318.56ZM276.234 325V315.466L275.506 315.004V314.486H277.494V325H276.234ZM279.415 315.998V314.864H280.955V315.998H279.415ZM279.709 325V318.672L278.981 318.21V317.692H280.969V325H279.709ZM288.222 323.6V324.636C287.643 324.981 286.91 325.154 286.024 325.154C284.894 325.154 284.04 324.827 283.462 324.174C282.892 323.511 282.608 322.541 282.608 321.262C282.608 320.077 282.911 319.162 283.518 318.518C284.124 317.865 284.983 317.538 286.094 317.538C286.784 317.538 287.424 317.692 288.012 318V319.036C287.396 318.728 286.822 318.574 286.29 318.574C284.694 318.574 283.896 319.47 283.896 321.262C283.896 322.233 284.078 322.951 284.442 323.418C284.815 323.885 285.398 324.118 286.192 324.118C286.509 324.118 286.831 324.076 287.158 323.992C287.484 323.908 287.839 323.777 288.222 323.6ZM294.319 325L294.109 323.824C293.512 324.711 292.7 325.154 291.673 325.154C290.936 325.154 290.343 324.949 289.895 324.538C289.456 324.118 289.237 323.563 289.237 322.872C289.237 322.107 289.498 321.514 290.021 321.094C290.553 320.665 291.29 320.45 292.233 320.45H293.913V319.988C293.913 319.465 293.796 319.097 293.563 318.882C293.339 318.667 292.952 318.56 292.401 318.56C292.046 318.56 291.668 318.602 291.267 318.686C290.866 318.761 290.413 318.887 289.909 319.064V318.042C290.264 317.883 290.67 317.762 291.127 317.678C291.584 317.585 292.014 317.538 292.415 317.538C294.254 317.538 295.173 318.355 295.173 319.988V325H294.319ZM291.827 324.146C292.256 324.146 292.658 324.025 293.031 323.782C293.404 323.53 293.703 323.189 293.927 322.76V321.374H292.359C291.724 321.374 291.253 321.491 290.945 321.724C290.646 321.948 290.497 322.298 290.497 322.774C290.497 323.194 290.614 323.53 290.847 323.782C291.09 324.025 291.416 324.146 291.827 324.146ZM297.444 322.774V318.728H296.184V318.084L297.444 317.664L297.948 315.676H298.704V317.692H300.286V318.728H298.704V322.76C298.704 323.563 299.05 323.964 299.74 323.964C299.852 323.964 299.96 323.959 300.062 323.95C300.174 323.931 300.277 323.917 300.37 323.908V325C300.24 325.028 300.104 325.047 299.964 325.056C299.834 325.065 299.694 325.07 299.544 325.07C298.826 325.07 298.294 324.883 297.948 324.51C297.612 324.137 297.444 323.558 297.444 322.774ZM301.891 315.998V314.864H303.431V315.998H301.891ZM302.185 325V318.672L301.457 318.21V317.692H303.445V325H302.185ZM308.556 325.154C307.455 325.154 306.601 324.818 305.994 324.146C305.387 323.465 305.084 322.531 305.084 321.346C305.084 320.151 305.387 319.218 305.994 318.546C306.601 317.874 307.455 317.538 308.556 317.538C309.667 317.538 310.525 317.874 311.132 318.546C311.739 319.218 312.042 320.151 312.042 321.346C312.042 322.531 311.739 323.465 311.132 324.146C310.525 324.818 309.667 325.154 308.556 325.154ZM308.556 324.118C309.275 324.118 309.821 323.885 310.194 323.418C310.567 322.942 310.754 322.251 310.754 321.346C310.754 320.441 310.567 319.755 310.194 319.288C309.821 318.812 309.275 318.574 308.556 318.574C307.847 318.574 307.305 318.812 306.932 319.288C306.559 319.755 306.372 320.441 306.372 321.346C306.372 322.251 306.559 322.942 306.932 323.418C307.305 323.885 307.847 324.118 308.556 324.118ZM313.681 325V317.692H314.535L314.759 318.938C315.067 318.49 315.445 318.145 315.893 317.902C316.341 317.659 316.845 317.538 317.405 317.538C318.245 317.538 318.889 317.79 319.337 318.294C319.785 318.798 320.009 319.526 320.009 320.478V325H318.749V320.52C318.749 319.251 318.198 318.616 317.097 318.616C316.63 318.616 316.201 318.761 315.809 319.05C315.426 319.33 315.137 319.713 314.941 320.198V325H313.681Z" fill="#312D2A"/>
<rect width="108" height="30" transform="translate(214 496)" fill="white"/>
<path d="M219.191 498.998V497.864H220.731V498.998H219.191ZM219.485 508V501.672L218.757 501.21V500.692H220.745V508H219.485ZM222.496 507.552V506.404C223.523 506.824 224.503 507.034 225.436 507.034C226.22 507.034 226.831 506.88 227.27 506.572C227.718 506.264 227.942 505.839 227.942 505.298C227.942 504.897 227.807 504.565 227.536 504.304C227.265 504.043 226.775 503.777 226.066 503.506L224.988 503.086C224.083 502.731 223.429 502.339 223.028 501.91C222.636 501.471 222.44 500.958 222.44 500.37C222.44 499.53 222.757 498.867 223.392 498.382C224.027 497.897 224.895 497.654 225.996 497.654C226.453 497.654 226.925 497.71 227.41 497.822C227.895 497.925 228.311 498.069 228.656 498.256V499.404C227.704 498.993 226.827 498.788 226.024 498.788C224.503 498.788 223.742 499.306 223.742 500.342C223.742 500.687 223.877 500.981 224.148 501.224C224.419 501.467 224.895 501.723 225.576 501.994L226.654 502.414C227.587 502.778 228.25 503.189 228.642 503.646C229.043 504.094 229.244 504.635 229.244 505.27C229.244 506.185 228.917 506.899 228.264 507.412C227.62 507.916 226.715 508.168 225.548 508.168C225.193 508.168 224.82 508.14 224.428 508.084C224.045 508.028 223.686 507.953 223.35 507.86C223.014 507.767 222.729 507.664 222.496 507.552ZM238.124 506.39V507.51C237.751 507.715 237.308 507.879 236.794 508C236.29 508.112 235.777 508.168 235.254 508.168C233.742 508.168 232.571 507.706 231.74 506.782C230.919 505.849 230.508 504.523 230.508 502.806C230.508 501.733 230.7 500.813 231.082 500.048C231.474 499.283 232.03 498.695 232.748 498.284C233.467 497.864 234.321 497.654 235.31 497.654C235.749 497.654 236.192 497.71 236.64 497.822C237.098 497.934 237.471 498.088 237.76 498.284V499.404C237.275 499.189 236.85 499.035 236.486 498.942C236.122 498.849 235.758 498.802 235.394 498.802C234.274 498.802 233.402 499.152 232.776 499.852C232.151 500.543 231.838 501.527 231.838 502.806C231.838 504.159 232.146 505.2 232.762 505.928C233.388 506.656 234.265 507.02 235.394 507.02C236.234 507.02 237.144 506.81 238.124 506.39ZM239.435 507.552V506.404C240.462 506.824 241.442 507.034 242.375 507.034C243.159 507.034 243.771 506.88 244.209 506.572C244.657 506.264 244.881 505.839 244.881 505.298C244.881 504.897 244.746 504.565 244.475 504.304C244.205 504.043 243.715 503.777 243.005 503.506L241.927 503.086C241.022 502.731 240.369 502.339 239.967 501.91C239.575 501.471 239.379 500.958 239.379 500.37C239.379 499.53 239.697 498.867 240.331 498.382C240.966 497.897 241.834 497.654 242.935 497.654C243.393 497.654 243.864 497.71 244.349 497.822C244.835 497.925 245.25 498.069 245.595 498.256V499.404C244.643 498.993 243.766 498.788 242.963 498.788C241.442 498.788 240.681 499.306 240.681 500.342C240.681 500.687 240.817 500.981 241.087 501.224C241.358 501.467 241.834 501.723 242.515 501.994L243.593 502.414C244.527 502.778 245.189 503.189 245.581 503.646C245.983 504.094 246.183 504.635 246.183 505.27C246.183 506.185 245.857 506.899 245.203 507.412C244.559 507.916 243.654 508.168 242.487 508.168C242.133 508.168 241.759 508.14 241.367 508.084C240.985 508.028 240.625 507.953 240.289 507.86C239.953 507.767 239.669 507.664 239.435 507.552ZM247.854 508V497.822H249.156V508H247.854ZM254.77 508V500.692H255.624L255.848 501.91C256.118 501.49 256.459 501.159 256.87 500.916C257.29 500.664 257.747 500.538 258.242 500.538C259.324 500.538 260.057 501.005 260.44 501.938C260.701 501.518 261.051 501.182 261.49 500.93C261.928 500.669 262.409 500.538 262.932 500.538C263.725 500.538 264.332 500.79 264.752 501.294C265.172 501.789 265.382 502.517 265.382 503.478V508H264.122V503.506C264.122 502.246 263.632 501.616 262.652 501.616C262.176 501.616 261.765 501.751 261.42 502.022C261.084 502.283 260.846 502.647 260.706 503.114V508H259.46V503.506C259.46 502.246 258.956 501.616 257.948 501.616C257.49 501.616 257.089 501.761 256.744 502.05C256.398 502.33 256.16 502.713 256.03 503.198V508H254.77ZM270.426 508.154C269.325 508.154 268.471 507.818 267.864 507.146C267.258 506.465 266.954 505.531 266.954 504.346C266.954 503.151 267.258 502.218 267.864 501.546C268.471 500.874 269.325 500.538 270.426 500.538C271.537 500.538 272.396 500.874 273.002 501.546C273.609 502.218 273.912 503.151 273.912 504.346C273.912 505.531 273.609 506.465 273.002 507.146C272.396 507.818 271.537 508.154 270.426 508.154ZM270.426 507.118C271.145 507.118 271.691 506.885 272.064 506.418C272.438 505.942 272.624 505.251 272.624 504.346C272.624 503.441 272.438 502.755 272.064 502.288C271.691 501.812 271.145 501.574 270.426 501.574C269.717 501.574 269.176 501.812 268.802 502.288C268.429 502.755 268.242 503.441 268.242 504.346C268.242 505.251 268.429 505.942 268.802 506.418C269.176 506.885 269.717 507.118 270.426 507.118ZM275.481 505.214V500.692H276.741V505.172C276.741 505.797 276.876 506.278 277.147 506.614C277.418 506.95 277.814 507.118 278.337 507.118C278.776 507.118 279.186 506.969 279.569 506.67C279.961 506.362 280.255 505.956 280.451 505.452V500.692H281.711V508H280.857L280.633 506.754C280.334 507.202 279.956 507.547 279.499 507.79C279.051 508.033 278.561 508.154 278.029 508.154C277.217 508.154 276.587 507.902 276.139 507.398C275.7 506.894 275.481 506.166 275.481 505.214ZM283.809 508V500.692H284.663L284.887 501.938C285.195 501.49 285.573 501.145 286.021 500.902C286.469 500.659 286.973 500.538 287.533 500.538C288.373 500.538 289.017 500.79 289.465 501.294C289.913 501.798 290.137 502.526 290.137 503.478V508H288.877V503.52C288.877 502.251 288.326 501.616 287.225 501.616C286.758 501.616 286.329 501.761 285.937 502.05C285.554 502.33 285.265 502.713 285.069 503.198V508H283.809ZM292.4 505.774V501.728H291.14V501.084L292.4 500.664L292.904 498.676H293.66V500.692H295.242V501.728H293.66V505.76C293.66 506.563 294.006 506.964 294.696 506.964C294.808 506.964 294.916 506.959 295.018 506.95C295.13 506.931 295.233 506.917 295.326 506.908V508C295.196 508.028 295.06 508.047 294.92 508.056C294.79 508.065 294.65 508.07 294.5 508.07C293.782 508.07 293.25 507.883 292.904 507.51C292.568 507.137 292.4 506.558 292.4 505.774ZM302.34 508L299.47 500.692H300.786L302.9 506.488L305 500.692H306.288L303.404 508H302.34ZM307.621 498.998V497.864H309.161V498.998H307.621ZM307.915 508V501.672L307.187 501.21V500.692H309.175V508H307.915ZM315.84 508L315.63 506.824C315.032 507.711 314.22 508.154 313.194 508.154C312.456 508.154 311.864 507.949 311.416 507.538C310.977 507.118 310.758 506.563 310.758 505.872C310.758 505.107 311.019 504.514 311.542 504.094C312.074 503.665 312.811 503.45 313.754 503.45H315.434V502.988C315.434 502.465 315.317 502.097 315.084 501.882C314.86 501.667 314.472 501.56 313.922 501.56C313.567 501.56 313.189 501.602 312.788 501.686C312.386 501.761 311.934 501.887 311.43 502.064V501.042C311.784 500.883 312.19 500.762 312.648 500.678C313.105 500.585 313.534 500.538 313.936 500.538C315.774 500.538 316.694 501.355 316.694 502.988V508H315.84ZM313.348 507.146C313.777 507.146 314.178 507.025 314.552 506.782C314.925 506.53 315.224 506.189 315.448 505.76V504.374H313.88C313.245 504.374 312.774 504.491 312.466 504.724C312.167 504.948 312.018 505.298 312.018 505.774C312.018 506.194 312.134 506.53 312.368 506.782C312.61 507.025 312.937 507.146 313.348 507.146ZM235.617 524V513.822H241.763V514.942H236.919V518.498H241.273V519.618H236.919V524H235.617ZM243.354 524V514.466L242.626 514.004V513.486H244.614V524H243.354ZM249.727 524.154C248.626 524.154 247.772 523.818 247.165 523.146C246.558 522.465 246.255 521.531 246.255 520.346C246.255 519.151 246.558 518.218 247.165 517.546C247.772 516.874 248.626 516.538 249.727 516.538C250.838 516.538 251.696 516.874 252.303 517.546C252.91 518.218 253.213 519.151 253.213 520.346C253.213 521.531 252.91 522.465 252.303 523.146C251.696 523.818 250.838 524.154 249.727 524.154ZM249.727 523.118C250.446 523.118 250.992 522.885 251.365 522.418C251.738 521.942 251.925 521.251 251.925 520.346C251.925 519.441 251.738 518.755 251.365 518.288C250.992 517.812 250.446 517.574 249.727 517.574C249.018 517.574 248.476 517.812 248.103 518.288C247.73 518.755 247.543 519.441 247.543 520.346C247.543 521.251 247.73 521.942 248.103 522.418C248.476 522.885 249.018 523.118 249.727 523.118ZM259.416 524L259.206 522.824C258.608 523.711 257.796 524.154 256.77 524.154C256.032 524.154 255.44 523.949 254.992 523.538C254.553 523.118 254.334 522.563 254.334 521.872C254.334 521.107 254.595 520.514 255.118 520.094C255.65 519.665 256.387 519.45 257.33 519.45H259.01V518.988C259.01 518.465 258.893 518.097 258.66 517.882C258.436 517.667 258.048 517.56 257.498 517.56C257.143 517.56 256.765 517.602 256.364 517.686C255.962 517.761 255.51 517.887 255.006 518.064V517.042C255.36 516.883 255.766 516.762 256.224 516.678C256.681 516.585 257.11 516.538 257.512 516.538C259.35 516.538 260.27 517.355 260.27 518.988V524H259.416ZM256.924 523.146C257.353 523.146 257.754 523.025 258.128 522.782C258.501 522.53 258.8 522.189 259.024 521.76V520.374H257.456C256.821 520.374 256.35 520.491 256.042 520.724C255.743 520.948 255.594 521.298 255.594 521.774C255.594 522.194 255.71 522.53 255.944 522.782C256.186 523.025 256.513 523.146 256.924 523.146ZM262.541 521.774V517.728H261.281V517.084L262.541 516.664L263.045 514.676H263.801V516.692H265.383V517.728H263.801V521.76C263.801 522.563 264.146 522.964 264.837 522.964C264.949 522.964 265.056 522.959 265.159 522.95C265.271 522.931 265.374 522.917 265.467 522.908V524C265.336 524.028 265.201 524.047 265.061 524.056C264.93 524.065 264.79 524.07 264.641 524.07C263.922 524.07 263.39 523.883 263.045 523.51C262.709 523.137 262.541 522.558 262.541 521.774ZM266.988 514.998V513.864H268.528V514.998H266.988ZM267.282 524V517.672L266.554 517.21V516.692H268.542V524H267.282ZM270.643 524V516.692H271.497L271.721 517.938C272.029 517.49 272.407 517.145 272.855 516.902C273.303 516.659 273.807 516.538 274.367 516.538C275.207 516.538 275.851 516.79 276.299 517.294C276.747 517.798 276.971 518.526 276.971 519.478V524H275.711V519.52C275.711 518.251 275.16 517.616 274.059 517.616C273.592 517.616 273.163 517.761 272.771 518.05C272.388 518.33 272.099 518.713 271.903 519.198V524H270.643ZM278.842 523.118L278.59 522.39L279.696 520.682C279.248 520.243 279.024 519.683 279.024 519.002C279.024 518.227 279.29 517.625 279.822 517.196C280.364 516.757 281.11 516.538 282.062 516.538C282.548 516.538 282.986 516.608 283.378 516.748L285.73 516.72V517.35L284.75 517.658C285.114 518.013 285.296 518.475 285.296 519.044C285.296 519.809 285.016 520.407 284.456 520.836C283.906 521.265 283.14 521.48 282.16 521.48C281.554 521.48 281.022 521.391 280.564 521.214L279.934 522.194L283.504 522.684C284.279 522.787 284.844 523.001 285.198 523.328C285.562 523.655 285.744 524.103 285.744 524.672C285.744 525.381 285.422 525.941 284.778 526.352C284.144 526.763 283.271 526.968 282.16 526.968C281.04 526.968 280.177 526.786 279.57 526.422C278.973 526.067 278.674 525.554 278.674 524.882C278.674 524.247 278.968 523.692 279.556 523.216L278.842 523.118ZM280.228 519.002C280.228 520.001 280.872 520.5 282.16 520.5C283.448 520.5 284.092 520.001 284.092 519.002C284.092 518.003 283.448 517.504 282.16 517.504C280.872 517.504 280.228 518.003 280.228 519.002ZM279.906 524.658C279.906 525.535 280.658 525.974 282.16 525.974C282.879 525.974 283.444 525.857 283.854 525.624C284.274 525.4 284.484 525.097 284.484 524.714C284.484 524.425 284.396 524.205 284.218 524.056C284.05 523.907 283.747 523.799 283.308 523.734L280.536 523.356C280.116 523.72 279.906 524.154 279.906 524.658ZM290.647 524V513.822H291.949V524H290.647ZM294.215 524V513.822H297.547C299.908 513.822 301.089 514.9 301.089 517.056C301.089 519.212 299.908 520.29 297.547 520.29H295.503V524H294.215ZM297.281 514.858H295.503V519.254H297.281C298.158 519.254 298.793 519.077 299.185 518.722C299.586 518.367 299.787 517.812 299.787 517.056C299.787 516.3 299.586 515.745 299.185 515.39C298.793 515.035 298.158 514.858 297.281 514.858Z" fill="#312D2A"/>
</g>
<defs>
<clipPath id="clip0_15430_1345">
<rect width="536" height="649" fill="white"/>
</clipPath>
</defs>
</svg>
