<svg width="1133" height="598" viewBox="0 0 1133 598" fill="none" xmlns="http://www.w3.org/2000/svg">
<g id="routing-via-enterprise-manager" clip-path="url(#clip0_14015_324482)">
<rect width="1133" height="598" fill="white"/>
<g id="Group 1260">
<g id="OCI Region">
<rect x="678.5" y="0.5" width="454" height="597" rx="3.5" fill="#F5F4F2"/>
<rect x="678.5" y="0.5" width="454" height="597" rx="3.5" stroke="#9E9892"/>
<text id="OCI Region_2" fill="#312D2A" xml:space="preserve" style="white-space: pre" font-family="Oracle Sans" font-size="16" font-weight="bold" letter-spacing="0em"><tspan x="686" y="21.816">OCI Region</tspan></text>
</g>
<path id="Vector 77" d="M956.707 273.707C957.098 273.317 957.098 272.683 956.707 272.293L950.343 265.929C949.953 265.538 949.319 265.538 948.929 265.929C948.538 266.319 948.538 266.953 948.929 267.343L954.586 273L948.929 278.657C948.538 279.047 948.538 279.681 948.929 280.071C949.319 280.462 949.953 280.462 950.343 280.071L956.707 273.707ZM859 274H956V272H859V274Z" fill="#312D2A"/>
<g id="OCI Region_3">
<rect x="0.5" y="0.5" width="422" height="597" rx="3.5" fill="#F5F4F2"/>
<rect x="0.5" y="0.5" width="422" height="597" rx="3.5" stroke="#9E9892"/>
<text id="OCI Region_4" fill="#312D2A" xml:space="preserve" style="white-space: pre" font-family="Oracle Sans" font-size="16" font-weight="bold" letter-spacing="0em"><tspan x="82.7656" y="21.816">On-Premises or Third Party Cloud</tspan></text>
</g>
<g id="OCI Region_5">
<rect x="438.5" y="0.5" width="223" height="597" rx="3.5" fill="#F5F4F2"/>
<rect x="438.5" y="0.5" width="223" height="597" rx="3.5" stroke="#9E9892"/>
<text id="OCI Region_6" fill="#312D2A" xml:space="preserve" style="white-space: pre" font-family="Oracle Sans" font-size="16" font-weight="bold" letter-spacing="0em"><tspan x="518.992" y="21.816">Internet</tspan></text>
</g>
<g id="OCI Region_7">
<rect x="8.5" y="59.5" width="111" height="285" rx="3.5" fill="white"/>
<rect x="8.5" y="59.5" width="111" height="285" rx="3.5" stroke="#9E9892"/>
</g>
<g id="OCI Region_8">
<rect x="195.5" y="59.5" width="218" height="399" rx="3.5" fill="white"/>
<rect x="195.5" y="59.5" width="218" height="399" rx="3.5" stroke="#9E9892"/>
</g>
<g id="OCI Region_9">
<rect x="252.5" y="188.5" width="473" height="174" rx="3.5" fill="white" fill-opacity="0.5"/>
<rect x="252.5" y="188.5" width="473" height="174" rx="3.5" stroke="#312D2A" stroke-dasharray="2 2"/>
<text id="Fault Domain" fill="#312D2A" xml:space="preserve" style="white-space: pre" font-family="Oracle Sans" font-size="16" font-weight="600" letter-spacing="0em"><tspan x="412.523" y="209.816">        Site-to-Site VPN</tspan></text>
</g>
<g id="Oracle Services Network">
<rect x="940" y="113" width="183" height="475" stroke="#9E9892" stroke-width="2" stroke-dasharray="8 4"/>
<text id="Oracle Services Network_2" fill="#312D2A" xml:space="preserve" style="white-space: pre" font-family="Oracle Sans" font-size="16" font-weight="600" letter-spacing="0em"><tspan x="947" y="133.816">Oracle Services</tspan></text>
<text id="Oracle Services Network_3" fill="#312D2A" xml:space="preserve" style="white-space: pre" font-family="Oracle Sans" font-size="16" font-weight="600" letter-spacing="0em"><tspan x="947" y="149.816">Network</tspan></text>
<rect id="Rectangle 692" x="1073" y="112" width="44" height="2" fill="#F5F4F2"/>
<g id="Oracle Services Network_4">
<g id="Group 747">
<path id="Vector" d="M1098.15 128.837L1098.15 127.486L1091.84 127.486L1091.84 128.837L1087.42 131.388L1083.01 128.837L1083.01 123.735L1084.13 123.091L1080.99 117.637L1079.85 118.29L1075.43 115.739L1075.43 110.646L1079.85 108.095L1081.07 108.802L1084.14 103.365L1083.01 102.712L1083.01 97.6189L1087.42 95.0681L1091.84 97.6189L1091.84 98.9693L1098.15 98.9693L1098.15 97.6189L1102.57 95.0681L1106.98 97.6189L1106.98 102.712L1105.87 103.365L1108.99 108.757L1110.14 108.095L1114.56 110.646L1114.56 115.739L1110.14 118.29L1109.07 117.672L1105.87 123.1L1106.98 123.735L1106.98 128.837L1102.57 131.388L1098.15 128.837Z" fill="white"/>
<path id="Vector_2" d="M1102.57 95.5709L1106.55 97.8745L1106.55 102.499L1105.26 103.241L1108.79 109.419L1110.1 108.66L1114.08 110.955L1114.08 115.553L1110.1 117.848L1108.88 117.133L1105.23 123.311L1106.51 124.044L1106.51 128.634L1102.53 130.928L1098.56 128.634L1098.56 127.045L1091.4 127.045L1091.4 128.581L1087.42 130.875L1083.45 128.581L1083.45 123.991L1084.7 123.25L1081.17 117.071L1079.86 117.83L1075.88 115.491L1075.88 110.893L1079.85 108.598L1081.24 109.401L1084.77 103.223L1083.45 102.499L1083.45 97.8745L1087.42 95.5709L1091.4 97.8745L1091.4 99.4103L1098.59 99.4103L1098.59 97.8745L1102.57 95.5709ZM1102.57 94.5559L1102.12 94.8119L1098.15 97.1067L1097.71 97.3626L1097.71 98.5277L1092.28 98.5277L1092.28 97.3626L1091.84 97.1067L1087.86 94.8119L1087.42 94.5559L1086.98 94.8119L1083.01 97.1067L1082.57 97.3626L1082.57 102.967L1083.01 103.223L1083.54 103.532L1080.89 108.192L1080.27 107.839L1079.83 107.583L1079.39 107.839L1075.43 110.134L1074.99 110.39L1074.99 115.995L1075.43 116.251L1079.41 118.545L1079.85 118.801L1080.29 118.545L1080.83 118.236L1083.53 122.932L1083.01 123.232L1082.57 123.488L1082.57 129.093L1083.01 129.348L1086.98 131.643L1087.42 131.899L1087.86 131.643L1091.84 129.348L1092.28 129.093L1092.28 127.927L1097.71 127.927L1097.71 129.093L1098.15 129.348L1102.12 131.643L1102.57 131.899L1103.01 131.643L1106.99 129.348L1107.43 129.093L1107.43 123.488L1106.99 123.232L1106.48 122.941L1109.23 118.272L1109.7 118.545L1110.14 118.801L1110.58 118.545L1114.55 116.251L1114.99 115.995L1114.99 110.39L1114.55 110.134L1110.58 107.839L1110.14 107.583L1109.7 107.839L1109.15 108.157L1106.5 103.523L1107.02 103.223L1107.46 102.967L1107.46 97.3626L1107.02 97.1067L1103.01 94.8119L1102.57 94.5559Z" fill="white"/>
<path id="Vector_3" d="M1110.14 108.598L1108.82 109.357L1105.29 103.179L1106.55 102.5L1106.55 97.8747L1102.57 95.571L1098.59 97.8747L1098.59 99.4104L1091.4 99.4104L1091.4 97.8747L1087.42 95.571L1083.45 97.8747L1083.45 102.5L1084.7 103.206L1081.17 109.384L1079.85 108.598L1075.88 110.893L1075.88 115.492L1079.85 117.786L1081.17 117.027L1084.7 123.206L1083.42 123.947L1083.42 128.537L1087.39 130.831L1091.37 128.537L1091.37 127.045L1098.57 127.045L1098.57 128.581L1102.54 130.876L1106.52 128.581L1106.52 123.991L1105.24 123.259L1108.89 117.08L1110.11 117.795L1114.08 115.5L1114.08 110.893L1110.14 108.598ZM1100.1 98.7485L1102.57 97.3274L1105 98.7485L1105 101.617L1102.57 103.011L1100.1 101.617L1100.1 98.7485ZM1084.97 98.7485L1087.42 97.3274L1089.88 98.7485L1089.88 101.617L1087.42 103.011L1084.97 101.617L1084.97 98.7485ZM1077.39 114.635L1077.39 111.776L1079.85 110.355L1082.31 111.776L1082.31 114.609L1079.85 116.03L1077.39 114.635ZM1089.88 127.707L1087.42 129.128L1084.97 127.707L1084.97 124.865L1087.42 123.444L1089.88 124.865L1089.88 127.707ZM1105.03 127.707L1102.57 129.128L1100.1 127.707L1100.1 124.865L1102.57 123.444L1105 124.865L1105.03 127.707ZM1103.95 122.5L1102.57 121.696L1101.33 122.411L1098.97 118.387L1097.21 118.387L1100.01 123.214L1098.58 124.035L1098.58 125.536L1091.4 125.536L1091.4 123.991L1090 123.17L1092.8 118.387L1091.03 118.387L1088.66 122.464L1087.41 121.741L1086.03 122.544L1082.5 116.365L1083.82 115.492L1083.82 113.974L1087.44 113.974C1087.83 113.387 1088.34 112.892 1088.95 112.526C1088.95 112.506 1088.95 112.485 1088.95 112.464L1083.82 112.464L1083.82 110.893L1082.54 110.161L1086.07 103.982L1087.44 104.777L1088.89 103.894L1092.19 109.596C1092.41 109.56 1092.63 109.543 1092.85 109.543L1092.92 109.543C1093.13 109.347 1093.36 109.17 1093.61 109.013L1090.18 103.162L1091.4 102.5L1091.4 100.92L1098.59 100.92L1098.59 102.5L1099.86 103.223L1096.83 108.431C1097.34 108.52 1097.83 108.693 1098.29 108.943L1101.17 103.982L1102.57 104.794L1103.95 103.991L1107.48 110.169L1106.13 110.946L1106.13 112.473L1102.58 112.473C1102.89 112.93 1103.11 113.438 1103.24 113.974L1106.14 113.974L1106.14 115.483L1107.57 116.304L1103.95 122.5ZM1112.6 114.609L1110.14 116.03L1107.65 114.609L1107.65 111.776L1110.11 110.355L1112.57 111.776L1112.6 114.609Z" fill="#2D5967"/>
<path id="Vector_4" d="M1101.64 117.204L1101.85 116.806C1102.28 116.013 1102.38 115.086 1102.15 114.217C1101.91 113.347 1101.36 112.6 1100.59 112.129C1100.25 111.913 1099.87 111.758 1099.48 111.67C1099.4 111.654 1099.33 111.621 1099.26 111.574C1099.2 111.527 1099.14 111.466 1099.11 111.396C1098.82 110.815 1098.38 110.326 1097.84 109.984C1097.29 109.642 1096.65 109.461 1096.01 109.463C1095.54 109.471 1095.08 109.573 1094.66 109.763C1094.23 109.952 1093.85 110.226 1093.53 110.566C1093.48 110.623 1093.41 110.666 1093.34 110.692C1093.27 110.718 1093.19 110.727 1093.11 110.716C1092.63 110.671 1092.14 110.753 1091.69 110.955C1091.26 111.139 1090.88 111.424 1090.59 111.787C1090.29 112.15 1090.09 112.579 1090 113.038C1089.98 113.111 1089.95 113.18 1089.91 113.241C1089.87 113.302 1089.81 113.353 1089.75 113.391C1089.19 113.681 1088.72 114.109 1088.37 114.634C1088.02 115.159 1087.81 115.764 1087.76 116.392L1087.7 117.204L1101.64 117.204ZM1091.49 113.329C1091.53 113.113 1091.63 112.91 1091.77 112.738C1091.9 112.566 1092.08 112.43 1092.28 112.34C1092.49 112.246 1092.72 112.206 1092.95 112.226C1093.26 112.258 1093.57 112.219 1093.86 112.11C1094.15 112.001 1094.41 111.826 1094.61 111.599C1094.83 111.366 1095.09 111.188 1095.39 111.083C1095.69 110.977 1096.01 110.945 1096.32 110.992C1096.63 111.038 1096.93 111.16 1097.19 111.347C1097.44 111.535 1097.65 111.782 1097.78 112.067C1097.92 112.339 1098.12 112.577 1098.36 112.764C1098.6 112.95 1098.88 113.08 1099.18 113.144C1099.4 113.197 1099.62 113.286 1099.82 113.408C1100.19 113.644 1100.48 113.992 1100.64 114.402C1100.8 114.812 1100.82 115.262 1100.7 115.686L1089.51 115.686C1089.72 115.275 1090.05 114.941 1090.46 114.732C1090.72 114.592 1090.96 114.392 1091.13 114.149C1091.31 113.906 1091.43 113.626 1091.49 113.329Z" fill="#2D5967"/>
</g>
</g>
</g>
<g id="Application Servers">
<g id="DUPLICATE-DO-NOT-USE-Application-Server">
<g id="Group 270">
<path id="Vector_5" d="M35.5989 127.402V125.412L38.1024 124.166H38.6654V78.2668H63.3051V124.166H63.868L66.3715 125.412V127.402H35.5989Z" fill="white"/>
<path id="Vector_6" d="M62.7061 78.8664V124.766H63.7483L65.7966 125.784V126.803H36.1978V125.784L38.2462 124.766H39.2643V78.8664H62.7061ZM63.904 77.668H38.0665V123.567H37.9587L37.7071 123.687L35.6588 124.706L35 125.041V128.001H66.9705V125.041L66.2997 124.706L64.2633 123.687L64.0118 123.567H63.904V77.668Z" fill="white"/>
<path id="Vector_7" d="M92.2688 88.4656H65.7725C64.5949 88.4656 63.6403 89.4206 63.6403 90.5988V115.574C63.6403 116.752 64.5949 117.707 65.7725 117.707H92.2688C93.4463 117.707 94.4009 116.752 94.4009 115.574V90.5988C94.4009 89.4206 93.4463 88.4656 92.2688 88.4656Z" fill="white"/>
<path id="Vector_8" d="M92.269 89.0649C92.6756 89.0649 93.0656 89.2265 93.3531 89.5142C93.6407 89.8018 93.8022 90.192 93.8022 90.5988V115.586C93.8022 115.993 93.6407 116.383 93.3531 116.67C93.0656 116.958 92.6756 117.12 92.269 117.12H65.7607C65.3561 117.117 64.9692 116.954 64.6842 116.666C64.3993 116.379 64.2394 115.991 64.2394 115.586V90.5988C64.2378 90.398 64.276 90.1988 64.3518 90.0127C64.4275 89.8267 64.5393 89.6575 64.6807 89.5149C64.8221 89.3723 64.9904 89.2591 65.1757 89.1819C65.3611 89.1046 65.5599 89.0649 65.7607 89.0649H92.269ZM92.269 87.8665H65.7607C65.0384 87.8696 64.3468 88.1589 63.8372 88.671C63.3277 89.1831 63.0416 89.8762 63.0416 90.5988V115.586C63.0416 116.308 63.3277 117.002 63.8372 117.514C64.3468 118.026 65.0384 118.315 65.7607 118.318H92.269C92.9923 118.315 93.6852 118.026 94.1966 117.514C94.7081 117.003 94.9969 116.309 95 115.586V90.5988C95 89.8742 94.7123 89.1792 94.2001 88.6668C93.688 88.1543 92.9933 87.8665 92.269 87.8665Z" fill="white"/>
<path id="Vector_9" d="M57.1002 87.5312H44.8702V89.5805H42.8339V91.6178H44.8702V93.6551H57.1002V91.6178H59.1365V89.5805H57.1002V87.5312ZM55.0638 91.6178H46.9065V89.5805H55.0638V91.6178Z" fill="#2D5967"/>
<path id="Vector_10" d="M59.1485 83.9717H42.8339V86.008H59.1485V83.9717Z" fill="#2D5967"/>
<path id="Vector_11" d="M59.1485 95.1892H42.8339V97.2255H59.1485V95.1892Z" fill="#2D5967"/>
<path id="Vector_12" d="M59.1485 119.66H42.8339V121.696H59.1485V119.66Z" fill="#2D5967"/>
<path id="Vector_13" d="M59.1485 116.089H42.8339V118.125H59.1485V116.089Z" fill="#2D5967"/>
<path id="Vector_14" d="M42.8339 114.567H59.1365V107.377H42.8339V114.567ZM44.8702 109.462H57.1002V112.53H44.8702V109.462Z" fill="#2D5967"/>
<path id="Vector_15" d="M42.8339 105.891H59.1365V98.76H42.8339V105.891ZM44.8702 100.797H57.1002V103.853H44.8702V100.797Z" fill="#2D5967"/>
<path id="Vector_16" d="M63.7484 124.765H62.7302V78.866H39.2644V124.765H38.2463L36.1979 125.784V126.802H65.7727V125.784L63.7484 124.765ZM41.3247 124.765V80.9033H60.6699V124.765H41.3247Z" fill="#2D5967"/>
<path id="Vector_17" d="M92.2689 89.0645H65.7606C65.5598 89.0644 65.361 89.1042 65.1757 89.1814C64.9903 89.2587 64.8221 89.3719 64.6807 89.5145C64.5393 89.6571 64.4275 89.8263 64.3517 90.0123C64.276 90.1983 64.2378 90.3975 64.2394 90.5984V115.585C64.2394 115.989 64.3996 116.376 64.6849 116.662C64.9702 116.947 65.3572 117.107 65.7606 117.107H92.2689C92.4697 117.109 92.6688 117.071 92.8548 116.995C93.0407 116.919 93.2098 116.807 93.3524 116.666C93.4949 116.524 93.608 116.356 93.6852 116.171C93.7624 115.985 93.8022 115.786 93.8022 115.585V90.5984C93.8022 90.1916 93.6406 89.8014 93.3531 89.5137C93.0655 89.2261 92.6756 89.0645 92.2689 89.0645ZM91.7658 91.1018V96.207H66.2757V91.1018H91.7658ZM66.2757 115.07V98.2922H91.7658V115.07H66.2757Z" fill="#2D5967"/>
<path id="Vector_18" d="M69.3301 94.6718C69.8924 94.6718 70.3483 94.216 70.3483 93.6537C70.3483 93.0913 69.8924 92.6355 69.3301 92.6355C68.7678 92.6355 68.312 93.0913 68.312 93.6537C68.312 94.216 68.7678 94.6718 69.3301 94.6718Z" fill="#2D5967"/>
<path id="Vector_19" d="M72.8997 94.6718C73.462 94.6718 73.9179 94.216 73.9179 93.6537C73.9179 93.0913 73.462 92.6355 72.8997 92.6355C72.3374 92.6355 71.8815 93.0913 71.8815 93.6537C71.8815 94.216 72.3374 94.6718 72.8997 94.6718Z" fill="#2D5967"/>
<path id="Vector_20" d="M76.4694 94.6718C77.0317 94.6718 77.4876 94.216 77.4876 93.6537C77.4876 93.0913 77.0317 92.6355 76.4694 92.6355C75.9071 92.6355 75.4512 93.0913 75.4512 93.6537C75.4512 94.216 75.9071 94.6718 76.4694 94.6718Z" fill="#2D5967"/>
<path id="Vector_21" d="M84.1117 101.348L82.3508 102.378C81.9038 102.021 81.4023 101.738 80.8655 101.54V99.7659H77.1522V101.54C76.5185 101.773 75.9336 102.123 75.4273 102.57L73.6904 101.552L71.9176 104.572L73.7383 105.638C73.6797 105.938 73.6516 106.243 73.6545 106.549C73.6367 106.812 73.6367 107.076 73.6545 107.34L71.8577 108.394L73.6305 111.414L75.2836 110.444C75.804 110.932 76.4199 111.307 77.0923 111.546V113.536H80.7697V111.546C81.3485 111.343 81.8846 111.034 82.3508 110.635L84.0158 111.618L85.7887 108.598L84.2195 107.627C84.2921 107.269 84.3282 106.903 84.3273 106.537C84.3272 106.133 84.279 105.731 84.1835 105.338L85.8485 104.368L84.1117 101.348ZM79.0208 109.845C78.3664 109.845 77.7268 109.65 77.1829 109.286C76.6389 108.922 76.2152 108.405 75.9653 107.8C75.7154 107.195 75.6507 106.529 75.7792 105.887C75.9078 105.245 76.2238 104.656 76.6874 104.194C77.1509 103.732 77.7411 103.418 78.3832 103.291C79.0253 103.165 79.6904 103.232 80.2943 103.485C80.8982 103.737 81.4137 104.163 81.7755 104.708C82.1374 105.254 82.3293 105.894 82.3269 106.549C82.3269 106.986 82.2402 107.418 82.0716 107.821C81.9031 108.224 81.6562 108.59 81.3452 108.896C81.0342 109.203 80.6654 109.445 80.2602 109.608C79.855 109.77 79.4215 109.851 78.9849 109.845H79.0208Z" fill="#2D5967"/>
</g>
</g>
<g id="Icon Text Label">
<text id="IconLabel" fill="black" xml:space="preserve" style="white-space: pre" font-family="Oracle Sans" font-size="16" letter-spacing="0em"><tspan x="24.0781" y="145.816">Application</tspan></text>
<text id="IconLabel_2" fill="black" xml:space="preserve" style="white-space: pre" font-family="Oracle Sans" font-size="16" letter-spacing="0em"><tspan x="38.1406" y="161.816">Servers</tspan></text>
</g>
</g>
<g id="Management Agent">
<g id="Browser-with-Gear">
<g id="Group 284">
<path id="Vector_22" d="M90.3857 240.715H38.6143C36.7365 240.715 35.2143 242.237 35.2143 244.115V295.886C35.2143 297.764 36.7365 299.286 38.6143 299.286H90.3857C92.2635 299.286 93.7857 297.764 93.7857 295.886V244.115C93.7857 242.237 92.2635 240.715 90.3857 240.715Z" fill="white"/>
<path id="Vector_23" d="M90.4 241.429C91.1098 241.432 91.7893 241.717 92.2899 242.22C92.7904 242.723 93.0714 243.404 93.0714 244.114V295.9C93.0714 296.609 92.79 297.288 92.289 297.789C91.788 298.29 91.1085 298.571 90.4 298.571H38.6143C37.9045 298.571 37.2235 298.29 36.7202 297.79C36.217 297.289 35.9323 296.61 35.9286 295.9V244.114C35.9286 243.402 36.2115 242.719 36.7152 242.215C37.2189 241.712 37.902 241.429 38.6143 241.429H90.4ZM90.4 240H38.6143C37.5231 240 36.4766 240.433 35.705 241.205C34.9335 241.977 34.5 243.023 34.5 244.114V295.9C34.5038 296.989 34.9389 298.032 35.7101 298.8C36.4813 299.569 37.5256 300 38.6143 300H90.4C91.4862 299.996 92.5269 299.563 93.295 298.795C94.0631 298.027 94.4962 296.986 94.5 295.9V244.114C94.5 243.026 94.0685 241.981 93.3 241.21C92.5315 240.439 91.4887 240.004 90.4 240V240Z" fill="white"/>
<path id="Vector_24" d="M90.4 241.429H38.6142C37.9019 241.429 37.2188 241.712 36.7152 242.216C36.2115 242.719 35.9285 243.402 35.9285 244.115V295.9C35.9323 296.61 36.2169 297.29 36.7202 297.79C37.2234 298.291 37.9044 298.572 38.6142 298.572H90.4C91.1085 298.572 91.788 298.29 92.2889 297.789C92.7899 297.288 93.0714 296.609 93.0714 295.9V244.115C93.0714 243.405 92.7904 242.724 92.2898 242.221C91.7892 241.717 91.1098 241.433 90.4 241.429ZM38.6142 243.815H90.4C90.4387 243.815 90.4771 243.822 90.5127 243.838C90.5483 243.853 90.5805 243.875 90.6072 243.903C90.6339 243.931 90.6547 243.965 90.6682 244.001C90.6817 244.037 90.6876 244.076 90.6857 244.115V250.958H38.3142V244.115C38.3142 244.035 38.3458 243.959 38.4021 243.903C38.4584 243.846 38.5347 243.815 38.6142 243.815ZM90.4 296.186H38.6142C38.5755 296.188 38.5368 296.182 38.5005 296.169C38.4642 296.155 38.431 296.134 38.4029 296.108C38.3748 296.081 38.3525 296.049 38.3373 296.013C38.322 295.977 38.3142 295.939 38.3142 295.9V253.329H90.6857V295.9C90.6857 295.976 90.6556 296.049 90.602 296.102C90.5484 296.156 90.4757 296.186 90.4 296.186Z" fill="#2D5967"/>
<path id="Vector_25" d="M42.3286 249.071C42.6111 249.071 42.8873 248.987 43.1223 248.83C43.3572 248.674 43.5403 248.45 43.6484 248.189C43.7565 247.928 43.7848 247.641 43.7297 247.364C43.6746 247.087 43.5385 246.832 43.3387 246.633C43.139 246.433 42.8844 246.297 42.6073 246.242C42.3302 246.186 42.0429 246.215 41.7819 246.323C41.5209 246.431 41.2978 246.614 41.1408 246.849C40.9838 247.084 40.9 247.36 40.9 247.643C40.9 248.022 41.0505 248.385 41.3184 248.653C41.5864 248.921 41.9497 249.071 42.3286 249.071Z" fill="#2D5967"/>
<path id="Vector_26" d="M47.5857 249.071C47.8682 249.071 48.1444 248.987 48.3793 248.83C48.6143 248.674 48.7974 248.45 48.9055 248.189C49.0136 247.928 49.0419 247.641 48.9868 247.364C48.9317 247.087 48.7956 246.832 48.5958 246.633C48.396 246.433 48.1415 246.297 47.8644 246.242C47.5873 246.186 47.3 246.215 47.039 246.323C46.7779 246.431 46.5548 246.614 46.3979 246.849C46.2409 247.084 46.1571 247.36 46.1571 247.643C46.1571 248.022 46.3076 248.385 46.5755 248.653C46.8434 248.921 47.2068 249.071 47.5857 249.071Z" fill="#2D5967"/>
<path id="Vector_27" d="M52.7428 249.071C53.0254 249.071 53.3016 248.987 53.5365 248.83C53.7714 248.674 53.9545 248.45 54.0627 248.189C54.1708 247.928 54.1991 247.641 54.144 247.364C54.0888 247.087 53.9528 246.832 53.753 246.633C53.5532 246.433 53.2987 246.297 53.0215 246.242C52.7444 246.186 52.4572 246.215 52.1962 246.323C51.9351 246.431 51.712 246.614 51.555 246.849C51.3981 247.084 51.3143 247.36 51.3143 247.643C51.3143 248.022 51.4648 248.385 51.7327 248.653C52.0006 248.921 52.364 249.071 52.7428 249.071Z" fill="#2D5967"/>
<path id="Vector_28" d="M57.8143 270C56.5168 270 55.2485 270.385 54.1699 271.106C53.0913 271.827 52.2508 272.852 51.755 274.051C51.2591 275.25 51.1301 276.569 51.3842 277.842C51.6384 279.114 52.2643 280.282 53.1828 281.199C54.1013 282.115 55.271 282.739 56.5439 282.99C57.8168 283.241 59.1356 283.11 60.3336 282.611C61.5315 282.113 62.5546 281.27 63.2733 280.19C63.9921 279.109 64.3743 277.84 64.3715 276.543C64.3677 274.806 63.6752 273.142 62.4459 271.915C61.2166 270.689 59.5509 270 57.8143 270ZM57.8143 280.714C56.9893 280.714 56.1828 280.47 55.4968 280.011C54.8108 279.553 54.2762 278.901 53.9604 278.139C53.6447 277.377 53.5621 276.538 53.7231 275.729C53.884 274.92 54.2813 274.177 54.8647 273.593C55.4481 273.01 56.1913 272.613 57.0005 272.452C57.8097 272.291 58.6484 272.373 59.4107 272.689C60.1729 273.005 60.8244 273.539 61.2827 274.225C61.7411 274.911 61.9858 275.718 61.9858 276.543C61.9876 277.091 61.881 277.634 61.6721 278.141C61.4631 278.648 61.1559 279.109 60.7682 279.497C60.3805 279.884 59.9199 280.192 59.4129 280.401C58.9059 280.61 58.3627 280.716 57.8143 280.714Z" fill="#2D5967"/>
<path id="Vector_29" d="M67.8429 272.243L69.8857 269.686L64.6857 264.472L62.1143 266.529L61.8571 266.415L61.5 263.157H54.1429L53.7714 266.415L53.5143 266.529L50.9571 264.472L45.7429 269.686L47.8 272.243L47.6857 272.5L44.5 272.857V280.215L47.7571 280.572L47.8714 280.829L45.8143 283.4L50.9571 288.572L53.5143 286.515L53.7714 286.615L54.1429 290H61.5L61.8571 286.729L62.1143 286.629L64.6857 288.572L69.8857 283.372L67.8429 280.8L67.9429 280.543L71.2143 280.186V272.857L67.9429 272.486L67.8429 272.243ZM68.8286 278.1L66.1714 278.4L65.9429 279.129C65.7992 279.593 65.6127 280.042 65.3857 280.472L65.0286 281.157L66.7 283.243L64.5 285.429L62.4143 283.757L61.7143 284.115C61.291 284.344 60.846 284.531 60.3857 284.672L59.6571 284.9L59.3571 287.557H56.2714L55.9286 284.9L55.1857 284.672C54.7264 284.528 54.2816 284.341 53.8571 284.115L53.1714 283.757L51.1286 285.429L48.9286 283.243L50.6 281.157L50.2143 280.472C49.9979 280.039 49.8164 279.59 49.6714 279.129L49.4286 278.4L46.7714 278.1V275L49.4286 274.7L49.6714 273.972C49.8142 273.51 49.9958 273.06 50.2143 272.629L50.5714 271.943L48.9286 269.857L51.1286 267.672L53.2143 269.329L53.9 268.972C54.3276 268.756 54.7719 268.574 55.2286 268.429L55.9714 268.186L56.2714 265.543H59.3714L59.6714 268.186L60.4 268.429C60.8576 268.571 61.3021 268.753 61.7286 268.972L62.4286 269.329L64.5 267.657L66.6857 269.857L65.0143 271.943L65.3714 272.629C65.6009 273.057 65.7875 273.507 65.9286 273.972L66.1571 274.7L68.7857 275L68.8286 278.1Z" fill="#2D5967"/>
<path id="Vector_30" d="M83.1428 261.886L81.3857 262.858C81.0287 262.603 80.6396 262.396 80.2285 262.243V260.472H76.3571V262.415C76.0062 262.584 75.6715 262.785 75.3571 263.015L73.4285 261.886L71.6428 265.072L73.5285 266.186C73.4829 266.465 73.459 266.747 73.4571 267.029C73.4432 267.219 73.4432 267.41 73.4571 267.6L71.6428 268.672L73.5 271.858L75.2143 270.858C75.5809 271.17 75.9896 271.43 76.4285 271.629V273.572H80.2143V271.758C80.73 271.569 81.2123 271.299 81.6428 270.958L83.1714 271.858L85.0428 268.672L83.4714 267.758C83.4855 267.515 83.4855 267.272 83.4714 267.029C83.4671 266.689 83.4336 266.349 83.3714 266.015L84.9857 265.072L83.1428 261.886ZM78.4428 269.7C77.9104 269.703 77.3892 269.548 76.9454 269.254C76.5015 268.96 76.1551 268.541 75.95 268.049C75.745 267.558 75.6906 267.017 75.7938 266.494C75.8969 265.972 76.153 265.492 76.5295 265.116C76.9059 264.739 77.3858 264.483 77.9081 264.38C78.4304 264.277 78.9716 264.331 79.4629 264.536C79.9543 264.741 80.3736 265.088 80.6676 265.532C80.9616 265.975 81.1171 266.497 81.1143 267.029C81.1105 267.736 80.8278 268.414 80.3277 268.914C79.8275 269.414 79.1502 269.697 78.4428 269.7Z" fill="#2D5967"/>
</g>
</g>
<g id="Icon Text Label_2">
<text id="IconLabel_3" fill="black" xml:space="preserve" style="white-space: pre" font-family="Oracle Sans" font-size="16" letter-spacing="0em"><tspan x="16.1797" y="317.816">Management</tspan></text>
<text id="IconLabel_4" fill="black" xml:space="preserve" style="white-space: pre" font-family="Oracle Sans" font-size="16" letter-spacing="0em"><tspan x="42.5625" y="333.816">Agent</tspan></text>
</g>
</g>
<g id="OCI Region_10">
<rect x="8.5" y="357.5" width="111" height="231" rx="3.5" fill="white"/>
<rect x="8.5" y="357.5" width="111" height="231" rx="3.5" stroke="#9E9892"/>
</g>
<g id="Management Agent_2">
<g id="Browser-with-Gear_2">
<g id="Group 284_2">
<path id="Vector_31" d="M90.3857 366.715H38.6143C36.7365 366.715 35.2143 368.237 35.2143 370.115V421.886C35.2143 423.764 36.7365 425.286 38.6143 425.286H90.3857C92.2635 425.286 93.7857 423.764 93.7857 421.886V370.115C93.7857 368.237 92.2635 366.715 90.3857 366.715Z" fill="white"/>
<path id="Vector_32" d="M90.4 367.429C91.1098 367.432 91.7893 367.717 92.2899 368.22C92.7904 368.723 93.0714 369.404 93.0714 370.114V421.9C93.0714 422.609 92.79 423.288 92.289 423.789C91.788 424.29 91.1085 424.571 90.4 424.571H38.6143C37.9045 424.571 37.2235 424.29 36.7202 423.79C36.217 423.289 35.9323 422.61 35.9286 421.9V370.114C35.9286 369.402 36.2115 368.719 36.7152 368.215C37.2189 367.712 37.902 367.429 38.6143 367.429H90.4ZM90.4 366H38.6143C37.5231 366 36.4766 366.433 35.705 367.205C34.9335 367.977 34.5 369.023 34.5 370.114V421.9C34.5038 422.989 34.9389 424.032 35.7101 424.8C36.4813 425.569 37.5256 426 38.6143 426H90.4C91.4862 425.996 92.5269 425.563 93.295 424.795C94.0631 424.027 94.4962 422.986 94.5 421.9V370.114C94.5 369.026 94.0685 367.981 93.3 367.21C92.5315 366.439 91.4887 366.004 90.4 366V366Z" fill="white"/>
<path id="Vector_33" d="M90.4 367.429H38.6142C37.9019 367.429 37.2188 367.712 36.7152 368.216C36.2115 368.719 35.9285 369.402 35.9285 370.115V421.9C35.9323 422.61 36.2169 423.29 36.7202 423.79C37.2234 424.291 37.9044 424.572 38.6142 424.572H90.4C91.1085 424.572 91.788 424.29 92.2889 423.789C92.7899 423.288 93.0714 422.609 93.0714 421.9V370.115C93.0714 369.405 92.7904 368.724 92.2898 368.221C91.7892 367.717 91.1098 367.433 90.4 367.429ZM38.6142 369.815H90.4C90.4387 369.815 90.4771 369.822 90.5127 369.838C90.5483 369.853 90.5805 369.875 90.6072 369.903C90.6339 369.931 90.6547 369.965 90.6682 370.001C90.6817 370.037 90.6876 370.076 90.6857 370.115V376.958H38.3142V370.115C38.3142 370.035 38.3458 369.959 38.4021 369.903C38.4584 369.846 38.5347 369.815 38.6142 369.815ZM90.4 422.186H38.6142C38.5755 422.188 38.5368 422.182 38.5005 422.169C38.4642 422.155 38.431 422.134 38.4029 422.108C38.3748 422.081 38.3525 422.049 38.3373 422.013C38.322 421.977 38.3142 421.939 38.3142 421.9V379.329H90.6857V421.9C90.6857 421.976 90.6556 422.049 90.602 422.102C90.5484 422.156 90.4757 422.186 90.4 422.186Z" fill="#2D5967"/>
<path id="Vector_34" d="M42.3286 375.071C42.6111 375.071 42.8873 374.987 43.1223 374.83C43.3572 374.674 43.5403 374.45 43.6484 374.189C43.7565 373.928 43.7848 373.641 43.7297 373.364C43.6746 373.087 43.5385 372.832 43.3387 372.633C43.139 372.433 42.8844 372.297 42.6073 372.242C42.3302 372.186 42.0429 372.215 41.7819 372.323C41.5209 372.431 41.2978 372.614 41.1408 372.849C40.9838 373.084 40.9 373.36 40.9 373.643C40.9 374.022 41.0505 374.385 41.3184 374.653C41.5864 374.921 41.9497 375.071 42.3286 375.071Z" fill="#2D5967"/>
<path id="Vector_35" d="M47.5857 375.071C47.8682 375.071 48.1444 374.987 48.3793 374.83C48.6143 374.674 48.7974 374.45 48.9055 374.189C49.0136 373.928 49.0419 373.641 48.9868 373.364C48.9317 373.087 48.7956 372.832 48.5958 372.633C48.396 372.433 48.1415 372.297 47.8644 372.242C47.5873 372.186 47.3 372.215 47.039 372.323C46.7779 372.431 46.5548 372.614 46.3979 372.849C46.2409 373.084 46.1571 373.36 46.1571 373.643C46.1571 374.022 46.3076 374.385 46.5755 374.653C46.8434 374.921 47.2068 375.071 47.5857 375.071Z" fill="#2D5967"/>
<path id="Vector_36" d="M52.7428 375.071C53.0254 375.071 53.3016 374.987 53.5365 374.83C53.7714 374.674 53.9545 374.45 54.0627 374.189C54.1708 373.928 54.1991 373.641 54.144 373.364C54.0888 373.087 53.9528 372.832 53.753 372.633C53.5532 372.433 53.2987 372.297 53.0215 372.242C52.7444 372.186 52.4572 372.215 52.1962 372.323C51.9351 372.431 51.712 372.614 51.555 372.849C51.3981 373.084 51.3143 373.36 51.3143 373.643C51.3143 374.022 51.4648 374.385 51.7327 374.653C52.0006 374.921 52.364 375.071 52.7428 375.071Z" fill="#2D5967"/>
<path id="Vector_37" d="M57.8143 396C56.5168 396 55.2485 396.385 54.1699 397.106C53.0913 397.827 52.2508 398.852 51.755 400.051C51.2591 401.25 51.1301 402.569 51.3842 403.842C51.6384 405.114 52.2643 406.282 53.1828 407.199C54.1013 408.115 55.271 408.739 56.5439 408.99C57.8168 409.241 59.1356 409.11 60.3336 408.611C61.5315 408.113 62.5546 407.27 63.2733 406.19C63.9921 405.109 64.3743 403.84 64.3715 402.543C64.3677 400.806 63.6752 399.142 62.4459 397.915C61.2166 396.689 59.5509 396 57.8143 396ZM57.8143 406.714C56.9893 406.714 56.1828 406.47 55.4968 406.011C54.8108 405.553 54.2762 404.901 53.9604 404.139C53.6447 403.377 53.5621 402.538 53.7231 401.729C53.884 400.92 54.2813 400.177 54.8647 399.593C55.4481 399.01 56.1913 398.613 57.0005 398.452C57.8097 398.291 58.6484 398.373 59.4107 398.689C60.1729 399.005 60.8244 399.539 61.2827 400.225C61.7411 400.911 61.9858 401.718 61.9858 402.543C61.9876 403.091 61.881 403.634 61.6721 404.141C61.4631 404.648 61.1559 405.109 60.7682 405.497C60.3805 405.884 59.9199 406.192 59.4129 406.401C58.9059 406.61 58.3627 406.716 57.8143 406.714Z" fill="#2D5967"/>
<path id="Vector_38" d="M67.8429 398.243L69.8857 395.686L64.6857 390.472L62.1143 392.529L61.8571 392.415L61.5 389.157H54.1429L53.7714 392.415L53.5143 392.529L50.9571 390.472L45.7429 395.686L47.8 398.243L47.6857 398.5L44.5 398.857V406.215L47.7571 406.572L47.8714 406.829L45.8143 409.4L50.9571 414.572L53.5143 412.515L53.7714 412.615L54.1429 416H61.5L61.8571 412.729L62.1143 412.629L64.6857 414.572L69.8857 409.372L67.8429 406.8L67.9429 406.543L71.2143 406.186V398.857L67.9429 398.486L67.8429 398.243ZM68.8286 404.1L66.1714 404.4L65.9429 405.129C65.7992 405.593 65.6127 406.042 65.3857 406.472L65.0286 407.157L66.7 409.243L64.5 411.429L62.4143 409.757L61.7143 410.115C61.291 410.344 60.846 410.531 60.3857 410.672L59.6571 410.9L59.3571 413.557H56.2714L55.9286 410.9L55.1857 410.672C54.7264 410.528 54.2816 410.341 53.8571 410.115L53.1714 409.757L51.1286 411.429L48.9286 409.243L50.6 407.157L50.2143 406.472C49.9979 406.039 49.8164 405.59 49.6714 405.129L49.4286 404.4L46.7714 404.1V401L49.4286 400.7L49.6714 399.972C49.8142 399.51 49.9958 399.06 50.2143 398.629L50.5714 397.943L48.9286 395.857L51.1286 393.672L53.2143 395.329L53.9 394.972C54.3276 394.756 54.7719 394.574 55.2286 394.429L55.9714 394.186L56.2714 391.543H59.3714L59.6714 394.186L60.4 394.429C60.8576 394.571 61.3021 394.753 61.7286 394.972L62.4286 395.329L64.5 393.657L66.6857 395.857L65.0143 397.943L65.3714 398.629C65.6009 399.057 65.7875 399.507 65.9286 399.972L66.1571 400.7L68.7857 401L68.8286 404.1Z" fill="#2D5967"/>
<path id="Vector_39" d="M83.1428 387.886L81.3857 388.858C81.0287 388.603 80.6396 388.396 80.2285 388.243V386.472H76.3571V388.415C76.0062 388.584 75.6715 388.785 75.3571 389.015L73.4285 387.886L71.6428 391.072L73.5285 392.186C73.4829 392.465 73.459 392.747 73.4571 393.029C73.4432 393.219 73.4432 393.41 73.4571 393.6L71.6428 394.672L73.5 397.858L75.2143 396.858C75.5809 397.17 75.9896 397.43 76.4285 397.629V399.572H80.2143V397.758C80.73 397.569 81.2123 397.299 81.6428 396.958L83.1714 397.858L85.0428 394.672L83.4714 393.758C83.4855 393.515 83.4855 393.272 83.4714 393.029C83.4671 392.689 83.4336 392.349 83.3714 392.015L84.9857 391.072L83.1428 387.886ZM78.4428 395.7C77.9104 395.703 77.3892 395.548 76.9454 395.254C76.5015 394.96 76.1551 394.541 75.95 394.049C75.745 393.558 75.6906 393.017 75.7938 392.494C75.8969 391.972 76.153 391.492 76.5295 391.116C76.9059 390.739 77.3858 390.483 77.9081 390.38C78.4304 390.277 78.9716 390.331 79.4629 390.536C79.9543 390.741 80.3736 391.088 80.6676 391.532C80.9616 391.975 81.1171 392.497 81.1143 393.029C81.1105 393.736 80.8278 394.414 80.3277 394.914C79.8275 395.414 79.1502 395.697 78.4428 395.7Z" fill="#2D5967"/>
</g>
</g>
<g id="Icon Text Label_3">
<text id="IconLabel_5" fill="black" xml:space="preserve" style="white-space: pre" font-family="Oracle Sans" font-size="16" letter-spacing="0em"><tspan x="16.1797" y="443.816">Management</tspan></text>
<text id="IconLabel_6" fill="black" xml:space="preserve" style="white-space: pre" font-family="Oracle Sans" font-size="16" letter-spacing="0em"><tspan x="42.5625" y="459.816">Agent</tspan></text>
</g>
</g>
<g id="Security Lists">
<g id="Security-Lists_red">
<g id="Group">
<g id="Group_2">
<path id="Vector_40" d="M252.122 405.337C244.739 402.588 241.237 397.848 239.533 394.247C237.64 390.171 237.64 386.758 237.64 386.569V372.92L252.5 366.569L267.266 372.92V386.664C267.266 387.232 267.076 400.123 252.974 405.337L252.595 405.526L252.122 405.337Z" fill="white"/>
<path id="Vector_41" d="M252.5 367.043L266.792 373.204V386.664C266.792 387.232 266.602 399.744 252.784 404.863L252.5 404.957L252.31 404.863C245.022 402.209 241.615 397.564 240.006 394.057C238.207 390.171 238.113 386.758 238.113 386.664V373.204L252.5 367.043ZM252.5 366L252.121 366.19L237.734 372.351L237.166 372.54V373.204V386.664C237.166 386.853 237.166 390.36 239.154 394.531C240.858 398.133 244.454 403.062 252.026 405.81L252.31 405.905L252.594 406L252.878 405.905L253.162 405.81C267.644 400.502 267.833 387.232 267.833 386.664V373.204V372.54L267.265 372.256L252.878 366.19L252.5 366Z" fill="white"/>
</g>
<g id="Group_3">
<path id="Vector_42" d="M252.5 367.043L238.113 373.204V386.664C238.113 386.758 238.113 390.171 240.006 394.057C241.615 397.564 245.117 402.209 252.31 404.863L252.594 404.957L252.878 404.863C266.697 399.744 266.886 387.138 266.886 386.664V373.204L252.5 367.043ZM265.372 386.664C265.372 387.138 265.183 398.607 252.5 403.441C247.199 401.45 243.413 398.133 241.236 393.488C239.532 389.792 239.532 386.758 239.532 386.664V374.152L252.5 368.559L265.372 374.152V386.664Z" fill="#AA643B"/>
<path id="Vector_43" d="M252.405 378.038H243.791V379.46H252.405V378.038Z" fill="#AA643B"/>
<path id="Vector_44" d="M261.207 377.374L260.166 376.427L257.421 379.175L256.285 378.038L255.244 379.081L257.421 381.166L261.207 377.374Z" fill="#AA643B"/>
<path id="Vector_45" d="M252.405 384.957H243.791V386.379H252.405V384.957Z" fill="#AA643B"/>
<path id="Vector_46" d="M259.692 383.156L258.273 384.673L256.758 383.156L255.812 384.199L257.232 385.62L255.812 387.042L256.758 388.085L258.273 386.663L259.692 388.085L260.639 387.042L259.219 385.62L260.639 384.199L259.692 383.156Z" fill="#AA643B"/>
<path id="Vector_47" d="M252.405 391.403H243.791V392.824H252.405V391.403Z" fill="#AA643B"/>
<path id="Vector_48" d="M261.207 390.739L260.166 389.791L257.421 392.54L256.285 391.403L255.244 392.445L257.421 394.531L261.207 390.739Z" fill="#AA643B"/>
</g>
</g>
</g>
<g id="Icon Text Label_4">
<text id="IconLabel_7" fill="black" xml:space="preserve" style="white-space: pre" font-family="Oracle Sans" font-size="16" letter-spacing="0em"><tspan x="204.422" y="423.816">Security Lists</tspan></text>
</g>
</g>
<g id="text box yellow note callout">
<path d="M184.5 481.5H308C314.351 481.5 319.5 486.649 319.5 493V532C319.5 538.351 314.351 543.5 308 543.5H196C189.649 543.5 184.5 538.351 184.5 532V481.5Z" fill="#FCEFCB"/>
<path d="M184.5 481.5H308C314.351 481.5 319.5 486.649 319.5 493V532C319.5 538.351 314.351 543.5 308 543.5H196C189.649 543.5 184.5 538.351 184.5 532V481.5Z" stroke="#DEB068"/>
<text id="Text box: Note Callout&#226;&#128;&#168;Use: To show a note about part of a diagram." fill="#312D2A" xml:space="preserve" style="white-space: pre" font-family="Oracle Sans" font-size="16" letter-spacing="0em"><tspan x="192" y="502.816">Service IP </tspan></text>
</g>
<text id="addresses must" fill="#312D2A" xml:space="preserve" style="white-space: pre" font-family="Oracle Sans" font-size="16" letter-spacing="0em"><tspan x="192" y="520.516">addresses must</tspan></text>
<text id="be allowed" fill="#312D2A" xml:space="preserve" style="white-space: pre" font-family="Oracle Sans" font-size="16" letter-spacing="0em"><tspan x="192" y="536.516">be allowed</tspan></text>
<path id="Vector 63" d="M284.293 264.293C283.902 264.683 283.902 265.317 284.293 265.707L290.657 272.071C291.047 272.462 291.681 272.462 292.071 272.071C292.462 271.681 292.462 271.047 292.071 270.657L286.414 265L292.071 259.343C292.462 258.953 292.462 258.319 292.071 257.929C291.681 257.538 291.047 257.538 290.657 257.929L284.293 264.293ZM702.707 231.707C703.098 231.317 703.098 230.683 702.707 230.293L696.343 223.929C695.953 223.538 695.319 223.538 694.929 223.929C694.538 224.319 694.538 224.953 694.929 225.343L700.586 231L694.929 236.657C694.538 237.047 694.538 237.681 694.929 238.071C695.319 238.462 695.953 238.462 696.343 238.071L702.707 231.707ZM372.551 265V266H373.551V265H372.551ZM372.551 249.37V248.37H371.551V249.37H372.551ZM639.353 249.37V250.37H640.353V249.37H639.353ZM639.353 231V230H638.353V231H639.353ZM285 266H372.551V264H285V266ZM373.551 265V249.37H371.551V265H373.551ZM372.551 250.37H639.353V248.37H372.551V250.37ZM640.353 249.37V231H638.353V249.37H640.353ZM639.353 232H702V230H639.353V232Z" fill="#312D2A"/>
<path id="Vector 73" d="M284.293 281.707C283.902 281.317 283.902 280.683 284.293 280.293L290.657 273.929C291.047 273.538 291.681 273.538 292.071 273.929C292.462 274.319 292.462 274.953 292.071 275.343L286.414 281L292.071 286.657C292.462 287.047 292.462 287.681 292.071 288.071C291.681 288.462 291.047 288.462 290.657 288.071L284.293 281.707ZM702.707 311.293C703.098 311.683 703.098 312.317 702.707 312.707L696.343 319.071C695.953 319.462 695.319 319.462 694.929 319.071C694.538 318.681 694.538 318.047 694.929 317.657L700.586 312L694.929 306.343C694.538 305.953 694.538 305.319 694.929 304.929C695.319 304.538 695.953 304.538 696.343 304.929L702.707 311.293ZM372.551 281V280H373.551V281H372.551ZM372.551 296.704V297.704H371.551V296.704H372.551ZM639.353 296.704V295.704H640.353V296.704H639.353ZM639.353 312V313H638.353V312H639.353ZM285 280H372.551V282H285V280ZM373.551 281V296.704H371.551V281H373.551ZM372.551 295.704H639.353V297.704H372.551V295.704ZM640.353 296.704V312H638.353V296.704H640.353ZM639.353 311H702V313H639.353V311Z" fill="#312D2A"/>
<g id="Database Servers">
<g id="Database-Server">
<g id="Group 310">
<path id="Vector_49" d="M36.6506 543.348V541.188L39.3702 539.886H39.9818V489.983H66.7482V509.325C68.1951 508.804 69.6903 508.429 71.2115 508.205L71.8491 508.114C74.3231 507.758 76.8186 507.571 79.3182 507.555C81.9987 507.555 95.3494 507.815 95.3494 512.839V538.116C95.3494 543.036 82.1809 543.322 79.5394 543.322H36.6506V543.348Z" fill="white"/>
<path id="Vector_50" d="M66.0976 490.634V510.327C67.7537 509.591 69.5064 509.096 71.3025 508.856L71.9401 508.752C74.3809 508.418 76.8417 508.253 79.3051 508.257C85.0176 508.257 94.6857 509.233 94.6857 512.891V538.116C94.6857 541.643 85.2518 542.671 79.5133 542.697H37.3012V541.591L39.5264 540.484H40.6324V490.634H66.0976ZM67.3988 489.332H39.3312V539.183H39.2141L38.9408 539.313L36.7157 540.419L36 540.784V543.999H88.4919L86.8133 543.504C91.3416 542.853 96 541.396 96 538.116V512.891C96 507.385 83.2349 506.956 79.3182 506.956C76.7891 506.954 74.2629 507.128 71.758 507.476L71.1334 507.554C69.879 507.749 68.6398 508.032 67.4249 508.4V489.332H67.3988Z" fill="white"/>
<path id="Vector_51" d="M60.0078 500.043H46.7222V502.269H44.5101V504.482H46.7222V506.694H60.0078V504.482H62.2199V502.269H60.0078V500.043ZM57.7957 504.482H48.9343V502.269H57.7957V504.482Z" fill="#2D5967"/>
<path id="Vector_52" d="M62.2329 496.178H44.5101V498.39H62.2329V496.178Z" fill="#2D5967"/>
<path id="Vector_53" d="M62.2329 508.362H44.5101V510.574H62.2329V508.362Z" fill="#2D5967"/>
<path id="Vector_54" d="M44.5101 519.985H62.2199V512.24H44.5101V519.985ZM46.7222 514.453H60.0078V517.772H46.7222V514.453Z" fill="#2D5967"/>
<path id="Vector_55" d="M62.2329 534.939H44.5101V537.151H62.2329V534.939Z" fill="#2D5967"/>
<path id="Vector_56" d="M62.2329 531.061H44.5101V533.273H62.2329V531.061Z" fill="#2D5967"/>
<path id="Vector_57" d="M44.5101 529.407H62.2199V521.598H44.5101V529.407ZM46.7222 523.862H60.0078V527.194H46.7222V523.862Z" fill="#2D5967"/>
<path id="Vector_58" d="M63.1568 540.483H42.8445V492.845H63.8855V509.766C64.5556 509.227 65.3008 508.788 66.0976 508.464V490.633H40.6324V540.483H39.5263L37.3012 541.59V542.696H66.8002C65.4134 542.289 64.1573 541.526 63.1568 540.483Z" fill="#2D5967"/>
<path id="Vector_59" d="M94.6988 538.116V512.892C94.6988 509.234 85.0306 508.258 79.3182 508.258C76.8547 508.254 74.394 508.419 71.9532 508.752L71.3156 508.857C67.3468 509.494 63.9506 510.718 63.9506 512.892V538.116C63.9506 540.238 67.3468 541.435 71.3156 542.021L71.9532 542.112C74.3946 542.439 76.855 542.604 79.3182 542.607C85.0306 542.698 94.6988 541.696 94.6988 538.116ZM79.3182 540.433C71.4197 540.433 66.6701 538.923 66.1627 538.064V532.181C69.3507 533.704 75.2713 534.172 79.3182 534.172C83.365 534.172 89.2986 533.704 92.4867 532.181V538.064C91.9532 538.923 87.2297 540.433 79.3182 540.433ZM92.4867 529.591C91.9792 530.45 87.2817 531.96 79.3182 531.96C71.3546 531.96 66.6701 530.45 66.1627 529.591V523.773C69.3507 525.283 75.2713 525.751 79.3182 525.751C83.365 525.751 89.2986 525.283 92.4867 523.773V529.591ZM92.4867 521.17C91.9792 522.042 87.2817 523.539 79.3182 523.539C71.3546 523.539 66.6701 522.042 66.1627 521.17V515.495C69.3507 517.044 75.2713 517.525 79.3182 517.525C83.365 517.525 89.3507 517.044 92.4867 515.495V521.17ZM92.4867 512.892C91.9271 513.79 87.2817 515.312 79.3442 515.312C71.4066 515.312 66.7742 513.79 66.2017 512.892C66.7742 511.993 71.4066 510.471 79.3442 510.471C87.2817 510.471 91.9532 511.993 92.4607 512.892H92.4867Z" fill="#2D5967"/>
</g>
</g>
<g id="Icon Text Label_5">
<text id="IconLabel_8" fill="black" xml:space="preserve" style="white-space: pre" font-family="Oracle Sans" font-size="16" letter-spacing="0em"><tspan x="32.2422" y="561.816">Database</tspan></text>
<text id="IconLabel_9" fill="black" xml:space="preserve" style="white-space: pre" font-family="Oracle Sans" font-size="16" letter-spacing="0em"><tspan x="39.1406" y="577.816">Servers</tspan></text>
</g>
</g>
<path id="Vector 76" d="M748 231L774 231L774 312L748 312" stroke="#312D2A" stroke-width="2"/>
<path id="Vector 75" d="M795.308 273.707C795.698 273.317 795.698 272.683 795.308 272.293L788.944 265.929C788.553 265.538 787.92 265.538 787.53 265.929C787.139 266.319 787.139 266.953 787.53 267.343L793.186 273L787.53 278.657C787.139 279.047 787.139 279.681 787.53 280.071C787.92 280.462 788.553 280.462 788.944 280.071L795.308 273.707ZM773.601 274H794.601V272H773.601V274Z" fill="#312D2A"/>
<g id="Group 1258">
<g id="Connector Line Label">
<rect width="29" height="14" transform="translate(883 253)" fill="#F5F4F2"/>
<text id="Line Label" fill="#312D2A" xml:space="preserve" style="white-space: pre" font-family="Oracle Sans" font-size="14" letter-spacing="0em"><tspan x="887.164" y="265.089">EM</tspan></text>
</g>
<g id="Connector Line Label_2">
<rect width="50" height="14" transform="translate(873 267)" fill="#F5F4F2"/>
<text id="Line Label_2" fill="#312D2A" xml:space="preserve" style="white-space: pre" font-family="Oracle Sans" font-size="14" letter-spacing="0em"><tspan x="877.26" y="279.089">Bridge</tspan></text>
</g>
</g>
<path id="Vector 71" d="M252 459L252 481" stroke="#DEB068" stroke-width="2"/>
<g id="tunnel" clip-path="url(#clip1_14015_324482)">
<path id="Vector_60" d="M635.053 235H467.238C464.327 235.054 463 242.801 463 250C463 257.199 464.327 264.945 467.238 264.999L635.053 265C638.344 265 639.214 255.188 639.214 250C639.214 244.812 638.344 235 635.053 235ZM465.509 259.897C464.858 257.262 464.5 253.748 464.5 250C464.5 246.252 464.858 242.738 465.509 240.103C466.235 237.162 467.043 236.5 467.269 236.5C467.494 236.5 468.302 237.162 469.028 240.103C469.679 242.738 470.037 246.253 470.037 250C470.037 253.747 469.679 257.262 469.028 259.896C468.302 262.838 467.494 263.5 467.269 263.5C467.043 263.5 466.235 262.838 465.509 259.897ZM635.053 263.5H469.278C470.818 260.894 471.537 255.299 471.537 250C471.537 244.701 470.818 239.106 469.278 236.5H635.053C635.226 236.5 636.02 237.111 636.735 240.098C637.366 242.734 637.714 246.251 637.714 250C637.714 253.75 637.366 257.266 636.735 259.902C636.02 262.889 635.226 263.5 635.053 263.5Z" fill="#2D5967"/>
<g id="Background color=white bg">
<rect width="101" height="14" transform="translate(501 243)" fill="white"/>
<text id="Yes" fill="#312D2A" xml:space="preserve" style="white-space: pre" font-family="Oracle Sans" font-size="14" letter-spacing="0em"><tspan x="505.029" y="255.089">IP Sec Tunnel 1</tspan></text>
</g>
</g>
<g id="tunnel_2" clip-path="url(#clip2_14015_324482)">
<path id="Vector_61" d="M635.053 283H467.238C464.327 283.054 463 290.801 463 298C463 305.199 464.327 312.945 467.238 312.999L635.053 313C638.344 313 639.214 303.188 639.214 298C639.214 292.812 638.344 283 635.053 283ZM465.509 307.897C464.858 305.262 464.5 301.748 464.5 298C464.5 294.252 464.858 290.738 465.509 288.103C466.235 285.162 467.043 284.5 467.269 284.5C467.494 284.5 468.302 285.162 469.028 288.103C469.679 290.738 470.037 294.253 470.037 298C470.037 301.747 469.679 305.262 469.028 307.896C468.302 310.838 467.494 311.5 467.269 311.5C467.043 311.5 466.235 310.838 465.509 307.897ZM635.053 311.5H469.278C470.818 308.894 471.537 303.299 471.537 298C471.537 292.701 470.818 287.106 469.278 284.5H635.053C635.226 284.5 636.02 285.111 636.735 288.098C637.366 290.734 637.714 294.251 637.714 298C637.714 301.75 637.366 305.266 636.735 307.902C636.02 310.889 635.226 311.5 635.053 311.5Z" fill="#2D5967"/>
<g id="Background color=white bg_2">
<rect width="101" height="14" transform="translate(501 291)" fill="white"/>
<text id="Yes_2" fill="#312D2A" xml:space="preserve" style="white-space: pre" font-family="Oracle Sans" font-size="14" letter-spacing="0em"><tspan x="505.483" y="303.089">IP Sec Tunnel 2</tspan></text>
</g>
</g>
<g id="Group 1255">
<rect id="Rectangle 701" x="723" y="228" width="9" height="41" fill="#F5F4F2"/>
<g id="Security Lists_2">
<g id="Virtual-Private-Network-VPN">
<g id="Group_4">
<g id="Group_5">
<g id="Group_6">
<path id="Vector_62" d="M715.225 246.836L713.454 245.998V232.216H711.029L713.174 234.358L711.496 236.034L706.554 231.099L711.496 226.163L713.174 227.746L711.029 229.888H713.547V218.993H716.997V217.782C716.997 212.94 720.726 208.936 725.482 208.656C725.668 208.656 725.761 208.656 725.948 208.656C728.279 208.656 730.423 209.495 732.102 211.171C733.873 212.847 734.899 215.175 734.899 217.689V218.993H738.349V229.981H740.866L738.722 227.746L740.4 226.07L745.342 231.006L740.4 235.941L738.722 234.265L740.866 232.123H738.349V245.812L736.671 246.836H715.225Z" fill="white"/>
<path id="Vector_63" d="M725.948 209.121C728.186 209.121 730.237 209.959 731.822 211.449C733.5 213.032 734.526 215.267 734.526 217.595V219.365H737.976V230.353H741.985L739.375 227.745L740.4 226.721L744.689 231.005L740.4 235.288L739.375 234.264L741.985 231.657H737.976V242.924V245.532L736.577 246.37H715.319L713.92 245.625V243.017V231.75H709.911L712.521 234.357L711.496 235.381L707.207 231.098L711.496 226.814L712.521 227.745L709.911 230.353H713.92V219.458H717.37V217.781C717.37 213.219 720.913 209.401 725.482 209.121C725.668 209.121 725.762 209.121 725.948 209.121ZM725.948 208.19C725.762 208.19 725.575 208.19 725.482 208.19C720.447 208.469 716.531 212.66 716.531 217.781V218.526H713.92H712.988V219.458V226.907L712.148 226.069L711.496 225.417L710.843 226.069L706.554 230.353L705.901 231.098L706.554 231.75L710.843 236.033L711.496 236.685L712.148 236.033L712.988 235.195V242.086V243.017V245.625V246.184L713.547 246.463L714.946 247.208L715.132 247.301H715.319H736.577H736.764L736.95 247.208L738.349 246.463L738.815 246.184V245.625V243.017V242.086V235.195L739.654 236.033L740.307 236.685L740.96 236.033L745.249 231.75L745.901 231.098L745.249 230.446L740.96 226.162L740.4 225.417L739.748 226.069L738.908 226.907V219.458V218.526H737.976H735.458V217.688C735.458 215.081 734.433 212.66 732.475 210.89C730.703 209.121 728.372 208.19 725.948 208.19ZM738.908 229.422V228.584L739.748 229.422H738.908ZM712.148 229.422L712.988 228.584V229.422H712.148ZM738.908 232.681H739.748L738.908 233.519V232.681ZM712.148 232.681H712.988V233.519L712.148 232.681Z" fill="white"/>
</g>
<g id="Group_7">
<path id="Vector_64" d="M724.55 233.705L723.99 237.523H727.907L727.347 233.705C728.279 233.24 728.839 232.215 728.839 231.098C728.839 229.329 727.254 227.839 725.389 228.211C724.177 228.397 723.245 229.329 723.058 230.539C722.778 231.936 723.524 233.147 724.55 233.705Z" fill="#312D2A"/>
<path id="Vector_65" d="M740.4 226.814L739.374 227.746L741.985 230.353H737.976V219.458H734.526V217.688C734.526 215.36 733.594 213.125 731.822 211.542C730.144 209.866 727.906 209.028 725.482 209.121C720.913 209.307 717.37 213.125 717.37 217.782V219.458H713.92V230.446H709.911L712.521 227.746L711.496 226.721L707.207 231.005L711.496 235.382L712.521 234.357L709.911 231.75H713.92V243.949H737.883V231.843H741.892L739.281 234.45L740.307 235.475L744.596 231.191L740.4 226.814ZM718.862 217.782C718.862 213.87 721.845 210.704 725.575 210.518C727.533 210.425 729.398 211.077 730.89 212.474C732.288 213.87 733.127 215.64 733.127 217.688V219.458H732.009V217.688C732.009 216.012 731.356 214.522 730.144 213.312C728.932 212.194 727.347 211.542 725.761 211.636C722.498 211.636 719.887 214.429 719.887 217.782V219.458H718.862V217.782ZM730.61 217.595V219.365H721.286V217.688C721.286 215.081 723.337 212.939 725.855 212.846C727.16 212.846 728.372 213.312 729.211 214.15C730.144 215.174 730.61 216.385 730.61 217.595ZM736.577 230.353H735.179V231.75H736.577V242.552H715.319V231.75H716.717V230.353H715.319V220.855H736.577V230.353Z" fill="#312D2A"/>
<path id="Vector_66" d="M713.92 244.974V245.625L715.319 246.37H736.577L737.976 245.625V244.974H713.92Z" fill="#312D2A"/>
<path id="Vector_67" d="M721.565 230.354H720.167V231.75H721.565V230.354Z" fill="#312D2A"/>
<path id="Vector_68" d="M719.141 230.354H717.743V231.75H719.141V230.354Z" fill="#312D2A"/>
<path id="Vector_69" d="M734.153 230.354H732.755V231.75H734.153V230.354Z" fill="#312D2A"/>
<path id="Vector_70" d="M731.728 230.354H730.329V231.75H731.728V230.354Z" fill="#312D2A"/>
</g>
</g>
</g>
</g>
<g id="Icon Text Label_6">
<text id="IconLabel_10" fill="black" xml:space="preserve" style="white-space: pre" font-family="Oracle Sans" font-size="16" letter-spacing="0em"><tspan x="688.87" y="265.116">VPN Head</tspan></text>
</g>
</g>
</g>
<g id="Group 1256">
<rect id="Rectangle 701_2" x="723" y="309" width="9" height="39" fill="#F5F4F2"/>
<g id="Security Lists_3">
<g id="Virtual-Private-Network-VPN_2">
<g id="Group_8">
<g id="Group_9">
<g id="Group_10">
<path id="Vector_71" d="M715.225 327.836L713.454 326.998V313.216H711.029L713.174 315.358L711.496 317.034L706.554 312.098L711.496 307.163L713.174 308.746L711.029 310.888H713.547V299.993H716.997V298.782C716.997 293.94 720.726 289.935 725.482 289.656C725.668 289.656 725.761 289.656 725.948 289.656C728.279 289.656 730.423 290.494 732.102 292.17C733.873 293.846 734.899 296.175 734.899 298.689V299.993H738.349V310.981H740.866L738.722 308.746L740.4 307.07L745.342 312.005L740.4 316.941L738.722 315.264L740.866 313.123H738.349V326.812L736.671 327.836H715.225Z" fill="white"/>
<path id="Vector_72" d="M725.948 290.121C728.186 290.121 730.237 290.959 731.822 292.449C733.5 294.032 734.526 296.267 734.526 298.595V300.364H737.976V311.352H741.985L739.375 308.745L740.4 307.721L744.689 312.004L740.4 316.288L739.375 315.264L741.985 312.656H737.976V323.924V326.531L736.577 327.369H715.319L713.92 326.624V324.017V312.749H709.911L712.521 315.357L711.496 316.381L707.207 312.097L711.496 307.814L712.521 308.745L709.911 311.352H713.92V300.457H717.37V298.781C717.37 294.218 720.913 290.4 725.482 290.121C725.668 290.121 725.762 290.121 725.948 290.121ZM725.948 289.189C725.762 289.189 725.575 289.189 725.482 289.189C720.447 289.469 716.531 293.659 716.531 298.781V299.526H713.92H712.988V300.457V307.907L712.148 307.069L711.496 306.417L710.843 307.069L706.554 311.352L705.901 312.097L706.554 312.749L710.843 317.033L711.496 317.685L712.148 317.033L712.988 316.195V323.086V324.017V326.624V327.183L713.547 327.462L714.946 328.207L715.132 328.301H715.319H736.577H736.764L736.95 328.207L738.349 327.462L738.815 327.183V326.624V324.017V323.086V316.195L739.654 317.033L740.307 317.685L740.96 317.033L745.249 312.749L745.901 312.097L745.249 311.446L740.96 307.162L740.4 306.417L739.748 307.069L738.908 307.907V300.457V299.526H737.976H735.458V298.688C735.458 296.08 734.433 293.659 732.475 291.89C730.703 290.121 728.372 289.189 725.948 289.189ZM738.908 310.421V309.583L739.748 310.421H738.908ZM712.148 310.421L712.988 309.583V310.421H712.148ZM738.908 313.68H739.748L738.908 314.519V313.68ZM712.148 313.68H712.988V314.519L712.148 313.68Z" fill="white"/>
</g>
<g id="Group_11">
<path id="Vector_73" d="M724.55 314.705L723.99 318.523H727.907L727.347 314.705C728.279 314.239 728.839 313.215 728.839 312.097C728.839 310.328 727.254 308.838 725.389 309.211C724.177 309.397 723.245 310.328 723.058 311.539C722.778 312.936 723.524 314.146 724.55 314.705Z" fill="#312D2A"/>
<path id="Vector_74" d="M740.4 307.814L739.374 308.745L741.985 311.353H737.976V300.457H734.526V298.688C734.526 296.36 733.594 294.125 731.822 292.542C730.144 290.866 727.906 290.028 725.482 290.121C720.913 290.307 717.37 294.125 717.37 298.781V300.457H713.92V311.446H709.911L712.521 308.745L711.496 307.721L707.207 312.004L711.496 316.381L712.521 315.357L709.911 312.749H713.92V324.948H737.883V312.842H741.892L739.281 315.45L740.307 316.474L744.596 312.191L740.4 307.814ZM718.862 298.781C718.862 294.87 721.845 291.704 725.575 291.518C727.533 291.424 729.398 292.076 730.89 293.473C732.288 294.87 733.127 296.639 733.127 298.688V300.457H732.009V298.688C732.009 297.012 731.356 295.522 730.144 294.311C728.932 293.194 727.347 292.542 725.761 292.635C722.498 292.635 719.887 295.429 719.887 298.781V300.457H718.862V298.781ZM730.61 298.595V300.364H721.286V298.688C721.286 296.081 723.337 293.939 725.855 293.846C727.16 293.846 728.372 294.311 729.211 295.149C730.144 296.174 730.61 297.384 730.61 298.595ZM736.577 311.353H735.179V312.749H736.577V323.551H715.319V312.749H716.717V311.353H715.319V301.854H736.577V311.353Z" fill="#312D2A"/>
<path id="Vector_75" d="M713.92 325.973V326.625L715.319 327.37H736.577L737.976 326.625V325.973H713.92Z" fill="#312D2A"/>
<path id="Vector_76" d="M721.565 311.353H720.167V312.75H721.565V311.353Z" fill="#312D2A"/>
<path id="Vector_77" d="M719.141 311.353H717.743V312.75H719.141V311.353Z" fill="#312D2A"/>
<path id="Vector_78" d="M734.153 311.353H732.755V312.75H734.153V311.353Z" fill="#312D2A"/>
<path id="Vector_79" d="M731.728 311.353H730.329V312.75H731.728V311.353Z" fill="#312D2A"/>
</g>
</g>
</g>
</g>
<g id="Icon Text Label_7">
<text id="IconLabel_11" fill="black" xml:space="preserve" style="white-space: pre" font-family="Oracle Sans" font-size="16" letter-spacing="0em"><tspan x="688.87" y="346.116">VPN Head</tspan></text>
</g>
</g>
</g>
<g id="OCI Region_11">
<rect x="957.5" y="188.5" width="148" height="270" rx="3.5" fill="#E4E1DD"/>
<rect x="957.5" y="188.5" width="148" height="270" rx="3.5" stroke="#9E9892"/>
<text id="Availability Domain" fill="#312D2A" xml:space="preserve" style="white-space: pre" font-family="Oracle Sans" font-size="16" font-weight="600" letter-spacing="0em"><tspan x="974.484" y="209.816">Observability &#38;</tspan></text>
<text id="Availability Domain_2" fill="#312D2A" xml:space="preserve" style="white-space: pre" font-family="Oracle Sans" font-size="16" font-weight="600" letter-spacing="0em"><tspan x="981.859" y="225.816">Management</tspan></text>
</g>
<g id="Group 1257">
<rect id="Rectangle 702" x="251" y="245" width="3" height="91" fill="white"/>
<g id="CPE">
<g id="DBFW-Traffic-Proxy">
<g id="Group 198">
<path id="Vector_80" d="M272.686 299.286V293.729H272.529V299.286H268.986V293.729H268.829V299.286H265.272V293.729H265.115V299.286H261.572V293.729H261.415V299.286H257.872V293.729H245.272V297.172H241.572V299.286H227.972V244.257H223.215V240.715H241.572V242.829H281.786V293.729H276.229V299.286H272.686Z" fill="white"/>
<path id="Vector_81" d="M240.857 241.429V243.543H281.071V293.014H275.514V298.571H273.4V293.014H271.814V298.571H269.643V293.014H268.114V298.571H265.986V293.014H264.4V298.571H262.286V293.014H260.7V298.571H258.586V293.014H244.557V296.457H240.857V298.571H228.686V243.543H223.929V241.429H240.857ZM242.286 240H222.5V244.971H227.257V300H242.286V297.886H245.986V294.443H257.157V300H276.943V294.443H282.5V242.114H242.286V240Z" fill="white"/>
<path id="Vector_82" d="M237.157 255.715H232.4V260.472H237.157V255.715Z" fill="#2D5967"/>
<path id="Vector_83" d="M235.571 286.401H237.157V282.172H235.571V281.115H232.4V282.172V286.401V287.458H235.571V286.401Z" fill="#2D5967"/>
<path id="Vector_84" d="M281.071 243.543H240.857V241.429H223.928V243.543H228.685V298.572H240.857V296.458H244.557V293.015H258.585V298.572H260.7V293.015H262.285V298.572H264.4V293.015H265.985V298.572H268.114V293.015H269.643V298.572H271.757V293.015H273.343V298.572H275.457V293.015H281.071V243.543ZM238.743 296.4H230.8V243.543H238.743V296.4ZM278.957 290.843H242.5V294.286H240.857V245.715H278.957V290.843Z" fill="#2D5967"/>
<path id="Vector_85" d="M256.785 277.143H262.343V286.672H277.1V278.729H273.214C272.965 278.024 272.474 277.429 271.829 277.051C271.183 276.672 270.425 276.534 269.688 276.66C268.95 276.787 268.281 277.17 267.799 277.742C267.317 278.314 267.053 279.038 267.053 279.786C267.053 280.534 267.317 281.258 267.799 281.83C268.281 282.402 268.95 282.785 269.688 282.912C270.425 283.038 271.183 282.9 271.829 282.522C272.474 282.143 272.965 281.549 273.214 280.843H274.985V284.557H264.4V275.029H256.785V272.857H254.614V264.715H259.914V251.743H263.743V266.3H267.843V268.143H277.1V262.329H267.843V264.186H265.857V258.886H267.843V260.743H277.1V254.915H267.843V256.772H265.857V251.743H267.843V253.6H277.1V247.772H267.843V249.629H259.914V247.772H242.971V264.715H245.085V272.857H242.971V286.615H256.785V277.143ZM271.343 279.786C271.343 279.995 271.281 280.199 271.164 280.373C271.048 280.547 270.883 280.683 270.69 280.763C270.497 280.843 270.284 280.864 270.079 280.823C269.874 280.782 269.686 280.681 269.538 280.534C269.39 280.386 269.289 280.197 269.249 279.992C269.208 279.787 269.229 279.575 269.309 279.381C269.389 279.188 269.524 279.023 269.698 278.907C269.872 278.791 270.076 278.729 270.285 278.729C270.556 278.744 270.81 278.861 270.996 279.058C271.182 279.255 271.286 279.515 271.285 279.786H271.343ZM270.014 264.443H275.043V266.029H269.957L270.014 264.443ZM270.014 257.043H275.043V258.572H269.957L270.014 257.043ZM270.014 249.9H275.043V251.429H269.957L270.014 249.9ZM252.5 272.857H250.914V264.715H252.5V272.857ZM245.085 249.9H257.785V262.586H245.085V249.9ZM247.214 264.715H248.8V272.857H247.214V264.715ZM254.614 284.557H245.085V275.029H254.614V284.557Z" fill="#2D5967"/>
</g>
</g>
<g id="Icon Text Label_8">
<text id="IconLabel_12" fill="black" xml:space="preserve" style="white-space: pre" font-family="Oracle Sans" font-size="16" letter-spacing="0em"><tspan x="217.211" y="317.816">Customer</tspan></text>
<text id="IconLabel_13" fill="black" xml:space="preserve" style="white-space: pre" font-family="Oracle Sans" font-size="16" letter-spacing="0em"><tspan x="232.211" y="333.816">Proxy</tspan></text>
</g>
</g>
</g>
<g id="CPE_2">
<g id="Oracle-Enterprise-Manager_(On-Prem)">
<g id="Group_12">
<g id="Group_13">
<g id="Group_14">
<g id="Group_15">
<path id="Vector_86" d="M251.866 113.64C250.585 113.64 249.589 112.645 249.589 111.366V85.4887C249.589 84.2091 250.585 83.2139 251.866 83.2139H279.344C280.625 83.2139 281.622 84.2091 281.622 85.4887V111.366C281.622 112.645 280.625 113.64 279.344 113.64H251.866Z" fill="white"/>
<path id="Vector_87" d="M279.202 83.9245C280.056 83.9245 280.768 84.6354 280.768 85.4885V111.365C280.768 112.218 280.056 112.929 279.202 112.929H251.867C251.012 112.929 250.3 112.218 250.3 111.365V85.4885C250.3 84.6354 251.012 83.9245 251.867 83.9245H279.202ZM279.202 82.5027H251.867C250.158 82.5027 248.877 83.7823 248.877 85.4885V111.365C248.877 113.071 250.158 114.351 251.867 114.351H279.344C281.052 114.351 282.334 113.071 282.334 111.365V85.4885C282.334 83.7823 280.91 82.5027 279.202 82.5027Z" fill="white"/>
</g>
<g id="Group_16">
<path id="Vector_88" d="M227.379 127.289V71.8386H234.07L238.341 68.8528L242.897 71.8386H249.446V127.289H227.379Z" fill="white"/>
<path id="Vector_89" d="M238.341 69.7062L242.612 72.5498H248.592V124.445V126.578H228.091V124.445V72.5498H234.355L238.341 69.7062ZM238.341 68L237.487 68.5687L233.928 71.128H228.091H226.667V72.5498V124.445V126.578V128H228.091H248.734H250.158V126.578V124.445V72.5498V71.128H248.734H243.182L239.196 68.5687L238.341 68Z" fill="white"/>
</g>
</g>
<g id="Group_17">
<path id="Vector_90" d="M279.201 83.9246H251.866C251.012 83.9246 250.3 84.6355 250.3 85.4885V111.365C250.3 112.218 251.012 112.929 251.866 112.929H279.344C280.198 112.929 280.91 112.218 280.91 111.365V85.4885C280.91 84.6355 280.198 83.9246 279.201 83.9246ZM278.774 110.797H252.293V86.0573H278.632V110.797H278.774Z" fill="#2D5967"/>
<path id="Vector_91" d="M233.928 84.4934H231.792V86.6261H233.928V84.4934Z" fill="#2D5967"/>
<path id="Vector_92" d="M237.629 84.4934H235.494V86.6261H237.629V84.4934Z" fill="#2D5967"/>
<path id="Vector_93" d="M241.331 84.4934H239.195V86.6261H241.331V84.4934Z" fill="#2D5967"/>
<path id="Vector_94" d="M233.928 88.1897H231.792V90.3224H233.928V88.1897Z" fill="#2D5967"/>
<path id="Vector_95" d="M237.629 88.1897H235.494V90.3224H237.629V88.1897Z" fill="#2D5967"/>
<path id="Vector_96" d="M233.928 91.8867H231.792V94.0194H233.928V91.8867Z" fill="#2D5967"/>
<path id="Vector_97" d="M237.629 91.8867H235.494V94.0194H237.629V91.8867Z" fill="#2D5967"/>
<path id="Vector_98" d="M233.928 95.4414H231.792V97.5741H233.928V95.4414Z" fill="#2D5967"/>
<path id="Vector_99" d="M237.629 95.4414H235.494V97.5741H237.629V95.4414Z" fill="#2D5967"/>
<path id="Vector_100" d="M233.928 99.1377H231.792V101.27H233.928V99.1377Z" fill="#2D5967"/>
<path id="Vector_101" d="M237.629 99.1377H235.494V101.27H237.629V99.1377Z" fill="#2D5967"/>
<path id="Vector_102" d="M233.928 102.835H231.792V104.967H233.928V102.835Z" fill="#2D5967"/>
<path id="Vector_103" d="M237.629 102.835H235.494V104.967H237.629V102.835Z" fill="#2D5967"/>
<path id="Vector_104" d="M233.928 106.531H231.792V108.664H233.928V106.531Z" fill="#2D5967"/>
<path id="Vector_105" d="M237.629 106.531H235.494V108.664H237.629V106.531Z" fill="#2D5967"/>
<path id="Vector_106" d="M233.928 110.228H231.792V112.361H233.928V110.228Z" fill="#2D5967"/>
<path id="Vector_107" d="M237.629 110.228H235.494V112.361H237.629V110.228Z" fill="#2D5967"/>
<path id="Vector_108" d="M233.928 113.925H231.792V116.057H233.928V113.925Z" fill="#2D5967"/>
<path id="Vector_109" d="M237.629 113.925H235.494V116.057H237.629V113.925Z" fill="#2D5967"/>
<path id="Vector_110" d="M233.928 117.622H231.792V119.754H233.928V117.622Z" fill="#2D5967"/>
<path id="Vector_111" d="M237.629 117.622H235.494V119.754H237.629V117.622Z" fill="#2D5967"/>
<path id="Vector_112" d="M241.331 88.1897H239.195V90.3224H241.331V88.1897Z" fill="#2D5967"/>
<path id="Vector_113" d="M241.331 91.8867H239.195V94.0194H241.331V91.8867Z" fill="#2D5967"/>
<path id="Vector_114" d="M241.331 95.4414H239.195V97.5741H241.331V95.4414Z" fill="#2D5967"/>
<path id="Vector_115" d="M241.331 99.1377H239.195V101.27H241.331V99.1377Z" fill="#2D5967"/>
<path id="Vector_116" d="M241.331 102.835H239.195V104.967H241.331V102.835Z" fill="#2D5967"/>
<path id="Vector_117" d="M241.331 106.531H239.195V108.664H241.331V106.531Z" fill="#2D5967"/>
<path id="Vector_118" d="M241.331 110.228H239.195V112.361H241.331V110.228Z" fill="#2D5967"/>
<path id="Vector_119" d="M241.331 113.925H239.195V116.057H241.331V113.925Z" fill="#2D5967"/>
<path id="Vector_120" d="M241.331 117.622H239.195V119.754H241.331V117.622Z" fill="#2D5967"/>
<path id="Vector_121" d="M245.033 84.4934H242.897V86.6261H245.033V84.4934Z" fill="#2D5967"/>
<path id="Vector_122" d="M233.928 80.7961H231.792V82.9288H233.928V80.7961Z" fill="#2D5967"/>
<path id="Vector_123" d="M237.629 80.7961H235.494V82.9288H237.629V80.7961Z" fill="#2D5967"/>
<path id="Vector_124" d="M241.331 80.7961H239.195V82.9288H241.331V80.7961Z" fill="#2D5967"/>
<path id="Vector_125" d="M245.033 80.7961H242.897V82.9288H245.033V80.7961Z" fill="#2D5967"/>
<path id="Vector_126" d="M233.928 77.0999H231.792V79.2326H233.928V77.0999Z" fill="#2D5967"/>
<path id="Vector_127" d="M237.629 77.0999H235.494V79.2326H237.629V77.0999Z" fill="#2D5967"/>
<path id="Vector_128" d="M241.331 77.0999H239.195V79.2326H241.331V77.0999Z" fill="#2D5967"/>
<path id="Vector_129" d="M245.033 77.0999H242.897V79.2326H245.033V77.0999Z" fill="#2D5967"/>
<path id="Vector_130" d="M245.033 88.1897H242.897V90.3224H245.033V88.1897Z" fill="#2D5967"/>
<path id="Vector_131" d="M245.033 91.8867H242.897V94.0194H245.033V91.8867Z" fill="#2D5967"/>
<path id="Vector_132" d="M245.033 95.4414H242.897V97.5741H245.033V95.4414Z" fill="#2D5967"/>
<path id="Vector_133" d="M245.033 99.1377H242.897V101.27H245.033V99.1377Z" fill="#2D5967"/>
<path id="Vector_134" d="M245.033 102.835H242.897V104.967H245.033V102.835Z" fill="#2D5967"/>
<path id="Vector_135" d="M245.033 106.531H242.897V108.664H245.033V106.531Z" fill="#2D5967"/>
<path id="Vector_136" d="M245.033 110.228H242.897V112.361H245.033V110.228Z" fill="#2D5967"/>
<path id="Vector_137" d="M245.033 113.925H242.897V116.057H245.033V113.925Z" fill="#2D5967"/>
<path id="Vector_138" d="M245.033 117.622H242.897V119.754H245.033V117.622Z" fill="#2D5967"/>
<path id="Vector_139" d="M238.341 69.7065L234.355 72.5501H228.091V124.446V126.579H248.734V124.446V72.5501H242.755L238.341 69.7065ZM246.599 124.446H239.48V121.318H237.345V124.446H230.226V74.6828H235.067L238.341 72.2658L241.9 74.6828H246.599V124.446Z" fill="#2D5967"/>
<path id="Vector_140" d="M260.978 100.986L259.412 99.4219H264.537V104.54L262.829 102.834L261.405 104.398L265.534 108.521L269.662 104.398L268.239 102.834L266.673 104.54V99.4219H271.656L270.09 100.986L271.513 102.55L275.784 98.2845L271.513 94.1613L270.09 95.7252L271.798 97.2892H266.673V92.1707L268.239 93.8769L269.662 92.3129L265.534 88.1897L261.405 92.3129L262.829 93.8769L264.537 92.1707V97.2892H259.412L260.978 95.7252L259.554 94.1613L255.425 98.2845L259.554 102.55L260.978 100.986Z" fill="#2D5967"/>
</g>
</g>
</g>
</g>
<g id="Icon Text Label_9">
<text id="IconLabel_14" fill="black" xml:space="preserve" style="white-space: pre" font-family="Oracle Sans" font-size="16" letter-spacing="0em"><tspan x="231.438" y="145.816">Oracle</tspan></text>
<text id="IconLabel_15" fill="black" xml:space="preserve" style="white-space: pre" font-family="Oracle Sans" font-size="16" letter-spacing="0em"><tspan x="217.477" y="161.816">Enterprise</tspan></text>
<text id="IconLabel_16" fill="black" xml:space="preserve" style="white-space: pre" font-family="Oracle Sans" font-size="16" letter-spacing="0em"><tspan x="222.188" y="177.816">Manager</tspan></text>
</g>
</g>
<g id="CPE_3">
<g id="gateway-generic">
<g id="Group_18">
<path id="Vector_141" d="M375.655 90.4084L370.772 85.9108L370.115 85.2549L369.458 85.9108L368.519 86.9415L367.862 87.5974L368.519 88.2533L369.739 89.3777H366.359V77.1967C366.359 75.7912 365.232 74.6667 363.824 74.6667H344.387C342.979 74.6667 341.852 75.7912 341.852 77.1967V89.4714H337.439H336.5V90.4084V91.8139V92.751H337.439H341.852V105.026C341.852 106.431 342.979 107.556 344.387 107.556H363.918C365.326 107.556 366.453 106.431 366.453 105.026V92.751H369.833L368.613 93.8754L367.955 94.5313L368.613 95.1872L369.552 96.2179L370.209 96.8738L370.866 96.2179L375.749 91.7202L376.5 91.0643L375.655 90.4084Z" fill="white"/>
<path id="Vector_142" d="M370.115 86.5667L369.176 87.5974L372.181 90.4084H365.42V77.1967C365.42 76.3534 364.763 75.6038 363.824 75.6038H344.387C343.542 75.6038 342.791 76.2597 342.791 77.1967V90.4084H337.439V91.8139H342.791V105.026C342.791 105.869 343.448 106.619 344.387 106.619H363.918C364.763 106.619 365.514 105.963 365.514 105.026V91.8139H372.181L369.176 94.625L370.115 95.6557L374.998 91.158L370.115 86.5667ZM364.012 104.932C364.012 105.026 363.918 105.119 363.824 105.119H344.387C344.294 105.119 344.2 105.026 344.2 104.932V91.8139H362.603V90.4084H344.2V77.1967C344.2 77.103 344.294 77.0093 344.387 77.0093H363.918C364.012 77.0093 364.106 77.103 364.106 77.1967V90.4084V91.8139V104.932H364.012Z" fill="#2D5967"/>
</g>
</g>
<g id="Icon Text Label_10">
<text id="IconLabel_17" fill="black" xml:space="preserve" style="white-space: pre" font-family="Oracle Sans" font-size="16" letter-spacing="0em"><tspan x="308.18" y="125.816">Management</tspan></text>
<text id="IconLabel_18" fill="black" xml:space="preserve" style="white-space: pre" font-family="Oracle Sans" font-size="16" letter-spacing="0em"><tspan x="325.617" y="141.816">Gateway</tspan></text>
</g>
</g>
<g id="Object Storage">
<g id="Services/Object-Storage">
<g id="Group_19">
<g id="Group_20">
<g id="Group_21">
<path id="Vector_143" d="M800.85 299.286C799.139 299.286 797.714 297.857 797.714 296.143V243.857C797.714 242.143 799.139 240.714 800.85 240.714H853.154C854.864 240.714 856.289 242.143 856.289 243.857V296.286C856.289 298 854.864 299.429 853.154 299.429L800.85 299.286Z" fill="white"/>
<path id="Vector_144" d="M853.01 241.429C854.292 241.429 855.432 242.571 855.432 243.857V296.286C855.432 297.571 854.292 298.714 853.01 298.714H800.848C799.565 298.571 798.425 297.429 798.425 296.143V243.857C798.425 242.571 799.565 241.429 800.848 241.429H853.01ZM853.01 240H800.848C798.71 240 797 241.714 797 243.857V296.286C797 298.286 798.71 300 800.848 300H853.152C855.29 300 857 298.286 857 296.143V243.857C856.857 241.714 855.147 240 853.01 240Z" fill="white"/>
</g>
<g id="Group_22">
<g id="Group_23">
<path id="Vector_145" d="M840.325 256.572L844.173 263.286L840.325 270.001H832.629L828.781 263.286L832.629 256.572H840.325ZM841.608 254.572H831.346L826.216 263.429L831.346 272.286H841.608L846.738 263.429L841.608 254.572Z" fill="#2D5967"/>
</g>
<g id="Group_24">
<path id="Vector_146" d="M826.499 277C830.205 277 833.198 280 833.198 283.714C833.198 287.429 830.205 290.429 826.499 290.429C822.794 290.429 819.801 287.429 819.801 283.714C819.801 280 822.794 277 826.499 277ZM826.499 275C821.654 275 817.663 279 817.663 283.857C817.663 288.714 821.654 292.714 826.499 292.714C831.345 292.714 835.336 288.714 835.336 283.857C835.336 278.857 831.345 275 826.499 275Z" fill="#2D5967"/>
</g>
<g id="Group_25">
<path id="Vector_147" d="M816.382 258.286L822.652 269.572H810.253L816.382 258.286ZM816.382 254.001L806.69 271.715H826.215L816.382 254.001Z" fill="#2D5967"/>
</g>
</g>
<g id="Group_26">
<path id="Vector_148" d="M853.01 298.572H800.848C799.566 298.572 798.426 297.429 798.426 296.144V247.144H855.433V296.144C855.433 297.429 854.293 298.572 853.01 298.572ZM800.563 249.286V296.286C800.563 296.429 800.706 296.572 800.848 296.572H853.153C853.295 296.572 853.438 296.429 853.438 296.286V249.286H800.563Z" fill="#2D5967"/>
</g>
<g id="Group_27">
<path id="Vector_149" d="M855.433 245.572H798.426V243.858C798.426 242.572 799.566 241.429 800.848 241.429H853.153C854.293 241.429 855.433 242.572 855.433 243.858V245.572Z" fill="#2D5967"/>
</g>
</g>
</g>
</g>
<g id="Icon Text Label_11">
<text id="IconLabel_19" fill="black" xml:space="preserve" style="white-space: pre" font-family="Oracle Sans" font-size="16" letter-spacing="0em"><tspan x="803.398" y="317.816">Object</tspan></text>
<text id="IconLabel_20" fill="black" xml:space="preserve" style="white-space: pre" font-family="Oracle Sans" font-size="16" letter-spacing="0em"><tspan x="799.188" y="333.816">Storage</tspan></text>
</g>
</g>
<g id="Operations Insights">
<g id="Operations-Insights-Cloud-Service">
<g id="Group 221">
<path id="Vector_150" d="M1043.09 296.108C1041.41 294.4 1039.84 292.576 1038.41 290.648L1034.58 285.311C1032.38 286.407 1029.95 286.936 1027.5 286.849C1025.05 286.762 1022.66 286.062 1020.54 284.814C1018.43 283.565 1016.67 281.807 1015.41 279.701C1014.15 277.594 1013.44 275.206 1013.34 272.753H1002.74L1002.89 270.706C1003.06 268.307 1003.85 265.993 1005.17 263.984C1006.5 261.974 1008.31 260.337 1010.44 259.227C1010.91 258.986 1011.31 258.644 1011.63 258.226C1011.94 257.808 1012.16 257.324 1012.26 256.811C1012.74 254.35 1014.07 252.133 1016 250.54C1017.94 248.947 1020.37 248.075 1022.87 248.075C1023.21 248.075 1023.56 248.075 1023.88 248.075H1024.24C1024.69 248.081 1025.14 247.992 1025.55 247.813C1025.97 247.634 1026.34 247.37 1026.65 247.038C1027.9 245.71 1029.41 244.652 1031.09 243.932C1032.76 243.211 1034.57 242.842 1036.39 242.847C1038.86 242.839 1041.28 243.522 1043.38 244.82C1045.48 246.118 1047.17 247.979 1048.26 250.191C1048.5 250.668 1048.84 251.085 1049.26 251.412C1049.68 251.738 1050.17 251.965 1050.69 252.074C1052.21 252.42 1053.66 253.02 1054.99 253.849C1057.89 255.694 1059.98 258.566 1060.86 261.891C1061.74 265.216 1061.32 268.75 1059.71 271.784L1059.16 272.781H1042.71C1042.63 274.844 1042.11 276.867 1041.19 278.718L1046.5 282.54C1048.43 283.973 1050.25 285.543 1051.96 287.236L1054.96 290.225L1046.09 299.097L1043.09 296.108Z" fill="white"/>
<path id="Vector_151" d="M1036.39 243.53C1038.73 243.525 1041.03 244.175 1043.02 245.408C1045.01 246.641 1046.61 248.407 1047.65 250.505C1047.93 251.072 1048.34 251.568 1048.84 251.956C1049.34 252.343 1049.92 252.613 1050.54 252.744C1051.99 253.06 1053.38 253.628 1054.63 254.423C1057.39 256.17 1059.39 258.898 1060.22 262.058C1061.05 265.218 1060.66 268.576 1059.12 271.457L1058.77 272.099H1042.04V272.194C1042.04 274.555 1041.45 276.879 1040.32 278.951L1046.09 283.114C1047.99 284.526 1049.79 286.072 1051.47 287.741L1053.98 290.253L1046.08 298.129L1043.57 295.617C1041.91 293.944 1040.37 292.156 1038.96 290.266L1034.74 284.479C1032.61 285.642 1030.21 286.231 1027.78 286.188C1025.35 286.145 1022.98 285.471 1020.88 284.233C1018.79 282.994 1017.06 281.234 1015.85 279.123C1014.65 277.013 1014.01 274.625 1014.01 272.194V272.126H1003.47L1003.57 270.761C1003.74 268.478 1004.48 266.276 1005.74 264.365C1007 262.453 1008.73 260.896 1010.76 259.842C1011.31 259.55 1011.79 259.139 1012.16 258.639C1012.54 258.138 1012.79 257.56 1012.91 256.948C1013.23 255.342 1013.93 253.837 1014.95 252.558C1015.97 251.28 1017.28 250.267 1018.78 249.604C1020.07 249.046 1021.47 248.758 1022.87 248.758C1023.18 248.758 1023.5 248.758 1023.81 248.758H1024.22C1024.76 248.782 1025.3 248.694 1025.81 248.499C1026.31 248.304 1026.77 248.007 1027.16 247.625C1028.33 246.346 1029.76 245.322 1031.35 244.617C1032.94 243.913 1034.66 243.543 1036.39 243.53ZM1036.39 242.165C1034.47 242.166 1032.57 242.563 1030.81 243.331C1029.05 244.099 1027.47 245.222 1026.16 246.629C1025.92 246.892 1025.62 247.101 1025.29 247.242C1024.95 247.383 1024.6 247.453 1024.24 247.448H1023.95C1023.6 247.448 1023.24 247.448 1022.89 247.448C1020.22 247.43 1017.63 248.341 1015.56 250.025C1013.49 251.708 1012.08 254.059 1011.55 256.675C1011.48 257.08 1011.33 257.464 1011.09 257.8C1010.85 258.135 1010.54 258.413 1010.19 258.613C1007.93 259.774 1006.02 261.492 1004.62 263.605C1003.22 265.717 1002.39 268.153 1002.2 270.679L1002.11 272.044L1002 273.464H1012.7C1013.02 277.309 1014.78 280.892 1017.62 283.503C1020.46 286.115 1024.17 287.564 1028.03 287.564C1030.21 287.56 1032.36 287.095 1034.35 286.199L1037.85 291.072C1039.31 292.994 1040.9 294.818 1042.6 296.532L1045.11 299.043L1046.08 299.999L1047.05 299.043L1054.95 291.14L1055.9 290.171L1054.95 289.202L1052.48 286.759C1050.77 285.046 1048.95 283.454 1047.02 281.995L1042.16 278.501C1042.88 276.908 1043.32 275.205 1043.46 273.464H1059.57L1059.95 272.754L1060.31 272.113C1062.01 268.927 1062.45 265.215 1061.53 261.721C1060.61 258.227 1058.41 255.21 1055.36 253.276C1053.97 252.394 1052.43 251.761 1050.83 251.406C1050.41 251.315 1050.02 251.132 1049.68 250.87C1049.34 250.608 1049.07 250.273 1048.88 249.891C1047.72 247.565 1045.94 245.609 1043.74 244.243C1041.53 242.878 1038.99 242.158 1036.39 242.165Z" fill="white"/>
<path id="Vector_152" d="M1054.62 254.449C1053.36 253.654 1051.98 253.086 1050.53 252.77C1049.91 252.639 1049.33 252.37 1048.82 251.982C1048.32 251.594 1047.92 251.099 1047.63 250.532C1046.6 248.43 1045 246.66 1043.01 245.422C1041.03 244.185 1038.73 243.529 1036.39 243.529C1034.66 243.542 1032.94 243.912 1031.35 244.616C1029.76 245.321 1028.33 246.345 1027.16 247.624C1026.73 248.063 1026.21 248.398 1025.63 248.602C1025.05 248.805 1024.44 248.872 1023.83 248.798C1021.32 248.553 1018.8 249.258 1016.78 250.773C1014.76 252.289 1013.38 254.506 1012.91 256.988C1012.79 257.599 1012.53 258.175 1012.16 258.673C1011.78 259.171 1011.3 259.58 1010.75 259.868C1008.71 260.922 1006.99 262.48 1005.73 264.391C1004.47 266.303 1003.72 268.505 1003.56 270.788L1003.46 272.152H1012.05C1012.06 271.33 1012.12 270.509 1012.25 269.696H1006.19C1006.51 268.074 1007.19 266.546 1008.18 265.223C1009.17 263.9 1010.44 262.816 1011.9 262.052C1012.79 261.596 1013.55 260.946 1014.15 260.152C1014.74 259.358 1015.15 258.44 1015.34 257.466C1015.71 255.609 1016.75 253.954 1018.26 252.815C1019.77 251.677 1021.64 251.136 1023.53 251.296C1024.52 251.4 1025.52 251.273 1026.45 250.925C1027.38 250.577 1028.22 250.017 1028.9 249.289C1030.01 248.072 1031.4 247.143 1032.95 246.583C1034.49 246.023 1036.16 245.849 1037.79 246.077C1039.42 246.304 1040.97 246.925 1042.3 247.887C1043.64 248.849 1044.72 250.122 1045.45 251.596C1045.9 252.491 1046.54 253.274 1047.33 253.888C1048.12 254.502 1049.03 254.932 1050.01 255.145C1051.18 255.401 1052.3 255.863 1053.31 256.51C1055.44 257.854 1057.01 259.923 1057.74 262.336C1058.47 264.748 1058.3 267.343 1057.27 269.641H1043.8C1043.93 270.454 1043.99 271.275 1043.99 272.098H1058.75L1059.11 271.456C1060.64 268.577 1061.03 265.226 1060.2 262.072C1059.36 258.919 1057.37 256.196 1054.62 254.449Z" fill="#2D5967"/>
<path id="Vector_153" d="M1036.2 280.384C1035.13 281.464 1033.85 282.321 1032.45 282.905C1031.04 283.49 1029.54 283.791 1028.02 283.791C1026.5 283.791 1024.99 283.49 1023.58 282.905C1022.18 282.321 1020.9 281.464 1019.83 280.384C1018.28 278.846 1017.21 276.894 1016.73 274.761L1019.22 277.245L1025.1 271.362L1031.52 277.791L1032.4 276.917L1046.71 262.64V265.083H1049.16V258.258H1042.41V260.715H1045.14L1031.59 274.269L1030.29 272.904L1025.17 267.786L1019.29 273.682L1016.56 270.953C1016.8 268.789 1017.64 266.736 1018.99 265.031C1020.34 263.325 1022.15 262.036 1024.2 261.31C1026.25 260.585 1028.47 260.453 1030.59 260.93C1032.71 261.406 1034.66 262.472 1036.2 264.005C1036.71 264.51 1037.17 265.063 1037.57 265.656L1039.34 263.896C1038.93 263.318 1038.47 262.775 1037.98 262.271C1036.14 260.422 1033.83 259.121 1031.29 258.515C1028.76 257.908 1026.11 258.019 1023.63 258.836C1021.16 259.653 1018.96 261.143 1017.29 263.139C1015.61 265.135 1014.52 267.559 1014.15 270.138C1013.77 272.718 1014.12 275.35 1015.16 277.742C1016.2 280.133 1017.88 282.189 1020.01 283.678C1022.15 285.167 1024.66 286.03 1027.26 286.172C1029.87 286.314 1032.46 285.727 1034.74 284.479L1038.92 290.28C1040.33 292.17 1041.87 293.958 1043.53 295.631L1046.08 298.129L1053.98 290.226L1051.47 287.714C1049.79 286.054 1047.99 284.517 1046.09 283.114L1040.32 278.951C1041.8 276.23 1042.35 273.099 1041.88 270.038L1039.59 272.331C1039.57 275.357 1038.35 278.253 1036.2 280.384ZM1044.65 285.107C1046.45 286.438 1048.15 287.893 1049.75 289.461L1050.51 290.226L1046.09 294.648L1045.33 293.884C1043.75 292.297 1042.29 290.6 1040.95 288.806L1036.86 283.087C1037.25 282.777 1037.62 282.444 1037.98 282.091C1038.34 281.722 1038.67 281.353 1038.99 280.971L1044.65 285.107Z" fill="#2D5967"/>
</g>
</g>
<g id="Icon Text Label_12">
<text id="IconLabel_21" fill="black" xml:space="preserve" style="white-space: pre" font-family="Oracle Sans" font-size="16" letter-spacing="0em"><tspan x="992.047" y="317.816">Operations</tspan></text>
<text id="IconLabel_22" fill="black" xml:space="preserve" style="white-space: pre" font-family="Oracle Sans" font-size="16" letter-spacing="0em"><tspan x="1003.62" y="333.816">Insights</tspan></text>
</g>
</g>
<g id="Database System">
<g id="Services/Database">
<g id="Group 15">
<path id="Vector_154" d="M1032.19 425.286C1029.52 425.286 1006.05 425.072 1006.05 417.429V374.8C1006.05 366.943 1029.52 366.715 1032.19 366.715C1034.86 366.715 1058.35 366.943 1058.35 374.8V417.429C1058.35 425.072 1034.87 425.286 1032.19 425.286Z" fill="white"/>
<path id="Vector_155" d="M1032.19 367.429C1041.05 367.429 1057.63 368.971 1057.63 374.8V417.429C1057.63 423.143 1040.99 424.571 1032.19 424.571C1023.39 424.571 1006.76 423.143 1006.76 417.429V374.8C1006.76 368.971 1023.4 367.429 1032.19 367.429ZM1032.19 366C1027.7 366 1005.33 366.429 1005.33 374.8V417.429C1005.33 425.614 1027.7 426 1032.19 426C1036.68 426 1059.06 425.586 1059.06 417.429V374.8C1059.06 366.429 1036.76 366 1032.19 366Z" fill="white"/>
<path id="Vector_156" d="M1057.63 374.8C1057.63 368.972 1041.05 367.429 1032.19 367.429C1023.33 367.429 1006.76 368.972 1006.76 374.8V417.429C1006.76 423.143 1023.41 424.572 1032.19 424.572C1040.98 424.572 1057.63 423.143 1057.63 417.429V374.8ZM1054.78 403.372C1054.78 403.629 1053.71 404.915 1048.81 406.1C1043.35 407.263 1037.77 407.81 1032.19 407.729C1026.59 407.805 1021 407.249 1015.52 406.072C1010.62 404.886 1009.62 403.6 1009.62 403.343V392.858C1014.73 395.643 1025.69 396.486 1032.26 396.486C1038.83 396.486 1049.81 395.643 1054.92 392.858L1054.78 403.372ZM1054.78 389.343C1054.78 389.6 1053.71 390.9 1048.81 392.072C1043.35 393.235 1037.77 393.781 1032.19 393.7C1026.59 393.776 1021 393.22 1015.52 392.043C1010.62 390.872 1009.62 389.572 1009.62 389.315V378.429C1014.73 381.286 1025.69 382.158 1032.26 382.158C1038.83 382.158 1049.81 381.3 1054.92 378.429L1054.78 389.343ZM1015.53 371.929C1021 370.74 1026.59 370.189 1032.19 370.286C1037.8 370.211 1043.39 370.787 1048.86 372C1053.91 373.143 1054.85 374.572 1054.85 374.8C1054.85 375.029 1053.83 376.429 1048.86 377.658C1043.39 378.871 1037.8 379.446 1032.19 379.372C1026.59 379.45 1021 378.879 1015.53 377.672C1010.56 376.429 1009.62 375.086 1009.62 374.8C1009.62 374.515 1010.63 373.158 1015.61 371.943L1015.53 371.929ZM1048.88 420.129C1043.39 421.307 1037.8 421.863 1032.19 421.786C1026.59 421.862 1021 421.306 1015.52 420.129C1010.62 418.958 1009.62 417.658 1009.62 417.429V406.886C1014.73 409.672 1025.69 410.515 1032.26 410.515C1038.83 410.515 1049.81 409.672 1054.92 406.886V417.429C1054.92 417.686 1053.85 418.986 1048.95 420.158" fill="#2D5967"/>
</g>
</g>
<g id="Icon Text Label_13">
<text id="IconLabel_23" fill="black" xml:space="preserve" style="white-space: pre" font-family="Oracle Sans" font-size="16" letter-spacing="0em"><tspan x="994.227" y="443.816">Data Store</tspan></text>
</g>
</g>
<g id="Icon Master">
<g id="Key-Management">
<g id="Group_28">
<g id="Group_29">
<g id="Group_30">
<path id="Vector_157" d="M1030.73 542.725C1017.62 536.2 1009.78 526.129 1009.21 515.066V494.214L1031.44 484.711L1053.67 494.214V514.924C1052.95 526.129 1045.26 536.2 1032.15 542.583L1031.44 543.009L1030.73 542.725Z" fill="white"/>
<path id="Vector_158" d="M1031.44 485.56L1052.96 494.78V514.922C1052.39 525.702 1044.69 535.631 1031.87 542.014L1031.44 542.298L1031.01 542.014C1018.19 535.631 1010.49 525.844 1009.92 514.922V494.78L1031.44 485.56ZM1031.44 484L1030.87 484.284L1009.35 493.504L1008.5 493.787V494.78V514.922V515.064C1009.21 526.411 1017.19 536.766 1030.44 543.433L1030.87 543.716L1031.58 544L1032.3 543.716L1032.72 543.433C1045.97 536.766 1053.95 526.553 1054.67 515.206V494.78V493.787L1053.81 493.362L1032.01 484.284L1031.44 484Z" fill="white"/>
</g>
<g id="Group_31">
<path id="Vector_159" d="M1031.44 485.56L1009.92 494.78V514.922C1010.49 525.702 1018.19 535.631 1031.01 542.014L1031.44 542.297L1031.87 542.014C1044.69 535.631 1052.39 525.702 1052.96 514.922V494.78L1031.44 485.56ZM1050.96 514.922C1050.39 524.851 1043.27 533.929 1031.58 540.028C1019.61 533.929 1012.63 524.851 1012.06 514.922V496.056L1031.44 487.829L1050.82 496.056C1050.96 496.056 1050.96 514.922 1050.96 514.922Z" fill="#2D5967"/>
<path id="Vector_160" d="M1025.03 507.547C1022.32 507.547 1020.19 509.675 1020.19 512.37C1020.19 515.065 1022.32 517.192 1025.03 517.192C1027.31 517.192 1029.16 515.632 1029.73 513.504H1036.14V517.192H1038.28V513.504H1040.7V517.476H1042.84V511.519H1029.87C1029.31 509.249 1027.45 507.547 1025.03 507.547ZM1025.03 515.206C1023.46 515.206 1022.32 513.93 1022.32 512.511C1022.32 511.093 1023.61 509.816 1025.03 509.816C1026.46 509.816 1027.74 511.093 1027.74 512.511C1027.74 513.93 1026.6 515.206 1025.03 515.206Z" fill="#2D5967"/>
</g>
</g>
</g>
</g>
<g id="Icon Text Label_14">
<text id="IconLabel_24" fill="black" xml:space="preserve" style="white-space: pre" font-family="Oracle Sans" font-size="16" letter-spacing="0em"><tspan x="996.211" y="561.816">Customer</tspan></text>
<text id="IconLabel_25" fill="black" xml:space="preserve" style="white-space: pre" font-family="Oracle Sans" font-size="16" letter-spacing="0em"><tspan x="978.398" y="577.816">Managed Keys</tspan></text>
</g>
</g>
<path id="Vector 78" d="M1031.71 446.293C1031.32 445.902 1030.68 445.902 1030.29 446.293L1023.93 452.657C1023.54 453.047 1023.54 453.681 1023.93 454.071C1024.32 454.462 1024.95 454.462 1025.34 454.071L1031 448.414L1036.66 454.071C1037.05 454.462 1037.68 454.462 1038.07 454.071C1038.46 453.681 1038.46 453.047 1038.07 452.657L1031.71 446.293ZM1032 482L1032 447L1030 447L1030 482L1032 482Z" fill="#312D2A"/>
<path id="Vector 80" d="M177.5 398V399H178.5V398H177.5ZM177.5 103.5V102.5H176.5V103.5H177.5ZM224.707 104.207C225.098 103.817 225.098 103.183 224.707 102.793L218.343 96.4289C217.953 96.0384 217.319 96.0384 216.929 96.4289C216.538 96.8195 216.538 97.4526 216.929 97.8431L222.586 103.5L216.929 109.157C216.538 109.547 216.538 110.181 216.929 110.571C217.319 110.962 217.953 110.962 218.343 110.571L224.707 104.207ZM96 399H177.5V397H96V399ZM178.5 398V103.5H176.5V398H178.5ZM177.5 104.5H224V102.5H177.5V104.5Z" fill="#312D2A"/>
<path id="Vector 81" d="M152 271V272H153V271H152ZM152 82.5V81.5H151V82.5H152ZM224.707 83.2071C225.098 82.8166 225.098 82.1834 224.707 81.7929L218.343 75.4289C217.953 75.0384 217.319 75.0384 216.929 75.4289C216.538 75.8195 216.538 76.4526 216.929 76.8431L222.586 82.5L216.929 88.1569C216.538 88.5474 216.538 89.1805 216.929 89.5711C217.319 89.9616 217.953 89.9616 218.343 89.5711L224.707 83.2071ZM96 272H152V270H96V272ZM153 271V82.5H151V271H153ZM152 83.5H224V81.5H152V83.5Z" fill="#312D2A"/>
<g id="Connector Line Label_3">
<rect width="40" height="14" transform="translate(155 338)" fill="#F5F4F2"/>
<text id="Line Label_3" fill="#312D2A" xml:space="preserve" style="white-space: pre" font-family="Oracle Sans" font-size="14" letter-spacing="0em"><tspan x="159.004" y="350.089">https   </tspan></text>
</g>
<g id="Connector Line Label_4">
<rect width="40" height="14" transform="translate(132 174)" fill="#F5F4F2"/>
<text id="Line Label_4" fill="#312D2A" xml:space="preserve" style="white-space: pre" font-family="Oracle Sans" font-size="14" letter-spacing="0em"><tspan x="136.004" y="186.089">https   </tspan></text>
</g>
<path id="Vector 82" d="M202 117V116H201V117H202ZM202 275H201V276H202V275ZM225.707 275.707C226.098 275.317 226.098 274.683 225.707 274.293L219.343 267.929C218.953 267.538 218.319 267.538 217.929 267.929C217.538 268.319 217.538 268.953 217.929 269.343L223.586 275L217.929 280.657C217.538 281.047 217.538 281.681 217.929 282.071C218.319 282.462 218.953 282.462 219.343 282.071L225.707 275.707ZM225 116H202V118H225V116ZM201 117V275H203V117H201ZM202 276H225V274H202V276Z" fill="#312D2A"/>
</g>
</g>
<defs>
<clipPath id="clip0_14015_324482">
<rect width="1133" height="598" fill="white"/>
</clipPath>
<clipPath id="clip1_14015_324482">
<rect width="177" height="30" fill="white" transform="translate(463 235)"/>
</clipPath>
<clipPath id="clip2_14015_324482">
<rect width="177" height="30" fill="white" transform="translate(463 283)"/>
</clipPath>
</defs>
</svg>
