<svg width="864" height="624" viewBox="0 0 864 624" fill="none" xmlns="http://www.w3.org/2000/svg">
<g id="ai-fraud-detection-flow" >
<rect width="864" height="624" fill="white"/>
<g id="OCI Region">
<rect x="312.5" y="0.5" width="239" height="47" rx="3.5" fill="#F5F4F2"/>
<rect x="312.5" y="0.5" width="239" height="47" rx="3.5" stroke="#9E9892"/>
<text id="OCI Region_2" fill="#312D2A" xml:space="preserve" style="white-space: pre" font-family="Oracle Sans" font-size="16" font-weight="600" letter-spacing="0em"><tspan x="340.797" y="29.816">Analyst / System trigger</tspan></text>
</g>
<g id="OCI Region_3">
<rect x="312.5" y="128.5" width="239" height="47" rx="3.5" fill="#F5F4F2"/>
<rect x="312.5" y="128.5" width="239" height="47" rx="3.5" stroke="#9E9892"/>
<text id="OCI Region_4" fill="#312D2A" xml:space="preserve" style="white-space: pre" font-family="Oracle Sans" font-size="16" font-weight="600" letter-spacing="0em"><tspan x="366.883" y="147.816">MCP orchestrator&#10;</tspan><tspan x="410.617" y="167.816">agent</tspan></text>
</g>
<g id="OCI Region_5">
<rect x="0.499756" y="233.5" width="239" height="47" rx="3.5" fill="#F5F4F2"/>
<rect x="0.499756" y="233.5" width="239" height="47" rx="3.5" stroke="#9E9892"/>
<text id="OCI Region_6" fill="#312D2A" xml:space="preserve" style="white-space: pre" font-family="Oracle Sans" font-size="16" font-weight="600" letter-spacing="0em"><tspan x="69.7966" y="252.816">Data retrieval&#10;</tspan><tspan x="98.6169" y="272.816">agent</tspan></text>
</g>
<g id="OCI Region_7">
<rect x="0.5" y="361.3" width="239" height="47" rx="3.5" fill="#F5F4F2"/>
<rect x="0.5" y="361.3" width="239" height="47" rx="3.5" stroke="#9E9892"/>
<text id="OCI Region_8" fill="#312D2A" xml:space="preserve" style="white-space: pre" font-family="Oracle Sans" font-size="16" font-weight="600" letter-spacing="0em"><tspan x="42.0469" y="390.616">Fraud analyzer agent</tspan></text>
</g>
<g id="OCI Region_9">
<rect x="312.5" y="360.7" width="239" height="119" rx="3.5" fill="#F5F4F2"/>
<rect x="312.5" y="360.7" width="239" height="119" rx="3.5" stroke="#9E9892"/>
<text id="OCI Region_10" fill="#312D2A" xml:space="preserve" style="white-space: pre" font-family="Oracle Sans" font-size="16" font-weight="600" letter-spacing="0em"><tspan x="388.812" y="382.016">MCP Server</tspan></text>
</g>
<g id="OCI Region_11">
<rect x="624.5" y="233.5" width="239" height="47" rx="3.5" fill="#F5F4F2"/>
<rect x="624.5" y="233.5" width="239" height="47" rx="3.5" stroke="#9E9892"/>
<text id="OCI Region_12" fill="#312D2A" xml:space="preserve" style="white-space: pre" font-family="Oracle Sans" font-size="16" font-weight="600" letter-spacing="0em"><tspan x="684.375" y="252.816">Alert and report&#10;</tspan><tspan x="690.102" y="272.816">to investigator</tspan></text>
</g>
<path id="Vector 1" d="M432.707 47.2929C432.317 46.9024 431.683 46.9024 431.293 47.2929L424.929 53.6569C424.538 54.0474 424.538 54.6805 424.929 55.0711C425.319 55.4616 425.953 55.4616 426.343 55.0711L432 49.4142L437.657 55.0711C438.047 55.4616 438.681 55.4616 439.071 55.0711C439.462 54.6805 439.462 54.0474 439.071 53.6569L432.707 47.2929ZM431.293 128.707C431.683 129.098 432.317 129.098 432.707 128.707L439.071 122.343C439.462 121.953 439.462 121.319 439.071 120.929C438.681 120.538 438.047 120.538 437.657 120.929L432 126.586L426.343 120.929C425.953 120.538 425.319 120.538 424.929 120.929C424.538 121.319 424.538 121.953 424.929 122.343L431.293 128.707ZM432 48L431 48L431 128L432 128L433 128L433 48L432 48Z" fill="#312D2A"/>
<path id="Vector 9" d="M29.6911 358.707C30.0816 359.097 30.7148 359.097 31.1053 358.707L37.4693 352.343C37.8598 351.952 37.8598 351.319 37.4693 350.929C37.0787 350.538 36.4456 350.538 36.0551 350.929L30.3982 356.585L24.7413 350.929C24.3508 350.538 23.7177 350.538 23.3271 350.929C22.9366 351.319 22.9366 351.952 23.3271 352.343L29.6911 358.707ZM30.3982 280L29.3982 280L29.3982 358L30.3982 358L31.3982 358L31.3982 280L30.3982 280Z" fill="#312D2A"/>
<path id="Vector 6" d="M119.293 512.707C119.683 513.098 120.317 513.098 120.707 512.707L127.071 506.343C127.462 505.953 127.462 505.319 127.071 504.929C126.681 504.538 126.047 504.538 125.657 504.929L120 510.586L114.343 504.929C113.953 504.538 113.319 504.538 112.929 504.929C112.538 505.319 112.538 505.953 112.929 506.343L119.293 512.707ZM120 450L120 449L119 449L119 450L120 450ZM313 450L313 449L120 449L120 450L120 451L313 451L313 450ZM120 450L119 450L119 512L120 512L121 512L121 450L120 450Z" fill="#312D2A"/>
<path id="Vector 15" d="M745.709 506.707C745.319 507.098 744.685 507.098 744.295 506.707L737.931 500.343C737.54 499.953 737.54 499.319 737.931 498.929C738.321 498.538 738.955 498.538 739.345 498.929L745.002 504.586L750.659 498.929C751.049 498.538 751.682 498.538 752.073 498.929C752.464 499.319 752.464 499.953 752.073 500.343L745.709 506.707ZM745.002 450L745.002 449L746.002 449L746.002 450L745.002 450ZM552.002 450L552.002 449L745.002 449L745.002 450L745.002 451L552.002 451L552.002 450ZM745.002 450L746.002 450L746.002 506L745.002 506L744.002 506L744.002 450L745.002 450Z" fill="#312D2A"/>
<path id="Vector 4" d="M31.2929 232.707C31.6834 233.098 32.3166 233.098 32.7071 232.707L39.0711 226.343C39.4616 225.953 39.4616 225.319 39.0711 224.929C38.6805 224.538 38.0474 224.538 37.6569 224.929L32 230.586L26.3431 224.929C25.9526 224.538 25.3195 224.538 24.9289 224.929C24.5384 225.319 24.5384 225.953 24.9289 226.343L31.2929 232.707ZM32 136L32 135L31 135L31 136L32 136ZM312 136L312 135L32 135L32 136L32 137L312 137L312 136ZM32 136L31 136L31 232L32 232L33 232L33 136L32 136Z" fill="#312D2A"/>
<path id="Vector 8" d="M744.707 233.707C744.317 234.098 743.683 234.098 743.293 233.707L736.929 227.343C736.538 226.953 736.538 226.319 736.929 225.929C737.319 225.538 737.953 225.538 738.343 225.929L744 231.586L749.657 225.929C750.047 225.538 750.681 225.538 751.071 225.929C751.462 226.319 751.462 226.953 751.071 227.343L744.707 233.707ZM744 152L744 151L745 151L745 152L744 152ZM744 233L743 233L743 230.975L744 230.975L745 230.975L745 233L744 233ZM744 226.925L743 226.925L743 222.875L744 222.875L745 222.875L745 226.925L744 226.925ZM744 218.825L743 218.825L743 214.775L744 214.775L745 214.775L745 218.825L744 218.825ZM744 210.725L743 210.725L743 206.675L744 206.675L745 206.675L745 210.725L744 210.725ZM744 202.625L743 202.625L743 198.575L744 198.575L745 198.575L745 202.625L744 202.625ZM744 194.525L743 194.525L743 190.475L744 190.475L745 190.475L745 194.525L744 194.525ZM744 186.425L743 186.425L743 182.375L744 182.375L745 182.375L745 186.425L744 186.425ZM744 178.325L743 178.325L743 174.275L744 174.275L745 174.275L745 178.325L744 178.325ZM744 170.225L743 170.225L743 166.175L744 166.175L745 166.175L745 170.225L744 170.225ZM744 162.125L743 162.125L743 158.075L744 158.075L745 158.075L745 162.125L744 162.125ZM744 154.025L743 154.025L743 152L744 152L745 152L745 154.025L744 154.025ZM744 152L744 153L742 153L742 152L742 151L744 151L744 152ZM738 152L738 153L734 153L734 152L734 151L738 151L738 152ZM730 152L730 153L726 153L726 152L726 151L730 151L730 152ZM722 152L722 153L718 153L718 152L718 151L722 151L722 152ZM714 152L714 153L710 153L710 152L710 151L714 151L714 152ZM706 152L706 153L702 153L702 152L702 151L706 151L706 152ZM698 152L698 153L694 153L694 152L694 151L698 151L698 152ZM690 152L690 153L686 153L686 152L686 151L690 151L690 152ZM682 152L682 153L678 153L678 152L678 151L682 151L682 152ZM674 152L674 153L670 153L670 152L670 151L674 151L674 152ZM666 152L666 153L662 153L662 152L662 151L666 151L666 152ZM658 152L658 153L654 153L654 152L654 151L658 151L658 152ZM650 152L650 153L646 153L646 152L646 151L650 151L650 152ZM642 152L642 153L638 153L638 152L638 151L642 151L642 152ZM634 152L634 153L630 153L630 152L630 151L634 151L634 152ZM626 152L626 153L622 153L622 152L622 151L626 151L626 152ZM618 152L618 153L614 153L614 152L614 151L618 151L618 152ZM610 152L610 153L606 153L606 152L606 151L610 151L610 152ZM602 152L602 153L598 153L598 152L598 151L602 151L602 152ZM594 152L594 153L590 153L590 152L590 151L594 151L594 152ZM586 152L586 153L582 153L582 152L582 151L586 151L586 152ZM578 152L578 153L574 153L574 152L574 151L578 151L578 152ZM570 152L570 153L566 153L566 152L566 151L570 151L570 152ZM562 152L562 153L558 153L558 152L558 151L562 151L562 152ZM554 152L554 153L552 153L552 152L552 151L554 151L554 152Z" fill="#312D2A"/>
<path id="Vector 5" d="M312.707 168.707C313.098 168.317 313.098 167.683 312.707 167.293L306.343 160.929C305.953 160.538 305.319 160.538 304.929 160.929C304.538 161.319 304.538 161.953 304.929 162.343L310.586 168L304.929 173.657C304.538 174.047 304.538 174.681 304.929 175.071C305.319 175.462 305.953 175.462 306.343 175.071L312.707 168.707ZM208 168L208 167L207 167L207 168L208 168ZM312 168L312 167L208 167L208 168L208 169L312 169L312 168ZM208 168L207 168L207 232L208 232L209 232L209 168L208 168Z" fill="#312D2A"/>
<path id="Vector 11" d="M343.293 360.707C343.683 361.098 344.317 361.098 344.707 360.707L351.071 354.343C351.462 353.953 351.462 353.319 351.071 352.929C350.681 352.538 350.047 352.538 349.657 352.929L344 358.586L338.343 352.929C337.953 352.538 337.319 352.538 336.929 352.929C336.538 353.319 336.538 353.953 336.929 354.343L343.293 360.707ZM344 257L345 257L345 256L344 256L344 257ZM344 360L345 360L345 257L344 257L343 257L343 360L344 360ZM344 257L344 256L240 256L240 257L240 258L344 258L344 257Z" fill="#312D2A"/>
<path id="Vector 13" d="M312.707 386.707C313.098 386.317 313.098 385.683 312.707 385.293L306.343 378.929C305.953 378.538 305.319 378.538 304.929 378.929C304.538 379.319 304.538 379.953 304.929 380.343L310.586 386L304.929 391.657C304.538 392.047 304.538 392.681 304.929 393.071C305.319 393.462 305.953 393.462 306.343 393.071L312.707 386.707ZM312 386L312 385L240 385L240 386L240 387L312 387L312 386Z" fill="#312D2A"/>
<path id="Vector 12" d="M520.707 360.707C520.317 361.098 519.683 361.098 519.293 360.707L512.929 354.343C512.538 353.953 512.538 353.319 512.929 352.929C513.319 352.538 513.953 352.538 514.343 352.929L520 358.586L525.657 352.929C526.047 352.538 526.681 352.538 527.071 352.929C527.462 353.319 527.462 353.953 527.071 354.343L520.707 360.707ZM520 257L519 257L519 256L520 256L520 257ZM520 360L519 360L519 257L520 257L521 257L521 360L520 360ZM520 257L520 256L624 256L624 257L624 258L520 258L520 257Z" fill="#312D2A"/>
<path id="Vector 14" d="M433.707 506.707C433.317 507.098 432.683 507.098 432.293 506.707L425.929 500.343C425.538 499.953 425.538 499.319 425.929 498.929C426.319 498.538 426.953 498.538 427.343 498.929L433 504.586L438.657 498.929C439.047 498.538 439.681 498.538 440.071 498.929C440.462 499.319 440.462 499.953 440.071 500.343L433.707 506.707ZM433 506L432 506L432 480L433 480L434 480L434 506L433 506Z" fill="#312D2A"/>
<path id="Vector 10" d="M208.707 279.293C208.317 278.902 207.683 278.902 207.293 279.293L200.929 285.657C200.538 286.047 200.538 286.681 200.929 287.071C201.319 287.462 201.953 287.462 202.343 287.071L208 281.414L213.657 287.071C214.047 287.462 214.681 287.462 215.071 287.071C215.462 286.681 215.462 286.047 215.071 285.657L208.707 279.293ZM208 360L209 360L209 280L208 280L207 280L207 360L208 360Z" fill="#312D2A"/>
<g id="Group 6">
<g id="Connector Line Label">
<rect width="77" height="14" transform="translate(392 74)" fill="white"/>
<text id="Line Label" fill="#312D2A" xml:space="preserve" style="white-space: pre" font-family="Oracle Sans" font-size="14" letter-spacing="0em"><tspan x="396.307" y="86.089">Fraud alert</tspan></text>
</g>
<g id="Connector Line Label_2">
<rect width="73" height="14" transform="translate(394 87)" fill="white"/>
<text id="Line Label_2" fill="#312D2A" xml:space="preserve" style="white-space: pre" font-family="Oracle Sans" font-size="14" letter-spacing="0em"><tspan x="398.118" y="99.089">or request</tspan></text>
</g>
</g>
<g id="Group 1">
<g id="Group 2">
<g id="Connector Line Label_3">
<rect width="58" height="14" transform="translate(1.39844 306)" fill="white"/>
<text id="Line Label_3" fill="#312D2A" xml:space="preserve" style="white-space: pre" font-family="Oracle Sans" font-size="14" letter-spacing="0em"><tspan x="5.48145" y="318.089">Analyze</tspan></text>
</g>
<g id="Connector Line Label_4">
<rect width="42" height="14" transform="translate(9.39844 319)" fill="white"/>
<text id="Line Label_4" fill="#312D2A" xml:space="preserve" style="white-space: pre" font-family="Oracle Sans" font-size="14" letter-spacing="0em"><tspan x="13.5205" y="331.089">fraud</tspan></text>
</g>
</g>
</g>
<g id="Group 8">
<g id="Group 2_2">
<g id="Connector Line Label_5">
<rect width="38" height="14" transform="translate(326 306)" fill="white"/>
<text id="Line Label_5" fill="#312D2A" xml:space="preserve" style="white-space: pre" font-family="Oracle Sans" font-size="14" letter-spacing="0em"><tspan x="330.207" y="318.089">Data</tspan></text>
</g>
<g id="Connector Line Label_6">
<rect width="39" height="14" transform="translate(325 319)" fill="white"/>
<text id="Line Label_6" fill="#312D2A" xml:space="preserve" style="white-space: pre" font-family="Oracle Sans" font-size="14" letter-spacing="0em"><tspan x="329.194" y="331.089">tools</tspan></text>
</g>
</g>
</g>
<g id="Group 9">
<g id="Group 2_3">
<g id="Connector Line Label_7">
<rect width="56" height="14" transform="translate(492 304)" fill="white"/>
<text id="Line Label_7" fill="#312D2A" xml:space="preserve" style="white-space: pre" font-family="Oracle Sans" font-size="14" letter-spacing="0em"><tspan x="496.129" y="316.089">Actions</tspan></text>
</g>
<g id="Connector Line Label_8">
<rect width="39" height="14" transform="translate(500 318)" fill="white"/>
<text id="Line Label_8" fill="#312D2A" xml:space="preserve" style="white-space: pre" font-family="Oracle Sans" font-size="14" letter-spacing="0em"><tspan x="504.194" y="330.089">tools</tspan></text>
</g>
</g>
</g>
<g id="Frame 1">
<g id="Connector Line Label_9">
<rect width="98" height="14" transform="translate(696 185)" fill="white"/>
<text id="Line Label_9" fill="#312D2A" xml:space="preserve" style="white-space: pre" font-family="Oracle Sans" font-size="14" letter-spacing="0em"><tspan x="699.91" y="197.089">Fraud analysis</tspan></text>
</g>
<g id="Connector Line Label_10">
<rect width="88" height="14" transform="translate(701 199)" fill="white"/>
<text id="Line Label_10" fill="#312D2A" xml:space="preserve" style="white-space: pre" font-family="Oracle Sans" font-size="14" letter-spacing="0em"><tspan x="703.144" y="211.089">and narrative</tspan></text>
</g>
</g>
<g id="Group 3">
<g id="Connector Line Label_11">
<rect width="99" height="14" transform="translate(158 185)" fill="white"/>
<text id="Line Label_11" fill="#312D2A" xml:space="preserve" style="white-space: pre" font-family="Oracle Sans" font-size="14" letter-spacing="0em"><tspan x="162.41" y="197.089">Fraud analysis</tspan></text>
</g>
<g id="Connector Line Label_12">
<rect width="44" height="14" transform="translate(186 198.6)" fill="white"/>
<text id="Line Label_12" fill="#312D2A" xml:space="preserve" style="white-space: pre" font-family="Oracle Sans" font-size="14" letter-spacing="0em"><tspan x="190.309" y="210.689">result</tspan></text>
</g>
</g>
<g id="Group 7">
<g id="Connector Line Label_13">
<rect width="99" height="14" transform="translate(158 306)" fill="white"/>
<text id="Line Label_13" fill="#312D2A" xml:space="preserve" style="white-space: pre" font-family="Oracle Sans" font-size="14" letter-spacing="0em"><tspan x="162.41" y="318.089">Fraud analysis</tspan></text>
</g>
<g id="Connector Line Label_14">
<rect width="44" height="14" transform="translate(186 319.6)" fill="white"/>
<text id="Line Label_14" fill="#312D2A" xml:space="preserve" style="white-space: pre" font-family="Oracle Sans" font-size="14" letter-spacing="0em"><tspan x="190.309" y="331.689">result</tspan></text>
</g>
</g>
<g id="Group 5">
<g id="Connector Line Label_15">
<rect width="60" height="14" transform="translate(1 185)" fill="white"/>
<text id="Line Label_15" fill="#312D2A" xml:space="preserve" style="white-space: pre" font-family="Oracle Sans" font-size="14" letter-spacing="0em"><tspan x="5.16016" y="197.089">Request</tspan></text>
</g>
<g id="Connector Line Label_16">
<rect width="37" height="14" transform="translate(13 199)" fill="white"/>
<text id="Line Label_16" fill="#312D2A" xml:space="preserve" style="white-space: pre" font-family="Oracle Sans" font-size="14" letter-spacing="0em"><tspan x="17.4863" y="211.089">data</tspan></text>
</g>
</g>
<g id="Icon Master">
<g id="Srv-Oracle Autonomous Database">
<g id="Group 7_2">
<path id="Vector" d="M117.891 569.449C114.048 569.449 110.329 569.077 107.602 568.457C104.007 567.59 102.147 566.226 102.147 564.366V546.391H90.6184L90.7424 544.532C91.1143 539.945 93.7176 535.978 97.8085 533.871C98.6763 533.375 99.2961 532.631 99.544 531.639C100.164 528.416 102.395 525.689 105.37 524.449C106.61 523.953 107.974 523.581 109.461 523.581C109.709 523.581 110.081 523.581 110.453 523.581C110.577 523.581 110.701 523.581 110.825 523.581C111.693 523.581 112.561 523.209 113.056 522.59C115.164 520.234 118.015 518.871 121.114 518.623H122.354C126.941 518.747 131.032 521.35 133.015 525.441C133.139 525.689 133.387 526.061 133.635 526.309C133.883 526.681 134.379 527.3 134.627 527.796C138.346 527.92 141.693 529.904 143.676 533.003V533.127L144.048 534.986L149.131 540.069L146.651 542.548L145.04 540.937C144.048 546.143 139.461 549.986 134.007 549.986C133.883 549.986 133.635 549.986 133.511 549.986V564.243C133.511 566.102 131.775 567.466 128.056 568.333C125.453 569.077 121.734 569.449 117.891 569.449Z" fill="white"/>
<path id="Vector_2" d="M121.86 519.244C126.322 519.244 130.289 521.723 132.273 525.69C132.521 526.062 132.645 526.434 133.017 526.682C133.264 527.054 133.76 527.798 134.132 528.293C137.851 528.293 141.198 530.277 143.058 533.252L143.554 535.236L148.388 540.07L146.777 541.682L144.669 539.574C144.298 545.029 139.711 549.368 134.132 549.368C133.76 549.368 133.388 549.368 133.017 549.244V564.244C133.017 565.731 131.405 566.971 128.058 567.715C125.331 568.335 121.736 568.707 117.893 568.707C114.05 568.707 110.455 568.335 107.727 567.715C104.38 566.971 102.769 565.731 102.769 564.244V545.649H91.3636L91.4876 544.409C91.8595 540.07 94.3388 536.227 98.1818 534.244C99.1736 533.872 99.9174 532.88 100.165 531.764C100.785 528.789 102.769 526.186 105.62 524.946C106.86 524.45 108.099 524.202 109.463 524.202C109.711 524.202 110.083 524.202 110.331 524.202C110.455 524.202 110.579 524.202 110.702 524.202C111.694 524.202 112.686 523.831 113.43 523.087C115.537 520.731 118.512 519.492 121.612 519.368V520.483V519.368C121.612 519.244 121.736 519.244 121.86 519.244ZM122.727 518.004H121.488H120.248V518.128C117.273 518.5 114.421 519.864 112.314 522.095C111.942 522.715 111.322 522.963 110.579 522.963C110.455 522.963 110.455 522.963 110.331 522.963C109.959 522.963 109.711 522.963 109.339 522.963C107.851 522.963 106.364 523.335 105 523.831C101.777 525.194 99.5455 528.045 98.8017 531.517C98.6777 532.26 98.1818 533.004 97.438 533.376C93.2231 535.607 90.4959 539.822 90.124 544.533L90 545.773V547.012H91.3636H101.529V564.368C101.529 567.591 105.992 568.707 107.479 569.079C110.331 569.698 114.05 570.07 117.893 570.07C121.86 570.07 125.455 569.698 128.306 569.079C129.793 568.707 134.256 567.715 134.256 564.368V550.731C139.463 550.731 144.05 547.136 145.413 542.178L145.785 542.55L146.653 543.417L147.521 542.55L149.132 540.938L150 540.07L149.132 539.202L144.545 534.616L144.174 533.004V532.756L144.05 532.632C142.066 529.409 138.595 527.302 134.752 527.054C134.504 526.682 134.132 526.186 134.008 525.938V525.814L133.884 525.69C133.76 525.69 133.512 525.442 133.388 525.194C131.405 520.979 127.314 518.376 122.727 518.004Z" fill="white"/>
<path id="Vector_3" d="M93.8429 543.541H101.033V545.773H91.3635L91.4875 544.533C91.8594 540.194 94.3387 536.351 98.1817 534.368C99.1734 533.872 99.9172 532.88 100.165 531.764C100.785 528.789 102.768 526.186 105.62 524.946C106.983 524.202 108.595 523.954 110.206 524.202C111.446 524.326 112.562 523.954 113.306 523.087C115.413 520.731 118.388 519.492 121.487 519.368C121.611 519.368 121.735 519.368 121.735 519.368C126.198 519.368 130.165 521.847 132.149 525.814C132.397 526.186 132.521 526.558 132.892 526.806C132.025 526.93 131.157 527.054 130.413 527.302C130.289 527.178 130.289 527.054 130.165 526.806C128.554 523.583 125.33 521.599 121.735 521.599C121.611 521.599 121.611 521.599 121.487 521.599C119.008 521.599 116.529 522.715 114.793 524.574C113.554 525.938 111.694 526.682 109.835 526.434C108.595 526.31 107.479 526.558 106.24 527.054C104.132 528.045 102.521 529.905 102.149 532.26C101.777 534.12 100.661 535.607 98.9255 536.475C96.3222 537.839 94.4627 540.442 93.8429 543.541ZM133.016 532.88H135.248L138.347 543.913H135.868L135.496 541.558H132.768L132.149 543.913H129.793L133.016 532.88ZM133.14 539.698H135L134.008 535.607L133.14 539.698ZM123.595 538.211L121.487 536.103L119.876 537.715L124.711 542.549L129.545 537.715L127.934 536.103L125.95 538.087C126.322 533.872 129.917 530.649 134.132 530.649C137.231 530.649 139.959 532.384 141.446 534.988L143.058 533.376C141.198 530.401 137.851 528.417 134.132 528.417C128.554 528.417 123.967 532.756 123.595 538.211ZM148.388 540.07L143.554 535.359L138.719 540.194L140.33 541.806L142.314 539.822C141.942 544.037 138.347 547.26 134.132 547.26C131.033 547.26 128.306 545.525 126.818 542.921L125.206 544.533C127.066 547.508 130.413 549.492 134.132 549.492C139.711 549.492 144.297 545.153 144.669 539.698L146.777 541.806L148.388 540.07ZM130.661 550.979C131.405 551.227 132.149 551.351 132.892 551.475V564.492C132.892 565.979 131.281 567.219 127.934 567.963C125.206 568.583 121.611 568.954 117.768 568.954C113.926 568.954 110.33 568.583 107.603 567.963C104.256 567.219 102.645 565.979 102.645 564.492V540.07C102.645 538.583 104.256 537.467 107.603 536.723C110.206 536.103 113.802 535.855 117.768 535.855C117.892 535.855 118.14 535.855 118.388 535.855V538.087C118.264 538.087 118.016 538.087 117.768 538.087C109.587 538.087 105.496 539.45 105 540.194V540.318C105.496 541.186 110.206 542.549 117.768 542.549C119.38 542.549 120.744 542.549 122.107 542.426C122.355 543.169 122.603 543.913 122.975 544.657C121.364 544.781 119.628 544.905 117.768 544.905C113.926 544.905 110.33 544.533 107.603 543.913C106.487 543.665 105.62 543.417 104.876 543.045V548.376C105.372 549.244 110.083 550.607 117.645 550.607C121.859 550.607 125.206 550.111 127.438 549.616C128.554 550.111 129.545 550.607 130.661 550.979C129.917 551.351 129.049 551.599 127.934 551.847C125.206 552.467 121.611 552.839 117.768 552.839C113.926 552.839 110.33 552.467 107.603 551.847C106.487 551.599 105.62 551.351 104.876 550.979V556.31C105.372 557.178 110.083 558.541 117.645 558.541C125.206 558.541 129.917 557.054 130.413 556.31L130.661 550.979ZM130.661 559.037C129.917 559.409 129.049 559.657 127.934 559.905C125.206 560.525 121.611 560.897 117.768 560.897C113.926 560.897 110.33 560.525 107.603 559.905C106.487 559.657 105.62 559.409 104.876 559.037V564.368C105.372 565.111 109.587 566.599 117.645 566.599C125.702 566.599 130.041 564.988 130.413 564.368L130.661 559.037Z" fill="#2D5967"/>
</g>
</g>
<g id="Icon Text Label">
<text id="IconLabel" fill="black" xml:space="preserve" style="white-space: pre" font-family="Oracle Sans" font-size="16" letter-spacing="0em"><tspan x="47.9297" y="587.816">Oracle Autonomous</tspan></text>
<text id="IconLabel_2" fill="black" xml:space="preserve" style="white-space: pre" font-family="Oracle Sans" font-size="16" letter-spacing="0em"><tspan x="86.2422" y="603.816">Database</tspan></text>
<text id="IconLabel_3" fill="black" xml:space="preserve" style="white-space: pre" font-family="Oracle Sans" font-size="16" letter-spacing="0em"><tspan x="35.0391" y="619.816">(Transactions and data)</tspan></text>
</g>
</g>
<g id="Icon Master_2">
<g id="Srv-Artificial Intelligence AI">
<g id="Group 525">
<path id="Vector_4" d="M433.293 569.23C432.385 569.231 431.486 569.041 430.656 568.674C429.826 568.306 429.082 567.768 428.473 567.096C427.864 566.423 427.403 565.631 427.12 564.769C426.837 563.907 426.738 562.996 426.83 562.094L417.308 556.614C416.066 557.716 414.449 558.303 412.788 558.255C411.128 558.207 409.548 557.528 408.371 556.357C407.153 555.139 406.469 553.489 406.469 551.768C406.469 550.048 407.153 548.397 408.371 547.18C409.059 546.512 409.883 546.001 410.788 545.681V534.692C409.882 534.368 409.058 533.852 408.371 533.179C407.469 532.274 406.854 531.124 406.603 529.873C406.351 528.621 406.475 527.323 406.959 526.141C407.443 524.96 408.265 523.946 409.322 523.228C410.379 522.51 411.625 522.119 412.904 522.104C414.395 522.097 415.843 522.601 417.007 523.531L426.773 517.908C426.664 516.939 426.776 515.958 427.1 515.039C427.425 514.12 427.953 513.285 428.646 512.598C429.866 511.383 431.519 510.7 433.243 510.7C434.967 510.7 436.62 511.383 437.84 512.598C438.553 513.32 439.088 514.197 439.404 515.161C439.719 516.124 439.805 517.148 439.656 518.15L449.15 523.617C450.094 522.799 451.255 522.271 452.492 522.095C453.729 521.919 454.991 522.102 456.127 522.623C457.263 523.144 458.224 523.98 458.896 525.032C459.568 526.084 459.922 527.307 459.916 528.555C459.917 530.277 459.233 531.93 458.015 533.15C457.263 533.914 456.35 534.499 455.341 534.863V545.681C456.342 545.915 457.264 546.407 458.015 547.108C459.257 548.305 459.972 549.944 460.002 551.667C460.033 553.389 459.377 555.053 458.179 556.293C456.981 557.532 455.338 558.246 453.613 558.277C451.887 558.307 450.22 557.653 448.978 556.457L439.727 561.794C439.858 562.784 439.761 563.791 439.444 564.738C439.127 565.685 438.598 566.548 437.897 567.261C437.3 567.879 436.585 568.372 435.794 568.71C435.004 569.048 434.153 569.225 433.293 569.23Z" fill="white"/>
<path id="Vector_5" d="M433.293 511.427C434.173 511.415 435.044 511.605 435.838 511.983C436.632 512.361 437.328 512.917 437.871 513.608C438.415 514.298 438.792 515.104 438.972 515.964C439.153 516.823 439.132 517.713 438.912 518.563L449.307 524.558C449.844 524.022 450.482 523.596 451.183 523.306C451.885 523.016 452.637 522.867 453.396 522.867C454.156 522.867 454.908 523.016 455.61 523.306C456.311 523.596 456.949 524.022 457.486 524.558C458.023 525.094 458.449 525.73 458.739 526.43C459.03 527.131 459.18 527.881 459.18 528.639C459.18 529.397 459.03 530.148 458.739 530.848C458.449 531.549 458.023 532.185 457.486 532.721C456.713 533.543 455.721 534.128 454.626 534.405V546.323C455.7 546.505 456.695 547.001 457.486 547.75C458.325 548.545 458.903 549.575 459.143 550.704C459.384 551.834 459.275 553.01 458.832 554.077C458.389 555.143 457.632 556.051 456.662 556.68C455.692 557.308 454.553 557.628 453.396 557.597C452.637 557.602 451.884 557.455 451.182 557.166C450.48 556.877 449.843 556.451 449.307 555.913L449.107 555.671L438.941 561.537C439.149 562.485 439.115 563.471 438.843 564.404C438.571 565.336 438.069 566.186 437.382 566.874C436.529 567.794 435.396 568.407 434.159 568.62C432.921 568.832 431.648 568.633 430.536 568.052C429.423 567.47 428.533 566.54 428.003 565.404C427.473 564.268 427.332 562.989 427.603 561.765L417.193 555.671L417.065 555.799C416.529 556.337 415.892 556.763 415.19 557.052C414.488 557.341 413.735 557.488 412.976 557.483C411.459 557.673 409.929 557.253 408.722 556.316C407.515 555.379 406.731 554.002 406.541 552.488C406.352 550.974 406.772 549.447 407.711 548.242C408.649 547.038 410.029 546.255 411.546 546.066V534.163C410.561 533.931 409.657 533.438 408.929 532.735C408.082 531.95 407.494 530.927 407.241 529.801C406.988 528.675 407.083 527.499 407.514 526.428C407.944 525.357 408.69 524.441 409.652 523.801C410.614 523.162 411.748 522.828 412.904 522.845C414.402 522.845 415.841 523.423 416.922 524.458L427.56 518.321C427.385 517.481 427.403 516.612 427.611 515.78C427.82 514.947 428.213 514.173 428.763 513.513C429.312 512.854 430.004 512.326 430.786 511.97C431.567 511.614 432.42 511.438 433.279 511.456L433.293 511.427ZM433.279 510.029C432.33 510.025 431.39 510.21 430.514 510.573C429.638 510.935 428.842 511.468 428.174 512.141C427.464 512.845 426.91 513.691 426.548 514.623C426.186 515.554 426.024 516.552 426.073 517.55L417.193 522.702C415.805 521.726 414.117 521.27 412.425 521.414C410.733 521.557 409.146 522.291 407.943 523.487C407.094 524.301 406.46 525.312 406.096 526.429C405.733 527.547 405.652 528.737 405.86 529.893C406.068 531.049 406.558 532.137 407.288 533.058C408.018 533.98 408.965 534.707 410.044 535.176V545.166C409.232 545.531 408.495 546.044 407.871 546.679C406.83 547.674 406.115 548.959 405.819 550.367C405.523 551.774 405.66 553.238 406.212 554.567C406.764 555.895 407.705 557.026 408.912 557.811C410.119 558.597 411.535 559 412.976 558.968C414.561 558.993 416.111 558.491 417.379 557.54L426.087 562.55C426.044 563.513 426.198 564.475 426.538 565.377C426.878 566.28 427.398 567.104 428.066 567.8C428.734 568.496 429.537 569.05 430.426 569.428C431.314 569.806 432.27 570.001 433.236 570C434.185 570.004 435.125 569.819 436.001 569.456C436.877 569.093 437.673 568.56 438.34 567.888C439.064 567.158 439.625 566.283 439.985 565.321C440.345 564.359 440.496 563.332 440.428 562.307L448.85 557.455C450.281 558.734 452.163 559.394 454.082 559.288C456 559.182 457.798 558.32 459.08 556.891C460.362 555.462 461.022 553.583 460.916 551.668C460.81 549.753 459.947 547.959 458.515 546.679C457.822 545.997 456.981 545.484 456.056 545.181V535.376C456.977 534.972 457.812 534.396 458.515 533.677C459.228 533.064 459.812 532.316 460.235 531.476C460.658 530.637 460.911 529.723 460.981 528.786C461.05 527.849 460.933 526.908 460.638 526.016C460.342 525.124 459.874 524.298 459.259 523.587C458.644 522.876 457.894 522.292 457.054 521.87C456.213 521.448 455.297 521.195 454.358 521.126C452.462 520.987 450.589 521.605 449.15 522.845L440.485 517.85C440.57 516.804 440.427 515.753 440.067 514.767C439.707 513.782 439.137 512.886 438.398 512.141C437.732 511.463 436.938 510.925 436.061 510.557C435.185 510.19 434.244 510 433.293 510L433.279 510.029Z" fill="white"/>
<path id="Vector_6" d="M454.624 546.265V534.348C455.719 534.07 456.711 533.486 457.484 532.663C458.028 532.132 458.461 531.497 458.757 530.796C459.052 530.095 459.204 529.342 459.204 528.582C459.204 527.821 459.052 527.068 458.757 526.367C458.461 525.666 458.028 525.031 457.484 524.5C456.951 523.956 456.315 523.524 455.613 523.229C454.91 522.934 454.156 522.782 453.394 522.782C452.632 522.782 451.878 522.934 451.176 523.229C450.474 523.524 449.838 523.956 449.305 524.5L438.91 518.563C439.056 517.75 439.024 516.916 438.815 516.118C438.607 515.319 438.228 514.575 437.704 513.937C437.18 513.299 436.523 512.782 435.78 512.421C435.036 512.06 434.223 511.865 433.396 511.848C432.57 511.832 431.75 511.994 430.992 512.324C430.234 512.654 429.557 513.145 429.008 513.761C428.458 514.378 428.049 515.106 427.809 515.895C427.568 516.685 427.502 517.517 427.615 518.334L416.977 524.471C416.176 523.659 415.15 523.105 414.031 522.88C412.912 522.655 411.751 522.769 410.698 523.208C409.644 523.647 408.747 524.391 408.12 525.343C407.494 526.296 407.167 527.414 407.183 528.553C407.183 529.825 407.604 531.061 408.379 532.069C409.155 533.078 410.242 533.804 411.472 534.133V546.165C410.654 546.419 409.904 546.854 409.276 547.437C408.649 548.019 408.161 548.735 407.849 549.532C407.536 550.328 407.406 551.184 407.47 552.037C407.533 552.89 407.787 553.718 408.214 554.459C408.641 555.201 409.23 555.837 409.936 556.322C410.642 556.806 411.449 557.125 412.295 557.256C413.142 557.388 414.007 557.327 414.828 557.08C415.648 556.833 416.402 556.404 417.034 555.827L417.191 555.67L427.6 561.664C427.511 562.472 427.594 563.289 427.846 564.062C428.098 564.835 428.513 565.545 429.062 566.145C429.611 566.745 430.282 567.221 431.03 567.541C431.778 567.862 432.586 568.019 433.4 568.003C434.214 567.986 435.015 567.796 435.75 567.446C436.484 567.096 437.135 566.593 437.66 565.972C438.184 565.35 438.569 564.624 438.79 563.842C439.011 563.06 439.061 562.239 438.939 561.436L449.105 555.67L449.319 555.898C449.856 556.434 450.494 556.86 451.196 557.15C451.897 557.44 452.649 557.589 453.409 557.589C454.168 557.589 454.92 557.44 455.622 557.15C456.323 556.86 456.961 556.434 457.498 555.898C458.035 555.362 458.461 554.726 458.752 554.026C459.042 553.325 459.192 552.575 459.192 551.817C459.192 551.058 459.042 550.308 458.752 549.607C458.461 548.907 458.035 548.271 457.498 547.735C456.708 546.986 455.712 546.49 454.638 546.308L454.624 546.265ZM437.795 559.152C437.669 558.998 437.536 558.851 437.395 558.71C436.655 558.002 435.735 557.508 434.735 557.283V547.292C436.587 547.06 438.367 546.432 439.954 545.451L447.904 549.961C447.573 551.027 447.548 552.164 447.832 553.244L437.795 559.152ZM429.216 558.71C429.024 558.905 428.847 559.115 428.687 559.338L418.521 553.486C418.867 552.334 418.852 551.105 418.478 549.961L426.557 545.308C428.226 546.35 430.116 546.991 432.076 547.178V557.097C430.992 557.328 429.998 557.869 429.216 558.653V558.71ZM414.146 534.262C415.232 534.027 416.225 533.481 417.005 532.692L417.263 532.421L424.197 536.417C423.333 537.294 422.596 538.289 422.01 539.371L421.681 539.999L422.01 540.627C422.64 541.715 423.425 542.705 424.34 543.567L417.191 547.749C416.411 546.96 415.417 546.414 414.332 546.179L414.146 534.262ZM428.716 520.718C428.866 520.918 429.028 521.108 429.202 521.289C429.984 522.073 430.977 522.613 432.061 522.844V532.706C430.073 532.895 428.158 533.551 426.471 534.619L418.621 530.052C418.91 528.93 418.861 527.748 418.478 526.655L428.716 520.718ZM437.38 521.289L437.738 520.903L447.918 526.769C447.563 527.83 447.529 528.971 447.818 530.052L440.068 534.562C438.474 533.549 436.67 532.91 434.792 532.692V522.701C435.792 522.476 436.712 521.983 437.452 521.274L437.38 521.289ZM440.497 541.683C439.559 542.621 438.444 543.364 437.217 543.871C435.991 544.379 434.676 544.64 433.348 544.64C432.021 544.64 430.706 544.379 429.479 543.871C428.252 543.364 427.138 542.621 426.199 541.683C425.664 541.159 425.185 540.58 424.769 539.956C425.185 539.333 425.664 538.754 426.199 538.23C427.269 537.149 428.57 536.325 430.004 535.817C431.438 535.309 432.969 535.132 434.481 535.298C435.994 535.464 437.449 535.969 438.739 536.776C440.028 537.583 441.118 538.67 441.927 539.956C441.516 540.583 441.037 541.163 440.497 541.683ZM449.391 547.678L442.328 543.596L442.442 543.496C443.319 542.621 444.061 541.62 444.644 540.527L444.987 539.899L444.644 539.271C444.061 538.175 443.313 537.174 442.428 536.303L449.234 532.378L449.491 532.649C450.223 533.385 451.143 533.908 452.15 534.162V546.165C451.143 546.419 450.223 546.942 449.491 547.678H449.391ZM451.364 526.355C451.807 525.972 452.349 525.721 452.928 525.631C453.507 525.54 454.1 525.613 454.639 525.842C455.178 526.071 455.642 526.447 455.978 526.926C456.314 527.405 456.509 527.969 456.54 528.553C456.539 529.037 456.426 529.513 456.209 529.946C455.992 530.378 455.678 530.754 455.291 531.045C454.904 531.336 454.455 531.533 453.979 531.621C453.502 531.709 453.012 531.685 452.546 531.552C452.081 531.419 451.652 531.18 451.295 530.854C450.938 530.527 450.661 530.123 450.487 529.671C450.313 529.22 450.246 528.735 450.291 528.254C450.337 527.772 450.493 527.308 450.749 526.897C450.882 526.7 451.03 526.514 451.192 526.341L451.364 526.355ZM431.075 514.923C431.365 514.631 431.71 514.398 432.09 514.24C432.471 514.081 432.879 514 433.291 514C433.703 514 434.111 514.081 434.492 514.24C434.872 514.398 435.217 514.631 435.507 514.923C435.987 515.384 436.305 515.987 436.413 516.643C436.521 517.299 436.414 517.972 436.108 518.563C435.958 518.88 435.755 519.17 435.507 519.419C435.217 519.711 434.872 519.944 434.492 520.102C434.111 520.261 433.703 520.342 433.291 520.342C432.879 520.342 432.471 520.261 432.09 520.102C431.71 519.944 431.365 519.711 431.075 519.419C430.786 519.135 430.557 518.795 430.403 518.42C430.164 517.849 430.1 517.22 430.22 516.612C430.34 516.005 430.637 515.447 431.075 515.009V514.923ZM409.842 528.553C409.84 528.142 409.92 527.735 410.077 527.355C410.234 526.975 410.465 526.631 410.757 526.341C411.346 525.757 412.143 525.429 412.973 525.429C413.804 525.429 414.6 525.757 415.19 526.341C415.33 526.493 415.459 526.655 415.576 526.826C416.034 527.47 416.231 528.264 416.127 529.047C416.024 529.83 415.626 530.545 415.016 531.048C414.405 531.55 413.627 531.804 412.836 531.757C412.046 531.71 411.303 531.365 410.757 530.794C410.46 530.502 410.225 530.153 410.068 529.768C409.91 529.382 409.834 528.969 409.842 528.553ZM410.757 553.957C410.465 553.668 410.234 553.323 410.077 552.943C409.92 552.563 409.84 552.156 409.842 551.745C409.838 551.334 409.916 550.926 410.074 550.546C410.231 550.166 410.463 549.821 410.757 549.533C411.296 549.007 412.007 548.692 412.76 548.647C413.512 548.601 414.256 548.829 414.854 549.287C415.452 549.745 415.865 550.403 416.016 551.141C416.167 551.878 416.046 552.645 415.676 553.301C415.542 553.539 415.379 553.76 415.19 553.957C414.6 554.541 413.804 554.869 412.973 554.869C412.143 554.869 411.346 554.541 410.757 553.957ZM435.507 564.947C434.997 565.453 434.328 565.769 433.612 565.84C432.896 565.912 432.177 565.735 431.576 565.34C430.975 564.945 430.529 564.355 430.313 563.67C430.097 562.985 430.123 562.246 430.389 561.579C430.542 561.187 430.776 560.833 431.075 560.537C431.365 560.244 431.71 560.012 432.09 559.853C432.471 559.695 432.879 559.613 433.291 559.613C433.703 559.613 434.111 559.695 434.492 559.853C434.872 560.012 435.217 560.244 435.507 560.537C435.769 560.797 435.982 561.101 436.136 561.436C436.401 562.016 436.482 562.662 436.37 563.289C436.257 563.916 435.957 564.494 435.507 564.947ZM455.625 553.986C455.036 554.57 454.239 554.898 453.409 554.898C452.578 554.898 451.782 554.57 451.192 553.986C450.979 553.769 450.796 553.524 450.649 553.258C450.333 552.664 450.216 551.986 450.313 551.321C450.411 550.656 450.719 550.04 451.192 549.562C451.63 549.124 452.189 548.825 452.797 548.704C453.405 548.583 454.035 548.645 454.607 548.882C455.18 549.119 455.67 549.52 456.014 550.035C456.358 550.55 456.541 551.155 456.54 551.774C456.538 552.603 456.209 553.397 455.625 553.986ZM436.708 539.971C436.708 540.62 436.515 541.255 436.154 541.794C435.793 542.334 435.279 542.755 434.678 543.003C434.077 543.252 433.416 543.317 432.778 543.19C432.14 543.064 431.554 542.751 431.094 542.292C430.634 541.833 430.321 541.248 430.194 540.611C430.068 539.974 430.133 539.314 430.382 538.715C430.63 538.115 431.052 537.602 431.593 537.241C432.134 536.881 432.769 536.688 433.42 536.688C433.852 536.688 434.279 536.773 434.678 536.938C435.077 537.103 435.44 537.345 435.745 537.65C436.051 537.954 436.293 538.316 436.458 538.715C436.623 539.113 436.708 539.54 436.708 539.971Z" fill="#2D5967"/>
</g>
</g>
<g id="Icon Text Label_2">
<text id="IconLabel_4" fill="black" xml:space="preserve" style="white-space: pre" font-family="Oracle Sans" font-size="16" letter-spacing="0em"><tspan x="420.93" y="587.816">OCI</tspan></text>
<text id="IconLabel_5" fill="black" xml:space="preserve" style="white-space: pre" font-family="Oracle Sans" font-size="16" letter-spacing="0em"><tspan x="388.445" y="603.816">AI Services /</tspan></text>
<text id="IconLabel_6" fill="black" xml:space="preserve" style="white-space: pre" font-family="Oracle Sans" font-size="16" letter-spacing="0em"><tspan x="417.867" y="619.816">LLM</tspan></text>
</g>
</g>
<g id="Icon Master_3">
<g id="Technology-Server-Big">
<g id="Group 568">
<path id="Vector_7" d="M726.684 569.318V567L729.638 565.514H730.332V510.682H759.673V565.514H760.381L763.322 567V569.318H726.684Z" fill="white"/>
<path id="Vector_8" d="M758.992 511.364V566.195H760.217L762.64 567.423V568.636H727.363V567.423L729.801 566.195H731.012V511.364H758.992ZM760.353 510H729.651V564.832H729.474L729.188 564.982L726.751 566.195L726.002 566.577V570H764.002V566.577L763.253 566.195L760.83 564.982L760.53 564.832H760.353V510Z" fill="white"/>
<path id="Vector_9" d="M735.275 562.541H754.731V560.114H735.275V562.541ZM735.275 558.273H754.731V555.846H735.275V558.273ZM737.712 547.923H752.307V551.578H737.712V547.923ZM735.275 554.018H754.731V545.455H735.275V554.018ZM737.712 537.559H752.307V541.214H737.712V537.559ZM735.275 543.655H754.731V535.132H735.275V543.655ZM735.275 533.291H754.731V530.864H735.275V533.291ZM740.135 524.155H749.87V526.596H740.135V524.155ZM737.712 521.728V524.155H735.275V526.596H737.712V529.091H752.307V526.596H754.744V524.155H752.307V521.728H737.712ZM735.275 519.9H754.731V517.459H735.275V519.9ZM733.45 513.805H756.596V566.196H733.45V513.805ZM731.013 511.364V566.196H729.801L727.364 567.423V568.637H762.641V567.423L760.218 566.196H758.992V511.364H731.013Z" fill="#2D5967"/>
</g>
</g>
<g id="Icon Text Label_3">
<text id="IconLabel_7" fill="black" xml:space="preserve" style="white-space: pre" font-family="Oracle Sans" font-size="16" letter-spacing="0em"><tspan x="711.805" y="587.816">Alert and</tspan></text>
<text id="IconLabel_8" fill="black" xml:space="preserve" style="white-space: pre" font-family="Oracle Sans" font-size="16" letter-spacing="0em"><tspan x="722.656" y="603.816">report</tspan></text>
<text id="IconLabel_9" fill="black" xml:space="preserve" style="white-space: pre" font-family="Oracle Sans" font-size="16" letter-spacing="0em"><tspan x="700.352" y="619.816">(Mail server)</tspan></text>
</g>
</g>
<g id="Icon Master_4">
<g id="Toolkit">
<g id="Group 475">
<path id="Vector_10" d="M406.114 452.686C405.215 452.686 404.352 452.33 403.715 451.696C403.078 451.061 402.718 450.2 402.714 449.301V394.115H411.286V396.501H452.714V394.115H461.286V449.301C461.282 450.197 460.924 451.056 460.29 451.69C459.656 452.325 458.797 452.683 457.9 452.686H406.114Z" fill="white"/>
<path id="Vector_11" d="M460.571 394.829V449.3C460.571 450.009 460.29 450.688 459.789 451.189C459.288 451.69 458.609 451.972 457.9 451.972H406.114C405.404 451.972 404.723 451.691 404.22 451.19C403.717 450.69 403.432 450.01 403.429 449.3V394.829H410.571V397.215H453.429V394.829H460.571ZM462 393.4H452V395.786H412V393.4H402V449.3C402.004 450.389 402.439 451.432 403.21 452.2C403.981 452.969 405.026 453.4 406.114 453.4H457.9C458.986 453.397 460.027 452.963 460.795 452.195C461.563 451.427 461.996 450.387 462 449.3V393.4Z" fill="white"/>
<path id="Vector_12" d="M453.429 394.829V397.215H410.572V394.829H403.429V449.301C403.433 450.011 403.718 450.69 404.221 451.191C404.724 451.691 405.405 451.972 406.115 451.972H457.901C458.609 451.972 459.289 451.691 459.79 451.19C460.291 450.689 460.572 450.009 460.572 449.301V394.829H453.429ZM458.186 449.301C458.186 449.338 458.179 449.376 458.165 449.41C458.15 449.445 458.129 449.476 458.103 449.503C458.076 449.529 458.045 449.551 458.01 449.565C457.975 449.579 457.938 449.587 457.901 449.587H406.115C406.076 449.589 406.038 449.583 406.001 449.569C405.965 449.556 405.932 449.535 405.904 449.508C405.876 449.481 405.853 449.449 405.838 449.414C405.823 449.378 405.815 449.34 405.815 449.301V397.215H408.186V408.729C408.498 408.639 408.819 408.591 409.143 408.587C409.637 408.585 410.125 408.692 410.572 408.901V406.372C410.153 405.964 409.855 405.448 409.708 404.881C409.562 404.314 409.574 403.718 409.743 403.158C409.984 402.471 410.421 401.87 411.001 401.429H410.572V399.587H453.429V401.372H443.272C443.515 401.572 443.758 401.801 443.986 402.029C444.543 402.601 445.115 403.187 445.701 403.758H453.429V410.701C453.964 410.902 454.451 411.213 454.858 411.615L455.872 412.644V397.215H458.243L458.186 449.301Z" fill="#2D5967"/>
<path id="Vector_13" d="M425.987 403.758H427.715L433.015 401.372H423.572C423.829 401.558 424.087 401.744 424.315 401.944C424.934 402.489 425.494 403.097 425.987 403.758Z" fill="#2D5967"/>
<path id="Vector_14" d="M453.528 412.872C453.33 412.665 453.093 412.501 452.83 412.388C452.568 412.275 452.285 412.216 451.999 412.215H451.799C450.371 410.786 446.271 406.915 442.714 403.286C439.856 400.343 436.642 401.743 435.114 402.415L427.971 405.629L427.299 405.929C427.601 406.571 427.854 407.235 428.056 407.915H428.485C428.485 407.915 433.385 407.815 435.442 407.915C435.769 407.923 436.09 408 436.385 408.14C436.681 408.281 436.943 408.481 437.156 408.729C437.402 409.177 437.552 409.671 437.596 410.18C437.64 410.689 437.578 411.202 437.414 411.686V411.772C436.177 413.516 434.775 415.138 433.228 416.615L435.028 418.172C439.414 413.615 439.756 412.657 439.785 412.086C440.023 411.288 440.084 410.447 439.963 409.623C439.842 408.799 439.542 408.011 439.085 407.315C438.677 406.784 438.157 406.35 437.562 406.044C436.967 405.737 436.311 405.567 435.642 405.543H434.056L436.128 404.615C438.214 403.7 439.614 403.486 441.071 404.972C444.399 408.386 448.214 412.043 449.885 413.657L446.471 417.129L444.214 415.057C443.597 414.534 442.808 414.259 441.999 414.286C441.442 414.286 440.785 414.286 436.142 419.172L437.942 420.743C439.26 419.274 440.693 417.913 442.228 416.672C442.382 416.677 442.53 416.727 442.656 416.815L445.085 419.115C445.07 419.419 445.118 419.724 445.226 420.009C445.334 420.294 445.5 420.554 445.714 420.772L447.714 422.8C447.911 423.007 448.148 423.171 448.411 423.284C448.674 423.397 448.956 423.456 449.242 423.457C449.491 423.461 449.738 423.414 449.968 423.321C450.199 423.228 450.408 423.09 450.585 422.915L455.642 417.757C456.001 417.361 456.19 416.84 456.168 416.306C456.147 415.771 455.917 415.267 455.528 414.9L453.528 412.872ZM449.242 420.915L447.656 419.3L451.999 414.829L453.585 416.457L449.242 420.915Z" fill="#2D5967"/>
<path id="Vector_15" d="M453.428 427.572H442.985L430.571 416.757L429.314 415.672C427.883 413.999 426.948 411.961 426.614 409.786C426.227 407.293 425.002 405.005 423.143 403.3C420.571 401.114 415.6 400.943 412.957 402.272C412.311 402.541 411.798 403.054 411.528 403.7C411.431 404.02 411.449 404.364 411.58 404.673C411.71 404.981 411.945 405.233 412.243 405.386L418.028 408.529C418.132 408.583 418.224 408.658 418.297 408.749C418.371 408.84 418.425 408.945 418.457 409.057V409.157C418.283 409.932 418.01 410.682 417.643 411.386C417.284 412.227 416.719 412.964 416 413.529C415.896 413.574 415.784 413.598 415.671 413.598C415.558 413.598 415.446 413.574 415.343 413.529L409.871 410.543C409.705 410.445 409.521 410.382 409.33 410.357C409.139 410.332 408.945 410.346 408.759 410.398C408.574 410.45 408.401 410.539 408.251 410.66C408.1 410.78 407.976 410.93 407.885 411.1C407.606 411.704 407.545 412.386 407.714 413.029C408.166 415.097 409.28 416.963 410.885 418.343C412.668 419.832 414.935 420.614 417.257 420.543C419.689 420.234 422.149 420.829 424.171 422.214L425.5 423.372C426.585 424.314 428.628 426.057 430.314 427.529H425.514L426.5 426.6L424.7 425.043L422.114 427.529H410.571V420.343C410.277 420.141 409.996 419.922 409.728 419.686C409.167 419.195 408.65 418.655 408.185 418.072V429.943H455.814V420.114L453.428 422.543V427.572ZM433.857 427.572L427.071 421.614L425.728 420.457C423.58 418.859 420.946 418.051 418.271 418.172C417.757 418.172 417.343 418.172 417.071 418.172C415.391 418.176 413.762 417.601 412.457 416.543C411.514 415.72 410.783 414.681 410.328 413.514L414.214 415.614C414.674 415.865 415.19 415.996 415.714 415.996C416.238 415.996 416.754 415.865 417.214 415.614C418.351 414.806 419.221 413.677 419.714 412.372C420.315 411.332 420.672 410.169 420.757 408.972C420.721 408.445 420.554 407.936 420.272 407.489C419.991 407.043 419.602 406.674 419.143 406.414L414.857 404.1C416.8 403.557 420.014 403.686 421.628 405.086C423.073 406.454 424.022 408.263 424.328 410.229C424.715 412.925 425.893 415.446 427.714 417.472L428.957 418.557L439.343 427.572H433.857Z" fill="#2D5967"/>
</g>
</g>
<g id="Icon Text Label_4">
<text id="IconLabel_10" fill="black" xml:space="preserve" style="white-space: pre" font-family="Oracle Sans" font-size="16" letter-spacing="0em"><tspan x="401.258" y="471.216">Tool Box</tspan></text>
</g>
</g>
</g>
<defs>
<clipPath id="clip0_15085_289">
<rect width="864" height="624" fill="white"/>
</clipPath>
</defs>
</svg>
