<svg width="1519" height="424" viewBox="0 0 1519 424" fill="none" xmlns="http://www.w3.org/2000/svg">
<g id="oracle-db-at-azure-zdm_opt1">
<rect width="1519" height="424" fill="white"/>
<g id="Group 833">
<g id="Azure Cloud boxes">
<rect x="384.5" y="0.5" width="800" height="423" rx="3.5" fill="#ECF3FB"/>
<rect x="384.5" y="0.5" width="800" height="423" rx="3.5" stroke="#0078D7"/>
<text id="Azure Region" fill="#312D2A" xml:space="preserve" style="white-space: pre" font-family="Oracle Sans" font-size="16" font-weight="bold" letter-spacing="0em"><tspan x="392" y="21.816">Azure Region</tspan></text>
</g>
<g id="Oci Region">
<rect x="1209.5" y="0.5" width="309" height="423" rx="3.5" fill="#F5F4F2"/>
<rect x="1209.5" y="0.5" width="309" height="423" rx="3.5" stroke="#9E9892"/>
<text id="OCI Region" fill="#312D2A" xml:space="preserve" style="white-space: pre" font-family="Oracle Sans" font-size="16" font-weight="bold" letter-spacing="0em"><tspan x="1217" y="21.816">OCI Region</tspan></text>
</g>
<g id="database VCN box_New">
<rect id="Rectangle 28" x="939.997" y="40.9487" width="324" height="374" stroke="#AA643B" stroke-width="2" stroke-dasharray="8 4"/>
<g id="Icon Master">
<g id="Virtual-Cloud-Network-VCN_red">
<g id="Group 39">
<path id="Vector" d="M1243.41 63.51C1242.16 63.5094 1240.94 63.0768 1239.97 62.2847C1238.99 61.4927 1238.32 60.3894 1238.06 59.1601H1231.59C1231.4 60.0542 1231 60.8872 1230.41 61.583C1229.81 62.2788 1229.06 62.8153 1228.21 63.1436C1227.35 63.4719 1226.43 63.5815 1225.53 63.4623C1224.62 63.3432 1223.76 62.9992 1223.02 62.4617C1222.28 61.9241 1221.69 61.2102 1221.3 60.385C1220.91 59.5598 1220.73 58.6495 1220.78 57.7374C1220.83 56.8252 1221.11 55.94 1221.59 55.1627C1222.07 54.3854 1222.73 53.7407 1223.53 53.2873L1221.53 47.1409C1221.33 47.1545 1221.14 47.1545 1220.94 47.1409C1220.05 47.1429 1219.18 46.9287 1218.39 46.5167C1217.6 46.1048 1216.93 45.5075 1216.42 44.7764C1215.92 44.0453 1215.6 43.2025 1215.5 42.3207C1215.39 41.4389 1215.5 40.5446 1215.82 39.715C1216.14 38.8854 1216.65 38.1456 1217.32 37.5593C1217.98 36.973 1218.78 36.558 1219.65 36.35C1220.51 36.142 1221.41 36.1473 1222.27 36.3654C1223.13 36.5836 1223.92 37.008 1224.58 37.6021L1229.84 33.8724C1229.52 33.1672 1229.36 32.4026 1229.36 31.629C1229.36 30.1779 1229.94 28.7862 1230.96 27.7601C1231.99 26.7339 1233.38 26.1575 1234.83 26.1575C1236.28 26.1575 1237.67 26.7339 1238.69 27.7601C1239.72 28.7862 1240.3 30.1779 1240.3 31.629C1240.3 32.4019 1240.14 33.1665 1239.82 33.8724L1245.09 37.6386C1246.08 36.7254 1247.39 36.218 1248.74 36.216C1250.19 36.216 1251.58 36.7925 1252.6 37.8186C1253.63 38.8447 1254.2 40.2364 1254.2 41.6876C1254.2 43.1387 1253.63 44.5304 1252.6 45.5565C1251.58 46.5827 1250.19 47.1591 1248.74 47.1591C1248.54 47.1591 1248.34 47.1591 1248.15 47.1591L1246.15 53.3055C1247.2 53.9049 1248.02 54.8349 1248.48 55.9503C1248.95 57.0657 1249.03 58.3037 1248.72 59.4712C1248.41 60.6387 1247.72 61.6698 1246.76 62.4038C1245.8 63.1377 1244.62 63.5331 1243.41 63.5282V63.51Z" fill="white"/>
<path id="Vector_2" d="M1234.84 26.5768C1235.7 26.5788 1236.56 26.8058 1237.31 27.2355C1238.06 27.6652 1238.69 28.2831 1239.14 29.0289C1239.58 29.7746 1239.83 30.6229 1239.85 31.4909C1239.86 32.3589 1239.66 33.217 1239.25 33.9817L1245.09 38.2313C1245.66 37.6322 1246.37 37.1843 1247.16 36.9276C1247.95 36.671 1248.79 36.6136 1249.6 36.7605C1250.42 36.9075 1251.18 37.2542 1251.83 37.7698C1252.48 38.2854 1252.99 38.9536 1253.32 39.7149C1253.65 40.4762 1253.78 41.3067 1253.71 42.1323C1253.64 42.9579 1253.36 43.7527 1252.91 44.4458C1252.45 45.139 1251.83 45.7087 1251.11 46.1042C1250.38 46.4997 1249.56 46.7086 1248.74 46.7122C1248.43 46.7164 1248.12 46.692 1247.82 46.6392L1245.59 53.5243C1246.37 53.9012 1247.04 54.4744 1247.54 55.1879C1248.03 55.9015 1248.33 56.7308 1248.41 57.595C1248.48 58.4592 1248.33 59.3287 1247.98 60.1185C1247.62 60.9083 1247.06 61.5913 1246.36 62.101C1245.66 62.6106 1244.83 62.9294 1243.97 63.0261C1243.11 63.1228 1242.24 62.9942 1241.44 62.6529C1240.64 62.3115 1239.95 61.769 1239.42 61.0785C1238.9 60.388 1238.56 59.573 1238.45 58.7131H1231.21C1231.09 59.573 1230.75 60.3878 1230.23 61.0779C1229.7 61.768 1229.01 62.3098 1228.21 62.6502C1227.41 62.9907 1226.54 63.1182 1225.68 63.0203C1224.82 62.9224 1223.99 62.6024 1223.29 62.0917C1222.59 61.5809 1222.03 60.8968 1221.68 60.1063C1221.32 59.3158 1221.17 58.446 1221.25 57.5817C1221.33 56.7175 1221.63 55.8884 1222.13 55.1756C1222.62 54.4628 1223.29 53.8907 1224.07 53.5151L1221.84 46.6392C1221.54 46.695 1221.23 46.7225 1220.93 46.7213C1220.1 46.7198 1219.28 46.5121 1218.55 46.117C1217.82 45.7218 1217.2 45.1514 1216.74 44.4569C1216.29 43.7625 1216.01 42.9656 1215.94 42.1377C1215.86 41.3098 1216 40.4767 1216.32 39.7131C1216.65 38.9494 1217.16 38.2791 1217.81 37.7622C1218.46 37.2452 1219.23 36.8978 1220.05 36.7509C1220.87 36.6041 1221.71 36.6624 1222.5 36.9208C1223.29 37.1792 1224 37.6294 1224.57 38.2313L1230.42 33.9817C1230.01 33.2164 1229.8 32.3574 1229.82 31.4886C1229.84 30.6199 1230.08 29.771 1230.53 29.025C1230.97 28.2789 1231.6 27.6612 1232.36 27.2321C1233.11 26.803 1233.97 26.5773 1234.84 26.5768ZM1234.84 25.6649C1233.26 25.6649 1231.76 26.2891 1230.64 27.4005C1229.53 28.5119 1228.91 30.0195 1228.9 31.5924C1228.9 32.3061 1229.03 33.0139 1229.29 33.6807L1224.63 37.0549C1223.89 36.4636 1223.02 36.0586 1222.09 35.8738C1221.16 35.6889 1220.2 35.7297 1219.29 35.9926C1218.37 36.2555 1217.54 36.7329 1216.85 37.3849C1216.16 38.0368 1215.64 38.8443 1215.33 39.7397C1215.02 40.6351 1214.92 41.5924 1215.06 42.5315C1215.19 43.4705 1215.55 44.3638 1216.09 45.1368C1216.64 45.9098 1217.37 46.5398 1218.21 46.9741C1219.06 47.4085 1219.99 47.6345 1220.94 47.6332H1221.2L1223.03 53.1048C1222.23 53.633 1221.57 54.3467 1221.11 55.1849C1220.65 56.023 1220.39 56.9607 1220.37 57.9177C1220.35 58.8746 1220.56 59.8225 1220.99 60.6802C1221.41 61.5378 1222.04 62.2798 1222.81 62.8426C1223.58 63.4054 1224.48 63.7724 1225.43 63.912C1226.38 64.0517 1227.34 63.96 1228.25 63.6447C1229.15 63.3294 1229.96 62.7999 1230.62 62.1014C1231.27 61.403 1231.75 60.5565 1232 59.6342H1237.74C1238 60.5597 1238.47 61.4098 1239.13 62.1117C1239.78 62.8135 1240.6 63.346 1241.5 63.6637C1242.41 63.9814 1243.38 64.0747 1244.32 63.9356C1245.27 63.7966 1246.18 63.4293 1246.95 62.8653C1247.73 62.3013 1248.36 61.5574 1248.78 60.6973C1249.21 59.8373 1249.42 58.8867 1249.4 57.9271C1249.37 56.9674 1249.12 56.0274 1248.66 55.1875C1248.19 54.3477 1247.53 53.633 1246.73 53.1048L1248.55 47.6332H1248.74C1249.54 47.6779 1250.35 47.5578 1251.1 47.2801C1251.86 47.0024 1252.56 46.5731 1253.14 46.0183C1253.73 45.4634 1254.19 44.7948 1254.51 44.0533C1254.83 43.3118 1255 42.513 1255 41.7057C1255 40.8984 1254.83 40.0996 1254.51 39.3581C1254.19 38.6165 1253.73 37.9479 1253.14 37.3931C1252.56 36.8383 1251.86 36.4089 1251.1 36.1313C1250.35 35.8536 1249.54 35.7334 1248.74 35.7782C1247.39 35.7748 1246.09 36.2319 1245.04 37.0731L1240.4 33.699C1240.64 33.0304 1240.77 32.3234 1240.77 31.6107C1240.77 30.8303 1240.62 30.0573 1240.32 29.336C1240.02 28.6147 1239.59 27.9592 1239.04 27.4069C1238.48 26.8547 1237.83 26.4166 1237.11 26.1177C1236.39 25.8188 1235.62 25.6649 1234.84 25.6649V25.6649Z" fill="white"/>
<path id="Vector_3" d="M1248.74 36.6708C1248.05 36.669 1247.38 36.8064 1246.75 37.0745C1246.13 37.3426 1245.56 37.7359 1245.09 38.2302L1239.25 33.9806C1239.66 33.2152 1239.87 32.3553 1239.85 31.485C1239.84 30.6148 1239.59 29.7641 1239.15 29.0162C1238.7 28.2684 1238.07 27.6491 1237.31 27.2191C1236.56 26.789 1235.7 26.5629 1234.83 26.5629C1233.96 26.5629 1233.11 26.789 1232.35 27.2191C1231.59 27.6491 1230.96 28.2684 1230.52 29.0162C1230.07 29.7641 1229.83 30.6148 1229.81 31.485C1229.79 32.3553 1230 33.2152 1230.42 33.9806L1224.57 38.2302C1223.99 37.6332 1223.28 37.1874 1222.49 36.9326C1221.71 36.6778 1220.87 36.6219 1220.05 36.7699C1219.24 36.9179 1218.48 37.2652 1217.83 37.7808C1217.18 38.2964 1216.67 38.9642 1216.35 39.7248C1216.02 40.4853 1215.89 41.315 1215.96 42.1396C1216.03 42.9643 1216.3 43.7584 1216.76 44.4511C1217.21 45.1437 1217.83 45.7134 1218.55 46.1094C1219.28 46.5053 1220.09 46.7152 1220.92 46.7202C1221.23 46.7214 1221.53 46.694 1221.83 46.6381L1224.06 53.5049C1223.28 53.8805 1222.61 54.4526 1222.12 55.1654C1221.62 55.8782 1221.32 56.7072 1221.24 57.5715C1221.16 58.4358 1221.31 59.3056 1221.67 60.0961C1222.03 60.8866 1222.58 61.5707 1223.28 62.0815C1223.98 62.5922 1224.81 62.9122 1225.67 63.0101C1226.53 63.108 1227.4 62.9805 1228.2 62.64C1229 62.2996 1229.69 61.7578 1230.22 61.0677C1230.75 60.3776 1231.08 59.5628 1231.2 58.7029H1238.44C1238.55 59.5628 1238.89 60.3778 1239.41 61.0683C1239.94 61.7588 1240.64 62.3013 1241.43 62.6427C1242.23 62.984 1243.1 63.1126 1243.96 63.0159C1244.82 62.9192 1245.65 62.6004 1246.35 62.0908C1247.05 61.5811 1247.61 60.8981 1247.97 60.1083C1248.33 59.3185 1248.47 58.449 1248.4 57.5848C1248.32 56.7206 1248.02 55.8912 1247.53 55.1777C1247.03 54.4642 1246.36 53.891 1245.58 53.5141L1247.82 46.6381C1248.12 46.694 1248.43 46.7214 1248.74 46.7202C1249.42 46.7615 1250.1 46.6624 1250.75 46.429C1251.39 46.1956 1251.98 45.8328 1252.48 45.363C1252.98 44.8932 1253.38 44.3263 1253.65 43.6972C1253.92 43.068 1254.06 42.3899 1254.06 41.7046C1254.06 41.0193 1253.92 40.3412 1253.65 39.712C1253.38 39.0829 1252.98 38.516 1252.48 38.0462C1251.98 37.5764 1251.39 37.2136 1250.75 36.9802C1250.1 36.7469 1249.42 36.6477 1248.74 36.689V36.6708ZM1243.41 61.7123C1242.69 61.7123 1241.99 61.4983 1241.39 61.0975C1240.79 60.6967 1240.32 60.127 1240.05 59.4605C1239.77 58.7939 1239.7 58.0605 1239.84 57.3529C1239.98 56.6453 1240.33 55.9954 1240.84 55.4852C1241.35 54.9751 1241.99 54.6277 1242.7 54.4869C1243.41 54.3462 1244.14 54.4184 1244.81 54.6945C1245.47 54.9706 1246.04 55.4381 1246.44 56.038C1246.84 56.6379 1247.06 57.3431 1247.06 58.0646C1247.06 59.032 1246.67 59.9598 1245.99 60.6439C1245.31 61.328 1244.38 61.7123 1243.41 61.7123ZM1231.21 57.3624C1231.06 56.2301 1230.53 55.1837 1229.7 54.3986L1232.43 50.5776C1233.16 50.9667 1233.98 51.1702 1234.81 51.1704C1235.64 51.1732 1236.45 50.9695 1237.18 50.5776L1239.91 54.3986C1239.08 55.1828 1238.54 56.2291 1238.39 57.3624H1231.21ZM1222.56 58.0372C1222.56 57.3158 1222.77 56.6105 1223.17 56.0106C1223.58 55.4108 1224.14 54.9432 1224.81 54.6672C1225.48 54.3911 1226.21 54.3188 1226.92 54.4596C1227.62 54.6003 1228.27 54.9477 1228.78 55.4579C1229.29 55.968 1229.64 56.618 1229.78 57.3256C1229.92 58.0332 1229.85 58.7666 1229.57 59.4331C1229.3 60.0997 1228.83 60.6693 1228.23 61.0702C1227.63 61.471 1226.93 61.6849 1226.21 61.6849C1225.24 61.6849 1224.31 61.3006 1223.63 60.6165C1222.94 59.9324 1222.56 59.0046 1222.56 58.0372ZM1220.94 38.0204C1221.66 38.0204 1222.36 38.2344 1222.96 38.6352C1223.56 39.036 1224.03 39.6057 1224.31 40.2722C1224.58 40.9387 1224.65 41.6722 1224.51 42.3798C1224.37 43.0873 1224.03 43.7373 1223.52 44.2474C1223.01 44.7576 1222.36 45.105 1221.65 45.2457C1220.94 45.3865 1220.21 45.3143 1219.54 45.0382C1218.88 44.7621 1218.31 44.2945 1217.91 43.6947C1217.51 43.0948 1217.29 42.3896 1217.29 41.6681C1217.29 40.7007 1217.68 39.7729 1218.36 39.0888C1219.04 38.4047 1219.97 38.0204 1220.94 38.0204ZM1231.15 31.6369C1231.15 30.9155 1231.37 30.2103 1231.77 29.6104C1232.17 29.0105 1232.74 28.543 1233.41 28.2669C1234.07 27.9908 1234.8 27.9186 1235.51 28.0593C1236.22 28.2001 1236.87 28.5475 1237.38 29.0576C1237.89 29.5678 1238.24 30.2177 1238.38 30.9253C1238.52 31.6329 1238.44 32.3663 1238.17 33.0329C1237.89 33.6994 1237.43 34.2691 1236.83 34.6699C1236.23 35.0707 1235.52 35.2846 1234.8 35.2846C1234.32 35.2847 1233.84 35.1888 1233.39 35.0027C1232.95 34.8165 1232.55 34.5438 1232.21 34.2002C1231.87 33.8566 1231.6 33.4491 1231.42 33.0013C1231.24 32.5534 1231.15 32.0742 1231.15 31.5913V31.6369ZM1243.79 42.5801L1239.37 43.9935C1239.01 43.2392 1238.46 42.5861 1237.79 42.0927C1237.12 41.5993 1236.33 41.2811 1235.5 41.1666V36.6069C1236.63 36.4566 1237.67 35.9221 1238.46 35.0931L1244.32 39.3427C1243.92 40.0731 1243.71 40.8916 1243.71 41.7228C1243.72 42.007 1243.74 42.2906 1243.79 42.5709V42.5801ZM1238.51 46.1639C1238.51 46.8854 1238.3 47.5906 1237.9 48.1905C1237.49 48.7903 1236.93 49.2579 1236.26 49.534C1235.59 49.8101 1234.86 49.8823 1234.15 49.7415C1233.45 49.6008 1232.8 49.2534 1232.29 48.7432C1231.78 48.2331 1231.43 47.5831 1231.29 46.8756C1231.15 46.168 1231.22 45.4345 1231.5 44.768C1231.77 44.1015 1232.24 43.5318 1232.84 43.131C1233.44 42.7302 1234.14 42.5162 1234.86 42.5162C1235.83 42.5162 1236.76 42.8993 1237.44 43.5814C1238.12 44.2635 1238.51 45.189 1238.51 46.1548V46.1639ZM1234.15 36.6069V41.1666C1233.33 41.2793 1232.54 41.5958 1231.87 42.0878C1231.2 42.5797 1230.66 43.2315 1230.3 43.9844L1225.87 42.5709C1225.93 42.2704 1225.95 41.9649 1225.95 41.659C1225.94 40.8504 1225.74 40.0556 1225.36 39.3427L1231.21 35.084C1231.99 35.9145 1233.03 36.4522 1234.15 36.6069ZM1225.46 43.9023L1229.89 45.3158C1229.83 45.6165 1229.8 45.9219 1229.81 46.2278C1229.8 46.9109 1229.94 47.5874 1230.21 48.2151C1230.48 48.8427 1230.88 49.4079 1231.37 49.8755L1228.64 53.7056C1227.91 53.3098 1227.1 53.1029 1226.27 53.1037C1225.96 53.1018 1225.66 53.1293 1225.36 53.1858L1223.12 46.2186C1224.14 45.7342 1224.97 44.9178 1225.47 43.9023H1225.46ZM1243.41 53.0216C1242.59 53.0229 1241.77 53.2264 1241.04 53.6144L1238.31 49.8025C1238.81 49.3336 1239.2 48.7681 1239.47 48.1408C1239.74 47.5135 1239.88 46.8376 1239.88 46.1548C1239.88 45.8489 1239.85 45.5435 1239.79 45.2429L1244.18 43.8476C1244.68 44.8789 1245.5 45.7138 1246.53 46.2186L1244.3 53.0946C1244.01 53.0435 1243.71 53.0191 1243.41 53.0216ZM1245.09 41.6955C1245.09 40.974 1245.3 40.2688 1245.7 39.6689C1246.1 39.0691 1246.67 38.6015 1247.34 38.3254C1248.01 38.0494 1248.74 37.9771 1249.45 38.1179C1250.15 38.2586 1250.8 38.606 1251.31 39.1162C1251.82 39.6263 1252.17 40.2763 1252.31 40.9839C1252.45 41.6914 1252.38 42.4249 1252.1 43.0914C1251.83 43.7579 1251.36 44.3276 1250.76 44.7284C1250.16 45.1293 1249.46 45.3432 1248.74 45.3432C1247.77 45.3432 1246.84 44.9589 1246.16 44.2748C1245.47 43.5907 1245.09 42.6629 1245.09 41.6955Z" fill="#AA643B"/>
</g>
</g>
</g>
<text id="VCN" fill="#AE562C" xml:space="preserve" style="white-space: pre" font-family="Oracle Sans" font-size="16" font-weight="600" letter-spacing="0em"><tspan x="947.997" y="62.816">Database VCN</tspan></text>
<text id="VCN_2" fill="#312D2A" xml:space="preserve" style="white-space: pre" font-family="Oracle Sans" font-size="16" font-weight="300" letter-spacing="0em"><tspan x="947.997" y="78.816">10.10.1.0/24 +</tspan></text>
<text id="00.0.00.0/00" fill="#312D2A" xml:space="preserve" style="white-space: pre" font-family="Oracle Sans" font-size="16" font-weight="300" letter-spacing="0em"><tspan x="947.997" y="94.816">192.168.252.0/22</tspan></text>
</g>
<g id="client subnet">
<rect x="948.497" y="177.5" width="276" height="70" stroke="#AE562C" stroke-dasharray="8 4"/>
<text id="Subnet" fill="#AE562C" xml:space="preserve" style="white-space: pre" font-family="Oracle Sans" font-size="16" font-weight="600" letter-spacing="0em"><tspan x="955.997" y="198.816">Client subnet</tspan></text>
<text id="00.0.00.0/00_2" fill="#312D2A" xml:space="preserve" style="white-space: pre" font-family="Oracle Sans" font-size="16" font-weight="300" letter-spacing="0em"><tspan x="955.997" y="214.816">10.10.1.0/24</tspan></text>
</g>
<g id="backup subnet">
<rect x="948.497" y="257.5" width="276" height="150" stroke="#AE562C" stroke-dasharray="8 4"/>
<text id="Subnet_2" fill="#AE562C" xml:space="preserve" style="white-space: pre" font-family="Oracle Sans" font-size="16" font-weight="600" letter-spacing="0em"><tspan x="955.997" y="278.816">Backup subnet</tspan></text>
<text id="00.0.00.0/00_3" fill="#312D2A" xml:space="preserve" style="white-space: pre" font-family="Oracle Sans" font-size="16" font-weight="300" letter-spacing="0em"><tspan x="955.997" y="294.816">192.168.252.0/22</tspan></text>
</g>
<g id="Oracle databse">
<g id="Oracle-Database@Azure">
<g id="Group">
<path id="Vector_4" d="M1120.57 122.128C1109.33 122.128 1100.22 120.152 1100.22 117.716V127.987C1100.22 130.424 1109.33 132.399 1120.57 132.399C1131.8 132.399 1140.91 130.424 1140.91 127.987V117.716C1140.91 120.152 1131.8 122.128 1120.57 122.128ZM1137.69 124.219C1136.15 124.75 1134.56 125.169 1132.96 125.464C1131.05 125.813 1129.09 125.992 1127.15 125.992C1126.68 125.992 1126.3 125.614 1126.3 125.146C1126.3 124.677 1126.68 124.299 1127.15 124.299C1128.99 124.299 1130.84 124.13 1132.65 123.798C1134.17 123.519 1135.67 123.124 1137.13 122.619C1137.58 122.466 1138.06 122.699 1138.21 123.144C1138.37 123.585 1138.13 124.07 1137.69 124.223L1137.69 124.219ZM1120.57 108.918C1109.33 108.918 1100.22 106.943 1100.22 104.506V115.322C1100.22 117.759 1109.33 119.731 1120.57 119.731C1131.8 119.731 1140.91 117.756 1140.91 115.319V104.503C1140.91 106.939 1131.8 108.915 1120.57 108.915V108.918ZM1137.69 111.368C1136.15 111.899 1134.56 112.318 1132.96 112.613C1131.05 112.962 1129.09 113.141 1127.15 113.141C1126.68 113.141 1126.3 112.762 1126.3 112.294C1126.3 111.826 1126.68 111.448 1127.15 111.448C1128.99 111.448 1130.84 111.278 1132.65 110.946C1134.17 110.668 1135.67 110.273 1137.13 109.768C1137.58 109.615 1138.06 109.848 1138.21 110.292C1138.37 110.737 1138.13 111.219 1137.69 111.371L1137.69 111.368ZM1120.57 87.8468C1109.33 87.8468 1100.22 89.7989 1100.22 93.0291V102.116C1100.22 104.552 1109.33 106.524 1120.57 106.524C1131.8 106.524 1140.91 104.549 1140.91 102.112V93.3578C1140.91 89.7956 1131.8 87.8468 1120.57 87.8468ZM1137.69 98.8854C1136.15 99.4166 1134.56 99.8349 1132.96 100.13C1131.05 100.479 1129.09 100.658 1127.15 100.658C1126.68 100.658 1126.3 100.28 1126.3 99.8116C1126.3 99.3435 1126.68 98.9651 1127.15 98.9651C1128.99 98.9651 1130.84 98.7958 1132.65 98.4638C1134.16 98.1849 1135.67 97.7898 1137.13 97.2852C1137.58 97.1325 1138.06 97.3649 1138.21 97.8098C1138.37 98.2513 1138.13 98.736 1137.69 98.8887L1137.69 98.8854ZM1120.57 95.8809C1110.44 95.8809 1102.24 94.0384 1102.24 92.9461C1102.24 91.6049 1110.44 89.5333 1120.57 89.5333C1130.69 89.5333 1138.89 91.6879 1138.89 92.9461C1138.89 94.0882 1130.69 95.8809 1120.57 95.8809Z" fill="url(#paint0_linear_17714_983)"/>
<path id="Vector_5" d="M1100.22 92.943V92.787C1100.22 89.7758 1108.15 87.8769 1118.34 87.6345C1117.16 85.0052 1114.71 83.0564 1111.71 82.658C1111.45 76.7918 1106.53 72.2237 1100.67 72.4063C1096 72.3233 1091.79 75.195 1090.16 79.5706C1085.18 80.1715 1081.38 84.3279 1081.24 89.3443C1081.46 95.0146 1086.23 99.4333 1091.9 99.2308C1092.21 99.2308 1092.53 99.2176 1092.83 99.191H1100.22L1100.22 92.943Z" fill="url(#paint1_linear_17714_983)"/>
</g>
</g>
<g id="Icon Text Label">
<text id="IconLabel" fill="black" xml:space="preserve" style="white-space: pre" font-family="Oracle Sans" font-size="16" letter-spacing="0em"><tspan x="1088.13" y="150.216">Oracle</tspan></text>
<text id="IconLabel_2" fill="black" xml:space="preserve" style="white-space: pre" font-family="Oracle Sans" font-size="16" letter-spacing="0em"><tspan x="1048.45" y="166.216">Database@Azure</tspan></text>
</g>
</g>
<g id="OCI Managed Services">
<rect x="1377.5" y="40.5" width="134" height="375" fill="white"/>
<rect x="1377.5" y="40.5" width="134" height="375" stroke="#9E9892" stroke-dasharray="2 2"/>
<text id="Tier" fill="#312D2A" xml:space="preserve" style="white-space: pre" font-family="Oracle Sans" font-size="16" letter-spacing="0em"><tspan x="1431.43" y="61.816">OCI</tspan></text>
<text id="Tier_2" fill="#312D2A" xml:space="preserve" style="white-space: pre" font-family="Oracle Sans" font-size="16" letter-spacing="0em"><tspan x="1410.27" y="77.816">managed</tspan></text>
<text id="Tier_3" fill="#312D2A" xml:space="preserve" style="white-space: pre" font-family="Oracle Sans" font-size="16" letter-spacing="0em"><tspan x="1415.32" y="93.816">services</tspan></text>
</g>
<path id="Vector 57" d="M1423.71 241.109C1424.1 240.719 1424.1 240.086 1423.71 239.695L1417.34 233.331C1416.95 232.941 1416.32 232.941 1415.93 233.331C1415.54 233.722 1415.54 234.355 1415.93 234.745L1421.59 240.402L1415.93 246.059C1415.54 246.449 1415.54 247.083 1415.93 247.473C1416.32 247.864 1416.95 247.864 1417.34 247.473L1423.71 241.109ZM1142 241.402L1423 241.402L1423 239.402L1142 239.402L1142 241.402Z" fill="#312D2A"/>
<g id="Frame 1237">
<g id="Connector Line Label">
<rect width="74" height="14" transform="translate(1291.17 218.203)" fill="#F5F4F2"/>
<text id="Line Label" fill="#312D2A" xml:space="preserve" style="white-space: pre" font-family="Oracle Sans" font-size="14" letter-spacing="0em"><tspan x="1295.47" y="230.292">Automatic</tspan></text>
</g>
<g id="Connector Line Label_2">
<rect width="55" height="14" transform="translate(1300.67 232.203)" fill="#F5F4F2"/>
<text id="Line Label_2" fill="#312D2A" xml:space="preserve" style="white-space: pre" font-family="Oracle Sans" font-size="14" letter-spacing="0em"><tspan x="1305.15" y="244.292">backup</tspan></text>
</g>
<g id="Connector Line Label_3">
<rect width="63" height="14" transform="translate(1296.67 246.203)" fill="#F5F4F2"/>
<text id="Line Label_3" fill="#312D2A" xml:space="preserve" style="white-space: pre" font-family="Oracle Sans" font-size="14" letter-spacing="0em"><tspan x="1301.06" y="258.292">(remote)</tspan></text>
</g>
</g>
<g id="Exadata DB">
<g id="Services-Exadata-Database-System">
<g id="Group 515">
<path id="Vector_6" d="M1107.48 265.328V263.013L1109.91 261.855V229.511H1099.27L1099.41 227.439C1099.54 225.611 1100.13 223.845 1101.13 222.31C1102.12 220.774 1103.5 219.519 1105.11 218.663C1105.39 218.519 1105.63 218.316 1105.82 218.069C1106 217.822 1106.13 217.537 1106.2 217.234C1106.47 215.911 1107.05 214.673 1107.91 213.628C1108.76 212.582 1109.85 211.76 1111.09 211.231C1112.15 210.771 1113.29 210.533 1114.44 210.531C1114.71 210.516 1114.97 210.516 1115.23 210.531H1115.43C1115.7 210.536 1115.96 210.484 1116.21 210.378C1116.45 210.272 1116.67 210.114 1116.86 209.916C1117.81 208.902 1118.96 208.095 1120.24 207.544C1121.52 206.994 1122.9 206.711 1124.29 206.715C1126.18 206.706 1128.03 207.23 1129.64 208.226C1131.24 209.221 1132.54 210.649 1133.37 212.346C1133.52 212.625 1133.72 212.87 1133.96 213.063C1134.21 213.256 1134.5 213.391 1134.8 213.461C1135.97 213.739 1137.08 214.223 1138.08 214.89C1140.3 216.295 1141.91 218.489 1142.58 221.032C1143.25 223.575 1142.93 226.278 1141.69 228.596L1141.16 229.583H1134.34V261.855L1136.7 263.013V265.328H1107.48Z" fill="white"/>
<path id="Vector_7" d="M1124.29 207.429C1126.04 207.421 1127.76 207.907 1129.26 208.832C1130.75 209.757 1131.95 211.084 1132.73 212.66C1132.93 213.024 1133.2 213.341 1133.54 213.587C1133.87 213.834 1134.25 214.006 1134.66 214.09C1136.11 214.41 1137.48 215.066 1138.64 216.004C1139.8 216.943 1140.73 218.139 1141.35 219.498C1141.97 220.857 1142.27 222.342 1142.23 223.837C1142.18 225.331 1141.78 226.794 1141.08 228.111L1140.75 228.725H1133.62V262.313L1135.97 263.47V264.599H1108.19V263.456L1110.56 262.298V228.868H1100.04L1100.12 227.625C1100.23 225.897 1100.78 224.226 1101.72 222.776C1102.66 221.325 1103.96 220.145 1105.5 219.349C1105.87 219.155 1106.19 218.883 1106.44 218.553C1106.69 218.222 1106.86 217.84 1106.95 217.434C1107.29 215.695 1108.23 214.128 1109.59 213.002C1110.96 211.875 1112.67 211.26 1114.44 211.26C1114.68 211.245 1114.92 211.245 1115.16 211.26H1115.43C1115.79 211.264 1116.16 211.191 1116.49 211.045C1116.83 210.9 1117.13 210.686 1117.38 210.416C1118.27 209.473 1119.34 208.721 1120.53 208.207C1121.71 207.693 1122.99 207.428 1124.29 207.429ZM1124.29 206C1122.79 206.003 1121.32 206.312 1119.95 206.91C1118.59 207.507 1117.36 208.38 1116.34 209.473C1116.22 209.596 1116.08 209.694 1115.92 209.76C1115.77 209.826 1115.6 209.86 1115.43 209.859H1115.3H1114.44C1112.35 209.854 1110.31 210.578 1108.69 211.907C1107.07 213.237 1105.95 215.089 1105.54 217.148C1105.51 217.347 1105.42 217.535 1105.3 217.696C1105.18 217.858 1105.02 217.988 1104.84 218.077C1103.11 218.983 1101.63 220.319 1100.55 221.957C1099.48 223.596 1098.84 225.483 1098.69 227.439L1098.61 228.682L1098.49 230.297H1109.14V261.412L1107.57 262.184L1106.77 262.57V265.728L1107.84 266H1108.01H1137.41V262.57L1136.61 262.184L1135.06 261.412V230.297H1141.6L1142 229.54L1142.33 228.939C1143.67 226.447 1144.01 223.537 1143.29 220.801C1142.57 218.064 1140.83 215.706 1138.44 214.204C1137.36 213.526 1136.17 213.043 1134.93 212.775C1134.72 212.734 1134.53 212.646 1134.36 212.517C1134.2 212.388 1134.06 212.222 1133.97 212.031C1133.08 210.222 1131.7 208.698 1129.99 207.632C1128.28 206.567 1126.3 206.001 1124.29 206V206Z" fill="white"/>
<path id="Vector_8" d="M1108.92 263.899L1111.28 262.756V219.678H1132.92V262.756L1135.26 263.899H1108.92Z" fill="white"/>
<path id="Vector_9" d="M1132.2 220.393V263.171H1111.99V220.393H1132.2ZM1133.63 218.964H1110.56V262.313L1108.19 263.471V264.6H1135.98V263.456L1133.63 262.299V218.964Z" fill="white"/>
<path id="Vector_10" d="M1133.63 262.313V218.964H1110.56V262.313L1108.19 263.471V264.6H1135.98V263.456L1133.63 262.313ZM1112.93 221.279H1131.3V262.313H1112.93V221.279ZM1114.7 223.009H1129.48V225.324H1114.7V223.009ZM1127.71 227.053H1116.47V229.083H1114.7V231.398H1116.47V233.414H1127.71V231.398H1129.48V229.083H1127.71V227.053ZM1125.34 231.098H1118.84V229.369H1125.34V231.098ZM1123.79 251.937L1127.14 258.554H1124.17L1122.03 253.909L1119.98 258.554H1117.04L1120.42 251.851L1117.21 245.534H1120.16L1122.16 249.821L1124.09 245.534H1126.94L1123.79 251.937ZM1117.04 237.444H1114.7V235.143H1117.04V237.444ZM1121.18 237.444H1118.84V235.143H1121.2L1121.18 237.444ZM1125.31 237.444H1122.97V235.143H1125.34L1125.31 237.444ZM1127.1 235.129H1129.45V237.444H1127.12L1127.1 235.129ZM1117.11 241.489H1114.7V239.188H1117.04L1117.11 241.489ZM1118.88 239.173H1121.25V241.489H1118.84L1118.88 239.173ZM1123.02 239.173H1125.38V241.489H1122.97L1123.02 239.173ZM1127.17 239.173H1129.52V241.489H1127.12L1127.17 239.173Z" fill="#2D5967"/>
<path id="Vector_11" d="M1141.08 228.181L1140.75 228.795H1135.04V226.48H1139.32C1140 224.87 1140.09 223.071 1139.56 221.403C1139.04 219.736 1137.95 218.309 1136.47 217.376C1135.76 216.919 1134.98 216.594 1134.16 216.418C1133.41 216.255 1132.71 215.925 1132.11 215.453C1131.5 214.98 1131.02 214.377 1130.68 213.688C1130.16 212.654 1129.41 211.76 1128.47 211.084C1127.54 210.407 1126.45 209.968 1125.31 209.803C1124.17 209.639 1123 209.754 1121.92 210.14C1120.83 210.525 1119.85 211.169 1119.07 212.016C1118.55 212.579 1117.91 213.013 1117.19 213.283C1116.47 213.554 1115.71 213.653 1114.94 213.574C1114.04 213.486 1113.13 213.634 1112.31 214.003C1111.52 214.351 1110.82 214.884 1110.28 215.559C1109.74 216.233 1109.38 217.028 1109.21 217.876C1109.06 218.623 1108.75 219.326 1108.29 219.935C1107.83 220.543 1107.25 221.041 1106.57 221.392C1105.59 221.906 1104.72 222.627 1104.04 223.505C1103.36 224.383 1102.87 225.397 1102.62 226.48H1109.1V228.867H1100.04L1100.12 227.624C1100.23 225.896 1100.78 224.225 1101.72 222.775C1102.66 221.324 1103.97 220.144 1105.5 219.348C1105.87 219.154 1106.19 218.882 1106.44 218.551C1106.69 218.221 1106.87 217.839 1106.96 217.433C1107.18 216.222 1107.7 215.084 1108.46 214.118C1109.22 213.152 1110.21 212.386 1111.34 211.887C1112.52 211.358 1113.82 211.146 1115.12 211.273C1115.53 211.321 1115.94 211.271 1116.33 211.127C1116.71 210.982 1117.06 210.748 1117.34 210.444C1118.38 209.315 1119.67 208.457 1121.12 207.942C1122.56 207.428 1124.1 207.273 1125.62 207.491C1127.13 207.709 1128.57 208.294 1129.81 209.194C1131.05 210.095 1132.06 211.284 1132.73 212.659C1132.93 213.023 1133.21 213.339 1133.54 213.586C1133.87 213.833 1134.25 214.004 1134.66 214.088C1136.12 214.409 1137.48 215.065 1138.64 216.003C1139.8 216.942 1140.73 218.138 1141.35 219.497C1141.98 220.856 1142.28 222.341 1142.23 223.836C1142.18 225.33 1141.79 226.793 1141.08 228.109" fill="#2D5967"/>
</g>
</g>
<g id="Icon Text Label_2">
<text id="IconLabel_3" fill="black" xml:space="preserve" style="white-space: pre" font-family="Oracle Sans" font-size="16" letter-spacing="0em"><tspan x="1097.93" y="283.816">Oracle</tspan></text>
<text id="IconLabel_4" fill="black" xml:space="preserve" style="white-space: pre" font-family="Oracle Sans" font-size="16" letter-spacing="0em"><tspan x="1091.96" y="299.816">Exadata </tspan></text>
<text id="IconLabel_5" fill="black" xml:space="preserve" style="white-space: pre" font-family="Oracle Sans" font-size="16" letter-spacing="0em"><tspan x="1087.24" y="315.816">Database</tspan></text>
<text id="IconLabel_6" fill="black" xml:space="preserve" style="white-space: pre" font-family="Oracle Sans" font-size="16" letter-spacing="0em"><tspan x="1094.79" y="331.816">Service</tspan></text>
</g>
</g>
<g id="Azure Database VNet">
<rect x="761.997" y="40.3997" width="168" height="375" fill="white"/>
<rect x="761.997" y="40.3997" width="168" height="375" stroke="#706E6F" stroke-width="2" stroke-dasharray="4 4"/>
<g id="VNet icon">
<rect id="White Vnet BG" x="877.997" y="37.3997" width="45" height="6" fill="white"/>
<g id="Icon Master_2">
<g id="Azure_VNet">
<g id="Group_2">
<g id="Group_3">
<path id="Vector_12" d="M909.291 42.9449C910.722 42.9449 911.881 41.7851 911.881 40.3546C911.881 38.924 910.722 37.7643 909.291 37.7643C907.86 37.7643 906.701 38.924 906.701 40.3546C906.701 41.7851 907.86 42.9449 909.291 42.9449Z" fill="url(#paint2_linear_17714_983)"/>
<path id="Vector_13" d="M901.122 42.9449C902.552 42.9449 903.712 41.7851 903.712 40.3546C903.712 38.924 902.552 37.7643 901.122 37.7643C899.691 37.7643 898.531 38.924 898.531 40.3546C898.531 41.7851 899.691 42.9449 901.122 42.9449Z" fill="url(#paint3_linear_17714_983)"/>
<path id="Vector_14" d="M892.952 42.9449C894.383 42.9449 895.542 41.7851 895.542 40.3546C895.542 38.924 894.383 37.7643 892.952 37.7643C891.522 37.7643 890.362 38.924 890.362 40.3546C890.362 41.7851 891.522 42.9449 892.952 42.9449Z" fill="url(#paint4_linear_17714_983)"/>
<path id="Vector_15" d="M894.745 50.7158L893.151 52.3098C892.952 52.3098 892.554 52.3098 892.354 52.1106L881.396 41.1517C880.997 40.7532 880.997 39.9562 881.396 39.3584L882.99 37.9636L894.745 49.7195C894.945 49.9188 894.945 50.3173 894.745 50.7158Z" fill="#50E6FF"/>
<path id="Vector_16" d="M893.151 28.5988L894.746 30.1928C894.945 30.3921 894.945 30.7906 894.746 30.9898L882.99 42.7457L881.396 41.1517C880.798 40.5539 880.798 39.7569 881.396 39.3584L892.155 28.5988C892.354 28.3995 892.753 28.3995 893.151 28.5988Z" fill="#1490DF"/>
<path id="Vector_17" d="M919.054 37.7643L920.449 39.1591C921.047 39.7568 921.047 40.5538 920.449 40.9523L909.49 51.9112C909.291 52.1105 908.892 52.1105 908.494 51.9112L906.9 50.3172C906.701 50.118 906.701 49.7195 906.9 49.3209L919.054 37.7643Z" fill="#50E6FF"/>
<path id="Vector_18" d="M920.648 41.1517L919.054 42.7457L907.498 31.1891C907.298 30.9898 907.298 30.5913 907.498 30.1928L908.892 28.5988C909.092 28.3995 909.49 28.3995 909.889 28.5988L920.648 39.3584C921.047 39.7569 921.047 40.5539 920.648 41.1517Z" fill="#1490DF"/>
</g>
</g>
</g>
</g>
</g>
<text id="VNet" fill="#706E6F" xml:space="preserve" style="white-space: pre" font-family="Oracle Sans" font-size="16" font-weight="600" letter-spacing="0em"><tspan x="769.997" y="62.2157">Database VNet</tspan></text>
<text id="VNet_2" fill="#312D2A" xml:space="preserve" style="white-space: pre" font-family="Oracle Sans" font-size="16" font-weight="300" letter-spacing="0em"><tspan x="769.997" y="78.2157">10.10.0.0/16</tspan></text>
</g>
<g id="Azure Delegated subnet">
<rect x="769.5" y="88.5" width="152" height="319" fill="white"/>
<rect x="769.5" y="88.5" width="152" height="319" stroke="#706E6F" stroke-dasharray="8 4"/>
<text id="Azure subnet" fill="#706E6F" xml:space="preserve" style="white-space: pre" font-family="Oracle Sans" font-size="16" font-weight="600" letter-spacing="0em"><tspan x="777" y="109.816">Delegated Subnet</tspan></text>
<text id="Azure subnet_2" fill="#312D2A" xml:space="preserve" style="white-space: pre" font-family="Oracle Sans" font-size="16" font-weight="300" letter-spacing="0em"><tspan x="777" y="125.816">10.10.0.0/24</tspan></text>
</g>
<path id="Vector 59" d="M878.878 238.592C878.488 238.983 878.488 239.616 878.878 240.006L885.242 246.37C885.633 246.761 886.266 246.761 886.657 246.37C887.047 245.98 887.047 245.347 886.657 244.956L881 239.299L886.657 233.642C887.047 233.252 887.047 232.619 886.657 232.228C886.266 231.838 885.633 231.838 885.242 232.228L878.878 238.592ZM1097.49 240.006C1097.88 239.616 1097.88 238.982 1097.49 238.592L1091.13 232.228C1090.74 231.837 1090.11 231.837 1089.72 232.228C1089.33 232.619 1089.33 233.252 1089.72 233.642L1095.37 239.299L1089.72 244.956C1089.33 245.346 1089.33 245.98 1089.72 246.37C1090.11 246.761 1090.74 246.761 1091.13 246.37L1097.49 240.006ZM879.585 240.299L1096.79 240.299L1096.79 238.299L879.585 238.299L879.585 240.299Z" fill="#312D2A"/>
<path id="Vector 60" d="M705.79 358.992C705.399 359.383 705.399 360.016 705.79 360.406L712.154 366.77C712.544 367.161 713.178 367.161 713.568 366.77C713.959 366.38 713.959 365.747 713.568 365.356L707.911 359.699L713.568 354.042C713.959 353.652 713.959 353.019 713.568 352.628C713.178 352.238 712.544 352.238 712.154 352.628L705.79 358.992ZM1120.4 359.699L1120.4 360.699L1121.4 360.699L1121.4 359.699L1120.4 359.699ZM706.497 360.699L1120.4 360.699L1120.4 358.699L706.497 358.699L706.497 360.699ZM1121.4 359.699L1121.4 337L1119.4 337L1119.4 359.699L1121.4 359.699Z" fill="#312D2A"/>
<g id="VNIC">
<g id="nic-dbfw-traffic-proxy">
<g id="Group_4">
<g id="Group_5">
<g id="Group_6">
<path id="Vector_19" d="M865.982 268.485V262.929H865.823V268.485H862.277V262.929H862.119V268.485H858.573V262.929H858.415V268.485H854.87V262.929H854.712V268.485H851.166V262.929H838.573V266.369H834.87V268.485H821.272V213.458H816.51V209.914H834.87V212.029H875.082V262.929H869.526V268.485H865.982Z" fill="white"/>
<path id="Vector_20" d="M834.156 210.628V212.744H874.367V262.215H868.812V267.771H866.696V262.215H865.109V267.771H862.993V262.215H861.406V267.771H859.289V262.215H857.702V267.771H855.584V262.215H853.997V267.771H851.882V262.215H837.86V265.654H834.156V267.771H821.986V212.744H817.224V210.628H834.156ZM835.584 209.199H834.156H817.224H815.796V210.628V212.744V214.172H817.224H820.557V267.771V269.199H821.986H834.154H835.583V267.771V267.084H837.859H839.287V265.655V263.645H850.452V267.771V269.199H851.88H853.996H855.424H855.583H857.7H859.129H859.287H861.404H862.833H862.992H865.107H866.536H866.694H868.81H870.239V267.771V263.644H874.367H875.796V262.215V212.744V211.315H874.367H835.584V210.628V209.199Z" fill="white"/>
</g>
<g id="Group_7">
<path id="Vector_21" d="M830.452 224.914H825.69V229.675H830.452V224.914Z" fill="#2D5967"/>
<path id="Vector_22" d="M828.865 255.601H830.452V251.369H828.865V250.311H825.69V251.369V255.601V256.659H828.865V255.601Z" fill="#2D5967"/>
<path id="Vector_23" d="M874.367 212.744H834.156V210.628H817.225V212.744H821.986V267.771H834.156V265.655H837.86V262.217H851.882V267.771H853.997V262.215H855.585V267.771H857.7V262.215H859.287V267.771H861.403V262.215H862.99V267.771H865.106V262.215H866.693V267.771H868.809V262.215H874.367V212.744ZM832.039 265.655H824.103V212.744H832.04V265.655H832.039ZM872.252 260.099H835.743V263.538H834.156V214.861H872.252V260.099Z" fill="#2D5967"/>
<path id="Vector_24" d="M850.029 246.342H855.585V255.867H870.399V247.929H866.511C866.073 246.698 864.901 245.814 863.521 245.814C861.771 245.814 860.346 247.238 860.346 248.988C860.346 250.738 861.771 252.162 863.521 252.162C864.899 252.162 866.073 251.277 866.511 250.047H868.283V253.751H857.702V244.227H850.031V242.111H847.915V233.909H853.206V220.945H857.042V235.495H861.142V237.347H870.401V231.528H861.142V233.379H859.158V228.088H861.142V229.939H870.401V224.119H861.142V225.971H859.158V220.945H861.142V222.797H870.401V216.977H861.142V218.828H853.205V216.977H836.272V233.908H838.388V242.109H836.272V255.867H850.029V246.342ZM863.256 233.644H868.283V235.231H863.256V233.644ZM863.256 226.237H868.283V227.824H863.256V226.237ZM863.256 219.094H868.283V220.681H863.256V219.094ZM845.796 242.109H844.209V233.908H845.796V242.109ZM838.389 219.094H851.088V231.792H838.389V219.094ZM840.505 233.908H842.092V242.109H840.505V233.908ZM847.912 253.749H838.388V244.225H847.912V253.749Z" fill="#2D5967"/>
</g>
</g>
</g>
</g>
<g id="Icon Text Label_3">
<text id="IconLabel_7" fill="black" xml:space="preserve" style="white-space: pre" font-family="Oracle Sans" font-size="16" letter-spacing="0em"><tspan x="827.64" y="287.015">VNIC</tspan></text>
</g>
</g>
<g id="Frame 1238">
<g id="Connector Line Label_4">
<rect width="123" height="14" transform="translate(786 353)" fill="white"/>
<text id="Line Label_4" fill="#312D2A" xml:space="preserve" style="white-space: pre" font-family="Oracle Sans" font-size="14" letter-spacing="0em"><tspan x="790.058" y="365.089">Automatic backup</tspan></text>
</g>
<g id="Connector Line Label_5">
<rect width="47" height="14" transform="translate(824 367)" fill="white"/>
<text id="Line Label_5" fill="#312D2A" xml:space="preserve" style="white-space: pre" font-family="Oracle Sans" font-size="14" letter-spacing="0em"><tspan x="828.353" y="379.089">(local)</tspan></text>
</g>
</g>
<g id="VNIC_2">
<g id="OCI-Autonomous-Recovery-Service">
<g id="Group_8">
<path id="Vector_25" d="M1470.32 220.618L1471.33 219.603L1470.32 218.589L1466.59 213.959L1465.99 213.002C1464.07 209.93 1460.64 208.029 1457.03 208.029C1456.29 208.029 1455.57 208.129 1454.87 208.286L1453.6 207.558C1451.81 206.543 1449.78 206 1447.71 206C1444.42 206 1441.24 207.386 1439 209.801C1438.66 210.172 1438.16 210.387 1437.61 210.387C1437.54 210.387 1437.47 210.387 1437.4 210.387C1437.1 210.358 1436.78 210.344 1436.48 210.344C1435.14 210.344 1433.76 210.63 1432.53 211.173C1429.59 212.459 1427.47 215.116 1426.84 218.26C1426.73 218.874 1426.33 219.389 1425.76 219.689C1421.87 221.732 1419.35 225.548 1419.02 229.92L1418.95 230.977L1418.83 232.506H1430.52V259.113H1433.96V262.556H1437.41V266H1459.51V232.492H1467.12L1467.52 231.735L1467.8 231.22C1469.3 228.434 1469.63 225.176 1468.76 222.147L1468.92 221.99L1470.32 220.589V220.618Z" fill="white"/>
<path id="Vector_26" d="M1431.95 218.76V257.684H1433.92V220.732H1445.82L1443.85 218.76H1431.95Z" fill="#2D5967"/>
<path id="Vector_27" d="M1465.07 229.105H1459.56V231.077H1466.27L1466.56 230.563C1468.06 227.791 1468.19 224.619 1467.17 221.832C1466.84 222.818 1466.39 223.733 1465.8 224.561C1465.97 226.076 1465.74 227.648 1465.07 229.105Z" fill="#2D5967"/>
<path id="Vector_28" d="M1447.69 207.429C1444.79 207.429 1442 208.644 1440.04 210.773C1439.34 211.53 1438.33 211.902 1437.25 211.802C1435.84 211.673 1434.39 211.902 1433.09 212.473C1430.58 213.573 1428.76 215.845 1428.23 218.532C1428.03 219.561 1427.36 220.446 1426.41 220.947C1422.97 222.761 1420.74 226.148 1420.45 230.02L1420.38 231.078H1430.48V229.106H1422.55C1423.08 226.362 1424.81 224.019 1427.33 222.69C1428.82 221.904 1429.85 220.532 1430.16 218.903C1430.56 216.846 1431.95 215.102 1433.88 214.259C1434.88 213.816 1435.98 213.645 1437.05 213.745C1438.74 213.902 1440.36 213.302 1441.47 212.087C1443.07 210.358 1445.33 209.372 1447.68 209.372C1448.77 209.372 1449.82 209.587 1450.8 209.958C1451.44 209.487 1452.13 209.087 1452.86 208.772C1451.31 207.886 1449.54 207.401 1447.68 207.401L1447.69 207.429Z" fill="#2D5967"/>
<path id="Vector_29" d="M1435.41 222.204V261.127H1437.38V224.176H1448.15C1447.77 223.561 1447.42 222.904 1447.16 222.204H1435.41Z" fill="#2D5967"/>
<path id="Vector_30" d="M1456.12 229.063V262.614H1440.83V227.634H1451.71C1450.81 227.105 1450 226.433 1449.28 225.662H1438.86V264.585H1458.09V229.063C1457.76 229.091 1457.43 229.106 1457.1 229.106C1456.78 229.106 1456.45 229.091 1456.12 229.063Z" fill="#2D5967"/>
<path id="Vector_31" d="M1451.38 253.44C1451.7 252.854 1451.86 252.211 1451.84 251.554C1451.84 250.425 1451.51 249.568 1450.87 248.982C1450.23 248.396 1449.31 248.082 1447.98 248.082H1444.78V259.413H1446.99V254.983L1447.78 255.083L1449.71 259.427H1452.17L1449.87 254.626C1450.5 254.426 1451.03 254.012 1451.38 253.454V253.44ZM1447.98 253.497H1446.99V249.796H1447.98C1449.1 249.796 1449.55 250.497 1449.55 251.668C1449.55 252.84 1449.1 253.483 1447.98 253.483V253.497Z" fill="#2D5967"/>
<path id="Vector_32" d="M1454.63 229.105H1442.3V231.077H1454.63V229.105Z" fill="#2D5967"/>
<path id="Vector_33" d="M1443.79 237.978H1453.16V236.249H1454.63V234.278H1453.16V232.549H1443.79V234.278H1442.32V236.249H1443.79V237.978ZM1445.76 234.535H1451.18V236.007H1445.76V234.535Z" fill="#2D5967"/>
<path id="Vector_34" d="M1444.28 239.451H1442.3V241.422H1444.28V239.451Z" fill="#2D5967"/>
<path id="Vector_35" d="M1447.74 239.451H1445.76V241.422H1447.74V239.451Z" fill="#2D5967"/>
<path id="Vector_36" d="M1451.18 239.451H1449.21V241.422H1451.18V239.451Z" fill="#2D5967"/>
<path id="Vector_37" d="M1454.64 239.451H1452.67V241.422H1454.64V239.451Z" fill="#2D5967"/>
<path id="Vector_38" d="M1444.28 242.909H1442.3V244.88H1444.28V242.909Z" fill="#2D5967"/>
<path id="Vector_39" d="M1447.74 242.909H1445.76V244.88H1447.74V242.909Z" fill="#2D5967"/>
<path id="Vector_40" d="M1451.18 242.909H1449.21V244.88H1451.18V242.909Z" fill="#2D5967"/>
<path id="Vector_41" d="M1454.64 242.909H1452.67V244.88H1454.64V242.909Z" fill="#2D5967"/>
<path id="Vector_42" d="M1448.88 221.689L1453.03 217.546L1451.63 216.145L1449.9 217.874C1450.24 214.259 1453.3 211.416 1457.02 211.416C1459.71 211.416 1462.1 212.916 1463.33 215.188L1464.77 213.745C1463.14 211.144 1460.25 209.444 1457.02 209.444C1452.2 209.444 1448.25 213.202 1447.92 217.931L1446.14 216.145L1444.73 217.546L1448.88 221.689Z" fill="#2D5967"/>
<path id="Vector_43" d="M1457.98 222.304C1458.16 222.49 1458.42 222.59 1458.68 222.59C1458.93 222.59 1459.18 222.49 1459.38 222.304C1459.76 221.918 1459.76 221.289 1459.38 220.903L1457.6 219.132L1457.63 215.316C1457.63 214.773 1457.2 214.33 1456.65 214.33C1456.1 214.33 1455.66 214.773 1455.66 215.316L1455.63 219.546C1455.63 219.803 1455.73 220.06 1455.92 220.246L1457.98 222.304Z" fill="#2D5967"/>
<path id="Vector_44" d="M1465.16 215.46L1461.01 219.603L1462.41 221.004L1464.14 219.275C1463.8 222.89 1460.74 225.733 1457.02 225.733C1454.33 225.733 1451.94 224.233 1450.71 221.961L1449.27 223.404C1450.9 226.005 1453.79 227.705 1457.02 227.705C1461.84 227.705 1465.79 223.947 1466.11 219.218L1467.9 221.004L1469.3 219.603L1465.16 215.46Z" fill="#2D5967"/>
</g>
</g>
<g id="Icon Text Label_4">
<text id="IconLabel_8" fill="black" xml:space="preserve" style="white-space: pre" font-family="Oracle Sans" font-size="16" letter-spacing="0em"><tspan x="1386.22" y="283.816">Oracle Database</tspan></text>
<text id="IconLabel_9" fill="black" xml:space="preserve" style="white-space: pre" font-family="Oracle Sans" font-size="16" letter-spacing="0em"><tspan x="1397.95" y="299.816">Autonomous</tspan></text>
<text id="IconLabel_10" fill="black" xml:space="preserve" style="white-space: pre" font-family="Oracle Sans" font-size="16" letter-spacing="0em"><tspan x="1411.87" y="315.816">Recovery</tspan></text>
<text id="IconLabel_11" fill="black" xml:space="preserve" style="white-space: pre" font-family="Oracle Sans" font-size="16" letter-spacing="0em"><tspan x="1418.79" y="331.816">Service</tspan></text>
</g>
</g>
</g>
<g id="On-Premises">
<rect x="0.5" y="0.5" width="255" height="423" rx="3.5" fill="#F5F4F2"/>
<rect x="0.5" y="0.5" width="255" height="423" rx="3.5" stroke="#9E9892"/>
<text id="OCI Region_2" fill="#312D2A" xml:space="preserve" style="white-space: pre" font-family="Oracle Sans" font-size="16" font-weight="bold" letter-spacing="0em"><tspan x="8" y="21.816">On-premises</tspan></text>
</g>
<g id="On-premises Network">
<rect x="9" y="41.3997" width="238" height="374" stroke="#9E9892" stroke-width="2" stroke-dasharray="8 4"/>
<text id="On-premises network" fill="#312D2A" xml:space="preserve" style="white-space: pre" font-family="Oracle Sans" font-size="16" font-weight="600" letter-spacing="0em"><tspan x="16" y="62.2157">On-premises network</tspan></text>
<text id="192.168.0.0/16" fill="#312D2A" xml:space="preserve" style="white-space: pre" font-family="Oracle Sans" font-size="16" font-weight="300" letter-spacing="0em"><tspan x="16" y="80.2157">192.168.0.0/16</tspan></text>
</g>
<g id="gateway subnet">
<rect x="16.5" y="88.4874" width="223" height="104" stroke="#AE562C" stroke-dasharray="8 4"/>
<text id="Subnet_3" fill="#AE562C" xml:space="preserve" style="white-space: pre" font-family="Oracle Sans" font-size="16" font-weight="600" letter-spacing="0em"><tspan x="24" y="109.803">Gateway </tspan></text>
<text id="Subnet_4" fill="#AE562C" xml:space="preserve" style="white-space: pre" font-family="Oracle Sans" font-size="16" font-weight="600" letter-spacing="0em"><tspan x="24" y="125.803">subnet</tspan></text>
<text id="00.0.00.0/00_4" fill="#312D2A" xml:space="preserve" style="white-space: pre" font-family="Oracle Sans" font-size="16" font-weight="300" letter-spacing="0em"><tspan x="24" y="141.803">192.168.0.0/24</tspan></text>
</g>
<g id="Database subnet">
<rect x="16.5" y="200.488" width="223" height="95" stroke="#AE562C" stroke-dasharray="8 4"/>
<text id="Subnet_5" fill="#AE562C" xml:space="preserve" style="white-space: pre" font-family="Oracle Sans" font-size="16" font-weight="600" letter-spacing="0em"><tspan x="24" y="221.804">Database</tspan></text>
<text id="Subnet_6" fill="#AE562C" xml:space="preserve" style="white-space: pre" font-family="Oracle Sans" font-size="16" font-weight="600" letter-spacing="0em"><tspan x="24" y="237.804">subnet</tspan></text>
<text id="00.0.00.0/00_5" fill="#312D2A" xml:space="preserve" style="white-space: pre" font-family="Oracle Sans" font-size="16" font-weight="300" letter-spacing="0em"><tspan x="24" y="253.804">192.168.2.0/24</tspan></text>
</g>
<g id="gateway subnet_2">
<rect x="16.5" y="304.488" width="223" height="103" stroke="#AE562C" stroke-dasharray="8 4"/>
<text id="Subnet_7" fill="#AE562C" xml:space="preserve" style="white-space: pre" font-family="Oracle Sans" font-size="16" font-weight="600" letter-spacing="0em"><tspan x="24" y="325.804">Application</tspan></text>
<text id="Subnet_8" fill="#AE562C" xml:space="preserve" style="white-space: pre" font-family="Oracle Sans" font-size="16" font-weight="600" letter-spacing="0em"><tspan x="24" y="341.804">subnet</tspan></text>
<text id="00.0.00.0/00_6" fill="#312D2A" xml:space="preserve" style="white-space: pre" font-family="Oracle Sans" font-size="16" font-weight="300" letter-spacing="0em"><tspan x="24" y="357.804">192.168.1.0/24</tspan></text>
</g>
<g id="Virtual Network Gateway">
<g id="Virtual-Cloud-Network-VCN_red_2">
<g id="Group 39_2">
<path id="Vector_45" d="M178.222 151.365C176.339 151.364 174.514 150.715 173.053 149.527C171.592 148.339 170.583 146.684 170.197 144.84H160.491C160.21 146.181 159.598 147.431 158.711 148.474C157.823 149.518 156.689 150.323 155.411 150.815C154.132 151.308 152.752 151.472 151.394 151.293C150.036 151.115 148.744 150.599 147.637 149.792C146.53 148.986 145.642 147.915 145.054 146.677C144.466 145.44 144.198 144.074 144.273 142.706C144.348 141.338 144.765 140.01 145.484 138.844C146.204 137.678 147.204 136.711 148.392 136.031L145.399 126.811C145.103 126.832 144.806 126.832 144.51 126.811C143.179 126.814 141.866 126.493 140.687 125.875C139.507 125.257 138.496 124.361 137.74 123.265C136.984 122.168 136.506 120.904 136.347 119.581C136.189 118.258 136.355 116.917 136.83 115.672C137.306 114.428 138.077 113.318 139.077 112.439C140.077 111.56 141.276 110.937 142.571 110.625C143.865 110.313 145.216 110.321 146.506 110.648C147.797 110.975 148.989 111.612 149.978 112.503L157.866 106.909C157.39 105.851 157.143 104.704 157.142 103.544C157.142 101.367 158.006 99.2792 159.544 97.7401C161.082 96.2009 163.169 95.3362 165.344 95.3362C167.52 95.3362 169.606 96.2009 171.144 97.7401C172.683 99.2792 173.547 101.367 173.547 103.544C173.55 104.703 173.308 105.85 172.836 106.909L180.738 112.558C182.23 111.188 184.181 110.427 186.206 110.424C188.381 110.424 190.468 111.289 192.006 112.828C193.544 114.367 194.408 116.455 194.408 118.631C194.408 120.808 193.544 122.896 192.006 124.435C190.468 125.974 188.381 126.839 186.206 126.839C185.919 126.839 185.618 126.839 185.331 126.839L182.323 136.058C183.897 136.957 185.128 138.352 185.825 140.025C186.523 141.699 186.647 143.556 186.179 145.307C185.71 147.058 184.676 148.605 183.236 149.706C181.797 150.807 180.034 151.4 178.222 151.392V151.365Z" fill="white"/>
<path id="Vector_46" d="M165.358 95.9653C166.659 95.9683 167.938 96.3087 169.069 96.9533C170.2 97.5979 171.145 98.5247 171.811 99.6433C172.477 100.762 172.843 102.034 172.871 103.336C172.9 104.638 172.591 105.926 171.975 107.073L180.738 113.447C181.596 112.548 182.663 111.876 183.845 111.491C185.026 111.106 186.284 111.02 187.507 111.241C188.729 111.461 189.878 111.981 190.851 112.755C191.824 113.528 192.59 114.53 193.08 115.672C193.571 116.814 193.772 118.06 193.664 119.298C193.556 120.537 193.143 121.729 192.462 122.769C191.781 123.808 190.853 124.663 189.762 125.256C188.67 125.85 187.448 126.163 186.206 126.168C185.748 126.175 185.29 126.138 184.839 126.059L181.489 136.386C182.661 136.952 183.666 137.812 184.406 138.882C185.146 139.952 185.596 141.196 185.712 142.493C185.828 143.789 185.606 145.093 185.067 146.278C184.528 147.462 183.692 148.487 182.639 149.251C181.587 150.016 180.354 150.494 179.061 150.639C177.769 150.784 176.46 150.591 175.265 150.079C174.069 149.567 173.026 148.754 172.239 147.718C171.451 146.682 170.946 145.459 170.772 144.17H159.917C159.742 145.46 159.235 146.682 158.446 147.717C157.657 148.752 156.613 149.565 155.416 150.075C154.22 150.586 152.911 150.777 151.618 150.63C150.326 150.484 149.093 150.004 148.042 149.238C146.99 148.471 146.155 147.445 145.618 146.26C145.081 145.074 144.861 143.769 144.979 142.473C145.097 141.176 145.549 139.933 146.291 138.863C147.033 137.794 148.04 136.936 149.213 136.373L145.863 126.059C145.413 126.143 144.955 126.184 144.496 126.182C143.25 126.18 142.024 125.868 140.928 125.275C139.832 124.683 138.9 123.827 138.216 122.785C137.531 121.744 137.116 120.548 137.007 119.307C136.897 118.065 137.097 116.815 137.589 115.67C138.081 114.524 138.849 113.519 139.825 112.743C140.8 111.968 141.953 111.447 143.179 111.226C144.406 111.006 145.667 111.094 146.852 111.481C148.036 111.869 149.105 112.544 149.965 113.447L158.728 107.073C158.111 105.925 157.802 104.636 157.831 103.333C157.86 102.03 158.227 100.757 158.895 99.6375C159.563 98.5184 160.509 97.5918 161.642 96.9482C162.775 96.3046 164.055 95.9659 165.358 95.9653ZM165.358 94.5974C163 94.5974 160.738 95.5337 159.07 97.2008C157.401 98.8678 156.462 101.129 156.458 103.489C156.457 104.559 156.652 105.621 157.032 106.621L150.047 111.682C148.935 110.795 147.627 110.188 146.233 109.911C144.838 109.633 143.397 109.695 142.031 110.089C140.665 110.483 139.413 111.199 138.381 112.177C137.348 113.155 136.565 114.366 136.096 115.71C135.627 117.053 135.487 118.489 135.687 119.897C135.887 121.306 136.421 122.646 137.245 123.805C138.069 124.965 139.159 125.91 140.423 126.561C141.687 127.213 143.088 127.552 144.51 127.55H144.906L147.641 135.757C146.444 136.55 145.457 137.62 144.764 138.877C144.071 140.135 143.692 141.541 143.661 142.977C143.629 144.412 143.945 145.834 144.583 147.12C145.22 148.407 146.159 149.52 147.32 150.364C148.48 151.208 149.828 151.759 151.248 151.968C152.667 152.178 154.117 152.04 155.471 151.567C156.826 151.094 158.047 150.3 159.028 149.252C160.009 148.205 160.722 146.935 161.106 145.551H169.719C170.1 146.94 170.812 148.215 171.794 149.268C172.775 150.32 173.997 151.119 175.355 151.596C176.713 152.072 178.166 152.212 179.59 152.003C181.014 151.795 182.366 151.244 183.53 150.398C184.694 149.552 185.636 148.436 186.275 147.146C186.914 145.856 187.231 144.43 187.198 142.991C187.165 141.551 186.785 140.141 186.088 138.881C185.391 137.622 184.4 136.55 183.198 135.757L185.932 127.55H186.206C187.414 127.617 188.624 127.437 189.76 127.02C190.896 126.604 191.936 125.96 192.815 125.127C193.694 124.295 194.395 123.292 194.873 122.18C195.352 121.068 195.599 119.87 195.599 118.659C195.599 117.448 195.352 116.249 194.873 115.137C194.395 114.025 193.694 113.022 192.815 112.19C191.936 111.358 190.896 110.713 189.76 110.297C188.624 109.88 187.414 109.7 186.206 109.767C184.193 109.762 182.239 110.448 180.669 111.71L173.697 106.649C174.067 105.646 174.257 104.585 174.258 103.516C174.259 102.345 174.031 101.186 173.584 100.104C173.138 99.0221 172.482 98.0388 171.656 97.2104C170.829 96.3821 169.848 95.7249 168.767 95.2766C167.686 94.8282 166.528 94.5974 165.358 94.5974V94.5974Z" fill="white"/>
<path id="Vector_47" d="M186.207 111.106C185.184 111.104 184.172 111.31 183.231 111.712C182.291 112.114 181.443 112.704 180.738 113.445L171.975 107.071C172.597 105.923 172.909 104.633 172.883 103.328C172.856 102.022 172.491 100.746 171.823 99.6245C171.156 98.5028 170.208 97.5739 169.074 96.9287C167.939 96.2836 166.657 95.9445 165.352 95.9445C164.047 95.9445 162.764 96.2836 161.63 96.9287C160.496 97.5739 159.548 98.5028 158.88 99.6245C158.212 100.746 157.847 102.022 157.821 103.328C157.794 104.633 158.107 105.923 158.728 107.071L149.952 113.445C149.092 112.55 148.024 111.881 146.844 111.499C145.663 111.117 144.406 111.033 143.185 111.255C141.964 111.477 140.817 111.998 139.846 112.771C138.875 113.545 138.111 114.546 137.621 115.687C137.131 116.828 136.931 118.073 137.039 119.31C137.146 120.547 137.558 121.738 138.238 122.777C138.917 123.816 139.843 124.67 140.933 125.264C142.023 125.858 143.242 126.173 144.483 126.18C144.942 126.182 145.4 126.141 145.85 126.057L149.2 136.358C148.027 136.921 147.02 137.779 146.278 138.848C145.536 139.917 145.084 141.161 144.966 142.457C144.848 143.754 145.068 145.059 145.605 146.244C146.142 147.43 146.977 148.456 148.029 149.222C149.08 149.988 150.313 150.468 151.606 150.615C152.898 150.762 154.207 150.571 155.403 150.06C156.6 149.55 157.644 148.737 158.433 147.702C159.222 146.667 159.729 145.444 159.904 144.155H170.759C170.933 145.444 171.438 146.667 172.226 147.703C173.013 148.738 174.056 149.552 175.252 150.064C176.447 150.576 177.756 150.769 179.048 150.624C180.341 150.479 181.574 150.001 182.626 149.236C183.679 148.472 184.515 147.447 185.054 146.263C185.593 145.078 185.815 143.774 185.699 142.477C185.583 141.181 185.133 139.937 184.393 138.867C183.653 137.797 182.648 136.937 181.476 136.371L184.839 126.057C185.29 126.141 185.748 126.182 186.207 126.18C187.232 126.242 188.259 126.094 189.225 125.744C190.191 125.394 191.076 124.849 191.824 124.145C192.572 123.44 193.168 122.59 193.575 121.646C193.983 120.702 194.193 119.685 194.193 118.657C194.193 117.629 193.983 116.612 193.575 115.668C193.168 114.724 192.572 113.874 191.824 113.169C191.076 112.465 190.191 111.921 189.225 111.571C188.259 111.22 187.232 111.072 186.207 111.134V111.106ZM178.223 148.669C177.141 148.669 176.084 148.348 175.185 147.746C174.286 147.145 173.585 146.291 173.171 145.291C172.757 144.291 172.649 143.191 172.86 142.13C173.071 141.068 173.591 140.093 174.356 139.328C175.121 138.563 176.095 138.042 177.156 137.831C178.217 137.619 179.316 137.728 180.315 138.142C181.315 138.556 182.169 139.257 182.77 140.157C183.37 141.057 183.691 142.115 183.691 143.197C183.691 144.648 183.115 146.04 182.09 147.066C181.064 148.092 179.673 148.669 178.223 148.669ZM159.918 142.144C159.693 140.445 158.892 138.876 157.648 137.698L161.75 131.967C162.848 132.55 164.074 132.855 165.318 132.856C166.558 132.86 167.78 132.554 168.872 131.967L172.973 137.698C171.725 138.874 170.919 140.444 170.69 142.144H159.918ZM146.944 143.156C146.944 142.074 147.265 141.016 147.866 140.116C148.467 139.216 149.321 138.515 150.32 138.101C151.319 137.687 152.418 137.578 153.479 137.79C154.54 138.001 155.514 138.522 156.279 139.287C157.044 140.052 157.565 141.027 157.776 142.089C157.987 143.15 157.878 144.25 157.464 145.25C157.051 146.25 156.35 147.104 155.45 147.705C154.551 148.307 153.494 148.628 152.412 148.628C150.962 148.628 149.571 148.051 148.546 147.025C147.52 145.999 146.944 144.607 146.944 143.156ZM144.511 113.131C145.592 113.131 146.649 113.452 147.549 114.053C148.448 114.654 149.149 115.509 149.563 116.508C149.977 117.508 150.085 118.608 149.874 119.67C149.663 120.731 149.142 121.706 148.377 122.471C147.613 123.237 146.638 123.758 145.578 123.969C144.517 124.18 143.417 124.072 142.418 123.657C141.419 123.243 140.565 122.542 139.964 121.642C139.363 120.742 139.042 119.685 139.042 118.602C139.042 117.151 139.619 115.759 140.644 114.733C141.67 113.707 143.06 113.131 144.511 113.131ZM159.836 103.556C159.836 102.473 160.156 101.416 160.757 100.516C161.358 99.6159 162.212 98.9146 163.211 98.5005C164.211 98.0864 165.31 97.978 166.371 98.1892C167.432 98.4003 168.406 98.9214 169.171 99.6866C169.935 100.452 170.456 101.427 170.667 102.488C170.878 103.55 170.77 104.65 170.356 105.649C169.942 106.649 169.241 107.504 168.342 108.105C167.443 108.706 166.385 109.027 165.304 109.027C164.58 109.027 163.863 108.883 163.195 108.604C162.527 108.325 161.922 107.916 161.413 107.4C160.904 106.885 160.503 106.274 160.232 105.602C159.961 104.93 159.827 104.211 159.836 103.487V103.556ZM178.783 119.97L172.153 122.09C171.613 120.959 170.801 119.979 169.789 119.239C168.777 118.499 167.598 118.022 166.357 117.85V111.011C168.05 110.785 169.614 109.983 170.786 108.74L179.576 115.114C178.981 116.21 178.671 117.438 178.674 118.684C178.677 119.111 178.714 119.536 178.783 119.957V119.97ZM170.868 125.346C170.868 126.428 170.547 127.486 169.946 128.386C169.346 129.286 168.491 129.987 167.492 130.401C166.493 130.815 165.394 130.924 164.333 130.712C163.272 130.501 162.298 129.98 161.533 129.215C160.768 128.45 160.247 127.475 160.036 126.413C159.825 125.352 159.934 124.252 160.348 123.252C160.761 122.252 161.462 121.398 162.362 120.797C163.261 120.195 164.318 119.874 165.4 119.874C166.848 119.874 168.236 120.449 169.262 121.472C170.287 122.495 170.864 123.884 170.868 125.332V125.346ZM164.333 111.011V117.85C163.095 118.019 161.917 118.494 160.908 119.232C159.898 119.97 159.088 120.947 158.551 122.077L151.907 119.957C151.992 119.506 152.033 119.048 152.03 118.589C152.018 117.376 151.713 116.184 151.141 115.114L159.918 108.726C161.084 109.972 162.643 110.778 164.333 111.011ZM151.291 121.954L157.935 124.074C157.851 124.525 157.809 124.983 157.812 125.442C157.807 126.467 158.014 127.481 158.418 128.423C158.823 129.364 159.417 130.212 160.164 130.913L156.063 136.658C154.972 136.065 153.75 135.754 152.508 135.756C152.05 135.753 151.592 135.794 151.141 135.879L147.778 125.428C149.312 124.701 150.555 123.477 151.305 121.954H151.291ZM178.223 135.633C176.983 135.635 175.763 135.94 174.668 136.522L170.567 130.804C171.311 130.101 171.904 129.252 172.308 128.311C172.713 127.37 172.92 126.357 172.919 125.332C172.922 124.873 172.881 124.415 172.796 123.964L179.371 121.872C180.116 123.419 181.358 124.671 182.898 125.428L179.549 135.742C179.111 135.665 178.667 135.629 178.223 135.633ZM180.738 118.643C180.738 117.561 181.059 116.503 181.66 115.604C182.261 114.704 183.115 114.002 184.114 113.588C185.113 113.174 186.213 113.066 187.273 113.277C188.334 113.488 189.308 114.009 190.073 114.774C190.838 115.54 191.359 116.515 191.57 117.576C191.781 118.637 191.673 119.737 191.259 120.737C190.845 121.737 190.144 122.592 189.245 123.193C188.345 123.794 187.288 124.115 186.207 124.115C184.756 124.115 183.365 123.538 182.34 122.512C181.314 121.486 180.738 120.095 180.738 118.643Z" fill="#2D5967"/>
</g>
</g>
<g id="Icon Text Label_5">
<text id="IconLabel_12" fill="black" xml:space="preserve" style="white-space: pre" font-family="Oracle Sans" font-size="16" letter-spacing="0em"><tspan x="109.958" y="169.916">Virtual network</tspan></text>
<text id="IconLabel_13" fill="black" xml:space="preserve" style="white-space: pre" font-family="Oracle Sans" font-size="16" letter-spacing="0em"><tspan x="135.685" y="185.916">gateway</tspan></text>
</g>
</g>
<g id="ZDM Service Host">
<g id="Oracle-Zero-Downtime-Migration">
<g id="Group_9">
<g id="Group_10">
<g id="Group_11">
<path id="Vector_48" d="M148.328 356.928V353.928C148.328 348.642 152.61 344.214 157.748 344.071L155.892 342.071L158.318 339.642L163.885 345.357V345.928L163.742 346.214L158.318 351.642L155.892 349.214L157.748 347.357C154.322 347.642 151.611 350.499 151.611 353.928V356.928H148.328Z" fill="white"/>
<path id="Vector_49" d="M158.176 340.642L163.028 345.642L158.176 350.642L156.749 349.214L159.318 346.642H158.033C154.037 346.642 150.755 349.928 150.755 353.928V356.214H149.042V353.928C149.042 348.785 153.181 344.785 158.176 344.785H159.46L156.892 342.214L158.176 340.642ZM158.176 338.642L157.177 339.642L155.75 341.071L154.751 342.071L155.75 343.071L156.178 343.499C151.325 344.356 147.615 348.642 147.615 353.928V356.214V357.642H149.042H151.04H152.467V356.214V353.928C152.467 351.785 153.609 349.928 155.322 348.928L155.036 349.214L156.035 350.214L157.462 351.642L158.461 352.642L159.46 351.642L164.313 346.642L164.741 346.214V345.642V345.071L164.313 344.642L159.46 339.642L158.176 338.642Z" fill="white"/>
</g>
<g id="Group_12">
<path id="Vector_50" d="M174.732 353.071C171.592 353.071 164.456 352.643 164.456 349.357V339.214H157.605L157.748 337.357C157.891 334.5 159.604 332.071 162.172 330.785C162.458 330.643 162.601 330.357 162.743 329.928C163.029 328.071 164.456 326.357 166.311 325.5C167.168 325.071 168.024 324.928 168.88 324.928C169.166 324.928 169.308 324.928 169.594 324.928C169.879 324.928 170.165 324.785 170.308 324.643C171.735 323.071 173.733 322.214 175.874 322.214C178.728 322.214 181.44 323.785 182.724 326.5C182.867 326.785 183.152 327.071 183.58 327.071C184.437 327.214 185.293 327.643 186.007 328.071C189.432 330.214 190.716 334.785 188.718 338.357L188.29 339.214H185.008V349.357C185.008 352.785 177.872 353.071 174.732 353.071Z" fill="white"/>
<path id="Vector_51" d="M175.873 322.928C178.585 322.928 180.869 324.357 182.01 326.785C182.296 327.357 182.724 327.642 183.295 327.785C184.151 327.928 184.865 328.214 185.578 328.642C188.718 330.642 189.86 334.785 188.005 338.071L187.862 338.642H186.435H185.721H184.294V339.071V339.214V344.214V344.357V349.357C184.294 352.214 176.302 352.357 174.732 352.357C173.162 352.357 165.169 352.214 165.169 349.357V344.357V344.214V339.214V339.071V338.642H158.462L158.604 337.642C158.604 334.928 160.174 332.642 162.458 331.5C162.886 331.214 163.314 330.785 163.457 330.214C163.885 328.357 165.027 326.928 166.739 326.214C167.453 325.928 168.167 325.785 169.023 325.785C169.166 325.785 169.451 325.785 169.594 325.785H169.737C170.165 325.785 170.593 325.642 171.021 325.214C172.163 323.785 174.018 322.928 175.873 322.928ZM175.873 321.5C173.59 321.5 171.306 322.5 169.737 324.214C169.594 324.357 169.594 324.357 169.594 324.357C169.308 324.357 169.023 324.357 168.88 324.357C167.881 324.357 166.882 324.5 166.026 324.928C163.885 325.785 162.458 327.785 161.887 329.928C161.887 330.071 161.744 330.214 161.744 330.214C159.033 331.642 157.177 334.357 157.034 337.357L156.892 338.357L156.749 340.071H158.319H163.6V344.214V344.357V349.357C163.6 353.071 169.594 353.785 174.589 353.785C179.584 353.785 185.578 353.071 185.578 349.357V344.357V344.214V340.071H186.292H187.719H188.718L189.146 339.357L189.432 338.785C191.573 334.785 190.145 329.928 186.435 327.5C185.578 326.928 184.722 326.642 183.723 326.357C183.58 326.357 183.438 326.214 183.438 326.071C182.01 323.214 179.156 321.5 175.873 321.5Z" fill="white"/>
</g>
<g id="Group_13">
<path id="Vector_52" d="M150.184 380.785V380.071L150.041 380.785C146.759 380.785 139.623 380.357 139.623 377.071V361.785C139.623 358.214 147.472 357.928 149.898 357.928C152.325 357.928 160.174 358.214 160.174 361.785V365.785C160.46 365.785 160.745 365.785 160.888 365.785C165.027 365.785 168.452 369.214 168.452 373.357C168.452 377.5 165.027 380.928 160.888 380.928C159.746 380.928 158.604 380.643 157.463 380.071C154.894 380.785 151.326 380.785 150.184 380.785Z" fill="white"/>
<path id="Vector_53" d="M149.756 358.642C150.755 358.642 159.318 358.785 159.318 361.785V366.499C159.746 366.357 160.317 366.357 160.745 366.357C164.456 366.357 167.595 369.357 167.595 373.214C167.595 376.928 164.598 380.071 160.745 380.071C159.46 380.071 158.319 379.785 157.32 379.214C155.036 380.071 151.325 380.071 150.184 380.071H150.041C149.898 380.071 149.898 380.071 149.756 380.071C148.186 380.071 140.193 379.928 140.193 377.071V372.071V371.928V366.928V366.785V361.928C140.193 358.785 148.899 358.642 149.756 358.642ZM149.756 357.214C145.759 357.214 138.766 357.785 138.766 361.785V366.642V366.785V371.785V371.928V376.928C138.766 380.785 144.76 381.499 149.756 381.499H149.898H150.041H150.184C151.183 381.499 154.751 381.499 157.32 380.642C158.461 381.214 159.603 381.499 160.888 381.499C165.455 381.499 169.165 377.785 169.165 373.214C169.165 368.642 165.455 364.928 160.888 364.928V361.785C160.888 357.785 153.894 357.214 149.756 357.214Z" fill="white"/>
</g>
</g>
<g id="Group_14">
<path id="Vector_54" d="M150.897 353.927C150.897 349.927 154.179 346.642 158.176 346.642H159.46L156.891 349.213L158.318 350.642L163.171 345.642L158.318 340.642L156.891 342.07L159.46 344.642H158.176C153.038 344.642 149.042 348.785 149.042 353.785V356.07H151.04V353.927H150.897Z" fill="#2D5967"/>
<path id="Vector_55" d="M174.731 331.071C173.732 331.071 165.169 331.214 165.169 334.214V339.071V339.214V344.214V344.356V349.356C165.169 352.214 173.161 352.356 174.731 352.356C176.301 352.356 184.293 352.214 184.293 349.356V344.356V344.214V339.214V339.071V334.214C184.293 331.071 175.73 331.071 174.731 331.071ZM182.438 349.214C181.867 349.642 179.298 350.499 174.731 350.499C170.164 350.499 167.595 349.642 167.024 349.214V346.356C169.451 347.356 173.589 347.356 174.731 347.356C175.873 347.356 179.869 347.356 182.438 346.356V349.214ZM182.153 334.214C181.439 334.642 178.87 335.499 174.588 335.499C170.307 335.499 167.881 334.785 167.024 334.214C167.881 333.642 170.592 332.928 174.731 332.928C178.87 332.928 181.439 333.642 182.153 334.214ZM174.731 345.499C170.307 345.499 167.595 344.642 167.024 344.214V341.214C169.451 342.214 173.589 342.214 174.731 342.214C175.873 342.214 179.869 342.214 182.438 341.214V344.214C181.867 344.642 179.155 345.499 174.731 345.499ZM182.438 339.071C181.867 339.499 179.298 340.356 174.731 340.356C170.164 340.356 167.595 339.499 167.024 339.071V336.214C169.593 337.214 174.018 337.356 174.731 337.356C175.445 337.356 179.869 337.356 182.438 336.214V339.071Z" fill="#2D5967"/>
<path id="Vector_56" d="M185.721 328.642C185.007 328.213 184.293 327.928 183.437 327.785C182.866 327.642 182.438 327.356 182.153 326.785C181.011 324.356 178.585 322.928 175.873 322.928C174.018 322.928 172.162 323.785 170.735 325.213C170.307 325.642 169.879 325.785 169.308 325.785C168.309 325.642 167.31 325.785 166.454 326.213C164.741 326.928 163.599 328.499 163.171 330.213C163.028 330.785 162.743 331.356 162.172 331.499C159.888 332.642 158.319 334.928 158.176 337.499L158.319 338.642H163.599V336.642H160.459C160.887 335.213 161.886 333.928 163.171 333.213C164.17 332.642 164.884 331.785 165.169 330.499C165.454 329.356 166.168 328.356 167.31 327.928C167.881 327.642 168.594 327.499 169.165 327.642C170.307 327.785 171.449 327.356 172.162 326.499C173.161 325.499 174.446 324.928 175.873 324.928C177.728 324.928 179.441 325.928 180.297 327.642C180.868 328.642 181.725 329.499 182.866 329.642C183.437 329.785 184.008 329.928 184.436 330.356C186.577 331.642 187.433 334.356 186.434 336.642H185.578V338.642H187.576L187.861 338.071C189.86 334.785 188.861 330.642 185.721 328.642Z" fill="#2D5967"/>
<path id="Vector_57" d="M159.461 361.785C159.461 358.642 150.755 358.642 149.898 358.642C149.042 358.642 140.193 358.785 140.193 361.785V366.642V366.785V371.785V371.928V376.928C140.193 379.785 148.186 379.928 149.756 379.928C150.612 379.928 153.181 379.928 155.464 379.356C154.893 378.928 154.323 378.213 153.894 377.642C152.753 377.785 151.325 377.928 149.756 377.928C145.331 377.928 142.62 377.071 142.049 376.642V373.785C144.475 374.785 148.614 374.785 149.756 374.785C150.326 374.785 151.468 374.785 152.753 374.642C152.61 374.071 152.61 373.499 152.61 372.928C152.61 372.785 152.61 372.785 152.61 372.642C151.754 372.785 150.897 372.785 149.756 372.785C145.331 372.785 142.62 371.928 142.049 371.499V368.499C144.475 369.499 148.614 369.499 149.756 369.499C150.326 369.499 151.754 369.499 153.324 369.356C153.752 368.499 154.18 367.785 154.751 367.213C153.466 367.499 151.754 367.642 149.756 367.642C145.331 367.642 142.62 366.785 142.049 366.356V363.499C144.618 364.499 149.042 364.642 149.756 364.642C150.469 364.642 154.893 364.642 157.462 363.499V365.213C158.033 364.928 158.747 364.785 159.461 364.642V361.785ZM142.334 361.785C143.048 361.356 145.617 360.499 149.898 360.499C154.18 360.499 156.606 361.213 157.462 361.785C156.749 362.213 154.18 363.071 149.898 363.071C145.617 363.071 143.048 362.356 142.334 361.785Z" fill="#2D5967"/>
<path id="Vector_58" d="M160.888 366.356C157.177 366.356 154.037 369.356 154.037 373.213C154.037 377.071 157.034 380.071 160.888 380.071C164.741 380.071 167.738 377.071 167.738 373.213C167.738 369.356 164.741 366.356 160.888 366.356ZM160.888 378.071C158.176 378.071 156.035 375.928 156.035 373.213C156.035 370.499 158.176 368.356 160.888 368.356C163.599 368.356 165.74 370.499 165.74 373.213C165.74 375.928 163.599 378.071 160.888 378.071Z" fill="#2D5967"/>
<path id="Vector_59" d="M161.601 372.928V370.928C161.601 370.357 161.173 369.928 160.602 369.928C160.031 369.928 159.603 370.357 159.603 370.928V373.357C159.603 373.642 159.746 373.785 159.888 374.071L161.173 375.357C161.316 375.5 161.601 375.642 161.887 375.642C162.172 375.642 162.315 375.5 162.6 375.357C163.028 374.928 163.028 374.357 162.6 373.928L161.601 372.928Z" fill="#2D5967"/>
</g>
</g>
</g>
<g id="Icon Text Label_6">
<text id="IconLabel_14" fill="black" xml:space="preserve" style="white-space: pre" font-family="Oracle Sans" font-size="16" letter-spacing="0em"><tspan x="101.669" y="399.316">ZDM service host</tspan></text>
</g>
</g>
<g id="Oracle databse_2">
<g id="Database">
<g id="Group 15">
<path id="Vector_60" d="M166.788 268.485C164.116 268.485 140.645 268.271 140.645 260.628V218C140.645 210.143 164.116 209.914 166.788 209.914C169.459 209.914 192.945 210.143 192.945 218V260.628C192.945 268.271 169.474 268.485 166.788 268.485Z" fill="white"/>
<path id="Vector_61" d="M166.789 210.628C175.646 210.628 192.232 212.171 192.232 217.999V260.628C192.232 266.342 175.589 267.771 166.789 267.771C157.989 267.771 141.361 266.342 141.361 260.628V217.999C141.361 212.171 158.004 210.628 166.789 210.628ZM166.789 209.199C162.304 209.199 139.932 209.628 139.932 217.999V260.628C139.932 268.814 162.304 269.199 166.789 269.199C171.275 269.199 193.661 268.785 193.661 260.628V217.999C193.661 209.628 171.361 209.199 166.789 209.199Z" fill="white"/>
<path id="Vector_62" d="M192.233 218C192.233 212.171 175.647 210.629 166.79 210.629C157.933 210.629 141.361 212.171 141.361 218V260.629C141.361 266.343 158.004 267.771 166.79 267.771C175.576 267.771 192.233 266.343 192.233 260.629V218ZM189.376 246.571C189.376 246.829 188.304 248.114 183.404 249.3C177.944 250.463 172.371 251.009 166.79 250.929C161.188 251.004 155.596 250.448 150.118 249.271C145.218 248.086 144.218 246.8 144.218 246.543V236.057C149.333 238.843 160.29 239.686 166.861 239.686C173.433 239.686 184.404 238.843 189.518 236.057L189.376 246.571ZM189.376 232.543C189.376 232.8 188.304 234.1 183.404 235.271C177.944 236.434 172.371 236.981 166.79 236.9C161.188 236.976 155.596 236.42 150.118 235.243C145.218 234.071 144.218 232.771 144.218 232.514V221.629C149.333 224.486 160.29 225.357 166.861 225.357C173.433 225.357 184.404 224.5 189.518 221.629L189.376 232.543ZM150.133 215.129C155.603 213.94 161.193 213.388 166.79 213.486C172.395 213.411 177.989 213.986 183.461 215.2C188.504 216.343 189.447 217.771 189.447 218C189.447 218.229 188.433 219.629 183.461 220.857C177.989 222.07 172.395 222.645 166.79 222.571C161.191 222.649 155.601 222.079 150.133 220.871C145.161 219.629 144.218 218.286 144.218 218C144.218 217.714 145.233 216.357 150.204 215.143L150.133 215.129ZM183.476 263.329C177.994 264.506 172.396 265.062 166.79 264.986C161.188 265.062 155.596 264.506 150.118 263.329C145.218 262.157 144.218 260.857 144.218 260.629V250.086C149.333 252.871 160.29 253.714 166.861 253.714C173.433 253.714 184.404 252.871 189.518 250.086V260.629C189.518 260.886 188.447 262.186 183.547 263.357" fill="#2D5967"/>
</g>
</g>
<g id="Icon Text Label_7">
<text id="IconLabel_15" fill="black" xml:space="preserve" style="white-space: pre" font-family="Oracle Sans" font-size="16" letter-spacing="0em"><tspan x="107.817" y="287.015">Oracle Database</tspan></text>
</g>
</g>
<g id="Azure gateway subnet">
<rect x="400.5" y="40.5" width="201" height="374" fill="white"/>
<rect x="400.5" y="40.5" width="201" height="374" stroke="#706E6F" stroke-dasharray="8 4"/>
<text id="Azure subnet_3" fill="#706E6F" xml:space="preserve" style="white-space: pre" font-family="Oracle Sans" font-size="16" font-weight="600" letter-spacing="0em"><tspan x="408" y="61.816">Gateway subnet</tspan></text>
<text id="Azure subnet_4" fill="#312D2A" xml:space="preserve" style="white-space: pre" font-family="Oracle Sans" font-size="16" font-weight="300" letter-spacing="0em"><tspan x="408" y="77.816">10.0.1.0/24</tspan></text>
</g>
<g id="Virtual Network Gateway_2">
<g id="Azure-Virtual-Network-Gateway">
<g id="Group_15">
<g id="Group_16">
<g id="Group_17">
<path id="Vector_63" d="M574.447 130.975H571.072V120.475C571.072 115.6 569.197 111.1 566.197 107.35C562.822 103.975 558.697 102.1 553.822 102.1C549.322 102.1 544.822 103.975 541.447 107.725C538.447 111.1 536.572 115.975 536.572 120.475V130.6H533.947C532.822 130.975 531.697 131.725 531.697 133.225V159.85C531.697 160.975 532.822 162.1 533.947 162.1H574.447C575.572 162.1 576.697 160.975 576.697 159.85V133.225C576.697 131.725 575.572 130.975 574.447 130.975ZM563.197 130.975H544.822V120.475C544.822 117.85 545.947 115.225 547.822 113.35C549.322 111.475 551.572 110.35 554.197 110.35C556.447 110.35 558.697 111.475 560.572 113.35C560.947 113.725 561.322 114.1 561.697 114.85C562.822 116.35 563.572 118.6 563.572 120.475L563.197 130.975Z" fill="url(#paint5_linear_17714_983)"/>
<path id="Vector_64" d="M574.447 130.975H533.947C533.572 130.975 532.822 131.35 532.447 131.725L575.572 161.725C575.947 161.35 576.322 160.6 576.322 159.85V132.85C576.697 131.725 575.572 130.975 574.447 130.975Z" fill="#50E6FF"/>
<path id="Vector_65" opacity="0.2" d="M533.947 130.975H574.447C574.822 130.975 575.572 131.35 575.947 131.725L532.447 161.725C532.072 160.975 531.697 160.225 531.697 159.475V132.85C531.697 131.725 532.822 130.975 533.947 130.975Z" fill="white"/>
<path id="Vector_66" d="M550.072 137.35L554.197 133.225H554.572L558.697 137.35C558.697 137.35 558.697 137.35 558.697 137.725H556.072C556.072 137.725 555.697 137.725 555.697 138.1V143.35C555.697 143.35 555.697 143.725 555.322 143.725H553.072C553.072 143.725 553.072 143.725 552.697 143.725V137.725C552.697 137.725 552.697 137.35 552.322 137.35H550.072C550.072 137.725 550.072 137.35 550.072 137.35Z" fill="white"/>
<path id="Vector_67" d="M558.322 155.35L554.197 159.475H553.822L549.697 155.35C549.697 155.35 549.697 155.35 549.697 154.975H551.947C551.947 154.975 552.322 154.975 552.322 154.6V149.35C552.322 149.35 552.322 148.975 552.697 148.975H555.322C555.322 148.975 555.697 148.975 555.697 149.35V154.6C555.697 154.6 555.697 154.975 556.072 154.975L558.322 155.35C558.322 154.975 558.322 154.975 558.322 155.35C558.697 155.35 558.322 155.35 558.322 155.35Z" fill="white"/>
<path id="Vector_68" d="M542.947 150.475V148.225C542.947 148.225 542.947 147.85 542.572 147.85H537.697C537.697 147.85 537.322 147.85 537.322 147.475V145.225V144.85H542.197C542.197 144.85 542.572 144.85 542.572 144.475V142.225C542.572 142.225 542.572 141.85 542.947 141.85L547.072 145.975V146.35L542.947 150.475Z" fill="white"/>
<path id="Vector_69" d="M565.822 150.475L561.697 146.725V146.35L565.447 142.225C565.447 142.225 565.822 142.225 565.822 142.6V144.85C565.822 144.85 565.822 145.225 566.197 145.225H571.072C571.072 145.225 571.072 145.225 571.072 145.6V147.85C571.072 147.85 571.072 148.225 570.697 148.225H566.197C566.197 148.225 565.822 148.225 565.822 148.6V150.475Z" fill="white"/>
</g>
</g>
</g>
</g>
<g id="Icon Text Label_8">
<text id="IconLabel_16" fill="black" xml:space="preserve" style="white-space: pre" font-family="Oracle Sans" font-size="16" letter-spacing="0em"><tspan x="530.158" y="179.916">Virtual</tspan></text>
<text id="IconLabel_17" fill="black" xml:space="preserve" style="white-space: pre" font-family="Oracle Sans" font-size="16" letter-spacing="0em"><tspan x="524.557" y="195.916">network</tspan></text>
<text id="IconLabel_18" fill="black" xml:space="preserve" style="white-space: pre" font-family="Oracle Sans" font-size="16" letter-spacing="0em"><tspan x="524.283" y="211.916">gateway</tspan></text>
</g>
</g>
<path id="Vector 58" d="M194.093 143.692C193.703 144.083 193.703 144.716 194.093 145.107L200.457 151.471C200.848 151.861 201.481 151.861 201.871 151.471C202.262 151.08 202.262 150.447 201.871 150.056L196.215 144.4L201.871 138.743C202.262 138.352 202.262 137.719 201.871 137.328C201.481 136.938 200.848 136.938 200.457 137.328L194.093 143.692ZM526.707 145.107C527.098 144.716 527.098 144.083 526.707 143.693L520.343 137.329C519.953 136.938 519.319 136.938 518.929 137.329C518.538 137.719 518.538 138.352 518.929 138.743L524.586 144.4L518.929 150.057C518.538 150.447 518.538 151.08 518.929 151.471C519.319 151.861 519.953 151.861 520.343 151.471L526.707 145.107ZM194.8 145.4L526 145.4L526 143.4L194.8 143.4L194.8 145.4Z" fill="#312D2A"/>
<path id="Vector 60_2" d="M608 143.798L761 143.798" stroke="#312D2A" stroke-width="2"/>
<g id="Group 831">
<g id="VNet icon_2">
<rect id="White Vnet BG_2" x="664.24" y="141.199" width="45" height="6" fill="white"/>
<g id="Icon Master_3">
<g id="Azure_VNet_2">
<g id="Group_18">
<g id="Group_19">
<path id="Vector_70" d="M695.534 146.744C696.965 146.744 698.124 145.584 698.124 144.154C698.124 142.723 696.965 141.563 695.534 141.563C694.104 141.563 692.944 142.723 692.944 144.154C692.944 145.584 694.104 146.744 695.534 146.744Z" fill="url(#paint6_linear_17714_983)"/>
<path id="Vector_71" d="M687.365 146.744C688.795 146.744 689.955 145.584 689.955 144.154C689.955 142.723 688.795 141.563 687.365 141.563C685.934 141.563 684.774 142.723 684.774 144.154C684.774 145.584 685.934 146.744 687.365 146.744Z" fill="url(#paint7_linear_17714_983)"/>
<path id="Vector_72" d="M679.195 146.744C680.626 146.744 681.786 145.584 681.786 144.154C681.786 142.723 680.626 141.563 679.195 141.563C677.765 141.563 676.605 142.723 676.605 144.154C676.605 145.584 677.765 146.744 679.195 146.744Z" fill="url(#paint8_linear_17714_983)"/>
<path id="Vector_73" d="M680.989 154.515L679.395 156.109C679.195 156.109 678.797 156.109 678.598 155.91L667.639 144.951C667.24 144.552 667.24 143.755 667.639 143.157L669.233 141.763L680.989 153.518C681.188 153.718 681.188 154.116 680.989 154.515Z" fill="#50E6FF"/>
<path id="Vector_74" d="M679.395 132.398L680.989 133.992C681.188 134.191 681.188 134.59 680.989 134.789L669.233 146.545L667.639 144.951C667.041 144.353 667.041 143.556 667.639 143.157L678.398 132.398C678.598 132.198 678.996 132.198 679.395 132.398Z" fill="#1490DF"/>
<path id="Vector_75" d="M705.298 141.563L706.692 142.958C707.29 143.556 707.29 144.353 706.692 144.751L695.733 155.71C695.534 155.909 695.136 155.909 694.737 155.71L693.143 154.116C692.944 153.917 692.944 153.518 693.143 153.12L705.298 141.563Z" fill="#50E6FF"/>
<path id="Vector_76" d="M706.891 144.951L705.297 146.545L693.741 134.988C693.541 134.789 693.541 134.39 693.741 133.992L695.136 132.398C695.335 132.198 695.733 132.198 696.132 132.398L706.891 143.157C707.29 143.556 707.29 144.353 706.891 144.951Z" fill="#1490DF"/>
</g>
</g>
</g>
</g>
</g>
<g id="Virtual Network Gateway_3">
<g id="Icon Text Label_9">
<text id="IconLabel_19" fill="black" xml:space="preserve" style="white-space: pre" font-family="Oracle Sans" font-size="16" letter-spacing="0em"><tspan x="668.615" y="173.117">VNet</tspan></text>
<text id="IconLabel_20" fill="black" xml:space="preserve" style="white-space: pre" font-family="Oracle Sans" font-size="16" letter-spacing="0em"><tspan x="658.982" y="189.117">Peering</tspan></text>
</g>
</g>
</g>
<rect id="Rectangle 700" x="289.195" y="132.388" width="49.262" height="9.95386" fill="white"/>
<g id="Virtual network gateway">
<g id="Network-Router">
<g id="Group 392">
<path id="Vector_77" d="M322.293 164.723C317.118 164.718 312.156 162.659 308.497 158.999C304.837 155.339 302.779 150.376 302.774 145.199C302.774 140.021 304.83 135.055 308.491 131.394C312.152 127.732 317.116 125.675 322.293 125.675C324.857 125.674 327.396 126.178 329.766 127.159C332.135 128.139 334.288 129.577 336.101 131.39C337.915 133.204 339.354 135.356 340.335 137.726C341.317 140.095 341.822 142.635 341.822 145.199C341.817 150.377 339.757 155.342 336.096 159.002C332.434 162.663 327.47 164.721 322.293 164.723Z" fill="white"/>
<path id="Vector_78" d="M322.293 126.152C326.699 126.153 330.968 127.682 334.373 130.479C337.778 133.276 340.108 137.167 340.966 141.49C341.824 145.812 341.157 150.299 339.078 154.185C337 158.071 333.638 161.115 329.567 162.8C325.496 164.485 320.967 164.705 316.751 163.424C312.535 162.143 308.894 159.439 306.448 155.774C304.002 152.108 302.903 147.708 303.337 143.322C303.771 138.937 305.712 134.838 308.829 131.723C310.596 129.953 312.695 128.55 315.005 127.594C317.316 126.638 319.792 126.148 322.293 126.152ZM322.293 125.199C318.338 125.199 314.472 126.372 311.183 128.569C307.895 130.767 305.332 133.891 303.818 137.545C302.305 141.2 301.909 145.222 302.68 149.101C303.452 152.981 305.356 156.545 308.153 159.342C311.904 163.094 316.992 165.202 322.297 165.202C327.602 165.202 332.69 163.094 336.442 159.342C340.193 155.59 342.3 150.501 342.3 145.194C342.3 139.888 340.193 134.799 336.442 131.047C334.587 129.185 332.381 127.709 329.953 126.705C327.524 125.702 324.92 125.19 322.293 125.199Z" fill="white"/>
<path id="Vector_79" d="M335.766 131.723C332.652 128.605 328.554 126.664 324.17 126.229C319.786 125.795 315.387 126.894 311.723 129.34C308.058 131.786 305.355 135.427 304.073 139.643C302.791 143.859 303.011 148.389 304.694 152.462C306.377 156.534 309.42 159.896 313.304 161.976C317.188 164.056 321.673 164.725 325.994 163.869C330.316 163.012 334.207 160.683 337.004 157.279C339.801 153.875 341.332 149.606 341.336 145.199C341.338 142.697 340.847 140.219 339.891 137.907C338.935 135.595 337.533 133.493 335.766 131.723ZM334.671 157.58C331.6 160.674 327.475 162.494 323.121 162.675V152.094L325.501 154.466L326.625 153.352L322.293 149.056L317.998 153.352L319.122 154.466L321.502 152.094V162.637C317.152 162.442 313.032 160.625 309.954 157.544C306.875 154.463 305.061 150.341 304.868 145.99H315.399L313.028 148.371L314.142 149.494L318.484 145.199L314.18 140.904L313.066 142.018L315.437 144.399H304.868C305.061 140.048 306.875 135.926 309.954 132.845C313.032 129.764 317.152 127.947 321.502 127.752V138.304L319.122 135.923L317.998 137.047L322.293 141.39L326.596 137.094L325.473 135.971L323.092 138.352V127.752C327.443 127.947 331.563 129.764 334.641 132.845C337.719 135.926 339.534 140.048 339.727 144.399H329.196L331.567 142.018L330.453 140.904L326.149 145.199L330.453 149.494L331.567 148.371L329.196 145.99H339.727C339.553 150.35 337.749 154.487 334.671 157.58Z" fill="#2D5967"/>
</g>
</g>
<g id="Icon Text Label_10">
<text id="IconLabel_21" fill="black" xml:space="preserve" style="white-space: pre" font-family="Oracle Sans" font-size="16" letter-spacing="0em"><tspan x="301.329" y="183.015">Azure</tspan></text>
<text id="IconLabel_22" fill="black" xml:space="preserve" style="white-space: pre" font-family="Oracle Sans" font-size="16" letter-spacing="0em"><tspan x="273.055" y="199.015">ExpressRoute</tspan></text>
</g>
</g>
<g id="Group 834">
<g id="VNIC_3">
<g id="OCI-Autonomous-Recovery-Service_2">
<g id="Group_20">
<path id="Vector_80" d="M710.819 319.618L711.834 318.603L710.819 317.589L707.086 312.959L706.485 312.002C704.569 308.93 701.137 307.029 697.533 307.029C696.789 307.029 696.074 307.129 695.373 307.286L694.1 306.558C692.313 305.543 690.282 305 688.208 305C684.919 305 681.744 306.386 679.499 308.801C679.156 309.172 678.655 309.387 678.112 309.387C678.04 309.387 677.969 309.387 677.897 309.387C677.597 309.358 677.282 309.344 676.982 309.344C675.637 309.344 674.265 309.63 673.035 310.173C670.089 311.459 667.972 314.116 667.343 317.26C667.228 317.874 666.828 318.389 666.256 318.689C662.366 320.732 659.849 324.548 659.52 328.92L659.448 329.977L659.334 331.506H671.018V358.113H674.465V361.556H677.911V365H700.007V331.492H707.615L708.016 330.735L708.302 330.22C709.803 327.434 710.132 324.176 709.26 321.147L709.417 320.99L710.819 319.589V319.618Z" fill="white"/>
<path id="Vector_81" d="M672.448 317.76V356.684H674.422V319.732H686.32L684.347 317.76H672.448Z" fill="#2D5967"/>
<path id="Vector_82" d="M705.57 328.105H700.064V330.077H706.772L707.058 329.563C708.559 326.791 708.688 323.619 707.673 320.832C707.344 321.818 706.886 322.733 706.3 323.561C706.471 325.076 706.243 326.648 705.57 328.105Z" fill="#2D5967"/>
<path id="Vector_83" d="M688.194 306.429C685.291 306.429 682.502 307.644 680.543 309.773C679.842 310.53 678.827 310.902 677.754 310.802C676.338 310.673 674.894 310.902 673.592 311.473C671.075 312.573 669.259 314.845 668.73 317.532C668.53 318.561 667.857 319.446 666.914 319.947C663.467 321.761 661.236 325.148 660.95 329.02L660.878 330.078H670.975V328.106H663.052C663.581 325.362 665.312 323.019 667.829 321.69C669.316 320.904 670.346 319.532 670.66 317.903C671.061 315.846 672.448 314.102 674.379 313.259C675.38 312.816 676.481 312.645 677.554 312.745C679.241 312.902 680.857 312.302 681.973 311.087C683.575 309.358 685.834 308.372 688.18 308.372C689.266 308.372 690.325 308.587 691.297 308.958C691.941 308.487 692.627 308.087 693.357 307.772C691.812 306.886 690.039 306.401 688.18 306.401L688.194 306.429Z" fill="#2D5967"/>
<path id="Vector_84" d="M675.909 321.204V360.127H677.883V323.176H688.652C688.265 322.561 687.922 321.904 687.665 321.204H675.909Z" fill="#2D5967"/>
<path id="Vector_85" d="M696.618 328.063V361.614H681.33V326.634H692.213C691.312 326.105 690.497 325.433 689.782 324.662H679.356V363.585H698.591V328.063C698.262 328.091 697.933 328.106 697.604 328.106C697.275 328.106 696.947 328.091 696.618 328.063Z" fill="#2D5967"/>
<path id="Vector_86" d="M691.884 352.44C692.198 351.854 692.356 351.211 692.341 350.554C692.341 349.425 692.012 348.568 691.369 347.982C690.725 347.396 689.81 347.082 688.48 347.082H685.276V358.413H687.493V353.983L688.28 354.083L690.21 358.427H692.67L690.368 353.626C690.997 353.426 691.526 353.012 691.884 352.454V352.44ZM688.48 352.497H687.493V348.796H688.48C689.595 348.796 690.053 349.497 690.053 350.668C690.053 351.84 689.595 352.483 688.48 352.483V352.497Z" fill="#2D5967"/>
<path id="Vector_87" d="M695.13 328.105H682.802V330.077H695.13V328.105Z" fill="#2D5967"/>
<path id="Vector_88" d="M684.29 336.978H693.657V335.249H695.13V333.278H693.657V331.549H684.29V333.278H682.817V335.249H684.29V336.978ZM686.264 333.535H691.684V335.007H686.264V333.535Z" fill="#2D5967"/>
<path id="Vector_89" d="M684.776 338.451H682.802V340.422H684.776V338.451Z" fill="#2D5967"/>
<path id="Vector_90" d="M688.237 338.451H686.264V340.422H688.237V338.451Z" fill="#2D5967"/>
<path id="Vector_91" d="M691.684 338.451H689.71V340.422H691.684V338.451Z" fill="#2D5967"/>
<path id="Vector_92" d="M695.144 338.451H693.171V340.422H695.144V338.451Z" fill="#2D5967"/>
<path id="Vector_93" d="M684.776 341.909H682.802V343.88H684.776V341.909Z" fill="#2D5967"/>
<path id="Vector_94" d="M688.237 341.909H686.264V343.88H688.237V341.909Z" fill="#2D5967"/>
<path id="Vector_95" d="M691.684 341.909H689.71V343.88H691.684V341.909Z" fill="#2D5967"/>
<path id="Vector_96" d="M695.144 341.909H693.171V343.88H695.144V341.909Z" fill="#2D5967"/>
<path id="Vector_97" d="M689.381 320.689L693.529 316.546L692.127 315.145L690.397 316.874C690.74 313.259 693.8 310.416 697.519 310.416C700.207 310.416 702.596 311.916 703.826 314.188L705.27 312.745C703.64 310.144 700.751 308.444 697.519 308.444C692.699 308.444 688.752 312.202 688.423 316.931L686.635 315.145L685.234 316.546L689.381 320.689Z" fill="#2D5967"/>
<path id="Vector_98" d="M698.477 321.304C698.663 321.49 698.92 321.59 699.178 321.59C699.435 321.59 699.678 321.49 699.878 321.304C700.264 320.918 700.264 320.289 699.878 319.903L698.105 318.132L698.134 314.316C698.134 313.773 697.704 313.33 697.147 313.33C696.603 313.33 696.16 313.773 696.16 314.316L696.131 318.546C696.131 318.803 696.231 319.06 696.417 319.246L698.477 321.304Z" fill="#2D5967"/>
<path id="Vector_99" d="M705.656 314.46L701.508 318.603L702.91 320.004L704.64 318.275C704.297 321.89 701.237 324.733 697.518 324.733C694.83 324.733 692.441 323.233 691.212 320.961L689.767 322.404C691.397 325.005 694.286 326.705 697.518 326.705C702.338 326.705 706.285 322.947 706.614 318.218L708.402 320.004L709.803 318.603L705.656 314.46Z" fill="#2D5967"/>
</g>
</g>
<g id="Icon Text Label_11">
<text id="IconLabel_23" fill="black" xml:space="preserve" style="white-space: pre" font-family="Oracle Sans" font-size="16" letter-spacing="0em"><tspan x="626.719" y="382.816">Oracle Database</tspan></text>
<text id="IconLabel_24" fill="black" xml:space="preserve" style="white-space: pre" font-family="Oracle Sans" font-size="16" letter-spacing="0em"><tspan x="638.453" y="398.816">Autonomous</tspan></text>
<text id="IconLabel_25" fill="black" xml:space="preserve" style="white-space: pre" font-family="Oracle Sans" font-size="16" letter-spacing="0em"><tspan x="624.195" y="414.816">Recovery Service</tspan></text>
</g>
</g>
</g>
</g>
<defs>
<linearGradient id="paint0_linear_17714_983" x1="1100.22" y1="110.123" x2="1140.91" y2="110.123" gradientUnits="userSpaceOnUse">
<stop stop-color="#C74634"/>
<stop offset="0.5" stop-color="#DB897D"/>
<stop offset="1" stop-color="#C74634"/>
</linearGradient>
<linearGradient id="paint1_linear_17714_983" x1="1099.78" y1="99.2375" x2="1099.78" y2="72.3996" gradientUnits="userSpaceOnUse">
<stop stop-color="#32BEDD"/>
<stop offset="1" stop-color="#50E6FF"/>
</linearGradient>
<linearGradient id="paint2_linear_17714_983" x1="907.485" y1="38.529" x2="911.125" y2="42.1589" gradientUnits="userSpaceOnUse">
<stop stop-color="#86D633"/>
<stop offset="1" stop-color="#5E9624"/>
</linearGradient>
<linearGradient id="paint3_linear_17714_983" x1="897.476" y1="36.7415" x2="901.09" y2="40.3775" gradientUnits="userSpaceOnUse">
<stop stop-color="#86D633"/>
<stop offset="1" stop-color="#5E9624"/>
</linearGradient>
<linearGradient id="paint4_linear_17714_983" x1="889.279" y1="36.7343" x2="892.893" y2="40.3705" gradientUnits="userSpaceOnUse">
<stop stop-color="#86D633"/>
<stop offset="1" stop-color="#5E9624"/>
</linearGradient>
<linearGradient id="paint5_linear_17714_983" x1="552.828" y1="76.2501" x2="554.587" y2="168.639" gradientUnits="userSpaceOnUse">
<stop offset="0.22" stop-color="#32D4F5"/>
<stop offset="0.47" stop-color="#31D1F3"/>
<stop offset="0.63" stop-color="#2EC9EB"/>
<stop offset="0.77" stop-color="#29BADE"/>
<stop offset="0.89" stop-color="#22A5CB"/>
<stop offset="1" stop-color="#198AB3"/>
</linearGradient>
<linearGradient id="paint6_linear_17714_983" x1="693.728" y1="142.328" x2="697.368" y2="145.958" gradientUnits="userSpaceOnUse">
<stop stop-color="#86D633"/>
<stop offset="1" stop-color="#5E9624"/>
</linearGradient>
<linearGradient id="paint7_linear_17714_983" x1="683.719" y1="140.54" x2="687.333" y2="144.176" gradientUnits="userSpaceOnUse">
<stop stop-color="#86D633"/>
<stop offset="1" stop-color="#5E9624"/>
</linearGradient>
<linearGradient id="paint8_linear_17714_983" x1="675.522" y1="140.533" x2="679.136" y2="144.169" gradientUnits="userSpaceOnUse">
<stop stop-color="#86D633"/>
<stop offset="1" stop-color="#5E9624"/>
</linearGradient>
<clipPath id="clip0_17714_983">
<rect width="1519" height="424" fill="white"/>
</clipPath>
</defs>
</svg>
