<svg width="641" height="508" viewBox="0 0 641 508" fill="none" xmlns="http://www.w3.org/2000/svg">
<rect width="641" height="508" fill="white"/>
<rect x="3.5" y="3.5" width="634" height="502" rx="3.5" fill="#F5F4F2"/>
<rect x="3.5" y="3.5" width="634" height="502" rx="3.5" stroke="#9E9892"/>
<path d="M17.176 25.224C15.4373 25.224 14.0933 24.7013 13.144 23.656C12.2053 22.6 11.736 21.1067 11.736 19.176C11.736 17.2667 12.2107 15.784 13.16 14.728C14.1093 13.672 15.448 13.144 17.176 13.144C18.904 13.144 20.2427 13.672 21.192 14.728C22.1413 15.784 22.616 17.2667 22.616 19.176C22.616 21.1067 22.1467 22.6 21.208 23.656C20.2693 24.7013 18.9253 25.224 17.176 25.224ZM17.176 23.096C18.1467 23.096 18.8667 22.76 19.336 22.088C19.816 21.416 20.056 20.4453 20.056 19.176C20.056 17.9067 19.816 16.9413 19.336 16.28C18.8667 15.608 18.1467 15.272 17.176 15.272C16.2053 15.272 15.48 15.608 15 16.28C14.5307 16.9413 14.296 17.9067 14.296 19.176C14.296 20.4453 14.5307 21.416 15 22.088C15.48 22.76 16.2053 23.096 17.176 23.096ZM33.0394 22.456V24.536C32.6234 24.728 32.138 24.888 31.5834 25.016C31.0394 25.1547 30.4367 25.224 29.7754 25.224C27.9087 25.224 26.4954 24.696 25.5354 23.64C24.5754 22.5733 24.0954 21.0427 24.0954 19.048C24.0954 17.8213 24.33 16.7707 24.7994 15.896C25.2687 15.0107 25.9354 14.3333 26.7994 13.864C27.6634 13.384 28.6927 13.144 29.8874 13.144C30.4527 13.144 30.9754 13.2027 31.4554 13.32C31.9354 13.4373 32.3567 13.5867 32.7194 13.768V15.88C32.154 15.6667 31.6634 15.5173 31.2474 15.432C30.842 15.3467 30.4474 15.304 30.0634 15.304C28.9647 15.304 28.122 15.6293 27.5354 16.28C26.9487 16.9307 26.6554 17.8533 26.6554 19.048C26.6554 20.3387 26.9434 21.336 27.5194 22.04C28.0954 22.7333 28.9434 23.08 30.0634 23.08C30.5114 23.08 30.9647 23.032 31.4234 22.936C31.8927 22.8293 32.4314 22.6693 33.0394 22.456ZM34.6673 25V13.368H37.1633V25H34.6673ZM43.3548 25V13.368H47.8188C49.2054 13.368 50.2721 13.688 51.0188 14.328C51.7654 14.968 52.1388 15.8747 52.1388 17.048C52.1388 17.8693 51.9254 18.568 51.4988 19.144C51.0828 19.72 50.4908 20.1307 49.7228 20.376L52.6348 25H49.8828L47.4188 20.824L45.8348 20.424V25H43.3548ZM45.8348 18.792H47.0508C48.0214 18.792 48.6934 18.6693 49.0668 18.424C49.4508 18.168 49.6428 17.7253 49.6428 17.096C49.6428 16.4667 49.4508 16.0293 49.0668 15.784C48.6934 15.528 48.0214 15.4 47.0508 15.4H45.8348V18.792ZM60.6112 24.6C59.7899 24.9947 58.8086 25.192 57.6673 25.192C56.2166 25.192 55.1019 24.8133 54.3233 24.056C53.5446 23.288 53.1553 22.184 53.1553 20.744C53.1553 19.368 53.5286 18.2907 54.2753 17.512C55.0326 16.7333 56.0726 16.344 57.3953 16.344C58.5686 16.344 59.4646 16.6853 60.0833 17.368C60.7019 18.0507 61.0113 18.9947 61.0113 20.2V21.432H55.5713C55.6673 22.0933 55.9019 22.5733 56.2753 22.872C56.6593 23.1707 57.2086 23.32 57.9233 23.32C58.3713 23.32 58.7979 23.2827 59.2033 23.208C59.6193 23.1227 60.0886 22.9787 60.6112 22.776V24.6ZM57.3633 18.104C56.2219 18.104 55.6086 18.6853 55.5233 19.848H58.8513C58.8299 19.304 58.6859 18.8773 58.4193 18.568C58.1526 18.2587 57.8006 18.104 57.3633 18.104ZM62.4098 24.104L62.1378 23.048L63.5138 21.08C63.0018 20.5893 62.7458 19.9653 62.7458 19.208C62.7458 18.3013 63.0604 17.5973 63.6898 17.096C64.3298 16.5947 65.2151 16.344 66.3458 16.344C66.9324 16.344 67.4871 16.4347 68.0098 16.616L70.9378 16.6V17.8L70.0417 18.168C70.3191 18.5093 70.4578 18.9253 70.4578 19.416C70.4578 20.2373 70.1164 20.8827 69.4338 21.352C68.7511 21.8213 67.8071 22.056 66.6018 22.056C66.0151 22.056 65.4871 21.992 65.0178 21.864L64.4098 22.728L68.1858 23.176C70.0311 23.4 70.9538 24.2213 70.9538 25.64C70.9538 26.4933 70.5644 27.1653 69.7858 27.656C69.0071 28.1573 67.9458 28.408 66.6018 28.408C65.2151 28.408 64.1591 28.2053 63.4338 27.8C62.7084 27.3947 62.3458 26.8027 62.3458 26.024C62.3458 25.3627 62.6551 24.776 63.2738 24.264L62.4098 24.104ZM64.9538 19.208C64.9538 20.0187 65.5031 20.424 66.6018 20.424C67.7004 20.424 68.2498 20.0187 68.2498 19.208C68.2498 18.3973 67.7004 17.992 66.6018 17.992C65.5031 17.992 64.9538 18.3973 64.9538 19.208ZM64.6178 25.544C64.6178 25.9173 64.7724 26.1893 65.0818 26.36C65.4018 26.5307 65.9084 26.616 66.6018 26.616C67.9564 26.616 68.6338 26.328 68.6338 25.752C68.6338 25.5387 68.5698 25.3787 68.4418 25.272C68.3138 25.176 68.0631 25.096 67.6898 25.032L65.0178 24.568C64.7511 24.856 64.6178 25.1813 64.6178 25.544ZM72.5214 15.048V13.176H75.2094V15.048H72.5214ZM72.7774 25V18.248L71.8974 17.512V16.536H75.2094V25H72.7774ZM81.0976 25.192C79.775 25.192 78.7403 24.8027 77.9936 24.024C77.2576 23.2453 76.8896 22.1573 76.8896 20.76C76.8896 19.3627 77.2576 18.28 77.9936 17.512C78.7403 16.7333 79.775 16.344 81.0976 16.344C82.431 16.344 83.4656 16.7333 84.2016 17.512C84.9376 18.28 85.3056 19.3627 85.3056 20.76C85.3056 22.1573 84.9376 23.2453 84.2016 24.024C83.4656 24.8027 82.431 25.192 81.0976 25.192ZM81.0976 23.352C82.271 23.352 82.8576 22.488 82.8576 20.76C82.8576 19.0427 82.271 18.184 81.0976 18.184C79.9243 18.184 79.3376 19.0427 79.3376 20.76C79.3376 22.488 79.9243 23.352 81.0976 23.352ZM86.9779 25V16.536H88.5619L88.8979 17.832C89.6765 16.84 90.6845 16.344 91.9219 16.344C92.8925 16.344 93.6339 16.6427 94.1459 17.24C94.6579 17.8267 94.9139 18.68 94.9139 19.8V25H92.4819V19.88C92.4819 18.8453 92.0499 18.328 91.1859 18.328C90.8019 18.328 90.4499 18.44 90.1299 18.664C89.8205 18.888 89.5805 19.2027 89.4099 19.608V25H86.9779Z" fill="#312D2A"/>
<rect x="33.5" y="51.5" width="581" height="406" rx="3.5" fill="#E4E1DD"/>
<rect x="33.5" y="51.5" width="581" height="406" rx="3.5" stroke="#9E9892"/>
<path d="M233.135 73.208C231.428 73.208 230.116 72.6853 229.199 71.64C228.282 70.5947 227.823 69.1067 227.823 67.176C227.823 65.256 228.282 63.7733 229.199 62.728C230.127 61.6827 231.439 61.16 233.135 61.16C234.831 61.16 236.138 61.6827 237.055 62.728C237.983 63.7733 238.447 65.256 238.447 67.176C238.447 69.1067 237.988 70.5947 237.071 71.64C236.154 72.6853 234.842 73.208 233.135 73.208ZM233.135 71.496C235.322 71.496 236.415 70.056 236.415 67.176C236.415 65.7573 236.138 64.6853 235.583 63.96C235.028 63.2347 234.212 62.872 233.135 62.872C232.058 62.872 231.242 63.2347 230.687 63.96C230.132 64.6853 229.855 65.7573 229.855 67.176C229.855 70.056 230.948 71.496 233.135 71.496ZM248.843 70.792V72.488C248.395 72.7227 247.893 72.8987 247.339 73.016C246.784 73.144 246.192 73.208 245.563 73.208C243.771 73.208 242.395 72.68 241.435 71.624C240.485 70.568 240.011 69.0427 240.011 67.048C240.011 65.8213 240.235 64.7707 240.683 63.896C241.141 63.0213 241.792 62.3493 242.635 61.88C243.488 61.4 244.496 61.16 245.659 61.16C246.171 61.16 246.677 61.2187 247.179 61.336C247.68 61.4533 248.112 61.6187 248.475 61.832V63.512C247.92 63.288 247.435 63.128 247.019 63.032C246.603 62.936 246.192 62.888 245.787 62.888C244.592 62.888 243.669 63.256 243.019 63.992C242.368 64.7173 242.043 65.736 242.043 67.048C242.043 68.4667 242.363 69.56 243.003 70.328C243.653 71.0853 244.581 71.464 245.787 71.464C246.256 71.464 246.731 71.4107 247.211 71.304C247.701 71.1973 248.245 71.0267 248.843 70.792ZM250.583 73V61.368H252.583V73H250.583ZM257.855 73L262.303 61.368H264.271L268.751 73H266.527L265.631 70.376H260.895L259.999 73H257.855ZM261.471 68.68H265.055L263.247 63.416L261.471 68.68ZM270.099 73V61.368H272.099V73H270.099ZM278.458 73V61.368H282.362C283.802 61.368 284.858 61.6187 285.53 62.12C286.213 62.6213 286.554 63.4107 286.554 64.488C286.554 65.0107 286.41 65.48 286.122 65.896C285.845 66.3013 285.456 66.6213 284.954 66.856C286.352 67.272 287.05 68.2 287.05 69.64C287.05 71.88 285.53 73 282.49 73H278.458ZM280.378 66.296H281.994C282.922 66.296 283.584 66.168 283.978 65.912C284.373 65.656 284.57 65.224 284.57 64.616C284.57 63.9867 284.378 63.5493 283.994 63.304C283.61 63.048 282.944 62.92 281.994 62.92H280.378V66.296ZM280.378 71.432H282.298C283.269 71.432 283.968 71.288 284.394 71C284.821 70.712 285.034 70.248 285.034 69.608C285.034 68.9787 284.816 68.52 284.378 68.232C283.952 67.944 283.258 67.8 282.298 67.8H280.378V71.432ZM288.628 73V62.408L287.78 61.784V60.984H290.58V73H288.628ZM292.751 69.768V64.584H294.703V69.704C294.703 70.9413 295.194 71.56 296.175 71.56C296.613 71.56 297.018 71.4213 297.391 71.144C297.775 70.8667 298.063 70.4933 298.255 70.024V64.584H300.207V73H298.911L298.607 71.64C298.255 72.1307 297.823 72.5093 297.311 72.776C296.81 73.0427 296.261 73.176 295.663 73.176C294.725 73.176 294.005 72.8827 293.503 72.296C293.002 71.7093 292.751 70.8667 292.751 69.768ZM309.112 72.6C308.76 72.7813 308.334 72.9253 307.832 73.032C307.331 73.1387 306.798 73.192 306.232 73.192C304.846 73.192 303.784 72.8133 303.048 72.056C302.323 71.2987 301.96 70.1947 301.96 68.744C301.96 67.3573 302.307 66.2907 303 65.544C303.704 64.7867 304.691 64.408 305.96 64.408C307.134 64.408 308.019 64.744 308.616 65.416C309.214 66.0773 309.512 67.0267 309.512 68.264V69.352H303.896C303.971 70.152 304.211 70.7333 304.616 71.096C305.032 71.4587 305.635 71.64 306.424 71.64C306.894 71.64 307.336 71.5973 307.752 71.512C308.168 71.416 308.622 71.2667 309.112 71.064V72.6ZM305.944 65.88C304.664 65.88 303.976 66.5787 303.88 67.976H307.72C307.71 66.5787 307.118 65.88 305.944 65.88ZM311.222 76.216V64.584H312.518L312.806 65.88C313.136 65.4107 313.536 65.048 314.006 64.792C314.486 64.536 314.998 64.408 315.542 64.408C316.651 64.408 317.52 64.7973 318.15 65.576C318.779 66.344 319.094 67.4213 319.094 68.808C319.094 70.1947 318.779 71.272 318.15 72.04C317.531 72.7973 316.662 73.176 315.542 73.176C314.624 73.176 313.835 72.8613 313.174 72.232V76.216H311.222ZM315.174 65.976C314.768 65.976 314.384 66.088 314.022 66.312C313.67 66.5253 313.382 66.8133 313.158 67.176V70.68C313.691 71.3093 314.363 71.624 315.174 71.624C315.803 71.624 316.283 71.384 316.614 70.904C316.955 70.4133 317.126 69.7093 317.126 68.792C317.126 67.8747 316.955 67.176 316.614 66.696C316.283 66.216 315.803 65.976 315.174 65.976ZM320.847 73V64.584H322.143L322.447 65.976C322.713 65.528 323.049 65.1813 323.455 64.936C323.86 64.68 324.335 64.552 324.879 64.552C325.081 64.552 325.268 64.568 325.439 64.6V66.344H324.975C324.388 66.344 323.908 66.5093 323.535 66.84C323.161 67.16 322.916 67.5867 322.799 68.12V73H320.847ZM327.077 62.888V61.288H329.301V62.888H327.077ZM327.365 73V66.008L326.517 65.384V64.584H329.317V73H327.365ZM331.55 73V64.584H332.846L333.134 65.944C333.507 65.4533 333.944 65.0747 334.446 64.808C334.958 64.5413 335.528 64.408 336.158 64.408C337.128 64.408 337.87 64.7013 338.382 65.288C338.894 65.864 339.15 66.7067 339.15 67.816V73H337.198V67.88C337.198 66.6427 336.67 66.024 335.614 66.024C335.155 66.024 334.734 66.1627 334.35 66.44C333.976 66.7173 333.694 67.0907 333.502 67.56V73H331.55ZM341.667 70.264V66.104H340.211V65.128L341.715 64.552L342.371 62.216H343.619V64.584H345.427V66.104H343.619V70.248C343.619 70.696 343.72 71.0213 343.923 71.224C344.126 71.416 344.424 71.512 344.819 71.512C344.936 71.512 345.059 71.512 345.187 71.512C345.326 71.5013 345.438 71.4907 345.523 71.48V73.016C345.31 73.048 345.112 73.0693 344.931 73.08C344.76 73.0907 344.568 73.096 344.355 73.096C343.448 73.096 342.771 72.8667 342.323 72.408C341.886 71.9493 341.667 71.2347 341.667 70.264ZM346.869 72.616V71.032C347.402 71.2453 347.882 71.4 348.309 71.496C348.735 71.5813 349.183 71.624 349.653 71.624C350.794 71.624 351.365 71.2987 351.365 70.648C351.365 70.4027 351.269 70.2053 351.077 70.056C350.895 69.896 350.575 69.752 350.117 69.624L348.869 69.288C348.111 69.0747 347.557 68.7813 347.205 68.408C346.853 68.024 346.677 67.5333 346.677 66.936C346.677 66.1467 346.981 65.528 347.589 65.08C348.197 64.632 349.023 64.408 350.069 64.408C350.57 64.408 351.055 64.4507 351.525 64.536C351.994 64.6213 352.394 64.7387 352.725 64.888V66.44C351.861 66.1093 351.002 65.944 350.149 65.944C349.114 65.944 348.597 66.232 348.597 66.808C348.597 67.032 348.687 67.2187 348.869 67.368C349.05 67.5067 349.354 67.6347 349.781 67.752L351.029 68.104C351.85 68.3387 352.431 68.6427 352.773 69.016C353.114 69.3787 353.285 69.8907 353.285 70.552C353.285 71.3947 352.975 72.0453 352.357 72.504C351.738 72.9627 350.858 73.192 349.717 73.192C349.194 73.192 348.671 73.1387 348.149 73.032C347.626 72.9253 347.199 72.7867 346.869 72.616ZM362.832 76.216H360.848C360.347 75.704 359.904 75.0373 359.52 74.216C359.136 73.4053 358.832 72.5147 358.608 71.544C358.395 70.5627 358.288 69.5813 358.288 68.6C358.288 67.608 358.395 66.6267 358.608 65.656C358.832 64.6853 359.136 63.7893 359.52 62.968C359.904 62.1467 360.347 61.4853 360.848 60.984H362.832C362.043 61.9653 361.43 63.1227 360.992 64.456C360.555 65.7893 360.336 67.1707 360.336 68.6C360.336 70.0293 360.555 71.4107 360.992 72.744C361.43 74.0773 362.043 75.2347 362.832 76.216ZM368.823 73.208C367.116 73.208 365.804 72.6853 364.887 71.64C363.969 70.5947 363.511 69.1067 363.511 67.176C363.511 65.256 363.969 63.7733 364.887 62.728C365.815 61.6827 367.127 61.16 368.823 61.16C370.519 61.16 371.825 61.6827 372.743 62.728C373.671 63.7733 374.135 65.256 374.135 67.176C374.135 69.1067 373.676 70.5947 372.759 71.64C371.841 72.6853 370.529 73.208 368.823 73.208ZM368.823 71.496C371.009 71.496 372.103 70.056 372.103 67.176C372.103 65.7573 371.825 64.6853 371.271 63.96C370.716 63.2347 369.9 62.872 368.823 62.872C367.745 62.872 366.929 63.2347 366.375 63.96C365.82 64.6853 365.543 65.7573 365.543 67.176C365.543 70.056 366.636 71.496 368.823 71.496ZM376.034 73V62.408L375.186 61.784V60.984H377.986V73H376.034ZM380.222 73V62.408L379.374 61.784V60.984H382.174V73H380.222ZM389.673 73L389.401 71.752C389.092 72.2107 388.702 72.568 388.233 72.824C387.764 73.0693 387.246 73.192 386.681 73.192C385.817 73.192 385.129 72.952 384.617 72.472C384.116 71.992 383.865 71.3413 383.865 70.52C383.865 69.6453 384.185 68.9573 384.825 68.456C385.465 67.9547 386.34 67.704 387.449 67.704H389.033V67.304C389.033 66.7707 388.921 66.408 388.697 66.216C388.473 66.024 388.078 65.928 387.513 65.928C386.67 65.928 385.71 66.1253 384.633 66.52V65C385.06 64.8187 385.545 64.6747 386.089 64.568C386.633 64.4613 387.166 64.408 387.689 64.408C389.876 64.408 390.969 65.368 390.969 67.288V73H389.673ZM387.081 71.72C387.476 71.72 387.849 71.6187 388.201 71.416C388.553 71.2027 388.841 70.9093 389.065 70.536V68.952H387.673C386.382 68.952 385.737 69.4213 385.737 70.36C385.737 70.7867 385.854 71.1227 386.089 71.368C386.324 71.6027 386.654 71.72 387.081 71.72ZM393.143 73V64.584H394.439L394.727 65.896C395.058 65.4267 395.463 65.064 395.943 64.808C396.423 64.5413 396.941 64.408 397.495 64.408C398.69 64.408 399.511 64.8987 399.959 65.88C400.279 65.4213 400.685 65.064 401.175 64.808C401.666 64.5413 402.199 64.408 402.775 64.408C403.693 64.408 404.391 64.7013 404.871 65.288C405.362 65.864 405.607 66.7067 405.607 67.816V73H403.655V67.88C403.655 66.6427 403.175 66.024 402.215 66.024C401.767 66.024 401.378 66.1573 401.047 66.424C400.727 66.68 400.493 67.0427 400.343 67.512V73H398.423V67.88C398.423 66.6427 397.938 66.024 396.967 66.024C396.53 66.024 396.146 66.1627 395.815 66.44C395.485 66.7173 395.245 67.0907 395.095 67.56V73H393.143ZM413.048 73L412.776 71.752C412.467 72.2107 412.077 72.568 411.608 72.824C411.139 73.0693 410.621 73.192 410.056 73.192C409.192 73.192 408.504 72.952 407.992 72.472C407.491 71.992 407.24 71.3413 407.24 70.52C407.24 69.6453 407.56 68.9573 408.2 68.456C408.84 67.9547 409.715 67.704 410.824 67.704H412.408V67.304C412.408 66.7707 412.296 66.408 412.072 66.216C411.848 66.024 411.453 65.928 410.888 65.928C410.045 65.928 409.085 66.1253 408.008 66.52V65C408.435 64.8187 408.92 64.6747 409.464 64.568C410.008 64.4613 410.541 64.408 411.064 64.408C413.251 64.408 414.344 65.368 414.344 67.288V73H413.048ZM410.456 71.72C410.851 71.72 411.224 71.6187 411.576 71.416C411.928 71.2027 412.216 70.9093 412.44 70.536V68.952H411.048C409.757 68.952 409.112 69.4213 409.112 70.36C409.112 70.7867 409.229 71.1227 409.464 71.368C409.699 71.6027 410.029 71.72 410.456 71.72ZM417.766 76.216H415.782C416.572 75.2347 417.185 74.0773 417.622 72.744C418.06 71.4107 418.278 70.0293 418.278 68.6C418.278 67.1707 418.06 65.7893 417.622 64.456C417.185 63.1227 416.572 61.9653 415.782 60.984H417.766C418.268 61.4853 418.71 62.1467 419.094 62.968C419.478 63.7893 419.777 64.6853 419.99 65.656C420.214 66.6267 420.326 67.608 420.326 68.6C420.326 69.5813 420.214 70.5627 419.99 71.544C419.777 72.5147 419.478 73.4053 419.094 74.216C418.71 75.0373 418.268 75.704 417.766 76.216Z" fill="#312D2A"/>
<rect x="57" y="109.973" width="485" height="196" stroke="#AA643B" stroke-width="2" stroke-dasharray="8 4"/>
<path d="M521.416 132.51C520.16 132.509 518.944 132.077 517.969 131.285C516.995 130.493 516.323 129.389 516.066 128.16H509.595C509.408 129.054 509 129.887 508.408 130.583C507.816 131.279 507.06 131.815 506.208 132.144C505.356 132.472 504.435 132.581 503.53 132.462C502.625 132.343 501.764 131.999 501.026 131.462C500.287 130.924 499.695 130.21 499.304 129.385C498.912 128.56 498.733 127.65 498.783 126.737C498.833 125.825 499.111 124.94 499.59 124.163C500.07 123.385 500.737 122.741 501.529 122.287L499.533 116.141C499.336 116.154 499.138 116.154 498.941 116.141C498.053 116.143 497.179 115.929 496.392 115.517C495.606 115.105 494.932 114.507 494.427 113.776C493.923 113.045 493.605 112.203 493.499 111.321C493.394 110.439 493.504 109.545 493.821 108.715C494.138 107.885 494.652 107.146 495.319 106.559C495.986 105.973 496.785 105.558 497.648 105.35C498.511 105.142 499.411 105.147 500.272 105.365C501.132 105.584 501.927 106.008 502.586 106.602L507.845 102.872C507.527 102.167 507.363 101.403 507.362 100.629C507.362 99.1779 507.938 97.7862 508.964 96.7601C509.989 95.734 511.38 95.1575 512.83 95.1575C514.281 95.1575 515.672 95.734 516.697 96.7601C517.723 97.7862 518.299 99.1779 518.299 100.629C518.301 101.402 518.139 102.166 517.825 102.872L523.093 106.639C524.088 105.725 525.388 105.218 526.738 105.216C528.188 105.216 529.579 105.792 530.605 106.819C531.63 107.845 532.206 109.236 532.206 110.688C532.206 112.139 531.63 113.53 530.605 114.557C529.579 115.583 528.188 116.159 526.738 116.159C526.547 116.159 526.346 116.159 526.155 116.159L524.15 122.306C525.199 122.905 526.02 123.835 526.485 124.95C526.95 126.066 527.032 127.304 526.72 128.471C526.408 129.639 525.718 130.67 524.759 131.404C523.799 132.138 522.623 132.533 521.416 132.528V132.51Z" fill="white"/>
<path d="M512.84 95.5769C513.707 95.5788 514.56 95.8058 515.314 96.2355C516.068 96.6652 516.697 97.2831 517.142 98.0289C517.586 98.7747 517.829 99.6229 517.849 100.491C517.868 101.359 517.662 102.217 517.251 102.982L523.093 107.231C523.665 106.632 524.377 106.184 525.164 105.928C525.951 105.671 526.79 105.614 527.605 105.761C528.42 105.908 529.186 106.254 529.835 106.77C530.483 107.285 530.994 107.954 531.321 108.715C531.648 109.476 531.782 110.307 531.71 111.132C531.638 111.958 531.363 112.753 530.909 113.446C530.455 114.139 529.836 114.709 529.109 115.104C528.381 115.5 527.566 115.709 526.738 115.712C526.433 115.716 526.128 115.692 525.827 115.639L523.594 122.524C524.375 122.901 525.045 123.474 525.538 124.188C526.032 124.901 526.332 125.731 526.409 126.595C526.486 127.459 526.338 128.329 525.979 129.118C525.62 129.908 525.062 130.591 524.36 131.101C523.659 131.611 522.837 131.929 521.975 132.026C521.113 132.123 520.241 131.994 519.444 131.653C518.647 131.312 517.952 130.769 517.427 130.079C516.902 129.388 516.565 128.573 516.449 127.713H509.212C509.095 128.573 508.757 129.388 508.231 130.078C507.706 130.768 507.01 131.31 506.212 131.65C505.414 131.991 504.542 132.118 503.68 132.02C502.818 131.922 501.996 131.602 501.295 131.092C500.594 130.581 500.037 129.897 499.679 129.106C499.322 128.316 499.175 127.446 499.253 126.582C499.332 125.717 499.634 124.888 500.128 124.176C500.623 123.463 501.294 122.891 502.076 122.515L499.843 115.639C499.543 115.695 499.237 115.723 498.932 115.721C498.101 115.72 497.284 115.512 496.553 115.117C495.822 114.722 495.201 114.151 494.745 113.457C494.289 112.762 494.011 111.966 493.939 111.138C493.866 110.31 493.999 109.477 494.327 108.713C494.655 107.949 495.167 107.279 495.817 106.762C496.468 106.245 497.236 105.898 498.054 105.751C498.871 105.604 499.712 105.662 500.502 105.921C501.291 106.179 502.005 106.629 502.577 107.231L508.419 102.982C508.008 102.216 507.802 101.357 507.821 100.489C507.841 99.6199 508.085 98.771 508.531 98.025C508.976 97.2789 509.607 96.6612 510.362 96.2321C511.118 95.803 511.971 95.5773 512.84 95.5769ZM512.84 94.6649C511.268 94.6649 509.76 95.2891 508.647 96.4005C507.535 97.5119 506.909 99.0195 506.906 100.592C506.906 101.306 507.035 102.014 507.289 102.681L502.632 106.055C501.891 105.464 501.019 105.059 500.089 104.874C499.16 104.689 498.199 104.73 497.288 104.993C496.378 105.256 495.543 105.733 494.855 106.385C494.166 107.037 493.644 107.844 493.332 108.74C493.019 109.635 492.926 110.592 493.059 111.531C493.192 112.47 493.548 113.364 494.098 114.137C494.647 114.91 495.373 115.54 496.216 115.974C497.059 116.408 497.993 116.634 498.941 116.633H499.205L501.028 122.105C500.23 122.633 499.572 123.347 499.11 124.185C498.648 125.023 498.396 125.961 498.375 126.918C498.354 127.875 498.564 128.823 498.989 129.68C499.414 130.538 500.04 131.28 500.814 131.843C501.588 132.405 502.486 132.772 503.433 132.912C504.379 133.052 505.345 132.96 506.249 132.645C507.152 132.329 507.965 131.8 508.62 131.101C509.274 130.403 509.749 129.556 510.005 128.634H515.747C516.001 129.56 516.476 130.41 517.13 131.112C517.784 131.813 518.599 132.346 519.504 132.664C520.41 132.981 521.378 133.075 522.328 132.936C523.277 132.797 524.178 132.429 524.954 131.865C525.73 131.301 526.358 130.557 526.784 129.697C527.21 128.837 527.421 127.887 527.4 126.927C527.378 125.967 527.124 125.027 526.66 124.188C526.195 123.348 525.534 122.633 524.733 122.105L526.556 116.633H526.738C527.544 116.678 528.35 116.558 529.108 116.28C529.865 116.002 530.558 115.573 531.144 115.018C531.73 114.463 532.197 113.795 532.516 113.053C532.835 112.312 533 111.513 533 110.706C533 109.898 532.835 109.1 532.516 108.358C532.197 107.617 531.73 106.948 531.144 106.393C530.558 105.838 529.865 105.409 529.108 105.131C528.35 104.854 527.544 104.733 526.738 104.778C525.396 104.775 524.093 105.232 523.047 106.073L518.399 102.699C518.646 102.03 518.772 101.323 518.773 100.611C518.774 99.8303 518.621 99.0574 518.324 98.336C518.026 97.6147 517.589 96.9592 517.038 96.407C516.487 95.8547 515.833 95.4166 515.112 95.1177C514.392 94.8188 513.619 94.6649 512.84 94.6649V94.6649Z" fill="white"/>
<path d="M526.739 105.671C526.057 105.669 525.382 105.806 524.755 106.075C524.128 106.343 523.563 106.736 523.093 107.23L517.251 102.981C517.665 102.215 517.874 101.355 517.856 100.485C517.838 99.6148 517.595 98.7641 517.15 98.0163C516.705 97.2685 516.073 96.6492 515.317 96.2191C514.56 95.789 513.705 95.5629 512.835 95.5629C511.965 95.5629 511.11 95.789 510.354 96.2191C509.598 96.6492 508.966 97.2685 508.521 98.0163C508.076 98.7641 507.832 99.6148 507.815 100.485C507.797 101.355 508.005 102.215 508.42 102.981L502.569 107.23C501.996 106.633 501.284 106.187 500.497 105.933C499.709 105.678 498.871 105.622 498.057 105.77C497.244 105.918 496.479 106.265 495.832 106.781C495.184 107.296 494.675 107.964 494.348 108.725C494.022 109.485 493.888 110.315 493.96 111.14C494.032 111.964 494.306 112.758 494.759 113.451C495.212 114.144 495.83 114.714 496.556 115.109C497.283 115.505 498.096 115.715 498.923 115.72C499.229 115.721 499.534 115.694 499.834 115.638L502.067 122.505C501.285 122.881 500.614 123.453 500.12 124.165C499.625 124.878 499.323 125.707 499.245 126.572C499.166 127.436 499.313 128.306 499.671 129.096C500.029 129.887 500.585 130.571 501.287 131.082C501.988 131.592 502.809 131.912 503.671 132.01C504.533 132.108 505.405 131.981 506.203 131.64C507.001 131.3 507.697 130.758 508.223 130.068C508.749 129.378 509.087 128.563 509.204 127.703H516.44C516.556 128.563 516.893 129.378 517.418 130.068C517.943 130.759 518.638 131.301 519.435 131.643C520.232 131.984 521.105 132.113 521.966 132.016C522.828 131.919 523.65 131.6 524.352 131.091C525.053 130.581 525.611 129.898 525.97 129.108C526.329 128.319 526.477 127.449 526.4 126.585C526.323 125.721 526.023 124.891 525.53 124.178C525.036 123.464 524.366 122.891 523.585 122.514L525.827 115.638C526.128 115.694 526.433 115.721 526.739 115.72C527.422 115.762 528.107 115.662 528.751 115.429C529.395 115.196 529.985 114.833 530.483 114.363C530.982 113.893 531.379 113.326 531.651 112.697C531.923 112.068 532.063 111.39 532.063 110.705C532.063 110.019 531.923 109.341 531.651 108.712C531.379 108.083 530.982 107.516 530.483 107.046C529.985 106.576 529.395 106.214 528.751 105.98C528.107 105.747 527.422 105.648 526.739 105.689V105.671ZM521.416 130.712C520.695 130.712 519.99 130.498 519.391 130.098C518.791 129.697 518.324 129.127 518.048 128.461C517.772 127.794 517.7 127.061 517.841 126.353C517.981 125.645 518.328 124.995 518.838 124.485C519.348 123.975 519.998 123.628 520.705 123.487C521.412 123.346 522.145 123.418 522.811 123.695C523.477 123.971 524.047 124.438 524.447 125.038C524.848 125.638 525.062 126.343 525.062 127.065C525.062 128.032 524.678 128.96 523.994 129.644C523.31 130.328 522.383 130.712 521.416 130.712ZM509.213 126.362C509.063 125.23 508.529 124.184 507.7 123.399L510.434 119.578C511.166 119.967 511.983 120.17 512.813 120.17C513.639 120.173 514.454 119.97 515.182 119.578L517.916 123.399C517.084 124.183 516.547 125.229 516.394 126.362H509.213ZM500.564 127.037C500.564 126.316 500.777 125.611 501.178 125.011C501.579 124.411 502.148 123.943 502.814 123.667C503.48 123.391 504.213 123.319 504.92 123.46C505.628 123.6 506.277 123.948 506.787 124.458C507.297 124.968 507.644 125.618 507.785 126.326C507.925 127.033 507.853 127.767 507.577 128.433C507.301 129.1 506.834 129.669 506.234 130.07C505.635 130.471 504.93 130.685 504.209 130.685C503.242 130.685 502.315 130.301 501.631 129.617C500.948 128.933 500.564 128.005 500.564 127.037ZM498.941 107.02C499.662 107.02 500.367 107.234 500.967 107.635C501.566 108.036 502.033 108.606 502.309 109.272C502.585 109.939 502.657 110.672 502.517 111.38C502.376 112.087 502.029 112.737 501.519 113.248C501.009 113.758 500.36 114.105 499.653 114.246C498.945 114.387 498.212 114.314 497.546 114.038C496.88 113.762 496.311 113.295 495.91 112.695C495.51 112.095 495.296 111.39 495.296 110.668C495.296 109.701 495.68 108.773 496.364 108.089C497.047 107.405 497.974 107.02 498.941 107.02ZM509.158 100.637C509.158 99.9156 509.372 99.2103 509.772 98.6104C510.173 98.0106 510.742 97.5431 511.408 97.267C512.075 96.9909 512.808 96.9186 513.515 97.0594C514.222 97.2001 514.871 97.5475 515.381 98.0577C515.891 98.5678 516.238 99.2178 516.379 99.9254C516.52 100.633 516.447 101.366 516.172 102.033C515.896 102.699 515.428 103.269 514.829 103.67C514.229 104.071 513.525 104.285 512.803 104.285C512.321 104.285 511.843 104.189 511.398 104.003C510.952 103.817 510.549 103.544 510.209 103.2C509.87 102.857 509.603 102.449 509.422 102.001C509.242 101.553 509.152 101.074 509.158 100.591V100.637ZM521.79 111.58L517.37 112.994C517.009 112.239 516.468 111.586 515.793 111.093C515.119 110.599 514.333 110.281 513.505 110.167V105.607C514.634 105.457 515.677 104.922 516.458 104.093L522.318 108.343C521.922 109.073 521.715 109.892 521.717 110.723C521.719 111.007 521.743 111.291 521.79 111.571V111.58ZM516.513 115.164C516.513 115.885 516.299 116.591 515.898 117.191C515.498 117.79 514.929 118.258 514.262 118.534C513.596 118.81 512.863 118.882 512.156 118.742C511.449 118.601 510.799 118.253 510.289 117.743C509.78 117.233 509.432 116.583 509.292 115.876C509.151 115.168 509.223 114.435 509.499 113.768C509.775 113.102 510.242 112.532 510.842 112.131C511.441 111.73 512.146 111.516 512.867 111.516C513.833 111.516 514.758 111.899 515.442 112.581C516.125 113.264 516.51 114.189 516.513 115.155V115.164ZM512.156 105.607V110.167C511.331 110.279 510.546 110.596 509.873 111.088C509.2 111.58 508.66 112.232 508.301 112.984L503.872 111.571C503.929 111.27 503.956 110.965 503.954 110.659C503.946 109.85 503.743 109.056 503.362 108.343L509.213 104.084C509.99 104.915 511.03 105.452 512.156 105.607ZM503.462 112.902L507.891 114.316C507.835 114.617 507.807 114.922 507.809 115.228C507.806 115.911 507.943 116.588 508.213 117.215C508.483 117.843 508.879 118.408 509.377 118.876L506.643 122.706C505.915 122.31 505.101 122.103 504.273 122.104C503.967 122.102 503.662 122.129 503.362 122.186L501.12 115.219C502.142 114.734 502.971 113.918 503.471 112.902H503.462ZM521.416 122.022C520.59 122.023 519.776 122.226 519.046 122.614L516.312 118.803C516.808 118.334 517.203 117.768 517.473 117.141C517.743 116.514 517.881 115.838 517.88 115.155C517.882 114.849 517.855 114.544 517.798 114.243L522.182 112.848C522.678 113.879 523.506 114.714 524.533 115.219L522.3 122.095C522.008 122.044 521.712 122.019 521.416 122.022ZM523.093 110.696C523.093 109.974 523.307 109.269 523.707 108.669C524.108 108.069 524.677 107.602 525.343 107.326C526.01 107.049 526.743 106.977 527.45 107.118C528.157 107.259 528.807 107.606 529.316 108.116C529.826 108.626 530.173 109.276 530.314 109.984C530.455 110.692 530.383 111.425 530.107 112.091C529.831 112.758 529.363 113.328 528.764 113.729C528.164 114.129 527.46 114.343 526.739 114.343C525.772 114.343 524.844 113.959 524.161 113.275C523.477 112.591 523.093 111.663 523.093 110.696Z" fill="#AA643B"/>
<path d="M69.448 132L65.128 120.368H67.368L70.472 129.52L73.576 120.368H75.736L71.416 132H69.448ZM85.1629 129.792V131.488C84.7149 131.723 84.2135 131.899 83.6589 132.016C83.1042 132.144 82.5122 132.208 81.8829 132.208C80.0909 132.208 78.7149 131.68 77.7549 130.624C76.8055 129.568 76.3309 128.043 76.3309 126.048C76.3309 124.821 76.5549 123.771 77.0029 122.896C77.4615 122.021 78.1122 121.349 78.9549 120.88C79.8082 120.4 80.8162 120.16 81.9789 120.16C82.4909 120.16 82.9975 120.219 83.4989 120.336C84.0002 120.453 84.4322 120.619 84.7949 120.832V122.512C84.2402 122.288 83.7549 122.128 83.3389 122.032C82.9229 121.936 82.5122 121.888 82.1069 121.888C80.9122 121.888 79.9895 122.256 79.3389 122.992C78.6882 123.717 78.3629 124.736 78.3629 126.048C78.3629 127.467 78.6829 128.56 79.3229 129.328C79.9735 130.085 80.9015 130.464 82.1069 130.464C82.5762 130.464 83.0509 130.411 83.5309 130.304C84.0215 130.197 84.5655 130.027 85.1629 129.792ZM86.9035 132V120.368H88.7755L94.3595 128.72V120.368H96.3435V132H94.4715L88.8875 123.664V132H86.9035Z" fill="#AE562C"/>
<rect x="70.5" y="143.5" width="442" height="141" fill="white"/>
<rect x="70.5" y="143.5" width="442" height="141" stroke="#9E9892" stroke-dasharray="2 2"/>
<path d="M160.263 163.16V164.44C159.836 164.675 159.329 164.861 158.743 165C158.167 165.128 157.58 165.192 156.983 165.192C155.255 165.192 153.916 164.664 152.967 163.608C152.028 162.541 151.559 161.027 151.559 159.064C151.559 157.837 151.777 156.787 152.215 155.912C152.663 155.037 153.297 154.365 154.119 153.896C154.94 153.416 155.916 153.176 157.047 153.176C157.548 153.176 158.055 153.24 158.567 153.368C159.089 153.496 159.516 153.672 159.847 153.896V155.176C159.292 154.931 158.807 154.755 158.391 154.648C157.975 154.541 157.559 154.488 157.143 154.488C155.863 154.488 154.865 154.888 154.151 155.688C153.436 156.477 153.079 157.603 153.079 159.064C153.079 160.611 153.431 161.8 154.135 162.632C154.849 163.464 155.852 163.88 157.143 163.88C158.103 163.88 159.143 163.64 160.263 163.16ZM165.445 165.176C164.186 165.176 163.21 164.792 162.517 164.024C161.823 163.245 161.477 162.179 161.477 160.824C161.477 159.459 161.823 158.392 162.517 157.624C163.21 156.856 164.186 156.472 165.445 156.472C166.714 156.472 167.695 156.856 168.389 157.624C169.082 158.392 169.429 159.459 169.429 160.824C169.429 162.179 169.082 163.245 168.389 164.024C167.695 164.792 166.714 165.176 165.445 165.176ZM165.445 163.992C166.266 163.992 166.89 163.725 167.317 163.192C167.743 162.648 167.957 161.859 167.957 160.824C167.957 159.789 167.743 159.005 167.317 158.472C166.89 157.928 166.266 157.656 165.445 157.656C164.634 157.656 164.015 157.928 163.589 158.472C163.162 159.005 162.949 159.789 162.949 160.824C162.949 161.859 163.162 162.648 163.589 163.192C164.015 163.725 164.634 163.992 165.445 163.992ZM171.302 165V156.648H172.278L172.534 158.072C172.886 157.56 173.318 157.165 173.83 156.888C174.342 156.611 174.918 156.472 175.558 156.472C176.518 156.472 177.254 156.76 177.766 157.336C178.278 157.912 178.534 158.744 178.534 159.832V165H177.094V159.88C177.094 158.429 176.464 157.704 175.206 157.704C174.672 157.704 174.182 157.869 173.734 158.2C173.296 158.52 172.966 158.957 172.742 159.512V165H171.302ZM181.12 162.456V157.832H179.68V157.096L181.12 156.616L181.696 154.344H182.56V156.648H184.368V157.832H182.56V162.44C182.56 163.357 182.955 163.816 183.744 163.816C183.872 163.816 183.995 163.811 184.112 163.8C184.24 163.779 184.358 163.763 184.464 163.752V165C184.315 165.032 184.16 165.053 184 165.064C183.851 165.075 183.691 165.08 183.52 165.08C182.699 165.08 182.091 164.867 181.696 164.44C181.312 164.013 181.12 163.352 181.12 162.456ZM191.627 165L191.387 163.656C190.704 164.669 189.776 165.176 188.603 165.176C187.76 165.176 187.083 164.941 186.571 164.472C186.07 163.992 185.819 163.357 185.819 162.568C185.819 161.693 186.118 161.016 186.715 160.536C187.323 160.045 188.166 159.8 189.243 159.8H191.163V159.272C191.163 158.675 191.03 158.253 190.763 158.008C190.507 157.763 190.064 157.64 189.435 157.64C189.03 157.64 188.598 157.688 188.139 157.784C187.68 157.869 187.163 158.013 186.587 158.216V157.048C186.992 156.867 187.456 156.728 187.979 156.632C188.502 156.525 188.992 156.472 189.451 156.472C191.552 156.472 192.603 157.405 192.603 159.272V165H191.627ZM188.779 164.024C189.27 164.024 189.728 163.885 190.155 163.608C190.582 163.32 190.923 162.931 191.179 162.44V160.856H189.387C188.662 160.856 188.123 160.989 187.771 161.256C187.43 161.512 187.259 161.912 187.259 162.456C187.259 162.936 187.392 163.32 187.659 163.608C187.936 163.885 188.31 164.024 188.779 164.024ZM194.719 154.712V153.416H196.479V154.712H194.719ZM195.055 165V157.768L194.223 157.24V156.648H196.495V165H195.055ZM198.895 165V156.648H199.871L200.127 158.072C200.479 157.56 200.911 157.165 201.423 156.888C201.935 156.611 202.511 156.472 203.151 156.472C204.111 156.472 204.847 156.76 205.359 157.336C205.871 157.912 206.127 158.744 206.127 159.832V165H204.687V159.88C204.687 158.429 204.058 157.704 202.799 157.704C202.266 157.704 201.775 157.869 201.327 158.2C200.89 158.52 200.559 158.957 200.335 159.512V165H198.895ZM214.746 164.584C214.448 164.765 214.048 164.909 213.546 165.016C213.056 165.123 212.517 165.176 211.93 165.176C210.608 165.176 209.605 164.803 208.922 164.056C208.25 163.299 207.914 162.195 207.914 160.744C207.914 159.347 208.234 158.285 208.874 157.56C209.525 156.835 210.453 156.472 211.658 156.472C213.984 156.472 215.146 157.757 215.146 160.328V161.256H209.37C209.434 162.195 209.685 162.883 210.122 163.32C210.56 163.747 211.21 163.96 212.074 163.96C212.554 163.96 213.008 163.912 213.434 163.816C213.861 163.72 214.298 163.571 214.746 163.368V164.584ZM211.658 157.656C210.954 157.656 210.405 157.869 210.01 158.296C209.626 158.712 209.413 159.32 209.37 160.12H213.754C213.754 159.245 213.589 158.616 213.258 158.232C212.938 157.848 212.405 157.656 211.658 157.656ZM216.973 165V156.648H217.949L218.237 158.216C218.781 157.16 219.56 156.632 220.573 156.632C220.787 156.632 220.973 156.648 221.133 156.68V157.944H220.765C220.157 157.944 219.651 158.115 219.245 158.456C218.84 158.797 218.563 159.293 218.413 159.944V165H216.973ZM226.913 165V153.368H234.081V154.648H228.401V158.456H233.617V159.736H228.401V163.72H234.241V165H226.913ZM236.145 165V156.648H237.121L237.377 158.072C237.729 157.56 238.161 157.165 238.673 156.888C239.185 156.611 239.761 156.472 240.401 156.472C241.361 156.472 242.097 156.76 242.609 157.336C243.121 157.912 243.377 158.744 243.377 159.832V165H241.937V159.88C241.937 158.429 241.308 157.704 240.049 157.704C239.516 157.704 239.025 157.869 238.577 158.2C238.14 158.52 237.809 158.957 237.585 159.512V165H236.145ZM245.516 163.992L245.228 163.16L246.492 161.208C245.98 160.707 245.724 160.067 245.724 159.288C245.724 158.403 246.028 157.715 246.636 157.224C247.255 156.723 248.108 156.472 249.196 156.472C249.751 156.472 250.252 156.552 250.7 156.712L253.388 156.68V157.4L252.268 157.752C252.684 158.157 252.892 158.685 252.892 159.336C252.892 160.211 252.572 160.893 251.932 161.384C251.303 161.875 250.428 162.12 249.308 162.12C248.615 162.12 248.007 162.019 247.484 161.816L246.764 162.936L250.844 163.496C251.73 163.613 252.375 163.859 252.78 164.232C253.196 164.605 253.404 165.117 253.404 165.768C253.404 166.579 253.036 167.219 252.3 167.688C251.575 168.157 250.578 168.392 249.308 168.392C248.028 168.392 247.042 168.184 246.348 167.768C245.666 167.363 245.324 166.776 245.324 166.008C245.324 165.283 245.66 164.648 246.332 164.104L245.516 163.992ZM247.1 159.288C247.1 160.429 247.836 161 249.308 161C250.78 161 251.516 160.429 251.516 159.288C251.516 158.147 250.78 157.576 249.308 157.576C247.836 157.576 247.1 158.147 247.1 159.288ZM246.732 165.752C246.732 166.755 247.591 167.256 249.308 167.256C250.13 167.256 250.775 167.123 251.244 166.856C251.724 166.6 251.964 166.253 251.964 165.816C251.964 165.485 251.863 165.235 251.66 165.064C251.468 164.893 251.122 164.771 250.62 164.696L247.452 164.264C246.972 164.68 246.732 165.176 246.732 165.752ZM255.094 154.712V153.416H256.854V154.712H255.094ZM255.43 165V157.768L254.598 157.24V156.648H256.87V165H255.43ZM259.27 165V156.648H260.246L260.502 158.072C260.854 157.56 261.286 157.165 261.798 156.888C262.31 156.611 262.886 156.472 263.526 156.472C264.486 156.472 265.222 156.76 265.734 157.336C266.246 157.912 266.502 158.744 266.502 159.832V165H265.062V159.88C265.062 158.429 264.433 157.704 263.174 157.704C262.641 157.704 262.15 157.869 261.702 158.2C261.265 158.52 260.934 158.957 260.71 159.512V165H259.27ZM275.121 164.584C274.823 164.765 274.423 164.909 273.921 165.016C273.431 165.123 272.892 165.176 272.305 165.176C270.983 165.176 269.98 164.803 269.297 164.056C268.625 163.299 268.289 162.195 268.289 160.744C268.289 159.347 268.609 158.285 269.249 157.56C269.9 156.835 270.828 156.472 272.033 156.472C274.359 156.472 275.521 157.757 275.521 160.328V161.256H269.745C269.809 162.195 270.06 162.883 270.497 163.32C270.935 163.747 271.585 163.96 272.449 163.96C272.929 163.96 273.383 163.912 273.809 163.816C274.236 163.72 274.673 163.571 275.121 163.368V164.584ZM272.033 157.656C271.329 157.656 270.78 157.869 270.385 158.296C270.001 158.712 269.788 159.32 269.745 160.12H274.129C274.129 159.245 273.964 158.616 273.633 158.232C273.313 157.848 272.78 157.656 272.033 157.656ZM281.734 165V157.832H280.294V157.096L281.734 156.616V155.688C281.734 153.811 282.63 152.872 284.422 152.872C284.614 152.872 284.822 152.893 285.046 152.936V154.056C284.918 154.035 284.748 154.024 284.534 154.024C284.044 154.024 283.692 154.157 283.478 154.424C283.276 154.68 283.174 155.096 283.174 155.672V156.648H285.11V157.832H283.174V165H281.734ZM289.804 165.176C288.545 165.176 287.569 164.792 286.876 164.024C286.183 163.245 285.836 162.179 285.836 160.824C285.836 159.459 286.183 158.392 286.876 157.624C287.569 156.856 288.545 156.472 289.804 156.472C291.073 156.472 292.055 156.856 292.748 157.624C293.441 158.392 293.788 159.459 293.788 160.824C293.788 162.179 293.441 163.245 292.748 164.024C292.055 164.792 291.073 165.176 289.804 165.176ZM289.804 163.992C290.625 163.992 291.249 163.725 291.676 163.192C292.103 162.648 292.316 161.859 292.316 160.824C292.316 159.789 292.103 159.005 291.676 158.472C291.249 157.928 290.625 157.656 289.804 157.656C288.993 157.656 288.375 157.928 287.948 158.472C287.521 159.005 287.308 159.789 287.308 160.824C287.308 161.859 287.521 162.648 287.948 163.192C288.375 163.725 288.993 163.992 289.804 163.992ZM295.661 165V156.648H296.637L296.925 158.216C297.469 157.16 298.248 156.632 299.261 156.632C299.474 156.632 299.661 156.648 299.821 156.68V157.944H299.453C298.845 157.944 298.338 158.115 297.933 158.456C297.528 158.797 297.25 159.293 297.101 159.944V165H295.661ZM305.601 165V153.368H307.089V158.664L312.305 153.368H314.097L308.785 158.68L314.417 165H312.561L307.857 159.672H307.089V165H305.601ZM315.44 161.816V156.648H316.88V161.768C316.88 162.483 317.035 163.032 317.344 163.416C317.654 163.8 318.107 163.992 318.704 163.992C319.206 163.992 319.675 163.821 320.112 163.48C320.56 163.128 320.896 162.664 321.12 162.088V156.648H322.56V165H321.584L321.328 163.576C320.987 164.088 320.555 164.483 320.032 164.76C319.52 165.037 318.96 165.176 318.352 165.176C317.424 165.176 316.704 164.888 316.192 164.312C315.691 163.736 315.44 162.904 315.44 161.816ZM324.91 164.616V152.984H326.35V157.528C327.054 156.824 327.88 156.472 328.83 156.472C329.939 156.472 330.792 156.84 331.39 157.576C331.987 158.312 332.286 159.368 332.286 160.744C332.286 162.131 331.907 163.219 331.15 164.008C330.392 164.787 329.336 165.176 327.982 165.176C327.459 165.176 326.91 165.123 326.334 165.016C325.758 164.92 325.283 164.787 324.91 164.616ZM328.558 157.624C328.174 157.624 327.784 157.72 327.39 157.912C327.006 158.104 326.659 158.376 326.35 158.728V163.784C326.563 163.848 326.803 163.901 327.07 163.944C327.336 163.976 327.63 163.992 327.95 163.992C329.859 163.992 330.814 162.904 330.814 160.728C330.814 159.715 330.622 158.947 330.238 158.424C329.864 157.891 329.304 157.624 328.558 157.624ZM340.465 164.584C340.166 164.765 339.766 164.909 339.265 165.016C338.774 165.123 338.236 165.176 337.649 165.176C336.326 165.176 335.324 164.803 334.641 164.056C333.969 163.299 333.633 162.195 333.633 160.744C333.633 159.347 333.953 158.285 334.593 157.56C335.244 156.835 336.172 156.472 337.377 156.472C339.702 156.472 340.865 157.757 340.865 160.328V161.256H335.089C335.153 162.195 335.404 162.883 335.841 163.32C336.278 163.747 336.929 163.96 337.793 163.96C338.273 163.96 338.726 163.912 339.153 163.816C339.58 163.72 340.017 163.571 340.465 163.368V164.584ZM337.377 157.656C336.673 157.656 336.124 157.869 335.729 158.296C335.345 158.712 335.132 159.32 335.089 160.12H339.473C339.473 159.245 339.308 158.616 338.977 158.232C338.657 157.848 338.124 157.656 337.377 157.656ZM342.692 165V156.648H343.668L343.956 158.216C344.5 157.16 345.279 156.632 346.292 156.632C346.506 156.632 346.692 156.648 346.852 156.68V157.944H346.484C345.876 157.944 345.37 158.115 344.964 158.456C344.559 158.797 344.282 159.293 344.132 159.944V165H342.692ZM348.614 165V156.648H349.59L349.846 158.072C350.198 157.56 350.63 157.165 351.142 156.888C351.654 156.611 352.23 156.472 352.87 156.472C353.83 156.472 354.566 156.76 355.078 157.336C355.59 157.912 355.846 158.744 355.846 159.832V165H354.406V159.88C354.406 158.429 353.777 157.704 352.518 157.704C351.985 157.704 351.494 157.869 351.046 158.2C350.609 158.52 350.278 158.957 350.054 159.512V165H348.614ZM364.465 164.584C364.166 164.765 363.766 164.909 363.265 165.016C362.774 165.123 362.236 165.176 361.649 165.176C360.326 165.176 359.324 164.803 358.641 164.056C357.969 163.299 357.633 162.195 357.633 160.744C357.633 159.347 357.953 158.285 358.593 157.56C359.244 156.835 360.172 156.472 361.377 156.472C363.702 156.472 364.865 157.757 364.865 160.328V161.256H359.089C359.153 162.195 359.404 162.883 359.841 163.32C360.278 163.747 360.929 163.96 361.793 163.96C362.273 163.96 362.726 163.912 363.153 163.816C363.58 163.72 364.017 163.571 364.465 163.368V164.584ZM361.377 157.656C360.673 157.656 360.124 157.869 359.729 158.296C359.345 158.712 359.132 159.32 359.089 160.12H363.473C363.473 159.245 363.308 158.616 362.977 158.232C362.657 157.848 362.124 157.656 361.377 157.656ZM367.12 162.456V157.832H365.68V157.096L367.12 156.616L367.696 154.344H368.56V156.648H370.368V157.832H368.56V162.44C368.56 163.357 368.955 163.816 369.744 163.816C369.872 163.816 369.995 163.811 370.112 163.8C370.24 163.779 370.358 163.763 370.464 163.752V165C370.315 165.032 370.16 165.053 370 165.064C369.851 165.075 369.691 165.08 369.52 165.08C368.699 165.08 368.091 164.867 367.696 164.44C367.312 164.013 367.12 163.352 367.12 162.456ZM378.402 164.584C378.104 164.765 377.704 164.909 377.202 165.016C376.712 165.123 376.173 165.176 375.586 165.176C374.264 165.176 373.261 164.803 372.578 164.056C371.906 163.299 371.57 162.195 371.57 160.744C371.57 159.347 371.89 158.285 372.53 157.56C373.181 156.835 374.109 156.472 375.314 156.472C377.64 156.472 378.802 157.757 378.802 160.328V161.256H373.026C373.09 162.195 373.341 162.883 373.778 163.32C374.216 163.747 374.866 163.96 375.73 163.96C376.21 163.96 376.664 163.912 377.09 163.816C377.517 163.72 377.954 163.571 378.402 163.368V164.584ZM375.314 157.656C374.61 157.656 374.061 157.869 373.666 158.296C373.282 158.712 373.069 159.32 373.026 160.12H377.41C377.41 159.245 377.245 158.616 376.914 158.232C376.594 157.848 376.061 157.656 375.314 157.656ZM380.338 164.584V163.368C380.839 163.581 381.293 163.736 381.698 163.832C382.114 163.928 382.551 163.976 383.01 163.976C384.397 163.976 385.09 163.56 385.09 162.728C385.09 162.397 384.989 162.141 384.786 161.96C384.583 161.768 384.226 161.603 383.714 161.464L382.402 161.112C381.634 160.899 381.074 160.611 380.722 160.248C380.37 159.875 380.194 159.4 380.194 158.824C380.194 158.099 380.477 157.528 381.042 157.112C381.618 156.685 382.391 156.472 383.362 156.472C383.895 156.472 384.381 156.515 384.818 156.6C385.255 156.685 385.634 156.803 385.954 156.952V158.168C385.133 157.837 384.301 157.672 383.458 157.672C382.242 157.672 381.634 158.024 381.634 158.728C381.634 159.027 381.725 159.267 381.906 159.448C382.098 159.619 382.429 159.768 382.898 159.896L384.226 160.248C385.037 160.461 385.623 160.76 385.986 161.144C386.349 161.517 386.53 162.024 386.53 162.664C386.53 163.443 386.226 164.056 385.618 164.504C385.01 164.952 384.167 165.176 383.09 165.176C382.578 165.176 382.077 165.123 381.586 165.016C381.095 164.909 380.679 164.765 380.338 164.584ZM395.697 168.216H394.209C393.718 167.693 393.281 167.021 392.897 166.2C392.524 165.389 392.23 164.499 392.017 163.528C391.814 162.557 391.713 161.581 391.713 160.6C391.713 159.608 391.814 158.627 392.017 157.656C392.23 156.685 392.524 155.795 392.897 154.984C393.281 154.173 393.718 153.507 394.209 152.984H395.697C394.918 153.933 394.31 155.075 393.873 156.408C393.446 157.741 393.233 159.139 393.233 160.6C393.233 162.061 393.446 163.459 393.873 164.792C394.31 166.125 394.918 167.267 395.697 168.216ZM401.633 165.192C399.969 165.192 398.689 164.675 397.793 163.64C396.907 162.605 396.465 161.123 396.465 159.192C396.465 157.261 396.913 155.779 397.809 154.744C398.705 153.699 399.979 153.176 401.633 153.176C403.286 153.176 404.555 153.699 405.441 154.744C406.337 155.779 406.785 157.261 406.785 159.192C406.785 161.123 406.337 162.605 405.441 163.64C404.555 164.675 403.286 165.192 401.633 165.192ZM401.633 163.896C402.827 163.896 403.729 163.501 404.337 162.712C404.955 161.912 405.265 160.739 405.265 159.192C405.265 157.635 404.955 156.461 404.337 155.672C403.729 154.872 402.827 154.472 401.633 154.472C399.201 154.472 397.985 156.045 397.985 159.192C397.985 160.739 398.289 161.912 398.897 162.712C399.515 163.501 400.427 163.896 401.633 163.896ZM408.913 165V153.368H410.401V158.664L415.617 153.368H417.409L412.097 158.68L417.729 165H415.873L411.169 159.672H410.401V165H408.913ZM419.085 165V153.368H426.253V154.648H420.573V158.456H425.789V159.736H420.573V163.72H426.413V165H419.085ZM429.021 168.216H427.533C428.323 167.267 428.931 166.125 429.357 164.792C429.784 163.459 429.997 162.061 429.997 160.6C429.997 159.139 429.784 157.741 429.357 156.408C428.931 155.075 428.323 153.933 427.533 152.984H429.021C429.523 153.507 429.96 154.173 430.333 154.984C430.707 155.795 430.995 156.685 431.197 157.656C431.411 158.627 431.517 159.608 431.517 160.6C431.517 161.581 431.411 162.557 431.197 163.528C430.995 164.499 430.707 165.389 430.333 166.2C429.96 167.021 429.523 167.693 429.021 168.216Z" fill="#312D2A"/>
<path d="M289.85 414.286C288.139 414.286 286.714 412.857 286.714 411.143V358.857C286.714 357.143 288.139 355.714 289.85 355.714H342.154C343.864 355.714 345.289 357.143 345.289 358.857V411.286C345.289 413 343.864 414.429 342.154 414.429L289.85 414.286Z" fill="white"/>
<path d="M342.01 356.429C343.292 356.429 344.432 357.571 344.432 358.857V411.286C344.432 412.571 343.292 413.714 342.01 413.714H289.848C288.565 413.571 287.425 412.429 287.425 411.143V358.857C287.425 357.571 288.565 356.429 289.848 356.429H342.01ZM342.01 355H289.848C287.71 355 286 356.714 286 358.857V411.286C286 413.286 287.71 415 289.848 415H342.152C344.29 415 346 413.286 346 411.143V358.857C345.857 356.714 344.147 355 342.01 355Z" fill="white"/>
<path d="M329.325 371.572L333.173 378.286L329.325 385H321.629L317.781 378.286L321.629 371.572H329.325ZM330.608 369.572H320.346L315.216 378.429L320.346 387.286H330.608L335.738 378.429L330.608 369.572Z" fill="#2D5967"/>
<path d="M315.499 392C319.205 392 322.198 395 322.198 398.714C322.198 402.429 319.205 405.429 315.499 405.429C311.794 405.429 308.801 402.429 308.801 398.714C308.801 395 311.794 392 315.499 392ZM315.499 390C310.654 390 306.663 394 306.663 398.857C306.663 403.714 310.654 407.714 315.499 407.714C320.345 407.714 324.336 403.714 324.336 398.857C324.336 393.857 320.345 390 315.499 390Z" fill="#2D5967"/>
<path d="M305.382 373.286L311.652 384.572H299.253L305.382 373.286ZM305.382 369.001L295.69 386.715H315.215L305.382 369.001Z" fill="#2D5967"/>
<path d="M342.01 413.572H289.848C288.566 413.572 287.426 412.429 287.426 411.144V362.144H344.433V411.144C344.433 412.429 343.293 413.572 342.01 413.572ZM289.563 364.286V411.286C289.563 411.429 289.706 411.572 289.848 411.572H342.152C342.295 411.572 342.438 411.429 342.438 411.286V364.286H289.563Z" fill="#2D5967"/>
<path d="M344.433 360.572H287.426V358.858C287.426 357.572 288.566 356.429 289.848 356.429H342.152C343.293 356.429 344.433 357.572 344.433 358.858V360.572Z" fill="#2D5967"/>
<path d="M283.367 433.192C281.703 433.192 280.423 432.675 279.527 431.64C278.642 430.605 278.199 429.123 278.199 427.192C278.199 425.261 278.647 423.779 279.543 422.744C280.439 421.699 281.714 421.176 283.367 421.176C285.021 421.176 286.29 421.699 287.175 422.744C288.071 423.779 288.519 425.261 288.519 427.192C288.519 429.123 288.071 430.605 287.175 431.64C286.29 432.675 285.021 433.192 283.367 433.192ZM283.367 431.896C284.562 431.896 285.463 431.501 286.071 430.712C286.69 429.912 286.999 428.739 286.999 427.192C286.999 425.635 286.69 424.461 286.071 423.672C285.463 422.872 284.562 422.472 283.367 422.472C280.935 422.472 279.719 424.045 279.719 427.192C279.719 428.739 280.023 429.912 280.631 430.712C281.25 431.501 282.162 431.896 283.367 431.896ZM298.888 431.16V432.44C298.461 432.675 297.954 432.861 297.368 433C296.792 433.128 296.205 433.192 295.608 433.192C293.88 433.192 292.541 432.664 291.592 431.608C290.653 430.541 290.184 429.027 290.184 427.064C290.184 425.837 290.402 424.787 290.84 423.912C291.288 423.037 291.922 422.365 292.744 421.896C293.565 421.416 294.541 421.176 295.672 421.176C296.173 421.176 296.68 421.24 297.192 421.368C297.714 421.496 298.141 421.672 298.472 421.896V423.176C297.917 422.931 297.432 422.755 297.016 422.648C296.6 422.541 296.184 422.488 295.768 422.488C294.488 422.488 293.49 422.888 292.776 423.688C292.061 424.477 291.704 425.603 291.704 427.064C291.704 428.611 292.056 429.8 292.76 430.632C293.474 431.464 294.477 431.88 295.768 431.88C296.728 431.88 297.768 431.64 298.888 431.16ZM300.726 433V421.368H302.214V433H300.726ZM313.43 433.192C311.766 433.192 310.486 432.675 309.59 431.64C308.704 430.605 308.262 429.123 308.262 427.192C308.262 425.261 308.71 423.779 309.606 422.744C310.502 421.699 311.776 421.176 313.43 421.176C315.083 421.176 316.352 421.699 317.238 422.744C318.134 423.779 318.582 425.261 318.582 427.192C318.582 429.123 318.134 430.605 317.238 431.64C316.352 432.675 315.083 433.192 313.43 433.192ZM313.43 431.896C314.624 431.896 315.526 431.501 316.134 430.712C316.752 429.912 317.062 428.739 317.062 427.192C317.062 425.635 316.752 424.461 316.134 423.672C315.526 422.872 314.624 422.472 313.43 422.472C310.998 422.472 309.782 424.045 309.782 427.192C309.782 428.739 310.086 429.912 310.694 430.712C311.312 431.501 312.224 431.896 313.43 431.896ZM320.566 432.616V420.984H322.006V425.528C322.71 424.824 323.537 424.472 324.486 424.472C325.595 424.472 326.449 424.84 327.046 425.576C327.643 426.312 327.942 427.368 327.942 428.744C327.942 430.131 327.563 431.219 326.806 432.008C326.049 432.787 324.993 433.176 323.638 433.176C323.115 433.176 322.566 433.123 321.99 433.016C321.414 432.92 320.939 432.787 320.566 432.616ZM324.214 425.624C323.83 425.624 323.441 425.72 323.046 425.912C322.662 426.104 322.315 426.376 322.006 426.728V431.784C322.219 431.848 322.459 431.901 322.726 431.944C322.993 431.976 323.286 431.992 323.606 431.992C325.515 431.992 326.47 430.904 326.47 428.728C326.47 427.715 326.278 426.947 325.894 426.424C325.521 425.891 324.961 425.624 324.214 425.624ZM329.609 422.712V421.416H331.369V422.712H329.609ZM329.833 436.472L328.905 435.544L329.209 435.208C329.7 434.653 329.945 433.875 329.945 432.872V425.768L329.113 425.24V424.648H331.385V432.888C331.385 433.347 331.348 433.747 331.273 434.088C331.209 434.44 331.092 434.765 330.921 435.064C330.751 435.373 330.516 435.699 330.217 436.04L329.833 436.472ZM340.09 432.584C339.791 432.765 339.391 432.909 338.89 433.016C338.399 433.123 337.861 433.176 337.274 433.176C335.951 433.176 334.949 432.803 334.266 432.056C333.594 431.299 333.258 430.195 333.258 428.744C333.258 427.347 333.578 426.285 334.218 425.56C334.869 424.835 335.797 424.472 337.002 424.472C339.327 424.472 340.49 425.757 340.49 428.328V429.256H334.714C334.778 430.195 335.029 430.883 335.466 431.32C335.903 431.747 336.554 431.96 337.418 431.96C337.898 431.96 338.351 431.912 338.778 431.816C339.205 431.72 339.642 431.571 340.09 431.368V432.584ZM337.002 425.656C336.298 425.656 335.749 425.869 335.354 426.296C334.97 426.712 334.757 427.32 334.714 428.12H339.098C339.098 427.245 338.933 426.616 338.602 426.232C338.282 425.848 337.749 425.656 337.002 425.656ZM348.361 431.4V432.584C347.7 432.979 346.863 433.176 345.849 433.176C344.559 433.176 343.583 432.803 342.921 432.056C342.271 431.299 341.945 430.189 341.945 428.728C341.945 427.373 342.292 426.328 342.985 425.592C343.679 424.845 344.66 424.472 345.929 424.472C346.719 424.472 347.449 424.648 348.121 425V426.184C347.417 425.832 346.761 425.656 346.153 425.656C344.329 425.656 343.417 426.68 343.417 428.728C343.417 429.837 343.625 430.659 344.041 431.192C344.468 431.725 345.135 431.992 346.041 431.992C346.404 431.992 346.772 431.944 347.145 431.848C347.519 431.752 347.924 431.603 348.361 431.4ZM350.699 430.456V425.832H349.259V425.096L350.699 424.616L351.275 422.344H352.139V424.648H353.947V425.832H352.139V430.44C352.139 431.357 352.533 431.816 353.323 431.816C353.451 431.816 353.573 431.811 353.691 431.8C353.819 431.779 353.936 431.763 354.043 431.752V433C353.893 433.032 353.739 433.053 353.579 433.064C353.429 433.075 353.269 433.08 353.099 433.08C352.277 433.08 351.669 432.867 351.275 432.44C350.891 432.013 350.699 431.352 350.699 430.456Z" fill="black"/>
<path d="M288.988 448.488V447.176C290.161 447.656 291.281 447.896 292.348 447.896C293.244 447.896 293.942 447.72 294.444 447.368C294.956 447.016 295.212 446.531 295.212 445.912C295.212 445.453 295.057 445.075 294.748 444.776C294.438 444.477 293.878 444.173 293.068 443.864L291.836 443.384C290.801 442.979 290.054 442.531 289.596 442.04C289.148 441.539 288.924 440.952 288.924 440.28C288.924 439.32 289.286 438.563 290.012 438.008C290.737 437.453 291.729 437.176 292.988 437.176C293.51 437.176 294.049 437.24 294.604 437.368C295.158 437.485 295.633 437.651 296.028 437.864V439.176C294.94 438.707 293.937 438.472 293.02 438.472C291.281 438.472 290.412 439.064 290.412 440.248C290.412 440.643 290.566 440.979 290.876 441.256C291.185 441.533 291.729 441.827 292.508 442.136L293.74 442.616C294.806 443.032 295.564 443.501 296.012 444.024C296.47 444.536 296.7 445.155 296.7 445.88C296.7 446.925 296.326 447.741 295.58 448.328C294.844 448.904 293.809 449.192 292.476 449.192C292.07 449.192 291.644 449.16 291.196 449.096C290.758 449.032 290.348 448.947 289.964 448.84C289.58 448.733 289.254 448.616 288.988 448.488ZM298.785 446.456V441.832H297.345V441.096L298.785 440.616L299.361 438.344H300.225V440.648H302.033V441.832H300.225V446.44C300.225 447.357 300.619 447.816 301.409 447.816C301.537 447.816 301.659 447.811 301.777 447.8C301.905 447.779 302.022 447.763 302.129 447.752V449C301.979 449.032 301.825 449.053 301.665 449.064C301.515 449.075 301.355 449.08 301.185 449.08C300.363 449.08 299.755 448.867 299.361 448.44C298.977 448.013 298.785 447.352 298.785 446.456ZM307.203 449.176C305.944 449.176 304.968 448.792 304.275 448.024C303.581 447.245 303.235 446.179 303.235 444.824C303.235 443.459 303.581 442.392 304.275 441.624C304.968 440.856 305.944 440.472 307.203 440.472C308.472 440.472 309.453 440.856 310.147 441.624C310.84 442.392 311.187 443.459 311.187 444.824C311.187 446.179 310.84 447.245 310.147 448.024C309.453 448.792 308.472 449.176 307.203 449.176ZM307.203 447.992C308.024 447.992 308.648 447.725 309.075 447.192C309.501 446.648 309.715 445.859 309.715 444.824C309.715 443.789 309.501 443.005 309.075 442.472C308.648 441.928 308.024 441.656 307.203 441.656C306.392 441.656 305.773 441.928 305.347 442.472C304.92 443.005 304.707 443.789 304.707 444.824C304.707 445.859 304.92 446.648 305.347 447.192C305.773 447.725 306.392 447.992 307.203 447.992ZM313.059 449V440.648H314.035L314.323 442.216C314.867 441.16 315.646 440.632 316.659 440.632C316.873 440.632 317.059 440.648 317.219 440.68V441.944H316.851C316.243 441.944 315.737 442.115 315.331 442.456C314.926 442.797 314.649 443.293 314.499 443.944V449H313.059ZM323.885 449L323.645 447.656C322.962 448.669 322.034 449.176 320.861 449.176C320.018 449.176 319.341 448.941 318.829 448.472C318.327 447.992 318.077 447.357 318.077 446.568C318.077 445.693 318.375 445.016 318.973 444.536C319.581 444.045 320.423 443.8 321.501 443.8H323.421V443.272C323.421 442.675 323.287 442.253 323.021 442.008C322.765 441.763 322.322 441.64 321.693 441.64C321.287 441.64 320.855 441.688 320.397 441.784C319.938 441.869 319.421 442.013 318.845 442.216V441.048C319.25 440.867 319.714 440.728 320.237 440.632C320.759 440.525 321.25 440.472 321.709 440.472C323.81 440.472 324.861 441.405 324.861 443.272V449H323.885ZM321.037 448.024C321.527 448.024 321.986 447.885 322.413 447.608C322.839 447.32 323.181 446.931 323.437 446.44V444.856H321.645C320.919 444.856 320.381 444.989 320.029 445.256C319.687 445.512 319.517 445.912 319.517 446.456C319.517 446.936 319.65 447.32 319.917 447.608C320.194 447.885 320.567 448.024 321.037 448.024ZM327.008 447.992L326.72 447.16L327.984 445.208C327.472 444.707 327.216 444.067 327.216 443.288C327.216 442.403 327.52 441.715 328.128 441.224C328.747 440.723 329.6 440.472 330.688 440.472C331.243 440.472 331.744 440.552 332.192 440.712L334.88 440.68V441.4L333.76 441.752C334.176 442.157 334.384 442.685 334.384 443.336C334.384 444.211 334.064 444.893 333.424 445.384C332.795 445.875 331.92 446.12 330.8 446.12C330.107 446.12 329.499 446.019 328.976 445.816L328.256 446.936L332.336 447.496C333.222 447.613 333.867 447.859 334.272 448.232C334.688 448.605 334.896 449.117 334.896 449.768C334.896 450.579 334.528 451.219 333.792 451.688C333.067 452.157 332.07 452.392 330.8 452.392C329.52 452.392 328.534 452.184 327.84 451.768C327.158 451.363 326.816 450.776 326.816 450.008C326.816 449.283 327.152 448.648 327.824 448.104L327.008 447.992ZM328.592 443.288C328.592 444.429 329.328 445 330.8 445C332.272 445 333.008 444.429 333.008 443.288C333.008 442.147 332.272 441.576 330.8 441.576C329.328 441.576 328.592 442.147 328.592 443.288ZM328.224 449.752C328.224 450.755 329.083 451.256 330.8 451.256C331.622 451.256 332.267 451.123 332.736 450.856C333.216 450.6 333.456 450.253 333.456 449.816C333.456 449.485 333.355 449.235 333.152 449.064C332.96 448.893 332.614 448.771 332.112 448.696L328.944 448.264C328.464 448.68 328.224 449.176 328.224 449.752ZM342.785 448.584C342.487 448.765 342.087 448.909 341.585 449.016C341.095 449.123 340.556 449.176 339.969 449.176C338.647 449.176 337.644 448.803 336.961 448.056C336.289 447.299 335.953 446.195 335.953 444.744C335.953 443.347 336.273 442.285 336.913 441.56C337.564 440.835 338.492 440.472 339.697 440.472C342.023 440.472 343.185 441.757 343.185 444.328V445.256H337.409C337.473 446.195 337.724 446.883 338.161 447.32C338.599 447.747 339.249 447.96 340.113 447.96C340.593 447.96 341.047 447.912 341.473 447.816C341.9 447.72 342.337 447.571 342.785 447.368V448.584ZM339.697 441.656C338.993 441.656 338.444 441.869 338.049 442.296C337.665 442.712 337.452 443.32 337.409 444.12H341.793C341.793 443.245 341.628 442.616 341.297 442.232C340.977 441.848 340.444 441.656 339.697 441.656Z" fill="black"/>
<path d="M314.293 350.707C314.683 351.098 315.317 351.098 315.707 350.707L322.071 344.343C322.462 343.953 322.462 343.319 322.071 342.929C321.681 342.538 321.047 342.538 320.657 342.929L315 348.586L309.343 342.929C308.953 342.538 308.319 342.538 307.929 342.929C307.538 343.319 307.538 343.953 307.929 344.343L314.293 350.707ZM315 309L314 309L314 350L315 350L316 350L316 309L315 309Z" fill="#312D2A"/>
<path d="M453.571 171.524C452.429 171.524 451.476 170.571 451.476 169.429V134.571C451.476 133.429 452.429 132.476 453.571 132.476H488.524C489.667 132.476 490.619 133.429 490.619 134.571V169.524C490.619 170.667 489.667 171.619 488.524 171.619L453.571 171.524Z" fill="white"/>
<path d="M488.429 132.952C489.286 132.952 490.048 133.714 490.048 134.571V169.524C490.048 170.381 489.286 171.143 488.429 171.143H453.571C452.714 171.048 451.952 170.286 451.952 169.429V134.571C451.952 133.714 452.714 132.952 453.571 132.952H488.429ZM488.429 132H453.571C452.143 132 451 133.143 451 134.571V169.524C451 170.857 452.143 172 453.571 172H488.524C489.952 172 491.095 170.857 491.095 169.429V134.571C491 133.143 489.857 132 488.429 132Z" fill="white"/>
<path d="M488.429 132.952H453.571C452.714 132.952 451.952 133.714 451.952 134.571V169.524C451.952 170.286 452.714 171.048 453.571 171.048H488.524C489.381 171.048 490.143 170.286 490.143 169.429V134.571C490.048 133.714 489.286 132.952 488.429 132.952ZM488.619 169.429C488.619 169.524 488.524 169.619 488.429 169.619H453.571C453.476 169.619 453.381 169.524 453.381 169.429V134.571C453.381 134.476 453.476 134.381 453.571 134.381H488.524C488.619 134.381 488.714 134.476 488.714 134.571L488.619 169.429Z" fill="#2D5967"/>
<path d="M470.429 137.143H461.952V145.619H470.429V137.143ZM469 144.286H463.381V138.571H469V144.286Z" fill="#2D5967"/>
<path d="M479.952 137.143H471.476V145.619H479.952C479.857 145.619 479.857 137.143 479.952 137.143ZM478.524 144.286H472.905V138.571H478.524V144.286Z" fill="#2D5967"/>
<path d="M468.143 148.095H473.857V150.381L475.19 150.667V146.667H466.81V150.667L468.143 150.381V148.095Z" fill="#2D5967"/>
<path d="M477.667 148.095H483.381V152.762L484.714 153.048V146.667H476.333V150.952L477.667 151.333V148.095Z" fill="#2D5967"/>
<path d="M458.619 148.095H464.333V151.333L465.667 150.952V146.667H457.286V153.048L458.619 152.762V148.095Z" fill="#2D5967"/>
<path d="M471 150.762L455.952 154.476L456.143 155.143C457.857 162 463.952 166.762 471 166.762C478.048 166.762 484.238 162 485.857 155.143L486.048 154.476L471 150.762ZM470.333 152.381V165.333C464.429 165.143 459.381 161.143 457.667 155.524L470.333 152.381ZM471.667 165.333V152.381L484.333 155.524C482.619 161.143 477.571 165.143 471.667 165.333Z" fill="#2D5967"/>
<path d="M439.85 249.286C438.139 249.286 436.714 247.857 436.714 246.143V193.857C436.714 192.143 438.139 190.714 439.85 190.714H492.154C493.864 190.714 495.289 192.143 495.289 193.857V246.286C495.289 248 493.864 249.429 492.154 249.429L439.85 249.286Z" fill="white"/>
<path d="M492.01 191.429C493.292 191.429 494.432 192.571 494.432 193.857V246.286C494.432 247.571 493.292 248.714 492.01 248.714H439.848C438.565 248.571 437.425 247.429 437.425 246.143V193.857C437.425 192.571 438.565 191.429 439.848 191.429H492.01ZM492.01 190H439.848C437.71 190 436 191.714 436 193.857V246.286C436 248.286 437.71 250 439.848 250H492.152C494.29 250 496 248.286 496 246.143V193.857C495.857 191.714 494.147 190 492.01 190Z" fill="white"/>
<path d="M492.01 191.429H439.848C438.566 191.429 437.426 192.572 437.426 193.858V246.286C437.426 247.429 438.566 248.572 439.848 248.572H492.152C493.435 248.572 494.575 247.429 494.575 246.143V193.858C494.433 192.572 493.293 191.429 492.01 191.429ZM492.295 246.143C492.295 246.286 492.152 246.429 492.01 246.429H439.848C439.706 246.429 439.563 246.286 439.563 246.143V193.858C439.563 193.715 439.706 193.572 439.848 193.572H492.152C492.295 193.572 492.438 193.715 492.438 193.858L492.295 246.143Z" fill="#2D5967"/>
<path d="M445.406 240.572H486.879V227.858H445.406V240.572ZM447.401 230.001H484.599V238.572H447.401V230.001Z" fill="#2D5967"/>
<path d="M479.895 235.858C480.761 235.858 481.463 235.154 481.463 234.286C481.463 233.418 480.761 232.715 479.895 232.715C479.029 232.715 478.327 233.418 478.327 234.286C478.327 235.154 479.029 235.858 479.895 235.858Z" fill="#2D5967"/>
<path d="M457.948 199.429H445.406V212.143H458.09L457.948 199.429ZM455.952 210H447.401V201.429H455.952V210Z" fill="#2D5967"/>
<path d="M472.201 199.429H459.516V212.143H472.201V199.429ZM470.205 210H461.654V201.429H470.205V210Z" fill="#2D5967"/>
<path d="M457.948 213.714H445.406V226.428H458.09L457.948 213.714ZM455.952 224.286H447.401V215.714H455.952V224.286Z" fill="#2D5967"/>
<path d="M472.201 213.714H459.516V226.428H472.201V213.714ZM470.205 224.286H461.654V215.714H470.205V224.286Z" fill="#2D5967"/>
<path d="M486.452 199.429H473.768V212.143H486.452V199.429ZM484.457 210H475.906V201.429H484.457V210Z" fill="#2D5967"/>
<path d="M486.452 213.714H473.768V226.428H486.452V213.714ZM484.457 224.286H475.906V215.714H484.457V224.286Z" fill="#2D5967"/>
<path d="M369.85 249.286C368.139 249.286 366.714 247.857 366.714 246.143V193.857C366.714 192.143 368.139 190.714 369.85 190.714H422.154C423.864 190.714 425.289 192.143 425.289 193.857V246.286C425.289 248 423.864 249.429 422.154 249.429L369.85 249.286Z" fill="white"/>
<path d="M422.01 191.429C423.292 191.429 424.432 192.571 424.432 193.857V246.286C424.432 247.571 423.292 248.714 422.01 248.714H369.848C368.565 248.571 367.425 247.429 367.425 246.143V193.857C367.425 192.571 368.565 191.429 369.848 191.429H422.01ZM422.01 190H369.848C367.71 190 366 191.714 366 193.857V246.286C366 248.286 367.71 250 369.848 250H422.152C424.29 250 426 248.286 426 246.143V193.857C425.857 191.714 424.147 190 422.01 190Z" fill="white"/>
<path d="M422.01 191.429H369.848C368.566 191.429 367.426 192.572 367.426 193.858V246.286C367.426 247.429 368.566 248.572 369.848 248.572H422.152C423.435 248.572 424.575 247.429 424.575 246.143V193.858C424.433 192.572 423.293 191.429 422.01 191.429ZM422.295 246.143C422.295 246.286 422.152 246.429 422.01 246.429H369.848C369.706 246.429 369.563 246.286 369.563 246.143V193.858C369.563 193.715 369.706 193.572 369.848 193.572H422.152C422.295 193.572 422.438 193.715 422.438 193.858L422.295 246.143Z" fill="#2D5967"/>
<path d="M375.406 240.572H416.879V227.858H375.406V240.572ZM377.401 230.001H414.599V238.572H377.401V230.001Z" fill="#2D5967"/>
<path d="M409.895 235.858C410.761 235.858 411.463 235.154 411.463 234.286C411.463 233.418 410.761 232.715 409.895 232.715C409.029 232.715 408.327 233.418 408.327 234.286C408.327 235.154 409.029 235.858 409.895 235.858Z" fill="#2D5967"/>
<path d="M387.948 199.429H375.406V212.143H388.09L387.948 199.429ZM385.952 210H377.401V201.429H385.952V210Z" fill="#2D5967"/>
<path d="M402.201 199.429H389.516V212.143H402.201V199.429ZM400.205 210H391.654V201.429H400.205V210Z" fill="#2D5967"/>
<path d="M387.948 213.714H375.406V226.428H388.09L387.948 213.714ZM385.952 224.286H377.401V215.714H385.952V224.286Z" fill="#2D5967"/>
<path d="M402.201 213.714H389.516V226.428H402.201V213.714ZM400.205 224.286H391.654V215.714H400.205V224.286Z" fill="#2D5967"/>
<path d="M416.452 199.429H403.768V212.143H416.452V199.429ZM414.457 210H405.906V201.429H414.457V210Z" fill="#2D5967"/>
<path d="M416.452 213.714H403.768V226.428H416.452V213.714ZM414.457 224.286H405.906V215.714H414.457V224.286Z" fill="#2D5967"/>
<path d="M301.85 249.286C300.139 249.286 298.714 247.857 298.714 246.143V193.857C298.714 192.143 300.139 190.714 301.85 190.714H354.154C355.864 190.714 357.289 192.143 357.289 193.857V246.286C357.289 248 355.864 249.429 354.154 249.429L301.85 249.286Z" fill="white"/>
<path d="M354.01 191.429C355.292 191.429 356.432 192.571 356.432 193.857V246.286C356.432 247.571 355.292 248.714 354.01 248.714H301.848C300.565 248.571 299.425 247.429 299.425 246.143V193.857C299.425 192.571 300.565 191.429 301.848 191.429H354.01ZM354.01 190H301.848C299.71 190 298 191.714 298 193.857V246.286C298 248.286 299.71 250 301.848 250H354.152C356.29 250 358 248.286 358 246.143V193.857C357.857 191.714 356.147 190 354.01 190Z" fill="white"/>
<path d="M354.01 191.429H301.848C300.566 191.429 299.426 192.572 299.426 193.858V246.286C299.426 247.429 300.566 248.572 301.848 248.572H354.152C355.435 248.572 356.575 247.429 356.575 246.143V193.858C356.433 192.572 355.293 191.429 354.01 191.429ZM354.295 246.143C354.295 246.286 354.152 246.429 354.01 246.429H301.848C301.706 246.429 301.563 246.286 301.563 246.143V193.858C301.563 193.715 301.706 193.572 301.848 193.572H354.152C354.295 193.572 354.438 193.715 354.438 193.858L354.295 246.143Z" fill="#2D5967"/>
<path d="M307.406 240.572H348.879V227.858H307.406V240.572ZM309.401 230.001H346.599V238.572H309.401V230.001Z" fill="#2D5967"/>
<path d="M341.895 235.858C342.761 235.858 343.463 235.154 343.463 234.286C343.463 233.418 342.761 232.715 341.895 232.715C341.029 232.715 340.327 233.418 340.327 234.286C340.327 235.154 341.029 235.858 341.895 235.858Z" fill="#2D5967"/>
<path d="M319.948 199.429H307.406V212.143H320.09L319.948 199.429ZM317.952 210H309.401V201.429H317.952V210Z" fill="#2D5967"/>
<path d="M334.201 199.429H321.516V212.143H334.201V199.429ZM332.205 210H323.654V201.429H332.205V210Z" fill="#2D5967"/>
<path d="M319.948 213.714H307.406V226.428H320.09L319.948 213.714ZM317.952 224.286H309.401V215.714H317.952V224.286Z" fill="#2D5967"/>
<path d="M334.201 213.714H321.516V226.428H334.201V213.714ZM332.205 224.286H323.654V215.714H332.205V224.286Z" fill="#2D5967"/>
<path d="M348.452 199.429H335.768V212.143H348.452V199.429ZM346.457 210H337.906V201.429H346.457V210Z" fill="#2D5967"/>
<path d="M348.452 213.714H335.768V226.428H348.452V213.714ZM346.457 224.286H337.906V215.714H346.457V224.286Z" fill="#2D5967"/>
<path d="M229.85 249.286C228.139 249.286 226.714 247.857 226.714 246.143V193.857C226.714 192.143 228.139 190.714 229.85 190.714H282.154C283.864 190.714 285.289 192.143 285.289 193.857V246.286C285.289 248 283.864 249.429 282.154 249.429L229.85 249.286Z" fill="white"/>
<path d="M282.01 191.429C283.292 191.429 284.432 192.571 284.432 193.857V246.286C284.432 247.571 283.292 248.714 282.01 248.714H229.848C228.565 248.571 227.425 247.429 227.425 246.143V193.857C227.425 192.571 228.565 191.429 229.848 191.429H282.01ZM282.01 190H229.848C227.71 190 226 191.714 226 193.857V246.286C226 248.286 227.71 250 229.848 250H282.152C284.29 250 286 248.286 286 246.143V193.857C285.857 191.714 284.147 190 282.01 190Z" fill="white"/>
<path d="M282.01 191.429H229.848C228.566 191.429 227.426 192.572 227.426 193.858V246.286C227.426 247.429 228.566 248.572 229.848 248.572H282.153C283.435 248.572 284.575 247.429 284.575 246.143V193.858C284.433 192.572 283.293 191.429 282.01 191.429ZM282.295 246.143C282.295 246.286 282.153 246.429 282.01 246.429H229.848C229.706 246.429 229.563 246.286 229.563 246.143V193.858C229.563 193.715 229.706 193.572 229.848 193.572H282.153C282.295 193.572 282.438 193.715 282.438 193.858L282.295 246.143Z" fill="#2D5967"/>
<path d="M235.406 240.572H276.879V227.858H235.406V240.572ZM237.401 230.001H274.599V238.572H237.401V230.001Z" fill="#2D5967"/>
<path d="M269.895 235.858C270.761 235.858 271.463 235.154 271.463 234.286C271.463 233.418 270.761 232.715 269.895 232.715C269.029 232.715 268.327 233.418 268.327 234.286C268.327 235.154 269.029 235.858 269.895 235.858Z" fill="#2D5967"/>
<path d="M247.948 199.429H235.406V212.143H248.09L247.948 199.429ZM245.953 210H237.401V201.429H245.953V210Z" fill="#2D5967"/>
<path d="M262.201 199.429H249.516V212.143H262.201V199.429ZM260.205 210H251.654V201.429H260.205V210Z" fill="#2D5967"/>
<path d="M247.948 213.714H235.406V226.428H248.09L247.948 213.714ZM245.953 224.286H237.401V215.714H245.953V224.286Z" fill="#2D5967"/>
<path d="M262.201 213.714H249.516V226.428H262.201V213.714ZM260.205 224.286H251.654V215.714H260.205V224.286Z" fill="#2D5967"/>
<path d="M276.452 199.429H263.768V212.143H276.452V199.429ZM274.457 210H265.906V201.429H274.457V210Z" fill="#2D5967"/>
<path d="M276.452 213.714H263.768V226.428H276.452V213.714ZM274.457 224.286H265.906V215.714H274.457V224.286Z" fill="#2D5967"/>
<path d="M159.85 249.286C158.139 249.286 156.714 247.857 156.714 246.143V193.857C156.714 192.143 158.139 190.714 159.85 190.714H212.154C213.864 190.714 215.289 192.143 215.289 193.857V246.286C215.289 248 213.864 249.429 212.154 249.429L159.85 249.286Z" fill="white"/>
<path d="M212.01 191.429C213.292 191.429 214.432 192.571 214.432 193.857V246.286C214.432 247.571 213.292 248.714 212.01 248.714H159.848C158.565 248.571 157.425 247.429 157.425 246.143V193.857C157.425 192.571 158.565 191.429 159.848 191.429H212.01ZM212.01 190H159.848C157.71 190 156 191.714 156 193.857V246.286C156 248.286 157.71 250 159.848 250H212.152C214.29 250 216 248.286 216 246.143V193.857C215.857 191.714 214.147 190 212.01 190Z" fill="white"/>
<path d="M212.01 191.429H159.848C158.566 191.429 157.426 192.572 157.426 193.858V246.286C157.426 247.429 158.566 248.572 159.848 248.572H212.153C213.435 248.572 214.575 247.429 214.575 246.143V193.858C214.433 192.572 213.293 191.429 212.01 191.429ZM212.295 246.143C212.295 246.286 212.153 246.429 212.01 246.429H159.848C159.706 246.429 159.563 246.286 159.563 246.143V193.858C159.563 193.715 159.706 193.572 159.848 193.572H212.153C212.295 193.572 212.438 193.715 212.438 193.858L212.295 246.143Z" fill="#2D5967"/>
<path d="M165.406 240.572H206.879V227.858H165.406V240.572ZM167.401 230.001H204.599V238.572H167.401V230.001Z" fill="#2D5967"/>
<path d="M199.895 235.858C200.761 235.858 201.463 235.154 201.463 234.286C201.463 233.418 200.761 232.715 199.895 232.715C199.029 232.715 198.328 233.418 198.328 234.286C198.328 235.154 199.029 235.858 199.895 235.858Z" fill="#2D5967"/>
<path d="M177.948 199.429H165.406V212.143H178.09L177.948 199.429ZM175.953 210H167.401V201.429H175.953V210Z" fill="#2D5967"/>
<path d="M192.201 199.429H179.516V212.143H192.201V199.429ZM190.205 210H181.654V201.429H190.205V210Z" fill="#2D5967"/>
<path d="M177.948 213.714H165.406V226.428H178.09L177.948 213.714ZM175.953 224.286H167.401V215.714H175.953V224.286Z" fill="#2D5967"/>
<path d="M192.201 213.714H179.516V226.428H192.201V213.714ZM190.205 224.286H181.654V215.714H190.205V224.286Z" fill="#2D5967"/>
<path d="M206.452 199.429H193.768V212.143H206.452V199.429ZM204.457 210H195.906V201.429H204.457V210Z" fill="#2D5967"/>
<path d="M206.452 213.714H193.768V226.428H206.452V213.714ZM204.457 224.286H195.906V215.714H204.457V224.286Z" fill="#2D5967"/>
<path d="M89.8497 249.286C88.1395 249.286 86.7143 247.857 86.7143 246.143V193.857C86.7143 192.143 88.1395 190.714 89.8497 190.714H142.154C143.864 190.714 145.289 192.143 145.289 193.857V246.286C145.289 248 143.864 249.429 142.154 249.429L89.8497 249.286Z" fill="white"/>
<path d="M142.01 191.429C143.292 191.429 144.432 192.571 144.432 193.857V246.286C144.432 247.571 143.292 248.714 142.01 248.714H89.848C88.5653 248.571 87.4252 247.429 87.4252 246.143V193.857C87.4252 192.571 88.5653 191.429 89.848 191.429H142.01ZM142.01 190H89.848C87.7102 190 86 191.714 86 193.857V246.286C86 248.286 87.7102 250 89.848 250H142.152C144.29 250 146 248.286 146 246.143V193.857C145.857 191.714 144.147 190 142.01 190Z" fill="white"/>
<path d="M142.01 191.429H89.8485C88.5658 191.429 87.4257 192.572 87.4257 193.858V246.286C87.4257 247.429 88.5658 248.572 89.8485 248.572H142.153C143.435 248.572 144.575 247.429 144.575 246.143V193.858C144.433 192.572 143.293 191.429 142.01 191.429ZM142.295 246.143C142.295 246.286 142.153 246.429 142.01 246.429H89.8485C89.7059 246.429 89.5634 246.286 89.5634 246.143V193.858C89.5634 193.715 89.7059 193.572 89.8485 193.572H142.153C142.295 193.572 142.438 193.715 142.438 193.858L142.295 246.143Z" fill="#2D5967"/>
<path d="M95.4062 240.572H136.879V227.858H95.4062V240.572ZM97.4014 230.001H134.599V238.572H97.4014V230.001Z" fill="#2D5967"/>
<path d="M129.895 235.858C130.761 235.858 131.463 235.154 131.463 234.286C131.463 233.418 130.761 232.715 129.895 232.715C129.029 232.715 128.328 233.418 128.328 234.286C128.328 235.154 129.029 235.858 129.895 235.858Z" fill="#2D5967"/>
<path d="M107.948 199.429H95.4062V212.143H108.09L107.948 199.429ZM105.953 210H97.4014V201.429H105.953V210Z" fill="#2D5967"/>
<path d="M122.201 199.429H109.516V212.143H122.201V199.429ZM120.205 210H111.654V201.429H120.205V210Z" fill="#2D5967"/>
<path d="M107.948 213.714H95.4062V226.428H108.09L107.948 213.714ZM105.953 224.286H97.4014V215.714H105.953V224.286Z" fill="#2D5967"/>
<path d="M122.201 213.714H109.516V226.428H122.201V213.714ZM120.205 224.286H111.654V215.714H120.205V224.286Z" fill="#2D5967"/>
<path d="M136.452 199.429H123.768V212.143H136.452V199.429ZM134.457 210H125.906V201.429H134.457V210Z" fill="#2D5967"/>
<path d="M136.452 213.714H123.768V226.428H136.452V213.714ZM134.457 224.286H125.906V215.714H134.457V224.286Z" fill="#2D5967"/>
</svg>
