<svg width="1368" height="290" viewBox="0 0 1368 290" fill="none" xmlns="http://www.w3.org/2000/svg">
<g id="mongodb-atp-s-google-arch-variant_opt2" clip-path="url(#clip0_20462_15213)">
<rect width="1368" height="290" fill="white"/>
<g id="OCI Region">
<rect x="1" y="24" width="574" height="265" fill="white"/>
<rect x="1" y="24" width="574" height="265" stroke="#706E6F" stroke-width="2" stroke-dasharray="4 4"/>
<text id="Optional" fill="#706E6F" xml:space="preserve" style="white-space: pre" font-family="Oracle Sans" font-size="16" letter-spacing="0em"><tspan x="250.484" y="44.816">Cloud Run</tspan></text>
</g>
<g id="Google cloud boxes">
<rect x="641.5" y="23.5" width="223" height="263" fill="white"/>
<rect x="641.5" y="23.5" width="223" height="263" stroke="#7A7464" stroke-dasharray="2 2"/>
<text id="Subnet" fill="#706E6F" xml:space="preserve" style="white-space: pre" font-family="Oracle Sans" font-size="16" font-weight="600" letter-spacing="0em"><tspan x="649" y="44.816">Primary Region</tspan></text>
<text id="Subnet_2" fill="#706E6F" xml:space="preserve" style="white-space: pre" font-family="Oracle Sans" font-size="16" font-weight="600" letter-spacing="0em"><tspan x="649" y="60.816">Application Subnet</tspan></text>
</g>
<g id="Google cloud boxes_2">
<rect x="1009" y="24" width="297" height="262" fill="white"/>
<rect x="1009" y="24" width="297" height="262" stroke="#C8D0DD" stroke-width="2" stroke-dasharray="8 4"/>
<text id="Oracle Database@Google" fill="#312D2A" xml:space="preserve" style="white-space: pre" font-family="Oracle Sans" font-size="16" font-weight="600" letter-spacing="0em"><tspan x="1017" y="61.816">Oracle Database@Google Cloud</tspan></text>
<g id="icon">
<rect id="White BG" x="1262.96" y="23" width="37.7983" height="3" fill="white"/>
<g id="Srv-Oracle Database@Google Cloud">
<g id="Group 1512">
<path id="art" d="M1295.29 11.6162C1295.29 8.8555 1293.7 6.30849 1290.81 4.4367C1288.11 2.68456 1284.54 1.71875 1280.76 1.71875C1276.98 1.71875 1273.42 2.68456 1270.71 4.4367C1267.82 6.30849 1266.23 8.8555 1266.23 11.6162V31.8213C1266.23 34.582 1267.82 37.129 1270.71 39.0008C1273.41 40.7529 1276.98 41.7188 1280.76 41.7188C1284.54 41.7188 1288.11 40.7529 1290.81 39.0008C1293.7 37.129 1295.29 34.582 1295.29 31.8213V11.6247V11.6162ZM1272.2 6.73584C1274.46 5.26576 1277.51 4.45379 1280.76 4.45379C1284.02 4.45379 1287.06 5.26576 1289.33 6.73584C1291.41 8.08627 1292.56 9.82131 1292.56 11.6162C1292.56 13.4111 1291.41 15.1461 1289.33 16.4965C1287.06 17.9666 1284.02 18.7786 1280.76 18.7786C1277.51 18.7786 1274.46 17.9666 1272.2 16.4965C1270.11 15.1461 1268.97 13.4111 1268.97 11.6162C1268.97 9.82131 1270.11 8.08627 1272.2 6.73584ZM1272.2 36.7017C1270.11 35.3512 1268.97 33.6162 1268.97 31.8213V28.3256C1269.48 28.8042 1270.06 29.2658 1270.71 29.6846C1273.41 31.4367 1276.98 32.4025 1280.76 32.4025C1284.54 32.4025 1288.11 31.4367 1290.81 29.6846C1291.46 29.2658 1292.04 28.8128 1292.56 28.3256V31.8128C1292.56 33.6162 1291.41 35.3512 1289.33 36.7017C1287.06 38.1717 1284.02 38.9837 1280.76 38.9837C1277.51 38.9837 1274.46 38.1717 1272.2 36.7017ZM1292.56 22.4965C1292.56 24.2999 1291.41 26.035 1289.33 27.3854C1287.06 28.8555 1284.02 29.6675 1280.76 29.6675C1277.51 29.6675 1274.46 28.8555 1272.2 27.3854C1270.11 26.035 1268.97 24.2999 1268.97 22.5051V17.4367C1269.48 17.9153 1270.06 18.3769 1270.71 18.7957C1273.41 20.5478 1276.98 21.5136 1280.76 21.5136C1284.54 21.5136 1288.11 20.5478 1290.81 18.7957C1291.46 18.3769 1292.04 17.9239 1292.56 17.4367V22.4965Z" fill="#C74634"/>
</g>
</g>
</g>
</g>
<g id="Google cloud boxes_3">
<rect x="1016.5" y="71.5" width="279" height="207" fill="white"/>
<rect x="1016.5" y="71.5" width="279" height="207" stroke="#A2AAB6" stroke-dasharray="8 4"/>
<text id="Oracle Database@Google_2" fill="#312D2A" xml:space="preserve" style="white-space: pre" font-family="Oracle Sans" font-size="16" font-weight="600" letter-spacing="0em"><tspan x="1025" y="93.816">OCI child site</tspan></text>
</g>
<g id="Icon Master">
<g id="Google-Serverless-VPC-Access-connector">
<g id="Group 1538">
<path id="path3033997" d="M773.939 181.575L782.77 175.831L786.866 172.638L782.453 169.762L752.185 149.333L721.913 169.762L717.5 172.638L721.913 175.51L730.74 181.258L721.913 187.002L717.5 190.195L721.913 193.067L730.74 198.819L752.498 213.5L774.256 198.815L783.083 193.067L787.5 190.195L783.083 187.323L773.939 181.575ZM769.526 178.703L755.022 168.804V156.995L778.039 172.638L769.526 178.703ZM726.327 172.638L749.345 156.995V168.808L734.841 178.703L726.327 172.638ZM752.181 207.756L726.327 190.195L734.841 184.447L752.185 172.638L769.526 184.451L778.352 190.195L752.181 207.756Z" fill="#606060"/>
<path id="polygon3033999" d="M755.337 194.026H761.644L752.187 181.258L742.727 194.026H749.034V209.99H755.337V194.026Z" fill="#606060"/>
</g>
</g>
<g id="Icon Text Label">
<text id="IconLabel" fill="black" xml:space="preserve" style="white-space: pre" font-family="Oracle Sans" font-size="16" letter-spacing="0em"><tspan x="698.578" y="231.316">Serverless VPC</tspan></text>
<text id="IconLabel_2" fill="black" xml:space="preserve" style="white-space: pre" font-family="Oracle Sans" font-size="16" letter-spacing="0em"><tspan x="689.141" y="247.316">Access connector</tspan></text>
</g>
</g>
<path id="Vector 14" d="M1008.71 192.208C1009.1 191.817 1009.1 191.184 1008.71 190.793L1002.34 184.429C1001.95 184.039 1001.32 184.039 1000.93 184.429C1000.54 184.82 1000.54 185.453 1000.93 185.844L1006.59 191.5L1000.93 197.157C1000.54 197.548 1000.54 198.181 1000.93 198.572C1001.32 198.962 1001.95 198.962 1002.34 198.572L1008.71 192.208ZM864 191.5L864 192.5L1008 192.5L1008 191.5L1008 190.5L864 190.5L864 191.5Z" fill="#312D2A"/>
<path id="Vector 16" d="M559 191.5L715 191.5" stroke="#312D2A" stroke-width="2"/>
<g id="Connector Line Label">
<rect width="52" height="14" transform="translate(911 169)" fill="white"/>
<text id="Line Label" fill="#312D2A" xml:space="preserve" style="white-space: pre" font-family="Oracle Sans" font-size="14" letter-spacing="0em"><tspan x="915.098" y="181.089">Private</tspan></text>
</g>
<g id="Connector Line Label_2">
<rect width="86" height="14" transform="translate(894 184.5)" fill="white"/>
<text id="Line Label_2" fill="#312D2A" xml:space="preserve" style="white-space: pre" font-family="Oracle Sans" font-size="14" letter-spacing="0em"><tspan x="898.24" y="196.589">connectivity</tspan></text>
</g>
<g id="VCN box_New">
<rect id="Rectangle 28" x="1025" y="103.977" width="342" height="166" stroke="#AA643B" stroke-width="2" stroke-dasharray="8 4"/>
<g id="Icon Master_2">
<g id="Srv-VCN">
<g id="Group 39">
<path id="Vector" d="M1346.42 126.51C1345.16 126.51 1343.94 126.077 1342.97 125.285C1342 124.493 1341.32 123.39 1341.07 122.16H1334.6C1334.41 123.054 1334 123.887 1333.41 124.583C1332.82 125.279 1332.06 125.816 1331.21 126.144C1330.36 126.472 1329.44 126.582 1328.53 126.463C1327.62 126.343 1326.76 125.999 1326.03 125.462C1325.29 124.924 1324.7 124.21 1324.3 123.385C1323.91 122.56 1323.73 121.65 1323.78 120.738C1323.83 119.825 1324.11 118.94 1324.59 118.163C1325.07 117.386 1325.74 116.741 1326.53 116.288L1324.53 110.141C1324.34 110.155 1324.14 110.155 1323.94 110.141C1323.05 110.143 1322.18 109.929 1321.39 109.517C1320.61 109.105 1319.93 108.508 1319.43 107.777C1318.92 107.046 1318.6 106.203 1318.5 105.321C1318.39 104.439 1318.5 103.545 1318.82 102.715C1319.14 101.886 1319.65 101.146 1320.32 100.56C1320.99 99.9733 1321.79 99.5582 1322.65 99.3502C1323.51 99.1422 1324.41 99.1475 1325.27 99.3657C1326.13 99.5838 1326.93 100.008 1327.59 100.602L1332.85 96.8726C1332.53 96.1674 1332.36 95.4028 1332.36 94.6293C1332.36 93.1781 1332.94 91.7864 1333.96 90.7603C1334.99 89.7342 1336.38 89.1577 1337.83 89.1577C1339.28 89.1577 1340.67 89.7342 1341.7 90.7603C1342.72 91.7864 1343.3 93.1781 1343.3 94.6293C1343.3 95.4021 1343.14 96.1667 1342.82 96.8726L1348.09 100.639C1349.09 99.7257 1350.39 99.2182 1351.74 99.2163C1353.19 99.2163 1354.58 99.7927 1355.6 100.819C1356.63 101.845 1357.21 103.237 1357.21 104.688C1357.21 106.139 1356.63 107.531 1355.6 108.557C1354.58 109.583 1353.19 110.159 1351.74 110.159C1351.55 110.159 1351.35 110.159 1351.15 110.159L1349.15 116.306C1350.2 116.905 1351.02 117.835 1351.48 118.951C1351.95 120.066 1352.03 121.304 1351.72 122.471C1351.41 123.639 1350.72 124.67 1349.76 125.404C1348.8 126.138 1347.62 126.533 1346.42 126.528V126.51Z" fill="white"/>
<path id="Vector_2" d="M1337.84 89.577C1338.71 89.579 1339.56 89.8059 1340.31 90.2356C1341.07 90.6653 1341.7 91.2832 1342.14 92.029C1342.59 92.7748 1342.83 93.623 1342.85 94.491C1342.87 95.359 1342.66 96.2172 1342.25 96.9818L1348.09 101.231C1348.66 100.632 1349.38 100.184 1350.16 99.9277C1350.95 99.6711 1351.79 99.6137 1352.61 99.7607C1353.42 99.9076 1354.19 100.254 1354.83 100.77C1355.48 101.285 1355.99 101.954 1356.32 102.715C1356.65 103.476 1356.78 104.307 1356.71 105.132C1356.64 105.958 1356.36 106.753 1355.91 107.446C1355.45 108.139 1354.84 108.709 1354.11 109.104C1353.38 109.5 1352.57 109.709 1351.74 109.712C1351.43 109.717 1351.13 109.692 1350.83 109.639L1348.59 116.524C1349.37 116.901 1350.04 117.475 1350.54 118.188C1351.03 118.902 1351.33 119.731 1351.41 120.595C1351.49 121.459 1351.34 122.329 1350.98 123.119C1350.62 123.908 1350.06 124.591 1349.36 125.101C1348.66 125.611 1347.84 125.929 1346.97 126.026C1346.11 126.123 1345.24 125.994 1344.44 125.653C1343.65 125.312 1342.95 124.769 1342.43 124.079C1341.9 123.388 1341.56 122.573 1341.45 121.713H1334.21C1334.1 122.573 1333.76 123.388 1333.23 124.078C1332.71 124.768 1332.01 125.31 1331.21 125.65C1330.41 125.991 1329.54 126.118 1328.68 126.02C1327.82 125.922 1327 125.603 1326.3 125.092C1325.59 124.581 1325.04 123.897 1324.68 123.106C1324.32 122.316 1324.17 121.446 1324.25 120.582C1324.33 119.718 1324.63 118.889 1325.13 118.176C1325.62 117.463 1326.29 116.891 1327.08 116.515L1324.84 109.639C1324.54 109.695 1324.24 109.723 1323.93 109.721C1323.1 109.72 1322.28 109.512 1321.55 109.117C1320.82 108.722 1320.2 108.152 1319.74 107.457C1319.29 106.763 1319.01 105.966 1318.94 105.138C1318.87 104.31 1319 103.477 1319.33 102.713C1319.65 101.95 1320.17 101.279 1320.82 100.762C1321.47 100.245 1322.24 99.8979 1323.05 99.751C1323.87 99.6042 1324.71 99.6626 1325.5 99.9209C1326.29 100.179 1327 100.63 1327.58 101.231L1333.42 96.9818C1333.01 96.2165 1332.8 95.3575 1332.82 94.4887C1332.84 93.62 1333.09 92.7711 1333.53 92.0251C1333.98 91.279 1334.61 90.6613 1335.36 90.2322C1336.12 89.8032 1336.97 89.5774 1337.84 89.577ZM1337.84 88.665C1336.27 88.665 1334.76 89.2893 1333.65 90.4006C1332.53 91.512 1331.91 93.0196 1331.91 94.5926C1331.91 95.3062 1332.04 96.014 1332.29 96.6809L1327.63 100.055C1326.89 99.4637 1326.02 99.0587 1325.09 98.8739C1324.16 98.6891 1323.2 98.7298 1322.29 98.9927C1321.38 99.2556 1320.54 99.733 1319.85 100.385C1319.17 101.037 1318.64 101.844 1318.33 102.74C1318.02 103.635 1317.93 104.593 1318.06 105.532C1318.19 106.471 1318.55 107.364 1319.1 108.137C1319.65 108.91 1320.37 109.54 1321.22 109.974C1322.06 110.409 1322.99 110.635 1323.94 110.633H1324.21L1326.03 116.105C1325.23 116.633 1324.57 117.347 1324.11 118.185C1323.65 119.023 1323.4 119.961 1323.37 120.918C1323.35 121.875 1323.56 122.823 1323.99 123.68C1324.41 124.538 1325.04 125.28 1325.81 125.843C1326.59 126.406 1327.49 126.772 1328.43 126.912C1329.38 127.052 1330.35 126.96 1331.25 126.645C1332.15 126.329 1332.97 125.8 1333.62 125.102C1334.27 124.403 1334.75 123.557 1335.01 122.634H1340.75C1341 123.56 1341.48 124.41 1342.13 125.112C1342.78 125.814 1343.6 126.346 1344.5 126.664C1345.41 126.981 1346.38 127.075 1347.33 126.936C1348.28 126.797 1349.18 126.429 1349.95 125.865C1350.73 125.301 1351.36 124.558 1351.78 123.697C1352.21 122.837 1352.42 121.887 1352.4 120.927C1352.38 119.968 1352.12 119.028 1351.66 118.188C1351.2 117.348 1350.53 116.633 1349.73 116.105L1351.56 110.633H1351.74C1352.54 110.678 1353.35 110.558 1354.11 110.28C1354.87 110.003 1355.56 109.573 1356.14 109.018C1356.73 108.464 1357.2 107.795 1357.52 107.053C1357.84 106.312 1358 105.513 1358 104.706C1358 103.899 1357.84 103.1 1357.52 102.358C1357.2 101.617 1356.73 100.948 1356.14 100.393C1355.56 99.8384 1354.87 99.4091 1354.11 99.1314C1353.35 98.8537 1352.54 98.7336 1351.74 98.7783C1350.4 98.775 1349.09 99.232 1348.05 100.073L1343.4 96.6991C1343.65 96.0305 1343.77 95.3235 1343.77 94.6108C1343.77 93.8304 1343.62 93.0575 1343.32 92.3361C1343.03 91.6148 1342.59 90.9593 1342.04 90.4071C1341.49 89.8548 1340.83 89.4167 1340.11 89.1178C1339.39 88.8189 1338.62 88.665 1337.84 88.665V88.665Z" fill="white"/>
<path id="Vector_3" d="M1351.74 99.6709C1351.06 99.6691 1350.38 99.8065 1349.76 100.075C1349.13 100.343 1348.56 100.736 1348.09 101.23L1342.25 96.9807C1342.67 96.2153 1342.87 95.3554 1342.86 94.4851C1342.84 93.6149 1342.59 92.7642 1342.15 92.0164C1341.7 91.2685 1341.07 90.6493 1340.32 90.2192C1339.56 89.7891 1338.71 89.563 1337.84 89.563C1336.97 89.563 1336.11 89.7891 1335.35 90.2192C1334.6 90.6493 1333.97 91.2685 1333.52 92.0164C1333.08 92.7642 1332.83 93.6149 1332.81 94.4851C1332.8 95.3554 1333.01 96.2153 1333.42 96.9807L1327.57 101.23C1327 100.633 1326.28 100.188 1325.5 99.9327C1324.71 99.6779 1323.87 99.622 1323.06 99.77C1322.24 99.918 1321.48 100.265 1320.83 100.781C1320.18 101.296 1319.67 101.964 1319.35 102.725C1319.02 103.485 1318.89 104.315 1318.96 105.14C1319.03 105.964 1319.31 106.759 1319.76 107.451C1320.21 108.144 1320.83 108.714 1321.56 109.11C1322.28 109.505 1323.1 109.715 1323.92 109.72C1324.23 109.722 1324.53 109.694 1324.83 109.638L1327.07 116.505C1326.29 116.881 1325.61 117.453 1325.12 118.166C1324.62 118.878 1324.32 119.707 1324.24 120.572C1324.17 121.436 1324.31 122.306 1324.67 123.096C1325.03 123.887 1325.59 124.571 1326.29 125.082C1326.99 125.592 1327.81 125.912 1328.67 126.01C1329.53 126.108 1330.41 125.981 1331.2 125.64C1332 125.3 1332.7 124.758 1333.22 124.068C1333.75 123.378 1334.09 122.563 1334.2 121.703H1341.44C1341.56 122.563 1341.89 123.378 1342.42 124.068C1342.94 124.759 1343.64 125.301 1344.44 125.643C1345.23 125.984 1346.1 126.113 1346.97 126.016C1347.83 125.919 1348.65 125.601 1349.35 125.091C1350.05 124.581 1350.61 123.898 1350.97 123.108C1351.33 122.319 1351.48 121.449 1351.4 120.585C1351.32 119.721 1351.02 118.891 1350.53 118.178C1350.04 117.464 1349.37 116.891 1348.59 116.514L1350.83 109.638C1351.13 109.694 1351.43 109.722 1351.74 109.72C1352.42 109.762 1353.11 109.662 1353.75 109.429C1354.4 109.196 1354.98 108.833 1355.48 108.363C1355.98 107.893 1356.38 107.326 1356.65 106.697C1356.92 106.068 1357.06 105.39 1357.06 104.705C1357.06 104.019 1356.92 103.341 1356.65 102.712C1356.38 102.083 1355.98 101.516 1355.48 101.046C1354.98 100.577 1354.4 100.214 1353.75 99.9804C1353.11 99.747 1352.42 99.6479 1351.74 99.6891V99.6709ZM1346.42 124.712C1345.7 124.712 1344.99 124.498 1344.39 124.098C1343.79 123.697 1343.32 123.127 1343.05 122.461C1342.77 121.794 1342.7 121.061 1342.84 120.353C1342.98 119.645 1343.33 118.996 1343.84 118.485C1344.35 117.975 1345 117.628 1345.7 117.487C1346.41 117.346 1347.15 117.419 1347.81 117.695C1348.48 117.971 1349.05 118.438 1349.45 119.038C1349.85 119.638 1350.06 120.343 1350.06 121.065C1350.06 122.032 1349.68 122.96 1348.99 123.644C1348.31 124.328 1347.38 124.712 1346.42 124.712ZM1334.21 120.362C1334.06 119.23 1333.53 118.184 1332.7 117.399L1335.43 113.578C1336.17 113.967 1336.98 114.17 1337.81 114.171C1338.64 114.173 1339.45 113.97 1340.18 113.578L1342.92 117.399C1342.08 118.183 1341.55 119.229 1341.39 120.362H1334.21ZM1325.56 121.037C1325.56 120.316 1325.78 119.611 1326.18 119.011C1326.58 118.411 1327.15 117.943 1327.81 117.667C1328.48 117.391 1329.21 117.319 1329.92 117.46C1330.63 117.6 1331.28 117.948 1331.79 118.458C1332.3 118.968 1332.64 119.618 1332.78 120.326C1332.93 121.033 1332.85 121.767 1332.58 122.433C1332.3 123.1 1331.83 123.669 1331.23 124.07C1330.64 124.471 1329.93 124.685 1329.21 124.685C1328.24 124.685 1327.32 124.301 1326.63 123.617C1325.95 122.933 1325.56 122.005 1325.56 121.037ZM1323.94 101.021C1324.66 101.021 1325.37 101.234 1325.97 101.635C1326.57 102.036 1327.03 102.606 1327.31 103.272C1327.59 103.939 1327.66 104.672 1327.52 105.38C1327.38 106.087 1327.03 106.737 1326.52 107.248C1326.01 107.758 1325.36 108.105 1324.65 108.246C1323.95 108.387 1323.21 108.314 1322.55 108.038C1321.88 107.762 1321.31 107.295 1320.91 106.695C1320.51 106.095 1320.3 105.39 1320.3 104.668C1320.3 103.701 1320.68 102.773 1321.36 102.089C1322.05 101.405 1322.97 101.021 1323.94 101.021ZM1334.16 94.6371C1334.16 93.9156 1334.37 93.2104 1334.77 92.6105C1335.17 92.0106 1335.74 91.5431 1336.41 91.267C1337.07 90.9909 1337.81 90.9187 1338.51 91.0595C1339.22 91.2002 1339.87 91.5476 1340.38 92.0577C1340.89 92.5679 1341.24 93.2178 1341.38 93.9254C1341.52 94.633 1341.45 95.3665 1341.17 96.033C1340.9 96.6995 1340.43 97.2692 1339.83 97.67C1339.23 98.0708 1338.52 98.2848 1337.8 98.2848C1337.32 98.2848 1336.84 98.189 1336.4 98.0028C1335.95 97.8167 1335.55 97.5439 1335.21 97.2003C1334.87 96.8567 1334.6 96.4492 1334.42 96.0014C1334.24 95.5536 1334.15 95.0743 1334.16 94.5915V94.6371ZM1346.79 105.58L1342.37 106.994C1342.01 106.239 1341.47 105.586 1340.79 105.093C1340.12 104.599 1339.33 104.281 1338.51 104.167V99.6071C1339.63 99.4568 1340.68 98.9222 1341.46 98.0933L1347.32 102.343C1346.92 103.073 1346.71 103.892 1346.72 104.723C1346.72 105.007 1346.74 105.291 1346.79 105.571V105.58ZM1341.51 109.164C1341.51 109.885 1341.3 110.591 1340.9 111.191C1340.5 111.79 1339.93 112.258 1339.26 112.534C1338.6 112.81 1337.86 112.882 1337.16 112.742C1336.45 112.601 1335.8 112.254 1335.29 111.743C1334.78 111.233 1334.43 110.583 1334.29 109.876C1334.15 109.168 1334.22 108.435 1334.5 107.768C1334.78 107.102 1335.24 106.532 1335.84 106.131C1336.44 105.73 1337.15 105.516 1337.87 105.516C1338.83 105.516 1339.76 105.899 1340.44 106.582C1341.13 107.264 1341.51 108.189 1341.51 109.155V109.164ZM1337.16 99.6071V104.167C1336.33 104.279 1335.55 104.596 1334.87 105.088C1334.2 105.58 1333.66 106.232 1333.3 106.985L1328.87 105.571C1328.93 105.27 1328.96 104.965 1328.95 104.659C1328.95 103.85 1328.74 103.056 1328.36 102.343L1334.21 98.0841C1334.99 98.9146 1336.03 99.4523 1337.16 99.6071ZM1328.46 106.902L1332.89 108.316C1332.83 108.617 1332.81 108.922 1332.81 109.228C1332.81 109.911 1332.94 110.588 1333.21 111.215C1333.48 111.843 1333.88 112.408 1334.38 112.876L1331.64 116.706C1330.92 116.31 1330.1 116.103 1329.27 116.104C1328.97 116.102 1328.66 116.129 1328.36 116.186L1326.12 109.219C1327.14 108.734 1327.97 107.918 1328.47 106.902H1328.46ZM1346.42 116.022C1345.59 116.023 1344.78 116.227 1344.05 116.614L1341.31 112.803C1341.81 112.334 1342.2 111.768 1342.47 111.141C1342.74 110.514 1342.88 109.838 1342.88 109.155C1342.88 108.849 1342.85 108.544 1342.8 108.243L1347.18 106.848C1347.68 107.879 1348.51 108.714 1349.53 109.219L1347.3 116.095C1347.01 116.044 1346.71 116.019 1346.42 116.022ZM1348.09 104.696C1348.09 103.974 1348.31 103.269 1348.71 102.669C1349.11 102.069 1349.68 101.602 1350.34 101.326C1351.01 101.049 1351.74 100.977 1352.45 101.118C1353.16 101.259 1353.81 101.606 1354.32 102.116C1354.83 102.626 1355.17 103.276 1355.31 103.984C1355.45 104.692 1355.38 105.425 1355.11 106.092C1354.83 106.758 1354.36 107.328 1353.76 107.729C1353.16 108.129 1352.46 108.343 1351.74 108.343C1350.77 108.343 1349.84 107.959 1349.16 107.275C1348.48 106.591 1348.09 105.663 1348.09 104.696Z" fill="#AA643B"/>
</g>
</g>
</g>
<text id="VCN" fill="#AE562C" xml:space="preserve" style="white-space: pre" font-family="Oracle Sans" font-size="16" font-weight="600" letter-spacing="0em"><tspan x="1033" y="125.816">VCN</tspan></text>
</g>
<g id="OCI Subnet Boxes_New">
<rect x="1032.5" y="135.5" width="327" height="127" stroke="#AA643B" stroke-dasharray="8 4"/>
<text id="Subnet_3" fill="#AE562C" xml:space="preserve" style="white-space: pre" font-family="Oracle Sans" font-size="16" font-weight="600" letter-spacing="0em"><tspan x="1040" y="156.816">Subnet</tspan></text>
</g>
<g id="Autonomous-Transaction-Processing-ATP">
<g id="Srv-Oracle Autonomous Transaction Processing ATP">
<g id="Group 526">
<path id="Vector_4" d="M1164.86 211.014V210.361L1164.78 211.014H1163.89C1158.01 210.814 1152.39 208.515 1148.05 204.532C1143.7 200.548 1140.93 195.142 1140.22 189.289L1138.3 191.235L1135.93 188.858L1140.22 184.628C1140.32 183.357 1140.52 182.095 1140.82 180.855C1139.31 180.052 1138.11 178.768 1137.41 177.207C1136.71 175.645 1136.56 173.896 1136.96 172.234C1137.37 170.573 1138.32 169.095 1139.66 168.034C1141 166.973 1142.65 166.39 1144.36 166.377C1145.96 166.381 1147.53 166.893 1148.82 167.839C1152.86 164.434 1157.89 162.42 1163.16 162.095C1163.68 162.055 1164.15 162.055 1164.61 162.055H1165.99C1167.09 160.38 1168.67 159.068 1170.51 158.288C1172.36 157.507 1174.39 157.292 1176.36 157.669C1178.33 158.046 1180.14 158.999 1181.56 160.407C1182.99 161.816 1183.97 163.616 1184.37 165.58L1185.77 164.183L1188.16 166.573L1188.04 166.677L1187.69 167.095L1183.89 170.894C1186.87 174.425 1188.76 178.74 1189.36 183.323L1191.66 181.012L1194.04 183.388L1189.52 187.905C1189.45 189.313 1189.25 190.711 1188.92 192.083C1189.81 192.593 1190.59 193.277 1191.21 194.093C1191.83 194.91 1192.28 195.843 1192.54 196.837C1192.79 197.831 1192.84 198.866 1192.69 199.881C1192.53 200.895 1192.18 201.869 1191.64 202.743C1191.11 203.617 1190.4 204.375 1189.57 204.971C1188.73 205.567 1187.79 205.989 1186.79 206.213C1185.79 206.436 1184.75 206.456 1183.74 206.272C1182.74 206.087 1181.78 205.702 1180.92 205.139C1178.59 207.115 1175.91 208.642 1173.02 209.643L1172.77 209.721C1172.3 209.891 1171.82 210.021 1171.34 210.152H1171.14L1170.82 210.243L1170.19 210.4L1169.39 210.557L1168.74 210.687C1168.52 210.687 1168.3 210.687 1168.06 210.766L1167.18 210.87C1166.34 210.948 1165.6 210.988 1164.92 210.988L1164.86 211.014Z" fill="white"/>
<path id="Vector_5" d="M1174.45 158.139C1176.85 158.143 1179.16 159.057 1180.91 160.697C1182.67 162.337 1183.74 164.581 1183.9 166.978L1185.77 165.111L1187.22 166.56L1182.99 170.79C1186.43 174.668 1188.49 179.575 1188.85 184.746L1191.66 181.939L1193.11 183.388L1188.89 187.618C1188.81 189.227 1188.58 190.823 1188.18 192.384C1189.07 192.808 1189.86 193.415 1190.5 194.165C1191.14 194.915 1191.61 195.791 1191.89 196.736C1192.17 197.681 1192.24 198.675 1192.11 199.651C1191.98 200.628 1191.65 201.567 1191.13 202.406C1190.62 203.245 1189.93 203.966 1189.12 204.522C1188.31 205.078 1187.38 205.457 1186.42 205.633C1185.45 205.81 1184.45 205.78 1183.5 205.547C1182.54 205.313 1181.65 204.881 1180.87 204.277C1178.52 206.38 1175.78 208.003 1172.81 209.056L1172.59 209.134C1172.12 209.291 1171.65 209.421 1171.18 209.552L1170.67 209.695C1170.01 209.852 1169.37 209.996 1168.64 210.1L1167.67 210.218H1167.11C1166.38 210.296 1165.64 210.335 1164.91 210.335H1164.49C1158.43 210.284 1152.61 207.934 1148.2 203.757C1143.8 199.581 1141.14 193.889 1140.76 187.827L1138.3 190.308L1136.84 188.859L1140.75 184.942C1140.86 183.44 1141.11 181.953 1141.52 180.503C1140.04 179.851 1138.84 178.711 1138.1 177.274C1137.37 175.837 1137.15 174.192 1137.48 172.612C1137.82 171.033 1138.68 169.617 1139.93 168.6C1141.19 167.584 1142.75 167.03 1144.36 167.03C1146 167.037 1147.58 167.624 1148.83 168.688C1152.83 165.182 1157.87 163.094 1163.17 162.748C1163.66 162.748 1164.14 162.669 1164.62 162.656H1164.82C1165.4 162.656 1165.98 162.656 1166.54 162.748L1166.41 162.617C1167.26 161.25 1168.45 160.121 1169.85 159.338C1171.26 158.555 1172.84 158.142 1174.45 158.139ZM1174.45 156.833C1172.74 156.843 1171.06 157.256 1169.53 158.038C1168.01 158.821 1166.7 159.951 1165.69 161.338H1164.61C1164.13 161.338 1163.66 161.338 1163.2 161.416H1163.08C1157.84 161.739 1152.83 163.693 1148.74 167.004C1147.42 166.154 1145.89 165.701 1144.32 165.698C1142.5 165.696 1140.73 166.292 1139.28 167.393C1137.83 168.495 1136.78 170.042 1136.29 171.798C1135.8 173.554 1135.9 175.422 1136.57 177.117C1137.24 178.812 1138.45 180.24 1140.01 181.182C1139.77 182.223 1139.61 183.278 1139.52 184.342L1135.93 187.945L1135 188.859L1135.93 189.786L1137.37 191.235L1138.3 192.162L1139.21 191.235L1139.77 190.673C1140.75 196.294 1143.59 201.42 1147.83 205.228C1152.08 209.036 1157.48 211.304 1163.16 211.667H1164.47H1164.91C1165.61 211.667 1166.37 211.667 1167.23 211.549H1167.63H1167.83H1168.12L1168.83 211.458L1170.14 211.249L1171 211.04L1171.35 210.949H1171.52L1172.98 210.361H1173.15H1173.23C1176.04 209.389 1178.66 207.926 1180.97 206.04C1182.22 206.779 1183.65 207.167 1185.1 207.163C1187.31 207.159 1189.43 206.279 1190.99 204.715C1192.55 203.152 1193.43 201.032 1193.44 198.82C1193.44 197.437 1193.09 196.076 1192.44 194.861C1191.78 193.645 1190.83 192.614 1189.67 191.862C1189.92 190.643 1190.08 189.408 1190.16 188.167L1194.07 184.25L1195 183.323L1194.07 182.396L1192.63 180.947L1191.7 180.02L1190.78 180.947L1189.85 181.887C1189.1 177.857 1187.37 174.076 1184.8 170.881L1188.18 167.5L1189.11 166.573L1188.98 166.429L1188.18 165.568L1186.69 164.184L1185.77 163.257L1184.86 164.184L1184.71 164.314C1184.01 162.144 1182.64 160.253 1180.79 158.909C1178.95 157.566 1176.73 156.84 1174.45 156.833V156.833Z" fill="white"/>
<path id="Vector_6" d="M1168.31 208.036L1168.64 210.059C1167.41 210.257 1166.16 210.357 1164.91 210.36H1164.49V208.31C1165.76 208.323 1167.02 208.231 1168.27 208.036H1168.31ZM1147.79 203.127C1148.76 204.118 1149.8 205.026 1150.92 205.842L1152.13 204.171C1151.1 203.437 1150.14 202.607 1149.26 201.691L1147.79 203.127ZM1152.65 206.978C1153.84 207.692 1155.09 208.299 1156.38 208.793L1157.17 206.874C1155.98 206.425 1154.84 205.87 1153.76 205.216L1152.65 206.978ZM1158.91 207.474L1158.35 209.446C1159.02 209.628 1159.66 209.798 1160.37 209.929C1161.09 210.059 1161.74 210.164 1162.42 210.229L1162.64 208.192C1162.02 208.127 1161.34 208.023 1160.75 207.905C1160.16 207.788 1159.53 207.644 1158.91 207.474ZM1170.16 207.657L1170.66 209.642C1172 209.323 1173.31 208.886 1174.57 208.336L1173.75 206.443C1172.6 206.987 1171.4 207.424 1170.16 207.748V207.657ZM1145.87 197.134L1144.13 198.14C1144.8 199.351 1145.57 200.5 1146.45 201.573L1148.04 200.268C1147.24 199.286 1146.53 198.238 1145.91 197.134H1145.87ZM1144.21 193.387C1144.21 193.178 1144.06 192.97 1144.01 192.774C1143.96 192.578 1143.93 192.486 1143.89 192.343C1143.45 190.742 1143.19 189.094 1143.12 187.434L1146.07 190.371L1147.52 188.857L1142.18 183.517L1136.84 188.857L1138.3 190.306L1141.08 187.525C1141.15 189.156 1141.39 190.774 1141.79 192.356C1141.79 192.513 1141.88 192.656 1141.92 192.813C1141.96 192.967 1142 193.12 1142.05 193.27C1142.05 193.492 1142.18 193.714 1142.26 193.923C1142.34 194.131 1142.33 194.158 1142.37 194.275C1142.6 194.941 1142.88 195.581 1143.16 196.273L1145.03 195.424C1144.71 194.693 1144.44 194.04 1144.21 193.387ZM1137.33 174.078C1137.33 172.683 1137.74 171.318 1138.52 170.156C1139.29 168.995 1140.39 168.089 1141.67 167.554C1142.96 167.019 1144.38 166.878 1145.75 167.15C1147.11 167.422 1148.37 168.093 1149.35 169.08C1150.34 170.067 1151.01 171.324 1151.28 172.693C1151.55 174.062 1151.41 175.48 1150.88 176.769C1150.34 178.058 1149.44 179.159 1148.28 179.932C1147.12 180.706 1145.76 181.118 1144.36 181.115C1142.5 181.112 1140.71 180.369 1139.4 179.05C1138.08 177.731 1137.34 175.943 1137.33 174.078ZM1139.38 174.078C1139.38 175.068 1139.67 176.037 1140.22 176.861C1140.77 177.685 1141.55 178.328 1142.46 178.708C1143.37 179.088 1144.38 179.189 1145.35 178.996C1146.32 178.804 1147.21 178.327 1147.91 177.627C1148.61 176.927 1149.08 176.035 1149.27 175.064C1149.47 174.092 1149.37 173.086 1148.99 172.172C1148.61 171.257 1147.96 170.477 1147.14 169.928C1146.32 169.38 1145.35 169.088 1144.36 169.091C1143.04 169.094 1141.78 169.621 1140.84 170.555C1139.91 171.49 1139.39 172.757 1139.38 174.078ZM1151.53 169.378C1155.05 166.592 1159.35 164.972 1163.83 164.743C1164.02 164.023 1164.29 163.323 1164.62 162.655C1159.38 162.736 1154.31 164.544 1150.2 167.798C1150.7 168.271 1151.14 168.801 1151.51 169.378H1151.53ZM1184.27 172.577C1183.94 173.24 1183.55 173.866 1183.08 174.444C1185.13 177.514 1186.36 181.054 1186.66 184.731L1183.89 181.938L1182.45 183.387L1187.78 188.726L1193.11 183.387L1191.66 181.938L1188.74 184.862C1188.44 180.43 1186.9 176.173 1184.3 172.577H1184.27ZM1192.12 198.688C1192.12 200.083 1191.71 201.446 1190.93 202.606C1190.16 203.766 1189.06 204.669 1187.77 205.202C1186.48 205.736 1185.07 205.875 1183.7 205.601C1182.33 205.328 1181.08 204.656 1180.1 203.668C1179.11 202.681 1178.44 201.424 1178.17 200.055C1177.9 198.687 1178.04 197.269 1178.58 195.981C1179.11 194.693 1180.02 193.593 1181.18 192.82C1182.34 192.047 1183.7 191.635 1185.09 191.638C1186.96 191.641 1188.74 192.386 1190.06 193.707C1191.38 195.029 1192.12 196.82 1192.12 198.688ZM1190.07 198.688C1190.08 197.698 1189.78 196.729 1189.24 195.905C1188.69 195.081 1187.91 194.438 1187 194.058C1186.08 193.678 1185.08 193.577 1184.11 193.77C1183.14 193.963 1182.25 194.439 1181.55 195.139C1180.85 195.839 1180.37 196.731 1180.18 197.703C1179.99 198.674 1180.09 199.68 1180.47 200.594C1180.85 201.509 1181.49 202.289 1182.31 202.838C1183.14 203.386 1184.1 203.678 1185.09 203.675C1186.41 203.672 1187.68 203.145 1188.61 202.211C1189.54 201.276 1190.07 200.01 1190.07 198.688ZM1147.57 173.308L1146.12 171.859L1143.75 174.222L1142.61 173.086L1141.17 174.548L1143.78 177.159L1147.57 173.308ZM1175.74 193.387C1175.74 196.129 1168.82 196.86 1165.16 196.86C1161.49 196.86 1154.73 196.129 1154.73 193.387V177.251C1154.73 174.117 1163.42 173.961 1165.16 173.961H1165.44C1165.99 174.753 1166.64 175.465 1167.39 176.076C1166.7 176.076 1165.95 176.076 1165.16 176.076C1160.56 176.076 1157.71 176.846 1156.92 177.381C1157.78 177.89 1160.62 178.687 1165.16 178.687C1167.08 178.707 1169.01 178.545 1170.91 178.204C1172.05 178.592 1173.25 178.79 1174.45 178.791C1174.89 178.792 1175.32 178.766 1175.76 178.713L1175.74 193.387ZM1173.64 187.813C1173.63 187.886 1173.63 187.962 1173.64 188.035H1173.74V184.627C1170.98 185.475 1168.1 185.876 1165.21 185.815C1162.38 185.862 1159.56 185.479 1156.84 184.679V187.969C1157.5 188.478 1160.4 189.275 1165.21 189.275C1170.36 189.275 1173.32 188.309 1173.7 187.826L1173.64 187.813ZM1156.79 179.483V182.421C1157.45 182.917 1160.35 183.726 1165.16 183.726C1170.31 183.726 1173.27 182.773 1173.64 182.29C1173.62 182.358 1173.62 182.431 1173.64 182.499H1173.74V179.418C1170.98 180.265 1168.1 180.666 1165.21 180.606C1162.38 180.659 1159.56 180.28 1156.84 179.483H1156.79ZM1173.79 193.283V190.176C1171.03 191.023 1168.15 191.424 1165.26 191.364C1162.43 191.411 1159.61 191.028 1156.89 190.228V193.296C1157.39 193.805 1160.26 194.863 1165.26 194.863C1169.97 194.863 1173.21 193.87 1173.79 193.283ZM1186.54 195.998L1185.24 197.304L1183.93 195.998L1182.48 197.461L1183.79 198.766L1182.48 200.072L1183.93 201.521L1185.24 200.215L1186.54 201.521L1187.99 200.072L1186.68 198.766L1187.99 197.461L1186.54 195.998ZM1178.2 203.714C1177.31 204.396 1176.39 205.016 1175.42 205.568L1176.41 207.357C1177.52 206.743 1178.57 206.04 1179.56 205.255C1179.04 204.81 1178.58 204.306 1178.17 203.753L1178.2 203.714ZM1166.54 162.824L1167.78 164.051L1167.88 164.156C1168.62 162.734 1169.8 161.591 1171.25 160.897C1172.69 160.203 1174.32 159.995 1175.89 160.305C1177.46 160.615 1178.89 161.426 1179.97 162.617C1181.04 163.807 1181.7 165.314 1181.85 166.911L1180.05 165.109L1178.6 166.558L1182.91 170.88L1187.22 166.558L1185.77 165.109L1183.91 166.976C1183.77 164.976 1183 163.072 1181.71 161.537C1180.42 160.001 1178.68 158.914 1176.74 158.429C1174.8 157.945 1172.75 158.089 1170.9 158.841C1169.04 159.593 1167.47 160.915 1166.41 162.615L1166.58 162.772L1166.54 162.824ZM1178.31 172.015V172.094H1176.14L1175.67 170.018H1173.21L1172.73 172.094H1170.62V172.015L1173.46 162.185H1175.48L1178.31 172.015ZM1173.61 168.308H1175.27L1174.44 164.665L1173.61 168.308ZM1161.73 168.738L1163.18 170.188L1164.99 168.36C1165.14 170.354 1165.91 172.25 1167.21 173.776C1168.5 175.302 1170.24 176.38 1172.18 176.855C1174.12 177.33 1176.16 177.179 1178.01 176.422C1179.86 175.665 1181.42 174.342 1182.47 172.642L1181.01 171.193C1180.26 172.595 1179.08 173.718 1177.64 174.398C1176.2 175.077 1174.58 175.276 1173.02 174.967C1171.46 174.657 1170.04 173.854 1168.97 172.677C1167.9 171.499 1167.24 170.009 1167.07 168.425L1168.9 170.227L1170.36 168.778L1166 164.378L1161.69 168.699L1161.73 168.738Z" fill="#2D5967"/>
</g>
</g>
<g id="Icon Text Label_2">
<text id="IconLabel_3" fill="black" xml:space="preserve" style="white-space: pre" font-family="Oracle Sans" font-size="16" letter-spacing="0em"><tspan x="1048.58" y="231.316">Oracle Autonomous Transaction </tspan></text>
<text id="IconLabel_4" fill="black" xml:space="preserve" style="white-space: pre" font-family="Oracle Sans" font-size="16" letter-spacing="0em"><tspan x="1086.89" y="247.316">Processing Serverless</tspan></text>
</g>
</g>
<g id="Group 6">
<g id="OCI Region_2">
<rect x="17" y="56.5" width="175" height="215" rx="3.5" fill="white"/>
<rect x="17" y="56.5" width="175" height="215" rx="3.5" stroke="#9E9892"/>
</g>
<path id="Vector 13" d="M192.5 160H16.5" stroke="#9E9892" stroke-dasharray="2 2"/>
<g id="Icon Master_3">
<g id="Srv-Oracle REST&#226;&#128;&#168;Data Services">
<g id="Group 437">
<path id="Vector_7" d="M91.9221 199.506L88.1895 170.652L104.953 166.494L121.792 170.652L117.87 199.506L104.962 205.478L91.9221 199.506Z" fill="white"/>
<path id="Vector_8" d="M104.953 166.949L121.26 171.013L117.433 199.23L104.962 204.927L92.3589 199.23L88.7212 171.013L104.953 166.949ZM104.953 166L104.763 166.057L88.4838 170.092L87.667 170.291L87.7715 171.136L91.4661 199.306L91.5326 199.829L92.0074 200.047L104.611 205.82L105.01 206L105.409 205.82L117.879 200.047L118.354 199.829L118.421 199.306L122.22 171.136L122.334 170.301L121.507 170.092L105.181 166.057L104.953 166Z" fill="white"/>
<path id="Vector_9" d="M104.953 166.949L88.7211 171.013L92.3588 199.23L104.962 204.927L117.433 199.23L121.232 171.06L104.953 166.949ZM116.16 198.281L104.953 203.408L93.6504 198.281L90.2693 172.076L104.953 168.421L119.703 172.076L116.16 198.281Z" fill="#2D5967"/>
<path id="Vector_10" d="M104.991 182.976C104.231 182.976 97.5634 183.043 97.5634 185.34C97.5634 185.34 97.5634 185.397 97.5634 185.426C97.5634 185.454 97.5634 185.483 97.5634 185.502V197.161C97.5634 199.354 103.746 199.468 104.991 199.468C106.235 199.468 112.408 199.354 112.408 197.161V185.502C112.412 185.476 112.412 185.451 112.408 185.426C112.413 185.397 112.413 185.368 112.408 185.34C112.408 183.09 105.712 182.976 104.991 182.976ZM104.991 198.063C101.429 198.063 99.3395 197.427 98.969 197.056V194.749C100.921 195.337 102.953 195.615 104.991 195.575C107.025 195.615 109.054 195.336 111.003 194.749V197.056C110.632 197.427 108.562 198.063 104.991 198.063ZM111.003 193.173C110.632 193.534 108.543 194.17 104.991 194.17C101.438 194.17 99.3395 193.534 98.969 193.173V190.913C100.921 191.501 102.953 191.779 104.991 191.739C107.025 191.779 109.054 191.5 111.003 190.913V193.173ZM111.003 189.375C110.632 189.736 108.543 190.372 104.991 190.372C101.438 190.372 99.3395 189.736 98.969 189.337V186.888C100.919 187.488 102.951 187.78 104.991 187.752C107.027 187.779 109.056 187.487 111.003 186.888V189.375ZM110.908 185.378C110.347 185.758 108.324 186.328 104.991 186.328C101.657 186.328 99.6244 185.748 99.0735 185.378C99.6244 184.998 101.657 184.429 104.991 184.429C108.324 184.429 110.347 184.989 110.908 185.34V185.378Z" fill="#2D5967"/>
<path id="Vector_11" d="M98.1712 178.485L97.174 179.435L99.9568 182.217L102.73 179.444L101.78 178.495L100.688 179.577V179.416C100.673 177.91 100.068 176.469 99.0026 175.404C97.9371 174.339 96.4963 173.734 94.9895 173.719H93.3654V175.067H94.9135C96.0639 175.07 97.1665 175.528 97.9799 176.341C98.7934 177.154 99.2515 178.256 99.254 179.406V179.568L98.1712 178.485Z" fill="#2D5967"/>
<path id="Vector_12" d="M115.058 173.662C113.552 173.676 112.111 174.281 111.045 175.347C109.98 176.412 109.375 177.852 109.36 179.358V179.52L108.277 178.437L107.28 179.387L110.063 182.159L112.836 179.377L111.839 178.428L110.765 179.51V179.349C110.765 178.2 111.221 177.097 112.033 176.284C112.845 175.471 113.947 175.012 115.096 175.01H116.663V173.662H115.058Z" fill="#2D5967"/>
<path id="Vector_13" d="M104.288 173.947V181.429H105.694V173.947L107.821 176.074L108.818 175.087L104.991 171.26L101.163 175.087L102.151 176.074L104.288 173.947Z" fill="#2D5967"/>
</g>
</g>
<g id="Icon Text Label_3">
<text id="IconLabel_5" fill="black" xml:space="preserve" style="white-space: pre" font-family="Oracle Sans" font-size="16" letter-spacing="0em"><tspan x="60.7656" y="223.816">Oracle REST</tspan></text>
<text id="IconLabel_6" fill="black" xml:space="preserve" style="white-space: pre" font-family="Oracle Sans" font-size="16" letter-spacing="0em"><tspan x="42.5625" y="239.816">Data Service with </tspan></text>
<text id="IconLabel_7" fill="black" xml:space="preserve" style="white-space: pre" font-family="Oracle Sans" font-size="16" letter-spacing="0em"><tspan x="54.2656" y="255.816">MongoDB API</tspan></text>
</g>
</g>
<g id="Icon Master_4">
<g id="Application-Server">
<g id="Group 191">
<path id="Vector_14" d="M70.6988 125.302V122.981L73.6195 121.527H74.2764V67.978H103.023V121.527H103.679L106.6 122.981V125.302H70.6988Z" fill="white"/>
<path id="Vector_15" d="M102.324 68.6774V122.227H103.54L105.929 123.415V124.603H71.3975V123.415L73.7872 122.227H74.975V68.6774H102.324ZM103.721 67.2793H73.5776V120.828H73.4518L73.1583 120.968L70.7686 122.157L70 122.548V126.002H107.299V122.548L106.516 122.157L104.141 120.968L103.847 120.828H103.721V67.2793V67.2793Z" fill="white"/>
<path id="Vector_16" d="M136.813 79.8765H105.901C104.527 79.8765 103.413 80.9907 103.413 82.3652V111.503C103.413 112.877 104.527 113.991 105.901 113.991H136.813C138.187 113.991 139.301 112.877 139.301 111.503V82.3652C139.301 80.9907 138.187 79.8765 136.813 79.8765Z" fill="white"/>
<path id="Vector_17" d="M136.813 80.5759C137.288 80.5759 137.743 80.7644 138.078 81.1001C138.414 81.4357 138.602 81.8909 138.602 82.3655V111.517C138.602 111.992 138.414 112.447 138.078 112.782C137.743 113.118 137.288 113.307 136.813 113.307H105.887C105.415 113.303 104.964 113.113 104.631 112.777C104.299 112.442 104.112 111.989 104.112 111.517V82.3655C104.11 82.1312 104.155 81.8988 104.243 81.6817C104.332 81.4647 104.462 81.2673 104.627 81.1009C104.792 80.9345 104.988 80.8025 105.205 80.7124C105.421 80.6223 105.653 80.5759 105.887 80.5759H136.813ZM136.813 79.1777H105.887C105.044 79.1814 104.238 79.5189 103.643 80.1163C103.048 80.7138 102.715 81.5225 102.715 82.3655V111.517C102.715 112.36 103.048 113.169 103.643 113.766C104.238 114.363 105.044 114.701 105.887 114.705H136.813C137.657 114.701 138.466 114.364 139.062 113.767C139.659 113.17 139.996 112.361 140 111.517V82.3655C140 81.5201 139.664 80.7092 139.066 80.1114C138.469 79.5136 137.658 79.1777 136.813 79.1777Z" fill="white"/>
<path id="Vector_18" d="M95.7833 78.7866H81.515V81.1775H79.1393V83.5543H81.515V85.9312H95.7833V83.5543H98.159V81.1775H95.7833V78.7866ZM93.4076 83.5543H83.8907V81.1775H93.4076V83.5543Z" fill="#2D5967"/>
<path id="Vector_19" d="M98.173 74.6338H79.1393V77.0095H98.173V74.6338Z" fill="#2D5967"/>
<path id="Vector_20" d="M98.173 87.7207H79.1393V90.0964H98.173V87.7207Z" fill="#2D5967"/>
<path id="Vector_21" d="M98.173 116.27H79.1393V118.646H98.173V116.27Z" fill="#2D5967"/>
<path id="Vector_22" d="M98.173 112.104H79.1393V114.48H98.173V112.104Z" fill="#2D5967"/>
<path id="Vector_23" d="M79.1393 110.328H98.159V101.939H79.1393V110.328ZM81.515 104.372H95.7833V107.951H81.515V104.372Z" fill="#2D5967"/>
<path id="Vector_24" d="M79.1393 100.206H98.159V91.8867H79.1393V100.206ZM81.515 94.2636H95.7833V97.8288H81.515V94.2636Z" fill="#2D5967"/>
<path id="Vector_25" d="M103.54 122.226H102.352V68.6768H74.9751V122.226H73.7873L71.3976 123.414V124.603H105.901V123.414L103.54 122.226ZM77.3788 122.226V71.0536H99.9482V122.226H77.3788Z" fill="#2D5967"/>
<path id="Vector_26" d="M136.813 80.5752H105.887C105.653 80.5752 105.421 80.6216 105.205 80.7117C104.988 80.8018 104.792 80.9338 104.627 81.1002C104.462 81.2666 104.332 81.464 104.243 81.681C104.155 81.8981 104.11 82.1305 104.112 82.3648V111.516C104.112 111.987 104.299 112.439 104.632 112.772C104.965 113.105 105.416 113.292 105.887 113.292H136.813C137.048 113.294 137.28 113.249 137.497 113.161C137.714 113.072 137.911 112.942 138.077 112.777C138.244 112.612 138.376 112.415 138.466 112.199C138.556 111.983 138.602 111.751 138.602 111.516V82.3648C138.602 81.8902 138.414 81.435 138.078 81.0994C137.743 80.7637 137.288 80.5752 136.813 80.5752ZM136.227 82.952V88.9082H106.488V82.952H136.227ZM106.488 110.915V91.3409H136.227V110.915H106.488Z" fill="#2D5967"/>
<path id="Vector_27" d="M110.052 87.1169C110.708 87.1169 111.24 86.5851 111.24 85.9291C111.24 85.273 110.708 84.7412 110.052 84.7412C109.396 84.7412 108.864 85.273 108.864 85.9291C108.864 86.5851 109.396 87.1169 110.052 87.1169Z" fill="#2D5967"/>
<path id="Vector_28" d="M114.216 87.1169C114.872 87.1169 115.404 86.5851 115.404 85.9291C115.404 85.273 114.872 84.7412 114.216 84.7412C113.56 84.7412 113.028 85.273 113.028 85.9291C113.028 86.5851 113.56 87.1169 114.216 87.1169Z" fill="#2D5967"/>
<path id="Vector_29" d="M118.381 87.1169C119.037 87.1169 119.568 86.5851 119.568 85.9291C119.568 85.273 119.037 84.7412 118.381 84.7412C117.724 84.7412 117.193 85.273 117.193 85.9291C117.193 86.5851 117.724 87.1169 118.381 87.1169Z" fill="#2D5967"/>
<path id="Vector_30" d="M127.297 94.9056L125.243 96.108C124.721 95.691 124.136 95.3606 123.51 95.1293V93.0601H119.178V95.1293C118.438 95.4022 117.756 95.8099 117.165 96.3317L115.139 95.1433L113.071 98.6666L115.195 99.911C115.126 100.261 115.094 100.617 115.097 100.974C115.076 101.281 115.076 101.589 115.097 101.896L113.001 103.127L115.069 106.65L116.998 105.518C117.605 106.087 118.323 106.525 119.108 106.804V109.125H123.398V106.804C124.073 106.567 124.699 106.207 125.243 105.741L127.185 106.888L129.254 103.364L127.423 102.232C127.508 101.813 127.55 101.387 127.549 100.96C127.549 100.489 127.492 100.019 127.381 99.5614L129.324 98.4289L127.297 94.9056ZM121.358 104.818C120.594 104.818 119.848 104.592 119.214 104.167C118.579 103.743 118.085 103.139 117.793 102.433C117.502 101.727 117.426 100.951 117.576 100.202C117.726 99.4527 118.095 98.7651 118.635 98.226C119.176 97.6869 119.865 97.3205 120.614 97.1732C121.363 97.0258 122.139 97.1043 122.844 97.3985C123.548 97.6927 124.15 98.1895 124.572 98.8259C124.994 99.4623 125.218 100.21 125.215 100.974C125.215 101.483 125.114 101.988 124.917 102.458C124.72 102.928 124.432 103.355 124.07 103.712C123.707 104.07 123.277 104.352 122.804 104.542C122.331 104.732 121.825 104.826 121.316 104.818H121.358Z" fill="#2D5967"/>
</g>
</g>
<g id="Icon Text Label_4">
<text id="IconLabel_8" fill="black" xml:space="preserve" style="white-space: pre" font-family="Oracle Sans" font-size="16" letter-spacing="0em"><tspan x="26.6328" y="143.816">Container Application</tspan></text>
</g>
</g>
</g>
<g id="Group 7">
<g id="OCI Region_3">
<rect x="201" y="56.5" width="175" height="215" rx="3.5" fill="white"/>
<rect x="201" y="56.5" width="175" height="215" rx="3.5" stroke="#9E9892"/>
</g>
<path id="Vector 13_2" d="M376.5 160H200.5" stroke="#9E9892" stroke-dasharray="2 2"/>
<g id="Icon Master_5">
<g id="Srv-Oracle REST&#226;&#128;&#168;Data Services_2">
<g id="Group 437_2">
<path id="Vector_31" d="M275.922 199.506L272.189 170.652L288.953 166.494L305.792 170.652L301.87 199.506L288.962 205.478L275.922 199.506Z" fill="white"/>
<path id="Vector_32" d="M288.953 166.949L305.26 171.013L301.433 199.23L288.962 204.927L276.359 199.23L272.721 171.013L288.953 166.949ZM288.953 166L288.763 166.057L272.484 170.092L271.667 170.291L271.771 171.136L275.466 199.306L275.533 199.829L276.007 200.047L288.611 205.82L289.01 206L289.409 205.82L301.879 200.047L302.354 199.829L302.421 199.306L306.22 171.136L306.334 170.301L305.507 170.092L289.181 166.057L288.953 166Z" fill="white"/>
<path id="Vector_33" d="M288.953 166.949L272.721 171.013L276.359 199.23L288.962 204.927L301.433 199.23L305.232 171.06L288.953 166.949ZM300.16 198.281L288.953 203.408L277.65 198.281L274.269 172.076L288.953 168.421L303.703 172.076L300.16 198.281Z" fill="#2D5967"/>
<path id="Vector_34" d="M288.991 182.976C288.231 182.976 281.563 183.043 281.563 185.34C281.563 185.34 281.563 185.397 281.563 185.426C281.563 185.454 281.563 185.483 281.563 185.502V197.161C281.563 199.354 287.746 199.468 288.991 199.468C290.235 199.468 296.408 199.354 296.408 197.161V185.502C296.412 185.476 296.412 185.451 296.408 185.426C296.413 185.397 296.413 185.368 296.408 185.34C296.408 183.09 289.712 182.976 288.991 182.976ZM288.991 198.063C285.429 198.063 283.339 197.427 282.969 197.056V194.749C284.921 195.337 286.953 195.615 288.991 195.575C291.025 195.615 293.054 195.336 295.003 194.749V197.056C294.632 197.427 292.562 198.063 288.991 198.063ZM295.003 193.173C294.632 193.534 292.543 194.17 288.991 194.17C285.438 194.17 283.339 193.534 282.969 193.173V190.913C284.921 191.501 286.953 191.779 288.991 191.739C291.025 191.779 293.054 191.5 295.003 190.913V193.173ZM295.003 189.375C294.632 189.736 292.543 190.372 288.991 190.372C285.438 190.372 283.339 189.736 282.969 189.337V186.888C284.919 187.488 286.951 187.78 288.991 187.752C291.027 187.779 293.056 187.487 295.003 186.888V189.375ZM294.908 185.378C294.347 185.758 292.324 186.328 288.991 186.328C285.657 186.328 283.624 185.748 283.073 185.378C283.624 184.998 285.657 184.429 288.991 184.429C292.324 184.429 294.347 184.989 294.908 185.34V185.378Z" fill="#2D5967"/>
<path id="Vector_35" d="M282.171 178.485L281.174 179.435L283.957 182.217L286.73 179.444L285.78 178.495L284.688 179.577V179.416C284.673 177.91 284.068 176.469 283.003 175.404C281.937 174.339 280.496 173.734 278.989 173.719H277.365V175.067H278.913C280.064 175.07 281.166 175.528 281.98 176.341C282.793 177.154 283.251 178.256 283.254 179.406V179.568L282.171 178.485Z" fill="#2D5967"/>
<path id="Vector_36" d="M299.058 173.662C297.552 173.676 296.111 174.281 295.045 175.347C293.98 176.412 293.375 177.852 293.36 179.358V179.52L292.277 178.437L291.28 179.387L294.063 182.159L296.836 179.377L295.839 178.428L294.765 179.51V179.349C294.765 178.2 295.221 177.097 296.033 176.284C296.845 175.471 297.947 175.012 299.096 175.01H300.663V173.662H299.058Z" fill="#2D5967"/>
<path id="Vector_37" d="M288.288 173.947V181.429H289.694V173.947L291.821 176.074L292.818 175.087L288.991 171.26L285.163 175.087L286.151 176.074L288.288 173.947Z" fill="#2D5967"/>
</g>
</g>
<g id="Icon Text Label_5">
<text id="IconLabel_9" fill="black" xml:space="preserve" style="white-space: pre" font-family="Oracle Sans" font-size="16" letter-spacing="0em"><tspan x="244.766" y="223.816">Oracle REST</tspan></text>
<text id="IconLabel_10" fill="black" xml:space="preserve" style="white-space: pre" font-family="Oracle Sans" font-size="16" letter-spacing="0em"><tspan x="226.562" y="239.816">Data Service with </tspan></text>
<text id="IconLabel_11" fill="black" xml:space="preserve" style="white-space: pre" font-family="Oracle Sans" font-size="16" letter-spacing="0em"><tspan x="238.266" y="255.816">MongoDB API</tspan></text>
</g>
</g>
<g id="Icon Master_6">
<g id="Application-Server_2">
<g id="Group 191_2">
<path id="Vector_38" d="M254.699 125.302V122.981L257.62 121.527H258.276V67.978H287.023V121.527H287.679L290.6 122.981V125.302H254.699Z" fill="white"/>
<path id="Vector_39" d="M286.324 68.6774V122.227H287.54L289.929 123.415V124.603H255.397V123.415L257.787 122.227H258.975V68.6774H286.324ZM287.721 67.2793H257.578V120.828H257.452L257.158 120.968L254.769 122.157L254 122.548V126.002H291.299V122.548L290.516 122.157L288.141 120.968L287.847 120.828H287.721V67.2793Z" fill="white"/>
<path id="Vector_40" d="M320.813 79.8765H289.901C288.527 79.8765 287.414 80.9907 287.414 82.3652V111.503C287.414 112.877 288.527 113.991 289.901 113.991H320.813C322.187 113.991 323.301 112.877 323.301 111.503V82.3652C323.301 80.9907 322.187 79.8765 320.813 79.8765Z" fill="white"/>
<path id="Vector_41" d="M320.813 80.5759C321.288 80.5759 321.743 80.7644 322.078 81.1001C322.414 81.4357 322.602 81.8909 322.602 82.3655V111.517C322.602 111.992 322.414 112.447 322.078 112.782C321.743 113.118 321.288 113.307 320.813 113.307H289.887C289.415 113.303 288.964 113.113 288.631 112.777C288.299 112.442 288.112 111.989 288.112 111.517V82.3655C288.11 82.1312 288.155 81.8988 288.243 81.6817C288.332 81.4647 288.462 81.2673 288.627 81.1009C288.792 80.9345 288.988 80.8025 289.205 80.7124C289.421 80.6223 289.653 80.5759 289.887 80.5759H320.813ZM320.813 79.1777H289.887C289.044 79.1814 288.238 79.5189 287.643 80.1163C287.048 80.7138 286.715 81.5225 286.715 82.3655V111.517C286.715 112.36 287.048 113.169 287.643 113.766C288.238 114.363 289.044 114.701 289.887 114.705H320.813C321.657 114.701 322.466 114.364 323.062 113.767C323.659 113.17 323.996 112.361 324 111.517V82.3655C324 81.5201 323.664 80.7092 323.066 80.1114C322.469 79.5136 321.658 79.1777 320.813 79.1777Z" fill="white"/>
<path id="Vector_42" d="M279.783 78.7866H265.515V81.1775H263.139V83.5543H265.515V85.9312H279.783V83.5543H282.159V81.1775H279.783V78.7866ZM277.408 83.5543H267.891V81.1775H277.408V83.5543Z" fill="#2D5967"/>
<path id="Vector_43" d="M282.173 74.6338H263.139V77.0095H282.173V74.6338Z" fill="#2D5967"/>
<path id="Vector_44" d="M282.173 87.7207H263.139V90.0964H282.173V87.7207Z" fill="#2D5967"/>
<path id="Vector_45" d="M282.173 116.27H263.139V118.646H282.173V116.27Z" fill="#2D5967"/>
<path id="Vector_46" d="M282.173 112.104H263.139V114.48H282.173V112.104Z" fill="#2D5967"/>
<path id="Vector_47" d="M263.139 110.328H282.159V101.939H263.139V110.328ZM265.515 104.372H279.783V107.951H265.515V104.372Z" fill="#2D5967"/>
<path id="Vector_48" d="M263.139 100.206H282.159V91.8867H263.139V100.206ZM265.515 94.2636H279.783V97.8288H265.515V94.2636Z" fill="#2D5967"/>
<path id="Vector_49" d="M287.54 122.226H286.352V68.6768H258.975V122.226H257.787L255.398 123.414V124.603H289.901V123.414L287.54 122.226ZM261.379 122.226V71.0536H283.948V122.226H261.379Z" fill="#2D5967"/>
<path id="Vector_50" d="M320.813 80.5752H289.887C289.653 80.5752 289.421 80.6216 289.205 80.7117C288.988 80.8018 288.792 80.9338 288.627 81.1002C288.462 81.2666 288.332 81.464 288.243 81.681C288.155 81.8981 288.111 82.1305 288.112 82.3648V111.516C288.112 111.987 288.299 112.439 288.632 112.772C288.965 113.105 289.416 113.292 289.887 113.292H320.813C321.048 113.294 321.28 113.249 321.497 113.161C321.714 113.072 321.911 112.942 322.078 112.777C322.244 112.612 322.376 112.415 322.466 112.199C322.556 111.983 322.602 111.751 322.602 111.516V82.3648C322.602 81.8902 322.414 81.435 322.078 81.0994C321.743 80.7637 321.288 80.5752 320.813 80.5752ZM320.227 82.952V88.9082H290.488V82.952H320.227ZM290.488 110.915V91.3409H320.227V110.915H290.488Z" fill="#2D5967"/>
<path id="Vector_51" d="M294.052 87.1169C294.708 87.1169 295.24 86.5851 295.24 85.9291C295.24 85.273 294.708 84.7412 294.052 84.7412C293.396 84.7412 292.864 85.273 292.864 85.9291C292.864 86.5851 293.396 87.1169 294.052 87.1169Z" fill="#2D5967"/>
<path id="Vector_52" d="M298.216 87.1169C298.872 87.1169 299.404 86.5851 299.404 85.9291C299.404 85.273 298.872 84.7412 298.216 84.7412C297.56 84.7412 297.028 85.273 297.028 85.9291C297.028 86.5851 297.56 87.1169 298.216 87.1169Z" fill="#2D5967"/>
<path id="Vector_53" d="M302.38 87.1169C303.037 87.1169 303.568 86.5851 303.568 85.9291C303.568 85.273 303.037 84.7412 302.38 84.7412C301.724 84.7412 301.193 85.273 301.193 85.9291C301.193 86.5851 301.724 87.1169 302.38 87.1169Z" fill="#2D5967"/>
<path id="Vector_54" d="M311.297 94.9056L309.243 96.108C308.721 95.691 308.136 95.3606 307.51 95.1293V93.0601H303.178V95.1293C302.438 95.4022 301.756 95.8099 301.165 96.3317L299.139 95.1433L297.071 98.6666L299.195 99.911C299.127 100.261 299.094 100.617 299.097 100.974C299.076 101.281 299.076 101.589 299.097 101.896L297.001 103.127L299.069 106.65L300.998 105.518C301.605 106.087 302.323 106.525 303.108 106.804V109.125H307.398V106.804C308.073 106.567 308.699 106.207 309.243 105.741L311.185 106.888L313.254 103.364L311.423 102.232C311.508 101.813 311.55 101.387 311.549 100.96C311.549 100.489 311.492 100.019 311.381 99.5614L313.324 98.4289L311.297 94.9056ZM305.358 104.818C304.594 104.818 303.848 104.592 303.214 104.167C302.579 103.743 302.085 103.139 301.793 102.433C301.502 101.727 301.426 100.951 301.576 100.202C301.726 99.4527 302.095 98.7651 302.636 98.226C303.176 97.6869 303.865 97.3205 304.614 97.1732C305.363 97.0258 306.139 97.1043 306.844 97.3985C307.548 97.6927 308.15 98.1895 308.572 98.8259C308.994 99.4623 309.218 100.21 309.215 100.974C309.215 101.483 309.114 101.988 308.917 102.458C308.721 102.928 308.432 103.355 308.07 103.712C307.707 104.07 307.277 104.352 306.804 104.542C306.331 104.732 305.825 104.826 305.316 104.818H305.358Z" fill="#2D5967"/>
</g>
</g>
<g id="Icon Text Label_6">
<text id="IconLabel_12" fill="black" xml:space="preserve" style="white-space: pre" font-family="Oracle Sans" font-size="16" letter-spacing="0em"><tspan x="210.633" y="143.816">Container Application</tspan></text>
</g>
</g>
</g>
<g id="Group 8">
<g id="OCI Region_4">
<rect x="385" y="56.5" width="175" height="215" rx="3.5" fill="white"/>
<rect x="385" y="56.5" width="175" height="215" rx="3.5" stroke="#9E9892"/>
</g>
<path id="Vector 13_3" d="M560.5 160H384.5" stroke="#9E9892" stroke-dasharray="2 2"/>
<g id="Icon Master_7">
<g id="Srv-Oracle REST&#226;&#128;&#168;Data Services_3">
<g id="Group 437_3">
<path id="Vector_55" d="M459.922 199.506L456.189 170.652L472.953 166.494L489.792 170.652L485.87 199.506L472.962 205.478L459.922 199.506Z" fill="white"/>
<path id="Vector_56" d="M472.953 166.949L489.26 171.013L485.433 199.23L472.962 204.927L460.359 199.23L456.721 171.013L472.953 166.949ZM472.953 166L472.763 166.057L456.484 170.092L455.667 170.291L455.771 171.136L459.466 199.306L459.533 199.829L460.007 200.047L472.611 205.82L473.01 206L473.409 205.82L485.879 200.047L486.354 199.829L486.421 199.306L490.22 171.136L490.334 170.301L489.507 170.092L473.181 166.057L472.953 166Z" fill="white"/>
<path id="Vector_57" d="M472.953 166.949L456.721 171.013L460.359 199.23L472.962 204.927L485.433 199.23L489.232 171.06L472.953 166.949ZM484.16 198.281L472.953 203.408L461.65 198.281L458.269 172.076L472.953 168.421L487.703 172.076L484.16 198.281Z" fill="#2D5967"/>
<path id="Vector_58" d="M472.991 182.976C472.231 182.976 465.563 183.043 465.563 185.34C465.563 185.34 465.563 185.397 465.563 185.426C465.563 185.454 465.563 185.483 465.563 185.502V197.161C465.563 199.354 471.746 199.468 472.991 199.468C474.235 199.468 480.408 199.354 480.408 197.161V185.502C480.412 185.476 480.412 185.451 480.408 185.426C480.413 185.397 480.413 185.368 480.408 185.34C480.408 183.09 473.712 182.976 472.991 182.976ZM472.991 198.063C469.429 198.063 467.339 197.427 466.969 197.056V194.749C468.921 195.337 470.953 195.615 472.991 195.575C475.025 195.615 477.054 195.336 479.003 194.749V197.056C478.632 197.427 476.562 198.063 472.991 198.063ZM479.003 193.173C478.632 193.534 476.543 194.17 472.991 194.17C469.438 194.17 467.339 193.534 466.969 193.173V190.913C468.921 191.501 470.953 191.779 472.991 191.739C475.025 191.779 477.054 191.5 479.003 190.913V193.173ZM479.003 189.375C478.632 189.736 476.543 190.372 472.991 190.372C469.438 190.372 467.339 189.736 466.969 189.337V186.888C468.919 187.488 470.951 187.78 472.991 187.752C475.027 187.779 477.056 187.487 479.003 186.888V189.375ZM478.908 185.378C478.347 185.758 476.324 186.328 472.991 186.328C469.657 186.328 467.624 185.748 467.073 185.378C467.624 184.998 469.657 184.429 472.991 184.429C476.324 184.429 478.347 184.989 478.908 185.34V185.378Z" fill="#2D5967"/>
<path id="Vector_59" d="M466.171 178.485L465.174 179.435L467.957 182.217L470.73 179.444L469.78 178.495L468.688 179.577V179.416C468.673 177.91 468.068 176.469 467.003 175.404C465.937 174.339 464.496 173.734 462.989 173.719H461.365V175.067H462.913C464.064 175.07 465.166 175.528 465.98 176.341C466.793 177.154 467.251 178.256 467.254 179.406V179.568L466.171 178.485Z" fill="#2D5967"/>
<path id="Vector_60" d="M483.058 173.662C481.552 173.676 480.111 174.281 479.045 175.347C477.98 176.412 477.375 177.852 477.36 179.358V179.52L476.277 178.437L475.28 179.387L478.063 182.159L480.836 179.377L479.839 178.428L478.765 179.51V179.349C478.765 178.2 479.221 177.097 480.033 176.284C480.845 175.471 481.947 175.012 483.096 175.01H484.663V173.662H483.058Z" fill="#2D5967"/>
<path id="Vector_61" d="M472.288 173.947V181.429H473.694V173.947L475.821 176.074L476.818 175.087L472.991 171.26L469.163 175.087L470.151 176.074L472.288 173.947Z" fill="#2D5967"/>
</g>
</g>
<g id="Icon Text Label_7">
<text id="IconLabel_13" fill="black" xml:space="preserve" style="white-space: pre" font-family="Oracle Sans" font-size="16" letter-spacing="0em"><tspan x="428.766" y="223.816">Oracle REST</tspan></text>
<text id="IconLabel_14" fill="black" xml:space="preserve" style="white-space: pre" font-family="Oracle Sans" font-size="16" letter-spacing="0em"><tspan x="410.562" y="239.816">Data Service with </tspan></text>
<text id="IconLabel_15" fill="black" xml:space="preserve" style="white-space: pre" font-family="Oracle Sans" font-size="16" letter-spacing="0em"><tspan x="422.266" y="255.816">MongoDB API</tspan></text>
</g>
</g>
<g id="Icon Master_8">
<g id="Application-Server_3">
<g id="Group 191_3">
<path id="Vector_62" d="M438.699 125.302V122.981L441.62 121.527H442.276V67.978H471.023V121.527H471.679L474.6 122.981V125.302H438.699Z" fill="white"/>
<path id="Vector_63" d="M470.324 68.6774V122.227H471.54L473.929 123.415V124.603H439.397V123.415L441.787 122.227H442.975V68.6774H470.324ZM471.721 67.2793H441.578V120.828H441.452L441.158 120.968L438.769 122.157L438 122.548V126.002H475.299V122.548L474.516 122.157L472.141 120.968L471.847 120.828H471.721V67.2793Z" fill="white"/>
<path id="Vector_64" d="M504.813 79.8765H473.901C472.527 79.8765 471.414 80.9907 471.414 82.3652V111.503C471.414 112.877 472.527 113.991 473.901 113.991H504.813C506.187 113.991 507.301 112.877 507.301 111.503V82.3652C507.301 80.9907 506.187 79.8765 504.813 79.8765Z" fill="white"/>
<path id="Vector_65" d="M504.813 80.5759C505.288 80.5759 505.743 80.7644 506.078 81.1001C506.414 81.4357 506.602 81.8909 506.602 82.3655V111.517C506.602 111.992 506.414 112.447 506.078 112.782C505.743 113.118 505.288 113.307 504.813 113.307H473.887C473.415 113.303 472.964 113.113 472.631 112.777C472.299 112.442 472.112 111.989 472.112 111.517V82.3655C472.11 82.1312 472.155 81.8988 472.243 81.6817C472.332 81.4647 472.462 81.2673 472.627 81.1009C472.792 80.9345 472.988 80.8025 473.205 80.7124C473.421 80.6223 473.653 80.5759 473.887 80.5759H504.813ZM504.813 79.1777H473.887C473.044 79.1814 472.238 79.5189 471.643 80.1163C471.048 80.7138 470.715 81.5225 470.715 82.3655V111.517C470.715 112.36 471.048 113.169 471.643 113.766C472.238 114.363 473.044 114.701 473.887 114.705H504.813C505.657 114.701 506.466 114.364 507.062 113.767C507.659 113.17 507.996 112.361 508 111.517V82.3655C508 81.5201 507.664 80.7092 507.066 80.1114C506.469 79.5136 505.658 79.1777 504.813 79.1777Z" fill="white"/>
<path id="Vector_66" d="M463.783 78.7866H449.515V81.1775H447.139V83.5543H449.515V85.9312H463.783V83.5543H466.159V81.1775H463.783V78.7866ZM461.408 83.5543H451.891V81.1775H461.408V83.5543Z" fill="#2D5967"/>
<path id="Vector_67" d="M466.173 74.6338H447.139V77.0095H466.173V74.6338Z" fill="#2D5967"/>
<path id="Vector_68" d="M466.173 87.7207H447.139V90.0964H466.173V87.7207Z" fill="#2D5967"/>
<path id="Vector_69" d="M466.173 116.27H447.139V118.646H466.173V116.27Z" fill="#2D5967"/>
<path id="Vector_70" d="M466.173 112.104H447.139V114.48H466.173V112.104Z" fill="#2D5967"/>
<path id="Vector_71" d="M447.139 110.328H466.159V101.939H447.139V110.328ZM449.515 104.372H463.783V107.951H449.515V104.372Z" fill="#2D5967"/>
<path id="Vector_72" d="M447.139 100.206H466.159V91.8867H447.139V100.206ZM449.515 94.2636H463.783V97.8288H449.515V94.2636Z" fill="#2D5967"/>
<path id="Vector_73" d="M471.54 122.226H470.352V68.6768H442.975V122.226H441.787L439.398 123.414V124.603H473.901V123.414L471.54 122.226ZM445.379 122.226V71.0536H467.948V122.226H445.379Z" fill="#2D5967"/>
<path id="Vector_74" d="M504.813 80.5752H473.887C473.653 80.5752 473.421 80.6216 473.205 80.7117C472.988 80.8018 472.792 80.9338 472.627 81.1002C472.462 81.2666 472.332 81.464 472.243 81.681C472.155 81.8981 472.111 82.1305 472.112 82.3648V111.516C472.112 111.987 472.299 112.439 472.632 112.772C472.965 113.105 473.416 113.292 473.887 113.292H504.813C505.048 113.294 505.28 113.249 505.497 113.161C505.714 113.072 505.911 112.942 506.078 112.777C506.244 112.612 506.376 112.415 506.466 112.199C506.556 111.983 506.602 111.751 506.602 111.516V82.3648C506.602 81.8902 506.414 81.435 506.078 81.0994C505.743 80.7637 505.288 80.5752 504.813 80.5752ZM504.227 82.952V88.9082H474.488V82.952H504.227ZM474.488 110.915V91.3409H504.227V110.915H474.488Z" fill="#2D5967"/>
<path id="Vector_75" d="M478.052 87.1169C478.708 87.1169 479.24 86.5851 479.24 85.9291C479.24 85.273 478.708 84.7412 478.052 84.7412C477.396 84.7412 476.864 85.273 476.864 85.9291C476.864 86.5851 477.396 87.1169 478.052 87.1169Z" fill="#2D5967"/>
<path id="Vector_76" d="M482.216 87.1169C482.872 87.1169 483.404 86.5851 483.404 85.9291C483.404 85.273 482.872 84.7412 482.216 84.7412C481.56 84.7412 481.028 85.273 481.028 85.9291C481.028 86.5851 481.56 87.1169 482.216 87.1169Z" fill="#2D5967"/>
<path id="Vector_77" d="M486.38 87.1169C487.037 87.1169 487.568 86.5851 487.568 85.9291C487.568 85.273 487.037 84.7412 486.38 84.7412C485.724 84.7412 485.193 85.273 485.193 85.9291C485.193 86.5851 485.724 87.1169 486.38 87.1169Z" fill="#2D5967"/>
<path id="Vector_78" d="M495.297 94.9056L493.243 96.108C492.721 95.691 492.136 95.3606 491.51 95.1293V93.0601H487.178V95.1293C486.438 95.4022 485.756 95.8099 485.165 96.3317L483.139 95.1433L481.071 98.6666L483.195 99.911C483.127 100.261 483.094 100.617 483.097 100.974C483.076 101.281 483.076 101.589 483.097 101.896L481.001 103.127L483.069 106.65L484.998 105.518C485.605 106.087 486.323 106.525 487.108 106.804V109.125H491.398V106.804C492.073 106.567 492.699 106.207 493.243 105.741L495.185 106.888L497.254 103.364L495.423 102.232C495.508 101.813 495.55 101.387 495.549 100.96C495.549 100.489 495.492 100.019 495.381 99.5614L497.324 98.4289L495.297 94.9056ZM489.358 104.818C488.594 104.818 487.848 104.592 487.214 104.167C486.579 103.743 486.085 103.139 485.793 102.433C485.502 101.727 485.426 100.951 485.576 100.202C485.726 99.4527 486.095 98.7651 486.636 98.226C487.176 97.6869 487.865 97.3205 488.614 97.1732C489.363 97.0258 490.139 97.1043 490.844 97.3985C491.548 97.6927 492.15 98.1895 492.572 98.8259C492.994 99.4623 493.218 100.21 493.215 100.974C493.215 101.483 493.114 101.988 492.917 102.458C492.721 102.928 492.432 103.355 492.07 103.712C491.707 104.07 491.277 104.352 490.804 104.542C490.331 104.732 489.825 104.826 489.316 104.818H489.358Z" fill="#2D5967"/>
</g>
</g>
<g id="Icon Text Label_8">
<text id="IconLabel_16" fill="black" xml:space="preserve" style="white-space: pre" font-family="Oracle Sans" font-size="16" letter-spacing="0em"><tspan x="394.633" y="143.816">Container Application</tspan></text>
</g>
</g>
</g>
</g>
<defs>
<clipPath id="clip0_20462_15213">
<rect width="1368" height="290" fill="white"/>
</clipPath>
</defs>
</svg>
