<svg width="1033" height="728" viewBox="0 0 1033 728" fill="none" xmlns="http://www.w3.org/2000/svg">
<g id="weblogic-oke" >
<rect width="1032" height="728" transform="translate(0.5)" fill="white"/>
<g id="OCI Region">
<rect x="1" y="0.5" width="1031" height="727" rx="3.5" fill="#F5F4F2"/>
<rect x="1" y="0.5" width="1031" height="727" rx="3.5" stroke="#9E9892"/>
<text id="OCI Region_2" fill="#312D2A" xml:space="preserve" style="white-space: pre" font-family="Oracle Sans" font-size="16" font-weight="bold" letter-spacing="0em"><tspan x="8.5" y="21.816">OCI Region</tspan></text>
</g>
<g id="OCI Region_3">
<rect x="105" y="16.5" width="863" height="703" rx="3.5" fill="#E4E1DD"/>
<rect x="105" y="16.5" width="863" height="703" rx="3.5" stroke="#9E9892"/>
<text id="Availability Domain" fill="#312D2A" xml:space="preserve" style="white-space: pre" font-family="Oracle Sans" font-size="16" font-weight="600" letter-spacing="0em"><tspan x="464.555" y="37.816">Availability Domain</tspan></text>
</g>
<g id="OCI Region_4">
<rect x="113.9" y="48.5" width="222" height="663" rx="3.5" fill="white"/>
<rect x="113.9" y="48.5" width="222" height="663" rx="3.5" stroke="#9E9892"/>
<text id="Fault Domain" fill="#312D2A" xml:space="preserve" style="white-space: pre" font-family="Oracle Sans" font-size="16" font-weight="600" letter-spacing="0em"><tspan x="170.158" y="69.816">Fault Domain 1</tspan></text>
</g>
<g id="OCI Region_5">
<rect x="352.9" y="48.5" width="223" height="663" rx="3.5" fill="white"/>
<rect x="352.9" y="48.5" width="223" height="663" rx="3.5" stroke="#9E9892"/>
<text id="Fault Domain_2" fill="#312D2A" xml:space="preserve" style="white-space: pre" font-family="Oracle Sans" font-size="16" font-weight="600" letter-spacing="0em"><tspan x="408.603" y="69.816">Fault Domain 2</tspan></text>
</g>
<g id="OCI Region_6">
<rect x="592.9" y="48.5" width="223" height="663" rx="3.5" fill="white"/>
<rect x="592.9" y="48.5" width="223" height="663" rx="3.5" stroke="#9E9892"/>
<text id="Fault Domain_3" fill="#312D2A" xml:space="preserve" style="white-space: pre" font-family="Oracle Sans" font-size="16" font-weight="600" letter-spacing="0em"><tspan x="648.548" y="69.816">Fault Domain 3</tspan></text>
</g>
<g id="VCN box_New">
<rect id="Rectangle 28" x="9.5" y="80.9148" width="1014" height="622" stroke="#AA643B" stroke-width="2" stroke-dasharray="8 4"/>
<g id="Icon Master">
<g id="Srv-VCN">
<g id="Group 39">
<path id="Vector" d="M1002.92 103.51C1001.66 103.51 1000.44 103.077 999.469 102.285C998.495 101.493 997.823 100.39 997.566 99.1603H991.095C990.908 100.054 990.5 100.887 989.908 101.583C989.316 102.279 988.56 102.816 987.708 103.144C986.856 103.472 985.935 103.582 985.03 103.463C984.125 103.343 983.264 102.999 982.526 102.462C981.787 101.924 981.195 101.21 980.804 100.385C980.412 99.56 980.233 98.6498 980.283 97.7376C980.333 96.8254 980.611 95.9403 981.09 95.163C981.57 94.3857 982.237 93.7409 983.029 93.2875L981.033 87.1411C980.836 87.1547 980.638 87.1547 980.441 87.1411C979.553 87.1431 978.679 86.9289 977.892 86.5169C977.106 86.105 976.432 85.5077 975.928 84.7766C975.423 84.0456 975.105 83.2028 974.999 82.3209C974.894 81.4391 975.004 80.5448 975.321 79.7152C975.638 78.8857 976.152 78.1458 976.819 77.5595C977.486 76.9733 978.285 76.5582 979.148 76.3502C980.011 76.1422 980.911 76.1475 981.772 76.3657C982.632 76.5838 983.427 77.0083 984.086 77.6024L989.345 73.8726C989.027 73.1674 988.863 72.4028 988.862 71.6293C988.862 70.1781 989.438 68.7864 990.464 67.7603C991.489 66.7342 992.88 66.1577 994.33 66.1577C995.781 66.1577 997.172 66.7342 998.197 67.7603C999.223 68.7864 999.799 70.1781 999.799 71.6293C999.801 72.4021 999.639 73.1667 999.325 73.8726L1004.59 77.6389C1005.59 76.7257 1006.89 76.2182 1008.24 76.2163C1009.69 76.2163 1011.08 76.7927 1012.1 77.8188C1013.13 78.845 1013.71 80.2367 1013.71 81.6878C1013.71 83.139 1013.13 84.5307 1012.1 85.5568C1011.08 86.5829 1009.69 87.1594 1008.24 87.1594C1008.05 87.1594 1007.85 87.1594 1007.65 87.1594L1005.65 93.3058C1006.7 93.9051 1007.52 94.8351 1007.98 95.9505C1008.45 97.0659 1008.53 98.304 1008.22 99.4714C1007.91 100.639 1007.22 101.67 1006.26 102.404C1005.3 103.138 1004.12 103.533 1002.92 103.528V103.51Z" fill="white"/>
<path id="Vector_2" d="M994.34 66.577C995.207 66.579 996.06 66.8059 996.814 67.2356C997.568 67.6653 998.197 68.2832 998.642 69.029C999.086 69.7748 999.329 70.623 999.349 71.491C999.368 72.359 999.162 73.2172 998.751 73.9818L1004.59 78.2314C1005.16 77.6323 1005.88 77.1844 1006.66 76.9277C1007.45 76.6711 1008.29 76.6137 1009.11 76.7607C1009.92 76.9076 1010.69 77.2544 1011.33 77.7699C1011.98 78.2855 1012.49 78.9538 1012.82 79.715C1013.15 80.4763 1013.28 81.3068 1013.21 82.1324C1013.14 82.958 1012.86 83.7529 1012.41 84.446C1011.95 85.1391 1011.34 85.7089 1010.61 86.1043C1009.88 86.4998 1009.07 86.7087 1008.24 86.7123C1007.93 86.7165 1007.63 86.6921 1007.33 86.6393L1005.09 93.5244C1005.87 93.9013 1006.54 94.4746 1007.04 95.1881C1007.53 95.9016 1007.83 96.7309 1007.91 97.5951C1007.99 98.4593 1007.84 99.3288 1007.48 100.119C1007.12 100.908 1006.56 101.591 1005.86 102.101C1005.16 102.611 1004.34 102.929 1003.47 103.026C1002.61 103.123 1001.74 102.994 1000.94 102.653C1000.15 102.312 999.452 101.769 998.927 101.079C998.402 100.388 998.065 99.5731 997.949 98.7132H990.712C990.595 99.5731 990.257 100.388 989.731 101.078C989.206 101.768 988.51 102.31 987.712 102.65C986.914 102.991 986.042 103.118 985.18 103.02C984.318 102.922 983.496 102.603 982.795 102.092C982.094 101.581 981.537 100.897 981.179 100.106C980.822 99.316 980.675 98.4461 980.753 97.5818C980.832 96.7176 981.134 95.8885 981.628 95.1758C982.123 94.463 982.794 93.8908 983.576 93.5153L981.343 86.6393C981.043 86.6952 980.737 86.7226 980.432 86.7214C979.601 86.7199 978.784 86.5123 978.053 86.1171C977.322 85.7219 976.701 85.1515 976.245 84.457C975.789 83.7626 975.511 82.9657 975.439 82.1378C975.366 81.3099 975.499 80.4768 975.827 79.7132C976.155 78.9496 976.667 78.2793 977.317 77.7623C977.968 77.2453 978.736 76.8979 979.554 76.751C980.371 76.6042 981.212 76.6626 982.002 76.9209C982.791 77.1793 983.505 77.6295 984.077 78.2314L989.919 73.9818C989.508 73.2165 989.302 72.3575 989.321 71.4887C989.341 70.62 989.585 69.7711 990.031 69.0251C990.476 68.279 991.107 67.6613 991.862 67.2322C992.618 66.8032 993.471 66.5774 994.34 66.577ZM994.34 65.665C992.768 65.665 991.26 66.2893 990.147 67.4006C989.035 68.512 988.409 70.0196 988.406 71.5926C988.406 72.3062 988.535 73.014 988.789 73.6809L984.132 77.055C983.391 76.4637 982.519 76.0587 981.589 75.8739C980.66 75.6891 979.699 75.7298 978.788 75.9927C977.878 76.2556 977.043 76.733 976.355 77.385C975.666 78.0369 975.144 78.8444 974.832 79.7398C974.519 80.6353 974.426 81.5926 974.559 82.5316C974.692 83.4706 975.048 84.364 975.598 85.1369C976.147 85.9099 976.873 86.5399 977.716 86.9742C978.559 87.4086 979.493 87.6346 980.441 87.6333H980.705L982.528 93.1049C981.73 93.6331 981.072 94.3468 980.61 95.185C980.148 96.0231 979.896 96.9608 979.875 97.9178C979.854 98.8748 980.064 99.8226 980.489 100.68C980.914 101.538 981.54 102.28 982.314 102.843C983.088 103.406 983.986 103.772 984.933 103.912C985.879 104.052 986.845 103.96 987.749 103.645C988.652 103.329 989.465 102.8 990.12 102.102C990.774 101.403 991.249 100.557 991.505 99.6343H997.247C997.501 100.56 997.976 101.41 998.63 102.112C999.284 102.814 1000.1 103.346 1001 103.664C1001.91 103.981 1002.88 104.075 1003.83 103.936C1004.78 103.797 1005.68 103.429 1006.45 102.865C1007.23 102.301 1007.86 101.558 1008.28 100.697C1008.71 99.8374 1008.92 98.8868 1008.9 97.9272C1008.88 96.9676 1008.62 96.0275 1008.16 95.1877C1007.7 94.3478 1007.03 93.6331 1006.23 93.1049L1008.06 87.6333H1008.24C1009.04 87.6781 1009.85 87.5579 1010.61 87.2802C1011.37 87.0026 1012.06 86.5732 1012.64 86.0184C1013.23 85.4636 1013.7 84.795 1014.02 84.0535C1014.34 83.312 1014.5 82.5131 1014.5 81.7058C1014.5 80.8985 1014.34 80.0997 1014.02 79.3582C1013.7 78.6167 1013.23 77.9481 1012.64 77.3933C1012.06 76.8384 1011.37 76.4091 1010.61 76.1314C1009.85 75.8537 1009.04 75.7336 1008.24 75.7783C1006.9 75.775 1005.59 76.232 1004.55 77.0732L999.899 73.6991C1000.15 73.0305 1000.27 72.3235 1000.27 71.6108C1000.27 70.8304 1000.12 70.0575 999.824 69.3361C999.526 68.6148 999.089 67.9593 998.538 67.4071C997.987 66.8548 997.333 66.4167 996.612 66.1178C995.892 65.8189 995.119 65.665 994.34 65.665V65.665Z" fill="white"/>
<path id="Vector_3" d="M1008.24 76.6709C1007.56 76.6691 1006.88 76.8065 1006.26 77.0746C1005.63 77.3428 1005.06 77.736 1004.59 78.2303L998.751 73.9807C999.165 73.2153 999.374 72.3554 999.356 71.4851C999.338 70.6149 999.095 69.7642 998.65 69.0164C998.205 68.2685 997.573 67.6493 996.817 67.2192C996.06 66.7891 995.205 66.563 994.335 66.563C993.466 66.563 992.611 66.7891 991.854 67.2192C991.098 67.6493 990.466 68.2685 990.021 69.0164C989.576 69.7642 989.332 70.6149 989.315 71.4851C989.297 72.3554 989.505 73.2153 989.92 73.9807L984.069 78.2303C983.496 77.6333 982.784 77.1875 981.997 76.9327C981.209 76.6779 980.371 76.622 979.558 76.77C978.744 76.918 977.979 77.2653 977.332 77.7809C976.684 78.2965 976.175 78.9643 975.848 79.7249C975.522 80.4855 975.388 81.3151 975.46 82.1398C975.532 82.9644 975.806 83.7585 976.259 84.4512C976.712 85.1439 977.33 85.7136 978.056 86.1095C978.783 86.5054 979.596 86.7153 980.423 86.7203C980.729 86.7216 981.034 86.6941 981.335 86.6383L983.567 93.5051C982.786 93.8806 982.114 94.4528 981.62 95.1656C981.125 95.8783 980.823 96.7074 980.745 97.5716C980.666 98.4359 980.813 99.3058 981.171 100.096C981.529 100.887 982.085 101.571 982.787 102.082C983.488 102.592 984.309 102.912 985.171 103.01C986.033 103.108 986.905 102.981 987.703 102.64C988.501 102.3 989.197 101.758 989.723 101.068C990.249 100.378 990.587 99.5629 990.704 98.703H997.94C998.056 99.5629 998.393 100.378 998.918 101.068C999.443 101.759 1000.14 102.301 1000.94 102.643C1001.73 102.984 1002.6 103.113 1003.47 103.016C1004.33 102.919 1005.15 102.601 1005.85 102.091C1006.55 101.581 1007.11 100.898 1007.47 100.108C1007.83 99.3186 1007.98 98.4491 1007.9 97.5849C1007.82 96.7207 1007.52 95.8914 1007.03 95.1779C1006.54 94.4644 1005.87 93.8911 1005.09 93.5142L1007.33 86.6383C1007.63 86.6941 1007.93 86.7216 1008.24 86.7203C1008.92 86.7616 1009.61 86.6625 1010.25 86.4291C1010.9 86.1957 1011.48 85.8329 1011.98 85.3632C1012.48 84.8934 1012.88 84.3265 1013.15 83.6973C1013.42 83.0682 1013.56 82.3901 1013.56 81.7047C1013.56 81.0194 1013.42 80.3413 1013.15 79.7121C1012.88 79.083 1012.48 78.5161 1011.98 78.0463C1011.48 77.5765 1010.9 77.2138 1010.25 76.9804C1009.61 76.747 1008.92 76.6479 1008.24 76.6891V76.6709ZM1002.92 101.712C1002.2 101.712 1001.49 101.498 1000.89 101.098C1000.29 100.697 999.824 100.127 999.548 99.4606C999.272 98.7941 999.2 98.0606 999.341 97.3531C999.481 96.6455 999.828 95.9955 1000.34 95.4854C1000.85 94.9752 1001.5 94.6278 1002.2 94.4871C1002.91 94.3463 1003.65 94.4186 1004.31 94.6946C1004.98 94.9707 1005.55 95.4383 1005.95 96.0381C1006.35 96.638 1006.56 97.3432 1006.56 98.0647C1006.56 99.0321 1006.18 99.9599 1005.49 100.644C1004.81 101.328 1003.88 101.712 1002.92 101.712ZM990.713 97.3625C990.563 96.2302 990.029 95.1838 989.2 94.3987L991.934 90.5778C992.667 90.9668 993.483 91.1703 994.313 91.1705C995.139 91.1734 995.954 90.9696 996.682 90.5778L999.416 94.3987C998.585 95.1829 998.047 96.2292 997.894 97.3625H990.713ZM982.064 98.0373C982.064 97.3159 982.277 96.6106 982.678 96.0108C983.079 95.4109 983.648 94.9434 984.314 94.6673C984.98 94.3912 985.713 94.319 986.42 94.4597C987.128 94.6005 987.777 94.9479 988.287 95.458C988.797 95.9681 989.144 96.6181 989.285 97.3257C989.425 98.0333 989.353 98.7667 989.077 99.4332C988.801 100.1 988.334 100.669 987.735 101.07C987.135 101.471 986.43 101.685 985.709 101.685C984.742 101.685 983.815 101.301 983.131 100.617C982.448 99.9326 982.064 99.0048 982.064 98.0373ZM980.441 78.0205C981.162 78.0205 981.867 78.2345 982.467 78.6353C983.066 79.0361 983.533 79.6058 983.809 80.2723C984.085 80.9389 984.158 81.6723 984.017 82.3799C983.876 83.0875 983.529 83.7374 983.019 84.2476C982.509 84.7577 981.86 85.1051 981.153 85.2459C980.445 85.3866 979.712 85.3144 979.046 85.0383C978.38 84.7622 977.811 84.2947 977.41 83.6948C977.01 83.0949 976.796 82.3897 976.796 81.6683C976.796 80.7008 977.18 79.773 977.864 79.0889C978.547 78.4049 979.474 78.0205 980.441 78.0205ZM990.658 71.6371C990.658 70.9156 990.872 70.2104 991.272 69.6105C991.673 69.0106 992.242 68.5431 992.908 68.267C993.575 67.9909 994.308 67.9187 995.015 68.0595C995.722 68.2002 996.371 68.5476 996.881 69.0577C997.391 69.5679 997.738 70.2178 997.879 70.9254C998.02 71.633 997.947 72.3665 997.672 73.033C997.396 73.6995 996.928 74.2692 996.329 74.67C995.729 75.0708 995.025 75.2848 994.304 75.2848C993.821 75.2848 993.343 75.189 992.898 75.0028C992.453 74.8167 992.049 74.5439 991.709 74.2003C991.37 73.8567 991.103 73.4492 990.922 73.0014C990.742 72.5536 990.652 72.0743 990.658 71.5915V71.6371ZM1003.29 82.5802L998.87 83.9937C998.509 83.2393 997.968 82.5862 997.294 82.0928C996.619 81.5994 995.833 81.2812 995.005 81.1667V76.6071C996.134 76.4568 997.177 75.9222 997.958 75.0933L1003.82 79.3428C1003.42 80.0733 1003.21 80.8917 1003.22 81.723C1003.22 82.0071 1003.24 82.2907 1003.29 82.5711V82.5802ZM998.013 86.164C998.013 86.8855 997.799 87.5907 997.398 88.1906C996.998 88.7905 996.429 89.258 995.762 89.5341C995.096 89.8102 994.363 89.8824 993.656 89.7417C992.949 89.6009 992.299 89.2535 991.79 88.7434C991.28 88.2332 990.932 87.5833 990.792 86.8757C990.651 86.1681 990.723 85.4347 990.999 84.7681C991.275 84.1016 991.742 83.5319 992.342 83.1311C992.941 82.7303 993.646 82.5163 994.367 82.5163C995.333 82.5163 996.258 82.8994 996.942 83.5815C997.625 84.2636 998.01 85.1891 998.013 86.1549V86.164ZM993.656 76.6071V81.1667C992.831 81.2794 992.046 81.596 991.373 82.0879C990.7 82.5798 990.16 83.2316 989.801 83.9845L985.372 82.5711C985.429 82.2705 985.456 81.9651 985.454 81.6591C985.446 80.8505 985.243 80.0557 984.862 79.3428L990.713 75.0841C991.49 75.9146 992.53 76.4523 993.656 76.6071ZM984.962 83.9025L989.391 85.316C989.335 85.6166 989.307 85.922 989.309 86.2279C989.306 86.9111 989.443 87.5876 989.713 88.2152C989.983 88.8428 990.379 89.408 990.877 89.8756L988.143 93.7057C987.415 93.3099 986.601 93.103 985.773 93.1038C985.467 93.102 985.162 93.1294 984.862 93.1859L982.62 86.2188C983.642 85.7343 984.471 84.918 984.971 83.9025H984.962ZM1002.92 93.0217C1002.09 93.023 1001.28 93.2265 1000.55 93.6145L997.812 89.8026C998.308 89.3337 998.703 88.7682 998.973 88.1409C999.243 87.5136 999.381 86.8378 999.38 86.1549C999.382 85.849 999.355 85.5436 999.298 85.243L1003.68 83.8478C1004.18 84.8791 1005.01 85.7139 1006.03 86.2188L1003.8 93.0947C1003.51 93.0436 1003.21 93.0192 1002.92 93.0217ZM1004.59 81.6956C1004.59 80.9742 1004.81 80.2689 1005.21 79.6691C1005.61 79.0692 1006.18 78.6017 1006.84 78.3256C1007.51 78.0495 1008.24 77.9772 1008.95 78.118C1009.66 78.2587 1010.31 78.6062 1010.82 79.1163C1011.33 79.6264 1011.67 80.2764 1011.81 80.984C1011.95 81.6916 1011.88 82.425 1011.61 83.0915C1011.33 83.7581 1010.86 84.3278 1010.26 84.7286C1009.66 85.1294 1008.96 85.3433 1008.24 85.3433C1007.27 85.3433 1006.34 84.959 1005.66 84.2749C1004.98 83.5908 1004.59 82.663 1004.59 81.6956Z" fill="#AA643B"/>
</g>
</g>
</g>
<text id="VCN" fill="#AE562C" xml:space="preserve" style="white-space: pre" font-family="Oracle Sans" font-size="16" font-weight="600" letter-spacing="0em"><tspan x="17.5" y="102.816">VCN</tspan></text>
</g>
<g id="OCI Section Boxes">
<rect x="122" y="128.5" width="830" height="431" fill="white"/>
<rect x="122" y="128.5" width="830" height="431" stroke="#312D2A" stroke-dasharray="4 4"/>
<text id="Tier" fill="#312D2A" xml:space="preserve" style="white-space: pre" font-family="Oracle Sans" font-size="16" font-weight="bold" letter-spacing="0em"><tspan x="129.5" y="149.816">OCI Kubernetes Engine (OKE)</tspan></text>
</g>
<g id="OCI Subnet Boxes_New">
<rect x="17" y="113.901" width="943" height="119" stroke="#AA643B" stroke-dasharray="8 4"/>
<text id="Subnet" fill="#AE562C" xml:space="preserve" style="white-space: pre" font-family="Oracle Sans" font-size="16" font-weight="600" letter-spacing="0em"><tspan x="24.5" y="135.217">Subnet B</tspan></text>
</g>
<g id="OCI Subnet Boxes_New_2">
<rect x="17.5" y="248.5" width="943" height="447" stroke="#AA643B" stroke-dasharray="8 4"/>
<text id="Subnet_2" fill="#AE562C" xml:space="preserve" style="white-space: pre" font-family="Oracle Sans" font-size="16" font-weight="600" letter-spacing="0em"><tspan x="25" y="269.816">Subnet A</tspan></text>
</g>
<path id="Vector 47" d="M704.5 344L704.5 392" stroke="#312D2A" stroke-width="2"/>
<path id="Vector 50" d="M465 219.6L465 392" stroke="#312D2A" stroke-width="2"/>
<path id="Vector 48" d="M856.5 472.802H806.5" stroke="#312D2A" stroke-width="2"/>
<path id="Vector 49" d="M890.5 600L890.5 536" stroke="#312D2A" stroke-width="2"/>
<g id="OCI Load Balancer">
<g id="Srv-OCI Load Balancer">
<g id="Group">
<g id="Group_2">
<g id="Group_3">
<path id="Vector_4" d="M483.511 196.487V192.916H487.766L467.908 172.916C467.341 179.773 465.781 185.773 463.369 190.344C460.391 195.487 457.412 196.487 455.426 196.487C455.142 196.487 454.717 196.487 454.291 196.344C448.618 195.344 445.071 186.63 443.795 178.916C443.227 176.059 442.944 172.63 442.802 169.059H435.71V165.487H442.802C442.944 161.773 443.227 158.201 443.795 155.201C445.639 144.63 450.036 138.059 455.426 138.059C458.547 138.059 464.079 140.344 467.057 155.487C467.341 157.487 467.625 159.487 467.766 161.487L487.625 141.487H483.369V137.916H493.724V148.344H490.32V143.773L468.901 165.487H487.199L484.362 162.773L486.774 160.201L494.149 167.201L486.915 174.487L484.362 171.916L487.341 168.916H469.043L490.32 190.487V186.059H493.866V196.487H483.511Z" fill="white"/>
<path id="Vector_5" d="M493.156 138.63V147.63H491.028V142.058L467.34 166.058V166.201H488.901L485.355 162.773L486.773 161.201L493.156 167.201L486.915 173.487L485.496 172.058L489.184 168.344H467.34L491.028 192.201V186.773H493.156V195.773H484.22V193.63H489.468L467.199 171.201C466.915 177.773 465.496 184.487 462.66 189.915C459.965 194.487 457.27 195.63 455.284 195.63C455 195.63 454.574 195.63 454.291 195.487C448.901 194.487 445.638 185.773 444.362 178.63C443.936 175.63 443.511 171.915 443.511 168.201H436.418V166.058H443.511C443.511 162.201 443.936 158.487 444.504 155.201C446.348 145.201 450.461 138.773 455.426 138.773C458.262 138.773 463.369 141.058 466.206 155.63C466.631 157.915 466.915 160.344 467.057 163.058L489.468 140.773H484.22V138.63H493.156ZM494.574 137.201H493.156H484.22H482.801V138.63V140.773V142.201H484.22H486.064L468.333 159.915C468.191 158.344 467.908 156.915 467.766 155.487C464.787 140.487 459.539 137.344 455.567 137.344C449.752 137.344 445.213 144.058 443.227 155.058C442.66 157.915 442.376 161.201 442.234 164.773H436.418H435V166.201V168.344V169.773H436.418H442.092C442.234 173.058 442.518 176.344 443.085 179.058C444.504 187.058 448.05 195.915 454.149 197.058C454.574 197.058 455 197.201 455.426 197.201C457.553 197.201 460.816 196.058 463.936 190.773C466.206 186.344 467.766 180.915 468.333 174.63L486.064 192.201H484.22H482.801V193.63V195.773V197.201H484.22H493.156H494.574V195.773V186.773V185.344H493.156H491.028H489.61V186.773V188.773L470.745 169.63H485.638L484.362 170.915L483.369 171.915L484.362 172.915L485.78 174.344L486.773 175.344L487.766 174.344L494.007 168.058L495 167.058L494.007 166.058L487.766 160.058L486.773 159.058L485.78 160.058L484.362 161.63L483.369 162.63L484.362 163.63L485.355 164.63H470.603L489.61 145.487V147.63V149.058H491.028H493.156H494.574V147.63V138.63V137.201Z" fill="white"/>
</g>
<g id="Group_4">
<path id="Vector_6" d="M493.155 147.63V138.63H484.219V140.773H489.467L467.198 163.059C467.056 160.344 466.772 157.916 466.347 155.63C463.51 140.916 458.404 138.773 455.567 138.773C450.602 138.773 446.489 145.202 444.645 155.344C443.935 158.63 443.652 162.344 443.51 166.202H436.418V168.344H443.51C443.51 172.059 443.935 175.63 444.503 178.773C445.779 185.916 449.042 194.63 454.432 195.63C454.716 195.63 454.999 195.773 455.425 195.773C457.411 195.773 460.106 194.63 462.801 190.059C465.638 184.63 466.914 177.916 467.34 171.344L489.609 193.773H484.361V195.773H493.155V186.773H491.028V192.202L467.34 168.344H489.042L485.354 172.059L486.772 173.487L493.155 167.202L486.914 161.202L485.496 162.773L489.042 166.202H467.34V166.059L491.028 142.059V147.63H493.155ZM460.389 188.63C459.113 190.63 457.411 193.059 455.283 193.059C455.141 193.059 454.999 193.059 454.857 193.059C451.737 192.487 448.333 186.344 447.056 178.344C446.489 175.344 446.205 171.916 446.063 168.344H458.687L454.999 172.059L456.56 173.487L462.801 167.202L456.276 160.916L454.857 162.487L458.687 166.202H446.205C446.205 162.63 446.63 158.916 447.198 155.916C448.9 145.916 452.73 141.487 455.425 141.487C457.978 141.487 461.524 145.344 463.652 156.202C465.496 165.916 465.07 179.773 460.389 188.63Z" fill="#2D5967"/>
</g>
</g>
</g>
</g>
<g id="Icon Text Label">
<text id="IconLabel" fill="black" xml:space="preserve" style="white-space: pre" font-family="Oracle Sans" font-size="16" letter-spacing="0em"><tspan x="398.664" y="215.017">OCI Load Balancer</tspan></text>
</g>
</g>
<g id="OCI Section Boxes_2">
<rect x="130" y="392.5" width="678" height="159" fill="#F5F4F2"/>
<rect x="130" y="392.5" width="678" height="159" stroke="#9E9892" stroke-dasharray="2 2"/>
<text id="Tier_2" fill="#312D2A" xml:space="preserve" style="white-space: pre" font-family="Oracle Sans" font-size="16" letter-spacing="0em"><tspan x="137.5" y="413.816">Weblogic Server Domain</tspan></text>
</g>
<g id="Managed Server Pod">
<g id="OCI- Containers">
<g id="Group_5">
<g id="Group_6">
<path id="Vector_7" d="M261.084 497.254C259.443 497.254 257.95 495.911 257.95 494.119V441.881C257.95 440.239 259.293 438.746 261.084 438.746H313.323C315.114 438.746 316.458 440.09 316.458 441.881V494.119C316.458 495.911 315.114 497.254 313.323 497.254H261.084Z" fill="white"/>
<path id="Vector_8" d="M313.323 439.493C314.667 439.493 315.711 440.537 315.711 441.881V494.119C315.711 495.463 314.667 496.507 313.323 496.507H261.085C259.741 496.507 258.696 495.463 258.696 494.119V441.881C258.696 440.537 259.741 439.493 261.085 439.493H313.323ZM313.323 438H261.085C258.995 438 257.204 439.791 257.204 441.881V494.119C257.204 496.209 258.995 498 261.085 498H313.323C315.413 498 317.204 496.209 317.204 494.119V441.881C317.204 439.791 315.562 438 313.323 438Z" fill="white"/>
</g>
<g id="Group_7">
<path id="Vector_9" d="M313.323 439.493H261.085C259.741 439.493 258.696 440.537 258.696 441.881V494.12C258.696 495.463 259.741 496.508 261.085 496.508H313.323C314.667 496.508 315.711 495.463 315.711 494.12V441.881C315.711 440.537 314.667 439.493 313.323 439.493ZM313.622 494.12C313.622 494.269 313.473 494.418 313.323 494.418H261.085C260.935 494.418 260.786 494.269 260.786 494.12V441.881C260.786 441.731 260.935 441.582 261.085 441.582H313.323C313.473 441.582 313.622 441.731 313.622 441.881V494.12Z" fill="#2D5967"/>
<path id="Vector_10" d="M264.965 489.94H309.443V477.254H264.965V489.94ZM267.204 479.343H307.353V487.851H267.204V479.343Z" fill="#2D5967"/>
<path id="Vector_11" d="M302.577 485.314C303.484 485.314 304.219 484.579 304.219 483.672C304.219 482.765 303.484 482.03 302.577 482.03C301.67 482.03 300.935 482.765 300.935 483.672C300.935 484.579 301.67 485.314 302.577 485.314Z" fill="#2D5967"/>
<path id="Vector_12" d="M285.562 445.761H264.965V458.448H285.562V445.761ZM274.517 448H276.159V456.508H274.517C274.517 456.358 274.517 448 274.517 448ZM272.428 456.358H270.786V448H272.428V456.358ZM278.249 448H279.891V456.508H278.249V448ZM267.204 448H268.846V456.508H267.204V448ZM283.473 456.358H281.831V448H283.473V456.358Z" fill="#2D5967"/>
<path id="Vector_13" d="M288.846 458.448H309.443V445.761H288.846V458.448ZM299.891 456.358H298.249V448H299.891V456.358ZM301.98 448H303.622V456.508H301.98V448ZM296.159 456.358H294.517V448H296.159V456.358ZM307.353 456.358H305.711V448H307.353V456.358ZM290.935 448H292.577V456.508H290.935V448Z" fill="#2D5967"/>
<path id="Vector_14" d="M285.562 461.731H264.965V474.418H285.562V461.731ZM274.517 463.821H276.159V472.328H274.517C274.517 472.179 274.517 463.821 274.517 463.821ZM272.428 472.328H270.786V463.821H272.428V472.328ZM278.249 463.821H279.891V472.328H278.249V463.821ZM267.204 463.821H268.846V472.328H267.204V463.821ZM283.473 472.328H281.831V463.821H283.473V472.328Z" fill="#2D5967"/>
<path id="Vector_15" d="M288.846 474.418H309.443V461.731H288.846V474.418ZM299.891 472.328H298.249V463.821H299.891V472.328ZM301.98 463.821H303.622V472.328H301.98V463.821ZM296.159 472.328H294.517V463.821H296.159V472.328ZM307.353 472.328H305.711V463.821H307.353V472.328ZM290.935 463.821H292.577V472.328H290.935V463.821Z" fill="#2D5967"/>
</g>
</g>
</g>
<g id="Icon Text Label_2">
<text id="IconLabel_2" fill="black" xml:space="preserve" style="white-space: pre" font-family="Oracle Sans" font-size="16" letter-spacing="0em"><tspan x="253.055" y="515.816">Managed</tspan></text>
<text id="IconLabel_3" fill="black" xml:space="preserve" style="white-space: pre" font-family="Oracle Sans" font-size="16" letter-spacing="0em"><tspan x="248.86" y="531.816">server pod</tspan></text>
</g>
</g>
<g id="Admin Server Pod">
<g id="OCI- Containers_2">
<g id="Group_8">
<g id="Group_9">
<path id="Vector_16" d="M149.282 497.254C147.64 497.254 146.147 495.911 146.147 494.119V441.881C146.147 440.239 147.491 438.746 149.282 438.746H201.521C203.312 438.746 204.655 440.09 204.655 441.881V494.119C204.655 495.911 203.312 497.254 201.521 497.254H149.282Z" fill="white"/>
<path id="Vector_17" d="M201.521 439.493C202.864 439.493 203.909 440.537 203.909 441.881V494.119C203.909 495.463 202.864 496.507 201.521 496.507H149.282C147.938 496.507 146.894 495.463 146.894 494.119V441.881C146.894 440.537 147.938 439.493 149.282 439.493H201.521ZM201.521 438H149.282C147.192 438 145.401 439.791 145.401 441.881V494.119C145.401 496.209 147.192 498 149.282 498H201.521C203.61 498 205.401 496.209 205.401 494.119V441.881C205.401 439.791 203.759 438 201.521 438Z" fill="white"/>
</g>
<g id="Group_10">
<path id="Vector_18" d="M201.521 439.493H149.282C147.939 439.493 146.894 440.537 146.894 441.881V494.12C146.894 495.463 147.939 496.508 149.282 496.508H201.521C202.864 496.508 203.909 495.463 203.909 494.12V441.881C203.909 440.537 202.864 439.493 201.521 439.493ZM201.819 494.12C201.819 494.269 201.67 494.418 201.521 494.418H149.282C149.133 494.418 148.983 494.269 148.983 494.12V441.881C148.983 441.731 149.133 441.582 149.282 441.582H201.521C201.67 441.582 201.819 441.731 201.819 441.881V494.12Z" fill="#2D5967"/>
<path id="Vector_19" d="M153.162 489.94H197.64V477.254H153.162V489.94ZM155.401 479.343H195.55V487.851H155.401V479.343Z" fill="#2D5967"/>
<path id="Vector_20" d="M190.774 485.314C191.681 485.314 192.416 484.579 192.416 483.672C192.416 482.765 191.681 482.03 190.774 482.03C189.868 482.03 189.133 482.765 189.133 483.672C189.133 484.579 189.868 485.314 190.774 485.314Z" fill="#2D5967"/>
<path id="Vector_21" d="M173.759 445.761H153.162V458.448H173.759V445.761ZM162.715 448H164.356V456.508H162.715C162.715 456.358 162.715 448 162.715 448ZM160.625 456.358H158.983V448H160.625V456.358ZM166.446 448H168.088V456.508H166.446V448ZM155.401 448H157.043V456.508H155.401V448ZM171.67 456.358H170.028V448H171.67V456.358Z" fill="#2D5967"/>
<path id="Vector_22" d="M177.043 458.448H197.64V445.761H177.043V458.448ZM188.088 456.358H186.446V448H188.088V456.358ZM190.177 448H191.819V456.508H190.177V448ZM184.356 456.358H182.715V448H184.356V456.358ZM195.55 456.358H193.909V448H195.55V456.358ZM179.133 448H180.774V456.508H179.133V448Z" fill="#2D5967"/>
<path id="Vector_23" d="M173.759 461.731H153.162V474.418H173.759V461.731ZM162.715 463.821H164.356V472.328H162.715C162.715 472.179 162.715 463.821 162.715 463.821ZM160.625 472.328H158.983V463.821H160.625V472.328ZM166.446 463.821H168.088V472.328H166.446V463.821ZM155.401 463.821H157.043V472.328H155.401V463.821ZM171.67 472.328H170.028V463.821H171.67V472.328Z" fill="#2D5967"/>
<path id="Vector_24" d="M177.043 474.418H197.64V461.731H177.043V474.418ZM188.088 472.328H186.446V463.821H188.088V472.328ZM190.177 463.821H191.819V472.328H190.177V463.821ZM184.356 472.328H182.715V463.821H184.356V472.328ZM195.55 472.328H193.909V463.821H195.55V472.328ZM179.133 463.821H180.774V472.328H179.133V463.821Z" fill="#2D5967"/>
</g>
</g>
</g>
<g id="Icon Text Label_3">
<text id="IconLabel_4" fill="black" xml:space="preserve" style="white-space: pre" font-family="Oracle Sans" font-size="16" letter-spacing="0em"><tspan x="151.307" y="515.816">Admin</tspan></text>
<text id="IconLabel_5" fill="black" xml:space="preserve" style="white-space: pre" font-family="Oracle Sans" font-size="16" letter-spacing="0em"><tspan x="137.057" y="531.816">server pod</tspan></text>
</g>
</g>
<g id="Managed Server Pod_2">
<g id="OCI- Containers_3">
<g id="Group_11">
<g id="Group_12">
<path id="Vector_25" d="M437.881 497.254C436.239 497.254 434.746 495.911 434.746 494.119V441.881C434.746 440.239 436.089 438.746 437.881 438.746H490.119C491.91 438.746 493.254 440.09 493.254 441.881V494.119C493.254 495.911 491.91 497.254 490.119 497.254H437.881Z" fill="white"/>
<path id="Vector_26" d="M490.119 439.493C491.463 439.493 492.507 440.537 492.507 441.881V494.119C492.507 495.463 491.463 496.507 490.119 496.507H437.881C436.537 496.507 435.493 495.463 435.493 494.119V441.881C435.493 440.537 436.537 439.493 437.881 439.493H490.119ZM490.119 438H437.881C435.791 438 434 439.791 434 441.881V494.119C434 496.209 435.791 498 437.881 498H490.119C492.209 498 494 496.209 494 494.119V441.881C494 439.791 492.358 438 490.119 438Z" fill="white"/>
</g>
<g id="Group_13">
<path id="Vector_27" d="M490.119 439.493H437.881C436.537 439.493 435.493 440.537 435.493 441.881V494.12C435.493 495.463 436.537 496.508 437.881 496.508H490.119C491.463 496.508 492.507 495.463 492.507 494.12V441.881C492.507 440.537 491.463 439.493 490.119 439.493ZM490.418 494.12C490.418 494.269 490.269 494.418 490.119 494.418H437.881C437.731 494.418 437.582 494.269 437.582 494.12V441.881C437.582 441.731 437.731 441.582 437.881 441.582H490.119C490.269 441.582 490.418 441.731 490.418 441.881V494.12Z" fill="#2D5967"/>
<path id="Vector_28" d="M441.761 489.94H486.239V477.254H441.761V489.94ZM444 479.343H484.149V487.851H444V479.343Z" fill="#2D5967"/>
<path id="Vector_29" d="M479.373 485.314C480.28 485.314 481.015 484.579 481.015 483.672C481.015 482.765 480.28 482.03 479.373 482.03C478.466 482.03 477.731 482.765 477.731 483.672C477.731 484.579 478.466 485.314 479.373 485.314Z" fill="#2D5967"/>
<path id="Vector_30" d="M462.358 445.761H441.761V458.448H462.358V445.761ZM451.313 448H452.955V456.508H451.313C451.313 456.358 451.313 448 451.313 448ZM449.224 456.358H447.582V448H449.224V456.358ZM455.045 448H456.687V456.508H455.045V448ZM444 448H445.642V456.508H444V448ZM460.269 456.358H458.627V448H460.269V456.358Z" fill="#2D5967"/>
<path id="Vector_31" d="M465.642 458.448H486.239V445.761H465.642V458.448ZM476.687 456.358H475.045V448H476.687V456.358ZM478.776 448H480.418V456.508H478.776V448ZM472.955 456.358H471.313V448H472.955V456.358ZM484.149 456.358H482.508V448H484.149V456.358ZM467.731 448H469.373V456.508H467.731V448Z" fill="#2D5967"/>
<path id="Vector_32" d="M462.358 461.731H441.761V474.418H462.358V461.731ZM451.313 463.821H452.955V472.328H451.313C451.313 472.179 451.313 463.821 451.313 463.821ZM449.224 472.328H447.582V463.821H449.224V472.328ZM455.045 463.821H456.687V472.328H455.045V463.821ZM444 463.821H445.642V472.328H444V463.821ZM460.269 472.328H458.627V463.821H460.269V472.328Z" fill="#2D5967"/>
<path id="Vector_33" d="M465.642 474.418H486.239V461.731H465.642V474.418ZM476.687 472.328H475.045V463.821H476.687V472.328ZM478.776 463.821H480.418V472.328H478.776V463.821ZM472.955 472.328H471.313V463.821H472.955V472.328ZM484.149 472.328H482.508V463.821H484.149V472.328ZM467.731 463.821H469.373V472.328H467.731V463.821Z" fill="#2D5967"/>
</g>
</g>
</g>
<g id="Icon Text Label_4">
<text id="IconLabel_6" fill="black" xml:space="preserve" style="white-space: pre" font-family="Oracle Sans" font-size="16" letter-spacing="0em"><tspan x="429.852" y="515.816">Managed</tspan></text>
<text id="IconLabel_7" fill="black" xml:space="preserve" style="white-space: pre" font-family="Oracle Sans" font-size="16" letter-spacing="0em"><tspan x="425.656" y="531.816">server pod</tspan></text>
</g>
</g>
<g id="Managed Server Pod_3">
<g id="OCI- Containers_4">
<g id="Group_14">
<g id="Group_15">
<path id="Vector_34" d="M677.881 497.254C676.239 497.254 674.746 495.911 674.746 494.119V441.881C674.746 440.239 676.089 438.746 677.881 438.746H730.119C731.91 438.746 733.254 440.09 733.254 441.881V494.119C733.254 495.911 731.91 497.254 730.119 497.254H677.881Z" fill="white"/>
<path id="Vector_35" d="M730.119 439.493C731.463 439.493 732.507 440.537 732.507 441.881V494.119C732.507 495.463 731.463 496.507 730.119 496.507H677.881C676.537 496.507 675.493 495.463 675.493 494.119V441.881C675.493 440.537 676.537 439.493 677.881 439.493H730.119ZM730.119 438H677.881C675.791 438 674 439.791 674 441.881V494.119C674 496.209 675.791 498 677.881 498H730.119C732.209 498 734 496.209 734 494.119V441.881C734 439.791 732.358 438 730.119 438Z" fill="white"/>
</g>
<g id="Group_16">
<path id="Vector_36" d="M730.119 439.493H677.881C676.537 439.493 675.493 440.537 675.493 441.881V494.12C675.493 495.463 676.537 496.508 677.881 496.508H730.119C731.463 496.508 732.507 495.463 732.507 494.12V441.881C732.507 440.537 731.463 439.493 730.119 439.493ZM730.418 494.12C730.418 494.269 730.269 494.418 730.119 494.418H677.881C677.731 494.418 677.582 494.269 677.582 494.12V441.881C677.582 441.731 677.731 441.582 677.881 441.582H730.119C730.269 441.582 730.418 441.731 730.418 441.881V494.12Z" fill="#2D5967"/>
<path id="Vector_37" d="M681.761 489.94H726.239V477.254H681.761V489.94ZM684 479.343H724.149V487.851H684V479.343Z" fill="#2D5967"/>
<path id="Vector_38" d="M719.373 485.314C720.28 485.314 721.015 484.579 721.015 483.672C721.015 482.765 720.28 482.03 719.373 482.03C718.466 482.03 717.731 482.765 717.731 483.672C717.731 484.579 718.466 485.314 719.373 485.314Z" fill="#2D5967"/>
<path id="Vector_39" d="M702.358 445.761H681.761V458.448H702.358V445.761ZM691.313 448H692.955V456.508H691.313C691.313 456.358 691.313 448 691.313 448ZM689.224 456.358H687.582V448H689.224V456.358ZM695.045 448H696.687V456.508H695.045V448ZM684 448H685.642V456.508H684V448ZM700.269 456.358H698.627V448H700.269V456.358Z" fill="#2D5967"/>
<path id="Vector_40" d="M705.642 458.448H726.239V445.761H705.642V458.448ZM716.687 456.358H715.045V448H716.687V456.358ZM718.776 448H720.418V456.508H718.776V448ZM712.955 456.358H711.313V448H712.955V456.358ZM724.149 456.358H722.508V448H724.149V456.358ZM707.731 448H709.373V456.508H707.731V448Z" fill="#2D5967"/>
<path id="Vector_41" d="M702.358 461.731H681.761V474.418H702.358V461.731ZM691.313 463.821H692.955V472.328H691.313C691.313 472.179 691.313 463.821 691.313 463.821ZM689.224 472.328H687.582V463.821H689.224V472.328ZM695.045 463.821H696.687V472.328H695.045V463.821ZM684 463.821H685.642V472.328H684V463.821ZM700.269 472.328H698.627V463.821H700.269V472.328Z" fill="#2D5967"/>
<path id="Vector_42" d="M705.642 474.418H726.239V461.731H705.642V474.418ZM716.687 472.328H715.045V463.821H716.687V472.328ZM718.776 463.821H720.418V472.328H718.776V463.821ZM712.955 472.328H711.313V463.821H712.955V472.328ZM724.149 472.328H722.508V463.821H724.149V472.328ZM707.731 463.821H709.373V472.328H707.731V463.821Z" fill="#2D5967"/>
</g>
</g>
</g>
<g id="Icon Text Label_5">
<text id="IconLabel_8" fill="black" xml:space="preserve" style="white-space: pre" font-family="Oracle Sans" font-size="16" letter-spacing="0em"><tspan x="669.852" y="515.816">Managed</tspan></text>
<text id="IconLabel_9" fill="black" xml:space="preserve" style="white-space: pre" font-family="Oracle Sans" font-size="16" letter-spacing="0em"><tspan x="665.656" y="531.816">server pod</tspan></text>
</g>
</g>
<g id="WebLogic-Container">
<g id="WebLogic-Container_2">
<g id="Group 488">
<path id="Vector_43" d="M673.674 317.325V315.098L675.695 314.1V288.141H685.315V265.205C685.323 264.354 685.665 263.541 686.268 262.942C686.871 262.343 687.686 262.007 688.536 262.007H717.465C718.32 262.007 719.14 262.346 719.746 262.951C720.352 263.555 720.695 264.375 720.698 265.232V288.168H730.346V314.1L732.326 315.098V317.325H673.674Z" fill="white"/>
<path id="Vector_44" d="M717.464 262.682C718.141 262.682 718.79 262.951 719.27 263.429C719.75 263.906 720.021 264.555 720.024 265.232V288.817H729.672V314.519L731.653 315.517V316.651H674.347V315.517L676.342 314.519V288.884H685.989V265.232C685.989 264.556 686.257 263.908 686.735 263.429C687.212 262.951 687.86 262.682 688.536 262.682H717.464ZM717.464 261.333H688.536C687.503 261.333 686.512 261.744 685.782 262.475C685.052 263.207 684.642 264.198 684.642 265.232V287.467H674.994V313.682L673.741 314.303L673 314.681V318H733V314.681L732.286 314.303L731.046 313.682V287.467H721.372V265.232C721.368 264.197 720.955 263.205 720.223 262.474C719.49 261.744 718.498 261.333 717.464 261.333V261.333Z" fill="white"/>
<path id="Vector_45" d="M729.672 314.519V288.884H676.342V314.519L674.348 315.517V316.65H731.653V315.517L729.672 314.519ZM727.395 291.083V314.384H678.605V291.083H727.395Z" fill="#2D5967"/>
<path id="Vector_46" d="M689.95 292.796H687.686V312.684H689.95V292.796Z" fill="#2D5967"/>
<path id="Vector_47" d="M684.277 292.796H682.014V312.684H684.277V292.796Z" fill="#2D5967"/>
<path id="Vector_48" d="M695.623 292.796H693.36V312.684H695.623V292.796Z" fill="#2D5967"/>
<path id="Vector_49" d="M706.968 292.796H704.704V312.684H706.968V292.796Z" fill="#2D5967"/>
<path id="Vector_50" d="M712.64 292.796H710.376V312.684H712.64V292.796Z" fill="#2D5967"/>
<path id="Vector_51" d="M718.314 292.796H716.05V312.684H718.314V292.796Z" fill="#2D5967"/>
<path id="Vector_52" d="M723.986 292.796H721.722V312.684H723.986V292.796Z" fill="#2D5967"/>
<path id="Vector_53" d="M701.296 292.796H699.032V312.684H701.296V292.796Z" fill="#2D5967"/>
<path id="Vector_54" d="M688.252 272.937H717.747V287.117H720.024V265.233C720.021 264.555 719.749 263.907 719.27 263.429C718.79 262.951 718.141 262.683 717.464 262.683H688.535C687.859 262.683 687.21 262.951 686.73 263.429C686.25 263.907 685.979 264.555 685.975 265.233V287.117H688.252V272.937ZM688.535 264.949H717.464C717.539 264.949 717.611 264.979 717.664 265.032C717.717 265.085 717.747 265.157 717.747 265.233V270.629H688.252V265.233C688.252 265.157 688.282 265.085 688.335 265.032C688.388 264.979 688.46 264.949 688.535 264.949V264.949Z" fill="#2D5967"/>
<path id="Vector_55" d="M691.945 285.403L701.862 280.573V280.006L691.945 274.893V276.89L698.184 280.29L691.945 283.42V285.403Z" fill="#2D5967"/>
<path id="Vector_56" d="M713.503 282.854H703.29V285.12H713.503V282.854Z" fill="#2D5967"/>
<path id="Vector_57" d="M691.082 268.929C691.707 268.929 692.213 268.421 692.213 267.795C692.213 267.17 691.707 266.662 691.082 266.662C690.457 266.662 689.95 267.17 689.95 267.795C689.95 268.421 690.457 268.929 691.082 268.929Z" fill="#2D5967"/>
<path id="Vector_58" d="M695.056 268.929C695.681 268.929 696.188 268.421 696.188 267.795C696.188 267.17 695.681 266.662 695.056 266.662C694.431 266.662 693.924 267.17 693.924 267.795C693.924 268.421 694.431 268.929 695.056 268.929Z" fill="#2D5967"/>
<path id="Vector_59" d="M699.033 268.929C699.658 268.929 700.164 268.421 700.164 267.795C700.164 267.17 699.658 266.662 699.033 266.662C698.407 266.662 697.901 267.17 697.901 267.795C697.901 268.421 698.407 268.929 699.033 268.929Z" fill="#2D5967"/>
</g>
</g>
<g id="Icon Text Label_6">
<text id="IconLabel_10" fill="black" xml:space="preserve" style="white-space: pre" font-family="Oracle Sans" font-size="16" letter-spacing="0em"><tspan x="634.75" y="335.816">WebLogic operator</tspan></text>
</g>
</g>
<g id="File Storage">
<g id="Services/File-Storage">
<g id="Group_17">
<g id="Group_18">
<g id="Group_19">
<path id="Vector_60" d="M863.846 662.687C862.136 662.687 860.71 661.258 860.71 659.544V607.258C860.71 605.544 862.136 604.115 863.846 604.115H916.15C917.86 604.115 919.285 605.544 919.285 607.258V659.687C919.285 661.401 917.86 662.829 916.15 662.829L863.846 662.687Z" fill="white"/>
<path id="Vector_61" d="M916.009 604.829C917.291 604.829 918.432 605.972 918.432 607.258V659.686C918.432 660.972 917.291 662.115 916.009 662.115H863.847C862.565 661.972 861.424 660.829 861.424 659.543V607.258C861.424 605.972 862.565 604.829 863.847 604.829H916.009ZM916.009 603.401H863.847C861.709 603.401 859.999 605.115 859.999 607.258V659.686C859.999 661.686 861.709 663.401 863.847 663.401H916.151C918.289 663.401 919.999 661.686 919.999 659.543V607.258C919.857 605.115 918.147 603.401 916.009 603.401Z" fill="white"/>
</g>
<g id="Group_20">
<path id="Vector_62" d="M861.425 659.544C861.425 660.83 862.565 661.973 863.848 661.973H916.152C917.434 661.973 918.575 660.83 918.575 659.544V610.544H861.425V659.544ZM863.563 612.687H916.294V659.687C916.294 659.83 916.152 659.973 916.009 659.973H863.848C863.705 659.973 863.563 659.83 863.563 659.687V612.687Z" fill="#2D5967"/>
<path id="Vector_63" d="M916.009 604.83H863.848C862.565 604.83 861.425 605.972 861.425 607.258V608.972H918.432V607.258C918.432 605.972 917.292 604.83 916.009 604.83Z" fill="#2D5967"/>
<path id="Vector_64" d="M911.448 625.83C911.448 624.687 910.45 623.687 909.31 623.687H885.794L883.514 620.687C883.087 620.115 882.517 619.83 881.804 619.83H870.688C869.547 619.83 868.55 620.83 868.55 621.972V652.401H911.448V625.83ZM870.688 621.972H881.804L883.942 624.687L881.804 627.401H870.545L870.688 621.972C870.545 621.972 870.545 621.972 870.688 621.972ZM909.31 650.258H870.545V629.544H881.661C882.374 629.544 882.944 629.258 883.372 628.687L885.652 625.687H909.167V650.258H909.31Z" fill="#2D5967"/>
<path id="Vector_65" d="M880.664 623.687H872.398V625.83H880.664V623.687Z" fill="#2D5967"/>
</g>
</g>
</g>
</g>
<g id="Icon Text Label_7">
<text id="IconLabel_11" fill="black" xml:space="preserve" style="white-space: pre" font-family="Oracle Sans" font-size="16" letter-spacing="0em"><tspan x="832.554" y="681.217">OCI File Storage</tspan></text>
</g>
</g>
<g id="Persistent Volume Claim">
<g id="SRV-Persistent volume">
<g id="Group 35">
<path id="Vector_66" d="M890.495 497.291C879.626 497.291 861.215 495.48 861.215 488.739V472.818C861.216 472.761 861.22 472.704 861.229 472.647C861.222 472.533 861.222 472.419 861.229 472.305C861.215 465.25 879.626 463.383 890.495 463.383C901.365 463.383 919.776 465.25 919.776 472.234C919.783 472.348 919.783 472.462 919.776 472.576C919.783 472.656 919.783 472.738 919.776 472.818V488.725C919.776 495.452 901.365 497.291 890.495 497.291Z" fill="white"/>
<path id="Vector_67" d="M890.494 464.093C904.248 464.093 919.06 466.645 919.06 472.232C919.069 472.369 919.069 472.507 919.06 472.645C919.068 472.721 919.068 472.797 919.06 472.873V488.723C919.06 494.124 904.248 496.576 890.494 496.576C876.739 496.576 861.927 494.124 861.927 488.723V472.816C861.923 472.759 861.923 472.702 861.927 472.645C861.921 472.526 861.921 472.407 861.927 472.289C861.927 466.645 876.739 464.093 890.494 464.093ZM890.494 462.668C887.423 462.668 860.499 462.939 860.499 472.232C860.492 472.341 860.492 472.45 860.499 472.56C860.492 472.645 860.492 472.731 860.499 472.816V488.723C860.499 497.559 885.48 498.001 890.494 498.001C895.507 498.001 920.488 497.559 920.488 488.723V472.816C920.495 472.731 920.495 472.645 920.488 472.56C920.495 472.45 920.495 472.341 920.488 472.232C920.488 462.939 893.564 462.668 890.494 462.668Z" fill="white"/>
<path id="Vector_68" d="M919.062 472.232C919.062 466.645 904.25 464.094 890.496 464.094C876.741 464.094 861.929 466.645 861.929 472.232C861.92 472.37 861.92 472.508 861.929 472.646C861.921 472.722 861.921 472.798 861.929 472.874V488.723C861.929 494.125 876.741 496.577 890.496 496.577C904.25 496.577 919.062 494.125 919.062 488.723V472.817C919.066 472.76 919.066 472.703 919.062 472.646C919.071 472.508 919.071 472.37 919.062 472.232V472.232ZM909.435 492.03C903.211 493.352 896.859 493.978 890.496 493.897C884.133 493.978 877.78 493.352 871.556 492.03C865.843 490.605 864.614 489.179 864.614 488.723V475.896C869.499 478.903 880.326 480.3 890.496 480.3C900.665 480.3 911.492 478.874 916.377 475.896V488.723C916.377 489.151 915.091 490.662 909.435 492.03ZM890.496 466.774C896.859 466.689 903.21 467.344 909.421 468.726C915.134 470.152 916.377 471.734 916.377 472.232C916.377 472.731 915.12 474.299 909.421 475.724C903.21 477.107 896.859 477.762 890.496 477.677C884.133 477.762 877.781 477.107 871.57 475.724C865.857 474.299 864.614 472.717 864.614 472.232C864.614 471.748 865.871 470.152 871.57 468.726C877.781 467.344 884.133 466.689 890.496 466.774V466.774Z" fill="#2D5967"/>
</g>
</g>
<g id="Icon Text Label_8">
<text id="IconLabel_12" fill="black" xml:space="preserve" style="white-space: pre" font-family="Oracle Sans" font-size="16" letter-spacing="0em"><tspan x="854.688" y="515.816">Persistent</tspan></text>
<text id="IconLabel_13" fill="black" xml:space="preserve" style="white-space: pre" font-family="Oracle Sans" font-size="16" letter-spacing="0em"><tspan x="842.586" y="531.816">volume claim</tspan></text>
</g>
</g>
<g id="Background color=white bg">
<rect width="148" height="14" transform="translate(629.5 364)" fill="white"/>
<text id="Yes" fill="#312D2A" xml:space="preserve" style="white-space: pre" font-family="Oracle Sans" font-size="14" letter-spacing="0em"><tspan x="633.924" y="376.089">Orchestrate WebLogic</tspan></text>
</g>
<g id="Connector Line Label">
<rect width="35" height="14" transform="translate(872.5 573.6)" fill="#E4E1DD"/>
<text id="Line Label" fill="#312D2A" xml:space="preserve" style="white-space: pre" font-family="Oracle Sans" font-size="14" letter-spacing="0em"><tspan x="876.998" y="585.689">NFS</tspan></text>
</g>
</g>
<defs>
<clipPath id="clip0_19652_553">
<rect width="1032" height="728" fill="white" transform="translate(0.5)"/>
</clipPath>
</defs>
</svg>
