<svg width="1099" height="567" viewBox="0 0 1099 567" fill="none" xmlns="http://www.w3.org/2000/svg">
<g id="ebs-on-db-at-azure-arch-overview">
<rect width="1099" height="567" fill="white"/>
<g id="Group 2">
<g id="OCI Region">
<rect x="745.5" y="0.5" width="353" height="566" rx="3.5" fill="#F5F4F2"/>
<rect x="745.5" y="0.5" width="353" height="566" rx="3.5" stroke="#9E9892"/>
<text id="OCI Region_2" fill="#312D2A" xml:space="preserve" style="white-space: pre" font-family="Oracle Sans" font-size="16" font-weight="bold" letter-spacing="0em"><tspan x="753" y="21.816">OCI Region</tspan></text>
</g>
<g id="OCI Region_3">
<rect x="966" y="65" width="123" height="455" stroke="#9E9892" stroke-width="2" stroke-dasharray="8 4"/>
<text id="Oracle Services Network" fill="#312D2A" xml:space="preserve" style="white-space: pre" font-family="Oracle Sans" font-size="16" font-weight="600" letter-spacing="0em"><tspan x="973" y="85.816">Oracle</tspan></text>
<text id="Oracle Services Network_2" fill="#312D2A" xml:space="preserve" style="white-space: pre" font-family="Oracle Sans" font-size="16" font-weight="600" letter-spacing="0em"><tspan x="973" y="101.816">Services</tspan></text>
<text id="Oracle Services Network_3" fill="#312D2A" xml:space="preserve" style="white-space: pre" font-family="Oracle Sans" font-size="16" font-weight="600" letter-spacing="0em"><tspan x="973" y="117.816">Network</tspan></text>
<rect id="Rectangle 692" x="1039" y="64" width="44" height="2" fill="#F5F4F2"/>
<g id="Srv-Oracle Services Network">
<g id="Group 747">
<path id="Vector" d="M1064.15 80.8366L1064.15 79.4862L1057.84 79.4862L1057.84 80.8366L1053.42 83.3874L1049.01 80.8366L1049.01 75.7351L1050.13 75.0908L1046.99 69.6363L1045.85 70.2894L1041.43 67.7387L1041.43 62.646L1045.85 60.0952L1047.07 60.8013L1050.14 55.3644L1049.01 54.7113L1049.01 49.6186L1053.42 47.0679L1057.84 49.6186L1057.84 50.969L1064.15 50.969L1064.15 49.6186L1068.57 47.0679L1072.98 49.6186L1072.98 54.7113L1071.87 55.3644L1074.99 60.7572L1076.14 60.0952L1080.56 62.646L1080.56 67.7387L1076.14 70.2894L1075.07 69.6716L1071.87 75.0996L1072.98 75.7351L1072.98 80.8366L1068.57 83.3874L1064.15 80.8366Z" fill="white"/>
<path id="Vector_2" d="M1068.57 47.5707L1072.55 49.8743L1072.55 54.4992L1071.26 55.2406L1074.79 61.4189L1076.1 60.6598L1080.08 62.9546L1080.08 67.553L1076.1 69.8478L1074.88 69.1329L1071.23 75.3112L1072.51 76.0437L1072.51 80.6333L1068.53 82.9281L1064.56 80.6333L1064.56 79.0446L1057.4 79.0446L1057.4 80.5804L1053.42 82.8752L1049.45 80.5804L1049.45 75.9908L1050.7 75.2494L1047.17 69.0711L1045.86 69.8302L1041.88 67.4912L1041.88 62.8928L1045.85 60.598L1047.24 61.4012L1050.77 55.2229L1049.45 54.4992L1049.45 49.8743L1053.42 47.5707L1057.4 49.8743L1057.4 51.41L1064.59 51.41L1064.59 49.8743L1068.57 47.5707V47.5707ZM1068.57 46.5557L1068.12 46.8116L1064.15 49.1064L1063.71 49.3624L1063.71 50.5274L1058.28 50.5274L1058.28 49.3624L1057.84 49.1064L1053.86 46.8116L1053.42 46.5557L1052.98 46.8116L1049.01 49.1064L1048.57 49.3624L1048.57 54.967L1049.01 55.2229L1049.54 55.5318L1046.89 60.192L1046.27 59.839L1045.83 59.583L1045.39 59.839L1041.43 62.1338L1040.99 62.3897L1040.99 67.9943L1041.43 68.2503L1045.41 70.5451L1045.85 70.801L1046.29 70.5451L1046.83 70.2362L1049.53 74.9317L1049.01 75.2317L1048.57 75.4877L1048.57 81.0923L1049.01 81.3482L1052.98 83.643L1053.42 83.899L1053.86 83.643L1057.84 81.3482L1058.28 81.0923L1058.28 79.9272L1063.71 79.9272L1063.71 81.0923L1064.15 81.3482L1068.12 83.643L1068.57 83.899L1069.01 83.643L1072.99 81.3482L1073.43 81.0923L1073.43 75.4877L1072.99 75.2317L1072.48 74.9405L1075.23 70.2715L1075.7 70.5451L1076.14 70.801L1076.58 70.5451L1080.55 68.2503L1080.99 67.9943L1080.99 62.3897L1080.55 62.1338L1076.58 59.839L1076.14 59.583L1075.7 59.839L1075.15 60.1567L1072.5 55.523L1073.02 55.2229L1073.46 54.967L1073.46 49.3624L1073.02 49.1064L1069.01 46.8116L1068.57 46.5557V46.5557Z" fill="white"/>
<path id="Vector_3" d="M1076.14 60.5982L1074.82 61.3572L1071.29 55.1789L1072.55 54.4993L1072.55 49.8744L1068.57 47.5708L1064.59 49.8744L1064.59 51.4102L1057.4 51.4102L1057.4 49.8744L1053.42 47.5708L1049.45 49.8744L1049.45 54.4993L1050.7 55.2054L1047.17 61.3837L1045.85 60.5982L1041.88 62.893L1041.88 67.4914L1045.85 69.7862L1047.17 69.0271L1050.7 75.2054L1049.42 75.9468L1049.42 80.5364L1053.39 82.8312L1057.37 80.5364L1057.37 79.0448L1064.57 79.0448L1064.57 80.5805L1068.54 82.8753L1072.52 80.5805L1072.52 75.9909L1071.24 75.2584L1074.89 69.0801L1076.11 69.795L1080.08 67.5002L1080.08 62.893L1076.14 60.5982ZM1066.1 50.7482L1068.57 49.3272L1071 50.7482L1071 53.6167L1068.57 55.0112L1066.1 53.6167L1066.1 50.7482ZM1050.97 50.7482L1053.42 49.3272L1055.88 50.7482L1055.88 53.6167L1053.42 55.0112L1050.97 53.6167L1050.97 50.7482ZM1043.39 66.6352L1043.39 63.7756L1045.85 62.3546L1048.31 63.7756L1048.31 66.6088L1045.85 68.0298L1043.39 66.6352ZM1055.88 79.7067L1053.42 81.1277L1050.97 79.7067L1050.97 76.8647L1053.42 75.4437L1055.88 76.8647L1055.88 79.7067ZM1071.03 79.7067L1068.57 81.1277L1066.1 79.7067L1066.1 76.8647L1068.57 75.4437L1071 76.8647L1071.03 79.7067ZM1069.95 74.4993L1068.57 73.6961L1067.33 74.411L1064.97 70.3863L1063.21 70.3863L1066.01 75.2142L1064.58 76.0351L1064.58 77.5355L1057.4 77.5355L1057.4 75.9909L1056 75.1701L1058.8 70.3863L1057.03 70.3863L1054.66 74.464L1053.41 73.7403L1052.03 74.5434L1048.5 68.3652L1049.82 67.4914L1049.82 65.9733L1053.44 65.9733C1053.83 65.3863 1054.34 64.8922 1054.95 64.5258C1054.95 64.5053 1054.95 64.4845 1054.95 64.464L1049.82 64.464L1049.82 62.893L1048.54 62.1604L1052.07 55.9821L1053.44 56.7765L1054.89 55.8938L1058.19 61.5955C1058.41 61.56 1058.63 61.5423 1058.85 61.5426L1058.92 61.5426C1059.13 61.3468 1059.36 61.1696 1059.61 61.013L1056.18 55.1613L1057.4 54.4993L1057.4 52.9194L1064.59 52.9194L1064.59 54.4993L1065.86 55.2231L1062.83 60.4305C1063.34 60.5196 1063.83 60.6926 1064.29 60.9424L1067.17 55.9821L1068.57 56.7941L1069.95 55.9909L1073.48 62.1692L1072.13 62.9459L1072.13 64.4728L1068.58 64.4728C1068.89 64.9295 1069.11 65.4379 1069.24 65.9733L1072.14 65.9733L1072.14 67.4825L1073.57 68.3034L1069.95 74.4993ZM1078.6 66.6088L1076.14 68.0298L1073.65 66.6088L1073.65 63.7756L1076.11 62.3546L1078.57 63.7756L1078.6 66.6088Z" fill="#2D5967"/>
<path id="Vector_4" d="M1067.64 69.2034L1067.85 68.8062C1068.28 68.0127 1068.38 67.0863 1068.15 66.2166C1067.91 65.347 1067.36 64.6 1066.59 64.1284C1066.25 63.9129 1065.87 63.7577 1065.48 63.6694C1065.4 63.6535 1065.33 63.6208 1065.26 63.5735C1065.2 63.5263 1065.14 63.4656 1065.11 63.3958C1064.82 62.8149 1064.38 62.3253 1063.84 61.9834C1063.29 61.6415 1062.65 61.4611 1062.01 61.4629C1061.54 61.4711 1061.08 61.573 1060.66 61.7626C1060.23 61.9521 1059.85 62.2254 1059.53 62.5662C1059.48 62.6228 1059.41 62.6659 1059.34 62.6921C1059.27 62.7182 1059.19 62.7265 1059.11 62.7162C1058.63 62.6706 1058.14 62.7528 1057.69 62.9545C1057.26 63.1384 1056.88 63.4241 1056.59 63.7869C1056.29 64.1498 1056.09 64.579 1056 65.0375C1055.98 65.1106 1055.95 65.1799 1055.91 65.2408C1055.87 65.3017 1055.81 65.3527 1055.75 65.3905C1055.19 65.6809 1054.72 66.1088 1054.37 66.6338C1054.02 67.1589 1053.81 67.7637 1053.76 68.3914L1053.7 69.2034L1067.64 69.2034ZM1057.49 65.3287C1057.53 65.1124 1057.63 64.9096 1057.77 64.7376C1057.9 64.5656 1058.08 64.4293 1058.28 64.3402C1058.49 64.2453 1058.72 64.2058 1058.95 64.2255C1059.26 64.2582 1059.57 64.2185 1059.86 64.1097C1060.15 64.0008 1060.41 63.8259 1060.61 63.5988C1060.83 63.3656 1061.09 63.1882 1061.39 63.0823C1061.69 62.9764 1062.01 62.9451 1062.32 62.9913C1062.63 63.0375 1062.93 63.1596 1063.19 63.3471C1063.44 63.5346 1063.65 63.7816 1063.78 64.0666C1063.92 64.339 1064.12 64.5771 1064.36 64.7634C1064.6 64.9498 1064.88 65.0796 1065.18 65.1434C1065.4 65.1963 1065.62 65.2857 1065.82 65.4082C1066.19 65.6436 1066.48 65.9917 1066.64 66.4015C1066.8 66.8114 1066.82 67.2613 1066.7 67.6853L1055.51 67.6853C1055.72 67.2748 1056.05 66.9407 1056.46 66.7321C1056.72 66.5915 1056.96 66.3922 1057.13 66.1491C1057.31 65.9061 1057.43 65.6255 1057.49 65.3287V65.3287Z" fill="#2D5967"/>
</g>
</g>
</g>
<g id="Azure Cloud boxes">
<rect x="0.5" y="0.5" width="736" height="566" rx="3.5" fill="#ECF3FB"/>
<rect x="0.5" y="0.5" width="736" height="566" rx="3.5" stroke="#0078D7"/>
<text id="Azure Region" fill="#312D2A" xml:space="preserve" style="white-space: pre" font-family="Oracle Sans" font-size="16" font-weight="bold" letter-spacing="0em"><tspan x="8" y="21.816">Azure Region</tspan></text>
</g>
<g id="Availability Zone">
<rect x="8.5" y="32.5" width="719" height="525" rx="3.5" fill="#DAE8FC"/>
<rect x="8.5" y="32.5" width="719" height="525" rx="3.5" stroke="#0078D7"/>
<text id="Availability Zone_2" fill="#312D2A" xml:space="preserve" style="white-space: pre" font-family="Oracle Sans" font-size="16" font-weight="600" letter-spacing="0em"><tspan x="16" y="53.816">Availability Zone</tspan></text>
</g>
<g id="Subscription">
<rect x="16.5" y="64.5" width="702" height="484" fill="white"/>
<rect x="16.5" y="64.5" width="702" height="484" stroke="#0078D7" stroke-dasharray="2 2"/>
<text id="Subscription_2" fill="#312D2A" xml:space="preserve" style="white-space: pre" font-family="Oracle Sans" font-size="16" font-weight="600" letter-spacing="0em"><tspan x="24" y="85.816">Subscription</tspan></text>
</g>
<g id="Azure VNet">
<rect x="26" y="97" width="382" height="423" fill="white"/>
<rect x="26" y="97" width="382" height="423" stroke="#706E6F" stroke-width="2" stroke-dasharray="4 4"/>
<g id="VNet icon">
<rect id="White Vnet BG" x="356" y="94" width="45" height="6" fill="white"/>
<g id="Icon Master">
<g id="Azure_VNet">
<g id="Group">
<g id="Group_2">
<path id="Vector_5" d="M387.294 99.5453C388.725 99.5453 389.884 98.3856 389.884 96.955C389.884 95.5245 388.725 94.3647 387.294 94.3647C385.863 94.3647 384.704 95.5245 384.704 96.955C384.704 98.3856 385.863 99.5453 387.294 99.5453Z" fill="url(#paint0_linear_19015_326)"/>
<path id="Vector_6" d="M379.125 99.5453C380.555 99.5453 381.715 98.3856 381.715 96.955C381.715 95.5245 380.555 94.3647 379.125 94.3647C377.694 94.3647 376.534 95.5245 376.534 96.955C376.534 98.3856 377.694 99.5453 379.125 99.5453Z" fill="url(#paint1_linear_19015_326)"/>
<path id="Vector_7" d="M370.955 99.5453C372.386 99.5453 373.545 98.3856 373.545 96.955C373.545 95.5245 372.386 94.3647 370.955 94.3647C369.525 94.3647 368.365 95.5245 368.365 96.955C368.365 98.3856 369.525 99.5453 370.955 99.5453Z" fill="url(#paint2_linear_19015_326)"/>
<path id="Vector_8" d="M372.748 107.316L371.154 108.91C370.955 108.91 370.557 108.91 370.357 108.711L359.398 97.752C359 97.3535 359 96.5565 359.398 95.9587L360.993 94.564L372.748 106.32C372.948 106.519 372.948 106.918 372.748 107.316Z" fill="#50E6FF"/>
<path id="Vector_9" d="M371.154 85.1992L372.748 86.7933C372.948 86.9925 372.948 87.391 372.748 87.5903L360.993 99.3462L359.399 97.7522C358.801 97.1544 358.801 96.3574 359.399 95.9589L370.158 85.1992C370.357 85 370.756 85 371.154 85.1992Z" fill="#1490DF"/>
<path id="Vector_10" d="M397.057 94.3647L398.452 95.7595C399.05 96.3573 399.05 97.1543 398.452 97.5528L387.493 108.512C387.294 108.711 386.895 108.711 386.497 108.512L384.903 106.918C384.704 106.718 384.704 106.32 384.903 105.921L397.057 94.3647Z" fill="#50E6FF"/>
<path id="Vector_11" d="M398.651 97.7522L397.057 99.3462L385.501 87.7895C385.301 87.5903 385.301 87.1918 385.501 86.7933L386.895 85.1992C387.095 85 387.493 85 387.892 85.1992L398.651 95.9589C399.05 96.3574 399.05 97.1544 398.651 97.7522Z" fill="#1490DF"/>
</g>
</g>
</g>
</g>
</g>
<text id="VNet" fill="#706E6F" xml:space="preserve" style="white-space: pre" font-family="Oracle Sans" font-size="16" font-weight="600" letter-spacing="0em"><tspan x="34" y="118.816">Customer VNet</tspan></text>
<text id="00.0.00.0/00" fill="#312D2A" xml:space="preserve" style="white-space: pre" font-family="Oracle Sans" font-size="16" font-weight="300" letter-spacing="0em"><tspan x="34" y="137.216">10.0.28.0/23</tspan></text>
</g>
<g id="Azure Subnet">
<rect x="33.5996" y="152.5" width="143" height="358" fill="white"/>
<rect x="33.5996" y="152.5" width="143" height="358" stroke="#706E6F" stroke-dasharray="8 4"/>
<text id="Azure subnet" fill="#706E6F" xml:space="preserve" style="white-space: pre" font-family="Oracle Sans" font-size="16" font-weight="600" letter-spacing="0em"><tspan x="41.0996" y="173.816">App subnet</tspan></text>
<text id="00.0.00.0/00_2" fill="#312D2A" xml:space="preserve" style="white-space: pre" font-family="Oracle Sans" font-size="16" font-weight="300" letter-spacing="0em"><tspan x="41.0996" y="191.816">10.0.28.128/25</tspan></text>
</g>
<g id="Azure Subnet_2">
<rect x="193.6" y="152.5" width="207" height="358" fill="white"/>
<rect x="193.6" y="152.5" width="207" height="358" stroke="#706E6F" stroke-dasharray="8 4"/>
<text id="Azure subnet_2" fill="#706E6F" xml:space="preserve" style="white-space: pre" font-family="Oracle Sans" font-size="16" font-weight="600" letter-spacing="0em"><tspan x="201.1" y="173.816">Client subnet (Delegated)</tspan></text>
<text id="00.0.00.0/00_3" fill="#312D2A" xml:space="preserve" style="white-space: pre" font-family="Oracle Sans" font-size="16" font-weight="300" letter-spacing="0em"><tspan x="201.1" y="191.816">10.0.28.0/27</tspan></text>
</g>
<g id="Oracle Database@Azure">
<rect x="427" y="97" width="282" height="442" fill="white"/>
<rect x="427" y="97" width="282" height="442" stroke="#C8D0DD" stroke-width="2" stroke-dasharray="8 4"/>
<g id="VNet icon_2">
<rect id="White Vnet BG_2" x="664.001" y="94" width="34" height="6" fill="white"/>
<g id="Srv-Oracle Database@Azure">
<g id="Group_3">
<path id="Vector_12" d="M682.247 102.152C674.755 102.152 668.682 100.835 668.682 99.2107V106.058C668.682 107.683 674.755 109 682.247 109C689.739 109 695.812 107.683 695.812 106.058V99.2107C695.812 100.835 689.739 102.152 682.247 102.152ZM693.661 103.546C692.636 103.901 691.574 104.179 690.507 104.376C689.234 104.609 687.933 104.728 686.636 104.728C686.324 104.728 686.069 104.476 686.069 104.164C686.069 103.852 686.322 103.6 686.636 103.6C687.864 103.6 689.097 103.487 690.303 103.265C691.315 103.079 692.32 102.816 693.291 102.48C693.588 102.378 693.909 102.533 694.013 102.829C694.115 103.124 693.96 103.447 693.663 103.549L693.661 103.546ZM682.247 93.3456C674.755 93.3456 668.682 92.0287 668.682 90.4042V97.6149C668.682 99.2395 674.755 100.554 682.247 100.554C689.739 100.554 695.812 99.2373 695.812 97.6127V90.402C695.812 92.0265 689.739 93.3434 682.247 93.3434V93.3456ZM693.661 94.979C692.634 95.3331 691.574 95.612 690.507 95.8089C689.234 96.0413 687.931 96.1608 686.636 96.1608C686.324 96.1608 686.069 95.9085 686.069 95.5965C686.069 95.2844 686.322 95.0321 686.636 95.0321C687.864 95.0321 689.097 94.9192 690.303 94.6979C691.315 94.512 692.32 94.2486 693.291 93.9122C693.588 93.8104 693.909 93.9653 694.013 94.2619C694.117 94.5584 693.96 94.8794 693.663 94.9812L693.661 94.979ZM682.247 79.2981C674.755 79.2981 668.682 80.5995 668.682 82.753V88.8106C668.682 90.4352 674.755 91.7498 682.247 91.7498C689.739 91.7498 695.812 90.433 695.812 88.8084V82.9721C695.812 80.5973 689.739 79.2981 682.247 79.2981ZM693.661 86.6572C692.634 87.0113 691.574 87.2901 690.507 87.4871C689.234 87.7195 687.933 87.839 686.636 87.839C686.324 87.839 686.069 87.5867 686.069 87.2747C686.069 86.9626 686.322 86.7103 686.636 86.7103C687.864 86.7103 689.097 86.5974 690.303 86.3761C691.313 86.1902 692.32 85.9268 693.291 85.5904C693.588 85.4886 693.909 85.6435 694.013 85.9401C694.115 86.2344 693.96 86.5576 693.663 86.6594L693.661 86.6572ZM682.247 84.6542C675.499 84.6542 670.03 83.4258 670.03 82.6977C670.03 81.8035 675.499 80.4224 682.247 80.4224C688.995 80.4224 694.464 81.8588 694.464 82.6977C694.464 83.459 688.995 84.6542 682.247 84.6542Z" fill="url(#paint3_linear_19015_326)"/>
<path id="Vector_13" d="M668.682 82.6956V82.5916C668.682 80.5842 673.968 79.3182 680.76 79.1567C679.979 77.4038 678.343 76.1046 676.342 75.839C676.172 71.9282 672.892 68.8828 668.981 69.0045C665.869 68.9492 663.061 70.8636 661.976 73.7807C658.654 74.1813 656.124 76.9523 656.027 80.2965C656.175 84.0767 659.353 87.0225 663.134 86.8875C663.344 86.8875 663.559 86.8787 663.758 86.861H668.68L668.682 82.6956Z" fill="url(#paint4_linear_19015_326)"/>
</g>
</g>
</g>
<text id="Oracle Database@Azure_2" fill="#312D2A" xml:space="preserve" style="white-space: pre" font-family="Oracle Sans" font-size="16" font-weight="600" letter-spacing="0em"><tspan x="435" y="118.816">OCI child site</tspan></text>
</g>
<g id="OCI Section Boxes">
<rect x="417.5" y="217.5" width="337" height="312" stroke="#AA643B" stroke-dasharray="6 4"/>
<text id="Compartment" fill="#AE562C" xml:space="preserve" style="white-space: pre" font-family="Oracle Sans" font-size="16" font-weight="bold" letter-spacing="0em"><tspan x="425" y="238.816">  OCI managed network</tspan></text>
</g>
<g id="OCI Region_4">
<rect id="Rectangle 28" x="436" y="249.963" width="490" height="270" stroke="#AA643B" stroke-width="2" stroke-dasharray="8 4"/>
<g id="Icon Master_2">
<g id="Srv-VCN">
<g id="Group 39">
<path id="Vector_14" d="M905.416 272.51C904.16 272.51 902.944 272.077 901.969 271.285C900.995 270.493 900.323 269.39 900.066 268.16H893.595C893.408 269.054 893 269.887 892.408 270.583C891.816 271.279 891.06 271.816 890.208 272.144C889.356 272.472 888.435 272.582 887.53 272.463C886.625 272.343 885.764 271.999 885.026 271.462C884.287 270.924 883.695 270.21 883.304 269.385C882.912 268.56 882.733 267.65 882.783 266.738C882.833 265.825 883.111 264.94 883.59 264.163C884.07 263.386 884.737 262.741 885.529 262.288L883.533 256.141C883.336 256.155 883.138 256.155 882.941 256.141C882.053 256.143 881.179 255.929 880.392 255.517C879.606 255.105 878.932 254.508 878.428 253.777C877.923 253.046 877.605 252.203 877.499 251.321C877.394 250.439 877.504 249.545 877.821 248.715C878.138 247.886 878.652 247.146 879.319 246.56C879.986 245.973 880.785 245.558 881.648 245.35C882.511 245.142 883.411 245.148 884.272 245.366C885.132 245.584 885.927 246.008 886.586 246.602L891.845 242.873C891.527 242.167 891.363 241.403 891.362 240.629C891.362 239.178 891.938 237.786 892.964 236.76C893.989 235.734 895.38 235.158 896.83 235.158C898.281 235.158 899.672 235.734 900.697 236.76C901.723 237.786 902.299 239.178 902.299 240.629C902.301 241.402 902.139 242.167 901.825 242.873L907.093 246.639C908.088 245.726 909.388 245.218 910.738 245.216C912.188 245.216 913.579 245.793 914.605 246.819C915.63 247.845 916.206 249.237 916.206 250.688C916.206 252.139 915.63 253.531 914.605 254.557C913.579 255.583 912.188 256.159 910.738 256.159C910.547 256.159 910.346 256.159 910.155 256.159L908.15 262.306C909.199 262.905 910.02 263.835 910.485 264.951C910.95 266.066 911.032 267.304 910.72 268.471C910.408 269.639 909.718 270.67 908.759 271.404C907.799 272.138 906.624 272.533 905.416 272.528V272.51Z" fill="white"/>
<path id="Vector_15" d="M896.84 235.577C897.707 235.579 898.56 235.806 899.314 236.236C900.068 236.665 900.697 237.283 901.142 238.029C901.586 238.775 901.829 239.623 901.849 240.491C901.868 241.359 901.662 242.217 901.251 242.982L907.093 247.231C907.665 246.632 908.377 246.184 909.164 245.928C909.951 245.671 910.79 245.614 911.605 245.761C912.42 245.908 913.186 246.254 913.835 246.77C914.483 247.285 914.994 247.954 915.321 248.715C915.648 249.476 915.782 250.307 915.71 251.132C915.638 251.958 915.363 252.753 914.909 253.446C914.455 254.139 913.836 254.709 913.109 255.104C912.381 255.5 911.566 255.709 910.738 255.712C910.433 255.717 910.128 255.692 909.827 255.639L907.594 262.524C908.375 262.901 909.045 263.475 909.538 264.188C910.032 264.902 910.332 265.731 910.409 266.595C910.486 267.459 910.338 268.329 909.979 269.119C909.62 269.908 909.062 270.591 908.36 271.101C907.659 271.611 906.837 271.929 905.975 272.026C905.113 272.123 904.241 271.994 903.444 271.653C902.647 271.312 901.952 270.769 901.427 270.079C900.902 269.388 900.565 268.573 900.449 267.713H893.212C893.095 268.573 892.757 269.388 892.231 270.078C891.706 270.768 891.01 271.31 890.212 271.65C889.414 271.991 888.542 272.118 887.68 272.02C886.818 271.922 885.996 271.603 885.295 271.092C884.594 270.581 884.037 269.897 883.679 269.106C883.322 268.316 883.175 267.446 883.253 266.582C883.332 265.718 883.634 264.889 884.128 264.176C884.623 263.463 885.294 262.891 886.076 262.515L883.843 255.639C883.543 255.695 883.237 255.723 882.932 255.721C882.101 255.72 881.284 255.512 880.553 255.117C879.822 254.722 879.201 254.152 878.745 253.457C878.289 252.763 878.011 251.966 877.939 251.138C877.866 250.31 877.999 249.477 878.327 248.713C878.655 247.95 879.167 247.279 879.817 246.762C880.468 246.245 881.236 245.898 882.054 245.751C882.871 245.604 883.712 245.663 884.502 245.921C885.291 246.179 886.005 246.63 886.577 247.231L892.419 242.982C892.008 242.216 891.802 241.358 891.821 240.489C891.841 239.62 892.085 238.771 892.531 238.025C892.976 237.279 893.607 236.661 894.362 236.232C895.118 235.803 895.971 235.577 896.84 235.577V235.577ZM896.84 234.665C895.268 234.665 893.76 235.289 892.647 236.401C891.535 237.512 890.909 239.02 890.906 240.593C890.906 241.306 891.035 242.014 891.289 242.681L886.632 246.055C885.891 245.464 885.019 245.059 884.089 244.874C883.16 244.689 882.199 244.73 881.288 244.993C880.378 245.256 879.543 245.733 878.855 246.385C878.166 247.037 877.644 247.844 877.332 248.74C877.019 249.635 876.926 250.593 877.059 251.532C877.192 252.471 877.548 253.364 878.098 254.137C878.647 254.91 879.373 255.54 880.216 255.974C881.059 256.409 881.993 256.635 882.941 256.633H883.205L885.028 262.105C884.23 262.633 883.572 263.347 883.11 264.185C882.648 265.023 882.396 265.961 882.375 266.918C882.354 267.875 882.564 268.823 882.989 269.68C883.414 270.538 884.04 271.28 884.814 271.843C885.588 272.406 886.486 272.772 887.433 272.912C888.379 273.052 889.345 272.96 890.249 272.645C891.152 272.329 891.965 271.8 892.62 271.102C893.274 270.403 893.749 269.557 894.005 268.634H899.747C900.001 269.56 900.476 270.41 901.13 271.112C901.784 271.814 902.599 272.346 903.504 272.664C904.41 272.981 905.378 273.075 906.328 272.936C907.277 272.797 908.178 272.429 908.954 271.865C909.73 271.301 910.358 270.558 910.784 269.697C911.21 268.837 911.421 267.887 911.4 266.927C911.378 265.968 911.124 265.028 910.66 264.188C910.195 263.348 909.534 262.633 908.733 262.105L910.556 256.633H910.738C911.544 256.678 912.35 256.558 913.108 256.28C913.865 256.003 914.558 255.573 915.144 255.018C915.73 254.464 916.197 253.795 916.516 253.053C916.835 252.312 917 251.513 917 250.706C917 249.899 916.835 249.1 916.516 248.358C916.197 247.617 915.73 246.948 915.144 246.393C914.558 245.838 913.865 245.409 913.108 245.131C912.35 244.854 911.544 244.734 910.738 244.778C909.396 244.775 908.093 245.232 907.047 246.073L902.399 242.699C902.646 242.031 902.772 241.324 902.773 240.611C902.774 239.83 902.621 239.057 902.324 238.336C902.026 237.615 901.589 236.959 901.038 236.407C900.487 235.855 899.833 235.417 899.112 235.118C898.392 234.819 897.619 234.665 896.84 234.665V234.665Z" fill="white"/>
<path id="Vector_16" d="M910.739 245.671C910.057 245.669 909.382 245.807 908.755 246.075C908.128 246.343 907.563 246.736 907.093 247.23L901.251 242.981C901.665 242.215 901.874 241.355 901.856 240.485C901.838 239.615 901.595 238.764 901.15 238.016C900.705 237.269 900.073 236.649 899.317 236.219C898.56 235.789 897.705 235.563 896.835 235.563C895.966 235.563 895.111 235.789 894.354 236.219C893.598 236.649 892.966 237.269 892.521 238.016C892.076 238.764 891.832 239.615 891.815 240.485C891.797 241.355 892.005 242.215 892.42 242.981L886.569 247.23C885.996 246.633 885.284 246.188 884.497 245.933C883.709 245.678 882.871 245.622 882.058 245.77C881.244 245.918 880.479 246.265 879.832 246.781C879.184 247.296 878.675 247.964 878.348 248.725C878.022 249.485 877.888 250.315 877.96 251.14C878.032 251.964 878.306 252.759 878.759 253.451C879.212 254.144 879.83 254.714 880.556 255.11C881.283 255.505 882.096 255.715 882.923 255.72C883.229 255.722 883.534 255.694 883.835 255.638L886.067 262.505C885.286 262.881 884.614 263.453 884.12 264.166C883.625 264.878 883.323 265.707 883.245 266.572C883.166 267.436 883.313 268.306 883.671 269.096C884.029 269.887 884.585 270.571 885.287 271.082C885.988 271.592 886.809 271.912 887.671 272.01C888.533 272.108 889.405 271.981 890.203 271.64C891.001 271.3 891.697 270.758 892.223 270.068C892.749 269.378 893.087 268.563 893.204 267.703H900.44C900.556 268.563 900.893 269.378 901.418 270.068C901.943 270.759 902.638 271.301 903.435 271.643C904.233 271.984 905.105 272.113 905.966 272.016C906.828 271.919 907.65 271.601 908.352 271.091C909.054 270.581 909.611 269.898 909.97 269.108C910.329 268.319 910.477 267.449 910.4 266.585C910.323 265.721 910.023 264.891 909.53 264.178C909.036 263.464 908.366 262.891 907.585 262.514L909.827 255.638C910.128 255.694 910.433 255.722 910.739 255.72C911.422 255.762 912.107 255.662 912.751 255.429C913.395 255.196 913.985 254.833 914.483 254.363C914.982 253.893 915.379 253.326 915.651 252.697C915.923 252.068 916.063 251.39 916.063 250.705C916.063 250.019 915.923 249.341 915.651 248.712C915.379 248.083 914.982 247.516 914.483 247.046C913.985 246.577 913.395 246.214 912.751 245.98C912.107 245.747 911.422 245.648 910.739 245.689V245.671ZM905.416 270.712C904.695 270.712 903.99 270.498 903.391 270.098C902.791 269.697 902.324 269.127 902.048 268.461C901.772 267.794 901.7 267.061 901.841 266.353C901.981 265.645 902.328 264.996 902.838 264.485C903.348 263.975 903.998 263.628 904.705 263.487C905.412 263.346 906.145 263.419 906.811 263.695C907.477 263.971 908.047 264.438 908.447 265.038C908.848 265.638 909.062 266.343 909.062 267.065C909.062 268.032 908.678 268.96 907.994 269.644C907.31 270.328 906.383 270.712 905.416 270.712V270.712ZM893.213 266.362C893.063 265.23 892.529 264.184 891.7 263.399L894.434 259.578C895.167 259.967 895.983 260.17 896.813 260.171C897.639 260.173 898.454 259.97 899.182 259.578L901.916 263.399C901.085 264.183 900.547 265.229 900.394 266.362H893.213ZM884.564 267.037C884.564 266.316 884.777 265.611 885.178 265.011C885.579 264.411 886.148 263.943 886.814 263.667C887.48 263.391 888.213 263.319 888.92 263.46C889.628 263.6 890.277 263.948 890.787 264.458C891.297 264.968 891.644 265.618 891.785 266.326C891.925 267.033 891.853 267.767 891.577 268.433C891.301 269.1 890.834 269.669 890.235 270.07C889.635 270.471 888.93 270.685 888.209 270.685C887.242 270.685 886.315 270.301 885.631 269.617C884.948 268.933 884.564 268.005 884.564 267.037V267.037ZM882.941 247.021C883.662 247.021 884.367 247.234 884.967 247.635C885.566 248.036 886.033 248.606 886.309 249.272C886.585 249.939 886.658 250.672 886.517 251.38C886.376 252.087 886.029 252.737 885.519 253.248C885.009 253.758 884.36 254.105 883.653 254.246C882.945 254.387 882.212 254.314 881.546 254.038C880.88 253.762 880.311 253.295 879.91 252.695C879.51 252.095 879.296 251.39 879.296 250.668C879.296 249.701 879.68 248.773 880.364 248.089C881.047 247.405 881.974 247.021 882.941 247.021V247.021ZM893.158 240.637C893.158 239.916 893.372 239.21 893.772 238.611C894.173 238.011 894.742 237.543 895.408 237.267C896.075 236.991 896.808 236.919 897.515 237.059C898.222 237.2 898.871 237.548 899.381 238.058C899.891 238.568 900.238 239.218 900.379 239.925C900.52 240.633 900.447 241.366 900.172 242.033C899.896 242.7 899.428 243.269 898.829 243.67C898.229 244.071 897.525 244.285 896.804 244.285C896.321 244.285 895.843 244.189 895.398 244.003C894.953 243.817 894.549 243.544 894.209 243.2C893.87 242.857 893.603 242.449 893.422 242.001C893.242 241.554 893.152 241.074 893.158 240.591V240.637ZM905.79 251.58L901.37 252.994C901.009 252.239 900.468 251.586 899.794 251.093C899.119 250.599 898.333 250.281 897.505 250.167V245.607C898.634 245.457 899.677 244.922 900.458 244.093L906.318 248.343C905.922 249.073 905.715 249.892 905.717 250.723C905.719 251.007 905.743 251.291 905.79 251.571V251.58ZM900.513 255.164C900.513 255.885 900.299 256.591 899.898 257.191C899.498 257.79 898.929 258.258 898.262 258.534C897.596 258.81 896.863 258.882 896.156 258.742C895.449 258.601 894.799 258.254 894.29 257.743C893.78 257.233 893.432 256.583 893.292 255.876C893.151 255.168 893.223 254.435 893.499 253.768C893.775 253.102 894.242 252.532 894.842 252.131C895.441 251.73 896.146 251.516 896.867 251.516C897.833 251.516 898.758 251.899 899.442 252.582C900.125 253.264 900.51 254.189 900.513 255.155V255.164ZM896.156 245.607V250.167C895.331 250.279 894.546 250.596 893.873 251.088C893.2 251.58 892.66 252.232 892.301 252.985L887.872 251.571C887.929 251.27 887.956 250.965 887.954 250.659C887.946 249.85 887.743 249.056 887.362 248.343L893.213 244.084C893.99 244.915 895.03 245.452 896.156 245.607V245.607ZM887.462 252.902L891.891 254.316C891.835 254.617 891.807 254.922 891.809 255.228C891.806 255.911 891.943 256.588 892.213 257.215C892.483 257.843 892.879 258.408 893.377 258.876L890.643 262.706C889.915 262.31 889.101 262.103 888.273 262.104C887.967 262.102 887.662 262.129 887.362 262.186L885.12 255.219C886.142 254.734 886.971 253.918 887.471 252.902H887.462ZM905.416 262.022C904.59 262.023 903.776 262.227 903.047 262.614L900.312 258.803C900.808 258.334 901.203 257.768 901.473 257.141C901.743 256.514 901.881 255.838 901.88 255.155C901.882 254.849 901.855 254.544 901.798 254.243L906.182 252.848C906.678 253.879 907.506 254.714 908.533 255.219L906.3 262.095C906.008 262.044 905.712 262.019 905.416 262.022V262.022ZM907.093 250.696C907.093 249.974 907.307 249.269 907.707 248.669C908.108 248.069 908.677 247.602 909.343 247.326C910.01 247.049 910.743 246.977 911.45 247.118C912.157 247.259 912.807 247.606 913.316 248.116C913.826 248.626 914.173 249.276 914.314 249.984C914.455 250.692 914.383 251.425 914.107 252.092C913.831 252.758 913.363 253.328 912.764 253.729C912.164 254.129 911.46 254.343 910.739 254.343C909.772 254.343 908.844 253.959 908.161 253.275C907.477 252.591 907.093 251.663 907.093 250.696Z" fill="#AA643B"/>
</g>
</g>
</g>
<text id="VCN" fill="#AE562C" xml:space="preserve" style="white-space: pre" font-family="Oracle Sans" font-size="16" font-weight="600" letter-spacing="0em"><tspan x="444" y="271.816">VCN</tspan></text>
<text id="00.0.00.0/00_4" fill="#312D2A" xml:space="preserve" style="white-space: pre" font-family="Oracle Sans" font-size="16" font-weight="300" letter-spacing="0em"><tspan x="444" y="287.816">10.0.28.0/27 + 10.0.29.0/28</tspan></text>
</g>
<g id="OCI Region_5">
<rect x="445.5" y="298.5" width="441" height="91" stroke="#AA643B" stroke-dasharray="8 4"/>
<text id="Subnet" fill="#AE562C" xml:space="preserve" style="white-space: pre" font-family="Oracle Sans" font-size="16" font-weight="600" letter-spacing="0em"><tspan x="453" y="319.816">Client Subnet</tspan></text>
<text id="00.0.00.0/00_5" fill="#312D2A" xml:space="preserve" style="white-space: pre" font-family="Oracle Sans" font-size="16" font-weight="300" letter-spacing="0em"><tspan x="453" y="335.816">10.0.28.0/27</tspan></text>
<g id="Icon Master_3">
<g id="Srv-Route table and security list">
<g id="Group_4">
<g id="Group_5">
<path id="Vector_17" d="M838.476 317.519V291.077H855.238V283.289L866.476 278.481L877.619 283.289V293.481C877.619 293.577 877.619 296.077 876.19 299.058C874.952 301.75 872.381 305.404 866.857 307.423V317.423H838.476V317.519Z" fill="white"/>
<path id="Vector_18" d="M866.381 279.058L877.048 283.577V293.481C877.048 293.577 877.048 295.981 875.714 298.865C874.476 301.558 872 305.115 866.667 307.038L866.476 307.135H866.381V317.038H838.952V291.558H855.714V283.577L866.381 279.058ZM866.381 278L866 278.192L855.333 282.712L854.762 283V283.673V290.692H838.952H838V291.654V317.038V318H838.952H866.381H867.333V317.038V307.808C872.667 305.692 875.333 302.038 876.571 299.25C878 296.173 878 293.577 878 293.481V283.577V283L877.429 282.712L866.762 278.192L866.381 278Z" fill="white"/>
</g>
<g id="Group_6">
<path id="Vector_19" d="M865.048 307.712H847.524V300.981H857.048C856.762 300.5 856.571 300.115 856.381 299.731H847.524V293H854.667V291.75H838.952V317.135H866.381V308.288L865.905 308.096C865.619 307.904 865.333 307.808 865.048 307.712ZM840.19 292.904H846.286V299.635H840.19V292.904ZM846.286 300.885V307.615H840.19V300.885H846.286ZM840.19 308.962H846.286V315.692H840.19V308.962ZM865.048 315.692H847.524V308.962H865.048V315.692Z" fill="#AA643B"/>
<path id="Vector_20" d="M863.619 313.192H862.381V314.442H863.619V313.192Z" fill="#AA643B"/>
<path id="Vector_21" d="M858.381 314.442L859.524 313.288L860.667 314.442L861.524 313.481L860.381 312.327L861.524 311.173L860.667 310.308L859.524 311.461L858.381 310.308L857.428 311.173L858.571 312.327L857.428 313.481L858.381 314.442Z" fill="#AA643B"/>
<path id="Vector_22" d="M855.619 313.192H854.381V314.442H855.619V313.192Z" fill="#AA643B"/>
<path id="Vector_23" d="M849.524 313.481L850.381 314.442L851.524 313.288L852.667 314.442L853.619 313.481L852.476 312.327L853.619 311.173L852.667 310.308L851.524 311.461L850.381 310.308L849.524 311.173L850.667 312.327L849.524 313.481Z" fill="#AA643B"/>
<path id="Vector_24" d="M855.619 305.116H854.381V306.366H855.619V305.116Z" fill="#AA643B"/>
<path id="Vector_25" d="M849.524 305.404L850.381 306.366L851.524 305.212L852.667 306.366L853.619 305.404L852.476 304.25L853.619 303.096L852.667 302.231L851.524 303.385L850.381 302.231L849.524 303.096L850.667 304.25L849.524 305.404Z" fill="#AA643B"/>
<path id="Vector_26" d="M854.095 298.385H855.333V297.135C855.333 297.135 855.333 297.135 855.333 297.039H854.095V298.385Z" fill="#AA643B"/>
<path id="Vector_27" d="M849.143 297.423L850.095 298.288L851.238 297.135L852.381 298.288L853.238 297.423L852.095 296.269L853.238 295.115L852.381 294.154L851.238 295.308L850.095 294.154L849.143 295.115L850.286 296.269L849.143 297.423Z" fill="#AA643B"/>
<path id="Vector_28" d="M855.714 283.577V293.481C855.714 293.577 855.81 295.981 857.048 298.865C858.286 301.558 860.857 305.115 866.191 307.038L866.381 307.135L866.571 307.038C871.905 305.115 874.476 301.558 875.619 298.865C876.952 295.981 876.952 293.577 876.952 293.481V283.577L866.381 279.058L855.714 283.577ZM875.81 293.481C875.81 293.577 875.619 302.231 866.476 305.692C862.667 304.25 859.905 301.75 858.286 298.385C857.048 295.788 857.048 293.481 857.048 293.481V284.442L866.476 280.404L875.81 284.442V293.481Z" fill="#AA643B"/>
<path id="Vector_29" d="M865.238 294.827H860.286V296.077H865.238V294.827Z" fill="#AA643B"/>
<path id="Vector_30" d="M865.238 288.385H860.286V289.635H865.238V288.385Z" fill="#AA643B"/>
<path id="Vector_31" d="M871.905 286.942L869.143 289.635L868.19 288.673L867.238 289.539L869.143 291.462L872.762 287.808L871.905 286.942Z" fill="#AA643B"/>
<path id="Vector_32" d="M860.286 292.904H865.048H865.238V291.558H860.286V292.904Z" fill="#AA643B"/>
</g>
</g>
</g>
</g>
</g>
<g id="OCI Region_6">
<rect x="445.5" y="414.5" width="441" height="96" stroke="#AA643B" stroke-dasharray="8 4"/>
<text id="Subnet_2" fill="#AE562C" xml:space="preserve" style="white-space: pre" font-family="Oracle Sans" font-size="16" font-weight="600" letter-spacing="0em"><tspan x="453" y="435.816">Backup Subnet</tspan></text>
<text id="00.0.00.0/00_6" fill="#312D2A" xml:space="preserve" style="white-space: pre" font-family="Oracle Sans" font-size="16" font-weight="300" letter-spacing="0em"><tspan x="453" y="451.816">10.0.29.0/28</tspan></text>
<g id="Icon Master_4">
<g id="Srv-Route table and security list_2">
<g id="Group_7">
<g id="Group_8">
<path id="Vector_33" d="M838.476 433.519V407.077H855.238V399.289L866.476 394.481L877.619 399.289V409.481C877.619 409.577 877.619 412.077 876.19 415.058C874.952 417.75 872.381 421.404 866.857 423.423V433.423H838.476V433.519Z" fill="white"/>
<path id="Vector_34" d="M866.381 395.058L877.048 399.577V409.481C877.048 409.577 877.048 411.981 875.714 414.865C874.476 417.558 872 421.115 866.667 423.038L866.476 423.135H866.381V433.038H838.952V407.558H855.714V399.577L866.381 395.058ZM866.381 394L866 394.192L855.333 398.712L854.762 399V399.673V406.692H838.952H838V407.654V433.038V434H838.952H866.381H867.333V433.038V423.808C872.667 421.692 875.333 418.038 876.571 415.25C878 412.173 878 409.577 878 409.481V399.577V399L877.429 398.712L866.762 394.192L866.381 394Z" fill="white"/>
</g>
<g id="Group_9">
<path id="Vector_35" d="M865.048 423.712H847.524V416.981H857.048C856.762 416.5 856.571 416.115 856.381 415.731H847.524V409H854.667V407.75H838.952V433.135H866.381V424.288L865.905 424.096C865.619 423.904 865.333 423.808 865.048 423.712ZM840.19 408.904H846.286V415.635H840.19V408.904ZM846.286 416.885V423.615H840.19V416.885H846.286ZM840.19 424.962H846.286V431.692H840.19V424.962ZM865.048 431.692H847.524V424.962H865.048V431.692Z" fill="#AA643B"/>
<path id="Vector_36" d="M863.619 429.192H862.381V430.442H863.619V429.192Z" fill="#AA643B"/>
<path id="Vector_37" d="M858.381 430.442L859.524 429.288L860.667 430.442L861.524 429.481L860.381 428.327L861.524 427.173L860.667 426.308L859.524 427.461L858.381 426.308L857.428 427.173L858.571 428.327L857.428 429.481L858.381 430.442Z" fill="#AA643B"/>
<path id="Vector_38" d="M855.619 429.192H854.381V430.442H855.619V429.192Z" fill="#AA643B"/>
<path id="Vector_39" d="M849.524 429.481L850.381 430.442L851.524 429.288L852.667 430.442L853.619 429.481L852.476 428.327L853.619 427.173L852.667 426.308L851.524 427.461L850.381 426.308L849.524 427.173L850.667 428.327L849.524 429.481Z" fill="#AA643B"/>
<path id="Vector_40" d="M855.619 421.116H854.381V422.366H855.619V421.116Z" fill="#AA643B"/>
<path id="Vector_41" d="M849.524 421.404L850.381 422.366L851.524 421.212L852.667 422.366L853.619 421.404L852.476 420.25L853.619 419.096L852.667 418.231L851.524 419.385L850.381 418.231L849.524 419.096L850.667 420.25L849.524 421.404Z" fill="#AA643B"/>
<path id="Vector_42" d="M854.095 414.385H855.333V413.135C855.333 413.135 855.333 413.135 855.333 413.039H854.095V414.385Z" fill="#AA643B"/>
<path id="Vector_43" d="M849.143 413.423L850.095 414.288L851.238 413.135L852.381 414.288L853.238 413.423L852.095 412.269L853.238 411.115L852.381 410.154L851.238 411.308L850.095 410.154L849.143 411.115L850.286 412.269L849.143 413.423Z" fill="#AA643B"/>
<path id="Vector_44" d="M855.714 399.577V409.481C855.714 409.577 855.81 411.981 857.048 414.865C858.286 417.558 860.857 421.115 866.191 423.038L866.381 423.135L866.571 423.038C871.905 421.115 874.476 417.558 875.619 414.865C876.952 411.981 876.952 409.577 876.952 409.481V399.577L866.381 395.058L855.714 399.577ZM875.81 409.481C875.81 409.577 875.619 418.231 866.476 421.692C862.667 420.25 859.905 417.75 858.286 414.385C857.048 411.788 857.048 409.481 857.048 409.481V400.442L866.476 396.404L875.81 400.442V409.481Z" fill="#AA643B"/>
<path id="Vector_45" d="M865.238 410.827H860.286V412.077H865.238V410.827Z" fill="#AA643B"/>
<path id="Vector_46" d="M865.238 404.385H860.286V405.635H865.238V404.385Z" fill="#AA643B"/>
<path id="Vector_47" d="M871.905 402.942L869.143 405.635L868.19 404.673L867.238 405.539L869.143 407.462L872.762 403.808L871.905 402.942Z" fill="#AA643B"/>
<path id="Vector_48" d="M860.286 408.904H865.048H865.238V407.558H860.286V408.904Z" fill="#AA643B"/>
</g>
</g>
</g>
</g>
</g>
<g id="Icon Master_5">
<g id="Azure-service-Virtual-Machine">
<g id="Group 836">
<path id="Vector_49" d="M132.934 341.537H76.9337C75.8291 341.537 74.9337 342.433 74.9337 343.539V379.582C74.9337 380.688 75.8291 381.585 76.9337 381.585H132.934C134.038 381.585 134.934 380.688 134.934 379.582V343.539C134.934 342.433 134.038 341.537 132.934 341.537Z" fill="url(#paint5_linear_19015_326)"/>
<path id="Vector_50" d="M114.934 355.72V367.368L104.934 373.241V361.561L114.934 355.72Z" fill="#50E6FF"/>
<path id="Vector_51" d="M114.934 355.72L104.934 361.594L94.9337 355.72L104.934 349.88L114.934 355.72Z" fill="#C3F1FF"/>
<path id="Vector_52" d="M104.934 361.594V373.241L94.9337 367.368V355.72L104.934 361.594Z" fill="#9CEBFF"/>
<path id="Vector_53" d="M94.9337 367.368L104.934 361.561V373.241L94.9337 367.368Z" fill="#C3F1FF"/>
<path id="Vector_54" d="M114.934 367.368L104.934 361.561V373.241L114.934 367.368Z" fill="#9CEBFF"/>
<path id="Vector_55" d="M116.967 393.7C111.034 392.765 110.8 388.493 110.8 381.585H99.0337C99.0337 388.493 98.8337 392.765 92.9004 393.7C92.0813 393.79 91.3249 394.182 90.777 394.798C90.2291 395.414 89.9287 396.212 89.9337 397.037H119.934C119.939 396.212 119.638 395.414 119.09 394.798C118.543 394.182 117.786 393.79 116.967 393.7Z" fill="url(#paint6_linear_19015_326)"/>
</g>
</g>
<g id="Icon Text Label">
<text id="IconLabel" fill="black" xml:space="preserve" style="white-space: pre" font-family="Oracle Sans" font-size="16" letter-spacing="0em"><tspan x="90.1719" y="414.816">App</tspan></text>
</g>
</g>
<g id="Icon Master_6">
<g id="Network-Interfaces">
<g id="Group 1497">
<path id="Vector_56" d="M321.318 348.982H325.8C326.119 348.982 326.424 349.109 326.649 349.334C326.874 349.559 327 349.865 327 350.183V362.55C327 362.869 326.874 363.174 326.649 363.399C326.424 363.625 326.119 363.751 325.8 363.751H321.318V348.982Z" fill="#FFCA00"/>
<path id="Vector_57" d="M321.318 370.5H325.8C326.119 370.5 326.424 370.627 326.649 370.852C326.874 371.077 327 371.383 327 371.701V392.407C327 392.725 326.874 393.031 326.649 393.256C326.424 393.481 326.119 393.608 325.8 393.608H321.318V370.5Z" fill="#FFCA00"/>
<path id="Vector_58" d="M318.882 344H275.189C273.844 344 272.754 345.092 272.754 346.438V394.562C272.754 395.908 273.844 397 275.189 397H318.882C320.227 397 321.318 395.908 321.318 394.562V346.438C321.318 345.092 320.227 344 318.882 344Z" fill="url(#paint7_linear_19015_326)"/>
<path id="Vector_59" d="M286.058 384.28H283.552C283.459 384.276 283.368 384.253 283.284 384.213C283.201 384.173 283.125 384.117 283.063 384.048C283.001 383.979 282.953 383.899 282.921 383.811C282.89 383.724 282.877 383.631 282.881 383.538V354.035C282.877 353.944 282.89 353.853 282.922 353.767C282.954 353.681 283.002 353.603 283.065 353.537C283.128 353.471 283.203 353.418 283.287 353.382C283.371 353.346 283.461 353.328 283.552 353.328H290.364C290.455 353.328 290.545 353.346 290.629 353.382C290.713 353.418 290.788 353.471 290.851 353.537C290.914 353.603 290.962 353.681 290.994 353.767C291.025 353.853 291.039 353.944 291.034 354.035C291.039 354.128 291.025 354.22 290.994 354.308C290.963 354.396 290.915 354.476 290.853 354.545C290.79 354.614 290.715 354.67 290.631 354.71C290.547 354.749 290.456 354.772 290.364 354.777H284.223V382.796H286.058C286.151 382.801 286.242 382.823 286.325 382.863C286.409 382.903 286.485 382.959 286.547 383.028C286.609 383.097 286.657 383.177 286.688 383.265C286.72 383.352 286.733 383.445 286.728 383.538C286.729 383.723 286.661 383.902 286.537 384.039C286.413 384.177 286.242 384.262 286.058 384.28Z" fill="#B4EC36"/>
<path id="Vector_60" d="M286.412 387.884H280.765C280.672 387.879 280.581 387.857 280.497 387.817C280.413 387.777 280.338 387.721 280.276 387.652C280.214 387.583 280.165 387.503 280.134 387.415C280.103 387.328 280.09 387.235 280.094 387.142L279.636 350.643C279.632 350.544 279.649 350.447 279.686 350.355C279.722 350.264 279.777 350.181 279.847 350.113C279.902 350.044 279.972 349.989 280.052 349.952C280.131 349.916 280.218 349.898 280.306 349.901H290.365V351.349H281.012L281.435 386.4H286.412V387.884Z" fill="#B4EC36"/>
<path id="Vector_61" d="M307.589 384.633H301.978C301.882 384.629 301.789 384.605 301.704 384.563C301.619 384.52 301.544 384.46 301.484 384.386C301.414 384.324 301.359 384.248 301.323 384.162C301.286 384.077 301.269 383.984 301.272 383.891V366.613C301.267 366.522 301.281 366.431 301.312 366.345C301.344 366.26 301.392 366.182 301.455 366.115C301.518 366.049 301.594 365.997 301.677 365.961C301.761 365.925 301.851 365.906 301.942 365.907H305.154V357.957H306.495V366.578C306.505 366.76 306.445 366.938 306.326 367.077C306.208 367.215 306.041 367.302 305.86 367.32H302.648V382.937H307.589V384.633Z" fill="#B4EC36"/>
<path id="Vector_62" d="M310.941 346.792H291.106C290.599 346.792 290.188 347.203 290.188 347.71V356.862C290.188 357.369 290.599 357.78 291.106 357.78H310.941C311.448 357.78 311.859 357.369 311.859 356.862V347.71C311.859 347.203 311.448 346.792 310.941 346.792Z" fill="#365615"/>
<path id="Vector_63" d="M296.471 393.219V377.743C296.471 377.236 296.06 376.825 295.553 376.825H293.542C293.035 376.825 292.624 377.236 292.624 377.743V393.219C292.624 393.727 293.035 394.138 293.542 394.138H295.553C296.06 394.138 296.471 393.727 296.471 393.219Z" fill="#365615"/>
<path id="Vector_64" d="M289.907 393.29V377.814C289.907 377.307 289.496 376.896 288.989 376.896H286.977C286.471 376.896 286.06 377.307 286.06 377.814V393.29C286.06 393.798 286.471 394.209 286.977 394.209H288.989C289.496 394.209 289.907 393.798 289.907 393.29Z" fill="#365615"/>
<path id="Vector_65" d="M311.012 393.29V377.814C311.012 377.307 310.601 376.896 310.094 376.896H308.083C307.576 376.896 307.165 377.307 307.165 377.814V393.29C307.165 393.798 307.576 394.209 308.083 394.209H310.094C310.601 394.209 311.012 393.798 311.012 393.29Z" fill="#F2F2F2"/>
<path id="Vector_66" d="M293.859 371.136C295.886 371.136 297.53 369.364 297.53 367.179C297.53 364.993 295.886 363.221 293.859 363.221C291.832 363.221 290.188 364.993 290.188 367.179C290.188 369.364 291.832 371.136 293.859 371.136Z" fill="#F2F2F2"/>
<path id="Vector_67" d="M272.682 381.983H268.2C267.904 381.985 267.619 381.878 267.397 381.683C267.176 381.487 267.034 381.217 267 380.923V360.218C267 359.899 267.126 359.594 267.351 359.369C267.576 359.143 267.881 359.017 268.2 359.017H272.682V381.983Z" fill="#3B3B3B"/>
</g>
</g>
<g id="Icon Text Label_2">
<text id="IconLabel_2" fill="black" xml:space="preserve" style="white-space: pre" font-family="Oracle Sans" font-size="16" letter-spacing="0em"><tspan x="266.305" y="414.816">Network</tspan></text>
<text id="IconLabel_3" fill="black" xml:space="preserve" style="white-space: pre" font-family="Oracle Sans" font-size="16" letter-spacing="0em"><tspan x="265.164" y="430.816">Interface</tspan></text>
</g>
</g>
<g id="Icon Master_7">
<g id="Srv-Oracle Database@Azure_2">
<g id="Group_10">
<path id="Vector_68" d="M614.37 178.728C603.132 178.728 594.022 176.753 594.022 174.316V184.588C594.022 187.024 603.132 189 614.37 189C625.607 189 634.717 187.024 634.717 184.588V174.316C634.717 176.753 625.607 178.728 614.37 178.728ZM631.49 180.82C629.953 181.351 628.36 181.769 626.759 182.065C624.851 182.413 622.898 182.592 620.953 182.592C620.485 182.592 620.103 182.214 620.103 181.746C620.103 181.278 620.482 180.899 620.953 180.899C622.796 180.899 624.645 180.73 626.454 180.398C627.971 180.119 629.478 179.724 630.936 179.219C631.381 179.067 631.862 179.299 632.018 179.744C632.171 180.186 631.938 180.67 631.494 180.823L631.49 180.82ZM614.37 165.518C603.132 165.518 594.022 163.543 594.022 161.106V171.922C594.022 174.359 603.132 176.331 614.37 176.331C625.607 176.331 634.717 174.356 634.717 171.919V161.103C634.717 163.54 625.607 165.515 614.37 165.515V165.518ZM631.49 167.968C629.95 168.5 628.36 168.918 626.759 169.213C624.851 169.562 622.895 169.741 620.953 169.741C620.485 169.741 620.103 169.363 620.103 168.895C620.103 168.427 620.482 168.048 620.953 168.048C622.796 168.048 624.645 167.879 626.454 167.547C627.971 167.268 629.478 166.873 630.936 166.368C631.381 166.216 631.862 166.448 632.018 166.893C632.174 167.338 631.938 167.819 631.494 167.972L631.49 167.968ZM614.37 144.447C603.132 144.447 594.022 146.399 594.022 149.629V158.716C594.022 161.153 603.132 163.125 614.37 163.125C625.607 163.125 634.717 161.149 634.717 158.713V149.958C634.717 146.396 625.607 144.447 614.37 144.447ZM631.49 155.486C629.95 156.017 628.36 156.435 626.759 156.731C624.851 157.079 622.898 157.259 620.953 157.259C620.485 157.259 620.103 156.88 620.103 156.412C620.103 155.944 620.482 155.565 620.953 155.565C622.796 155.565 624.645 155.396 626.454 155.064C627.968 154.785 629.478 154.39 630.936 153.886C631.381 153.733 631.862 153.965 632.018 154.41C632.171 154.852 631.938 155.336 631.494 155.489L631.49 155.486ZM614.37 152.481C604.247 152.481 596.044 150.639 596.044 149.546C596.044 148.205 604.247 146.134 614.37 146.134C624.492 146.134 632.695 148.288 632.695 149.546C632.695 150.689 624.492 152.481 614.37 152.481Z" fill="url(#paint8_linear_19015_326)"/>
<path id="Vector_69" d="M594.022 149.543V149.387C594.022 146.376 601.95 144.477 612.139 144.235C610.967 141.606 608.514 139.657 605.512 139.259C605.257 133.392 600.337 128.824 594.471 129.007C589.803 128.924 585.59 131.795 583.963 136.171C578.98 136.772 575.185 140.928 575.039 145.945C575.262 151.615 580.029 156.034 585.699 155.831C586.015 155.831 586.337 155.818 586.636 155.791H594.019L594.022 149.543Z" fill="url(#paint9_linear_19015_326)"/>
</g>
</g>
<g id="Icon Text Label_3">
<text id="IconLabel_4" fill="black" xml:space="preserve" style="white-space: pre" font-family="Oracle Sans" font-size="16" letter-spacing="0em"><tspan x="517.234" y="206.816">Oracle Database@Azure</tspan></text>
</g>
</g>
<g id="Exadata Cloud">
<g id="Srv-Oracle Exadata Cloud Infrastructure">
<g id="Group 826">
<g id="Union">
<path fill-rule="evenodd" clip-rule="evenodd" d="M655.966 459.185V376.752H620.023V459.185H655.966ZM622.537 456.67H653.451V379.267H622.537V456.67Z" fill="white"/>
<path fill-rule="evenodd" clip-rule="evenodd" d="M624.099 356.402L624.285 353.894C623.419 353.829 622.55 353.827 621.684 353.887H619.669L618.464 354.145H617.799L617.43 354.261C616.771 354.469 616.123 354.711 615.489 354.986L616.491 357.293L615.469 354.995C614.153 355.58 612.908 356.315 611.758 357.184L611.747 357.192C611.174 357.631 610.629 358.108 610.119 358.619L610.111 358.627C607.442 361.321 605.695 364.79 605.116 368.537C605.017 368.976 604.828 369.39 604.561 369.752C604.288 370.12 603.94 370.426 603.541 370.649C600.956 371.969 598.647 373.772 596.738 375.96L596.717 375.986C594.223 378.923 592.506 382.44 591.722 386.213L591.719 386.225C591.524 387.19 591.393 388.168 591.33 389.15L590.985 394.5H612.857V466.356H663.132V394.5H677.139L678.503 391.947L678.507 391.94C681.163 387.031 681.862 381.297 680.461 375.893C679.06 370.487 675.662 365.813 670.953 362.816L670.939 362.807C668.797 361.465 666.441 360.499 663.974 359.953L663.941 359.946C663.483 359.851 663.051 359.658 662.674 359.379C662.308 359.107 662.003 358.76 661.78 358.362C661.312 357.434 660.789 356.534 660.213 355.669L660.198 355.647L660.183 355.625C659.054 354.005 657.714 352.544 656.199 351.28L656.188 351.271C652.248 348.023 647.283 346.281 642.179 346.359C637.075 346.436 632.165 348.328 628.326 351.694L628.319 351.7C627.802 352.157 627.26 352.666 626.764 353.193C626.631 353.327 626.492 353.453 626.345 353.571L626.06 353.714H625.913L625.224 353.887H624.962L624.85 353.897C624.675 353.913 624.499 353.913 624.324 353.897L624.099 356.402ZM593.839 389.312C593.896 388.443 594.011 387.578 594.184 386.725C594.883 383.363 596.413 380.23 598.634 377.614C600.34 375.657 602.407 374.047 604.72 372.871C605.451 372.471 606.087 371.917 606.582 371.247C607.078 370.577 607.422 369.807 607.591 368.991C608.078 365.741 609.586 362.731 611.897 360.397C612.33 359.964 612.79 359.561 613.276 359.19C614.271 358.436 615.35 357.8 616.491 357.293C617.044 357.052 617.61 356.841 618.185 356.66H618.73L619.936 356.402H621.773C622.548 356.344 623.325 356.344 624.099 356.402C624.424 356.431 624.75 356.431 625.075 356.402H625.534L626.223 356.229H626.654C626.9 356.149 627.132 356.033 627.343 355.884L627.687 355.712C628.004 355.477 628.302 355.217 628.577 354.936C629.008 354.476 629.496 354.016 629.984 353.585C633.375 350.612 637.711 348.942 642.218 348.874C646.724 348.805 651.109 350.343 654.588 353.211C655.931 354.332 657.119 355.627 658.119 357.063C658.648 357.857 659.127 358.682 659.555 359.535C659.954 360.266 660.507 360.903 661.176 361.399C661.846 361.895 662.615 362.24 663.43 362.409C665.617 362.893 667.705 363.748 669.603 364.938C673.775 367.593 676.785 371.734 678.027 376.524C679.268 381.315 678.648 386.398 676.292 390.749L675.632 391.985H664.148V387.3H672.761C674.126 384.062 674.298 380.444 673.246 377.09C672.195 373.737 669.988 370.867 667.019 368.991C665.581 368.021 663.974 367.329 662.282 366.95C660.775 366.619 659.36 365.954 658.143 365.004C656.926 364.054 655.937 362.843 655.248 361.46C654.059 359.085 652.236 357.086 649.981 355.686C647.725 354.285 645.126 353.538 642.473 353.527C640.502 353.526 638.552 353.931 636.744 354.717C634.936 355.504 633.309 356.654 631.965 358.097C630.919 359.227 629.625 360.099 628.185 360.642C626.745 361.186 625.199 361.387 623.668 361.23C621.853 361.054 620.023 361.351 618.357 362.093C616.779 362.799 615.394 363.876 614.32 365.232C613.246 366.588 612.513 368.183 612.185 369.882C611.878 371.389 611.236 372.807 610.307 374.031C609.377 375.255 608.184 376.254 606.816 376.953C604.834 377.986 603.098 379.435 601.726 381.201C600.897 382.267 600.213 383.434 599.688 384.67C599.343 385.481 599.067 386.322 598.864 387.185H611.897V391.985H593.667L593.839 389.312ZM620.038 372.096L615.372 375.435V463.841H660.617V372.096H620.038Z" fill="white"/>
</g>
<path id="Vector_70" d="M598.863 387.185C599.377 385.008 600.354 382.967 601.726 381.201C603.098 379.436 604.834 377.987 606.816 376.953C608.184 376.254 609.377 375.255 610.306 374.031C611.236 372.807 611.878 371.389 612.184 369.882C612.513 368.183 613.245 366.588 614.32 365.232C615.394 363.877 616.779 362.8 618.357 362.093C620.023 361.351 621.853 361.054 623.668 361.231C625.199 361.387 626.745 361.186 628.185 360.642C629.625 360.099 630.919 359.228 631.965 358.098C633.309 356.654 634.936 355.504 636.744 354.718C638.551 353.931 640.501 353.526 642.472 353.528C645.126 353.538 647.725 354.285 649.98 355.686C652.236 357.086 654.059 359.085 655.248 361.46C655.937 362.843 656.926 364.054 658.143 365.004C659.36 365.954 660.774 366.619 662.282 366.95C663.974 367.329 665.58 368.021 667.019 368.991C669.987 370.867 672.194 373.737 673.246 377.09C674.298 380.444 674.126 384.062 672.761 387.3H664.148V391.985H675.631L676.292 390.749C678.648 386.398 679.268 381.315 678.026 376.524C676.785 371.734 673.774 367.593 669.603 364.938C667.704 363.749 665.617 362.893 663.43 362.409C662.614 362.24 661.845 361.895 661.176 361.399C660.507 360.903 659.953 360.267 659.554 359.535C659.127 358.682 658.647 357.857 658.119 357.063C657.119 355.627 655.931 354.332 654.588 353.211C651.108 350.343 646.724 348.805 642.217 348.874C637.711 348.942 633.375 350.612 629.984 353.585C629.496 354.016 629.008 354.476 628.577 354.936C628.301 355.218 628.004 355.477 627.687 355.712L627.343 355.884C627.132 356.033 626.899 356.149 626.654 356.229H626.223L625.534 356.402H625.075C624.75 356.431 624.423 356.431 624.099 356.402V356.402C623.325 356.344 622.547 356.344 621.773 356.402H620.567H619.936L618.73 356.66H618.185C617.609 356.841 617.044 357.053 616.491 357.293V357.293C615.35 357.8 614.271 358.437 613.275 359.19C612.79 359.561 612.329 359.965 611.897 360.397C609.586 362.731 608.078 365.741 607.591 368.991C607.422 369.808 607.078 370.578 606.582 371.248C606.086 371.918 605.451 372.472 604.72 372.871C602.406 374.047 600.34 375.657 598.634 377.614C596.412 380.23 594.882 383.363 594.184 386.725C594.011 387.579 593.896 388.443 593.839 389.312L593.667 391.985H611.897V387.185H598.863Z" fill="#2D5967"/>
<path id="Union_2" fill-rule="evenodd" clip-rule="evenodd" d="M655.965 459.185H620.022V376.752H655.965V459.185ZM652.377 380.23H623.496V384.886H652.377V380.23ZM626.969 392.417H623.496V397.073H626.969V401.126H649.018V397.073H652.377V392.417H649.018V388.364H626.969V392.417ZM652.377 404.603H623.496V409.231H652.377V404.603ZM652.377 412.738H623.496V417.394H652.377V412.738Z" fill="white"/>
<path id="Vector_71" d="M644.368 392.991H631.621V396.469H644.368V392.991Z" fill="white"/>
<path id="Vector_72" d="M615.372 372.096V463.842H660.617V372.096H615.372ZM655.966 459.185H620.022V376.752H655.966V459.185Z" fill="#2D5967"/>
<path id="Vector_73" d="M652.492 380.23H623.496V384.886H652.492V380.23Z" fill="#2D5967"/>
<path id="Vector_74" d="M626.97 401.126H649.018V397.073H652.377V392.417H649.018V388.364H626.97V392.417H623.496V397.073H626.97V401.126ZM631.621 392.992H644.368V396.498H631.621V392.992Z" fill="#2D5967"/>
<path id="Vector_75" d="M652.492 404.604H623.496V409.26H652.492V404.604Z" fill="#2D5967"/>
<path id="Vector_76" d="M652.492 412.738H623.496V417.394H652.492V412.738Z" fill="#2D5967"/>
<path id="Vector_77" d="M646.522 427.204L641.521 427.232L638.253 435.519L634.789 427.259H629.76L635.291 439.398L629.564 452.29H634.565L638.057 443.36L641.801 452.262L646.83 452.234L641.047 439.537L646.522 427.204Z" fill="#2D5967"/>
</g>
</g>
<g id="Icon Text Label_4">
<text id="IconLabel_5" fill="black" xml:space="preserve" style="white-space: pre" font-family="Oracle Sans" font-size="16" letter-spacing="0em"><tspan x="583.938" y="483.816">Oracle Exadata</tspan></text>
<text id="IconLabel_6" fill="black" xml:space="preserve" style="white-space: pre" font-family="Oracle Sans" font-size="16" letter-spacing="0em"><tspan x="576.07" y="499.816">Database Service</tspan></text>
</g>
</g>
<path id="Vector 1" d="M434.707 288.707C435.098 288.317 435.098 287.683 434.707 287.293L428.343 280.929C427.953 280.538 427.319 280.538 426.929 280.929C426.538 281.319 426.538 281.953 426.929 282.343L432.586 288L426.929 293.657C426.538 294.047 426.538 294.681 426.929 295.071C427.319 295.462 427.953 295.462 428.343 295.071L434.707 288.707ZM409.293 287.293C408.902 287.683 408.902 288.317 409.293 288.707L415.657 295.071C416.047 295.462 416.681 295.462 417.071 295.071C417.462 294.681 417.462 294.047 417.071 293.657L411.414 288L417.071 282.343C417.462 281.953 417.462 281.319 417.071 280.929C416.681 280.538 416.047 280.538 415.657 280.929L409.293 287.293ZM434 287H410V289H434V287Z" fill="#312D2A"/>
<path id="Vector 3" d="M264.707 373.707C265.098 373.317 265.098 372.683 264.707 372.293L258.343 365.929C257.953 365.538 257.319 365.538 256.929 365.929C256.538 366.319 256.538 366.953 256.929 367.343L262.586 373L256.929 378.657C256.538 379.047 256.538 379.681 256.929 380.071C257.319 380.462 257.953 380.462 258.343 380.071L264.707 373.707ZM137.293 372.293C136.902 372.683 136.902 373.317 137.293 373.707L143.657 380.071C144.047 380.462 144.681 380.462 145.071 380.071C145.462 379.681 145.462 379.047 145.071 378.657L139.414 373L145.071 367.343C145.462 366.953 145.462 366.319 145.071 365.929C144.681 365.538 144.047 365.538 143.657 365.929L137.293 372.293ZM264 372L138 372L138 374L264 374L264 372Z" fill="#312D2A"/>
<path id="Vector 2" d="M598.707 373.707C599.098 373.317 599.098 372.683 598.707 372.293L592.343 365.929C591.953 365.538 591.319 365.538 590.929 365.929C590.538 366.319 590.538 366.953 590.929 367.343L596.586 373L590.929 378.657C590.538 379.047 590.538 379.681 590.929 380.071C591.319 380.462 591.953 380.462 592.343 380.071L598.707 373.707ZM329.293 372.293C328.902 372.683 328.902 373.317 329.293 373.707L335.657 380.071C336.047 380.462 336.681 380.462 337.071 380.071C337.462 379.681 337.462 379.047 337.071 378.657L331.414 373L337.071 367.343C337.462 366.953 337.462 366.319 337.071 365.929C336.681 365.538 336.047 365.538 335.657 365.929L329.293 372.293ZM598 372L330 372L330 374L598 374L598 372Z" fill="#312D2A"/>
<g id="Object Storage">
<g id="Srv-OCI Object Storage">
<g id="Group_11">
<g id="Group_12">
<g id="Group_13">
<path id="Vector_78" d="M1001.85 396.286C1000.14 396.286 998.714 394.857 998.714 393.143V340.857C998.714 339.143 1000.14 337.714 1001.85 337.714H1054.15C1055.86 337.714 1057.29 339.143 1057.29 340.857V393.286C1057.29 395 1055.86 396.429 1054.15 396.429L1001.85 396.286Z" fill="white"/>
<path id="Vector_79" d="M1054.01 338.429C1055.29 338.429 1056.43 339.571 1056.43 340.857V393.286C1056.43 394.571 1055.29 395.714 1054.01 395.714H1001.85C1000.57 395.571 999.425 394.429 999.425 393.143V340.857C999.425 339.571 1000.57 338.429 1001.85 338.429H1054.01ZM1054.01 337H1001.85C999.71 337 998 338.714 998 340.857V393.286C998 395.286 999.71 397 1001.85 397H1054.15C1056.29 397 1058 395.286 1058 393.143V340.857C1057.86 338.714 1056.15 337 1054.01 337Z" fill="white"/>
</g>
<g id="Group_14">
<g id="Group_15">
<path id="Vector_80" d="M1041.32 353.572L1045.17 360.286L1041.32 367H1033.63L1029.78 360.286L1033.63 353.572H1041.32V353.572ZM1042.61 351.572H1032.35L1027.22 360.429L1032.35 369.286H1042.61L1047.74 360.429L1042.61 351.572Z" fill="#2D5967"/>
</g>
<g id="Group_16">
<path id="Vector_81" d="M1027.5 374C1031.2 374 1034.2 377 1034.2 380.714C1034.2 384.429 1031.2 387.429 1027.5 387.429C1023.79 387.429 1020.8 384.429 1020.8 380.714C1020.8 377 1023.79 374 1027.5 374ZM1027.5 372C1022.65 372 1018.66 376 1018.66 380.857C1018.66 385.714 1022.65 389.714 1027.5 389.714C1032.35 389.714 1036.34 385.714 1036.34 380.857C1036.34 375.857 1032.35 372 1027.5 372Z" fill="#2D5967"/>
</g>
<g id="Group_17">
<path id="Vector_82" d="M1017.38 355.286L1023.65 366.572H1011.25L1017.38 355.286ZM1017.38 351L1007.69 368.715H1027.22L1017.38 351Z" fill="#2D5967"/>
</g>
</g>
<g id="Group_18">
<path id="Vector_83" d="M1054.01 395.572H1001.85C1000.57 395.572 999.426 394.429 999.426 393.144V344.144H1056.43V393.144C1056.43 394.429 1055.29 395.572 1054.01 395.572ZM1001.56 346.286V393.286C1001.56 393.429 1001.71 393.572 1001.85 393.572H1054.15C1054.3 393.572 1054.44 393.429 1054.44 393.286V346.286H1001.56Z" fill="#2D5967"/>
</g>
<g id="Group_19">
<path id="Vector_84" d="M1056.43 342.572H999.426V340.858C999.426 339.572 1000.57 338.429 1001.85 338.429H1054.15C1055.29 338.429 1056.43 339.572 1056.43 340.858V342.572Z" fill="#2D5967"/>
</g>
</g>
</g>
</g>
<g id="Icon Text Label_5">
<text id="IconLabel_7" fill="black" xml:space="preserve" style="white-space: pre" font-family="Oracle Sans" font-size="16" letter-spacing="0em"><tspan x="989.367" y="414.816">OCI Object</tspan></text>
<text id="IconLabel_8" fill="black" xml:space="preserve" style="white-space: pre" font-family="Oracle Sans" font-size="16" letter-spacing="0em"><tspan x="1000.19" y="430.816">Storage</tspan></text>
</g>
</g>
<g id="Object Storage_2">
<g id="Services-Cloud">
<g id="Group 511">
<path id="Vector_85" d="M993.898 188.136L994.081 185.676C994.305 182.886 995.241 180.2 996.798 177.873C998.355 175.546 1000.48 173.656 1002.98 172.383C1003.51 172.092 1003.96 171.683 1004.31 171.187C1004.65 170.691 1004.88 170.123 1004.97 169.525C1005.53 166.653 1007.08 164.066 1009.34 162.207C1011.61 160.349 1014.45 159.335 1017.37 159.34C1017.76 159.315 1018.15 159.315 1018.54 159.34H1018.94C1019.46 159.346 1019.98 159.242 1020.46 159.036C1020.94 158.83 1021.37 158.526 1021.73 158.143C1023.44 156.311 1025.57 154.92 1027.93 154.09C1030.29 153.26 1032.82 153.016 1035.3 153.379C1037.78 153.742 1040.14 154.701 1042.16 156.173C1044.19 157.645 1045.83 159.587 1046.94 161.832C1047.2 162.396 1047.59 162.892 1048.07 163.282C1048.55 163.671 1049.12 163.942 1049.73 164.075C1052.12 164.613 1054.34 165.694 1056.24 167.235C1058.14 168.775 1059.66 170.733 1060.68 172.955C1061.69 175.178 1062.18 177.606 1062.11 180.048C1062.03 182.491 1061.39 184.884 1060.24 187.039L1059.61 188.219L993.898 188.136Z" fill="white"/>
<path id="Vector_86" d="M1033.09 154.104C1035.81 154.093 1038.49 154.847 1040.81 156.281C1043.13 157.714 1045 159.77 1046.2 162.213C1046.53 162.866 1047 163.438 1047.57 163.886C1048.15 164.335 1048.82 164.649 1049.53 164.805C1051.22 165.185 1052.82 165.848 1054.29 166.766C1057.51 168.784 1059.84 171.953 1060.81 175.629C1061.78 179.305 1061.32 183.212 1059.51 186.556L1059.11 187.304H994.796L994.912 185.775C995.096 183.119 995.956 180.553 997.411 178.323C998.866 176.092 1000.87 174.27 1003.23 173.03C1003.87 172.7 1004.43 172.23 1004.87 171.655C1005.3 171.08 1005.61 170.414 1005.75 169.707C1006.12 167.842 1006.93 166.093 1008.11 164.609C1009.3 163.124 1010.83 161.949 1012.57 161.183C1014.07 160.53 1015.69 160.191 1017.32 160.186H1018.42H1018.89C1019.51 160.177 1020.13 160.044 1020.7 159.792C1021.27 159.541 1021.78 159.178 1022.21 158.724C1023.61 157.245 1025.29 156.071 1027.17 155.275C1029.04 154.48 1031.05 154.082 1033.09 154.104V154.104ZM1033.09 152.443C1030.84 152.445 1028.62 152.909 1026.57 153.807C1024.51 154.704 1022.66 156.016 1021.13 157.66C1020.85 157.959 1020.51 158.196 1020.13 158.356C1019.75 158.516 1019.35 158.596 1018.94 158.591H1018.62C1018.21 158.566 1017.79 158.566 1017.37 158.591C1014.25 158.597 1011.23 159.682 1008.82 161.663C1006.41 163.645 1004.76 166.399 1004.16 169.458C1004.06 169.925 1003.86 170.364 1003.58 170.744C1003.29 171.124 1002.92 171.434 1002.49 171.651C999.888 173.012 997.672 175.013 996.054 177.467C994.437 179.92 993.472 182.745 993.249 185.675L993.133 187.204L993 188.998H1060.1L1060.57 188.134L1060.97 187.387C1062.21 185.121 1062.9 182.598 1062.99 180.019C1063.08 177.439 1062.57 174.874 1061.5 172.526C1060.42 170.178 1058.82 168.112 1056.81 166.492C1054.8 164.872 1052.44 163.743 1049.91 163.194C1049.44 163.094 1049 162.893 1048.62 162.607C1048.23 162.32 1047.91 161.953 1047.68 161.532C1046.35 158.803 1044.27 156.505 1041.69 154.898C1039.11 153.291 1036.13 152.441 1033.09 152.443V152.443Z" fill="white"/>
<path id="Vector_87" d="M1059.51 186.558L1059.11 187.306H1029.18C1027.92 187.301 1026.67 187.049 1025.5 186.562C1024.34 186.075 1023.28 185.364 1022.39 184.469C1021.51 183.574 1020.8 182.513 1020.32 181.346C1019.84 180.179 1019.6 178.93 1019.6 177.668H1022.46C1022.45 179.447 1023.14 181.159 1024.39 182.43C1025.63 183.7 1027.33 184.426 1029.11 184.448H1057.38C1058.59 181.784 1058.8 178.775 1057.97 175.97C1057.14 173.166 1055.32 170.754 1052.86 169.177C1051.68 168.402 1050.38 167.84 1049.02 167.516C1047.88 167.266 1046.82 166.767 1045.9 166.054C1044.98 165.341 1044.23 164.433 1043.71 163.395C1042.75 161.427 1041.25 159.772 1039.38 158.619C1037.52 157.467 1035.36 156.865 1033.17 156.881C1031.53 156.886 1029.9 157.232 1028.4 157.899C1026.9 158.565 1025.55 159.537 1024.44 160.753C1023.65 161.599 1022.68 162.249 1021.59 162.653C1020.51 163.057 1019.34 163.203 1018.19 163.079C1016.68 162.947 1015.16 163.198 1013.77 163.81C1012.45 164.389 1011.29 165.277 1010.39 166.4C1009.49 167.522 1008.87 168.846 1008.6 170.257C1008.38 171.384 1007.91 172.446 1007.22 173.367C1006.54 174.287 1005.66 175.042 1004.64 175.575C1002.94 176.46 1001.45 177.718 1000.3 179.254C999.151 180.79 998.36 182.565 997.989 184.448H1019.6C1020.37 185.574 1021.33 186.554 1022.45 187.339H994.796L994.913 185.81C995.097 183.154 995.957 180.589 997.412 178.358C998.867 176.127 1000.87 174.306 1003.23 173.066C1003.87 172.735 1004.43 172.266 1004.87 171.691C1005.3 171.115 1005.61 170.45 1005.75 169.742C1006.12 167.877 1006.93 166.128 1008.11 164.644C1009.3 163.16 1010.83 161.984 1012.57 161.218C1014.41 160.418 1016.42 160.092 1018.42 160.271C1019.14 160.349 1019.86 160.261 1020.53 160.013C1021.2 159.765 1021.81 159.364 1022.3 158.842C1023.67 157.352 1025.34 156.163 1027.2 155.348C1029.05 154.533 1031.06 154.11 1033.09 154.107C1035.81 154.095 1038.49 154.849 1040.81 156.283C1043.13 157.716 1045 159.772 1046.21 162.215C1046.53 162.868 1047 163.44 1047.57 163.888C1048.15 164.337 1048.82 164.651 1049.53 164.807C1051.22 165.187 1052.82 165.85 1054.29 166.768C1057.51 168.786 1059.84 171.955 1060.81 175.631C1061.78 179.307 1061.32 183.214 1059.51 186.558" fill="#2D5967"/>
</g>
</g>
<g id="Icon Text Label_6">
<text id="IconLabel_9" fill="black" xml:space="preserve" style="white-space: pre" font-family="Oracle Sans" font-size="16" letter-spacing="0em"><tspan x="1001.54" y="206.816">Control</tspan></text>
<text id="IconLabel_10" fill="black" xml:space="preserve" style="white-space: pre" font-family="Oracle Sans" font-size="16" letter-spacing="0em"><tspan x="1008.14" y="222.816">plane</tspan></text>
</g>
</g>
<path id="Vector 4" d="M1031 456V457H1032V456H1031ZM1031.71 434.293C1031.32 433.902 1030.68 433.902 1030.29 434.293L1023.93 440.657C1023.54 441.047 1023.54 441.681 1023.93 442.071C1024.32 442.462 1024.95 442.462 1025.34 442.071L1031 436.414L1036.66 442.071C1037.05 442.462 1037.68 442.462 1038.07 442.071C1038.46 441.681 1038.46 441.047 1038.07 440.657L1031.71 434.293ZM663 457H665V455H663V457ZM669 457H673V455H669V457ZM677 457H681V455H677V457ZM685 457H689V455H685V457ZM693 457H697V455H693V457ZM701 457H705V455H701V457ZM709 457H713V455H709V457ZM717 457H721V455H717V457ZM725 457H729V455H725V457ZM733 457H737V455H733V457ZM741 457H745V455H741V457ZM749 457H753V455H749V457ZM757 457H761V455H757V457ZM765 457H769V455H765V457ZM773 457H777V455H773V457ZM781 457H785V455H781V457ZM789 457H793V455H789V457ZM797 457H801V455H797V457ZM805 457H809V455H805V457ZM813 457H817V455H813V457ZM821 457H825V455H821V457ZM829 457H833V455H829V457ZM837 457H841V455H837V457ZM845 457H849V455H845V457ZM853 457H857V455H853V457ZM861 457H865V455H861V457ZM869 457H873V455H869V457ZM877 457H881V455H877V457ZM885 457H889V455H885V457ZM893 457H897V455H893V457ZM901 457H905V455H901V457ZM909 457H913V455H909V457ZM917 457H921V455H917V457ZM925 457H929V455H925V457ZM933 457H937V455H933V457ZM941 457H945V455H941V457ZM949 457H953V455H949V457ZM957 457H961V455H957V457ZM965 457H969V455H965V457ZM973 457H977V455H973V457ZM981 457H985V455H981V457ZM989 457H993V455H989V457ZM997 457H1001V455H997V457ZM1005 457H1009V455H1005V457ZM1013 457H1017V455H1013V457ZM1021 457H1025V455H1021V457ZM1029 457H1031V455H1029V457ZM1032 456V454.25H1030V456H1032ZM1032 450.75V447.25H1030V450.75H1032ZM1032 443.75V440.25H1030V443.75H1032ZM1032 436.75V435H1030V436.75H1032Z" fill="#312D2A"/>
<g id="Group 1">
<g id="Connector Line Label">
<rect width="115" height="14" transform="translate(763 462)" fill="#F5F4F2"/>
<text id="Line Label" fill="#312D2A" xml:space="preserve" style="white-space: pre" font-family="Oracle Sans" font-size="14" letter-spacing="0em"><tspan x="767.002" y="474.089">database backup</tspan></text>
</g>
<g id="Connector Line Label_2">
<rect width="95" height="14" transform="translate(773 448)" fill="#F5F4F2"/>
<text id="Line Label_2" fill="#312D2A" xml:space="preserve" style="white-space: pre" font-family="Oracle Sans" font-size="14" letter-spacing="0em"><tspan x="777.468" y="460.089">OCI Managed</tspan></text>
</g>
</g>
<g id="Gateway">
<rect id="Rectangle 699" x="925" y="439" width="2" height="76" fill="#F5F4F2"/>
<g id="Icon Master_8">
<g id="Srv-OCI Service Gateway">
<g id="Group 37">
<path id="Vector_88" d="M928.146 478.706C925.435 478.712 922.76 478.086 920.333 476.879C917.906 475.672 915.795 473.916 914.167 471.752C913.218 471.102 912.334 470.362 911.527 469.544V469.544C911.131 469.18 910.768 468.782 910.441 468.355C910.288 468.165 909.631 467.289 909.488 467.013C909.345 466.738 909.307 466.728 909.221 466.576L908.964 466.157C908.849 465.957 908.725 465.767 908.621 465.567C908.516 465.368 908.459 465.253 908.382 465.092L908.163 464.625C908.068 464.435 907.973 464.245 907.887 464.045C907.801 463.845 907.744 463.684 907.677 463.493L907.468 463.008C907.391 462.827 907.325 462.637 907.258 462.437C907.191 462.237 907.144 462 907.086 461.781L906.953 461.267C906.953 461.105 906.867 460.934 906.829 460.763C906.791 460.591 906.724 460.154 906.686 459.811L906.629 459.383C906.629 459.25 906.581 459.126 906.562 458.993C906.505 458.441 906.477 457.842 906.477 457.242C906.482 452.591 908.335 448.131 911.629 444.842C914.923 441.553 919.39 439.703 924.048 439.698C924.611 439.698 925.201 439.698 925.792 439.784L926.145 439.831H926.354C926.726 439.831 927.107 439.927 927.479 440.003L927.917 440.174L928.108 440.222C928.46 440.307 928.775 440.383 929.061 440.478L929.556 440.64L929.747 440.707L930.624 441.03C930.824 441.106 931.014 441.201 931.205 441.287H931.31L932.12 441.677L932.768 442.039C933.034 442.191 933.292 442.343 933.54 442.505L934.168 442.933L934.864 443.456C935.171 443.682 935.461 443.93 935.731 444.198C936.559 444.938 937.315 445.753 937.99 446.634C941.103 448.739 943.459 451.785 944.71 455.325C945.961 458.866 946.041 462.713 944.94 466.303C943.838 469.892 941.612 473.034 938.589 475.267C935.567 477.499 931.906 478.705 928.146 478.706V478.706Z" fill="white"/>
<path id="Vector_89" d="M924.048 440.173C924.615 440.173 925.181 440.201 925.745 440.259L926.288 440.335C926.659 440.382 927.021 440.43 927.384 440.506C927.603 440.506 927.812 440.611 928.032 440.658L928.984 440.896L929.632 441.125C929.928 441.229 930.214 441.324 930.5 441.438L931.157 441.733L931.948 442.114C932.167 442.228 932.377 442.352 932.587 442.476C932.796 442.599 933.092 442.77 933.33 442.923C933.568 443.075 933.74 443.199 933.94 443.341C934.14 443.484 934.397 443.674 934.626 443.855L935.445 444.55C936.276 445.293 937.032 446.115 937.704 447.004C939.765 448.389 941.498 450.206 942.784 452.329C944.07 454.451 944.876 456.828 945.147 459.294C945.418 461.76 945.148 464.255 944.354 466.605C943.561 468.956 942.263 471.105 940.553 472.904C938.842 474.702 936.759 476.107 934.449 477.019C932.138 477.932 929.657 478.33 927.177 478.187C924.696 478.043 922.277 477.362 920.088 476.19C917.899 475.017 915.992 473.382 914.5 471.399C913.552 470.759 912.671 470.026 911.87 469.21V469.21C911.87 469.21 911.012 468.259 910.822 468.05C910.631 467.84 910.021 466.994 909.869 466.737C909.716 466.48 909.612 466.318 909.488 466.109C909.364 465.899 909.164 465.595 909.021 465.338C908.878 465.081 908.792 464.872 908.687 464.644C908.582 464.415 908.42 464.12 908.306 463.844C908.192 463.569 908.116 463.331 908.02 463.074C907.925 462.817 907.82 462.56 907.734 462.294C907.649 462.027 907.582 461.694 907.506 461.399C907.429 461.104 907.372 460.914 907.315 460.667C907.258 460.419 907.201 459.944 907.153 459.582C907.153 459.382 907.077 459.182 907.058 458.983C906.988 458.412 906.953 457.831 906.953 457.242C906.968 452.719 908.774 448.387 911.977 445.189C915.179 441.991 919.519 440.188 924.048 440.173V440.173ZM924.048 439.222C919.266 439.237 914.684 441.14 911.303 444.516C907.921 447.892 906.015 452.467 906 457.242C905.999 457.855 906.03 458.468 906.095 459.078C906.095 459.221 906.095 459.363 906.153 459.496C906.21 459.63 906.153 459.639 906.153 459.715V459.915C906.153 460.22 906.229 460.533 906.295 460.866C906.362 461.199 906.381 461.219 906.429 461.399C906.477 461.58 906.429 461.561 906.496 461.637L906.553 461.884C906.61 462.122 906.667 462.351 906.743 462.579C906.82 462.807 906.877 462.979 906.953 463.178L907.039 463.407L907.124 463.645C907.188 463.842 907.261 464.035 907.344 464.225C907.429 464.434 907.534 464.644 907.63 464.843L907.744 465.062L907.849 465.291C907.922 465.463 908.004 465.632 908.096 465.795C908.211 466.004 908.335 466.204 908.459 466.413L908.582 466.613L908.706 466.813C908.802 466.975 908.887 467.127 908.992 467.279C909.097 467.431 909.85 468.459 910.021 468.659C910.365 469.107 910.744 469.527 911.155 469.914C911.953 470.726 912.827 471.459 913.766 472.103C915.363 474.136 917.38 475.803 919.679 476.989C921.979 478.176 924.507 478.854 927.092 478.979C929.677 479.103 932.259 478.671 934.662 477.711C937.065 476.751 939.233 475.286 941.019 473.415C942.804 471.545 944.166 469.313 945.011 466.87C945.856 464.428 946.165 461.832 945.917 459.26C945.668 456.688 944.868 454.199 943.571 451.963C942.274 449.727 940.51 447.796 938.399 446.3C937.716 445.41 936.95 444.585 936.112 443.836V443.836C935.842 443.574 935.556 443.33 935.255 443.103L934.53 442.561L933.882 442.124C933.635 441.962 933.368 441.81 933.111 441.657C932.853 441.505 932.663 441.391 932.434 441.277L931.595 440.868L931.481 440.82L930.9 440.563C930.604 440.439 930.3 440.335 930.004 440.23L929.766 440.173L929.251 439.992C928.937 439.897 928.622 439.821 928.298 439.745H928.232L928.041 439.678L927.574 439.574C927.183 439.498 926.793 439.441 926.412 439.393H926.231L925.83 439.307C925.23 439.222 924.63 439.222 924.048 439.222Z" fill="white"/>
<path id="Vector_90" d="M910.365 464.854C909.059 462.53 908.376 459.908 908.383 457.243C908.385 454.576 909.069 451.953 910.371 449.624C911.674 447.296 913.55 445.338 915.823 443.937C918.096 442.535 920.69 441.737 923.359 441.618C926.028 441.5 928.683 442.063 931.072 443.257C932.613 443.497 934.115 443.939 935.541 444.57C932.267 441.437 927.88 439.731 923.347 439.828C918.813 439.924 914.503 441.815 911.365 445.084C908.228 448.352 906.519 452.732 906.616 457.259C906.712 461.785 908.606 466.088 911.88 469.221C911.185 467.838 910.675 466.37 910.365 464.854V464.854Z" fill="#2D5967"/>
<path id="Vector_91" d="M928.146 444.083C924.767 444.093 921.467 445.101 918.661 446.981C915.856 448.862 913.671 451.529 912.382 454.648C911.093 457.767 910.758 461.196 911.42 464.505C912.082 467.813 913.71 470.852 916.099 473.237C918.488 475.623 921.532 477.248 924.845 477.909C928.159 478.569 931.594 478.235 934.718 476.949C937.841 475.662 940.513 473.48 942.396 470.679C944.279 467.878 945.289 464.583 945.299 461.209C945.299 456.667 943.492 452.311 940.275 449.099C937.058 445.888 932.695 444.083 928.146 444.083V444.083ZM928.146 476.803C925.045 476.803 922.014 475.885 919.436 474.165C916.858 472.444 914.849 469.999 913.663 467.139C912.477 464.279 912.167 461.131 912.773 458.095C913.378 455.059 914.872 452.27 917.065 450.082C919.259 447.893 922.053 446.403 925.094 445.801C928.135 445.198 931.287 445.509 934.152 446.695C937.016 447.881 939.463 449.889 941.185 452.464C942.906 455.039 943.824 458.066 943.822 461.161C943.817 465.31 942.163 469.287 939.224 472.219C936.285 475.152 932.301 476.8 928.146 476.803V476.803Z" fill="#2D5967"/>
<path id="Vector_92" d="M932.033 470.02L931.033 469.011L928.86 471.18V451.315L931.033 453.484L932.033 452.476L928.145 448.594L924.257 452.476L925.267 453.484L927.44 451.315V471.18L925.267 469.011L924.257 470.02L928.145 473.902L932.033 470.02Z" fill="#2D5967"/>
<path id="Vector_93" d="M923.485 465.042L927.373 461.161L923.485 457.279L922.475 458.278L924.648 460.447H915.5V461.865H924.648L922.475 464.034L923.485 465.042Z" fill="#2D5967"/>
<path id="Vector_94" d="M940.791 460.447H931.653L933.816 458.278L932.815 457.279L928.918 461.161L932.815 465.042L933.816 464.034L931.653 461.865H940.791V460.447Z" fill="#2D5967"/>
</g>
</g>
<g id="Icon Text Label_7">
<text id="IconLabel_11" fill="black" xml:space="preserve" style="white-space: pre" font-family="Oracle Sans" font-size="16" letter-spacing="0em"><tspan x="899.789" y="496.816">Service</tspan></text>
<text id="IconLabel_12" fill="black" xml:space="preserve" style="white-space: pre" font-family="Oracle Sans" font-size="16" letter-spacing="0em"><tspan x="895.117" y="512.816">Gateway</tspan></text>
</g>
</g>
</g>
</g>
</g>
<defs>
<linearGradient id="paint0_linear_19015_326" x1="385.488" y1="95.1294" x2="389.128" y2="98.7593" gradientUnits="userSpaceOnUse">
<stop stop-color="#86D633"/>
<stop offset="1" stop-color="#5E9624"/>
</linearGradient>
<linearGradient id="paint1_linear_19015_326" x1="375.479" y1="93.342" x2="379.093" y2="96.9779" gradientUnits="userSpaceOnUse">
<stop stop-color="#86D633"/>
<stop offset="1" stop-color="#5E9624"/>
</linearGradient>
<linearGradient id="paint2_linear_19015_326" x1="367.282" y1="93.3348" x2="370.896" y2="96.971" gradientUnits="userSpaceOnUse">
<stop stop-color="#86D633"/>
<stop offset="1" stop-color="#5E9624"/>
</linearGradient>
<linearGradient id="paint3_linear_19015_326" x1="668.682" y1="94.149" x2="695.812" y2="94.149" gradientUnits="userSpaceOnUse">
<stop stop-color="#C74634"/>
<stop offset="0.5" stop-color="#DB897D"/>
<stop offset="1" stop-color="#C74634"/>
</linearGradient>
<linearGradient id="paint4_linear_19015_326" x1="668.392" y1="86.892" x2="668.392" y2="69.0001" gradientUnits="userSpaceOnUse">
<stop stop-color="#32BEDD"/>
<stop offset="1" stop-color="#50E6FF"/>
</linearGradient>
<linearGradient id="paint5_linear_19015_326" x1="104.934" y1="381.585" x2="104.934" y2="341.537" gradientUnits="userSpaceOnUse">
<stop stop-color="#0078D4"/>
<stop offset="0.82" stop-color="#5EA0EF"/>
</linearGradient>
<linearGradient id="paint6_linear_19015_326" x1="104.934" y1="397.037" x2="104.934" y2="381.585" gradientUnits="userSpaceOnUse">
<stop offset="0.15" stop-color="#CCCCCC"/>
<stop offset="1" stop-color="#707070"/>
</linearGradient>
<linearGradient id="paint7_linear_19015_326" x1="297.036" y1="397" x2="297.036" y2="344" gradientUnits="userSpaceOnUse">
<stop stop-color="#5E9641"/>
<stop offset="0.34" stop-color="#6BAA42"/>
<stop offset="0.67" stop-color="#73B743"/>
<stop offset="1" stop-color="#76BB43"/>
</linearGradient>
<linearGradient id="paint8_linear_19015_326" x1="594.022" y1="166.723" x2="634.717" y2="166.723" gradientUnits="userSpaceOnUse">
<stop stop-color="#C74634"/>
<stop offset="0.5" stop-color="#DB897D"/>
<stop offset="1" stop-color="#C74634"/>
</linearGradient>
<linearGradient id="paint9_linear_19015_326" x1="593.587" y1="155.838" x2="593.587" y2="129" gradientUnits="userSpaceOnUse">
<stop stop-color="#32BEDD"/>
<stop offset="1" stop-color="#50E6FF"/>
</linearGradient>
<clipPath id="clip0_19015_326">
<rect width="1099" height="567" fill="white"/>
</clipPath>
</defs>
</svg>
