<svg width="718" height="601" viewBox="0 0 718 601" fill="none" xmlns="http://www.w3.org/2000/svg">
<g id="oci-object-storage-modernization-arch-before" clip-path="url(#clip0_12409_4182)">
<rect width="718" height="601" fill="white"/>
<g id="Group 1239">
<g id="OCI Region">
<rect x="0.5" y="0.5" width="717" height="600" rx="3.5" fill="#F5F4F2"/>
<rect x="0.5" y="0.5" width="717" height="600" rx="3.5" stroke="#9E9892"/>
<text id="OCI Region_2" fill="#312D2A" xml:space="preserve" style="white-space: pre" font-family="Oracle Sans" font-size="16" font-weight="bold" letter-spacing="0em"><tspan x="8" y="21.816">OCI Region</tspan></text>
</g>
<g id="OCI Region_3">
<rect x="218.5" y="44.5" width="490" height="547" stroke="#AA643B" stroke-dasharray="6 4"/>
<text id="Compartment" fill="#AE562C" xml:space="preserve" style="white-space: pre" font-family="Oracle Sans" font-size="16" font-weight="600" letter-spacing="0em"><tspan x="226" y="65.816">Application Compartment</tspan></text>
<rect id="Rectangle 692" x="657.993" y="44" width="44" height="2" fill="white"/>
<g id="Icon Master">
<g id="Compartments">
<g id="Group 11">
<path id="Vector" d="M660.375 63.6224V34.5938C660.375 33.3748 661.365 32.3843 662.584 32.3843H672.565C673.251 32.3843 673.937 32.689 674.318 33.2986L676.375 36.0414H697.48C698.699 36.0414 699.689 37.0319 699.689 38.2509V63.6986H660.375V63.6224Z" fill="white"/>
<path id="Vector_2" d="M672.564 32.7653C673.098 32.7653 673.707 33.0701 674.012 33.5272L676.145 36.4225H697.402C698.393 36.4225 699.231 37.2606 699.231 38.251V63.2415H660.755V34.5939C660.755 33.6034 661.593 32.7653 662.583 32.7653H672.564ZM672.564 32.0034H662.583C661.136 32.0034 659.993 33.1463 659.993 34.5939V63.2415V64.0034H660.755H699.231H699.993V63.2415V38.1748C699.993 36.7272 698.85 35.5844 697.402 35.5844H676.526L674.621 32.9939C674.088 32.3844 673.326 32.0034 672.564 32.0034Z" fill="white"/>
<path id="Vector_3" d="M697.402 36.4223H676.145L674.012 33.527C673.707 33.0699 673.174 32.7651 672.564 32.7651H662.583C661.593 32.7651 660.755 33.6032 660.755 34.5937V63.2413H699.231V38.1747C699.231 37.1842 698.393 36.4223 697.402 36.4223ZM697.555 61.6413H662.355V34.5937C662.355 34.5175 662.431 34.3651 662.583 34.3651H672.564C672.64 34.3651 672.717 34.3651 672.717 34.4413L675.383 38.0223H697.478C697.555 38.0223 697.707 38.0985 697.707 38.2509L697.555 61.6413Z" fill="#2D5967"/>
<path id="Vector_4" d="M666.927 42.3648H668.527V40.0029H670.965V38.4029H668.527V35.9648H666.927V38.4029H664.565V40.0029H666.927V42.3648Z" fill="#2D5967"/>
<path id="Vector_5" d="M691.153 48.9938L689.782 46.4795L688.411 48.9938L686.277 52.8033L684.982 55.1652H687.725H691.992H694.734L693.363 52.8033L691.153 48.9938ZM687.649 53.6414L689.782 49.8319L691.915 53.6414H687.649Z" fill="#2D5967"/>
<path id="Vector_6" d="M682.545 47.3937C681.859 47.0128 681.097 46.7842 680.335 46.7842C680.031 46.7842 679.65 46.7842 679.345 46.8604C677.059 47.3937 675.688 49.6794 676.221 51.8889C676.678 53.7937 678.354 55.0889 680.335 55.0889C680.64 55.0889 681.021 55.0889 681.326 55.0128C682.393 54.7842 683.307 54.0985 683.916 53.108C684.526 52.1937 684.678 51.0508 684.45 49.908C684.145 48.9175 683.459 48.0032 682.545 47.3937ZM682.545 52.3461C682.164 52.9556 681.631 53.3366 680.945 53.4889C680.716 53.5651 680.564 53.5651 680.335 53.5651C679.193 53.5651 678.05 52.727 677.821 51.5842C677.516 50.2128 678.354 48.7651 679.726 48.4604C679.954 48.3842 680.107 48.3842 680.335 48.3842C680.793 48.3842 681.25 48.5366 681.707 48.7651C682.316 49.1461 682.697 49.6794 682.85 50.3651C683.002 51.0508 682.85 51.7366 682.545 52.3461Z" fill="#2D5967"/>
<path id="Vector_7" d="M672.792 47.7751L672.335 47.0132H671.42H668.525H667.611L667.154 47.7751L665.706 50.2894L665.249 51.1275L665.706 51.9656L667.154 54.4798L667.611 55.2418H668.525H671.42H672.335L672.792 54.4798L674.239 51.9656L674.697 51.1275L674.316 50.2894L672.792 47.7751ZM671.42 53.6418H668.525L667.078 51.1275L668.525 48.6132H671.42L672.868 51.1275L671.42 53.6418Z" fill="#2D5967"/>
</g>
</g>
</g>
</g>
<g id="OCI Region_4">
<rect x="9.5" y="44.5" width="192" height="547" stroke="#AA643B" stroke-dasharray="6 4"/>
<text id="Compartment_2" fill="#AE562C" xml:space="preserve" style="white-space: pre" font-family="Oracle Sans" font-size="16" font-weight="600" letter-spacing="0em"><tspan x="17" y="65.816">Network</tspan></text>
<text id="Compartment_3" fill="#AE562C" xml:space="preserve" style="white-space: pre" font-family="Oracle Sans" font-size="16" font-weight="600" letter-spacing="0em"><tspan x="17" y="81.816">Compartment</tspan></text>
<rect id="Rectangle 692_2" x="150.993" y="44" width="44" height="2" fill="white"/>
<g id="Icon Master_2">
<g id="Compartments_2">
<g id="Group 11_2">
<path id="Vector_8" d="M153.375 63.6224V34.5938C153.375 33.3748 154.365 32.3843 155.584 32.3843H165.565C166.251 32.3843 166.937 32.689 167.318 33.2986L169.375 36.0414H190.48C191.699 36.0414 192.689 37.0319 192.689 38.2509V63.6986H153.375V63.6224Z" fill="white"/>
<path id="Vector_9" d="M165.564 32.7653C166.098 32.7653 166.707 33.0701 167.012 33.5272L169.145 36.4225H190.402C191.393 36.4225 192.231 37.2606 192.231 38.251V63.2415H153.755V34.5939C153.755 33.6034 154.593 32.7653 155.583 32.7653H165.564ZM165.564 32.0034H155.583C154.136 32.0034 152.993 33.1463 152.993 34.5939V63.2415V64.0034H153.755H192.231H192.993V63.2415V38.1748C192.993 36.7272 191.85 35.5844 190.402 35.5844H169.526L167.621 32.9939C167.088 32.3844 166.326 32.0034 165.564 32.0034Z" fill="white"/>
<path id="Vector_10" d="M190.402 36.4223H169.145L167.012 33.527C166.707 33.0699 166.174 32.7651 165.564 32.7651H155.583C154.593 32.7651 153.755 33.6032 153.755 34.5937V63.2413H192.231V38.1747C192.231 37.1842 191.393 36.4223 190.402 36.4223ZM190.555 61.6413H155.355V34.5937C155.355 34.5175 155.431 34.3651 155.583 34.3651H165.564C165.64 34.3651 165.717 34.3651 165.717 34.4413L168.383 38.0223H190.478C190.555 38.0223 190.707 38.0985 190.707 38.2509L190.555 61.6413Z" fill="#2D5967"/>
<path id="Vector_11" d="M159.927 42.3648H161.527V40.0029H163.965V38.4029H161.527V35.9648H159.927V38.4029H157.565V40.0029H159.927V42.3648Z" fill="#2D5967"/>
<path id="Vector_12" d="M184.153 48.9938L182.782 46.4795L181.411 48.9938L179.277 52.8033L177.982 55.1652H180.725H184.992H187.734L186.363 52.8033L184.153 48.9938ZM180.649 53.6414L182.782 49.8319L184.915 53.6414H180.649Z" fill="#2D5967"/>
<path id="Vector_13" d="M175.545 47.3937C174.859 47.0128 174.097 46.7842 173.335 46.7842C173.031 46.7842 172.65 46.7842 172.345 46.8604C170.059 47.3937 168.688 49.6794 169.221 51.8889C169.678 53.7937 171.354 55.0889 173.335 55.0889C173.64 55.0889 174.021 55.0889 174.326 55.0128C175.393 54.7842 176.307 54.0985 176.916 53.108C177.526 52.1937 177.678 51.0508 177.45 49.908C177.145 48.9175 176.459 48.0032 175.545 47.3937ZM175.545 52.3461C175.164 52.9556 174.631 53.3366 173.945 53.4889C173.716 53.5651 173.564 53.5651 173.335 53.5651C172.193 53.5651 171.05 52.727 170.821 51.5842C170.516 50.2128 171.354 48.7651 172.726 48.4604C172.954 48.3842 173.107 48.3842 173.335 48.3842C173.793 48.3842 174.25 48.5366 174.707 48.7651C175.316 49.1461 175.697 49.6794 175.85 50.3651C176.002 51.0508 175.85 51.7366 175.545 52.3461Z" fill="#2D5967"/>
<path id="Vector_14" d="M165.792 47.7751L165.335 47.0132H164.42H161.525H160.611L160.154 47.7751L158.706 50.2894L158.249 51.1275L158.706 51.9656L160.154 54.4798L160.611 55.2418H161.525H164.42H165.335L165.792 54.4798L167.239 51.9656L167.697 51.1275L167.316 50.2894L165.792 47.7751ZM164.42 53.6418H161.525L160.078 51.1275L161.525 48.6132H164.42L165.868 51.1275L164.42 53.6418Z" fill="#2D5967"/>
</g>
</g>
</g>
</g>
<g id="OCI Region_5">
<rect id="Rectangle 28" x="19" y="92.9331" width="680" height="489" stroke="#AA643B" stroke-width="2" stroke-dasharray="8 4"/>
<g id="Icon Master_3">
<g id="Virtual-Cloud-Network-VCN_red">
<g id="Group 39">
<path id="Vector_15" d="M678.416 115.51C677.16 115.51 675.944 115.077 674.969 114.285C673.995 113.493 673.323 112.39 673.066 111.16H666.595C666.408 112.054 666 112.887 665.408 113.583C664.816 114.279 664.06 114.816 663.208 115.144C662.356 115.472 661.435 115.582 660.53 115.463C659.625 115.343 658.764 114.999 658.026 114.462C657.287 113.924 656.695 113.21 656.304 112.385C655.912 111.56 655.733 110.65 655.783 109.738C655.833 108.825 656.111 107.94 656.59 107.163C657.07 106.386 657.737 105.741 658.529 105.288L656.533 99.1411C656.336 99.1547 656.138 99.1547 655.941 99.1411C655.053 99.1431 654.179 98.9289 653.392 98.5169C652.606 98.105 651.932 97.5077 651.428 96.7766C650.923 96.0456 650.605 95.2028 650.499 94.3209C650.394 93.4391 650.504 92.5448 650.821 91.7152C651.138 90.8857 651.652 90.1458 652.319 89.5595C652.986 88.9733 653.785 88.5582 654.648 88.3502C655.511 88.1422 656.411 88.1475 657.272 88.3657C658.132 88.5838 658.927 89.0083 659.586 89.6024L664.845 85.8726C664.527 85.1674 664.363 84.4028 664.362 83.6293C664.362 82.1781 664.938 80.7864 665.964 79.7603C666.989 78.7342 668.38 78.1577 669.83 78.1577C671.281 78.1577 672.672 78.7342 673.697 79.7603C674.723 80.7864 675.299 82.1781 675.299 83.6293C675.301 84.4021 675.139 85.1667 674.825 85.8726L680.093 89.6389C681.088 88.7257 682.388 88.2182 683.738 88.2163C685.188 88.2163 686.579 88.7927 687.605 89.8188C688.63 90.845 689.206 92.2367 689.206 93.6878C689.206 95.139 688.63 96.5307 687.605 97.5568C686.579 98.5829 685.188 99.1594 683.738 99.1594C683.547 99.1594 683.346 99.1594 683.155 99.1594L681.15 105.306C682.199 105.905 683.02 106.835 683.485 107.951C683.95 109.066 684.032 110.304 683.72 111.471C683.408 112.639 682.718 113.67 681.759 114.404C680.799 115.138 679.624 115.533 678.416 115.528V115.51Z" fill="white"/>
<path id="Vector_16" d="M669.84 78.577C670.707 78.579 671.56 78.8059 672.314 79.2356C673.068 79.6653 673.697 80.2832 674.142 81.029C674.586 81.7748 674.829 82.623 674.849 83.491C674.868 84.359 674.662 85.2172 674.251 85.9818L680.093 90.2314C680.665 89.6323 681.377 89.1844 682.164 88.9277C682.951 88.6711 683.79 88.6137 684.605 88.7607C685.42 88.9076 686.186 89.2544 686.835 89.7699C687.483 90.2855 687.994 90.9538 688.321 91.715C688.648 92.4763 688.782 93.3068 688.71 94.1324C688.638 94.958 688.363 95.7529 687.909 96.446C687.455 97.1391 686.836 97.7089 686.109 98.1043C685.381 98.4998 684.566 98.7087 683.738 98.7123C683.433 98.7165 683.128 98.6921 682.827 98.6393L680.594 105.524C681.375 105.901 682.045 106.475 682.538 107.188C683.032 107.902 683.332 108.731 683.409 109.595C683.486 110.459 683.338 111.329 682.979 112.119C682.62 112.908 682.062 113.591 681.36 114.101C680.659 114.611 679.837 114.929 678.975 115.026C678.113 115.123 677.241 114.994 676.444 114.653C675.647 114.312 674.952 113.769 674.427 113.079C673.902 112.388 673.565 111.573 673.449 110.713H666.212C666.095 111.573 665.757 112.388 665.231 113.078C664.706 113.768 664.01 114.31 663.212 114.65C662.414 114.991 661.542 115.118 660.68 115.02C659.818 114.922 658.996 114.603 658.295 114.092C657.594 113.581 657.037 112.897 656.679 112.106C656.322 111.316 656.175 110.446 656.253 109.582C656.332 108.718 656.634 107.889 657.128 107.176C657.623 106.463 658.294 105.891 659.076 105.515L656.843 98.6393C656.543 98.6952 656.237 98.7226 655.932 98.7214C655.101 98.7199 654.284 98.5123 653.553 98.1171C652.822 97.7219 652.201 97.1515 651.745 96.457C651.289 95.7626 651.011 94.9657 650.939 94.1378C650.866 93.3099 650.999 92.4768 651.327 91.7132C651.655 90.9496 652.167 90.2793 652.817 89.7623C653.468 89.2453 654.236 88.8979 655.054 88.751C655.871 88.6042 656.712 88.6626 657.502 88.9209C658.291 89.1793 659.005 89.6295 659.577 90.2314L665.419 85.9818C665.008 85.2165 664.802 84.3575 664.821 83.4887C664.841 82.62 665.085 81.7711 665.531 81.0251C665.976 80.279 666.607 79.6613 667.362 79.2322C668.118 78.8032 668.971 78.5774 669.84 78.577V78.577ZM669.84 77.665C668.268 77.665 666.76 78.2893 665.647 79.4006C664.535 80.512 663.909 82.0196 663.906 83.5926C663.906 84.3062 664.035 85.014 664.289 85.6809L659.632 89.055C658.891 88.4637 658.019 88.0587 657.089 87.8739C656.16 87.6891 655.199 87.7298 654.288 87.9927C653.378 88.2556 652.543 88.733 651.855 89.385C651.166 90.0369 650.644 90.8444 650.332 91.7398C650.019 92.6353 649.926 93.5926 650.059 94.5316C650.192 95.4706 650.548 96.364 651.098 97.1369C651.647 97.9099 652.373 98.5399 653.216 98.9742C654.059 99.4086 654.993 99.6346 655.941 99.6333H656.205L658.028 105.105C657.23 105.633 656.572 106.347 656.11 107.185C655.648 108.023 655.396 108.961 655.375 109.918C655.354 110.875 655.564 111.823 655.989 112.68C656.414 113.538 657.04 114.28 657.814 114.843C658.588 115.406 659.486 115.772 660.433 115.912C661.379 116.052 662.345 115.96 663.249 115.645C664.152 115.329 664.965 114.8 665.62 114.102C666.274 113.403 666.749 112.557 667.005 111.634H672.747C673.001 112.56 673.476 113.41 674.13 114.112C674.784 114.814 675.599 115.346 676.504 115.664C677.41 115.981 678.378 116.075 679.328 115.936C680.277 115.797 681.178 115.429 681.954 114.865C682.73 114.301 683.358 113.558 683.784 112.697C684.21 111.837 684.421 110.887 684.4 109.927C684.378 108.968 684.124 108.028 683.66 107.188C683.195 106.348 682.534 105.633 681.733 105.105L683.556 99.6333H683.738C684.544 99.6781 685.35 99.5579 686.108 99.2802C686.865 99.0026 687.558 98.5732 688.144 98.0184C688.73 97.4636 689.197 96.795 689.516 96.0535C689.835 95.312 690 94.5131 690 93.7058C690 92.8985 689.835 92.0997 689.516 91.3582C689.197 90.6167 688.73 89.9481 688.144 89.3933C687.558 88.8384 686.865 88.4091 686.108 88.1314C685.35 87.8537 684.544 87.7336 683.738 87.7783C682.396 87.775 681.093 88.232 680.047 89.0732L675.399 85.6991C675.646 85.0305 675.772 84.3235 675.773 83.6108C675.774 82.8304 675.621 82.0575 675.324 81.3361C675.026 80.6148 674.589 79.9593 674.038 79.4071C673.487 78.8548 672.833 78.4167 672.112 78.1178C671.392 77.8189 670.619 77.665 669.84 77.665V77.665Z" fill="white"/>
<path id="Vector_17" d="M683.739 88.6709C683.057 88.6691 682.382 88.8065 681.755 89.0746C681.128 89.3428 680.563 89.736 680.093 90.2303L674.251 85.9807C674.665 85.2153 674.874 84.3554 674.856 83.4851C674.838 82.6149 674.595 81.7642 674.15 81.0164C673.705 80.2685 673.073 79.6493 672.317 79.2192C671.56 78.7891 670.705 78.563 669.835 78.563C668.966 78.563 668.111 78.7891 667.354 79.2192C666.598 79.6493 665.966 80.2685 665.521 81.0164C665.076 81.7642 664.832 82.6149 664.815 83.4851C664.797 84.3554 665.005 85.2153 665.42 85.9807L659.569 90.2303C658.996 89.6333 658.284 89.1875 657.497 88.9327C656.709 88.6779 655.871 88.622 655.058 88.77C654.244 88.918 653.479 89.2653 652.832 89.7809C652.184 90.2965 651.675 90.9643 651.348 91.7249C651.022 92.4855 650.888 93.3151 650.96 94.1398C651.032 94.9644 651.306 95.7585 651.759 96.4512C652.212 97.1439 652.83 97.7136 653.556 98.1095C654.283 98.5054 655.096 98.7153 655.923 98.7203C656.229 98.7216 656.534 98.6941 656.835 98.6382L659.067 105.505C658.286 105.881 657.614 106.453 657.12 107.166C656.625 107.878 656.323 108.707 656.245 109.572C656.166 110.436 656.313 111.306 656.671 112.096C657.029 112.887 657.585 113.571 658.287 114.082C658.988 114.592 659.809 114.912 660.671 115.01C661.533 115.108 662.405 114.981 663.203 114.64C664.001 114.3 664.697 113.758 665.223 113.068C665.749 112.378 666.087 111.563 666.204 110.703H673.44C673.556 111.563 673.893 112.378 674.418 113.068C674.943 113.759 675.638 114.301 676.435 114.643C677.233 114.984 678.105 115.113 678.966 115.016C679.828 114.919 680.65 114.601 681.352 114.091C682.054 113.581 682.611 112.898 682.97 112.108C683.329 111.319 683.477 110.449 683.4 109.585C683.323 108.721 683.023 107.891 682.53 107.178C682.036 106.464 681.366 105.891 680.585 105.514L682.827 98.6382C683.128 98.6941 683.433 98.7216 683.739 98.7203C684.422 98.7616 685.107 98.6625 685.751 98.4291C686.395 98.1957 686.985 97.8329 687.483 97.3632C687.982 96.8934 688.379 96.3265 688.651 95.6973C688.923 95.0682 689.063 94.3901 689.063 93.7047C689.063 93.0194 688.923 92.3413 688.651 91.7121C688.379 91.083 687.982 90.5161 687.483 90.0463C686.985 89.5765 686.395 89.2138 685.751 88.9804C685.107 88.747 684.422 88.6479 683.739 88.6891V88.6709ZM678.416 113.712C677.695 113.712 676.99 113.498 676.391 113.098C675.791 112.697 675.324 112.127 675.048 111.461C674.772 110.794 674.7 110.061 674.841 109.353C674.981 108.645 675.328 107.996 675.838 107.485C676.348 106.975 676.998 106.628 677.705 106.487C678.412 106.346 679.145 106.419 679.811 106.695C680.477 106.971 681.047 107.438 681.447 108.038C681.848 108.638 682.062 109.343 682.062 110.065C682.062 111.032 681.678 111.96 680.994 112.644C680.31 113.328 679.383 113.712 678.416 113.712V113.712ZM666.213 109.362C666.063 108.23 665.529 107.184 664.7 106.399L667.434 102.578C668.167 102.967 668.983 103.17 669.813 103.171C670.639 103.173 671.454 102.97 672.182 102.578L674.916 106.399C674.085 107.183 673.547 108.229 673.394 109.362H666.213ZM657.564 110.037C657.564 109.316 657.777 108.611 658.178 108.011C658.579 107.411 659.148 106.943 659.814 106.667C660.48 106.391 661.213 106.319 661.92 106.46C662.628 106.6 663.277 106.948 663.787 107.458C664.297 107.968 664.644 108.618 664.785 109.326C664.925 110.033 664.853 110.767 664.577 111.433C664.301 112.1 663.834 112.669 663.235 113.07C662.635 113.471 661.93 113.685 661.209 113.685C660.242 113.685 659.315 113.301 658.631 112.617C657.948 111.933 657.564 111.005 657.564 110.037V110.037ZM655.941 90.0205C656.662 90.0205 657.367 90.2345 657.967 90.6353C658.566 91.0361 659.033 91.6058 659.309 92.2723C659.585 92.9389 659.658 93.6723 659.517 94.3799C659.376 95.0875 659.029 95.7374 658.519 96.2476C658.009 96.7577 657.36 97.1051 656.653 97.2459C655.945 97.3866 655.212 97.3144 654.546 97.0383C653.88 96.7622 653.311 96.2947 652.91 95.6948C652.51 95.0949 652.296 94.3897 652.296 93.6683C652.296 92.7008 652.68 91.773 653.364 91.0889C654.047 90.4049 654.974 90.0205 655.941 90.0205V90.0205ZM666.158 83.6371C666.158 82.9156 666.372 82.2104 666.772 81.6105C667.173 81.0106 667.742 80.5431 668.408 80.267C669.075 79.9909 669.808 79.9187 670.515 80.0595C671.222 80.2002 671.871 80.5476 672.381 81.0577C672.891 81.5679 673.238 82.2178 673.379 82.9254C673.52 83.633 673.447 84.3665 673.172 85.033C672.896 85.6995 672.428 86.2692 671.829 86.67C671.229 87.0708 670.525 87.2848 669.804 87.2848C669.321 87.2848 668.843 87.189 668.398 87.0028C667.953 86.8167 667.549 86.5439 667.209 86.2003C666.87 85.8567 666.603 85.4492 666.422 85.0014C666.242 84.5536 666.152 84.0743 666.158 83.5915V83.6371ZM678.79 94.5802L674.37 95.9937C674.009 95.2393 673.468 94.5862 672.794 94.0928C672.119 93.5994 671.333 93.2812 670.505 93.1667V88.6071C671.634 88.4568 672.677 87.9222 673.458 87.0933L679.318 91.3428C678.922 92.0733 678.715 92.8917 678.717 93.723C678.719 94.0071 678.743 94.2907 678.79 94.5711V94.5802ZM673.513 98.164C673.513 98.8855 673.299 99.5907 672.898 100.191C672.498 100.79 671.929 101.258 671.262 101.534C670.596 101.81 669.863 101.882 669.156 101.742C668.449 101.601 667.799 101.254 667.29 100.743C666.78 100.233 666.432 99.5833 666.292 98.8757C666.151 98.1681 666.223 97.4347 666.499 96.7681C666.775 96.1016 667.242 95.5319 667.842 95.1311C668.441 94.7303 669.146 94.5163 669.867 94.5163C670.833 94.5163 671.758 94.8994 672.442 95.5815C673.125 96.2636 673.51 97.1891 673.513 98.1549V98.164ZM669.156 88.6071V93.1667C668.331 93.2794 667.546 93.596 666.873 94.0879C666.2 94.5798 665.66 95.2316 665.301 95.9845L660.872 94.5711C660.929 94.2705 660.956 93.9651 660.954 93.6591C660.946 92.8505 660.743 92.0557 660.362 91.3428L666.213 87.0841C666.99 87.9146 668.03 88.4523 669.156 88.6071V88.6071ZM660.462 95.9025L664.891 97.316C664.835 97.6166 664.807 97.922 664.809 98.2279C664.806 98.9111 664.943 99.5876 665.213 100.215C665.483 100.843 665.879 101.408 666.377 101.876L663.643 105.706C662.915 105.31 662.101 105.103 661.273 105.104C660.967 105.102 660.662 105.129 660.362 105.186L658.12 98.2188C659.142 97.7343 659.971 96.918 660.471 95.9025H660.462ZM678.416 105.022C677.59 105.023 676.776 105.227 676.047 105.614L673.312 101.803C673.808 101.334 674.203 100.768 674.473 100.141C674.743 99.5136 674.881 98.8378 674.88 98.1549C674.882 97.849 674.855 97.5436 674.798 97.243L679.182 95.8478C679.678 96.8791 680.506 97.7139 681.533 98.2188L679.3 105.095C679.008 105.044 678.712 105.019 678.416 105.022V105.022ZM680.093 93.6956C680.093 92.9742 680.307 92.2689 680.707 91.6691C681.108 91.0692 681.677 90.6017 682.343 90.3256C683.01 90.0495 683.743 89.9772 684.45 90.118C685.157 90.2587 685.807 90.6062 686.316 91.1163C686.826 91.6264 687.173 92.2764 687.314 92.984C687.455 93.6916 687.383 94.425 687.107 95.0915C686.831 95.7581 686.363 96.3278 685.764 96.7286C685.164 97.1294 684.46 97.3433 683.739 97.3433C682.772 97.3433 681.844 96.959 681.161 96.2749C680.477 95.5908 680.093 94.663 680.093 93.6956Z" fill="#AA643B"/>
</g>
</g>
</g>
<text id="VCN" fill="#AE562C" xml:space="preserve" style="white-space: pre" font-family="Oracle Sans" font-size="16" font-weight="600" letter-spacing="0em"><tspan x="27" y="114.816">VCN</tspan></text>
</g>
<g id="OCI Region_6">
<rect x="28.5" y="136.5" width="156" height="436" stroke="#AA643B" stroke-dasharray="8 4"/>
<text id="Subnet" fill="#AE562C" xml:space="preserve" style="white-space: pre" font-family="Oracle Sans" font-size="16" font-weight="600" letter-spacing="0em"><tspan x="36" y="157.816">LB Subnet</tspan></text>
<g id="Icon Master_4">
<g id="OCI-SL_RT">
<g id="Group">
<g id="Group_2">
<path id="Vector_18" d="M136.476 155.519V129.077H153.238V121.289L164.476 116.481L175.619 121.289V131.481C175.619 131.577 175.619 134.077 174.19 137.058C172.952 139.75 170.381 143.404 164.857 145.423V155.423H136.476V155.519Z" fill="white"/>
<path id="Vector_19" d="M164.381 117.058L175.048 121.577V131.481C175.048 131.577 175.048 133.981 173.714 136.865C172.476 139.558 170 143.115 164.667 145.038L164.476 145.135H164.381V155.038H136.952V129.558H153.714V121.577L164.381 117.058ZM164.381 116L164 116.192L153.333 120.712L152.762 121V121.673V128.692H136.952H136V129.654V155.038V156H136.952H164.381H165.333V155.038V145.808C170.667 143.692 173.333 140.038 174.571 137.25C176 134.173 176 131.577 176 131.481V121.577V121L175.429 120.712L164.762 116.192L164.381 116Z" fill="white"/>
</g>
<g id="Group_3">
<path id="Vector_20" d="M163.048 145.712H145.524V138.981H155.048C154.762 138.5 154.571 138.115 154.381 137.731H145.524V131H152.667V129.75H136.952V155.135H164.381V146.288L163.905 146.096C163.619 145.904 163.333 145.808 163.048 145.712ZM138.19 130.904H144.286V137.635H138.19V130.904ZM144.286 138.885V145.615H138.19V138.885H144.286ZM138.19 146.962H144.286V153.692H138.19V146.962ZM163.048 153.692H145.524V146.962H163.048V153.692Z" fill="#AA643B"/>
<path id="Vector_21" d="M161.619 151.192H160.381V152.442H161.619V151.192Z" fill="#AA643B"/>
<path id="Vector_22" d="M156.381 152.442L157.524 151.288L158.667 152.442L159.524 151.481L158.381 150.327L159.524 149.173L158.667 148.308L157.524 149.461L156.381 148.308L155.428 149.173L156.571 150.327L155.428 151.481L156.381 152.442Z" fill="#AA643B"/>
<path id="Vector_23" d="M153.619 151.192H152.381V152.442H153.619V151.192Z" fill="#AA643B"/>
<path id="Vector_24" d="M147.524 151.481L148.381 152.442L149.524 151.288L150.667 152.442L151.619 151.481L150.476 150.327L151.619 149.173L150.667 148.308L149.524 149.461L148.381 148.308L147.524 149.173L148.667 150.327L147.524 151.481Z" fill="#AA643B"/>
<path id="Vector_25" d="M153.619 143.116H152.381V144.366H153.619V143.116Z" fill="#AA643B"/>
<path id="Vector_26" d="M147.524 143.404L148.381 144.366L149.524 143.212L150.667 144.366L151.619 143.404L150.476 142.25L151.619 141.096L150.667 140.231L149.524 141.385L148.381 140.231L147.524 141.096L148.667 142.25L147.524 143.404Z" fill="#AA643B"/>
<path id="Vector_27" d="M152.095 136.385H153.333V135.135C153.333 135.135 153.333 135.135 153.333 135.039H152.095V136.385Z" fill="#AA643B"/>
<path id="Vector_28" d="M147.143 135.423L148.095 136.288L149.238 135.135L150.381 136.288L151.238 135.423L150.095 134.269L151.238 133.115L150.381 132.154L149.238 133.308L148.095 132.154L147.143 133.115L148.286 134.269L147.143 135.423Z" fill="#AA643B"/>
<path id="Vector_29" d="M153.714 121.577V131.481C153.714 131.577 153.81 133.981 155.048 136.865C156.286 139.558 158.857 143.115 164.191 145.038L164.381 145.135L164.571 145.038C169.905 143.115 172.476 139.558 173.619 136.865C174.952 133.981 174.952 131.577 174.952 131.481V121.577L164.381 117.058L153.714 121.577ZM173.81 131.481C173.81 131.577 173.619 140.231 164.476 143.692C160.667 142.25 157.905 139.75 156.286 136.385C155.048 133.788 155.048 131.481 155.048 131.481V122.442L164.476 118.404L173.81 122.442V131.481Z" fill="#AA643B"/>
<path id="Vector_30" d="M163.238 132.827H158.286V134.077H163.238V132.827Z" fill="#AA643B"/>
<path id="Vector_31" d="M163.238 126.385H158.286V127.635H163.238V126.385Z" fill="#AA643B"/>
<path id="Vector_32" d="M169.905 124.942L167.143 127.635L166.19 126.673L165.238 127.539L167.143 129.462L170.762 125.808L169.905 124.942Z" fill="#AA643B"/>
<path id="Vector_33" d="M158.286 130.904H163.047H163.238V129.558H158.286V130.904Z" fill="#AA643B"/>
</g>
</g>
</g>
</g>
</g>
<g id="OCI Region_7">
<rect x="235.5" y="136.5" width="295" height="436" stroke="#AA643B" stroke-dasharray="8 4"/>
<text id="Subnet_2" fill="#AE562C" xml:space="preserve" style="white-space: pre" font-family="Oracle Sans" font-size="16" font-weight="600" letter-spacing="0em"><tspan x="243" y="157.816">Application Subnet</tspan></text>
<g id="Icon Master_5">
<g id="OCI-SL_RT_2">
<g id="Group_4">
<g id="Group_5">
<path id="Vector_34" d="M482.476 155.519V129.077H499.238V121.289L510.476 116.481L521.619 121.289V131.481C521.619 131.577 521.619 134.077 520.19 137.058C518.952 139.75 516.381 143.404 510.857 145.423V155.423H482.476V155.519Z" fill="white"/>
<path id="Vector_35" d="M510.381 117.058L521.048 121.577V131.481C521.048 131.577 521.048 133.981 519.714 136.865C518.476 139.558 516 143.115 510.667 145.038L510.476 145.135H510.381V155.038H482.952V129.558H499.714V121.577L510.381 117.058ZM510.381 116L510 116.192L499.333 120.712L498.762 121V121.673V128.692H482.952H482V129.654V155.038V156H482.952H510.381H511.333V155.038V145.808C516.667 143.692 519.333 140.038 520.571 137.25C522 134.173 522 131.577 522 131.481V121.577V121L521.429 120.712L510.762 116.192L510.381 116Z" fill="white"/>
</g>
<g id="Group_6">
<path id="Vector_36" d="M509.048 145.712H491.524V138.981H501.048C500.762 138.5 500.571 138.115 500.381 137.731H491.524V131H498.667V129.75H482.952V155.135H510.381V146.288L509.905 146.096C509.619 145.904 509.333 145.808 509.048 145.712ZM484.19 130.904H490.286V137.635H484.19V130.904ZM490.286 138.885V145.615H484.19V138.885H490.286ZM484.19 146.962H490.286V153.692H484.19V146.962ZM509.048 153.692H491.524V146.962H509.048V153.692Z" fill="#AA643B"/>
<path id="Vector_37" d="M507.619 151.192H506.381V152.442H507.619V151.192Z" fill="#AA643B"/>
<path id="Vector_38" d="M502.381 152.442L503.524 151.288L504.667 152.442L505.524 151.481L504.381 150.327L505.524 149.173L504.667 148.308L503.524 149.461L502.381 148.308L501.428 149.173L502.571 150.327L501.428 151.481L502.381 152.442Z" fill="#AA643B"/>
<path id="Vector_39" d="M499.619 151.192H498.381V152.442H499.619V151.192Z" fill="#AA643B"/>
<path id="Vector_40" d="M493.524 151.481L494.381 152.442L495.524 151.288L496.667 152.442L497.619 151.481L496.476 150.327L497.619 149.173L496.667 148.308L495.524 149.461L494.381 148.308L493.524 149.173L494.667 150.327L493.524 151.481Z" fill="#AA643B"/>
<path id="Vector_41" d="M499.619 143.116H498.381V144.366H499.619V143.116Z" fill="#AA643B"/>
<path id="Vector_42" d="M493.524 143.404L494.381 144.366L495.524 143.212L496.667 144.366L497.619 143.404L496.476 142.25L497.619 141.096L496.667 140.231L495.524 141.385L494.381 140.231L493.524 141.096L494.667 142.25L493.524 143.404Z" fill="#AA643B"/>
<path id="Vector_43" d="M498.095 136.385H499.333V135.135C499.333 135.135 499.333 135.135 499.333 135.039H498.095V136.385Z" fill="#AA643B"/>
<path id="Vector_44" d="M493.143 135.423L494.095 136.288L495.238 135.135L496.381 136.288L497.238 135.423L496.095 134.269L497.238 133.115L496.381 132.154L495.238 133.308L494.095 132.154L493.143 133.115L494.286 134.269L493.143 135.423Z" fill="#AA643B"/>
<path id="Vector_45" d="M499.714 121.577V131.481C499.714 131.577 499.81 133.981 501.048 136.865C502.286 139.558 504.857 143.115 510.191 145.038L510.381 145.135L510.571 145.038C515.905 143.115 518.476 139.558 519.619 136.865C520.952 133.981 520.952 131.577 520.952 131.481V121.577L510.381 117.058L499.714 121.577ZM519.81 131.481C519.81 131.577 519.619 140.231 510.476 143.692C506.667 142.25 503.905 139.75 502.286 136.385C501.048 133.788 501.048 131.481 501.048 131.481V122.442L510.476 118.404L519.81 122.442V131.481Z" fill="#AA643B"/>
<path id="Vector_46" d="M509.238 132.827H504.286V134.077H509.238V132.827Z" fill="#AA643B"/>
<path id="Vector_47" d="M509.238 126.385H504.286V127.635H509.238V126.385Z" fill="#AA643B"/>
<path id="Vector_48" d="M515.905 124.942L513.143 127.635L512.19 126.673L511.238 127.539L513.143 129.462L516.762 125.808L515.905 124.942Z" fill="#AA643B"/>
<path id="Vector_49" d="M504.286 130.904H509.047H509.238V129.558H504.286V130.904Z" fill="#AA643B"/>
</g>
</g>
</g>
</g>
</g>
<g id="OCI Load Balancer">
<g id="Load-Balancer-LB">
<g id="Group_7">
<g id="Group_8">
<g id="Group_9">
<path id="Vector_50" d="M125.511 379.286V375.714H129.766L109.908 355.714C109.341 362.571 107.781 368.571 105.369 373.143C102.391 378.286 99.4118 379.286 97.426 379.286C97.1423 379.286 96.7168 379.286 96.2912 379.143C90.6175 378.143 87.0714 369.429 85.7948 361.714C85.2274 358.857 84.9437 355.429 84.8019 351.857H77.7097V348.286H84.8019C84.9437 344.571 85.2274 341 85.7948 338C87.6387 327.429 92.0359 320.857 97.426 320.857C100.547 320.857 106.078 323.143 109.057 338.286C109.341 340.286 109.625 342.286 109.766 344.286L129.625 324.286H125.369V320.714H135.724V331.143H132.32V326.571L110.901 348.286H129.199L126.362 345.571L128.773 343L136.149 350L128.915 357.286L126.362 354.714L129.341 351.714H111.043L132.32 373.286V368.857H135.866V379.286H125.511V379.286Z" fill="white"/>
<path id="Vector_51" d="M135.156 321.429V330.429H133.028V324.857L109.34 348.857V349H130.901L127.355 345.571L128.773 344L135.156 350L128.915 356.286L127.496 354.857L131.184 351.143H109.34L133.028 375V369.571H135.156V378.571H126.22V376.429H131.468L109.199 354C108.915 360.571 107.496 367.286 104.66 372.714C101.965 377.286 99.2695 378.429 97.2837 378.429C97 378.429 96.5745 378.429 96.2908 378.286C90.9007 377.286 87.6383 368.571 86.3617 361.429C85.9362 358.429 85.5106 354.714 85.5106 351H78.4184V348.857H85.5106C85.5106 345 85.9362 341.286 86.5035 338C88.3475 328 92.461 321.571 97.4255 321.571C100.262 321.571 105.369 323.857 108.206 338.429C108.631 340.714 108.915 343.143 109.057 345.857L131.468 323.571H126.22V321.429H135.156ZM136.574 320H135.156H126.22H124.801V321.429V323.571V325H126.22H128.064L110.333 342.714C110.191 341.143 109.908 339.714 109.766 338.286C106.787 323.286 101.539 320.143 97.5674 320.143C91.7518 320.143 87.2128 326.857 85.227 337.857C84.6596 340.714 84.3759 344 84.234 347.571H78.4184H77V349V351.143V352.571H78.4184H84.0922C84.234 355.857 84.5177 359.143 85.0851 361.857C86.5035 369.857 90.0496 378.714 96.1489 379.857C96.5745 379.857 97 380 97.4255 380C99.5532 380 102.816 378.857 105.936 373.571C108.206 369.143 109.766 363.714 110.333 357.429L128.064 375H126.22H124.801V376.429V378.571V380H126.22H135.156H136.574V378.571V369.571V368.143H135.156H133.028H131.61V369.571V371.571L112.745 352.429H127.638L126.362 353.714L125.369 354.714L126.362 355.714L127.78 357.143L128.773 358.143L129.766 357.143L136.007 350.857L137 349.857L136.007 348.857L129.766 342.857L128.773 341.857L127.78 342.857L126.362 344.429L125.369 345.429L126.362 346.429L127.355 347.429H112.603L131.61 328.286V330.429V331.857H133.028H135.156H136.574V330.429V321.429V320Z" fill="white"/>
</g>
<g id="Group_10">
<path id="Vector_52" d="M135.155 330.429V321.429H126.219V323.572H131.467L109.198 345.858C109.056 343.143 108.772 340.715 108.347 338.429C105.51 323.715 100.404 321.572 97.5667 321.572C92.6021 321.572 88.4886 328.001 86.6447 338.143C85.9355 341.429 85.6518 345.143 85.5099 349.001H78.4177V351.143H85.5099C85.5099 354.858 85.9355 358.429 86.5028 361.572C87.7794 368.715 91.0418 377.429 96.4319 378.429C96.7156 378.429 96.9993 378.572 97.4248 378.572C99.4106 378.572 102.106 377.429 104.801 372.858C107.638 367.429 108.914 360.715 109.34 354.143L131.609 376.572H126.361V378.572H135.155V369.572H133.028V375.001L109.34 351.143H131.042L127.354 354.858L128.772 356.286L135.155 350.001L128.914 344.001L127.496 345.572L131.042 349.001H109.34V348.858L133.028 324.858V330.429H135.155ZM102.389 371.429C101.113 373.429 99.4106 375.858 97.283 375.858C97.1411 375.858 96.9993 375.858 96.8574 375.858C93.7369 375.286 90.3326 369.143 89.056 361.143C88.4886 358.143 88.205 354.715 88.0631 351.143H100.687L96.9993 354.858L98.5596 356.286L104.801 350.001L98.2759 343.715L96.8574 345.286L100.687 349.001H88.205C88.205 345.429 88.6305 341.715 89.1979 338.715C90.9 328.715 94.7298 324.286 97.4248 324.286C99.978 324.286 103.524 328.143 105.652 339.001C107.496 348.715 107.07 362.572 102.389 371.429Z" fill="#2D5967"/>
</g>
</g>
</g>
</g>
<g id="Icon Text Label">
<text id="IconLabel" fill="black" xml:space="preserve" style="white-space: pre" font-family="Oracle Sans" font-size="16" letter-spacing="0em"><tspan x="73.9297" y="397.816">OCI Load</tspan></text>
<text id="IconLabel_2" fill="black" xml:space="preserve" style="white-space: pre" font-family="Oracle Sans" font-size="16" letter-spacing="0em"><tspan x="75.6953" y="413.816">Balancer</tspan></text>
<text id="IconLabel_3" fill="black" xml:space="preserve" style="white-space: pre" font-family="Oracle Sans" font-size="16" letter-spacing="0em"><tspan x="72.2031" y="429.816">(L4 or L7)</tspan></text>
</g>
</g>
<g id="OCI Virtual Machine">
<g id="Virtual-Machine-VM">
<g id="Group_11">
<g id="Group_12">
<path id="Vector_53" d="M265.35 235.286C263.639 235.286 262.214 233.857 262.214 232.143V179.857C262.214 178.143 263.639 176.714 265.35 176.714H317.654C319.364 176.714 320.789 178.143 320.789 179.857V232.286C320.789 234 319.364 235.429 317.654 235.429L265.35 235.286Z" fill="white"/>
<path id="Vector_54" d="M317.51 177.429C318.792 177.429 319.932 178.571 319.932 179.857V232.286C319.932 233.571 318.792 234.714 317.51 234.714H265.348C264.065 234.571 262.925 233.429 262.925 232.143V179.857C262.925 178.571 264.065 177.429 265.348 177.429H317.51ZM317.51 176H265.348C263.21 176 261.5 177.714 261.5 179.857V232.286C261.5 234.286 263.21 236 265.348 236H317.652C319.79 236 321.5 234.286 321.5 232.143V179.857C321.357 177.714 319.647 176 317.51 176Z" fill="white"/>
</g>
<g id="Group_13">
<path id="Vector_55" d="M317.51 177.429H265.348C264.066 177.429 262.926 178.572 262.926 179.858V232.286C262.926 233.429 264.066 234.572 265.348 234.572H317.653C318.935 234.572 320.075 233.429 320.075 232.143V179.858C319.933 178.572 318.793 177.429 317.51 177.429ZM317.795 232.143C317.795 232.286 317.653 232.429 317.51 232.429H265.348C265.206 232.429 265.063 232.286 265.063 232.143V179.858C265.063 179.715 265.206 179.572 265.348 179.572H317.653C317.795 179.572 317.938 179.715 317.938 179.858L317.795 232.143Z" fill="#2D5967"/>
<path id="Vector_56" d="M270.906 226.573H312.379V213.858H270.906V226.573ZM272.901 216.001H310.099V224.573H272.901V216.001Z" fill="#2D5967"/>
<path id="Vector_57" d="M305.395 221.858C306.261 221.858 306.963 221.154 306.963 220.286C306.963 219.418 306.261 218.715 305.395 218.715C304.529 218.715 303.828 219.418 303.828 220.286C303.828 221.154 304.529 221.858 305.395 221.858Z" fill="#2D5967"/>
<path id="Vector_58" d="M283.448 185.429H270.906V198.143H283.59L283.448 185.429ZM281.453 196H272.901V187.429H281.453V196Z" fill="#2D5967"/>
<path id="Vector_59" d="M297.701 185.429H285.016V198.143H297.701V185.429ZM295.705 196H287.154V187.429H295.705V196Z" fill="#2D5967"/>
<path id="Vector_60" d="M283.448 199.714H270.906V212.429H283.59L283.448 199.714ZM281.453 210.286H272.901V201.714H281.453V210.286Z" fill="#2D5967"/>
<path id="Vector_61" d="M297.701 199.714H285.016V212.429H297.701V199.714ZM295.705 210.286H287.154V201.714H295.705V210.286Z" fill="#2D5967"/>
<path id="Vector_62" d="M311.952 185.429H299.268V198.143H311.952V185.429ZM309.957 196H301.406V187.429H309.957V196Z" fill="#2D5967"/>
<path id="Vector_63" d="M311.952 199.714H299.268V212.429H311.952V199.714ZM309.957 210.286H301.406V201.714H309.957V210.286Z" fill="#2D5967"/>
</g>
</g>
</g>
<g id="Icon Text Label_2">
<text id="IconLabel_4" fill="black" xml:space="preserve" style="white-space: pre" font-family="Oracle Sans" font-size="16" letter-spacing="0em"><tspan x="252.43" y="253.816">OCI Virtual</tspan></text>
<text id="IconLabel_5" fill="black" xml:space="preserve" style="white-space: pre" font-family="Oracle Sans" font-size="16" letter-spacing="0em"><tspan x="260.477" y="269.816">Machine</tspan></text>
<text id="IconLabel_6" fill="black" xml:space="preserve" style="white-space: pre" font-family="Oracle Sans" font-size="16" letter-spacing="0em"><tspan x="265.82" y="285.816">(Batch)</tspan></text>
</g>
</g>
<g id="OCI Virtual Machine_2">
<g id="Virtual-Machine-VM_2">
<g id="Group_14">
<g id="Group_15">
<path id="Vector_64" d="M265.35 379.286C263.639 379.286 262.214 377.857 262.214 376.143V323.857C262.214 322.143 263.639 320.714 265.35 320.714H317.654C319.364 320.714 320.789 322.143 320.789 323.857V376.286C320.789 378 319.364 379.429 317.654 379.429L265.35 379.286Z" fill="white"/>
<path id="Vector_65" d="M317.51 321.429C318.792 321.429 319.932 322.571 319.932 323.857V376.286C319.932 377.571 318.792 378.714 317.51 378.714H265.348C264.065 378.571 262.925 377.429 262.925 376.143V323.857C262.925 322.571 264.065 321.429 265.348 321.429H317.51ZM317.51 320H265.348C263.21 320 261.5 321.714 261.5 323.857V376.286C261.5 378.286 263.21 380 265.348 380H317.652C319.79 380 321.5 378.286 321.5 376.143V323.857C321.357 321.714 319.647 320 317.51 320Z" fill="white"/>
</g>
<g id="Group_16">
<path id="Vector_66" d="M317.51 321.429H265.348C264.066 321.429 262.926 322.572 262.926 323.858V376.286C262.926 377.429 264.066 378.572 265.348 378.572H317.653C318.935 378.572 320.075 377.429 320.075 376.143V323.858C319.933 322.572 318.793 321.429 317.51 321.429ZM317.795 376.143C317.795 376.286 317.653 376.429 317.51 376.429H265.348C265.206 376.429 265.063 376.286 265.063 376.143V323.858C265.063 323.715 265.206 323.572 265.348 323.572H317.653C317.795 323.572 317.938 323.715 317.938 323.858L317.795 376.143Z" fill="#2D5967"/>
<path id="Vector_67" d="M270.906 370.573H312.379V357.858H270.906V370.573ZM272.901 360.001H310.099V368.573H272.901V360.001Z" fill="#2D5967"/>
<path id="Vector_68" d="M305.395 365.858C306.261 365.858 306.963 365.154 306.963 364.286C306.963 363.418 306.261 362.715 305.395 362.715C304.529 362.715 303.828 363.418 303.828 364.286C303.828 365.154 304.529 365.858 305.395 365.858Z" fill="#2D5967"/>
<path id="Vector_69" d="M283.448 329.429H270.906V342.143H283.59L283.448 329.429ZM281.453 340H272.901V331.429H281.453V340Z" fill="#2D5967"/>
<path id="Vector_70" d="M297.701 329.429H285.016V342.143H297.701V329.429ZM295.705 340H287.154V331.429H295.705V340Z" fill="#2D5967"/>
<path id="Vector_71" d="M283.448 343.714H270.906V356.429H283.59L283.448 343.714ZM281.453 354.286H272.901V345.714H281.453V354.286Z" fill="#2D5967"/>
<path id="Vector_72" d="M297.701 343.714H285.016V356.429H297.701V343.714ZM295.705 354.286H287.154V345.714H295.705V354.286Z" fill="#2D5967"/>
<path id="Vector_73" d="M311.952 329.429H299.268V342.143H311.952V329.429ZM309.957 340H301.406V331.429H309.957V340Z" fill="#2D5967"/>
<path id="Vector_74" d="M311.952 343.714H299.268V356.429H311.952V343.714ZM309.957 354.286H301.406V345.714H309.957V354.286Z" fill="#2D5967"/>
</g>
</g>
</g>
<g id="Icon Text Label_3">
<text id="IconLabel_7" fill="black" xml:space="preserve" style="white-space: pre" font-family="Oracle Sans" font-size="16" letter-spacing="0em"><tspan x="252.43" y="397.816">OCI Virtual</tspan></text>
<text id="IconLabel_8" fill="black" xml:space="preserve" style="white-space: pre" font-family="Oracle Sans" font-size="16" letter-spacing="0em"><tspan x="260.477" y="413.816">Machine</tspan></text>
<text id="IconLabel_9" fill="black" xml:space="preserve" style="white-space: pre" font-family="Oracle Sans" font-size="16" letter-spacing="0em"><tspan x="259.117" y="429.816">(Apache)</tspan></text>
</g>
</g>
<g id="OCI Virtual Machine_3">
<g id="Virtual-Machine-VM_3">
<g id="Group_17">
<g id="Group_18">
<path id="Vector_75" d="M265.35 507.286C263.639 507.286 262.214 505.857 262.214 504.143V451.857C262.214 450.143 263.639 448.714 265.35 448.714H317.654C319.364 448.714 320.789 450.143 320.789 451.857V504.286C320.789 506 319.364 507.429 317.654 507.429L265.35 507.286Z" fill="white"/>
<path id="Vector_76" d="M317.51 449.429C318.792 449.429 319.932 450.571 319.932 451.857V504.286C319.932 505.571 318.792 506.714 317.51 506.714H265.348C264.065 506.571 262.925 505.429 262.925 504.143V451.857C262.925 450.571 264.065 449.429 265.348 449.429H317.51ZM317.51 448H265.348C263.21 448 261.5 449.714 261.5 451.857V504.286C261.5 506.286 263.21 508 265.348 508H317.652C319.79 508 321.5 506.286 321.5 504.143V451.857C321.357 449.714 319.647 448 317.51 448Z" fill="white"/>
</g>
<g id="Group_19">
<path id="Vector_77" d="M317.51 449.429H265.348C264.066 449.429 262.926 450.572 262.926 451.858V504.286C262.926 505.429 264.066 506.572 265.348 506.572H317.653C318.935 506.572 320.075 505.429 320.075 504.143V451.858C319.933 450.572 318.793 449.429 317.51 449.429ZM317.795 504.143C317.795 504.286 317.653 504.429 317.51 504.429H265.348C265.206 504.429 265.063 504.286 265.063 504.143V451.858C265.063 451.715 265.206 451.572 265.348 451.572H317.653C317.795 451.572 317.938 451.715 317.938 451.858L317.795 504.143Z" fill="#2D5967"/>
<path id="Vector_78" d="M270.906 498.573H312.379V485.858H270.906V498.573ZM272.901 488.001H310.099V496.573H272.901V488.001Z" fill="#2D5967"/>
<path id="Vector_79" d="M305.395 493.858C306.261 493.858 306.963 493.154 306.963 492.286C306.963 491.418 306.261 490.715 305.395 490.715C304.529 490.715 303.828 491.418 303.828 492.286C303.828 493.154 304.529 493.858 305.395 493.858Z" fill="#2D5967"/>
<path id="Vector_80" d="M283.448 457.429H270.906V470.143H283.59L283.448 457.429ZM281.453 468H272.901V459.429H281.453V468Z" fill="#2D5967"/>
<path id="Vector_81" d="M297.701 457.429H285.016V470.143H297.701V457.429ZM295.705 468H287.154V459.429H295.705V468Z" fill="#2D5967"/>
<path id="Vector_82" d="M283.448 471.714H270.906V484.429H283.59L283.448 471.714ZM281.453 482.286H272.901V473.714H281.453V482.286Z" fill="#2D5967"/>
<path id="Vector_83" d="M297.701 471.714H285.016V484.429H297.701V471.714ZM295.705 482.286H287.154V473.714H295.705V482.286Z" fill="#2D5967"/>
<path id="Vector_84" d="M311.952 457.429H299.268V470.143H311.952V457.429ZM309.957 468H301.406V459.429H309.957V468Z" fill="#2D5967"/>
<path id="Vector_85" d="M311.952 471.714H299.268V484.429H311.952V471.714ZM309.957 482.286H301.406V473.714H309.957V482.286Z" fill="#2D5967"/>
</g>
</g>
</g>
<g id="Icon Text Label_4">
<text id="IconLabel_10" fill="black" xml:space="preserve" style="white-space: pre" font-family="Oracle Sans" font-size="16" letter-spacing="0em"><tspan x="252.43" y="525.816">OCI Virtual</tspan></text>
<text id="IconLabel_11" fill="black" xml:space="preserve" style="white-space: pre" font-family="Oracle Sans" font-size="16" letter-spacing="0em"><tspan x="260.477" y="541.816">Machine</tspan></text>
<text id="IconLabel_12" fill="black" xml:space="preserve" style="white-space: pre" font-family="Oracle Sans" font-size="16" letter-spacing="0em"><tspan x="259.117" y="557.816">(Apache)</tspan></text>
</g>
</g>
<g id="OCI File Storage">
<rect id="Rectangle 690" x="527" y="176" width="4" height="112" fill="#F5F4F2"/>
<g id="Icon Master_6">
<g id="Services/File-Storage">
<g id="Group_20">
<g id="Group_21">
<g id="Group_22">
<path id="Vector_86" d="M502.847 235.286C501.136 235.286 499.711 233.857 499.711 232.143V179.857C499.711 178.143 501.136 176.714 502.847 176.714H555.151C556.861 176.714 558.286 178.143 558.286 179.857V232.286C558.286 234 556.861 235.429 555.151 235.429L502.847 235.286Z" fill="white"/>
<path id="Vector_87" d="M555.01 177.429C556.292 177.429 557.432 178.571 557.432 179.857V232.286C557.432 233.571 556.292 234.714 555.01 234.714H502.848C501.565 234.571 500.425 233.429 500.425 232.143V179.857C500.425 178.571 501.565 177.429 502.848 177.429H555.01ZM555.01 176H502.848C500.71 176 499 177.714 499 179.857V232.286C499 234.286 500.71 236 502.848 236H555.152C557.29 236 559 234.286 559 232.143V179.857C558.857 177.714 557.147 176 555.01 176Z" fill="white"/>
</g>
<g id="Group_23">
<path id="Vector_88" d="M500.426 232.144C500.426 233.429 501.566 234.572 502.848 234.572H555.153C556.435 234.572 557.575 233.429 557.575 232.144V183.144H500.426V232.144ZM502.563 185.286H555.295V232.286C555.295 232.429 555.153 232.572 555.01 232.572H502.848C502.706 232.572 502.563 232.429 502.563 232.286V185.286Z" fill="#2D5967"/>
<path id="Vector_89" d="M555.01 177.429H502.848C501.566 177.429 500.426 178.572 500.426 179.858V181.572H557.433V179.858C557.433 178.572 556.293 177.429 555.01 177.429Z" fill="#2D5967"/>
<path id="Vector_90" d="M550.448 198.429C550.448 197.286 549.451 196.286 548.311 196.286H524.795L522.515 193.286C522.087 192.715 521.517 192.429 520.805 192.429H509.688C508.548 192.429 507.55 193.429 507.55 194.572V225.001H550.448V198.429ZM509.688 194.572H520.805L522.942 197.286L520.805 200.001H509.546L509.688 194.572C509.546 194.572 509.546 194.572 509.688 194.572ZM548.311 222.858H509.546V202.143H520.662C521.375 202.143 521.945 201.858 522.372 201.286L524.653 198.286H548.168V222.858H548.311Z" fill="#2D5967"/>
<path id="Vector_91" d="M519.665 196.287H511.399V198.429H519.665V196.287Z" fill="#2D5967"/>
</g>
</g>
</g>
</g>
<g id="Icon Text Label_5">
<text id="IconLabel_13" fill="black" xml:space="preserve" style="white-space: pre" font-family="Oracle Sans" font-size="16" letter-spacing="0em"><tspan x="501.328" y="253.816">OCI File</tspan></text>
<text id="IconLabel_14" fill="black" xml:space="preserve" style="white-space: pre" font-family="Oracle Sans" font-size="16" letter-spacing="0em"><tspan x="501.188" y="269.816">Storage</tspan></text>
<text id="IconLabel_15" fill="black" xml:space="preserve" style="white-space: pre" font-family="Oracle Sans" font-size="16" letter-spacing="0em"><tspan x="499.852" y="285.816">(Mount)</tspan></text>
</g>
</g>
</g>
<g id="Local Storage">
<g id="Local-Storage">
<g id="Group 26">
<path id="Vector_92" d="M621.629 235.285C620.768 235.285 619.942 234.943 619.333 234.335C618.724 233.727 618.382 232.902 618.382 232.042V195.599C618.382 194.739 618.724 193.914 619.333 193.306C619.942 192.698 620.768 192.357 621.629 192.357H629.379L628.593 191.214C627.183 189.215 626.624 186.74 627.036 184.331C627.449 181.921 628.801 179.773 630.795 178.357C632.404 177.262 634.311 176.689 636.258 176.714C637.742 176.713 639.204 177.076 640.515 177.771C641.827 178.466 642.947 179.471 643.78 180.699C644.841 182.247 645.41 184.08 645.41 185.957C645.41 187.833 644.841 189.666 643.78 191.214L642.993 192.357H651.387C652.248 192.357 653.074 192.698 653.683 193.306C654.291 193.914 654.633 194.739 654.633 195.599V232.042C654.633 232.902 654.291 233.727 653.683 234.335C653.074 234.943 652.248 235.285 651.387 235.285H621.629Z" fill="white"/>
<path id="Vector_93" d="M636.258 177.429C637.614 177.441 638.947 177.782 640.142 178.421C641.338 179.061 642.36 179.98 643.122 181.1C644.106 182.529 644.633 184.223 644.633 185.957C644.633 187.692 644.106 189.385 643.122 190.814L641.621 193.143H651.374C652.045 193.143 652.689 193.409 653.163 193.883C653.638 194.358 653.905 195.001 653.905 195.671V232.043C653.905 232.375 653.839 232.704 653.712 233.01C653.585 233.317 653.398 233.596 653.163 233.831C652.928 234.066 652.649 234.252 652.342 234.379C652.035 234.506 651.706 234.571 651.374 234.571H621.629C621.297 234.571 620.968 234.506 620.661 234.379C620.353 234.252 620.074 234.066 619.839 233.831C619.604 233.596 619.418 233.317 619.291 233.01C619.163 232.704 619.098 232.375 619.098 232.043V195.6C619.117 194.942 619.391 194.317 619.864 193.858C620.337 193.399 620.97 193.143 621.629 193.143H630.738L629.18 190.814C627.892 188.967 627.383 186.689 627.763 184.47C628.143 182.252 629.381 180.271 631.21 178.957C632.696 177.941 634.458 177.407 636.258 177.429V177.429ZM636.258 176C634.215 176.005 632.221 176.627 630.538 177.786C628.399 179.316 626.948 181.627 626.501 184.218C626.054 186.808 626.647 189.471 628.15 191.629H621.629C621.108 191.629 620.591 191.731 620.11 191.931C619.628 192.131 619.191 192.424 618.823 192.793C618.455 193.162 618.164 193.6 617.965 194.081C617.767 194.563 617.666 195.079 617.668 195.6V232.043C617.668 233.092 618.085 234.099 618.828 234.841C619.571 235.583 620.579 236 621.629 236H651.374C652.424 236 653.432 235.583 654.174 234.841C654.917 234.099 655.335 233.092 655.335 232.043V195.6C655.316 194.563 654.89 193.575 654.149 192.848C653.409 192.121 652.412 191.714 651.374 191.714H644.338C645.485 190.048 646.098 188.073 646.098 186.05C646.098 184.027 645.485 182.052 644.338 180.386C643.452 179.051 642.253 177.953 640.844 177.189C639.436 176.424 637.861 176.016 636.258 176V176Z" fill="white"/>
<path id="Vector_94" d="M651.373 193.144H643.665L642.12 195.315H651.373C651.448 195.315 651.521 195.345 651.575 195.399C651.628 195.452 651.659 195.525 651.659 195.601V232.044C651.659 232.119 651.628 232.192 651.575 232.246C651.521 232.299 651.448 232.329 651.373 232.329H621.628C621.552 232.329 621.48 232.299 621.426 232.246C621.372 232.192 621.342 232.119 621.342 232.044V195.601C621.342 195.525 621.372 195.452 621.426 195.399C621.48 195.345 621.552 195.315 621.628 195.315H630.208L628.692 193.144H621.628C620.969 193.143 620.336 193.4 619.863 193.859C619.391 194.318 619.116 194.943 619.097 195.601V232.044C619.097 232.376 619.163 232.704 619.29 233.011C619.417 233.318 619.603 233.597 619.838 233.832C620.073 234.066 620.352 234.253 620.66 234.38C620.967 234.507 621.296 234.572 621.628 234.572H651.373C651.705 234.572 652.034 234.507 652.341 234.38C652.648 234.253 652.927 234.066 653.162 233.832C653.397 233.597 653.584 233.318 653.711 233.011C653.838 232.704 653.904 232.376 653.904 232.044V195.601C653.885 194.943 653.61 194.318 653.138 193.859C652.665 193.4 652.032 193.143 651.373 193.144V193.144Z" fill="#2D5967"/>
<path id="Vector_95" d="M623.031 207.1H649.972V197H640.978L639.433 199.242H647.727V204.857H625.276V199.242H632.927L631.396 197H623.031V207.1Z" fill="#2D5967"/>
<path id="Vector_96" d="M644.924 203.171C645.548 203.171 646.054 202.665 646.054 202.042C646.054 201.419 645.548 200.914 644.924 200.914C644.3 200.914 643.794 201.419 643.794 202.042C643.794 202.665 644.3 203.171 644.924 203.171Z" fill="#2D5967"/>
<path id="Vector_97" d="M623.031 218.858H649.972V208.772H623.031V218.858ZM625.276 211.001H647.699V216.615H625.276V211.001Z" fill="#2D5967"/>
<path id="Vector_98" d="M644.924 214.956C645.548 214.956 646.054 214.451 646.054 213.828C646.054 213.204 645.548 212.699 644.924 212.699C644.3 212.699 643.794 213.204 643.794 213.828C643.794 214.451 644.3 214.956 644.924 214.956Z" fill="#2D5967"/>
<path id="Vector_99" d="M623.031 230.643H649.972V220.557H623.031V230.643ZM625.276 222.8H647.699V228.4H625.276V222.8Z" fill="#2D5967"/>
<path id="Vector_100" d="M644.924 226.729C645.548 226.729 646.054 226.224 646.054 225.6C646.054 224.977 645.548 224.472 644.924 224.472C644.3 224.472 643.794 224.977 643.794 225.6C643.794 226.224 644.3 226.729 644.924 226.729Z" fill="#2D5967"/>
<path id="Vector_101" d="M636.258 200.999L643.251 190.814C644.235 189.384 644.762 187.691 644.762 185.956C644.762 184.222 644.235 182.528 643.251 181.099C642.477 179.961 641.434 179.031 640.214 178.39C638.994 177.75 637.636 177.42 636.258 177.428C634.458 177.407 632.696 177.94 631.21 178.956C629.381 180.271 628.143 182.251 627.763 184.469C627.383 186.688 627.892 188.967 629.18 190.814L636.258 200.999ZM641.349 182.428C642.069 183.48 642.454 184.725 642.454 185.999C642.454 187.274 642.069 188.519 641.349 189.571L636.258 197.028L631.039 189.542C630.07 188.195 629.677 186.519 629.945 184.882C630.213 183.246 631.121 181.782 632.469 180.814C633.586 180.057 634.908 179.659 636.258 179.671C637.252 179.684 638.228 179.938 639.102 180.411C639.976 180.884 640.723 181.561 641.278 182.385L641.349 182.428Z" fill="#2D5967"/>
<path id="Vector_102" d="M636.258 189.728C636.97 189.725 637.666 189.512 638.256 189.115C638.847 188.717 639.307 188.154 639.577 187.496C639.848 186.838 639.917 186.115 639.777 185.417C639.636 184.72 639.292 184.08 638.787 183.578C638.282 183.076 637.64 182.734 636.942 182.596C636.243 182.459 635.519 182.531 634.862 182.804C634.204 183.077 633.642 183.538 633.247 184.13C632.851 184.721 632.64 185.417 632.64 186.128C632.64 186.602 632.734 187.072 632.916 187.509C633.098 187.947 633.365 188.344 633.701 188.679C634.037 189.013 634.436 189.278 634.875 189.458C635.314 189.638 635.784 189.73 636.258 189.728V189.728ZM636.258 184.771C636.541 184.771 636.818 184.855 637.053 185.012C637.288 185.169 637.471 185.392 637.579 185.653C637.688 185.914 637.716 186.201 637.661 186.478C637.606 186.756 637.469 187.01 637.269 187.21C637.069 187.41 636.815 187.546 636.537 187.601C636.26 187.656 635.972 187.628 635.711 187.52C635.45 187.411 635.226 187.228 635.069 186.993C634.912 186.758 634.828 186.482 634.828 186.2C634.828 185.821 634.979 185.457 635.247 185.19C635.515 184.922 635.879 184.771 636.258 184.771V184.771Z" fill="#2D5967"/>
</g>
</g>
<g id="Icon Text Label_6">
<text id="IconLabel_16" fill="black" xml:space="preserve" style="white-space: pre" font-family="Oracle Sans" font-size="16" letter-spacing="0em"><tspan x="583.109" y="253.816">App filesystem</tspan></text>
<text id="IconLabel_17" fill="black" xml:space="preserve" style="white-space: pre" font-family="Oracle Sans" font-size="16" letter-spacing="0em"><tspan x="616.484" y="269.816">(NFS)</tspan></text>
</g>
</g>
<path id="Vector 57" d="M258.707 350.707C259.098 350.317 259.098 349.683 258.707 349.293L252.343 342.929C251.953 342.538 251.319 342.538 250.929 342.929C250.538 343.319 250.538 343.953 250.929 344.343L256.586 350L250.929 355.657C250.538 356.047 250.538 356.681 250.929 357.071C251.319 357.462 251.953 357.462 252.343 357.071L258.707 350.707ZM139 351H258V349H139V351Z" fill="#312D2A"/>
<path id="Vector 59" d="M324 197H497" stroke="#312D2A" stroke-width="2"/>
<path id="Vector 60" d="M561 210L615 210" stroke="#312D2A" stroke-width="2"/>
<path id="Vector 61" d="M497 210L443 210L443 350L324 350" stroke="#312D2A" stroke-width="2"/>
<path id="Vector 62" d="M497 223L471 223L471 479L324 479" stroke="#312D2A" stroke-width="2"/>
<path id="Vector 58" d="M169 360H170V359H169V360ZM169 479H168V480H169V479ZM258.707 479.707C259.098 479.317 259.098 478.683 258.707 478.293L252.343 471.929C251.953 471.538 251.319 471.538 250.929 471.929C250.538 472.319 250.538 472.953 250.929 473.343L256.586 479L250.929 484.657C250.538 485.047 250.538 485.681 250.929 486.071C251.319 486.462 251.953 486.462 252.343 486.071L258.707 479.707ZM139 361H169V359H139V361ZM168 360V479H170V360H168ZM169 480H258V478H169V480Z" fill="#312D2A"/>
<g id="Group 1237">
<g id="Connector Line Label">
<rect width="80" height="14" transform="translate(355 190)" fill="#F5F4F2"/>
<text id="Line Label" fill="#312D2A" xml:space="preserve" style="white-space: pre" font-family="Oracle Sans" font-size="14" letter-spacing="0em"><tspan x="359.221" y="202.089">NFS mount</tspan></text>
</g>
<g id="Connector Line Label_2">
<rect width="80" height="14" transform="translate(355 204)" fill="#F5F4F2"/>
<text id="Line Label_2" fill="#312D2A" xml:space="preserve" style="white-space: pre" font-family="Oracle Sans" font-size="14" letter-spacing="0em"><tspan x="359.111" y="216.089">(read write)</tspan></text>
</g>
</g>
<g id="Group 1238">
<g id="Connector Line Label_3">
<rect width="80" height="14" transform="translate(353 342)" fill="#F5F4F2"/>
<text id="Line Label_3" fill="#312D2A" xml:space="preserve" style="white-space: pre" font-family="Oracle Sans" font-size="14" letter-spacing="0em"><tspan x="357.221" y="354.089">NFS mount</tspan></text>
</g>
<g id="Connector Line Label_4">
<rect width="80" height="14" transform="translate(353 471)" fill="#F5F4F2"/>
<text id="Line Label_4" fill="#312D2A" xml:space="preserve" style="white-space: pre" font-family="Oracle Sans" font-size="14" letter-spacing="0em"><tspan x="357.221" y="483.089">NFS mount</tspan></text>
</g>
<g id="Connector Line Label_5">
<rect width="76" height="14" transform="translate(355 356)" fill="#F5F4F2"/>
<text id="Line Label_5" fill="#312D2A" xml:space="preserve" style="white-space: pre" font-family="Oracle Sans" font-size="14" letter-spacing="0em"><tspan x="359.237" y="368.089">(read only)</tspan></text>
</g>
<g id="Connector Line Label_6">
<rect width="76" height="14" transform="translate(355 485)" fill="#F5F4F2"/>
<text id="Line Label_6" fill="#312D2A" xml:space="preserve" style="white-space: pre" font-family="Oracle Sans" font-size="14" letter-spacing="0em"><tspan x="359.237" y="497.089">(read only)</tspan></text>
</g>
</g>
</g>
</g>
<defs>
<clipPath id="clip0_12409_4182">
<rect width="718" height="601" fill="white"/>
</clipPath>
</defs>
</svg>
