<svg width="1208" height="344" viewBox="0 0 1208 344" fill="none" xmlns="http://www.w3.org/2000/svg">
<g id="drg-routing-operation">
<rect width="1208" height="344" fill="white"/>
<g id="Tier">
<rect x="0.5" y="0.5" width="487" height="343" fill="white"/>
<rect x="0.5" y="0.5" width="487" height="343" stroke="#9E9892" stroke-dasharray="2 2"/>
<text id="Tier_2" fill="#312D2A" xml:space="preserve" style="white-space: pre" font-family="Oracle Sans" font-size="16" letter-spacing="0em"><tspan x="186.523" y="21.816">Source Network</tspan></text>
<text id="Tier_3" fill="#312D2A" xml:space="preserve" style="white-space: pre" font-family="Oracle Sans" font-size="16" letter-spacing="0em"><tspan x="136.227" y="37.816">(a VCN, on-premises network,</tspan></text>
<text id="Tier_4" fill="#312D2A" xml:space="preserve" style="white-space: pre" font-family="Oracle Sans" font-size="16" letter-spacing="0em"><tspan x="174.555" y="53.816">or a remote region)</tspan></text>
</g>
<g id="Tier_5">
<rect x="720.5" y="0.5" width="487" height="343" fill="white"/>
<rect x="720.5" y="0.5" width="487" height="343" stroke="#9E9892" stroke-dasharray="2 2"/>
<text id="Tier_6" fill="#312D2A" xml:space="preserve" style="white-space: pre" font-family="Oracle Sans" font-size="16" letter-spacing="0em"><tspan x="889.602" y="21.816">Destination Network</tspan></text>
<text id="Tier_7" fill="#312D2A" xml:space="preserve" style="white-space: pre" font-family="Oracle Sans" font-size="16" letter-spacing="0em"><tspan x="856.227" y="37.816">(a VCN, on-premises network,</tspan></text>
<text id="Tier_8" fill="#312D2A" xml:space="preserve" style="white-space: pre" font-family="Oracle Sans" font-size="16" letter-spacing="0em"><tspan x="894.555" y="53.816">or a remote region)</tspan></text>
</g>
<g id="Tier_9">
<rect x="520.5" y="33.5" width="167" height="198" rx="3.5" fill="#F5F4F2"/>
<rect x="520.5" y="33.5" width="167" height="198" rx="3.5" stroke="#9E9892"/>
<text id="Tier_10" fill="#312D2A" xml:space="preserve" style="white-space: pre" font-family="Oracle Sans" font-size="16" font-weight="bold" letter-spacing="0em"><tspan x="587.344" y="54.816">DRG</tspan></text>
</g>
<g id="Icon Master">
<g id="Virtual-Machine-VM">
<g id="Group">
<g id="Group_2">
<path id="Vector" d="M217.85 155.286C216.14 155.286 214.714 153.857 214.714 152.143V99.8572C214.714 98.1429 216.14 96.7143 217.85 96.7143H270.154C271.864 96.7143 273.289 98.1429 273.289 99.8572V152.286C273.289 154 271.864 155.429 270.154 155.429L217.85 155.286Z" fill="white"/>
<path id="Vector_2" d="M270.01 97.4286C271.292 97.4286 272.432 98.5714 272.432 99.8571V152.286C272.432 153.571 271.292 154.714 270.01 154.714H217.848C216.565 154.571 215.425 153.429 215.425 152.143V99.8571C215.425 98.5714 216.565 97.4286 217.848 97.4286H270.01ZM270.01 96H217.848C215.71 96 214 97.7143 214 99.8571V152.286C214 154.286 215.71 156 217.848 156H270.152C272.29 156 274 154.286 274 152.143V99.8571C273.857 97.7143 272.147 96 270.01 96Z" fill="white"/>
</g>
<g id="Group_3">
<path id="Vector_3" d="M270.01 97.429H217.849C216.566 97.429 215.426 98.5719 215.426 99.8576V152.286C215.426 153.429 216.566 154.572 217.849 154.572H270.153C271.435 154.572 272.575 153.429 272.575 152.143V99.8576C272.433 98.5719 271.293 97.429 270.01 97.429ZM270.295 152.143C270.295 152.286 270.153 152.429 270.01 152.429H217.849C217.706 152.429 217.564 152.286 217.564 152.143V99.8576C217.564 99.7147 217.706 99.5719 217.849 99.5719H270.153C270.295 99.5719 270.438 99.7147 270.438 99.8576L270.295 152.143Z" fill="#2D5967"/>
<path id="Vector_4" d="M223.406 146.572H264.879V133.858H223.406V146.572ZM225.401 136.001H262.599V144.572H225.401V136.001Z" fill="#2D5967"/>
<path id="Vector_5" d="M257.895 141.858C258.761 141.858 259.463 141.154 259.463 140.286C259.463 139.418 258.761 138.715 257.895 138.715C257.03 138.715 256.328 139.418 256.328 140.286C256.328 141.154 257.03 141.858 257.895 141.858Z" fill="#2D5967"/>
<path id="Vector_6" d="M235.948 105.429H223.406V118.143H236.09L235.948 105.429ZM233.953 116H225.401V107.429H233.953V116Z" fill="#2D5967"/>
<path id="Vector_7" d="M250.201 105.429H237.517V118.143H250.201V105.429ZM248.205 116H239.654V107.429H248.205V116Z" fill="#2D5967"/>
<path id="Vector_8" d="M235.948 119.714H223.406V132.428H236.09L235.948 119.714ZM233.953 130.286H225.401V121.714H233.953V130.286Z" fill="#2D5967"/>
<path id="Vector_9" d="M250.201 119.714H237.517V132.428H250.201V119.714ZM248.205 130.286H239.654V121.714H248.205V130.286Z" fill="#2D5967"/>
<path id="Vector_10" d="M264.452 105.429H251.768V118.143H264.452V105.429ZM262.457 116H253.906V107.429H262.457V116Z" fill="#2D5967"/>
<path id="Vector_11" d="M264.452 119.714H251.768V132.428H264.452V119.714ZM262.457 130.286H253.906V121.714H262.457V130.286Z" fill="#2D5967"/>
</g>
</g>
</g>
<g id="Icon Text Label">
<text id="IconLabel" fill="black" xml:space="preserve" style="white-space: pre" font-family="Oracle Sans" font-size="16" letter-spacing="0em"><tspan x="219.18" y="173.816">Source</tspan></text>
</g>
</g>
<g id="Icon Master_2">
<g id="Virtual-Machine-VM_2">
<g id="Group_4">
<g id="Group_5">
<path id="Vector_12" d="M937.849 155.286C936.139 155.286 934.714 153.857 934.714 152.143V99.8572C934.714 98.1429 936.139 96.7143 937.849 96.7143H990.153C991.864 96.7143 993.289 98.1429 993.289 99.8572V152.286C993.289 154 991.864 155.429 990.153 155.429L937.849 155.286Z" fill="white"/>
<path id="Vector_13" d="M990.01 97.4286C991.292 97.4286 992.432 98.5714 992.432 99.8571V152.286C992.432 153.571 991.292 154.714 990.01 154.714H937.848C936.565 154.571 935.425 153.429 935.425 152.143V99.8571C935.425 98.5714 936.565 97.4286 937.848 97.4286H990.01ZM990.01 96H937.848C935.71 96 934 97.7143 934 99.8571V152.286C934 154.286 935.71 156 937.848 156H990.152C992.29 156 994 154.286 994 152.143V99.8571C993.857 97.7143 992.147 96 990.01 96Z" fill="white"/>
</g>
<g id="Group_6">
<path id="Vector_14" d="M990.01 97.429H937.849C936.566 97.429 935.426 98.5719 935.426 99.8576V152.286C935.426 153.429 936.566 154.572 937.849 154.572H990.153C991.435 154.572 992.575 153.429 992.575 152.143V99.8576C992.433 98.5719 991.293 97.429 990.01 97.429ZM990.295 152.143C990.295 152.286 990.153 152.429 990.01 152.429H937.849C937.706 152.429 937.564 152.286 937.564 152.143V99.8576C937.564 99.7147 937.706 99.5719 937.849 99.5719H990.153C990.295 99.5719 990.438 99.7147 990.438 99.8576L990.295 152.143Z" fill="#2D5967"/>
<path id="Vector_15" d="M943.406 146.572H984.879V133.858H943.406V146.572ZM945.401 136.001H982.599V144.572H945.401V136.001Z" fill="#2D5967"/>
<path id="Vector_16" d="M977.895 141.858C978.761 141.858 979.463 141.154 979.463 140.286C979.463 139.418 978.761 138.715 977.895 138.715C977.029 138.715 976.327 139.418 976.327 140.286C976.327 141.154 977.029 141.858 977.895 141.858Z" fill="#2D5967"/>
<path id="Vector_17" d="M955.948 105.429H943.406V118.143H956.09L955.948 105.429ZM953.953 116H945.401V107.429H953.953V116Z" fill="#2D5967"/>
<path id="Vector_18" d="M970.201 105.429H957.517V118.143H970.201V105.429ZM968.205 116H959.654V107.429H968.205V116Z" fill="#2D5967"/>
<path id="Vector_19" d="M955.948 119.714H943.406V132.428H956.09L955.948 119.714ZM953.953 130.286H945.401V121.714H953.953V130.286Z" fill="#2D5967"/>
<path id="Vector_20" d="M970.201 119.714H957.517V132.428H970.201V119.714ZM968.205 130.286H959.654V121.714H968.205V130.286Z" fill="#2D5967"/>
<path id="Vector_21" d="M984.453 105.429H971.769V118.143H984.453V105.429ZM982.457 116H973.906V107.429H982.457V116Z" fill="#2D5967"/>
<path id="Vector_22" d="M984.453 119.714H971.769V132.428H984.453V119.714ZM982.457 130.286H973.906V121.714H982.457V130.286Z" fill="#2D5967"/>
</g>
</g>
</g>
<g id="Icon Text Label_2">
<text id="IconLabel_2" fill="black" xml:space="preserve" style="white-space: pre" font-family="Oracle Sans" font-size="16" letter-spacing="0em"><tspan x="922.258" y="173.816">Destination</tspan></text>
<text id="IconLabel_3" fill="black" xml:space="preserve" style="white-space: pre" font-family="Oracle Sans" font-size="16" letter-spacing="0em"><tspan x="923.117" y="189.816">10.2.1.99/24</tspan></text>
</g>
</g>
<g id="Group 1242">
<g id="1">
<path d="M16.5 295.5H287.5V327.5H20C18.067 327.5 16.5 325.933 16.5 324V295.5Z" fill="#E4E1DD"/>
<path d="M16.5 295.5H287.5V327.5H20C18.067 327.5 16.5 325.933 16.5 324V295.5Z" stroke="#9E9892"/>
<text id="Neutral Group Heading H3" fill="#312D2A" xml:space="preserve" style="white-space: pre" font-family="Oracle Sans" font-size="16" font-weight="600" letter-spacing="0em"><tspan x="25.9844" y="317.316">The Destination CIDR (10.2.1.0/24)</tspan></text>
</g>
<g id="2">
<path d="M287.5 295.5H471.5V324C471.5 325.933 469.933 327.5 468 327.5H287.5V295.5Z" fill="#E4E1DD"/>
<path d="M287.5 295.5H471.5V324C471.5 325.933 469.933 327.5 468 327.5H287.5V295.5Z" stroke="#9E9892"/>
<text id="Neutral Group Heading H3_2" fill="#312D2A" xml:space="preserve" style="white-space: pre" font-family="Oracle Sans" font-size="16" font-weight="600" letter-spacing="0em"><tspan x="328.344" y="317.316">Attachment-2</tspan></text>
</g>
<g id="Sub-Heading A">
<path d="M16.5 263.5H287.5V295.5H16.5V263.5Z" fill="#665F5B"/>
<path d="M16.5 263.5H287.5V295.5H16.5V263.5Z" stroke="#9E9892"/>
<text id="Neutral Group Heading H3_3" fill="white" xml:space="preserve" style="white-space: pre" font-family="Oracle Sans" font-size="16" font-weight="bold" letter-spacing="0em"><tspan x="107.492" y="285.316">Destination</tspan></text>
</g>
<g id="Sub-Heading B">
<path d="M287.5 263.5H471.5V295.5H287.5V263.5Z" fill="#665F5B"/>
<path d="M287.5 263.5H471.5V295.5H287.5V263.5Z" stroke="#9E9892"/>
<text id="Neutral Group Heading H3_4" fill="white" xml:space="preserve" style="white-space: pre" font-family="Oracle Sans" font-size="16" font-weight="bold" letter-spacing="0em"><tspan x="295.297" y="285.316">Next-Hop Attachment</tspan></text>
</g>
<g id="HEADING">
<path d="M16.5 235C16.5 233.067 18.067 231.5 20 231.5H468C469.933 231.5 471.5 233.067 471.5 235V263.5H16.5V235Z" fill="#312D2A"/>
<path d="M16.5 235C16.5 233.067 18.067 231.5 20 231.5H468C469.933 231.5 471.5 233.067 471.5 235V263.5H16.5V235Z" stroke="#9E9892"/>
<text id="Neutral Group Heading H3_5" fill="white" xml:space="preserve" style="white-space: pre" font-family="Oracle Sans" font-size="16" font-weight="800" letter-spacing="0em"><tspan x="94.4219" y="253.316">The DRG Route table for Attachment-1</tspan></text>
</g>
</g>
<path id="Vector 57" d="M430.473 125.507C430.864 125.116 430.864 124.483 430.473 124.093L424.109 117.729C423.719 117.338 423.086 117.338 422.695 117.729C422.305 118.119 422.305 118.752 422.695 119.143L428.352 124.8L422.695 130.457C422.305 130.847 422.305 131.48 422.695 131.871C423.086 132.261 423.719 132.261 424.109 131.871L430.473 125.507ZM280 125.8L281.971 125.8L281.971 123.8L280 123.8L280 125.8ZM285.912 125.8L289.853 125.8L289.853 123.8L285.912 123.8L285.912 125.8ZM293.794 125.8L297.735 125.8L297.735 123.8L293.794 123.8L293.794 125.8ZM301.677 125.8L305.618 125.8L305.618 123.8L301.677 123.8L301.677 125.8ZM309.559 125.8L313.5 125.8L313.5 123.8L309.559 123.8L309.559 125.8ZM317.442 125.8L321.383 125.8L321.383 123.8L317.442 123.8L317.442 125.8ZM325.324 125.8L329.265 125.8L329.265 123.8L325.324 123.8L325.324 125.8ZM333.206 125.8L337.148 125.8L337.148 123.8L333.206 123.8L333.206 125.8ZM341.089 125.8L345.03 125.8L345.03 123.8L341.089 123.8L341.089 125.8ZM348.971 125.8L352.912 125.8L352.912 123.8L348.971 123.8L348.971 125.8ZM356.854 125.8L360.795 125.8L360.795 123.8L356.854 123.8L356.854 125.8ZM364.736 125.8L368.677 125.8L368.677 123.8L364.736 123.8L364.736 125.8ZM372.619 125.8L376.56 125.8L376.56 123.8L372.619 123.8L372.619 125.8ZM380.501 125.8L384.442 125.8L384.442 123.8L380.501 123.8L380.501 125.8ZM388.383 125.8L392.325 125.8L392.325 123.8L388.383 123.8L388.383 125.8ZM396.266 125.8L400.207 125.8L400.207 123.8L396.266 123.8L396.266 125.8ZM404.148 125.8L408.089 125.8L408.089 123.8L404.148 123.8L404.148 125.8ZM412.031 125.8L415.972 125.8L415.972 123.8L412.031 123.8L412.031 125.8ZM419.913 125.8L423.854 125.8L423.854 123.8L419.913 123.8L419.913 125.8ZM427.796 125.8L429.766 125.8L429.766 123.8L427.796 123.8L427.796 125.8Z" fill="#312D2A"/>
<path id="Vector 60" d="M504.707 199.293C504.316 198.902 503.683 198.902 503.293 199.293L496.929 205.657C496.538 206.047 496.538 206.681 496.929 207.071C497.319 207.462 497.953 207.462 498.343 207.071L504 201.414L509.657 207.071C510.047 207.462 510.68 207.462 511.071 207.071C511.461 206.681 511.461 206.047 511.071 205.657L504.707 199.293ZM504 296L504 297L505 297L505 296L504 296ZM477.466 297L479.677 297L479.677 295L477.466 295L477.466 297ZM484.1 297L488.522 297L488.522 295L484.1 295L484.1 297ZM492.944 297L497.366 297L497.366 295L492.944 295L492.944 297ZM501.789 297L504 297L504 295L501.789 295L501.789 297ZM505 296L505 294L503 294L503 296L505 296ZM505 290L505 286L503 286L503 290L505 290ZM505 282L505 278L503 278L503 282L505 282ZM505 274L505 270L503 270L503 274L505 274ZM505 266L505 262L503 262L503 266L505 266ZM505 258L505 254L503 254L503 258L505 258ZM505 250L505 246L503 246L503 250L505 250ZM505 242L505 238L503 238L503 242L505 242ZM505 234L505 230L503 230L503 234L505 234ZM505 226L505 222L503 222L503 226L505 226ZM505 218L505 214L503 214L503 218L505 218ZM505 210L505 206L503 206L503 210L505 210ZM505 202L505 200L503 200L503 202L505 202Z" fill="#312D2A"/>
<path id="Vector 59" d="M664.707 125.507C665.098 125.116 665.098 124.483 664.707 124.093L658.343 117.729C657.953 117.338 657.319 117.338 656.929 117.729C656.538 118.119 656.538 118.752 656.929 119.143L662.586 124.8L656.929 130.457C656.538 130.847 656.538 131.48 656.929 131.871C657.319 132.261 657.952 132.261 658.343 131.871L664.707 125.507ZM542.7 125.8L664 125.8L664 123.8L542.7 123.8L542.7 125.8Z" fill="#312D2A"/>
<path id="Vector 58" d="M928.707 125.507C929.098 125.116 929.098 124.483 928.707 124.093L922.343 117.729C921.953 117.338 921.319 117.338 920.929 117.729C920.538 118.119 920.538 118.752 920.929 119.143L926.586 124.8L920.929 130.457C920.538 130.847 920.538 131.48 920.929 131.871C921.319 132.261 921.953 132.261 922.343 131.871L928.707 125.507ZM776 125.8L778 125.8L778 123.8L776 123.8L776 125.8ZM782 125.8L786 125.8L786 123.8L782 123.8L782 125.8ZM790 125.8L794 125.8L794 123.8L790 123.8L790 125.8ZM798 125.8L802 125.8L802 123.8L798 123.8L798 125.8ZM806 125.8L810 125.8L810 123.8L806 123.8L806 125.8ZM814 125.8L818 125.8L818 123.8L814 123.8L814 125.8ZM822 125.8L826 125.8L826 123.8L822 123.8L822 125.8ZM830 125.8L834 125.8L834 123.8L830 123.8L830 125.8ZM838 125.8L842 125.8L842 123.8L838 123.8L838 125.8ZM846 125.8L850 125.8L850 123.8L846 123.8L846 125.8ZM854 125.8L858 125.8L858 123.8L854 123.8L854 125.8ZM862 125.8L866 125.8L866 123.8L862 123.8L862 125.8ZM870 125.8L874 125.8L874 123.8L870 123.8L870 125.8ZM878 125.8L882 125.8L882 123.8L878 123.8L878 125.8ZM886 125.8L890 125.8L890 123.8L886 123.8L886 125.8ZM894 125.8L898 125.8L898 123.8L894 123.8L894 125.8ZM902 125.8L906 125.8L906 123.8L902 123.8L902 125.8ZM910 125.8L914 125.8L914 123.8L910 123.8L910 125.8ZM918 125.8L922 125.8L922 123.8L918 123.8L918 125.8ZM926 125.8L928 125.8L928 123.8L926 123.8L926 125.8Z" fill="#312D2A"/>
<g id="Gateway">
<rect id="Rectangle 699" x="603" y="59.6576" width="2" height="60" fill="#F5F4F2"/>
<g id="Icon Master_3">
<g id="Dynamic-Routing-Gateway-DRG">
<path id="Vector_23" d="M604 99.1814C614.783 99.1814 623.524 90.4403 623.524 79.6576C623.524 68.8749 614.783 60.1338 604 60.1338C593.217 60.1338 584.476 68.8749 584.476 79.6576C584.476 90.4403 593.217 99.1814 604 99.1814Z" fill="white"/>
<path id="Vector_24" d="M604 60.6099C607.767 60.6099 611.45 61.7271 614.582 63.82C617.715 65.913 620.156 68.8879 621.598 72.3684C623.039 75.8489 623.417 79.6787 622.682 83.3736C621.947 87.0684 620.133 90.4624 617.469 93.1263C614.805 95.7901 611.411 97.6042 607.716 98.3392C604.021 99.0741 600.191 98.6969 596.711 97.2553C593.23 95.8136 590.255 93.3722 588.162 90.2399C586.07 87.1075 584.952 83.4248 584.952 79.6576C584.952 74.6058 586.959 69.761 590.531 66.1889C594.103 62.6167 598.948 60.6099 604 60.6099ZM604 59.6576C600.044 59.6576 596.178 60.8305 592.889 63.0282C589.6 65.2258 587.036 68.3494 585.522 72.0039C584.009 75.6584 583.613 79.6797 584.384 83.5594C585.156 87.439 587.061 91.0026 589.858 93.7997C592.655 96.5967 596.219 98.5016 600.098 99.2733C603.978 100.045 607.999 99.6489 611.654 98.1352C615.308 96.6214 618.432 94.0579 620.629 90.769C622.827 87.48 624 83.6132 624 79.6576C624 74.3532 621.893 69.2662 618.142 65.5154C614.391 61.7647 609.304 59.6576 604 59.6576V59.6576Z" fill="white"/>
<path id="Vector_25" d="M604 60.6099C600.233 60.6099 596.55 61.7271 593.417 63.82C590.285 65.913 587.844 68.8879 586.402 72.3684C584.96 75.8488 584.583 79.6787 585.318 83.3736C586.053 87.0684 587.867 90.4624 590.531 93.1263C593.195 95.7901 596.589 97.6042 600.284 98.3392C603.979 99.0741 607.808 98.6969 611.289 97.2553C614.769 95.8136 617.744 93.3722 619.837 90.2398C621.93 87.1075 623.047 83.4248 623.047 79.6576C623.047 77.1562 622.555 74.6793 621.597 72.3684C620.64 70.0574 619.237 67.9576 617.468 66.1889C615.7 64.4201 613.6 63.0171 611.289 62.0599C608.978 61.1026 606.501 60.6099 604 60.6099ZM604 97.1147C600.547 97.1147 597.172 96.0909 594.301 94.1726C591.43 92.2544 589.193 89.528 587.871 86.3381C586.55 83.1482 586.204 79.6382 586.878 76.2518C587.552 72.8655 589.214 69.7549 591.656 67.3135C594.097 64.8721 597.208 63.2094 600.594 62.5358C603.98 61.8623 607.49 62.208 610.68 63.5293C613.87 64.8506 616.597 67.0881 618.515 69.9589C620.433 72.8297 621.457 76.2049 621.457 79.6576C621.452 84.2859 619.611 88.7233 616.338 91.9961C613.066 95.2688 608.628 97.1097 604 97.1147Z" fill="#2D5967"/>
<path id="Vector_26" d="M604.791 90.8385V68.6766L607.21 71.0956L608.334 69.9718L604 65.6385L599.667 69.9718L600.791 71.0956L603.21 68.6766V90.8385L600.791 88.4194L599.667 89.5432L604 93.8766L608.334 89.5432L607.21 88.4194L604.791 90.8385Z" fill="#2D5967"/>
<path id="Vector_27" d="M598.809 75.3242L597.685 76.448L600.105 78.8671H589.914V80.448H600.105L597.685 82.8671L598.809 83.9909L603.133 79.6575L598.809 75.3242Z" fill="#2D5967"/>
<path id="Vector_28" d="M607.895 78.8671L610.314 76.448L609.191 75.3242L604.867 79.6575L609.191 83.9909L610.314 82.8671L607.895 80.448H618.086V78.8671H607.895Z" fill="#2D5967"/>
</g>
</g>
</g>
<g id="Group 1245">
<g id="Group 1244">
<path id="Rectangle 701" d="M490.5 110.5H499.84V201H490.5V110.5Z" fill="white"/>
<path id="Rectangle 704" d="M710.5 110.5H719.84V201H710.5V110.5Z" fill="white"/>
<path id="Rectangle 702" d="M519.6 110.5H528.94V201H519.6V110.5Z" fill="#F5F4F2"/>
<path id="Rectangle 703" d="M678.701 110.5H688.041V201H678.701V110.5Z" fill="#F5F4F2"/>
</g>
<g id="Group 1243">
<g id="Icon Master_4">
<g id="attachment">
<g id="Group_7">
<g id="Group_8">
<g id="Group_9">
<path id="Vector_29" d="M479.008 155.286C477.136 155.286 475.615 153.764 475.615 151.893V100.107C475.615 98.2357 477.136 96.7143 479.008 96.7143H530.793C532.665 96.7143 534.186 98.2357 534.186 100.107V151.893C534.186 153.764 532.665 155.286 530.793 155.286H479.008Z" fill="white"/>
<path id="Vector_30" d="M530.793 97.4286C532.27 97.4286 533.472 98.63 533.472 100.107V132.25V136.893V151.893C533.472 153.37 532.27 154.571 530.793 154.571H512.698H509.959H479.008C477.53 154.571 476.329 153.37 476.329 151.893V136.893V132.25V100.107C476.329 98.63 477.53 97.4286 479.008 97.4286H509.96H512.699H530.793ZM530.793 96H512.698H509.959H479.008C476.743 96 474.9 97.8429 474.9 100.107V132.25V136.893V151.893C474.9 154.157 476.743 156 479.008 156H509.96H512.699H530.795C533.058 156 534.9 154.157 534.9 151.893V136.893V132.25V100.107C534.9 97.8429 533.058 96 530.793 96Z" fill="white"/>
</g>
<g id="Group_10">
<path id="Vector_31" d="M478.711 119.75H476.329V100.107C476.329 98.63 477.531 97.4286 479.008 97.4286H499.841V99.81H479.008C478.843 99.81 478.711 99.9429 478.711 100.107V119.75Z" fill="#2D5967"/>
</g>
<g id="Group_11">
<path id="Vector_32" d="M530.793 154.571H509.96V152.19H530.793C530.958 152.19 531.09 152.057 531.09 151.893V132.25H533.472V151.893C533.472 153.37 532.27 154.571 530.793 154.571Z" fill="#2D5967"/>
</g>
<g id="Group_12">
<path id="Vector_33" d="M499.841 154.571H479.008C477.531 154.571 476.329 153.37 476.329 151.893V132.25H478.711V151.893C478.711 152.057 478.843 152.19 479.008 152.19H499.841V154.571Z" fill="#2D5967"/>
</g>
<g id="Group_13">
<path id="Vector_34" d="M533.472 119.75H531.09V100.107C531.09 99.9429 530.958 99.81 530.793 99.81H509.96V97.4286H530.793C532.27 97.4286 533.472 98.63 533.472 100.107V119.75Z" fill="#2D5967"/>
</g>
<g id="Group_14">
<path id="Vector_35" d="M497.375 143.64C495.24 143.64 493.106 142.827 491.482 141.203C488.233 137.954 488.233 132.667 491.482 129.417L510.002 110.897C512.322 108.576 516.099 108.576 518.419 110.897C519.543 112.021 520.162 113.516 520.162 115.106C520.162 116.696 519.543 118.19 518.419 119.314L499.9 137.836C498.508 139.229 496.242 139.229 494.849 137.836C493.456 136.443 493.456 134.177 494.849 132.784L507.439 120.194C507.903 119.729 508.658 119.729 509.122 120.194C509.588 120.659 509.588 121.413 509.122 121.877L496.532 134.467C496.068 134.931 496.068 135.687 496.532 136.151C496.996 136.616 497.752 136.616 498.216 136.151L516.735 117.633C517.409 116.959 517.78 116.061 517.78 115.107C517.78 114.153 517.409 113.256 516.735 112.581C515.342 111.189 513.076 111.189 511.683 112.581L493.166 131.101C490.846 133.423 490.846 137.199 493.166 139.52C495.486 141.84 499.263 141.84 501.585 139.52L514.175 126.93C514.639 126.464 515.393 126.464 515.858 126.93C516.323 127.394 516.323 128.149 515.858 128.613L503.268 141.203C501.643 142.827 499.509 143.64 497.375 143.64Z" fill="#2D5967"/>
</g>
<g id="Group_15">
<path id="Vector_36" d="M478.711 119.75H476.329V100.107C476.329 98.63 477.531 97.4286 479.008 97.4286H499.841V99.81H479.008C478.843 99.81 478.711 99.9429 478.711 100.107V119.75Z" fill="#2D5967"/>
</g>
<g id="Group_16">
<path id="Vector_37" d="M530.793 154.571H509.96V152.19H530.793C530.958 152.19 531.09 152.057 531.09 151.893V132.25H533.472V151.893C533.472 153.37 532.27 154.571 530.793 154.571Z" fill="#2D5967"/>
</g>
<g id="Group_17">
<path id="Vector_38" d="M499.841 154.571H479.008C477.531 154.571 476.329 153.37 476.329 151.893V132.25H478.711V151.893C478.711 152.057 478.843 152.19 479.008 152.19H499.841V154.571Z" fill="#2D5967"/>
</g>
<g id="Group_18">
<path id="Vector_39" d="M533.472 119.75H531.09V100.107C531.09 99.9429 530.958 99.81 530.793 99.81H509.96V97.4286H530.793C532.27 97.4286 533.472 98.63 533.472 100.107V119.75Z" fill="#2D5967"/>
</g>
<g id="Group_19">
<path id="Vector_40" d="M497.375 143.64C495.24 143.64 493.106 142.827 491.482 141.203C488.233 137.954 488.233 132.667 491.482 129.417L510.002 110.897C512.322 108.576 516.099 108.576 518.419 110.897C519.543 112.021 520.162 113.516 520.162 115.106C520.162 116.696 519.543 118.19 518.419 119.314L499.9 137.836C498.508 139.229 496.242 139.229 494.849 137.836C493.456 136.443 493.456 134.177 494.849 132.784L507.439 120.194C507.903 119.729 508.658 119.729 509.122 120.194C509.588 120.659 509.588 121.413 509.122 121.877L496.532 134.467C496.068 134.931 496.068 135.687 496.532 136.151C496.996 136.616 497.752 136.616 498.216 136.151L516.735 117.633C517.409 116.959 517.78 116.061 517.78 115.107C517.78 114.153 517.409 113.256 516.735 112.581C515.342 111.189 513.076 111.189 511.683 112.581L493.166 131.101C490.846 133.423 490.846 137.199 493.166 139.52C495.486 141.84 499.263 141.84 501.585 139.52L514.175 126.93C514.639 126.464 515.393 126.464 515.858 126.93C516.323 127.394 516.323 128.149 515.858 128.613L503.268 141.203C501.643 142.827 499.509 143.64 497.375 143.64Z" fill="#2D5967"/>
</g>
</g>
</g>
</g>
<g id="Icon Text Label_3">
<text id="IconLabel_4" fill="black" xml:space="preserve" style="white-space: pre" font-family="Oracle Sans" font-size="16" letter-spacing="0em"><tspan x="456.439" y="173.816">Attachment-1</tspan></text>
<text id="IconLabel_5" fill="black" xml:space="preserve" style="white-space: pre" font-family="Oracle Sans" font-size="16" letter-spacing="0em"><tspan x="473.682" y="189.816">(Ingress)</tspan></text>
</g>
</g>
<g id="Icon Master_5">
<g id="attachment_2">
<g id="Group_20">
<g id="Group_21">
<g id="Group_22">
<path id="Vector_41" d="M676.806 155.286C674.935 155.286 673.413 153.764 673.413 151.893V100.107C673.413 98.2357 674.935 96.7143 676.806 96.7143H728.592C730.463 96.7143 731.985 98.2357 731.985 100.107V151.893C731.985 153.764 730.463 155.286 728.592 155.286H676.806Z" fill="white"/>
<path id="Vector_42" d="M728.592 97.4286C730.069 97.4286 731.27 98.63 731.27 100.107V132.25V136.893V151.893C731.27 153.37 730.069 154.571 728.592 154.571H710.496H707.757H676.806C675.329 154.571 674.127 153.37 674.127 151.893V136.893V132.25V100.107C674.127 98.63 675.329 97.4286 676.806 97.4286H707.759H710.497H728.592ZM728.592 96H710.496H707.757H676.806C674.542 96 672.699 97.8429 672.699 100.107V132.25V136.893V151.893C672.699 154.157 674.542 156 676.806 156H707.759H710.497H728.593C730.856 156 732.699 154.157 732.699 151.893V136.893V132.25V100.107C732.699 97.8429 730.856 96 728.592 96Z" fill="white"/>
</g>
<g id="Group_23">
<path id="Vector_43" d="M676.509 119.75H674.127V100.107C674.127 98.63 675.329 97.4286 676.806 97.4286H697.639V99.81H676.806C676.642 99.81 676.509 99.9429 676.509 100.107V119.75Z" fill="#2D5967"/>
</g>
<g id="Group_24">
<path id="Vector_44" d="M728.592 154.571H707.759V152.19H728.592C728.756 152.19 728.889 152.057 728.889 151.893V132.25H731.27V151.893C731.27 153.37 730.069 154.571 728.592 154.571Z" fill="#2D5967"/>
</g>
<g id="Group_25">
<path id="Vector_45" d="M697.639 154.571H676.806C675.329 154.571 674.127 153.37 674.127 151.893V132.25H676.509V151.893C676.509 152.057 676.642 152.19 676.806 152.19H697.639V154.571Z" fill="#2D5967"/>
</g>
<g id="Group_26">
<path id="Vector_46" d="M731.27 119.75H728.889V100.107C728.889 99.9429 728.756 99.81 728.592 99.81H707.759V97.4286H728.592C730.069 97.4286 731.27 98.63 731.27 100.107V119.75Z" fill="#2D5967"/>
</g>
<g id="Group_27">
<path id="Vector_47" d="M695.173 143.64C693.039 143.64 690.904 142.827 689.28 141.203C686.032 137.954 686.032 132.667 689.28 129.417L707.8 110.897C710.12 108.576 713.897 108.576 716.217 110.897C717.342 112.021 717.96 113.516 717.96 115.106C717.96 116.696 717.342 118.19 716.217 119.314L697.699 137.836C696.306 139.229 694.04 139.229 692.647 137.836C691.254 136.443 691.254 134.177 692.647 132.784L705.237 120.194C705.702 119.729 706.456 119.729 706.92 120.194C707.386 120.659 707.386 121.413 706.92 121.877L694.33 134.467C693.866 134.931 693.866 135.687 694.33 136.151C694.794 136.616 695.55 136.616 696.014 136.151L714.533 117.633C715.207 116.959 715.579 116.061 715.579 115.107C715.579 114.153 715.207 113.256 714.533 112.581C713.14 111.189 710.874 111.189 709.482 112.581L690.964 131.101C688.644 133.423 688.644 137.199 690.964 139.52C693.284 141.84 697.062 141.84 699.383 139.52L711.973 126.93C712.437 126.464 713.192 126.464 713.656 126.93C714.122 127.394 714.122 128.149 713.656 128.613L701.066 141.203C699.442 142.827 697.307 143.64 695.173 143.64Z" fill="#2D5967"/>
</g>
<g id="Group_28">
<path id="Vector_48" d="M676.509 119.75H674.127V100.107C674.127 98.63 675.329 97.4286 676.806 97.4286H697.639V99.81H676.806C676.642 99.81 676.509 99.9429 676.509 100.107V119.75Z" fill="#2D5967"/>
</g>
<g id="Group_29">
<path id="Vector_49" d="M728.592 154.571H707.759V152.19H728.592C728.756 152.19 728.889 152.057 728.889 151.893V132.25H731.27V151.893C731.27 153.37 730.069 154.571 728.592 154.571Z" fill="#2D5967"/>
</g>
<g id="Group_30">
<path id="Vector_50" d="M697.639 154.571H676.806C675.329 154.571 674.127 153.37 674.127 151.893V132.25H676.509V151.893C676.509 152.057 676.642 152.19 676.806 152.19H697.639V154.571Z" fill="#2D5967"/>
</g>
<g id="Group_31">
<path id="Vector_51" d="M731.27 119.75H728.889V100.107C728.889 99.9429 728.756 99.81 728.592 99.81H707.759V97.4286H728.592C730.069 97.4286 731.27 98.63 731.27 100.107V119.75Z" fill="#2D5967"/>
</g>
<g id="Group_32">
<path id="Vector_52" d="M695.173 143.64C693.039 143.64 690.904 142.827 689.28 141.203C686.032 137.954 686.032 132.667 689.28 129.417L707.8 110.897C710.12 108.576 713.897 108.576 716.217 110.897C717.342 112.021 717.96 113.516 717.96 115.106C717.96 116.696 717.342 118.19 716.217 119.314L697.699 137.836C696.306 139.229 694.04 139.229 692.647 137.836C691.254 136.443 691.254 134.177 692.647 132.784L705.237 120.194C705.702 119.729 706.456 119.729 706.92 120.194C707.386 120.659 707.386 121.413 706.92 121.877L694.33 134.467C693.866 134.931 693.866 135.687 694.33 136.151C694.794 136.616 695.55 136.616 696.014 136.151L714.533 117.633C715.207 116.959 715.579 116.061 715.579 115.107C715.579 114.153 715.207 113.256 714.533 112.581C713.14 111.189 710.874 111.189 709.482 112.581L690.964 131.101C688.644 133.423 688.644 137.199 690.964 139.52C693.284 141.84 697.062 141.84 699.383 139.52L711.973 126.93C712.437 126.464 713.192 126.464 713.656 126.93C714.122 127.394 714.122 128.149 713.656 128.613L701.066 141.203C699.442 142.827 697.307 143.64 695.173 143.64Z" fill="#2D5967"/>
</g>
</g>
</g>
</g>
<g id="Icon Text Label_4">
<text id="IconLabel_6" fill="black" xml:space="preserve" style="white-space: pre" font-family="Oracle Sans" font-size="16" letter-spacing="0em"><tspan x="653.042" y="173.816">Attachment-2</tspan></text>
<text id="IconLabel_7" fill="black" xml:space="preserve" style="white-space: pre" font-family="Oracle Sans" font-size="16" letter-spacing="0em"><tspan x="673.628" y="189.816">(Egress)</tspan></text>
</g>
</g>
<g id="Business-Arrow-Right">
<g id="Group 58">
<path id="Vector_53" d="M452.538 136.877L459.668 129.727H429.766V120.933H459.668L452.538 113.794L458.706 107.618L476.408 125.33L458.706 143.053L452.538 136.877Z" fill="white"/>
<path id="Vector_54" d="M458.706 108.412L475.604 125.33L458.706 142.249L457.155 140.707L453.33 136.877L461.037 129.16H440.332V121.545H461.037L453.33 113.84L458.706 108.457V108.412ZM458.706 106.859L457.902 107.664L452.538 112.99L451.734 113.794L452.538 114.599L458.299 120.412H439.2V130.339H458.299L452.538 136.118L451.734 136.923L452.538 137.716L456.363 141.501L457.902 143.076L458.706 143.88L459.51 143.076L476.407 126.135L477.2 125.33L476.407 124.537L459.51 107.618L458.706 106.814V106.859Z" fill="white"/>
<path id="Vector_55" d="M454.88 138.419L453.329 136.877L461.037 129.16H440.331V126.973H466.311L454.88 138.419Z" fill="#2D5967"/>
<path id="Vector_56" d="M458.706 142.25L457.155 140.709L472.514 125.331L457.155 109.965L458.706 108.413L475.604 125.331L458.706 142.25Z" fill="#2D5967"/>
<path id="Vector_57" d="M466.311 123.687H440.331V121.5H461.037L453.329 113.794L454.88 112.241L466.311 123.687Z" fill="#2D5967"/>
</g>
</g>
<g id="Business-Arrow-Right_2">
<g id="Group 58_2">
<path id="Vector_58" d="M745.837 136.877L752.968 129.727H723.065V120.933H752.968L745.837 113.794L752.006 107.618L769.707 125.33L752.006 143.053L745.837 136.877Z" fill="white"/>
<path id="Vector_59" d="M752.005 108.412L768.903 125.33L752.005 142.249L750.455 140.707L746.629 136.877L754.337 129.16H733.631V121.545H754.337L746.629 113.84L752.005 108.457V108.412ZM752.005 106.859L751.202 107.664L745.837 112.99L745.033 113.794L745.837 114.599L751.598 120.412H732.499V130.339H751.598L745.837 136.118L745.033 136.923L745.837 137.716L749.662 141.501L751.202 143.076L752.005 143.88L752.809 143.076L769.707 126.135L770.499 125.33L769.707 124.537L752.809 107.618L752.005 106.814V106.859Z" fill="white"/>
<path id="Vector_60" d="M748.179 138.419L746.629 136.877L754.336 129.16H733.63V126.973H759.611L748.179 138.419Z" fill="#2D5967"/>
<path id="Vector_61" d="M752.005 142.25L750.455 140.709L765.813 125.331L750.455 109.965L752.005 108.413L768.903 125.331L752.005 142.25Z" fill="#2D5967"/>
<path id="Vector_62" d="M759.611 123.687H733.63V121.5H754.336L746.629 113.794L748.179 112.241L759.611 123.687Z" fill="#2D5967"/>
</g>
</g>
</g>
</g>
</g>
<defs>
<clipPath id="clip0_11851_1857">
<rect width="1208" height="344" fill="white"/>
</clipPath>
</defs>
</svg>
