<svg width="1288" height="347" viewBox="0 0 1288 347" fill="none" xmlns="http://www.w3.org/2000/svg">
<g id="mongodb-atp-s-azure-arch-variant_opt2" clip-path="url(#clip0_20465_16526)">
<rect width="1288" height="347" fill="white"/>
<g id="OCI Region">
<rect x="1" y="28" width="502" height="318" fill="white"/>
<rect x="1" y="28" width="502" height="318" stroke="#706E6F" stroke-width="2" stroke-dasharray="4 4"/>
<text id="Optional" fill="#706E6F" xml:space="preserve" style="white-space: pre" font-family="Oracle Sans" font-size="16" letter-spacing="0em"><tspan x="186.07" y="48.816">Azure App Service</tspan></text>
</g>
<g id="Azure Cloud boxes">
<rect x="553" y="28" width="246" height="318" fill="white"/>
<rect x="553" y="28" width="246" height="318" stroke="#706E6F" stroke-width="2" stroke-dasharray="4 4"/>
<g id="VNet icon">
<rect id="White Vnet BG" x="747" y="25" width="45" height="6" fill="white"/>
<g id="Icon Master">
<g id="Azure_VNet">
<g id="Group">
<g id="Group_2">
<path id="Vector" d="M778.294 30.5451C779.724 30.5451 780.884 29.3854 780.884 27.9548C780.884 26.5242 779.724 25.3645 778.294 25.3645C776.863 25.3645 775.704 26.5242 775.704 27.9548C775.704 29.3854 776.863 30.5451 778.294 30.5451Z" fill="url(#paint0_linear_20465_16526)"/>
<path id="Vector_2" d="M770.125 30.5451C771.555 30.5451 772.715 29.3854 772.715 27.9548C772.715 26.5242 771.555 25.3645 770.125 25.3645C768.694 25.3645 767.534 26.5242 767.534 27.9548C767.534 29.3854 768.694 30.5451 770.125 30.5451Z" fill="url(#paint1_linear_20465_16526)"/>
<path id="Vector_3" d="M761.955 30.5451C763.386 30.5451 764.545 29.3854 764.545 27.9548C764.545 26.5242 763.386 25.3645 761.955 25.3645C760.525 25.3645 759.365 26.5242 759.365 27.9548C759.365 29.3854 760.525 30.5451 761.955 30.5451Z" fill="url(#paint2_linear_20465_16526)"/>
<path id="Vector_4" d="M763.748 38.3161L762.154 39.9102C761.955 39.9102 761.557 39.9102 761.357 39.7109L750.398 28.752C750 28.3535 750 27.5565 750.398 26.9587L751.993 25.564L763.748 37.3199C763.948 37.5191 763.948 37.9176 763.748 38.3161Z" fill="#50E6FF"/>
<path id="Vector_5" d="M762.154 16.199L763.748 17.793C763.948 17.9923 763.948 18.3908 763.748 18.59L751.993 30.3459L750.399 28.7519C749.801 28.1542 749.801 27.3572 750.399 26.9587L761.158 16.199C761.357 15.9997 761.756 15.9997 762.154 16.199Z" fill="#1490DF"/>
<path id="Vector_6" d="M788.057 25.3645L789.452 26.7593C790.05 27.357 790.05 28.154 789.452 28.5525L778.493 39.5115C778.294 39.7107 777.895 39.7107 777.497 39.5115L775.903 37.9174C775.704 37.7182 775.704 37.3197 775.903 36.9212L788.057 25.3645Z" fill="#50E6FF"/>
<path id="Vector_7" d="M789.651 28.7519L788.057 30.3459L776.501 18.7893C776.301 18.59 776.301 18.1915 776.501 17.793L777.895 16.199C778.095 15.9997 778.493 15.9997 778.892 16.199L789.651 26.9587C790.05 27.3572 790.05 28.1542 789.651 28.7519Z" fill="#1490DF"/>
</g>
</g>
</g>
</g>
</g>
<text id="VNet" fill="#706E6F" xml:space="preserve" style="white-space: pre" font-family="Oracle Sans" font-size="16" font-weight="600" letter-spacing="0em"><tspan x="561" y="49.816">Application VNet/Subnet</tspan></text>
</g>
<g id="Azure Cloud boxes_2">
<rect x="938" y="28" width="349" height="318" fill="white"/>
<rect x="938" y="28" width="349" height="318" stroke="#706E6F" stroke-width="2" stroke-dasharray="4 4"/>
<g id="VNet icon_2">
<rect id="White Vnet BG_2" x="1235" y="25" width="45" height="6" fill="white"/>
<g id="Icon Master_2">
<g id="Azure_VNet_2">
<g id="Group_3">
<g id="Group_4">
<path id="Vector_8" d="M1266.29 30.5451C1267.72 30.5451 1268.88 29.3854 1268.88 27.9548C1268.88 26.5242 1267.72 25.3645 1266.29 25.3645C1264.86 25.3645 1263.7 26.5242 1263.7 27.9548C1263.7 29.3854 1264.86 30.5451 1266.29 30.5451Z" fill="url(#paint3_linear_20465_16526)"/>
<path id="Vector_9" d="M1258.12 30.5451C1259.56 30.5451 1260.71 29.3854 1260.71 27.9548C1260.71 26.5242 1259.56 25.3645 1258.12 25.3645C1256.69 25.3645 1255.53 26.5242 1255.53 27.9548C1255.53 29.3854 1256.69 30.5451 1258.12 30.5451Z" fill="url(#paint4_linear_20465_16526)"/>
<path id="Vector_10" d="M1249.96 30.5451C1251.39 30.5451 1252.55 29.3854 1252.55 27.9548C1252.55 26.5242 1251.39 25.3645 1249.96 25.3645C1248.52 25.3645 1247.36 26.5242 1247.36 27.9548C1247.36 29.3854 1248.52 30.5451 1249.96 30.5451Z" fill="url(#paint5_linear_20465_16526)"/>
<path id="Vector_11" d="M1251.75 38.3161L1250.15 39.9102C1249.96 39.9102 1249.56 39.9102 1249.36 39.7109L1238.4 28.752C1238 28.3535 1238 27.5565 1238.4 26.9587L1239.99 25.564L1251.75 37.3199C1251.95 37.5191 1251.95 37.9176 1251.75 38.3161Z" fill="#50E6FF"/>
<path id="Vector_12" d="M1250.15 16.199L1251.75 17.793C1251.95 17.9923 1251.95 18.3908 1251.75 18.59L1239.99 30.3459L1238.4 28.7519C1237.8 28.1542 1237.8 27.3572 1238.4 26.9587L1249.16 16.199C1249.36 15.9997 1249.76 15.9997 1250.15 16.199Z" fill="#1490DF"/>
<path id="Vector_13" d="M1276.06 25.3645L1277.45 26.7593C1278.05 27.357 1278.05 28.154 1277.45 28.5525L1266.49 39.5115C1266.29 39.7107 1265.9 39.7107 1265.5 39.5115L1263.9 37.9174C1263.7 37.7182 1263.7 37.3197 1263.9 36.9212L1276.06 25.3645Z" fill="#50E6FF"/>
<path id="Vector_14" d="M1277.65 28.7519L1276.06 30.3459L1264.5 18.7893C1264.3 18.59 1264.3 18.1915 1264.5 17.793L1265.9 16.199C1266.09 15.9997 1266.49 15.9997 1266.89 16.199L1277.65 26.9587C1278.05 27.3572 1278.05 28.1542 1277.65 28.7519Z" fill="#1490DF"/>
</g>
</g>
</g>
</g>
</g>
<text id="VNet_2" fill="#706E6F" xml:space="preserve" style="white-space: pre" font-family="Oracle Sans" font-size="16" font-weight="600" letter-spacing="0em"><tspan x="946" y="49.816">Primary Database VNet</tspan></text>
</g>
<g id="Azure Cloud boxes_3">
<rect x="568.5" y="67.5" width="215" height="263" fill="white"/>
<rect x="568.5" y="67.5" width="215" height="263" stroke="#706E6F" stroke-dasharray="8 4"/>
<text id="Azure subnet" fill="#706E6F" xml:space="preserve" style="white-space: pre" font-family="Oracle Sans" font-size="16" font-weight="600" letter-spacing="0em"><tspan x="576" y="88.816">Integration subnet</tspan></text>
</g>
<g id="Icon Master_3">
<g id="Edge">
<g id="Group 1245">
<circle id="Ellipse 14" cx="676" cy="183" r="16" fill="white"/>
<circle id="Ellipse 13" cx="676" cy="183" r="13" fill="white" stroke="#2D5967" stroke-width="2"/>
<circle id="Ellipse 12" cx="676" cy="183" r="9" fill="white" stroke="#2D5967" stroke-width="2"/>
</g>
</g>
<g id="Icon Text Label">
<text id="IconLabel" fill="black" xml:space="preserve" style="white-space: pre" font-family="Oracle Sans" font-size="16" letter-spacing="0em"><tspan x="619.305" y="216.816">Virtual Network</tspan></text>
<text id="IconLabel_2" fill="black" xml:space="preserve" style="white-space: pre" font-family="Oracle Sans" font-size="16" letter-spacing="0em"><tspan x="644.164" y="232.816">Interface</tspan></text>
</g>
</g>
<g id="Azure Cloud boxes_4">
<rect x="952.5" y="67.5" width="319" height="263" fill="white"/>
<rect x="952.5" y="67.5" width="319" height="263" stroke="#706E6F" stroke-dasharray="8 4"/>
<text id="Azure subnet_2" fill="#706E6F" xml:space="preserve" style="white-space: pre" font-family="Oracle Sans" font-size="16" font-weight="600" letter-spacing="0em"><tspan x="960" y="88.816">Delegated subnet</tspan></text>
</g>
<g id="Group 2">
<g id="OCI Region_2">
<rect x="9.5" y="67.5" width="486" height="263" fill="white"/>
<rect x="9.5" y="67.5" width="486" height="263" stroke="#9E9892" stroke-dasharray="2 2"/>
<text id="Tier" fill="#312D2A" xml:space="preserve" style="white-space: pre" font-family="Oracle Sans" font-size="16" letter-spacing="0em"><tspan x="17" y="88.816">Scale Unit</tspan></text>
</g>
</g>
<g id="Group 6">
<g id="OCI Region_3">
<rect x="17.5" y="107.5" width="151" height="215" rx="3.5" fill="white"/>
<rect x="17.5" y="107.5" width="151" height="215" rx="3.5" stroke="#9E9892"/>
</g>
<path id="Vector 13" d="M169 211H17" stroke="#9E9892" stroke-dasharray="2 2"/>
<g id="Icon Master_4">
<g id="Srv-Oracle REST&#226;&#128;&#168;Data Services">
<g id="Group 437">
<path id="Vector_15" d="M80.4221 250.506L76.6895 221.652L93.4529 217.494L110.292 221.652L106.37 250.506L93.4624 256.478L80.4221 250.506Z" fill="white"/>
<path id="Vector_16" d="M93.4528 217.949L109.76 222.013L105.933 250.23L93.4623 255.927L80.8589 250.23L77.2212 222.013L93.4528 217.949ZM93.4528 217L93.2629 217.057L76.9838 221.092L76.167 221.291L76.2715 222.136L79.9661 250.306L80.0326 250.829L80.5074 251.047L93.1109 256.82L93.5098 257L93.9087 256.82L106.379 251.047L106.854 250.829L106.921 250.306L110.72 222.136L110.834 221.301L110.007 221.092L93.6808 217.057L93.4528 217Z" fill="white"/>
<path id="Vector_17" d="M93.4527 217.949L77.2211 222.013L80.8588 250.23L93.4622 255.927L105.933 250.23L109.732 222.061L93.4527 217.949ZM104.66 249.281L93.4527 254.408L82.1504 249.281L78.7693 223.076L93.4527 219.421L108.203 223.076L104.66 249.281Z" fill="#2D5967"/>
<path id="Vector_18" d="M93.4906 233.976C92.7308 233.976 86.0634 234.042 86.0634 236.34C86.0634 236.34 86.0634 236.397 86.0634 236.425C86.0634 236.454 86.0634 236.482 86.0634 236.501V248.16C86.0634 250.354 92.2464 250.468 93.4906 250.468C94.7348 250.468 100.908 250.354 100.908 248.16V236.501C100.912 236.476 100.912 236.451 100.908 236.425C100.913 236.397 100.913 236.368 100.908 236.34C100.908 234.09 94.2124 233.976 93.4906 233.976ZM93.4906 249.062C89.9289 249.062 87.8394 248.426 87.469 248.056V245.749C89.4209 246.336 91.4526 246.615 93.4906 246.575C95.5254 246.614 97.5539 246.336 99.5026 245.749V248.056C99.1322 248.426 97.0617 249.062 93.4906 249.062V249.062ZM99.5026 244.173C99.1322 244.534 97.0427 245.17 93.4906 245.17C89.9384 245.17 87.8394 244.534 87.469 244.173V241.913C89.4209 242.501 91.4526 242.779 93.4906 242.739C95.5254 242.779 97.5539 242.5 99.5026 241.913V244.173ZM99.5026 240.375C99.1322 240.736 97.0427 241.372 93.4906 241.372C89.9384 241.372 87.8394 240.736 87.469 240.337V237.888C89.4188 238.488 91.4506 238.779 93.4906 238.752C95.5274 238.779 97.5559 238.487 99.5026 237.888V240.375ZM99.4076 236.378C98.8473 236.758 96.8243 237.327 93.4906 237.327C90.1569 237.327 88.1244 236.748 87.5735 236.378C88.1244 235.998 90.1569 235.428 93.4906 235.428C96.8243 235.428 98.8473 235.989 99.4076 236.34V236.378Z" fill="#2D5967"/>
<path id="Vector_19" d="M86.6712 229.485L85.6739 230.435L88.4568 233.217L91.2301 230.444L90.2803 229.495L89.1881 230.577V230.416C89.1732 228.91 88.5681 227.469 87.5026 226.404C86.4371 225.339 84.9962 224.734 83.4895 224.719H81.8654V226.067H83.4135C84.5639 226.07 85.6664 226.528 86.4799 227.341C87.2933 228.154 87.7514 229.256 87.7539 230.406V230.568L86.6712 229.485Z" fill="#2D5967"/>
<path id="Vector_20" d="M103.558 224.662C102.052 224.676 100.611 225.281 99.5452 226.347C98.4797 227.412 97.8746 228.852 97.8597 230.358V230.52L96.777 229.437L95.7797 230.387L98.5626 233.159L101.336 230.377L100.339 229.428L99.2654 230.51V230.349C99.2654 229.2 99.7214 228.097 100.533 227.284C101.345 226.471 102.447 226.012 103.596 226.01H105.163V224.662H103.558Z" fill="#2D5967"/>
<path id="Vector_21" d="M92.788 224.947V232.429H94.1937V224.947L96.3212 227.074L97.3184 226.087L93.4908 222.26L89.6633 226.087L90.651 227.074L92.788 224.947Z" fill="#2D5967"/>
</g>
</g>
<g id="Icon Text Label_2">
<text id="IconLabel_3" fill="black" xml:space="preserve" style="white-space: pre" font-family="Oracle Sans" font-size="16" letter-spacing="0em"><tspan x="49.2656" y="274.816">Oracle REST</tspan></text>
<text id="IconLabel_4" fill="black" xml:space="preserve" style="white-space: pre" font-family="Oracle Sans" font-size="16" letter-spacing="0em"><tspan x="31.0625" y="290.816">Data Service with </tspan></text>
<text id="IconLabel_5" fill="black" xml:space="preserve" style="white-space: pre" font-family="Oracle Sans" font-size="16" letter-spacing="0em"><tspan x="42.7656" y="306.816">MongoDB API</tspan></text>
</g>
</g>
<g id="Icon Master_5">
<g id="Application">
<g id="Group 273">
<path id="Vector_22" d="M118.886 117.715H67.1143C65.2365 117.715 63.7143 119.237 63.7143 121.115V172.886C63.7143 174.764 65.2365 176.286 67.1143 176.286H118.886C120.763 176.286 122.286 174.764 122.286 172.886V121.115C122.286 119.237 120.763 117.715 118.886 117.715Z" fill="white"/>
<path id="Vector_23" d="M118.9 118.429C119.61 118.432 120.289 118.717 120.79 119.22C121.29 119.723 121.571 120.404 121.571 121.114V172.9C121.571 173.609 121.29 174.288 120.789 174.789C120.288 175.29 119.609 175.571 118.9 175.571H67.1143C66.4045 175.571 65.7235 175.29 65.2202 174.79C64.717 174.289 64.4323 173.61 64.4286 172.9V121.114C64.4286 120.402 64.7115 119.719 65.2152 119.215C65.7189 118.712 66.402 118.429 67.1143 118.429H118.9ZM118.9 117H67.1143C66.0231 117 64.9766 117.433 64.205 118.205C63.4335 118.977 63 120.023 63 121.114V172.9C63.0038 173.989 63.4389 175.032 64.2101 175.8C64.9813 176.569 66.0256 177 67.1143 177H118.9C119.986 176.996 121.027 176.563 121.795 175.795C122.563 175.027 122.996 173.986 123 172.9V121.114C123 120.026 122.569 118.981 121.8 118.21C121.032 117.439 119.989 117.004 118.9 117V117Z" fill="white"/>
<path id="Vector_24" d="M118.9 118.429H67.1144C66.4021 118.429 65.7189 118.712 65.2153 119.216C64.7116 119.719 64.4286 120.402 64.4286 121.115V172.9C64.4324 173.61 64.717 174.29 65.2203 174.79C65.7236 175.291 66.4045 175.572 67.1144 175.572H118.9C119.609 175.572 120.288 175.29 120.789 174.789C121.29 174.288 121.572 173.609 121.572 172.9V121.115C121.572 120.405 121.291 119.724 120.79 119.221C120.289 118.717 119.61 118.433 118.9 118.429V118.429ZM67.1144 120.815H118.9C118.939 120.815 118.977 120.822 119.013 120.838C119.048 120.853 119.081 120.875 119.107 120.903C119.134 120.931 119.155 120.965 119.168 121.001C119.182 121.037 119.188 121.076 119.186 121.115V127.958H66.8144V121.115C66.8144 121.035 66.846 120.959 66.9022 120.903C66.9585 120.846 67.0348 120.815 67.1144 120.815V120.815ZM118.9 173.186H67.1144C67.0757 173.188 67.037 173.182 67.0006 173.169C66.9643 173.155 66.9311 173.134 66.903 173.108C66.875 173.081 66.8526 173.049 66.8374 173.013C66.8222 172.977 66.8143 172.939 66.8144 172.9V130.329H119.186V172.9C119.186 172.976 119.156 173.049 119.102 173.102C119.049 173.156 118.976 173.186 118.9 173.186V173.186Z" fill="#2D5967"/>
<path id="Vector_25" d="M70.8285 126.072C71.649 126.072 72.3142 125.407 72.3142 124.586C72.3142 123.766 71.649 123.1 70.8285 123.1C70.008 123.1 69.3428 123.766 69.3428 124.586C69.3428 125.407 70.008 126.072 70.8285 126.072Z" fill="#2D5967"/>
<path id="Vector_26" d="M76.0856 126.072C76.9062 126.072 77.5713 125.407 77.5713 124.586C77.5713 123.766 76.9062 123.1 76.0856 123.1C75.2651 123.1 74.5999 123.766 74.5999 124.586C74.5999 125.407 75.2651 126.072 76.0856 126.072Z" fill="#2D5967"/>
<path id="Vector_27" d="M81.2429 126.072C82.0635 126.072 82.7286 125.407 82.7286 124.586C82.7286 123.766 82.0635 123.1 81.2429 123.1C80.4224 123.1 79.7572 123.766 79.7572 124.586C79.7572 125.407 80.4224 126.072 81.2429 126.072Z" fill="#2D5967"/>
<path id="Vector_28" d="M93 142.571C91.2398 142.571 89.5191 143.093 88.0555 144.071C86.5919 145.049 85.4511 146.439 84.7775 148.065C84.1039 149.692 83.9276 151.481 84.2711 153.208C84.6145 154.934 85.4621 156.52 86.7068 157.765C87.9515 159.009 89.5373 159.857 91.2637 160.2C92.9902 160.544 94.7797 160.367 96.4059 159.694C98.0322 159.02 99.4222 157.879 100.4 156.416C101.378 154.952 101.9 153.232 101.9 151.471C101.9 150.303 101.67 149.145 101.223 148.065C100.775 146.986 100.12 146.004 99.2933 145.178C98.4669 144.352 97.4857 143.696 96.4059 143.249C95.3261 142.801 94.1688 142.571 93 142.571V142.571ZM93 157.986C91.7076 157.988 90.4434 157.608 89.3676 156.891C88.2918 156.175 87.4528 155.156 86.9569 153.962C86.461 152.768 86.3305 151.455 86.5819 150.187C86.8334 148.919 87.4555 147.755 88.3694 146.841C89.2833 145.927 90.4479 145.305 91.7156 145.053C92.9834 144.802 94.2972 144.932 95.4907 145.428C96.6843 145.924 97.7037 146.763 98.42 147.839C99.1363 148.915 99.5172 150.179 99.5143 151.471C99.5143 153.199 98.828 154.856 97.6063 156.078C96.3847 157.299 94.7277 157.986 93 157.986Z" fill="#2D5967"/>
<path id="Vector_29" d="M106.814 145.2L109.671 141.629L102.843 134.786L99.2714 137.643L98.3429 137.257L97.8286 132.715H88.1714L87.6571 137.257L86.7286 137.643L83.1571 134.786L76.3286 141.629L79.1857 145.2C79.0429 145.5 78.9143 145.815 78.8 146.129L74.2571 146.629V156.3L78.8 156.8C78.9143 157.115 79.0429 157.429 79.1857 157.729L76.3286 161.3L83.1571 168.143L86.7286 165.286L87.6571 165.672L88.1714 170.215H97.8286L98.3429 165.672L99.2714 165.286L102.843 168.143L109.671 161.286L106.814 157.715C106.957 157.415 107.086 157.1 107.2 156.786L111.757 156.286V146.629L107.2 146.129C107.086 145.815 106.957 145.572 106.814 145.2ZM109.371 154.143L105.429 154.572L105.186 155.315C104.966 156.003 104.689 156.672 104.357 157.315L104 158L106.486 161.1L102.671 164.915L99.5714 162.472L98.8714 162.829C98.2288 163.16 97.5599 163.437 96.8714 163.657L96.1429 163.886L95.7 167.829H90.3L89.8571 163.886L89.1286 163.657C88.4401 163.437 87.7712 163.16 87.1286 162.829L86.4286 162.472L83.3286 164.943L79.5143 161.129L82 158.029L81.6429 157.343C81.3109 156.701 81.0338 156.032 80.8143 155.343L80.5714 154.6L76.6286 154.143V148.757L80.5714 148.329L80.8143 147.586C81.0338 146.897 81.3109 146.228 81.6429 145.586L82 144.9L79.5143 141.8L83.3286 137.986L86.4286 140.457L87.1286 140.1C87.7712 139.769 88.4401 139.492 89.1286 139.272L89.8571 139.043L90.3 135.1H95.7L96.1429 139.043L96.8714 139.272C97.5599 139.492 98.2288 139.769 98.8714 140.1L99.5714 140.457L102.671 137.986L106.486 141.8L104 144.9L104.429 145.572C104.76 146.214 105.038 146.883 105.257 147.572L105.5 148.315L109.443 148.743L109.371 154.143Z" fill="#2D5967"/>
</g>
</g>
<g id="Icon Text Label_3">
<text id="IconLabel_6" fill="black" xml:space="preserve" style="white-space: pre" font-family="Oracle Sans" font-size="16" letter-spacing="0em"><tspan x="24.4297" y="194.816">Worker Application</tspan></text>
</g>
</g>
</g>
<g id="Group 7">
<g id="OCI Region_4">
<rect x="177" y="107.5" width="151" height="215" rx="3.5" fill="white"/>
<rect x="177" y="107.5" width="151" height="215" rx="3.5" stroke="#9E9892"/>
</g>
<path id="Vector 13_2" d="M328.5 211H176.5" stroke="#9E9892" stroke-dasharray="2 2"/>
<g id="Icon Master_6">
<g id="Srv-Oracle REST&#226;&#128;&#168;Data Services_2">
<g id="Group 437_2">
<path id="Vector_30" d="M239.922 250.506L236.189 221.652L252.953 217.494L269.792 221.652L265.87 250.506L252.962 256.478L239.922 250.506Z" fill="white"/>
<path id="Vector_31" d="M252.953 217.949L269.26 222.013L265.433 250.23L252.962 255.927L240.359 250.23L236.721 222.013L252.953 217.949ZM252.953 217L252.763 217.057L236.484 221.092L235.667 221.291L235.771 222.136L239.466 250.306L239.533 250.829L240.007 251.047L252.611 256.82L253.01 257L253.409 256.82L265.879 251.047L266.354 250.829L266.421 250.306L270.22 222.136L270.334 221.301L269.507 221.092L253.181 217.057L252.953 217Z" fill="white"/>
<path id="Vector_32" d="M252.953 217.949L236.721 222.013L240.359 250.23L252.962 255.927L265.433 250.23L269.232 222.061L252.953 217.949ZM264.16 249.281L252.953 254.408L241.65 249.281L238.269 223.076L252.953 219.421L267.703 223.076L264.16 249.281Z" fill="#2D5967"/>
<path id="Vector_33" d="M252.991 233.976C252.231 233.976 245.563 234.042 245.563 236.34C245.563 236.34 245.563 236.397 245.563 236.425C245.563 236.454 245.563 236.482 245.563 236.501V248.16C245.563 250.354 251.746 250.468 252.991 250.468C254.235 250.468 260.408 250.354 260.408 248.16V236.501C260.412 236.476 260.412 236.451 260.408 236.425C260.413 236.397 260.413 236.368 260.408 236.34C260.408 234.09 253.712 233.976 252.991 233.976ZM252.991 249.062C249.429 249.062 247.339 248.426 246.969 248.056V245.749C248.921 246.336 250.953 246.615 252.991 246.575C255.025 246.614 257.054 246.336 259.003 245.749V248.056C258.632 248.426 256.562 249.062 252.991 249.062V249.062ZM259.003 244.173C258.632 244.534 256.543 245.17 252.991 245.17C249.438 245.17 247.339 244.534 246.969 244.173V241.913C248.921 242.501 250.953 242.779 252.991 242.739C255.025 242.779 257.054 242.5 259.003 241.913V244.173ZM259.003 240.375C258.632 240.736 256.543 241.372 252.991 241.372C249.438 241.372 247.339 240.736 246.969 240.337V237.888C248.919 238.488 250.951 238.779 252.991 238.752C255.027 238.779 257.056 238.487 259.003 237.888V240.375ZM258.908 236.378C258.347 236.758 256.324 237.327 252.991 237.327C249.657 237.327 247.624 236.748 247.073 236.378C247.624 235.998 249.657 235.428 252.991 235.428C256.324 235.428 258.347 235.989 258.908 236.34V236.378Z" fill="#2D5967"/>
<path id="Vector_34" d="M246.171 229.485L245.174 230.435L247.957 233.217L250.73 230.444L249.78 229.495L248.688 230.577V230.416C248.673 228.91 248.068 227.469 247.003 226.404C245.937 225.339 244.496 224.734 242.989 224.719H241.365V226.067H242.913C244.064 226.07 245.166 226.528 245.98 227.341C246.793 228.154 247.251 229.256 247.254 230.406V230.568L246.171 229.485Z" fill="#2D5967"/>
<path id="Vector_35" d="M263.058 224.662C261.552 224.676 260.111 225.281 259.045 226.347C257.98 227.412 257.375 228.852 257.36 230.358V230.52L256.277 229.437L255.28 230.387L258.063 233.159L260.836 230.377L259.839 229.428L258.765 230.51V230.349C258.765 229.2 259.221 228.097 260.033 227.284C260.845 226.471 261.947 226.012 263.096 226.01H264.663V224.662H263.058Z" fill="#2D5967"/>
<path id="Vector_36" d="M252.288 224.947V232.429H253.694V224.947L255.821 227.074L256.818 226.087L252.991 222.26L249.163 226.087L250.151 227.074L252.288 224.947Z" fill="#2D5967"/>
</g>
</g>
<g id="Icon Text Label_4">
<text id="IconLabel_7" fill="black" xml:space="preserve" style="white-space: pre" font-family="Oracle Sans" font-size="16" letter-spacing="0em"><tspan x="208.766" y="274.816">Oracle REST</tspan></text>
<text id="IconLabel_8" fill="black" xml:space="preserve" style="white-space: pre" font-family="Oracle Sans" font-size="16" letter-spacing="0em"><tspan x="190.562" y="290.816">Data Service with </tspan></text>
<text id="IconLabel_9" fill="black" xml:space="preserve" style="white-space: pre" font-family="Oracle Sans" font-size="16" letter-spacing="0em"><tspan x="202.266" y="306.816">MongoDB API</tspan></text>
</g>
</g>
<g id="Icon Master_7">
<g id="Application_2">
<g id="Group 273_2">
<path id="Vector_37" d="M278.386 117.715H226.614C224.737 117.715 223.214 119.237 223.214 121.115V172.886C223.214 174.764 224.737 176.286 226.614 176.286H278.386C280.263 176.286 281.786 174.764 281.786 172.886V121.115C281.786 119.237 280.263 117.715 278.386 117.715Z" fill="white"/>
<path id="Vector_38" d="M278.4 118.429C279.11 118.432 279.789 118.717 280.29 119.22C280.79 119.723 281.071 120.404 281.071 121.114V172.9C281.071 173.609 280.79 174.288 280.289 174.789C279.788 175.29 279.109 175.571 278.4 175.571H226.614C225.904 175.571 225.223 175.29 224.72 174.79C224.217 174.289 223.932 173.61 223.929 172.9V121.114C223.929 120.402 224.212 119.719 224.715 119.215C225.219 118.712 225.902 118.429 226.614 118.429H278.4ZM278.4 117H226.614C225.523 117 224.477 117.433 223.705 118.205C222.933 118.977 222.5 120.023 222.5 121.114V172.9C222.504 173.989 222.939 175.032 223.71 175.8C224.481 176.569 225.526 177 226.614 177H278.4C279.486 176.996 280.527 176.563 281.295 175.795C282.063 175.027 282.496 173.986 282.5 172.9V121.114C282.5 120.026 282.069 118.981 281.3 118.21C280.532 117.439 279.489 117.004 278.4 117V117Z" fill="white"/>
<path id="Vector_39" d="M278.4 118.429H226.614C225.902 118.429 225.219 118.712 224.715 119.216C224.212 119.719 223.929 120.402 223.929 121.115V172.9C223.932 173.61 224.217 174.29 224.72 174.79C225.224 175.291 225.905 175.572 226.614 175.572H278.4C279.109 175.572 279.788 175.29 280.289 174.789C280.79 174.288 281.072 173.609 281.072 172.9V121.115C281.072 120.405 280.791 119.724 280.29 119.221C279.789 118.717 279.11 118.433 278.4 118.429V118.429ZM226.614 120.815H278.4C278.439 120.815 278.477 120.822 278.513 120.838C278.548 120.853 278.581 120.875 278.607 120.903C278.634 120.931 278.655 120.965 278.668 121.001C278.682 121.037 278.688 121.076 278.686 121.115V127.958H226.314V121.115C226.314 121.035 226.346 120.959 226.402 120.903C226.458 120.846 226.535 120.815 226.614 120.815V120.815ZM278.4 173.186H226.614C226.576 173.188 226.537 173.182 226.501 173.169C226.464 173.155 226.431 173.134 226.403 173.108C226.375 173.081 226.353 173.049 226.337 173.013C226.322 172.977 226.314 172.939 226.314 172.9V130.329H278.686V172.9C278.686 172.976 278.656 173.049 278.602 173.102C278.549 173.156 278.476 173.186 278.4 173.186V173.186Z" fill="#2D5967"/>
<path id="Vector_40" d="M230.328 126.072C231.149 126.072 231.814 125.407 231.814 124.586C231.814 123.766 231.149 123.1 230.328 123.1C229.508 123.1 228.843 123.766 228.843 124.586C228.843 125.407 229.508 126.072 230.328 126.072Z" fill="#2D5967"/>
<path id="Vector_41" d="M235.586 126.072C236.406 126.072 237.071 125.407 237.071 124.586C237.071 123.766 236.406 123.1 235.586 123.1C234.765 123.1 234.1 123.766 234.1 124.586C234.1 125.407 234.765 126.072 235.586 126.072Z" fill="#2D5967"/>
<path id="Vector_42" d="M240.743 126.072C241.563 126.072 242.229 125.407 242.229 124.586C242.229 123.766 241.563 123.1 240.743 123.1C239.922 123.1 239.257 123.766 239.257 124.586C239.257 125.407 239.922 126.072 240.743 126.072Z" fill="#2D5967"/>
<path id="Vector_43" d="M252.5 142.571C250.74 142.571 249.019 143.093 247.555 144.071C246.092 145.049 244.951 146.439 244.278 148.065C243.604 149.692 243.428 151.481 243.771 153.208C244.114 154.934 244.962 156.52 246.207 157.765C247.451 159.009 249.037 159.857 250.764 160.2C252.49 160.544 254.28 160.367 255.906 159.694C257.532 159.02 258.922 157.879 259.9 156.416C260.878 154.952 261.4 153.232 261.4 151.471C261.4 150.303 261.17 149.145 260.723 148.065C260.275 146.986 259.62 146.004 258.793 145.178C257.967 144.352 256.986 143.696 255.906 143.249C254.826 142.801 253.669 142.571 252.5 142.571V142.571ZM252.5 157.986C251.208 157.988 249.943 157.608 248.868 156.891C247.792 156.175 246.953 155.156 246.457 153.962C245.961 152.768 245.83 151.455 246.082 150.187C246.333 148.919 246.955 147.755 247.869 146.841C248.783 145.927 249.948 145.305 251.216 145.053C252.483 144.802 253.797 144.932 254.991 145.428C256.184 145.924 257.204 146.763 257.92 147.839C258.636 148.915 259.017 150.179 259.014 151.471C259.014 153.199 258.328 154.856 257.106 156.078C255.885 157.299 254.228 157.986 252.5 157.986Z" fill="#2D5967"/>
<path id="Vector_44" d="M266.314 145.2L269.171 141.629L262.343 134.786L258.771 137.643L257.843 137.257L257.329 132.715H247.671L247.157 137.257L246.229 137.643L242.657 134.786L235.829 141.629L238.686 145.2C238.543 145.5 238.414 145.815 238.3 146.129L233.757 146.629V156.3L238.3 156.8C238.414 157.115 238.543 157.429 238.686 157.729L235.829 161.3L242.657 168.143L246.229 165.286L247.157 165.672L247.671 170.215H257.329L257.843 165.672L258.771 165.286L262.343 168.143L269.171 161.286L266.314 157.715C266.457 157.415 266.586 157.1 266.7 156.786L271.257 156.286V146.629L266.7 146.129C266.586 145.815 266.457 145.572 266.314 145.2ZM268.871 154.143L264.929 154.572L264.686 155.315C264.466 156.003 264.189 156.672 263.857 157.315L263.5 158L265.986 161.1L262.171 164.915L259.071 162.472L258.371 162.829C257.729 163.16 257.06 163.437 256.371 163.657L255.643 163.886L255.2 167.829H249.8L249.357 163.886L248.629 163.657C247.94 163.437 247.271 163.16 246.629 162.829L245.929 162.472L242.829 164.943L239.014 161.129L241.5 158.029L241.143 157.343C240.811 156.701 240.534 156.032 240.314 155.343L240.071 154.6L236.129 154.143V148.757L240.071 148.329L240.314 147.586C240.534 146.897 240.811 146.228 241.143 145.586L241.5 144.9L239.014 141.8L242.829 137.986L245.929 140.457L246.629 140.1C247.271 139.769 247.94 139.492 248.629 139.272L249.357 139.043L249.8 135.1H255.2L255.643 139.043L256.371 139.272C257.06 139.492 257.729 139.769 258.371 140.1L259.071 140.457L262.171 137.986L265.986 141.8L263.5 144.9L263.929 145.572C264.26 146.214 264.538 146.883 264.757 147.572L265 148.315L268.943 148.743L268.871 154.143Z" fill="#2D5967"/>
</g>
</g>
<g id="Icon Text Label_5">
<text id="IconLabel_10" fill="black" xml:space="preserve" style="white-space: pre" font-family="Oracle Sans" font-size="16" letter-spacing="0em"><tspan x="183.93" y="194.816">Worker Application</tspan></text>
</g>
</g>
</g>
<g id="Group 8">
<g id="OCI Region_5">
<rect x="337" y="107.5" width="151" height="215" rx="3.5" fill="white"/>
<rect x="337" y="107.5" width="151" height="215" rx="3.5" stroke="#9E9892"/>
</g>
<path id="Vector 13_3" d="M488.5 211H336.5" stroke="#9E9892" stroke-dasharray="2 2"/>
<g id="Icon Master_8">
<g id="Srv-Oracle REST&#226;&#128;&#168;Data Services_3">
<g id="Group 437_3">
<path id="Vector_45" d="M399.922 250.506L396.189 221.652L412.953 217.494L429.792 221.652L425.87 250.506L412.962 256.478L399.922 250.506Z" fill="white"/>
<path id="Vector_46" d="M412.953 217.949L429.26 222.013L425.433 250.23L412.962 255.927L400.359 250.23L396.721 222.013L412.953 217.949ZM412.953 217L412.763 217.057L396.484 221.092L395.667 221.291L395.771 222.136L399.466 250.306L399.533 250.829L400.007 251.047L412.611 256.82L413.01 257L413.409 256.82L425.879 251.047L426.354 250.829L426.421 250.306L430.22 222.136L430.334 221.301L429.507 221.092L413.181 217.057L412.953 217Z" fill="white"/>
<path id="Vector_47" d="M412.953 217.949L396.721 222.013L400.359 250.23L412.962 255.927L425.433 250.23L429.232 222.061L412.953 217.949ZM424.16 249.281L412.953 254.408L401.65 249.281L398.269 223.076L412.953 219.421L427.703 223.076L424.16 249.281Z" fill="#2D5967"/>
<path id="Vector_48" d="M412.991 233.976C412.231 233.976 405.563 234.042 405.563 236.34C405.563 236.34 405.563 236.397 405.563 236.425C405.563 236.454 405.563 236.482 405.563 236.501V248.16C405.563 250.354 411.746 250.468 412.991 250.468C414.235 250.468 420.408 250.354 420.408 248.16V236.501C420.412 236.476 420.412 236.451 420.408 236.425C420.413 236.397 420.413 236.368 420.408 236.34C420.408 234.09 413.712 233.976 412.991 233.976ZM412.991 249.062C409.429 249.062 407.339 248.426 406.969 248.056V245.749C408.921 246.336 410.953 246.615 412.991 246.575C415.025 246.614 417.054 246.336 419.003 245.749V248.056C418.632 248.426 416.562 249.062 412.991 249.062V249.062ZM419.003 244.173C418.632 244.534 416.543 245.17 412.991 245.17C409.438 245.17 407.339 244.534 406.969 244.173V241.913C408.921 242.501 410.953 242.779 412.991 242.739C415.025 242.779 417.054 242.5 419.003 241.913V244.173ZM419.003 240.375C418.632 240.736 416.543 241.372 412.991 241.372C409.438 241.372 407.339 240.736 406.969 240.337V237.888C408.919 238.488 410.951 238.779 412.991 238.752C415.027 238.779 417.056 238.487 419.003 237.888V240.375ZM418.908 236.378C418.347 236.758 416.324 237.327 412.991 237.327C409.657 237.327 407.624 236.748 407.073 236.378C407.624 235.998 409.657 235.428 412.991 235.428C416.324 235.428 418.347 235.989 418.908 236.34V236.378Z" fill="#2D5967"/>
<path id="Vector_49" d="M406.171 229.485L405.174 230.435L407.957 233.217L410.73 230.444L409.78 229.495L408.688 230.577V230.416C408.673 228.91 408.068 227.469 407.003 226.404C405.937 225.339 404.496 224.734 402.989 224.719H401.365V226.067H402.913C404.064 226.07 405.166 226.528 405.98 227.341C406.793 228.154 407.251 229.256 407.254 230.406V230.568L406.171 229.485Z" fill="#2D5967"/>
<path id="Vector_50" d="M423.058 224.662C421.552 224.676 420.111 225.281 419.045 226.347C417.98 227.412 417.375 228.852 417.36 230.358V230.52L416.277 229.437L415.28 230.387L418.063 233.159L420.836 230.377L419.839 229.428L418.765 230.51V230.349C418.765 229.2 419.221 228.097 420.033 227.284C420.845 226.471 421.947 226.012 423.096 226.01H424.663V224.662H423.058Z" fill="#2D5967"/>
<path id="Vector_51" d="M412.288 224.947V232.429H413.694V224.947L415.821 227.074L416.818 226.087L412.991 222.26L409.163 226.087L410.151 227.074L412.288 224.947Z" fill="#2D5967"/>
</g>
</g>
<g id="Icon Text Label_6">
<text id="IconLabel_11" fill="black" xml:space="preserve" style="white-space: pre" font-family="Oracle Sans" font-size="16" letter-spacing="0em"><tspan x="368.766" y="274.816">Oracle REST</tspan></text>
<text id="IconLabel_12" fill="black" xml:space="preserve" style="white-space: pre" font-family="Oracle Sans" font-size="16" letter-spacing="0em"><tspan x="350.562" y="290.816">Data Service with </tspan></text>
<text id="IconLabel_13" fill="black" xml:space="preserve" style="white-space: pre" font-family="Oracle Sans" font-size="16" letter-spacing="0em"><tspan x="362.266" y="306.816">MongoDB API</tspan></text>
</g>
</g>
<g id="Icon Master_9">
<g id="Application_3">
<g id="Group 273_3">
<path id="Vector_52" d="M438.386 117.715H386.614C384.737 117.715 383.214 119.237 383.214 121.115V172.886C383.214 174.764 384.737 176.286 386.614 176.286H438.386C440.263 176.286 441.786 174.764 441.786 172.886V121.115C441.786 119.237 440.263 117.715 438.386 117.715Z" fill="white"/>
<path id="Vector_53" d="M438.4 118.429C439.11 118.432 439.789 118.717 440.29 119.22C440.79 119.723 441.071 120.404 441.071 121.114V172.9C441.071 173.609 440.79 174.288 440.289 174.789C439.788 175.29 439.109 175.571 438.4 175.571H386.614C385.904 175.571 385.223 175.29 384.72 174.79C384.217 174.289 383.932 173.61 383.929 172.9V121.114C383.929 120.402 384.212 119.719 384.715 119.215C385.219 118.712 385.902 118.429 386.614 118.429H438.4ZM438.4 117H386.614C385.523 117 384.477 117.433 383.705 118.205C382.933 118.977 382.5 120.023 382.5 121.114V172.9C382.504 173.989 382.939 175.032 383.71 175.8C384.481 176.569 385.526 177 386.614 177H438.4C439.486 176.996 440.527 176.563 441.295 175.795C442.063 175.027 442.496 173.986 442.5 172.9V121.114C442.5 120.026 442.069 118.981 441.3 118.21C440.532 117.439 439.489 117.004 438.4 117V117Z" fill="white"/>
<path id="Vector_54" d="M438.4 118.429H386.614C385.902 118.429 385.219 118.712 384.715 119.216C384.212 119.719 383.929 120.402 383.929 121.115V172.9C383.932 173.61 384.217 174.29 384.72 174.79C385.224 175.291 385.905 175.572 386.614 175.572H438.4C439.109 175.572 439.788 175.29 440.289 174.789C440.79 174.288 441.072 173.609 441.072 172.9V121.115C441.072 120.405 440.791 119.724 440.29 119.221C439.789 118.717 439.11 118.433 438.4 118.429V118.429ZM386.614 120.815H438.4C438.439 120.815 438.477 120.822 438.513 120.838C438.548 120.853 438.581 120.875 438.607 120.903C438.634 120.931 438.655 120.965 438.668 121.001C438.682 121.037 438.688 121.076 438.686 121.115V127.958H386.314V121.115C386.314 121.035 386.346 120.959 386.402 120.903C386.458 120.846 386.535 120.815 386.614 120.815V120.815ZM438.4 173.186H386.614C386.576 173.188 386.537 173.182 386.501 173.169C386.464 173.155 386.431 173.134 386.403 173.108C386.375 173.081 386.353 173.049 386.337 173.013C386.322 172.977 386.314 172.939 386.314 172.9V130.329H438.686V172.9C438.686 172.976 438.656 173.049 438.602 173.102C438.549 173.156 438.476 173.186 438.4 173.186V173.186Z" fill="#2D5967"/>
<path id="Vector_55" d="M390.328 126.072C391.149 126.072 391.814 125.407 391.814 124.586C391.814 123.766 391.149 123.1 390.328 123.1C389.508 123.1 388.843 123.766 388.843 124.586C388.843 125.407 389.508 126.072 390.328 126.072Z" fill="#2D5967"/>
<path id="Vector_56" d="M395.586 126.072C396.406 126.072 397.071 125.407 397.071 124.586C397.071 123.766 396.406 123.1 395.586 123.1C394.765 123.1 394.1 123.766 394.1 124.586C394.1 125.407 394.765 126.072 395.586 126.072Z" fill="#2D5967"/>
<path id="Vector_57" d="M400.743 126.072C401.563 126.072 402.229 125.407 402.229 124.586C402.229 123.766 401.563 123.1 400.743 123.1C399.922 123.1 399.257 123.766 399.257 124.586C399.257 125.407 399.922 126.072 400.743 126.072Z" fill="#2D5967"/>
<path id="Vector_58" d="M412.5 142.571C410.74 142.571 409.019 143.093 407.555 144.071C406.092 145.049 404.951 146.439 404.278 148.065C403.604 149.692 403.428 151.481 403.771 153.208C404.114 154.934 404.962 156.52 406.207 157.765C407.451 159.009 409.037 159.857 410.764 160.2C412.49 160.544 414.28 160.367 415.906 159.694C417.532 159.02 418.922 157.879 419.9 156.416C420.878 154.952 421.4 153.232 421.4 151.471C421.4 150.303 421.17 149.145 420.723 148.065C420.275 146.986 419.62 146.004 418.793 145.178C417.967 144.352 416.986 143.696 415.906 143.249C414.826 142.801 413.669 142.571 412.5 142.571V142.571ZM412.5 157.986C411.208 157.988 409.943 157.608 408.868 156.891C407.792 156.175 406.953 155.156 406.457 153.962C405.961 152.768 405.83 151.455 406.082 150.187C406.333 148.919 406.955 147.755 407.869 146.841C408.783 145.927 409.948 145.305 411.216 145.053C412.483 144.802 413.797 144.932 414.991 145.428C416.184 145.924 417.204 146.763 417.92 147.839C418.636 148.915 419.017 150.179 419.014 151.471C419.014 153.199 418.328 154.856 417.106 156.078C415.885 157.299 414.228 157.986 412.5 157.986Z" fill="#2D5967"/>
<path id="Vector_59" d="M426.314 145.2L429.171 141.629L422.343 134.786L418.771 137.643L417.843 137.257L417.329 132.715H407.671L407.157 137.257L406.229 137.643L402.657 134.786L395.829 141.629L398.686 145.2C398.543 145.5 398.414 145.815 398.3 146.129L393.757 146.629V156.3L398.3 156.8C398.414 157.115 398.543 157.429 398.686 157.729L395.829 161.3L402.657 168.143L406.229 165.286L407.157 165.672L407.671 170.215H417.329L417.843 165.672L418.771 165.286L422.343 168.143L429.171 161.286L426.314 157.715C426.457 157.415 426.586 157.1 426.7 156.786L431.257 156.286V146.629L426.7 146.129C426.586 145.815 426.457 145.572 426.314 145.2ZM428.871 154.143L424.929 154.572L424.686 155.315C424.466 156.003 424.189 156.672 423.857 157.315L423.5 158L425.986 161.1L422.171 164.915L419.071 162.472L418.371 162.829C417.729 163.16 417.06 163.437 416.371 163.657L415.643 163.886L415.2 167.829H409.8L409.357 163.886L408.629 163.657C407.94 163.437 407.271 163.16 406.629 162.829L405.929 162.472L402.829 164.943L399.014 161.129L401.5 158.029L401.143 157.343C400.811 156.701 400.534 156.032 400.314 155.343L400.071 154.6L396.129 154.143V148.757L400.071 148.329L400.314 147.586C400.534 146.897 400.811 146.228 401.143 145.586L401.5 144.9L399.014 141.8L402.829 137.986L405.929 140.457L406.629 140.1C407.271 139.769 407.94 139.492 408.629 139.272L409.357 139.043L409.8 135.1H415.2L415.643 139.043L416.371 139.272C417.06 139.492 417.729 139.769 418.371 140.1L419.071 140.457L422.171 137.986L425.986 141.8L423.5 144.9L423.929 145.572C424.26 146.214 424.538 146.883 424.757 147.572L425 148.315L428.943 148.743L428.871 154.143Z" fill="#2D5967"/>
</g>
</g>
<g id="Icon Text Label_7">
<text id="IconLabel_14" fill="black" xml:space="preserve" style="white-space: pre" font-family="Oracle Sans" font-size="16" letter-spacing="0em"><tspan x="343.93" y="194.816">Worker Application</tspan></text>
</g>
</g>
</g>
<g id="Private Endpoint IP">
<g id="Srv-OCI Private Endpoint IP">
<g id="Group 424">
<path id="Vector_60" d="M992.28 182.811C989.103 178.216 987.88 172.545 988.878 167.047C989.877 161.548 993.017 156.672 997.606 153.491C1002.2 150.311 1007.86 149.086 1013.35 150.086C1018.84 151.086 1023.71 154.23 1026.89 158.825C1029.31 162.364 1030.61 166.554 1030.61 170.846C1030.61 175.137 1029.31 179.328 1026.89 182.867L1009.59 207.779L992.28 182.811Z" fill="white"/>
<path id="Vector_61" d="M1009.56 150.404C1013.29 150.39 1016.94 151.398 1020.13 153.319C1023.32 155.24 1025.93 158 1027.66 161.298C1029.39 164.597 1030.19 168.309 1029.97 172.03C1029.74 175.751 1028.5 179.338 1026.38 182.404L1009.59 206.544L992.854 182.404C990.74 179.346 989.501 175.769 989.272 172.058C989.042 168.347 989.83 164.643 991.551 161.348C993.271 158.053 995.859 155.292 999.033 153.363C1002.21 151.434 1005.85 150.41 1009.56 150.404V150.404ZM1009.56 149C1005.59 149.007 1001.7 150.101 998.308 152.163C994.915 154.225 992.149 157.176 990.311 160.698C988.472 164.22 987.629 168.179 987.875 172.145C988.121 176.112 989.445 179.936 991.704 183.204L1008.44 207.344L1009.59 209L1010.74 207.344L1027.46 183.204C1029.72 179.933 1031.05 176.105 1031.29 172.135C1031.54 168.165 1030.69 164.203 1028.85 160.68C1027 157.156 1024.23 154.205 1020.83 152.147C1017.43 150.088 1013.54 149 1009.56 149V149Z" fill="white"/>
<path id="Vector_62" d="M1026.31 159.176C1023.24 154.733 1018.53 151.696 1013.21 150.733C1007.9 149.769 1002.42 150.958 997.986 154.039C993.549 157.119 990.515 161.838 989.553 167.157C988.591 172.477 989.779 177.961 992.855 182.404L1009.59 206.544L1026.31 182.404C1028.66 178.986 1029.92 174.937 1029.92 170.79C1029.92 166.643 1028.66 162.593 1026.31 159.176V159.176ZM1024.28 181.014L1009.59 202.235L994.846 181C992.987 178.311 991.898 175.164 991.697 171.899C991.497 168.635 992.193 165.378 993.709 162.481C995.225 159.584 997.504 157.157 1000.3 155.465C1003.09 153.772 1006.3 152.877 1009.56 152.877C1012.83 152.877 1016.03 153.772 1018.83 155.465C1021.62 157.157 1023.9 159.584 1025.42 162.481C1026.94 165.378 1027.63 168.635 1027.43 171.899C1027.23 175.164 1026.14 178.311 1024.28 181V181.014Z" fill="#2D5967"/>
<path id="Vector_63" d="M1015.76 165.252V162.221C1015.75 161.261 1015.52 160.316 1015.09 159.459C1014.65 158.602 1014.03 157.857 1013.26 157.281C1012.5 156.701 1011.62 156.308 1010.68 156.135C1009.74 155.962 1008.77 156.013 1007.85 156.284C1006.56 156.677 1005.42 157.478 1004.62 158.568C1003.82 159.658 1003.39 160.979 1003.39 162.333V165.252C1002.16 166.479 1001.32 168.044 1000.97 169.75C1000.63 171.456 1000.8 173.226 1001.46 174.835C1002.13 176.445 1003.25 177.821 1004.69 178.789C1006.14 179.757 1007.84 180.274 1009.58 180.274C1011.31 180.274 1013.01 179.757 1014.46 178.789C1015.9 177.821 1017.03 176.445 1017.69 174.835C1018.35 173.226 1018.52 171.456 1018.18 169.75C1017.83 168.044 1016.99 166.479 1015.76 165.252V165.252ZM1005.85 162.333C1005.84 161.511 1006.09 160.707 1006.57 160.041C1007.05 159.376 1007.74 158.885 1008.52 158.642C1009.08 158.48 1009.66 158.45 1010.23 158.555C1010.8 158.659 1011.33 158.896 1011.79 159.245C1012.25 159.593 1012.63 160.041 1012.89 160.557C1013.16 161.073 1013.3 161.642 1013.3 162.221V163.526C1012.14 162.981 1010.86 162.698 1009.58 162.698C1008.29 162.698 1007.01 162.981 1005.85 163.526V162.333ZM1009.58 177.772C1008.32 177.78 1007.09 177.414 1006.04 176.721C1004.99 176.028 1004.18 175.038 1003.69 173.878C1003.2 172.718 1003.07 171.44 1003.32 170.206C1003.56 168.972 1004.16 167.838 1005.05 166.947C1005.94 166.057 1007.07 165.451 1008.3 165.206C1009.53 164.961 1010.81 165.088 1011.97 165.571C1013.13 166.054 1014.12 166.872 1014.81 167.92C1015.51 168.967 1015.88 170.198 1015.87 171.456C1015.88 172.289 1015.72 173.115 1015.41 173.887C1015.1 174.659 1014.64 175.361 1014.05 175.953C1013.46 176.544 1012.77 177.013 1012 177.333C1011.23 177.652 1010.41 177.816 1009.58 177.814V177.772Z" fill="#2D5967"/>
<path id="Vector_64" d="M1009.58 168.761H1009.35C1008.95 168.811 1008.57 168.992 1008.28 169.276C1007.99 169.559 1007.8 169.931 1007.74 170.333C1007.68 170.712 1007.74 171.1 1007.92 171.443C1008.09 171.785 1008.37 172.064 1008.71 172.241L1008.34 174.627H1010.81L1010.47 172.241C1010.76 172.077 1011.01 171.838 1011.17 171.55C1011.34 171.261 1011.43 170.933 1011.43 170.599C1011.42 170.11 1011.23 169.643 1010.88 169.298C1010.53 168.954 1010.07 168.761 1009.58 168.761V168.761Z" fill="#2D5967"/>
</g>
</g>
<g id="Icon Text Label_8">
<text id="IconLabel_15" fill="black" xml:space="preserve" style="white-space: pre" font-family="Oracle Sans" font-size="16" letter-spacing="0em"><tspan x="969.438" y="226.816">OCI Private</tspan></text>
<text id="IconLabel_16" fill="black" xml:space="preserve" style="white-space: pre" font-family="Oracle Sans" font-size="16" letter-spacing="0em"><tspan x="976.516" y="242.816">Endpoint</tspan></text>
</g>
</g>
<path id="Vector 14" d="M938.707 188.707C939.098 188.317 939.098 187.683 938.707 187.293L932.343 180.929C931.953 180.538 931.319 180.538 930.929 180.929C930.538 181.319 930.538 181.953 930.929 182.343L936.586 188L930.929 193.657C930.538 194.047 930.538 194.681 930.929 195.071C931.319 195.462 931.953 195.462 932.343 195.071L938.707 188.707ZM692 188L692 189L938 189L938 188L938 187L692 187L692 188Z" fill="#312D2A"/>
<path id="Vector 16" d="M495 188L656 188" stroke="#312D2A" stroke-width="2"/>
<path id="Vector 15" d="M799.293 123.293C798.902 123.683 798.902 124.317 799.293 124.707L805.657 131.071C806.047 131.462 806.681 131.462 807.071 131.071C807.462 130.681 807.462 130.047 807.071 129.657L801.414 124L807.071 118.343C807.462 117.953 807.462 117.319 807.071 116.929C806.681 116.538 806.047 116.538 805.657 116.929L799.293 123.293ZM938.707 124.707C939.098 124.317 939.098 123.683 938.707 123.293L932.343 116.929C931.953 116.538 931.319 116.538 930.929 116.929C930.538 117.319 930.538 117.953 930.929 118.343L936.586 124L930.929 129.657C930.538 130.047 930.538 130.681 930.929 131.071C931.319 131.462 931.953 131.462 932.343 131.071L938.707 124.707ZM800 124L800 125L938 125L938 124L938 123L800 123L800 124Z" fill="#312D2A"/>
<g id="Connector Line Label">
<rect width="97" height="14" transform="translate(823 114)" fill="white"/>
<text id="Line Label" fill="#312D2A" xml:space="preserve" style="white-space: pre" font-family="Oracle Sans" font-size="14" letter-spacing="0em"><tspan x="827.36" y="126.089">VNET peering</tspan></text>
</g>
<g id="Autonomous-Transaction-Processing-ATP">
<g id="Srv-Oracle Autonomous Transaction Processing ATP">
<g id="Group 526">
<path id="Vector_65" d="M1166.36 206.513V205.861L1166.28 206.513H1165.39C1159.51 206.314 1153.89 204.015 1149.55 200.031C1145.2 196.048 1142.43 190.642 1141.72 184.789L1139.8 186.734L1137.43 184.358L1141.72 180.128C1141.82 178.857 1142.02 177.595 1142.32 176.355C1140.81 175.552 1139.61 174.268 1138.91 172.707C1138.21 171.145 1138.06 169.396 1138.46 167.734C1138.87 166.073 1139.82 164.595 1141.16 163.534C1142.5 162.473 1144.15 161.89 1145.86 161.876C1147.46 161.881 1149.03 162.393 1150.32 163.339C1154.36 159.933 1159.39 157.92 1164.66 157.594C1165.18 157.555 1165.65 157.555 1166.11 157.555H1167.49C1168.59 155.879 1170.17 154.568 1172.01 153.787C1173.86 153.007 1175.89 152.791 1177.86 153.169C1179.83 153.546 1181.64 154.499 1183.06 155.907C1184.49 157.315 1185.47 159.115 1185.87 161.08L1187.27 159.683L1189.66 162.072L1189.54 162.177L1189.19 162.595L1185.39 166.394C1188.37 169.925 1190.26 174.24 1190.86 178.823L1193.16 176.512L1195.54 178.888L1191.02 183.405C1190.95 184.812 1190.75 186.21 1190.42 187.583C1191.31 188.093 1192.09 188.776 1192.71 189.593C1193.33 190.41 1193.78 191.343 1194.04 192.337C1194.29 193.331 1194.34 194.366 1194.19 195.381C1194.03 196.395 1193.68 197.368 1193.14 198.243C1192.61 199.117 1191.9 199.875 1191.07 200.471C1190.23 201.067 1189.29 201.489 1188.29 201.713C1187.29 201.936 1186.25 201.956 1185.24 201.772C1184.24 201.587 1183.28 201.202 1182.42 200.638C1180.09 202.615 1177.41 204.142 1174.52 205.143L1174.27 205.221C1173.8 205.391 1173.32 205.521 1172.84 205.652H1172.64L1172.32 205.743L1171.69 205.9L1170.89 206.056L1170.24 206.187C1170.02 206.187 1169.8 206.187 1169.56 206.265L1168.68 206.37C1167.84 206.448 1167.1 206.487 1166.42 206.487L1166.36 206.513Z" fill="white"/>
<path id="Vector_66" d="M1175.95 153.639C1178.35 153.643 1180.66 154.557 1182.41 156.197C1184.17 157.836 1185.24 160.081 1185.4 162.477L1187.27 160.61L1188.72 162.06L1184.49 166.29C1187.93 170.168 1189.99 175.075 1190.35 180.246L1193.16 177.439L1194.61 178.888L1190.39 183.118C1190.31 184.726 1190.08 186.323 1189.68 187.884C1190.57 188.308 1191.36 188.915 1192 189.665C1192.64 190.414 1193.11 191.29 1193.39 192.236C1193.67 193.181 1193.74 194.174 1193.61 195.151C1193.48 196.128 1193.15 197.066 1192.63 197.906C1192.12 198.745 1191.43 199.466 1190.62 200.022C1189.81 200.578 1188.88 200.956 1187.92 201.133C1186.95 201.309 1185.95 201.28 1185 201.046C1184.04 200.813 1183.15 200.38 1182.37 199.777C1180.02 201.88 1177.28 203.503 1174.31 204.555L1174.09 204.634C1173.62 204.79 1173.15 204.921 1172.68 205.052L1172.17 205.195C1171.51 205.352 1170.87 205.495 1170.14 205.6L1169.17 205.717H1168.61C1167.88 205.795 1167.14 205.835 1166.41 205.835H1165.99C1159.93 205.784 1154.11 203.434 1149.7 199.257C1145.3 195.081 1142.64 189.388 1142.26 183.327L1139.8 185.808L1138.34 184.359L1142.25 180.442C1142.36 178.94 1142.61 177.453 1143.02 176.003C1141.54 175.351 1140.34 174.21 1139.6 172.774C1138.87 171.337 1138.65 169.691 1138.98 168.112C1139.32 166.533 1140.18 165.117 1141.43 164.1C1142.69 163.084 1144.25 162.529 1145.86 162.53C1147.5 162.537 1149.08 163.124 1150.33 164.188C1154.33 160.682 1159.37 158.594 1164.67 158.247C1165.16 158.247 1165.64 158.169 1166.12 158.156H1166.32C1166.9 158.156 1167.48 158.156 1168.04 158.247L1167.91 158.117C1168.76 156.749 1169.95 155.621 1171.35 154.838C1172.76 154.055 1174.34 153.642 1175.95 153.639ZM1175.95 152.333C1174.24 152.343 1172.56 152.755 1171.03 153.538C1169.51 154.32 1168.2 155.451 1167.19 156.837H1166.11C1165.63 156.837 1165.16 156.837 1164.7 156.916H1164.58C1159.34 157.239 1154.33 159.192 1150.24 162.504C1148.92 161.654 1147.39 161.2 1145.82 161.198C1144 161.196 1142.23 161.791 1140.78 162.893C1139.33 163.995 1138.28 165.542 1137.79 167.298C1137.3 169.054 1137.4 170.922 1138.07 172.617C1138.74 174.312 1139.95 175.739 1141.51 176.682C1141.27 177.723 1141.11 178.778 1141.02 179.841L1137.43 183.445L1136.5 184.359L1137.43 185.285L1138.87 186.735L1139.8 187.662L1140.71 186.735L1141.27 186.173C1142.25 191.793 1145.09 196.92 1149.33 200.727C1153.58 204.535 1158.98 206.803 1164.66 207.167V207.167H1165.97H1166.41C1167.11 207.167 1167.87 207.167 1168.73 207.049H1169.13H1169.33H1169.62L1170.33 206.958L1171.64 206.749L1172.5 206.54L1172.85 206.449H1173.02L1174.48 205.861H1174.65H1174.73C1177.54 204.889 1180.16 203.426 1182.47 201.54C1183.72 202.279 1185.15 202.666 1186.6 202.662C1188.81 202.659 1190.93 201.779 1192.49 200.215C1194.05 198.651 1194.93 196.531 1194.94 194.32C1194.94 192.937 1194.59 191.576 1193.94 190.36C1193.28 189.145 1192.33 188.114 1191.17 187.361C1191.42 186.143 1191.58 184.908 1191.66 183.667L1195.57 179.75L1196.5 178.823L1195.57 177.896L1194.13 176.447L1193.2 175.52L1192.28 176.447L1191.35 177.387C1190.6 173.357 1188.87 169.576 1186.3 166.381L1189.68 163L1190.61 162.073L1190.48 161.929L1189.68 161.067L1188.19 159.684L1187.27 158.757L1186.36 159.684L1186.21 159.814C1185.51 157.644 1184.14 155.752 1182.29 154.409C1180.45 153.066 1178.23 152.339 1175.95 152.333V152.333Z" fill="white"/>
<path id="Vector_67" d="M1169.81 203.536L1170.14 205.559C1168.91 205.757 1167.66 205.857 1166.41 205.86H1165.99V203.81C1167.26 203.823 1168.52 203.731 1169.77 203.536H1169.81ZM1149.29 198.627C1150.26 199.618 1151.3 200.526 1152.42 201.342L1153.63 199.671C1152.6 198.937 1151.64 198.107 1150.76 197.191L1149.29 198.627ZM1154.15 202.478C1155.34 203.192 1156.59 203.799 1157.88 204.293L1158.67 202.374C1157.48 201.925 1156.34 201.37 1155.26 200.716L1154.15 202.478ZM1160.41 202.974L1159.85 204.946C1160.52 205.128 1161.16 205.298 1161.87 205.429C1162.59 205.559 1163.24 205.664 1163.92 205.729L1164.14 203.692C1163.52 203.627 1162.84 203.523 1162.25 203.405C1161.66 203.288 1161.03 203.144 1160.41 202.974V202.974ZM1171.66 203.157L1172.16 205.142C1173.5 204.823 1174.81 204.386 1176.07 203.836L1175.25 201.943C1174.1 202.487 1172.9 202.924 1171.66 203.248V203.157ZM1147.37 192.634L1145.63 193.64C1146.3 194.851 1147.07 196 1147.95 197.073L1149.54 195.768C1148.74 194.786 1148.03 193.738 1147.41 192.634H1147.37ZM1145.71 188.887C1145.71 188.678 1145.56 188.47 1145.51 188.274C1145.46 188.078 1145.43 187.986 1145.39 187.843C1144.95 186.242 1144.69 184.594 1144.62 182.934L1147.57 185.871L1149.02 184.357L1143.68 179.017L1138.34 184.357L1139.8 185.806L1142.58 183.025C1142.65 184.656 1142.89 186.274 1143.29 187.856V187.856C1143.29 188.013 1143.38 188.156 1143.42 188.313C1143.46 188.467 1143.5 188.62 1143.55 188.77C1143.55 188.992 1143.68 189.214 1143.76 189.423C1143.84 189.631 1143.83 189.658 1143.87 189.775C1144.1 190.441 1144.38 191.081 1144.66 191.773L1146.53 190.924C1146.21 190.193 1145.94 189.54 1145.71 188.887ZM1138.83 169.578C1138.83 168.183 1139.24 166.818 1140.02 165.656C1140.79 164.495 1141.89 163.589 1143.17 163.054C1144.46 162.519 1145.88 162.378 1147.25 162.65C1148.61 162.922 1149.87 163.593 1150.85 164.58C1151.84 165.567 1152.51 166.824 1152.78 168.193C1153.05 169.562 1152.91 170.98 1152.38 172.269C1151.84 173.558 1150.94 174.659 1149.78 175.432C1148.62 176.206 1147.26 176.618 1145.86 176.615C1144 176.612 1142.21 175.869 1140.9 174.55C1139.58 173.231 1138.84 171.443 1138.83 169.578V169.578ZM1140.88 169.578C1140.88 170.568 1141.17 171.537 1141.72 172.361C1142.27 173.185 1143.05 173.828 1143.96 174.208C1144.87 174.588 1145.88 174.689 1146.85 174.496C1147.82 174.304 1148.71 173.827 1149.41 173.127C1150.11 172.427 1150.58 171.535 1150.77 170.564C1150.97 169.592 1150.87 168.586 1150.49 167.672C1150.11 166.757 1149.46 165.977 1148.64 165.428C1147.82 164.88 1146.85 164.588 1145.86 164.591C1144.54 164.594 1143.28 165.121 1142.34 166.055C1141.41 166.99 1140.89 168.257 1140.88 169.578V169.578ZM1153.03 164.878C1156.55 162.092 1160.85 160.472 1165.33 160.243C1165.52 159.523 1165.79 158.823 1166.12 158.155C1160.88 158.236 1155.81 160.044 1151.7 163.298C1152.2 163.771 1152.64 164.301 1153.01 164.878H1153.03ZM1185.77 168.077C1185.44 168.74 1185.05 169.366 1184.58 169.944C1186.63 173.014 1187.86 176.554 1188.16 180.231L1185.39 177.438L1183.95 178.887L1189.28 184.226L1194.61 178.887L1193.16 177.438L1190.24 180.362C1189.94 175.93 1188.4 171.673 1185.8 168.077H1185.77ZM1193.62 194.188C1193.62 195.583 1193.21 196.946 1192.43 198.106C1191.66 199.266 1190.56 200.169 1189.27 200.702C1187.98 201.236 1186.57 201.375 1185.2 201.101C1183.83 200.828 1182.58 200.156 1181.6 199.168C1180.61 198.181 1179.94 196.924 1179.67 195.555C1179.4 194.187 1179.54 192.769 1180.08 191.481C1180.61 190.193 1181.52 189.093 1182.68 188.32C1183.84 187.547 1185.2 187.135 1186.59 187.138C1188.46 187.141 1190.24 187.886 1191.56 189.207C1192.88 190.529 1193.62 192.32 1193.62 194.188V194.188ZM1191.57 194.188C1191.58 193.198 1191.28 192.229 1190.74 191.405C1190.19 190.581 1189.41 189.938 1188.5 189.558C1187.58 189.178 1186.58 189.077 1185.61 189.27C1184.64 189.463 1183.75 189.939 1183.05 190.639C1182.35 191.339 1181.87 192.231 1181.68 193.203C1181.49 194.174 1181.59 195.18 1181.97 196.094C1182.35 197.009 1182.99 197.789 1183.81 198.338C1184.64 198.886 1185.6 199.178 1186.59 199.175C1187.91 199.172 1189.18 198.645 1190.11 197.711C1191.04 196.776 1191.57 195.51 1191.57 194.188V194.188ZM1149.07 168.808L1147.62 167.359L1145.25 169.722L1144.11 168.586L1142.67 170.048L1145.28 172.659L1149.07 168.808ZM1177.24 188.887C1177.24 191.629 1170.32 192.36 1166.66 192.36C1162.99 192.36 1156.23 191.629 1156.23 188.887V172.751C1156.23 169.617 1164.92 169.461 1166.66 169.461H1166.94C1167.49 170.253 1168.14 170.965 1168.89 171.576C1168.2 171.576 1167.45 171.576 1166.66 171.576C1162.06 171.576 1159.21 172.346 1158.42 172.881C1159.28 173.39 1162.12 174.187 1166.66 174.187C1168.58 174.207 1170.51 174.045 1172.41 173.704C1173.55 174.092 1174.75 174.29 1175.95 174.291C1176.39 174.292 1176.82 174.266 1177.26 174.213L1177.24 188.887ZM1175.14 183.313C1175.13 183.386 1175.13 183.462 1175.14 183.535H1175.24V180.127C1172.48 180.975 1169.6 181.376 1166.71 181.315C1163.88 181.362 1161.06 180.979 1158.34 180.179V183.469C1159 183.978 1161.9 184.775 1166.71 184.775C1171.86 184.775 1174.82 183.809 1175.2 183.326L1175.14 183.313ZM1158.29 174.983V177.921C1158.95 178.417 1161.85 179.226 1166.66 179.226C1171.81 179.226 1174.77 178.273 1175.14 177.79C1175.12 177.858 1175.12 177.931 1175.14 177.999H1175.24V174.918C1172.48 175.765 1169.6 176.166 1166.71 176.106C1163.88 176.159 1161.06 175.78 1158.34 174.983H1158.29ZM1175.29 188.783V185.676C1172.53 186.523 1169.65 186.924 1166.76 186.864C1163.93 186.911 1161.11 186.528 1158.39 185.728V188.796C1158.89 189.305 1161.76 190.363 1166.76 190.363C1171.47 190.363 1174.71 189.37 1175.29 188.783V188.783ZM1188.04 191.498L1186.74 192.804L1185.43 191.498L1183.98 192.961L1185.29 194.266L1183.98 195.572L1185.43 197.021L1186.74 195.715L1188.04 197.021L1189.49 195.572L1188.18 194.266L1189.49 192.961L1188.04 191.498ZM1179.7 199.214C1178.81 199.896 1177.89 200.516 1176.92 201.068L1177.91 202.857C1179.02 202.243 1180.07 201.54 1181.06 200.755C1180.54 200.31 1180.08 199.806 1179.67 199.253L1179.7 199.214ZM1168.04 158.324L1169.28 159.551L1169.38 159.656C1170.12 158.234 1171.3 157.091 1172.75 156.397C1174.19 155.703 1175.82 155.495 1177.39 155.805C1178.96 156.115 1180.39 156.926 1181.47 158.117C1182.54 159.307 1183.2 160.814 1183.35 162.411L1181.55 160.609L1180.1 162.058L1184.41 166.38L1188.72 162.058L1187.27 160.609L1185.41 162.476C1185.27 160.476 1184.5 158.572 1183.21 157.037C1181.92 155.501 1180.18 154.414 1178.24 153.929C1176.3 153.445 1174.25 153.589 1172.4 154.341C1170.54 155.093 1168.97 156.415 1167.91 158.115L1168.08 158.272L1168.04 158.324ZM1179.81 167.515V167.594H1177.64L1177.17 165.518H1174.71L1174.23 167.594H1172.12V167.515L1174.96 157.685H1176.98L1179.81 167.515ZM1175.11 163.808H1176.77L1175.94 160.165L1175.11 163.808ZM1163.23 164.238L1164.68 165.688L1166.49 163.86C1166.64 165.854 1167.41 167.75 1168.71 169.276C1170 170.802 1171.74 171.88 1173.68 172.355C1175.62 172.83 1177.66 172.679 1179.51 171.922C1181.36 171.165 1182.92 169.842 1183.97 168.142L1182.51 166.693C1181.76 168.095 1180.58 169.218 1179.14 169.898C1177.7 170.577 1176.08 170.776 1174.52 170.467C1172.96 170.157 1171.54 169.354 1170.47 168.177C1169.4 166.999 1168.74 165.509 1168.57 163.925L1170.4 165.727L1171.86 164.278L1167.5 159.878L1163.19 164.199L1163.23 164.238Z" fill="#2D5967"/>
</g>
</g>
<g id="Icon Text Label_9">
<text id="IconLabel_17" fill="black" xml:space="preserve" style="white-space: pre" font-family="Oracle Sans" font-size="16" letter-spacing="0em"><tspan x="1094.43" y="226.816">Oracle Autonomous</tspan></text>
<text id="IconLabel_18" fill="black" xml:space="preserve" style="white-space: pre" font-family="Oracle Sans" font-size="16" letter-spacing="0em"><tspan x="1082.85" y="242.816">Transaction Processing  </tspan></text>
<text id="IconLabel_19" fill="black" xml:space="preserve" style="white-space: pre" font-family="Oracle Sans" font-size="16" letter-spacing="0em"><tspan x="1129.65" y="258.816">Serverless</tspan></text>
</g>
</g>
</g>
<defs>
<linearGradient id="paint0_linear_20465_16526" x1="776.488" y1="26.1292" x2="780.128" y2="29.7591" gradientUnits="userSpaceOnUse">
<stop stop-color="#86D633"/>
<stop offset="1" stop-color="#5E9624"/>
</linearGradient>
<linearGradient id="paint1_linear_20465_16526" x1="766.479" y1="24.3417" x2="770.093" y2="27.9777" gradientUnits="userSpaceOnUse">
<stop stop-color="#86D633"/>
<stop offset="1" stop-color="#5E9624"/>
</linearGradient>
<linearGradient id="paint2_linear_20465_16526" x1="758.282" y1="24.3346" x2="761.896" y2="27.9707" gradientUnits="userSpaceOnUse">
<stop stop-color="#86D633"/>
<stop offset="1" stop-color="#5E9624"/>
</linearGradient>
<linearGradient id="paint3_linear_20465_16526" x1="1264.49" y1="26.1292" x2="1268.13" y2="29.7591" gradientUnits="userSpaceOnUse">
<stop stop-color="#86D633"/>
<stop offset="1" stop-color="#5E9624"/>
</linearGradient>
<linearGradient id="paint4_linear_20465_16526" x1="1254.48" y1="24.3417" x2="1258.09" y2="27.9777" gradientUnits="userSpaceOnUse">
<stop stop-color="#86D633"/>
<stop offset="1" stop-color="#5E9624"/>
</linearGradient>
<linearGradient id="paint5_linear_20465_16526" x1="1246.28" y1="24.3346" x2="1249.9" y2="27.9707" gradientUnits="userSpaceOnUse">
<stop stop-color="#86D633"/>
<stop offset="1" stop-color="#5E9624"/>
</linearGradient>
<clipPath id="clip0_20465_16526">
<rect width="1288" height="347" fill="white"/>
</clipPath>
</defs>
</svg>
