<svg width="712" height="1112" viewBox="0 0 712 1112" fill="none" xmlns="http://www.w3.org/2000/svg">
<g id="data-lake-db-at-azure-process">
<rect width="712" height="1112" fill="white"/>
<g id="Data Sources">
<rect x="0.5" y="0.5" width="215" height="1111" rx="3.5" fill="#F5F4F2"/>
<rect x="0.5" y="0.5" width="215" height="1111" rx="3.5" stroke="#9E9892"/>
<text id="OCI Region" fill="#312D2A" xml:space="preserve" style="white-space: pre" font-family="Oracle Sans" font-size="16" font-weight="bold" letter-spacing="0em"><tspan x="58.0703" y="21.816">Data Sources</tspan></text>
</g>
<g id="Data Sources_2">
<rect x="264.5" y="0.5" width="215" height="1111" rx="3.5" fill="#F5F4F2"/>
<rect x="264.5" y="0.5" width="215" height="1111" rx="3.5" stroke="#9E9892"/>
<text id="OCI Region_2" fill="#312D2A" xml:space="preserve" style="white-space: pre" font-family="Oracle Sans" font-size="16" font-weight="bold" letter-spacing="0em"><tspan x="336.883" y="21.816">Data Tier</tspan></text>
</g>
<g id="Data Sources_3">
<rect x="496.5" y="0.5" width="215" height="1111" rx="3.5" fill="#F5F4F2"/>
<rect x="496.5" y="0.5" width="215" height="1111" rx="3.5" stroke="#9E9892"/>
<text id="OCI Region_3" fill="#312D2A" xml:space="preserve" style="white-space: pre" font-family="Oracle Sans" font-size="16" font-weight="bold" letter-spacing="0em"><tspan x="535.453" y="21.816">Consumption Tier</tspan></text>
</g>
<g id="Other relational databases">
<g id="Services-Enterprise-resource-Planning-Cloud-Service-ERP">
<g id="Group 514">
<path id="Vector" d="M92.0093 83.148L98.786 79.7514L92.0093 76.3691L94.7771 74.9419H78.7698L78.9268 72.8726C79.1192 70.4761 79.9217 68.1688 81.2577 66.1703C82.5938 64.1718 84.4189 62.5487 86.5595 61.4554C87.0189 61.2188 87.419 60.8816 87.7303 60.469C88.0415 60.0564 88.2557 59.5789 88.3571 59.0721C88.837 56.6085 90.1584 54.3885 92.0949 52.7925C94.0314 51.1965 96.4624 50.3237 98.9715 50.3237C99.3088 50.302 99.6471 50.302 99.9844 50.3237H100.327C100.776 50.3288 101.221 50.24 101.634 50.0631C102.046 49.8861 102.418 49.6249 102.724 49.2961C104.185 47.7348 106.001 46.5492 108.018 45.8402C110.035 45.1313 112.193 44.9198 114.309 45.2238C116.425 45.5278 118.437 46.3383 120.173 47.5865C121.909 48.8346 123.318 50.4835 124.281 52.393C124.508 52.8751 124.842 53.2991 125.257 53.6329C125.672 53.9667 126.158 54.2016 126.677 54.3197C128.198 54.6517 129.647 55.2509 130.957 56.0893C133.868 57.9264 135.974 60.7993 136.85 64.1286C137.727 67.4579 137.308 70.9957 135.68 74.0286L135.138 75.0418H121.784L124.366 76.469L117.59 79.7942L124.423 83.2194L108.074 91.1686L92.0093 83.148Z" fill="white"/>
<path id="Vector_2" d="M112.397 45.7577C114.737 45.7481 117.033 46.3957 119.023 47.627C121.013 48.8582 122.617 50.6236 123.653 52.7222C123.933 53.2828 124.334 53.7738 124.828 54.159C125.322 54.5443 125.895 54.814 126.507 54.9485C127.953 55.2744 129.332 55.8439 130.587 56.6326C133.354 58.3654 135.357 61.0872 136.189 64.2446C137.021 67.4019 136.62 70.7578 135.067 73.6299L134.724 74.2721H119.031L122.826 76.3843L115.978 79.738L118.047 80.7656L122.826 83.1489L108.074 90.3846L93.6078 83.1489L98.3301 80.7799L100.384 79.7523L93.6078 76.37L97.7879 74.3006H79.5408L79.6407 72.9876C79.7984 70.7062 80.5365 68.5029 81.785 66.587C83.0335 64.6712 84.7509 63.1065 86.774 62.0414C87.3257 61.7579 87.8068 61.3544 88.182 60.8604C88.5573 60.3665 88.8172 59.7947 88.9426 59.1872C89.2551 57.5854 89.9502 56.0831 90.9688 54.8082C91.9873 53.5334 93.299 52.5239 94.7919 51.8659C96.0794 51.3052 97.468 51.0138 98.8722 51.0096H99.8138H100.228C100.763 51.0023 101.292 50.8873 101.782 50.6716C102.272 50.4558 102.714 50.1437 103.081 49.7537C104.273 48.4799 105.717 47.4672 107.32 46.7795C108.924 46.0917 110.652 45.7438 112.397 45.7577ZM112.397 44.3306C110.471 44.3321 108.566 44.7309 106.801 45.5019C105.036 46.2729 103.449 47.3997 102.139 48.8118C101.9 49.0666 101.61 49.2691 101.288 49.4066C100.967 49.5441 100.62 49.6137 100.27 49.611H99.985C99.6286 49.5897 99.2713 49.5897 98.915 49.611C96.2374 49.6159 93.6442 50.5484 91.5764 52.2501C89.5087 53.9517 88.094 56.3173 87.573 58.9445C87.4917 59.3455 87.3213 59.7231 87.0743 60.0492C86.8274 60.3753 86.5102 60.6416 86.1463 60.8284C83.9103 61.9969 82.0087 63.7159 80.6208 65.8234C79.233 67.9308 78.4047 70.3571 78.214 72.8735L78.1141 74.1865L78 75.7278H91.7531L90.4263 76.3985L92.9658 77.6687L97.2458 79.7809L92.9658 81.893L90.4263 83.1775L92.9658 84.4476L107.432 91.6833L108.074 91.9972L108.702 91.6833L123.454 84.4334L126.036 83.1632L123.454 81.8788L119.174 79.738L123.454 77.6544L125.908 76.4556L124.481 75.6992H135.523L135.923 74.9571L136.265 74.3149C137.321 72.3737 137.912 70.2137 137.991 68.0051C138.07 65.7966 137.635 63.5999 136.721 61.5881C135.807 59.5762 134.438 57.8043 132.722 56.4119C131.007 55.0195 128.991 54.0447 126.835 53.5642C126.432 53.4784 126.053 53.3064 125.723 53.0601C125.393 52.8137 125.12 52.4988 124.923 52.1371C123.775 49.7935 121.992 47.8194 119.778 46.4394C117.563 45.0593 115.006 44.3287 112.397 44.3306Z" fill="white"/>
<path id="Vector_3" d="M115.278 82.1214L117.29 83.1347L108.088 87.6445L99.0998 83.149L101.069 82.15L98.3294 80.7799L93.6071 83.149L108.074 90.3846L122.825 83.149L118.046 80.7656L115.278 82.1214Z" fill="#2D5967"/>
<path id="Vector_4" d="M108.074 83.6063L122.825 76.3849L118.046 73.9873L115.278 75.3431L117.29 76.3564L108.088 80.8661L99.0998 76.3706L101.069 75.3859L98.3294 74.0158L93.6071 76.3706L108.074 83.6063Z" fill="#2D5967"/>
<path id="Vector_5" d="M122.825 69.6053L108.202 62.2983L93.6071 69.5911L108.074 76.8267L122.825 69.6053ZM108.202 65.0385L117.29 69.5768L108.088 74.0866L99.0998 69.5911L108.202 65.0385Z" fill="#2D5967"/>
<path id="Vector_6" d="M115.278 75.3431L117.29 76.3564L108.088 80.8661L99.0998 76.3706L101.069 75.3859L98.3294 74.0158L93.6071 76.3706L108.074 83.6063L122.825 76.3849L118.046 73.9873L115.278 75.3431Z" fill="#2D5967"/>
<path id="Vector_7" d="M115.278 82.1214L117.29 83.1347L108.088 87.6445L99.0998 83.149L101.069 82.15L98.3294 80.7799L93.6071 83.149L108.074 90.3846L122.825 83.149L118.046 80.7656L115.278 82.1214Z" fill="#2D5967"/>
<path id="Vector_8" d="M130.6 56.6328C129.341 55.8426 127.956 55.2731 126.506 54.9487C125.894 54.8142 125.32 54.5445 124.827 54.1592C124.333 53.774 123.932 53.283 123.652 52.7224C122.616 50.6238 121.011 48.8584 119.021 47.6272C117.031 46.3959 114.736 45.7483 112.396 45.7579C110.666 45.7614 108.955 46.1204 107.37 46.8127C105.785 47.505 104.358 48.5159 103.18 49.7825C102.759 50.2308 102.239 50.5751 101.662 50.7881C101.085 51.0011 100.467 51.077 99.8555 51.0098C98.1399 50.8561 96.4131 51.1358 94.8336 51.8233C93.3407 52.4813 92.029 53.4908 91.0105 54.7656C89.992 56.0404 89.2968 57.5428 88.9843 59.1445C88.8589 59.7521 88.599 60.3239 88.2238 60.8178C87.8485 61.3118 87.3674 61.7153 86.8158 61.9988C84.7926 63.0639 83.0752 64.6286 81.8268 66.5444C80.5783 68.4602 79.8401 70.6635 79.6824 72.945L79.5397 74.3008H91.5523V71.8176H82.2789C82.5979 70.2005 83.2764 68.6759 84.2643 67.3567C85.2521 66.0375 86.524 64.9575 87.9856 64.1966C88.8649 63.7409 89.6297 63.0921 90.2226 62.2987C90.8156 61.5054 91.2214 60.588 91.4096 59.6155C91.6482 58.4031 92.1762 57.2663 92.9488 56.3021C93.7214 55.338 94.7155 54.575 95.8466 54.0782C97.0385 53.5524 98.3439 53.3364 99.6415 53.4502C100.624 53.5533 101.616 53.4279 102.542 53.0838C103.467 52.7397 104.301 52.1862 104.977 51.4665C105.926 50.4467 107.074 49.6328 108.35 49.0755C109.626 48.5182 111.003 48.2294 112.396 48.2269C114.277 48.2124 116.125 48.7298 117.725 49.7196C119.325 50.7093 120.613 52.1312 121.441 53.8213C121.889 54.7126 122.53 55.4929 123.317 56.1052C124.104 56.7174 125.018 57.1463 125.992 57.3606C127.166 57.6388 128.282 58.1219 129.288 58.7878C131.413 60.1332 132.981 62.2006 133.704 64.6101C134.428 67.0195 134.258 69.6092 133.225 71.9032H124.665V74.3008H134.738L135.08 73.6586C136.642 70.7838 137.047 67.4212 136.215 64.2571C135.382 61.0931 133.374 58.3661 130.6 56.6328Z" fill="#2D5967"/>
</g>
</g>
<g id="Icon Text Label">
<text id="IconLabel" fill="black" xml:space="preserve" style="white-space: pre" font-family="Oracle Sans" font-size="16" letter-spacing="0em"><tspan x="45.3906" y="109.816">Oracle Cloud ERP</tspan></text>
</g>
</g>
<g id="Group 1550">
<g id="Data Sources_4">
<rect x="272.71" y="257.604" width="199" height="847" rx="3.5" fill="white"/>
<rect x="272.71" y="257.604" width="199" height="847" rx="3.5" stroke="#9E9892"/>
<text id="Fault Domain" fill="#312D2A" xml:space="preserve" style="white-space: pre" font-family="Oracle Sans" font-size="16" font-weight="600" letter-spacing="0em"><tspan x="337.241" y="278.92">Ingestion</tspan></text>
</g>
<g id="Microsoft SQL Server">
<g id="Database-Action-gear">
<g id="Group 309">
<path id="Vector_9" d="M117.15 912.736L117.065 911.966C113.58 912.358 110.077 912.558 106.57 912.565C103.911 912.565 80.5455 912.351 80.5455 904.73V862.223C80.5455 854.388 103.911 854.16 106.57 854.16C109.229 854.16 132.609 854.388 132.609 862.223V889.758L134.5 891.667L132.68 893.946L135.524 894.274V902.921L132.68 903.248L134.5 905.528L128.385 911.653L126.465 910.115L126.067 910.243L125.783 912.736H117.15Z" fill="white"/>
<path id="Vector_10" d="M106.569 854.872C115.386 854.872 131.896 856.41 131.896 862.222V890.057L133.546 891.709L131.896 893.789V894.573L134.869 894.9V902.293L131.896 902.621V903.405L133.546 905.484L128.341 910.698L126.606 909.273L125.412 909.644L125.156 911.98H117.775L117.69 911.14C114 911.593 110.286 911.831 106.569 911.852C97.8229 911.852 81.2554 910.427 81.2554 904.729V862.222C81.2554 856.41 97.8229 854.872 106.569 854.872ZM106.569 853.447C102.103 853.447 79.8333 853.875 79.8333 862.222V904.729C79.8333 912.892 102.103 913.276 106.569 913.276C109.865 913.27 113.16 913.094 116.438 912.749L116.509 913.447H126.464L126.606 912.179L126.72 911.197L127.488 911.809L128.483 912.607L129.379 911.709L134.598 906.481L135.494 905.584L134.698 904.587L134.086 903.818L135.068 903.704L136.333 903.561V893.59L135.068 893.447L134.044 893.333L134.655 892.564L135.452 891.567L134.556 890.669L133.318 889.43V862.222C133.318 853.875 111.119 853.447 106.569 853.447Z" fill="white"/>
<path id="Vector_11" d="M131.498 902.906L131.569 902.721L131.498 902.906Z" fill="#2D5967"/>
<path id="Vector_12" d="M110.582 909.216C109.273 909.216 107.936 909.287 106.571 909.287C100.932 909.345 95.3031 908.771 89.7904 907.577C84.7704 906.424 83.647 905.084 83.647 904.728V893.931C88.4679 896.78 99.5318 897.663 106.287 897.677V895.298C100.744 895.349 95.2117 894.79 89.7904 893.631C84.7562 892.435 83.6328 891.082 83.6328 890.711V880.141C88.539 882.99 99.8447 883.888 106.557 883.888C109.259 883.888 112.7 883.745 116.17 883.404H116.341C121.446 882.876 126.594 881.879 129.495 880.17V885.17L129.595 885.255L131.885 887.549V862.791C131.891 862.71 131.891 862.629 131.885 862.549C131.892 862.435 131.892 862.321 131.885 862.207C131.885 857.278 118.759 855.084 106.557 855.084C94.3554 855.084 81.2578 857.278 81.2578 862.207C81.2508 862.321 81.2508 862.435 81.2578 862.549C81.2517 862.629 81.2517 862.71 81.2578 862.791V904.728C81.2578 910.255 97.8253 911.708 106.571 911.708C108.406 911.708 110.567 911.708 112.843 911.495L110.582 909.216ZM106.571 857.421C112.213 857.343 117.844 857.922 123.352 859.144C128.4 860.384 129.51 861.78 129.51 862.207C129.51 862.634 128.4 864.016 123.352 865.255C117.844 866.478 112.213 867.056 106.571 866.979C100.93 867.057 95.2986 866.478 89.7904 865.255C84.7562 864.016 83.647 862.634 83.647 862.207C83.647 861.78 84.7562 860.384 89.7904 859.144C95.2986 857.921 100.93 857.343 106.571 857.421ZM123.352 879.842C117.838 881.022 112.209 881.581 106.571 881.509C100.933 881.581 95.3046 881.022 89.7904 879.842C84.7562 878.646 83.6328 877.292 83.6328 876.908V865.512C87.8991 868.161 97.5124 869.386 106.557 869.386C115.602 869.386 125.172 868.161 129.495 865.512V876.908C129.51 877.292 128.386 878.646 123.352 879.842Z" fill="#2D5967"/>
<path id="Vector_13" d="M121.558 892.037C120.264 892.051 119.004 892.448 117.935 893.178C116.866 893.908 116.037 894.938 115.552 896.139C115.066 897.34 114.947 898.659 115.208 899.928C115.469 901.197 116.099 902.36 117.018 903.272C117.938 904.183 119.106 904.801 120.376 905.049C121.645 905.297 122.96 905.162 124.154 904.663C125.348 904.164 126.367 903.323 127.085 902.244C127.802 901.166 128.185 899.899 128.185 898.603C128.185 897.735 128.013 896.875 127.679 896.074C127.345 895.272 126.856 894.545 126.239 893.935C125.623 893.324 124.892 892.842 124.088 892.516C123.285 892.19 122.425 892.027 121.558 892.037ZM121.558 902.777C120.73 902.78 119.919 902.536 119.23 902.077C118.54 901.618 118.002 900.964 117.684 900.199C117.365 899.433 117.281 898.589 117.442 897.776C117.603 896.962 118.002 896.214 118.587 895.628C119.173 895.041 119.919 894.642 120.731 894.481C121.544 894.32 122.386 894.404 123.15 894.723C123.915 895.041 124.567 895.58 125.026 896.271C125.484 896.962 125.727 897.774 125.724 898.603C125.724 899.71 125.285 900.772 124.504 901.555C123.723 902.338 122.663 902.777 121.558 902.777Z" fill="#2D5967"/>
<path id="Vector_14" d="M131.598 894.544L131.498 894.288L133.546 891.709L128.341 886.496L125.767 888.547L125.511 888.447L125.156 885.171H117.775L117.419 888.447L117.163 888.547L114.589 886.496L109.385 891.709L111.432 894.288L111.333 894.544L108.062 894.9V902.293L111.333 902.65L111.432 902.906L109.385 905.484L114.589 910.698L117.163 908.647L117.419 908.746L117.775 912.023H125.156L125.511 908.746L125.767 908.647L128.341 910.698L133.546 905.484L131.498 902.906L131.598 902.65L134.869 902.293V894.9L131.598 894.544ZM132.451 900.157L129.806 900.442L129.564 901.182C129.424 901.646 129.238 902.094 129.01 902.521L128.654 903.219L130.332 905.299L128.185 907.578L126.108 905.897L125.341 906.154C124.914 906.383 124.466 906.569 124.004 906.709L123.278 906.952L122.98 909.601H119.908L119.652 906.98L118.913 906.738C118.451 906.595 118.003 906.409 117.576 906.182L116.808 905.826L114.774 907.578L112.542 905.299L114.205 903.219L113.964 902.521C113.735 902.094 113.55 901.646 113.409 901.182L113.096 900.456L110.451 900.171V897.037L113.096 896.752L113.338 896.011C113.481 895.549 113.667 895.1 113.893 894.672L114.248 893.989L112.542 891.909L114.732 889.701L116.808 891.367L117.491 891.011C117.918 890.785 118.365 890.599 118.827 890.456L119.567 890.214L119.851 887.564H122.966L123.264 890.214L123.99 890.456C124.452 890.596 124.9 890.783 125.326 891.011L126.023 891.367L128.185 889.687L130.361 891.909L128.682 894.003L129.038 894.687C129.264 895.115 129.45 895.563 129.593 896.026L129.834 896.766L132.479 897.051L132.451 900.157Z" fill="#2D5967"/>
</g>
</g>
<g id="Icon Text Label_2">
<text id="IconLabel_2" fill="black" xml:space="preserve" style="white-space: pre" font-family="Oracle Sans" font-size="16" letter-spacing="0em"><tspan x="73.5703" y="931.263">Microsoft</tspan></text>
<text id="IconLabel_3" fill="black" xml:space="preserve" style="white-space: pre" font-family="Oracle Sans" font-size="16" letter-spacing="0em"><tspan x="67.8594" y="947.263">SQL Server</tspan></text>
<text id="IconLabel_4" fill="black" xml:space="preserve" style="white-space: pre" font-family="Oracle Sans" font-size="16" letter-spacing="0em"><tspan x="57.5391" y="963.263">(on-premises)</tspan></text>
</g>
</g>
<g id="Other relational databases_2">
<g id="Database">
<g id="Group 15">
<path id="Vector_15" d="M108.189 206.027C105.518 206.027 82.0462 205.813 82.0462 198.17V155.541C82.0462 147.684 105.518 147.456 108.189 147.456C110.86 147.456 134.346 147.684 134.346 155.541V198.17C134.346 205.813 110.875 206.027 108.189 206.027Z" fill="white"/>
<path id="Vector_16" d="M108.19 148.17C117.048 148.17 133.633 149.713 133.633 155.541V198.17C133.633 203.884 116.99 205.313 108.19 205.313C99.3905 205.313 82.7619 203.884 82.7619 198.17V155.541C82.7619 149.713 99.4047 148.17 108.19 148.17ZM108.19 146.741C103.705 146.741 81.3333 147.17 81.3333 155.541V198.17C81.3333 206.355 103.705 206.741 108.19 206.741C112.676 206.741 135.062 206.327 135.062 198.17V155.541C135.062 147.17 112.762 146.741 108.19 146.741Z" fill="white"/>
<path id="Vector_17" d="M133.634 155.542C133.634 149.713 117.048 148.17 108.191 148.17C99.3338 148.17 82.7623 149.713 82.7623 155.542V198.17C82.7623 203.885 99.4052 205.313 108.191 205.313C116.977 205.313 133.634 203.885 133.634 198.17V155.542ZM130.777 184.113C130.777 184.37 129.705 185.656 124.805 186.842C119.345 188.005 113.772 188.551 108.191 188.47C102.589 188.546 96.9967 187.99 91.5195 186.813C86.6195 185.628 85.6195 184.342 85.6195 184.085V173.599C90.7338 176.385 101.691 177.228 108.262 177.228C114.834 177.228 125.805 176.385 130.919 173.599L130.777 184.113ZM130.777 170.085C130.777 170.342 129.705 171.642 124.805 172.813C119.345 173.976 113.772 174.522 108.191 174.442C102.589 174.518 96.9967 173.962 91.5195 172.785C86.6195 171.613 85.6195 170.313 85.6195 170.056V159.17C90.7338 162.028 101.691 162.899 108.262 162.899C114.834 162.899 125.805 162.042 130.919 159.17L130.777 170.085ZM91.5338 152.67C97.0041 151.481 102.594 150.93 108.191 151.028C113.796 150.953 119.39 151.528 124.862 152.742C129.905 153.885 130.848 155.313 130.848 155.542C130.848 155.77 129.834 157.17 124.862 158.399C119.39 159.612 113.796 160.187 108.191 160.113C102.592 160.191 97.0019 159.621 91.5338 158.413C86.5623 157.17 85.6195 155.828 85.6195 155.542C85.6195 155.256 86.6338 153.899 91.6052 152.685L91.5338 152.67ZM124.877 200.87C119.395 202.048 113.797 202.604 108.191 202.528C102.589 202.603 96.9967 202.048 91.5195 200.87C86.6195 199.699 85.6195 198.399 85.6195 198.17V187.628C90.7338 190.413 101.691 191.256 108.262 191.256C114.834 191.256 125.805 190.413 130.919 187.628V198.17C130.919 198.428 129.848 199.728 124.948 200.899" fill="#2D5967"/>
</g>
</g>
<g id="Icon Text Label_3">
<text id="IconLabel_5" fill="black" xml:space="preserve" style="white-space: pre" font-family="Oracle Sans" font-size="16" letter-spacing="0em"><tspan x="51.7266" y="224.557">Other relational</tspan></text>
<text id="IconLabel_6" fill="black" xml:space="preserve" style="white-space: pre" font-family="Oracle Sans" font-size="16" letter-spacing="0em"><tspan x="71.3281" y="240.557">databases</tspan></text>
<text id="IconLabel_7" fill="black" xml:space="preserve" style="white-space: pre" font-family="Oracle Sans" font-size="16" letter-spacing="0em"><tspan x="57.5391" y="256.557">(on-premises)</tspan></text>
</g>
</g>
<g id="Azure SQL Database">
<g id="Azure-SQL-Database">
<g id="Group">
<g id="group1000-1">
<g id="group1001-2">
<g id="group1002-3">
<g id="group1003-4">
<g id="group1004-5">
<g id="shape1005-6">
<path id="Vector_18" fill-rule="evenodd" clip-rule="evenodd" d="M108.835 310.868C96.4151 310.868 86.3333 307.324 86.3333 302.667V346.3C86.3333 350.775 96.2325 354.409 108.506 354.482H108.835C121.254 354.482 131.318 350.939 131.318 346.3V302.667C131.318 307.215 121.254 310.868 108.835 310.868Z" fill="url(#paint0_linear_17642_377913)"/>
</g>
</g>
<g id="group1006-10">
<g id="shape1007-11">
<path id="Vector_19" fill-rule="evenodd" clip-rule="evenodd" d="M131.318 302.683C131.318 307.231 121.254 310.865 108.835 310.865C96.4151 310.865 86.3333 307.322 86.3333 302.683C86.3333 298.026 96.4151 294.482 108.835 294.482C121.254 294.482 131.318 298.026 131.318 302.683Z" fill="#E8E8E8"/>
</g>
</g>
<g id="group1008-13">
<g id="shape1009-14">
<path id="Vector_20" fill-rule="evenodd" clip-rule="evenodd" d="M126.101 302.007C126.101 304.893 118.339 307.23 108.841 307.23C99.3258 307.23 91.5635 304.893 91.5635 302.007C91.5635 299.121 99.3258 296.82 108.841 296.82C118.339 296.82 126.101 299.139 126.101 302.007Z" fill="#50E6FF"/>
</g>
</g>
<g id="group1010-16">
<g id="shape1011-17">
<path id="Vector_21" fill-rule="evenodd" clip-rule="evenodd" d="M108.819 303.322C104.19 303.203 99.5756 303.883 95.1753 305.331C99.58 306.751 104.196 307.394 108.819 307.231C113.457 307.369 118.083 306.676 122.48 305.185C118.061 303.803 113.444 303.174 108.819 303.322Z" fill="#198AB3"/>
</g>
</g>
<g id="group1012-19">
<g id="shape1013-20">
<path id="Vector_22" fill-rule="evenodd" clip-rule="evenodd" d="M122.521 332.955V320.956H119.361V335.531H127.982V332.955H122.521ZM97.4623 327.056C96.8101 326.792 96.2054 326.421 95.6724 325.96C95.5301 325.809 95.4194 325.632 95.3466 325.437C95.2739 325.243 95.2408 325.035 95.2492 324.828C95.2388 324.621 95.2821 324.414 95.3748 324.229C95.4676 324.043 95.6066 323.885 95.7783 323.77C96.2077 323.472 96.7222 323.324 97.2432 323.348C98.4942 323.298 99.7269 323.664 100.75 324.389V321.339C99.6284 320.926 98.4366 320.74 97.2432 320.791C95.8706 320.716 94.5165 321.137 93.426 321.978C92.9493 322.347 92.5666 322.824 92.3094 323.37C92.0521 323.916 91.9278 324.516 91.9466 325.12C91.9466 326.928 93.0607 328.334 95.4533 329.394C96.227 329.721 96.9571 330.145 97.6267 330.654C97.7917 330.793 97.9245 330.966 98.0159 331.161C98.1073 331.357 98.155 331.57 98.1558 331.786C98.157 332.001 98.1067 332.214 98.0091 332.405C97.9115 332.597 97.7694 332.762 97.595 332.887C97.1175 333.164 96.5701 333.296 96.0195 333.266C94.6047 333.257 93.2414 332.731 92.184 331.786V335.074C93.3457 335.674 94.6414 335.963 95.9464 335.914C97.4195 336.002 98.8793 335.59 100.092 334.745C100.517 334.338 100.842 333.838 101.042 333.283C101.241 332.729 101.31 332.135 101.243 331.549C101.263 330.641 100.951 329.757 100.366 329.065C99.5487 328.198 98.5594 327.514 97.4623 327.056ZM115.854 332.681C116.65 331.336 117.049 329.79 117.005 328.225C116.929 326.902 116.534 325.617 115.854 324.481C115.304 323.377 114.448 322.457 113.389 321.832C112.319 321.225 111.11 320.91 109.882 320.919C108.56 320.891 107.255 321.219 106.101 321.869C105.013 322.475 104.119 323.381 103.526 324.481C102.905 325.727 102.592 327.105 102.613 328.499C102.617 329.729 102.905 330.942 103.453 332.042C103.991 333.133 104.835 334.041 105.882 334.654C106.943 335.297 108.151 335.656 109.389 335.695L112.421 339.238H116.658L112.329 335.348C113.786 334.917 115.039 333.969 115.854 332.681ZM112.329 331.786C112.011 332.186 111.604 332.507 111.141 332.722C110.679 332.938 110.172 333.043 109.663 333.028C109.149 333.044 108.639 332.936 108.176 332.714C107.712 332.491 107.307 332.161 106.996 331.75C106.26 330.73 105.904 329.482 105.992 328.225C105.907 326.968 106.263 325.721 106.996 324.7C107.33 324.289 107.751 323.96 108.228 323.735C108.705 323.511 109.227 323.397 109.754 323.403C110.262 323.383 110.768 323.492 111.224 323.718C111.68 323.945 112.072 324.282 112.366 324.7C113.057 325.739 113.391 326.977 113.316 328.225C113.436 329.494 113.085 330.763 112.329 331.786Z" fill="url(#paint1_radial_17642_377913)"/>
</g>
</g>
</g>
</g>
</g>
</g>
</g>
</g>
<g id="Icon Text Label_4">
<text id="IconLabel_8" fill="black" xml:space="preserve" style="white-space: pre" font-family="Oracle Sans" font-size="16" letter-spacing="0em"><tspan x="70.0234" y="372.298">Azure SQL</tspan></text>
<text id="IconLabel_9" fill="black" xml:space="preserve" style="white-space: pre" font-family="Oracle Sans" font-size="16" letter-spacing="0em"><tspan x="74.2422" y="388.298">Database</tspan></text>
</g>
</g>
<g id="Table storage">
<g id="Table-3-Column">
<g id="Group 468">
<path id="Vector_23" d="M137.286 426.938H78.7145V485.509H137.286V426.938Z" fill="white"/>
<path id="Vector_24" d="M136.571 427.652V484.795H79.4286V427.652H136.571ZM138 426.224H78V486.224H138V426.224Z" fill="white"/>
<path id="Vector_25" d="M84.4862 479.739H95.3433V476.881H84.4862V479.739ZM102.572 479.739H113.429V476.881H102.572V479.739ZM120.658 479.739H131.515V476.881H120.658V479.739ZM84.4862 474.667H95.3433V471.81H84.4862V474.667ZM102.572 474.667H113.429V471.81H102.572V474.667ZM120.658 474.667H131.515V471.81H120.658V474.667ZM84.4862 469.61H95.3433V466.753H84.4862V469.61ZM102.572 469.61H113.429V466.753H102.572V469.61ZM120.658 469.61H131.515V466.753H120.658V469.61ZM84.4862 464.539H95.3433V461.681H84.4862V464.539ZM102.572 464.539H113.429V461.681H102.572V464.539ZM120.658 464.539H131.515V461.681H120.658V464.539ZM84.4862 459.481H95.3433V456.624H84.4862V459.481ZM102.572 459.481H113.429V456.624H102.572V459.481ZM120.658 459.481H131.515V456.624H120.658V459.481ZM84.4862 454.41H95.3433V451.553H84.4862V454.41ZM102.572 454.41H113.429V451.553H102.572V454.41ZM120.658 454.41H131.515V451.553H120.658V454.41ZM84.4862 449.353H95.3433V446.496H84.4862V449.353ZM102.572 449.353H113.429V446.496H102.572V449.353ZM120.658 449.353H131.515V446.496H120.658V449.353ZM84.4862 444.296H95.3433V441.439H84.4862V444.296ZM102.572 444.296H113.429V441.439H102.572V444.296ZM120.658 444.296H131.515V441.439H120.658V444.296ZM82.2862 439.224H97.5147V481.939H82.2862V439.224ZM100.358 439.224H115.6V481.939H100.4L100.358 439.224ZM118.443 439.224H133.715V481.939H118.486L118.443 439.224ZM82.2862 430.51H97.5147V436.339H82.2862V430.51ZM100.4 430.51H115.6V436.339H100.4V430.51ZM118.486 430.51H133.715V436.339H118.486V430.51ZM79.429 484.796H136.572V427.653H79.429V484.796Z" fill="#2D5967"/>
</g>
</g>
<g id="Icon Text Label_5">
<text id="IconLabel_10" fill="black" xml:space="preserve" style="white-space: pre" font-family="Oracle Sans" font-size="16" letter-spacing="0em"><tspan x="60.0078" y="504.04">Table storage</tspan></text>
<text id="IconLabel_11" fill="black" xml:space="preserve" style="white-space: pre" font-family="Oracle Sans" font-size="16" letter-spacing="0em"><tspan x="87.0312" y="520.04">Azure</tspan></text>
<text id="IconLabel_12" fill="black" xml:space="preserve" style="white-space: pre" font-family="Oracle Sans" font-size="16" letter-spacing="0em"><tspan x="61.4922" y="536.04">PostgresSQL</tspan></text>
<text id="IconLabel_13" fill="black" xml:space="preserve" style="white-space: pre" font-family="Oracle Sans" font-size="16" letter-spacing="0em"><tspan x="53.7266" y="552.04">Azure MariaDB</tspan></text>
</g>
</g>
<g id="Azure Cosmos DB">
<g id="Azure-Cosmos-DB">
<g id="Group_2">
<g id="group1050-1">
<g id="group1051-2">
<g id="group1052-3">
<g id="group1053-4">
<g id="group1054-5">
<g id="shape1055-6">
<path id="Vector_26" fill-rule="evenodd" clip-rule="evenodd" d="M86.664 608.158C86.5823 608.158 86.5012 608.143 86.4255 608.112C86.3499 608.081 86.2812 608.036 86.2233 607.979C86.1655 607.921 86.1197 607.853 86.0887 607.778C86.0576 607.703 86.0419 607.623 86.0424 607.542C86.0398 605.68 85.2924 603.895 83.9638 602.578C82.6353 601.262 80.8341 600.52 78.9549 600.517C78.7907 600.517 78.6331 600.453 78.5167 600.338C78.4002 600.223 78.3343 600.067 78.3333 599.905C78.3333 599.824 78.3493 599.744 78.3805 599.669C78.4117 599.594 78.4575 599.526 78.5152 599.469C78.573 599.412 78.6415 599.367 78.717 599.336C78.7924 599.305 78.8733 599.289 78.9549 599.289C80.8358 599.284 82.6378 598.539 83.9654 597.219C85.2929 595.899 86.0375 594.111 86.0358 592.247C86.0352 592.166 86.0509 592.086 86.082 592.011C86.113 591.936 86.1588 591.868 86.2166 591.811C86.2745 591.753 86.3432 591.708 86.4188 591.677C86.4945 591.646 86.5756 591.631 86.6573 591.631C86.7391 591.631 86.8202 591.646 86.8958 591.677C86.9715 591.708 87.0402 591.753 87.0981 591.811C87.1559 591.868 87.2016 591.936 87.2327 592.011C87.2637 592.086 87.2795 592.166 87.2789 592.247C87.2803 594.108 88.0259 595.893 89.3523 597.21C90.6787 598.528 92.4779 599.271 94.3562 599.277C94.438 599.277 94.519 599.292 94.5947 599.323C94.6703 599.354 94.7391 599.399 94.7969 599.456C94.8547 599.514 94.9005 599.582 94.9315 599.657C94.9626 599.732 94.9783 599.812 94.9778 599.893C94.9783 599.974 94.9626 600.054 94.9315 600.129C94.9005 600.204 94.8547 600.272 94.7969 600.33C94.7391 600.387 94.6703 600.432 94.5947 600.463C94.519 600.494 94.438 600.509 94.3562 600.509C92.4786 600.513 90.6793 601.254 89.3522 602.57C88.025 603.886 87.2782 605.669 87.2753 607.53C87.2745 607.693 87.2088 607.849 87.0924 607.964C86.976 608.08 86.8183 608.145 86.6537 608.145L86.664 608.158Z" fill="#50E6FF"/>
</g>
</g>
<g id="group1056-8">
<g id="shape1057-9">
<path id="Vector_27" fill-rule="evenodd" clip-rule="evenodd" d="M131.33 650.781C131.198 650.781 131.072 650.729 130.978 650.636C130.885 650.544 130.833 650.418 130.833 650.288C130.834 649.548 130.688 648.814 130.403 648.13C130.118 647.446 129.7 646.824 129.172 646.301C128.644 645.777 128.017 645.362 127.326 645.079C126.636 644.795 125.896 644.65 125.149 644.651C125.018 644.651 124.892 644.599 124.799 644.508C124.706 644.416 124.653 644.292 124.652 644.162C124.652 644.031 124.704 643.906 124.797 643.813C124.891 643.721 125.017 643.669 125.149 643.669C126.654 643.672 128.098 643.084 129.165 642.032C130.232 640.981 130.833 639.553 130.838 638.062C130.838 637.932 130.89 637.806 130.983 637.714C131.077 637.621 131.203 637.569 131.335 637.569C131.467 637.569 131.594 637.621 131.687 637.714C131.78 637.806 131.833 637.932 131.833 638.062C131.833 639.551 132.43 640.978 133.491 642.032C134.552 643.086 135.992 643.679 137.494 643.683C137.56 643.682 137.626 643.693 137.687 643.718C137.749 643.742 137.805 643.778 137.852 643.824C137.899 643.87 137.936 643.925 137.962 643.985C137.988 644.045 138.001 644.11 138.001 644.176C138.001 644.241 137.988 644.306 137.962 644.367C137.936 644.427 137.899 644.482 137.852 644.528C137.805 644.573 137.749 644.61 137.687 644.634C137.626 644.658 137.56 644.67 137.494 644.669C135.99 644.671 134.549 645.263 133.486 646.317C132.422 647.37 131.824 648.798 131.823 650.288C131.821 650.418 131.769 650.543 131.675 650.634C131.582 650.726 131.456 650.777 131.325 650.777L131.33 650.781Z" fill="#50E6FF"/>
</g>
</g>
<g id="group1058-11">
<g id="group1059-12">
<g id="shape1060-13">
<path id="Vector_28" d="M107.938 642.607C119.918 642.607 129.63 632.985 129.63 621.116C129.63 609.246 119.918 599.624 107.938 599.624C95.9573 599.624 86.2454 609.246 86.2454 621.116C86.2454 632.985 95.9573 642.607 107.938 642.607Z" fill="url(#paint2_radial_17642_377913)"/>
</g>
</g>
<g id="group1061-17">
<g id="shape1062-18">
<path id="Vector_29" fill-rule="evenodd" clip-rule="evenodd" d="M96.7199 635.525C104.616 635.746 104.633 623.911 96.7199 624.081C96.7539 623.911 96.7539 623.758 96.7539 623.588C96.7199 620.413 94.1049 617.849 90.8956 617.883H86.5656C85.2751 623.554 87.4146 630.771 91.8465 635.525H96.7199Z" fill="#F2F2F2"/>
</g>
</g>
<g id="group1063-20">
<g id="shape1064-21">
<path id="Vector_30" fill-rule="evenodd" clip-rule="evenodd" d="M129.304 617.158C129.304 617.107 129.304 617.056 129.287 617.005C128.59 613.264 126.876 609.783 124.329 606.936C123.993 606.8 123.647 606.692 123.293 606.613C122.366 606.354 121.392 606.307 120.443 606.474C119.495 606.641 118.598 607.02 117.818 607.58C117.039 608.141 116.397 608.869 115.943 609.71C115.488 610.552 115.232 611.484 115.193 612.438C114.957 612.409 114.719 612.392 114.48 612.387C113.032 612.383 111.63 612.887 110.521 613.81C109.413 614.733 108.67 616.014 108.424 617.428C108.177 618.841 108.444 620.296 109.177 621.533C109.909 622.77 111.06 623.711 112.425 624.188C113.031 624.426 113.676 624.547 114.327 624.545H121.493C124.372 622.385 126.992 619.907 129.304 617.158Z" fill="#F2F2F2"/>
</g>
</g>
</g>
<g id="group1065-23">
<g id="shape1066-24">
<path id="Vector_31" fill-rule="evenodd" clip-rule="evenodd" d="M136.897 603.129C134.673 599.479 129.494 598.052 122.243 599.122C119.757 599.47 117.299 599.998 114.89 600.701C116.803 601.354 118.619 602.256 120.29 603.384C121.139 603.197 121.988 602.977 122.803 602.858C124.09 602.655 125.389 602.548 126.692 602.535C127.97 602.352 129.273 602.489 130.483 602.934C131.694 603.379 132.772 604.118 133.62 605.082C134.961 607.307 133.824 611.127 130.479 615.559C125.844 621.278 120.164 626.082 113.736 629.721C107.443 633.613 100.467 636.297 93.1725 637.634C87.6538 638.449 83.6974 637.634 82.3559 635.409C80.9975 633.202 82.1352 629.364 85.4803 624.949C85.9049 624.406 85.9898 624.117 86.4652 623.574C86.2418 621.677 86.2703 619.758 86.5501 617.868C85.0503 619.361 83.6707 620.968 82.4239 622.674C78.0599 628.464 76.8712 633.677 79.0957 637.328C80.2638 638.88 81.8226 640.102 83.6164 640.871C85.4102 641.64 87.3761 641.929 89.3179 641.709C90.7965 641.699 92.2722 641.58 93.7328 641.352C101.518 639.947 108.967 637.101 115.689 632.964C122.552 629.073 128.612 623.935 133.552 617.817C137.933 612.01 139.122 606.797 136.897 603.129Z" fill="#50E6FF"/>
</g>
</g>
</g>
</g>
</g>
</g>
</g>
</g>
<g id="Icon Text Label_6">
<text id="IconLabel_14" fill="black" xml:space="preserve" style="white-space: pre" font-family="Oracle Sans" font-size="16" letter-spacing="0em"><tspan x="87.0312" y="667.781">Azure</tspan></text>
<text id="IconLabel_15" fill="black" xml:space="preserve" style="white-space: pre" font-family="Oracle Sans" font-size="16" letter-spacing="0em"><tspan x="66.3672" y="683.781">Cosmos DB</tspan></text>
</g>
</g>
<g id="Object Storage">
<g id="Services/Object-Storage">
<g id="Group_3">
<g id="Group_4">
<g id="Group_5">
<path id="Vector_32" d="M81.8497 780.992C80.1395 780.992 78.7143 779.563 78.7143 777.849V725.563C78.7143 723.849 80.1395 722.42 81.8497 722.42H134.154C135.864 722.42 137.289 723.849 137.289 725.563V777.992C137.289 779.706 135.864 781.135 134.154 781.135L81.8497 780.992Z" fill="white"/>
<path id="Vector_33" d="M134.01 723.135C135.292 723.135 136.432 724.277 136.432 725.563V777.992C136.432 779.277 135.292 780.42 134.01 780.42H81.848C80.5653 780.277 79.4252 779.135 79.4252 777.849V725.563C79.4252 724.277 80.5653 723.135 81.848 723.135H134.01ZM134.01 721.706H81.848C79.7102 721.706 78 723.42 78 725.563V777.992C78 779.992 79.7102 781.706 81.848 781.706H134.152C136.29 781.706 138 779.992 138 777.849V725.563C137.857 723.42 136.147 721.706 134.01 721.706Z" fill="white"/>
</g>
<g id="Group_6">
<g id="Group_7">
<path id="Vector_34" d="M121.325 738.278L125.173 744.992L121.325 751.706H113.629L109.781 744.992L113.629 738.278H121.325ZM122.608 736.278H112.346L107.216 745.135L112.346 753.992H122.608L127.738 745.135L122.608 736.278Z" fill="#2D5967"/>
</g>
<g id="Group_8">
<path id="Vector_35" d="M107.5 758.706C111.205 758.706 114.198 761.706 114.198 765.42C114.198 769.135 111.205 772.135 107.5 772.135C103.794 772.135 100.801 769.135 100.801 765.42C100.801 761.706 103.794 758.706 107.5 758.706ZM107.5 756.706C102.654 756.706 98.6635 760.706 98.6635 765.563C98.6635 770.42 102.654 774.42 107.5 774.42C112.345 774.42 116.336 770.42 116.336 765.563C116.336 760.563 112.345 756.706 107.5 756.706Z" fill="#2D5967"/>
</g>
<g id="Group_9">
<path id="Vector_36" d="M97.3817 739.992L103.652 751.278H91.2534L97.3817 739.992ZM97.3817 735.707L87.6905 753.421H107.215L97.3817 735.707Z" fill="#2D5967"/>
</g>
</g>
<g id="Group_10">
<path id="Vector_37" d="M134.01 780.278H81.8485C80.5658 780.278 79.4257 779.135 79.4257 777.85V728.85H136.433V777.85C136.433 779.135 135.293 780.278 134.01 780.278ZM81.5634 730.992V777.992C81.5634 778.135 81.7059 778.278 81.8485 778.278H134.153C134.295 778.278 134.438 778.135 134.438 777.992V730.992H81.5634Z" fill="#2D5967"/>
</g>
<g id="Group_11">
<path id="Vector_38" d="M136.433 727.278H79.4257V725.564C79.4257 724.278 80.5658 723.135 81.8485 723.135H134.153C135.293 723.135 136.433 724.278 136.433 725.564V727.278Z" fill="#2D5967"/>
</g>
</g>
</g>
</g>
<g id="Icon Text Label_7">
<text id="IconLabel_16" fill="black" xml:space="preserve" style="white-space: pre" font-family="Oracle Sans" font-size="16" letter-spacing="0em"><tspan x="69.3672" y="799.522">OCI Object</tspan></text>
<text id="IconLabel_17" fill="black" xml:space="preserve" style="white-space: pre" font-family="Oracle Sans" font-size="16" letter-spacing="0em"><tspan x="80.1875" y="815.522">Storage</tspan></text>
</g>
</g>
<g id="Azure Blob Storage">
<g id="Azure-Blob-Storage">
<g id="Group 900">
<path id="Vector_39" d="M121.447 1004.52H94.5529C93.4426 1004.52 92.4178 1005.11 91.8666 1006.07L78.4194 1029.37C77.8681 1030.33 77.8681 1031.51 78.4194 1032.47L91.8666 1055.76C92.4178 1056.73 93.4504 1057.32 94.5529 1057.32H121.447C122.558 1057.32 123.582 1056.73 124.134 1055.76L137.581 1032.47C138.132 1031.51 138.132 1030.33 137.581 1029.37L124.134 1006.07C123.582 1005.11 122.558 1004.52 121.447 1004.52Z" fill="#2979FF"/>
<path id="Vector_40" d="M120.422 1048H95.5776C94.7235 1048 94.0248 1047.3 94.0248 1046.45V1015.39C94.0248 1014.54 94.7235 1013.84 95.5776 1013.84H115.764L121.975 1020.05V1046.45C121.975 1047.3 121.276 1048 120.422 1048Z" fill="white"/>
<path id="Vector_41" d="M115.764 1013.84V1018.5C115.764 1019.35 116.463 1020.05 117.317 1020.05H121.975L115.764 1013.84Z" fill="#B1CFFF"/>
<path id="Vector_42" d="M105.306 1030.66H103.233V1024.06L101.199 1024.65V1023.09L105.12 1021.73H105.306V1030.66ZM115.298 1027.01C115.298 1027.65 115.22 1028.21 115.073 1028.68C114.925 1029.16 114.708 1029.55 114.436 1029.86C114.165 1030.17 113.838 1030.4 113.458 1030.55C113.078 1030.69 112.658 1030.77 112.2 1030.77C111.742 1030.77 111.315 1030.69 110.935 1030.55C110.554 1030.4 110.228 1030.17 109.949 1029.86C109.677 1029.55 109.46 1029.15 109.304 1028.68C109.149 1028.21 109.079 1027.65 109.079 1027.01V1025.38C109.079 1024.73 109.157 1024.17 109.304 1023.7C109.452 1023.23 109.669 1022.83 109.941 1022.52C110.213 1022.21 110.539 1021.98 110.919 1021.83C111.3 1021.67 111.719 1021.6 112.177 1021.6C112.635 1021.6 113.054 1021.68 113.435 1021.83C113.815 1021.98 114.149 1022.21 114.421 1022.52C114.693 1022.83 114.91 1023.23 115.057 1023.7C115.205 1024.17 115.29 1024.73 115.29 1025.38V1027.01H115.298ZM113.233 1025.11C113.233 1024.76 113.21 1024.46 113.163 1024.21C113.116 1023.97 113.047 1023.77 112.953 1023.62C112.86 1023.47 112.752 1023.37 112.627 1023.3C112.503 1023.23 112.356 1023.19 112.193 1023.19C112.029 1023.19 111.882 1023.23 111.75 1023.3C111.618 1023.37 111.509 1023.47 111.424 1023.62C111.338 1023.77 111.269 1023.97 111.222 1024.21C111.175 1024.46 111.152 1024.76 111.152 1025.11V1027.26C111.152 1027.63 111.175 1027.93 111.222 1028.18C111.269 1028.43 111.338 1028.62 111.432 1028.77C111.525 1028.92 111.634 1029.03 111.765 1029.1C111.897 1029.17 112.045 1029.2 112.208 1029.2C112.371 1029.2 112.511 1029.17 112.643 1029.1C112.775 1029.03 112.884 1028.92 112.969 1028.77C113.062 1028.62 113.124 1028.42 113.171 1028.18C113.217 1027.93 113.241 1027.63 113.241 1027.26V1025.11H113.233ZM106.929 1039.57C106.929 1040.21 106.851 1040.77 106.703 1041.25C106.556 1041.72 106.338 1042.11 106.067 1042.42C105.795 1042.73 105.469 1042.96 105.088 1043.11C104.708 1043.26 104.289 1043.33 103.831 1043.33C103.373 1043.33 102.946 1043.26 102.565 1043.11C102.185 1042.96 101.859 1042.73 101.579 1042.42C101.307 1042.11 101.09 1041.71 100.935 1041.25C100.779 1040.77 100.71 1040.21 100.71 1039.57V1037.94C100.71 1037.29 100.787 1036.74 100.935 1036.26C101.082 1035.79 101.3 1035.39 101.571 1035.08C101.843 1034.77 102.169 1034.54 102.55 1034.39C102.93 1034.24 103.349 1034.17 103.815 1034.17C104.281 1034.17 104.693 1034.24 105.073 1034.39C105.453 1034.54 105.787 1034.77 106.059 1035.08C106.331 1035.39 106.548 1035.79 106.696 1036.26C106.843 1036.74 106.929 1037.29 106.929 1037.94V1039.57ZM104.863 1037.67C104.863 1037.32 104.84 1037.02 104.793 1036.77C104.747 1036.53 104.677 1036.33 104.584 1036.18C104.491 1036.04 104.382 1035.93 104.258 1035.86C104.134 1035.79 103.986 1035.76 103.823 1035.76C103.66 1035.76 103.512 1035.79 103.38 1035.86C103.248 1035.93 103.14 1036.03 103.054 1036.18C102.969 1036.33 102.899 1036.53 102.852 1036.77C102.806 1037.02 102.783 1037.32 102.783 1037.67V1039.83C102.783 1040.19 102.806 1040.49 102.852 1040.74C102.899 1040.99 102.969 1041.18 103.062 1041.33C103.155 1041.48 103.264 1041.59 103.396 1041.66C103.528 1041.73 103.675 1041.76 103.838 1041.76C104.002 1041.76 104.141 1041.73 104.273 1041.66C104.405 1041.59 104.514 1041.49 104.599 1041.33C104.693 1041.18 104.755 1040.98 104.801 1040.74C104.848 1040.49 104.871 1040.19 104.871 1039.83V1037.67H104.863ZM113.683 1043.22H111.61V1036.62L109.576 1037.22V1035.65L113.497 1034.29H113.683V1043.22Z" fill="#03A9F4"/>
</g>
</g>
<g id="Icon Text Label_8">
<text id="IconLabel_18" fill="black" xml:space="preserve" style="white-space: pre" font-family="Oracle Sans" font-size="16" letter-spacing="0em"><tspan x="87.0312" y="1079">Azure</tspan></text>
<text id="IconLabel_19" fill="black" xml:space="preserve" style="white-space: pre" font-family="Oracle Sans" font-size="16" letter-spacing="0em"><tspan x="62.0078" y="1095">Blob Storage</tspan></text>
</g>
</g>
<g id="Azure Data Factory">
<g id="Data-Factory">
<g id="Group 1508">
<path id="Vector_43" d="M387 180.411V166.612C387.001 166.513 386.973 166.416 386.919 166.333C386.865 166.251 386.787 166.186 386.696 166.148C386.605 166.11 386.504 166.101 386.407 166.12C386.311 166.14 386.222 166.188 386.153 166.259L372.035 180.376L357.353 195.058V205.188H399.988C400.253 205.192 400.517 205.144 400.763 205.044C401.01 204.945 401.233 204.797 401.421 204.609C401.609 204.421 401.757 204.198 401.856 203.951C401.956 203.705 402.004 203.441 402 203.176V166.612C402.001 166.513 401.973 166.416 401.919 166.333C401.865 166.251 401.787 166.186 401.696 166.148C401.605 166.11 401.504 166.101 401.407 166.12C401.31 166.14 401.222 166.188 401.153 166.259L387 180.411Z" fill="#005BA1"/>
<path id="Vector_44" d="M357 156.059C348.706 156.059 342 153.624 342 150.482V203.176C341.996 203.441 342.044 203.705 342.144 203.951C342.243 204.198 342.391 204.421 342.579 204.609C342.767 204.797 342.99 204.945 343.237 205.044C343.483 205.144 343.747 205.192 344.012 205.188H372V150.482C372 153.624 365.294 156.059 357 156.059Z" fill="url(#paint3_linear_17642_377913)"/>
<path id="Vector_45" d="M392.823 189.2H386.788C386.242 189.2 385.8 189.642 385.8 190.188V196.223C385.8 196.769 386.242 197.211 386.788 197.211H392.823C393.369 197.211 393.812 196.769 393.812 196.223V190.188C393.812 189.642 393.369 189.2 392.823 189.2Z" fill="white"/>
<path id="Vector_46" d="M378.918 189.2H372.883C372.337 189.2 371.895 189.642 371.895 190.188V196.223C371.895 196.769 372.337 197.211 372.883 197.211H378.918C379.464 197.211 379.906 196.769 379.906 196.223V190.188C379.906 189.642 379.464 189.2 378.918 189.2Z" fill="white"/>
<path id="Vector_47" d="M365.011 189.2H358.976C358.43 189.2 357.987 189.642 357.987 190.188V196.223C357.987 196.769 358.43 197.211 358.976 197.211H365.011C365.557 197.211 365.999 196.769 365.999 196.223V190.188C365.999 189.642 365.557 189.2 365.011 189.2Z" fill="white"/>
<path id="Vector_48" d="M372 150.483C372 153.483 365.294 155.918 357 155.918C348.706 155.918 342 153.624 342 150.483C342 147.341 348.706 145.188 357 145.188C365.294 145.188 372 147.624 372 150.483Z" fill="#EAEAEA"/>
<path id="Vector_49" d="M368.47 150.165C368.47 152.106 363.317 153.694 356.964 153.694C350.612 153.694 345.459 152.176 345.459 150.165C345.459 148.153 350.823 146.741 357 146.741C363.176 146.741 368.47 148.259 368.47 150.165Z" fill="#50E6FF"/>
<path id="Vector_50" d="M357 150.977C353.914 150.916 350.838 151.357 347.894 152.283C350.83 153.248 353.91 153.702 357 153.624C360.089 153.702 363.169 153.248 366.105 152.283C363.161 151.357 360.086 150.916 357 150.977Z" fill="#198AB3"/>
</g>
</g>
<g id="Icon Text Label_9">
<text id="IconLabel_20" fill="black" xml:space="preserve" style="white-space: pre" font-family="Oracle Sans" font-size="16" letter-spacing="0em"><tspan x="351.031" y="223.004">Azure</tspan></text>
<text id="IconLabel_21" fill="black" xml:space="preserve" style="white-space: pre" font-family="Oracle Sans" font-size="16" letter-spacing="0em"><tspan x="326.164" y="239.004">Data Factory</tspan></text>
</g>
</g>
<g id="Oracle Database@Azure">
<g id="Oracle-Database@Azure">
<g id="Group_12">
<path id="Vector_51" d="M381.37 475.952C370.132 475.952 361.022 473.976 361.022 471.54V481.811C361.022 484.248 370.132 486.223 381.37 486.223C392.607 486.223 401.717 484.248 401.717 481.811V471.54C401.717 473.976 392.607 475.952 381.37 475.952ZM398.49 478.043C396.953 478.574 395.36 478.993 393.759 479.288C391.851 479.637 389.898 479.816 387.953 479.816C387.485 479.816 387.103 479.438 387.103 478.97C387.103 478.501 387.482 478.123 387.953 478.123C389.796 478.123 391.645 477.954 393.454 477.622C394.971 477.343 396.478 476.948 397.936 476.443C398.381 476.29 398.862 476.523 399.018 476.968C399.171 477.409 398.938 477.894 398.494 478.047L398.49 478.043ZM381.37 462.742C370.132 462.742 361.022 460.767 361.022 458.33V469.146C361.022 471.583 370.132 473.555 381.37 473.555C392.607 473.555 401.717 471.58 401.717 469.143V458.327C401.717 460.763 392.607 462.739 381.37 462.739V462.742ZM398.49 465.192C396.95 465.723 395.36 466.142 393.759 466.437C391.851 466.786 389.895 466.965 387.953 466.965C387.485 466.965 387.103 466.586 387.103 466.118C387.103 465.65 387.482 465.272 387.953 465.272C389.796 465.272 391.645 465.102 393.454 464.77C394.971 464.492 396.478 464.097 397.936 463.592C398.381 463.439 398.862 463.672 399.018 464.116C399.174 464.561 398.938 465.043 398.494 465.195L398.49 465.192ZM381.37 441.671C370.132 441.671 361.022 443.623 361.022 446.853V455.94C361.022 458.376 370.132 460.348 381.37 460.348C392.607 460.348 401.717 458.373 401.717 455.936V447.182C401.717 443.62 392.607 441.671 381.37 441.671ZM398.49 452.709C396.95 453.241 395.36 453.659 393.759 453.954C391.851 454.303 389.898 454.482 387.953 454.482C387.485 454.482 387.103 454.104 387.103 453.636C387.103 453.168 387.482 452.789 387.953 452.789C389.796 452.789 391.645 452.62 393.454 452.288C394.968 452.009 396.478 451.614 397.936 451.109C398.381 450.956 398.862 451.189 399.018 451.634C399.171 452.075 398.938 452.56 398.494 452.713L398.49 452.709ZM381.37 449.705C371.247 449.705 363.044 447.862 363.044 446.77C363.044 445.429 371.247 443.357 381.37 443.357C391.492 443.357 399.695 445.512 399.695 446.77C399.695 447.912 391.492 449.705 381.37 449.705Z" fill="url(#paint4_linear_17642_377913)"/>
<path id="Vector_52" d="M361.022 446.767V446.611C361.022 443.6 368.95 441.701 379.139 441.459C377.967 438.829 375.514 436.881 372.512 436.482C372.257 430.616 367.337 426.048 361.471 426.23C356.803 426.147 352.59 429.019 350.963 433.395C345.98 433.996 342.185 438.152 342.039 443.168C342.262 448.839 347.029 453.257 352.699 453.055C353.015 453.055 353.337 453.042 353.636 453.015H361.019L361.022 446.767Z" fill="url(#paint5_linear_17642_377913)"/>
</g>
</g>
<g id="Icon Text Label_10">
<text id="IconLabel_22" fill="black" xml:space="preserve" style="white-space: pre" font-family="Oracle Sans" font-size="16" letter-spacing="0em"><tspan x="313.219" y="504.04">Oracle Database</tspan></text>
<text id="IconLabel_23" fill="black" xml:space="preserve" style="white-space: pre" font-family="Oracle Sans" font-size="16" letter-spacing="0em"><tspan x="343.016" y="520.04">@Azure</tspan></text>
</g>
</g>
<g id="Azure Data Lake Storage">
<g id="azure-data-lake-storage-gen2">
<g id="Group 1511">
<path id="Vector_53" d="M350.333 730.13V757.332C351.993 759.121 354.238 760.195 356.841 760.195C359.444 760.195 362.893 758.405 364.552 755.77C366.212 758.405 369.043 760.195 372.362 760.195V781.54V737.841C360.42 737.776 350.854 734.425 350.333 730.13Z" fill="#3E3E3E"/>
<path id="Vector_54" d="M372.751 737.841C372.621 737.841 372.523 737.841 372.393 737.841V781.54V781.67H372.621V760.195C375.94 760.065 378.771 758.405 380.333 755.77C381.992 758.405 384.953 760.195 388.272 760.195C391.591 760.195 393.38 758.991 395.04 757.201V773.536C395.04 777.798 385.604 781.41 373.825 781.637C385.669 781.442 395.137 777.831 395.137 773.536V730.13C394.649 734.457 384.888 737.841 372.751 737.841Z" fill="#A0A1A2"/>
<path id="Vector_55" d="M364.552 755.77C362.893 758.406 360.16 760.195 356.841 760.195C353.522 760.195 351.993 759.121 350.333 757.332V773.568C350.333 777.993 360.16 781.573 372.394 781.67V760.195C369.075 760.195 366.244 758.406 364.585 755.77H364.552Z" fill="#3999C6"/>
<path id="Vector_56" d="M395.04 773.568V757.234C393.38 759.024 391.005 760.227 388.272 760.227C385.539 760.227 381.992 758.438 380.333 755.802C378.803 758.438 375.94 760.097 372.621 760.227V781.702C373.012 781.702 373.435 781.702 373.825 781.702C385.604 781.475 395.04 777.863 395.04 773.601V773.568Z" fill="#59B4D9"/>
<path id="Vector_57" d="M372.394 737.841C372.524 737.841 372.622 737.841 372.752 737.841C384.889 737.841 394.65 734.458 395.138 730.13C395.138 730 395.138 729.902 395.138 729.772C395.138 725.379 385.051 721.703 372.719 721.703C360.388 721.703 350.333 725.379 350.333 729.772C350.333 734.165 350.333 730 350.333 730.13C350.821 734.425 360.388 737.776 372.362 737.841H372.394ZM372.752 723.948C373.045 723.948 373.37 723.948 373.663 723.948C374.281 723.948 374.867 723.948 375.453 724.013C375.746 724.013 376.038 724.013 376.331 724.045C377.503 724.11 378.609 724.208 379.683 724.371C380.756 724.533 380.203 724.436 380.464 724.468C382.546 724.761 384.401 725.184 385.93 725.672C388.793 726.616 390.55 727.885 390.55 729.284C390.55 730.683 389.249 731.659 386.873 732.603C386.873 732.603 386.808 732.603 386.776 732.603C383.522 733.839 378.446 734.653 372.752 734.653C367.058 734.653 361.982 733.839 358.728 732.603C358.728 732.603 358.663 732.603 358.631 732.603C357.915 732.31 357.264 731.952 356.711 731.627C355.67 730.976 355.084 730.293 354.954 729.544C354.954 729.479 354.954 729.382 354.954 729.317C354.954 726.356 362.893 723.98 372.719 723.98L372.752 723.948Z" fill="white"/>
<path id="Vector_58" d="M354.986 729.544C355.084 730.293 355.702 731.009 356.744 731.628C355.735 730.977 355.116 730.261 354.986 729.544Z" fill="#7FBA00"/>
<path id="Vector_59" d="M358.729 732.603C361.983 733.839 367.059 734.653 372.753 734.653C378.447 734.653 383.523 733.839 386.777 732.603C383.458 731.301 378.382 730.488 372.753 730.488C367.124 730.488 361.918 731.301 358.729 732.603Z" fill="#7FBA00"/>
<path id="Vector_60" d="M356.743 731.627C357.263 731.985 357.914 732.31 358.663 732.603C358.663 732.603 358.728 732.603 358.76 732.603C361.949 731.301 367.025 730.488 372.784 730.488C378.543 730.488 383.489 731.301 386.808 732.603C386.808 732.603 386.873 732.603 386.906 732.603C389.281 731.659 390.582 730.585 390.582 729.284C390.582 727.982 388.825 726.616 385.962 725.672C384.433 725.152 382.578 724.761 380.496 724.468C380.235 724.436 379.975 724.403 379.715 724.371C378.641 724.241 377.535 724.143 376.363 724.045C376.07 724.045 375.778 724.013 375.485 724.013C374.899 724.013 374.281 723.98 373.695 723.948C373.402 723.948 373.077 723.948 372.784 723.948C362.958 723.948 355.018 726.323 355.018 729.284C355.018 732.245 355.018 729.447 355.018 729.512C355.148 730.228 355.767 730.943 356.775 731.594L356.743 731.627Z" fill="#B8D432"/>
</g>
</g>
<g id="Icon Text Label_11">
<text id="IconLabel_24" fill="black" xml:space="preserve" style="white-space: pre" font-family="Oracle Sans" font-size="16" letter-spacing="0em"><tspan x="332.164" y="799.522">Azure Data</tspan></text>
<text id="IconLabel_25" fill="black" xml:space="preserve" style="white-space: pre" font-family="Oracle Sans" font-size="16" letter-spacing="0em"><tspan x="325.258" y="815.522">Lake Storage</tspan></text>
</g>
</g>
<g id="Power BI">
<g id="Azure-Power-BI">
<g id="Group_13">
<g id="group1076-1">
<g id="group1077-2">
<g id="shape1078-3">
<path id="Vector_61" fill-rule="evenodd" clip-rule="evenodd" d="M633.56 426.224V484.999H606.895V426.224H633.56Z" fill="url(#paint6_linear_17642_377913)"/>
</g>
<g id="shape1079-7">
<path id="Vector_62" fill-rule="evenodd" clip-rule="evenodd" d="M616.895 443.618V485.244H590.229V441.166H613.556C615.399 441.166 616.895 442.26 616.895 443.618Z" fill="black" fill-opacity="0.2"/>
</g>
<g id="shape1080-9">
<path id="Vector_63" fill-rule="evenodd" clip-rule="evenodd" d="M616.895 444.597V486.224H590.229V442.146H613.556C615.399 442.146 616.895 443.24 616.895 444.597Z" fill="black" fill-opacity="0.18"/>
</g>
<g id="shape1081-11">
<path id="Vector_64" fill-rule="evenodd" clip-rule="evenodd" d="M616.895 443.373V484.999H590.229V440.921H613.556C615.399 440.921 616.895 442.015 616.895 443.373Z" fill="url(#paint7_linear_17642_377913)"/>
</g>
<g id="shape1082-15">
<path id="Vector_65" fill-rule="evenodd" clip-rule="evenodd" d="M573.562 455.618V484.999H600.228V458.07C600.228 456.712 598.732 455.618 596.89 455.618H573.562Z" fill="url(#paint8_linear_17642_377913)"/>
</g>
</g>
</g>
</g>
</g>
<g id="Icon Text Label_12">
<text id="IconLabel_26" fill="black" xml:space="preserve" style="white-space: pre" font-family="Oracle Sans" font-size="16" letter-spacing="0em"><tspan x="572.078" y="504.04">Power BI</tspan></text>
</g>
</g>
<path id="Vector 57" d="M144 64H240V753.188H144" stroke="#312D2A" stroke-width="2"/>
<path id="Vector 58" d="M144 321.188H240" stroke="#312D2A" stroke-width="2"/>
<path id="Vector 65" d="M144 176.742H240" stroke="#312D2A" stroke-width="2"/>
<path id="Vector 60" d="M272.917 465.896C273.308 465.505 273.308 464.872 272.917 464.481L266.553 458.117C266.163 457.727 265.529 457.727 265.139 458.117C264.748 458.508 264.748 459.141 265.139 459.532L270.796 465.188L265.139 470.845C264.748 471.236 264.748 471.869 265.139 472.26C265.529 472.65 266.163 472.65 266.553 472.26L272.917 465.896ZM144 466.188H272.21V464.188H144V466.188Z" fill="#312D2A"/>
<path id="Vector 63" d="M568.707 466.931C569.098 466.54 569.098 465.907 568.707 465.517L562.343 459.153C561.953 458.762 561.319 458.762 560.929 459.153C560.538 459.543 560.538 460.176 560.929 460.567L566.586 466.224L560.929 471.881C560.538 472.271 560.538 472.904 560.929 473.295C561.319 473.685 561.953 473.685 562.343 473.295L568.707 466.931ZM408 467.224L568 467.224L568 465.224L408 465.224L408 467.224Z" fill="#312D2A"/>
<path id="Vector 64" d="M372.707 525.731C372.317 525.341 371.683 525.341 371.293 525.731L364.929 532.095C364.538 532.486 364.538 533.119 364.929 533.51C365.319 533.9 365.953 533.9 366.343 533.51L372 527.853L377.657 533.51C378.047 533.9 378.681 533.9 379.071 533.51C379.462 533.119 379.462 532.486 379.071 532.095L372.707 525.731ZM373 721.188L373 526.438L371 526.438L371 721.188L373 721.188Z" fill="#312D2A"/>
<path id="Vector 61" d="M272.707 1031.9C273.098 1031.51 273.098 1030.87 272.707 1030.48L266.343 1024.12C265.953 1023.73 265.319 1023.73 264.929 1024.12C264.538 1024.51 264.538 1025.14 264.929 1025.53L270.586 1031.19L264.929 1036.85C264.538 1037.24 264.538 1037.87 264.929 1038.26C265.319 1038.65 265.953 1038.65 266.343 1038.26L272.707 1031.9ZM144 1032.19H272V1030.19H144V1032.19Z" fill="#312D2A"/>
<path id="Vector 62" d="M272.707 881.896C273.098 881.505 273.098 880.872 272.707 880.481L266.343 874.117C265.953 873.727 265.319 873.727 264.929 874.117C264.538 874.508 264.538 875.141 264.929 875.532L270.586 881.188L264.929 886.845C264.538 887.236 264.538 887.869 264.929 888.26C265.319 888.65 265.953 888.65 266.343 888.26L272.707 881.896ZM144 882.188H272V880.188H144V882.188Z" fill="#312D2A"/>
<path id="Vector 59" d="M144 617.882H240" stroke="#312D2A" stroke-width="2"/>
</g>
</g>
<defs>
<linearGradient id="paint0_linear_17642_377913" x1="86.3333" y1="302.667" x2="131.318" y2="302.667" gradientUnits="userSpaceOnUse">
<stop stop-color="#005BA1"/>
<stop offset="0.07" stop-color="#0060A9"/>
<stop offset="0.36" stop-color="#0071C8"/>
<stop offset="0.52" stop-color="#0078D4"/>
<stop offset="0.64" stop-color="#0074CD"/>
<stop offset="0.82" stop-color="#006ABB"/>
<stop offset="1" stop-color="#005BA1"/>
</linearGradient>
<radialGradient id="paint1_radial_17642_377913" cx="0" cy="0" r="1" gradientUnits="userSpaceOnUse" gradientTransform="translate(109.963 330.01) scale(26.3071 13.4724)">
<stop stop-color="#F2F2F2"/>
<stop offset="0.58" stop-color="#EEEEEE"/>
<stop offset="1" stop-color="#E6E6E6"/>
</radialGradient>
<radialGradient id="paint2_radial_17642_377913" cx="0" cy="0" r="1" gradientUnits="userSpaceOnUse" gradientTransform="translate(86.2454 599.624) scale(60.7382 60.1766)">
<stop offset="0.185" stop-color="#5EA0EF"/>
<stop offset="1" stop-color="#0078D4"/>
</radialGradient>
<linearGradient id="paint3_linear_17642_377913" x1="342" y1="177.906" x2="372" y2="177.906" gradientUnits="userSpaceOnUse">
<stop stop-color="#005BA1"/>
<stop offset="0.07" stop-color="#0060A9"/>
<stop offset="0.36" stop-color="#0071C8"/>
<stop offset="0.52" stop-color="#0078D4"/>
<stop offset="0.64" stop-color="#0074CD"/>
<stop offset="0.81" stop-color="#006ABB"/>
<stop offset="0.99" stop-color="#005BA1"/>
</linearGradient>
<linearGradient id="paint4_linear_17642_377913" x1="361.022" y1="463.947" x2="401.717" y2="463.947" gradientUnits="userSpaceOnUse">
<stop stop-color="#C74634"/>
<stop offset="0.5" stop-color="#DB897D"/>
<stop offset="1" stop-color="#C74634"/>
</linearGradient>
<linearGradient id="paint5_linear_17642_377913" x1="360.587" y1="453.062" x2="360.587" y2="426.224" gradientUnits="userSpaceOnUse">
<stop stop-color="#32BEDD"/>
<stop offset="1" stop-color="#50E6FF"/>
</linearGradient>
<linearGradient id="paint6_linear_17642_377913" x1="597.485" y1="422.795" x2="619.263" y2="438.182" gradientUnits="userSpaceOnUse">
<stop stop-color="#E6AD10"/>
<stop offset="1" stop-color="#C87E0E"/>
</linearGradient>
<linearGradient id="paint7_linear_17642_377913" x1="570.012" y1="432.896" x2="590.21" y2="450.305" gradientUnits="userSpaceOnUse">
<stop stop-color="#F6D751"/>
<stop offset="1" stop-color="#E6AD10"/>
</linearGradient>
<linearGradient id="paint8_linear_17642_377913" x1="535.083" y1="433.671" x2="549.344" y2="456.203" gradientUnits="userSpaceOnUse">
<stop stop-color="#F9E589"/>
<stop offset="1" stop-color="#F6D751"/>
</linearGradient>
<clipPath id="clip0_17642_377913">
<rect width="712" height="1112" fill="white"/>
</clipPath>
</defs>
</svg>
