<svg width="1232" height="497" viewBox="0 0 1232 497" fill="none" xmlns="http://www.w3.org/2000/svg">
<g id="ocvs-vsan-stretched-cluster" clip-path="url(#clip0_15289_208)">
<rect width="1232" height="497" fill="white"/>
<g id="OCI Region">
<rect x="0.5" y="193.5" width="439" height="303" rx="3.5" fill="#F5F4F2"/>
<rect x="0.5" y="193.5" width="439" height="303" rx="3.5" stroke="#9E9892"/>
<text id="OCI Region_2" fill="#312D2A" xml:space="preserve" style="white-space: pre" font-family="Oracle Sans" font-size="16" font-weight="bold" letter-spacing="0em"><tspan x="8" y="214.816">OCI Region A</tspan></text>
</g>
<g id="OCI Region_3">
<rect x="472.5" y="0.5" width="287" height="177" rx="3.5" fill="#F5F4F2"/>
<rect x="472.5" y="0.5" width="287" height="177" rx="3.5" stroke="#9E9892"/>
<text id="OCI Region_4" fill="#312D2A" xml:space="preserve" style="white-space: pre" font-family="Oracle Sans" font-size="16" font-weight="bold" letter-spacing="0em"><tspan x="480" y="21.816">Region C</tspan></text>
</g>
<g id="OCI Region_5">
<rect x="16.5" y="225.5" width="415" height="255" fill="#E4E1DD"/>
<rect x="16.5" y="225.5" width="415" height="255" stroke="#9E9892" stroke-dasharray="6 6"/>
<text id="Availability Domain" fill="#312D2A" xml:space="preserve" style="white-space: pre" font-family="Oracle Sans" font-size="16" font-weight="600" letter-spacing="0em"><tspan x="24" y="246.816">VMware SDDC</tspan></text>
</g>
<g id="OCI Region_6">
<rect x="488.5" y="32.5" width="255" height="129" fill="#E4E1DD"/>
<rect x="488.5" y="32.5" width="255" height="129" stroke="#9E9892" stroke-dasharray="6 6"/>
<text id="Availability Domain_2" fill="#312D2A" xml:space="preserve" style="white-space: pre" font-family="Oracle Sans" font-size="16" font-weight="600" letter-spacing="0em"><tspan x="542.68" y="53.816">VMware Hypervisor</tspan></text>
</g>
<g id="OCI Region_7">
<rect x="25.5" y="257.5" width="127" height="31" rx="3.5" fill="white"/>
<rect x="25.5" y="257.5" width="127" height="31" rx="3.5" stroke="#9E9892"/>
<text id="OCI Region_8" fill="#312D2A" xml:space="preserve" style="white-space: pre" font-family="Oracle Sans" font-size="16" font-weight="600" letter-spacing="0em"><tspan x="59.9609" y="278.816">vCenter</tspan></text>
</g>
<g id="OCI Region_9">
<rect x="297.5" y="257.5" width="127" height="31" rx="3.5" fill="#F5F4F2"/>
<rect x="297.5" y="257.5" width="127" height="31" rx="3.5" stroke="#9E9892"/>
<text id="OCI Region_10" fill="#312D2A" xml:space="preserve" style="white-space: pre" font-family="Oracle Sans" font-size="16" font-weight="600" letter-spacing="0em"><tspan x="305" y="278.816">Workload VMs</tspan></text>
</g>
<g id="OCI Region_11">
<rect x="161.5" y="257.5" width="127" height="31" rx="3.5" fill="white"/>
<rect x="161.5" y="257.5" width="127" height="31" rx="3.5" stroke="#9E9892"/>
<text id="OCI Region_12" fill="#312D2A" xml:space="preserve" style="white-space: pre" font-family="Oracle Sans" font-size="16" font-weight="600" letter-spacing="0em"><tspan x="209.148" y="278.816">NSX</tspan></text>
</g>
<g id="Group 1">
<g id="Icon Master">
<g id="Srv-OCI Compute Bare Metal">
<g id="Group">
<g id="Group_2">
<g id="Group_3">
<path id="Vector" d="M83.8572 434.286C82.1429 434.286 80.7143 432.857 80.7143 431.143V378.857C80.7143 377.143 82.1429 375.714 83.8572 375.714H136.286C138 375.714 139.429 377.143 139.429 378.857V431.286C139.429 433 138 434.429 136.286 434.429L83.8572 434.286Z" fill="white"/>
<path id="Vector_2" d="M136.143 376.429C137.429 376.429 138.571 377.571 138.571 378.857V431.286C138.571 432.571 137.429 433.714 136.143 433.714H83.8571C82.5714 433.571 81.4286 432.429 81.4286 431.143V378.857C81.4286 377.571 82.5714 376.429 83.8571 376.429H136.143ZM136.143 375H83.8571C81.7143 375 80 376.714 80 378.857V431.286C80 433.286 81.7143 435 83.8571 435H136.286C138.429 435 140.143 433.286 140.143 431.143V378.857C140 376.714 138.286 375 136.143 375Z" fill="white"/>
</g>
<g id="Group_4">
<path id="Vector_3" d="M136.143 376.429H83.8572C82.5714 376.429 81.4286 377.572 81.4286 378.857V431.286C81.4286 432.429 82.5714 433.572 83.8572 433.572H136.286C137.571 433.572 138.714 432.429 138.714 431.143V378.857C138.571 377.572 137.429 376.429 136.143 376.429ZM136.429 431.143C136.429 431.286 136.286 431.429 136.143 431.429H83.8572C83.7143 431.429 83.5714 431.286 83.5714 431.143V378.857C83.5714 378.714 83.7143 378.572 83.8572 378.572H136.286C136.429 378.572 136.571 378.714 136.571 378.857L136.429 431.143Z" fill="#2D5967"/>
<path id="Vector_4" d="M87.7142 427H132.143V414.286H87.7142V427ZM89.8571 416.429H130V424.857H89.8571V416.429Z" fill="#2D5967"/>
<path id="Vector_5" d="M125.286 422.143C126.154 422.143 126.857 421.439 126.857 420.571C126.857 419.704 126.154 419 125.286 419C124.418 419 123.714 419.704 123.714 420.571C123.714 421.439 124.418 422.143 125.286 422.143Z" fill="#2D5967"/>
<path id="Vector_6" d="M87.7142 395.429H132.143V382.714H87.7142V395.429ZM89.8571 384.857H130V393.286H89.8571V384.857Z" fill="#2D5967"/>
<path id="Vector_7" d="M125.286 390.715C126.154 390.715 126.857 390.011 126.857 389.143C126.857 388.275 126.154 387.572 125.286 387.572C124.418 387.572 123.714 388.275 123.714 389.143C123.714 390.011 124.418 390.715 125.286 390.715Z" fill="#2D5967"/>
<path id="Vector_8" d="M87.7142 411.286H132.143V398.572H87.7142V411.286ZM89.8571 400.715H130V409.286H89.8571V400.715Z" fill="#2D5967"/>
<path id="Vector_9" d="M125.286 406.572C126.154 406.572 126.857 405.868 126.857 405C126.857 404.132 126.154 403.429 125.286 403.429C124.418 403.429 123.714 404.132 123.714 405C123.714 405.868 124.418 406.572 125.286 406.572Z" fill="#2D5967"/>
</g>
</g>
</g>
</g>
</g>
<g id="Icon Master_2">
<g id="Srv-OCI Compute Bare Metal_2">
<g id="Group_5">
<g id="Group_6">
<g id="Group_7">
<path id="Vector_10" d="M187.857 434.286C186.143 434.286 184.714 432.857 184.714 431.143V378.857C184.714 377.143 186.143 375.714 187.857 375.714H240.286C242 375.714 243.429 377.143 243.429 378.857V431.286C243.429 433 242 434.429 240.286 434.429L187.857 434.286Z" fill="white"/>
<path id="Vector_11" d="M240.143 376.429C241.429 376.429 242.571 377.571 242.571 378.857V431.286C242.571 432.571 241.429 433.714 240.143 433.714H187.857C186.571 433.571 185.429 432.429 185.429 431.143V378.857C185.429 377.571 186.571 376.429 187.857 376.429H240.143ZM240.143 375H187.857C185.714 375 184 376.714 184 378.857V431.286C184 433.286 185.714 435 187.857 435H240.286C242.429 435 244.143 433.286 244.143 431.143V378.857C244 376.714 242.286 375 240.143 375Z" fill="white"/>
</g>
<g id="Group_8">
<path id="Vector_12" d="M240.143 376.429H187.857C186.571 376.429 185.429 377.572 185.429 378.857V431.286C185.429 432.429 186.571 433.572 187.857 433.572H240.286C241.571 433.572 242.714 432.429 242.714 431.143V378.857C242.571 377.572 241.429 376.429 240.143 376.429ZM240.429 431.143C240.429 431.286 240.286 431.429 240.143 431.429H187.857C187.714 431.429 187.571 431.286 187.571 431.143V378.857C187.571 378.714 187.714 378.572 187.857 378.572H240.286C240.429 378.572 240.571 378.714 240.571 378.857L240.429 431.143Z" fill="#2D5967"/>
<path id="Vector_13" d="M191.714 427H236.143V414.286H191.714V427ZM193.857 416.429H234V424.857H193.857V416.429Z" fill="#2D5967"/>
<path id="Vector_14" d="M229.286 422.143C230.154 422.143 230.857 421.439 230.857 420.571C230.857 419.704 230.154 419 229.286 419C228.418 419 227.714 419.704 227.714 420.571C227.714 421.439 228.418 422.143 229.286 422.143Z" fill="#2D5967"/>
<path id="Vector_15" d="M191.714 395.429H236.143V382.714H191.714V395.429ZM193.857 384.857H234V393.286H193.857V384.857Z" fill="#2D5967"/>
<path id="Vector_16" d="M229.286 390.715C230.154 390.715 230.857 390.011 230.857 389.143C230.857 388.275 230.154 387.572 229.286 387.572C228.418 387.572 227.714 388.275 227.714 389.143C227.714 390.011 228.418 390.715 229.286 390.715Z" fill="#2D5967"/>
<path id="Vector_17" d="M191.714 411.286H236.143V398.572H191.714V411.286ZM193.857 400.715H234V409.286H193.857V400.715Z" fill="#2D5967"/>
<path id="Vector_18" d="M229.286 406.572C230.154 406.572 230.857 405.868 230.857 405C230.857 404.132 230.154 403.429 229.286 403.429C228.418 403.429 227.714 404.132 227.714 405C227.714 405.868 228.418 406.572 229.286 406.572Z" fill="#2D5967"/>
</g>
</g>
</g>
</g>
</g>
<g id="Icon Master_3">
<g id="Srv-OCI Compute Bare Metal_3">
<g id="Group_9">
<g id="Group_10">
<g id="Group_11">
<path id="Vector_19" d="M357.857 434.286C356.143 434.286 354.714 432.857 354.714 431.143V378.857C354.714 377.143 356.143 375.714 357.857 375.714H410.286C412 375.714 413.429 377.143 413.429 378.857V431.286C413.429 433 412 434.429 410.286 434.429L357.857 434.286Z" fill="white"/>
<path id="Vector_20" d="M410.143 376.429C411.429 376.429 412.571 377.571 412.571 378.857V431.286C412.571 432.571 411.429 433.714 410.143 433.714H357.857C356.571 433.571 355.429 432.429 355.429 431.143V378.857C355.429 377.571 356.571 376.429 357.857 376.429H410.143ZM410.143 375H357.857C355.714 375 354 376.714 354 378.857V431.286C354 433.286 355.714 435 357.857 435H410.286C412.429 435 414.143 433.286 414.143 431.143V378.857C414 376.714 412.286 375 410.143 375Z" fill="white"/>
</g>
<g id="Group_12">
<path id="Vector_21" d="M410.143 376.429H357.857C356.571 376.429 355.429 377.572 355.429 378.857V431.286C355.429 432.429 356.571 433.572 357.857 433.572H410.286C411.571 433.572 412.714 432.429 412.714 431.143V378.857C412.571 377.572 411.429 376.429 410.143 376.429ZM410.429 431.143C410.429 431.286 410.286 431.429 410.143 431.429H357.857C357.714 431.429 357.571 431.286 357.571 431.143V378.857C357.571 378.714 357.714 378.572 357.857 378.572H410.286C410.429 378.572 410.571 378.714 410.571 378.857L410.429 431.143Z" fill="#2D5967"/>
<path id="Vector_22" d="M361.714 427H406.143V414.286H361.714V427ZM363.857 416.429H404V424.857H363.857V416.429Z" fill="#2D5967"/>
<path id="Vector_23" d="M399.286 422.143C400.154 422.143 400.857 421.439 400.857 420.571C400.857 419.704 400.154 419 399.286 419C398.418 419 397.714 419.704 397.714 420.571C397.714 421.439 398.418 422.143 399.286 422.143Z" fill="#2D5967"/>
<path id="Vector_24" d="M361.714 395.429H406.143V382.714H361.714V395.429ZM363.857 384.857H404V393.286H363.857V384.857Z" fill="#2D5967"/>
<path id="Vector_25" d="M399.286 390.715C400.154 390.715 400.857 390.011 400.857 389.143C400.857 388.275 400.154 387.572 399.286 387.572C398.418 387.572 397.714 388.275 397.714 389.143C397.714 390.011 398.418 390.715 399.286 390.715Z" fill="#2D5967"/>
<path id="Vector_26" d="M361.714 411.286H406.143V398.572H361.714V411.286ZM363.857 400.715H404V409.286H363.857V400.715Z" fill="#2D5967"/>
<path id="Vector_27" d="M399.286 406.572C400.154 406.572 400.857 405.868 400.857 405C400.857 404.132 400.154 403.429 399.286 403.429C398.418 403.429 397.714 404.132 397.714 405C397.714 405.868 398.418 406.572 399.286 406.572Z" fill="#2D5967"/>
</g>
</g>
</g>
</g>
</g>
<text id=". . ." fill="#2D5967" xml:space="preserve" style="white-space: pre" font-family="Oracle Sans" font-size="24" font-weight="800" letter-spacing="0em"><tspan x="285.035" y="407.724">. . .</tspan></text>
</g>
<g id="Group 3">
<g id="OCI Region_13">
<rect x="792.5" y="193.5" width="439" height="303" rx="3.5" fill="#F5F4F2"/>
<rect x="792.5" y="193.5" width="439" height="303" rx="3.5" stroke="#9E9892"/>
<text id="OCI Region_14" fill="#312D2A" xml:space="preserve" style="white-space: pre" font-family="Oracle Sans" font-size="16" font-weight="bold" letter-spacing="0em"><tspan x="800" y="214.816">OCI Region B</tspan></text>
</g>
<g id="OCI Region_15">
<rect x="808.5" y="225.5" width="415" height="255" fill="#E4E1DD"/>
<rect x="808.5" y="225.5" width="415" height="255" stroke="#9E9892" stroke-dasharray="6 6"/>
<text id="Availability Domain_3" fill="#312D2A" xml:space="preserve" style="white-space: pre" font-family="Oracle Sans" font-size="16" font-weight="600" letter-spacing="0em"><tspan x="816" y="246.816">VMware SDDC</tspan></text>
</g>
<g id="Group 2">
<g id="Icon Master_4">
<g id="Srv-OCI Compute Bare Metal_4">
<g id="Group_13">
<g id="Group_14">
<g id="Group_15">
<path id="Vector_28" d="M835.857 434.286C834.143 434.286 832.714 432.857 832.714 431.143V378.857C832.714 377.143 834.143 375.714 835.857 375.714H888.286C890 375.714 891.429 377.143 891.429 378.857V431.286C891.429 433 890 434.429 888.286 434.429L835.857 434.286Z" fill="white"/>
<path id="Vector_29" d="M888.143 376.429C889.429 376.429 890.571 377.571 890.571 378.857V431.286C890.571 432.571 889.429 433.714 888.143 433.714H835.857C834.571 433.571 833.429 432.429 833.429 431.143V378.857C833.429 377.571 834.571 376.429 835.857 376.429H888.143ZM888.143 375H835.857C833.714 375 832 376.714 832 378.857V431.286C832 433.286 833.714 435 835.857 435H888.286C890.429 435 892.143 433.286 892.143 431.143V378.857C892 376.714 890.286 375 888.143 375Z" fill="white"/>
</g>
<g id="Group_16">
<path id="Vector_30" d="M888.143 376.429H835.857C834.571 376.429 833.429 377.572 833.429 378.857V431.286C833.429 432.429 834.571 433.572 835.857 433.572H888.286C889.571 433.572 890.714 432.429 890.714 431.143V378.857C890.571 377.572 889.429 376.429 888.143 376.429ZM888.429 431.143C888.429 431.286 888.286 431.429 888.143 431.429H835.857C835.714 431.429 835.571 431.286 835.571 431.143V378.857C835.571 378.714 835.714 378.572 835.857 378.572H888.286C888.429 378.572 888.571 378.714 888.571 378.857L888.429 431.143Z" fill="#2D5967"/>
<path id="Vector_31" d="M839.714 427H884.143V414.286H839.714V427ZM841.857 416.429H882V424.857H841.857V416.429Z" fill="#2D5967"/>
<path id="Vector_32" d="M877.286 422.143C878.154 422.143 878.857 421.439 878.857 420.571C878.857 419.704 878.154 419 877.286 419C876.418 419 875.714 419.704 875.714 420.571C875.714 421.439 876.418 422.143 877.286 422.143Z" fill="#2D5967"/>
<path id="Vector_33" d="M839.714 395.429H884.143V382.714H839.714V395.429ZM841.857 384.857H882V393.286H841.857V384.857Z" fill="#2D5967"/>
<path id="Vector_34" d="M877.286 390.715C878.154 390.715 878.857 390.011 878.857 389.143C878.857 388.275 878.154 387.572 877.286 387.572C876.418 387.572 875.714 388.275 875.714 389.143C875.714 390.011 876.418 390.715 877.286 390.715Z" fill="#2D5967"/>
<path id="Vector_35" d="M839.714 411.286H884.143V398.572H839.714V411.286ZM841.857 400.715H882V409.286H841.857V400.715Z" fill="#2D5967"/>
<path id="Vector_36" d="M877.286 406.572C878.154 406.572 878.857 405.868 878.857 405C878.857 404.132 878.154 403.429 877.286 403.429C876.418 403.429 875.714 404.132 875.714 405C875.714 405.868 876.418 406.572 877.286 406.572Z" fill="#2D5967"/>
</g>
</g>
</g>
</g>
</g>
<g id="Icon Master_5">
<g id="Srv-OCI Compute Bare Metal_5">
<g id="Group_17">
<g id="Group_18">
<g id="Group_19">
<path id="Vector_37" d="M939.857 434.286C938.143 434.286 936.714 432.857 936.714 431.143V378.857C936.714 377.143 938.143 375.714 939.857 375.714H992.286C994 375.714 995.429 377.143 995.429 378.857V431.286C995.429 433 994 434.429 992.286 434.429L939.857 434.286Z" fill="white"/>
<path id="Vector_38" d="M992.143 376.429C993.429 376.429 994.571 377.571 994.571 378.857V431.286C994.571 432.571 993.429 433.714 992.143 433.714H939.857C938.571 433.571 937.429 432.429 937.429 431.143V378.857C937.429 377.571 938.571 376.429 939.857 376.429H992.143ZM992.143 375H939.857C937.714 375 936 376.714 936 378.857V431.286C936 433.286 937.714 435 939.857 435H992.286C994.429 435 996.143 433.286 996.143 431.143V378.857C996 376.714 994.286 375 992.143 375Z" fill="white"/>
</g>
<g id="Group_20">
<path id="Vector_39" d="M992.143 376.429H939.857C938.571 376.429 937.429 377.572 937.429 378.857V431.286C937.429 432.429 938.571 433.572 939.857 433.572H992.286C993.571 433.572 994.714 432.429 994.714 431.143V378.857C994.571 377.572 993.429 376.429 992.143 376.429ZM992.429 431.143C992.429 431.286 992.286 431.429 992.143 431.429H939.857C939.714 431.429 939.571 431.286 939.571 431.143V378.857C939.571 378.714 939.714 378.572 939.857 378.572H992.286C992.429 378.572 992.571 378.714 992.571 378.857L992.429 431.143Z" fill="#2D5967"/>
<path id="Vector_40" d="M943.714 427H988.143V414.286H943.714V427ZM945.857 416.429H986V424.857H945.857V416.429Z" fill="#2D5967"/>
<path id="Vector_41" d="M981.286 422.143C982.154 422.143 982.857 421.439 982.857 420.571C982.857 419.704 982.154 419 981.286 419C980.418 419 979.714 419.704 979.714 420.571C979.714 421.439 980.418 422.143 981.286 422.143Z" fill="#2D5967"/>
<path id="Vector_42" d="M943.714 395.429H988.143V382.714H943.714V395.429ZM945.857 384.857H986V393.286H945.857V384.857Z" fill="#2D5967"/>
<path id="Vector_43" d="M981.286 390.715C982.154 390.715 982.857 390.011 982.857 389.143C982.857 388.275 982.154 387.572 981.286 387.572C980.418 387.572 979.714 388.275 979.714 389.143C979.714 390.011 980.418 390.715 981.286 390.715Z" fill="#2D5967"/>
<path id="Vector_44" d="M943.714 411.286H988.143V398.572H943.714V411.286ZM945.857 400.715H986V409.286H945.857V400.715Z" fill="#2D5967"/>
<path id="Vector_45" d="M981.286 406.572C982.154 406.572 982.857 405.868 982.857 405C982.857 404.132 982.154 403.429 981.286 403.429C980.418 403.429 979.714 404.132 979.714 405C979.714 405.868 980.418 406.572 981.286 406.572Z" fill="#2D5967"/>
</g>
</g>
</g>
</g>
</g>
<g id="Icon Master_6">
<g id="Srv-OCI Compute Bare Metal_6">
<g id="Group_21">
<g id="Group_22">
<g id="Group_23">
<path id="Vector_46" d="M1109.86 434.286C1108.14 434.286 1106.71 432.857 1106.71 431.143V378.857C1106.71 377.143 1108.14 375.714 1109.86 375.714H1162.29C1164 375.714 1165.43 377.143 1165.43 378.857V431.286C1165.43 433 1164 434.429 1162.29 434.429L1109.86 434.286Z" fill="white"/>
<path id="Vector_47" d="M1162.14 376.429C1163.43 376.429 1164.57 377.571 1164.57 378.857V431.286C1164.57 432.571 1163.43 433.714 1162.14 433.714H1109.86C1108.57 433.571 1107.43 432.429 1107.43 431.143V378.857C1107.43 377.571 1108.57 376.429 1109.86 376.429H1162.14ZM1162.14 375H1109.86C1107.71 375 1106 376.714 1106 378.857V431.286C1106 433.286 1107.71 435 1109.86 435H1162.29C1164.43 435 1166.14 433.286 1166.14 431.143V378.857C1166 376.714 1164.29 375 1162.14 375Z" fill="white"/>
</g>
<g id="Group_24">
<path id="Vector_48" d="M1162.14 376.429H1109.86C1108.57 376.429 1107.43 377.572 1107.43 378.857V431.286C1107.43 432.429 1108.57 433.572 1109.86 433.572H1162.29C1163.57 433.572 1164.71 432.429 1164.71 431.143V378.857C1164.57 377.572 1163.43 376.429 1162.14 376.429ZM1162.43 431.143C1162.43 431.286 1162.29 431.429 1162.14 431.429H1109.86C1109.71 431.429 1109.57 431.286 1109.57 431.143V378.857C1109.57 378.714 1109.71 378.572 1109.86 378.572H1162.29C1162.43 378.572 1162.57 378.714 1162.57 378.857L1162.43 431.143Z" fill="#2D5967"/>
<path id="Vector_49" d="M1113.71 427H1158.14V414.286H1113.71V427ZM1115.86 416.429H1156V424.857H1115.86V416.429Z" fill="#2D5967"/>
<path id="Vector_50" d="M1151.29 422.143C1152.15 422.143 1152.86 421.439 1152.86 420.571C1152.86 419.704 1152.15 419 1151.29 419C1150.42 419 1149.71 419.704 1149.71 420.571C1149.71 421.439 1150.42 422.143 1151.29 422.143Z" fill="#2D5967"/>
<path id="Vector_51" d="M1113.71 395.429H1158.14V382.714H1113.71V395.429ZM1115.86 384.857H1156V393.286H1115.86V384.857Z" fill="#2D5967"/>
<path id="Vector_52" d="M1151.29 390.715C1152.15 390.715 1152.86 390.011 1152.86 389.143C1152.86 388.275 1152.15 387.572 1151.29 387.572C1150.42 387.572 1149.71 388.275 1149.71 389.143C1149.71 390.011 1150.42 390.715 1151.29 390.715Z" fill="#2D5967"/>
<path id="Vector_53" d="M1113.71 411.286H1158.14V398.572H1113.71V411.286ZM1115.86 400.715H1156V409.286H1115.86V400.715Z" fill="#2D5967"/>
<path id="Vector_54" d="M1151.29 406.572C1152.15 406.572 1152.86 405.868 1152.86 405C1152.86 404.132 1152.15 403.429 1151.29 403.429C1150.42 403.429 1149.71 404.132 1149.71 405C1149.71 405.868 1150.42 406.572 1151.29 406.572Z" fill="#2D5967"/>
</g>
</g>
</g>
</g>
</g>
<text id=". . ._2" fill="#2D5967" xml:space="preserve" style="white-space: pre" font-family="Oracle Sans" font-size="24" font-weight="800" letter-spacing="0em"><tspan x="1037.04" y="407.724">. . .</tspan></text>
</g>
</g>
<g id="OCI Region_16">
<rect x="32.5" y="313.5" width="1175" height="151" stroke="#9E9892" stroke-dasharray="4 4"/>
<text id="Availability Domain_4" fill="#312D2A" xml:space="preserve" style="white-space: pre" font-family="Oracle Sans" font-size="16" font-weight="600" letter-spacing="0em"><tspan x="533.312" y="334.816">vSAN Stretched Cluster</tspan></text>
</g>
<g id="OCI Region_17">
<rect x="48.5" y="345.5" width="1143" height="103" stroke="#9E9892" stroke-dasharray="2 2"/>
<text id="Availability Domain_5" fill="#312D2A" xml:space="preserve" style="white-space: pre" font-family="Oracle Sans" font-size="16" letter-spacing="0em"><tspan x="520.328" y="366.816">Bare Metal Dense Instances</tspan></text>
</g>
<path id="Vector 13" d="M439.293 227.707C438.902 227.317 438.902 226.683 439.293 226.293L445.657 219.929C446.047 219.538 446.681 219.538 447.071 219.929C447.462 220.32 447.462 220.953 447.071 221.343L441.414 227L447.071 232.657C447.462 233.047 447.462 233.681 447.071 234.071C446.681 234.462 446.047 234.462 445.657 234.071L439.293 227.707ZM792.207 226.293C792.598 226.683 792.598 227.317 792.207 227.707L785.843 234.071C785.453 234.462 784.819 234.462 784.429 234.071C784.038 233.681 784.038 233.047 784.429 232.657L790.086 227L784.429 221.343C784.038 220.953 784.038 220.319 784.429 219.929C784.819 219.538 785.453 219.538 785.843 219.929L792.207 226.293ZM440 227L440 226L791.5 226L791.5 227L791.5 228L440 228L440 227Z" fill="#312D2A"/>
<g id="Special Connector">
<path id="Vector 47" d="M560 227H672" stroke="#312D2A" stroke-width="2"/>
<g id="Group 1238">
<g id="Background color=white bg">
<rect width="57" height="14" transform="translate(608 220)" fill="white"/>
<text id="Yes" fill="#312D2A" xml:space="preserve" style="white-space: pre" font-family="Oracle Sans" font-size="14" letter-spacing="0em"><tspan x="612.062" y="232.089">Remote</tspan></text>
</g>
<g id="Background color=white bg_2">
<rect width="57" height="14" transform="translate(608 234)" fill="white"/>
<text id="Yes_2" fill="#312D2A" xml:space="preserve" style="white-space: pre" font-family="Oracle Sans" font-size="14" letter-spacing="0em"><tspan x="612.198" y="246.089">peering</tspan></text>
</g>
<g id="Icon Master_7">
<g id="Srv-Remote peering gateway">
<g id="Group 752">
<path id="Vector (Stroke)" fill-rule="evenodd" clip-rule="evenodd" d="M587.007 214.485C580.012 214.485 574.342 220.155 574.342 227.15C574.342 234.145 580.012 239.815 587.007 239.815C594.002 239.815 599.672 234.145 599.672 227.15C599.672 220.155 594.002 214.485 587.007 214.485ZM573.191 227.15C573.191 219.519 579.376 213.333 587.007 213.333C594.638 213.333 600.824 219.519 600.824 227.15C600.824 234.781 594.638 240.967 587.007 240.967C579.376 240.967 573.191 234.781 573.191 227.15Z" fill="#312D2A"/>
<path id="Vector (Stroke)_2" fill-rule="evenodd" clip-rule="evenodd" d="M567 225.229H607V228.386H567V225.229Z" fill="white"/>
<path id="Vector (Stroke)_3" fill-rule="evenodd" clip-rule="evenodd" d="M569.449 226.574H605.141V227.726H569.449V226.574Z" fill="#312D2A"/>
<path id="Vector (Stroke)_4" fill-rule="evenodd" clip-rule="evenodd" d="M602.814 224.008L605.955 227.15L602.814 230.291L602 229.477L604.327 227.15L602 224.822L602.814 224.008Z" fill="#312D2A"/>
<path id="Vector (Stroke)_5" fill-rule="evenodd" clip-rule="evenodd" d="M571.2 224.008L572.015 224.822L569.687 227.15L572.015 229.477L571.2 230.291L568.059 227.15L571.2 224.008Z" fill="#312D2A"/>
</g>
</g>
</g>
<rect id="Rectangle 696" x="607" y="225" width="1" height="4" fill="white"/>
</g>
</g>
<path id="Vector 15" d="M472.707 97.2929C473.098 97.6834 473.098 98.3166 472.707 98.7071L466.343 105.071C465.953 105.462 465.319 105.462 464.929 105.071C464.538 104.681 464.538 104.047 464.929 103.657L470.586 98L464.929 92.3431C464.538 91.9526 464.538 91.3195 464.929 90.9289C465.319 90.5384 465.953 90.5384 466.343 90.9289L472.707 97.2929ZM225 98L224 98L224 97L225 97L225 98ZM225.707 193.707C225.317 194.098 224.683 194.098 224.293 193.707L217.929 187.343C217.538 186.953 217.538 186.319 217.929 185.929C218.319 185.538 218.953 185.538 219.343 185.929L225 191.586L230.657 185.929C231.047 185.538 231.681 185.538 232.071 185.929C232.462 186.319 232.462 186.953 232.071 187.343L225.707 193.707ZM472 98L472 99L225 99L225 98L225 97L472 97L472 98ZM225 98L226 98L226 193L225 193L224 193L224 98L225 98Z" fill="#312D2A"/>
<path id="Vector 16" d="M759.293 96.2929C758.902 96.6834 758.902 97.3166 759.293 97.7071L765.657 104.071C766.047 104.462 766.681 104.462 767.071 104.071C767.462 103.681 767.462 103.047 767.071 102.657L761.414 97L767.071 91.3431C767.462 90.9526 767.462 90.3195 767.071 89.9289C766.681 89.5384 766.047 89.5384 765.657 89.9289L759.293 96.2929ZM1007 97L1008 97L1008 96L1007 96L1007 97ZM1006.29 193.707C1006.68 194.098 1007.32 194.098 1007.71 193.707L1014.07 187.343C1014.46 186.953 1014.46 186.319 1014.07 185.929C1013.68 185.538 1013.05 185.538 1012.66 185.929L1007 191.586L1001.34 185.929C1000.95 185.538 1000.32 185.538 999.929 185.929C999.538 186.319 999.538 186.953 999.929 187.343L1006.29 193.707ZM760 97L760 98L1007 98L1007 97L1007 96L760 96L760 97ZM1007 97L1006 97L1006 193L1007 193L1008 193L1008 97L1007 97Z" fill="#312D2A"/>
<g id="Icon Master_8">
<g id="Technology - Database-Appliance">
<g id="Group 680">
<path id="Vector_55" d="M575.952 125.053V88.2881H652.276L654.047 91.8257V121.515L652.276 125.053H575.952Z" fill="white"/>
<path id="Vector_56" d="M651.686 89.2389L653.095 92.0538V121.287L651.686 124.102H576.905V89.2389H651.686ZM652.867 87.3369H575V126.004H652.867L653.381 124.958L654.79 122.143L655 121.743V91.6163L654.79 91.1408L653.381 88.383L652.867 87.3369Z" fill="white"/>
<path id="Vector_57" d="M576.905 124.101H648.162V89.2383H576.905V124.101ZM579.724 92.0532H645.343V121.286H579.724V92.0532Z" fill="#2D5967"/>
<path id="Vector_58" d="M600.543 100.156H587.134V102.971H600.543V100.156Z" fill="#2D5967"/>
<path id="Vector_59" d="M621.705 100.156H608.295V102.971H621.705V100.156Z" fill="#2D5967"/>
<path id="Vector_60" d="M642.867 100.156H629.458V102.971H642.867V100.156Z" fill="#2D5967"/>
<path id="Vector_61" d="M600.543 105.443H587.134V108.258H600.543V105.443Z" fill="#2D5967"/>
<path id="Vector_62" d="M621.705 105.443H608.295V108.258H621.705V105.443Z" fill="#2D5967"/>
<path id="Vector_63" d="M642.867 105.443H629.458V108.258H642.867V105.443Z" fill="#2D5967"/>
<path id="Vector_64" d="M600.543 110.73H587.134V113.545H600.543V110.73Z" fill="#2D5967"/>
<path id="Vector_65" d="M621.705 110.73H608.295V113.545H621.705V110.73Z" fill="#2D5967"/>
<path id="Vector_66" d="M642.867 110.73H629.458V113.545H642.867V110.73Z" fill="#2D5967"/>
<path id="Vector_67" d="M600.543 115.999H587.134V118.813H600.543V115.999Z" fill="#2D5967"/>
<path id="Vector_68" d="M621.705 115.999H608.295V118.813H621.705V115.999Z" fill="#2D5967"/>
<path id="Vector_69" d="M642.867 115.999H629.458V118.813H642.867V115.999Z" fill="#2D5967"/>
<path id="Vector_70" d="M651.686 89.2383H650.276V92.0532V121.286V124.101H651.686L653.095 121.286V92.0532L651.686 89.2383Z" fill="#2D5967"/>
<path id="Vector_71" d="M585.019 100.156H582.2V102.971H585.019V100.156Z" fill="#2D5967"/>
<path id="Vector_72" d="M585.019 105.443H582.2V108.258H585.019V105.443Z" fill="#2D5967"/>
<path id="Vector_73" d="M585.019 110.73H582.2V113.545H585.019V110.73Z" fill="#2D5967"/>
<path id="Vector_74" d="M585.019 115.999H582.2V118.813H585.019V115.999Z" fill="#2D5967"/>
<path id="Vector_75" d="M606.181 100.156H603.362V102.971H606.181V100.156Z" fill="#2D5967"/>
<path id="Vector_76" d="M606.181 105.443H603.362V108.258H606.181V105.443Z" fill="#2D5967"/>
<path id="Vector_77" d="M606.181 110.73H603.362V113.545H606.181V110.73Z" fill="#2D5967"/>
<path id="Vector_78" d="M606.181 115.999H603.362V118.813H606.181V115.999Z" fill="#2D5967"/>
<path id="Vector_79" d="M627.343 100.156H624.524V102.971H627.343V100.156Z" fill="#2D5967"/>
<path id="Vector_80" d="M600.543 94.8677H587.134V97.6826H600.543V94.8677Z" fill="#2D5967"/>
<path id="Vector_81" d="M621.705 94.8677H608.295V97.6826H621.705V94.8677Z" fill="#2D5967"/>
<path id="Vector_82" d="M642.867 94.8677H629.458V97.6826H642.867V94.8677Z" fill="#2D5967"/>
<path id="Vector_83" d="M585.019 94.8677H582.2V97.6826H585.019V94.8677Z" fill="#2D5967"/>
<path id="Vector_84" d="M606.181 94.8677H603.362V97.6826H606.181V94.8677Z" fill="#2D5967"/>
<path id="Vector_85" d="M627.343 94.8677H624.524V97.6826H627.343V94.8677Z" fill="#2D5967"/>
<path id="Vector_86" d="M627.343 105.443H624.524V108.258H627.343V105.443Z" fill="#2D5967"/>
<path id="Vector_87" d="M627.343 110.73H624.524V113.545H627.343V110.73Z" fill="#2D5967"/>
<path id="Vector_88" d="M627.343 115.999H624.524V118.813H627.343V115.999Z" fill="#2D5967"/>
</g>
</g>
<g id="Icon Text Label">
<text id="IconLabel" fill="black" xml:space="preserve" style="white-space: pre" font-family="Oracle Sans" font-size="16" letter-spacing="0em"><tspan x="529.344" y="143.816">vSAN witness appliance</tspan></text>
</g>
</g>
<g id="Special Connector_2">
<path id="Vector 46" d="M265 98H413" stroke="#312D2A" stroke-width="2"/>
<g id="Group 1237">
<g id="Background color=white bg_3">
<rect width="125" height="14" transform="translate(314.5 91)" fill="white"/>
<text id="Yes_3" fill="#312D2A" xml:space="preserve" style="white-space: pre" font-family="Oracle Sans" font-size="14" letter-spacing="0em"><tspan x="318.977" y="103.089">FastConnect/ RPC</tspan></text>
</g>
<g id="Icon Master_9">
<g id="Srv-OCI FastConnect">
<g id="Group_25">
<g id="Group_26">
<g id="Group_27">
<path id="Vector_89" d="M294 111.686C293.801 111.686 293.602 111.686 293.336 111.686C291.608 111.487 290.014 110.623 288.951 109.294C288.685 109.294 288.485 109.36 288.22 109.36C288.02 109.36 287.887 109.36 287.688 109.36C286.293 109.227 284.964 108.563 284.034 107.5H278.585V105.639H283.037C282.771 104.909 282.705 104.111 282.771 103.314V103.247H276.525V101.387H281.642C281.044 100.722 280.578 99.8587 280.379 98.9949H274.333V97.1345H280.313C280.446 96.3371 280.711 95.5398 281.243 94.8753H276.525V93.0149H283.17C283.103 92.4833 283.037 91.9517 283.103 91.4202C283.103 91.1544 283.17 90.8886 283.236 90.6228H278.585V88.6295H284.1C284.432 88.1644 284.764 87.7657 285.23 87.367C286.293 86.5032 287.555 86.0381 288.884 86.0381C289.083 86.0381 289.283 86.0381 289.482 86.0381C289.881 86.1046 290.213 86.171 290.545 86.2375C292.007 84.975 293.867 84.3105 295.794 84.3105C296.06 84.3105 296.326 84.3105 296.592 84.377C299.25 84.6428 301.642 86.2375 302.904 88.563H309.283V90.4235H303.635C303.768 90.8886 303.834 91.3537 303.901 91.8188C304.499 92.0846 305.03 92.4169 305.495 92.882H311.475V94.7424H306.957C307.356 95.4733 307.622 96.2042 307.688 97.0016H313.668V98.862H307.688C307.555 99.7258 307.289 100.523 306.891 101.254H311.542V103.115H305.296C305.23 103.181 305.163 103.247 305.097 103.247C305.163 103.713 305.163 104.111 305.097 104.576C305.097 104.909 305.03 105.241 304.897 105.507H309.15L309.216 105.706C309.216 105.772 309.283 105.905 309.216 107.035V107.367H303.901C303.037 108.629 301.509 109.36 299.914 109.36C299.715 109.36 299.582 109.36 299.382 109.36C299.25 109.36 299.117 109.36 298.984 109.294C297.788 110.822 295.927 111.686 294 111.686Z" fill="white"/>
<path id="Vector_90" d="M295.794 84.7763C296.06 84.7763 296.326 84.7763 296.591 84.8427C299.316 85.1085 301.575 86.7696 302.771 89.0288H309.017V90.2248H303.236C303.435 90.8228 303.568 91.4872 303.635 92.1517C304.299 92.4175 304.897 92.8161 305.429 93.2812H311.209V94.4773H306.425C307.023 95.341 307.355 96.3377 307.422 97.4008H313.402V98.5969H307.422C307.422 98.5969 307.422 98.5969 307.422 98.6633C307.289 99.7929 306.89 100.79 306.292 101.72H311.209V102.916H305.229C305.096 103.049 304.963 103.182 304.764 103.248C304.831 103.713 304.897 104.178 304.831 104.643C304.764 105.108 304.698 105.574 304.498 105.972H309.017C309.083 106.105 309.017 107.168 309.017 107.168H303.834C302.904 108.364 301.442 109.162 299.847 109.162C299.714 109.162 299.515 109.162 299.316 109.162C299.116 109.162 298.983 109.095 298.784 109.095C297.721 110.491 295.927 111.354 294 111.354C293.801 111.354 293.601 111.354 293.402 111.354C291.674 111.155 290.146 110.291 289.15 108.962C288.884 109.029 288.551 109.029 288.286 109.029C288.086 109.029 287.953 109.029 287.754 109.029C286.359 108.896 285.096 108.231 284.233 107.168H278.917V105.972H283.502C283.169 105.175 282.97 104.245 283.103 103.381C283.103 103.248 283.169 103.049 283.169 102.916H276.857V101.72H282.439C281.508 100.922 280.844 99.8593 280.645 98.6633H274.664V97.4673H280.645V97.4008C280.777 96.3377 281.243 95.341 281.907 94.5437H276.857V93.3477H283.568C283.568 93.3477 283.568 93.3477 283.635 93.3477C283.502 92.7497 283.435 92.0852 283.502 91.4208C283.568 91.0221 283.635 90.6234 283.767 90.2248H278.917V88.9623H284.233C284.565 88.4972 284.963 88.0321 285.362 87.6334C286.359 86.8361 287.555 86.4374 288.751 86.4374C288.95 86.4374 289.15 86.4374 289.282 86.4374C289.681 86.5038 290.08 86.5703 290.478 86.7032C292.073 85.4407 293.867 84.7763 295.794 84.7763ZM295.794 84.1118C293.867 84.1118 291.94 84.7763 290.478 85.9723C290.146 85.9058 289.814 85.8394 289.482 85.7729C289.282 85.7729 289.083 85.7729 288.884 85.7729C287.488 85.7729 286.159 86.2381 285.03 87.1683C284.631 87.5005 284.233 87.8992 283.967 88.3643H278.917H278.252V89.0288V90.2248V90.8892H278.917H282.837C282.837 91.0221 282.771 91.155 282.771 91.2879C282.704 91.753 282.704 92.1517 282.771 92.6168H276.857H276.193V93.2812V94.4773V95.1417H276.857H280.645C280.379 95.6733 280.179 96.2048 280.047 96.7364H274.664H274V97.4008V98.5969V99.2613H274.664H280.113C280.246 99.9258 280.578 100.457 280.91 100.989H276.857H276.193V101.653V102.849V103.514H276.857H282.372C282.306 104.112 282.372 104.71 282.571 105.241H278.917H278.252V105.906V107.102V107.766H278.917H283.9C284.897 108.829 286.226 109.494 287.621 109.627C287.821 109.627 288.02 109.627 288.219 109.627C288.419 109.627 288.618 109.627 288.817 109.627C289.947 110.956 291.542 111.819 293.336 112.019C293.535 112.019 293.801 112.019 294 112.019C295.993 112.019 297.854 111.155 299.116 109.627C299.183 109.627 299.249 109.627 299.316 109.627C299.515 109.627 299.714 109.627 299.914 109.627C301.575 109.627 303.103 108.896 304.166 107.633H309.017H309.615V107.035C309.681 105.906 309.615 105.706 309.548 105.574L309.415 105.175H308.95H305.362C305.429 104.976 305.429 104.776 305.429 104.577C305.495 104.178 305.429 103.78 305.429 103.381H311.209H311.874V102.716V101.52V100.856H311.209H307.422C307.688 100.324 307.887 99.7264 307.953 99.1284H313.336H314V98.464V97.4008V96.7364H313.336H307.953C307.821 96.2048 307.688 95.6733 307.488 95.1417H311.209H311.874V94.4773V93.2812V92.6168H311.209H305.694C305.229 92.2181 304.831 91.9523 304.299 91.6866C304.299 91.4208 304.233 91.155 304.166 90.8892H309.017H309.681V90.2248V88.9623V88.2979H309.017H303.169C301.774 85.9723 299.382 84.3776 296.658 84.1118C296.392 84.1118 296.06 84.1118 295.794 84.1118Z" fill="white"/>
</g>
<g id="Group_28">
<path id="Vector_91" d="M278.916 88.9624V90.1584H282.77C282.903 89.7597 283.036 89.3611 283.235 88.9624H278.916Z" fill="#312D2A"/>
<path id="Vector_92" d="M309.018 90.1584V88.9624H303.768C303.968 89.3611 304.101 89.7597 304.233 90.1584H309.018Z" fill="#312D2A"/>
<path id="Vector_93" d="M281.907 93.2817H276.857V94.4778H280.778C281.11 94.0126 281.442 93.614 281.907 93.2817Z" fill="#312D2A"/>
<path id="Vector_94" d="M311.209 94.4114V93.2153H306.625C306.957 93.614 307.223 93.9462 307.422 94.4114H311.209Z" fill="#312D2A"/>
<path id="Vector_95" d="M308.353 98.531H313.469V97.335H308.353C308.353 97.7336 308.353 98.1323 308.353 98.531Z" fill="#312D2A"/>
<path id="Vector_96" d="M279.714 97.335H274.664V98.531H279.78C279.714 98.1323 279.714 97.7336 279.714 97.335Z" fill="#312D2A"/>
<path id="Vector_97" d="M281.176 101.654H276.857V102.85H282.239C282.239 102.783 282.239 102.717 282.306 102.65C281.907 102.318 281.509 101.986 281.176 101.654Z" fill="#312D2A"/>
<path id="Vector_98" d="M311.21 102.784V101.588H307.356C307.09 101.987 306.824 102.385 306.492 102.784H311.21Z" fill="#312D2A"/>
<path id="Vector_99" d="M309.016 107.035V105.839H305.428C305.295 106.238 305.096 106.637 304.897 107.035H309.016Z" fill="#312D2A"/>
<path id="Vector_100" d="M278.916 105.906V107.102H283.102C282.836 106.703 282.703 106.304 282.504 105.906H278.916Z" fill="#312D2A"/>
<path id="Vector_101" d="M307.423 98.5973C307.688 95.8066 306.16 93.2153 303.635 92.0857C303.37 88.2983 300.446 85.1754 296.592 84.8432C294.399 84.6439 292.273 85.3083 290.612 86.7701C290.213 86.6372 289.815 86.5708 289.416 86.5043C287.954 86.3714 286.559 86.7701 285.429 87.7003C284.3 88.6306 283.635 89.893 283.436 91.3548C283.37 92.0193 283.436 92.6173 283.569 93.2817C281.908 94.0126 280.778 95.5409 280.579 97.3349C280.38 99.3947 281.443 101.322 283.237 102.252C283.104 102.584 283.037 102.983 283.037 103.315C282.904 104.71 283.303 106.039 284.167 107.102C285.031 108.165 286.293 108.83 287.688 108.963C288.154 109.029 288.619 108.963 289.017 108.896C290.014 110.292 291.609 111.155 293.27 111.288C293.469 111.288 293.669 111.288 293.868 111.288C295.795 111.288 297.589 110.425 298.718 108.83C298.918 108.896 299.051 108.896 299.25 108.896C299.383 108.896 299.582 108.896 299.782 108.896C302.306 108.896 304.433 106.969 304.698 104.445C304.765 103.979 304.698 103.514 304.632 103.049C306.293 102.052 307.223 100.458 307.423 98.5973ZM303.569 103.049C303.702 103.514 303.768 103.979 303.702 104.445C303.569 105.441 303.104 106.371 302.306 106.969C301.509 107.634 300.512 107.9 299.516 107.833C299.25 107.833 299.051 107.767 298.785 107.7L298.386 107.567L298.12 107.966C297.124 109.494 295.33 110.358 293.469 110.159C292.007 110.026 290.679 109.162 289.815 107.966L289.615 107.634L289.217 107.767C288.752 107.9 288.287 107.9 287.888 107.9C286.825 107.767 285.828 107.302 285.164 106.438C284.499 105.574 284.167 104.577 284.3 103.514C284.366 103.116 284.433 102.65 284.632 102.252L284.898 101.654L284.3 101.454C283.037 100.989 282.174 99.9262 281.908 98.6638H290.147L288.552 100.258L289.35 101.056L292.34 97.9993L289.35 94.9429L288.552 95.7402L290.147 97.3349H281.841C282.041 95.8066 283.037 94.5442 284.566 94.1455L285.164 93.9462L284.898 93.4146C284.632 92.7502 284.566 92.1522 284.632 91.4877C284.765 90.3581 285.296 89.3615 286.16 88.6306C287.024 87.8997 288.154 87.5674 289.283 87.7003C289.682 87.7668 290.081 87.8332 290.479 88.0326L290.878 88.099L291.144 87.8332C292.539 86.4379 294.532 85.7734 296.459 85.9728C299.848 86.305 302.439 89.0957 302.506 92.4844V92.8831L302.904 93.0159C304.765 93.6804 306.094 95.408 306.293 97.3349H298.054L299.516 95.8731L298.718 95.0757L295.861 97.9329L298.851 100.989L299.649 100.192L298.054 98.5973H306.227C306.027 100.192 305.164 101.587 303.768 102.451L303.37 102.717L303.569 103.049Z" fill="#312D2A"/>
</g>
</g>
</g>
</g>
</g>
<rect id="Rectangle 695" x="314" y="96" width="2" height="4" fill="white"/>
</g>
</g>
<g id="Special Connector_3">
<path id="Vector 46_2" d="M795 97H943" stroke="#312D2A" stroke-width="2"/>
<g id="Group 1237_2">
<g id="Background color=white bg_4">
<rect width="125" height="14" transform="translate(844.5 90)" fill="white"/>
<text id="Yes_4" fill="#312D2A" xml:space="preserve" style="white-space: pre" font-family="Oracle Sans" font-size="14" letter-spacing="0em"><tspan x="848.977" y="102.089">FastConnect/ RPC</tspan></text>
</g>
<g id="Icon Master_10">
<g id="Srv-OCI FastConnect_2">
<g id="Group_29">
<g id="Group_30">
<g id="Group_31">
<path id="Vector_102" d="M824 110.686C823.801 110.686 823.602 110.686 823.336 110.686C821.608 110.487 820.014 109.623 818.951 108.294C818.685 108.294 818.485 108.36 818.22 108.36C818.02 108.36 817.887 108.36 817.688 108.36C816.293 108.227 814.964 107.563 814.034 106.5H808.585V104.639H813.037C812.771 103.909 812.705 103.111 812.771 102.314V102.247H806.525V100.387H811.642C811.044 99.7225 810.578 98.8587 810.379 97.9949H804.333V96.1345H810.313C810.446 95.3371 810.711 94.5398 811.243 93.8753H806.525V92.0149H813.17C813.103 91.4833 813.037 90.9517 813.103 90.4202C813.103 90.1544 813.17 89.8886 813.236 89.6228H808.585V87.6295H814.1C814.432 87.1644 814.765 86.7657 815.23 86.367C816.293 85.5032 817.555 85.0381 818.884 85.0381C819.083 85.0381 819.283 85.0381 819.482 85.0381C819.881 85.1046 820.213 85.171 820.545 85.2375C822.007 83.975 823.868 83.3105 825.794 83.3105C826.06 83.3105 826.326 83.3105 826.592 83.377C829.25 83.6428 831.642 85.2375 832.904 87.563H839.283V89.4235H833.635C833.768 89.8886 833.834 90.3537 833.901 90.8188C834.499 91.0846 835.03 91.4169 835.495 91.882H841.475V93.7424H836.957C837.356 94.4733 837.622 95.2042 837.688 96.0016H843.668V97.862H837.688C837.555 98.7258 837.289 99.5232 836.891 100.254H841.542V102.115H835.296C835.23 102.181 835.163 102.247 835.097 102.247C835.163 102.713 835.163 103.111 835.097 103.576C835.097 103.909 835.03 104.241 834.897 104.507H839.15L839.216 104.706C839.216 104.772 839.283 104.905 839.216 106.035V106.367H833.901C833.037 107.629 831.509 108.36 829.914 108.36C829.715 108.36 829.582 108.36 829.382 108.36C829.25 108.36 829.117 108.36 828.984 108.294C827.788 109.822 825.927 110.686 824 110.686Z" fill="white"/>
<path id="Vector_103" d="M825.794 83.7763C826.06 83.7763 826.326 83.7763 826.591 83.8427C829.316 84.1085 831.575 85.7696 832.771 88.0288H839.017V89.2248H833.236C833.435 89.8228 833.568 90.4872 833.635 91.1517C834.299 91.4175 834.897 91.8161 835.429 92.2812H841.209V93.4773H836.425C837.023 94.341 837.355 95.3377 837.422 96.4008H843.402V97.5969H837.422C837.422 97.5969 837.422 97.5969 837.422 97.6633C837.289 98.7929 836.89 99.7895 836.292 100.72H841.209V101.916H835.229C835.096 102.049 834.963 102.182 834.764 102.248C834.831 102.713 834.897 103.178 834.831 103.643C834.764 104.108 834.698 104.574 834.498 104.972H839.017C839.083 105.105 839.017 106.168 839.017 106.168H833.834C832.904 107.364 831.442 108.162 829.847 108.162C829.714 108.162 829.515 108.162 829.316 108.162C829.116 108.162 828.983 108.095 828.784 108.095C827.721 109.491 825.927 110.354 824 110.354C823.801 110.354 823.601 110.354 823.402 110.354C821.674 110.155 820.146 109.291 819.15 107.962C818.884 108.029 818.551 108.029 818.286 108.029C818.086 108.029 817.953 108.029 817.754 108.029C816.359 107.896 815.096 107.231 814.233 106.168H808.917V104.972H813.502C813.169 104.175 812.97 103.245 813.103 102.381C813.103 102.248 813.169 102.049 813.169 101.916H806.857V100.72H812.439C811.508 99.9224 810.844 98.8593 810.645 97.6633H804.664V96.4673H810.645V96.4008C810.777 95.3377 811.243 94.341 811.907 93.5437H806.857V92.3477H813.568C813.568 92.3477 813.568 92.3477 813.635 92.3477C813.502 91.7497 813.435 91.0852 813.502 90.4208C813.568 90.0221 813.635 89.6234 813.767 89.2248H808.917V87.9623H814.233C814.565 87.4972 814.963 87.0321 815.362 86.6334C816.359 85.8361 817.555 85.4374 818.751 85.4374C818.95 85.4374 819.15 85.4374 819.282 85.4374C819.681 85.5038 820.08 85.5703 820.478 85.7032C822.073 84.4407 823.867 83.7763 825.794 83.7763ZM825.794 83.1118C823.867 83.1118 821.94 83.7763 820.478 84.9723C820.146 84.9058 819.814 84.8394 819.482 84.7729C819.282 84.7729 819.083 84.7729 818.884 84.7729C817.488 84.7729 816.159 85.2381 815.03 86.1683C814.631 86.5005 814.233 86.8992 813.967 87.3643H808.917H808.252V88.0288V89.2248V89.8892H808.917H812.837C812.837 90.0221 812.771 90.155 812.771 90.2879C812.704 90.753 812.704 91.1517 812.771 91.6168H806.857H806.193V92.2812V93.4773V94.1417H806.857H810.645C810.379 94.6733 810.179 95.2048 810.047 95.7364H804.664H804V96.4008V97.5969V98.2613H804.664H810.113C810.246 98.9258 810.578 99.4573 810.91 99.9889H806.857H806.193V100.653V101.849V102.514H806.857H812.372C812.306 103.112 812.372 103.71 812.571 104.241H808.917H808.252V104.906V106.102V106.766H808.917H813.9C814.897 107.829 816.226 108.494 817.621 108.627C817.821 108.627 818.02 108.627 818.219 108.627C818.419 108.627 818.618 108.627 818.817 108.627C819.947 109.956 821.542 110.819 823.336 111.019C823.535 111.019 823.801 111.019 824 111.019C825.993 111.019 827.854 110.155 829.116 108.627C829.183 108.627 829.249 108.627 829.316 108.627C829.515 108.627 829.714 108.627 829.914 108.627C831.575 108.627 833.103 107.896 834.166 106.633H839.017H839.615V106.035C839.681 104.906 839.615 104.706 839.548 104.574L839.415 104.175H838.95H835.362C835.429 103.976 835.429 103.776 835.429 103.577C835.495 103.178 835.429 102.78 835.429 102.381H841.209H841.874V101.716V100.52V99.856H841.209H837.422C837.688 99.3244 837.887 98.7264 837.953 98.1284H843.336H844V97.464V96.4008V95.7364H843.336H837.953C837.821 95.2048 837.688 94.6733 837.488 94.1417H841.209H841.874V93.4773V92.2812V91.6168H841.209H835.694C835.229 91.2181 834.831 90.9523 834.299 90.6866C834.299 90.4208 834.233 90.155 834.166 89.8892H839.017H839.681V89.2248V87.9623V87.2979H839.017H833.169C831.774 84.9723 829.382 83.3776 826.658 83.1118C826.392 83.1118 826.06 83.1118 825.794 83.1118Z" fill="white"/>
</g>
<g id="Group_32">
<path id="Vector_104" d="M808.916 87.9624V89.1584H812.77C812.903 88.7597 813.035 88.3611 813.235 87.9624H808.916Z" fill="#312D2A"/>
<path id="Vector_105" d="M839.017 89.1584V87.9624H833.768C833.968 88.3611 834.101 88.7597 834.233 89.1584H839.017Z" fill="#312D2A"/>
<path id="Vector_106" d="M811.907 92.2817H806.857V93.4778H810.778C811.11 93.0126 811.442 92.614 811.907 92.2817Z" fill="#312D2A"/>
<path id="Vector_107" d="M841.209 93.4114V92.2153H836.625C836.957 92.614 837.223 92.9462 837.422 93.4114H841.209Z" fill="#312D2A"/>
<path id="Vector_108" d="M838.353 97.531H843.469V96.335H838.353C838.353 96.7336 838.353 97.1323 838.353 97.531Z" fill="#312D2A"/>
<path id="Vector_109" d="M809.714 96.335H804.664V97.531H809.78C809.714 97.1323 809.714 96.7336 809.714 96.335Z" fill="#312D2A"/>
<path id="Vector_110" d="M811.176 100.654H806.857V101.85H812.239C812.239 101.783 812.239 101.717 812.306 101.65C811.907 101.318 811.509 100.986 811.176 100.654Z" fill="#312D2A"/>
<path id="Vector_111" d="M841.21 101.784V100.588H837.356C837.09 100.987 836.824 101.385 836.492 101.784H841.21Z" fill="#312D2A"/>
<path id="Vector_112" d="M839.016 106.035V104.839H835.428C835.295 105.238 835.096 105.637 834.896 106.035H839.016Z" fill="#312D2A"/>
<path id="Vector_113" d="M808.916 104.906V106.102H813.102C812.836 105.703 812.703 105.304 812.504 104.906H808.916Z" fill="#312D2A"/>
<path id="Vector_114" d="M837.423 97.5973C837.688 94.8066 836.16 92.2153 833.635 91.0857C833.369 87.2983 830.446 84.1754 826.592 83.8432C824.399 83.6439 822.273 84.3083 820.612 85.7701C820.213 85.6372 819.815 85.5708 819.416 85.5043C817.954 85.3714 816.559 85.7701 815.429 86.7003C814.3 87.6306 813.635 88.893 813.436 90.3548C813.37 91.0193 813.436 91.6173 813.569 92.2817C811.908 93.0126 810.778 94.5409 810.579 96.3349C810.379 98.3947 811.443 100.322 813.237 101.252C813.104 101.584 813.037 101.983 813.037 102.315C812.904 103.71 813.303 105.039 814.167 106.102C815.031 107.165 816.293 107.83 817.688 107.963C818.154 108.029 818.619 107.963 819.017 107.896C820.014 109.292 821.609 110.155 823.27 110.288C823.469 110.288 823.669 110.288 823.868 110.288C825.795 110.288 827.589 109.425 828.718 107.83C828.918 107.896 829.051 107.896 829.25 107.896C829.383 107.896 829.582 107.896 829.781 107.896C832.306 107.896 834.433 105.969 834.698 103.445C834.765 102.979 834.698 102.514 834.632 102.049C836.293 101.052 837.223 99.4578 837.423 97.5973ZM833.569 102.049C833.702 102.514 833.768 102.979 833.702 103.445C833.569 104.441 833.104 105.371 832.306 105.969C831.509 106.634 830.512 106.9 829.516 106.833C829.25 106.833 829.051 106.767 828.785 106.7L828.386 106.567L828.12 106.966C827.124 108.494 825.33 109.358 823.469 109.159C822.007 109.026 820.678 108.162 819.815 106.966L819.615 106.634L819.217 106.767C818.752 106.9 818.286 106.9 817.888 106.9C816.825 106.767 815.828 106.302 815.164 105.438C814.499 104.574 814.167 103.577 814.3 102.514C814.366 102.116 814.433 101.65 814.632 101.252L814.898 100.654L814.3 100.454C813.037 99.9894 812.173 98.9262 811.908 97.6638H820.147L818.552 99.2585L819.35 100.056L822.34 96.9993L819.35 93.9429L818.552 94.7402L820.147 96.3349H811.841C812.041 94.8066 813.037 93.5442 814.566 93.1455L815.164 92.9462L814.898 92.4146C814.632 91.7502 814.566 91.1522 814.632 90.4877C814.765 89.3581 815.296 88.3615 816.16 87.6306C817.024 86.8997 818.154 86.5674 819.283 86.7003C819.682 86.7668 820.08 86.8332 820.479 87.0326L820.878 87.099L821.144 86.8332C822.539 85.4379 824.532 84.7734 826.459 84.9728C829.848 85.305 832.439 88.0957 832.506 91.4844V91.8831L832.904 92.0159C834.765 92.6804 836.094 94.408 836.293 96.3349H828.054L829.516 94.8731L828.718 94.0757L825.861 96.9329L828.851 99.9894L829.649 99.192L828.054 97.5973H836.227C836.027 99.192 835.164 100.587 833.768 101.451L833.369 101.717L833.569 102.049Z" fill="#312D2A"/>
</g>
</g>
</g>
</g>
</g>
<rect id="Rectangle 695_2" x="844" y="95" width="2" height="4" fill="white"/>
</g>
</g>
</g>
<defs>
<clipPath id="clip0_15289_208">
<rect width="1232" height="497" fill="white"/>
</clipPath>
</defs>
</svg>
