<svg width="1168" height="576" viewBox="0 0 1168 576" fill="none" xmlns="http://www.w3.org/2000/svg">
<g id="autonomous-database-db-at-azure-diagram">
<rect width="1168" height="576" fill="white"/>
<g id="OCI Section Boxes">
<rect x="1008.5" y="0.5" width="159" height="575" rx="3.5" fill="#E4E1DD"/>
<rect x="1008.5" y="0.5" width="159" height="575" rx="3.5" stroke="#9E9892"/>
<text id="Availability Domain" fill="#312D2A" xml:space="preserve" style="white-space: pre" font-family="Oracle Sans" font-size="16" font-weight="600" letter-spacing="0em"><tspan x="1041.63" y="21.816">OCI Services</tspan></text>
</g>
<g id="Azure Cloud boxes">
<rect x="0.5" y="0.5" width="895" height="575" rx="3.5" fill="#ECF3FB"/>
<rect x="0.5" y="0.5" width="895" height="575" rx="3.5" stroke="#0078D7"/>
<text id="Azure Region" fill="#312D2A" xml:space="preserve" style="white-space: pre" font-family="Oracle Sans" font-size="16" font-weight="bold" letter-spacing="0em"><tspan x="8" y="21.816">Azure Region</tspan></text>
</g>
<g id="Availability Zone">
<rect x="8.5" y="32.5" width="879" height="535" fill="white"/>
<rect x="8.5" y="32.5" width="879" height="535" stroke="#0078D7" stroke-dasharray="2 2"/>
<text id="Subscription" fill="#312D2A" xml:space="preserve" style="white-space: pre" font-family="Oracle Sans" font-size="16" font-weight="600" letter-spacing="0em"><tspan x="16" y="53.816">Subscription</tspan></text>
</g>
<g id="Subscription_2">
<rect x="136.5" y="64.5" width="743" height="231" rx="3.5" fill="#DAE8FC"/>
<rect x="136.5" y="64.5" width="743" height="231" rx="3.5" stroke="#0078D7"/>
<text id="Availability Zone_2" fill="#312D2A" xml:space="preserve" style="white-space: pre" font-family="Oracle Sans" font-size="16" font-weight="600" letter-spacing="0em"><tspan x="441.102" y="85.816">Availability Zone 1</tspan></text>
</g>
<g id="Subscription_3">
<rect x="136.5" y="328.5" width="743" height="231" rx="3.5" fill="#DAE8FC"/>
<rect x="136.5" y="328.5" width="743" height="231" rx="3.5" stroke="#0078D7"/>
<text id="Availability Zone_3" fill="#312D2A" xml:space="preserve" style="white-space: pre" font-family="Oracle Sans" font-size="16" font-weight="600" letter-spacing="0em"><tspan x="440.047" y="349.816">Availability Zone 2</tspan></text>
</g>
<g id="Azure VNet">
<rect x="145" y="106" width="246" height="445" fill="white"/>
<rect x="145" y="106" width="246" height="445" stroke="#706E6F" stroke-width="2" stroke-dasharray="4 4"/>
<g id="VNet icon">
<rect id="White Vnet BG" x="339" y="103" width="45" height="6" fill="white"/>
<g id="Icon Master">
<g id="Azure_VNet">
<g id="Group">
<g id="Group_2">
<path id="Vector" d="M370.294 108.545C371.725 108.545 372.884 107.386 372.884 105.955C372.884 104.524 371.725 103.365 370.294 103.365C368.863 103.365 367.704 104.524 367.704 105.955C367.704 107.386 368.863 108.545 370.294 108.545Z" fill="url(#paint0_linear_16122_355283)"/>
<path id="Vector_2" d="M362.125 108.545C363.555 108.545 364.715 107.386 364.715 105.955C364.715 104.524 363.555 103.365 362.125 103.365C360.694 103.365 359.534 104.524 359.534 105.955C359.534 107.386 360.694 108.545 362.125 108.545Z" fill="url(#paint1_linear_16122_355283)"/>
<path id="Vector_3" d="M353.955 108.545C355.386 108.545 356.545 107.386 356.545 105.955C356.545 104.524 355.386 103.365 353.955 103.365C352.525 103.365 351.365 104.524 351.365 105.955C351.365 107.386 352.525 108.545 353.955 108.545Z" fill="url(#paint2_linear_16122_355283)"/>
<path id="Vector_4" d="M355.748 116.316L354.154 117.91C353.955 117.91 353.557 117.91 353.357 117.711L342.398 106.752C342 106.354 342 105.556 342.398 104.959L343.993 103.564L355.748 115.32C355.948 115.519 355.948 115.918 355.748 116.316Z" fill="#50E6FF"/>
<path id="Vector_5" d="M354.154 94.1992L355.748 95.7933C355.948 95.9925 355.948 96.391 355.748 96.5903L343.993 108.346L342.399 106.752C341.801 106.154 341.801 105.357 342.399 104.959L353.158 94.1992C353.357 94 353.756 94 354.154 94.1992Z" fill="#1490DF"/>
<path id="Vector_6" d="M380.057 103.365L381.452 104.76C382.05 105.357 382.05 106.154 381.452 106.553L370.493 117.512C370.294 117.711 369.895 117.711 369.497 117.512L367.903 115.918C367.704 115.718 367.704 115.32 367.903 114.921L380.057 103.365Z" fill="#50E6FF"/>
<path id="Vector_7" d="M381.651 106.752L380.057 108.346L368.501 96.7895C368.301 96.5903 368.301 96.1918 368.501 95.7933L369.895 94.1992C370.095 94 370.493 94 370.892 94.1992L381.651 104.959C382.05 105.357 382.05 106.154 381.651 106.752Z" fill="#1490DF"/>
</g>
</g>
</g>
</g>
</g>
<text id="VNet" fill="#706E6F" xml:space="preserve" style="white-space: pre" font-family="Oracle Sans" font-size="16" font-weight="600" letter-spacing="0em"><tspan x="153" y="127.816">Application VNet/Subnet</tspan></text>
</g>
<g id="Icon Master_2">
<g id="Services/Object-Storage">
<g id="Group_3">
<g id="Group_4">
<g id="Group_5">
<path id="Vector_8" d="M1059.35 227.286C1057.64 227.286 1056.21 225.857 1056.21 224.143V171.857C1056.21 170.143 1057.64 168.714 1059.35 168.714H1111.65C1113.36 168.714 1114.79 170.143 1114.79 171.857V224.286C1114.79 226 1113.36 227.429 1111.65 227.429L1059.35 227.286Z" fill="white"/>
<path id="Vector_9" d="M1111.51 169.429C1112.79 169.429 1113.93 170.571 1113.93 171.857V224.286C1113.93 225.571 1112.79 226.714 1111.51 226.714H1059.35C1058.07 226.571 1056.93 225.429 1056.93 224.143V171.857C1056.93 170.571 1058.07 169.429 1059.35 169.429H1111.51ZM1111.51 168H1059.35C1057.21 168 1055.5 169.714 1055.5 171.857V224.286C1055.5 226.286 1057.21 228 1059.35 228H1111.65C1113.79 228 1115.5 226.286 1115.5 224.143V171.857C1115.36 169.714 1113.65 168 1111.51 168Z" fill="white"/>
</g>
<g id="Group_6">
<g id="Group_7">
<path id="Vector_10" d="M1098.82 184.572L1102.67 191.286L1098.82 198H1091.13L1087.28 191.286L1091.13 184.572H1098.82V184.572ZM1100.11 182.572H1089.85L1084.72 191.429L1089.85 200.286H1100.11L1105.24 191.429L1100.11 182.572Z" fill="#2D5967"/>
</g>
<g id="Group_8">
<path id="Vector_11" d="M1085 205C1088.7 205 1091.7 208 1091.7 211.714C1091.7 215.429 1088.7 218.429 1085 218.429C1081.29 218.429 1078.3 215.429 1078.3 211.714C1078.3 208 1081.29 205 1085 205ZM1085 203C1080.15 203 1076.16 207 1076.16 211.857C1076.16 216.714 1080.15 220.714 1085 220.714C1089.85 220.714 1093.84 216.714 1093.84 211.857C1093.84 206.857 1089.85 203 1085 203Z" fill="#2D5967"/>
</g>
<g id="Group_9">
<path id="Vector_12" d="M1074.88 186.286L1081.15 197.572H1068.75L1074.88 186.286ZM1074.88 182L1065.19 199.715H1084.72L1074.88 182Z" fill="#2D5967"/>
</g>
</g>
<g id="Group_10">
<path id="Vector_13" d="M1111.51 226.572H1059.35C1058.07 226.572 1056.93 225.429 1056.93 224.144V175.144H1113.93V224.144C1113.93 225.429 1112.79 226.572 1111.51 226.572ZM1059.06 177.286V224.286C1059.06 224.429 1059.21 224.572 1059.35 224.572H1111.65C1111.8 224.572 1111.94 224.429 1111.94 224.286V177.286H1059.06Z" fill="#2D5967"/>
</g>
<g id="Group_11">
<path id="Vector_14" d="M1113.93 173.572H1056.93V171.858C1056.93 170.572 1058.07 169.429 1059.35 169.429H1111.65C1112.79 169.429 1113.93 170.572 1113.93 171.858V173.572Z" fill="#2D5967"/>
</g>
</g>
</g>
</g>
<g id="Icon Text Label">
<text id="IconLabel" fill="black" xml:space="preserve" style="white-space: pre" font-family="Oracle Sans" font-size="16" letter-spacing="0em"><tspan x="1032.12" y="245.816">Object Storage</tspan></text>
</g>
</g>
<g id="Azure Container Registries">
<g id="Azure-Container-Registries">
<g id="Group 1494">
<path id="Vector_15" d="M61.2802 299.272L69.9149 294.025L94.1114 303.134C93.5831 300.783 92.3717 298.641 90.6295 296.977L90.5962 296.81C88.5625 294.845 85.981 293.543 83.1922 293.075C83.0101 288.742 81.1171 284.659 77.9284 281.72C74.7397 278.782 70.5157 277.228 66.1829 277.4C62.6882 277.336 59.2598 278.357 56.3692 280.322C53.4786 282.287 51.2677 285.099 50.0407 288.372C46.3653 288.821 42.9742 290.578 40.4877 293.321C38.0013 296.065 36.5857 299.612 36.5 303.314C36.665 307.481 38.4733 311.413 41.5295 314.25C44.5857 317.088 48.6411 318.6 52.8089 318.455H61.2802V299.272Z" fill="url(#paint3_linear_16122_355283)"/>
<path id="Vector_16" d="M70.0844 295.874L70.1178 310.148L96.4988 315.751V305.812L70.0844 295.874Z" fill="#767676"/>
<path id="Vector_17" d="M70.0856 295.874L62.9484 300.209V313.483L70.1189 310.148" fill="#999999"/>
<path id="Vector_18" d="M82.1255 310.348L84.5268 311.015V303.244L82.1255 302.41V310.348Z" fill="#A3A3A3"/>
<path id="Vector_19" d="M79.7244 301.643L77.3231 300.776V309.08L79.7244 309.747V301.643Z" fill="#A3A3A3"/>
<path id="Vector_20" d="M86.9279 311.648L89.2625 312.282L89.3292 304.878L86.9279 304.078V311.648Z" fill="#A3A3A3"/>
<path id="Vector_21" d="M72.5532 307.847L74.9545 308.447V300.009L72.5532 299.208V307.847Z" fill="#A3A3A3"/>
<path id="Vector_22" d="M94.0975 306.512L91.6961 305.679V312.916L94.0975 313.583V306.512Z" fill="#A3A3A3"/>
<path id="ef0d1b54-a1e7-4cb9-a4e5-8a8518e7c127" d="M65.3818 309.914L64.1811 310.615V301.176L65.3818 300.543V309.914ZM67.7497 299.175L66.5157 299.976V309.147L67.7497 308.48V299.175Z" fill="#B3B3B3"/>
<path id="Vector_23" d="M96.5 315.751L89.2961 318.219L62.9484 313.483L70.1189 310.147L96.5 315.751Z" fill="url(#paint4_linear_16122_355283)"/>
<path id="Vector_24" d="M96.4995 325.923L69.9851 330.959L70.1185 312.315L96.4995 317.218V325.923Z" fill="#767676"/>
<path id="Vector_25" d="M72.5532 327.891V316.051L74.9545 316.351V327.49L72.5532 327.891Z" fill="#A3A3A3"/>
<path id="Vector_26" d="M79.7244 326.69L77.3231 327.124V316.651L79.7244 317.018V326.69Z" fill="#A3A3A3"/>
<path id="Vector_27" d="M82.1255 326.323V317.251L84.5268 317.552V325.89L82.1255 326.323Z" fill="#A3A3A3"/>
<path id="Vector_28" d="M89.2959 325.056L86.9279 325.49V317.852L89.2959 318.219V325.056Z" fill="#A3A3A3"/>
<path id="Vector_29" d="M94.1642 324.289L91.6961 324.722V318.452L93.9974 318.752L94.1642 324.289Z" fill="#A3A3A3"/>
<path id="b9f25eb4-4c88-45c2-bc4d-f992757d7e0e" d="M62.9484 326.694V315.821L70.1523 312.486V331.163L62.9484 326.694Z" fill="#999999"/>
<path id="eb9200a7-4693-4427-bdae-b33ce90ff7f2" d="M65.2158 326.657L64.1486 326.123V316.918L65.2158 316.418V326.657ZM67.7839 315.15L66.5165 315.784V327.39L67.7505 328.024V315.15H67.7839Z" fill="#B3B3B3"/>
</g>
</g>
<g id="Icon Text Label_2">
<text id="IconLabel_2" fill="black" xml:space="preserve" style="white-space: pre" font-family="Oracle Sans" font-size="16" letter-spacing="0em"><tspan x="45.5312" y="349.816">Azure</tspan></text>
<text id="IconLabel_3" fill="black" xml:space="preserve" style="white-space: pre" font-family="Oracle Sans" font-size="16" letter-spacing="0em"><tspan x="31.0156" y="365.816">Container</tspan></text>
<text id="IconLabel_4" fill="black" xml:space="preserve" style="white-space: pre" font-family="Oracle Sans" font-size="16" letter-spacing="0em"><tspan x="36.8438" y="381.816">Registry</tspan></text>
</g>
</g>
<g id="Icon Master_3">
<g id="Azure-service-Virtual-Machine">
<g id="Group 836">
<path id="Vector_30" d="M95.9337 456.537H39.9337C38.8291 456.537 37.9337 457.433 37.9337 458.539V494.582C37.9337 495.688 38.8291 496.585 39.9337 496.585H95.9337C97.0382 496.585 97.9337 495.688 97.9337 494.582V458.539C97.9337 457.433 97.0382 456.537 95.9337 456.537Z" fill="url(#paint5_linear_16122_355283)"/>
<path id="Vector_31" d="M77.9337 470.72V482.368L67.9337 488.241V476.561L77.9337 470.72Z" fill="#50E6FF"/>
<path id="Vector_32" d="M77.9337 470.72L67.9337 476.594L57.9337 470.72L67.9337 464.88L77.9337 470.72Z" fill="#C3F1FF"/>
<path id="Vector_33" d="M67.9337 476.594V488.241L57.9337 482.368V470.72L67.9337 476.594Z" fill="#9CEBFF"/>
<path id="Vector_34" d="M57.9337 482.368L67.9337 476.561V488.241L57.9337 482.368Z" fill="#C3F1FF"/>
<path id="Vector_35" d="M77.9337 482.368L67.9337 476.561V488.241L77.9337 482.368Z" fill="#9CEBFF"/>
<path id="Vector_36" d="M79.9671 508.7C74.0337 507.765 73.8004 503.493 73.8004 496.585H62.0337C62.0337 503.493 61.8337 507.765 55.9004 508.7C55.0813 508.79 54.3249 509.182 53.777 509.798C53.2292 510.414 52.9287 511.212 52.9337 512.037H82.9337C82.9387 511.212 82.6383 510.414 82.0905 509.798C81.5426 509.182 80.7861 508.79 79.9671 508.7Z" fill="url(#paint6_linear_16122_355283)"/>
</g>
</g>
<g id="Icon Text Label_3">
<text id="IconLabel_5" fill="black" xml:space="preserve" style="white-space: pre" font-family="Oracle Sans" font-size="16" letter-spacing="0em"><tspan x="27.0781" y="529.816">Application</tspan></text>
</g>
</g>
<g id="Azure load balancer">
<g id="Azure-icon-service-Load-Balancers">
<path id="Vector_37" d="M239.1 480.566L267.067 452.6C267.253 452.408 267.476 452.256 267.722 452.152C267.968 452.048 268.233 451.995 268.5 451.995C268.767 451.995 269.032 452.048 269.278 452.152C269.524 452.256 269.747 452.408 269.933 452.6L297.9 480.566C298.092 480.753 298.244 480.976 298.348 481.222C298.452 481.468 298.505 481.733 298.505 482C298.505 482.267 298.452 482.532 298.348 482.778C298.244 483.024 298.092 483.247 297.9 483.433L269.9 511.433C269.526 511.8 269.024 512.005 268.5 512.005C267.977 512.005 267.474 511.8 267.1 511.433L239.1 483.433C238.908 483.247 238.756 483.024 238.652 482.778C238.548 482.532 238.495 482.267 238.495 482C238.495 481.733 238.548 481.468 238.652 481.222C238.756 480.976 238.908 480.753 239.1 480.566V480.566Z" fill="url(#paint7_linear_16122_355283)"/>
<path id="Vector_38" d="M275.833 465.333L268.767 458.3C268.693 458.235 268.598 458.198 268.5 458.198C268.402 458.198 268.307 458.235 268.233 458.3L261.167 465.333C261.102 465.377 261.054 465.442 261.032 465.518C261.011 465.593 261.016 465.674 261.048 465.745C261.08 465.817 261.136 465.875 261.206 465.91C261.277 465.944 261.357 465.952 261.433 465.933H265.567C265.615 465.933 265.662 465.943 265.707 465.961C265.751 465.98 265.792 466.007 265.826 466.041C265.86 466.075 265.887 466.115 265.905 466.16C265.924 466.204 265.933 466.252 265.933 466.3V472.967C265.933 473.064 265.972 473.157 266.041 473.226C266.109 473.295 266.203 473.333 266.3 473.333H270.7C270.797 473.333 270.89 473.295 270.959 473.226C271.028 473.157 271.067 473.064 271.067 472.967V466.3C271.067 466.252 271.076 466.204 271.095 466.16C271.113 466.115 271.14 466.075 271.174 466.041C271.208 466.007 271.249 465.98 271.293 465.961C271.337 465.943 271.385 465.933 271.433 465.933H275.567C275.643 465.952 275.723 465.944 275.793 465.91C275.864 465.875 275.92 465.817 275.952 465.745C275.984 465.674 275.989 465.593 275.968 465.518C275.946 465.442 275.898 465.377 275.833 465.333V465.333Z" fill="#B4EC36"/>
<path id="Vector_39" d="M251.833 474.033L244.833 481.133C244.77 481.201 244.735 481.29 244.735 481.383C244.735 481.476 244.77 481.565 244.833 481.633L251.833 488.667C251.885 488.721 251.951 488.758 252.024 488.774C252.098 488.789 252.174 488.782 252.243 488.753C252.312 488.724 252.37 488.675 252.41 488.612C252.45 488.548 252.47 488.475 252.467 488.4V484.3C252.467 484.203 252.505 484.109 252.574 484.041C252.643 483.972 252.736 483.933 252.833 483.933H259.5C259.547 483.933 259.593 483.924 259.636 483.905C259.679 483.886 259.717 483.859 259.748 483.824C259.78 483.79 259.804 483.749 259.818 483.704C259.833 483.66 259.838 483.613 259.833 483.567V479.167C259.861 479.12 259.877 479.067 259.88 479.013C259.883 478.958 259.872 478.904 259.849 478.855C259.826 478.805 259.791 478.762 259.748 478.73C259.705 478.697 259.654 478.675 259.6 478.667H252.933C252.887 478.671 252.84 478.666 252.796 478.651C252.751 478.637 252.71 478.613 252.676 478.582C252.641 478.55 252.614 478.512 252.595 478.469C252.576 478.426 252.566 478.38 252.567 478.333V474.3C252.602 474.203 252.597 474.095 252.554 474.002C252.51 473.908 252.431 473.835 252.333 473.8C252.236 473.764 252.129 473.769 252.035 473.813C251.941 473.857 251.869 473.936 251.833 474.033Z" fill="#B4EC36"/>
<path id="Vector_40" d="M285.433 488.667L292.533 481.6C292.597 481.532 292.632 481.443 292.632 481.35C292.632 481.257 292.597 481.168 292.533 481.1L285.433 474.033C285.381 473.99 285.317 473.962 285.25 473.953C285.182 473.943 285.113 473.953 285.051 473.981C284.988 474.009 284.935 474.053 284.897 474.109C284.858 474.166 284.836 474.232 284.833 474.3V478.467C284.834 478.513 284.824 478.56 284.805 478.602C284.786 478.645 284.759 478.684 284.724 478.715C284.69 478.746 284.649 478.77 284.604 478.785C284.56 478.8 284.513 478.805 284.467 478.8H277.8C277.753 478.8 277.707 478.809 277.664 478.828C277.621 478.847 277.583 478.875 277.552 478.909C277.52 478.944 277.496 478.984 277.482 479.029C277.467 479.073 277.462 479.12 277.467 479.167V483.567C277.462 483.613 277.467 483.66 277.482 483.704C277.496 483.749 277.52 483.79 277.552 483.824C277.583 483.859 277.621 483.886 277.664 483.905C277.707 483.924 277.753 483.934 277.8 483.933H284.467C284.564 483.933 284.657 483.972 284.726 484.041C284.795 484.109 284.833 484.203 284.833 484.3V488.433C284.842 488.499 284.868 488.561 284.908 488.612C284.949 488.664 285.003 488.704 285.064 488.728C285.125 488.752 285.192 488.759 285.257 488.748C285.322 488.737 285.383 488.709 285.433 488.667V488.667Z" fill="#B4EC36"/>
<path id="Vector_41" d="M277.8 482C277.811 480.266 277.336 478.564 276.431 477.085C275.525 475.606 274.223 474.41 272.674 473.632C271.124 472.853 269.388 472.524 267.661 472.681C265.933 472.837 264.285 473.473 262.9 474.518C261.516 475.562 260.451 476.973 259.825 478.59C259.2 480.208 259.04 481.968 259.362 483.672C259.685 485.376 260.477 486.955 261.65 488.233C262.823 489.51 264.33 490.434 266 490.9V494.067C264.865 494.653 263.96 495.604 263.43 496.767C262.9 497.929 262.776 499.236 263.078 500.477C263.38 501.719 264.09 502.823 265.094 503.612C266.099 504.402 267.339 504.831 268.617 504.831C269.894 504.831 271.135 504.402 272.139 503.612C273.144 502.823 273.854 501.719 274.155 500.477C274.457 499.236 274.333 497.929 273.803 496.767C273.273 495.604 272.368 494.653 271.233 494.067V490.734C273.115 490.166 274.766 489.013 275.947 487.442C277.128 485.872 277.777 483.965 277.8 482V482Z" fill="white"/>
<path id="e99c3387-15c3-4f28-bd4b-cb209b430e06" d="M268.533 487.367C271.516 487.367 273.933 484.949 273.933 481.967C273.933 478.985 271.516 476.567 268.533 476.567C265.551 476.567 263.133 478.985 263.133 481.967C263.133 484.949 265.551 487.367 268.533 487.367Z" fill="#5EA0EF"/>
</g>
<g id="Icon Text Label_4">
<text id="IconLabel_6" fill="black" xml:space="preserve" style="white-space: pre" font-family="Oracle Sans" font-size="16" letter-spacing="0em"><tspan x="194.266" y="529.816">Azure Load Balancer</tspan></text>
</g>
</g>
<g id="Azure Kubernetes Services">
<g id="Azure-Kubernetes-Services">
<g id="Azure-Kubernetes-Services_2">
<path id="Vector_42" d="M257.747 278.733L248.256 280.492V293.434L257.747 295.459L267.272 291.642V281.985L257.747 278.733Z" fill="url(#paint8_linear_16122_355283)"/>
<path id="Vector_43" d="M248.256 280.492V293.434L257.847 295.459V278.866L248.256 280.492ZM252.305 292.439L249.617 291.908V281.952L252.305 281.521V292.439ZM256.486 293.202L253.4 292.704V281.321L256.486 280.791V293.202Z" fill="#341A6E"/>
<path id="Vector_44" d="M278.29 278.899L268.799 280.658V293.6L278.29 295.625L287.781 291.775V282.151L278.29 278.899Z" fill="url(#paint9_linear_16122_355283)"/>
<path id="Vector_45" d="M268.799 280.658V293.6L278.323 295.625V279.032L268.799 280.658ZM272.815 292.605L270.127 292.074V282.118L272.815 281.687V292.605ZM276.996 293.368L273.91 292.87V281.487L276.996 280.923V293.368Z" fill="#341A6E"/>
<path id="Vector_46" d="M248.024 296.587L238.533 298.346V311.288L248.024 313.313L257.548 309.496V299.839L248.024 296.587Z" fill="url(#paint10_linear_16122_355283)"/>
<path id="Vector_47" d="M238.5 298.346V311.189L248.091 313.213V296.62L238.5 298.346ZM242.515 310.326L239.827 309.762V299.806L242.515 299.341V310.326ZM246.73 311.189L243.644 310.691V299.175L246.73 298.644V311.189Z" fill="#341A6E"/>
<path id="Vector_48" d="M268.5 296.454L259.009 298.213V311.155L268.5 313.213L277.991 309.363V299.706L268.5 296.454Z" fill="url(#paint11_linear_16122_355283)"/>
<path id="Vector_49" d="M259.009 298.213V311.189L268.566 313.213V296.62L259.009 298.213ZM263.024 310.193L260.336 309.629V299.673L263.024 299.209V310.193ZM267.206 310.923L264.119 310.425V299.043L267.206 298.512V310.923Z" fill="#341A6E"/>
<path id="Vector_50" d="M288.976 296.62L279.485 298.379V311.321L288.976 313.346L298.5 309.529V299.872L288.976 296.62Z" fill="url(#paint12_linear_16122_355283)"/>
<path id="Vector_51" d="M279.485 298.379V311.189L289.076 313.213V296.62L279.485 298.379ZM283.534 310.359L280.846 309.795V299.839L283.534 299.375V310.359ZM287.715 311.089L284.629 310.591V299.209L287.715 298.678V311.089Z" fill="#341A6E"/>
<path id="Vector_52" d="M257.515 314.64L248.024 316.366V329.308L257.515 331.366L267.04 327.516V317.892L257.515 314.64Z" fill="url(#paint13_linear_16122_355283)"/>
<path id="Vector_53" d="M248.024 316.366V329.308L257.615 331.366V314.507L248.024 316.366ZM252.073 328.346L249.385 327.782V317.826L252.073 317.361V328.346ZM256.254 329.109L253.168 328.611V317.195L256.254 316.664V329.109Z" fill="#341A6E"/>
<path id="Vector_54" d="M278.024 314.773L268.533 316.532V329.474L278.024 331.499L287.548 327.682V318.025L278.024 314.773Z" fill="url(#paint14_linear_16122_355283)"/>
<path id="Vector_55" d="M268.533 316.532V329.474L278.124 331.499V314.906L268.533 316.532ZM272.582 328.512L269.893 327.948V317.992L272.582 317.527V328.512ZM276.763 329.242L273.677 328.744V317.362L276.763 316.831V329.242Z" fill="#341A6E"/>
</g>
</g>
<g id="Icon Text Label_5">
<text id="IconLabel_7" fill="black" xml:space="preserve" style="white-space: pre" font-family="Oracle Sans" font-size="16" letter-spacing="0em"><tspan x="204.203" y="349.816">Azure Kubernetes</tspan></text>
<text id="IconLabel_8" fill="black" xml:space="preserve" style="white-space: pre" font-family="Oracle Sans" font-size="16" letter-spacing="0em"><tspan x="238.484" y="365.816">Services</tspan></text>
</g>
</g>
<g id="Oracle Database@Azure">
<rect x="545" y="105" width="326" height="182" fill="white"/>
<rect x="545" y="105" width="326" height="182" stroke="#706E6F" stroke-width="2" stroke-dasharray="4 4"/>
<g id="VNet icon_2">
<rect id="White Vnet BG_2" x="819" y="102" width="45" height="6" fill="white"/>
<g id="Icon Master_4">
<g id="Azure_VNet_2">
<g id="Group_12">
<g id="Group_13">
<path id="Vector_56" d="M850.294 107.545C851.725 107.545 852.884 106.386 852.884 104.955C852.884 103.524 851.725 102.365 850.294 102.365C848.863 102.365 847.704 103.524 847.704 104.955C847.704 106.386 848.863 107.545 850.294 107.545Z" fill="url(#paint15_linear_16122_355283)"/>
<path id="Vector_57" d="M842.125 107.545C843.555 107.545 844.715 106.386 844.715 104.955C844.715 103.524 843.555 102.365 842.125 102.365C840.694 102.365 839.534 103.524 839.534 104.955C839.534 106.386 840.694 107.545 842.125 107.545Z" fill="url(#paint16_linear_16122_355283)"/>
<path id="Vector_58" d="M833.955 107.545C835.386 107.545 836.545 106.386 836.545 104.955C836.545 103.524 835.386 102.365 833.955 102.365C832.525 102.365 831.365 103.524 831.365 104.955C831.365 106.386 832.525 107.545 833.955 107.545Z" fill="url(#paint17_linear_16122_355283)"/>
<path id="Vector_59" d="M835.748 115.316L834.154 116.91C833.955 116.91 833.557 116.91 833.357 116.711L822.398 105.752C822 105.354 822 104.556 822.398 103.959L823.993 102.564L835.748 114.32C835.948 114.519 835.948 114.918 835.748 115.316Z" fill="#50E6FF"/>
<path id="Vector_60" d="M834.154 93.1992L835.748 94.7933C835.948 94.9925 835.948 95.391 835.748 95.5903L823.993 107.346L822.399 105.752C821.801 105.154 821.801 104.357 822.399 103.959L833.158 93.1992C833.357 93 833.756 93 834.154 93.1992Z" fill="#1490DF"/>
<path id="Vector_61" d="M860.057 102.365L861.452 103.76C862.05 104.357 862.05 105.154 861.452 105.553L850.493 116.512C850.294 116.711 849.895 116.711 849.497 116.512L847.903 114.918C847.704 114.718 847.704 114.32 847.903 113.921L860.057 102.365Z" fill="#50E6FF"/>
<path id="Vector_62" d="M861.651 105.752L860.057 107.346L848.501 95.7895C848.301 95.5903 848.301 95.1918 848.501 94.7933L849.895 93.1992C850.095 93 850.493 93 850.892 93.1992L861.651 103.959C862.05 104.357 862.05 105.154 861.651 105.752Z" fill="#1490DF"/>
</g>
</g>
</g>
</g>
</g>
<text id="VNet_2" fill="#706E6F" xml:space="preserve" style="white-space: pre" font-family="Oracle Sans" font-size="16" font-weight="600" letter-spacing="0em"><tspan x="553" y="126.816">Primary Database VNet</tspan></text>
</g>
<g id="Oracle Database@Azure_2">
<rect x="552.5" y="136.5" width="311" height="143" fill="white"/>
<rect x="552.5" y="136.5" width="311" height="143" stroke="#706E6F" stroke-dasharray="8 4"/>
<text id="Azure subnet" fill="#706E6F" xml:space="preserve" style="white-space: pre" font-family="Oracle Sans" font-size="16" font-weight="600" letter-spacing="0em"><tspan x="560" y="157.816">Delegated subnet</tspan></text>
</g>
<g id="Private Endpoint IP">
<g id="Private-Endpoint-IP-Address">
<g id="Group 424">
<path id="Vector_63" d="M597.52 210.541C595.402 207.477 594.586 203.697 595.252 200.031C595.918 196.365 598.011 193.115 601.071 190.994C604.13 188.874 607.906 188.057 611.567 188.724C615.228 189.391 618.474 191.486 620.592 194.55C622.209 196.909 623.074 199.703 623.074 202.564C623.074 205.425 622.209 208.219 620.592 210.578L609.061 227.186L597.52 210.541Z" fill="white"/>
<path id="Vector_64" d="M609.042 188.936C611.524 188.927 613.961 189.599 616.088 190.879C618.215 192.16 619.951 194 621.107 196.199C622.263 198.398 622.795 200.872 622.645 203.353C622.494 205.834 621.668 208.226 620.255 210.269L609.06 226.363L597.902 210.269C596.493 208.231 595.668 205.846 595.514 203.372C595.361 200.898 595.887 198.429 597.034 196.232C598.181 194.035 599.906 192.195 602.022 190.908C604.139 189.622 606.566 188.94 609.042 188.936V188.936ZM609.042 188C606.395 188.005 603.801 188.734 601.539 190.109C599.277 191.483 597.433 193.451 596.207 195.799C594.981 198.147 594.42 200.786 594.583 203.43C594.747 206.075 595.63 208.624 597.136 210.802L608.294 226.896L609.06 228L609.827 226.896L620.975 210.802C622.483 208.622 623.366 206.07 623.528 203.423C623.691 200.776 623.127 198.135 621.898 195.787C620.668 193.438 618.82 191.47 616.554 190.098C614.288 188.725 611.69 188 609.042 188V188Z" fill="white"/>
<path id="Vector_65" d="M620.21 194.784C618.159 191.822 615.017 189.797 611.475 189.155C607.933 188.513 604.282 189.306 601.324 191.359C598.366 193.413 596.344 196.559 595.702 200.105C595.061 203.651 595.853 207.307 597.903 210.269L609.061 226.363L620.21 210.269C621.774 207.991 622.611 205.291 622.611 202.526C622.611 199.762 621.774 197.062 620.21 194.784V194.784ZM618.855 209.343L609.061 223.49L599.23 209.333C597.991 207.541 597.265 205.442 597.132 203.266C596.998 201.09 597.462 198.918 598.472 196.987C599.483 195.056 601.002 193.438 602.866 192.31C604.729 191.181 606.865 190.584 609.043 190.584C611.22 190.584 613.356 191.181 615.219 192.31C617.083 193.438 618.602 195.056 619.613 196.987C620.623 198.918 621.087 201.09 620.953 203.266C620.82 205.442 620.094 207.541 618.855 209.333V209.343Z" fill="#2D5967"/>
<path id="Vector_66" d="M613.172 198.835V196.814C613.166 196.174 613.013 195.544 612.724 194.972C612.436 194.401 612.02 193.904 611.508 193.52C611.002 193.134 610.411 192.872 609.784 192.756C609.157 192.641 608.512 192.675 607.901 192.856C607.038 193.118 606.283 193.652 605.747 194.379C605.212 195.105 604.925 195.986 604.93 196.889V198.835C604.107 199.652 603.546 200.696 603.316 201.833C603.087 202.971 603.2 204.151 603.642 205.223C604.083 206.296 604.833 207.214 605.796 207.859C606.759 208.505 607.892 208.849 609.051 208.849C610.21 208.849 611.342 208.505 612.305 207.859C613.268 207.214 614.018 206.296 614.459 205.223C614.901 204.151 615.014 202.971 614.785 201.833C614.556 200.696 613.994 199.652 613.172 198.835V198.835ZM606.565 196.889C606.557 196.34 606.726 195.804 607.048 195.361C607.37 194.917 607.827 194.59 608.35 194.428C608.719 194.32 609.108 194.3 609.486 194.37C609.864 194.439 610.221 194.597 610.527 194.83C610.836 195.062 611.087 195.361 611.262 195.705C611.437 196.048 611.531 196.428 611.536 196.814V197.684C610.758 197.32 609.91 197.132 609.051 197.132C608.192 197.132 607.343 197.32 606.565 197.684V196.889ZM609.051 207.181C608.213 207.187 607.393 206.943 606.694 206.481C605.996 206.018 605.45 205.359 605.127 204.585C604.803 203.812 604.717 202.96 604.878 202.137C605.039 201.314 605.441 200.558 606.033 199.965C606.624 199.371 607.378 198.967 608.2 198.804C609.021 198.64 609.872 198.725 610.645 199.047C611.419 199.369 612.079 199.914 612.542 200.613C613.005 201.311 613.25 202.132 613.247 202.97C613.253 203.526 613.149 204.077 612.94 204.591C612.732 205.106 612.424 205.574 612.034 205.968C611.643 206.363 611.179 206.675 610.667 206.888C610.154 207.101 609.605 207.21 609.051 207.209V207.181Z" fill="#2D5967"/>
<path id="Vector_67" d="M609.051 201.174H608.902C608.633 201.207 608.383 201.328 608.189 201.517C607.995 201.706 607.868 201.954 607.827 202.222C607.788 202.475 607.83 202.733 607.945 202.962C608.061 203.19 608.245 203.376 608.472 203.494L608.229 205.085H609.874L609.649 203.494C609.843 203.385 610.004 203.226 610.115 203.033C610.227 202.841 610.285 202.622 610.285 202.4C610.282 202.074 610.151 201.762 609.92 201.532C609.689 201.303 609.377 201.174 609.051 201.174V201.174Z" fill="#2D5967"/>
</g>
</g>
<g id="Icon Text Label_6">
<text id="IconLabel_9" fill="black" xml:space="preserve" style="white-space: pre" font-family="Oracle Sans" font-size="16" letter-spacing="0em"><tspan x="583.969" y="245.816">Private</tspan></text>
<text id="IconLabel_10" fill="black" xml:space="preserve" style="white-space: pre" font-family="Oracle Sans" font-size="16" letter-spacing="0em"><tspan x="576.016" y="261.816">Endpoint</tspan></text>
</g>
</g>
<g id="Autonomous DB">
<g id="Autonomous-Database">
<g id="Group 7">
<path id="Vector_68" d="M765.391 227.449C761.548 227.449 757.829 227.078 755.102 226.458C751.507 225.59 749.647 224.226 749.647 222.367V204.392H738.118L738.242 202.532C738.614 197.945 741.218 193.978 745.309 191.871C746.176 191.375 746.796 190.631 747.044 189.64C747.664 186.416 749.895 183.689 752.871 182.449C754.11 181.954 755.474 181.582 756.961 181.582C757.209 181.582 757.581 181.582 757.953 181.582C758.077 181.582 758.201 181.582 758.325 181.582C759.193 181.582 760.061 181.21 760.556 180.59C762.664 178.235 765.515 176.871 768.614 176.623H769.854C774.441 176.747 778.532 179.35 780.515 183.441C780.639 183.689 780.887 184.061 781.135 184.309C781.383 184.681 781.879 185.301 782.127 185.797C785.846 185.921 789.193 187.904 791.176 191.003V191.127L791.548 192.987L796.631 198.069L794.152 200.549L792.54 198.937C791.548 204.144 786.961 207.987 781.507 207.987C781.383 207.987 781.135 207.987 781.011 207.987V222.243C781.011 224.102 779.275 225.466 775.556 226.334C772.953 227.078 769.234 227.449 765.391 227.449Z" fill="white"/>
<path id="Vector_69" d="M769.36 177.244C773.822 177.244 777.789 179.723 779.773 183.69C780.021 184.062 780.145 184.434 780.517 184.682C780.764 185.054 781.26 185.798 781.632 186.294C785.351 186.294 788.698 188.277 790.558 191.252L791.054 193.236L795.888 198.071L794.277 199.682L792.169 197.575C791.798 203.029 787.211 207.368 781.632 207.368C781.26 207.368 780.888 207.368 780.517 207.244V222.244C780.517 223.732 778.905 224.971 775.558 225.715C772.831 226.335 769.236 226.707 765.393 226.707C761.55 226.707 757.955 226.335 755.227 225.715C751.88 224.971 750.269 223.732 750.269 222.244V203.649H738.864L738.988 202.409C739.36 198.071 741.839 194.228 745.682 192.244C746.674 191.872 747.417 190.88 747.665 189.765C748.285 186.79 750.269 184.186 753.12 182.947C754.36 182.451 755.599 182.203 756.963 182.203C757.211 182.203 757.583 182.203 757.831 182.203C757.955 182.203 758.079 182.203 758.202 182.203C759.194 182.203 760.186 181.831 760.93 181.087C763.037 178.732 766.012 177.492 769.112 177.368V178.484V177.368C769.112 177.244 769.236 177.244 769.36 177.244ZM770.227 176.004H768.988H767.748V176.128C764.773 176.5 761.921 177.864 759.814 180.095C759.442 180.715 758.822 180.963 758.079 180.963C757.955 180.963 757.955 180.963 757.831 180.963C757.459 180.963 757.211 180.963 756.839 180.963C755.351 180.963 753.864 181.335 752.5 181.831C749.277 183.194 747.045 186.046 746.302 189.517C746.178 190.261 745.682 191.004 744.938 191.376C740.723 193.608 737.996 197.823 737.624 202.533L737.5 203.773V205.013H738.864H749.029V222.368C749.029 225.591 753.492 226.707 754.979 227.079C757.831 227.699 761.55 228.071 765.393 228.071C769.36 228.071 772.955 227.699 775.806 227.079C777.293 226.707 781.756 225.715 781.756 222.368V208.732C786.963 208.732 791.55 205.137 792.913 200.178L793.285 200.55L794.153 201.418L795.021 200.55L796.632 198.938L797.5 198.071L796.632 197.203L792.045 192.616L791.674 191.004V190.756L791.55 190.632C789.566 187.409 786.095 185.302 782.252 185.054C782.004 184.682 781.632 184.186 781.508 183.938V183.814L781.384 183.69C781.26 183.69 781.012 183.442 780.888 183.194C778.905 178.98 774.814 176.376 770.227 176.004Z" fill="white"/>
<path id="Vector_70" d="M741.343 201.541H748.533V203.773H738.863L738.987 202.533C739.359 198.194 741.839 194.351 745.682 192.368C746.673 191.872 747.417 190.88 747.665 189.764C748.285 186.789 750.268 184.186 753.12 182.946C754.483 182.202 756.095 181.954 757.706 182.202C758.946 182.326 760.062 181.954 760.806 181.087C762.913 178.731 765.888 177.492 768.987 177.368C769.111 177.368 769.235 177.368 769.235 177.368C773.698 177.368 777.665 179.847 779.649 183.814C779.897 184.186 780.02 184.558 780.392 184.806C779.525 184.93 778.657 185.054 777.913 185.302C777.789 185.178 777.789 185.054 777.665 184.806C776.054 181.583 772.83 179.599 769.235 179.599C769.111 179.599 769.111 179.599 768.987 179.599C766.508 179.599 764.029 180.715 762.293 182.574C761.054 183.938 759.194 184.682 757.335 184.434C756.095 184.31 754.979 184.558 753.739 185.054C751.632 186.045 750.02 187.905 749.649 190.26C749.277 192.12 748.161 193.607 746.425 194.475C743.822 195.839 741.963 198.442 741.343 201.541ZM780.516 190.88H782.748L785.847 201.913H783.368L782.996 199.558H780.268L779.649 201.913H777.293L780.516 190.88ZM780.64 197.698H782.5L781.508 193.607L780.64 197.698ZM771.095 196.211L768.987 194.103L767.376 195.715L772.211 200.549L777.045 195.715L775.434 194.103L773.45 196.087C773.822 191.872 777.417 188.649 781.632 188.649C784.731 188.649 787.458 190.384 788.946 192.988L790.558 191.376C788.698 188.401 785.351 186.417 781.632 186.417C776.054 186.417 771.467 190.756 771.095 196.211ZM795.888 198.07L791.054 193.359L786.219 198.194L787.83 199.806L789.814 197.822C789.442 202.037 785.847 205.26 781.632 205.26C778.533 205.26 775.806 203.525 774.318 200.921L772.706 202.533C774.566 205.508 777.913 207.492 781.632 207.492C787.211 207.492 791.797 203.153 792.169 197.698L794.277 199.806L795.888 198.07ZM778.161 208.979C778.905 209.227 779.649 209.351 780.392 209.475V222.492C780.392 223.979 778.781 225.219 775.434 225.963C772.706 226.583 769.111 226.954 765.268 226.954C761.425 226.954 757.83 226.583 755.103 225.963C751.756 225.219 750.144 223.979 750.144 222.492V198.07C750.144 196.583 751.756 195.467 755.103 194.723C757.706 194.103 761.301 193.855 765.268 193.855C765.392 193.855 765.64 193.855 765.888 193.855V196.087C765.764 196.087 765.516 196.087 765.268 196.087C757.087 196.087 752.996 197.45 752.5 198.194V198.318C752.996 199.186 757.706 200.549 765.268 200.549C766.88 200.549 768.244 200.549 769.607 200.426C769.855 201.169 770.103 201.913 770.475 202.657C768.863 202.781 767.128 202.905 765.268 202.905C761.425 202.905 757.83 202.533 755.103 201.913C753.987 201.665 753.12 201.417 752.376 201.045V206.376C752.872 207.244 757.582 208.607 765.144 208.607C769.359 208.607 772.706 208.111 774.938 207.616C776.054 208.111 777.045 208.607 778.161 208.979C777.417 209.351 776.549 209.599 775.434 209.847C772.706 210.467 769.111 210.839 765.268 210.839C761.425 210.839 757.83 210.467 755.103 209.847C753.987 209.599 753.12 209.351 752.376 208.979V214.31C752.872 215.178 757.582 216.541 765.144 216.541C772.706 216.541 777.417 215.054 777.913 214.31L778.161 208.979ZM778.161 217.037C777.417 217.409 776.549 217.657 775.434 217.905C772.706 218.525 769.111 218.897 765.268 218.897C761.425 218.897 757.83 218.525 755.103 217.905C753.987 217.657 753.12 217.409 752.376 217.037V222.368C752.872 223.111 757.087 224.599 765.144 224.599C773.202 224.599 777.541 222.988 777.913 222.368L778.161 217.037Z" fill="#2D5967"/>
</g>
</g>
<g id="Icon Text Label_7">
<text id="IconLabel_11" fill="black" xml:space="preserve" style="white-space: pre" font-family="Oracle Sans" font-size="16" letter-spacing="0em"><tspan x="695.43" y="245.816">Oracle Autonomous</tspan></text>
<text id="IconLabel_12" fill="black" xml:space="preserve" style="white-space: pre" font-family="Oracle Sans" font-size="16" letter-spacing="0em"><tspan x="703.258" y="261.816">Database Primary</tspan></text>
</g>
</g>
<path id="Vector 1707" d="M544.707 196.707C545.098 196.317 545.098 195.683 544.707 195.293L538.343 188.929C537.953 188.538 537.319 188.538 536.929 188.929C536.538 189.319 536.538 189.953 536.929 190.343L542.586 196L536.929 201.657C536.538 202.047 536.538 202.681 536.929 203.071C537.319 203.462 537.953 203.462 538.343 203.071L544.707 196.707ZM391.293 195.293C390.902 195.683 390.902 196.317 391.293 196.707L397.657 203.071C398.047 203.462 398.681 203.462 399.071 203.071C399.462 202.681 399.462 202.047 399.071 201.657L393.414 196L399.071 190.343C399.462 189.953 399.462 189.319 399.071 188.929C398.681 188.538 398.047 188.538 397.657 188.929L391.293 195.293ZM544 195L392 195L392 197L544 197L544 195Z" fill="#312D2A"/>
<path id="Vector 1711" d="M1051.71 196.707C1052.1 196.317 1052.1 195.683 1051.71 195.293L1045.34 188.929C1044.95 188.538 1044.32 188.538 1043.93 188.929C1043.54 189.319 1043.54 189.953 1043.93 190.343L1049.59 196L1043.93 201.657C1043.54 202.047 1043.54 202.681 1043.93 203.071C1044.32 203.462 1044.95 203.462 1045.34 203.071L1051.71 196.707ZM1051 195L798 195L798 197L1051 197L1051 195Z" fill="#312D2A"/>
<g id="Connector Line Label">
<rect width="97" height="14" transform="translate(420 189)" fill="#DAE8FC"/>
<text id="Line Label" fill="#312D2A" xml:space="preserve" style="white-space: pre" font-family="Oracle Sans" font-size="14" letter-spacing="0em"><tspan x="424.374" y="201.089">VNET Peering</tspan></text>
</g>
<path id="Vector 1714" d="M544.707 460.707C545.098 460.317 545.098 459.683 544.707 459.293L538.343 452.929C537.953 452.538 537.319 452.538 536.929 452.929C536.538 453.319 536.538 453.953 536.929 454.343L542.586 460L536.929 465.657C536.538 466.047 536.538 466.681 536.929 467.071C537.319 467.462 537.953 467.462 538.343 467.071L544.707 460.707ZM391.293 459.293C390.902 459.683 390.902 460.317 391.293 460.707L397.657 467.071C398.047 467.462 398.681 467.462 399.071 467.071C399.462 466.681 399.462 466.047 399.071 465.657L393.414 460L399.071 454.343C399.462 453.953 399.462 453.319 399.071 452.929C398.681 452.538 398.047 452.538 397.657 452.929L391.293 459.293ZM544 459L392 459L392 461L544 461L544 459Z" fill="#312D2A"/>
<g id="Connector Line Label_2">
<rect width="97" height="14" transform="translate(420 453)" fill="#DAE8FC"/>
<text id="Line Label_2" fill="#312D2A" xml:space="preserve" style="white-space: pre" font-family="Oracle Sans" font-size="14" letter-spacing="0em"><tspan x="424.374" y="465.089">VNET Peering</tspan></text>
</g>
<g id="Oracle Database@Azure_3">
<rect x="545" y="369" width="326" height="182" fill="white"/>
<rect x="545" y="369" width="326" height="182" stroke="#706E6F" stroke-width="2" stroke-dasharray="4 4"/>
<g id="VNet icon_3">
<rect id="White Vnet BG_3" x="819" y="366" width="45" height="6" fill="white"/>
<g id="Icon Master_5">
<g id="Azure_VNet_3">
<g id="Group_14">
<g id="Group_15">
<path id="Vector_71" d="M850.294 371.545C851.725 371.545 852.884 370.386 852.884 368.955C852.884 367.524 851.725 366.365 850.294 366.365C848.863 366.365 847.704 367.524 847.704 368.955C847.704 370.386 848.863 371.545 850.294 371.545Z" fill="url(#paint18_linear_16122_355283)"/>
<path id="Vector_72" d="M842.125 371.545C843.555 371.545 844.715 370.386 844.715 368.955C844.715 367.524 843.555 366.365 842.125 366.365C840.694 366.365 839.534 367.524 839.534 368.955C839.534 370.386 840.694 371.545 842.125 371.545Z" fill="url(#paint19_linear_16122_355283)"/>
<path id="Vector_73" d="M833.955 371.545C835.386 371.545 836.545 370.386 836.545 368.955C836.545 367.524 835.386 366.365 833.955 366.365C832.525 366.365 831.365 367.524 831.365 368.955C831.365 370.386 832.525 371.545 833.955 371.545Z" fill="url(#paint20_linear_16122_355283)"/>
<path id="Vector_74" d="M835.748 379.316L834.154 380.91C833.955 380.91 833.557 380.91 833.357 380.711L822.398 369.752C822 369.354 822 368.556 822.398 367.959L823.993 366.564L835.748 378.32C835.948 378.519 835.948 378.918 835.748 379.316Z" fill="#50E6FF"/>
<path id="Vector_75" d="M834.154 357.199L835.748 358.793C835.948 358.993 835.948 359.391 835.748 359.59L823.993 371.346L822.399 369.752C821.801 369.154 821.801 368.357 822.399 367.959L833.158 357.199C833.357 357 833.756 357 834.154 357.199Z" fill="#1490DF"/>
<path id="Vector_76" d="M860.057 366.365L861.452 367.76C862.05 368.357 862.05 369.154 861.452 369.553L850.493 380.512C850.294 380.711 849.895 380.711 849.497 380.512L847.903 378.918C847.704 378.718 847.704 378.32 847.903 377.921L860.057 366.365Z" fill="#50E6FF"/>
<path id="Vector_77" d="M861.651 369.752L860.057 371.346L848.501 359.79C848.301 359.59 848.301 359.192 848.501 358.793L849.895 357.199C850.095 357 850.493 357 850.892 357.199L861.651 367.959C862.05 368.357 862.05 369.154 861.651 369.752Z" fill="#1490DF"/>
</g>
</g>
</g>
</g>
</g>
<text id="VNet_3" fill="#706E6F" xml:space="preserve" style="white-space: pre" font-family="Oracle Sans" font-size="16" font-weight="600" letter-spacing="0em"><tspan x="553" y="390.816">Primary Database VNet</tspan></text>
</g>
<g id="Group 1496">
<g id="Oracle Database@Azure_4">
<rect x="552.5" y="400.5" width="311" height="143" fill="white"/>
<rect x="552.5" y="400.5" width="311" height="143" stroke="#706E6F" stroke-dasharray="8 4"/>
<text id="Azure subnet_2" fill="#706E6F" xml:space="preserve" style="white-space: pre" font-family="Oracle Sans" font-size="16" font-weight="600" letter-spacing="0em"><tspan x="560" y="421.816">Delegated subnet</tspan></text>
</g>
<g id="Private Endpoint IP_2">
<g id="Private-Endpoint-IP-Address_2">
<g id="Group 424_2">
<path id="Vector_78" d="M597.52 474.541C595.402 471.477 594.586 467.697 595.252 464.031C595.918 460.365 598.011 457.115 601.071 454.994C604.13 452.874 607.906 452.057 611.567 452.724C615.228 453.391 618.474 455.486 620.592 458.55C622.209 460.909 623.074 463.703 623.074 466.564C623.074 469.425 622.209 472.219 620.592 474.578L609.061 491.186L597.52 474.541Z" fill="white"/>
<path id="Vector_79" d="M609.042 452.936C611.524 452.927 613.961 453.599 616.088 454.879C618.215 456.16 619.951 458 621.107 460.199C622.263 462.398 622.795 464.872 622.645 467.353C622.494 469.834 621.668 472.226 620.255 474.269L609.06 490.363L597.902 474.269C596.493 472.231 595.668 469.846 595.514 467.372C595.361 464.898 595.887 462.429 597.034 460.232C598.181 458.035 599.906 456.195 602.022 454.908C604.139 453.622 606.566 452.94 609.042 452.936V452.936ZM609.042 452C606.395 452.005 603.801 452.734 601.539 454.109C599.277 455.483 597.433 457.451 596.207 459.799C594.981 462.147 594.42 464.786 594.583 467.43C594.747 470.075 595.63 472.624 597.136 474.802L608.294 490.896L609.06 492L609.827 490.896L620.975 474.802C622.483 472.622 623.366 470.07 623.528 467.423C623.691 464.776 623.127 462.135 621.898 459.787C620.668 457.438 618.82 455.47 616.554 454.098C614.288 452.725 611.69 452 609.042 452V452Z" fill="white"/>
<path id="Vector_80" d="M620.21 458.784C618.159 455.822 615.017 453.797 611.475 453.155C607.933 452.513 604.282 453.306 601.324 455.359C598.366 457.413 596.344 460.559 595.702 464.105C595.061 467.651 595.853 471.307 597.903 474.269L609.061 490.363L620.21 474.269C621.774 471.991 622.611 469.291 622.611 466.526C622.611 463.762 621.774 461.062 620.21 458.784V458.784ZM618.855 473.343L609.061 487.49L599.23 473.333C597.991 471.541 597.265 469.442 597.132 467.266C596.998 465.09 597.462 462.918 598.472 460.987C599.483 459.056 601.002 457.438 602.866 456.31C604.729 455.181 606.865 454.584 609.043 454.584C611.22 454.584 613.356 455.181 615.219 456.31C617.083 457.438 618.602 459.056 619.613 460.987C620.623 462.918 621.087 465.09 620.953 467.266C620.82 469.442 620.094 471.541 618.855 473.333V473.343Z" fill="#2D5967"/>
<path id="Vector_81" d="M613.172 462.835V460.814C613.166 460.174 613.013 459.544 612.724 458.972C612.436 458.401 612.02 457.904 611.508 457.52C611.002 457.134 610.411 456.872 609.784 456.756C609.157 456.641 608.512 456.675 607.901 456.856C607.038 457.118 606.283 457.652 605.747 458.379C605.212 459.105 604.925 459.986 604.93 460.889V462.835C604.107 463.652 603.546 464.696 603.316 465.833C603.087 466.971 603.2 468.151 603.642 469.223C604.083 470.296 604.833 471.214 605.796 471.859C606.759 472.505 607.892 472.849 609.051 472.849C610.21 472.849 611.342 472.505 612.305 471.859C613.268 471.214 614.018 470.296 614.459 469.223C614.901 468.151 615.014 466.971 614.785 465.833C614.556 464.696 613.994 463.652 613.172 462.835V462.835ZM606.565 460.889C606.557 460.34 606.726 459.804 607.048 459.361C607.37 458.917 607.827 458.59 608.35 458.428C608.719 458.32 609.108 458.3 609.486 458.37C609.864 458.439 610.221 458.597 610.527 458.83C610.836 459.062 611.087 459.361 611.262 459.705C611.437 460.048 611.531 460.428 611.536 460.814V461.684C610.758 461.32 609.91 461.132 609.051 461.132C608.192 461.132 607.343 461.32 606.565 461.684V460.889ZM609.051 471.181C608.213 471.187 607.393 470.943 606.694 470.481C605.996 470.018 605.45 469.359 605.127 468.585C604.803 467.812 604.717 466.96 604.878 466.137C605.039 465.314 605.441 464.558 606.033 463.965C606.624 463.371 607.378 462.967 608.2 462.804C609.021 462.64 609.872 462.725 610.645 463.047C611.419 463.369 612.079 463.914 612.542 464.613C613.005 465.311 613.25 466.132 613.247 466.97C613.253 467.526 613.149 468.077 612.94 468.591C612.732 469.106 612.424 469.574 612.034 469.968C611.643 470.363 611.179 470.675 610.667 470.888C610.154 471.101 609.605 471.21 609.051 471.209V471.181Z" fill="#2D5967"/>
<path id="Vector_82" d="M609.051 465.174H608.902C608.633 465.207 608.383 465.328 608.189 465.517C607.995 465.706 607.868 465.954 607.827 466.222C607.788 466.475 607.83 466.733 607.945 466.962C608.061 467.19 608.245 467.376 608.472 467.494L608.229 469.085H609.874L609.649 467.494C609.843 467.385 610.004 467.226 610.115 467.033C610.227 466.841 610.285 466.622 610.285 466.4C610.282 466.074 610.151 465.762 609.92 465.532C609.689 465.303 609.377 465.174 609.051 465.174V465.174Z" fill="#2D5967"/>
</g>
</g>
<g id="Icon Text Label_8">
<text id="IconLabel_13" fill="black" xml:space="preserve" style="white-space: pre" font-family="Oracle Sans" font-size="16" letter-spacing="0em"><tspan x="583.969" y="509.816">Private</tspan></text>
<text id="IconLabel_14" fill="black" xml:space="preserve" style="white-space: pre" font-family="Oracle Sans" font-size="16" letter-spacing="0em"><tspan x="576.016" y="525.816">Endpoint</tspan></text>
</g>
</g>
<g id="Autonomous DB_2">
<g id="Autonomous-Database_2">
<g id="Group 7_2">
<path id="Vector_83" d="M765.391 491.449C761.548 491.449 757.829 491.078 755.102 490.458C751.507 489.59 749.647 488.226 749.647 486.367V468.392H738.118L738.242 466.532C738.614 461.945 741.218 457.978 745.309 455.871C746.176 455.375 746.796 454.631 747.044 453.64C747.664 450.416 749.895 447.689 752.871 446.449C754.11 445.954 755.474 445.582 756.961 445.582C757.209 445.582 757.581 445.582 757.953 445.582C758.077 445.582 758.201 445.582 758.325 445.582C759.193 445.582 760.061 445.21 760.556 444.59C762.664 442.235 765.515 440.871 768.614 440.623H769.854C774.441 440.747 778.532 443.35 780.515 447.441C780.639 447.689 780.887 448.061 781.135 448.309C781.383 448.681 781.879 449.301 782.127 449.797C785.846 449.921 789.193 451.904 791.176 455.003V455.127L791.548 456.987L796.631 462.069L794.152 464.549L792.54 462.937C791.548 468.144 786.961 471.987 781.507 471.987C781.383 471.987 781.135 471.987 781.011 471.987V486.243C781.011 488.102 779.275 489.466 775.556 490.334C772.953 491.078 769.234 491.449 765.391 491.449Z" fill="white"/>
<path id="Vector_84" d="M769.36 441.244C773.822 441.244 777.789 443.723 779.773 447.69C780.021 448.062 780.145 448.434 780.517 448.682C780.764 449.054 781.26 449.798 781.632 450.294C785.351 450.294 788.698 452.277 790.558 455.252L791.054 457.236L795.888 462.071L794.277 463.682L792.169 461.575C791.798 467.029 787.211 471.368 781.632 471.368C781.26 471.368 780.888 471.368 780.517 471.244V486.244C780.517 487.732 778.905 488.971 775.558 489.715C772.831 490.335 769.236 490.707 765.393 490.707C761.55 490.707 757.955 490.335 755.227 489.715C751.88 488.971 750.269 487.732 750.269 486.244V467.649H738.864L738.988 466.409C739.36 462.071 741.839 458.228 745.682 456.244C746.674 455.872 747.417 454.88 747.665 453.765C748.285 450.79 750.269 448.186 753.12 446.947C754.36 446.451 755.599 446.203 756.963 446.203C757.211 446.203 757.583 446.203 757.831 446.203C757.955 446.203 758.079 446.203 758.202 446.203C759.194 446.203 760.186 445.831 760.93 445.087C763.037 442.732 766.012 441.492 769.112 441.368V442.484V441.368C769.112 441.244 769.236 441.244 769.36 441.244ZM770.227 440.004H768.988H767.748V440.128C764.773 440.5 761.921 441.864 759.814 444.095C759.442 444.715 758.822 444.963 758.079 444.963C757.955 444.963 757.955 444.963 757.831 444.963C757.459 444.963 757.211 444.963 756.839 444.963C755.351 444.963 753.864 445.335 752.5 445.831C749.277 447.194 747.045 450.046 746.302 453.517C746.178 454.261 745.682 455.004 744.938 455.376C740.723 457.608 737.996 461.823 737.624 466.533L737.5 467.773V469.013H738.864H749.029V486.368C749.029 489.591 753.492 490.707 754.979 491.079C757.831 491.699 761.55 492.071 765.393 492.071C769.36 492.071 772.955 491.699 775.806 491.079C777.293 490.707 781.756 489.715 781.756 486.368V472.732C786.963 472.732 791.55 469.137 792.913 464.178L793.285 464.55L794.153 465.418L795.021 464.55L796.632 462.938L797.5 462.071L796.632 461.203L792.045 456.616L791.674 455.004V454.756L791.55 454.632C789.566 451.409 786.095 449.302 782.252 449.054C782.004 448.682 781.632 448.186 781.508 447.938V447.814L781.384 447.69C781.26 447.69 781.012 447.442 780.888 447.194C778.905 442.98 774.814 440.376 770.227 440.004Z" fill="white"/>
<path id="Vector_85" d="M741.343 465.541H748.533V467.773H738.863L738.987 466.533C739.359 462.194 741.839 458.351 745.682 456.368C746.673 455.872 747.417 454.88 747.665 453.764C748.285 450.789 750.268 448.186 753.12 446.946C754.483 446.202 756.095 445.954 757.706 446.202C758.946 446.326 760.062 445.954 760.806 445.087C762.913 442.731 765.888 441.492 768.987 441.368C769.111 441.368 769.235 441.368 769.235 441.368C773.698 441.368 777.665 443.847 779.649 447.814C779.897 448.186 780.02 448.558 780.392 448.806C779.525 448.93 778.657 449.054 777.913 449.302C777.789 449.178 777.789 449.054 777.665 448.806C776.054 445.583 772.83 443.599 769.235 443.599C769.111 443.599 769.111 443.599 768.987 443.599C766.508 443.599 764.029 444.715 762.293 446.574C761.054 447.938 759.194 448.682 757.335 448.434C756.095 448.31 754.979 448.558 753.739 449.054C751.632 450.045 750.02 451.905 749.649 454.26C749.277 456.12 748.161 457.607 746.425 458.475C743.822 459.839 741.963 462.442 741.343 465.541ZM780.516 454.88H782.748L785.847 465.913H783.368L782.996 463.558H780.268L779.649 465.913H777.293L780.516 454.88ZM780.64 461.698H782.5L781.508 457.607L780.64 461.698ZM771.095 460.211L768.987 458.103L767.376 459.715L772.211 464.549L777.045 459.715L775.434 458.103L773.45 460.087C773.822 455.872 777.417 452.649 781.632 452.649C784.731 452.649 787.458 454.384 788.946 456.988L790.558 455.376C788.698 452.401 785.351 450.417 781.632 450.417C776.054 450.417 771.467 454.756 771.095 460.211ZM795.888 462.07L791.054 457.359L786.219 462.194L787.83 463.806L789.814 461.822C789.442 466.037 785.847 469.26 781.632 469.26C778.533 469.26 775.806 467.525 774.318 464.921L772.706 466.533C774.566 469.508 777.913 471.492 781.632 471.492C787.211 471.492 791.797 467.153 792.169 461.698L794.277 463.806L795.888 462.07ZM778.161 472.979C778.905 473.227 779.649 473.351 780.392 473.475V486.492C780.392 487.979 778.781 489.219 775.434 489.963C772.706 490.583 769.111 490.954 765.268 490.954C761.425 490.954 757.83 490.583 755.103 489.963C751.756 489.219 750.144 487.979 750.144 486.492V462.07C750.144 460.583 751.756 459.467 755.103 458.723C757.706 458.103 761.301 457.855 765.268 457.855C765.392 457.855 765.64 457.855 765.888 457.855V460.087C765.764 460.087 765.516 460.087 765.268 460.087C757.087 460.087 752.996 461.45 752.5 462.194V462.318C752.996 463.186 757.706 464.549 765.268 464.549C766.88 464.549 768.244 464.549 769.607 464.426C769.855 465.169 770.103 465.913 770.475 466.657C768.863 466.781 767.128 466.905 765.268 466.905C761.425 466.905 757.83 466.533 755.103 465.913C753.987 465.665 753.12 465.417 752.376 465.045V470.376C752.872 471.244 757.582 472.607 765.144 472.607C769.359 472.607 772.706 472.111 774.938 471.616C776.054 472.111 777.045 472.607 778.161 472.979C777.417 473.351 776.549 473.599 775.434 473.847C772.706 474.467 769.111 474.839 765.268 474.839C761.425 474.839 757.83 474.467 755.103 473.847C753.987 473.599 753.12 473.351 752.376 472.979V478.31C752.872 479.178 757.582 480.541 765.144 480.541C772.706 480.541 777.417 479.054 777.913 478.31L778.161 472.979ZM778.161 481.037C777.417 481.409 776.549 481.657 775.434 481.905C772.706 482.525 769.111 482.897 765.268 482.897C761.425 482.897 757.83 482.525 755.103 481.905C753.987 481.657 753.12 481.409 752.376 481.037V486.368C752.872 487.111 757.087 488.599 765.144 488.599C773.202 488.599 777.541 486.988 777.913 486.368L778.161 481.037Z" fill="#2D5967"/>
</g>
</g>
<g id="Icon Text Label_9">
<text id="IconLabel_15" fill="black" xml:space="preserve" style="white-space: pre" font-family="Oracle Sans" font-size="16" letter-spacing="0em"><tspan x="695.43" y="509.816">Oracle Autonomous</tspan></text>
<text id="IconLabel_16" fill="black" xml:space="preserve" style="white-space: pre" font-family="Oracle Sans" font-size="16" letter-spacing="0em"><tspan x="702.008" y="525.816">Database Standby</tspan></text>
</g>
</g>
</g>
<path id="Vector 1713" d="M766.293 400.707C766.683 401.098 767.317 401.098 767.707 400.707L774.071 394.343C774.462 393.953 774.462 393.319 774.071 392.929C773.681 392.538 773.047 392.538 772.657 392.929L767 398.586L761.343 392.929C760.953 392.538 760.319 392.538 759.929 392.929C759.538 393.319 759.538 393.953 759.929 394.343L766.293 400.707ZM766 280L766 400L768 400L768 280L766 280Z" fill="#312D2A"/>
<g id="Connector Line Label_3">
<rect width="74" height="30" transform="translate(915 187)" fill="white"/>
<text id="Line Label_3" fill="#312D2A" xml:space="preserve" style="white-space: pre" font-family="Oracle Sans" font-size="14" letter-spacing="0em"><tspan x="919.297" y="199.089">Automatic&#10;</tspan><tspan x="928.977" y="215.089">backup</tspan></text>
</g>
<g id="Connector Line Label_4">
<rect width="166" height="14" transform="translate(684 305)" fill="white"/>
<text id="Line Label_4" fill="#312D2A" xml:space="preserve" style="white-space: pre" font-family="Oracle Sans" font-size="14" letter-spacing="0em"><tspan x="688.325" y="317.089">Autonomous Data Guard</tspan></text>
</g>
<path id="Vector 1715" d="M268 223V222H267V223H268ZM544.707 223.707C545.098 223.317 545.098 222.683 544.707 222.293L538.343 215.929C537.953 215.538 537.319 215.538 536.929 215.929C536.538 216.319 536.538 216.953 536.929 217.343L542.586 223L536.929 228.657C536.538 229.047 536.538 229.681 536.929 230.071C537.319 230.462 537.953 230.462 538.343 230.071L544.707 223.707ZM269 276V223H267V276H269ZM268 224H544V222H268V224Z" fill="#312D2A"/>
<path id="Vector 1716" d="M280 432V433H279V432H280ZM544.707 431.293C545.098 431.683 545.098 432.317 544.707 432.707L538.343 439.071C537.953 439.462 537.319 439.462 536.929 439.071C536.538 438.681 536.538 438.047 536.929 437.657L542.586 432L536.929 426.343C536.538 425.953 536.538 425.319 536.929 424.929C537.319 424.538 537.953 424.538 538.343 424.929L544.707 431.293ZM281 369V370.969H279V369H281ZM281 374.906V378.844H279V374.906H281ZM281 382.781V386.719H279V382.781H281ZM281 390.656V394.594H279V390.656H281ZM281 398.531V402.469H279V398.531H281ZM281 406.406V410.344H279V406.406H281ZM281 414.281V418.219H279V414.281H281ZM281 422.156V426.094H279V422.156H281ZM281 430.031V432H279V430.031H281ZM280 431H282V433H280V431ZM286 431H290V433H286V431ZM294 431H298V433H294V431ZM302 431H306V433H302V431ZM310 431H314V433H310V431ZM318 431H322V433H318V431ZM326 431H330V433H326V431ZM334 431H338V433H334V431ZM342 431H346V433H342V431ZM350 431H354V433H350V431ZM358 431H362V433H358V431ZM366 431H370V433H366V431ZM374 431H378V433H374V431ZM382 431H386V433H382V431ZM390 431H394V433H390V431ZM398 431H402V433H398V431ZM406 431H410V433H406V431ZM414 431H418V433H414V431ZM422 431H426V433H422V431ZM430 431H434V433H430V431ZM438 431H442V433H438V431ZM446 431H450V433H446V431ZM454 431H458V433H454V431ZM462 431H466V433H462V431ZM470 431H474V433H470V431ZM478 431H482V433H478V431ZM486 431H490V433H486V431ZM494 431H498V433H494V431ZM502 431H506V433H502V431ZM510 431H514V433H510V431ZM518 431H522V433H518V431ZM526 431H530V433H526V431ZM534 431H538V433H534V431ZM542 431H544V433H542V431Z" fill="#312D2A"/>
<path id="Vector 1717" d="M100.293 311.293C99.9024 311.683 99.9024 312.317 100.293 312.707L106.657 319.071C107.047 319.462 107.681 319.462 108.071 319.071C108.462 318.681 108.462 318.047 108.071 317.657L102.414 312L108.071 306.343C108.462 305.953 108.462 305.319 108.071 304.929C107.681 304.538 107.047 304.538 106.657 304.929L100.293 311.293ZM234 311L101 311L101 313L234 313L234 311Z" fill="#312D2A"/>
<path id="Vector 1718" d="M234.707 482.707C235.098 482.317 235.098 481.683 234.707 481.293L228.343 474.929C227.953 474.538 227.319 474.538 226.929 474.929C226.538 475.319 226.538 475.953 226.929 476.343L232.586 482L226.929 487.657C226.538 488.047 226.538 488.681 226.929 489.071C227.319 489.462 227.953 489.462 228.343 489.071L234.707 482.707ZM234 481L101 481L101 483L234 483L234 481Z" fill="#312D2A"/>
<path id="Vector 1719" d="M256.707 369.293C256.317 368.902 255.683 368.902 255.293 369.293L248.929 375.657C248.538 376.047 248.538 376.681 248.929 377.071C249.319 377.462 249.953 377.462 250.343 377.071L256 371.414L261.657 377.071C262.047 377.462 262.681 377.462 263.071 377.071C263.462 376.681 263.462 376.047 263.071 375.657L256.707 369.293ZM255 370L255 460L257 460L257 370L255 370Z" fill="#312D2A"/>
</g>
<defs>
<linearGradient id="paint0_linear_16122_355283" x1="368.488" y1="104.129" x2="372.128" y2="107.759" gradientUnits="userSpaceOnUse">
<stop stop-color="#86D633"/>
<stop offset="1" stop-color="#5E9624"/>
</linearGradient>
<linearGradient id="paint1_linear_16122_355283" x1="358.479" y1="102.342" x2="362.093" y2="105.978" gradientUnits="userSpaceOnUse">
<stop stop-color="#86D633"/>
<stop offset="1" stop-color="#5E9624"/>
</linearGradient>
<linearGradient id="paint2_linear_16122_355283" x1="350.282" y1="102.335" x2="353.896" y2="105.971" gradientUnits="userSpaceOnUse">
<stop stop-color="#86D633"/>
<stop offset="1" stop-color="#5E9624"/>
</linearGradient>
<linearGradient id="paint3_linear_16122_355283" x1="65.3057" y1="265.356" x2="65.3057" y2="327.824" gradientUnits="userSpaceOnUse">
<stop stop-color="#5EA0EF"/>
<stop offset="1" stop-color="#0078D4"/>
</linearGradient>
<linearGradient id="paint4_linear_16122_355283" x1="79.7242" y1="310.147" x2="79.7242" y2="318.219" gradientUnits="userSpaceOnUse">
<stop stop-color="#333132"/>
<stop offset="1" stop-color="#5B5A5C"/>
</linearGradient>
<linearGradient id="paint5_linear_16122_355283" x1="67.9337" y1="496.585" x2="67.9337" y2="456.537" gradientUnits="userSpaceOnUse">
<stop stop-color="#0078D4"/>
<stop offset="0.82" stop-color="#5EA0EF"/>
</linearGradient>
<linearGradient id="paint6_linear_16122_355283" x1="67.9337" y1="512.037" x2="67.9337" y2="496.585" gradientUnits="userSpaceOnUse">
<stop offset="0.15" stop-color="#CCCCCC"/>
<stop offset="1" stop-color="#707070"/>
</linearGradient>
<linearGradient id="paint7_linear_16122_355283" x1="268.5" y1="518.166" x2="268.5" y2="448.6" gradientUnits="userSpaceOnUse">
<stop stop-color="#5E9624"/>
<stop offset="0.02" stop-color="#5F9724"/>
<stop offset="1" stop-color="#76BC2D"/>
</linearGradient>
<linearGradient id="paint8_linear_16122_355283" x1="248.256" y1="287.096" x2="267.272" y2="287.096" gradientUnits="userSpaceOnUse">
<stop stop-color="#B77AF4"/>
<stop offset="1" stop-color="#773ADC"/>
</linearGradient>
<linearGradient id="paint9_linear_16122_355283" x1="268.799" y1="287.262" x2="287.781" y2="287.262" gradientUnits="userSpaceOnUse">
<stop stop-color="#B77AF4"/>
<stop offset="1" stop-color="#773ADC"/>
</linearGradient>
<linearGradient id="paint10_linear_16122_355283" x1="238.533" y1="304.95" x2="257.515" y2="304.95" gradientUnits="userSpaceOnUse">
<stop stop-color="#B77AF4"/>
<stop offset="1" stop-color="#773ADC"/>
</linearGradient>
<linearGradient id="paint11_linear_16122_355283" x1="259.009" y1="304.817" x2="277.991" y2="304.817" gradientUnits="userSpaceOnUse">
<stop stop-color="#B77AF4"/>
<stop offset="1" stop-color="#773ADC"/>
</linearGradient>
<linearGradient id="paint12_linear_16122_355283" x1="279.485" y1="304.983" x2="298.5" y2="304.983" gradientUnits="userSpaceOnUse">
<stop stop-color="#B77AF4"/>
<stop offset="1" stop-color="#773ADC"/>
</linearGradient>
<linearGradient id="paint13_linear_16122_355283" x1="248.024" y1="323.003" x2="267.04" y2="323.003" gradientUnits="userSpaceOnUse">
<stop stop-color="#B77AF4"/>
<stop offset="1" stop-color="#773ADC"/>
</linearGradient>
<linearGradient id="paint14_linear_16122_355283" x1="268.533" y1="323.136" x2="287.548" y2="323.136" gradientUnits="userSpaceOnUse">
<stop stop-color="#B77AF4"/>
<stop offset="1" stop-color="#773ADC"/>
</linearGradient>
<linearGradient id="paint15_linear_16122_355283" x1="848.488" y1="103.129" x2="852.128" y2="106.759" gradientUnits="userSpaceOnUse">
<stop stop-color="#86D633"/>
<stop offset="1" stop-color="#5E9624"/>
</linearGradient>
<linearGradient id="paint16_linear_16122_355283" x1="838.479" y1="101.342" x2="842.093" y2="104.978" gradientUnits="userSpaceOnUse">
<stop stop-color="#86D633"/>
<stop offset="1" stop-color="#5E9624"/>
</linearGradient>
<linearGradient id="paint17_linear_16122_355283" x1="830.282" y1="101.335" x2="833.896" y2="104.971" gradientUnits="userSpaceOnUse">
<stop stop-color="#86D633"/>
<stop offset="1" stop-color="#5E9624"/>
</linearGradient>
<linearGradient id="paint18_linear_16122_355283" x1="848.488" y1="367.129" x2="852.128" y2="370.759" gradientUnits="userSpaceOnUse">
<stop stop-color="#86D633"/>
<stop offset="1" stop-color="#5E9624"/>
</linearGradient>
<linearGradient id="paint19_linear_16122_355283" x1="838.479" y1="365.342" x2="842.093" y2="368.978" gradientUnits="userSpaceOnUse">
<stop stop-color="#86D633"/>
<stop offset="1" stop-color="#5E9624"/>
</linearGradient>
<linearGradient id="paint20_linear_16122_355283" x1="830.282" y1="365.335" x2="833.896" y2="368.971" gradientUnits="userSpaceOnUse">
<stop stop-color="#86D633"/>
<stop offset="1" stop-color="#5E9624"/>
</linearGradient>
<clipPath id="clip0_16122_355283">
<rect width="1168" height="576" fill="white"/>
</clipPath>
</defs>
</svg>
