<svg width="968" height="544" viewBox="0 0 968 544" fill="none" xmlns="http://www.w3.org/2000/svg">
<g id="forms-apps-to-apex" clip-path="url(#clip0_12250_300411)">
<rect width="968" height="544" fill="white"/>
<g id="OCI Region">
<rect x="0.5" y="0.5" width="303" height="543" rx="3.5" fill="#F5F4F2"/>
<text id="OCI Region_2" fill="#312D2A" xml:space="preserve" style="white-space: pre" font-family="Oracle Sans" font-size="16" font-weight="bold" letter-spacing="0em"><tspan x="55.3828" y="21.816">On-Premises Data Center</tspan></text>
<rect x="0.5" y="0.5" width="303" height="543" rx="3.5" stroke="#9E9892"/>
</g>
<g id="OCI Region_3">
<rect x="432.5" y="0.5" width="535" height="543" rx="3.5" fill="#F5F4F2"/>
<text id="OCI Region_4" fill="#312D2A" xml:space="preserve" style="white-space: pre" font-family="Oracle Sans" font-size="16" font-weight="bold" letter-spacing="0em"><tspan x="440" y="21.816">OCI Region</tspan></text>
<rect x="432.5" y="0.5" width="535" height="543" rx="3.5" stroke="#9E9892"/>
</g>
<g id="CPE">
<g id="OCI-Customer-Premises-Equipment-CPE">
<path id="Vector" d="M102.186 117.714H49.8143C48.1022 117.714 46.7143 119.102 46.7143 120.814V173.186C46.7143 174.898 48.1022 176.286 49.8143 176.286H102.186C103.898 176.286 105.286 174.898 105.286 173.186V120.814C105.286 119.102 103.898 117.714 102.186 117.714Z" fill="white"/>
<path id="Vector_2" d="M102.186 118.429C102.818 118.429 103.425 118.68 103.873 119.127C104.32 119.575 104.571 120.182 104.571 120.814V173.186C104.571 173.818 104.32 174.425 103.873 174.873C103.425 175.32 102.818 175.571 102.186 175.571H49.8143C49.1816 175.571 48.5747 175.32 48.1273 174.873C47.6799 174.425 47.4286 173.818 47.4286 173.186V120.814C47.4286 120.182 47.6799 119.575 48.1273 119.127C48.5747 118.68 49.1816 118.429 49.8143 118.429H102.186ZM102.186 117H49.8143C48.8038 117.004 47.8358 117.407 47.1213 118.121C46.4068 118.836 46.0038 119.804 46 120.814V173.186C46.0038 174.196 46.4068 175.164 47.1213 175.879C47.8358 176.593 48.8038 176.996 49.8143 177H102.186C103.196 176.996 104.164 176.593 104.879 175.879C105.593 175.164 105.996 174.196 106 173.186V120.814C105.996 119.804 105.593 118.836 104.879 118.121C104.164 117.407 103.196 117.004 102.186 117V117Z" fill="white"/>
<path id="Vector_3" d="M102.186 118.429H49.8143C49.1816 118.429 48.5748 118.68 48.1273 119.127C47.6799 119.575 47.4286 120.182 47.4286 120.814V173.186C47.4286 173.818 47.6799 174.425 48.1273 174.873C48.5748 175.32 49.1816 175.571 49.8143 175.571H102.186C102.818 175.571 103.425 175.32 103.873 174.873C104.32 174.425 104.571 173.818 104.571 173.186V120.814C104.571 120.182 104.32 119.575 103.873 119.127C103.425 118.68 102.818 118.429 102.186 118.429ZM102.457 173.186C102.454 173.257 102.424 173.324 102.374 173.374C102.324 173.424 102.257 173.454 102.186 173.457H49.8143C49.7434 173.454 49.6764 173.424 49.6262 173.374C49.576 173.324 49.5463 173.257 49.5429 173.186V120.814C49.5463 120.743 49.576 120.676 49.6262 120.626C49.6764 120.576 49.7434 120.546 49.8143 120.543H102.186C102.257 120.546 102.324 120.576 102.374 120.626C102.424 120.676 102.454 120.743 102.457 120.814V173.186Z" fill="#2D5967"/>
<path id="Vector_4" d="M76 122.129C71.0809 122.129 66.2723 123.587 62.1822 126.32C58.0921 129.053 54.9043 132.938 53.0218 137.482C51.1394 142.027 50.6468 147.028 51.6065 151.852C52.5662 156.677 54.935 161.109 58.4133 164.587C61.8916 168.065 66.3233 170.434 71.1479 171.394C75.9724 172.353 80.9733 171.861 85.5179 169.978C90.0626 168.096 93.947 164.908 96.6799 160.818C99.4128 156.728 100.871 151.919 100.871 147C100.864 140.406 98.2411 134.084 93.5784 129.422C88.9158 124.759 82.594 122.136 76 122.129ZM76 169.757C71.4991 169.757 67.0992 168.423 63.3568 165.922C59.6145 163.421 56.6976 159.867 54.9752 155.709C53.2527 151.551 52.8021 146.975 53.6802 142.56C54.5583 138.146 56.7257 134.091 59.9083 130.908C63.091 127.726 67.1459 125.558 71.5603 124.68C75.9748 123.802 80.5505 124.253 84.7088 125.975C88.8671 127.698 92.4213 130.615 94.9219 134.357C97.4225 138.099 98.7572 142.499 98.7572 147C98.7309 153.028 96.3248 158.801 92.0627 163.063C87.8006 167.325 82.0275 169.731 76 169.757Z" fill="#2D5967"/>
<path id="Vector_5" d="M77.0569 161.371V132.886L80.2855 136.114L81.7712 134.614L75.9998 128.843L70.2283 134.614L71.714 136.114L74.9426 132.886V161.371L71.714 158.157L70.2283 159.657L75.9998 165.429L81.7712 159.657L80.2855 158.157L77.0569 161.371Z" fill="#2D5967"/>
<path id="Vector_6" d="M84.4141 142.714L82.9284 141.229L77.1427 147L82.9284 152.771L84.4141 151.286L81.1998 148.057H94.2427V145.943H81.1998L84.4141 142.714Z" fill="#2D5967"/>
<path id="Vector_7" d="M69.0712 141.229L67.5855 142.714L70.7998 145.943H57.7427V148.057H70.7998L67.5855 151.286L69.0712 152.771L74.857 147L69.0712 141.229Z" fill="#2D5967"/>
</g>
<g id="Icon Text Label">
<text id="IconLabel" fill="black" xml:space="preserve" style="white-space: pre" font-family="Oracle Sans" font-size="16" letter-spacing="0em"><tspan x="61.4766" y="194.816">CPE</tspan></text>
</g>
</g>
<g id="Icon Master">
<g id="Database-Action-gear">
<g id="Group 309">
<path id="Vector_8" d="M85.1504 295.288L85.065 294.519C81.5802 294.911 78.0766 295.111 74.5699 295.117C71.9106 295.117 48.5455 294.904 48.5455 287.283V244.776C48.5455 236.941 71.9106 236.713 74.5699 236.713C77.2293 236.713 100.609 236.941 100.609 244.776V272.311L102.5 274.22L100.68 276.499L103.524 276.827V285.474L100.68 285.801L102.5 288.08L96.3849 294.206L94.4651 292.667L94.0669 292.796L93.7825 295.288H85.1504Z" fill="white"/>
<path id="Vector_9" d="M74.5688 237.425C83.3858 237.425 99.8964 238.963 99.8964 244.775V272.61L101.546 274.262L99.8964 276.342V277.125L102.869 277.453V284.846L99.8964 285.174V285.957L101.546 288.037L96.3411 293.251L94.6062 291.826L93.4116 292.197L93.1556 294.533H85.7749L85.6896 293.692C81.9996 294.146 78.2864 294.383 74.5688 294.405C65.8229 294.405 49.2554 292.98 49.2554 287.282V244.775C49.2554 238.963 65.8229 237.425 74.5688 237.425ZM74.5688 236C70.1034 236 47.8333 236.427 47.8333 244.775V287.282C47.8333 295.444 70.1034 295.829 74.5688 295.829C77.8654 295.823 81.1595 295.647 84.4381 295.302L84.5093 296H94.4639L94.6062 294.732L94.7199 293.749L95.4879 294.362L96.4833 295.16L97.3792 294.262L102.598 289.034L103.494 288.137L102.698 287.14L102.086 286.37L103.068 286.256L104.333 286.114V276.142L103.068 276L102.044 275.886L102.655 275.117L103.452 274.12L102.556 273.222L101.318 271.983V244.775C101.318 236.427 79.1195 236 74.5688 236Z" fill="white"/>
<path id="Vector_10" d="M99.4982 285.459L99.5694 285.274L99.4982 285.459Z" fill="#2D5967"/>
<path id="Vector_11" d="M78.5815 291.768C77.2732 291.768 75.9364 291.84 74.5712 291.84C68.9315 291.897 63.3031 291.324 57.7904 290.13C52.7704 288.976 51.647 287.637 51.647 287.281V276.483C56.4679 279.332 67.5318 280.216 74.2868 280.23V277.851C68.7437 277.902 63.2117 277.343 57.7904 276.184C52.7562 274.988 51.6328 273.634 51.6328 273.264V262.694C56.539 265.543 67.8447 266.441 74.557 266.441C77.259 266.441 80.7005 266.298 84.1704 265.956H84.341C89.4464 265.429 94.5944 264.432 97.4955 262.723V267.723L97.595 267.808L99.8846 270.102V245.344C99.8908 245.263 99.8908 245.182 99.8846 245.102C99.8916 244.988 99.8916 244.874 99.8846 244.76C99.8846 239.831 86.7586 237.637 74.557 237.637C62.3554 237.637 49.2578 239.831 49.2578 244.76C49.2508 244.874 49.2508 244.988 49.2578 245.102C49.2517 245.182 49.2517 245.263 49.2578 245.344V287.281C49.2578 292.808 65.8253 294.261 74.5712 294.261C76.4057 294.261 78.5673 294.261 80.8427 294.048L78.5815 291.768ZM74.5712 239.974C80.2125 239.896 85.8438 240.475 91.352 241.697C96.4004 242.936 97.5097 244.332 97.5097 244.76C97.5097 245.187 96.4004 246.569 91.352 247.808C85.8438 249.031 80.2125 249.609 74.5712 249.532C68.9299 249.61 63.2986 249.031 57.7904 247.808C52.7562 246.569 51.647 245.187 51.647 244.76C51.647 244.332 52.7562 242.936 57.7904 241.697C63.2986 240.474 68.9299 239.896 74.5712 239.974ZM91.352 262.395C85.8378 263.575 80.2093 264.134 74.5712 264.062C68.9331 264.134 63.3046 263.575 57.7904 262.395C52.7562 261.199 51.6328 259.845 51.6328 259.461V248.065C55.8991 250.714 65.5124 251.939 74.557 251.939C83.6015 251.939 93.1723 250.714 97.4955 248.065V259.461C97.5097 259.845 96.3862 261.199 91.352 262.395Z" fill="#2D5967"/>
<path id="Vector_12" d="M89.5577 274.589C88.2642 274.603 87.0038 275 85.935 275.73C84.8663 276.461 84.0371 277.491 83.5518 278.692C83.0665 279.893 82.9468 281.211 83.2077 282.48C83.4686 283.75 84.0986 284.913 85.0182 285.824C85.9378 286.736 87.106 287.354 88.3758 287.602C89.6455 287.849 90.96 287.715 92.1538 287.216C93.3476 286.717 94.3673 285.875 95.0846 284.797C95.8019 283.719 96.1846 282.452 96.1847 281.156C96.1847 280.288 96.0128 279.428 95.6789 278.627C95.345 277.825 94.8558 277.098 94.2395 276.487C93.6231 275.877 92.892 275.394 92.0884 275.069C91.2848 274.743 90.4246 274.58 89.5577 274.589ZM89.5577 285.33C88.7296 285.333 87.9193 285.089 87.2296 284.63C86.5398 284.171 86.0017 283.517 85.6835 282.751C85.3653 281.985 85.2813 281.142 85.4422 280.328C85.6031 279.515 86.0015 278.767 86.5871 278.181C87.1727 277.594 87.919 277.195 88.7313 277.034C89.5437 276.873 90.3855 276.957 91.1501 277.275C91.9146 277.594 92.5674 278.133 93.0258 278.824C93.4841 279.515 93.7273 280.327 93.7245 281.156C93.7245 282.263 93.2855 283.325 92.5041 284.108C91.7226 284.89 90.6628 285.33 89.5577 285.33Z" fill="#2D5967"/>
<path id="Vector_13" d="M99.5978 277.097L99.4982 276.84L101.546 274.262L96.3411 269.048L93.7671 271.1L93.5112 271L93.1556 267.724H85.7749L85.4194 271L85.1634 271.1L82.5894 269.048L77.3846 274.262L79.4324 276.84L79.3328 277.097L76.062 277.453V284.846L79.3328 285.202L79.4324 285.459L77.3846 288.037L82.5894 293.251L85.1634 291.199L85.4194 291.299L85.7749 294.575H93.1556L93.5112 291.299L93.7671 291.199L96.3411 293.251L101.546 288.037L99.4982 285.459L99.5978 285.202L102.869 284.846V277.453L99.5978 277.097ZM100.451 282.709L97.8059 282.994L97.5642 283.735C97.4237 284.199 97.2379 284.647 97.0095 285.074L96.654 285.772L98.3321 287.852L96.1847 290.131L94.1085 288.45L93.3405 288.707C92.9142 288.935 92.4665 289.121 92.0037 289.262L91.2785 289.504L90.9798 292.154H87.9081L87.6521 289.533L86.9126 289.291C86.4508 289.147 86.0033 288.961 85.5759 288.735L84.8079 288.379L82.7743 290.131L80.5416 287.852L82.2055 285.772L81.9637 285.074C81.7353 284.647 81.5496 284.199 81.4091 283.735L81.0962 283.009L78.4511 282.724V279.59L81.0962 279.305L81.338 278.564C81.481 278.101 81.6667 277.653 81.8926 277.225L82.2481 276.541L80.5416 274.462L82.7317 272.254L84.8079 273.92L85.4905 273.564C85.918 273.338 86.3655 273.152 86.8273 273.009L87.5668 272.766L87.8512 270.117H90.9656L91.2643 272.766L91.9895 273.009C92.4523 273.149 92.9 273.335 93.3263 273.564L94.0231 273.92L96.1847 272.239L98.3605 274.462L96.6824 276.556L97.038 277.239C97.2639 277.667 97.4496 278.116 97.5926 278.578L97.8344 279.319L100.479 279.604L100.451 282.709Z" fill="#2D5967"/>
</g>
</g>
<g id="Icon Text Label_2">
<text id="IconLabel_2" fill="black" xml:space="preserve" style="white-space: pre" font-family="Oracle Sans" font-size="16" letter-spacing="0em"><tspan x="17.2188" y="313.816">Oracle Database</tspan></text>
<text id="IconLabel_3" fill="black" xml:space="preserve" style="white-space: pre" font-family="Oracle Sans" font-size="16" letter-spacing="0em"><tspan x="11.4609" y="329.816">Enterprise Edition</tspan></text>
</g>
</g>
<g id="Oracle Reports">
<g id="Business-Reports-Pie-Chart-Document">
<g id="Group 128">
<path id="Vector_14" d="M58.2685 477.286L55.3812 475.843V418.714H87.8132L97.6471 428.872V475.843L94.7598 477.286H58.2685Z" fill="white"/>
<path id="Vector_15" d="M87.5418 419.429L96.9612 429.157V475.4L94.5885 476.571H58.4402L56.096 475.4V419.429H87.5418ZM88.1421 418H54.6667V476.286L55.4528 476.686L57.797 477.843L58.0971 478H94.9315L95.2317 477.843L97.5472 476.686L98.3334 476.286V428.586L97.9331 428.171L88.5423 418.429L88.1135 418H88.1421Z" fill="white"/>
<path id="Vector_16" d="M80.095 434.886H78.8514V448.586H92.2588L92.1873 447.386C91.9822 444.208 90.6536 441.206 88.4386 438.916C86.2235 436.627 83.2663 435.198 80.095 434.886ZM81.1813 446.315V437.743C83.3087 438.142 85.2661 439.173 86.7966 440.703C88.3271 442.232 89.3591 444.189 89.7574 446.315H81.1813Z" fill="#2D5967"/>
<path id="Vector_17" d="M77.3928 438.386H76.1779C73.5833 438.397 71.0504 439.177 68.8992 440.627C66.748 442.076 65.0751 444.131 64.092 446.531C63.109 448.931 62.8598 451.568 63.376 454.109C63.8922 456.65 65.1506 458.982 66.9923 460.808C68.8339 462.635 71.176 463.875 73.7225 464.372C76.2691 464.868 78.9057 464.599 81.2993 463.598C83.6928 462.597 85.7357 460.91 87.1699 458.749C88.604 456.588 89.3649 454.05 89.3565 451.457V450.329H77.3928V438.386ZM65.3434 451.457C65.3591 448.783 66.3581 446.207 68.1503 444.221C69.9425 442.235 72.4028 440.977 75.063 440.686V450.929L67.7447 458.243C66.1884 456.324 65.3405 453.928 65.3434 451.457ZM69.3884 459.886L76.1921 453.1L82.9673 459.886C81.045 461.437 78.6487 462.284 76.1779 462.284C73.707 462.284 71.3107 461.437 69.3884 459.886ZM84.6825 458.229L78.9651 452.629H86.9123C86.7127 454.668 85.9397 456.61 84.6825 458.229Z" fill="#2D5967"/>
<path id="Vector_18" d="M78.0798 425.257H61.9282V427.586H78.0798V425.257Z" fill="#2D5967"/>
<path id="Vector_19" d="M73.5917 429.343H61.9282V431.671H73.5917V429.343Z" fill="#2D5967"/>
<path id="Vector_20" d="M87.5414 419.429H56.0957V472.486H96.9323V429.158L87.5414 419.429ZM87.3413 422.572L93.8877 429.343H87.3127L87.3413 422.572ZM58.4255 470.158V421.758H84.9686V431.672H94.6024V470.158H58.4255Z" fill="#2D5967"/>
<path id="Vector_21" d="M56.0957 474.244V475.401L58.4398 476.572H94.5881L96.9323 475.401V474.244H56.0957Z" fill="#2D5967"/>
</g>
</g>
<g id="Icon Text Label_3">
<text id="IconLabel_4" fill="black" xml:space="preserve" style="white-space: pre" font-family="Oracle Sans" font-size="16" letter-spacing="0em"><tspan x="23.3125" y="495.816">Oracle Reports</tspan></text>
</g>
</g>
<g id="Oracle Reports_2">
<g id="Technology-Software">
<g id="Group 570">
<path id="Vector_22" d="M199.098 477.514L196.516 476.244V474.727L202.196 464.206V438.115C202.196 437.346 202.498 436.608 203.036 436.059C203.575 435.511 204.308 435.196 205.077 435.183H246.922C247.7 435.183 248.446 435.492 248.996 436.041C249.546 436.591 249.855 437.337 249.855 438.115V463.824L255.483 474.727V476.244L252.943 477.514H199.098Z" fill="white"/>
<path id="Vector_23" d="M246.923 435.699C247.563 435.699 248.178 435.954 248.631 436.407C249.084 436.86 249.339 437.474 249.339 438.115V463.927L254.967 474.851V475.883L252.799 476.998H199.181L197.033 475.966V474.933L202.661 464.34V438.115C202.661 437.474 202.916 436.86 203.369 436.407C203.822 435.954 204.437 435.699 205.077 435.699H246.923ZM246.923 434.667H205.077C204.163 434.669 203.288 435.034 202.641 435.68C201.995 436.326 201.631 437.201 201.628 438.115V464.082L196.124 474.407L196 474.593V476.565L196.568 476.854L198.726 477.886L198.943 478H253.067L253.284 477.886L255.432 476.854L256 476.565V474.603L255.897 474.376L250.372 463.69V438.115C250.369 437.201 250.005 436.326 249.359 435.68C248.712 435.034 247.837 434.669 246.923 434.667V434.667Z" fill="white"/>
<path id="Vector_24" d="M232.34 454.583L233.91 456.152C232.778 457.787 231.173 459.038 229.311 459.737C227.449 460.437 225.418 460.551 223.489 460.065C221.56 459.579 219.826 458.516 218.517 457.018C217.209 455.519 216.389 453.658 216.168 451.681L213.855 454.004L212.326 452.466L217.49 447.304L222.602 452.466L221.063 454.004L218.368 451.299C218.513 452.886 219.154 454.386 220.2 455.588C221.246 456.79 222.644 457.633 224.196 457.996C225.747 458.359 227.374 458.225 228.845 457.612C230.316 457 231.557 455.94 232.392 454.583H232.34ZM235.707 450.608C235.714 448.479 235.025 446.407 233.746 444.706C232.467 443.005 230.667 441.768 228.62 441.183C226.573 440.599 224.391 440.699 222.406 441.468C220.421 442.238 218.742 443.634 217.624 445.445L219.163 447.056C219.954 445.556 221.224 444.364 222.771 443.669C224.318 442.974 226.053 442.817 227.7 443.222C229.347 443.626 230.811 444.57 231.86 445.903C232.908 447.236 233.481 448.881 233.486 450.577L230.997 448.088L229.459 449.647L234.622 454.81L239.734 449.647L238.144 448.088L235.707 450.608ZM208.35 469.192H243.7V467.076H208.299L208.35 469.192ZM217.469 472.94H234.581V470.803H217.417L217.469 472.94ZM254.967 474.85V475.883L252.798 476.998H199.18L197.032 475.965V474.933L202.66 464.34V438.114C202.66 437.474 202.915 436.859 203.368 436.406C203.821 435.953 204.436 435.698 205.077 435.698H246.922C247.563 435.698 248.177 435.953 248.631 436.406C249.084 436.859 249.338 437.474 249.338 438.114V463.927L254.967 474.85ZM247.738 465.465H204.509L199.469 474.85H252.56L247.738 465.465ZM204.808 463.317H247.149V438.114C247.15 438.079 247.144 438.043 247.131 438.01C247.119 437.977 247.099 437.947 247.074 437.921C247.048 437.896 247.018 437.876 246.985 437.864C246.952 437.851 246.916 437.845 246.88 437.846H205.077C205.005 437.846 204.937 437.874 204.887 437.925C204.836 437.975 204.808 438.043 204.808 438.114V463.317Z" fill="#2D5967"/>
</g>
</g>
<g id="Icon Text Label_4">
<text id="IconLabel_5" fill="black" xml:space="preserve" style="white-space: pre" font-family="Oracle Sans" font-size="16" letter-spacing="0em"><tspan x="178.062" y="495.816">Oracle Forms</tspan></text>
</g>
</g>
<g id="APEX modernization">
<g id="Shard-Database">
<g id="Group">
<g id="Group_2">
<g id="Group_3">
<g id="Group_4">
<g id="Group_5">
<g id="Group_6">
<path id="Vector_25" d="M224.619 295.286V292.857H223.619C218.048 292.714 200.048 291.857 200.048 285.429V245C200.048 244.857 200.048 244.857 200.048 244.714C200.048 244.571 200.048 244.571 200.048 244.429C200.048 238.857 213.619 236.857 225.333 236.857C237.048 236.857 250.619 238.857 250.619 244.429C250.619 244.571 250.619 244.714 250.619 244.714C250.619 244.857 250.619 244.857 250.619 245V259.857H253.19V295.429H224.619V295.286Z" fill="white"/>
<path id="Vector_26" d="M225.333 237.429C237.19 237.429 249.905 239.571 249.905 244.286C249.905 244.429 249.905 244.571 249.905 244.571C249.905 244.714 249.905 244.714 249.905 244.857V260.429H252.476V294.571H225.333V292.143H223.619C214.905 292 200.762 290.429 200.762 285.429V245C200.762 244.857 200.762 244.857 200.762 244.714C200.762 244.571 200.762 244.429 200.762 244.286C200.762 239.571 213.476 237.429 225.333 237.429ZM225.333 236C220.905 236 199.333 236.429 199.333 244.286C199.333 244.429 199.333 244.571 199.333 244.714C199.333 244.857 199.333 244.857 199.333 245V285.571C199.333 292.429 216.19 293.571 223.476 293.714H223.762V294.571V296H225.19H252.333H253.762V294.571V260.429V259H252.333H251.19V245C251.19 244.857 251.19 244.857 251.19 244.714C251.19 244.571 251.19 244.571 251.19 244.429C251.19 236.429 229.619 236 225.333 236Z" fill="white"/>
</g>
</g>
<g id="Group_7">
<path id="Vector_27" d="M223.619 289.857C218.048 289.714 213.048 289.143 209.048 288.286C204.19 287.143 203.048 285.857 203.048 285.429V275C207.333 277.571 216.905 278.429 223.476 278.571V276.286C217.905 276.143 212.905 275.571 208.905 274.714C204.048 273.571 202.905 272.286 202.905 271.857V261.714C207.19 264.286 216.762 265.143 223.333 265.286V263C217.762 262.857 212.762 262.286 208.762 261.429C203.905 260.286 202.762 259 202.762 258.571V247.571C206.905 250.143 216.19 251.286 225.048 251.286C233.905 251.286 243.048 250.143 247.333 247.571V258.571V258.714H249.762V245C249.762 244.857 249.762 244.857 249.762 244.714C249.762 244.571 249.762 244.429 249.762 244.429C249.762 239.714 237.048 237.571 225.19 237.571C213.333 237.571 200.762 239.571 200.762 244.286C200.762 244.429 200.762 244.571 200.762 244.714C200.762 244.857 200.762 244.857 200.762 245V285.571C200.762 290.571 214.762 292.143 223.619 292.286V289.857ZM225.333 239.714C231.476 239.714 237.19 240.286 241.619 241.429C246.476 242.571 247.619 244 247.619 244.429C247.619 244.857 246.476 246.143 241.619 247.429C237.333 248.429 231.476 249.143 225.333 249.143C219.19 249.143 213.333 248.429 209.048 247.286C204.19 246.143 203.048 244.714 203.048 244.286C203.048 243.857 204.19 242.571 209.048 241.286C213.333 240.286 219.19 239.714 225.333 239.714Z" fill="#2D5967"/>
<path id="Vector_28" d="M225.333 260.429V294.571H252.476V260.429H225.333ZM227.619 262.857H237.762V292.286H227.619V262.857ZM250.048 292.286H239.905V262.857H250.048V292.286Z" fill="#2D5967"/>
<path id="Vector_29" d="M248.333 284.143H241.762V286.429H248.333V284.143Z" fill="#2D5967"/>
<path id="Vector_30" d="M248.333 288.143H241.762V290.429H248.333V288.143Z" fill="#2D5967"/>
<path id="Vector_31" d="M235.905 284.143H229.333V286.429H235.905V284.143Z" fill="#2D5967"/>
<path id="Vector_32" d="M248.333 276.429H241.762V278.714H248.333V276.429Z" fill="#2D5967"/>
<path id="Vector_33" d="M235.905 276.429H229.333V278.714H235.905V276.429Z" fill="#2D5967"/>
<path id="Vector_34" d="M248.333 272.286H241.762V274.571H248.333V272.286Z" fill="#2D5967"/>
<path id="Vector_35" d="M235.905 272.286H229.333V274.571H235.905V272.286Z" fill="#2D5967"/>
<path id="Vector_36" d="M248.333 268.286H241.762V270.571H248.333V268.286Z" fill="#2D5967"/>
<path id="Vector_37" d="M235.905 268.286H229.333V270.571H235.905V268.286Z" fill="#2D5967"/>
<path id="Vector_38" d="M248.333 264.286H241.762V266.571H248.333V264.286Z" fill="#2D5967"/>
<path id="Vector_39" d="M235.905 264.286H229.333V266.571H235.905V264.286Z" fill="#2D5967"/>
<path id="Vector_40" d="M235.905 288.143H229.333V290.429H235.905V288.143Z" fill="#2D5967"/>
<path id="Vector_41" d="M235.905 280.143H229.333V282.429H235.905V280.143Z" fill="#2D5967"/>
<path id="Vector_42" d="M248.333 280.143H241.762V282.429H248.333V280.143Z" fill="#2D5967"/>
</g>
</g>
</g>
</g>
</g>
</g>
<g id="Icon Text Label_5">
<text id="IconLabel_6" fill="black" xml:space="preserve" style="white-space: pre" font-family="Oracle Sans" font-size="16" letter-spacing="0em"><tspan x="206.156" y="313.816">APEX</tspan></text>
<text id="IconLabel_7" fill="black" xml:space="preserve" style="white-space: pre" font-family="Oracle Sans" font-size="16" letter-spacing="0em"><tspan x="173.266" y="329.816">Modernization</tspan></text>
</g>
</g>
<g id="Availability Domain">
<rect x="672.5" y="16.5" width="224" height="519" rx="3.5" fill="#E4E1DD"/>
<text id="Availability Domain_2" fill="#312D2A" xml:space="preserve" style="white-space: pre" font-family="Oracle Sans" font-size="16" font-weight="600" letter-spacing="0em"><tspan x="712.555" y="37.816">Availability Domain</tspan></text>
<rect x="672.5" y="16.5" width="224" height="519" rx="3.5" stroke="#9E9892"/>
</g>
<g id="VCN box_New">
<rect id="Rectangle 28" x="465" y="48.9346" width="494" height="478" stroke="#AA643B" stroke-width="2" stroke-dasharray="8 4"/>
<g id="Icon Master_2">
<g id="Virtual-Cloud-Network-VCN_red">
<g id="Group 39">
<path id="Vector_43" d="M938.416 71.51C937.16 71.5094 935.944 71.0768 934.969 70.2847C933.995 69.4927 933.323 68.3894 933.066 67.1601H926.595C926.408 68.0542 926 68.8872 925.408 69.583C924.816 70.2788 924.06 70.8153 923.208 71.1436C922.356 71.4719 921.435 71.5815 920.53 71.4623C919.625 71.3432 918.764 70.9992 918.026 70.4617C917.287 69.9241 916.695 69.2102 916.304 68.385C915.912 67.5598 915.733 66.6495 915.783 65.7374C915.833 64.8252 916.111 63.94 916.59 63.1627C917.07 62.3854 917.737 61.7407 918.529 61.2873L916.533 55.1409C916.336 55.1545 916.138 55.1545 915.941 55.1409C915.053 55.1429 914.179 54.9287 913.392 54.5167C912.606 54.1048 911.932 53.5075 911.428 52.7764C910.923 52.0453 910.605 51.2025 910.499 50.3207C910.394 49.4389 910.504 48.5446 910.821 47.715C911.138 46.8854 911.652 46.1456 912.319 45.5593C912.986 44.973 913.785 44.558 914.648 44.35C915.511 44.142 916.411 44.1473 917.272 44.3654C918.132 44.5836 918.927 45.008 919.586 45.6021L924.845 41.8724C924.527 41.1672 924.363 40.4026 924.362 39.629C924.362 38.1779 924.938 36.7862 925.964 35.7601C926.989 34.7339 928.38 34.1575 929.83 34.1575C931.281 34.1575 932.672 34.7339 933.697 35.7601C934.723 36.7862 935.299 38.1779 935.299 39.629C935.301 40.4019 935.139 41.1665 934.825 41.8724L940.093 45.6386C941.088 44.7254 942.388 44.218 943.738 44.216C945.188 44.216 946.579 44.7925 947.605 45.8186C948.63 46.8447 949.206 48.2364 949.206 49.6876C949.206 51.1387 948.63 52.5304 947.605 53.5565C946.579 54.5827 945.188 55.1591 943.738 55.1591C943.547 55.1591 943.346 55.1591 943.155 55.1591L941.15 61.3055C942.199 61.9049 943.02 62.8349 943.485 63.9503C943.95 65.0657 944.032 66.3037 943.72 67.4712C943.408 68.6387 942.718 69.6698 941.759 70.4038C940.799 71.1377 939.624 71.5331 938.416 71.5282V71.51Z" fill="white"/>
<path id="Vector_44" d="M929.84 34.5768C930.707 34.5788 931.56 34.8058 932.314 35.2355C933.068 35.6652 933.697 36.2831 934.142 37.0289C934.586 37.7746 934.829 38.6229 934.849 39.4909C934.868 40.3589 934.662 41.217 934.251 41.9817L940.093 46.2313C940.665 45.6322 941.377 45.1843 942.164 44.9276C942.951 44.671 943.79 44.6136 944.605 44.7605C945.42 44.9075 946.186 45.2542 946.835 45.7698C947.483 46.2854 947.994 46.9536 948.321 47.7149C948.648 48.4762 948.782 49.3067 948.71 50.1323C948.638 50.9579 948.363 51.7527 947.909 52.4458C947.455 53.139 946.836 53.7087 946.109 54.1042C945.381 54.4997 944.566 54.7086 943.738 54.7122C943.433 54.7164 943.128 54.692 942.827 54.6392L940.594 61.5243C941.375 61.9012 942.045 62.4744 942.538 63.1879C943.032 63.9015 943.332 64.7308 943.409 65.595C943.486 66.4592 943.338 67.3287 942.979 68.1185C942.62 68.9083 942.062 69.5913 941.36 70.101C940.659 70.6106 939.837 70.9294 938.975 71.0261C938.113 71.1228 937.241 70.9942 936.444 70.6529C935.647 70.3115 934.952 69.769 934.427 69.0785C933.902 68.388 933.565 67.573 933.449 66.7131H926.212C926.095 67.573 925.757 68.3878 925.231 69.0779C924.706 69.768 924.01 70.3098 923.212 70.6502C922.414 70.9907 921.542 71.1182 920.68 71.0203C919.818 70.9224 918.996 70.6024 918.295 70.0917C917.594 69.5809 917.037 68.8968 916.679 68.1063C916.322 67.3158 916.175 66.446 916.253 65.5817C916.332 64.7175 916.634 63.8884 917.128 63.1756C917.623 62.4628 918.294 61.8907 919.076 61.5151L916.843 54.6392C916.543 54.695 916.237 54.7225 915.932 54.7213C915.101 54.7198 914.284 54.5121 913.553 54.117C912.822 53.7218 912.201 53.1514 911.745 52.4569C911.289 51.7625 911.011 50.9656 910.939 50.1377C910.866 49.3098 910.999 48.4767 911.327 47.7131C911.655 46.9494 912.167 46.2791 912.817 45.7622C913.468 45.2452 914.236 44.8978 915.054 44.7509C915.871 44.6041 916.712 44.6624 917.502 44.9208C918.291 45.1792 919.005 45.6294 919.577 46.2313L925.419 41.9817C925.008 41.2164 924.802 40.3574 924.821 39.4886C924.841 38.6199 925.085 37.771 925.531 37.025C925.976 36.2789 926.607 35.6612 927.362 35.2321C928.118 34.803 928.971 34.5773 929.84 34.5768ZM929.84 33.6649C928.268 33.6649 926.76 34.2891 925.647 35.4005C924.535 36.5119 923.909 38.0195 923.906 39.5924C923.906 40.3061 924.035 41.0139 924.289 41.6807L919.632 45.0549C918.891 44.4636 918.019 44.0586 917.089 43.8738C916.16 43.6889 915.199 43.7297 914.288 43.9926C913.378 44.2555 912.543 44.7329 911.855 45.3849C911.166 46.0368 910.644 46.8443 910.332 47.7397C910.019 48.6351 909.926 49.5924 910.059 50.5315C910.192 51.4705 910.548 52.3638 911.098 53.1368C911.647 53.9098 912.373 54.5398 913.216 54.9741C914.059 55.4085 914.993 55.6345 915.941 55.6332H916.205L918.028 61.1048C917.23 61.633 916.572 62.3467 916.11 63.1849C915.648 64.023 915.396 64.9607 915.375 65.9177C915.354 66.8746 915.564 67.8225 915.989 68.6802C916.414 69.5378 917.04 70.2798 917.814 70.8426C918.588 71.4054 919.486 71.7724 920.433 71.912C921.379 72.0517 922.345 71.96 923.249 71.6447C924.152 71.3294 924.965 70.7999 925.62 70.1014C926.274 69.403 926.749 68.5565 927.005 67.6342H932.747C933.001 68.5597 933.476 69.4098 934.13 70.1117C934.784 70.8135 935.599 71.346 936.504 71.6637C937.41 71.9814 938.378 72.0747 939.328 71.9356C940.277 71.7966 941.178 71.4293 941.954 70.8653C942.73 70.3013 943.358 69.5574 943.784 68.6973C944.21 67.8373 944.421 66.8867 944.4 65.9271C944.378 64.9674 944.124 64.0274 943.66 63.1875C943.195 62.3477 942.534 61.633 941.733 61.1048L943.556 55.6332H943.738C944.544 55.6779 945.35 55.5578 946.108 55.2801C946.865 55.0024 947.558 54.5731 948.144 54.0183C948.73 53.4634 949.197 52.7948 949.516 52.0533C949.835 51.3118 950 50.513 950 49.7057C950 48.8984 949.835 48.0996 949.516 47.3581C949.197 46.6165 948.73 45.9479 948.144 45.3931C947.558 44.8383 946.865 44.4089 946.108 44.1313C945.35 43.8536 944.544 43.7334 943.738 43.7782C942.396 43.7748 941.093 44.2319 940.047 45.0731L935.399 41.699C935.646 41.0304 935.772 40.3234 935.773 39.6107C935.774 38.8303 935.621 38.0573 935.324 37.336C935.026 36.6147 934.589 35.9592 934.038 35.4069C933.487 34.8547 932.833 34.4166 932.112 34.1177C931.392 33.8188 930.619 33.6649 929.84 33.6649V33.6649Z" fill="white"/>
<path id="Vector_45" d="M943.739 44.6708C943.057 44.669 942.382 44.8064 941.755 45.0745C941.128 45.3426 940.563 45.7359 940.093 46.2302L934.251 41.9806C934.665 41.2152 934.874 40.3553 934.856 39.485C934.838 38.6148 934.595 37.7641 934.15 37.0162C933.705 36.2684 933.073 35.6491 932.317 35.2191C931.56 34.789 930.705 34.5629 929.835 34.5629C928.966 34.5629 928.111 34.789 927.354 35.2191C926.598 35.6491 925.966 36.2684 925.521 37.0162C925.076 37.7641 924.832 38.6148 924.815 39.485C924.797 40.3553 925.005 41.2152 925.42 41.9806L919.569 46.2302C918.996 45.6332 918.284 45.1874 917.497 44.9326C916.709 44.6778 915.871 44.6219 915.058 44.7699C914.244 44.9179 913.479 45.2652 912.832 45.7808C912.184 46.2964 911.675 46.9642 911.348 47.7248C911.022 48.4853 910.888 49.315 910.96 50.1396C911.032 50.9643 911.306 51.7584 911.759 52.4511C912.212 53.1437 912.83 53.7134 913.556 54.1094C914.283 54.5053 915.096 54.7152 915.923 54.7202C916.229 54.7214 916.534 54.694 916.835 54.6381L919.067 61.5049C918.286 61.8805 917.614 62.4526 917.12 63.1654C916.625 63.8782 916.323 64.7072 916.245 65.5715C916.166 66.4358 916.313 67.3056 916.671 68.0961C917.029 68.8866 917.585 69.5707 918.287 70.0815C918.988 70.5922 919.809 70.9122 920.671 71.0101C921.533 71.108 922.405 70.9805 923.203 70.64C924.001 70.2996 924.697 69.7578 925.223 69.0677C925.749 68.3776 926.087 67.5628 926.204 66.7029H933.44C933.556 67.5628 933.893 68.3778 934.418 69.0683C934.943 69.7588 935.638 70.3013 936.435 70.6427C937.233 70.984 938.105 71.1126 938.966 71.0159C939.828 70.9192 940.65 70.6004 941.352 70.0908C942.054 69.5811 942.611 68.8981 942.97 68.1083C943.329 67.3185 943.477 66.449 943.4 65.5848C943.323 64.7206 943.023 63.8912 942.53 63.1777C942.036 62.4642 941.366 61.891 940.585 61.5141L942.827 54.6381C943.128 54.694 943.433 54.7214 943.739 54.7202C944.422 54.7615 945.107 54.6624 945.751 54.429C946.395 54.1956 946.985 53.8328 947.483 53.363C947.982 52.8932 948.379 52.3263 948.651 51.6972C948.923 51.068 949.063 50.3899 949.063 49.7046C949.063 49.0193 948.923 48.3412 948.651 47.712C948.379 47.0829 947.982 46.516 947.483 46.0462C946.985 45.5764 946.395 45.2136 945.751 44.9802C945.107 44.7469 944.422 44.6477 943.739 44.689V44.6708ZM938.416 69.7123C937.695 69.7123 936.99 69.4983 936.391 69.0975C935.791 68.6967 935.324 68.127 935.048 67.4605C934.772 66.7939 934.7 66.0605 934.841 65.3529C934.981 64.6453 935.328 63.9954 935.838 63.4852C936.348 62.9751 936.998 62.6277 937.705 62.4869C938.412 62.3462 939.145 62.4184 939.811 62.6945C940.477 62.9706 941.047 63.4381 941.447 64.038C941.848 64.6379 942.062 65.3431 942.062 66.0646C942.062 67.032 941.678 67.9598 940.994 68.6439C940.31 69.328 939.383 69.7123 938.416 69.7123ZM926.213 65.3624C926.063 64.2301 925.529 63.1837 924.7 62.3986L927.434 58.5776C928.167 58.9667 928.983 59.1702 929.813 59.1704C930.639 59.1732 931.454 58.9695 932.182 58.5776L934.916 62.3986C934.085 63.1828 933.547 64.2291 933.394 65.3624H926.213ZM917.564 66.0372C917.564 65.3158 917.777 64.6105 918.178 64.0106C918.579 63.4108 919.148 62.9432 919.814 62.6672C920.48 62.3911 921.213 62.3188 921.92 62.4596C922.628 62.6003 923.277 62.9477 923.787 63.4579C924.297 63.968 924.644 64.618 924.785 65.3256C924.925 66.0332 924.853 66.7666 924.577 67.4331C924.301 68.0997 923.834 68.6693 923.235 69.0702C922.635 69.471 921.93 69.6849 921.209 69.6849C920.242 69.6849 919.315 69.3006 918.631 68.6165C917.948 67.9324 917.564 67.0046 917.564 66.0372ZM915.941 46.0204C916.662 46.0204 917.367 46.2344 917.967 46.6352C918.566 47.036 919.033 47.6057 919.309 48.2722C919.585 48.9387 919.658 49.6722 919.517 50.3798C919.376 51.0873 919.029 51.7373 918.519 52.2474C918.009 52.7576 917.36 53.105 916.653 53.2457C915.945 53.3865 915.212 53.3143 914.546 53.0382C913.88 52.7621 913.311 52.2945 912.91 51.6947C912.51 51.0948 912.296 50.3896 912.296 49.6681C912.296 48.7007 912.68 47.7729 913.364 47.0888C914.047 46.4047 914.974 46.0204 915.941 46.0204ZM926.158 39.6369C926.158 38.9155 926.372 38.2103 926.772 37.6104C927.173 37.0105 927.742 36.543 928.408 36.2669C929.075 35.9908 929.808 35.9186 930.515 36.0593C931.222 36.2001 931.871 36.5475 932.381 37.0576C932.891 37.5678 933.238 38.2177 933.379 38.9253C933.52 39.6329 933.447 40.3663 933.172 41.0329C932.896 41.6994 932.428 42.2691 931.829 42.6699C931.229 43.0707 930.525 43.2846 929.804 43.2846C929.321 43.2847 928.843 43.1888 928.398 43.0027C927.953 42.8165 927.549 42.5438 927.209 42.2002C926.87 41.8566 926.603 41.4491 926.422 41.0013C926.242 40.5534 926.152 40.0742 926.158 39.5913V39.6369ZM938.79 50.5801L934.37 51.9935C934.009 51.2392 933.468 50.5861 932.794 50.0927C932.119 49.5993 931.333 49.2811 930.505 49.1666V44.6069C931.634 44.4566 932.677 43.9221 933.458 43.0931L939.318 47.3427C938.922 48.0731 938.715 48.8916 938.717 49.7228C938.719 50.007 938.743 50.2906 938.79 50.5709V50.5801ZM933.513 54.1639C933.513 54.8854 933.299 55.5906 932.898 56.1905C932.498 56.7903 931.929 57.2579 931.262 57.534C930.596 57.8101 929.863 57.8823 929.156 57.7415C928.449 57.6008 927.799 57.2534 927.29 56.7432C926.78 56.2331 926.432 55.5831 926.292 54.8756C926.151 54.168 926.223 53.4345 926.499 52.768C926.775 52.1015 927.242 51.5318 927.842 51.131C928.441 50.7302 929.146 50.5162 929.867 50.5162C930.833 50.5162 931.758 50.8993 932.442 51.5814C933.125 52.2635 933.51 53.189 933.513 54.1548V54.1639ZM929.156 44.6069V49.1666C928.331 49.2793 927.546 49.5958 926.873 50.0878C926.2 50.5797 925.66 51.2315 925.301 51.9844L920.872 50.5709C920.929 50.2704 920.956 49.9649 920.954 49.659C920.946 48.8504 920.743 48.0556 920.362 47.3427L926.213 43.084C926.99 43.9145 928.03 44.4522 929.156 44.6069ZM920.462 51.9023L924.891 53.3158C924.835 53.6165 924.807 53.9219 924.809 54.2278C924.806 54.9109 924.943 55.5874 925.213 56.2151C925.483 56.8427 925.879 57.4079 926.377 57.8755L923.643 61.7056C922.915 61.3098 922.101 61.1029 921.273 61.1037C920.967 61.1018 920.662 61.1293 920.362 61.1858L918.12 54.2186C919.142 53.7342 919.971 52.9178 920.471 51.9023H920.462ZM938.416 61.0216C937.59 61.0229 936.776 61.2264 936.047 61.6144L933.312 57.8025C933.808 57.3336 934.203 56.7681 934.473 56.1408C934.743 55.5135 934.881 54.8376 934.88 54.1548C934.882 53.8489 934.855 53.5435 934.798 53.2429L939.182 51.8476C939.678 52.8789 940.506 53.7138 941.533 54.2186L939.3 61.0946C939.008 61.0435 938.712 61.0191 938.416 61.0216ZM940.093 49.6955C940.093 48.974 940.307 48.2688 940.707 47.6689C941.108 47.0691 941.677 46.6015 942.343 46.3254C943.01 46.0494 943.743 45.9771 944.45 46.1179C945.157 46.2586 945.807 46.606 946.316 47.1162C946.826 47.6263 947.173 48.2763 947.314 48.9839C947.455 49.6914 947.383 50.4249 947.107 51.0914C946.831 51.7579 946.363 52.3276 945.764 52.7284C945.164 53.1293 944.46 53.3432 943.739 53.3432C942.772 53.3432 941.844 52.9589 941.161 52.2748C940.477 51.5907 940.093 50.6629 940.093 49.6955Z" fill="#AA643B"/>
</g>
</g>
</g>
<text id="VCN" fill="#AE562C" xml:space="preserve" style="white-space: pre" font-family="Oracle Sans" font-size="16" font-weight="600" letter-spacing="0em"><tspan x="473" y="70.816">VCN</tspan></text>
</g>
<g id="Public Subnet_New">
<text id="Subnet" fill="#AE562C" xml:space="preserve" style="white-space: pre" font-family="Oracle Sans" font-size="16" font-weight="600" letter-spacing="0em"><tspan x="552" y="117.816">Public Subnet</tspan></text>
<g id="Icon Master_3">
<g id="Route-Table_red">
<g id="Group_8">
<g id="Group_9">
<path id="Vector_46" d="M942.524 76.4762H903.476V115.524H942.524V76.4762Z" fill="white"/>
<path id="Vector_47" d="M942.048 76.9524V115.048H903.952V76.9524H942.048ZM943 76H942.048H903.952H903V76.9524V115.048V116H903.952H942.048H943V115.048V76.9524V76Z" fill="white"/>
</g>
<g id="Group_10">
<path id="Vector_48" d="M903.952 76.9524V115.048H942.048V76.9524H903.952ZM940.619 89.1429H915.952V78.381H940.619V89.1429ZM905.381 102.857H914.524V113.714H905.381V102.857ZM914.524 78.381V89.2381H905.381V78.381H914.524ZM914.524 90.5714V101.429H905.381V90.5714H914.524ZM915.952 113.619V102.857H940.619V113.714L915.952 113.619ZM915.952 101.429V90.5714H940.619V101.429H915.952Z" fill="#AA643B"/>
<path id="Vector_49" d="M917.286 87.7143H918.905L919.762 86.0953L920.619 87.7143H922.143L920.714 85.1429L922.048 82.762H920.524L919.762 84.2858L918.905 82.762H917.381L918.81 85.1429L917.286 87.7143Z" fill="#AA643B"/>
<path id="Vector_50" d="M924.238 86.5715H922.905V87.7144H924.238V86.5715Z" fill="#AA643B"/>
<path id="Vector_51" d="M926.809 87.7143L927.667 86.0953L928.524 87.7143H930.048L928.524 85.1429L929.952 82.762H928.524L927.667 84.2858L926.809 82.762H925.286L926.714 85.1429L925.286 87.7143H926.809Z" fill="#AA643B"/>
<path id="Vector_52" d="M931.857 86.5715H930.524V87.7144H931.857V86.5715Z" fill="#AA643B"/>
<path id="Vector_53" d="M934.143 87.7143L935 86.0953L935.952 87.7143H937.381L935.952 85.1429L937.286 82.762H935.857L935 84.2858L934.143 82.762H932.714L934.048 85.1429L932.619 87.7143H934.143Z" fill="#AA643B"/>
<path id="Vector_54" d="M939.191 86.5715H937.857V87.7144H939.191V86.5715Z" fill="#AA643B"/>
<path id="Vector_55" d="M922.048 95.1429H920.524L919.762 96.6668L918.905 95.1429H917.381L918.81 97.5239L917.286 100.095H918.905L919.762 98.4763L920.619 100.095H922.143L920.714 97.5239L922.048 95.1429Z" fill="#AA643B"/>
<path id="Vector_56" d="M924.238 98.8572H922.905V100H924.238V98.8572Z" fill="#AA643B"/>
<path id="Vector_57" d="M929.952 95.1429H928.524L927.667 96.6668L926.809 95.1429H925.286L926.714 97.5239L925.286 100.095H926.809L927.667 98.4763L928.524 100.095H930.048L928.524 97.5239L929.952 95.1429Z" fill="#AA643B"/>
<path id="Vector_58" d="M931.857 98.8572H930.524V100H931.857V98.8572Z" fill="#AA643B"/>
<path id="Vector_59" d="M937.286 95.1429H935.857L935 96.6668L934.143 95.1429H932.714L934.048 97.5239L932.619 100.095H934.143L935 98.4763L935.952 100.095H937.381L935.952 97.5239L937.286 95.1429Z" fill="#AA643B"/>
<path id="Vector_60" d="M939.191 98.8572H937.857V100H939.191V98.8572Z" fill="#AA643B"/>
<path id="Vector_61" d="M922.048 107.333H920.524L919.762 108.762L918.905 107.333H917.381L918.81 109.619L917.286 112.19H918.905L919.762 110.571L920.619 112.19H922.143L920.714 109.714L922.048 107.333Z" fill="#AA643B"/>
<path id="Vector_62" d="M924.238 111.048H922.905V112.19H924.238V111.048Z" fill="#AA643B"/>
<path id="Vector_63" d="M929.952 107.333H928.524L927.667 108.762L926.809 107.333H925.286L926.714 109.619L925.286 112.19H926.809L927.667 110.571L928.524 112.19H930.048L928.524 109.714L929.952 107.333Z" fill="#AA643B"/>
<path id="Vector_64" d="M931.857 111.048H930.524V112.19H931.857V111.048Z" fill="#AA643B"/>
<path id="Vector_65" d="M937.286 107.333H935.857L935 108.762L934.143 107.333H932.714L934.048 109.619L932.619 112.19H934.143L935 110.571L935.952 112.19H937.381L935.952 109.714L937.286 107.333Z" fill="#AA643B"/>
<path id="Vector_66" d="M939.191 111.048H937.857V112.19H939.191V111.048Z" fill="#AA643B"/>
</g>
</g>
</g>
</g>
<rect x="544.5" y="96.5" width="407" height="143" stroke="#AA643B" stroke-dasharray="8 4"/>
</g>
<g id="Private Subnet_New">
<text id="Subnet_2" fill="#AE562C" xml:space="preserve" style="white-space: pre" font-family="Oracle Sans" font-size="16" font-weight="600" letter-spacing="0em"><tspan x="552" y="294.816">Private DB+ATP</tspan></text>
<text id="Subnet_3" fill="#AE562C" xml:space="preserve" style="white-space: pre" font-family="Oracle Sans" font-size="16" font-weight="600" letter-spacing="0em"><tspan x="552" y="310.816">Subnet</tspan></text>
<g id="Icon Master_4">
<g id="Route-Table_red_2">
<g id="Group_11">
<g id="Group_12">
<path id="Vector_67" d="M942.524 253.476H903.476V292.524H942.524V253.476Z" fill="white"/>
<path id="Vector_68" d="M942.048 253.952V292.048H903.952V253.952H942.048ZM943 253H942.048H903.952H903V253.952V292.048V293H903.952H942.048H943V292.048V253.952V253Z" fill="white"/>
</g>
<g id="Group_13">
<path id="Vector_69" d="M903.952 253.952V292.048H942.048V253.952H903.952ZM940.619 266.143H915.952V255.381H940.619V266.143ZM905.381 279.857H914.524V290.714H905.381V279.857ZM914.524 255.381V266.238H905.381V255.381H914.524ZM914.524 267.571V278.429H905.381V267.571H914.524ZM915.952 290.619V279.857H940.619V290.714L915.952 290.619ZM915.952 278.429V267.571H940.619V278.429H915.952Z" fill="#AA643B"/>
<path id="Vector_70" d="M917.286 264.714H918.905L919.762 263.095L920.619 264.714H922.143L920.714 262.143L922.048 259.762H920.524L919.762 261.286L918.905 259.762H917.381L918.81 262.143L917.286 264.714Z" fill="#AA643B"/>
<path id="Vector_71" d="M924.238 263.572H922.905V264.714H924.238V263.572Z" fill="#AA643B"/>
<path id="Vector_72" d="M926.809 264.714L927.667 263.095L928.524 264.714H930.048L928.524 262.143L929.952 259.762H928.524L927.667 261.286L926.809 259.762H925.286L926.714 262.143L925.286 264.714H926.809Z" fill="#AA643B"/>
<path id="Vector_73" d="M931.857 263.572H930.524V264.714H931.857V263.572Z" fill="#AA643B"/>
<path id="Vector_74" d="M934.143 264.714L935 263.095L935.952 264.714H937.381L935.952 262.143L937.286 259.762H935.857L935 261.286L934.143 259.762H932.714L934.048 262.143L932.619 264.714H934.143Z" fill="#AA643B"/>
<path id="Vector_75" d="M939.191 263.572H937.857V264.714H939.191V263.572Z" fill="#AA643B"/>
<path id="Vector_76" d="M922.048 272.143H920.524L919.762 273.667L918.905 272.143H917.381L918.81 274.524L917.286 277.095H918.905L919.762 275.476L920.619 277.095H922.143L920.714 274.524L922.048 272.143Z" fill="#AA643B"/>
<path id="Vector_77" d="M924.238 275.857H922.905V277H924.238V275.857Z" fill="#AA643B"/>
<path id="Vector_78" d="M929.952 272.143H928.524L927.667 273.667L926.809 272.143H925.286L926.714 274.524L925.286 277.095H926.809L927.667 275.476L928.524 277.095H930.048L928.524 274.524L929.952 272.143Z" fill="#AA643B"/>
<path id="Vector_79" d="M931.857 275.857H930.524V277H931.857V275.857Z" fill="#AA643B"/>
<path id="Vector_80" d="M937.286 272.143H935.857L935 273.667L934.143 272.143H932.714L934.048 274.524L932.619 277.095H934.143L935 275.476L935.952 277.095H937.381L935.952 274.524L937.286 272.143Z" fill="#AA643B"/>
<path id="Vector_81" d="M939.191 275.857H937.857V277H939.191V275.857Z" fill="#AA643B"/>
<path id="Vector_82" d="M922.048 284.333H920.524L919.762 285.762L918.905 284.333H917.381L918.81 286.619L917.286 289.19H918.905L919.762 287.571L920.619 289.19H922.143L920.714 286.714L922.048 284.333Z" fill="#AA643B"/>
<path id="Vector_83" d="M924.238 288.048H922.905V289.19H924.238V288.048Z" fill="#AA643B"/>
<path id="Vector_84" d="M929.952 284.333H928.524L927.667 285.762L926.809 284.333H925.286L926.714 286.619L925.286 289.19H926.809L927.667 287.571L928.524 289.19H930.048L928.524 286.714L929.952 284.333Z" fill="#AA643B"/>
<path id="Vector_85" d="M931.857 288.048H930.524V289.19H931.857V288.048Z" fill="#AA643B"/>
<path id="Vector_86" d="M937.286 284.333H935.857L935 285.762L934.143 284.333H932.714L934.048 286.619L932.619 289.19H934.143L935 287.571L935.952 289.19H937.381L935.952 286.714L937.286 284.333Z" fill="#AA643B"/>
<path id="Vector_87" d="M939.191 288.048H937.857V289.19H939.191V288.048Z" fill="#AA643B"/>
</g>
</g>
</g>
</g>
<rect x="544.5" y="273.5" width="407" height="127" stroke="#AA643B" stroke-dasharray="8 4"/>
</g>
<g id="NSG">
<g id="Network-Security-Group-NSG">
<g id="Group 29">
<path id="Vector_88" d="M873.68 293.377C873.077 293.095 858.931 286.459 858.931 279.356V258.593H859.417C869.246 258.593 873.398 255.314 873.398 254H874.37C874.37 254.973 877.87 258.583 888.361 258.583H888.847V279.356C888.847 286.459 874.691 293.095 874.088 293.377L873.884 293.465L873.68 293.377Z" fill="white"/>
<path id="Vector_89" d="M873.884 254C873.884 255.45 877.87 259.069 888.361 259.069V279.356C888.361 286.235 873.884 292.978 873.884 292.978C873.884 292.978 859.417 286.235 859.417 279.356V259.079C869.548 259.079 873.884 255.644 873.884 254ZM874.856 254H872.912C872.873 254.847 869.246 258.106 859.417 258.106H858.444V279.356C858.444 286.771 872.863 293.533 873.476 293.815L873.884 294L874.292 293.815C874.905 293.533 889.333 286.771 889.333 279.356V258.106H888.361C878.619 258.106 874.973 254.866 874.856 254Z" fill="white"/>
<path id="Vector_90" d="M873.885 254C873.885 255.635 869.549 259.069 859.418 259.069V279.356C859.418 286.235 873.885 292.978 873.885 292.978C873.885 292.978 888.362 286.284 888.362 279.405V259.079C877.891 259.079 873.885 255.459 873.885 254ZM874.614 257.24C875.224 257.685 875.875 258.069 876.559 258.388C879.831 259.791 883.354 260.512 886.913 260.509V272.487H874.614V257.24ZM860.866 260.509C864.373 260.505 867.844 259.815 871.085 258.476C871.829 258.148 872.539 257.747 873.204 257.279V272.487H860.866V260.509ZM867.449 287.52C863.2 284.533 860.866 281.633 860.866 279.356V273.927H873.166V290.974C871.189 289.944 869.28 288.79 867.449 287.52ZM873.885 291.324H873.963H873.885ZM886.913 279.356C886.913 281.633 884.57 284.533 880.321 287.52C878.495 288.792 876.588 289.946 874.614 290.974V273.927H886.913V279.356Z" fill="#2D5967"/>
</g>
</g>
<g id="Icon Text Label_6">
<text id="IconLabel_8" fill="black" xml:space="preserve" style="white-space: pre" font-family="Oracle Sans" font-size="16" letter-spacing="0em"><tspan x="858.07" y="311.816">NSG</tspan></text>
</g>
</g>
<g id="apex">
<g id="Oracle-APEX">
<g id="Group 406">
<path id="Vector_91" d="M810.186 117.714H757.814C756.102 117.714 754.714 119.102 754.714 120.814V173.186C754.714 174.898 756.102 176.286 757.814 176.286H810.186C811.898 176.286 813.286 174.898 813.286 173.186V120.814C813.286 119.102 811.898 117.714 810.186 117.714Z" fill="white"/>
<path id="Vector_92" d="M810.186 118.429C810.818 118.429 811.425 118.68 811.873 119.127C812.32 119.575 812.571 120.182 812.571 120.814V173.186C812.571 173.818 812.32 174.425 811.873 174.873C811.425 175.32 810.818 175.571 810.186 175.571H757.814C757.182 175.571 756.575 175.32 756.127 174.873C755.68 174.425 755.429 173.818 755.429 173.186V120.814C755.429 120.182 755.68 119.575 756.127 119.127C756.575 118.68 757.182 118.429 757.814 118.429H810.186ZM810.186 117H757.814C756.804 117.004 755.836 117.407 755.121 118.121C754.407 118.836 754.004 119.804 754 120.814V173.186C754.004 174.196 754.407 175.164 755.121 175.879C755.836 176.593 756.804 176.996 757.814 177H810.186C811.196 176.996 812.164 176.593 812.879 175.879C813.593 175.164 813.996 174.196 814 173.186V120.814C813.996 119.804 813.593 118.836 812.879 118.121C812.164 117.407 811.196 117.004 810.186 117V117Z" fill="white"/>
<path id="Vector_93" d="M810.186 120.815H757.814V173.186H810.186V120.815ZM795.429 158.186L794.6 157.344L793.757 156.486L795.343 154.929L793.557 153.129L791.943 154.701L791.143 153.858L790.314 153.001L791.9 151.444L790.157 149.701L791.843 148.015L802.529 158.715L795.857 165.329L785.143 154.658L786.857 152.972L795.829 161.958L799.114 158.715L797.014 156.615L795.429 158.186ZM777.786 140.544L776.957 139.686L776.114 138.844L777.714 137.286L775.614 135.186L774 136.758L773.157 135.915L772.329 135.058L774 133.501L771.971 131.472L768.686 134.729L777.729 143.801L776 145.486L765.257 134.715L771.914 128.115L782.571 138.844L780.886 140.529L779.329 138.972L777.786 140.544ZM769.343 154.686L795.857 128.115L802.571 134.715L776 161.286L766.429 164.258L769.343 154.686Z" fill="white"/>
<path id="Vector_94" d="M810.185 118.429H757.814C757.181 118.429 756.574 118.68 756.127 119.128C755.68 119.575 755.428 120.182 755.428 120.815V173.186C755.428 173.819 755.68 174.426 756.127 174.873C756.574 175.321 757.181 175.572 757.814 175.572H810.185C810.818 175.572 811.425 175.321 811.872 174.873C812.32 174.426 812.571 173.819 812.571 173.186V120.815C812.571 120.182 812.32 119.575 811.872 119.128C811.425 118.68 810.818 118.429 810.185 118.429ZM757.814 120.815H810.185V173.186H757.814V120.815Z" fill="#2D5967"/>
<path id="Vector_95" d="M795.8 161.957L786.857 152.971L785.143 154.657L795.785 165.328L802.457 158.714L791.771 148.014L790.085 149.7L791.828 151.443L790.243 153L791.071 153.857L791.9 154.7L793.514 153.128L795.3 154.928L793.714 156.485L794.557 157.343L795.385 158.185L796.985 156.614L799.085 158.714L795.8 161.957Z" fill="#2D5967"/>
<path id="Vector_96" d="M782.572 138.843L771.857 128.115L765.257 134.715L776 145.486L777.672 143.801L768.629 134.729L771.914 131.472L774 133.501L772.414 135.058L773.243 135.915L774.086 136.758L775.672 135.186L777.714 137.286L776.114 138.843L776.957 139.686L777.786 140.543L779.386 138.972L780.943 140.529L782.572 138.843Z" fill="#2D5967"/>
<path id="Vector_97" d="M796.557 137.328L799.143 134.728L795.857 131.471L793.272 134.071L796.557 137.328Z" fill="white"/>
<path id="Vector_98" d="M772.714 154.671L776 157.928L794.871 139.014L791.586 135.756L772.714 154.671Z" fill="white"/>
<path id="Vector_99" d="M774.1 159.4L771.257 156.572L770.014 160.672L774.1 159.4Z" fill="white"/>
<path id="Vector_100" d="M776.014 161.286L802.571 134.715L795.857 128.115L769.386 154.629L766.528 164.215L776.014 161.286ZM799.143 134.729L796.557 137.329L793.271 134.143L795.857 131.543L799.143 134.729ZM791.586 135.758L794.871 139.015L776 157.929L772.714 154.672L791.586 135.758ZM771.257 156.572L774.114 159.429L770.028 160.701L771.257 156.572Z" fill="#2D5967"/>
</g>
</g>
<g id="Icon Text Label_7">
<text id="IconLabel_9" fill="black" xml:space="preserve" style="white-space: pre" font-family="Oracle Sans" font-size="16" letter-spacing="0em"><tspan x="739.133" y="194.816">Oracle APEX</tspan></text>
</g>
</g>
<g id="ATP DATABASE">
<g id="Autonomous-Transaction-Processing-ATP">
<g id="Group 8">
<path id="Vector_101" d="M784.355 348.942V348.29L784.277 348.942H783.391C777.506 348.743 771.885 346.447 767.544 342.469C763.203 338.491 760.426 333.093 759.714 327.247L757.797 329.19L755.424 326.817L759.714 322.593C759.814 321.323 760.015 320.063 760.314 318.825C758.805 318.023 757.608 316.741 756.91 315.182C756.212 313.622 756.055 311.875 756.462 310.216C756.868 308.557 757.817 307.081 759.157 306.021C760.497 304.962 762.152 304.379 763.86 304.366C765.463 304.37 767.024 304.882 768.319 305.826C772.361 302.426 777.388 300.415 782.66 300.09C783.182 300.051 783.651 300.051 784.108 300.051H785.49C786.591 298.377 788.164 297.068 790.009 296.288C791.854 295.508 793.89 295.293 795.857 295.67C797.825 296.047 799.636 296.999 801.063 298.405C802.49 299.811 803.468 301.609 803.873 303.571L805.268 302.176L807.654 304.562L807.537 304.666L807.185 305.083L803.391 308.877C806.366 312.404 808.263 316.713 808.853 321.289L811.161 318.981L813.534 321.354L809.023 325.865C808.944 327.271 808.744 328.667 808.423 330.038C809.312 330.547 810.09 331.229 810.71 332.045C811.331 332.861 811.781 333.792 812.035 334.785C812.288 335.778 812.34 336.812 812.186 337.825C812.033 338.838 811.677 339.81 811.141 340.683C810.605 341.556 809.899 342.313 809.065 342.908C808.231 343.503 807.286 343.925 806.286 344.148C805.286 344.371 804.251 344.391 803.243 344.207C802.235 344.023 801.274 343.638 800.418 343.075C798.084 345.049 795.406 346.574 792.517 347.573L792.269 347.652C791.8 347.821 791.318 347.952 790.835 348.082H790.64L790.314 348.173L789.688 348.33L788.892 348.486L788.241 348.616C788.019 348.616 787.797 348.616 787.563 348.695L786.676 348.799C785.842 348.877 785.098 348.916 784.421 348.916L784.355 348.942Z" fill="white"/>
<path id="Vector_102" d="M793.952 296.139C796.352 296.143 798.661 297.055 800.415 298.693C802.168 300.331 803.237 302.572 803.405 304.965L805.269 303.101L806.716 304.548L802.492 308.772C805.927 312.645 807.985 317.545 808.346 322.71L811.162 319.907L812.61 321.354L808.385 325.578C808.312 327.184 808.076 328.778 807.681 330.337C808.569 330.761 809.359 331.367 809.997 332.116C810.636 332.864 811.11 333.739 811.388 334.683C811.667 335.627 811.743 336.619 811.613 337.595C811.483 338.57 811.149 339.507 810.633 340.345C810.117 341.183 809.43 341.903 808.618 342.459C807.805 343.014 806.885 343.392 805.917 343.568C804.948 343.745 803.954 343.715 802.998 343.482C802.042 343.249 801.145 342.817 800.367 342.214C798.018 344.314 795.281 345.935 792.31 346.986L792.088 347.064C791.619 347.221 791.149 347.351 790.68 347.482L790.171 347.625C789.507 347.782 788.868 347.925 788.138 348.029L787.173 348.147H786.612C785.88 348.225 785.145 348.264 784.409 348.264H783.992C777.927 348.213 772.107 345.866 767.704 341.695C763.301 337.524 760.642 331.84 760.263 325.787L757.799 328.264L756.338 326.817L760.25 322.905C760.356 321.406 760.614 319.921 761.019 318.473C759.545 317.821 758.339 316.682 757.605 315.248C756.87 313.813 756.651 312.169 756.984 310.592C757.317 309.015 758.182 307.601 759.434 306.586C760.686 305.571 762.249 305.017 763.861 305.017C765.5 305.025 767.084 305.611 768.333 306.673C772.331 303.172 777.372 301.087 782.675 300.741C783.157 300.741 783.64 300.663 784.122 300.65H784.317C784.904 300.65 785.478 300.65 786.038 300.741L785.908 300.611C786.76 299.245 787.946 298.118 789.353 297.336C790.76 296.554 792.343 296.142 793.952 296.139ZM793.952 294.835C792.241 294.844 790.557 295.257 789.035 296.038C787.513 296.819 786.196 297.948 785.191 299.333H784.109C783.626 299.333 783.157 299.333 782.701 299.411H782.583C777.339 299.734 772.325 301.685 768.242 304.991C766.924 304.143 765.39 303.69 763.822 303.688C762.001 303.686 760.23 304.28 758.779 305.38C757.329 306.48 756.278 308.026 755.789 309.779C755.299 311.533 755.398 313.399 756.069 315.091C756.741 316.783 757.948 318.209 759.507 319.15C759.273 320.19 759.112 321.244 759.024 322.306L755.426 325.904L754.5 326.817L755.426 327.742L756.873 329.19L757.799 330.115L758.711 329.19L759.272 328.629C760.252 334.241 763.092 339.361 767.335 343.163C771.577 346.966 776.976 349.231 782.662 349.594H783.965H784.409C785.113 349.594 785.869 349.594 786.729 349.476H787.134H787.329H787.616L788.333 349.385L789.637 349.177L790.497 348.968L790.849 348.877H791.019L792.479 348.29H792.649H792.727C795.542 347.319 798.164 345.858 800.471 343.974C801.723 344.712 803.151 345.1 804.604 345.096C806.813 345.092 808.93 344.213 810.492 342.652C812.053 341.09 812.932 338.973 812.935 336.765C812.938 335.384 812.594 334.024 811.936 332.81C811.278 331.596 810.326 330.567 809.168 329.815C809.418 328.598 809.584 327.366 809.663 326.126L813.574 322.214L814.5 321.289L813.574 320.363L812.127 318.916L811.201 317.99L810.276 318.916L809.35 319.855C808.602 315.83 806.869 312.054 804.304 308.864L807.681 305.487L808.607 304.561L808.477 304.418L807.681 303.557L806.195 302.175L805.269 301.25L804.357 302.175L804.213 302.306C803.507 300.139 802.136 298.25 800.293 296.908C798.451 295.567 796.232 294.841 793.952 294.835V294.835Z" fill="white"/>
<path id="Vector_103" d="M787.813 345.969L788.138 347.99C786.905 348.187 785.658 348.288 784.41 348.29H783.992V346.243C785.258 346.256 786.523 346.165 787.773 345.969H787.813ZM767.291 341.067C768.256 342.057 769.303 342.964 770.42 343.779L771.633 342.11C770.6 341.377 769.64 340.548 768.764 339.633L767.291 341.067ZM772.154 344.913C773.341 345.626 774.589 346.233 775.883 346.726L776.665 344.809C775.483 344.361 774.345 343.806 773.262 343.153L772.154 344.913ZM778.412 345.409L777.852 347.378C778.517 347.56 779.155 347.73 779.872 347.86C780.59 347.99 781.241 348.095 781.919 348.16L782.141 346.126C781.515 346.061 780.837 345.956 780.251 345.839C779.664 345.722 779.025 345.578 778.412 345.409ZM789.664 345.591L790.159 347.573C791.499 347.255 792.808 346.819 794.071 346.269L793.249 344.379C792.096 344.922 790.896 345.358 789.664 345.683V345.591ZM765.374 335.083L763.627 336.087C764.298 337.296 765.074 338.444 765.948 339.516L767.539 338.212C766.742 337.232 766.031 336.185 765.414 335.083H765.374ZM763.706 331.341C763.706 331.132 763.562 330.924 763.51 330.728C763.458 330.533 763.432 330.441 763.393 330.298C762.949 328.699 762.69 327.054 762.623 325.396L765.57 328.329L767.017 326.817L761.685 321.484L756.339 326.817L757.799 328.264L760.577 325.487C760.652 327.115 760.892 328.731 761.294 330.311C761.294 330.467 761.385 330.611 761.424 330.767C761.46 330.922 761.503 331.074 761.554 331.224C761.554 331.445 761.685 331.667 761.763 331.876C761.841 332.084 761.828 332.11 761.867 332.228C762.102 332.893 762.376 333.531 762.663 334.222L764.527 333.375C764.214 332.645 763.94 331.993 763.706 331.341ZM756.835 312.058C756.832 310.665 757.243 309.302 758.016 308.142C758.788 306.982 759.888 306.078 761.175 305.543C762.462 305.009 763.878 304.868 765.245 305.139C766.612 305.411 767.868 306.081 768.853 307.067C769.839 308.052 770.51 309.308 770.781 310.675C771.052 312.042 770.912 313.458 770.377 314.745C769.843 316.032 768.938 317.132 767.778 317.904C766.619 318.677 765.256 319.088 763.862 319.085C761.999 319.082 760.214 318.341 758.897 317.023C757.58 315.706 756.838 313.921 756.835 312.058ZM758.882 312.058C758.879 313.047 759.17 314.014 759.718 314.837C760.265 315.66 761.045 316.302 761.958 316.682C762.871 317.062 763.876 317.162 764.846 316.969C765.816 316.777 766.707 316.301 767.406 315.602C768.105 314.903 768.581 314.012 768.773 313.042C768.965 312.072 768.866 311.067 768.486 310.154C768.106 309.241 767.464 308.461 766.641 307.914C765.818 307.366 764.851 307.075 763.862 307.078C762.542 307.081 761.277 307.607 760.344 308.54C759.411 309.473 758.885 310.738 758.882 312.058ZM771.033 307.364C774.551 304.582 778.848 302.964 783.328 302.736C783.524 302.017 783.791 301.318 784.123 300.65C778.882 300.731 773.814 302.536 769.703 305.787C770.199 306.259 770.637 306.788 771.007 307.364H771.033ZM803.771 310.559C803.443 311.221 803.046 311.846 802.584 312.423C804.628 315.489 805.857 319.025 806.157 322.697L803.393 319.907L801.945 321.354L807.278 326.687L812.61 321.354L811.163 319.907L808.243 322.827C807.941 318.402 806.401 314.15 803.797 310.559H803.771ZM811.62 336.634C811.62 338.027 811.206 339.389 810.432 340.547C809.658 341.705 808.558 342.608 807.27 343.14C805.983 343.673 804.567 343.811 803.201 343.539C801.835 343.266 800.58 342.594 799.596 341.608C798.612 340.622 797.943 339.366 797.672 338C797.402 336.633 797.544 335.217 798.078 333.931C798.613 332.645 799.518 331.546 800.677 330.774C801.837 330.002 803.199 329.591 804.592 329.594C806.457 329.597 808.245 330.341 809.562 331.661C810.88 332.981 811.62 334.769 811.62 336.634ZM809.573 336.634C809.575 335.646 809.284 334.678 808.736 333.855C808.189 333.032 807.409 332.39 806.496 332.01C805.583 331.631 804.578 331.531 803.608 331.723C802.638 331.915 801.747 332.391 801.048 333.09C800.349 333.79 799.873 334.681 799.681 335.65C799.489 336.62 799.589 337.625 799.968 338.538C800.348 339.451 800.99 340.231 801.813 340.779C802.636 341.326 803.603 341.617 804.592 341.615C805.912 341.611 807.177 341.086 808.11 340.152C809.043 339.219 809.569 337.954 809.573 336.634ZM767.069 311.289L765.622 309.842L763.249 312.202L762.115 311.067L760.668 312.527L763.275 315.135L767.069 311.289ZM795.244 331.341C795.244 334.079 788.321 334.809 784.657 334.809C780.994 334.809 774.227 334.079 774.227 331.341V315.226C774.227 312.097 782.923 311.941 784.657 311.941H784.944C785.49 312.732 786.144 313.443 786.887 314.053C786.196 314.053 785.453 314.053 784.657 314.053C780.055 314.053 777.213 314.822 776.417 315.357C777.278 315.865 780.12 316.66 784.657 316.66C786.585 316.681 788.51 316.519 790.407 316.178C791.549 316.566 792.747 316.764 793.953 316.765C794.389 316.766 794.825 316.739 795.257 316.687L795.244 331.341ZM793.145 325.774C793.128 325.847 793.128 325.923 793.145 325.996H793.236V322.593C790.475 323.439 787.597 323.839 784.71 323.779C781.878 323.826 779.056 323.444 776.339 322.645V325.93C777.004 326.439 779.899 327.234 784.71 327.234C789.859 327.234 792.819 326.269 793.197 325.787L793.145 325.774ZM776.287 317.456V320.389C776.952 320.885 779.846 321.693 784.657 321.693C789.807 321.693 792.767 320.741 793.145 320.259C793.125 320.327 793.125 320.399 793.145 320.467H793.236V317.391C790.475 318.237 787.597 318.637 784.71 318.577C781.879 318.63 779.056 318.252 776.339 317.456H776.287ZM793.288 331.237V328.134C790.527 328.98 787.649 329.381 784.762 329.32C781.93 329.367 779.108 328.985 776.391 328.186V331.25C776.887 331.758 779.755 332.814 784.762 332.814C789.468 332.814 792.715 331.823 793.288 331.237ZM806.039 333.949L804.736 335.252L803.432 333.949L801.985 335.409L803.288 336.713L801.985 338.016L803.432 339.464L804.736 338.16L806.039 339.464L807.487 338.016L806.183 336.713L807.487 335.409L806.039 333.949ZM797.695 341.654C796.814 342.335 795.886 342.954 794.918 343.505L795.909 345.291C797.016 344.679 798.071 343.977 799.064 343.192C798.543 342.748 798.075 342.245 797.669 341.693L797.695 341.654ZM786.039 300.82L787.278 302.045L787.382 302.149C788.123 300.73 789.304 299.588 790.748 298.895C792.192 298.201 793.821 297.994 795.393 298.304C796.964 298.613 798.393 299.423 799.466 300.612C800.539 301.801 801.199 303.306 801.346 304.9L799.547 303.101L798.099 304.548L802.415 308.864L806.717 304.548L805.27 303.101L803.406 304.966C803.266 302.968 802.497 301.067 801.21 299.534C799.922 298 798.182 296.914 796.24 296.431C794.297 295.947 792.251 296.091 790.395 296.842C788.539 297.593 786.969 298.912 785.909 300.611L786.078 300.767L786.039 300.82ZM797.813 309.998V310.076H795.635L795.166 308.003H792.715L792.232 310.076H790.12V309.998L792.962 300.181H794.983L797.813 309.998ZM793.106 306.295H794.775L793.94 302.658L793.106 306.295ZM781.228 306.726L782.676 308.173L784.488 306.348C784.638 308.339 785.414 310.233 786.706 311.756C787.997 313.28 789.737 314.356 791.678 314.831C793.618 315.306 795.659 315.154 797.508 314.399C799.357 313.643 800.919 312.322 801.972 310.624L800.511 309.177C799.758 310.577 798.575 311.699 797.137 312.377C795.699 313.056 794.081 313.255 792.521 312.945C790.961 312.636 789.542 311.835 788.471 310.659C787.401 309.483 786.736 307.995 786.574 306.413L788.399 308.212L789.859 306.765L785.505 302.371L781.189 306.687L781.228 306.726Z" fill="#2D5967"/>
</g>
</g>
<g id="Icon Text Label_8">
<text id="IconLabel_10" fill="black" xml:space="preserve" style="white-space: pre" font-family="Oracle Sans" font-size="16" letter-spacing="0em"><tspan x="693.102" y="367.316">Autonomous Transaction</tspan></text>
<text id="IconLabel_11" fill="black" xml:space="preserve" style="white-space: pre" font-family="Oracle Sans" font-size="16" letter-spacing="0em"><tspan x="709.484" y="383.316">Processing Database</tspan></text>
</g>
</g>
<g id="SL">
<rect id="Rectangle 700" x="543.5" y="200.5" width="5" height="36" fill="#F5F4F2"/>
<g id="Icon Master_5">
<g id="Security-Lists_red">
<g id="Group_14">
<g id="Group_15">
<path id="Vector_104" d="M545.122 212.836C537.739 210.088 534.237 205.348 532.533 201.746C530.64 197.671 530.64 194.258 530.64 194.069V180.419L545.5 174.069L560.266 180.419V194.164C560.266 194.732 560.076 207.623 545.974 212.836L545.595 213.026L545.122 212.836Z" fill="white"/>
<path id="Vector_105" d="M545.5 174.543L559.792 180.704V194.164C559.792 194.732 559.602 207.244 545.784 212.363L545.5 212.457L545.31 212.363C538.022 209.709 534.615 205.064 533.006 201.557C531.207 197.671 531.113 194.258 531.113 194.164V180.704L545.5 174.543ZM545.5 173.5L545.121 173.69L530.734 179.851L530.166 180.04V180.704V194.164C530.166 194.353 530.166 197.86 532.154 202.031C533.858 205.633 537.454 210.562 545.026 213.31L545.31 213.405L545.594 213.5L545.878 213.405L546.162 213.31C560.644 208.002 560.833 194.732 560.833 194.164V180.704V180.04L560.265 179.756L545.878 173.69L545.5 173.5Z" fill="white"/>
</g>
<g id="Group_16">
<path id="Vector_106" d="M545.5 174.543L531.113 180.704V194.163C531.113 194.258 531.113 197.671 533.006 201.557C534.615 205.064 538.117 209.708 545.31 212.362L545.594 212.457L545.878 212.362C559.697 207.244 559.886 194.637 559.886 194.163V180.704L545.5 174.543ZM558.372 194.163C558.372 194.637 558.183 206.107 545.5 210.941C540.199 208.95 536.413 205.633 534.236 200.988C532.533 197.291 532.533 194.258 532.533 194.163V181.652L545.5 176.059L558.372 181.652V194.163Z" fill="#AA643B"/>
<path id="Vector_107" d="M545.405 185.538H536.792V186.959H545.405V185.538Z" fill="#AA643B"/>
<path id="Vector_108" d="M554.207 184.874L553.166 183.926L550.421 186.675L549.285 185.538L548.244 186.58L550.421 188.666L554.207 184.874Z" fill="#AA643B"/>
<path id="Vector_109" d="M545.405 192.457H536.792V193.879H545.405V192.457Z" fill="#AA643B"/>
<path id="Vector_110" d="M552.693 190.656L551.273 192.172L549.758 190.656L548.812 191.699L550.232 193.12L548.812 194.542L549.758 195.585L551.273 194.163L552.693 195.585L553.639 194.542L552.219 193.12L553.639 191.699L552.693 190.656Z" fill="#AA643B"/>
<path id="Vector_111" d="M545.405 198.902H536.792V200.324H545.405V198.902Z" fill="#AA643B"/>
<path id="Vector_112" d="M554.207 198.239L553.166 197.291L550.421 200.04L549.285 198.903L548.244 199.945L550.421 202.03L554.207 198.239Z" fill="#AA643B"/>
</g>
</g>
</g>
<g id="Icon Text Label_9">
<text id="IconLabel_12" fill="black" xml:space="preserve" style="white-space: pre" font-family="Oracle Sans" font-size="16" letter-spacing="0em"><tspan x="536.445" y="231.316">SL</tspan></text>
</g>
</g>
</g>
<g id="SL_2">
<rect id="Rectangle 700_2" x="463.5" y="281" width="5" height="36" fill="#F5F4F2"/>
<g id="Icon Master_6">
<g id="Security-Lists_red_2">
<g id="Group_17">
<g id="Group_18">
<path id="Vector_113" d="M465.122 293.336C457.739 290.588 454.237 285.848 452.533 282.246C450.64 278.171 450.64 274.758 450.64 274.569V260.919L465.5 254.569L480.266 260.919V274.664C480.266 275.232 480.076 288.123 465.974 293.336L465.595 293.526L465.122 293.336Z" fill="white"/>
<path id="Vector_114" d="M465.5 255.043L479.792 261.204V274.664C479.792 275.232 479.602 287.744 465.784 292.863L465.5 292.957L465.31 292.863C458.022 290.209 454.615 285.564 453.006 282.057C451.207 278.171 451.113 274.758 451.113 274.664V261.204L465.5 255.043ZM465.5 254L465.121 254.19L450.734 260.351L450.166 260.54V261.204V274.664C450.166 274.853 450.166 278.36 452.154 282.531C453.858 286.133 457.454 291.062 465.026 293.81L465.31 293.905L465.594 294L465.878 293.905L466.162 293.81C480.644 288.502 480.833 275.232 480.833 274.664V261.204V260.54L480.265 260.256L465.878 254.19L465.5 254Z" fill="white"/>
</g>
<g id="Group_19">
<path id="Vector_115" d="M465.5 255.043L451.113 261.204V274.663C451.113 274.758 451.113 278.171 453.006 282.057C454.615 285.564 458.117 290.208 465.31 292.862L465.594 292.957L465.878 292.862C479.697 287.744 479.886 275.137 479.886 274.663V261.204L465.5 255.043ZM478.372 274.663C478.372 275.137 478.183 286.607 465.5 291.441C460.199 289.45 456.413 286.133 454.236 281.488C452.533 277.791 452.533 274.758 452.533 274.663V262.152L465.5 256.559L478.372 262.152V274.663Z" fill="#AA643B"/>
<path id="Vector_116" d="M465.405 266.038H456.792V267.459H465.405V266.038Z" fill="#AA643B"/>
<path id="Vector_117" d="M474.207 265.374L473.166 264.426L470.421 267.175L469.285 266.038L468.244 267.08L470.421 269.166L474.207 265.374Z" fill="#AA643B"/>
<path id="Vector_118" d="M465.405 272.957H456.792V274.379H465.405V272.957Z" fill="#AA643B"/>
<path id="Vector_119" d="M472.693 271.156L471.273 272.672L469.758 271.156L468.812 272.199L470.232 273.62L468.812 275.042L469.758 276.085L471.273 274.663L472.693 276.085L473.639 275.042L472.219 273.62L473.639 272.199L472.693 271.156Z" fill="#AA643B"/>
<path id="Vector_120" d="M465.405 279.402H456.792V280.824H465.405V279.402Z" fill="#AA643B"/>
<path id="Vector_121" d="M474.207 278.739L473.166 277.791L470.421 280.54L469.285 279.403L468.244 280.445L470.421 282.53L474.207 278.739Z" fill="#AA643B"/>
</g>
</g>
</g>
<g id="Icon Text Label_10">
<text id="IconLabel_13" fill="black" xml:space="preserve" style="white-space: pre" font-family="Oracle Sans" font-size="16" letter-spacing="0em"><tspan x="456.445" y="311.816">SL</tspan></text>
</g>
</g>
</g>
<g id="SL_3">
<rect id="Rectangle 700_3" x="543.5" y="361.5" width="5" height="36" fill="#F5F4F2"/>
<g id="Icon Master_7">
<g id="Security-Lists_red_3">
<g id="Group_20">
<g id="Group_21">
<path id="Vector_122" d="M545.122 373.836C537.739 371.088 534.237 366.348 532.533 362.746C530.64 358.671 530.64 355.258 530.64 355.069V341.419L545.5 335.069L560.266 341.419V355.164C560.266 355.732 560.076 368.623 545.974 373.836L545.595 374.026L545.122 373.836Z" fill="white"/>
<path id="Vector_123" d="M545.5 335.543L559.792 341.704V355.164C559.792 355.732 559.602 368.244 545.784 373.363L545.5 373.457L545.31 373.363C538.022 370.709 534.615 366.064 533.006 362.557C531.207 358.671 531.113 355.258 531.113 355.164V341.704L545.5 335.543ZM545.5 334.5L545.121 334.69L530.734 340.851L530.166 341.04V341.704V355.164C530.166 355.353 530.166 358.86 532.154 363.031C533.858 366.633 537.454 371.562 545.026 374.31L545.31 374.405L545.594 374.5L545.878 374.405L546.162 374.31C560.644 369.002 560.833 355.732 560.833 355.164V341.704V341.04L560.265 340.756L545.878 334.69L545.5 334.5Z" fill="white"/>
</g>
<g id="Group_22">
<path id="Vector_124" d="M545.5 335.543L531.113 341.704V355.163C531.113 355.258 531.113 358.671 533.006 362.557C534.615 366.064 538.117 370.708 545.31 373.362L545.594 373.457L545.878 373.362C559.697 368.244 559.886 355.637 559.886 355.163V341.704L545.5 335.543ZM558.372 355.163C558.372 355.637 558.183 367.107 545.5 371.941C540.199 369.95 536.413 366.633 534.236 361.988C532.533 358.291 532.533 355.258 532.533 355.163V342.652L545.5 337.059L558.372 342.652V355.163Z" fill="#AA643B"/>
<path id="Vector_125" d="M545.405 346.538H536.792V347.959H545.405V346.538Z" fill="#AA643B"/>
<path id="Vector_126" d="M554.207 345.874L553.166 344.926L550.421 347.675L549.285 346.538L548.244 347.58L550.421 349.666L554.207 345.874Z" fill="#AA643B"/>
<path id="Vector_127" d="M545.405 353.457H536.792V354.879H545.405V353.457Z" fill="#AA643B"/>
<path id="Vector_128" d="M552.693 351.656L551.273 353.172L549.758 351.656L548.812 352.699L550.232 354.12L548.812 355.542L549.758 356.585L551.273 355.163L552.693 356.585L553.639 355.542L552.219 354.12L553.639 352.699L552.693 351.656Z" fill="#AA643B"/>
<path id="Vector_129" d="M545.405 359.902H536.792V361.324H545.405V359.902Z" fill="#AA643B"/>
<path id="Vector_130" d="M554.207 359.239L553.166 358.291L550.421 361.04L549.285 359.903L548.244 360.945L550.421 363.03L554.207 359.239Z" fill="#AA643B"/>
</g>
</g>
</g>
<g id="Icon Text Label_11">
<text id="IconLabel_14" fill="black" xml:space="preserve" style="white-space: pre" font-family="Oracle Sans" font-size="16" letter-spacing="0em"><tspan x="536.445" y="392.316">SL</tspan></text>
</g>
</g>
</g>
<g id="Gateway">
<rect id="Rectangle 699" x="464" y="117" width="2" height="60" fill="#F5F4F2"/>
<g id="Icon Master_8">
<g id="Dynamic-Routing-Gateway-DRG">
<path id="Vector_131" d="M465 156.524C475.783 156.524 484.524 147.783 484.524 137C484.524 126.217 475.783 117.476 465 117.476C454.217 117.476 445.476 126.217 445.476 137C445.476 147.783 454.217 156.524 465 156.524Z" fill="white"/>
<path id="Vector_132" d="M465 117.952C468.767 117.952 472.45 119.07 475.582 121.162C478.715 123.255 481.156 126.23 482.598 129.711C484.039 133.191 484.417 137.021 483.682 140.716C482.947 144.411 481.133 147.805 478.469 150.469C475.805 153.133 472.411 154.947 468.716 155.682C465.021 156.417 461.191 156.039 457.711 154.598C454.23 153.156 451.255 150.715 449.162 147.582C447.07 144.45 445.952 140.767 445.952 137C445.952 131.948 447.959 127.103 451.531 123.531C455.103 119.959 459.948 117.952 465 117.952V117.952ZM465 117C461.044 117 457.178 118.173 453.889 120.371C450.6 122.568 448.036 125.692 446.522 129.346C445.009 133.001 444.613 137.022 445.384 140.902C446.156 144.781 448.061 148.345 450.858 151.142C453.655 153.939 457.219 155.844 461.098 156.616C464.978 157.387 468.999 156.991 472.654 155.478C476.308 153.964 479.432 151.4 481.629 148.111C483.827 144.822 485 140.956 485 137C485 131.696 482.893 126.609 479.142 122.858C475.391 119.107 470.304 117 465 117V117Z" fill="white"/>
<path id="Vector_133" d="M465 117.952C461.233 117.952 457.55 119.07 454.418 121.162C451.285 123.255 448.844 126.23 447.402 129.711C445.961 133.191 445.583 137.021 446.318 140.716C447.053 144.411 448.867 147.805 451.531 150.469C454.195 153.133 457.589 154.947 461.284 155.682C464.979 156.417 468.809 156.039 472.289 154.598C475.77 153.156 478.745 150.715 480.838 147.582C482.931 144.45 484.048 140.767 484.048 137C484.048 134.499 483.555 132.022 482.598 129.711C481.64 127.4 480.237 125.3 478.469 123.531C476.7 121.763 474.6 120.36 472.289 119.402C469.978 118.445 467.501 117.952 465 117.952V117.952ZM465 154.457C461.547 154.457 458.172 153.433 455.301 151.515C452.431 149.597 450.193 146.87 448.872 143.681C447.55 140.491 447.205 136.981 447.878 133.594C448.552 130.208 450.215 127.097 452.656 124.656C455.097 122.215 458.208 120.552 461.594 119.878C464.981 119.205 468.491 119.55 471.681 120.872C474.87 122.193 477.597 124.431 479.515 127.301C481.433 130.172 482.457 133.547 482.457 137C482.452 141.628 480.611 146.066 477.339 149.339C474.066 152.611 469.628 154.452 465 154.457V154.457Z" fill="#2D5967"/>
<path id="Vector_134" d="M465.791 148.181V126.019L468.21 128.438L469.333 127.314L465 122.981L460.667 127.314L461.791 128.438L464.21 126.019V148.181L461.791 145.762L460.667 146.886L465 151.219L469.333 146.886L468.21 145.762L465.791 148.181Z" fill="#2D5967"/>
<path id="Vector_135" d="M459.809 132.667L458.686 133.79L461.105 136.209H450.914V137.79H461.105L458.686 140.209L459.809 141.333L464.133 137L459.809 132.667Z" fill="#2D5967"/>
<path id="Vector_136" d="M468.895 136.209L471.314 133.79L470.191 132.667L465.867 137L470.191 141.333L471.314 140.209L468.895 137.79H479.086V136.209H468.895Z" fill="#2D5967"/>
</g>
<g id="Icon Text Label_12">
<text id="IconLabel_15" fill="black" xml:space="preserve" style="white-space: pre" font-family="Oracle Sans" font-size="16" letter-spacing="0em"><tspan x="448.836" y="174.816">DRG</tspan></text>
</g>
</g>
</g>
<path id="Vector 57" d="M753 146L484 146" stroke="#312D2A" stroke-width="2"/>
<path id="Vector 60" d="M444 146L112 146" stroke="#312D2A" stroke-width="2"/>
<path id="Vector 61" d="M444 146L112 146" stroke="#312D2A" stroke-width="2"/>
<path id="Vector 62" d="M74.5 232.5L74.5 201.5" stroke="#312D2A" stroke-width="2"/>
<path id="Vector 63" d="M74.2929 415.707C74.6834 416.098 75.3166 416.098 75.7071 415.707L82.0711 409.343C82.4616 408.953 82.4616 408.319 82.0711 407.929C81.6805 407.538 81.0474 407.538 80.6569 407.929L75 413.586L69.3431 407.929C68.9526 407.538 68.3195 407.538 67.9289 407.929C67.5384 408.319 67.5384 408.953 67.9289 409.343L74.2929 415.707ZM76 415L76 334L74 334L74 415L76 415Z" fill="#312D2A"/>
<path id="Vector 65" d="M226.707 337.293C226.317 336.902 225.683 336.902 225.293 337.293L218.929 343.657C218.538 344.047 218.538 344.681 218.929 345.071C219.319 345.462 219.953 345.462 220.343 345.071L226 339.414L231.657 345.071C232.047 345.462 232.681 345.462 233.071 345.071C233.462 344.681 233.462 344.047 233.071 343.657L226.707 337.293ZM225 338L225 432L227 432L227 338L225 338Z" fill="#312D2A"/>
<path id="Vector 66" d="M226.707 146.293C226.317 145.902 225.683 145.902 225.293 146.293L218.929 152.657C218.538 153.047 218.538 153.681 218.929 154.071C219.319 154.462 219.953 154.462 220.343 154.071L226 148.414L231.657 154.071C232.047 154.462 232.681 154.462 233.071 154.071C233.462 153.681 233.462 153.047 233.071 152.657L226.707 146.293ZM225 147L225 231L227 231L227 147L225 147Z" fill="#312D2A"/>
<path id="Vector 64" d="M198.207 457.457C198.598 457.067 198.598 456.433 198.207 456.043L191.843 449.679C191.453 449.288 190.819 449.288 190.429 449.679C190.038 450.069 190.038 450.703 190.429 451.093L196.086 456.75L190.429 462.407C190.038 462.797 190.038 463.431 190.429 463.821C190.819 464.212 191.453 464.212 191.843 463.821L198.207 457.457ZM108.293 263.793C107.902 264.183 107.902 264.817 108.293 265.207L114.657 271.571C115.047 271.962 115.681 271.962 116.071 271.571C116.462 271.181 116.462 270.547 116.071 270.157L110.414 264.5L116.071 258.843C116.462 258.453 116.462 257.819 116.071 257.429C115.681 257.038 115.047 257.038 114.657 257.429L108.293 263.793ZM154 264.5L155 264.5L155 263.5L154 263.5L154 264.5ZM154 456.75L153 456.75L153 457.75L154 457.75L154 456.75ZM154 263.5L109 263.5L109 265.5L154 265.5L154 263.5ZM197.5 455.75L154 455.75L154 457.75L197.5 457.75L197.5 455.75ZM155 456.75L155 264.5L153 264.5L153 456.75L155 456.75Z" fill="#312D2A"/>
<path id="Vector 58" d="M527 193L512.001 193L512 360L527 360" stroke="#312D2A" stroke-width="2" stroke-dasharray="4 4"/>
<path id="Vector 59" d="M482.793 272.293C482.402 272.683 482.402 273.317 482.793 273.707L489.157 280.071C489.547 280.462 490.181 280.462 490.571 280.071C490.962 279.681 490.962 279.047 490.571 278.657L484.914 273L490.571 267.343C490.962 266.953 490.962 266.319 490.571 265.929C490.181 265.538 489.547 265.538 489.157 265.929L482.793 272.293ZM483.5 274L485.312 274L485.312 272L483.5 272L483.5 274ZM488.937 274L492.562 274L492.562 272L488.937 272L488.937 274ZM496.187 274L499.812 274L499.812 272L496.187 272L496.187 274ZM503.437 274L507.062 274L507.062 272L503.437 272L503.437 274ZM510.687 274L512.5 274L512.5 272L510.687 272L510.687 274Z" fill="#312D2A"/>
<g id="Special Connector">
<path id="Vector 45" d="M307.5 146H436.32" stroke="#312D2A" stroke-width="2"/>
<g id="Group 1245">
<g id="Connector Line Label">
<rect width="80" height="14" transform="translate(331.5 139)" fill="white"/>
<text id="Line Label" fill="#312D2A" xml:space="preserve" style="white-space: pre" font-family="Oracle Sans" font-size="14" letter-spacing="0em"><tspan x="335.796" y="151.089">Site-to-Site</tspan></text>
</g>
<g id="Connector Line Label_2">
<rect width="53" height="14" transform="translate(344.5 153)" fill="white"/>
<text id="Line Label_2" fill="#312D2A" xml:space="preserve" style="white-space: pre" font-family="Oracle Sans" font-size="14" letter-spacing="0em"><tspan x="348.715" y="165.089">VPN or</tspan></text>
</g>
<g id="Connector Line Label_3">
<rect width="88" height="14" transform="translate(327.5 167)" fill="white"/>
<text id="Line Label_3" fill="#312D2A" xml:space="preserve" style="white-space: pre" font-family="Oracle Sans" font-size="14" letter-spacing="0em"><tspan x="331.872" y="179.089">FastConnect</tspan></text>
</g>
</g>
</g>
<g id="Connector Line Label_4">
<rect width="64" height="14" transform="translate(44 369)" fill="#F5F4F2"/>
<text id="Line Label_4" fill="#312D2A" xml:space="preserve" style="white-space: pre" font-family="Oracle Sans" font-size="14" letter-spacing="0em"><tspan x="48.3965" y="381.089">SQL*Net</tspan></text>
</g>
<g id="Connector Line Label_5">
<rect width="64" height="14" transform="translate(121 369)" fill="#F5F4F2"/>
<text id="Line Label_5" fill="#312D2A" xml:space="preserve" style="white-space: pre" font-family="Oracle Sans" font-size="14" letter-spacing="0em"><tspan x="125.396" y="381.089">SQL*Net</tspan></text>
</g>
<g id="IAM">
<g id="Services/IAM">
<g id="Group 22">
<path id="Vector_137" d="M559.267 476.984C551.633 473.18 547.076 467.199 546.7 460.627V454.887H514.671V422.172H561.714V443.342L573.326 448.382V460.64C572.95 467.266 568.367 473.234 560.759 477.038L560.02 477.414L559.267 476.984Z" fill="white"/>
<path id="Vector_138" d="M561.043 422.844V443.785L572.683 448.772V460.586C572.32 466.93 567.884 472.683 560.492 476.379L560.048 476.608L559.605 476.379C552.212 472.683 547.763 466.97 547.401 460.586V454.215H515.344V422.844H561.043ZM562.387 421.5H514V455.559H546.03V460.479V460.559C546.433 467.427 551.137 473.597 558.973 477.522L559.417 477.737L560.022 478.046L560.613 477.737L561.056 477.522C568.892 473.597 573.61 467.427 574 460.599V447.884L573.194 447.535L562.387 442.898V421.5Z" fill="white"/>
<path id="Vector_139" d="M517.334 424.834H559.027V442.159L560.022 441.729L561.016 442.159V422.844H515.344V454.215H545.882V452.226H517.334V424.834Z" fill="#2D5967"/>
<path id="Vector_140" d="M560.02 443.355L547.372 448.732V460.546C547.735 466.89 552.184 472.643 559.577 476.339L560.02 476.568L560.464 476.339C567.856 472.643 572.292 466.931 572.655 460.546V448.772L560.02 443.355ZM570.665 460.479C570.37 465.667 566.875 470.452 561.015 473.812V456.931H559.026V473.839C553.165 470.479 549.617 465.694 549.362 460.506V450.076L559.026 445.936V454.807H561.042V445.936L570.692 450.076L570.665 460.479Z" fill="#2D5967"/>
<path id="Vector_141" d="M542.293 431.54L540.881 432.938L544.591 436.648L551.715 429.524L550.317 428.113L544.591 433.839L542.293 431.54Z" fill="#2D5967"/>
<path id="Vector_142" d="M549.915 445.102L547.307 442.508L549.915 439.9L548.517 438.489L545.909 441.096L543.302 438.489L541.891 439.9L544.498 442.508L541.891 445.102L543.302 446.513L545.909 443.906L548.517 446.513L549.915 445.102Z" fill="#2D5967"/>
<path id="Vector_143" d="M535.504 447.845V443.49C535.504 442.584 535.144 441.716 534.504 441.076C533.864 440.435 532.996 440.076 532.09 440.076H525.37C524.464 440.076 523.596 440.435 522.956 441.076C522.315 441.716 521.956 442.584 521.956 443.49V447.845H523.878V443.49C523.878 443.301 523.915 443.114 523.987 442.939C524.059 442.765 524.165 442.606 524.299 442.473C524.433 442.339 524.591 442.233 524.766 442.161C524.94 442.089 525.127 442.052 525.316 442.052H532.036C532.225 442.052 532.411 442.089 532.585 442.161C532.758 442.234 532.916 442.34 533.049 442.474C533.181 442.607 533.286 442.766 533.356 442.94C533.427 443.115 533.463 443.302 533.461 443.49V447.845H535.504Z" fill="#2D5967"/>
<path id="Vector_144" d="M528.705 438.462C529.62 438.462 530.513 438.191 531.274 437.683C532.034 437.175 532.627 436.453 532.977 435.608C533.327 434.763 533.418 433.833 533.24 432.936C533.061 432.04 532.621 431.216 531.974 430.569C531.328 429.922 530.504 429.482 529.607 429.304C528.71 429.125 527.781 429.217 526.936 429.567C526.091 429.917 525.369 430.509 524.861 431.27C524.353 432.03 524.081 432.924 524.081 433.839C524.081 435.065 524.569 436.241 525.436 437.108C526.303 437.975 527.479 438.462 528.705 438.462ZM528.705 431.204C529.237 431.204 529.756 431.362 530.199 431.657C530.641 431.953 530.985 432.372 531.189 432.864C531.392 433.355 531.445 433.895 531.342 434.417C531.238 434.938 530.982 435.417 530.606 435.793C530.23 436.169 529.751 436.425 529.23 436.529C528.708 436.633 528.168 436.579 527.676 436.376C527.185 436.172 526.765 435.828 526.47 435.386C526.175 434.944 526.017 434.424 526.017 433.892C526.017 433.179 526.3 432.496 526.804 431.991C527.308 431.487 527.992 431.204 528.705 431.204Z" fill="#2D5967"/>
</g>
</g>
<g id="Icon Text Label_13">
<text id="IconLabel_16" fill="black" xml:space="preserve" style="white-space: pre" font-family="Oracle Sans" font-size="16" letter-spacing="0em"><tspan x="529.422" y="495.816">IAM</tspan></text>
<text id="IconLabel_17" fill="black" xml:space="preserve" style="white-space: pre" font-family="Oracle Sans" font-size="16" letter-spacing="0em"><tspan x="517.789" y="511.816">Service</tspan></text>
</g>
</g>
<g id="Auditing">
<g id="OCI- Services/Audit">
<g id="Group_23">
<g id="Group_24">
<g id="Group_25">
<path id="Vector_145" d="M604.857 477.286H604.571C603 477.143 601.857 475.857 601.857 474.143V421.857C601.857 420.143 603.286 418.714 605 418.714H657.429C659.143 418.714 660.571 420.143 660.571 421.857V477.286H604.857Z" fill="white"/>
<path id="Vector_146" d="M657.143 419.429C658.429 419.429 659.571 420.571 659.571 421.857V476.571H657.429H604.857H604.571C603.286 476.429 602.429 475.429 602.429 474.143V421.857C602.429 420.571 603.571 419.429 604.857 419.429H657.143ZM657.143 418H604.857C602.714 418 601 419.714 601 421.857V474.286C601 476.143 602.429 477.857 604.429 478H604.714H657.429H659.571H661V476.571V421.857C661 419.714 659.286 418 657.143 418Z" fill="white"/>
</g>
<g id="Group_26">
<g id="Group_27">
<path id="Vector_147" d="M657.143 419.429H604.857C603.571 419.429 602.429 420.571 602.429 421.857V474.286C602.429 475.429 603.571 476.571 604.857 476.571V474.429C604.714 474.429 604.571 474.286 604.571 474.143V435.857H657.429V462.857H659.571V421.857C659.571 420.571 658.429 419.429 657.143 419.429ZM657.429 433.714H604.571V421.857C604.571 421.714 604.714 421.571 604.857 421.571H657.286C657.429 421.571 657.571 421.714 657.571 421.857L657.429 433.714Z" fill="#2D5967"/>
</g>
<path id="Vector_148" d="M649 444H612.429V446.143H649V444Z" fill="#2D5967"/>
<path id="Vector_149" d="M637.857 455.714H612.429V457.857H637.857V455.714Z" fill="#2D5967"/>
<path id="Vector_150" d="M631.143 467H612.429V469.143H631.143V467Z" fill="#2D5967"/>
<path id="Vector_151" d="M607.143 431H614V424.143H607.143V431ZM609.286 426.286H611.857V428.857H609.286V426.286Z" fill="#2D5967"/>
</g>
</g>
</g>
</g>
<g id="Icon Text Label_14">
<text id="IconLabel_18" fill="black" xml:space="preserve" style="white-space: pre" font-family="Oracle Sans" font-size="16" letter-spacing="0em"><tspan x="600.078" y="495.816">Auditing</tspan></text>
<text id="IconLabel_19" fill="black" xml:space="preserve" style="white-space: pre" font-family="Oracle Sans" font-size="16" letter-spacing="0em"><tspan x="604.789" y="511.816">Service</tspan></text>
</g>
</g>
</g>
<defs>
<clipPath id="clip0_12250_300411">
<rect width="968" height="544" fill="white"/>
</clipPath>
</defs>
</svg>
