<svg width="1024" height="824" viewBox="0 0 1024 824" fill="none" xmlns="http://www.w3.org/2000/svg">
<g id="db-autonomous-recovery-dbatazure">
<rect width="1024" height="824" fill="white"/>
<g id="Icon Master">
<g id="Azure-DNS-Zones">
<g id="Group 1495">
<path id="f57e105d-6d2d-4ad7-b8c3-c10684c9f9b8" d="M50.5424 293.637C44.2415 298.523 36.2582 300.704 28.3485 299.703C20.4389 298.702 13.251 294.6 8.36592 288.299C3.48089 281.998 1.29893 274.015 2.30007 266.105C3.3012 258.196 7.40341 251.008 13.7043 246.123L14.0224 245.911C20.3594 241.18 28.3056 239.139 36.1379 240.228C43.9703 241.318 51.0575 245.45 55.863 251.731C60.6684 258.011 62.8048 265.932 61.8088 273.777C60.8128 281.621 56.7648 288.757 50.5424 293.637Z" fill="url(#paint0_radial_18135_4059)"/>
<path id="Vector" d="M32.1224 242.693C26.7454 242.693 21.4891 244.288 17.0183 247.275C12.5475 250.262 9.06287 254.508 7.00517 259.476C4.94748 264.444 4.40909 269.91 5.4581 275.184C6.5071 280.458 9.09638 285.302 12.8985 289.104C16.7006 292.906 21.5448 295.495 26.8185 296.544C32.0922 297.593 37.5585 297.055 42.5263 294.997C47.494 292.94 51.7399 289.455 54.7273 284.984C57.7146 280.513 59.309 275.257 59.309 269.88C59.2997 262.673 56.4324 255.763 51.3359 250.666C46.2395 245.57 39.3299 242.703 32.1224 242.693ZM50.3293 251.85C47.9588 253.184 45.3941 254.138 42.7284 254.678C41.8058 251.269 40.3116 248.042 38.3092 245.133C42.8569 246.225 47.0158 248.549 50.3293 251.85ZM32.1224 244.214C33.4135 244.213 34.7024 244.319 35.9759 244.532C38.5616 247.61 40.4115 251.237 41.3849 255.138C35.0154 256.305 28.4869 256.305 22.1174 255.138C23.0882 251.314 24.9134 247.76 27.4557 244.744C28.9921 244.426 30.554 244.249 32.1224 244.214ZM25.0517 245.133C23.0251 248.011 21.5065 251.216 20.5619 254.607C18.1739 254.123 15.8964 253.2 13.8447 251.885C16.9433 248.715 20.8013 246.391 25.0517 245.133ZM13.4558 287.557C15.3696 286.28 17.5032 285.369 19.7487 284.87C20.6254 288.383 22.2538 291.663 24.5214 294.486C20.2966 293.17 16.4844 290.783 13.4558 287.557ZM36.1173 295.334C34.7934 295.512 33.4575 295.582 32.1224 295.547C30.4114 295.551 28.7049 295.373 27.0315 295.016C24.0724 292.131 22.0203 288.445 21.1275 284.41C27.9863 283.013 35.0564 283.013 41.9152 284.41C41.0026 288.453 38.9255 292.141 35.9405 295.016L36.1173 295.334ZM38.6981 294.769C41.0355 291.87 42.7017 288.489 43.5768 284.87C46.0776 285.457 48.4659 286.448 50.6475 287.804C47.3742 291.143 43.2369 293.505 38.6981 294.627V294.769ZM43.9304 283.385C44.2132 282.112 44.4607 280.804 44.6374 279.425L43.0112 279.814C42.8344 280.91 42.6576 282.006 42.4102 283.031C35.3067 281.582 27.9836 281.582 20.88 283.031C20.6326 282.077 20.4558 281.052 20.279 279.991C20.2619 279.886 20.2619 279.778 20.279 279.673L18.6528 279.213C18.6332 279.543 18.6332 279.874 18.6528 280.203C18.6528 281.334 19.0417 282.395 19.2538 283.42C16.7312 283.976 14.3336 284.995 12.1831 286.425C8.28276 281.746 6.1792 275.829 6.25048 269.738C6.32176 263.646 8.56322 257.78 12.572 253.193C14.8204 254.641 17.3115 255.671 19.9255 256.234C19.678 257.082 19.4659 258.001 19.2891 258.921C19.1124 259.84 19.2891 259.804 19.0063 260.229L20.6679 259.84V259.239C20.88 258.32 21.0922 257.436 21.3396 256.587C24.8952 257.24 28.5085 257.524 32.1224 257.436C35.4199 257.436 38.7102 257.128 41.9506 256.516C42.1981 257.471 42.4455 258.496 42.6576 259.522L44.2839 259.91C44.0246 258.638 43.7418 257.459 43.4354 256.375C46.3009 255.746 49.0465 254.66 51.5667 253.158C55.6495 257.781 57.9204 263.726 57.9594 269.893C57.9983 276.061 55.8028 282.034 51.7788 286.708C49.3725 285.135 46.7197 283.976 43.9304 283.279V283.385Z" fill="#5EA0EF"/>
<path id="Vector_2" d="M13.3513 262.809C14.7095 262.615 16.0802 262.52 17.4523 262.526C19.6274 262.353 21.7876 263.009 23.4977 264.365C24.1765 265.039 24.7114 265.844 25.07 266.732C25.4285 267.619 25.6032 268.57 25.5835 269.526C25.6377 270.589 25.4743 271.651 25.1035 272.648C24.7327 273.645 24.1622 274.556 23.427 275.324C21.5997 276.872 19.2404 277.646 16.8512 277.481C15.6705 277.486 14.4903 277.427 13.3159 277.304L13.3513 262.809ZM15.2957 275.996C15.9431 276.041 16.5928 276.041 17.2401 275.996C18.101 276.094 18.9728 275.995 19.7899 275.706C20.607 275.418 21.3481 274.949 21.9573 274.332C22.5665 273.716 23.028 272.97 23.3071 272.15C23.5862 271.33 23.6755 270.457 23.5684 269.597C23.6409 268.799 23.5315 267.995 23.2484 267.245C22.9654 266.495 22.5161 265.819 21.9342 265.268C21.3524 264.717 20.6531 264.304 19.8891 264.062C19.1251 263.82 18.3161 263.754 17.523 263.87C16.7824 263.796 16.0363 263.796 15.2957 263.87V275.996Z" fill="white"/>
<path id="Vector_3" d="M28.0912 277.339V262.456H30.177L34.9497 269.88C35.9483 271.435 36.8458 273.053 37.6366 274.723C37.4598 272.743 37.4244 270.94 37.4244 268.607V262.456H39.1921V277.339H37.2477L32.5811 269.88C31.5558 268.218 30.5659 266.344 29.7881 264.93C29.7881 266.804 29.7881 268.466 29.7881 271.082V277.445L28.0912 277.339Z" fill="white"/>
<path id="Vector_4" d="M42.3403 275.006C43.4145 275.629 44.6339 275.958 45.8757 275.96C47.8555 275.96 48.9868 274.935 48.9868 273.415C48.9868 271.895 48.209 271.223 46.1939 270.481C44.1787 269.738 42.2343 268.359 42.2343 266.238C42.2684 265.648 42.4234 265.072 42.6895 264.544C42.9556 264.017 43.3273 263.55 43.7814 263.172C44.2355 262.794 44.7624 262.514 45.3294 262.348C45.8965 262.182 46.4915 262.134 47.0777 262.208C48.2146 262.176 49.3424 262.418 50.3655 262.915L49.7999 264.506C48.9333 264.032 47.9594 263.788 46.9716 263.799C44.9211 263.799 44.1434 265.001 44.1434 266.026C44.1434 267.051 45.0625 268.112 47.113 268.89C49.1635 269.667 50.9312 271.082 50.9312 273.274C50.9312 275.465 49.2342 277.551 45.6989 277.551C44.3766 277.566 43.0731 277.237 41.9161 276.597L42.3403 275.006Z" fill="white"/>
</g>
</g>
</g>
<g id="Azure Cloud boxes">
<rect x="80.5" y="0.5" width="655" height="823" rx="3.5" fill="#ECF3FB"/>
<rect x="80.5" y="0.5" width="655" height="823" rx="3.5" stroke="#0078D7"/>
<text id="Azure Region" fill="#312D2A" xml:space="preserve" style="white-space: pre" font-family="Oracle Sans" font-size="16" font-weight="bold" letter-spacing="0em"><tspan x="88" y="21.816">Azure Region Primary</tspan></text>
</g>
<g id="OCI Section Boxes">
<rect x="752.5" y="0.5" width="271" height="823" rx="3.5" fill="#F5F4F2"/>
<rect x="752.5" y="0.5" width="271" height="823" rx="3.5" stroke="#9E9892"/>
<text id="OCI Region" fill="#312D2A" xml:space="preserve" style="white-space: pre" font-family="Oracle Sans" font-size="16" font-weight="bold" letter-spacing="0em"><tspan x="760" y="21.816">OCI Region</tspan></text>
</g>
<g id="Azure VNet">
<rect x="185" y="41" width="198" height="774" fill="white"/>
<rect x="185" y="41" width="198" height="774" stroke="#706E6F" stroke-width="2" stroke-dasharray="4 4"/>
<g id="VNet icon">
<rect id="White Vnet BG" x="331" y="38" width="45" height="6" fill="white"/>
<g id="Icon Master_2">
<g id="Azure_VNet">
<g id="Group">
<g id="Group_2">
<path id="Vector_5" d="M362.294 43.5453C363.725 43.5453 364.884 42.3856 364.884 40.955C364.884 39.5245 363.725 38.3647 362.294 38.3647C360.863 38.3647 359.704 39.5245 359.704 40.955C359.704 42.3856 360.863 43.5453 362.294 43.5453Z" fill="url(#paint1_linear_18135_4059)"/>
<path id="Vector_6" d="M354.125 43.5453C355.555 43.5453 356.715 42.3856 356.715 40.955C356.715 39.5245 355.555 38.3647 354.125 38.3647C352.694 38.3647 351.534 39.5245 351.534 40.955C351.534 42.3856 352.694 43.5453 354.125 43.5453Z" fill="url(#paint2_linear_18135_4059)"/>
<path id="Vector_7" d="M345.955 43.5453C347.386 43.5453 348.545 42.3856 348.545 40.955C348.545 39.5245 347.386 38.3647 345.955 38.3647C344.525 38.3647 343.365 39.5245 343.365 40.955C343.365 42.3856 344.525 43.5453 345.955 43.5453Z" fill="url(#paint3_linear_18135_4059)"/>
<path id="Vector_8" d="M347.748 51.3161L346.154 52.9102C345.955 52.9102 345.557 52.9102 345.357 52.7109L334.398 41.752C334 41.3535 334 40.5565 334.398 39.9587L335.993 38.564L347.748 50.3199C347.948 50.5191 347.948 50.9176 347.748 51.3161Z" fill="#50E6FF"/>
<path id="Vector_9" d="M346.154 29.1992L347.748 30.7933C347.948 30.9925 347.948 31.391 347.748 31.5903L335.993 43.3462L334.399 41.7522C333.801 41.1544 333.801 40.3574 334.399 39.9589L345.158 29.1992C345.357 29 345.756 29 346.154 29.1992Z" fill="#1490DF"/>
<path id="Vector_10" d="M372.057 38.3647L373.452 39.7595C374.05 40.3573 374.05 41.1543 373.452 41.5528L362.493 52.5117C362.294 52.7109 361.895 52.7109 361.497 52.5117L359.903 50.9177C359.704 50.7184 359.704 50.3199 359.903 49.9214L372.057 38.3647Z" fill="#50E6FF"/>
<path id="Vector_11" d="M373.651 41.7522L372.057 43.3462L360.501 31.7895C360.301 31.5903 360.301 31.1918 360.501 30.7933L361.895 29.1992C362.095 29 362.493 29 362.892 29.1992L373.651 39.9589C374.05 40.3574 374.05 41.1544 373.651 41.7522Z" fill="#1490DF"/>
</g>
</g>
</g>
</g>
</g>
<text id="VNet" fill="#706E6F" xml:space="preserve" style="white-space: pre" font-family="Oracle Sans" font-size="16" font-weight="600" letter-spacing="0em"><tspan x="193" y="62.816">VNet Primary</tspan></text>
</g>
<g id="Azure Subnet">
<rect x="192.5" y="72.5" width="175" height="311" fill="white"/>
<rect x="192.5" y="72.5" width="175" height="311" stroke="#706E6F" stroke-dasharray="8 4"/>
<text id="Azure subnet" fill="#706E6F" xml:space="preserve" style="white-space: pre" font-family="Oracle Sans" font-size="16" font-weight="600" letter-spacing="0em"><tspan x="200" y="93.816">AKS subnet</tspan></text>
</g>
<g id="Azure Subnet_2">
<rect x="192.5" y="396.5" width="175" height="411" fill="white"/>
<rect x="192.5" y="396.5" width="175" height="411" stroke="#706E6F" stroke-dasharray="8 4"/>
<text id="Azure subnet_2" fill="#706E6F" xml:space="preserve" style="white-space: pre" font-family="Oracle Sans" font-size="16" font-weight="600" letter-spacing="0em"><tspan x="200" y="417.816">Client subnet</tspan></text>
<text id="Azure subnet_3" fill="#706E6F" xml:space="preserve" style="white-space: pre" font-family="Oracle Sans" font-size="16" font-weight="600" letter-spacing="0em"><tspan x="200" y="433.816">delegated</tspan></text>
</g>
<g id="Oracle Database@Azure">
<rect x="409" y="41" width="318" height="774" fill="white"/>
<rect x="409" y="41" width="318" height="774" stroke="#C8D0DD" stroke-width="2" stroke-dasharray="8 4"/>
<g id="VNet icon_2">
<rect id="White Vnet BG_2" x="682.001" y="38" width="34" height="6" fill="white"/>
<g id="Srv-Oracle Database@Azure">
<g id="Group_3">
<path id="Vector_12" d="M700.247 46.1521C692.755 46.1521 686.682 44.8352 686.682 43.2107V50.0585C686.682 51.683 692.755 52.9999 700.247 52.9999C707.739 52.9999 713.812 51.683 713.812 50.0585V43.2107C713.812 44.8352 707.739 46.1521 700.247 46.1521ZM711.661 47.5464C710.636 47.9006 709.574 48.1794 708.507 48.3764C707.234 48.6088 705.933 48.7283 704.636 48.7283C704.324 48.7283 704.069 48.476 704.069 48.1639C704.069 47.8519 704.322 47.5996 704.636 47.5996C705.864 47.5996 707.097 47.4867 708.303 47.2654C709.315 47.0794 710.32 46.8161 711.291 46.4797C711.588 46.3778 711.909 46.5328 712.013 46.8293C712.115 47.1237 711.96 47.4468 711.663 47.5487L711.661 47.5464ZM700.247 37.3456C692.755 37.3456 686.682 36.0287 686.682 34.4042V41.6149C686.682 43.2395 692.755 44.5541 700.247 44.5541C707.739 44.5541 713.812 43.2372 713.812 41.6127V34.402C713.812 36.0265 707.739 37.3434 700.247 37.3434V37.3456ZM711.661 38.979C710.634 39.3331 709.574 39.6119 708.507 39.8089C707.234 40.0413 705.931 40.1608 704.636 40.1608C704.324 40.1608 704.069 39.9085 704.069 39.5965C704.069 39.2844 704.322 39.0321 704.636 39.0321C705.864 39.0321 707.097 38.9192 708.303 38.6979C709.315 38.512 710.32 38.2486 711.291 37.9122C711.588 37.8104 711.909 37.9653 712.013 38.2619C712.117 38.5584 711.96 38.8794 711.663 38.9812L711.661 38.979ZM700.247 23.2981C692.755 23.2981 686.682 24.5995 686.682 26.753V32.8106C686.682 34.4352 692.755 35.7498 700.247 35.7498C707.739 35.7498 713.812 34.433 713.812 32.8084V26.9721C713.812 24.5973 707.739 23.2981 700.247 23.2981ZM711.661 30.6572C710.634 31.0113 709.574 31.2901 708.507 31.4871C707.234 31.7195 705.933 31.839 704.636 31.839C704.324 31.839 704.069 31.5867 704.069 31.2747C704.069 30.9626 704.322 30.7103 704.636 30.7103C705.864 30.7103 707.097 30.5974 708.303 30.3761C709.313 30.1902 710.32 29.9268 711.291 29.5904C711.588 29.4886 711.909 29.6435 712.013 29.9401C712.115 30.2344 711.96 30.5576 711.663 30.6594L711.661 30.6572ZM700.247 28.6542C693.499 28.6542 688.03 27.4258 688.03 26.6977C688.03 25.8035 693.499 24.4224 700.247 24.4224C706.995 24.4224 712.464 25.8588 712.464 26.6977C712.464 27.459 706.995 28.6542 700.247 28.6542Z" fill="url(#paint4_linear_18135_4059)"/>
<path id="Vector_13" d="M686.682 26.6956V26.5916C686.682 24.5842 691.968 23.3182 698.76 23.1567C697.979 21.4038 696.343 20.1046 694.342 19.839C694.172 15.9282 690.892 12.8828 686.981 13.0045C683.869 12.9492 681.061 14.8636 679.976 17.7807C676.654 18.1813 674.124 20.9523 674.027 24.2965C674.175 28.0767 677.353 31.0225 681.134 30.8875C681.344 30.8875 681.559 30.8787 681.758 30.861H686.68L686.682 26.6956Z" fill="url(#paint5_linear_18135_4059)"/>
</g>
</g>
</g>
<text id="Oracle Database@Azure_2" fill="#312D2A" xml:space="preserve" style="white-space: pre" font-family="Oracle Sans" font-size="16" font-weight="600" letter-spacing="0em"><tspan x="417" y="62.816">OCI child site</tspan></text>
</g>
<g id="OCI Section Boxes_2">
<rect x="376.5" y="72.5" width="383" height="735" stroke="#AA643B" stroke-dasharray="6 4"/>
<text id="Compartment" fill="#AE562C" xml:space="preserve" style="white-space: pre" font-family="Oracle Sans" font-size="16" font-weight="bold" letter-spacing="0em"><tspan x="483.031" y="93.816">OCI managed network</tspan></text>
</g>
<g id="OCI Section Boxes_3">
<rect x="416.5" y="104.5" width="431" height="279" rx="3.5" fill="#F5F4F2" fill-opacity="0.6"/>
<rect x="416.5" y="104.5" width="431" height="279" rx="3.5" stroke="#9E9892"/>
<text id="OCI Region_2" fill="black" xml:space="preserve" style="white-space: pre" font-family="Oracle Sans" font-size="18" font-weight="bold" letter-spacing="0px"><tspan x="424" y="130.043">Customer Tenancy</tspan></text>
</g>
<g id="OCI Section Boxes_4">
<rect x="416.5" y="632.5" width="599" height="167" rx="3.5" fill="#F5F4F2" fill-opacity="0.7"/>
<rect x="416.5" y="632.5" width="599" height="167" rx="3.5" stroke="#9E9892"/>
<text id="OCI Region_3" fill="black" xml:space="preserve" style="white-space: pre" font-family="Oracle Sans" font-size="18" font-weight="bold" letter-spacing="0px"><tspan x="424" y="658.043">OCI managed Tenancy</tspan></text>
</g>
<g id="VCN box_New">
<rect id="Rectangle 28" x="425" y="144.968" width="414" height="230" stroke="#AA643B" stroke-width="2" stroke-dasharray="8 4"/>
<g id="Icon Master_3">
<g id="Virtual-Cloud-Network-VCN_red">
<g id="Group 39">
<path id="Vector_14" d="M818.416 167.51C817.16 167.51 815.944 167.077 814.969 166.285C813.995 165.493 813.323 164.39 813.066 163.16H806.595C806.408 164.054 806 164.887 805.408 165.583C804.816 166.279 804.06 166.816 803.208 167.144C802.356 167.472 801.435 167.582 800.53 167.463C799.625 167.343 798.764 166.999 798.026 166.462C797.287 165.924 796.695 165.21 796.304 164.385C795.912 163.56 795.733 162.65 795.783 161.738C795.833 160.825 796.111 159.94 796.59 159.163C797.07 158.386 797.737 157.741 798.529 157.288L796.533 151.141C796.336 151.155 796.138 151.155 795.941 151.141C795.053 151.143 794.179 150.929 793.392 150.517C792.606 150.105 791.932 149.508 791.428 148.777C790.923 148.046 790.605 147.203 790.499 146.321C790.394 145.439 790.504 144.545 790.821 143.715C791.138 142.886 791.652 142.146 792.319 141.56C792.986 140.973 793.785 140.558 794.648 140.35C795.511 140.142 796.411 140.148 797.272 140.366C798.132 140.584 798.927 141.008 799.586 141.602L804.845 137.873C804.527 137.167 804.363 136.403 804.362 135.629C804.362 134.178 804.938 132.786 805.964 131.76C806.989 130.734 808.38 130.158 809.83 130.158C811.281 130.158 812.672 130.734 813.697 131.76C814.723 132.786 815.299 134.178 815.299 135.629C815.301 136.402 815.139 137.167 814.825 137.873L820.093 141.639C821.088 140.726 822.388 140.218 823.738 140.216C825.188 140.216 826.579 140.793 827.605 141.819C828.63 142.845 829.206 144.237 829.206 145.688C829.206 147.139 828.63 148.531 827.605 149.557C826.579 150.583 825.188 151.159 823.738 151.159C823.547 151.159 823.346 151.159 823.155 151.159L821.15 157.306C822.199 157.905 823.02 158.835 823.485 159.951C823.95 161.066 824.032 162.304 823.72 163.471C823.408 164.639 822.718 165.67 821.759 166.404C820.799 167.138 819.624 167.533 818.416 167.528V167.51Z" fill="white"/>
<path id="Vector_15" d="M809.84 130.577C810.707 130.579 811.56 130.806 812.314 131.236C813.068 131.665 813.697 132.283 814.142 133.029C814.586 133.775 814.829 134.623 814.849 135.491C814.868 136.359 814.662 137.217 814.251 137.982L820.093 142.231C820.665 141.632 821.377 141.184 822.164 140.928C822.951 140.671 823.79 140.614 824.605 140.761C825.42 140.908 826.186 141.254 826.835 141.77C827.483 142.285 827.994 142.954 828.321 143.715C828.648 144.476 828.782 145.307 828.71 146.132C828.638 146.958 828.363 147.753 827.909 148.446C827.455 149.139 826.836 149.709 826.109 150.104C825.381 150.5 824.566 150.709 823.738 150.712C823.433 150.717 823.128 150.692 822.827 150.639L820.594 157.524C821.375 157.901 822.045 158.475 822.538 159.188C823.032 159.902 823.332 160.731 823.409 161.595C823.486 162.459 823.338 163.329 822.979 164.119C822.62 164.908 822.062 165.591 821.36 166.101C820.659 166.611 819.837 166.929 818.975 167.026C818.113 167.123 817.241 166.994 816.444 166.653C815.647 166.312 814.952 165.769 814.427 165.079C813.902 164.388 813.565 163.573 813.449 162.713H806.212C806.095 163.573 805.757 164.388 805.231 165.078C804.706 165.768 804.01 166.31 803.212 166.65C802.414 166.991 801.542 167.118 800.68 167.02C799.818 166.922 798.996 166.603 798.295 166.092C797.594 165.581 797.037 164.897 796.679 164.106C796.322 163.316 796.175 162.446 796.253 161.582C796.332 160.718 796.634 159.889 797.128 159.176C797.623 158.463 798.294 157.891 799.076 157.515L796.843 150.639C796.543 150.695 796.237 150.723 795.932 150.721C795.101 150.72 794.284 150.512 793.553 150.117C792.822 149.722 792.201 149.152 791.745 148.457C791.289 147.763 791.011 146.966 790.939 146.138C790.866 145.31 790.999 144.477 791.327 143.713C791.655 142.95 792.167 142.279 792.817 141.762C793.468 141.245 794.236 140.898 795.054 140.751C795.871 140.604 796.712 140.663 797.502 140.921C798.291 141.179 799.005 141.63 799.577 142.231L805.419 137.982C805.008 137.216 804.802 136.358 804.821 135.489C804.841 134.62 805.085 133.771 805.531 133.025C805.976 132.279 806.607 131.661 807.362 131.232C808.118 130.803 808.971 130.577 809.84 130.577ZM809.84 129.665C808.268 129.665 806.76 130.289 805.647 131.401C804.535 132.512 803.909 134.02 803.906 135.593C803.906 136.306 804.035 137.014 804.289 137.681L799.632 141.055C798.891 140.464 798.019 140.059 797.089 139.874C796.16 139.689 795.199 139.73 794.288 139.993C793.378 140.256 792.543 140.733 791.855 141.385C791.166 142.037 790.644 142.844 790.332 143.74C790.019 144.635 789.926 145.593 790.059 146.532C790.192 147.471 790.548 148.364 791.098 149.137C791.647 149.91 792.373 150.54 793.216 150.974C794.059 151.409 794.993 151.635 795.941 151.633H796.205L798.028 157.105C797.23 157.633 796.572 158.347 796.11 159.185C795.648 160.023 795.396 160.961 795.375 161.918C795.354 162.875 795.564 163.823 795.989 164.68C796.414 165.538 797.04 166.28 797.814 166.843C798.588 167.406 799.486 167.772 800.433 167.912C801.379 168.052 802.345 167.96 803.249 167.645C804.152 167.329 804.965 166.8 805.62 166.102C806.274 165.403 806.749 164.557 807.005 163.634H812.747C813.001 164.56 813.476 165.41 814.13 166.112C814.784 166.814 815.599 167.346 816.504 167.664C817.41 167.981 818.378 168.075 819.328 167.936C820.277 167.797 821.178 167.429 821.954 166.865C822.73 166.301 823.358 165.558 823.784 164.697C824.21 163.837 824.421 162.887 824.4 161.927C824.378 160.968 824.124 160.028 823.66 159.188C823.195 158.348 822.534 157.633 821.733 157.105L823.556 151.633H823.738C824.544 151.678 825.35 151.558 826.108 151.28C826.865 151.003 827.558 150.573 828.144 150.018C828.73 149.464 829.197 148.795 829.516 148.053C829.835 147.312 830 146.513 830 145.706C830 144.899 829.835 144.1 829.516 143.358C829.197 142.617 828.73 141.948 828.144 141.393C827.558 140.838 826.865 140.409 826.108 140.131C825.35 139.854 824.544 139.734 823.738 139.778C822.396 139.775 821.093 140.232 820.047 141.073L815.399 137.699C815.646 137.031 815.772 136.324 815.773 135.611C815.774 134.83 815.621 134.057 815.324 133.336C815.026 132.615 814.589 131.959 814.038 131.407C813.487 130.855 812.833 130.417 812.112 130.118C811.392 129.819 810.619 129.665 809.84 129.665V129.665Z" fill="white"/>
<path id="Vector_16" d="M823.739 140.671C823.057 140.669 822.382 140.807 821.755 141.075C821.128 141.343 820.563 141.736 820.093 142.23L814.251 137.981C814.665 137.215 814.874 136.355 814.856 135.485C814.838 134.615 814.595 133.764 814.15 133.016C813.705 132.269 813.073 131.649 812.317 131.219C811.56 130.789 810.705 130.563 809.835 130.563C808.966 130.563 808.111 130.789 807.354 131.219C806.598 131.649 805.966 132.269 805.521 133.016C805.076 133.764 804.832 134.615 804.815 135.485C804.797 136.355 805.005 137.215 805.42 137.981L799.569 142.23C798.996 141.633 798.284 141.188 797.497 140.933C796.709 140.678 795.871 140.622 795.058 140.77C794.244 140.918 793.479 141.265 792.832 141.781C792.184 142.296 791.675 142.964 791.348 143.725C791.022 144.485 790.888 145.315 790.96 146.14C791.032 146.964 791.306 147.759 791.759 148.451C792.212 149.144 792.83 149.714 793.556 150.11C794.283 150.505 795.096 150.715 795.923 150.72C796.229 150.722 796.534 150.694 796.835 150.638L799.067 157.505C798.286 157.881 797.614 158.453 797.12 159.166C796.625 159.878 796.323 160.707 796.245 161.572C796.166 162.436 796.313 163.306 796.671 164.096C797.029 164.887 797.585 165.571 798.287 166.082C798.988 166.592 799.809 166.912 800.671 167.01C801.533 167.108 802.405 166.981 803.203 166.64C804.001 166.3 804.697 165.758 805.223 165.068C805.749 164.378 806.087 163.563 806.204 162.703H813.44C813.556 163.563 813.893 164.378 814.418 165.068C814.943 165.759 815.638 166.301 816.435 166.643C817.233 166.984 818.105 167.113 818.966 167.016C819.828 166.919 820.65 166.601 821.352 166.091C822.054 165.581 822.611 164.898 822.97 164.108C823.329 163.319 823.477 162.449 823.4 161.585C823.323 160.721 823.023 159.891 822.53 159.178C822.036 158.464 821.366 157.891 820.585 157.514L822.827 150.638C823.128 150.694 823.433 150.722 823.739 150.72C824.422 150.762 825.107 150.662 825.751 150.429C826.395 150.196 826.985 149.833 827.483 149.363C827.982 148.893 828.379 148.326 828.651 147.697C828.923 147.068 829.063 146.39 829.063 145.705C829.063 145.019 828.923 144.341 828.651 143.712C828.379 143.083 827.982 142.516 827.483 142.046C826.985 141.577 826.395 141.214 825.751 140.98C825.107 140.747 824.422 140.648 823.739 140.689V140.671ZM818.416 165.712C817.695 165.712 816.99 165.498 816.391 165.098C815.791 164.697 815.324 164.127 815.048 163.461C814.772 162.794 814.7 162.061 814.841 161.353C814.981 160.645 815.328 159.996 815.838 159.485C816.348 158.975 816.998 158.628 817.705 158.487C818.412 158.346 819.145 158.419 819.811 158.695C820.477 158.971 821.047 159.438 821.447 160.038C821.848 160.638 822.062 161.343 822.062 162.065C822.062 163.032 821.678 163.96 820.994 164.644C820.31 165.328 819.383 165.712 818.416 165.712ZM806.213 161.362C806.063 160.23 805.529 159.184 804.7 158.399L807.434 154.578C808.167 154.967 808.983 155.17 809.813 155.171C810.639 155.173 811.454 154.97 812.182 154.578L814.916 158.399C814.085 159.183 813.547 160.229 813.394 161.362H806.213ZM797.564 162.037C797.564 161.316 797.777 160.611 798.178 160.011C798.579 159.411 799.148 158.943 799.814 158.667C800.48 158.391 801.213 158.319 801.92 158.46C802.628 158.6 803.277 158.948 803.787 159.458C804.297 159.968 804.644 160.618 804.785 161.326C804.925 162.033 804.853 162.767 804.577 163.433C804.301 164.1 803.834 164.669 803.235 165.07C802.635 165.471 801.93 165.685 801.209 165.685C800.242 165.685 799.315 165.301 798.631 164.617C797.948 163.933 797.564 163.005 797.564 162.037ZM795.941 142.021C796.662 142.021 797.367 142.234 797.967 142.635C798.566 143.036 799.033 143.606 799.309 144.272C799.585 144.939 799.658 145.672 799.517 146.38C799.376 147.087 799.029 147.737 798.519 148.248C798.009 148.758 797.36 149.105 796.653 149.246C795.945 149.387 795.212 149.314 794.546 149.038C793.88 148.762 793.311 148.295 792.91 147.695C792.51 147.095 792.296 146.39 792.296 145.668C792.296 144.701 792.68 143.773 793.364 143.089C794.047 142.405 794.974 142.021 795.941 142.021ZM806.158 135.637C806.158 134.916 806.372 134.21 806.772 133.611C807.173 133.011 807.742 132.543 808.408 132.267C809.075 131.991 809.808 131.919 810.515 132.059C811.222 132.2 811.871 132.548 812.381 133.058C812.891 133.568 813.238 134.218 813.379 134.925C813.52 135.633 813.447 136.366 813.172 137.033C812.896 137.7 812.428 138.269 811.829 138.67C811.229 139.071 810.525 139.285 809.804 139.285C809.321 139.285 808.843 139.189 808.398 139.003C807.953 138.817 807.549 138.544 807.209 138.2C806.87 137.857 806.603 137.449 806.422 137.001C806.242 136.554 806.152 136.074 806.158 135.591V135.637ZM818.79 146.58L814.37 147.994C814.009 147.239 813.468 146.586 812.794 146.093C812.119 145.599 811.333 145.281 810.505 145.167V140.607C811.634 140.457 812.677 139.922 813.458 139.093L819.318 143.343C818.922 144.073 818.715 144.892 818.717 145.723C818.719 146.007 818.743 146.291 818.79 146.571V146.58ZM813.513 150.164C813.513 150.885 813.299 151.591 812.898 152.191C812.498 152.79 811.929 153.258 811.262 153.534C810.596 153.81 809.863 153.882 809.156 153.742C808.449 153.601 807.799 153.254 807.29 152.743C806.78 152.233 806.432 151.583 806.292 150.876C806.151 150.168 806.223 149.435 806.499 148.768C806.775 148.102 807.242 147.532 807.842 147.131C808.441 146.73 809.146 146.516 809.867 146.516C810.833 146.516 811.758 146.899 812.442 147.582C813.125 148.264 813.51 149.189 813.513 150.155V150.164ZM809.156 140.607V145.167C808.331 145.279 807.546 145.596 806.873 146.088C806.2 146.58 805.66 147.232 805.301 147.985L800.872 146.571C800.929 146.27 800.956 145.965 800.954 145.659C800.946 144.85 800.743 144.056 800.362 143.343L806.213 139.084C806.99 139.915 808.03 140.452 809.156 140.607ZM800.462 147.902L804.891 149.316C804.835 149.617 804.807 149.922 804.809 150.228C804.806 150.911 804.943 151.588 805.213 152.215C805.483 152.843 805.879 153.408 806.377 153.876L803.643 157.706C802.915 157.31 802.101 157.103 801.273 157.104C800.967 157.102 800.662 157.129 800.362 157.186L798.12 150.219C799.142 149.734 799.971 148.918 800.471 147.902H800.462ZM818.416 157.022C817.59 157.023 816.776 157.227 816.047 157.614L813.312 153.803C813.808 153.334 814.203 152.768 814.473 152.141C814.743 151.514 814.881 150.838 814.88 150.155C814.882 149.849 814.855 149.544 814.798 149.243L819.182 147.848C819.678 148.879 820.506 149.714 821.533 150.219L819.3 157.095C819.008 157.044 818.712 157.019 818.416 157.022ZM820.093 145.696C820.093 144.974 820.307 144.269 820.707 143.669C821.108 143.069 821.677 142.602 822.343 142.326C823.01 142.049 823.743 141.977 824.45 142.118C825.157 142.259 825.807 142.606 826.316 143.116C826.826 143.626 827.173 144.276 827.314 144.984C827.455 145.692 827.383 146.425 827.107 147.092C826.831 147.758 826.363 148.328 825.764 148.729C825.164 149.129 824.46 149.343 823.739 149.343C822.772 149.343 821.844 148.959 821.161 148.275C820.477 147.591 820.093 146.663 820.093 145.696Z" fill="#AA643B"/>
</g>
</g>
</g>
<text id="VCN" fill="#AE562C" xml:space="preserve" style="white-space: pre" font-family="Oracle Sans" font-size="16" font-weight="600" letter-spacing="0em"><tspan x="433" y="166.816">VCN Primary</tspan></text>
</g>
<g id="OCI Subnet Boxes_New">
<rect x="432.5" y="296.5" width="399" height="71" stroke="#AA643B" stroke-dasharray="8 4"/>
<text id="Subnet" fill="#AE562C" xml:space="preserve" style="white-space: pre" font-family="Oracle Sans" font-size="16" font-weight="600" letter-spacing="0em"><tspan x="440" y="317.816">Backup subnet</tspan></text>
<g id="Icon Master_4">
<g id="OCI-SL_RT">
<g id="Group_4">
<g id="Group_5">
<path id="Vector_17" d="M783.476 315.519V289.077H800.238V281.289L811.476 276.481L822.619 281.289V291.481C822.619 291.577 822.619 294.077 821.19 297.058C819.952 299.75 817.381 303.404 811.857 305.423V315.423H783.476V315.519Z" fill="white"/>
<path id="Vector_18" d="M811.381 277.058L822.048 281.577V291.481C822.048 291.577 822.048 293.981 820.714 296.865C819.476 299.558 817 303.115 811.667 305.038L811.476 305.135H811.381V315.038H783.952V289.558H800.714V281.577L811.381 277.058ZM811.381 276L811 276.192L800.333 280.712L799.762 281V281.673V288.692H783.952H783V289.654V315.038V316H783.952H811.381H812.333V315.038V305.808C817.667 303.692 820.333 300.038 821.571 297.25C823 294.173 823 291.577 823 291.481V281.577V281L822.429 280.712L811.762 276.192L811.381 276Z" fill="white"/>
</g>
<g id="Group_6">
<path id="Vector_19" d="M810.048 305.712H792.524V298.981H802.048C801.762 298.5 801.571 298.115 801.381 297.731H792.524V291H799.667V289.75H783.952V315.135H811.381V306.288L810.905 306.096C810.619 305.904 810.333 305.808 810.048 305.712ZM785.19 290.904H791.286V297.635H785.19V290.904ZM791.286 298.885V305.615H785.19V298.885H791.286ZM785.19 306.962H791.286V313.692H785.19V306.962ZM810.048 313.692H792.524V306.962H810.048V313.692Z" fill="#AA643B"/>
<path id="Vector_20" d="M808.619 311.192H807.381V312.442H808.619V311.192Z" fill="#AA643B"/>
<path id="Vector_21" d="M803.381 312.442L804.524 311.288L805.667 312.442L806.524 311.481L805.381 310.327L806.524 309.173L805.667 308.308L804.524 309.461L803.381 308.308L802.428 309.173L803.571 310.327L802.428 311.481L803.381 312.442Z" fill="#AA643B"/>
<path id="Vector_22" d="M800.619 311.192H799.381V312.442H800.619V311.192Z" fill="#AA643B"/>
<path id="Vector_23" d="M794.524 311.481L795.381 312.442L796.524 311.288L797.667 312.442L798.619 311.481L797.476 310.327L798.619 309.173L797.667 308.308L796.524 309.461L795.381 308.308L794.524 309.173L795.667 310.327L794.524 311.481Z" fill="#AA643B"/>
<path id="Vector_24" d="M800.619 303.116H799.381V304.366H800.619V303.116Z" fill="#AA643B"/>
<path id="Vector_25" d="M794.524 303.404L795.381 304.366L796.524 303.212L797.667 304.366L798.619 303.404L797.476 302.25L798.619 301.096L797.667 300.231L796.524 301.385L795.381 300.231L794.524 301.096L795.667 302.25L794.524 303.404Z" fill="#AA643B"/>
<path id="Vector_26" d="M799.095 296.385H800.333V295.135C800.333 295.135 800.333 295.135 800.333 295.039H799.095V296.385Z" fill="#AA643B"/>
<path id="Vector_27" d="M794.143 295.423L795.095 296.288L796.238 295.135L797.381 296.288L798.238 295.423L797.095 294.269L798.238 293.115L797.381 292.154L796.238 293.308L795.095 292.154L794.143 293.115L795.286 294.269L794.143 295.423Z" fill="#AA643B"/>
<path id="Vector_28" d="M800.714 281.577V291.481C800.714 291.577 800.81 293.981 802.048 296.865C803.286 299.558 805.857 303.115 811.191 305.038L811.381 305.135L811.571 305.038C816.905 303.115 819.476 299.558 820.619 296.865C821.952 293.981 821.952 291.577 821.952 291.481V281.577L811.381 277.058L800.714 281.577ZM820.81 291.481C820.81 291.577 820.619 300.231 811.476 303.692C807.667 302.25 804.905 299.75 803.286 296.385C802.048 293.788 802.048 291.481 802.048 291.481V282.442L811.476 278.404L820.81 282.442V291.481Z" fill="#AA643B"/>
<path id="Vector_29" d="M810.238 292.827H805.286V294.077H810.238V292.827Z" fill="#AA643B"/>
<path id="Vector_30" d="M810.238 286.385H805.286V287.635H810.238V286.385Z" fill="#AA643B"/>
<path id="Vector_31" d="M816.905 284.942L814.143 287.635L813.19 286.673L812.238 287.539L814.143 289.462L817.762 285.808L816.905 284.942Z" fill="#AA643B"/>
<path id="Vector_32" d="M805.286 290.904H810.048H810.238V289.558H805.286V290.904Z" fill="#AA643B"/>
</g>
</g>
</g>
</g>
</g>
<g id="OCI Subnet Boxes_New_2">
<rect x="432.5" y="200.5" width="399" height="71" stroke="#AA643B" stroke-dasharray="8 4"/>
<text id="Subnet_2" fill="#AE562C" xml:space="preserve" style="white-space: pre" font-family="Oracle Sans" font-size="16" font-weight="600" letter-spacing="0em"><tspan x="440" y="221.816">Client subnet</tspan></text>
<g id="Icon Master_5">
<g id="OCI-SL_RT_2">
<g id="Group_7">
<g id="Group_8">
<path id="Vector_33" d="M783.476 219.519V193.077H800.238V185.289L811.476 180.481L822.619 185.289V195.481C822.619 195.577 822.619 198.077 821.19 201.058C819.952 203.75 817.381 207.404 811.857 209.423V219.423H783.476V219.519Z" fill="white"/>
<path id="Vector_34" d="M811.381 181.058L822.048 185.577V195.481C822.048 195.577 822.048 197.981 820.714 200.865C819.476 203.558 817 207.115 811.667 209.038L811.476 209.135H811.381V219.038H783.952V193.558H800.714V185.577L811.381 181.058ZM811.381 180L811 180.192L800.333 184.712L799.762 185V185.673V192.692H783.952H783V193.654V219.038V220H783.952H811.381H812.333V219.038V209.808C817.667 207.692 820.333 204.038 821.571 201.25C823 198.173 823 195.577 823 195.481V185.577V185L822.429 184.712L811.762 180.192L811.381 180Z" fill="white"/>
</g>
<g id="Group_9">
<path id="Vector_35" d="M810.048 209.712H792.524V202.981H802.048C801.762 202.5 801.571 202.115 801.381 201.731H792.524V195H799.667V193.75H783.952V219.135H811.381V210.288L810.905 210.096C810.619 209.904 810.333 209.808 810.048 209.712ZM785.19 194.904H791.286V201.635H785.19V194.904ZM791.286 202.885V209.615H785.19V202.885H791.286ZM785.19 210.962H791.286V217.692H785.19V210.962ZM810.048 217.692H792.524V210.962H810.048V217.692Z" fill="#AA643B"/>
<path id="Vector_36" d="M808.619 215.192H807.381V216.442H808.619V215.192Z" fill="#AA643B"/>
<path id="Vector_37" d="M803.381 216.442L804.524 215.288L805.667 216.442L806.524 215.481L805.381 214.327L806.524 213.173L805.667 212.308L804.524 213.461L803.381 212.308L802.428 213.173L803.571 214.327L802.428 215.481L803.381 216.442Z" fill="#AA643B"/>
<path id="Vector_38" d="M800.619 215.192H799.381V216.442H800.619V215.192Z" fill="#AA643B"/>
<path id="Vector_39" d="M794.524 215.481L795.381 216.442L796.524 215.288L797.667 216.442L798.619 215.481L797.476 214.327L798.619 213.173L797.667 212.308L796.524 213.461L795.381 212.308L794.524 213.173L795.667 214.327L794.524 215.481Z" fill="#AA643B"/>
<path id="Vector_40" d="M800.619 207.116H799.381V208.366H800.619V207.116Z" fill="#AA643B"/>
<path id="Vector_41" d="M794.524 207.404L795.381 208.366L796.524 207.212L797.667 208.366L798.619 207.404L797.476 206.25L798.619 205.096L797.667 204.231L796.524 205.385L795.381 204.231L794.524 205.096L795.667 206.25L794.524 207.404Z" fill="#AA643B"/>
<path id="Vector_42" d="M799.095 200.385H800.333V199.135C800.333 199.135 800.333 199.135 800.333 199.039H799.095V200.385Z" fill="#AA643B"/>
<path id="Vector_43" d="M794.143 199.423L795.095 200.288L796.238 199.135L797.381 200.288L798.238 199.423L797.095 198.269L798.238 197.115L797.381 196.154L796.238 197.308L795.095 196.154L794.143 197.115L795.286 198.269L794.143 199.423Z" fill="#AA643B"/>
<path id="Vector_44" d="M800.714 185.577V195.481C800.714 195.577 800.81 197.981 802.048 200.865C803.286 203.558 805.857 207.115 811.191 209.038L811.381 209.135L811.571 209.038C816.905 207.115 819.476 203.558 820.619 200.865C821.952 197.981 821.952 195.577 821.952 195.481V185.577L811.381 181.058L800.714 185.577ZM820.81 195.481C820.81 195.577 820.619 204.231 811.476 207.692C807.667 206.25 804.905 203.75 803.286 200.385C802.048 197.788 802.048 195.481 802.048 195.481V186.442L811.476 182.404L820.81 186.442V195.481Z" fill="#AA643B"/>
<path id="Vector_45" d="M810.238 196.827H805.286V198.077H810.238V196.827Z" fill="#AA643B"/>
<path id="Vector_46" d="M810.238 190.385H805.286V191.635H810.238V190.385Z" fill="#AA643B"/>
<path id="Vector_47" d="M816.905 188.942L814.143 191.635L813.19 190.673L812.238 191.539L814.143 193.462L817.762 189.808L816.905 188.942Z" fill="#AA643B"/>
<path id="Vector_48" d="M805.286 194.904H810.048H810.238V193.558H805.286V194.904Z" fill="#AA643B"/>
</g>
</g>
</g>
</g>
</g>
<g id="OCI Section Boxes_5">
<rect x="416.5" y="392.5" width="431" height="127" fill="white"/>
<rect x="416.5" y="392.5" width="431" height="127" stroke="#9E9892" stroke-dasharray="2 1"/>
<text id="Tenancy" fill="#312D2A" xml:space="preserve" style="white-space: pre" font-family="Oracle Sans" font-size="16" font-weight="bold" letter-spacing="0em"><tspan x="424" y="413.816">Tenancy</tspan></text>
</g>
<g id="OCI Section Boxes_6">
<rect x="856.5" y="104.5" width="151" height="687" fill="white"/>
<rect x="856.5" y="104.5" width="151" height="687" stroke="#9E9892" stroke-dasharray="2 1"/>
<text id="Tenancy_2" fill="#312D2A" xml:space="preserve" style="white-space: pre" font-family="Oracle Sans" font-size="16" font-weight="bold" letter-spacing="0em"><tspan x="864" y="125.816">OCI managed </tspan><tspan x="864" y="141.816">services</tspan></text>
</g>
<g id="Icon Master_6">
<g id="Exadata">
<g id="Group_10">
<g id="Group_11">
<path id="Vector_49" d="M633.667 299.574V297.289L636.095 296.146V263.717H625.381L625.524 261.717C625.809 258.003 627.952 254.717 631.238 253.003C631.809 252.717 632.238 252.146 632.381 251.574C632.952 248.86 634.809 246.574 637.238 245.574C638.238 245.146 639.524 244.86 640.667 244.86C640.952 244.86 641.238 244.86 641.381 244.86H641.524C642.095 244.86 642.524 244.574 642.952 244.289C644.809 242.289 647.524 241.003 650.381 241.003C654.238 241.003 657.809 243.146 659.524 246.574C659.809 247.146 660.381 247.574 660.952 247.717C662.095 248.003 663.238 248.432 664.238 249.003C668.809 251.86 670.381 257.86 667.809 262.717L667.238 263.717H660.381V296.003L662.809 297.146V299.431H633.667V299.574Z" fill="white"/>
<path id="Vector_50" d="M650.524 241.717C654.095 241.717 657.381 243.717 658.952 247.003C659.381 247.717 660.095 248.289 660.952 248.431C662.095 248.717 663.095 249.146 663.952 249.717C668.238 252.431 669.667 258.003 667.381 262.431L667.095 263.003H659.952V296.431L662.381 297.574V298.86H634.381V297.717L636.81 296.574V263.003H626.238L626.381 261.717C626.667 258.289 628.667 255.146 631.81 253.574C632.524 253.146 633.095 252.431 633.238 251.717C633.667 249.289 635.238 247.146 637.524 246.146C638.524 245.717 639.524 245.431 640.667 245.431C640.952 245.431 641.095 245.431 641.381 245.431C641.524 245.431 641.524 245.431 641.667 245.431C642.381 245.431 643.095 245.146 643.667 244.574C645.381 242.86 647.952 241.717 650.524 241.717ZM650.524 240.289C647.524 240.289 644.667 241.574 642.524 243.717C642.238 244.003 641.952 244.146 641.667 244.146H641.524C641.238 244.146 640.952 244.146 640.667 244.146C639.381 244.146 638.095 244.431 636.952 244.86C634.238 246.003 632.238 248.574 631.667 251.431C631.667 251.86 631.381 252.146 630.952 252.431C627.524 254.289 625.238 257.717 624.81 261.717L624.667 263.003V264.431H626.238H635.381V295.574L633.81 296.289L632.952 296.717V297.574V298.86V300.003L634.095 300.289H634.238H634.381H662.238H663.667V298.86V297.717V296.86L662.81 296.431L661.238 295.717V264.431H666.952H667.81L668.238 263.717L668.524 263.146C671.238 258.003 669.524 251.574 664.667 248.431C663.524 247.717 662.381 247.289 661.095 247.003C660.667 246.86 660.381 246.574 660.095 246.289C658.381 242.574 654.667 240.289 650.524 240.289Z" fill="white"/>
</g>
<g id="Group_12">
<g id="Group_13">
<g id="Group_14">
<path id="Vector_51" d="M635.095 298.146L637.524 297.003V254.003H659.095V297.003L661.524 298.146H635.095Z" fill="white"/>
<path id="Vector_52" d="M658.381 254.717V296.574V297.431H638.238V296.574V254.717H658.381ZM659.81 253.289H636.81V296.574L634.381 297.717V298.86H662.238V297.717L659.81 296.574V253.289Z" fill="white"/>
</g>
<path id="Vector_53" d="M659.81 296.574V253.289H636.81V296.574L634.381 297.717V298.86H662.238V297.717L659.81 296.574ZM639.095 255.574H657.524V296.574H639.095V255.574ZM640.953 257.289H655.81V259.574H640.953V257.289ZM653.953 261.289H642.667V263.289H640.953V265.574H642.667V267.574H653.953V265.574H655.667V263.289H653.953V261.289ZM651.524 265.431H644.953V263.717H651.524V265.431ZM649.953 286.146L653.381 292.717H650.381L648.238 288.146L646.238 292.717H643.238L646.667 286.003L643.524 279.717H646.524L648.524 284.003L650.524 279.717H653.238L649.953 286.146ZM643.238 271.717H640.81V269.431H643.238V271.717ZM647.381 271.717H644.953V269.431H647.381V271.717ZM651.524 271.717H649.095V269.431H651.524V271.717ZM653.381 269.431H655.81V271.717H653.381V269.431ZM643.238 275.717H640.81V273.431H643.238V275.717ZM645.095 273.431H647.524V275.717H645.095V273.431ZM649.238 273.431H651.667V275.717H649.238V273.431ZM653.381 273.431H655.81V275.717H653.381V273.431Z" fill="#2D5967"/>
</g>
<path id="Vector_54" d="M667.238 262.432L666.952 263.003H661.238V260.717H665.524C666.952 257.432 665.81 253.574 662.667 251.574C661.952 251.146 661.095 250.86 660.381 250.574C658.81 250.289 657.524 249.289 656.952 247.86C655.667 245.432 653.238 243.86 650.524 243.86C648.524 243.86 646.667 244.717 645.238 246.146C644.238 247.289 642.667 247.86 641.095 247.717C640.238 247.574 639.238 247.717 638.381 248.146C636.952 249.003 635.667 250.432 635.381 252.146C635.095 253.717 634.095 255.003 632.81 255.717C630.81 256.717 629.381 258.574 628.81 260.86H635.238V263.146H626.238L626.381 261.86C626.667 258.432 628.667 255.289 631.81 253.717C632.524 253.289 633.095 252.574 633.238 251.86C633.667 249.289 635.238 247.146 637.524 246.146C638.667 245.574 640.095 245.432 641.381 245.574C642.238 245.717 643.095 245.289 643.667 244.717C645.381 242.86 647.952 241.717 650.524 241.717C654.095 241.717 657.381 243.717 658.952 247.003C659.381 247.717 660.095 248.289 660.952 248.432C662.095 248.717 663.095 249.146 663.952 249.717C668.238 252.432 669.667 258.003 667.238 262.432Z" fill="#2D5967"/>
</g>
</g>
</g>
<g id="Icon Text Label">
<text id="IconLabel" fill="black" xml:space="preserve" style="white-space: pre" font-family="Oracle Sans" font-size="16" letter-spacing="0em"><tspan x="624.938" y="318.105">Oracle&#10;</tspan><tspan x="618.961" y="334.105">Exadata&#10;</tspan><tspan x="586.07" y="350.105">Database Service</tspan></text>
</g>
</g>
<g id="Icon Master_7">
<g id="Srv-OCI Autonomous Recovery Service">
<g id="Group_15">
<path id="Vector_55" d="M673.319 686.618L674.334 685.603L673.319 684.589L669.586 679.959L668.985 679.002C667.069 675.93 663.637 674.029 660.033 674.029C659.289 674.029 658.574 674.129 657.873 674.286L656.6 673.558C654.813 672.543 652.782 672 650.708 672C647.419 672 644.244 673.386 641.999 675.801C641.656 676.172 641.155 676.387 640.612 676.387C640.54 676.387 640.469 676.387 640.397 676.387C640.097 676.358 639.782 676.344 639.482 676.344C638.137 676.344 636.765 676.63 635.535 677.173C632.589 678.459 630.472 681.116 629.843 684.26C629.728 684.874 629.328 685.389 628.756 685.689C624.866 687.732 622.349 691.548 622.02 695.92L621.948 696.977L621.834 698.506H633.518V725.113H636.965V728.556H640.411V732H662.507V698.492H670.115L670.516 697.735L670.802 697.22C672.303 694.434 672.632 691.176 671.76 688.147L671.917 687.99L673.319 686.589V686.618Z" fill="white"/>
<path id="Vector_56" d="M634.948 684.76V723.683H636.922V686.732H648.821L646.847 684.76H634.948Z" fill="#2D5967"/>
<path id="Vector_57" d="M668.07 695.105H662.564V697.077H669.272L669.558 696.563C671.059 693.791 671.188 690.618 670.173 687.832C669.844 688.818 669.386 689.732 668.8 690.561C668.971 692.076 668.742 693.648 668.07 695.105Z" fill="#2D5967"/>
<path id="Vector_58" d="M650.694 673.429C647.791 673.429 645.002 674.644 643.043 676.773C642.342 677.53 641.327 677.901 640.254 677.801C638.838 677.673 637.394 677.901 636.093 678.473C633.575 679.573 631.759 681.845 631.23 684.532C631.03 685.56 630.358 686.446 629.414 686.946C625.967 688.761 623.736 692.148 623.45 696.02L623.379 697.077H633.475V695.106H625.552C626.082 692.362 627.812 690.019 630.329 688.69C631.816 687.904 632.846 686.532 633.161 684.903C633.561 682.845 634.948 681.102 636.879 680.259C637.88 679.816 638.981 679.645 640.054 679.745C641.742 679.902 643.358 679.302 644.473 678.087C646.075 676.358 648.334 675.372 650.68 675.372C651.767 675.372 652.825 675.587 653.797 675.958C654.441 675.487 655.128 675.087 655.857 674.772C654.312 673.886 652.539 673.4 650.68 673.4L650.694 673.429Z" fill="#2D5967"/>
<path id="Vector_59" d="M638.409 688.204V727.127H640.383V690.176H651.152C650.765 689.561 650.422 688.904 650.165 688.204H638.409Z" fill="#2D5967"/>
<path id="Vector_60" d="M659.117 695.063V728.614H643.829V693.634H654.713C653.812 693.105 652.997 692.434 652.281 691.662H641.856V730.586H661.091V695.063C660.762 695.091 660.433 695.106 660.104 695.106C659.775 695.106 659.446 695.091 659.117 695.063Z" fill="#2D5967"/>
<path id="Vector_61" d="M654.384 719.44C654.698 718.854 654.856 718.211 654.841 717.554C654.841 716.425 654.512 715.568 653.869 714.982C653.225 714.396 652.31 714.082 650.98 714.082H647.776V725.413H649.993V720.983L650.78 721.083L652.71 725.427H655.17L652.868 720.626C653.497 720.426 654.026 720.012 654.384 719.454V719.44ZM650.98 719.497H649.993V715.796H650.98C652.095 715.796 652.553 716.496 652.553 717.668C652.553 718.84 652.095 719.483 650.98 719.483V719.497Z" fill="#2D5967"/>
<path id="Vector_62" d="M657.63 695.105H645.302V697.077H657.63V695.105Z" fill="#2D5967"/>
<path id="Vector_63" d="M646.79 703.978H656.157V702.249H657.63V700.278H656.157V698.549H646.79V700.278H645.317V702.249H646.79V703.978ZM648.764 700.535H654.184V702.006H648.764V700.535Z" fill="#2D5967"/>
<path id="Vector_64" d="M647.276 705.451H645.302V707.423H647.276V705.451Z" fill="#2D5967"/>
<path id="Vector_65" d="M650.737 705.451H648.764V707.423H650.737V705.451Z" fill="#2D5967"/>
<path id="Vector_66" d="M654.184 705.451H652.21V707.423H654.184V705.451Z" fill="#2D5967"/>
<path id="Vector_67" d="M657.644 705.451H655.671V707.423H657.644V705.451Z" fill="#2D5967"/>
<path id="Vector_68" d="M647.276 708.909H645.302V710.88H647.276V708.909Z" fill="#2D5967"/>
<path id="Vector_69" d="M650.737 708.909H648.764V710.88H650.737V708.909Z" fill="#2D5967"/>
<path id="Vector_70" d="M654.184 708.909H652.21V710.88H654.184V708.909Z" fill="#2D5967"/>
<path id="Vector_71" d="M657.644 708.909H655.671V710.88H657.644V708.909Z" fill="#2D5967"/>
<path id="Vector_72" d="M651.881 687.689L656.029 683.545L654.627 682.145L652.897 683.874C653.24 680.259 656.3 677.415 660.019 677.415C662.707 677.415 665.096 678.916 666.325 681.188L667.77 679.744C666.14 677.144 663.251 675.443 660.019 675.443C655.199 675.443 651.252 679.201 650.923 683.931L649.135 682.145L647.734 683.545L651.881 687.689Z" fill="#2D5967"/>
<path id="Vector_73" d="M660.977 688.304C661.163 688.49 661.42 688.59 661.678 688.59C661.935 688.59 662.178 688.49 662.378 688.304C662.765 687.918 662.765 687.289 662.378 686.904L660.605 685.132L660.634 681.317C660.634 680.774 660.205 680.331 659.647 680.331C659.103 680.331 658.66 680.774 658.66 681.317L658.631 685.546C658.631 685.803 658.732 686.061 658.917 686.246L660.977 688.304Z" fill="#2D5967"/>
<path id="Vector_74" d="M668.156 681.459L664.008 685.603L665.41 687.004L667.14 685.275C666.797 688.89 663.737 691.733 660.018 691.733C657.33 691.733 654.941 690.233 653.712 687.961L652.267 689.404C653.897 692.005 656.786 693.705 660.018 693.705C664.838 693.705 668.785 689.947 669.114 685.218L670.902 687.004L672.303 685.603L668.156 681.459Z" fill="#2D5967"/>
</g>
</g>
<g id="Icon Text Label_2">
<text id="IconLabel_2" fill="black" xml:space="preserve" style="white-space: pre" font-family="Oracle Sans" font-size="16" letter-spacing="0em"><tspan x="589.219" y="749.816">Oracle Database&#10;</tspan><tspan x="600.953" y="765.816">Autonomous&#10;</tspan><tspan x="586.695" y="781.816">Recovery Service</tspan></text>
</g>
</g>
<g id="Icon Master_8">
<g id="Srv-OCI Autonomous Recovery Service_2">
<g id="Group_16">
<path id="Vector_75" d="M957.319 686.618L958.334 685.603L957.319 684.589L953.586 679.959L952.985 679.002C951.069 675.93 947.637 674.029 944.033 674.029C943.289 674.029 942.574 674.129 941.873 674.286L940.6 673.558C938.813 672.543 936.782 672 934.708 672C931.419 672 928.244 673.386 925.999 675.801C925.656 676.172 925.155 676.387 924.612 676.387C924.54 676.387 924.469 676.387 924.397 676.387C924.097 676.358 923.782 676.344 923.482 676.344C922.137 676.344 920.765 676.63 919.535 677.173C916.589 678.459 914.472 681.116 913.843 684.26C913.728 684.874 913.328 685.389 912.756 685.689C908.866 687.732 906.349 691.548 906.02 695.92L905.948 696.977L905.834 698.506H917.518V725.113H920.965V728.556H924.411V732H946.507V698.492H954.115L954.516 697.735L954.802 697.22C956.303 694.434 956.632 691.176 955.76 688.147L955.917 687.99L957.319 686.589V686.618Z" fill="white"/>
<path id="Vector_76" d="M918.948 684.76V723.683H920.922V686.732H932.821L930.847 684.76H918.948Z" fill="#2D5967"/>
<path id="Vector_77" d="M952.07 695.105H946.564V697.077H953.272L953.558 696.563C955.059 693.791 955.188 690.618 954.173 687.832C953.844 688.818 953.386 689.732 952.8 690.561C952.971 692.076 952.742 693.648 952.07 695.105Z" fill="#2D5967"/>
<path id="Vector_78" d="M934.694 673.429C931.791 673.429 929.002 674.644 927.043 676.773C926.342 677.53 925.327 677.901 924.254 677.801C922.838 677.673 921.394 677.901 920.093 678.473C917.575 679.573 915.759 681.845 915.23 684.532C915.03 685.56 914.358 686.446 913.414 686.946C909.967 688.761 907.736 692.148 907.45 696.02L907.379 697.077H917.475V695.106H909.552C910.082 692.362 911.812 690.019 914.329 688.69C915.816 687.904 916.846 686.532 917.161 684.903C917.561 682.845 918.948 681.102 920.879 680.259C921.88 679.816 922.981 679.645 924.054 679.745C925.742 679.902 927.358 679.302 928.473 678.087C930.075 676.358 932.334 675.372 934.68 675.372C935.767 675.372 936.825 675.587 937.797 675.958C938.441 675.487 939.128 675.087 939.857 674.772C938.312 673.886 936.539 673.4 934.68 673.4L934.694 673.429Z" fill="#2D5967"/>
<path id="Vector_79" d="M922.409 688.204V727.127H924.383V690.176H935.152C934.765 689.561 934.422 688.904 934.165 688.204H922.409Z" fill="#2D5967"/>
<path id="Vector_80" d="M943.117 695.063V728.614H927.829V693.634H938.713C937.812 693.105 936.997 692.434 936.281 691.662H925.856V730.586H945.091V695.063C944.762 695.091 944.433 695.106 944.104 695.106C943.775 695.106 943.446 695.091 943.117 695.063Z" fill="#2D5967"/>
<path id="Vector_81" d="M938.384 719.44C938.698 718.854 938.856 718.211 938.841 717.554C938.841 716.425 938.512 715.568 937.869 714.982C937.225 714.396 936.31 714.082 934.98 714.082H931.776V725.413H933.993V720.983L934.78 721.083L936.71 725.427H939.17L936.868 720.626C937.497 720.426 938.026 720.012 938.384 719.454V719.44ZM934.98 719.497H933.993V715.796H934.98C936.095 715.796 936.553 716.496 936.553 717.668C936.553 718.84 936.095 719.483 934.98 719.483V719.497Z" fill="#2D5967"/>
<path id="Vector_82" d="M941.63 695.105H929.302V697.077H941.63V695.105Z" fill="#2D5967"/>
<path id="Vector_83" d="M930.79 703.978H940.157V702.249H941.63V700.278H940.157V698.549H930.79V700.278H929.317V702.249H930.79V703.978ZM932.764 700.535H938.184V702.006H932.764V700.535Z" fill="#2D5967"/>
<path id="Vector_84" d="M931.276 705.451H929.302V707.423H931.276V705.451Z" fill="#2D5967"/>
<path id="Vector_85" d="M934.737 705.451H932.764V707.423H934.737V705.451Z" fill="#2D5967"/>
<path id="Vector_86" d="M938.184 705.451H936.21V707.423H938.184V705.451Z" fill="#2D5967"/>
<path id="Vector_87" d="M941.644 705.451H939.671V707.423H941.644V705.451Z" fill="#2D5967"/>
<path id="Vector_88" d="M931.276 708.909H929.302V710.88H931.276V708.909Z" fill="#2D5967"/>
<path id="Vector_89" d="M934.737 708.909H932.764V710.88H934.737V708.909Z" fill="#2D5967"/>
<path id="Vector_90" d="M938.184 708.909H936.21V710.88H938.184V708.909Z" fill="#2D5967"/>
<path id="Vector_91" d="M941.644 708.909H939.671V710.88H941.644V708.909Z" fill="#2D5967"/>
<path id="Vector_92" d="M935.881 687.689L940.029 683.545L938.627 682.145L936.897 683.874C937.24 680.259 940.3 677.415 944.019 677.415C946.707 677.415 949.096 678.916 950.325 681.188L951.77 679.744C950.14 677.144 947.251 675.443 944.019 675.443C939.199 675.443 935.252 679.201 934.923 683.931L933.135 682.145L931.734 683.545L935.881 687.689Z" fill="#2D5967"/>
<path id="Vector_93" d="M944.977 688.304C945.163 688.49 945.42 688.59 945.678 688.59C945.935 688.59 946.178 688.49 946.378 688.304C946.765 687.918 946.765 687.289 946.378 686.904L944.605 685.132L944.634 681.317C944.634 680.774 944.205 680.331 943.647 680.331C943.103 680.331 942.66 680.774 942.66 681.317L942.631 685.546C942.631 685.803 942.732 686.061 942.917 686.246L944.977 688.304Z" fill="#2D5967"/>
<path id="Vector_94" d="M952.156 681.459L948.008 685.603L949.41 687.004L951.14 685.275C950.797 688.89 947.737 691.733 944.018 691.733C941.33 691.733 938.941 690.233 937.712 687.961L936.267 689.404C937.897 692.005 940.786 693.705 944.018 693.705C948.838 693.705 952.785 689.947 953.114 685.218L954.902 687.004L956.303 685.603L952.156 681.459Z" fill="#2D5967"/>
</g>
</g>
<g id="Icon Text Label_3">
<text id="IconLabel_3" fill="black" xml:space="preserve" style="white-space: pre" font-family="Oracle Sans" font-size="16" letter-spacing="0em"><tspan x="873.219" y="749.816">Oracle Database&#10;</tspan><tspan x="884.953" y="765.816">Autonomous&#10;</tspan><tspan x="870.695" y="781.816">Recovery Service</tspan></text>
</g>
</g>
<g id="Icon Master_9">
<g id="Azure-Container-Registries">
<g id="Group 1494">
<path id="Vector_95" d="M118.28 267.274L126.915 262.028L151.111 271.137C150.583 268.786 149.372 266.644 147.63 264.98L147.596 264.813C145.563 262.848 142.981 261.546 140.192 261.078C140.01 256.745 138.117 252.662 134.928 249.723C131.74 246.785 127.516 245.231 123.183 245.402C119.688 245.339 116.26 246.36 113.369 248.325C110.479 250.29 108.268 253.102 107.041 256.375C103.365 256.824 99.9742 258.58 97.4877 261.324C95.0013 264.068 93.5857 267.615 93.5 271.317C93.665 275.484 95.4733 279.416 98.5295 282.253C101.586 285.091 105.641 286.603 109.809 286.458H118.28V267.274Z" fill="url(#paint6_linear_18135_4059)"/>
<path id="Vector_96" d="M127.084 263.876L127.118 278.151L153.499 283.754V273.815L127.084 263.876Z" fill="#767676"/>
<path id="Vector_97" d="M127.086 263.876L119.948 268.212V281.486L127.119 278.151" fill="#999999"/>
<path id="Vector_98" d="M139.125 278.351L141.527 279.018V271.247L139.125 270.413V278.351Z" fill="#A3A3A3"/>
<path id="Vector_99" d="M136.724 269.646L134.323 268.779V277.083L136.724 277.75V269.646Z" fill="#A3A3A3"/>
<path id="Vector_100" d="M143.928 279.651L146.263 280.285L146.329 272.881L143.928 272.081V279.651Z" fill="#A3A3A3"/>
<path id="Vector_101" d="M129.553 275.849L131.955 276.45V268.012L129.553 267.211V275.849Z" fill="#A3A3A3"/>
<path id="Vector_102" d="M151.097 274.515L148.696 273.682V280.919L151.097 281.586V274.515Z" fill="#A3A3A3"/>
<path id="ef0d1b54-a1e7-4cb9-a4e5-8a8518e7c127" d="M122.382 277.917L121.181 278.618V269.179L122.382 268.546V277.917ZM124.75 267.178L123.516 267.979V277.15L124.75 276.483V267.178Z" fill="#B3B3B3"/>
<path id="Vector_103" d="M153.5 283.753L146.296 286.221L119.948 281.486L127.119 278.15L153.5 283.753Z" fill="url(#paint7_linear_18135_4059)"/>
<path id="Vector_104" d="M153.5 293.926L126.985 298.962L127.118 280.318L153.5 285.221V293.926Z" fill="#767676"/>
<path id="Vector_105" d="M129.553 295.894V284.054L131.955 284.354V295.493L129.553 295.894Z" fill="#A3A3A3"/>
<path id="Vector_106" d="M136.724 294.693L134.323 295.127V284.654L136.724 285.021V294.693Z" fill="#A3A3A3"/>
<path id="Vector_107" d="M139.125 294.326V285.254L141.527 285.555V293.892L139.125 294.326Z" fill="#A3A3A3"/>
<path id="Vector_108" d="M146.296 293.059L143.928 293.492V285.855L146.296 286.222V293.059Z" fill="#A3A3A3"/>
<path id="Vector_109" d="M151.164 292.292L148.696 292.725V286.455L150.997 286.755L151.164 292.292Z" fill="#A3A3A3"/>
<path id="b9f25eb4-4c88-45c2-bc4d-f992757d7e0e" d="M119.948 294.697V283.824L127.152 280.489V299.166L119.948 294.697Z" fill="#999999"/>
<path id="eb9200a7-4693-4427-bdae-b33ce90ff7f2" d="M122.216 294.66L121.149 294.126V284.921L122.216 284.421V294.66ZM124.784 283.153L123.517 283.787V295.393L124.751 296.027V283.153H124.784Z" fill="#B3B3B3"/>
</g>
</g>
<g id="Icon Text Label_4">
<text id="IconLabel_4" fill="black" xml:space="preserve" style="white-space: pre" font-family="Oracle Sans" font-size="16" letter-spacing="0em"><tspan x="88.0156" y="317.819">Container</tspan></text>
<text id="IconLabel_5" fill="black" xml:space="preserve" style="white-space: pre" font-family="Oracle Sans" font-size="16" letter-spacing="0em"><tspan x="93.8438" y="333.819">Registry</tspan></text>
</g>
</g>
<g id="Icon Master_10">
<g id="Azure-icon-service-Load-Balancers">
<path id="Vector_110" d="M207.1 268.569L235.067 240.603C235.253 240.411 235.476 240.259 235.722 240.155C235.968 240.051 236.233 239.998 236.5 239.998C236.767 239.998 237.032 240.051 237.278 240.155C237.524 240.259 237.747 240.411 237.933 240.603L265.9 268.569C266.091 268.756 266.244 268.979 266.348 269.225C266.452 269.471 266.505 269.736 266.505 270.003C266.505 270.27 266.452 270.534 266.348 270.781C266.244 271.027 266.091 271.25 265.9 271.436L237.9 299.436C237.526 299.803 237.023 300.008 236.5 300.008C235.976 300.008 235.474 299.803 235.1 299.436L207.1 271.436C206.908 271.25 206.756 271.027 206.652 270.781C206.548 270.534 206.495 270.27 206.495 270.003C206.495 269.736 206.548 269.471 206.652 269.225C206.756 268.979 206.908 268.756 207.1 268.569Z" fill="url(#paint8_linear_18135_4059)"/>
<path id="Vector_111" d="M243.833 253.336L236.767 246.303C236.693 246.237 236.598 246.201 236.5 246.201C236.402 246.201 236.307 246.237 236.233 246.303L229.167 253.336C229.102 253.38 229.054 253.445 229.032 253.521C229.011 253.596 229.016 253.677 229.048 253.748C229.08 253.82 229.136 253.878 229.206 253.912C229.277 253.947 229.357 253.955 229.433 253.936H233.567C233.615 253.936 233.662 253.946 233.707 253.964C233.751 253.983 233.792 254.01 233.826 254.044C233.86 254.078 233.887 254.118 233.905 254.163C233.924 254.207 233.933 254.255 233.933 254.303V260.97C233.933 261.067 233.972 261.16 234.041 261.229C234.109 261.298 234.203 261.336 234.3 261.336H238.7C238.797 261.336 238.89 261.298 238.959 261.229C239.028 261.16 239.067 261.067 239.067 260.97V254.303C239.067 254.255 239.076 254.207 239.095 254.163C239.113 254.118 239.14 254.078 239.174 254.044C239.208 254.01 239.249 253.983 239.293 253.964C239.337 253.946 239.385 253.936 239.433 253.936H243.567C243.643 253.955 243.723 253.947 243.793 253.912C243.864 253.878 243.92 253.82 243.952 253.748C243.984 253.677 243.989 253.596 243.968 253.521C243.946 253.445 243.898 253.38 243.833 253.336Z" fill="#B4EC36"/>
<path id="Vector_112" d="M219.833 262.036L212.833 269.136C212.77 269.204 212.735 269.293 212.735 269.386C212.735 269.479 212.77 269.568 212.833 269.636L219.833 276.669C219.885 276.724 219.951 276.761 220.024 276.777C220.098 276.792 220.174 276.785 220.243 276.756C220.311 276.727 220.37 276.678 220.41 276.615C220.45 276.551 220.47 276.477 220.467 276.403V272.303C220.467 272.206 220.505 272.112 220.574 272.044C220.643 271.975 220.736 271.936 220.833 271.936H227.5C227.547 271.936 227.593 271.927 227.636 271.908C227.679 271.889 227.717 271.862 227.748 271.827C227.78 271.792 227.804 271.752 227.818 271.707C227.833 271.663 227.838 271.616 227.833 271.569V267.169C227.861 267.123 227.877 267.07 227.88 267.016C227.883 266.961 227.872 266.907 227.849 266.858C227.826 266.808 227.791 266.765 227.748 266.733C227.705 266.7 227.654 266.678 227.6 266.669H220.933C220.887 266.674 220.84 266.669 220.795 266.654C220.751 266.64 220.71 266.616 220.676 266.584C220.641 266.553 220.614 266.515 220.595 266.472C220.576 266.429 220.566 266.383 220.567 266.336V262.303C220.602 262.206 220.597 262.098 220.554 262.004C220.51 261.911 220.431 261.838 220.333 261.803C220.236 261.767 220.129 261.772 220.035 261.816C219.941 261.86 219.869 261.939 219.833 262.036Z" fill="#B4EC36"/>
<path id="Vector_113" d="M253.433 276.67L260.533 269.603C260.597 269.535 260.632 269.446 260.632 269.353C260.632 269.26 260.597 269.171 260.533 269.103L253.433 262.036C253.381 261.993 253.317 261.965 253.249 261.956C253.182 261.946 253.113 261.956 253.051 261.984C252.988 262.011 252.935 262.056 252.897 262.112C252.858 262.169 252.836 262.235 252.833 262.303V266.47C252.834 266.516 252.824 266.563 252.805 266.605C252.786 266.648 252.759 266.686 252.724 266.718C252.69 266.749 252.649 266.773 252.604 266.788C252.56 266.802 252.513 266.808 252.467 266.803H245.8C245.753 266.803 245.707 266.812 245.664 266.831C245.621 266.85 245.583 266.877 245.552 266.912C245.52 266.947 245.496 266.987 245.482 267.032C245.467 267.076 245.462 267.123 245.467 267.17V271.57C245.462 271.616 245.467 271.663 245.482 271.707C245.496 271.752 245.52 271.793 245.552 271.827C245.583 271.862 245.621 271.889 245.664 271.908C245.707 271.927 245.753 271.936 245.8 271.936H252.467C252.564 271.936 252.657 271.975 252.726 272.044C252.795 272.112 252.833 272.206 252.833 272.303V276.436C252.842 276.502 252.868 276.563 252.908 276.615C252.949 276.667 253.003 276.707 253.064 276.731C253.125 276.755 253.192 276.762 253.257 276.751C253.322 276.74 253.383 276.712 253.433 276.67Z" fill="#B4EC36"/>
<path id="Vector_114" d="M245.8 270.003C245.811 268.269 245.336 266.566 244.431 265.088C243.525 263.609 242.224 262.413 240.674 261.635C239.124 260.856 237.388 260.527 235.661 260.683C233.933 260.84 232.285 261.476 230.9 262.521C229.516 263.565 228.451 264.975 227.825 266.593C227.2 268.211 227.04 269.971 227.362 271.675C227.685 273.379 228.477 274.958 229.65 276.236C230.823 277.513 232.33 278.437 234 278.903V282.07C232.865 282.656 231.96 283.607 231.43 284.77C230.9 285.932 230.776 287.239 231.078 288.48C231.38 289.722 232.09 290.826 233.094 291.615C234.099 292.405 235.339 292.834 236.617 292.834C237.894 292.834 239.135 292.405 240.139 291.615C241.144 290.826 241.854 289.722 242.155 288.48C242.457 287.239 242.333 285.932 241.803 284.77C241.273 283.607 240.368 282.656 239.233 282.07V278.736C241.115 278.169 242.766 277.016 243.947 275.445C245.128 273.875 245.777 271.968 245.8 270.003Z" fill="white"/>
<path id="e99c3387-15c3-4f28-bd4b-cb209b430e06" d="M236.533 275.37C239.516 275.37 241.933 272.952 241.933 269.97C241.933 266.987 239.516 264.57 236.533 264.57C233.551 264.57 231.133 266.987 231.133 269.97C231.133 272.952 233.551 275.37 236.533 275.37Z" fill="#5EA0EF"/>
</g>
<g id="Icon Text Label_5">
<text id="IconLabel_6" fill="black" xml:space="preserve" style="white-space: pre" font-family="Oracle Sans" font-size="16" letter-spacing="0em"><tspan x="218.461" y="317.819">Load</tspan></text>
<text id="IconLabel_7" fill="black" xml:space="preserve" style="white-space: pre" font-family="Oracle Sans" font-size="16" letter-spacing="0em"><tspan x="205.195" y="333.819">Balancer</tspan></text>
</g>
</g>
<g id="Icon Master_11">
<g id="Azure Kubernetes Service AKS">
<g id="Azure Kubernetes Service AKS_2">
<g id="j4rmrkptef">
<path id="Vector_115" fill-rule="evenodd" clip-rule="evenodd" d="M325.583 267.366L316.343 270.907V256.272L325.583 259.459V267.366Z" fill="#804998"/>
</g>
<g id="j4rmrkqfeg">
<path id="Vector_116" fill-rule="evenodd" clip-rule="evenodd" d="M308.064 258.751V268.31L314.904 270.907V256.391L308.064 258.751ZM308.784 267.602L308.424 267.484V259.577L308.784 259.459L309.144 259.341L309.504 259.223V267.838L309.144 267.72L308.784 267.602ZM310.584 268.074L310.104 267.956V259.105L310.584 258.987L311.064 258.869L311.544 258.751V268.428L311.064 268.31L310.584 268.074ZM312.744 268.783L312.144 268.546V258.515L312.744 258.397L313.344 258.161L314.064 257.925V269.136L313.344 268.9L312.744 268.783Z" fill="#804998"/>
</g>
<g id="j4rmrkr6eh">
<path id="Vector_117" fill-rule="evenodd" clip-rule="evenodd" d="M347.063 267.366L337.823 270.907V256.272L347.063 259.459V267.366Z" fill="#804998"/>
</g>
<g id="j4rmrkrnei">
<path id="Vector_118" fill-rule="evenodd" clip-rule="evenodd" d="M329.543 258.751V268.31L336.383 270.907V256.391L329.543 258.751ZM330.263 267.602L329.903 267.484V259.577L330.263 259.459L330.623 259.341L330.983 259.223V267.838L330.623 267.72L330.263 267.602ZM332.063 268.074L331.583 267.956V259.105L332.063 258.987L332.543 258.869L333.023 258.751V268.428L332.543 268.31L332.063 268.074ZM334.223 268.783L333.623 268.546V258.515L334.223 258.397L334.823 258.161L335.543 257.925V269.136L334.823 268.9L334.223 268.783Z" fill="#804998"/>
</g>
<g id="j4rmrkrvej">
<path id="Vector_119" fill-rule="evenodd" clip-rule="evenodd" d="M325.583 296.398L316.343 299.939V285.305L325.583 288.491V296.398Z" fill="#804998"/>
</g>
<g id="j4rmrks6ek">
<path id="Vector_120" fill-rule="evenodd" clip-rule="evenodd" d="M308.064 287.783V297.343L314.904 299.939V285.423L308.064 287.783ZM308.783 296.635L308.424 296.517V288.609L308.783 288.491L309.143 288.373L309.504 288.255V296.871L309.143 296.753L308.783 296.635ZM310.583 297.107L310.104 296.989V288.137L310.583 288.019L311.064 287.901L311.544 287.783V297.461L311.064 297.343L310.583 297.107ZM312.744 297.815L312.143 297.579V287.547L312.744 287.429L313.344 287.193L314.064 286.957V298.169L313.344 297.933L312.744 297.815Z" fill="#804998"/>
</g>
<g id="j4rmrkseel">
<path id="Vector_121" fill-rule="evenodd" clip-rule="evenodd" d="M347.063 296.398L337.824 299.939V285.305L347.063 288.491V296.398Z" fill="#804998"/>
</g>
<g id="j4rmrkspem">
<path id="Vector_122" fill-rule="evenodd" clip-rule="evenodd" d="M329.543 287.783V297.343L336.383 299.939V285.423L329.543 287.783ZM330.263 296.635L329.903 296.517V288.609L330.263 288.491L330.623 288.373L330.983 288.255V296.871L330.623 296.753L330.263 296.635ZM332.063 297.107L331.583 296.989V288.137L332.063 288.019L332.543 287.901L333.023 287.783V297.461L332.543 297.343L332.063 297.107ZM334.223 297.815L333.623 297.579V287.547L334.223 287.429L334.823 287.193L335.543 286.957V298.169L334.823 297.933L334.223 297.815Z" fill="#804998"/>
</g>
<g id="j4rmrkt5en">
<path id="Vector_123" fill-rule="evenodd" clip-rule="evenodd" d="M336.983 281.883L327.863 285.306V270.79L336.983 273.976V281.883Z" fill="#804998"/>
</g>
<g id="j4rmrktheo">
<path id="Vector_124" fill-rule="evenodd" clip-rule="evenodd" d="M319.463 273.15V282.709L326.303 285.306V270.79L319.463 273.15ZM320.183 282.001L319.823 281.883V273.976L320.183 273.858L320.543 273.74L320.903 273.622V282.237L320.543 282.119L320.183 282.001ZM321.983 282.591L321.503 282.473V273.622L321.983 273.504L322.463 273.386L322.943 273.268V282.945L322.463 282.827L321.983 282.591ZM324.143 283.299L323.543 283.063V273.032L324.143 272.914L324.743 272.678L325.463 272.442V283.653L324.743 283.417L324.143 283.299Z" fill="#804998"/>
</g>
<g id="j4rmrktrep">
<path id="Vector_125" fill-rule="evenodd" clip-rule="evenodd" d="M315.624 281.883L306.504 285.306V270.79L315.624 273.976V281.883Z" fill="#804998"/>
</g>
<g id="j4rmrku6eq">
<path id="Vector_126" fill-rule="evenodd" clip-rule="evenodd" d="M298.104 273.15V282.709L304.943 285.306V270.79L298.104 273.15ZM298.824 282.001L298.464 281.883V273.976L298.824 273.858L299.183 273.74L299.543 273.622V282.237L299.183 282.119L298.824 282.001ZM300.624 282.591L300.143 282.473V273.622L300.624 273.504L301.104 273.386L301.583 273.268V282.945L301.104 282.827L300.624 282.591ZM302.783 283.299L302.183 283.063V273.032L302.783 272.914L303.383 272.678L304.104 272.442V283.653L303.383 283.417L302.783 283.299Z" fill="#804998"/>
</g>
<g id="j4rmrkuder">
<path id="Vector_127" fill-rule="evenodd" clip-rule="evenodd" d="M358.103 281.883L348.983 285.306V270.79L358.103 273.976V281.883Z" fill="#804998"/>
</g>
<g id="j4rmrkukes">
<path id="Vector_128" opacity="0.2" fill-rule="evenodd" clip-rule="evenodd" d="M325.583 267.366L316.343 270.907V256.272L325.583 259.459V267.366Z" fill="white"/>
</g>
<g id="j4rmrkutet">
<path id="Vector_129" opacity="0.2" fill-rule="evenodd" clip-rule="evenodd" d="M347.063 267.366L337.823 270.907V256.272L347.063 259.459V267.366Z" fill="white"/>
</g>
<g id="j4rmrkv0eu">
<path id="Vector_130" opacity="0.2" fill-rule="evenodd" clip-rule="evenodd" d="M325.583 296.398L316.343 299.939V285.305L325.583 288.491V296.398Z" fill="white"/>
</g>
<g id="j4rmrkv6ev">
<path id="Vector_131" opacity="0.2" fill-rule="evenodd" clip-rule="evenodd" d="M347.063 296.398L337.824 299.939V285.305L347.063 288.491V296.398Z" fill="white"/>
</g>
<g id="j4rmrkvfew">
<path id="Vector_132" opacity="0.2" fill-rule="evenodd" clip-rule="evenodd" d="M336.983 281.883L327.863 285.306V270.79L336.983 273.976V281.883Z" fill="white"/>
</g>
<g id="j4rmrkvmex">
<path id="Vector_133" opacity="0.2" fill-rule="evenodd" clip-rule="evenodd" d="M315.624 281.883L306.504 285.306V270.79L315.624 273.976V281.883Z" fill="white"/>
</g>
<g id="j4rmrkvsey">
<path id="Vector_134" opacity="0.2" fill-rule="evenodd" clip-rule="evenodd" d="M358.103 281.883L348.983 285.306V270.79L358.103 273.976V281.883Z" fill="white"/>
</g>
<g id="j4rmrkw4ez">
<path id="Vector_135" fill-rule="evenodd" clip-rule="evenodd" d="M340.583 273.15V282.709L347.423 285.306V270.79L340.583 273.15ZM341.303 282.001L340.943 281.883V273.976L341.303 273.858L341.663 273.74L342.023 273.622V282.237L341.663 282.119L341.303 282.001ZM343.103 282.591L342.623 282.473V273.622L343.103 273.504L343.583 273.386L344.063 273.268V282.945L343.583 282.827L343.103 282.591ZM345.263 283.299L344.663 283.063V273.032L345.263 272.914L345.863 272.678L346.583 272.442V283.653L345.863 283.417L345.263 283.299Z" fill="#804998"/>
</g>
</g>
</g>
<g id="Icon Text Label_6">
<text id="IconLabel_8" fill="black" xml:space="preserve" style="white-space: pre" font-family="Oracle Sans" font-size="16" letter-spacing="0em"><tspan x="312.961" y="317.819">AKS</tspan></text>
</g>
</g>
<g id="Icon Master_12">
<g id="nic-dbfw-traffic-proxy">
<g id="Group_17">
<g id="Group_18">
<g id="Group_19">
<path id="Vector_136" d="M300.186 731.286V725.73H300.027V731.286H296.481V725.73H296.323V731.286H292.777V725.73H292.619V731.286H289.074V725.73H288.916V731.286H285.37V725.73H272.777V729.17H269.074V731.286H255.476V676.259H250.714V672.714H269.074V674.83H309.286V725.73H303.73V731.286H300.186Z" fill="white"/>
<path id="Vector_137" d="M268.36 673.429V675.544H308.571V725.016H303.016V730.571H300.9V725.016H299.313V730.571H297.197V725.016H295.61V730.571H293.493V725.016H291.906V730.571H289.789V725.016H288.201V730.571H286.086V725.016H272.064V728.454H268.36V730.571H256.19V675.544H251.429V673.429H268.36ZM269.789 672H268.36H251.429H250V673.429V675.544V676.973H251.429H254.761V730.571V732H256.19H268.359H269.787V730.571V729.884H272.063H273.491V728.456V726.446H284.656V730.571V732H286.084H288.2H289.629H289.787H291.904H293.333H293.491H295.609H297.037H297.196H299.311H300.74H300.899H303.014H304.443V730.571V726.444H308.571H310V725.016V675.544V674.116H308.571H269.789V673.429V672Z" fill="white"/>
</g>
<g id="Group_20">
<path id="Vector_138" d="M264.656 687.714H259.894V692.476H264.656V687.714Z" fill="#2D5967"/>
<path id="Vector_139" d="M263.069 718.401H264.656V714.17H263.069V713.111H259.894V714.17V718.401V719.46H263.069V718.401Z" fill="#2D5967"/>
<path id="Vector_140" d="M308.571 675.544H268.36V673.429H251.429V675.544H256.19V730.572H268.36V728.456H272.064V725.017H286.086V730.572H288.201V725.016H289.789V730.572H291.904V725.016H293.491V730.572H295.607V725.016H297.194V730.572H299.31V725.016H300.897V730.572H303.013V725.016H308.571V675.544ZM266.243 728.456H258.307V675.544H266.244V728.456H266.243ZM306.456 722.9H269.947V726.339H268.36V677.662H306.456V722.9Z" fill="#2D5967"/>
<path id="Vector_141" d="M284.233 709.143H289.789V718.667H304.603V710.73H300.714C300.277 709.499 299.104 708.614 297.724 708.614C295.974 708.614 294.55 710.039 294.55 711.789C294.55 713.539 295.974 714.963 297.724 714.963C299.103 714.963 300.277 714.077 300.714 712.847H302.487V716.552H291.906V707.027H284.234V704.912H282.119V696.71H287.41V683.746H291.246V698.296H295.346V700.147H304.604V694.329H295.346V696.18H293.361V690.889H295.346V692.74H304.604V686.92H295.346V688.772H293.361V683.746H295.346V685.597H304.604V679.777H295.346V681.629H287.409V679.777H270.476V696.709H272.591V704.91H270.476V718.667H284.233V709.143ZM297.46 696.444H302.487V698.032H297.46V696.444ZM297.46 689.037H302.487V690.624H297.46V689.037ZM297.46 681.894H302.487V683.482H297.46V681.894ZM280 704.91H278.413V696.709H280V704.91ZM272.593 681.894H285.291V694.593H272.593V681.894ZM274.709 696.709H276.296V704.91H274.709V696.709ZM282.116 716.55H272.591V707.026H282.116V716.55Z" fill="#2D5967"/>
</g>
</g>
</g>
</g>
<g id="Icon Text Label_7">
<text id="IconLabel_9" fill="black" xml:space="preserve" style="white-space: pre" font-family="Oracle Sans" font-size="16" letter-spacing="0em"><tspan x="224.359" y="749.816">Virtual network</tspan></text>
<text id="IconLabel_10" fill="black" xml:space="preserve" style="white-space: pre" font-family="Oracle Sans" font-size="16" letter-spacing="0em"><tspan x="230.656" y="765.816">interface card</tspan></text>
</g>
</g>
<g id="Icon Master_13">
<g id="Private-Endpoint-IP-Address">
<g id="Group 424">
<path id="Vector_142" d="M630.78 443.811C627.603 439.216 626.379 433.545 627.378 428.047C628.377 422.548 631.517 417.672 636.106 414.491C640.696 411.311 646.359 410.086 651.85 411.086C657.342 412.086 662.212 415.23 665.388 419.825C667.813 423.364 669.111 427.554 669.111 431.846C669.111 436.137 667.813 440.328 665.388 443.867L648.091 468.779L630.78 443.811Z" fill="white"/>
<path id="Vector_143" d="M648.062 411.404C651.785 411.39 655.441 412.398 658.632 414.319C661.822 416.24 664.426 419 666.16 422.298C667.894 425.597 668.692 429.309 668.467 433.03C668.242 436.751 667.002 440.338 664.883 443.404L648.09 467.544L631.354 443.404C629.24 440.346 628.001 436.769 627.772 433.058C627.542 429.347 628.33 425.643 630.051 422.348C631.771 419.053 634.359 416.292 637.533 414.363C640.708 412.434 644.349 411.41 648.062 411.404ZM648.062 410C644.093 410.007 640.201 411.101 636.808 413.163C633.415 415.225 630.649 418.176 628.81 421.698C626.972 425.22 626.129 429.179 626.375 433.145C626.621 437.112 627.945 440.936 630.204 444.204L646.941 468.344L648.09 470L649.24 468.344L665.962 444.204C668.224 440.933 669.548 437.105 669.792 433.135C670.036 429.165 669.19 425.203 667.346 421.68C665.502 418.156 662.731 415.205 659.331 413.147C655.932 411.088 652.035 410 648.062 410V410Z" fill="white"/>
<path id="Vector_144" d="M664.814 420.176C661.738 415.733 657.025 412.696 651.712 411.733C646.4 410.769 640.922 411.958 636.485 415.039C632.048 418.119 629.015 422.838 628.053 428.157C627.091 433.477 628.279 438.961 631.355 443.404L648.092 467.544L664.814 443.404C667.16 439.986 668.416 435.937 668.416 431.79C668.416 427.643 667.16 423.593 664.814 420.176ZM662.782 442.014L648.092 463.235L633.346 442C631.486 439.311 630.398 436.164 630.197 432.899C629.997 429.635 630.692 426.378 632.208 423.481C633.725 420.584 636.003 418.157 638.798 416.465C641.593 414.772 644.797 413.877 648.064 413.877C651.33 413.877 654.534 414.772 657.329 416.465C660.124 418.157 662.403 420.584 663.919 423.481C665.435 426.378 666.131 429.635 665.93 432.899C665.73 436.164 664.641 439.311 662.782 442V442.014Z" fill="#2D5967"/>
<path id="Vector_145" d="M654.258 426.253V423.221C654.249 422.261 654.019 421.316 653.587 420.459C653.154 419.602 652.53 418.857 651.763 418.281C651.002 417.701 650.116 417.308 649.176 417.135C648.236 416.962 647.269 417.013 646.352 417.284C645.057 417.677 643.924 418.478 643.121 419.568C642.318 420.658 641.887 421.979 641.894 423.333V426.253C640.661 427.479 639.818 429.044 639.475 430.75C639.131 432.456 639.301 434.226 639.963 435.836C640.625 437.445 641.75 438.821 643.194 439.789C644.639 440.757 646.338 441.274 648.076 441.274C649.814 441.274 651.513 440.757 652.958 439.789C654.402 438.821 655.527 437.445 656.189 435.836C656.851 434.226 657.021 432.456 656.677 430.75C656.334 429.044 655.491 427.479 654.258 426.253ZM644.347 423.333C644.335 422.511 644.589 421.707 645.072 421.041C645.555 420.376 646.24 419.885 647.025 419.642C647.578 419.48 648.162 419.45 648.729 419.555C649.297 419.66 649.831 419.896 650.291 420.246C650.753 420.593 651.13 421.042 651.393 421.557C651.655 422.073 651.796 422.642 651.805 423.221V424.526C650.637 423.981 649.364 423.698 648.076 423.698C646.788 423.698 645.515 423.981 644.347 424.526V423.333ZM648.076 438.772C646.82 438.78 645.59 438.415 644.542 437.721C643.494 437.028 642.675 436.039 642.19 434.879C641.705 433.719 641.575 432.44 641.817 431.206C642.059 429.972 642.662 428.838 643.549 427.948C644.436 427.057 645.568 426.451 646.8 426.206C648.032 425.961 649.309 426.088 650.468 426.571C651.628 427.055 652.618 427.872 653.313 428.92C654.007 429.968 654.375 431.199 654.37 432.456C654.379 433.289 654.223 434.115 653.911 434.887C653.598 435.659 653.136 436.361 652.551 436.953C651.965 437.544 651.268 438.013 650.5 438.333C649.732 438.652 648.908 438.816 648.076 438.814V438.772Z" fill="#2D5967"/>
<path id="Vector_146" d="M648.077 429.761H647.853C647.45 429.811 647.074 429.992 646.783 430.276C646.492 430.559 646.302 430.931 646.241 431.333C646.183 431.712 646.245 432.1 646.418 432.443C646.592 432.785 646.868 433.064 647.208 433.241L646.843 435.627H649.31L648.974 433.241C649.264 433.077 649.505 432.838 649.673 432.55C649.84 432.261 649.928 431.933 649.927 431.599C649.923 431.11 649.727 430.643 649.38 430.298C649.034 429.954 648.565 429.761 648.077 429.761Z" fill="#2D5967"/>
</g>
</g>
<g id="Icon Text Label_8">
<text id="IconLabel_11" fill="black" xml:space="preserve" style="white-space: pre" font-family="Oracle Sans" font-size="16" letter-spacing="0em"><tspan x="607.938" y="487.816">OCI Private</tspan></text>
<text id="IconLabel_12" fill="black" xml:space="preserve" style="white-space: pre" font-family="Oracle Sans" font-size="16" letter-spacing="0em"><tspan x="606.195" y="503.816">Endpoint IP</tspan></text>
</g>
</g>
<g id="Icon Master_14">
<g id="Services-Cloud">
<g id="Group 511">
<path id="Vector_147" d="M902.77 299.548L902.927 297.44C903.119 295.048 903.921 292.746 905.255 290.751C906.59 288.757 908.413 287.137 910.551 286.046C911.005 285.796 911.396 285.445 911.692 285.021C911.989 284.596 912.183 284.108 912.261 283.596C912.744 281.134 914.069 278.917 916.009 277.324C917.948 275.731 920.382 274.862 922.893 274.866C923.225 274.844 923.558 274.844 923.89 274.866H924.232C924.681 274.871 925.126 274.782 925.538 274.606C925.95 274.429 926.321 274.168 926.627 273.84C928.09 272.27 929.913 271.077 931.939 270.366C933.966 269.655 936.134 269.446 938.259 269.757C940.384 270.068 942.402 270.889 944.139 272.151C945.876 273.413 947.28 275.078 948.232 277.002C948.455 277.486 948.787 277.911 949.203 278.245C949.618 278.578 950.105 278.811 950.626 278.925C952.671 279.386 954.581 280.312 956.209 281.633C957.836 282.953 959.137 284.631 960.008 286.536C960.88 288.442 961.3 290.522 961.235 292.616C961.17 294.71 960.621 296.761 959.633 298.608L959.091 299.619L902.77 299.548Z" fill="white"/>
<path id="Vector_148" d="M936.36 270.378C938.697 270.369 940.99 271.015 942.978 272.244C944.966 273.473 946.569 275.234 947.604 277.329C947.883 277.888 948.284 278.378 948.777 278.763C949.27 279.147 949.844 279.416 950.454 279.55C951.899 279.876 953.277 280.444 954.53 281.231C957.294 282.96 959.295 285.677 960.126 288.828C960.957 291.979 960.557 295.328 959.005 298.194L958.663 298.835H903.539L903.639 297.524C903.796 295.248 904.534 293.049 905.781 291.137C907.028 289.225 908.744 287.663 910.765 286.6C911.316 286.318 911.796 285.915 912.171 285.422C912.546 284.929 912.806 284.358 912.931 283.752C913.243 282.153 913.937 280.654 914.955 279.382C915.972 278.11 917.282 277.102 918.774 276.446C920.06 275.886 921.447 275.595 922.85 275.591H923.79H924.189C924.724 275.584 925.252 275.469 925.742 275.254C926.231 275.038 926.673 274.727 927.04 274.338C928.235 273.07 929.68 272.064 931.285 271.382C932.889 270.701 934.617 270.359 936.36 270.378ZM936.36 268.954C934.436 268.956 932.533 269.354 930.77 270.123C929.007 270.893 927.422 272.017 926.113 273.426C925.872 273.682 925.58 273.885 925.257 274.023C924.933 274.16 924.584 274.228 924.232 274.224H923.961C923.605 274.203 923.248 274.203 922.892 274.224C920.218 274.229 917.627 275.159 915.562 276.857C913.496 278.556 912.083 280.916 911.563 283.538C911.481 283.939 911.311 284.315 911.065 284.641C910.818 284.966 910.501 285.232 910.137 285.418C907.904 286.584 906.004 288.3 904.618 290.403C903.232 292.506 902.404 294.928 902.214 297.439L902.114 298.749L902 300.287H959.518L959.917 299.547L960.259 298.906C961.32 296.964 961.912 294.801 961.991 292.59C962.07 290.379 961.632 288.18 960.712 286.168C959.792 284.156 958.416 282.385 956.692 280.996C954.969 279.608 952.945 278.64 950.782 278.169C950.38 278.083 950.001 277.912 949.671 277.666C949.342 277.42 949.069 277.106 948.873 276.745C947.725 274.406 945.945 272.436 943.733 271.059C941.521 269.681 938.966 268.952 936.36 268.954Z" fill="white"/>
<path id="Vector_149" d="M959.006 298.195L958.664 298.836H933.011C931.93 298.833 930.859 298.616 929.861 298.199C928.863 297.782 927.957 297.172 927.195 296.405C926.433 295.638 925.829 294.728 925.419 293.728C925.008 292.728 924.799 291.657 924.803 290.576H927.254C927.242 292.101 927.836 293.568 928.904 294.657C929.972 295.746 931.429 296.368 932.954 296.387H957.182C958.218 294.104 958.397 291.524 957.685 289.12C956.973 286.716 955.418 284.649 953.305 283.298C952.3 282.633 951.186 282.151 950.013 281.874C949.04 281.66 948.127 281.232 947.341 280.621C946.554 280.01 945.914 279.231 945.467 278.342C944.64 276.655 943.353 275.236 941.755 274.248C940.156 273.26 938.311 272.744 936.432 272.758C935.022 272.762 933.629 273.059 932.341 273.63C931.053 274.202 929.898 275.035 928.95 276.077C928.272 276.802 927.436 277.359 926.506 277.705C925.576 278.051 924.578 278.177 923.591 278.071C922.295 277.957 920.991 278.173 919.8 278.698C918.671 279.193 917.677 279.955 916.906 280.917C916.134 281.879 915.607 283.014 915.368 284.224C915.181 285.189 914.779 286.1 914.192 286.889C913.605 287.678 912.848 288.325 911.976 288.781C910.516 289.54 909.246 290.618 908.259 291.935C907.272 293.251 906.595 294.773 906.276 296.387H924.803C925.459 297.352 926.285 298.192 927.24 298.865H903.54L903.639 297.555C903.797 295.278 904.534 293.079 905.781 291.167C907.029 289.255 908.744 287.693 910.765 286.631C911.316 286.348 911.797 285.945 912.172 285.452C912.546 284.959 912.806 284.388 912.931 283.782C913.243 282.184 913.938 280.684 914.955 279.412C915.973 278.14 917.283 277.132 918.774 276.476C920.352 275.79 922.077 275.511 923.791 275.664C924.401 275.731 925.019 275.655 925.596 275.443C926.172 275.23 926.691 274.887 927.111 274.439C928.29 273.162 929.72 272.142 931.311 271.444C932.903 270.745 934.622 270.383 936.36 270.38C938.698 270.37 940.991 271.017 942.979 272.245C944.967 273.474 946.569 275.236 947.605 277.33C947.884 277.89 948.285 278.38 948.778 278.764C949.271 279.149 949.844 279.418 950.455 279.552C951.899 279.877 953.277 280.446 954.531 281.233C957.294 282.962 959.295 285.678 960.127 288.829C960.958 291.98 960.557 295.329 959.006 298.195Z" fill="#2D5967"/>
</g>
</g>
<g id="Icon Text Label_9">
<text id="IconLabel_13" fill="black" xml:space="preserve" style="white-space: pre" font-family="Oracle Sans" font-size="16" letter-spacing="0em"><tspan x="883.719" y="318.105">Control plane</tspan></text>
</g>
</g>
<path id="Vector 63" d="M294.77 272.71C295.16 272.32 295.16 271.686 294.77 271.296L288.406 264.932C288.015 264.541 287.382 264.541 286.991 264.932C286.601 265.322 286.601 265.956 286.991 266.346L292.648 272.003L286.991 277.66C286.601 278.05 286.601 278.683 286.991 279.074C287.382 279.465 288.015 279.465 288.406 279.074L294.77 272.71ZM268.969 273.003H294.062V271.003H268.969V273.003Z" fill="#312D2A"/>
<path id="Vector 62" d="M328 696L328 697L329 697L329 696L328 696ZM312.355 695.293C311.965 695.683 311.965 696.317 312.355 696.707L318.719 703.071C319.11 703.462 319.743 703.462 320.134 703.071C320.524 702.681 320.524 702.047 320.134 701.657L314.477 696L320.134 690.343C320.524 689.953 320.524 689.319 320.134 688.929C319.743 688.538 319.11 688.538 318.719 688.929L312.355 695.293ZM329 696L329 320.972L327 320.972L327 696L329 696ZM328 695L313.062 695L313.063 697L328 697L328 695Z" fill="#312D2A"/>
<path id="Vector 64" d="M328 160.5H329V159.5H328V160.5ZM123.875 160.5V159.5H122.875V160.5H123.875ZM123.168 240.957C123.558 241.348 124.191 241.348 124.582 240.957L130.946 234.593C131.336 234.203 131.336 233.569 130.946 233.179C130.555 232.788 129.922 232.788 129.532 233.179L123.875 238.836L118.218 233.179C117.827 232.788 117.194 232.788 116.804 233.179C116.413 233.569 116.413 234.203 116.804 234.593L123.168 240.957ZM124.875 240.25V238.256H122.875V240.25H124.875ZM124.875 234.269V230.281H122.875V234.269H124.875ZM124.875 226.294V222.306H122.875V226.294H124.875ZM124.875 218.319V214.331H122.875V218.319H124.875ZM124.875 210.344V206.356H122.875V210.344H124.875ZM124.875 202.369V198.381H122.875V202.369H124.875ZM124.875 194.394V190.406H122.875V194.394H124.875ZM124.875 186.419V182.431H122.875V186.419H124.875ZM124.875 178.444V174.456H122.875V178.444H124.875ZM124.875 170.469V166.481H122.875V170.469H124.875ZM124.875 162.494V160.5H122.875V162.494H124.875ZM123.875 161.5H125.837V159.5H123.875V161.5ZM129.763 161.5H133.688V159.5H129.763V161.5ZM137.614 161.5H141.539V159.5H137.614V161.5ZM145.465 161.5H149.39V159.5H145.465V161.5ZM153.316 161.5H157.241V159.5H153.316V161.5ZM161.167 161.5H165.092V159.5H161.167V161.5ZM169.018 161.5H172.943V159.5H169.018V161.5ZM176.869 161.5H180.794V159.5H176.869V161.5ZM184.72 161.5H188.645V159.5H184.72V161.5ZM192.571 161.5H196.496V159.5H192.571V161.5ZM200.422 161.5H204.347V159.5H200.422V161.5ZM208.273 161.5H212.198V159.5H208.273V161.5ZM216.124 161.5H220.049V159.5H216.124V161.5ZM223.975 161.5H227.9V159.5H223.975V161.5ZM231.826 161.5H235.751V159.5H231.826V161.5ZM239.677 161.5H243.602V159.5H239.677V161.5ZM247.528 161.5H251.453V159.5H247.528V161.5ZM255.379 161.5H259.304V159.5H255.379V161.5ZM263.229 161.5H267.155V159.5H263.229V161.5ZM271.08 161.5H275.006V159.5H271.08V161.5ZM278.931 161.5H282.857V159.5H278.931V161.5ZM286.782 161.5H290.708V159.5H286.782V161.5ZM294.633 161.5H298.559V159.5H294.633V161.5ZM302.484 161.5H306.41V159.5H302.484V161.5ZM310.335 161.5H314.261V159.5H310.335V161.5ZM318.186 161.5H322.112V159.5H318.186V161.5ZM326.037 161.5H328V159.5H326.037V161.5ZM327 160.5V162.448H329V160.5H327ZM327 166.344V170.24H329V166.344H327ZM327 174.135V178.031H329V174.135H327ZM327 181.927V185.823H329V181.927H327ZM327 189.719V193.615H329V189.719H327ZM327 197.51V201.406H329V197.51H327ZM327 205.302V209.198H329V205.302H327ZM327 213.094V216.99H329V213.094H327ZM327 220.885V224.781H329V220.885H327ZM327 228.677V232.573H329V228.677H327ZM327 236.469V240.365H329V236.469H327ZM327 244.26V248.156H329V244.26H327ZM327 252.052V254H329V252.052H327Z" fill="#312D2A"/>
<path id="Vector 77" d="M312 712H396.061V248.125H629.031" stroke="#312D2A" stroke-width="2"/>
<path id="Vector 78" d="M647.293 407.738C647.683 408.129 648.317 408.129 648.707 407.738L655.071 401.374C655.462 400.984 655.462 400.351 655.071 399.96C654.681 399.57 654.047 399.57 653.657 399.96L648 405.617L642.343 399.96C641.953 399.57 641.319 399.57 640.929 399.96C640.538 400.351 640.538 400.984 640.929 401.374L647.293 407.738ZM647 353.063L647 407.031L649 407.031L649 353.062L647 353.063Z" fill="#312D2A"/>
<path id="Vector 79" d="M647.293 668.77C647.683 669.16 648.317 669.16 648.707 668.77L655.071 662.406C655.462 662.015 655.462 661.382 655.071 660.991C654.681 660.601 654.047 660.601 653.657 660.991L648 666.648L642.343 660.991C641.953 660.601 641.319 660.601 640.929 660.991C640.538 661.382 640.538 662.015 640.929 662.406L647.293 668.77ZM647 507.031L647 668.063L649 668.062L649 507.031L647 507.031Z" fill="#312D2A"/>
<g id="Group 1501">
<g id="Connector Line Label">
<rect width="114" height="14" transform="translate(588 569)" fill="white"/>
<text id="Line Label" fill="#312D2A" xml:space="preserve" style="white-space: pre" font-family="Oracle Sans" font-size="14" letter-spacing="0em"><tspan x="592.473" y="581.089">location options:</tspan></text>
</g>
<g id="Connector Line Label_2">
<rect width="88" height="14" transform="translate(601 583)" fill="white"/>
<text id="Line Label_2" fill="#312D2A" xml:space="preserve" style="white-space: pre" font-family="Oracle Sans" font-size="14" letter-spacing="0em"><tspan x="605.126" y="595.089">Azure or OCI</tspan></text>
</g>
<g id="Connector Line Label_3">
<rect width="123" height="14" transform="translate(586.5 555)" fill="white"/>
<text id="Line Label_3" fill="#312D2A" xml:space="preserve" style="white-space: pre" font-family="Oracle Sans" font-size="14" letter-spacing="0em"><tspan x="590.558" y="567.089">Automatic backup</tspan></text>
</g>
</g>
<path id="Vector 80" d="M931.776 616H932.776V615H931.776V616ZM931.069 668.77C931.46 669.16 932.093 669.16 932.484 668.77L938.848 662.406C939.238 662.015 939.238 661.382 938.848 660.991C938.457 660.601 937.824 660.601 937.433 660.991L931.776 666.648L926.12 660.991C925.729 660.601 925.096 660.601 924.705 660.991C924.315 661.382 924.315 662.015 924.705 662.406L931.069 668.77ZM648 617H931.776V615H648V617ZM930.776 616V668.062H932.776V616H930.776Z" fill="#312D2A"/>
<path id="Vector 81" d="M383.293 160.293C382.902 160.683 382.902 161.317 383.293 161.707L389.657 168.071C390.047 168.462 390.681 168.462 391.071 168.071C391.462 167.681 391.462 167.047 391.071 166.657L385.414 161L391.071 155.343C391.462 154.953 391.462 154.319 391.071 153.929C390.681 153.538 390.047 153.538 389.657 153.929L383.293 160.293ZM424.707 161.707C425.098 161.317 425.098 160.683 424.707 160.293L418.343 153.929C417.953 153.538 417.319 153.538 416.929 153.929C416.538 154.319 416.538 154.953 416.929 155.343L422.586 161L416.929 166.657C416.538 167.047 416.538 167.681 416.929 168.071C417.319 168.462 417.953 168.462 418.343 168.071L424.707 161.707ZM384 162H424V160H384V162Z" fill="#312D2A"/>
<path id="Vector 82" d="M32 368H31V369H32V368ZM236.375 368V369H237.375V368H236.375ZM237.082 337.793C236.692 337.402 236.058 337.402 235.668 337.793L229.304 344.157C228.913 344.547 228.913 345.181 229.304 345.571C229.694 345.962 230.328 345.962 230.718 345.571L236.375 339.914L242.032 345.571C242.422 345.962 243.056 345.962 243.446 345.571C243.837 345.181 243.837 344.547 243.446 344.157L237.082 337.793ZM31 304V368H33V304H31ZM32 369H236.375V367H32V369ZM237.375 368V338.5H235.375V368H237.375Z" fill="#312D2A"/>
</g>
<defs>
<radialGradient id="paint0_radial_18135_4059" cx="0" cy="0" r="1" gradientUnits="userSpaceOnUse" gradientTransform="translate(32.8657 270.605) scale(30.0503 30.0503)">
<stop offset="0.18" stop-color="#5EA0EF"/>
<stop offset="1" stop-color="#0078D4"/>
</radialGradient>
<linearGradient id="paint1_linear_18135_4059" x1="360.488" y1="39.1294" x2="364.128" y2="42.7593" gradientUnits="userSpaceOnUse">
<stop stop-color="#86D633"/>
<stop offset="1" stop-color="#5E9624"/>
</linearGradient>
<linearGradient id="paint2_linear_18135_4059" x1="350.479" y1="37.342" x2="354.093" y2="40.9779" gradientUnits="userSpaceOnUse">
<stop stop-color="#86D633"/>
<stop offset="1" stop-color="#5E9624"/>
</linearGradient>
<linearGradient id="paint3_linear_18135_4059" x1="342.282" y1="37.3348" x2="345.896" y2="40.971" gradientUnits="userSpaceOnUse">
<stop stop-color="#86D633"/>
<stop offset="1" stop-color="#5E9624"/>
</linearGradient>
<linearGradient id="paint4_linear_18135_4059" x1="686.682" y1="38.149" x2="713.812" y2="38.149" gradientUnits="userSpaceOnUse">
<stop stop-color="#C74634"/>
<stop offset="0.5" stop-color="#DB897D"/>
<stop offset="1" stop-color="#C74634"/>
</linearGradient>
<linearGradient id="paint5_linear_18135_4059" x1="686.392" y1="30.892" x2="686.392" y2="13.0001" gradientUnits="userSpaceOnUse">
<stop stop-color="#32BEDD"/>
<stop offset="1" stop-color="#50E6FF"/>
</linearGradient>
<linearGradient id="paint6_linear_18135_4059" x1="122.306" y1="233.359" x2="122.306" y2="295.827" gradientUnits="userSpaceOnUse">
<stop stop-color="#5EA0EF"/>
<stop offset="1" stop-color="#0078D4"/>
</linearGradient>
<linearGradient id="paint7_linear_18135_4059" x1="136.724" y1="278.15" x2="136.724" y2="286.221" gradientUnits="userSpaceOnUse">
<stop stop-color="#333132"/>
<stop offset="1" stop-color="#5B5A5C"/>
</linearGradient>
<linearGradient id="paint8_linear_18135_4059" x1="236.5" y1="306.169" x2="236.5" y2="236.603" gradientUnits="userSpaceOnUse">
<stop stop-color="#5E9624"/>
<stop offset="0.02" stop-color="#5F9724"/>
<stop offset="1" stop-color="#76BC2D"/>
</linearGradient>
</defs>
</svg>
