<svg width="1128" height="894" viewBox="0 0 1128 894" fill="none" xmlns="http://www.w3.org/2000/svg">
<g id="lustre-file-system-oci-arch" clip-path="url(#clip0_14641_287793)">
<rect width="1128" height="894" fill="white"/>
<g id="OCI Region">
<rect x="0.5" y="0.5" width="1127" height="893" rx="3.5" fill="#F5F4F2"/>
<rect x="0.5" y="0.5" width="1127" height="893" rx="3.5" stroke="#9E9892"/>
<text id="OCI Region_2" fill="#312D2A" xml:space="preserve" style="white-space: pre" font-family="Oracle Sans" font-size="16" font-weight="bold" letter-spacing="0em"><tspan x="521.555" y="21.816">OCI Region</tspan></text>
</g>
<g id="OCI Region_3">
<rect x="16.5" y="32.5" width="1095" height="847" rx="3.5" fill="#E4E1DD"/>
<rect x="16.5" y="32.5" width="1095" height="847" rx="3.5" stroke="#9E9892"/>
<text id="Availability Domain" fill="#312D2A" xml:space="preserve" style="white-space: pre" font-family="Oracle Sans" font-size="16" font-weight="600" letter-spacing="0em"><tspan x="492.055" y="53.816">Availability Domain</tspan></text>
</g>
<g id="OCI Region_4">
<rect x="32.5" y="576.5" width="1063" height="289" rx="3.5" fill="#F5F4F2"/>
<rect x="32.5" y="576.5" width="1063" height="289" rx="3.5" stroke="#9E9892"/>
<text id="OCI Region_5" fill="#312D2A" xml:space="preserve" style="white-space: pre" font-family="Oracle Sans" font-size="16" font-weight="600" letter-spacing="0em"><tspan x="527.797" y="597.816">Customer</tspan></text>
<text id="OCI Region_6" fill="#312D2A" xml:space="preserve" style="white-space: pre" font-family="Oracle Sans" font-size="16" font-weight="600" letter-spacing="0em"><tspan x="527.07" y="613.816"> Managed</tspan></text>
<text id="OCI Region_7" fill="#312D2A" xml:space="preserve" style="white-space: pre" font-family="Oracle Sans" font-size="16" font-weight="600" letter-spacing="0em"><tspan x="512.594" y="629.816">Infrastructure</tspan></text>
</g>
<g id="OCI Region_8">
<rect x="32.5" y="64.5" width="1063" height="447" rx="3.5" fill="#F5F4F2"/>
<rect x="32.5" y="64.5" width="1063" height="447" rx="3.5" stroke="#9E9892"/>
<text id="OCI Region_9" fill="#312D2A" xml:space="preserve" style="white-space: pre" font-family="Oracle Sans" font-size="16" font-weight="600" letter-spacing="0em"><tspan x="501.312" y="85.816">Oracle  Managed </tspan></text>
<text id="OCI Region_10" fill="#312D2A" xml:space="preserve" style="white-space: pre" font-family="Oracle Sans" font-size="16" font-weight="600" letter-spacing="0em"><tspan x="510.633" y="101.816"> Infrastructure</tspan></text>
</g>
<g id="OCI Region_11">
<rect x="48.5" y="112.5" width="455" height="383" fill="white"/>
<rect x="48.5" y="112.5" width="455" height="383" stroke="#9E9892" stroke-dasharray="4 4"/>
<text id="Optional" fill="#312D2A" xml:space="preserve" style="white-space: pre" font-family="Oracle Sans" font-size="16" font-weight="600" letter-spacing="0em"><tspan x="120.289" y="133.816">Scale out meta data size and performance</tspan></text>
</g>
<g id="OCI Region_12">
<rect x="624.5" y="112.5" width="455" height="383" fill="white"/>
<rect x="624.5" y="112.5" width="455" height="383" stroke="#9E9892" stroke-dasharray="4 4"/>
<text id="Optional_2" fill="#312D2A" xml:space="preserve" style="white-space: pre" font-family="Oracle Sans" font-size="16" font-weight="600" letter-spacing="0em"><tspan x="706.047" y="133.816">Scale out storage size and performance</tspan></text>
</g>
<g id="Lustre client workload instance">
<g id="Srv-OCI Virtual Machine">
<g id="Group">
<g id="Group_2">
<path id="Vector" d="M50.8497 767.286C49.1395 767.286 47.7143 765.857 47.7143 764.143V711.857C47.7143 710.143 49.1395 708.714 50.8497 708.714H103.154C104.864 708.714 106.289 710.143 106.289 711.857V764.286C106.289 766 104.864 767.429 103.154 767.429L50.8497 767.286Z" fill="white"/>
<path id="Vector_2" d="M103.01 709.429C104.292 709.429 105.432 710.571 105.432 711.857V764.286C105.432 765.571 104.292 766.714 103.01 766.714H50.848C49.5653 766.571 48.4252 765.429 48.4252 764.143V711.857C48.4252 710.571 49.5653 709.429 50.848 709.429H103.01ZM103.01 708H50.848C48.7102 708 47 709.714 47 711.857V764.286C47 766.286 48.7102 768 50.848 768H103.152C105.29 768 107 766.286 107 764.143V711.857C106.857 709.714 105.147 708 103.01 708Z" fill="white"/>
</g>
<g id="Group_3">
<path id="Vector_3" d="M103.01 709.429H50.8484C49.5658 709.429 48.4256 710.572 48.4256 711.858V764.286C48.4256 765.429 49.5658 766.572 50.8484 766.572H103.152C104.435 766.572 105.575 765.429 105.575 764.143V711.858C105.433 710.572 104.293 709.429 103.01 709.429ZM103.295 764.143C103.295 764.286 103.152 764.429 103.01 764.429H50.8484C50.7059 764.429 50.5634 764.286 50.5634 764.143V711.858C50.5634 711.715 50.7059 711.572 50.8484 711.572H103.152C103.295 711.572 103.438 711.715 103.438 711.858L103.295 764.143Z" fill="#2D5967"/>
<path id="Vector_4" d="M56.4062 758.573H97.8788V745.858H56.4062V758.573ZM58.4014 748.001H95.5986V756.573H58.4014V748.001Z" fill="#2D5967"/>
<path id="Vector_5" d="M90.8951 753.858C91.761 753.858 92.4628 753.154 92.4628 752.286C92.4628 751.418 91.761 750.715 90.8951 750.715C90.0293 750.715 89.3275 751.418 89.3275 752.286C89.3275 753.154 90.0293 753.858 90.8951 753.858Z" fill="#2D5967"/>
<path id="Vector_6" d="M68.9477 717.429H56.4062V730.143H69.0902L68.9477 717.429ZM66.9525 728H58.4014V719.429H66.9525V728Z" fill="#2D5967"/>
<path id="Vector_7" d="M83.2005 717.429H70.5164V730.143H83.2005V717.429ZM81.2053 728H72.6542V719.429H81.2053V728Z" fill="#2D5967"/>
<path id="Vector_8" d="M68.9477 731.714H56.4062V744.429H69.0902L68.9477 731.714ZM66.9525 742.286H58.4014V733.714H66.9525V742.286Z" fill="#2D5967"/>
<path id="Vector_9" d="M83.2005 731.714H70.5164V744.429H83.2005V731.714ZM81.2053 742.286H72.6542V733.714H81.2053V742.286Z" fill="#2D5967"/>
<path id="Vector_10" d="M97.4521 717.429H84.768V730.143H97.4521V717.429ZM95.4569 728H86.9058V719.429H95.4569V728Z" fill="#2D5967"/>
<path id="Vector_11" d="M97.4521 731.714H84.768V744.429H97.4521V731.714ZM95.4569 742.286H86.9058V733.714H95.4569V742.286Z" fill="#2D5967"/>
</g>
</g>
</g>
<g id="Icon Text Label">
<text id="IconLabel" fill="#312D2A" xml:space="preserve" style="white-space: pre" font-family="Oracle Sans" font-size="16" letter-spacing="0em"><tspan x="54.2109" y="785.816">Lustre</tspan></text>
<text id="IconLabel_2" fill="#312D2A" xml:space="preserve" style="white-space: pre" font-family="Oracle Sans" font-size="16" letter-spacing="0em"><tspan x="57.5312" y="801.816">client</tspan></text>
</g>
</g>
<g id="Lustre client workload instance_2">
<g id="Srv-OCI Virtual Machine_2">
<g id="Group_4">
<g id="Group_5">
<path id="Vector_12" d="M1026.85 767.286C1025.14 767.286 1023.71 765.857 1023.71 764.143V711.857C1023.71 710.143 1025.14 708.714 1026.85 708.714H1079.15C1080.86 708.714 1082.29 710.143 1082.29 711.857V764.286C1082.29 766 1080.86 767.429 1079.15 767.429L1026.85 767.286Z" fill="white"/>
<path id="Vector_13" d="M1079.01 709.429C1080.29 709.429 1081.43 710.571 1081.43 711.857V764.286C1081.43 765.571 1080.29 766.714 1079.01 766.714H1026.85C1025.57 766.571 1024.43 765.429 1024.43 764.143V711.857C1024.43 710.571 1025.57 709.429 1026.85 709.429H1079.01ZM1079.01 708H1026.85C1024.71 708 1023 709.714 1023 711.857V764.286C1023 766.286 1024.71 768 1026.85 768H1079.15C1081.29 768 1083 766.286 1083 764.143V711.857C1082.86 709.714 1081.15 708 1079.01 708Z" fill="white"/>
</g>
<g id="Group_6">
<path id="Vector_14" d="M1079.01 709.429H1026.85C1025.57 709.429 1024.43 710.572 1024.43 711.858V764.286C1024.43 765.429 1025.57 766.572 1026.85 766.572H1079.15C1080.44 766.572 1081.58 765.429 1081.58 764.143V711.858C1081.43 710.572 1080.29 709.429 1079.01 709.429ZM1079.3 764.143C1079.3 764.286 1079.15 764.429 1079.01 764.429H1026.85C1026.71 764.429 1026.56 764.286 1026.56 764.143V711.858C1026.56 711.715 1026.71 711.572 1026.85 711.572H1079.15C1079.3 711.572 1079.44 711.715 1079.44 711.858L1079.3 764.143Z" fill="#2D5967"/>
<path id="Vector_15" d="M1032.41 758.573H1073.88V745.858H1032.41V758.573ZM1034.4 748.001H1071.6V756.573H1034.4V748.001Z" fill="#2D5967"/>
<path id="Vector_16" d="M1066.9 753.858C1067.76 753.858 1068.46 753.154 1068.46 752.286C1068.46 751.418 1067.76 750.715 1066.9 750.715C1066.03 750.715 1065.33 751.418 1065.33 752.286C1065.33 753.154 1066.03 753.858 1066.9 753.858Z" fill="#2D5967"/>
<path id="Vector_17" d="M1044.95 717.429H1032.41V730.143H1045.09L1044.95 717.429ZM1042.95 728H1034.4V719.429H1042.95V728Z" fill="#2D5967"/>
<path id="Vector_18" d="M1059.2 717.429H1046.52V730.143H1059.2V717.429ZM1057.21 728H1048.65V719.429H1057.21V728Z" fill="#2D5967"/>
<path id="Vector_19" d="M1044.95 731.714H1032.41V744.429H1045.09L1044.95 731.714ZM1042.95 742.286H1034.4V733.714H1042.95V742.286Z" fill="#2D5967"/>
<path id="Vector_20" d="M1059.2 731.714H1046.52V744.429H1059.2V731.714ZM1057.21 742.286H1048.65V733.714H1057.21V742.286Z" fill="#2D5967"/>
<path id="Vector_21" d="M1073.45 717.429H1060.77V730.143H1073.45V717.429ZM1071.46 728H1062.91V719.429H1071.46V728Z" fill="#2D5967"/>
<path id="Vector_22" d="M1073.45 731.714H1060.77V744.429H1073.45V731.714ZM1071.46 742.286H1062.91V733.714H1071.46V742.286Z" fill="#2D5967"/>
</g>
</g>
</g>
<g id="Icon Text Label_2">
<text id="IconLabel_3" fill="#312D2A" xml:space="preserve" style="white-space: pre" font-family="Oracle Sans" font-size="16" letter-spacing="0em"><tspan x="1030.21" y="785.816">Lustre</tspan></text>
<text id="IconLabel_4" fill="#312D2A" xml:space="preserve" style="white-space: pre" font-family="Oracle Sans" font-size="16" letter-spacing="0em"><tspan x="1033.53" y="801.816">client</tspan></text>
</g>
</g>
<g id="VCN box_New">
<rect id="Rectangle 28" x="209" y="640.972" width="719" height="206" stroke="#AA643B" stroke-width="2" stroke-dasharray="8 4"/>
<g id="Icon Master">
<g id="Srv-VCN">
<g id="Group 39">
<path id="Vector_23" d="M907.416 663.51C906.16 663.51 904.944 663.077 903.969 662.285C902.995 661.493 902.323 660.39 902.066 659.16H895.595C895.408 660.054 895 660.887 894.408 661.583C893.816 662.279 893.06 662.816 892.208 663.144C891.356 663.472 890.435 663.582 889.53 663.463C888.625 663.343 887.764 662.999 887.026 662.462C886.287 661.924 885.695 661.21 885.304 660.385C884.912 659.56 884.733 658.65 884.783 657.738C884.833 656.825 885.111 655.94 885.59 655.163C886.07 654.386 886.737 653.741 887.529 653.288L885.533 647.141C885.336 647.155 885.138 647.155 884.941 647.141C884.053 647.143 883.179 646.929 882.392 646.517C881.606 646.105 880.932 645.508 880.428 644.777C879.923 644.046 879.605 643.203 879.499 642.321C879.394 641.439 879.504 640.545 879.821 639.715C880.138 638.886 880.652 638.146 881.319 637.56C881.986 636.973 882.785 636.558 883.648 636.35C884.511 636.142 885.411 636.148 886.272 636.366C887.132 636.584 887.927 637.008 888.586 637.602L893.845 633.873C893.527 633.167 893.363 632.403 893.362 631.629C893.362 630.178 893.938 628.786 894.964 627.76C895.989 626.734 897.38 626.158 898.83 626.158C900.281 626.158 901.672 626.734 902.697 627.76C903.723 628.786 904.299 630.178 904.299 631.629C904.301 632.402 904.139 633.167 903.825 633.873L909.093 637.639C910.088 636.726 911.388 636.218 912.738 636.216C914.188 636.216 915.579 636.793 916.605 637.819C917.63 638.845 918.206 640.237 918.206 641.688C918.206 643.139 917.63 644.531 916.605 645.557C915.579 646.583 914.188 647.159 912.738 647.159C912.547 647.159 912.346 647.159 912.155 647.159L910.15 653.306C911.199 653.905 912.02 654.835 912.485 655.951C912.95 657.066 913.032 658.304 912.72 659.471C912.408 660.639 911.718 661.67 910.759 662.404C909.799 663.138 908.624 663.533 907.416 663.528V663.51Z" fill="white"/>
<path id="Vector_24" d="M898.84 626.577C899.707 626.579 900.56 626.806 901.314 627.236C902.068 627.665 902.697 628.283 903.142 629.029C903.586 629.775 903.829 630.623 903.849 631.491C903.868 632.359 903.662 633.217 903.251 633.982L909.093 638.231C909.665 637.632 910.377 637.184 911.164 636.928C911.951 636.671 912.79 636.614 913.605 636.761C914.42 636.908 915.186 637.254 915.835 637.77C916.483 638.285 916.994 638.954 917.321 639.715C917.648 640.476 917.782 641.307 917.71 642.132C917.638 642.958 917.363 643.753 916.909 644.446C916.455 645.139 915.836 645.709 915.109 646.104C914.381 646.5 913.566 646.709 912.738 646.712C912.433 646.717 912.128 646.692 911.827 646.639L909.594 653.524C910.375 653.901 911.045 654.475 911.538 655.188C912.032 655.902 912.332 656.731 912.409 657.595C912.486 658.459 912.338 659.329 911.979 660.119C911.62 660.908 911.062 661.591 910.36 662.101C909.659 662.611 908.837 662.929 907.975 663.026C907.113 663.123 906.241 662.994 905.444 662.653C904.647 662.312 903.952 661.769 903.427 661.079C902.902 660.388 902.565 659.573 902.449 658.713H895.212C895.095 659.573 894.757 660.388 894.231 661.078C893.706 661.768 893.01 662.31 892.212 662.65C891.414 662.991 890.542 663.118 889.68 663.02C888.818 662.922 887.996 662.603 887.295 662.092C886.594 661.581 886.037 660.897 885.679 660.106C885.322 659.316 885.175 658.446 885.253 657.582C885.332 656.718 885.634 655.889 886.128 655.176C886.623 654.463 887.294 653.891 888.076 653.515L885.843 646.639C885.543 646.695 885.237 646.723 884.932 646.721C884.101 646.72 883.284 646.512 882.553 646.117C881.822 645.722 881.201 645.152 880.745 644.457C880.289 643.763 880.011 642.966 879.939 642.138C879.866 641.31 879.999 640.477 880.327 639.713C880.655 638.95 881.167 638.279 881.817 637.762C882.468 637.245 883.236 636.898 884.054 636.751C884.871 636.604 885.712 636.663 886.502 636.921C887.291 637.179 888.005 637.63 888.577 638.231L894.419 633.982C894.008 633.216 893.802 632.358 893.821 631.489C893.841 630.62 894.085 629.771 894.531 629.025C894.976 628.279 895.607 627.661 896.362 627.232C897.118 626.803 897.971 626.577 898.84 626.577ZM898.84 625.665C897.268 625.665 895.76 626.289 894.647 627.401C893.535 628.512 892.909 630.02 892.906 631.593C892.906 632.306 893.035 633.014 893.289 633.681L888.632 637.055C887.891 636.464 887.019 636.059 886.089 635.874C885.16 635.689 884.199 635.73 883.288 635.993C882.378 636.256 881.543 636.733 880.855 637.385C880.166 638.037 879.644 638.844 879.332 639.74C879.019 640.635 878.926 641.593 879.059 642.532C879.192 643.471 879.548 644.364 880.098 645.137C880.647 645.91 881.373 646.54 882.216 646.974C883.059 647.409 883.993 647.635 884.941 647.633H885.205L887.028 653.105C886.23 653.633 885.572 654.347 885.11 655.185C884.648 656.023 884.396 656.961 884.375 657.918C884.354 658.875 884.564 659.823 884.989 660.68C885.414 661.538 886.04 662.28 886.814 662.843C887.588 663.406 888.486 663.772 889.433 663.912C890.379 664.052 891.345 663.96 892.249 663.645C893.152 663.329 893.965 662.8 894.62 662.102C895.274 661.403 895.749 660.557 896.005 659.634H901.747C902.001 660.56 902.476 661.41 903.13 662.112C903.784 662.814 904.599 663.346 905.504 663.664C906.41 663.981 907.378 664.075 908.328 663.936C909.277 663.797 910.178 663.429 910.954 662.865C911.73 662.301 912.358 661.558 912.784 660.697C913.21 659.837 913.421 658.887 913.4 657.927C913.378 656.968 913.124 656.028 912.66 655.188C912.195 654.348 911.534 653.633 910.733 653.105L912.556 647.633H912.738C913.544 647.678 914.35 647.558 915.108 647.28C915.865 647.003 916.558 646.573 917.144 646.018C917.73 645.464 918.197 644.795 918.516 644.053C918.835 643.312 919 642.513 919 641.706C919 640.899 918.835 640.1 918.516 639.358C918.197 638.617 917.73 637.948 917.144 637.393C916.558 636.838 915.865 636.409 915.108 636.131C914.35 635.854 913.544 635.734 912.738 635.778C911.396 635.775 910.093 636.232 909.047 637.073L904.399 633.699C904.646 633.031 904.772 632.324 904.773 631.611C904.774 630.83 904.621 630.057 904.324 629.336C904.026 628.615 903.589 627.959 903.038 627.407C902.487 626.855 901.833 626.417 901.112 626.118C900.392 625.819 899.619 625.665 898.84 625.665V625.665Z" fill="white"/>
<path id="Vector_25" d="M912.739 636.671C912.057 636.669 911.382 636.807 910.755 637.075C910.128 637.343 909.563 637.736 909.093 638.23L903.251 633.981C903.665 633.215 903.874 632.355 903.856 631.485C903.838 630.615 903.595 629.764 903.15 629.016C902.705 628.269 902.073 627.649 901.317 627.219C900.56 626.789 899.705 626.563 898.835 626.563C897.966 626.563 897.111 626.789 896.354 627.219C895.598 627.649 894.966 628.269 894.521 629.016C894.076 629.764 893.832 630.615 893.815 631.485C893.797 632.355 894.005 633.215 894.42 633.981L888.569 638.23C887.996 637.633 887.284 637.188 886.497 636.933C885.709 636.678 884.871 636.622 884.058 636.77C883.244 636.918 882.479 637.265 881.832 637.781C881.184 638.296 880.675 638.964 880.348 639.725C880.022 640.485 879.888 641.315 879.96 642.14C880.032 642.964 880.306 643.759 880.759 644.451C881.212 645.144 881.83 645.714 882.556 646.11C883.283 646.505 884.096 646.715 884.923 646.72C885.229 646.722 885.534 646.694 885.835 646.638L888.067 653.505C887.286 653.881 886.614 654.453 886.12 655.166C885.625 655.878 885.323 656.707 885.245 657.572C885.166 658.436 885.313 659.306 885.671 660.096C886.029 660.887 886.585 661.571 887.287 662.082C887.988 662.592 888.809 662.912 889.671 663.01C890.533 663.108 891.405 662.981 892.203 662.64C893.001 662.3 893.697 661.758 894.223 661.068C894.749 660.378 895.087 659.563 895.204 658.703H902.44C902.556 659.563 902.893 660.378 903.418 661.068C903.943 661.759 904.638 662.301 905.435 662.643C906.233 662.984 907.105 663.113 907.966 663.016C908.828 662.919 909.65 662.601 910.352 662.091C911.054 661.581 911.611 660.898 911.97 660.108C912.329 659.319 912.477 658.449 912.4 657.585C912.323 656.721 912.023 655.891 911.53 655.178C911.036 654.464 910.366 653.891 909.585 653.514L911.827 646.638C912.128 646.694 912.433 646.722 912.739 646.72C913.422 646.762 914.107 646.662 914.751 646.429C915.395 646.196 915.985 645.833 916.483 645.363C916.982 644.893 917.379 644.326 917.651 643.697C917.923 643.068 918.063 642.39 918.063 641.705C918.063 641.019 917.923 640.341 917.651 639.712C917.379 639.083 916.982 638.516 916.483 638.046C915.985 637.577 915.395 637.214 914.751 636.98C914.107 636.747 913.422 636.648 912.739 636.689V636.671ZM907.416 661.712C906.695 661.712 905.99 661.498 905.391 661.098C904.791 660.697 904.324 660.127 904.048 659.461C903.772 658.794 903.7 658.061 903.841 657.353C903.981 656.645 904.328 655.996 904.838 655.485C905.348 654.975 905.998 654.628 906.705 654.487C907.412 654.346 908.145 654.419 908.811 654.695C909.477 654.971 910.047 655.438 910.447 656.038C910.848 656.638 911.062 657.343 911.062 658.065C911.062 659.032 910.678 659.96 909.994 660.644C909.31 661.328 908.383 661.712 907.416 661.712ZM895.213 657.362C895.063 656.23 894.529 655.184 893.7 654.399L896.434 650.578C897.167 650.967 897.983 651.17 898.813 651.171C899.639 651.173 900.454 650.97 901.182 650.578L903.916 654.399C903.085 655.183 902.547 656.229 902.394 657.362H895.213ZM886.564 658.037C886.564 657.316 886.777 656.611 887.178 656.011C887.579 655.411 888.148 654.943 888.814 654.667C889.48 654.391 890.213 654.319 890.92 654.46C891.628 654.6 892.277 654.948 892.787 655.458C893.297 655.968 893.644 656.618 893.785 657.326C893.925 658.033 893.853 658.767 893.577 659.433C893.301 660.1 892.834 660.669 892.235 661.07C891.635 661.471 890.93 661.685 890.209 661.685C889.242 661.685 888.315 661.301 887.631 660.617C886.948 659.933 886.564 659.005 886.564 658.037ZM884.941 638.021C885.662 638.021 886.367 638.234 886.967 638.635C887.566 639.036 888.033 639.606 888.309 640.272C888.585 640.939 888.658 641.672 888.517 642.38C888.376 643.087 888.029 643.737 887.519 644.248C887.009 644.758 886.36 645.105 885.653 645.246C884.945 645.387 884.212 645.314 883.546 645.038C882.88 644.762 882.311 644.295 881.91 643.695C881.51 643.095 881.296 642.39 881.296 641.668C881.296 640.701 881.68 639.773 882.364 639.089C883.047 638.405 883.974 638.021 884.941 638.021ZM895.158 631.637C895.158 630.916 895.372 630.21 895.772 629.611C896.173 629.011 896.742 628.543 897.408 628.267C898.075 627.991 898.808 627.919 899.515 628.059C900.222 628.2 900.871 628.548 901.381 629.058C901.891 629.568 902.238 630.218 902.379 630.925C902.52 631.633 902.447 632.366 902.172 633.033C901.896 633.7 901.428 634.269 900.829 634.67C900.229 635.071 899.525 635.285 898.804 635.285C898.321 635.285 897.843 635.189 897.398 635.003C896.953 634.817 896.549 634.544 896.209 634.2C895.87 633.857 895.603 633.449 895.422 633.001C895.242 632.554 895.152 632.074 895.158 631.591V631.637ZM907.79 642.58L903.37 643.994C903.009 643.239 902.468 642.586 901.794 642.093C901.119 641.599 900.333 641.281 899.505 641.167V636.607C900.634 636.457 901.677 635.922 902.458 635.093L908.318 639.343C907.922 640.073 907.715 640.892 907.717 641.723C907.719 642.007 907.743 642.291 907.79 642.571V642.58ZM902.513 646.164C902.513 646.885 902.299 647.591 901.898 648.191C901.498 648.79 900.929 649.258 900.262 649.534C899.596 649.81 898.863 649.882 898.156 649.742C897.449 649.601 896.799 649.254 896.29 648.743C895.78 648.233 895.432 647.583 895.292 646.876C895.151 646.168 895.223 645.435 895.499 644.768C895.775 644.102 896.242 643.532 896.842 643.131C897.441 642.73 898.146 642.516 898.867 642.516C899.833 642.516 900.758 642.899 901.442 643.582C902.125 644.264 902.51 645.189 902.513 646.155V646.164ZM898.156 636.607V641.167C897.331 641.279 896.546 641.596 895.873 642.088C895.2 642.58 894.66 643.232 894.301 643.985L889.872 642.571C889.929 642.27 889.956 641.965 889.954 641.659C889.946 640.85 889.743 640.056 889.362 639.343L895.213 635.084C895.99 635.915 897.03 636.452 898.156 636.607ZM889.462 643.902L893.891 645.316C893.835 645.617 893.807 645.922 893.809 646.228C893.806 646.911 893.943 647.588 894.213 648.215C894.483 648.843 894.879 649.408 895.377 649.876L892.643 653.706C891.915 653.31 891.101 653.103 890.273 653.104C889.967 653.102 889.662 653.129 889.362 653.186L887.12 646.219C888.142 645.734 888.971 644.918 889.471 643.902H889.462ZM907.416 653.022C906.59 653.023 905.776 653.227 905.047 653.614L902.312 649.803C902.808 649.334 903.203 648.768 903.473 648.141C903.743 647.514 903.881 646.838 903.88 646.155C903.882 645.849 903.855 645.544 903.798 645.243L908.182 643.848C908.678 644.879 909.506 645.714 910.533 646.219L908.3 653.095C908.008 653.044 907.712 653.019 907.416 653.022ZM909.093 641.696C909.093 640.974 909.307 640.269 909.707 639.669C910.108 639.069 910.677 638.602 911.343 638.326C912.01 638.049 912.743 637.977 913.45 638.118C914.157 638.259 914.807 638.606 915.316 639.116C915.826 639.626 916.173 640.276 916.314 640.984C916.455 641.692 916.383 642.425 916.107 643.092C915.831 643.758 915.363 644.328 914.764 644.729C914.164 645.129 913.46 645.343 912.739 645.343C911.772 645.343 910.844 644.959 910.161 644.275C909.477 643.591 909.093 642.663 909.093 641.696Z" fill="#AA643B"/>
</g>
</g>
</g>
<text id="VCN" fill="#AE562C" xml:space="preserve" style="white-space: pre" font-family="Oracle Sans" font-size="16" font-weight="600" letter-spacing="0em"><tspan x="217" y="662.816">VCN</tspan></text>
<text id="00.0.00.0/00" fill="#312D2A" xml:space="preserve" style="white-space: pre" font-family="Oracle Sans" font-size="16" font-weight="300" letter-spacing="0em"><tspan x="217" y="678.816">10.54.0.0/16</tspan></text>
</g>
<g id="OCI Subnet Boxes_New">
<rect x="256.5" y="688.5" width="623" height="111" stroke="#AA643B" stroke-dasharray="8 4"/>
<text id="Subnet" fill="#AE562C" xml:space="preserve" style="white-space: pre" font-family="Oracle Sans" font-size="16" font-weight="600" letter-spacing="0em"><tspan x="264" y="709.816">Subnet</tspan></text>
<text id="00.0.00.0/00_2" fill="#312D2A" xml:space="preserve" style="white-space: pre" font-family="Oracle Sans" font-size="16" font-weight="300" letter-spacing="0em"><tspan x="264" y="725.816">10.54.0.0/20</tspan></text>
<g id="Icon Master_2">
<g id="Srv-Route table and security list">
<g id="Group_7">
<g id="Group_8">
<path id="Vector_26" d="M831.476 707.519V681.077H848.238V673.289L859.476 668.481L870.619 673.289V683.481C870.619 683.577 870.619 686.077 869.19 689.058C867.952 691.75 865.381 695.404 859.857 697.423V707.423H831.476V707.519Z" fill="white"/>
<path id="Vector_27" d="M859.381 669.058L870.048 673.577V683.481C870.048 683.577 870.048 685.981 868.714 688.865C867.476 691.558 865 695.115 859.667 697.038L859.476 697.135H859.381V707.038H831.952V681.558H848.714V673.577L859.381 669.058ZM859.381 668L859 668.192L848.333 672.712L847.762 673V673.673V680.692H831.952H831V681.654V707.038V708H831.952H859.381H860.333V707.038V697.808C865.667 695.692 868.333 692.038 869.571 689.25C871 686.173 871 683.577 871 683.481V673.577V673L870.429 672.712L859.762 668.192L859.381 668Z" fill="white"/>
</g>
<g id="Group_9">
<path id="Vector_28" d="M858.048 697.712H840.524V690.981H850.048C849.762 690.5 849.571 690.115 849.381 689.731H840.524V683H847.667V681.75H831.952V707.135H859.381V698.288L858.905 698.096C858.619 697.904 858.333 697.808 858.048 697.712ZM833.19 682.904H839.286V689.635H833.19V682.904ZM839.286 690.885V697.615H833.19V690.885H839.286ZM833.19 698.962H839.286V705.692H833.19V698.962ZM858.048 705.692H840.524V698.962H858.048V705.692Z" fill="#AA643B"/>
<path id="Vector_29" d="M856.619 703.192H855.381V704.442H856.619V703.192Z" fill="#AA643B"/>
<path id="Vector_30" d="M851.381 704.442L852.524 703.288L853.667 704.442L854.524 703.481L853.381 702.327L854.524 701.173L853.667 700.308L852.524 701.461L851.381 700.308L850.428 701.173L851.571 702.327L850.428 703.481L851.381 704.442Z" fill="#AA643B"/>
<path id="Vector_31" d="M848.619 703.192H847.381V704.442H848.619V703.192Z" fill="#AA643B"/>
<path id="Vector_32" d="M842.524 703.481L843.381 704.442L844.524 703.288L845.667 704.442L846.619 703.481L845.476 702.327L846.619 701.173L845.667 700.308L844.524 701.461L843.381 700.308L842.524 701.173L843.667 702.327L842.524 703.481Z" fill="#AA643B"/>
<path id="Vector_33" d="M848.619 695.116H847.381V696.366H848.619V695.116Z" fill="#AA643B"/>
<path id="Vector_34" d="M842.524 695.404L843.381 696.366L844.524 695.212L845.667 696.366L846.619 695.404L845.476 694.25L846.619 693.096L845.667 692.231L844.524 693.385L843.381 692.231L842.524 693.096L843.667 694.25L842.524 695.404Z" fill="#AA643B"/>
<path id="Vector_35" d="M847.095 688.385H848.333V687.135C848.333 687.135 848.333 687.135 848.333 687.039H847.095V688.385Z" fill="#AA643B"/>
<path id="Vector_36" d="M842.143 687.423L843.095 688.288L844.238 687.135L845.381 688.288L846.238 687.423L845.095 686.269L846.238 685.115L845.381 684.154L844.238 685.308L843.095 684.154L842.143 685.115L843.286 686.269L842.143 687.423Z" fill="#AA643B"/>
<path id="Vector_37" d="M848.714 673.577V683.481C848.714 683.577 848.81 685.981 850.048 688.865C851.286 691.558 853.857 695.115 859.191 697.038L859.381 697.135L859.571 697.038C864.905 695.115 867.476 691.558 868.619 688.865C869.952 685.981 869.952 683.577 869.952 683.481V673.577L859.381 669.058L848.714 673.577ZM868.81 683.481C868.81 683.577 868.619 692.231 859.476 695.692C855.667 694.25 852.905 691.75 851.286 688.385C850.048 685.788 850.048 683.481 850.048 683.481V674.442L859.476 670.404L868.81 674.442V683.481Z" fill="#AA643B"/>
<path id="Vector_38" d="M858.238 684.827H853.286V686.077H858.238V684.827Z" fill="#AA643B"/>
<path id="Vector_39" d="M858.238 678.385H853.286V679.635H858.238V678.385Z" fill="#AA643B"/>
<path id="Vector_40" d="M864.905 676.942L862.143 679.635L861.19 678.673L860.238 679.539L862.143 681.462L865.762 677.808L864.905 676.942Z" fill="#AA643B"/>
<path id="Vector_41" d="M853.286 682.904H858.048H858.238V681.558H853.286V682.904Z" fill="#AA643B"/>
</g>
</g>
</g>
</g>
</g>
<g id="Group 6">
<path id="Vector 7" d="M175 431L224 431" stroke="#312D2A" stroke-width="2"/>
<path id="Vector 8" d="M290 431L312 431L312 688" stroke="#312D2A" stroke-width="2" stroke-dasharray="4 4"/>
<g id="Icon Master_3">
<g id="Srv-OCI Compute Bare Metal">
<g id="Group_10">
<g id="Group_11">
<g id="Group_12">
<path id="Vector_42" d="M230.857 450.286C229.143 450.286 227.714 448.857 227.714 447.143V394.857C227.714 393.143 229.143 391.714 230.857 391.714H283.286C285 391.714 286.429 393.143 286.429 394.857V447.286C286.429 449 285 450.429 283.286 450.429L230.857 450.286Z" fill="white"/>
<path id="Vector_43" d="M283.143 392.429C284.429 392.429 285.571 393.571 285.571 394.857V447.286C285.571 448.571 284.429 449.714 283.143 449.714H230.857C229.571 449.571 228.429 448.429 228.429 447.143V394.857C228.429 393.571 229.571 392.429 230.857 392.429H283.143ZM283.143 391H230.857C228.714 391 227 392.714 227 394.857V447.286C227 449.286 228.714 451 230.857 451H283.286C285.429 451 287.143 449.286 287.143 447.143V394.857C287 392.714 285.286 391 283.143 391Z" fill="white"/>
</g>
<g id="Group_13">
<path id="Vector_44" d="M283.143 392.429H230.857C229.571 392.429 228.429 393.572 228.429 394.857V447.286C228.429 448.429 229.571 449.572 230.857 449.572H283.286C284.571 449.572 285.714 448.429 285.714 447.143V394.857C285.571 393.572 284.429 392.429 283.143 392.429ZM283.429 447.143C283.429 447.286 283.286 447.429 283.143 447.429H230.857C230.714 447.429 230.571 447.286 230.571 447.143V394.857C230.571 394.714 230.714 394.572 230.857 394.572H283.286C283.429 394.572 283.571 394.714 283.571 394.857L283.429 447.143Z" fill="#2D5967"/>
<path id="Vector_45" d="M234.714 443H279.143V430.286H234.714V443ZM236.857 432.429H277V440.857H236.857V432.429Z" fill="#2D5967"/>
<path id="Vector_46" d="M272.286 438.143C273.154 438.143 273.857 437.439 273.857 436.571C273.857 435.704 273.154 435 272.286 435C271.418 435 270.714 435.704 270.714 436.571C270.714 437.439 271.418 438.143 272.286 438.143Z" fill="#2D5967"/>
<path id="Vector_47" d="M234.714 411.429H279.143V398.714H234.714V411.429ZM236.857 400.857H277V409.286H236.857V400.857Z" fill="#2D5967"/>
<path id="Vector_48" d="M272.286 406.715C273.154 406.715 273.857 406.011 273.857 405.143C273.857 404.275 273.154 403.572 272.286 403.572C271.418 403.572 270.714 404.275 270.714 405.143C270.714 406.011 271.418 406.715 272.286 406.715Z" fill="#2D5967"/>
<path id="Vector_49" d="M234.714 427.286H279.143V414.572H234.714V427.286ZM236.857 416.715H277V425.286H236.857V416.715Z" fill="#2D5967"/>
<path id="Vector_50" d="M272.286 422.572C273.154 422.572 273.857 421.868 273.857 421C273.857 420.132 273.154 419.429 272.286 419.429C271.418 419.429 270.714 420.132 270.714 421C270.714 421.868 271.418 422.572 272.286 422.572Z" fill="#2D5967"/>
</g>
</g>
</g>
</g>
<g id="Icon Text Label_3">
<text id="IconLabel_5" fill="black" xml:space="preserve" style="white-space: pre" font-family="Oracle Sans" font-size="16" letter-spacing="0em"><tspan x="239.75" y="468.816">MGS</tspan></text>
</g>
</g>
<g id="Icon Master_4">
<g id="SRV-Persistent volume">
<g id="Group 35">
<path id="Vector_51" d="M137.994 450.172C125.313 450.172 103.834 448.06 103.834 440.195V421.621C103.835 421.554 103.84 421.487 103.85 421.421C103.842 421.288 103.842 421.155 103.85 421.022C103.834 412.791 125.313 410.613 137.994 410.613C150.675 410.613 172.155 412.791 172.155 420.939C172.163 421.072 172.163 421.205 172.155 421.338C172.164 421.432 172.164 421.527 172.155 421.621V440.178C172.155 448.027 150.675 450.172 137.994 450.172Z" fill="white"/>
<path id="Vector_52" d="M137.992 411.442C154.04 411.442 171.32 414.419 171.32 420.937C171.33 421.098 171.33 421.259 171.32 421.419C171.329 421.508 171.329 421.597 171.32 421.685V440.176C171.32 446.479 154.04 449.339 137.992 449.339C121.945 449.339 104.665 446.479 104.665 440.176V421.619C104.66 421.552 104.66 421.486 104.665 421.419C104.657 421.281 104.657 421.142 104.665 421.004C104.665 414.419 121.945 411.442 137.992 411.442ZM137.992 409.779C134.41 409.779 102.999 410.095 102.999 420.937C102.991 421.064 102.991 421.192 102.999 421.32C102.99 421.419 102.99 421.519 102.999 421.619V440.176C102.999 450.486 132.143 451.002 137.992 451.002C143.841 451.002 172.986 450.486 172.986 440.176V421.619C172.994 421.519 172.994 421.419 172.986 421.32C172.994 421.192 172.994 421.064 172.986 420.937C172.986 410.095 141.575 409.779 137.992 409.779Z" fill="white"/>
<path id="Vector_53" d="M171.322 420.938C171.322 414.419 154.042 411.443 137.995 411.443C121.948 411.443 104.667 414.419 104.667 420.938C104.657 421.098 104.657 421.259 104.667 421.42C104.658 421.508 104.658 421.598 104.667 421.686V440.177C104.667 446.479 121.948 449.339 137.995 449.339C154.042 449.339 171.322 446.479 171.322 440.177V421.62C171.327 421.553 171.327 421.486 171.322 421.42C171.332 421.259 171.332 421.098 171.322 420.938ZM160.091 444.035C152.829 445.577 145.418 446.307 137.995 446.213C130.571 446.307 123.16 445.577 115.899 444.035C109.233 442.372 107.8 440.709 107.8 440.177V425.211C113.499 428.72 126.13 430.35 137.995 430.35C149.859 430.35 162.49 428.687 168.189 425.211V440.177C168.189 440.676 166.69 442.439 160.091 444.035ZM137.995 414.569C145.418 414.47 152.828 415.235 160.074 416.847C166.74 418.51 168.189 420.356 168.189 420.938C168.189 421.52 166.723 423.349 160.074 425.012C152.828 426.624 145.418 427.389 137.995 427.29C130.571 427.389 123.161 426.624 115.915 425.012C109.25 423.349 107.8 421.503 107.8 420.938C107.8 420.372 109.266 418.51 115.915 416.847C123.161 415.235 130.571 414.47 137.995 414.569Z" fill="#2D5967"/>
</g>
</g>
<g id="Icon Text Label_4">
<text id="IconLabel_6" fill="black" xml:space="preserve" style="white-space: pre" font-family="Oracle Sans" font-size="16" letter-spacing="0em"><tspan x="120.344" y="468.816">MGT</tspan></text>
</g>
</g>
</g>
<g id="Group 7">
<path id="Vector 7_2" d="M908 431L957 431" stroke="#312D2A" stroke-width="2"/>
<path id="Vector 8_2" d="M841 431L819 431L819 688" stroke="#312D2A" stroke-width="2" stroke-dasharray="4 4"/>
<g id="Icon Master_5">
<g id="Srv-OCI Compute Bare Metal_2">
<g id="Group_14">
<g id="Group_15">
<g id="Group_16">
<path id="Vector_54" d="M848.857 450.286C847.143 450.286 845.714 448.857 845.714 447.143V394.857C845.714 393.143 847.143 391.714 848.857 391.714H901.286C903 391.714 904.429 393.143 904.429 394.857V447.286C904.429 449 903 450.429 901.286 450.429L848.857 450.286Z" fill="white"/>
<path id="Vector_55" d="M901.143 392.429C902.429 392.429 903.571 393.571 903.571 394.857V447.286C903.571 448.571 902.429 449.714 901.143 449.714H848.857C847.571 449.571 846.429 448.429 846.429 447.143V394.857C846.429 393.571 847.571 392.429 848.857 392.429H901.143ZM901.143 391H848.857C846.714 391 845 392.714 845 394.857V447.286C845 449.286 846.714 451 848.857 451H901.286C903.429 451 905.143 449.286 905.143 447.143V394.857C905 392.714 903.286 391 901.143 391Z" fill="white"/>
</g>
<g id="Group_17">
<path id="Vector_56" d="M901.143 392.429H848.857C847.571 392.429 846.429 393.572 846.429 394.857V447.286C846.429 448.429 847.571 449.572 848.857 449.572H901.286C902.571 449.572 903.714 448.429 903.714 447.143V394.857C903.571 393.572 902.429 392.429 901.143 392.429ZM901.429 447.143C901.429 447.286 901.286 447.429 901.143 447.429H848.857C848.714 447.429 848.571 447.286 848.571 447.143V394.857C848.571 394.714 848.714 394.572 848.857 394.572H901.286C901.429 394.572 901.571 394.714 901.571 394.857L901.429 447.143Z" fill="#2D5967"/>
<path id="Vector_57" d="M852.714 443H897.143V430.286H852.714V443ZM854.857 432.429H895V440.857H854.857V432.429Z" fill="#2D5967"/>
<path id="Vector_58" d="M890.286 438.143C891.154 438.143 891.857 437.439 891.857 436.571C891.857 435.704 891.154 435 890.286 435C889.418 435 888.714 435.704 888.714 436.571C888.714 437.439 889.418 438.143 890.286 438.143Z" fill="#2D5967"/>
<path id="Vector_59" d="M852.714 411.429H897.143V398.714H852.714V411.429ZM854.857 400.857H895V409.286H854.857V400.857Z" fill="#2D5967"/>
<path id="Vector_60" d="M890.286 406.715C891.154 406.715 891.857 406.011 891.857 405.143C891.857 404.275 891.154 403.572 890.286 403.572C889.418 403.572 888.714 404.275 888.714 405.143C888.714 406.011 889.418 406.715 890.286 406.715Z" fill="#2D5967"/>
<path id="Vector_61" d="M852.714 427.286H897.143V414.572H852.714V427.286ZM854.857 416.715H895V425.286H854.857V416.715Z" fill="#2D5967"/>
<path id="Vector_62" d="M890.286 422.572C891.154 422.572 891.857 421.868 891.857 421C891.857 420.132 891.154 419.429 890.286 419.429C889.418 419.429 888.714 420.132 888.714 421C888.714 421.868 889.418 422.572 890.286 422.572Z" fill="#2D5967"/>
</g>
</g>
</g>
</g>
<g id="Icon Text Label_5">
<text id="IconLabel_7" fill="black" xml:space="preserve" style="white-space: pre" font-family="Oracle Sans" font-size="16" letter-spacing="0em"><tspan x="852.789" y="468.816">OSS 0</tspan></text>
</g>
</g>
<g id="Icon Master_6">
<g id="SRV-Persistent volume_2">
<g id="Group 35_2">
<path id="Vector_63" d="M992.994 450.172C980.313 450.172 958.834 448.06 958.834 440.195V421.621C958.835 421.554 958.84 421.487 958.85 421.421C958.842 421.288 958.842 421.155 958.85 421.022C958.834 412.791 980.313 410.613 992.994 410.613C1005.68 410.613 1027.15 412.791 1027.15 420.939C1027.16 421.072 1027.16 421.205 1027.15 421.338C1027.16 421.432 1027.16 421.527 1027.15 421.621V440.178C1027.15 448.027 1005.68 450.172 992.994 450.172Z" fill="white"/>
<path id="Vector_64" d="M992.992 411.442C1009.04 411.442 1026.32 414.419 1026.32 420.937C1026.33 421.098 1026.33 421.259 1026.32 421.419C1026.33 421.508 1026.33 421.597 1026.32 421.685V440.176C1026.32 446.479 1009.04 449.339 992.992 449.339C976.945 449.339 959.665 446.479 959.665 440.176V421.619C959.66 421.552 959.66 421.486 959.665 421.419C959.657 421.281 959.657 421.142 959.665 421.004C959.665 414.419 976.945 411.442 992.992 411.442ZM992.992 409.779C989.41 409.779 957.999 410.095 957.999 420.937C957.991 421.064 957.991 421.192 957.999 421.32C957.99 421.419 957.99 421.519 957.999 421.619V440.176C957.999 450.486 987.143 451.002 992.992 451.002C998.841 451.002 1027.99 450.486 1027.99 440.176V421.619C1027.99 421.519 1027.99 421.419 1027.99 421.32C1027.99 421.192 1027.99 421.064 1027.99 420.937C1027.99 410.095 996.575 409.779 992.992 409.779Z" fill="white"/>
<path id="Vector_65" d="M1026.32 420.938C1026.32 414.419 1009.04 411.443 992.995 411.443C976.948 411.443 959.667 414.419 959.667 420.938C959.657 421.098 959.657 421.259 959.667 421.42C959.658 421.508 959.658 421.598 959.667 421.686V440.177C959.667 446.479 976.948 449.339 992.995 449.339C1009.04 449.339 1026.32 446.479 1026.32 440.177V421.62C1026.33 421.553 1026.33 421.486 1026.32 421.42C1026.33 421.259 1026.33 421.098 1026.32 420.938ZM1015.09 444.035C1007.83 445.577 1000.42 446.307 992.995 446.213C985.571 446.307 978.16 445.577 970.899 444.035C964.233 442.372 962.8 440.709 962.8 440.177V425.211C968.499 428.72 981.13 430.35 992.995 430.35C1004.86 430.35 1017.49 428.687 1023.19 425.211V440.177C1023.19 440.676 1021.69 442.439 1015.09 444.035ZM992.995 414.569C1000.42 414.47 1007.83 415.235 1015.07 416.847C1021.74 418.51 1023.19 420.356 1023.19 420.938C1023.19 421.52 1021.72 423.349 1015.07 425.012C1007.83 426.624 1000.42 427.389 992.995 427.29C985.571 427.389 978.161 426.624 970.915 425.012C964.25 423.349 962.8 421.503 962.8 420.938C962.8 420.372 964.267 418.51 970.915 416.847C978.161 415.235 985.571 414.47 992.995 414.569Z" fill="#2D5967"/>
</g>
</g>
<g id="Icon Text Label_6">
<text id="IconLabel_8" fill="black" xml:space="preserve" style="white-space: pre" font-family="Oracle Sans" font-size="16" letter-spacing="0em"><tspan x="970.461" y="468.816">OST 0</tspan></text>
</g>
</g>
</g>
<g id="Group 8">
<path id="Vector 7_3" d="M848 321L897 321" stroke="#312D2A" stroke-width="2"/>
<path id="Vector 8_3" d="M781 321L729 321L729 688" stroke="#312D2A" stroke-width="2" stroke-dasharray="4 4"/>
<g id="Icon Master_7">
<g id="Srv-OCI Compute Bare Metal_3">
<g id="Group_18">
<g id="Group_19">
<g id="Group_20">
<path id="Vector_66" d="M788.857 340.286C787.143 340.286 785.714 338.857 785.714 337.143V284.857C785.714 283.143 787.143 281.714 788.857 281.714H841.286C843 281.714 844.429 283.143 844.429 284.857V337.286C844.429 339 843 340.429 841.286 340.429L788.857 340.286Z" fill="white"/>
<path id="Vector_67" d="M841.143 282.429C842.429 282.429 843.571 283.571 843.571 284.857V337.286C843.571 338.571 842.429 339.714 841.143 339.714H788.857C787.571 339.571 786.429 338.429 786.429 337.143V284.857C786.429 283.571 787.571 282.429 788.857 282.429H841.143ZM841.143 281H788.857C786.714 281 785 282.714 785 284.857V337.286C785 339.286 786.714 341 788.857 341H841.286C843.429 341 845.143 339.286 845.143 337.143V284.857C845 282.714 843.286 281 841.143 281Z" fill="white"/>
</g>
<g id="Group_21">
<path id="Vector_68" d="M841.143 282.429H788.857C787.571 282.429 786.429 283.572 786.429 284.857V337.286C786.429 338.429 787.571 339.572 788.857 339.572H841.286C842.571 339.572 843.714 338.429 843.714 337.143V284.857C843.571 283.572 842.429 282.429 841.143 282.429ZM841.429 337.143C841.429 337.286 841.286 337.429 841.143 337.429H788.857C788.714 337.429 788.571 337.286 788.571 337.143V284.857C788.571 284.714 788.714 284.572 788.857 284.572H841.286C841.429 284.572 841.571 284.714 841.571 284.857L841.429 337.143Z" fill="#2D5967"/>
<path id="Vector_69" d="M792.714 333H837.143V320.286H792.714V333ZM794.857 322.429H835V330.857H794.857V322.429Z" fill="#2D5967"/>
<path id="Vector_70" d="M830.286 328.143C831.154 328.143 831.857 327.439 831.857 326.571C831.857 325.704 831.154 325 830.286 325C829.418 325 828.714 325.704 828.714 326.571C828.714 327.439 829.418 328.143 830.286 328.143Z" fill="#2D5967"/>
<path id="Vector_71" d="M792.714 301.429H837.143V288.714H792.714V301.429ZM794.857 290.857H835V299.286H794.857V290.857Z" fill="#2D5967"/>
<path id="Vector_72" d="M830.286 296.715C831.154 296.715 831.857 296.011 831.857 295.143C831.857 294.275 831.154 293.572 830.286 293.572C829.418 293.572 828.714 294.275 828.714 295.143C828.714 296.011 829.418 296.715 830.286 296.715Z" fill="#2D5967"/>
<path id="Vector_73" d="M792.714 317.286H837.143V304.572H792.714V317.286ZM794.857 306.715H835V315.286H794.857V306.715Z" fill="#2D5967"/>
<path id="Vector_74" d="M830.286 312.572C831.154 312.572 831.857 311.868 831.857 311C831.857 310.132 831.154 309.429 830.286 309.429C829.418 309.429 828.714 310.132 828.714 311C828.714 311.868 829.418 312.572 830.286 312.572Z" fill="#2D5967"/>
</g>
</g>
</g>
</g>
<g id="Icon Text Label_7">
<text id="IconLabel_9" fill="black" xml:space="preserve" style="white-space: pre" font-family="Oracle Sans" font-size="16" letter-spacing="0em"><tspan x="794.906" y="358.816">OSS 1</tspan></text>
</g>
</g>
<g id="Icon Master_8">
<g id="SRV-Persistent volume_3">
<g id="Group 35_3">
<path id="Vector_75" d="M932.994 340.172C920.313 340.172 898.834 338.06 898.834 330.195V311.621C898.835 311.554 898.84 311.487 898.85 311.421C898.842 311.288 898.842 311.155 898.85 311.022C898.834 302.791 920.313 300.613 932.994 300.613C945.675 300.613 967.155 302.791 967.155 310.939C967.163 311.072 967.163 311.205 967.155 311.338C967.164 311.432 967.164 311.527 967.155 311.621V330.178C967.155 338.027 945.675 340.172 932.994 340.172Z" fill="white"/>
<path id="Vector_76" d="M932.992 301.442C949.04 301.442 966.32 304.419 966.32 310.937C966.33 311.098 966.33 311.259 966.32 311.419C966.329 311.508 966.329 311.597 966.32 311.685V330.176C966.32 336.479 949.04 339.339 932.992 339.339C916.945 339.339 899.665 336.479 899.665 330.176V311.619C899.66 311.552 899.66 311.486 899.665 311.419C899.657 311.281 899.657 311.142 899.665 311.004C899.665 304.419 916.945 301.442 932.992 301.442ZM932.992 299.779C929.41 299.779 897.999 300.095 897.999 310.937C897.991 311.064 897.991 311.192 897.999 311.32C897.99 311.419 897.99 311.519 897.999 311.619V330.176C897.999 340.486 927.143 341.002 932.992 341.002C938.841 341.002 967.986 340.486 967.986 330.176V311.619C967.994 311.519 967.994 311.419 967.986 311.32C967.994 311.192 967.994 311.064 967.986 310.937C967.986 300.095 936.575 299.779 932.992 299.779Z" fill="white"/>
<path id="Vector_77" d="M966.322 310.938C966.322 304.419 949.042 301.443 932.995 301.443C916.948 301.443 899.667 304.419 899.667 310.938C899.657 311.098 899.657 311.259 899.667 311.42C899.658 311.508 899.658 311.598 899.667 311.686V330.177C899.667 336.479 916.948 339.339 932.995 339.339C949.042 339.339 966.322 336.479 966.322 330.177V311.62C966.327 311.553 966.327 311.486 966.322 311.42C966.332 311.259 966.332 311.098 966.322 310.938ZM955.091 334.035C947.829 335.577 940.418 336.307 932.995 336.213C925.571 336.307 918.16 335.577 910.899 334.035C904.233 332.372 902.8 330.709 902.8 330.177V315.211C908.499 318.72 921.13 320.35 932.995 320.35C944.859 320.35 957.49 318.687 963.189 315.211V330.177C963.189 330.676 961.69 332.439 955.091 334.035ZM932.995 304.569C940.418 304.47 947.828 305.235 955.074 306.847C961.74 308.51 963.189 310.356 963.189 310.938C963.189 311.52 961.723 313.349 955.074 315.012C947.828 316.624 940.418 317.389 932.995 317.29C925.571 317.389 918.161 316.624 910.915 315.012C904.25 313.349 902.8 311.503 902.8 310.938C902.8 310.372 904.267 308.51 910.915 306.847C918.161 305.235 925.571 304.47 932.995 304.569Z" fill="#2D5967"/>
</g>
</g>
<g id="Icon Text Label_8">
<text id="IconLabel_10" fill="black" xml:space="preserve" style="white-space: pre" font-family="Oracle Sans" font-size="16" letter-spacing="0em"><tspan x="912.578" y="358.816">OST 1</tspan></text>
</g>
</g>
</g>
<g id="Group 9">
<path id="Vector 7_4" d="M789 209L838 209" stroke="#312D2A" stroke-width="2"/>
<path id="Vector 8_4" d="M722 209L641 209L641 688" stroke="#312D2A" stroke-width="2" stroke-dasharray="4 4"/>
<g id="Icon Master_9">
<g id="Srv-OCI Compute Bare Metal_4">
<g id="Group_22">
<g id="Group_23">
<g id="Group_24">
<path id="Vector_78" d="M729.857 228.286C728.143 228.286 726.714 226.857 726.714 225.143V172.857C726.714 171.143 728.143 169.714 729.857 169.714H782.286C784 169.714 785.429 171.143 785.429 172.857V225.286C785.429 227 784 228.429 782.286 228.429L729.857 228.286Z" fill="white"/>
<path id="Vector_79" d="M782.143 170.429C783.429 170.429 784.571 171.571 784.571 172.857V225.286C784.571 226.571 783.429 227.714 782.143 227.714H729.857C728.571 227.571 727.429 226.429 727.429 225.143V172.857C727.429 171.571 728.571 170.429 729.857 170.429H782.143ZM782.143 169H729.857C727.714 169 726 170.714 726 172.857V225.286C726 227.286 727.714 229 729.857 229H782.286C784.429 229 786.143 227.286 786.143 225.143V172.857C786 170.714 784.286 169 782.143 169Z" fill="white"/>
</g>
<g id="Group_25">
<path id="Vector_80" d="M782.143 170.429H729.857C728.571 170.429 727.429 171.572 727.429 172.857V225.286C727.429 226.429 728.571 227.572 729.857 227.572H782.286C783.571 227.572 784.714 226.429 784.714 225.143V172.857C784.571 171.572 783.429 170.429 782.143 170.429ZM782.429 225.143C782.429 225.286 782.286 225.429 782.143 225.429H729.857C729.714 225.429 729.571 225.286 729.571 225.143V172.857C729.571 172.714 729.714 172.572 729.857 172.572H782.286C782.429 172.572 782.571 172.714 782.571 172.857L782.429 225.143Z" fill="#2D5967"/>
<path id="Vector_81" d="M733.714 221H778.143V208.286H733.714V221ZM735.857 210.429H776V218.857H735.857V210.429Z" fill="#2D5967"/>
<path id="Vector_82" d="M771.286 216.143C772.154 216.143 772.857 215.439 772.857 214.571C772.857 213.704 772.154 213 771.286 213C770.418 213 769.714 213.704 769.714 214.571C769.714 215.439 770.418 216.143 771.286 216.143Z" fill="#2D5967"/>
<path id="Vector_83" d="M733.714 189.429H778.143V176.714H733.714V189.429ZM735.857 178.857H776V187.286H735.857V178.857Z" fill="#2D5967"/>
<path id="Vector_84" d="M771.286 184.715C772.154 184.715 772.857 184.011 772.857 183.143C772.857 182.275 772.154 181.572 771.286 181.572C770.418 181.572 769.714 182.275 769.714 183.143C769.714 184.011 770.418 184.715 771.286 184.715Z" fill="#2D5967"/>
<path id="Vector_85" d="M733.714 205.286H778.143V192.572H733.714V205.286ZM735.857 194.715H776V203.286H735.857V194.715Z" fill="#2D5967"/>
<path id="Vector_86" d="M771.286 200.572C772.154 200.572 772.857 199.868 772.857 199C772.857 198.132 772.154 197.429 771.286 197.429C770.418 197.429 769.714 198.132 769.714 199C769.714 199.868 770.418 200.572 771.286 200.572Z" fill="#2D5967"/>
</g>
</g>
</g>
</g>
<g id="Icon Text Label_9">
<text id="IconLabel_11" fill="black" xml:space="preserve" style="white-space: pre" font-family="Oracle Sans" font-size="16" letter-spacing="0em"><tspan x="734.711" y="246.816">OSS 2</tspan></text>
</g>
</g>
<g id="Icon Master_10">
<g id="SRV-Persistent volume_4">
<g id="Group 35_4">
<path id="Vector_87" d="M873.994 228.172C861.313 228.172 839.834 226.06 839.834 218.195V199.621C839.835 199.554 839.84 199.487 839.85 199.421C839.842 199.288 839.842 199.155 839.85 199.022C839.834 190.791 861.313 188.613 873.994 188.613C886.675 188.613 908.155 190.791 908.155 198.939C908.163 199.072 908.163 199.205 908.155 199.338C908.164 199.432 908.164 199.527 908.155 199.621V218.178C908.155 226.027 886.675 228.172 873.994 228.172Z" fill="white"/>
<path id="Vector_88" d="M873.992 189.442C890.04 189.442 907.32 192.419 907.32 198.937C907.33 199.098 907.33 199.259 907.32 199.419C907.329 199.508 907.329 199.597 907.32 199.685V218.176C907.32 224.479 890.04 227.339 873.992 227.339C857.945 227.339 840.665 224.479 840.665 218.176V199.619C840.66 199.552 840.66 199.486 840.665 199.419C840.657 199.281 840.657 199.142 840.665 199.004C840.665 192.419 857.945 189.442 873.992 189.442ZM873.992 187.779C870.41 187.779 838.999 188.095 838.999 198.937C838.991 199.064 838.991 199.192 838.999 199.32C838.99 199.419 838.99 199.519 838.999 199.619V218.176C838.999 228.486 868.143 229.002 873.992 229.002C879.841 229.002 908.986 228.486 908.986 218.176V199.619C908.994 199.519 908.994 199.419 908.986 199.32C908.994 199.192 908.994 199.064 908.986 198.937C908.986 188.095 877.575 187.779 873.992 187.779Z" fill="white"/>
<path id="Vector_89" d="M907.322 198.938C907.322 192.419 890.042 189.443 873.995 189.443C857.948 189.443 840.667 192.419 840.667 198.938C840.657 199.098 840.657 199.259 840.667 199.42C840.658 199.508 840.658 199.598 840.667 199.686V218.177C840.667 224.479 857.948 227.339 873.995 227.339C890.042 227.339 907.322 224.479 907.322 218.177V199.62C907.327 199.553 907.327 199.486 907.322 199.42C907.332 199.259 907.332 199.098 907.322 198.938ZM896.091 222.035C888.829 223.577 881.418 224.307 873.995 224.213C866.571 224.307 859.16 223.577 851.899 222.035C845.233 220.372 843.8 218.709 843.8 218.177V203.211C849.499 206.72 862.13 208.35 873.995 208.35C885.859 208.35 898.49 206.687 904.189 203.211V218.177C904.189 218.676 902.69 220.439 896.091 222.035ZM873.995 192.569C881.418 192.47 888.828 193.235 896.074 194.847C902.74 196.51 904.189 198.356 904.189 198.938C904.189 199.52 902.723 201.349 896.074 203.012C888.828 204.624 881.418 205.389 873.995 205.29C866.571 205.389 859.161 204.624 851.915 203.012C845.25 201.349 843.8 199.503 843.8 198.938C843.8 198.372 845.267 196.51 851.915 194.847C859.161 193.235 866.571 192.47 873.995 192.569Z" fill="#2D5967"/>
</g>
</g>
<g id="Icon Text Label_10">
<text id="IconLabel_12" fill="black" xml:space="preserve" style="white-space: pre" font-family="Oracle Sans" font-size="16" letter-spacing="0em"><tspan x="852.383" y="246.816">OST 2</tspan></text>
</g>
</g>
</g>
<g id="Group 4">
<path id="Vector 9" d="M239 321L288 321" stroke="#312D2A" stroke-width="2"/>
<path id="Vector 10" d="M354 320L400 320L400 688" stroke="#312D2A" stroke-width="2" stroke-dasharray="4 4"/>
<g id="Icon Master_11">
<g id="Srv-OCI Compute Bare Metal_5">
<g id="Group_26">
<g id="Group_27">
<g id="Group_28">
<path id="Vector_90" d="M294.857 342.286C293.143 342.286 291.714 340.857 291.714 339.143V286.857C291.714 285.143 293.143 283.714 294.857 283.714H347.286C349 283.714 350.429 285.143 350.429 286.857V339.286C350.429 341 349 342.429 347.286 342.429L294.857 342.286Z" fill="white"/>
<path id="Vector_91" d="M347.143 284.429C348.429 284.429 349.571 285.571 349.571 286.857V339.286C349.571 340.571 348.429 341.714 347.143 341.714H294.857C293.571 341.571 292.429 340.429 292.429 339.143V286.857C292.429 285.571 293.571 284.429 294.857 284.429H347.143ZM347.143 283H294.857C292.714 283 291 284.714 291 286.857V339.286C291 341.286 292.714 343 294.857 343H347.286C349.429 343 351.143 341.286 351.143 339.143V286.857C351 284.714 349.286 283 347.143 283Z" fill="white"/>
</g>
<g id="Group_29">
<path id="Vector_92" d="M347.143 284.429H294.857C293.571 284.429 292.429 285.572 292.429 286.857V339.286C292.429 340.429 293.571 341.572 294.857 341.572H347.286C348.571 341.572 349.714 340.429 349.714 339.143V286.857C349.571 285.572 348.429 284.429 347.143 284.429ZM347.429 339.143C347.429 339.286 347.286 339.429 347.143 339.429H294.857C294.714 339.429 294.571 339.286 294.571 339.143V286.857C294.571 286.714 294.714 286.572 294.857 286.572H347.286C347.429 286.572 347.571 286.714 347.571 286.857L347.429 339.143Z" fill="#2D5967"/>
<path id="Vector_93" d="M298.714 335H343.143V322.286H298.714V335ZM300.857 324.429H341V332.857H300.857V324.429Z" fill="#2D5967"/>
<path id="Vector_94" d="M336.286 330.143C337.154 330.143 337.857 329.439 337.857 328.571C337.857 327.704 337.154 327 336.286 327C335.418 327 334.714 327.704 334.714 328.571C334.714 329.439 335.418 330.143 336.286 330.143Z" fill="#2D5967"/>
<path id="Vector_95" d="M298.714 303.429H343.143V290.714H298.714V303.429ZM300.857 292.857H341V301.286H300.857V292.857Z" fill="#2D5967"/>
<path id="Vector_96" d="M336.286 298.715C337.154 298.715 337.857 298.011 337.857 297.143C337.857 296.275 337.154 295.572 336.286 295.572C335.418 295.572 334.714 296.275 334.714 297.143C334.714 298.011 335.418 298.715 336.286 298.715Z" fill="#2D5967"/>
<path id="Vector_97" d="M298.714 319.286H343.143V306.572H298.714V319.286ZM300.857 308.715H341V317.286H300.857V308.715Z" fill="#2D5967"/>
<path id="Vector_98" d="M336.286 314.572C337.154 314.572 337.857 313.868 337.857 313C337.857 312.132 337.154 311.429 336.286 311.429C335.418 311.429 334.714 312.132 334.714 313C334.714 313.868 335.418 314.572 336.286 314.572Z" fill="#2D5967"/>
</g>
</g>
</g>
</g>
<g id="Icon Text Label_11">
<text id="IconLabel_13" fill="black" xml:space="preserve" style="white-space: pre" font-family="Oracle Sans" font-size="16" letter-spacing="0em"><tspan x="296.664" y="360.816">MDS 0</tspan></text>
</g>
</g>
<g id="Icon Master_12">
<g id="SRV-Persistent volume_5">
<g id="Group 35_5">
<path id="Vector_99" d="M201.994 342.172C189.313 342.172 167.834 340.06 167.834 332.195V313.621C167.835 313.554 167.84 313.487 167.85 313.421C167.842 313.288 167.842 313.155 167.85 313.022C167.834 304.791 189.313 302.613 201.994 302.613C214.675 302.613 236.155 304.791 236.155 312.939C236.163 313.072 236.163 313.205 236.155 313.338C236.164 313.432 236.164 313.527 236.155 313.621V332.178C236.155 340.027 214.675 342.172 201.994 342.172Z" fill="white"/>
<path id="Vector_100" d="M201.992 303.442C218.04 303.442 235.32 306.419 235.32 312.937C235.33 313.098 235.33 313.259 235.32 313.419C235.329 313.508 235.329 313.597 235.32 313.685V332.176C235.32 338.479 218.04 341.339 201.992 341.339C185.945 341.339 168.665 338.479 168.665 332.176V313.619C168.66 313.552 168.66 313.486 168.665 313.419C168.657 313.281 168.657 313.142 168.665 313.004C168.665 306.419 185.945 303.442 201.992 303.442ZM201.992 301.779C198.41 301.779 166.999 302.095 166.999 312.937C166.991 313.064 166.991 313.192 166.999 313.32C166.99 313.419 166.99 313.519 166.999 313.619V332.176C166.999 342.486 196.143 343.002 201.992 343.002C207.841 343.002 236.986 342.486 236.986 332.176V313.619C236.994 313.519 236.994 313.419 236.986 313.32C236.994 313.192 236.994 313.064 236.986 312.937C236.986 302.095 205.575 301.779 201.992 301.779Z" fill="white"/>
<path id="Vector_101" d="M235.322 312.938C235.322 306.419 218.042 303.443 201.995 303.443C185.948 303.443 168.667 306.419 168.667 312.938C168.657 313.098 168.657 313.259 168.667 313.42C168.658 313.508 168.658 313.598 168.667 313.686V332.177C168.667 338.479 185.948 341.339 201.995 341.339C218.042 341.339 235.322 338.479 235.322 332.177V313.62C235.327 313.553 235.327 313.486 235.322 313.42C235.332 313.259 235.332 313.098 235.322 312.938V312.938ZM224.091 336.035C216.829 337.577 209.418 338.307 201.995 338.213C194.571 338.307 187.16 337.577 179.899 336.035C173.233 334.372 171.8 332.709 171.8 332.177V317.211C177.499 320.72 190.13 322.35 201.995 322.35C213.859 322.35 226.49 320.687 232.189 317.211V332.177C232.189 332.676 230.69 334.439 224.091 336.035ZM201.995 306.569C209.418 306.47 216.828 307.235 224.074 308.847C230.74 310.51 232.189 312.356 232.189 312.938C232.189 313.52 230.723 315.349 224.074 317.012C216.828 318.624 209.418 319.389 201.995 319.29C194.571 319.389 187.161 318.624 179.915 317.012C173.25 315.349 171.8 313.503 171.8 312.938C171.8 312.372 173.266 310.51 179.915 308.847C187.161 307.235 194.571 306.47 201.995 306.569V306.569Z" fill="#2D5967"/>
</g>
</g>
<g id="Icon Text Label_12">
<text id="IconLabel_14" fill="black" xml:space="preserve" style="white-space: pre" font-family="Oracle Sans" font-size="16" letter-spacing="0em"><tspan x="177.656" y="360.816">MDT 0</tspan></text>
</g>
</g>
</g>
<g id="Group 5">
<path id="Vector 9_2" d="M303 210L352 210" stroke="#312D2A" stroke-width="2"/>
<path id="Vector 10_2" d="M418 210L488 210L488 688" stroke="#312D2A" stroke-width="2" stroke-dasharray="4 4"/>
<g id="Icon Master_13">
<g id="Srv-OCI Compute Bare Metal_6">
<g id="Group_30">
<g id="Group_31">
<g id="Group_32">
<path id="Vector_102" d="M358.857 229.286C357.143 229.286 355.714 227.857 355.714 226.143V173.857C355.714 172.143 357.143 170.714 358.857 170.714H411.286C413 170.714 414.429 172.143 414.429 173.857V226.286C414.429 228 413 229.429 411.286 229.429L358.857 229.286Z" fill="white"/>
<path id="Vector_103" d="M411.143 171.429C412.429 171.429 413.571 172.571 413.571 173.857V226.286C413.571 227.571 412.429 228.714 411.143 228.714H358.857C357.571 228.571 356.429 227.429 356.429 226.143V173.857C356.429 172.571 357.571 171.429 358.857 171.429H411.143ZM411.143 170H358.857C356.714 170 355 171.714 355 173.857V226.286C355 228.286 356.714 230 358.857 230H411.286C413.429 230 415.143 228.286 415.143 226.143V173.857C415 171.714 413.286 170 411.143 170Z" fill="white"/>
</g>
<g id="Group_33">
<path id="Vector_104" d="M411.143 171.429H358.857C357.571 171.429 356.429 172.572 356.429 173.857V226.286C356.429 227.429 357.571 228.572 358.857 228.572H411.286C412.571 228.572 413.714 227.429 413.714 226.143V173.857C413.571 172.572 412.429 171.429 411.143 171.429ZM411.429 226.143C411.429 226.286 411.286 226.429 411.143 226.429H358.857C358.714 226.429 358.571 226.286 358.571 226.143V173.857C358.571 173.714 358.714 173.572 358.857 173.572H411.286C411.429 173.572 411.571 173.714 411.571 173.857L411.429 226.143Z" fill="#2D5967"/>
<path id="Vector_105" d="M362.714 222H407.143V209.286H362.714V222ZM364.857 211.429H405V219.857H364.857V211.429Z" fill="#2D5967"/>
<path id="Vector_106" d="M400.286 217.143C401.154 217.143 401.857 216.439 401.857 215.571C401.857 214.704 401.154 214 400.286 214C399.418 214 398.714 214.704 398.714 215.571C398.714 216.439 399.418 217.143 400.286 217.143Z" fill="#2D5967"/>
<path id="Vector_107" d="M362.714 190.429H407.143V177.714H362.714V190.429ZM364.857 179.857H405V188.286H364.857V179.857Z" fill="#2D5967"/>
<path id="Vector_108" d="M400.286 185.715C401.154 185.715 401.857 185.011 401.857 184.143C401.857 183.275 401.154 182.572 400.286 182.572C399.418 182.572 398.714 183.275 398.714 184.143C398.714 185.011 399.418 185.715 400.286 185.715Z" fill="#2D5967"/>
<path id="Vector_109" d="M362.714 206.286H407.143V193.572H362.714V206.286ZM364.857 195.715H405V204.286H364.857V195.715Z" fill="#2D5967"/>
<path id="Vector_110" d="M400.286 201.572C401.154 201.572 401.857 200.868 401.857 200C401.857 199.132 401.154 198.429 400.286 198.429C399.418 198.429 398.714 199.132 398.714 200C398.714 200.868 399.418 201.572 400.286 201.572Z" fill="#2D5967"/>
</g>
</g>
</g>
</g>
<g id="Icon Text Label_13">
<text id="IconLabel_15" fill="black" xml:space="preserve" style="white-space: pre" font-family="Oracle Sans" font-size="16" letter-spacing="0em"><tspan x="362.781" y="247.816">MDS 1</tspan></text>
</g>
</g>
<g id="Icon Master_14">
<g id="SRV-Persistent volume_6">
<g id="Group 35_6">
<path id="Vector_111" d="M265.994 229.172C253.313 229.172 231.834 227.06 231.834 219.195V200.621C231.835 200.554 231.84 200.487 231.85 200.421C231.842 200.288 231.842 200.155 231.85 200.022C231.834 191.791 253.313 189.613 265.994 189.613C278.675 189.613 300.155 191.791 300.155 199.939C300.163 200.072 300.163 200.205 300.155 200.338C300.164 200.432 300.164 200.527 300.155 200.621V219.178C300.155 227.027 278.675 229.172 265.994 229.172Z" fill="white"/>
<path id="Vector_112" d="M265.992 190.442C282.04 190.442 299.32 193.419 299.32 199.937C299.33 200.098 299.33 200.259 299.32 200.419C299.329 200.508 299.329 200.597 299.32 200.685V219.176C299.32 225.479 282.04 228.339 265.992 228.339C249.945 228.339 232.665 225.479 232.665 219.176V200.619C232.66 200.552 232.66 200.486 232.665 200.419C232.657 200.281 232.657 200.142 232.665 200.004C232.665 193.419 249.945 190.442 265.992 190.442ZM265.992 188.779C262.41 188.779 230.999 189.095 230.999 199.937C230.991 200.064 230.991 200.192 230.999 200.32C230.99 200.419 230.99 200.519 230.999 200.619V219.176C230.999 229.486 260.143 230.002 265.992 230.002C271.841 230.002 300.986 229.486 300.986 219.176V200.619C300.994 200.519 300.994 200.419 300.986 200.32C300.994 200.192 300.994 200.064 300.986 199.937C300.986 189.095 269.575 188.779 265.992 188.779Z" fill="white"/>
<path id="Vector_113" d="M299.322 199.938C299.322 193.419 282.042 190.443 265.995 190.443C249.948 190.443 232.667 193.419 232.667 199.938C232.657 200.098 232.657 200.259 232.667 200.42C232.658 200.508 232.658 200.598 232.667 200.686V219.177C232.667 225.479 249.948 228.339 265.995 228.339C282.042 228.339 299.322 225.479 299.322 219.177V200.62C299.327 200.553 299.327 200.486 299.322 200.42C299.332 200.259 299.332 200.098 299.322 199.938ZM288.091 223.035C280.829 224.577 273.418 225.307 265.995 225.213C258.571 225.307 251.16 224.577 243.899 223.035C237.233 221.372 235.8 219.709 235.8 219.177V204.211C241.499 207.72 254.13 209.35 265.995 209.35C277.859 209.35 290.49 207.687 296.189 204.211V219.177C296.189 219.676 294.69 221.439 288.091 223.035ZM265.995 193.569C273.418 193.47 280.828 194.235 288.074 195.847C294.74 197.51 296.189 199.356 296.189 199.938C296.189 200.52 294.723 202.349 288.074 204.012C280.828 205.624 273.418 206.389 265.995 206.29C258.571 206.389 251.161 205.624 243.915 204.012C237.25 202.349 235.8 200.503 235.8 199.938C235.8 199.372 237.266 197.51 243.915 195.847C251.161 194.235 258.571 193.47 265.995 193.569Z" fill="#2D5967"/>
</g>
</g>
<g id="Icon Text Label_14">
<text id="IconLabel_16" fill="black" xml:space="preserve" style="white-space: pre" font-family="Oracle Sans" font-size="16" letter-spacing="0em"><tspan x="243.773" y="247.816">MDT 1</tspan></text>
</g>
</g>
</g>
<g id="Autoscaling">
<g id="Scalability" clip-path="url(#clip1_14641_287793)">
<g id="Group_34">
<g id="Group_35">
<path id="Vector_114" d="M453.525 137.524C452.395 137.524 451.476 136.605 451.476 135.475V100.525C451.476 99.3951 452.395 98.4761 453.525 98.4761H488.474C489.604 98.4761 490.523 99.3951 490.523 100.525V135.474C490.523 136.605 489.604 137.523 488.474 137.523L453.525 137.524Z" fill="white"/>
<path id="Vector_115" d="M488.475 98.9524C489.342 98.9524 490.048 99.6581 490.048 100.525V135.474C490.048 136.342 489.342 137.048 488.475 137.048H472.155H471.636H453.525C452.658 137.048 451.952 136.342 451.952 135.475V117.364V116.845V100.525C451.952 99.6581 452.658 98.9524 453.525 98.9524H488.475ZM488.475 98H453.525C452.132 98 451 99.1324 451 100.525V116.844V117.363V135.474C451 136.868 452.132 138 453.525 138H471.636H472.155H488.475C489.868 138 491 136.868 491 135.475V100.525C491 99.1324 489.868 98 488.475 98Z" fill="white"/>
</g>
<g id="Group_36">
<path id="Vector_116" d="M472.342 117.646L484.216 105.767V114.171H485.614V103.379H474.822V104.777H483.228L471.353 116.657C471.766 116.891 472.108 117.234 472.342 117.646Z" fill="#2D5967"/>
<path id="Vector_117" d="M488.475 98.9521H453.525C452.658 98.9521 451.952 99.6579 451.952 100.525V116.844V117.363V135.474C451.952 136.342 452.658 137.047 453.525 137.047H471.636H472.155H488.475C489.342 137.047 490.048 136.342 490.048 135.475V100.525C490.048 99.6579 489.342 98.9521 488.475 98.9521ZM453.35 135.475V118.762H470.064C470.16 118.762 470.238 118.84 470.238 118.936V135.649H453.525C453.429 135.649 453.35 135.571 453.35 135.475ZM488.65 135.475C488.65 135.571 488.571 135.649 488.475 135.649H472.675H471.635V118.936C471.635 118.068 470.93 117.364 470.063 117.364H453.35V116.324V100.525C453.35 100.428 453.429 100.35 453.525 100.35H488.474C488.57 100.35 488.649 100.428 488.649 100.525V135.475H488.65Z" fill="#2D5967"/>
</g>
</g>
</g>
</g>
<g id="Autoscaling_2">
<g id="Scalability_2" clip-path="url(#clip2_14641_287793)">
<g id="Group_37">
<g id="Group_38">
<path id="Vector_118" d="M642.525 137.524C641.395 137.524 640.476 136.605 640.476 135.475V100.525C640.476 99.3951 641.395 98.4761 642.525 98.4761H677.474C678.604 98.4761 679.523 99.3951 679.523 100.525V135.474C679.523 136.605 678.604 137.523 677.474 137.523L642.525 137.524Z" fill="white"/>
<path id="Vector_119" d="M677.475 98.9524C678.342 98.9524 679.048 99.6581 679.048 100.525V135.474C679.048 136.342 678.342 137.048 677.475 137.048H661.155H660.636H642.525C641.658 137.048 640.952 136.342 640.952 135.475V117.364V116.845V100.525C640.952 99.6581 641.658 98.9524 642.525 98.9524H677.475ZM677.475 98H642.525C641.132 98 640 99.1324 640 100.525V116.844V117.363V135.474C640 136.868 641.132 138 642.525 138H660.636H661.155H677.475C678.868 138 680 136.868 680 135.475V100.525C680 99.1324 678.868 98 677.475 98Z" fill="white"/>
</g>
<g id="Group_39">
<path id="Vector_120" d="M661.342 117.646L673.216 105.767V114.171H674.614V103.379H663.822V104.777H672.228L660.353 116.657C660.766 116.891 661.108 117.234 661.342 117.646Z" fill="#2D5967"/>
<path id="Vector_121" d="M677.475 98.9521H642.525C641.658 98.9521 640.952 99.6579 640.952 100.525V116.844V117.363V135.474C640.952 136.342 641.658 137.047 642.525 137.047H660.636H661.155H677.475C678.342 137.047 679.048 136.342 679.048 135.475V100.525C679.048 99.6579 678.342 98.9521 677.475 98.9521ZM642.35 135.475V118.762H659.064C659.16 118.762 659.238 118.84 659.238 118.936V135.649H642.525C642.429 135.649 642.35 135.571 642.35 135.475ZM677.65 135.475C677.65 135.571 677.571 135.649 677.475 135.649H661.675H660.635V118.936C660.635 118.068 659.93 117.364 659.063 117.364H642.35V116.324V100.525C642.35 100.428 642.429 100.35 642.525 100.35H677.474C677.57 100.35 677.649 100.428 677.649 100.525V135.475H677.65Z" fill="#2D5967"/>
</g>
</g>
</g>
</g>
<g id="Frame 7">
<g id="Connector Line Label">
<rect width="40" height="14" transform="translate(292.5 534)" fill="#E4E1DD"/>
<text id="Line Label" fill="#312D2A" xml:space="preserve" style="white-space: pre" font-family="Oracle Sans" font-size="14" letter-spacing="0em"><tspan x="296.613" y="546.089">VNIC</tspan></text>
</g>
<g id="Connector Line Label_2">
<rect width="81" height="14" transform="translate(272 548)" fill="#E4E1DD"/>
<text id="Line Label_2" fill="#312D2A" xml:space="preserve" style="white-space: pre" font-family="Oracle Sans" font-size="14" letter-spacing="0em"><tspan x="276.434" y="560.089">attachment</tspan></text>
</g>
</g>
<g id="Frame 8">
<g id="Connector Line Label_3">
<rect width="40" height="14" transform="translate(380.5 534)" fill="#E4E1DD"/>
<text id="Line Label_3" fill="#312D2A" xml:space="preserve" style="white-space: pre" font-family="Oracle Sans" font-size="14" letter-spacing="0em"><tspan x="384.613" y="546.089">VNIC</tspan></text>
</g>
<g id="Connector Line Label_4">
<rect width="81" height="14" transform="translate(360 548)" fill="#E4E1DD"/>
<text id="Line Label_4" fill="#312D2A" xml:space="preserve" style="white-space: pre" font-family="Oracle Sans" font-size="14" letter-spacing="0em"><tspan x="364.434" y="560.089">attachment</tspan></text>
</g>
</g>
<g id="Frame 9">
<g id="Connector Line Label_5">
<rect width="40" height="14" transform="translate(467.5 534)" fill="#E4E1DD"/>
<text id="Line Label_5" fill="#312D2A" xml:space="preserve" style="white-space: pre" font-family="Oracle Sans" font-size="14" letter-spacing="0em"><tspan x="471.613" y="546.089">VNIC</tspan></text>
</g>
<g id="Connector Line Label_6">
<rect width="81" height="14" transform="translate(447 548)" fill="#E4E1DD"/>
<text id="Line Label_6" fill="#312D2A" xml:space="preserve" style="white-space: pre" font-family="Oracle Sans" font-size="14" letter-spacing="0em"><tspan x="451.434" y="560.089">attachment</tspan></text>
</g>
</g>
<g id="Frame 10">
<g id="Connector Line Label_7">
<rect width="40" height="14" transform="translate(621.5 534)" fill="#E4E1DD"/>
<text id="Line Label_7" fill="#312D2A" xml:space="preserve" style="white-space: pre" font-family="Oracle Sans" font-size="14" letter-spacing="0em"><tspan x="625.613" y="546.089">VNIC</tspan></text>
</g>
<g id="Connector Line Label_8">
<rect width="81" height="14" transform="translate(601 548)" fill="#E4E1DD"/>
<text id="Line Label_8" fill="#312D2A" xml:space="preserve" style="white-space: pre" font-family="Oracle Sans" font-size="14" letter-spacing="0em"><tspan x="605.434" y="560.089">attachment</tspan></text>
</g>
</g>
<g id="Frame 11">
<g id="Connector Line Label_9">
<rect width="40" height="14" transform="translate(709.5 534)" fill="#E4E1DD"/>
<text id="Line Label_9" fill="#312D2A" xml:space="preserve" style="white-space: pre" font-family="Oracle Sans" font-size="14" letter-spacing="0em"><tspan x="713.613" y="546.089">VNIC</tspan></text>
</g>
<g id="Connector Line Label_10">
<rect width="81" height="14" transform="translate(689 548)" fill="#E4E1DD"/>
<text id="Line Label_10" fill="#312D2A" xml:space="preserve" style="white-space: pre" font-family="Oracle Sans" font-size="14" letter-spacing="0em"><tspan x="693.434" y="560.089">attachment</tspan></text>
</g>
</g>
<g id="Frame 12">
<g id="Connector Line Label_11">
<rect width="40" height="14" transform="translate(796.5 534)" fill="#E4E1DD"/>
<text id="Line Label_11" fill="#312D2A" xml:space="preserve" style="white-space: pre" font-family="Oracle Sans" font-size="14" letter-spacing="0em"><tspan x="800.613" y="546.089">VNIC</tspan></text>
</g>
<g id="Connector Line Label_12">
<rect width="81" height="14" transform="translate(776 548)" fill="#E4E1DD"/>
<text id="Line Label_12" fill="#312D2A" xml:space="preserve" style="white-space: pre" font-family="Oracle Sans" font-size="14" letter-spacing="0em"><tspan x="780.434" y="560.089">attachment</tspan></text>
</g>
</g>
<path id="Vector 8_5" d="M112 745L257 745" stroke="#312D2A" stroke-width="2" stroke-dasharray="4 4"/>
<g id="Frame 13">
<g id="Connector Line Label_13">
<rect width="40" height="14" transform="translate(139.5 739)" fill="#F5F4F2"/>
<text id="Line Label_13" fill="#312D2A" xml:space="preserve" style="white-space: pre" font-family="Oracle Sans" font-size="14" letter-spacing="0em"><tspan x="143.613" y="751.089">VNIC</tspan></text>
</g>
<g id="Connector Line Label_14">
<rect width="81" height="14" transform="translate(119 753)" fill="#F5F4F2"/>
<text id="Line Label_14" fill="#312D2A" xml:space="preserve" style="white-space: pre" font-family="Oracle Sans" font-size="14" letter-spacing="0em"><tspan x="123.434" y="765.089">attachment</tspan></text>
</g>
</g>
<path id="Vector 9_3" d="M880 745L1018 745" stroke="#312D2A" stroke-width="2" stroke-dasharray="4 4"/>
<g id="Frame 14">
<g id="Connector Line Label_15">
<rect width="40" height="14" transform="translate(955.5 739)" fill="#F5F4F2"/>
<text id="Line Label_15" fill="#312D2A" xml:space="preserve" style="white-space: pre" font-family="Oracle Sans" font-size="14" letter-spacing="0em"><tspan x="959.613" y="751.089">VNIC</tspan></text>
</g>
<g id="Connector Line Label_16">
<rect width="81" height="14" transform="translate(935 753)" fill="#F5F4F2"/>
<text id="Line Label_16" fill="#312D2A" xml:space="preserve" style="white-space: pre" font-family="Oracle Sans" font-size="14" letter-spacing="0em"><tspan x="939.434" y="765.089">attachment</tspan></text>
</g>
</g>
</g>
<defs>
<clipPath id="clip0_14641_287793">
<rect width="1128" height="894" fill="white"/>
</clipPath>
<clipPath id="clip1_14641_287793">
<rect width="40" height="40" fill="white" transform="translate(451 98)"/>
</clipPath>
<clipPath id="clip2_14641_287793">
<rect width="40" height="40" fill="white" transform="translate(640 98)"/>
</clipPath>
</defs>
</svg>
