<svg width="811" height="902" viewBox="0 0 811 902" fill="none" xmlns="http://www.w3.org/2000/svg">
<g id="oci-object-storage-modernization-arch-after" clip-path="url(#clip0_13372_1843)">
<rect width="811" height="902" fill="white"/>
<g id="Group 1268">
<g id="OCI Region">
<rect x="0.5" y="0.5" width="810" height="901" rx="3.5" fill="#F5F4F2"/>
<rect x="0.5" y="0.5" width="810" height="901" rx="3.5" stroke="#9E9892"/>
<text id="OCI Region_2" fill="#312D2A" xml:space="preserve" style="white-space: pre" font-family="Oracle Sans" font-size="16" font-weight="bold" letter-spacing="0em"><tspan x="8" y="21.816">OCI Region</tspan></text>
</g>
<g id="OCI Region_3">
<rect x="218.5" y="44.5" width="583" height="677" stroke="#AA643B" stroke-dasharray="6 4"/>
<text id="Compartment" fill="#AE562C" xml:space="preserve" style="white-space: pre" font-family="Oracle Sans" font-size="16" font-weight="600" letter-spacing="0em"><tspan x="226" y="65.816">Application Compartment</tspan></text>
<rect id="Rectangle 692" x="750.993" y="44" width="44" height="2" fill="white"/>
<g id="Icon Master">
<g id="Compartments">
<g id="Group 11">
<path id="Vector" d="M753.375 63.6224V34.5938C753.375 33.3748 754.365 32.3843 755.584 32.3843H765.565C766.251 32.3843 766.937 32.689 767.318 33.2986L769.375 36.0414H790.48C791.699 36.0414 792.689 37.0319 792.689 38.2509V63.6986H753.375V63.6224Z" fill="white"/>
<path id="Vector_2" d="M765.564 32.7653C766.098 32.7653 766.707 33.0701 767.012 33.5272L769.145 36.4225H790.402C791.393 36.4225 792.231 37.2606 792.231 38.251V63.2415H753.755V34.5939C753.755 33.6034 754.593 32.7653 755.583 32.7653H765.564ZM765.564 32.0034H755.583C754.136 32.0034 752.993 33.1463 752.993 34.5939V63.2415V64.0034H753.755H792.231H792.993V63.2415V38.1748C792.993 36.7272 791.85 35.5844 790.402 35.5844H769.526L767.621 32.9939C767.088 32.3844 766.326 32.0034 765.564 32.0034Z" fill="white"/>
<path id="Vector_3" d="M790.402 36.4223H769.145L767.012 33.527C766.707 33.0699 766.174 32.7651 765.564 32.7651H755.583C754.593 32.7651 753.755 33.6032 753.755 34.5937V63.2413H792.231V38.1747C792.231 37.1842 791.393 36.4223 790.402 36.4223ZM790.555 61.6413H755.355V34.5937C755.355 34.5175 755.431 34.3651 755.583 34.3651H765.564C765.64 34.3651 765.717 34.3651 765.717 34.4413L768.383 38.0223H790.478C790.555 38.0223 790.707 38.0985 790.707 38.2509L790.555 61.6413Z" fill="#2D5967"/>
<path id="Vector_4" d="M759.927 42.3648H761.527V40.0029H763.965V38.4029H761.527V35.9648H759.927V38.4029H757.565V40.0029H759.927V42.3648Z" fill="#2D5967"/>
<path id="Vector_5" d="M784.153 48.9938L782.782 46.4795L781.411 48.9938L779.277 52.8033L777.982 55.1652H780.725H784.992H787.734L786.363 52.8033L784.153 48.9938ZM780.649 53.6414L782.782 49.8319L784.915 53.6414H780.649Z" fill="#2D5967"/>
<path id="Vector_6" d="M775.545 47.3937C774.859 47.0128 774.097 46.7842 773.335 46.7842C773.031 46.7842 772.65 46.7842 772.345 46.8604C770.059 47.3937 768.688 49.6794 769.221 51.8889C769.678 53.7937 771.354 55.0889 773.335 55.0889C773.64 55.0889 774.021 55.0889 774.326 55.0128C775.393 54.7842 776.307 54.0985 776.916 53.108C777.526 52.1937 777.678 51.0508 777.45 49.908C777.145 48.9175 776.459 48.0032 775.545 47.3937ZM775.545 52.3461C775.164 52.9556 774.631 53.3366 773.945 53.4889C773.716 53.5651 773.564 53.5651 773.335 53.5651C772.193 53.5651 771.05 52.727 770.821 51.5842C770.516 50.2128 771.354 48.7651 772.726 48.4604C772.954 48.3842 773.107 48.3842 773.335 48.3842C773.793 48.3842 774.25 48.5366 774.707 48.7651C775.316 49.1461 775.697 49.6794 775.85 50.3651C776.002 51.0508 775.85 51.7366 775.545 52.3461Z" fill="#2D5967"/>
<path id="Vector_7" d="M765.792 47.7751L765.335 47.0132H764.42H761.525H760.611L760.154 47.7751L758.706 50.2894L758.249 51.1275L758.706 51.9656L760.154 54.4798L760.611 55.2418H761.525H764.42H765.335L765.792 54.4798L767.24 51.9656L767.697 51.1275L767.316 50.2894L765.792 47.7751ZM764.42 53.6418H761.525L760.078 51.1275L761.525 48.6132H764.42L765.868 51.1275L764.42 53.6418Z" fill="#2D5967"/>
</g>
</g>
</g>
</g>
<g id="OCI Region_4">
<rect x="9.5" y="44.5" width="192" height="675" stroke="#AA643B" stroke-dasharray="6 4"/>
<text id="Compartment_2" fill="#AE562C" xml:space="preserve" style="white-space: pre" font-family="Oracle Sans" font-size="16" font-weight="600" letter-spacing="0em"><tspan x="17" y="65.816">Network</tspan></text>
<text id="Compartment_3" fill="#AE562C" xml:space="preserve" style="white-space: pre" font-family="Oracle Sans" font-size="16" font-weight="600" letter-spacing="0em"><tspan x="17" y="81.816">Compartment</tspan></text>
<rect id="Rectangle 692_2" x="150.993" y="44" width="44" height="2" fill="white"/>
<g id="Icon Master_2">
<g id="Compartments_2">
<g id="Group 11_2">
<path id="Vector_8" d="M153.375 63.6224V34.5938C153.375 33.3748 154.365 32.3843 155.584 32.3843H165.565C166.251 32.3843 166.937 32.689 167.318 33.2986L169.375 36.0414H190.48C191.699 36.0414 192.689 37.0319 192.689 38.2509V63.6986H153.375V63.6224Z" fill="white"/>
<path id="Vector_9" d="M165.564 32.7653C166.098 32.7653 166.707 33.0701 167.012 33.5272L169.145 36.4225H190.402C191.393 36.4225 192.231 37.2606 192.231 38.251V63.2415H153.755V34.5939C153.755 33.6034 154.593 32.7653 155.583 32.7653H165.564ZM165.564 32.0034H155.583C154.136 32.0034 152.993 33.1463 152.993 34.5939V63.2415V64.0034H153.755H192.231H192.993V63.2415V38.1748C192.993 36.7272 191.85 35.5844 190.402 35.5844H169.526L167.621 32.9939C167.088 32.3844 166.326 32.0034 165.564 32.0034Z" fill="white"/>
<path id="Vector_10" d="M190.402 36.4223H169.145L167.012 33.527C166.707 33.0699 166.174 32.7651 165.564 32.7651H155.583C154.593 32.7651 153.755 33.6032 153.755 34.5937V63.2413H192.231V38.1747C192.231 37.1842 191.393 36.4223 190.402 36.4223ZM190.555 61.6413H155.355V34.5937C155.355 34.5175 155.431 34.3651 155.583 34.3651H165.564C165.64 34.3651 165.717 34.3651 165.717 34.4413L168.383 38.0223H190.478C190.555 38.0223 190.707 38.0985 190.707 38.2509L190.555 61.6413Z" fill="#2D5967"/>
<path id="Vector_11" d="M159.927 42.3648H161.527V40.0029H163.965V38.4029H161.527V35.9648H159.927V38.4029H157.565V40.0029H159.927V42.3648Z" fill="#2D5967"/>
<path id="Vector_12" d="M184.153 48.9938L182.782 46.4795L181.411 48.9938L179.277 52.8033L177.982 55.1652H180.725H184.992H187.734L186.363 52.8033L184.153 48.9938ZM180.649 53.6414L182.782 49.8319L184.915 53.6414H180.649Z" fill="#2D5967"/>
<path id="Vector_13" d="M175.545 47.3937C174.859 47.0128 174.097 46.7842 173.335 46.7842C173.031 46.7842 172.65 46.7842 172.345 46.8604C170.059 47.3937 168.688 49.6794 169.221 51.8889C169.678 53.7937 171.354 55.0889 173.335 55.0889C173.64 55.0889 174.021 55.0889 174.326 55.0128C175.393 54.7842 176.307 54.0985 176.916 53.108C177.526 52.1937 177.678 51.0508 177.45 49.908C177.145 48.9175 176.459 48.0032 175.545 47.3937ZM175.545 52.3461C175.164 52.9556 174.631 53.3366 173.945 53.4889C173.716 53.5651 173.564 53.5651 173.335 53.5651C172.193 53.5651 171.05 52.727 170.821 51.5842C170.516 50.2128 171.354 48.7651 172.726 48.4604C172.954 48.3842 173.107 48.3842 173.335 48.3842C173.793 48.3842 174.25 48.5366 174.707 48.7651C175.316 49.1461 175.697 49.6794 175.85 50.3651C176.002 51.0508 175.85 51.7366 175.545 52.3461Z" fill="#2D5967"/>
<path id="Vector_14" d="M165.792 47.7751L165.335 47.0132H164.42H161.525H160.611L160.154 47.7751L158.706 50.2894L158.249 51.1275L158.706 51.9656L160.154 54.4798L160.611 55.2418H161.525H164.42H165.335L165.792 54.4798L167.24 51.9656L167.697 51.1275L167.316 50.2894L165.792 47.7751ZM164.42 53.6418H161.525L160.078 51.1275L161.525 48.6132H164.42L165.868 51.1275L164.42 53.6418Z" fill="#2D5967"/>
</g>
</g>
</g>
</g>
<g id="OCI Region_5">
<rect id="Rectangle 28" x="19" y="92.9155" width="773" height="617" stroke="#AA643B" stroke-width="2" stroke-dasharray="8 4"/>
<g id="Icon Master_3">
<g id="Virtual-Cloud-Network-VCN_red">
<g id="Group 39">
<path id="Vector_15" d="M771.416 115.51C770.16 115.51 768.944 115.077 767.969 114.285C766.995 113.493 766.323 112.39 766.066 111.16H759.595C759.408 112.054 759 112.887 758.408 113.583C757.816 114.279 757.06 114.816 756.208 115.144C755.356 115.472 754.435 115.582 753.53 115.463C752.625 115.343 751.764 114.999 751.026 114.462C750.287 113.924 749.695 113.21 749.304 112.385C748.912 111.56 748.733 110.65 748.783 109.738C748.833 108.825 749.111 107.94 749.59 107.163C750.07 106.386 750.737 105.741 751.529 105.288L749.533 99.1411C749.336 99.1547 749.138 99.1547 748.941 99.1411C748.053 99.1431 747.179 98.9289 746.392 98.5169C745.606 98.105 744.932 97.5077 744.428 96.7766C743.923 96.0456 743.605 95.2028 743.499 94.3209C743.394 93.4391 743.504 92.5448 743.821 91.7152C744.138 90.8857 744.652 90.1458 745.319 89.5595C745.986 88.9733 746.785 88.5582 747.648 88.3502C748.511 88.1422 749.411 88.1475 750.272 88.3657C751.132 88.5838 751.927 89.0083 752.586 89.6024L757.845 85.8726C757.527 85.1674 757.363 84.4028 757.362 83.6293C757.362 82.1781 757.938 80.7864 758.964 79.7603C759.989 78.7342 761.38 78.1577 762.83 78.1577C764.281 78.1577 765.672 78.7342 766.697 79.7603C767.723 80.7864 768.299 82.1781 768.299 83.6293C768.301 84.4021 768.139 85.1667 767.825 85.8726L773.093 89.6389C774.088 88.7257 775.388 88.2182 776.738 88.2163C778.188 88.2163 779.579 88.7927 780.605 89.8188C781.63 90.845 782.206 92.2367 782.206 93.6878C782.206 95.139 781.63 96.5307 780.605 97.5568C779.579 98.5829 778.188 99.1594 776.738 99.1594C776.547 99.1594 776.346 99.1594 776.155 99.1594L774.15 105.306C775.199 105.905 776.02 106.835 776.485 107.951C776.95 109.066 777.032 110.304 776.72 111.471C776.408 112.639 775.718 113.67 774.759 114.404C773.799 115.138 772.624 115.533 771.416 115.528V115.51Z" fill="white"/>
<path id="Vector_16" d="M762.84 78.577C763.707 78.579 764.56 78.8059 765.314 79.2356C766.068 79.6653 766.697 80.2832 767.142 81.029C767.586 81.7748 767.829 82.623 767.849 83.491C767.868 84.359 767.662 85.2172 767.251 85.9818L773.093 90.2314C773.665 89.6323 774.377 89.1844 775.164 88.9277C775.951 88.6711 776.79 88.6137 777.605 88.7607C778.42 88.9076 779.186 89.2544 779.835 89.7699C780.483 90.2855 780.994 90.9538 781.321 91.715C781.648 92.4763 781.782 93.3068 781.71 94.1324C781.638 94.958 781.363 95.7529 780.909 96.446C780.455 97.1391 779.836 97.7089 779.109 98.1043C778.381 98.4998 777.566 98.7087 776.738 98.7123C776.433 98.7165 776.128 98.6921 775.827 98.6393L773.594 105.524C774.375 105.901 775.045 106.475 775.538 107.188C776.032 107.902 776.332 108.731 776.409 109.595C776.486 110.459 776.338 111.329 775.979 112.119C775.62 112.908 775.062 113.591 774.36 114.101C773.659 114.611 772.837 114.929 771.975 115.026C771.113 115.123 770.241 114.994 769.444 114.653C768.647 114.312 767.952 113.769 767.427 113.079C766.902 112.388 766.565 111.573 766.449 110.713H759.212C759.095 111.573 758.757 112.388 758.231 113.078C757.706 113.768 757.01 114.31 756.212 114.65C755.414 114.991 754.542 115.118 753.68 115.02C752.818 114.922 751.996 114.603 751.295 114.092C750.594 113.581 750.037 112.897 749.679 112.106C749.322 111.316 749.175 110.446 749.253 109.582C749.332 108.718 749.634 107.889 750.128 107.176C750.623 106.463 751.294 105.891 752.076 105.515L749.843 98.6393C749.543 98.6952 749.237 98.7226 748.932 98.7214C748.101 98.7199 747.284 98.5123 746.553 98.1171C745.822 97.7219 745.201 97.1515 744.745 96.457C744.289 95.7626 744.011 94.9657 743.939 94.1378C743.866 93.3099 743.999 92.4768 744.327 91.7132C744.655 90.9496 745.167 90.2793 745.817 89.7623C746.468 89.2453 747.236 88.8979 748.054 88.751C748.871 88.6042 749.712 88.6626 750.502 88.9209C751.291 89.1793 752.005 89.6295 752.577 90.2314L758.419 85.9818C758.008 85.2165 757.802 84.3575 757.821 83.4887C757.841 82.62 758.085 81.7711 758.531 81.0251C758.976 80.279 759.607 79.6613 760.362 79.2322C761.118 78.8032 761.971 78.5774 762.84 78.577ZM762.84 77.665C761.268 77.665 759.76 78.2893 758.647 79.4006C757.535 80.512 756.909 82.0196 756.906 83.5926C756.906 84.3062 757.035 85.014 757.289 85.6809L752.632 89.055C751.891 88.4637 751.019 88.0587 750.089 87.8739C749.16 87.6891 748.199 87.7298 747.288 87.9927C746.378 88.2556 745.543 88.733 744.855 89.385C744.166 90.0369 743.644 90.8444 743.332 91.7398C743.019 92.6353 742.926 93.5926 743.059 94.5316C743.192 95.4706 743.548 96.364 744.098 97.1369C744.647 97.9099 745.373 98.5399 746.216 98.9742C747.059 99.4086 747.993 99.6346 748.941 99.6333H749.205L751.028 105.105C750.23 105.633 749.572 106.347 749.11 107.185C748.648 108.023 748.396 108.961 748.375 109.918C748.354 110.875 748.564 111.823 748.989 112.68C749.414 113.538 750.04 114.28 750.814 114.843C751.588 115.406 752.486 115.772 753.433 115.912C754.379 116.052 755.345 115.96 756.249 115.645C757.152 115.329 757.965 114.8 758.62 114.102C759.274 113.403 759.749 112.557 760.005 111.634H765.747C766.001 112.56 766.476 113.41 767.13 114.112C767.784 114.814 768.599 115.346 769.504 115.664C770.41 115.981 771.378 116.075 772.328 115.936C773.277 115.797 774.178 115.429 774.954 114.865C775.73 114.301 776.358 113.558 776.784 112.697C777.21 111.837 777.421 110.887 777.4 109.927C777.378 108.968 777.124 108.028 776.66 107.188C776.195 106.348 775.534 105.633 774.733 105.105L776.556 99.6333H776.738C777.544 99.6781 778.35 99.5579 779.108 99.2802C779.865 99.0026 780.558 98.5732 781.144 98.0184C781.73 97.4636 782.197 96.795 782.516 96.0535C782.835 95.312 783 94.5131 783 93.7058C783 92.8985 782.835 92.0997 782.516 91.3582C782.197 90.6167 781.73 89.9481 781.144 89.3933C780.558 88.8384 779.865 88.4091 779.108 88.1314C778.35 87.8537 777.544 87.7336 776.738 87.7783C775.396 87.775 774.093 88.232 773.047 89.0732L768.399 85.6991C768.646 85.0305 768.772 84.3235 768.773 83.6108C768.774 82.8304 768.621 82.0575 768.324 81.3361C768.026 80.6148 767.589 79.9593 767.038 79.4071C766.487 78.8548 765.833 78.4167 765.112 78.1178C764.392 77.8189 763.619 77.665 762.84 77.665V77.665Z" fill="white"/>
<path id="Vector_17" d="M776.739 88.6709C776.057 88.6691 775.382 88.8065 774.755 89.0746C774.128 89.3428 773.563 89.736 773.093 90.2303L767.251 85.9807C767.665 85.2153 767.874 84.3554 767.856 83.4851C767.838 82.6149 767.595 81.7642 767.15 81.0164C766.705 80.2685 766.073 79.6493 765.317 79.2192C764.56 78.7891 763.705 78.563 762.835 78.563C761.966 78.563 761.111 78.7891 760.354 79.2192C759.598 79.6493 758.966 80.2685 758.521 81.0164C758.076 81.7642 757.832 82.6149 757.815 83.4851C757.797 84.3554 758.005 85.2153 758.42 85.9807L752.569 90.2303C751.996 89.6333 751.284 89.1875 750.497 88.9327C749.709 88.6779 748.871 88.622 748.058 88.77C747.244 88.918 746.479 89.2653 745.832 89.7809C745.184 90.2965 744.675 90.9643 744.348 91.7249C744.022 92.4855 743.888 93.3151 743.96 94.1398C744.032 94.9644 744.306 95.7585 744.759 96.4512C745.212 97.1439 745.83 97.7136 746.556 98.1095C747.283 98.5054 748.096 98.7153 748.923 98.7203C749.229 98.7216 749.534 98.6941 749.835 98.6383L752.067 105.505C751.286 105.881 750.614 106.453 750.12 107.166C749.625 107.878 749.323 108.707 749.245 109.572C749.166 110.436 749.313 111.306 749.671 112.096C750.029 112.887 750.585 113.571 751.287 114.082C751.988 114.592 752.809 114.912 753.671 115.01C754.533 115.108 755.405 114.981 756.203 114.64C757.001 114.3 757.697 113.758 758.223 113.068C758.749 112.378 759.087 111.563 759.204 110.703H766.44C766.556 111.563 766.893 112.378 767.418 113.068C767.943 113.759 768.638 114.301 769.435 114.643C770.233 114.984 771.105 115.113 771.966 115.016C772.828 114.919 773.65 114.601 774.352 114.091C775.054 113.581 775.611 112.898 775.97 112.108C776.329 111.319 776.477 110.449 776.4 109.585C776.323 108.721 776.023 107.891 775.53 107.178C775.036 106.464 774.366 105.891 773.585 105.514L775.827 98.6383C776.128 98.6941 776.433 98.7216 776.739 98.7203C777.422 98.7616 778.107 98.6625 778.751 98.4291C779.395 98.1957 779.985 97.8329 780.483 97.3632C780.982 96.8934 781.379 96.3265 781.651 95.6973C781.923 95.0682 782.063 94.3901 782.063 93.7047C782.063 93.0194 781.923 92.3413 781.651 91.7121C781.379 91.083 780.982 90.5161 780.483 90.0463C779.985 89.5765 779.395 89.2138 778.751 88.9804C778.107 88.747 777.422 88.6479 776.739 88.6891V88.6709ZM771.416 113.712C770.695 113.712 769.99 113.498 769.391 113.098C768.791 112.697 768.324 112.127 768.048 111.461C767.772 110.794 767.7 110.061 767.841 109.353C767.981 108.645 768.328 107.996 768.838 107.485C769.348 106.975 769.998 106.628 770.705 106.487C771.412 106.346 772.145 106.419 772.811 106.695C773.477 106.971 774.047 107.438 774.447 108.038C774.848 108.638 775.062 109.343 775.062 110.065C775.062 111.032 774.678 111.96 773.994 112.644C773.31 113.328 772.383 113.712 771.416 113.712ZM759.213 109.362C759.063 108.23 758.529 107.184 757.7 106.399L760.434 102.578C761.167 102.967 761.983 103.17 762.813 103.171C763.639 103.173 764.454 102.97 765.182 102.578L767.916 106.399C767.085 107.183 766.547 108.229 766.394 109.362H759.213ZM750.564 110.037C750.564 109.316 750.777 108.611 751.178 108.011C751.579 107.411 752.148 106.943 752.814 106.667C753.48 106.391 754.213 106.319 754.92 106.46C755.628 106.6 756.277 106.948 756.787 107.458C757.297 107.968 757.644 108.618 757.785 109.326C757.925 110.033 757.853 110.767 757.577 111.433C757.301 112.1 756.834 112.669 756.235 113.07C755.635 113.471 754.93 113.685 754.209 113.685C753.242 113.685 752.315 113.301 751.631 112.617C750.948 111.933 750.564 111.005 750.564 110.037ZM748.941 90.0205C749.662 90.0205 750.367 90.2345 750.967 90.6353C751.566 91.0361 752.033 91.6058 752.309 92.2723C752.585 92.9389 752.658 93.6723 752.517 94.3799C752.376 95.0875 752.029 95.7374 751.519 96.2476C751.009 96.7577 750.36 97.1051 749.653 97.2459C748.945 97.3866 748.212 97.3144 747.546 97.0383C746.88 96.7622 746.311 96.2947 745.91 95.6948C745.51 95.0949 745.296 94.3897 745.296 93.6683C745.296 92.7008 745.68 91.773 746.364 91.0889C747.047 90.4049 747.974 90.0205 748.941 90.0205ZM759.158 83.6371C759.158 82.9156 759.372 82.2104 759.772 81.6105C760.173 81.0106 760.742 80.5431 761.408 80.267C762.075 79.9909 762.808 79.9187 763.515 80.0595C764.222 80.2002 764.871 80.5476 765.381 81.0577C765.891 81.5679 766.238 82.2178 766.379 82.9254C766.52 83.633 766.447 84.3665 766.172 85.033C765.896 85.6995 765.428 86.2692 764.829 86.67C764.229 87.0708 763.525 87.2848 762.804 87.2848C762.321 87.2848 761.843 87.189 761.398 87.0028C760.953 86.8167 760.549 86.5439 760.209 86.2003C759.87 85.8567 759.603 85.4492 759.422 85.0014C759.242 84.5536 759.152 84.0743 759.158 83.5915V83.6371ZM771.79 94.5802L767.37 95.9937C767.009 95.2393 766.468 94.5862 765.794 94.0928C765.119 93.5994 764.333 93.2812 763.505 93.1667V88.6071C764.634 88.4568 765.677 87.9222 766.458 87.0933L772.318 91.3428C771.922 92.0733 771.715 92.8917 771.717 93.723C771.719 94.0071 771.743 94.2907 771.79 94.5711V94.5802ZM766.513 98.164C766.513 98.8855 766.299 99.5907 765.898 100.191C765.498 100.79 764.929 101.258 764.262 101.534C763.596 101.81 762.863 101.882 762.156 101.742C761.449 101.601 760.799 101.254 760.29 100.743C759.78 100.233 759.432 99.5833 759.292 98.8757C759.151 98.1681 759.223 97.4347 759.499 96.7681C759.775 96.1016 760.242 95.5319 760.842 95.1311C761.441 94.7303 762.146 94.5163 762.867 94.5163C763.833 94.5163 764.758 94.8994 765.442 95.5815C766.125 96.2636 766.51 97.1891 766.513 98.1549V98.164ZM762.156 88.6071V93.1667C761.331 93.2794 760.546 93.596 759.873 94.0879C759.2 94.5798 758.66 95.2316 758.301 95.9845L753.872 94.5711C753.929 94.2705 753.956 93.9651 753.954 93.6591C753.946 92.8505 753.743 92.0557 753.362 91.3428L759.213 87.0841C759.99 87.9146 761.03 88.4523 762.156 88.6071ZM753.462 95.9025L757.891 97.316C757.835 97.6166 757.807 97.922 757.809 98.2279C757.806 98.9111 757.943 99.5876 758.213 100.215C758.483 100.843 758.879 101.408 759.377 101.876L756.643 105.706C755.915 105.31 755.101 105.103 754.273 105.104C753.967 105.102 753.662 105.129 753.362 105.186L751.12 98.2188C752.142 97.7343 752.971 96.918 753.471 95.9025H753.462ZM771.416 105.022C770.59 105.023 769.776 105.227 769.047 105.614L766.312 101.803C766.808 101.334 767.203 100.768 767.473 100.141C767.743 99.5136 767.881 98.8378 767.88 98.1549C767.882 97.849 767.855 97.5436 767.798 97.243L772.182 95.8478C772.678 96.8791 773.506 97.7139 774.533 98.2188L772.3 105.095C772.008 105.044 771.712 105.019 771.416 105.022ZM773.093 93.6956C773.093 92.9742 773.307 92.2689 773.707 91.6691C774.108 91.0692 774.677 90.6017 775.343 90.3256C776.01 90.0495 776.743 89.9772 777.45 90.118C778.157 90.2587 778.807 90.6062 779.316 91.1163C779.826 91.6264 780.173 92.2764 780.314 92.984C780.455 93.6916 780.383 94.425 780.107 95.0915C779.831 95.7581 779.363 96.3278 778.764 96.7286C778.164 97.1294 777.46 97.3433 776.739 97.3433C775.772 97.3433 774.844 96.959 774.161 96.2749C773.477 95.5908 773.093 94.663 773.093 93.6956Z" fill="#AA643B"/>
</g>
</g>
</g>
<text id="VCN" fill="#AE562C" xml:space="preserve" style="white-space: pre" font-family="Oracle Sans" font-size="16" font-weight="600" letter-spacing="0em"><tspan x="27" y="114.816">VCN</tspan></text>
</g>
<g id="OCI Region_6">
<rect x="28.5" y="136.5" width="156" height="564" stroke="#AA643B" stroke-dasharray="8 4"/>
<text id="Subnet" fill="#AE562C" xml:space="preserve" style="white-space: pre" font-family="Oracle Sans" font-size="16" font-weight="600" letter-spacing="0em"><tspan x="36" y="157.816">LB Subnet</tspan></text>
<g id="Icon Master_4">
<g id="OCI-SL_RT">
<g id="Group">
<g id="Group_2">
<path id="Vector_18" d="M136.476 155.519V129.077H153.238V121.289L164.476 116.481L175.619 121.289V131.481C175.619 131.577 175.619 134.077 174.19 137.058C172.952 139.75 170.381 143.404 164.857 145.423V155.423H136.476V155.519Z" fill="white"/>
<path id="Vector_19" d="M164.381 117.058L175.048 121.577V131.481C175.048 131.577 175.048 133.981 173.714 136.865C172.476 139.558 170 143.115 164.667 145.038L164.476 145.135H164.381V155.038H136.952V129.558H153.714V121.577L164.381 117.058ZM164.381 116L164 116.192L153.333 120.712L152.762 121V121.673V128.692H136.952H136V129.654V155.038V156H136.952H164.381H165.333V155.038V145.808C170.667 143.692 173.333 140.038 174.571 137.25C176 134.173 176 131.577 176 131.481V121.577V121L175.429 120.712L164.762 116.192L164.381 116Z" fill="white"/>
</g>
<g id="Group_3">
<path id="Vector_20" d="M163.048 145.712H145.524V138.981H155.048C154.762 138.5 154.571 138.115 154.381 137.731H145.524V131H152.667V129.75H136.952V155.135H164.381V146.288L163.905 146.096C163.619 145.904 163.333 145.808 163.048 145.712ZM138.19 130.904H144.286V137.635H138.19V130.904ZM144.286 138.885V145.615H138.19V138.885H144.286ZM138.19 146.962H144.286V153.692H138.19V146.962ZM163.048 153.692H145.524V146.962H163.048V153.692Z" fill="#AA643B"/>
<path id="Vector_21" d="M161.619 151.192H160.381V152.442H161.619V151.192Z" fill="#AA643B"/>
<path id="Vector_22" d="M156.381 152.442L157.524 151.288L158.667 152.442L159.524 151.481L158.381 150.327L159.524 149.173L158.667 148.308L157.524 149.461L156.381 148.308L155.428 149.173L156.571 150.327L155.428 151.481L156.381 152.442Z" fill="#AA643B"/>
<path id="Vector_23" d="M153.619 151.192H152.381V152.442H153.619V151.192Z" fill="#AA643B"/>
<path id="Vector_24" d="M147.524 151.481L148.381 152.442L149.524 151.288L150.667 152.442L151.619 151.481L150.476 150.327L151.619 149.173L150.667 148.308L149.524 149.461L148.381 148.308L147.524 149.173L148.667 150.327L147.524 151.481Z" fill="#AA643B"/>
<path id="Vector_25" d="M153.619 143.116H152.381V144.366H153.619V143.116Z" fill="#AA643B"/>
<path id="Vector_26" d="M147.524 143.404L148.381 144.366L149.524 143.212L150.667 144.366L151.619 143.404L150.476 142.25L151.619 141.096L150.667 140.231L149.524 141.385L148.381 140.231L147.524 141.096L148.667 142.25L147.524 143.404Z" fill="#AA643B"/>
<path id="Vector_27" d="M152.095 136.385H153.333V135.135C153.333 135.135 153.333 135.135 153.333 135.039H152.095V136.385Z" fill="#AA643B"/>
<path id="Vector_28" d="M147.143 135.423L148.095 136.288L149.238 135.135L150.381 136.288L151.238 135.423L150.095 134.269L151.238 133.115L150.381 132.154L149.238 133.308L148.095 132.154L147.143 133.115L148.286 134.269L147.143 135.423Z" fill="#AA643B"/>
<path id="Vector_29" d="M153.714 121.577V131.481C153.714 131.577 153.81 133.981 155.048 136.865C156.286 139.558 158.857 143.115 164.191 145.038L164.381 145.135L164.571 145.038C169.905 143.115 172.476 139.558 173.619 136.865C174.952 133.981 174.952 131.577 174.952 131.481V121.577L164.381 117.058L153.714 121.577ZM173.81 131.481C173.81 131.577 173.619 140.231 164.476 143.692C160.667 142.25 157.905 139.75 156.286 136.385C155.048 133.788 155.048 131.481 155.048 131.481V122.442L164.476 118.404L173.81 122.442V131.481Z" fill="#AA643B"/>
<path id="Vector_30" d="M163.238 132.827H158.286V134.077H163.238V132.827Z" fill="#AA643B"/>
<path id="Vector_31" d="M163.238 126.385H158.286V127.635H163.238V126.385Z" fill="#AA643B"/>
<path id="Vector_32" d="M169.905 124.942L167.143 127.635L166.19 126.673L165.238 127.539L167.143 129.462L170.762 125.808L169.905 124.942Z" fill="#AA643B"/>
<path id="Vector_33" d="M158.286 130.904H163.047H163.238V129.558H158.286V130.904Z" fill="#AA643B"/>
</g>
</g>
</g>
</g>
</g>
<g id="OCI Region_7">
<rect x="235.5" y="136.5" width="389" height="564" stroke="#AA643B" stroke-dasharray="8 4"/>
<text id="Subnet_2" fill="#AE562C" xml:space="preserve" style="white-space: pre" font-family="Oracle Sans" font-size="16" font-weight="600" letter-spacing="0em"><tspan x="243" y="157.816">Application Subnet</tspan></text>
<g id="Icon Master_5">
<g id="OCI-SL_RT_2">
<g id="Group_4">
<g id="Group_5">
<path id="Vector_34" d="M576.476 155.519V129.077H593.238V121.289L604.476 116.481L615.619 121.289V131.481C615.619 131.577 615.619 134.077 614.19 137.058C612.952 139.75 610.381 143.404 604.857 145.423V155.423H576.476V155.519Z" fill="white"/>
<path id="Vector_35" d="M604.381 117.058L615.048 121.577V131.481C615.048 131.577 615.048 133.981 613.714 136.865C612.476 139.558 610 143.115 604.667 145.038L604.476 145.135H604.381V155.038H576.952V129.558H593.714V121.577L604.381 117.058ZM604.381 116L604 116.192L593.333 120.712L592.762 121V121.673V128.692H576.952H576V129.654V155.038V156H576.952H604.381H605.333V155.038V145.808C610.667 143.692 613.333 140.038 614.571 137.25C616 134.173 616 131.577 616 131.481V121.577V121L615.429 120.712L604.762 116.192L604.381 116Z" fill="white"/>
</g>
<g id="Group_6">
<path id="Vector_36" d="M603.048 145.712H585.524V138.981H595.048C594.762 138.5 594.571 138.115 594.381 137.731H585.524V131H592.667V129.75H576.952V155.135H604.381V146.288L603.905 146.096C603.619 145.904 603.333 145.808 603.048 145.712ZM578.19 130.904H584.286V137.635H578.19V130.904ZM584.286 138.885V145.615H578.19V138.885H584.286ZM578.19 146.962H584.286V153.692H578.19V146.962ZM603.048 153.692H585.524V146.962H603.048V153.692Z" fill="#AA643B"/>
<path id="Vector_37" d="M601.619 151.192H600.381V152.442H601.619V151.192Z" fill="#AA643B"/>
<path id="Vector_38" d="M596.381 152.442L597.524 151.288L598.667 152.442L599.524 151.481L598.381 150.327L599.524 149.173L598.667 148.308L597.524 149.461L596.381 148.308L595.428 149.173L596.571 150.327L595.428 151.481L596.381 152.442Z" fill="#AA643B"/>
<path id="Vector_39" d="M593.619 151.192H592.381V152.442H593.619V151.192Z" fill="#AA643B"/>
<path id="Vector_40" d="M587.524 151.481L588.381 152.442L589.524 151.288L590.667 152.442L591.619 151.481L590.476 150.327L591.619 149.173L590.667 148.308L589.524 149.461L588.381 148.308L587.524 149.173L588.667 150.327L587.524 151.481Z" fill="#AA643B"/>
<path id="Vector_41" d="M593.619 143.116H592.381V144.366H593.619V143.116Z" fill="#AA643B"/>
<path id="Vector_42" d="M587.524 143.404L588.381 144.366L589.524 143.212L590.667 144.366L591.619 143.404L590.476 142.25L591.619 141.096L590.667 140.231L589.524 141.385L588.381 140.231L587.524 141.096L588.667 142.25L587.524 143.404Z" fill="#AA643B"/>
<path id="Vector_43" d="M592.095 136.385H593.333V135.135C593.333 135.135 593.333 135.135 593.333 135.039H592.095V136.385Z" fill="#AA643B"/>
<path id="Vector_44" d="M587.143 135.423L588.095 136.288L589.238 135.135L590.381 136.288L591.238 135.423L590.095 134.269L591.238 133.115L590.381 132.154L589.238 133.308L588.095 132.154L587.143 133.115L588.286 134.269L587.143 135.423Z" fill="#AA643B"/>
<path id="Vector_45" d="M593.714 121.577V131.481C593.714 131.577 593.81 133.981 595.048 136.865C596.286 139.558 598.857 143.115 604.191 145.038L604.381 145.135L604.571 145.038C609.905 143.115 612.476 139.558 613.619 136.865C614.952 133.981 614.952 131.577 614.952 131.481V121.577L604.381 117.058L593.714 121.577ZM613.81 131.481C613.81 131.577 613.619 140.231 604.476 143.692C600.667 142.25 597.905 139.75 596.286 136.385C595.048 133.788 595.048 131.481 595.048 131.481V122.442L604.476 118.404L613.81 122.442V131.481Z" fill="#AA643B"/>
<path id="Vector_46" d="M603.238 132.827H598.286V134.077H603.238V132.827Z" fill="#AA643B"/>
<path id="Vector_47" d="M603.238 126.385H598.286V127.635H603.238V126.385Z" fill="#AA643B"/>
<path id="Vector_48" d="M609.905 124.942L607.143 127.635L606.19 126.673L605.238 127.539L607.143 129.462L610.762 125.808L609.905 124.942Z" fill="#AA643B"/>
<path id="Vector_49" d="M598.286 130.904H603.048H603.238V129.558H598.286V130.904Z" fill="#AA643B"/>
</g>
</g>
</g>
</g>
</g>
<g id="OCI Load Balancer">
<g id="Load-Balancer-LB">
<g id="Group_7">
<g id="Group_8">
<g id="Group_9">
<path id="Vector_50" d="M125.511 379.286V375.714H129.766L109.908 355.714C109.341 362.571 107.781 368.571 105.369 373.143C102.391 378.286 99.4118 379.286 97.426 379.286C97.1423 379.286 96.7168 379.286 96.2912 379.143C90.6175 378.143 87.0714 369.429 85.7948 361.714C85.2274 358.857 84.9437 355.429 84.8019 351.857H77.7097V348.286H84.8019C84.9437 344.571 85.2274 341 85.7948 338C87.6387 327.429 92.0359 320.857 97.426 320.857C100.547 320.857 106.078 323.143 109.057 338.286C109.341 340.286 109.625 342.286 109.766 344.286L129.625 324.286H125.369V320.714H135.724V331.143H132.32V326.571L110.901 348.286H129.199L126.362 345.571L128.773 343L136.149 350L128.915 357.286L126.362 354.714L129.341 351.714H111.043L132.32 373.286V368.857H135.866V379.286H125.511Z" fill="white"/>
<path id="Vector_51" d="M135.156 321.429V330.429H133.028V324.857L109.34 348.857V349H130.901L127.355 345.571L128.773 344L135.156 350L128.915 356.286L127.496 354.857L131.184 351.143H109.34L133.028 375V369.571H135.156V378.571H126.22V376.429H131.468L109.199 354C108.915 360.571 107.496 367.286 104.66 372.714C101.965 377.286 99.2695 378.429 97.2837 378.429C97 378.429 96.5745 378.429 96.2908 378.286C90.9007 377.286 87.6383 368.571 86.3617 361.429C85.9362 358.429 85.5106 354.714 85.5106 351H78.4184V348.857H85.5106C85.5106 345 85.9362 341.286 86.5035 338C88.3475 328 92.461 321.571 97.4255 321.571C100.262 321.571 105.369 323.857 108.206 338.429C108.631 340.714 108.915 343.143 109.057 345.857L131.468 323.571H126.22V321.429H135.156ZM136.574 320H135.156H126.22H124.801V321.429V323.571V325H126.22H128.064L110.333 342.714C110.191 341.143 109.908 339.714 109.766 338.286C106.787 323.286 101.539 320.143 97.5674 320.143C91.7518 320.143 87.2128 326.857 85.227 337.857C84.6596 340.714 84.3759 344 84.234 347.571H78.4184H77V349V351.143V352.571H78.4184H84.0922C84.234 355.857 84.5177 359.143 85.0851 361.857C86.5035 369.857 90.0496 378.714 96.1489 379.857C96.5745 379.857 97 380 97.4255 380C99.5532 380 102.816 378.857 105.936 373.571C108.206 369.143 109.766 363.714 110.333 357.429L128.064 375H126.22H124.801V376.429V378.571V380H126.22H135.156H136.574V378.571V369.571V368.143H135.156H133.028H131.61V369.571V371.571L112.745 352.429H127.638L126.362 353.714L125.369 354.714L126.362 355.714L127.78 357.143L128.773 358.143L129.766 357.143L136.007 350.857L137 349.857L136.007 348.857L129.766 342.857L128.773 341.857L127.78 342.857L126.362 344.429L125.369 345.429L126.362 346.429L127.355 347.429H112.603L131.61 328.286V330.429V331.857H133.028H135.156H136.574V330.429V321.429V320Z" fill="white"/>
</g>
<g id="Group_10">
<path id="Vector_52" d="M135.155 330.429V321.429H126.219V323.572H131.467L109.198 345.858C109.056 343.143 108.772 340.715 108.347 338.429C105.51 323.715 100.404 321.572 97.5667 321.572C92.6021 321.572 88.4886 328.001 86.6447 338.143C85.9355 341.429 85.6518 345.143 85.5099 349.001H78.4177V351.143H85.5099C85.5099 354.858 85.9355 358.429 86.5028 361.572C87.7794 368.715 91.0418 377.429 96.4319 378.429C96.7156 378.429 96.9993 378.572 97.4248 378.572C99.4106 378.572 102.106 377.429 104.801 372.858C107.638 367.429 108.914 360.715 109.34 354.143L131.609 376.572H126.361V378.572H135.155V369.572H133.028V375.001L109.34 351.143H131.042L127.354 354.858L128.772 356.286L135.155 350.001L128.914 344.001L127.496 345.572L131.042 349.001H109.34V348.858L133.028 324.858V330.429H135.155ZM102.389 371.429C101.113 373.429 99.4106 375.858 97.283 375.858C97.1411 375.858 96.9993 375.858 96.8574 375.858C93.7369 375.286 90.3326 369.143 89.056 361.143C88.4886 358.143 88.205 354.715 88.0631 351.143H100.687L96.9993 354.858L98.5596 356.286L104.801 350.001L98.2759 343.715L96.8574 345.286L100.687 349.001H88.205C88.205 345.429 88.6305 341.715 89.1979 338.715C90.9 328.715 94.7298 324.286 97.4248 324.286C99.978 324.286 103.524 328.143 105.652 339.001C107.496 348.715 107.07 362.572 102.389 371.429Z" fill="#2D5967"/>
</g>
</g>
</g>
</g>
<g id="Icon Text Label">
<text id="IconLabel" fill="black" xml:space="preserve" style="white-space: pre" font-family="Oracle Sans" font-size="16" letter-spacing="0em"><tspan x="73.9297" y="397.816">OCI Load</tspan></text>
<text id="IconLabel_2" fill="black" xml:space="preserve" style="white-space: pre" font-family="Oracle Sans" font-size="16" letter-spacing="0em"><tspan x="75.6953" y="413.816">Balancer</tspan></text>
<text id="IconLabel_3" fill="black" xml:space="preserve" style="white-space: pre" font-family="Oracle Sans" font-size="16" letter-spacing="0em"><tspan x="72.2031" y="429.816">(L4 or L7)</tspan></text>
</g>
</g>
<g id="OCI Virtual Machine">
<g id="Virtual-Machine-VM">
<g id="Group_11">
<g id="Group_12">
<path id="Vector_53" d="M305.35 235.286C303.639 235.286 302.214 233.857 302.214 232.143V179.857C302.214 178.143 303.639 176.714 305.35 176.714H357.654C359.364 176.714 360.789 178.143 360.789 179.857V232.286C360.789 234 359.364 235.429 357.654 235.429L305.35 235.286Z" fill="white"/>
<path id="Vector_54" d="M357.51 177.429C358.792 177.429 359.932 178.571 359.932 179.857V232.286C359.932 233.571 358.792 234.714 357.51 234.714H305.348C304.065 234.571 302.925 233.429 302.925 232.143V179.857C302.925 178.571 304.065 177.429 305.348 177.429H357.51ZM357.51 176H305.348C303.21 176 301.5 177.714 301.5 179.857V232.286C301.5 234.286 303.21 236 305.348 236H357.652C359.79 236 361.5 234.286 361.5 232.143V179.857C361.357 177.714 359.647 176 357.51 176Z" fill="white"/>
</g>
<g id="Group_13">
<path id="Vector_55" d="M357.51 177.429H305.348C304.066 177.429 302.926 178.572 302.926 179.858V232.286C302.926 233.429 304.066 234.572 305.348 234.572H357.653C358.935 234.572 360.075 233.429 360.075 232.143V179.858C359.933 178.572 358.793 177.429 357.51 177.429ZM357.795 232.143C357.795 232.286 357.653 232.429 357.51 232.429H305.348C305.206 232.429 305.063 232.286 305.063 232.143V179.858C305.063 179.715 305.206 179.572 305.348 179.572H357.653C357.795 179.572 357.938 179.715 357.938 179.858L357.795 232.143Z" fill="#2D5967"/>
<path id="Vector_56" d="M310.906 226.573H352.379V213.858H310.906V226.573ZM312.901 216.001H350.099V224.573H312.901V216.001Z" fill="#2D5967"/>
<path id="Vector_57" d="M345.395 221.858C346.261 221.858 346.963 221.154 346.963 220.286C346.963 219.418 346.261 218.715 345.395 218.715C344.529 218.715 343.828 219.418 343.828 220.286C343.828 221.154 344.529 221.858 345.395 221.858Z" fill="#2D5967"/>
<path id="Vector_58" d="M323.448 185.429H310.906V198.143H323.59L323.448 185.429ZM321.453 196H312.901V187.429H321.453V196Z" fill="#2D5967"/>
<path id="Vector_59" d="M337.701 185.429H325.016V198.143H337.701V185.429ZM335.705 196H327.154V187.429H335.705V196Z" fill="#2D5967"/>
<path id="Vector_60" d="M323.448 199.714H310.906V212.429H323.59L323.448 199.714ZM321.453 210.286H312.901V201.714H321.453V210.286Z" fill="#2D5967"/>
<path id="Vector_61" d="M337.701 199.714H325.016V212.429H337.701V199.714ZM335.705 210.286H327.154V201.714H335.705V210.286Z" fill="#2D5967"/>
<path id="Vector_62" d="M351.952 185.429H339.268V198.143H351.952V185.429ZM349.957 196H341.406V187.429H349.957V196Z" fill="#2D5967"/>
<path id="Vector_63" d="M351.952 199.714H339.268V212.429H351.952V199.714ZM349.957 210.286H341.406V201.714H349.957V210.286Z" fill="#2D5967"/>
</g>
</g>
</g>
<g id="Icon Text Label_2">
<text id="IconLabel_4" fill="black" xml:space="preserve" style="white-space: pre" font-family="Oracle Sans" font-size="16" letter-spacing="0em"><tspan x="292.43" y="253.816">OCI Virtual</tspan></text>
<text id="IconLabel_5" fill="black" xml:space="preserve" style="white-space: pre" font-family="Oracle Sans" font-size="16" letter-spacing="0em"><tspan x="300.477" y="269.816">Machine</tspan></text>
<text id="IconLabel_6" fill="black" xml:space="preserve" style="white-space: pre" font-family="Oracle Sans" font-size="16" letter-spacing="0em"><tspan x="305.82" y="285.816">(Batch)</tspan></text>
</g>
</g>
<g id="OCI Virtual Machine_2">
<g id="Virtual-Machine-VM_2">
<g id="Group_14">
<g id="Group_15">
<path id="Vector_64" d="M305.35 379.286C303.639 379.286 302.214 377.857 302.214 376.143V323.857C302.214 322.143 303.639 320.714 305.35 320.714H357.654C359.364 320.714 360.789 322.143 360.789 323.857V376.286C360.789 378 359.364 379.429 357.654 379.429L305.35 379.286Z" fill="white"/>
<path id="Vector_65" d="M357.51 321.429C358.792 321.429 359.932 322.571 359.932 323.857V376.286C359.932 377.571 358.792 378.714 357.51 378.714H305.348C304.065 378.571 302.925 377.429 302.925 376.143V323.857C302.925 322.571 304.065 321.429 305.348 321.429H357.51ZM357.51 320H305.348C303.21 320 301.5 321.714 301.5 323.857V376.286C301.5 378.286 303.21 380 305.348 380H357.652C359.79 380 361.5 378.286 361.5 376.143V323.857C361.357 321.714 359.647 320 357.51 320Z" fill="white"/>
</g>
<g id="Group_16">
<path id="Vector_66" d="M357.51 321.429H305.348C304.066 321.429 302.926 322.572 302.926 323.858V376.286C302.926 377.429 304.066 378.572 305.348 378.572H357.653C358.935 378.572 360.075 377.429 360.075 376.143V323.858C359.933 322.572 358.793 321.429 357.51 321.429ZM357.795 376.143C357.795 376.286 357.653 376.429 357.51 376.429H305.348C305.206 376.429 305.063 376.286 305.063 376.143V323.858C305.063 323.715 305.206 323.572 305.348 323.572H357.653C357.795 323.572 357.938 323.715 357.938 323.858L357.795 376.143Z" fill="#2D5967"/>
<path id="Vector_67" d="M310.906 370.573H352.379V357.858H310.906V370.573ZM312.901 360.001H350.099V368.573H312.901V360.001Z" fill="#2D5967"/>
<path id="Vector_68" d="M345.395 365.858C346.261 365.858 346.963 365.154 346.963 364.286C346.963 363.418 346.261 362.715 345.395 362.715C344.529 362.715 343.828 363.418 343.828 364.286C343.828 365.154 344.529 365.858 345.395 365.858Z" fill="#2D5967"/>
<path id="Vector_69" d="M323.448 329.429H310.906V342.143H323.59L323.448 329.429ZM321.453 340H312.901V331.429H321.453V340Z" fill="#2D5967"/>
<path id="Vector_70" d="M337.701 329.429H325.016V342.143H337.701V329.429ZM335.705 340H327.154V331.429H335.705V340Z" fill="#2D5967"/>
<path id="Vector_71" d="M323.448 343.714H310.906V356.429H323.59L323.448 343.714ZM321.453 354.286H312.901V345.714H321.453V354.286Z" fill="#2D5967"/>
<path id="Vector_72" d="M337.701 343.714H325.016V356.429H337.701V343.714ZM335.705 354.286H327.154V345.714H335.705V354.286Z" fill="#2D5967"/>
<path id="Vector_73" d="M351.952 329.429H339.268V342.143H351.952V329.429ZM349.957 340H341.406V331.429H349.957V340Z" fill="#2D5967"/>
<path id="Vector_74" d="M351.952 343.714H339.268V356.429H351.952V343.714ZM349.957 354.286H341.406V345.714H349.957V354.286Z" fill="#2D5967"/>
</g>
</g>
</g>
<g id="Icon Text Label_3">
<text id="IconLabel_7" fill="black" xml:space="preserve" style="white-space: pre" font-family="Oracle Sans" font-size="16" letter-spacing="0em"><tspan x="292.43" y="397.816">OCI Virtual</tspan></text>
<text id="IconLabel_8" fill="black" xml:space="preserve" style="white-space: pre" font-family="Oracle Sans" font-size="16" letter-spacing="0em"><tspan x="300.477" y="413.816">Machine</tspan></text>
<text id="IconLabel_9" fill="black" xml:space="preserve" style="white-space: pre" font-family="Oracle Sans" font-size="16" letter-spacing="0em"><tspan x="299.117" y="429.816">(Apache)</tspan></text>
</g>
</g>
<g id="OCI Virtual Machine_3">
<g id="Virtual-Machine-VM_3">
<g id="Group_17">
<g id="Group_18">
<path id="Vector_75" d="M305.35 507.286C303.639 507.286 302.214 505.857 302.214 504.143V451.857C302.214 450.143 303.639 448.714 305.35 448.714H357.654C359.364 448.714 360.789 450.143 360.789 451.857V504.286C360.789 506 359.364 507.429 357.654 507.429L305.35 507.286Z" fill="white"/>
<path id="Vector_76" d="M357.51 449.429C358.792 449.429 359.932 450.571 359.932 451.857V504.286C359.932 505.571 358.792 506.714 357.51 506.714H305.348C304.065 506.571 302.925 505.429 302.925 504.143V451.857C302.925 450.571 304.065 449.429 305.348 449.429H357.51ZM357.51 448H305.348C303.21 448 301.5 449.714 301.5 451.857V504.286C301.5 506.286 303.21 508 305.348 508H357.652C359.79 508 361.5 506.286 361.5 504.143V451.857C361.357 449.714 359.647 448 357.51 448Z" fill="white"/>
</g>
<g id="Group_19">
<path id="Vector_77" d="M357.51 449.429H305.348C304.066 449.429 302.926 450.572 302.926 451.858V504.286C302.926 505.429 304.066 506.572 305.348 506.572H357.653C358.935 506.572 360.075 505.429 360.075 504.143V451.858C359.933 450.572 358.793 449.429 357.51 449.429ZM357.795 504.143C357.795 504.286 357.653 504.429 357.51 504.429H305.348C305.206 504.429 305.063 504.286 305.063 504.143V451.858C305.063 451.715 305.206 451.572 305.348 451.572H357.653C357.795 451.572 357.938 451.715 357.938 451.858L357.795 504.143Z" fill="#2D5967"/>
<path id="Vector_78" d="M310.906 498.573H352.379V485.858H310.906V498.573ZM312.901 488.001H350.099V496.573H312.901V488.001Z" fill="#2D5967"/>
<path id="Vector_79" d="M345.395 493.858C346.261 493.858 346.963 493.154 346.963 492.286C346.963 491.418 346.261 490.715 345.395 490.715C344.529 490.715 343.828 491.418 343.828 492.286C343.828 493.154 344.529 493.858 345.395 493.858Z" fill="#2D5967"/>
<path id="Vector_80" d="M323.448 457.429H310.906V470.143H323.59L323.448 457.429ZM321.453 468H312.901V459.429H321.453V468Z" fill="#2D5967"/>
<path id="Vector_81" d="M337.701 457.429H325.016V470.143H337.701V457.429ZM335.705 468H327.154V459.429H335.705V468Z" fill="#2D5967"/>
<path id="Vector_82" d="M323.448 471.714H310.906V484.429H323.59L323.448 471.714ZM321.453 482.286H312.901V473.714H321.453V482.286Z" fill="#2D5967"/>
<path id="Vector_83" d="M337.701 471.714H325.016V484.429H337.701V471.714ZM335.705 482.286H327.154V473.714H335.705V482.286Z" fill="#2D5967"/>
<path id="Vector_84" d="M351.952 457.429H339.268V470.143H351.952V457.429ZM349.957 468H341.406V459.429H349.957V468Z" fill="#2D5967"/>
<path id="Vector_85" d="M351.952 471.714H339.268V484.429H351.952V471.714ZM349.957 482.286H341.406V473.714H349.957V482.286Z" fill="#2D5967"/>
</g>
</g>
</g>
<g id="Icon Text Label_4">
<text id="IconLabel_10" fill="black" xml:space="preserve" style="white-space: pre" font-family="Oracle Sans" font-size="16" letter-spacing="0em"><tspan x="292.43" y="525.816">OCI Virtual</tspan></text>
<text id="IconLabel_11" fill="black" xml:space="preserve" style="white-space: pre" font-family="Oracle Sans" font-size="16" letter-spacing="0em"><tspan x="300.477" y="541.816">Machine</tspan></text>
<text id="IconLabel_12" fill="black" xml:space="preserve" style="white-space: pre" font-family="Oracle Sans" font-size="16" letter-spacing="0em"><tspan x="299.117" y="557.816">(Apache)</tspan></text>
</g>
</g>
<g id="OCI File Storage">
<rect id="Rectangle 690" x="623" y="176" width="4" height="112" fill="#F5F4F2"/>
<g id="Icon Master_6">
<g id="Services/File-Storage">
<g id="Group_20">
<g id="Group_21">
<g id="Group_22">
<path id="Vector_86" d="M598.847 235.286C597.136 235.286 595.711 233.857 595.711 232.143V179.857C595.711 178.143 597.136 176.714 598.847 176.714H651.151C652.861 176.714 654.286 178.143 654.286 179.857V232.286C654.286 234 652.861 235.429 651.151 235.429L598.847 235.286Z" fill="white"/>
<path id="Vector_87" d="M651.01 177.429C652.292 177.429 653.432 178.571 653.432 179.857V232.286C653.432 233.571 652.292 234.714 651.01 234.714H598.848C597.565 234.571 596.425 233.429 596.425 232.143V179.857C596.425 178.571 597.565 177.429 598.848 177.429H651.01ZM651.01 176H598.848C596.71 176 595 177.714 595 179.857V232.286C595 234.286 596.71 236 598.848 236H651.152C653.29 236 655 234.286 655 232.143V179.857C654.857 177.714 653.147 176 651.01 176Z" fill="white"/>
</g>
<g id="Group_23">
<path id="Vector_88" d="M596.426 232.144C596.426 233.429 597.566 234.572 598.848 234.572H651.153C652.435 234.572 653.575 233.429 653.575 232.144V183.144H596.426V232.144ZM598.563 185.286H651.295V232.286C651.295 232.429 651.153 232.572 651.01 232.572H598.848C598.706 232.572 598.563 232.429 598.563 232.286V185.286Z" fill="#2D5967"/>
<path id="Vector_89" d="M651.01 177.429H598.848C597.566 177.429 596.426 178.572 596.426 179.858V181.572H653.433V179.858C653.433 178.572 652.293 177.429 651.01 177.429Z" fill="#2D5967"/>
<path id="Vector_90" d="M646.448 198.429C646.448 197.286 645.451 196.286 644.311 196.286H620.795L618.515 193.286C618.087 192.715 617.517 192.429 616.805 192.429H605.688C604.548 192.429 603.551 193.429 603.551 194.572V225.001H646.448V198.429ZM605.688 194.572H616.805L618.942 197.286L616.805 200.001H605.546L605.688 194.572C605.546 194.572 605.546 194.572 605.688 194.572ZM644.311 222.858H605.546V202.143H616.662C617.375 202.143 617.945 201.858 618.372 201.286L620.653 198.286H644.168V222.858H644.311Z" fill="#2D5967"/>
<path id="Vector_91" d="M615.665 196.287H607.399V198.429H615.665V196.287Z" fill="#2D5967"/>
</g>
</g>
</g>
</g>
<g id="Icon Text Label_5">
<text id="IconLabel_13" fill="black" xml:space="preserve" style="white-space: pre" font-family="Oracle Sans" font-size="16" letter-spacing="0em"><tspan x="597.328" y="253.816">OCI File</tspan></text>
<text id="IconLabel_14" fill="black" xml:space="preserve" style="white-space: pre" font-family="Oracle Sans" font-size="16" letter-spacing="0em"><tspan x="597.188" y="269.816">Storage</tspan></text>
<text id="IconLabel_15" fill="black" xml:space="preserve" style="white-space: pre" font-family="Oracle Sans" font-size="16" letter-spacing="0em"><tspan x="595.852" y="285.816">(Mount)</tspan></text>
</g>
</g>
</g>
<g id="Local Storage">
<g id="Local-Storage">
<g id="Group 26">
<path id="Vector_92" d="M714.629 235.285C713.768 235.285 712.942 234.943 712.333 234.335C711.724 233.727 711.382 232.902 711.382 232.042V195.599C711.382 194.739 711.724 193.914 712.333 193.306C712.942 192.698 713.768 192.357 714.629 192.357H722.379L721.593 191.214C720.183 189.215 719.624 186.74 720.036 184.331C720.449 181.921 721.801 179.773 723.795 178.357C725.404 177.262 727.311 176.689 729.258 176.714C730.742 176.713 732.204 177.076 733.515 177.771C734.827 178.466 735.947 179.471 736.78 180.699C737.841 182.247 738.41 184.08 738.41 185.957C738.41 187.833 737.841 189.666 736.78 191.214L735.993 192.357H744.387C745.248 192.357 746.074 192.698 746.683 193.306C747.291 193.914 747.633 194.739 747.633 195.599V232.042C747.633 232.902 747.291 233.727 746.683 234.335C746.074 234.943 745.248 235.285 744.387 235.285H714.629Z" fill="white"/>
<path id="Vector_93" d="M729.258 177.429C730.614 177.441 731.947 177.782 733.142 178.421C734.338 179.061 735.36 179.98 736.122 181.1C737.106 182.529 737.633 184.223 737.633 185.957C737.633 187.692 737.106 189.385 736.122 190.814L734.621 193.143H744.374C745.045 193.143 745.689 193.409 746.163 193.883C746.638 194.358 746.905 195.001 746.905 195.671V232.043C746.905 232.375 746.839 232.704 746.712 233.01C746.585 233.317 746.398 233.596 746.163 233.831C745.928 234.066 745.649 234.252 745.342 234.379C745.035 234.506 744.706 234.571 744.374 234.571H714.629C714.297 234.571 713.968 234.506 713.661 234.379C713.353 234.252 713.074 234.066 712.839 233.831C712.604 233.596 712.418 233.317 712.291 233.01C712.163 232.704 712.098 232.375 712.098 232.043V195.6C712.117 194.942 712.391 194.317 712.864 193.858C713.337 193.399 713.97 193.143 714.629 193.143H723.738L722.18 190.814C720.892 188.967 720.383 186.689 720.763 184.47C721.143 182.252 722.381 180.271 724.21 178.957C725.696 177.941 727.458 177.407 729.258 177.429ZM729.258 176C727.215 176.005 725.221 176.627 723.538 177.786C721.399 179.316 719.948 181.627 719.501 184.218C719.054 186.808 719.647 189.471 721.15 191.629H714.629C714.108 191.629 713.591 191.731 713.11 191.931C712.628 192.131 712.191 192.424 711.823 192.793C711.455 193.162 711.164 193.6 710.965 194.081C710.767 194.563 710.666 195.079 710.668 195.6V232.043C710.668 233.092 711.085 234.099 711.828 234.841C712.571 235.583 713.579 236 714.629 236H744.374C745.424 236 746.432 235.583 747.174 234.841C747.917 234.099 748.335 233.092 748.335 232.043V195.6C748.316 194.563 747.89 193.575 747.149 192.848C746.409 192.121 745.412 191.714 744.374 191.714H737.338C738.485 190.048 739.098 188.073 739.098 186.05C739.098 184.027 738.485 182.052 737.338 180.386C736.452 179.051 735.253 177.953 733.844 177.189C732.436 176.424 730.861 176.016 729.258 176V176Z" fill="white"/>
<path id="Vector_94" d="M744.373 193.144H736.665L735.12 195.315H744.373C744.448 195.315 744.521 195.345 744.575 195.399C744.628 195.452 744.659 195.525 744.659 195.601V232.044C744.659 232.119 744.628 232.192 744.575 232.246C744.521 232.299 744.448 232.329 744.373 232.329H714.628C714.552 232.329 714.48 232.299 714.426 232.246C714.372 232.192 714.342 232.119 714.342 232.044V195.601C714.342 195.525 714.372 195.452 714.426 195.399C714.48 195.345 714.552 195.315 714.628 195.315H723.208L721.692 193.144H714.628C713.969 193.143 713.336 193.4 712.863 193.859C712.391 194.318 712.116 194.943 712.097 195.601V232.044C712.097 232.376 712.163 232.704 712.29 233.011C712.417 233.318 712.603 233.597 712.838 233.832C713.073 234.066 713.352 234.253 713.66 234.38C713.967 234.507 714.296 234.572 714.628 234.572H744.373C744.705 234.572 745.034 234.507 745.341 234.38C745.648 234.253 745.927 234.066 746.162 233.832C746.397 233.597 746.584 233.318 746.711 233.011C746.838 232.704 746.904 232.376 746.904 232.044V195.601C746.885 194.943 746.61 194.318 746.138 193.859C745.665 193.4 745.032 193.143 744.373 193.144Z" fill="#2D5967"/>
<path id="Vector_95" d="M716.031 207.1H742.972V197H733.978L732.433 199.242H740.727V204.857H718.276V199.242H725.927L724.396 197H716.031V207.1Z" fill="#2D5967"/>
<path id="Vector_96" d="M737.924 203.171C738.548 203.171 739.054 202.665 739.054 202.042C739.054 201.419 738.548 200.914 737.924 200.914C737.3 200.914 736.794 201.419 736.794 202.042C736.794 202.665 737.3 203.171 737.924 203.171Z" fill="#2D5967"/>
<path id="Vector_97" d="M716.031 218.858H742.972V208.772H716.031V218.858ZM718.276 211.001H740.699V216.615H718.276V211.001Z" fill="#2D5967"/>
<path id="Vector_98" d="M737.924 214.956C738.548 214.956 739.054 214.451 739.054 213.828C739.054 213.204 738.548 212.699 737.924 212.699C737.3 212.699 736.794 213.204 736.794 213.828C736.794 214.451 737.3 214.956 737.924 214.956Z" fill="#2D5967"/>
<path id="Vector_99" d="M716.031 230.643H742.972V220.557H716.031V230.643ZM718.276 222.8H740.699V228.4H718.276V222.8Z" fill="#2D5967"/>
<path id="Vector_100" d="M737.924 226.729C738.548 226.729 739.054 226.224 739.054 225.6C739.054 224.977 738.548 224.472 737.924 224.472C737.3 224.472 736.794 224.977 736.794 225.6C736.794 226.224 737.3 226.729 737.924 226.729Z" fill="#2D5967"/>
<path id="Vector_101" d="M729.258 200.999L736.251 190.814C737.235 189.384 737.762 187.691 737.762 185.956C737.762 184.222 737.235 182.528 736.251 181.099C735.477 179.961 734.434 179.031 733.214 178.39C731.994 177.75 730.636 177.42 729.258 177.428C727.458 177.407 725.696 177.94 724.21 178.956C722.381 180.271 721.143 182.251 720.763 184.469C720.383 186.688 720.892 188.967 722.18 190.814L729.258 200.999ZM734.349 182.428C735.069 183.48 735.454 184.725 735.454 185.999C735.454 187.274 735.069 188.519 734.349 189.571L729.258 197.028L724.039 189.542C723.07 188.195 722.677 186.519 722.945 184.882C723.213 183.246 724.121 181.782 725.469 180.814C726.586 180.057 727.908 179.659 729.258 179.671C730.252 179.684 731.228 179.938 732.102 180.411C732.976 180.884 733.723 181.561 734.278 182.385L734.349 182.428Z" fill="#2D5967"/>
<path id="Vector_102" d="M729.258 189.728C729.97 189.725 730.666 189.512 731.256 189.115C731.847 188.717 732.307 188.154 732.577 187.496C732.848 186.838 732.917 186.115 732.777 185.417C732.636 184.72 732.292 184.08 731.787 183.578C731.282 183.076 730.64 182.734 729.942 182.596C729.243 182.459 728.519 182.531 727.862 182.804C727.204 183.077 726.642 183.538 726.247 184.13C725.851 184.721 725.64 185.417 725.64 186.128C725.64 186.602 725.734 187.072 725.916 187.509C726.098 187.947 726.365 188.344 726.701 188.679C727.037 189.013 727.436 189.278 727.875 189.458C728.314 189.638 728.784 189.73 729.258 189.728ZM729.258 184.771C729.541 184.771 729.818 184.855 730.053 185.012C730.288 185.169 730.471 185.392 730.579 185.653C730.688 185.914 730.716 186.201 730.661 186.478C730.606 186.756 730.469 187.01 730.269 187.21C730.069 187.41 729.815 187.546 729.537 187.601C729.26 187.656 728.972 187.628 728.711 187.52C728.45 187.411 728.226 187.228 728.069 186.993C727.912 186.758 727.828 186.482 727.828 186.2C727.828 185.821 727.979 185.457 728.247 185.19C728.515 184.922 728.879 184.771 729.258 184.771Z" fill="#2D5967"/>
</g>
</g>
<g id="Icon Text Label_6">
<text id="IconLabel_16" fill="black" xml:space="preserve" style="white-space: pre" font-family="Oracle Sans" font-size="16" letter-spacing="0em"><tspan x="676.109" y="253.816">App filesystem</tspan></text>
<text id="IconLabel_17" fill="black" xml:space="preserve" style="white-space: pre" font-family="Oracle Sans" font-size="16" letter-spacing="0em"><tspan x="709.484" y="269.816">(NFS)</tspan></text>
</g>
</g>
<g id="Project-Life-Cycle">
<g id="Project-Life-Cycle_2">
<g id="Group 902">
<g id="Group_24">
<path id="Vector_103" d="M730 666.714C729.143 666.714 728.143 666.715 727.143 666.572H726.857C726 666.429 725.286 666.429 724.286 666.143L723.857 666C723.143 665.857 722.286 665.714 721.571 665.429C721.429 665.429 721.143 665.286 721 665.286C720.286 665 719.571 664.857 718.857 664.572C718.571 664.429 718.429 664.429 718.143 664.286C717.429 664 716.857 663.714 716.286 663.429C716.143 663.143 715.857 663.143 715.714 663L715.571 662.857C715 662.572 714.571 662.286 714 661.857C713.714 661.714 713.429 661.429 713.143 661.286C712.714 661 712.286 660.714 712 660.429C711.571 660.143 711.286 659.857 711 659.572C710.571 659.286 710.286 659 710 658.572C709.857 658.429 709.714 658.286 709.571 658.143V662.572H705.714V653.857C705.286 653.143 704.857 652.429 704.429 651.714C704.286 651.572 704.143 651.286 704.143 651.143L704 650.857C703.714 650.429 703.571 650 703.286 649.429L703.143 649.143C703 649 703 648.714 702.857 648.572C702.571 647.857 702.286 647.143 702.143 646.429C702.143 646.286 702 646 702 645.857V645.714C701.857 645.143 701.714 644.429 701.429 643.714L701.286 643.143C701.143 642.429 701 641.572 700.857 640.714C700.857 640.572 700.857 640.286 700.857 640.143C700.714 639.143 700.714 638.286 700.714 637.429C700.714 636.572 700.714 635.572 700.857 634.572V634.286C701 633.429 701 632.714 701.286 631.714L701.429 631.286C701.571 630.572 701.714 629.714 702 629L702.143 628.429C702.429 627.714 702.571 627 702.857 626.286C703 626 703 625.857 703.143 625.572C703.429 624.857 703.714 624.286 704 623.714C704.286 623.572 704.286 623.429 704.429 623.143L704.571 623C704.857 622.429 705.143 622 705.571 621.429C705.714 621.143 705.857 620.857 706.143 620.572C706.429 620.143 706.714 619.714 707 619.429C707.286 619 707.571 618.714 707.857 618.429C708.143 618 708.429 617.714 708.857 617.429C709 617.286 709.143 617.143 709.286 617H704.857V613.143H713.571C714.286 612.714 715 612.286 715.714 611.857H715.857C716 611.714 716.286 611.714 716.429 611.572L716.714 611.429C717.143 611.143 717.571 611 718.143 610.714L718.286 610.572C718.571 610.429 718.714 610.429 719 610.286C719.714 610 720.429 609.714 721.143 609.572C721.286 609.572 721.857 609.286 721.857 609.286C722.429 609.143 723.143 608.857 723.857 608.714H724.286C725 608.572 725.857 608.429 726.714 608.286C726.857 608.286 727.143 608.286 727.286 608.286C728.286 608.143 729.143 608.143 730 608.143C730.857 608.143 731.857 608.143 732.857 608.286H733.143C734 608.429 734.714 608.429 735.714 608.714L736.143 608.857C736.857 609 737.714 609.143 738.429 609.429C738.571 609.429 738.857 609.572 739 609.572C739.714 609.857 740.429 610 741.143 610.286C741.429 610.429 741.571 610.429 741.857 610.572C742.571 610.857 743.143 611.143 743.714 611.429C743.857 611.714 744 611.714 744.286 611.857L744.429 612C745 612.286 745.429 612.572 746 613C746.286 613.143 746.571 613.429 746.857 613.572C747.286 613.857 747.714 614.143 748 614.429C748.429 614.714 748.714 615 749 615.286C749.429 615.572 749.714 615.857 750 616.286C750.143 616.429 750.286 616.572 750.429 616.714V612.286H754.286V621C754.714 621.714 755.143 622.429 755.571 623.143C755.714 623.286 755.857 623.572 755.857 623.714L756 624C756.286 624.429 756.429 624.857 756.714 625.429L756.857 625.714C757 625.857 757 626.143 757.143 626.286C757.429 627 757.714 627.714 757.857 628.429C757.857 628.572 758 628.857 758 629V629.143C758.143 629.714 758.286 630.429 758.571 631.143L758.714 631.714C758.857 632.429 759 633.286 759.143 634.143C759.143 634.286 759.143 634.572 759.143 634.714C759.286 635.714 759.286 636.572 759.286 637.429C759.286 638.286 759.286 639.286 759.143 640.286V640.572C759 641.429 759 642.286 758.714 643.143L758.571 643.572C758.429 644.286 758.286 645.143 758 645.857L757.857 646.429C757.571 647.143 757.429 647.857 757.143 648.572L756.857 649.286C756.571 650 756.286 650.572 756 651.143C755.857 651.429 755.714 651.572 755.571 651.857C755.286 652.429 754.857 653 754.571 653.572C754.429 653.857 754.286 654.143 754 654.286C753.571 654.857 753.286 655.286 752.857 655.857C752.714 656 752.571 656.286 752.429 656.429L752.286 656.572C752 657 751.571 657.429 751.143 657.714C751.143 657.714 751.143 657.714 751 657.857H755.429V661.572H746.714C746.143 662 745.429 662.429 744.857 662.714L744.429 663H744.286C743.857 663.143 743.571 663.286 743.286 663.572C742.857 663.857 742.286 664 741.857 664.286L741.571 664.429C741.429 664.572 741.286 664.572 741.143 664.714C740.429 665 739.714 665.286 739 665.572C738.714 665.714 738.429 665.715 738.286 665.857C737.571 666 736.857 666.286 736.286 666.429L735.857 666.572C735.143 666.715 734.286 666.857 733.286 667C733 667 732.857 667 732.571 667C731.714 666.714 730.857 666.714 730 666.714Z" fill="white"/>
<path id="Vector_104" d="M730 608.857C730.857 608.857 731.857 608.857 732.714 609C732.857 609 732.857 609 733 609C733.857 609.143 734.714 609.286 735.429 609.429C735.571 609.429 735.714 609.429 735.857 609.572C736.571 609.714 737.429 609.857 738.143 610.143C738.286 610.143 738.571 610.286 738.714 610.286C739.429 610.572 740.143 610.714 740.714 611C741 611.143 741.143 611.143 741.429 611.286C742 611.572 742.714 611.857 743.286 612.143C743.571 612.286 743.714 612.429 744 612.572C744.571 612.857 745 613.143 745.571 613.429C745.857 613.572 746.143 613.857 746.429 614C746.857 614.286 747.286 614.572 747.571 614.857C747.857 615.143 748.286 615.429 748.571 615.714C748.857 616 749.286 616.286 749.571 616.714C750 617 750.286 617.429 750.571 617.714C750.857 618 751.143 618.286 751.286 618.572V613H753.571V620.143V621.286C754 622 754.571 622.714 755 623.572C755.143 623.857 755.286 624.143 755.429 624.429C755.714 624.857 755.857 625.286 756.143 625.714C756.286 626 756.429 626.286 756.571 626.572C756.857 627.286 757.143 628 757.286 628.572C757.429 628.857 757.429 629 757.571 629.286C757.714 629.857 757.857 630.572 758 631.143C758 631.286 758.143 631.429 758.143 631.714C758.286 632.572 758.429 633.286 758.571 634.143C758.571 634.286 758.571 634.572 758.571 634.714C758.571 635.714 758.571 636.572 758.571 637.429C758.571 638.429 758.571 639.286 758.429 640.143C758.429 640.286 758.429 640.286 758.429 640.429C758.286 641.286 758.143 642.143 758 643C758 643.143 758 643.286 757.857 643.429C757.714 644.143 757.429 645 757.286 645.714C757.286 645.857 757.143 646.143 757.143 646.286C756.857 647 756.714 647.714 756.429 648.286C756.286 648.572 756.286 648.714 756.143 649C755.857 649.572 755.571 650.286 755.286 650.857C755.143 651.143 755 651.286 754.857 651.572C754.571 652.143 754.143 652.714 753.857 653.286C753.714 653.572 753.571 653.714 753.286 654C752.857 654.572 752.571 655 752.143 655.572C752 655.857 751.714 656 751.571 656.286C751.286 656.714 750.857 657 750.571 657.429C750.286 657.714 750 658 749.714 658.286C749.571 658.429 749.429 658.572 749.286 658.714H754.714V661H747.571H746.571C745.857 661.572 745 662 744.286 662.572C744.286 662.572 744.143 662.572 744.143 662.714C743.857 662.857 743.571 663 743.286 663.143C742.857 663.429 742.286 663.572 741.857 663.857C741.571 664 741.429 664.143 741.143 664.143C740.429 664.429 739.714 664.714 739 664.857C738.714 665 738.429 665 738.286 665.143C737.571 665.286 737 665.572 736.286 665.714C736.143 665.714 736 665.714 735.857 665.857C735 666 734.286 666.143 733.429 666.286C733.286 666.286 733 666.286 732.857 666.286C731.714 666 730.857 666 730 666C729.143 666 728.143 666 727.286 665.857C727.143 665.857 727.143 665.857 727 665.857C726.143 665.714 725.286 665.572 724.571 665.429C724.429 665.429 724.286 665.429 724.143 665.286C723.429 665.143 722.571 665 721.857 664.714C721.714 664.714 721.429 664.572 721.286 664.572C720.571 664.286 719.857 664.143 719.286 663.857C719 663.714 718.857 663.714 718.571 663.572C718 663.286 717.286 663 716.714 662.714C716.429 662.572 716.286 662.429 716 662.286C715.429 662 715 661.714 714.429 661.429C714.143 661.286 713.857 661 713.571 660.857C713.143 660.572 712.714 660.286 712.429 660C712.143 659.714 711.714 659.429 711.429 659.143C711.143 658.857 710.714 658.572 710.429 658.143C710 657.857 709.714 657.429 709.429 657.143C709.143 656.857 708.857 656.572 708.714 656.286V661.714H706.429V654.572V653.429C706 652.714 705.429 652 705 651.143C704.857 650.857 704.714 650.572 704.571 650.286C704.286 649.857 704.143 649.429 703.857 649C703.714 648.714 703.571 648.429 703.429 648.143C703.143 647.429 702.857 646.714 702.714 646.143C702.571 645.857 702.571 645.714 702.429 645.429C702.286 644.857 702.143 644.143 702 643.572C702 643.429 701.857 643.286 701.857 643C701.714 642.143 701.571 641.429 701.429 640.572C701.429 640.429 701.429 640.143 701.429 640C701.429 639.143 701.429 638.286 701.429 637.429C701.429 636.572 701.429 635.572 701.571 634.714C701.571 634.572 701.571 634.572 701.571 634.429C701.714 633.572 701.857 632.714 702 632C702 631.857 702 631.714 702.143 631.572C702.286 630.857 702.429 630 702.714 629.286C702.714 629.143 702.857 628.857 702.857 628.714C703.143 628 703.286 627.286 703.571 626.714C703.714 626.429 703.714 626.286 703.857 626C704.143 625.429 704.429 624.714 704.714 624.143C704.857 623.857 705 623.714 705.143 623.429C705.429 622.857 705.714 622.429 706 621.857C706.143 621.572 706.429 621.286 706.571 621C706.857 620.572 707.143 620.143 707.429 619.857C707.714 619.572 708 619.143 708.286 618.857C708.571 618.572 708.857 618.143 709.286 617.857C709.571 617.429 710 617.143 710.286 616.857C710.571 616.572 710.714 616.286 711 616H705.571V613.857H712.714H713.857C714.571 613.429 715.286 612.857 716.143 612.429C716.429 612.286 716.714 612.143 717 612C717.429 611.714 717.857 611.572 718.286 611.286C718.571 611.143 718.857 611 719.143 610.857C719.857 610.572 720.571 610.286 721.143 610.143C721.429 610 721.571 610 721.857 609.857C722.429 609.714 723.143 609.572 723.714 609.429C723.857 609.429 724 609.286 724.286 609.286C725.143 609.143 725.857 609 726.714 608.857C726.857 608.857 727.143 608.857 727.286 608.857C728.286 608.857 729.143 608.857 730 608.857ZM730 607.429C729.143 607.429 728.286 607.429 727.286 607.572C727 607.572 726.857 607.572 726.571 607.572C725.571 607.714 724.857 607.857 724 608C723.857 608 723.714 608 723.714 608.143H723.571C722.857 608.286 722.286 608.429 721.571 608.714H721.429C721.286 608.714 721 608.857 720.857 608.857C720.143 609.143 719.429 609.429 718.714 609.714C718.429 609.857 718.286 609.857 718 610L717.857 610.143C717.429 610.429 716.857 610.572 716.429 610.857L716.143 611C715.857 611.143 715.714 611.286 715.429 611.286C715.286 611.286 715.143 611.429 715.143 611.429L713.286 612.429H712.857H705.714H704.286V613.857V616V617.429H705.714H707.714C707.571 617.572 707.429 617.714 707.286 617.857C707 618.143 706.714 618.572 706.429 618.857C706.143 619.286 705.857 619.714 705.571 620.143C705.286 620.429 705.143 620.714 704.857 621C704.571 621.572 704.286 622.143 703.857 622.714L703.714 622.857C703.571 623 703.429 623.286 703.429 623.429C703.143 624 702.857 624.714 702.429 625.429C702.286 625.714 702.286 625.857 702.143 626.143C701.857 626.857 701.571 627.572 701.429 628.286C701.429 628.429 701.286 628.714 701.286 628.857C701 629.714 700.857 630.429 700.714 631.286C700.714 631.429 700.714 631.572 700.714 631.572V631.714C700.571 632.572 700.429 633.429 700.286 634.286V634.429V634.572C700 635.572 700 636.572 700 637.429C700 638.286 700 639.143 700.143 640.143C700.143 640.429 700.143 640.572 700.143 640.857C700.286 641.857 700.429 642.572 700.571 643.429C700.571 643.572 700.571 643.714 700.714 643.714V643.857C700.857 644.572 701 645.143 701.286 645.857V646C701.286 646.143 701.429 646.429 701.429 646.572C701.714 647.286 702 648 702.286 648.714C702.429 649 702.429 649.143 702.571 649.429L702.714 649.572C703 650 703.143 650.572 703.429 651L703.571 651.286C703.714 651.572 703.857 651.714 703.857 652C704.286 652.714 704.714 653.429 705.143 654V654.572V661.714V663.143H706.571H708.571H710V661.714V659.714C710.143 659.857 710.143 659.857 710.286 660C710.571 660.286 711 660.572 711.429 660.857C711.857 661.143 712.286 661.429 712.714 661.714C713 662 713.286 662.143 713.714 662.286C714.143 662.572 714.714 662.857 715.286 663.286L715.429 663.429C715.571 663.572 715.857 663.714 716 663.714C716.571 664 717.286 664.286 718 664.714C718.286 664.857 718.429 664.857 718.714 665C719.429 665.286 720.143 665.572 720.857 665.714C721 665.714 721.286 665.857 721.429 665.857C722.286 666.143 723 666.286 723.857 666.429C724 666.429 724.143 666.429 724.143 666.429H724.286C725.143 666.572 726 666.714 726.857 666.857H727H727.143C728.143 667 729.143 667 730 667C730.857 667 731.714 667 732.714 666.857C733 666.857 733.143 666.857 733.429 666.857C734.429 666.714 735.286 666.572 736 666.429C736.143 666.429 736.143 666.429 736.286 666.429H736.429C737.143 666.286 737.857 666.143 738.571 665.857C738.857 665.714 739.143 665.714 739.429 665.572C740.286 665.286 741 665 741.571 664.714C741.714 664.572 741.857 664.572 742.143 664.429L742.429 664.286C743 664 743.429 663.857 743.857 663.572C744.143 663.429 744.429 663.286 744.714 663.143C744.857 663.143 744.857 663 744.857 663L745.571 662.572C746 662.286 746.429 662 747 661.714H747.571H754.714H756.143V660.286V658V656.572H754.714H752.714C752.714 656.572 752.714 656.572 752.857 656.429L753 656.286C753.143 656.143 753.286 655.857 753.571 655.714C754 655.286 754.286 654.714 754.714 654.143C754.857 653.857 755.143 653.572 755.286 653.429C755.714 652.857 756 652.286 756.286 651.714C756.429 651.429 756.571 651.286 756.714 651C757 650.429 757.429 649.714 757.714 649C757.857 648.714 757.857 648.572 758 648.286C758.286 647.572 758.571 646.857 758.857 646.143C758.857 646 759 645.857 759 645.714V645.572C759.286 644.714 759.429 644 759.571 643.143C759.571 643 759.571 643 759.571 642.857V642.714C759.714 641.714 759.857 640.857 760 640.143V640C760 639.286 760 638.429 760 637.429C760 636.572 760 635.714 759.857 634.714C759.857 634.429 759.857 634.286 759.857 634C759.714 633 759.571 632.286 759.429 631.429C759.429 631.286 759.429 631.143 759.286 631.143V631C759.143 630.286 759 629.714 758.714 629V628.857C758.714 628.714 758.571 628.429 758.571 628.286C758.286 627.572 758 626.857 757.714 626.143C757.571 625.857 757.571 625.714 757.429 625.429L757.286 625.286C757 624.857 756.857 624.286 756.571 623.857L756.429 623.572C756.286 623.286 756.143 623.143 756.143 622.857C755.714 622.143 755.286 621.429 754.857 620.857V620.286V613.143V611.714H753.429H751.429H750V613.143V615.143C749.857 615 749.857 615 749.714 614.857C749.429 614.572 749 614.286 748.571 614C748.143 613.714 747.714 613.429 747.286 613.143C747 612.857 746.714 612.714 746.429 612.572C746 612.286 745.429 612 744.857 611.572L744.714 611.429C744.571 611.286 744.286 611.143 744.143 611.143C743.571 610.857 742.857 610.572 742.143 610.143C741.857 610 741.714 610 741.429 609.857C740.714 609.572 740 609.286 739.286 609.143C739.143 609.143 738.857 609 738.714 609C737.857 608.714 737.143 608.572 736.286 608.429C736.143 608.429 736 608.429 736 608.429H735.857C735 608.286 734.143 608.143 733.286 608H733.143H733C731.857 607.429 730.857 607.429 730 607.429Z" fill="white"/>
</g>
<g id="Group_25">
<path id="Vector_105" d="M716.143 615C720.143 612.428 724.857 611 730 611C737.714 611 744.571 614.286 749.429 619.571H744.714V621.857H750.571H753.571V620.286V613.143H751.429V618.571C746.143 612.571 738.429 608.857 730 608.857C725 608.857 720.286 610.143 716.143 612.428V615Z" fill="#2D5967"/>
<path id="Vector_106" d="M703.714 637.428C703.714 629.714 707 622.857 712.286 618V622.428H714.571V616.571V613.857H712.857H705.714V616H711.143C705.143 621.286 701.429 629 701.429 637.428C701.429 642.428 702.714 647.143 705 651.286H707.571C705.143 647.286 703.714 642.571 703.714 637.428Z" fill="#2D5967"/>
<path id="Vector_107" d="M758.571 637.428C758.571 632.428 757.286 627.714 755 623.571H752.429C755 627.571 756.429 632.286 756.429 637.428C756.429 645 753.286 651.857 748.143 656.571V651.857H745.857V656.857V660.714H747.571H754.714V658.428H749.286C755 653.286 758.571 645.714 758.571 637.428Z" fill="#2D5967"/>
<path id="Vector_108" d="M730 663.714C722.286 663.714 715.429 660.428 710.571 655.143H715V652.857H712H706.429V654.571V661.714H708.571V656.286C713.857 662.143 721.429 665.857 730 665.857C735.143 665.857 740 664.428 744.143 662.143V659.571C740 662.286 735.143 663.714 730 663.714Z" fill="#2D5967"/>
<path id="Vector_109" d="M730 628.143C725 628.143 720.857 632.285 720.857 637.428C720.857 642.571 725 646.714 730 646.714C735 646.714 739.143 642.571 739.143 637.428C739.143 632.285 735 628.143 730 628.143ZM730 644.428C726.143 644.428 723 641.285 723 637.428C723 633.571 726.143 630.428 730 630.428C733.857 630.428 737 633.571 737 637.428C737 641.285 733.857 644.428 730 644.428Z" fill="#2D5967"/>
<path id="Vector_110" d="M743.714 631.142L746.571 627.571L739.857 620.857L736.286 623.714C736 623.571 735.571 623.428 735.286 623.285L734.714 618.714H725.143L724.714 623.142C724.429 623.285 724 623.428 723.714 623.571L720.143 620.714L713.429 627.428L716.286 631C716.143 631.285 716 631.714 715.857 632L711.286 632.571V642.142L715.857 642.714C716 643 716.143 643.428 716.286 643.714L713.429 647.285L720.143 654L723.714 651.142C724 651.285 724.429 651.428 724.714 651.571L725.286 656.142H734.857L735.429 651.571C735.714 651.428 736.143 651.285 736.429 651.142L740 654L746.714 647.285L743.857 643.714C744 643.428 744.143 643 744.286 642.714L748.857 642.142V632.571L744.286 632C744 631.857 743.857 631.428 743.714 631.142ZM746.429 640.285L742.429 640.714L742.143 641.428C741.857 642.142 741.571 642.857 741.286 643.428L741 644L743.429 647.142L739.571 651.142L736.429 648.571L735.714 648.857C735 649.142 734.429 649.428 733.714 649.714L733 650L732.571 654H727L726.571 650L725.857 649.714C725.143 649.428 724.429 649.142 723.857 648.857L723.143 648.571L720 651.142L716.143 647.142L718.571 644V643.428C718.286 642.714 718 642.142 717.714 641.428L717.429 640.714L713.571 640.285V634.571L717.429 634.142L717.714 633.571C717.857 633.428 717.857 633.142 718 633C718.143 632.428 718.429 632 718.714 631.428L719 630.857L716.571 627.714L720.429 623.714L723.571 626.285L724.286 626C725 625.714 725.571 625.428 726.286 625.142L727 624.857L727.429 620.857H733L733.429 624.857L734.143 625.142C734.857 625.428 735.571 625.714 736.143 626L736.857 626.285L740 623.714L743.857 627.714L741.429 630.857L741.714 631.428C742 632.142 742.286 632.714 742.571 633.428L742.857 634.142L746.857 634.571V640.285H746.429Z" fill="#2D5967"/>
</g>
</g>
</g>
<g id="Icon Text Label_7">
<text id="IconLabel_18" fill="black" xml:space="preserve" style="white-space: pre" font-family="Oracle Sans" font-size="16" letter-spacing="0em"><tspan x="679.195" y="684.816">Retention and</tspan></text>
<text id="IconLabel_19" fill="black" xml:space="preserve" style="white-space: pre" font-family="Oracle Sans" font-size="16" letter-spacing="0em"><tspan x="701.297" y="700.816">lifecycle</tspan></text>
</g>
</g>
<path id="Vector 57" d="M298.707 350.707C299.098 350.317 299.098 349.683 298.707 349.293L292.343 342.929C291.953 342.538 291.319 342.538 290.929 342.929C290.538 343.319 290.538 343.953 290.929 344.343L296.586 350L290.929 355.657C290.538 356.047 290.538 356.681 290.929 357.071C291.319 357.462 291.953 357.462 292.343 357.071L298.707 350.707ZM139 351H298V349H139V351Z" fill="#312D2A"/>
<path id="Vector 69" d="M299 373L267 373L267 593L333 593" stroke="#312D2A" stroke-width="2"/>
<path id="Vector 63" d="M364 497L698 497" stroke="#312D2A" stroke-width="2"/>
<path id="Vector 91" d="M657 207L708 207" stroke="#312D2A" stroke-width="2"/>
<path id="Vector 61" d="M698 485L511.812 485L511.812 373L363 373" stroke="#312D2A" stroke-width="2"/>
<rect id="Rectangle 702" x="263" y="475" width="8" height="8" fill="#F5F4F2"/>
<path id="Vector 62" d="M698 472L526.149 472L526.149 219L364 219" stroke="#312D2A" stroke-width="2"/>
<path id="Vector 58" d="M179.084 360H180.084V359H179.084V360ZM179.084 479H178.084V480H179.084V479ZM298.707 479.707C299.098 479.317 299.098 478.683 298.707 478.293L292.343 471.929C291.953 471.538 291.319 471.538 290.929 471.929C290.538 472.319 290.538 472.953 290.929 473.343L296.586 479L290.929 484.657C290.538 485.047 290.538 485.681 290.929 486.071C291.319 486.462 291.953 486.462 292.343 486.071L298.707 479.707ZM139 361H179.084V359H139V361ZM178.084 360V479H180.084V360H178.084ZM179.084 480H298V478H179.084V480Z" fill="#312D2A"/>
<g id="Group 1240">
<g id="Connector Line Label">
<rect width="47" height="14" transform="translate(416 490)" fill="#F5F4F2"/>
<text id="Line Label" fill="#312D2A" xml:space="preserve" style="white-space: pre" font-family="Oracle Sans" font-size="14" letter-spacing="0em"><tspan x="420.161" y="502.089">OCIFS</tspan></text>
</g>
<g id="Connector Line Label_2">
<rect width="76" height="14" transform="translate(402 504)" fill="#F5F4F2"/>
<text id="Line Label_2" fill="#312D2A" xml:space="preserve" style="white-space: pre" font-family="Oracle Sans" font-size="14" letter-spacing="0em"><tspan x="406.237" y="516.089">(read only)</tspan></text>
</g>
</g>
<g id="Group 1241">
<g id="Connector Line Label_3">
<rect width="47" height="14" transform="translate(416 364)" fill="#F5F4F2"/>
<text id="Line Label_3" fill="#312D2A" xml:space="preserve" style="white-space: pre" font-family="Oracle Sans" font-size="14" letter-spacing="0em"><tspan x="420.161" y="376.089">OCIFS</tspan></text>
</g>
<g id="Connector Line Label_4">
<rect width="76" height="14" transform="translate(402 378)" fill="#F5F4F2"/>
<text id="Line Label_4" fill="#312D2A" xml:space="preserve" style="white-space: pre" font-family="Oracle Sans" font-size="14" letter-spacing="0em"><tspan x="406.237" y="390.089">(read only)</tspan></text>
</g>
</g>
<g id="Group 1242">
<g id="Connector Line Label_5">
<rect width="47" height="14" transform="translate(417 211)" fill="#F5F4F2"/>
<text id="Line Label_5" fill="#312D2A" xml:space="preserve" style="white-space: pre" font-family="Oracle Sans" font-size="14" letter-spacing="0em"><tspan x="421.045" y="223.089">rclone</tspan></text>
</g>
<g id="Connector Line Label_6">
<rect width="70" height="14" transform="translate(405 225)" fill="#F5F4F2"/>
<text id="Line Label_6" fill="#312D2A" xml:space="preserve" style="white-space: pre" font-family="Oracle Sans" font-size="14" letter-spacing="0em"><tspan x="409.252" y="237.089">(OCI OSS)</tspan></text>
</g>
</g>
<g id="Buckets">
<g id="Buckets_2">
<g id="Group_26">
<g id="Group_27">
<g id="Group_28">
<path id="Vector_111" d="M703.857 507.286C702.143 507.286 700.714 505.857 700.714 504.143V451.857C700.714 450.143 702.143 448.714 703.857 448.714H756.286C758 448.714 759.429 450.143 759.429 451.857V504.286C759.429 506 758 507.429 756.286 507.429L703.857 507.286Z" fill="white"/>
<path id="Vector_112" d="M756.143 449.429C757.429 449.429 758.571 450.571 758.571 451.857V455.143V462.143V504.286C758.571 505.571 757.429 506.714 756.143 506.714H703.857C702.571 506.571 701.429 505.429 701.429 504.143V462.143V455.143V451.857C701.429 450.571 702.571 449.429 703.857 449.429H756.143ZM756.143 448H703.857C701.714 448 700 449.714 700 451.857V455.143V462.143V504.286C700 506.286 701.714 508 703.857 508H756.286C758.429 508 760.143 506.286 760.143 504.143V462.143V455.143V451.857C760 449.714 758.286 448 756.143 448Z" fill="white"/>
</g>
<g id="Group_29">
<path id="Vector_113" d="M738.857 487.857L741.571 483.286L738.857 478.714H733.571L730.857 483.286L733.571 487.857H738.857ZM734.857 480.714H737.714L739.143 483.143L737.714 485.714H734.857L733.428 483.286L734.857 480.714Z" fill="#2D5967"/>
<path id="Vector_114" d="M725.429 493.714C725.429 496.286 727.429 498.286 730 498.286C731.286 498.286 732.429 497.857 733.286 496.857C734.143 496 734.571 494.857 734.571 493.714C734.571 491.143 732.571 489.143 730 489.143C727.571 489.143 725.429 491.143 725.429 493.714ZM730 491.286C731.286 491.286 732.429 492.429 732.429 493.714C732.429 494.286 732.143 495 731.714 495.429C731.286 495.857 730.571 496.143 730 496.143C728.714 496.143 727.571 495 727.571 493.714C727.571 492.286 728.714 491.286 730 491.286Z" fill="#2D5967"/>
<path id="Vector_115" d="M724 477.714L718.714 487.429H729.286L724 477.714ZM724 482.143L725.714 485.286H722.286L724 482.143Z" fill="#2D5967"/>
<path id="Vector_116" d="M711.571 472.715L716.286 502.143H743.857L748.286 472.715H743.714V468.572C743.714 466.858 743.143 465.429 742.143 464.572C740.571 463.143 738.429 463.143 738 463.286C737.857 463.286 737.571 463.286 737.143 463.286V462.572C737.143 461.858 736.571 461.286 735.857 461.286H724.429C723.714 461.286 723.143 461.858 723.143 462.572V463.286C722.429 463.286 721.857 463.286 721.286 463.286C719.571 463.286 718.286 463.858 717.429 464.858C716.143 466.286 716.286 468.286 716.286 468.715V472.715H711.571ZM742.143 500H718.143L714.143 474.858H746L742.143 500ZM718.429 468.429C718.429 468.429 718.286 467 719 466.143C719.429 465.572 720.286 465.286 721.286 465.286C721.857 465.286 722.429 465.286 723.143 465.286V466.143C723.143 466.858 723.714 467.429 724.429 467.429H735.857C736.571 467.429 737.143 466.858 737.143 466.143V465.286C737.714 465.286 738 465.286 738 465.286H738.143C738.143 465.286 739.714 465.143 740.857 466.143C741.429 466.715 741.714 467.429 741.714 468.572V472.715H718.429V468.429Z" fill="#2D5967"/>
<path id="Vector_117" d="M701.429 504.143C701.429 505.429 702.571 506.572 703.857 506.572H756.286C757.571 506.572 758.714 505.429 758.714 504.143V455.143H701.429V504.143ZM703.571 457.286H756.429V504.286C756.429 504.429 756.286 504.572 756.143 504.572H703.857C703.714 504.572 703.571 504.429 703.571 504.286V457.286Z" fill="#2D5967"/>
<path id="Vector_118" d="M756.143 449.429H703.857C702.571 449.429 701.429 450.572 701.429 451.857V453.572H758.571V451.857C758.571 450.572 757.429 449.429 756.143 449.429Z" fill="#2D5967"/>
</g>
</g>
</g>
</g>
<g id="Icon Text Label_8">
<text id="IconLabel_20" fill="black" xml:space="preserve" style="white-space: pre" font-family="Oracle Sans" font-size="16" letter-spacing="0em"><tspan x="691.367" y="525.816">OCI Object</tspan></text>
<text id="IconLabel_21" fill="black" xml:space="preserve" style="white-space: pre" font-family="Oracle Sans" font-size="16" letter-spacing="0em"><tspan x="702.188" y="541.816">Storage</tspan></text>
<text id="IconLabel_22" fill="black" xml:space="preserve" style="white-space: pre" font-family="Oracle Sans" font-size="16" letter-spacing="0em"><tspan x="705.859" y="557.816">bucket</tspan></text>
</g>
</g>
<g id="Policies">
<g id="Policies_2">
<g id="Group_30">
<g id="Group_31">
<g id="Group_32">
<g id="Group_33">
<path id="Vector_119" d="M30.7162 801.285V799.143L32.8642 798V791.428C32.8642 789.428 34.4394 787.857 36.4442 787.857H55.2031C57.2079 787.857 58.7831 789.428 58.7831 791.428V798L60.5015 799.143V801.285H30.7162Z" fill="white"/>
<path id="Vector_120" d="M55.0597 788.714C56.6348 788.714 57.9236 790 57.9236 791.571V798.571L59.642 799.571V800.571H31.432V799.571L33.58 798.571V791.571C33.58 790 34.8687 788.714 36.4439 788.714H55.0597ZM55.0597 787.286H36.3007C34.0095 787.286 32.0048 789.143 32.0048 791.571V797.714L30.716 798.429L30 798.571V799.429V800.571V802H31.432H59.642H61.074V800.571V799.571V798.714L60.358 798.286L59.2124 797.571V791.428C59.3556 789.143 57.494 787.286 55.0597 787.286Z" fill="white"/>
</g>
<g id="Group_34">
<path id="Vector_121" d="M79.6903 797L64.2249 781.714L56.0627 772.714L52.9123 775.857C53.4851 777 53.1987 778.429 52.3395 779.429L50.7643 781C50.1915 781.571 49.4755 781.857 48.6164 781.857C47.7572 781.857 47.0412 781.571 46.4684 781L33.7238 768.286C32.5782 767.143 32.5782 765.143 33.7238 763.857L35.2989 762.286C35.8717 761.714 36.5877 761.429 37.4469 761.429C37.8765 761.429 38.4493 761.571 38.7357 761.714L51.7667 748.714C51.1939 747.571 51.4803 746.143 52.3395 745.143L53.9147 743.571C54.4875 743 55.3467 742.714 56.0627 742.714C56.7786 742.714 57.6378 743 58.2106 743.571L70.9553 756.286C72.1008 757.429 72.1008 759.429 70.9553 760.714L69.3801 762.286C68.8073 762.857 67.9481 763.143 67.2321 763.143C66.8025 763.143 66.2297 763 65.8001 762.857L62.6498 766L71.8144 773.857L87.2798 789.286L89.2846 791.857L88.2822 794.571L84.8455 798L82.1247 799L79.6903 797Z" fill="white"/>
<path id="Vector_122" d="M56.0622 743.429C56.635 743.429 57.3509 743.714 57.7805 744.143L70.5252 756.857C71.3844 757.714 71.3844 759.286 70.5252 760.286L68.95 761.857C68.5204 762.286 67.8044 762.571 67.2316 762.571C66.6588 762.571 66.2292 762.429 65.7996 762L61.5037 766.143L71.3844 774.571L86.7066 789.857L88.4249 792L87.7089 794.286L84.4154 797.429L82.1242 798.143L80.1194 796.571L64.6541 781.143L56.0622 771.571L51.9094 775.714C52.6254 776.571 52.6254 778 51.7662 778.857L50.0478 780.429C49.6183 780.857 48.9023 781.143 48.3295 781.143C47.7567 781.143 47.0407 780.857 46.6111 780.429L33.8665 767.714C32.8641 766.857 32.8641 765.286 33.8665 764.286L35.4416 762.714C35.8712 762.286 36.5872 762 37.16 762C37.7328 762 38.1624 762.143 38.592 762.571L52.4822 748.714C51.7662 747.714 51.7662 746.429 52.6254 745.571L54.3438 744.143C54.9166 743.714 55.4894 743.429 56.0622 743.429ZM56.0622 742C55.0598 742 54.0574 742.429 53.3414 743.143L51.7662 744.714C50.7638 745.714 50.4774 747.286 50.907 748.571L38.592 760.857C38.1624 760.714 37.7328 760.714 37.4464 760.714C36.444 760.714 35.4416 761.143 34.7257 761.857L33.0073 763.429C31.5753 764.857 31.5753 767.286 33.0073 768.857L45.7519 781.571C46.4679 782.286 47.4703 782.714 48.4727 782.714C49.4751 782.714 50.4774 782.286 51.1934 781.571L52.7686 780C53.771 779 54.0574 777.429 53.771 776.143L56.0622 773.857L63.6517 782.286L79.1171 797.714L81.265 799.429L81.8378 799.857L82.5538 799.571L84.845 798.857L85.1314 798.714L85.4178 798.429L88.5681 795.286L88.8545 795L88.9977 794.714L89.7137 792.429L90.0001 791.714L89.5705 791.143L87.8521 789L72.3867 773.429L63.7949 766L66.086 763.714C66.5156 763.857 66.802 763.857 67.2316 763.857C68.234 763.857 69.2364 763.429 69.9524 762.714L71.5276 761.143C72.9595 759.714 72.9595 757.286 71.5276 755.714L58.7829 743C58.0669 742.429 57.0646 742 56.0622 742Z" fill="white"/>
</g>
</g>
<g id="Group_35">
<path id="Vector_123" d="M57.9241 798.429H58.2105H57.4945H33.5804L31.4324 799.572V800.572H59.6425V799.572L57.9241 798.429Z" fill="#2D5967"/>
<path id="Vector_124" d="M57.9246 791.429C57.9246 789.858 56.6358 788.572 55.0606 788.572H36.3016C34.7265 788.572 33.4377 789.858 33.4377 791.429V796.858H57.7814C57.9246 796.858 57.9246 791.429 57.9246 791.429ZM55.7766 794.715H35.5857V791.429C35.5857 791.001 35.8721 790.715 36.3016 790.715H55.0606C55.4902 790.715 55.7766 791.001 55.7766 791.429V794.715Z" fill="#2D5967"/>
<path id="Vector_125" d="M88.4255 792.001L87.7095 791.287L81.5519 797.43L82.2679 798.287L84.4159 797.43L87.7095 794.287L88.4255 792.001Z" fill="#2D5967"/>
<path id="Vector_126" d="M71.3847 774.572L61.5041 766.143L65.6568 762C66.0864 762.286 66.6592 762.572 67.0888 762.572C67.6616 762.572 68.3776 762.286 68.8072 761.858L70.3824 760.286C71.2415 759.429 71.2415 757.858 70.3824 756.858L57.6377 744.143C56.7785 743.286 55.2034 743.286 54.201 744.143L52.6258 745.715C51.7666 746.572 51.7666 747.858 52.4826 748.858L38.5924 762.715C37.8764 762 36.4444 762 35.5852 762.858L34.01 764.429C33.0076 765.429 33.0076 766.858 34.01 767.858L46.7547 780.572C47.1843 781 47.9002 781.286 48.473 781.286C49.0458 781.286 49.7618 781 50.1914 780.572L51.7666 779C52.6258 778.143 52.6258 776.858 51.9098 775.858L56.0625 771.715L64.6544 781.286L80.1198 796.572L86.8501 789.858L71.3847 774.572ZM54.3442 747.143L55.9193 745.572H56.0625H56.2057L68.9504 758.286C69.0936 758.429 69.0936 758.572 68.9504 758.715L67.3752 760.286C67.232 760.429 67.0888 760.429 66.9456 760.286L54.3442 747.572C54.201 747.429 54.201 747.286 54.3442 747.143ZM50.1914 777.429L48.6162 779C48.473 779.143 48.3298 779.143 48.1866 779L35.5852 766.286C35.442 766.143 35.442 766 35.5852 765.858L37.1604 764.429L37.3036 764.286C37.3036 764.286 37.4468 764.286 37.4468 764.429L50.1914 777.143C50.3346 777.143 50.3346 777.286 50.1914 777.429ZM50.3346 774.286L40.1675 764.143L53.9146 750.429L64.0816 760.572L59.7857 764.858L54.3442 770.286L50.3346 774.286ZM66.2296 779.715L57.4945 770.143L60.0721 767.572L69.9528 776L83.843 789.858L80.1198 793.572L66.2296 779.715Z" fill="#2D5967"/>
</g>
</g>
</g>
</g>
<g id="Icon Text Label_9">
<text id="IconLabel_23" fill="black" xml:space="preserve" style="white-space: pre" font-family="Oracle Sans" font-size="16" letter-spacing="0em"><tspan x="22.3047" y="819.816">IAM Policy</tspan></text>
<text id="IconLabel_24" fill="black" xml:space="preserve" style="white-space: pre" font-family="Oracle Sans" font-size="16" letter-spacing="0em"><tspan x="9.40625" y="835.816">(tenancy root)</tspan></text>
</g>
</g>
<g id="Icon Master_7">
<g id="Oracle-Cloud-Identifier-OCID">
<g id="Group_36">
<g id="Group_37">
<g id="Group_38">
<path id="Vector_127" d="M159.834 801.164L160.167 798.658C160.5 792.979 163.833 787.967 168.999 785.295C170.166 784.794 170.832 783.624 170.999 782.455C171.832 778.446 174.499 774.938 178.332 773.267C179.998 772.599 181.665 772.265 183.498 772.265C183.831 772.265 184.331 772.265 184.664 772.265C184.831 772.265 184.998 772.265 184.998 772.265C186.164 772.265 186.997 771.764 187.831 771.096C190.83 767.922 194.83 766.084 199.163 766.084C204.996 766.084 210.328 769.425 212.995 774.604C213.495 775.773 214.495 776.441 215.828 776.775C217.661 777.109 219.327 777.945 220.827 778.78C227.827 783.29 230.326 792.478 226.327 799.828L225.66 800.997L159.834 801.164Z" fill="white"/>
<path id="Vector_128" d="M199.163 766.919C204.829 766.919 209.828 770.093 212.328 775.105C212.994 776.441 214.161 777.443 215.661 777.777C217.327 778.112 218.994 778.78 220.494 779.782C227.16 783.958 229.493 792.812 225.66 799.66L225.326 800.329H195.33H170.332H160.833L161 798.825C161.333 793.313 164.499 788.635 169.332 785.963C170.665 785.294 171.499 784.125 171.832 782.622C172.499 778.78 175.165 775.606 178.665 773.935C180.164 773.267 181.831 772.933 183.331 772.933C183.664 772.933 183.997 772.933 184.497 772.933C184.664 772.933 184.831 772.933 184.997 772.933C186.331 772.933 187.497 772.432 188.497 771.43C191.163 768.59 195.163 766.919 199.163 766.919ZM199.163 765.249C194.663 765.249 190.33 767.087 187.164 770.427C186.664 771.096 185.831 771.43 184.997 771.43C184.831 771.43 184.831 771.43 184.664 771.43C184.331 771.43 183.831 771.43 183.331 771.43C181.498 771.43 179.665 771.764 177.831 772.599C173.998 774.269 170.999 777.944 170.166 782.288C169.999 783.29 169.332 784.125 168.499 784.459C163.166 787.299 159.667 792.644 159.167 798.658L159 800.162V801.999H160.833H170.166H195.163H225.16H226.16L226.66 801.164L226.993 800.496C231.159 792.812 228.659 783.123 221.16 778.446C219.494 777.443 217.827 776.608 215.827 776.274C214.828 776.107 213.994 775.439 213.661 774.604C210.995 768.757 205.495 765.249 199.163 765.249Z" fill="white"/>
</g>
<g id="Group_39">
<path id="Vector_129" d="M193.162 779.448H190.996V793.146H193.162V779.448Z" fill="#2D5967"/>
<path id="Vector_130" d="M197.329 779.448H194.496V793.146H197.329V779.448Z" fill="#2D5967"/>
<path id="Vector_131" d="M200.829 779.448H199.83V793.146H200.829V779.448Z" fill="#2D5967"/>
<path id="Vector_132" d="M206.327 779.448H202.828V793.146H206.327V779.448Z" fill="#2D5967"/>
<path id="Vector_133" d="M183.664 779.448H182.664V793.146H183.664V779.448Z" fill="#2D5967"/>
<path id="Vector_134" d="M220.493 779.615C218.993 778.78 217.327 778.112 215.66 777.611C214.16 777.277 212.994 776.275 212.327 774.938C209.827 769.927 204.828 766.753 199.162 766.753C195.162 766.753 191.163 768.423 188.33 771.43C187.33 772.432 185.996 773.101 184.497 772.934C182.497 772.767 180.497 773.101 178.664 773.936C175.164 775.439 172.498 778.613 171.831 782.455C171.498 783.959 170.665 785.128 169.332 785.796C164.499 788.302 161.332 793.146 160.999 798.659L160.832 800.329H170.165H188.496C187.33 799.494 186.496 798.659 185.663 797.489H169.831H163.999C164.665 793.647 167.165 790.306 170.665 788.469C172.831 787.3 174.164 785.462 174.664 783.123C175.164 780.284 177.164 777.778 179.83 776.609C181.164 775.94 182.83 775.773 184.33 775.94C186.663 776.107 188.83 775.272 190.496 773.602C192.662 771.263 195.829 769.76 199.162 769.76C203.661 769.76 207.661 772.265 209.661 776.275C210.661 778.446 212.66 779.95 214.993 780.451C216.327 780.785 217.66 781.286 218.826 781.954C223.993 785.128 225.826 791.81 223.493 797.322H195.162C191.496 797.322 188.33 794.315 188.33 790.473V779.448H185.497V790.64C185.497 795.986 189.829 800.329 195.162 800.329H225.159L225.492 799.661C229.325 792.645 227.159 783.792 220.493 779.615Z" fill="#2D5967"/>
</g>
</g>
</g>
</g>
<g id="Icon Text Label_10">
<text id="IconLabel_25" fill="black" xml:space="preserve" style="white-space: pre" font-family="Oracle Sans" font-size="16" letter-spacing="0em"><tspan x="138.672" y="819.816">Dynamic group</tspan></text>
<text id="IconLabel_26" fill="black" xml:space="preserve" style="white-space: pre" font-family="Oracle Sans" font-size="16" letter-spacing="0em"><tspan x="131.328" y="835.816">(Compartment or</tspan></text>
<text id="IconLabel_27" fill="black" xml:space="preserve" style="white-space: pre" font-family="Oracle Sans" font-size="16" letter-spacing="0em"><tspan x="140.562" y="851.816">instance OCID)</tspan></text>
</g>
</g>
<g id="Icon Master_8">
<g id="Oracle-Cloud-Identifier-OCID_2">
<g id="Group_40">
<g id="Group_41">
<g id="Group_42">
<path id="Vector_135" d="M293.834 801.164L294.167 798.658C294.5 792.979 297.833 787.967 302.999 785.295C304.166 784.794 304.832 783.624 304.999 782.455C305.832 778.446 308.499 774.938 312.332 773.267C313.998 772.599 315.665 772.265 317.498 772.265C317.831 772.265 318.331 772.265 318.664 772.265C318.831 772.265 318.998 772.265 318.998 772.265C320.164 772.265 320.997 771.764 321.831 771.096C324.83 767.922 328.83 766.084 333.163 766.084C338.996 766.084 344.328 769.425 346.995 774.604C347.495 775.773 348.495 776.441 349.828 776.775C351.661 777.109 353.327 777.945 354.827 778.78C361.827 783.29 364.326 792.478 360.327 799.828L359.66 800.997L293.834 801.164Z" fill="white"/>
<path id="Vector_136" d="M333.163 766.919C338.829 766.919 343.828 770.093 346.328 775.105C346.994 776.441 348.161 777.443 349.661 777.777C351.327 778.112 352.994 778.78 354.494 779.782C361.16 783.958 363.493 792.812 359.66 799.66L359.326 800.329H329.33H304.332H294.833L295 798.825C295.333 793.313 298.499 788.635 303.332 785.963C304.665 785.294 305.499 784.125 305.832 782.622C306.499 778.78 309.165 775.606 312.665 773.935C314.164 773.267 315.831 772.933 317.331 772.933C317.664 772.933 317.997 772.933 318.497 772.933C318.664 772.933 318.831 772.933 318.997 772.933C320.331 772.933 321.497 772.432 322.497 771.43C325.163 768.59 329.163 766.919 333.163 766.919ZM333.163 765.249C328.663 765.249 324.33 767.087 321.164 770.427C320.664 771.096 319.831 771.43 318.997 771.43C318.831 771.43 318.831 771.43 318.664 771.43C318.331 771.43 317.831 771.43 317.331 771.43C315.498 771.43 313.665 771.764 311.831 772.599C307.998 774.269 304.999 777.944 304.166 782.288C303.999 783.29 303.332 784.125 302.499 784.459C297.166 787.299 293.667 792.644 293.167 798.658L293 800.162V801.999H294.833H304.166H329.163H359.16H360.16L360.66 801.164L360.993 800.496C365.159 792.812 362.659 783.123 355.16 778.446C353.494 777.443 351.827 776.608 349.827 776.274C348.828 776.107 347.994 775.439 347.661 774.604C344.995 768.757 339.495 765.249 333.163 765.249Z" fill="white"/>
</g>
<g id="Group_43">
<path id="Vector_137" d="M327.162 779.448H324.996V793.146H327.162V779.448Z" fill="#2D5967"/>
<path id="Vector_138" d="M331.329 779.448H328.496V793.146H331.329V779.448Z" fill="#2D5967"/>
<path id="Vector_139" d="M334.829 779.448H333.83V793.146H334.829V779.448Z" fill="#2D5967"/>
<path id="Vector_140" d="M340.327 779.448H336.828V793.146H340.327V779.448Z" fill="#2D5967"/>
<path id="Vector_141" d="M317.664 779.448H316.664V793.146H317.664V779.448Z" fill="#2D5967"/>
<path id="Vector_142" d="M354.493 779.615C352.993 778.78 351.327 778.112 349.66 777.611C348.16 777.277 346.994 776.275 346.327 774.938C343.827 769.927 338.828 766.753 333.162 766.753C329.162 766.753 325.163 768.423 322.33 771.43C321.33 772.432 319.996 773.101 318.497 772.934C316.497 772.767 314.497 773.101 312.664 773.936C309.164 775.439 306.498 778.613 305.831 782.455C305.498 783.959 304.665 785.128 303.332 785.796C298.499 788.302 295.332 793.146 294.999 798.659L294.832 800.329H304.165H322.496C321.33 799.494 320.496 798.659 319.663 797.489H303.831H297.999C298.665 793.647 301.165 790.306 304.665 788.469C306.831 787.3 308.164 785.462 308.664 783.123C309.164 780.284 311.164 777.778 313.83 776.609C315.164 775.94 316.83 775.773 318.33 775.94C320.663 776.107 322.83 775.272 324.496 773.602C326.662 771.263 329.829 769.76 333.162 769.76C337.661 769.76 341.661 772.265 343.661 776.275C344.661 778.446 346.66 779.95 348.993 780.451C350.327 780.785 351.66 781.286 352.826 781.954C357.993 785.128 359.826 791.81 357.493 797.322H329.162C325.496 797.322 322.33 794.315 322.33 790.473V779.448H319.497V790.64C319.497 795.986 323.829 800.329 329.162 800.329H359.159L359.492 799.661C363.325 792.645 361.159 783.792 354.493 779.615Z" fill="#2D5967"/>
</g>
</g>
</g>
</g>
<g id="Icon Text Label_11">
<text id="IconLabel_28" fill="black" xml:space="preserve" style="white-space: pre" font-family="Oracle Sans" font-size="16" letter-spacing="0em"><tspan x="272.672" y="819.816">Dynamic group</tspan></text>
<text id="IconLabel_29" fill="black" xml:space="preserve" style="white-space: pre" font-family="Oracle Sans" font-size="16" letter-spacing="0em"><tspan x="265.328" y="835.816">(Compartment or</tspan></text>
<text id="IconLabel_30" fill="black" xml:space="preserve" style="white-space: pre" font-family="Oracle Sans" font-size="16" letter-spacing="0em"><tspan x="274.562" y="851.816">instance OCID)</tspan></text>
</g>
</g>
<rect id="Rectangle 700" x="206" y="346" width="8" height="8" fill="#F5F4F2"/>
<rect id="Rectangle 701" x="206" y="475" width="8" height="8" fill="#F5F4F2"/>
<path id="Vector 65" d="M299 203H210V764" stroke="#312D2A" stroke-width="2"/>
<g id="Numbered circle">
<circle id="Ellipse 269" cx="41" cy="857" r="11.5" fill="#70665E" stroke="white"/>
<text id="1" fill="white" xml:space="preserve" style="white-space: pre" font-family="Oracle Sans" font-size="16" font-weight="bold" letter-spacing="0em"><tspan x="36.0391" y="862.816">a</tspan></text>
</g>
<g id="Numbered circle_2">
<circle id="Ellipse 269_2" cx="79" cy="857" r="11.5" fill="#70665E" stroke="white"/>
<text id="1_2" fill="white" xml:space="preserve" style="white-space: pre" font-family="Oracle Sans" font-size="16" font-weight="bold" letter-spacing="0em"><tspan x="73.1953" y="862.816">b</tspan></text>
</g>
<g id="Numbered circle_3">
<circle id="Ellipse 269_3" cx="261" cy="874" r="11.5" fill="#70665E" stroke="white"/>
<text id="1_3" fill="white" xml:space="preserve" style="white-space: pre" font-family="Oracle Sans" font-size="16" font-weight="bold" letter-spacing="0em"><tspan x="256.047" y="879.816">c</tspan></text>
</g>
<path id="Vector 88" d="M333 560V763" stroke="#312D2A" stroke-width="2"/>
<path id="Vector 92" d="M730 560V605" stroke="#312D2A" stroke-width="2"/>
<g id="Connector Line Label_7">
<rect width="16" height="17" transform="translate(722 577)" fill="#F5F4F2"/>
<text id="Line Label_7" fill="#312D2A" xml:space="preserve" style="white-space: pre" font-family="Oracle Sans" font-size="14" letter-spacing="0em"><tspan x="726.336" y="589.089">/</tspan></text>
</g>
<g id="Numbered circle_4">
<circle id="Ellipse 269_4" cx="712" cy="584" r="11.5" fill="#70665E" stroke="white"/>
<text id="1_4" fill="white" xml:space="preserve" style="white-space: pre" font-family="Oracle Sans" font-size="16" font-weight="bold" letter-spacing="0em"><tspan x="706.078" y="589.816">d</tspan></text>
</g>
<g id="Numbered circle_5">
<circle id="Ellipse 269_5" cx="748" cy="584" r="11.5" fill="#70665E" stroke="white"/>
<text id="1_5" fill="white" xml:space="preserve" style="white-space: pre" font-family="Oracle Sans" font-size="16" font-weight="bold" letter-spacing="0em"><tspan x="742.469" y="589.816">e</tspan></text>
</g>
<rect id="Rectangle 703" x="722" y="574" width="15" height="3" fill="#F5F4F2"/>
<path id="Vector 60" d="M364 189L593 189" stroke="#312D2A" stroke-width="2"/>
<g id="Connector Line Label_8">
<rect width="110" height="14" transform="translate(386 182)" fill="#F5F4F2"/>
<text id="Line Label_8" fill="#312D2A" xml:space="preserve" style="white-space: pre" font-family="Oracle Sans" font-size="14" letter-spacing="0em"><tspan x="390.394" y="194.089">NFS (read write)</tspan></text>
</g>
</g>
</g>
<defs>
<clipPath id="clip0_13372_1843">
<rect width="811" height="902" fill="white"/>
</clipPath>
</defs>
</svg>
