<svg width="783" height="345" viewBox="0 0 783 345" fill="none" xmlns="http://www.w3.org/2000/svg">
<g id="oci-ops-insights-diagram" clip-path="url(#clip0_14015_324369)">
<rect width="783" height="345" fill="white"/>
<g id="Group 1261">
<g id="OCI Section Boxes">
<rect x="0.5" y="0.5" width="385" height="344" rx="3.5" fill="#F5F4F2"/>
<rect x="0.5" y="0.5" width="385" height="344" rx="3.5" stroke="#9E9892"/>
<text id="OCI Region" fill="#312D2A" xml:space="preserve" style="white-space: pre" font-family="Oracle Sans" font-size="16" font-weight="bold" letter-spacing="0em"><tspan x="8" y="21.816">Enterprise Manager (Select and Transform Data)</tspan></text>
</g>
<g id="OCI Section Boxes_2">
<rect x="402.5" y="0.5" width="380" height="344" rx="3.5" fill="#F5F4F2"/>
<rect x="402.5" y="0.5" width="380" height="344" rx="3.5" stroke="#9E9892"/>
<text id="OCI Region_2" fill="#312D2A" xml:space="preserve" style="white-space: pre" font-family="Oracle Sans" font-size="16" font-weight="bold" letter-spacing="0em"><tspan x="410" y="21.816">OCI Region (Store and Consume Data)</tspan></text>
</g>
<g id="Icon Master">
<g id="Services/GoldenGate">
<g id="Group 209">
<path id="Vector" d="M331.567 199.313V195.482H332.488V193.642H333.408V191.335H311.426V193.642H312.347V195.482H313.267V199.313H300.902V195.482H301.823V193.642H302.716V191.335H300.243V186.9H302.716V178.113C302.277 178.503 301.818 178.869 301.342 179.212L300.243 179.994V175.202L300.449 174.996C301.102 174.369 301.687 173.674 302.194 172.923H292.741L292.892 170.877C293.063 168.474 293.848 166.155 295.171 164.141C296.493 162.126 298.311 160.484 300.449 159.372C300.911 159.131 301.313 158.79 301.627 158.375C301.941 157.959 302.158 157.479 302.262 156.969C302.604 155.271 303.347 153.68 304.43 152.328C305.512 150.976 306.903 149.902 308.486 149.197C309.869 148.577 311.366 148.25 312.882 148.236C313.226 148.236 313.556 148.236 313.885 148.236H314.243C314.703 148.26 315.162 148.185 315.591 148.017C316.02 147.849 316.408 147.591 316.729 147.262C318.19 145.703 320.005 144.519 322.022 143.812C324.038 143.105 326.195 142.895 328.31 143.2C330.425 143.504 332.435 144.315 334.169 145.562C335.904 146.81 337.311 148.457 338.272 150.365C338.509 150.837 338.85 151.25 339.268 151.573C339.687 151.896 340.172 152.121 340.69 152.232C342.213 152.575 343.667 153.174 344.99 154.003C347.894 155.843 349.995 158.713 350.869 162.037C351.743 165.36 351.326 168.892 349.702 171.921L349.167 172.923H342.751C343.234 173.614 343.786 174.253 344.399 174.832L344.605 175.038V179.816L343.52 179.047C343.043 178.705 342.585 178.338 342.146 177.948V186.9H344.289V191.335H342.16V193.642H343.08V195.482H344.001V199.313H331.567Z" fill="white"/>
<path id="Vector_2" d="M326.347 143.705C328.688 143.699 330.983 144.348 332.974 145.578C334.965 146.808 336.572 148.571 337.613 150.666C337.894 151.232 338.3 151.727 338.8 152.114C339.299 152.502 339.88 152.772 340.498 152.904C341.958 153.223 343.352 153.789 344.62 154.579C347.378 156.325 349.373 159.05 350.203 162.205C351.034 165.361 350.639 168.714 349.098 171.591L348.755 172.236H341.46C342.137 173.359 342.965 174.384 343.919 175.284V178.442C343.025 177.818 342.201 177.1 341.46 176.3V187.641H343.603V190.703H341.46V194.383H342.38V196.223H343.301V198.625H332.31V196.168H333.216V194.328H334.137V190.648H310.781V194.328H311.701V196.168H312.608V198.625H301.617V196.168H302.538V194.328H303.403V190.648H300.944V187.641H303.403V176.451C302.657 177.266 301.834 178.007 300.944 178.662V175.49C301.909 174.559 302.737 173.496 303.403 172.332V172.236H293.484L293.58 170.863C293.736 168.57 294.479 166.356 295.737 164.433C296.995 162.509 298.727 160.941 300.765 159.879C301.32 159.612 301.808 159.224 302.193 158.744C302.578 158.264 302.851 157.704 302.991 157.105C303.427 154.788 304.66 152.696 306.476 151.192C308.293 149.687 310.579 148.865 312.938 148.867C313.259 148.867 313.575 148.867 313.886 148.867H314.298C314.845 148.87 315.386 148.759 315.887 148.542C316.389 148.324 316.839 148.005 317.211 147.604C318.392 146.372 319.81 145.391 321.38 144.721C322.95 144.051 324.64 143.705 326.347 143.705ZM326.347 142.332C324.426 142.333 322.525 142.73 320.764 143.498C319.003 144.265 317.42 145.387 316.112 146.794C315.867 147.055 315.571 147.262 315.242 147.404C314.914 147.546 314.56 147.619 314.202 147.618H313.982C313.625 147.597 313.267 147.597 312.91 147.618C310.254 147.618 307.679 148.535 305.621 150.213C303.564 151.892 302.149 154.23 301.617 156.831C301.534 157.25 301.357 157.646 301.1 157.988C300.844 158.33 300.513 158.61 300.133 158.808C297.896 159.968 295.993 161.681 294.605 163.784C293.218 165.887 292.392 168.31 292.206 170.822L292.11 172.195L292 173.609H300.82C300.563 173.923 300.288 174.221 299.996 174.501L299.57 174.9V181.339L301.741 179.774L302.029 179.568V186.268H299.57V192.076H302.029V193.01H301.109V194.85H300.243V199.998H313.982V194.795H313.062V192.955H312.141V192.021H332.749V192.955H331.843V194.795H330.881V199.998H344.688V194.795H343.768V192.955H342.834V192.021H344.977V186.268H342.834V179.403L343.108 179.609L345.279 181.161V174.735L344.853 174.337C344.62 174.103 344.386 173.87 344.153 173.609H349.566L349.964 172.895L350.307 172.25C351.348 170.307 351.925 168.151 351.993 165.948C352.062 163.746 351.62 161.558 350.702 159.555C349.784 157.552 348.415 155.787 346.702 154.4C344.989 153.013 342.979 152.04 340.828 151.558C340.407 151.476 340.012 151.297 339.673 151.034C339.334 150.772 339.062 150.434 338.877 150.048C337.721 147.718 335.934 145.759 333.719 144.395C331.503 143.031 328.949 142.316 326.347 142.332Z" fill="white"/>
<path id="Vector_3" d="M341.458 172.223V164.877H334.094V172.209C332.923 174.273 331.225 175.991 329.174 177.185C327.122 178.38 324.79 179.009 322.416 179.009C320.041 179.009 317.709 178.38 315.658 177.185C313.606 175.991 311.908 174.273 310.738 172.209V164.877H303.401V172.332C302.735 173.496 301.907 174.559 300.942 175.49V178.662C301.832 178.007 302.656 177.267 303.401 176.451V187.642H300.942V190.703H303.401V194.383H302.481V196.223H301.615V198.626H312.606V196.168H311.686V194.328H310.765V190.648H334.121V194.328H333.214V196.168H332.253V198.626H343.312V196.168H342.392V194.328H341.458V190.648H343.601V187.642H341.458V176.3C342.192 177.114 343.012 177.846 343.903 178.484V175.284C342.95 174.382 342.127 173.352 341.458 172.223ZM336.539 194.328V190.648H338.999V194.328H336.539ZM305.833 194.328V190.648H308.292V194.328H305.833ZM305.833 167.335H308.292V187.642H305.847L305.833 167.335ZM329.794 187.642H327.953V180.502C328.583 180.271 329.198 180 329.794 179.692V187.642ZM325.507 187.642H323.666V181.394C324.284 181.351 324.898 181.273 325.507 181.161V187.642ZM321.207 187.642H319.366V181.161C319.974 181.275 320.589 181.353 321.207 181.394V187.642ZM316.907 187.642H315.066V179.692C315.66 180.004 316.275 180.274 316.907 180.502V187.642ZM336.553 187.642V167.335H339.012V187.642H336.553ZM334.094 176.41V187.642H332.253V178.099C332.912 177.568 333.528 176.985 334.094 176.355V176.41ZM312.606 178.099V187.642H310.765V176.369C311.331 176.995 311.947 177.573 312.606 178.099Z" fill="#2D5967"/>
<path id="Vector_4" d="M301.617 169.793H296.203C296.521 168.173 297.2 166.646 298.189 165.324C299.179 164.002 300.453 162.92 301.919 162.159C302.798 161.701 303.562 161.051 304.154 160.257C304.747 159.463 305.152 158.546 305.34 157.573C305.709 155.709 306.755 154.048 308.277 152.91C309.8 151.771 311.69 151.236 313.583 151.408C314.57 151.511 315.568 151.384 316.498 151.036C317.428 150.688 318.264 150.129 318.941 149.404C319.89 148.388 321.036 147.577 322.309 147.02C323.582 146.462 324.956 146.171 326.346 146.163C328.231 146.157 330.079 146.679 331.681 147.669C333.284 148.659 334.577 150.078 335.414 151.765C335.858 152.658 336.497 153.44 337.284 154.053C338.072 154.667 338.986 155.095 339.962 155.308C341.137 155.567 342.258 156.032 343.273 156.681C345.408 158.018 346.988 160.082 347.72 162.492C348.453 164.901 348.288 167.495 347.257 169.793H343.314V172.251H348.809L349.153 171.605C350.693 168.721 351.081 165.36 350.24 162.201C349.399 159.041 347.39 156.318 344.619 154.58C343.351 153.79 341.957 153.224 340.497 152.905C339.879 152.773 339.298 152.503 338.799 152.115C338.299 151.728 337.894 151.233 337.612 150.667C336.7 148.855 335.363 147.291 333.716 146.106C332.069 144.922 330.159 144.153 328.151 143.864C326.142 143.576 324.093 143.776 322.179 144.449C320.264 145.122 318.541 146.247 317.155 147.729C316.735 148.179 316.216 148.525 315.639 148.74C315.062 148.954 314.442 149.031 313.83 148.964C311.336 148.741 308.847 149.45 306.845 150.954C304.843 152.458 303.47 154.65 302.99 157.106C302.869 157.717 302.611 158.293 302.235 158.79C301.859 159.287 301.375 159.693 300.82 159.976C298.781 161.038 297.049 162.606 295.791 164.53C294.533 166.453 293.79 168.667 293.634 170.96L293.538 172.333H301.617V169.793Z" fill="#2D5967"/>
</g>
</g>
<g id="Icon Text Label">
<text id="IconLabel" fill="black" xml:space="preserve" style="white-space: pre" font-family="Oracle Sans" font-size="16" letter-spacing="0em"><tspan x="275.211" y="217.816">Cloud Bridge</tspan></text>
</g>
</g>
<g id="Icon Master_2">
<g id="Messaging-Bridge">
<g id="Group 380">
<path id="Vector_5" d="M636.901 103.331V94.3448H638.874V88.6648H640.847V82.9181C640.847 73.3048 632.621 69.0115 624.474 69.0115C616.327 69.0115 608.101 73.3315 608.101 82.9181V88.6648H610.087V94.3448H612.061V103.331H595.167V94.3448H597.167V88.6648H599.114V57.9048H597.167V48.6648H651.834V57.9048H649.834V88.6648H651.834V94.3448H653.807V103.331H636.901Z" fill="white"/>
<path id="Vector_6" d="M651.14 49.3308V57.2374H649.167V89.3308H651.14V95.0108H653.167V102.664H637.567V95.0108H639.54V89.3308H641.513V82.9174C641.513 72.8508 632.953 68.3441 624.473 68.3441C615.993 68.3441 607.433 72.8508 607.433 82.9174V89.3308H609.42V95.0108H611.393V102.664H595.833V95.0108H597.807V89.3308H599.833V57.2374H597.807V49.3308H651.14ZM652.473 47.9974H596.473V58.5708H598.5V87.9974H596.473V93.6774H594.5V103.997H612.727V93.6774H610.753V87.9974H608.767V82.9174C608.767 73.7708 616.66 69.6774 624.473 69.6774C632.287 69.6774 640.18 73.7708 640.18 82.9174V87.9974H638.207V93.6774H636.233V103.997H654.5V93.6774H652.473V87.9974H650.5V58.5708H652.473V47.9974Z" fill="white"/>
<path id="Vector_7" d="M651.141 95.012V89.332H649.168V57.2387H651.141V49.332H597.808V57.2387H599.835V89.332H597.808V95.012H595.835V102.665H611.395V95.012H609.421V89.332H607.435V82.9187C607.435 72.852 615.995 68.3454 624.475 68.3454C632.955 68.3454 641.515 72.852 641.515 82.9187V89.332H639.541V95.012H637.568V102.665H653.168V95.012H651.141ZM651.141 100.692H639.541V96.9854H651.141V100.692ZM641.515 91.3587H649.168V95.0654H641.515V91.3587ZM643.488 57.2387H647.195V89.332H643.488V57.2387ZM609.421 100.692H597.808V96.9854H609.421V100.692ZM607.435 95.012H599.835V91.3054H607.435V95.012ZM605.461 89.332H601.755V57.2387H605.461V89.332ZM599.835 51.3054H649.168V55.3054H599.835V51.3054ZM614.648 57.2387H616.275V67.7587C615.715 67.9587 615.181 68.1854 614.648 68.4254V57.2387ZM618.248 57.2387H619.835V66.7854C619.282 66.8771 618.735 66.9972 618.195 67.1454L618.248 57.2387ZM621.861 57.2387H623.488V66.3854C622.941 66.3854 622.395 66.452 621.861 66.5054V57.2387ZM625.461 57.2387H627.088V66.572C626.555 66.572 626.008 66.4787 625.461 66.452V57.2387ZM629.075 57.2387H630.701V67.1454C630.168 66.9987 629.621 66.8787 629.075 66.7854V57.2387ZM632.675 57.2387H634.301V68.4254C633.781 68.1854 633.235 67.9587 632.675 67.7587V57.2387ZM607.435 57.2387H609.075V72.6254C608.453 73.348 607.904 74.1295 607.435 74.9587V57.2387ZM611.048 70.6654V57.2387H612.675V69.5187C612.133 69.8615 611.612 70.2355 611.115 70.6387C611.09 70.6413 611.067 70.6505 611.048 70.6654ZM637.848 70.6654C637.345 70.2621 636.82 69.8881 636.275 69.5454V57.2387H637.915V70.6654H637.848ZM639.835 72.6254V57.2387H641.461V74.9587C640.991 74.1329 640.447 73.3518 639.835 72.6254Z" fill="#2D5967"/>
</g>
</g>
<g id="Icon Text Label_2">
<text id="IconLabel_2" fill="black" xml:space="preserve" style="white-space: pre" font-family="Oracle Sans" font-size="16" letter-spacing="0em"><tspan x="587.023" y="121.816">EM Bridge</tspan></text>
</g>
</g>
<g id="Icon Master_3">
<g id="Messaging-Bridge_2">
<g id="Group 380_2">
<path id="Vector_8" d="M636.901 295.331V286.345H638.874V280.665H640.847V274.918C640.847 265.305 632.621 261.011 624.474 261.011C616.327 261.011 608.101 265.331 608.101 274.918V280.665H610.087V286.345H612.061V295.331H595.167V286.345H597.167V280.665H599.114V249.905H597.167V240.665H651.834V249.905H649.834V280.665H651.834V286.345H653.807V295.331H636.901Z" fill="white"/>
<path id="Vector_9" d="M651.14 241.331V249.237H649.167V281.331H651.14V287.011H653.167V294.664H637.567V287.011H639.54V281.331H641.513V274.917C641.513 264.851 632.953 260.344 624.473 260.344C615.993 260.344 607.433 264.851 607.433 274.917V281.331H609.42V287.011H611.393V294.664H595.833V287.011H597.807V281.331H599.833V249.237H597.807V241.331H651.14ZM652.473 239.997H596.473V250.571H598.5V279.997H596.473V285.677H594.5V295.997H612.727V285.677H610.753V279.997H608.767V274.917C608.767 265.771 616.66 261.677 624.473 261.677C632.287 261.677 640.18 265.771 640.18 274.917V279.997H638.207V285.677H636.233V295.997H654.5V285.677H652.473V279.997H650.5V250.571H652.473V239.997Z" fill="white"/>
<path id="Vector_10" d="M651.141 287.012V281.332H649.168V249.239H651.141V241.332H597.808V249.239H599.835V281.332H597.808V287.012H595.835V294.665H611.395V287.012H609.421V281.332H607.435V274.919C607.435 264.852 615.995 260.345 624.475 260.345C632.955 260.345 641.515 264.852 641.515 274.919V281.332H639.541V287.012H637.568V294.665H653.168V287.012H651.141ZM651.141 292.692H639.541V288.985H651.141V292.692ZM641.515 283.359H649.168V287.065H641.515V283.359ZM643.488 249.239H647.195V281.332H643.488V249.239ZM609.421 292.692H597.808V288.985H609.421V292.692ZM607.435 287.012H599.835V283.305H607.435V287.012ZM605.461 281.332H601.755V249.239H605.461V281.332ZM599.835 243.305H649.168V247.305H599.835V243.305ZM614.648 249.239H616.275V259.759C615.715 259.959 615.181 260.185 614.648 260.425V249.239ZM618.248 249.239H619.835V258.785C619.282 258.877 618.735 258.997 618.195 259.145L618.248 249.239ZM621.861 249.239H623.488V258.385C622.941 258.385 622.395 258.452 621.861 258.505V249.239ZM625.461 249.239H627.088V258.572C626.555 258.572 626.008 258.479 625.461 258.452V249.239ZM629.075 249.239H630.701V259.145C630.168 258.999 629.621 258.879 629.075 258.785V249.239ZM632.675 249.239H634.301V260.425C633.781 260.185 633.235 259.959 632.675 259.759V249.239ZM607.435 249.239H609.075V264.625C608.453 265.348 607.904 266.129 607.435 266.959V249.239ZM611.048 262.665V249.239H612.675V261.519C612.133 261.861 611.612 262.235 611.115 262.639C611.09 262.641 611.067 262.651 611.048 262.665ZM637.848 262.665C637.345 262.262 636.82 261.888 636.275 261.545V249.239H637.915V262.665H637.848ZM639.835 264.625V249.239H641.461V266.959C640.991 266.133 640.447 265.352 639.835 264.625Z" fill="#2D5967"/>
</g>
</g>
<g id="Icon Text Label_3">
<text id="IconLabel_3" fill="black" xml:space="preserve" style="white-space: pre" font-family="Oracle Sans" font-size="16" letter-spacing="0em"><tspan x="587.023" y="313.816">EM Bridge</tspan></text>
</g>
</g>
<g id="Database System">
<g id="Services/Database">
<g id="Group 15">
<path id="Vector_11" d="M56.1891 103.286C53.5176 103.286 30.0462 103.072 30.0462 95.4288V52.8002C30.0462 44.943 53.5176 44.7145 56.1891 44.7145C58.8605 44.7145 82.3462 44.943 82.3462 52.8002V95.4288C82.3462 103.072 58.8748 103.286 56.1891 103.286Z" fill="white"/>
<path id="Vector_12" d="M56.1905 45.4286C65.0476 45.4286 81.6333 46.9714 81.6333 52.8V95.4286C81.6333 101.143 64.9905 102.571 56.1905 102.571C47.3905 102.571 30.7619 101.143 30.7619 95.4286V52.8C30.7619 46.9714 47.4047 45.4286 56.1905 45.4286ZM56.1905 44C51.7047 44 29.3333 44.4286 29.3333 52.8V95.4286C29.3333 103.614 51.7047 104 56.1905 104C60.6762 104 83.0619 103.586 83.0619 95.4286V52.8C83.0619 44.4286 60.7619 44 56.1905 44Z" fill="white"/>
<path id="Vector_13" d="M81.6338 52.8005C81.6338 46.9719 65.048 45.4291 56.1909 45.4291C47.3338 45.4291 30.7623 46.9719 30.7623 52.8005V95.4291C30.7623 101.143 47.4052 102.572 56.1909 102.572C64.9766 102.572 81.6338 101.143 81.6338 95.4291V52.8005ZM78.7766 81.3719C78.7766 81.6291 77.7052 82.9148 72.8052 84.1005C67.3455 85.2634 61.7725 85.8097 56.1909 85.7291C50.5891 85.8049 44.9967 85.249 39.5195 84.0719C34.6195 82.8862 33.6195 81.6005 33.6195 81.3434V70.8576C38.7338 73.6434 49.6909 74.4862 56.2623 74.4862C62.8338 74.4862 73.8052 73.6434 78.9195 70.8576L78.7766 81.3719ZM78.7766 67.3434C78.7766 67.6005 77.7052 68.9005 72.8052 70.0719C67.3455 71.2348 61.7725 71.7811 56.1909 71.7005C50.5891 71.7764 44.9967 71.2205 39.5195 70.0434C34.6195 68.8719 33.6195 67.5719 33.6195 67.3148V56.4291C38.7338 59.2862 49.6909 60.1576 56.2623 60.1576C62.8338 60.1576 73.8052 59.3005 78.9195 56.4291L78.7766 67.3434ZM39.5338 49.9291C45.0041 48.7401 50.5937 48.1888 56.1909 48.2862C61.7956 48.2115 67.3901 48.7868 72.8623 50.0005C77.9052 51.1434 78.848 52.5719 78.848 52.8005C78.848 53.0291 77.8338 54.4291 72.8623 55.6576C67.39 56.8707 61.7956 57.446 56.1909 57.3719C50.5915 57.45 45.0019 56.8795 39.5338 55.6719C34.5623 54.4291 33.6195 53.0862 33.6195 52.8005C33.6195 52.5148 34.6338 51.1576 39.6052 49.9434L39.5338 49.9291ZM72.8766 98.1291C67.3947 99.3069 61.7974 99.8628 56.1909 99.7862C50.5891 99.8621 44.9967 99.3062 39.5195 98.1291C34.6195 96.9576 33.6195 95.6576 33.6195 95.4291V84.8862C38.7338 87.6719 49.6909 88.5148 56.2623 88.5148C62.8338 88.5148 73.8052 87.6719 78.9195 84.8862V95.4291C78.9195 95.6862 77.848 96.9862 72.948 98.1576" fill="#2D5967"/>
</g>
</g>
<g id="Icon Text Label_4">
<text id="IconLabel_4" fill="black" xml:space="preserve" style="white-space: pre" font-family="Oracle Sans" font-size="16" letter-spacing="0em"><tspan x="17.2891" y="121.816">Repository</tspan></text>
<text id="IconLabel_5" fill="black" xml:space="preserve" style="white-space: pre" font-family="Oracle Sans" font-size="16" letter-spacing="0em"><tspan x="39.0938" y="137.816">Data</tspan></text>
</g>
</g>
<g id="Database System_2">
<g id="Deployment-Pipeline-Stages">
<g id="Group 314">
<path id="Vector_14" d="M225.772 199.267C224.198 199.257 222.681 198.684 221.498 197.653C220.314 196.621 219.544 195.2 219.328 193.65C219.112 192.099 219.464 190.523 220.321 189.21C221.177 187.897 222.48 186.935 223.992 186.5V176.889H210.483L204.74 182.601V186.543C206.262 186.969 207.578 187.928 208.444 189.244C209.31 190.56 209.668 192.144 209.452 193.702C209.236 195.26 208.46 196.688 207.268 197.721C206.076 198.754 204.549 199.324 202.967 199.324C201.386 199.324 199.859 198.754 198.667 197.721C197.475 196.688 196.699 195.26 196.483 193.702C196.267 192.144 196.625 190.56 197.491 189.244C198.357 187.928 199.672 186.969 201.195 186.543V182.558L195.452 176.846H182.03V186.457C183.552 186.883 184.867 187.843 185.733 189.159C186.599 190.474 186.958 192.058 186.741 193.616C186.525 195.174 185.75 196.602 184.558 197.635C183.366 198.669 181.838 199.238 180.257 199.238C178.675 199.238 177.148 198.669 175.956 197.635C174.764 196.602 173.988 195.174 173.772 193.616C173.556 192.058 173.914 190.474 174.78 189.159C175.646 187.843 176.962 186.883 178.484 186.457V173.318H195.538L201.281 167.606V162.679H178.039C174.335 162.664 173.933 154.995 173.933 151.696C173.933 148.398 174.335 140.714 177.996 140.714H228.097C231.701 140.714 232.088 148.398 232.088 151.696C232.088 154.995 231.701 162.679 228.097 162.679H204.783V167.691L210.526 173.404H227.552V186.543C229.063 186.978 230.366 187.94 231.223 189.253C232.079 190.566 232.431 192.142 232.215 193.693C231.999 195.243 231.229 196.664 230.046 197.696C228.862 198.727 227.345 199.3 225.772 199.31V199.267Z" fill="white"/>
<path id="Vector_15" d="M228.098 141.428C231.213 141.428 231.371 149.997 231.371 151.696C231.371 153.396 231.213 161.965 228.098 161.965H204.066V167.991L210.182 174.075H226.834V187.128C228.261 187.395 229.537 188.182 230.411 189.336C231.286 190.489 231.696 191.926 231.561 193.364C231.426 194.803 230.756 196.139 229.683 197.112C228.61 198.085 227.21 198.625 225.758 198.625C224.305 198.625 222.905 198.085 221.832 197.112C220.759 196.139 220.089 194.803 219.954 193.364C219.82 191.926 220.229 190.489 221.104 189.336C221.978 188.182 223.254 187.395 224.681 187.128V176.174H210.182L204.066 182.258V187.128C205.496 187.39 206.776 188.174 207.655 189.327C208.533 190.479 208.947 191.917 208.815 193.357C208.683 194.798 208.014 196.137 206.94 197.113C205.866 198.088 204.465 198.629 203.011 198.629C201.557 198.629 200.155 198.088 199.081 197.113C198.007 196.137 197.339 194.798 197.206 193.357C197.074 191.917 197.488 190.479 198.367 189.327C199.246 188.174 200.526 187.39 201.956 187.128V182.258L195.84 176.174H181.312V187.128C182.742 187.39 184.022 188.174 184.901 189.327C185.779 190.479 186.193 191.917 186.061 193.357C185.929 194.798 185.26 196.137 184.186 197.113C183.113 198.088 181.711 198.629 180.257 198.629C178.803 198.629 177.401 198.088 176.327 197.113C175.253 196.137 174.585 194.798 174.453 193.357C174.32 191.917 174.734 190.479 175.613 189.327C176.492 188.174 177.772 187.39 179.202 187.128V174.132H195.84L201.956 168.048V161.965H177.996C174.823 161.965 174.651 153.396 174.651 151.696C174.651 149.997 174.823 141.428 177.996 141.428H228.098ZM228.098 140H177.996C173.847 140 173.215 147.326 173.215 151.696C173.215 156.066 173.847 163.393 177.996 163.393H200.52V167.391L195.252 172.647H177.766V185.985C176.162 186.568 174.816 187.693 173.964 189.165C173.111 190.636 172.807 192.359 173.104 194.032C173.401 195.704 174.281 197.219 175.589 198.31C176.897 199.402 178.55 200 180.257 200C181.964 200 183.617 199.402 184.925 198.31C186.233 197.219 187.113 195.704 187.41 194.032C187.707 192.359 187.403 190.636 186.55 189.165C185.698 187.693 184.351 186.568 182.748 185.985V177.602H195.252L200.52 182.844V185.985C198.916 186.568 197.57 187.693 196.717 189.165C195.865 190.636 195.56 192.359 195.858 194.032C196.155 195.704 197.035 197.219 198.343 198.31C199.651 199.402 201.304 200 203.011 200C204.718 200 206.371 199.402 207.679 198.31C208.987 197.219 209.867 195.704 210.164 194.032C210.461 192.359 210.157 190.636 209.304 189.165C208.452 187.693 207.105 186.568 205.502 185.985V182.844L210.784 177.588H223.245V185.985C221.647 186.569 220.306 187.694 219.457 189.163C218.609 190.631 218.307 192.35 218.605 194.018C218.903 195.686 219.782 197.196 221.087 198.284C222.392 199.372 224.04 199.968 225.743 199.968C227.446 199.968 229.094 199.372 230.399 198.284C231.705 197.196 232.583 195.686 232.881 194.018C233.179 192.35 232.877 190.631 232.029 189.163C231.181 187.694 229.84 186.569 228.241 185.985V172.647H210.784L205.502 167.391V163.393H228.098C232.189 163.393 232.806 156.066 232.806 151.696C232.806 147.326 232.189 140 228.098 140Z" fill="white"/>
<path id="Vector_16" d="M226.834 187.128V174.133H210.181L204.065 167.992V161.965H228.097C231.212 161.965 231.37 153.396 231.37 151.697C231.37 149.997 231.212 141.429 228.097 141.429H177.995C174.823 141.429 174.65 149.997 174.65 151.697C174.65 153.396 174.823 161.965 177.995 161.965H201.955V167.992L195.84 174.075H179.201V187.128C177.771 187.39 176.491 188.175 175.612 189.327C174.734 190.48 174.32 191.917 174.452 193.358C174.584 194.798 175.253 196.138 176.327 197.113C177.401 198.088 178.802 198.629 180.256 198.629C181.71 198.629 183.112 198.088 184.186 197.113C185.26 196.138 185.928 194.798 186.061 193.358C186.193 191.917 185.779 190.48 184.9 189.327C184.022 188.175 182.742 187.39 181.311 187.128V176.175H195.84L201.955 182.259V187.128C200.525 187.39 199.245 188.175 198.366 189.327C197.488 190.48 197.074 191.917 197.206 193.358C197.338 194.798 198.007 196.138 199.081 197.113C200.155 198.088 201.556 198.629 203.01 198.629C204.464 198.629 205.866 198.088 206.94 197.113C208.014 196.138 208.682 194.798 208.815 193.358C208.947 191.917 208.533 190.48 207.654 189.327C206.775 188.175 205.495 187.39 204.065 187.128V182.259L210.181 176.175H224.68V187.128C223.255 187.392 221.98 188.176 221.106 189.326C220.231 190.476 219.82 191.91 219.953 193.346C220.086 194.782 220.753 196.116 221.825 197.088C222.896 198.06 224.293 198.599 225.743 198.599C227.192 198.599 228.59 198.06 229.661 197.088C230.732 196.116 231.399 194.782 231.532 193.346C231.665 191.91 231.254 190.476 230.38 189.326C229.505 188.176 228.23 187.392 226.805 187.128H226.834ZM181.34 151.697C181.379 148.93 180.986 146.175 180.177 143.528H227.925C228.413 144.113 229.26 146.955 229.26 151.697C229.26 156.438 228.413 159.28 227.925 159.851H180.177C180.987 157.209 181.379 154.458 181.34 151.697ZM177.995 143.756C178.968 146.286 179.389 148.993 179.23 151.697C179.387 154.401 178.967 157.107 177.995 159.637C177.039 157.103 176.624 154.399 176.775 151.697C176.622 148.994 177.038 146.29 177.995 143.756ZM180.263 196.454C179.528 196.457 178.807 196.242 178.194 195.838C177.581 195.433 177.102 194.856 176.818 194.181C176.535 193.505 176.459 192.761 176.601 192.042C176.743 191.324 177.096 190.664 177.615 190.145C178.134 189.626 178.797 189.272 179.518 189.129C180.24 188.985 180.988 189.057 181.669 189.337C182.349 189.616 182.93 190.09 183.34 190.699C183.749 191.307 183.967 192.023 183.967 192.755C183.967 193.734 183.578 194.672 182.883 195.366C182.189 196.059 181.247 196.45 180.263 196.454ZM208.257 175.132L203.017 180.331L197.778 175.132L203.017 169.991L208.257 175.132ZM203.017 196.454C202.281 196.457 201.561 196.242 200.948 195.838C200.334 195.433 199.856 194.856 199.572 194.181C199.288 193.505 199.213 192.761 199.355 192.042C199.496 191.324 199.849 190.664 200.369 190.145C200.888 189.626 201.551 189.272 202.272 189.129C202.994 188.985 203.742 189.057 204.423 189.337C205.103 189.616 205.684 190.09 206.094 190.699C206.503 191.307 206.721 192.023 206.721 192.755C206.723 193.24 206.629 193.721 206.443 194.17C206.258 194.618 205.986 195.026 205.641 195.37C205.297 195.714 204.888 195.986 204.438 196.172C203.988 196.358 203.505 196.454 203.017 196.454ZM225.771 196.454C225.035 196.457 224.315 196.242 223.702 195.838C223.088 195.433 222.61 194.856 222.326 194.181C222.042 193.505 221.967 192.761 222.109 192.042C222.25 191.324 222.603 190.664 223.123 190.145C223.642 189.626 224.305 189.272 225.026 189.129C225.748 188.985 226.496 189.057 227.176 189.337C227.857 189.616 228.438 190.09 228.847 190.699C229.257 191.307 229.475 192.023 229.475 192.755C229.475 193.734 229.085 194.672 228.391 195.366C227.697 196.059 226.755 196.45 225.771 196.454Z" fill="#2D5967"/>
</g>
</g>
<g id="Icon Text Label_5">
<text id="IconLabel_6" fill="black" xml:space="preserve" style="white-space: pre" font-family="Oracle Sans" font-size="16" letter-spacing="0em"><tspan x="155.32" y="217.816">Data Pipeline</tspan></text>
</g>
</g>
<g id="Database System_3">
<g id="Services/Database_2">
<g id="Group 15_2">
<path id="Vector_17" d="M56.1891 295.286C53.5176 295.286 30.0462 295.072 30.0462 287.429V244.8C30.0462 236.943 53.5176 236.714 56.1891 236.714C58.8605 236.714 82.3462 236.943 82.3462 244.8V287.429C82.3462 295.072 58.8748 295.286 56.1891 295.286Z" fill="white"/>
<path id="Vector_18" d="M56.1905 237.429C65.0476 237.429 81.6333 238.971 81.6333 244.8V287.429C81.6333 293.143 64.9905 294.571 56.1905 294.571C47.3905 294.571 30.7619 293.143 30.7619 287.429V244.8C30.7619 238.971 47.4047 237.429 56.1905 237.429ZM56.1905 236C51.7047 236 29.3333 236.429 29.3333 244.8V287.429C29.3333 295.614 51.7047 296 56.1905 296C60.6762 296 83.0619 295.586 83.0619 287.429V244.8C83.0619 236.429 60.7619 236 56.1905 236Z" fill="white"/>
<path id="Vector_19" d="M81.6338 244.801C81.6338 238.972 65.048 237.429 56.1909 237.429C47.3338 237.429 30.7623 238.972 30.7623 244.801V287.429C30.7623 293.143 47.4052 294.572 56.1909 294.572C64.9766 294.572 81.6338 293.143 81.6338 287.429V244.801ZM78.7766 273.372C78.7766 273.629 77.7052 274.915 72.8052 276.101C67.3455 277.263 61.7725 277.81 56.1909 277.729C50.5891 277.805 44.9967 277.249 39.5195 276.072C34.6195 274.886 33.6195 273.601 33.6195 273.343V262.858C38.7338 265.643 49.6909 266.486 56.2623 266.486C62.8338 266.486 73.8052 265.643 78.9195 262.858L78.7766 273.372ZM78.7766 259.343C78.7766 259.601 77.7052 260.901 72.8052 262.072C67.3455 263.235 61.7725 263.781 56.1909 263.701C50.5891 263.776 44.9967 263.22 39.5195 262.043C34.6195 260.872 33.6195 259.572 33.6195 259.315V248.429C38.7338 251.286 49.6909 252.158 56.2623 252.158C62.8338 252.158 73.8052 251.301 78.9195 248.429L78.7766 259.343ZM39.5338 241.929C45.0041 240.74 50.5937 240.189 56.1909 240.286C61.7956 240.212 67.3901 240.787 72.8623 242.001C77.9052 243.143 78.848 244.572 78.848 244.801C78.848 245.029 77.8338 246.429 72.8623 247.658C67.39 248.871 61.7956 249.446 56.1909 249.372C50.5915 249.45 45.0019 248.879 39.5338 247.672C34.5623 246.429 33.6195 245.086 33.6195 244.801C33.6195 244.515 34.6338 243.158 39.6052 241.943L39.5338 241.929ZM72.8766 290.129C67.3947 291.307 61.7974 291.863 56.1909 291.786C50.5891 291.862 44.9967 291.306 39.5195 290.129C34.6195 288.958 33.6195 287.658 33.6195 287.429V276.886C38.7338 279.672 49.6909 280.515 56.2623 280.515C62.8338 280.515 73.8052 279.672 78.9195 276.886V287.429C78.9195 287.686 77.848 288.986 72.948 290.158" fill="#2D5967"/>
</g>
</g>
<g id="Icon Text Label_6">
<text id="IconLabel_7" fill="black" xml:space="preserve" style="white-space: pre" font-family="Oracle Sans" font-size="16" letter-spacing="0em"><tspan x="33.2344" y="313.816">Target</tspan></text>
<text id="IconLabel_8" fill="black" xml:space="preserve" style="white-space: pre" font-family="Oracle Sans" font-size="16" letter-spacing="0em"><tspan x="39.0938" y="329.816">Data</tspan></text>
</g>
</g>
<g id="Buckets">
<g id="Buckets_2">
<g id="Group">
<g id="Group_2">
<g id="Group_3">
<path id="Vector_20" d="M446.357 199.286C444.643 199.286 443.214 197.857 443.214 196.143V143.857C443.214 142.143 444.643 140.714 446.357 140.714H498.786C500.5 140.714 501.929 142.143 501.929 143.857V196.286C501.929 198 500.5 199.428 498.786 199.428L446.357 199.286Z" fill="white"/>
<path id="Vector_21" d="M498.643 141.429C499.929 141.429 501.071 142.571 501.071 143.857V147.143V154.143V196.286C501.071 197.571 499.929 198.714 498.643 198.714H446.357C445.071 198.571 443.929 197.429 443.929 196.143V154.143V147.143V143.857C443.929 142.571 445.071 141.429 446.357 141.429H498.643ZM498.643 140H446.357C444.214 140 442.5 141.714 442.5 143.857V147.143V154.143V196.286C442.5 198.286 444.214 200 446.357 200H498.786C500.929 200 502.643 198.286 502.643 196.143V154.143V147.143V143.857C502.5 141.714 500.786 140 498.643 140Z" fill="white"/>
</g>
<g id="Group_4">
<path id="Vector_22" d="M481.357 179.857L484.071 175.286L481.357 170.714H476.071L473.357 175.286L476.071 179.857H481.357ZM477.357 172.714H480.214L481.643 175.143L480.214 177.714H477.357L475.928 175.286L477.357 172.714Z" fill="#2D5967"/>
<path id="Vector_23" d="M467.929 185.714C467.929 188.286 469.929 190.286 472.5 190.286C473.786 190.286 474.929 189.857 475.786 188.857C476.643 188 477.071 186.857 477.071 185.714C477.071 183.143 475.071 181.143 472.5 181.143C470.071 181.143 467.929 183.143 467.929 185.714ZM472.5 183.286C473.786 183.286 474.929 184.429 474.929 185.714C474.929 186.286 474.643 187 474.214 187.429C473.786 187.857 473.071 188.143 472.5 188.143C471.214 188.143 470.071 187 470.071 185.714C470.071 184.286 471.214 183.286 472.5 183.286Z" fill="#2D5967"/>
<path id="Vector_24" d="M466.5 169.714L461.214 179.429H471.786L466.5 169.714ZM466.5 174.143L468.214 177.286H464.786L466.5 174.143Z" fill="#2D5967"/>
<path id="Vector_25" d="M454.071 164.714L458.786 194.143H486.357L490.786 164.714H486.214V160.571C486.214 158.857 485.643 157.429 484.643 156.571C483.071 155.143 480.929 155.143 480.5 155.286C480.357 155.286 480.071 155.286 479.643 155.286V154.571C479.643 153.857 479.071 153.286 478.357 153.286H466.929C466.214 153.286 465.643 153.857 465.643 154.571V155.286C464.929 155.286 464.357 155.286 463.786 155.286C462.071 155.286 460.786 155.857 459.929 156.857C458.643 158.286 458.786 160.286 458.786 160.714V164.714H454.071ZM484.643 192H460.643L456.643 166.857H488.5L484.643 192ZM460.929 160.429C460.929 160.429 460.786 159 461.5 158.143C461.929 157.571 462.786 157.286 463.786 157.286C464.357 157.286 464.929 157.286 465.643 157.286V158.143C465.643 158.857 466.214 159.429 466.929 159.429H478.357C479.071 159.429 479.643 158.857 479.643 158.143V157.286C480.214 157.286 480.5 157.286 480.5 157.286H480.643C480.643 157.286 482.214 157.143 483.357 158.143C483.929 158.714 484.214 159.429 484.214 160.571V164.714H460.929V160.429Z" fill="#2D5967"/>
<path id="Vector_26" d="M443.929 196.143C443.929 197.429 445.071 198.572 446.357 198.572H498.786C500.071 198.572 501.214 197.429 501.214 196.143V147.143H443.929V196.143ZM446.071 149.286H498.929V196.286C498.929 196.429 498.786 196.572 498.643 196.572H446.357C446.214 196.572 446.071 196.429 446.071 196.286V149.286Z" fill="#2D5967"/>
<path id="Vector_27" d="M498.643 141.429H446.357C445.071 141.429 443.929 142.571 443.929 143.857V145.571H501.071V143.857C501.071 142.571 499.929 141.429 498.643 141.429Z" fill="#2D5967"/>
</g>
</g>
</g>
</g>
<g id="Icon Text Label_7">
<text id="IconLabel_9" fill="black" xml:space="preserve" style="white-space: pre" font-family="Oracle Sans" font-size="16" letter-spacing="0em"><tspan x="419.125" y="217.816">Object Storage</tspan></text>
<text id="IconLabel_10" fill="black" xml:space="preserve" style="white-space: pre" font-family="Oracle Sans" font-size="16" letter-spacing="0em"><tspan x="448.359" y="233.816">bucket</tspan></text>
</g>
</g>
<g id="Logging Analytics">
<g id="Services/Logging-Analytics">
<g id="Group 27">
<path id="Vector_28" d="M712.523 103.345V80.8562H696.69L696.831 78.8501C696.999 76.4467 697.783 74.1268 699.107 72.113C700.432 70.0992 702.253 68.4591 704.395 67.3501C704.866 67.1074 705.276 66.762 705.595 66.3395C705.914 65.9171 706.134 65.4283 706.238 64.9096C706.727 62.4548 708.052 60.2448 709.989 58.6559C711.926 57.067 714.355 56.1974 716.862 56.1951C717.194 56.176 717.528 56.176 717.86 56.1951H718.218C718.678 56.2003 719.135 56.1098 719.558 55.9294C719.981 55.749 720.362 55.4827 720.676 55.1474C722.14 53.5793 723.963 52.3892 725.989 51.6791C728.015 50.969 730.183 50.7602 732.307 51.0705C734.432 51.3809 736.449 52.2011 738.186 53.4609C739.923 54.7207 741.329 56.3824 742.281 58.3035C742.524 58.7851 742.872 59.2062 743.299 59.5357C743.727 59.8652 744.223 60.0948 744.751 60.2074C746.274 60.5495 747.728 61.1456 749.052 61.9707C751.953 63.8093 754.05 66.6746 754.924 69.9922C755.797 73.3099 755.382 76.8345 753.762 79.8595L753.237 80.8434H742.998C742.998 84.9195 742.998 86.7084 742.857 87.4879H742.972C742.93 88.5396 742.709 89.5765 742.319 90.5545L744.879 92.3817C746.018 93.2301 747.095 94.1566 748.105 95.1545L750.37 97.4162L745.647 102.131L744.367 103.319L712.523 103.345Z" fill="white"/>
<path id="Vector_29" d="M730.404 51.6066C732.755 51.5983 735.061 52.2475 737.06 53.4806C739.06 54.7137 740.674 56.4814 741.719 58.5833C742.003 59.1545 742.413 59.6538 742.918 60.0435C743.424 60.4331 744.012 60.7028 744.637 60.8322C746.09 61.1524 747.476 61.7232 748.733 62.5188C751.502 64.2662 753.505 66.9962 754.339 70.1591C755.173 73.3219 754.775 76.6826 753.226 79.5643L752.88 80.216H742.346V87.4865C742.303 88.6341 742.025 89.7606 741.527 90.796L744.496 92.9299C745.61 93.7564 746.662 94.6617 747.645 95.6388L749.45 97.4404L745.188 101.708L744.1 102.705H713.164V80.216H697.382L697.472 78.9382C697.637 76.6458 698.387 74.4337 699.651 72.5124C700.914 70.5912 702.649 69.0247 704.691 67.9621C705.247 67.6748 705.732 67.266 706.109 66.7661C706.485 66.2661 706.744 65.6879 706.867 65.0744C707.187 63.4685 707.889 61.9629 708.913 60.6843C709.938 59.4057 711.255 58.3915 712.754 57.7272C714.046 57.1651 715.44 56.8737 716.85 56.8711C717.165 56.8516 717.482 56.8516 717.797 56.8711H718.207C718.759 56.8714 719.305 56.7582 719.812 56.5383C720.318 56.3185 720.774 55.9968 721.151 55.5933C722.337 54.3315 723.771 53.3266 725.363 52.6409C726.955 51.9551 728.671 51.6031 730.404 51.6066ZM730.404 50.3288C728.483 50.3254 726.581 50.7186 724.819 51.4838C723.057 52.249 721.473 53.3697 720.165 54.7755C719.907 55.0478 719.595 55.2634 719.249 55.4086C718.903 55.5538 718.531 55.6254 718.156 55.6188H717.874C717.516 55.6188 717.157 55.6188 716.799 55.6188C714.147 55.6319 711.58 56.5581 709.533 58.2412C707.486 59.9243 706.083 62.2611 705.561 64.8571C705.478 65.2821 705.298 65.6826 705.036 66.0279C704.775 66.3733 704.438 66.6547 704.051 66.8505C701.815 68.0112 699.916 69.7249 698.533 71.8278C697.15 73.9307 696.331 76.3524 696.154 78.8616L696.051 80.1393L696 81.4938H711.884V103.995H744.637L744.996 103.65L746.084 102.654L750.384 98.3604L751.293 97.4532L750.384 96.5588L748.477 94.7315C747.451 93.7161 746.356 92.7726 745.2 91.9076L743.037 90.3488C743.338 89.4396 743.515 88.494 743.562 87.5377C743.562 86.9754 743.562 85.9277 743.562 83.8449V81.4938H753.597L753.955 80.8166L754.301 80.1777C756.006 77.0116 756.448 73.3181 755.536 69.8403C754.624 66.3625 752.426 63.3585 749.386 61.4327C748 60.565 746.476 59.9385 744.88 59.5799C744.446 59.4848 744.038 59.293 743.688 59.0186C743.338 58.7443 743.054 58.3945 742.858 57.9955C741.706 55.6843 739.929 53.7412 737.728 52.3863C735.527 51.0313 732.99 50.3186 730.404 50.3288Z" fill="white"/>
<path id="Vector_30" d="M748.707 62.5202C747.458 61.7273 746.081 61.1566 744.637 60.8335C744.016 60.7006 743.434 60.4293 742.933 60.0399C742.432 59.6504 742.026 59.1529 741.744 58.5846C740.832 56.7599 739.49 55.1834 737.833 53.9901C736.176 52.7969 734.254 52.0226 732.232 51.7337C730.209 51.4447 728.147 51.6497 726.222 52.3311C724.296 53.0124 722.565 54.1498 721.176 55.6458C720.753 56.102 720.231 56.4547 719.649 56.6764C719.067 56.898 718.442 56.9826 717.823 56.9235C715.312 56.6835 712.801 57.3855 710.781 58.8926C708.76 60.3997 707.374 62.6039 706.892 65.0757C706.77 65.6893 706.511 66.2675 706.134 66.7674C705.757 67.2674 705.273 67.6762 704.716 67.9635C702.675 69.0261 700.94 70.5925 699.676 72.5138C698.413 74.435 697.663 76.6472 697.497 78.9396L697.408 80.2174H711.359V77.7513H700.108C700.424 76.1248 701.104 74.5906 702.097 73.2631C703.09 71.9355 704.37 70.849 705.843 70.0846C706.725 69.628 707.493 68.9783 708.09 68.1841C708.686 67.3898 709.095 66.4714 709.286 65.4974C709.649 63.6245 710.699 61.9542 712.231 60.813C713.762 59.6717 715.665 59.1414 717.567 59.3257C718.56 59.4257 719.563 59.2955 720.497 58.9453C721.432 58.5952 722.273 58.0345 722.955 57.3069C724.074 56.1034 725.469 55.1887 727.02 54.6412C728.571 54.0938 730.232 53.9298 731.86 54.1635C733.488 54.3971 735.035 55.0214 736.369 55.9828C737.703 56.9442 738.783 58.214 739.517 59.6835C739.963 60.5799 740.606 61.3647 741.397 61.9796C742.188 62.5945 743.107 63.0238 744.087 63.2357C745.264 63.4917 746.387 63.9546 747.402 64.603C749.54 65.9488 751.119 68.0205 751.848 70.4366C752.577 72.8526 752.407 75.4503 751.37 77.7513H744.202V80.2174H752.854L753.2 79.5657C754.749 76.684 755.147 73.3233 754.313 70.1604C753.48 66.9976 751.477 64.2676 748.707 62.5202Z" fill="#2D5967"/>
<path id="Vector_31" d="M742.345 72.4485L735.677 65.7913H713.163V102.719H741.513L741.027 102.221C740.394 101.598 739.796 100.941 739.235 100.253H715.633V68.219H733.322V75.0551H739.888V78.6201C740.344 78.9414 740.772 79.3004 741.168 79.6934C741.618 80.1321 742.021 80.616 742.371 81.1373L742.345 72.4485ZM735.779 69.3563L739.056 72.6274H735.779V69.3563Z" fill="#2D5967"/>
<path id="Vector_32" d="M719.039 83.0153V85.4814H723.493C723.619 84.6365 723.842 83.809 724.158 83.0153H719.039Z" fill="#2D5967"/>
<path id="Vector_33" d="M726.718 94.7062H719.039V97.1723H731.172C729.505 96.7343 727.973 95.8865 726.718 94.7062Z" fill="#2D5967"/>
<path id="Vector_34" d="M719.039 91.6263H724.414C724.031 90.8483 723.751 90.0235 723.582 89.173H719.039V91.6263Z" fill="#2D5967"/>
<path id="Vector_35" d="M726.193 79.9355C726.257 79.8716 726.321 79.795 726.398 79.7311C727.352 78.768 728.487 78.0035 729.739 77.4822H719.039V79.9355H726.193Z" fill="#2D5967"/>
<path id="Vector_36" d="M741.502 90.7959C742.369 88.9805 742.566 86.9175 742.056 84.9716C741.547 83.0258 740.364 81.3225 738.718 80.1631C737.072 79.0036 735.068 78.4628 733.061 78.6361C731.054 78.8094 729.173 79.6858 727.75 81.1103C726.328 82.5347 725.456 84.4154 725.289 86.4197C725.122 88.424 725.67 90.4228 726.836 92.0625C728.003 93.7022 729.713 94.8772 731.664 95.3797C733.614 95.8821 735.68 95.6797 737.496 94.8081L739.633 97.7853C740.457 98.8887 741.359 99.9307 742.334 100.903L744.152 102.718L749.425 97.4403L747.62 95.6387C746.635 94.6585 745.579 93.753 744.459 92.9298L741.502 90.7959ZM729.445 91.4092C728.444 90.41 727.822 89.0953 727.683 87.6891C727.544 86.2828 727.898 84.872 728.684 83.6971C729.471 82.5222 730.641 81.6558 731.995 81.2456C733.35 80.8354 734.805 80.9067 736.113 81.4475C737.42 81.9882 738.5 82.9649 739.167 84.2111C739.834 85.4573 740.048 86.8959 739.772 88.2818C739.496 89.6678 738.747 90.9152 737.653 91.8117C736.559 92.7081 735.187 93.1981 733.771 93.1981C732.968 93.2002 732.171 93.0432 731.429 92.7361C730.686 92.4291 730.012 91.9781 729.445 91.4092ZM745.918 97.3764H745.995L744.203 99.1781L744.126 99.1014C743.227 98.2361 742.388 97.3096 741.617 96.3287L739.518 93.4409C739.621 93.3387 739.723 93.2492 739.813 93.147L740.107 92.8403L742.974 94.9103C744.014 95.6599 744.998 96.4841 745.918 97.3764Z" fill="#2D5967"/>
<path id="Vector_37" d="M737.533 88.2018V86.7196L731.299 84.2791V86.1574L735.152 87.4479L731.299 88.7768V90.6679L737.533 88.2018Z" fill="#2D5967"/>
</g>
</g>
<g id="Icon Text Label_8">
<text id="IconLabel_11" fill="black" xml:space="preserve" style="white-space: pre" font-family="Oracle Sans" font-size="16" letter-spacing="0em"><tspan x="696.156" y="121.816">Logging</tspan></text>
<text id="IconLabel_12" fill="black" xml:space="preserve" style="white-space: pre" font-family="Oracle Sans" font-size="16" letter-spacing="0em"><tspan x="693.031" y="137.816">Analytics</tspan></text>
</g>
</g>
<g id="Operations Insights">
<g id="Operations-Insights-Cloud-Service">
<g id="Group 221">
<path id="Vector_38" d="M737.091 292.108C735.405 290.4 733.842 288.576 732.412 286.648L728.578 281.311C726.383 282.407 723.949 282.936 721.497 282.849C719.046 282.762 716.655 282.062 714.543 280.814C712.431 279.565 710.665 277.808 709.407 275.701C708.148 273.594 707.436 271.206 707.337 268.754H696.736L696.887 266.706C697.064 264.307 697.851 261.993 699.174 259.984C700.497 257.975 702.311 256.337 704.444 255.227C704.909 254.987 705.313 254.645 705.627 254.226C705.942 253.808 706.157 253.324 706.259 252.811C706.743 250.35 708.065 248.134 710.001 246.54C711.937 244.947 714.366 244.076 716.873 244.075C717.214 244.075 717.555 244.075 717.882 244.075H718.237C718.69 244.081 719.139 243.992 719.555 243.813C719.971 243.634 720.344 243.37 720.652 243.038C721.903 241.71 723.412 240.653 725.088 239.932C726.763 239.211 728.569 238.842 730.393 238.847C732.859 238.839 735.279 239.522 737.377 240.82C739.475 242.119 741.167 243.979 742.262 246.191C742.498 246.668 742.839 247.086 743.26 247.412C743.68 247.738 744.169 247.965 744.69 248.075C746.212 248.421 747.665 249.02 748.987 249.849C751.888 251.694 753.985 254.566 754.86 257.892C755.735 261.217 755.324 264.75 753.708 267.785L753.162 268.781H736.709C736.625 270.844 736.109 272.867 735.195 274.719L740.502 278.54C742.43 279.974 744.254 281.543 745.959 283.236L748.96 286.225L740.093 295.097L737.091 292.108Z" fill="white"/>
<path id="Vector_39" d="M730.393 239.53C732.733 239.525 735.028 240.175 737.017 241.408C739.006 242.641 740.611 244.407 741.648 246.505C741.93 247.072 742.337 247.568 742.838 247.956C743.339 248.344 743.921 248.613 744.54 248.744C745.992 249.06 747.377 249.628 748.633 250.423C751.393 252.17 753.389 254.898 754.222 258.058C755.055 261.218 754.661 264.576 753.121 267.457L752.767 268.099H736.041V268.195C736.045 270.555 735.453 272.879 734.322 274.951L740.093 279.114C741.993 280.526 743.789 282.072 745.468 283.741L747.978 286.253L740.079 294.129L737.569 291.617C735.908 289.944 734.367 288.156 732.958 286.267L728.742 280.479C726.609 281.643 724.21 282.232 721.781 282.188C719.352 282.145 716.975 281.471 714.885 280.233C712.794 278.994 711.061 277.234 709.855 275.123C708.649 273.013 708.012 270.625 708.005 268.195V268.126H697.473L697.569 266.761C697.736 264.478 698.484 262.276 699.743 260.365C701.001 258.453 702.728 256.896 704.759 255.842C705.311 255.55 705.791 255.14 706.164 254.639C706.537 254.138 706.793 253.561 706.914 252.948C707.23 251.342 707.928 249.837 708.949 248.558C709.971 247.28 711.285 246.267 712.78 245.604C714.073 245.046 715.465 244.758 716.873 244.758C717.182 244.758 717.496 244.758 717.814 244.758H718.224C718.764 244.782 719.304 244.694 719.809 244.499C720.314 244.304 720.773 244.007 721.157 243.625C722.334 242.346 723.761 241.322 725.349 240.617C726.938 239.913 728.655 239.543 730.393 239.53ZM730.393 238.165C728.472 238.167 726.573 238.564 724.813 239.331C723.052 240.099 721.469 241.222 720.161 242.629C719.915 242.892 719.617 243.101 719.286 243.242C718.955 243.383 718.597 243.453 718.237 243.448H717.951C717.596 243.448 717.241 243.448 716.887 243.448C714.22 243.43 711.631 244.341 709.563 246.025C707.494 247.708 706.075 250.06 705.55 252.675C705.483 253.08 705.325 253.464 705.089 253.8C704.853 254.136 704.544 254.414 704.186 254.613C701.935 255.774 700.019 257.492 698.622 259.605C697.225 261.717 696.392 264.153 696.205 266.679L696.109 268.044L696 269.464H706.696C707.021 273.309 708.777 276.892 711.617 279.504C714.457 282.115 718.173 283.564 722.03 283.564C724.208 283.561 726.361 283.095 728.347 282.199L731.853 287.072C733.313 288.994 734.899 290.818 736.6 292.532L739.111 295.043L740.079 295.999L741.048 295.043L748.947 287.14L749.902 286.171L748.947 285.202L746.477 282.759C744.771 281.046 742.948 279.454 741.02 277.995L736.164 274.501C736.881 272.908 737.319 271.205 737.46 269.464H753.572L753.954 268.754L754.308 268.113C756.013 264.928 756.45 261.215 755.531 257.721C754.613 254.227 752.407 251.21 749.356 249.276C747.966 248.394 746.434 247.761 744.827 247.406C744.409 247.315 744.017 247.132 743.68 246.87C743.342 246.608 743.068 246.273 742.876 245.891C741.724 243.565 739.944 241.609 737.738 240.244C735.532 238.878 732.987 238.158 730.393 238.165Z" fill="white"/>
<path id="Vector_40" d="M748.62 250.449C747.364 249.654 745.979 249.086 744.527 248.77C743.907 248.639 743.325 248.37 742.825 247.982C742.324 247.594 741.917 247.099 741.635 246.532C740.602 244.43 739.001 242.66 737.014 241.422C735.028 240.185 732.734 239.529 730.393 239.529C728.655 239.542 726.939 239.912 725.35 240.616C723.761 241.321 722.334 242.345 721.157 243.624C720.73 244.063 720.208 244.398 719.63 244.602C719.053 244.805 718.436 244.872 717.828 244.798C715.316 244.553 712.802 245.258 710.782 246.773C708.763 248.289 707.383 250.506 706.914 252.988C706.79 253.599 706.53 254.175 706.155 254.673C705.78 255.171 705.298 255.58 704.745 255.868C702.715 256.922 700.988 258.48 699.729 260.391C698.471 262.303 697.722 264.505 697.555 266.788L697.46 268.152H706.055C706.057 267.33 706.121 266.509 706.246 265.696H700.188C700.508 264.074 701.188 262.546 702.177 261.223C703.167 259.9 704.44 258.816 705.905 258.052C706.786 257.596 707.553 256.946 708.148 256.152C708.743 255.358 709.152 254.44 709.343 253.466C709.709 251.609 710.746 249.954 712.257 248.815C713.767 247.677 715.644 247.136 717.528 247.296C718.518 247.4 719.519 247.273 720.451 246.925C721.384 246.577 722.223 246.017 722.903 245.289C724.011 244.072 725.399 243.143 726.947 242.583C728.495 242.023 730.156 241.849 731.786 242.077C733.416 242.304 734.966 242.925 736.302 243.887C737.637 244.849 738.719 246.122 739.452 247.596C739.898 248.491 740.539 249.274 741.327 249.888C742.116 250.502 743.032 250.932 744.008 251.145C745.181 251.401 746.299 251.863 747.31 252.51C749.44 253.854 751.014 255.923 751.74 258.336C752.467 260.748 752.299 263.343 751.266 265.641H737.801C737.926 266.454 737.99 267.275 737.992 268.098H752.753L753.108 267.456C754.64 264.577 755.029 261.226 754.196 258.072C753.364 254.919 751.372 252.196 748.62 250.449Z" fill="#2D5967"/>
<path id="Vector_41" d="M730.202 276.385C729.13 277.464 727.854 278.321 726.449 278.906C725.045 279.49 723.538 279.791 722.017 279.791C720.495 279.791 718.989 279.49 717.584 278.906C716.179 278.321 714.904 277.464 713.831 276.385C712.281 274.846 711.206 272.894 710.734 270.761L713.217 273.245L719.097 267.362L725.523 273.791L726.396 272.918L740.707 258.64V261.083H743.163V254.259H736.41V256.716H739.138L725.591 270.27L724.295 268.905L719.165 263.786L713.285 269.683L710.557 266.953C710.796 264.789 711.64 262.737 712.992 261.031C714.344 259.326 716.149 258.036 718.2 257.311C720.252 256.585 722.466 256.453 724.589 256.93C726.712 257.406 728.657 258.472 730.202 260.005C730.709 260.51 731.166 261.063 731.566 261.657L733.34 259.896C732.93 259.319 732.473 258.776 731.976 258.272C730.14 256.423 727.825 255.122 725.291 254.515C722.758 253.908 720.106 254.019 717.632 254.836C715.158 255.653 712.96 257.143 711.285 259.139C709.61 261.136 708.524 263.559 708.148 266.139C707.773 268.718 708.123 271.351 709.159 273.742C710.195 276.134 711.877 278.189 714.015 279.678C716.153 281.167 718.664 282.031 721.265 282.172C723.866 282.314 726.455 281.728 728.742 280.479L732.917 286.281C734.326 288.17 735.867 289.958 737.528 291.631L740.079 294.129L747.978 286.226L745.468 283.714C743.789 282.055 741.992 280.517 740.093 279.115L734.322 274.951C735.8 272.23 736.347 269.1 735.877 266.038L733.585 268.331C733.566 271.358 732.349 274.253 730.202 276.385ZM738.647 281.107C740.447 282.438 742.152 283.893 743.749 285.462L744.513 286.226L740.093 290.648L739.329 289.884C737.752 288.297 736.288 286.6 734.95 284.806L730.857 279.087C731.249 278.777 731.622 278.444 731.976 278.091C732.344 277.722 732.671 277.354 732.985 276.972L738.647 281.107Z" fill="#2D5967"/>
</g>
</g>
<g id="Icon Text Label_9">
<text id="IconLabel_13" fill="black" xml:space="preserve" style="white-space: pre" font-family="Oracle Sans" font-size="16" letter-spacing="0em"><tspan x="686.047" y="313.816">Operations</tspan></text>
<text id="IconLabel_14" fill="black" xml:space="preserve" style="white-space: pre" font-family="Oracle Sans" font-size="16" letter-spacing="0em"><tspan x="697.625" y="329.816">Insights</tspan></text>
</g>
</g>
<path id="Vector 83" d="M85 76H135V268H85" stroke="#312D2A" stroke-width="2"/>
<path id="Vector 85" d="M596 76H542V268H596" stroke="#312D2A" stroke-width="2"/>
<path id="Vector 84" d="M172.707 172.707C173.098 172.317 173.098 171.683 172.707 171.293L166.343 164.929C165.953 164.538 165.319 164.538 164.929 164.929C164.538 165.319 164.538 165.953 164.929 166.343L170.586 172L164.929 177.657C164.538 178.047 164.538 178.681 164.929 179.071C165.319 179.462 165.953 179.462 166.343 179.071L172.707 172.707ZM135 173H172V171H135V173Z" fill="#312D2A"/>
<path id="Vector 89" d="M693.707 76.7071C694.098 76.3166 694.098 75.6834 693.707 75.2929L687.343 68.9289C686.953 68.5384 686.319 68.5384 685.929 68.9289C685.538 69.3195 685.538 69.9526 685.929 70.3431L691.586 76L685.929 81.6569C685.538 82.0474 685.538 82.6805 685.929 83.0711C686.319 83.4616 686.953 83.4616 687.343 83.0711L693.707 76.7071ZM653 77H693V75H653V77Z" fill="#312D2A"/>
<path id="Vector 90" d="M693.707 268.707C694.098 268.317 694.098 267.683 693.707 267.293L687.343 260.929C686.953 260.538 686.319 260.538 685.929 260.929C685.538 261.319 685.538 261.953 685.929 262.343L691.586 268L685.929 273.657C685.538 274.047 685.538 274.681 685.929 275.071C686.319 275.462 686.953 275.462 687.343 275.071L693.707 268.707ZM653 269H693V267H653V269Z" fill="#312D2A"/>
<path id="Vector 88" d="M440.707 172.707C441.098 172.317 441.098 171.683 440.707 171.293L434.343 164.929C433.953 164.538 433.319 164.538 432.929 164.929C432.538 165.319 432.538 165.953 432.929 166.343L438.586 172L432.929 177.657C432.538 178.047 432.538 178.681 432.929 179.071C433.319 179.462 433.953 179.462 434.343 179.071L440.707 172.707ZM353 173H440V171H353V173Z" fill="#312D2A"/>
<path id="Vector 86" d="M542 172H505" stroke="#312D2A" stroke-width="2"/>
<path id="Vector 87" d="M290 172H232" stroke="#312D2A" stroke-width="2"/>
</g>
</g>
<defs>
<clipPath id="clip0_14015_324369">
<rect width="783" height="345" fill="white"/>
</clipPath>
</defs>
</svg>
