<svg width="640" height="600" viewBox="0 0 640 600" fill="none" xmlns="http://www.w3.org/2000/svg">
<g id="mongodb-json-arch-variant" clip-path="url(#clip0_20270_4989)">
<rect width="640" height="600" fill="white"/>
<g id="Group 3">
<g id="OCI Region">
<rect x="0.5" y="0.5" width="639" height="599" rx="3.5" fill="#F5F4F2"/>
<rect x="0.5" y="0.5" width="639" height="599" rx="3.5" stroke="#9E9892"/>
<text id="On-premises" fill="#312D2A" xml:space="preserve" style="white-space: pre" font-family="Oracle Sans" font-size="16" font-weight="bold" letter-spacing="0em"><tspan x="8" y="21.816">OCI Region</tspan></text>
</g>
<g id="VCN box_New">
<rect id="Rectangle 28" x="41" y="32.9248" width="558" height="550" stroke="#AA643B" stroke-width="2" stroke-dasharray="8 4"/>
<g id="Icon Master">
<g id="Srv-VCN">
<g id="Group 39">
<path id="Vector" d="M578.416 55.5102C577.16 55.5097 575.944 55.077 574.969 54.285C573.995 53.4929 573.323 52.3896 573.066 51.1603H566.595C566.408 52.0545 566 52.8874 565.408 53.5832C564.816 54.2791 564.06 54.8156 563.208 55.1439C562.356 55.4721 561.435 55.5817 560.53 55.4626C559.625 55.3435 558.764 54.9995 558.025 54.4619C557.287 53.9244 556.695 53.2104 556.303 52.3852C555.912 51.56 555.733 50.6498 555.783 49.7376C555.833 48.8254 556.11 47.9403 556.59 47.163C557.07 46.3857 557.737 45.7409 558.529 45.2875L556.533 39.1411C556.336 39.1547 556.138 39.1547 555.941 39.1411C555.053 39.1431 554.178 38.9289 553.392 38.5169C552.606 38.105 551.931 37.5077 551.427 36.7766C550.923 36.0456 550.605 35.2028 550.499 34.3209C550.393 33.4391 550.504 32.5448 550.821 31.7152C551.138 30.8857 551.652 30.1458 552.319 29.5595C552.986 28.9733 553.785 28.5582 554.648 28.3502C555.511 28.1422 556.411 28.1475 557.272 28.3657C558.132 28.5838 558.927 29.0083 559.586 29.6024L564.845 25.8726C564.527 25.1674 564.363 24.4028 564.362 23.6293C564.362 22.1781 564.938 20.7864 565.964 19.7603C566.989 18.7342 568.38 18.1577 569.83 18.1577C571.281 18.1577 572.672 18.7342 573.697 19.7603C574.723 20.7864 575.299 22.1781 575.299 23.6293C575.301 24.4021 575.139 25.1667 574.825 25.8726L580.093 29.6389C581.087 28.7257 582.388 28.2182 583.738 28.2163C585.188 28.2163 586.579 28.7927 587.605 29.8188C588.63 30.845 589.206 32.2367 589.206 33.6878C589.206 35.139 588.63 36.5307 587.605 37.5568C586.579 38.5829 585.188 39.1594 583.738 39.1594C583.547 39.1594 583.346 39.1594 583.155 39.1594L581.15 45.3058C582.199 45.9051 583.02 46.8351 583.484 47.9505C583.949 49.0659 584.032 50.304 583.72 51.4714C583.408 52.6389 582.718 53.6701 581.758 54.404C580.799 55.1379 579.623 55.5333 578.416 55.5284V55.5102Z" fill="white"/>
<path id="Vector_2" d="M569.84 18.577C570.707 18.579 571.56 18.8059 572.314 19.2356C573.068 19.6653 573.697 20.2832 574.142 21.029C574.586 21.7748 574.829 22.623 574.849 23.491C574.868 24.359 574.662 25.2172 574.251 25.9818L580.093 30.2314C580.665 29.6323 581.377 29.1844 582.164 28.9277C582.951 28.6711 583.79 28.6137 584.605 28.7607C585.42 28.9076 586.186 29.2544 586.835 29.7699C587.483 30.2855 587.994 30.9538 588.321 31.715C588.648 32.4763 588.782 33.3068 588.71 34.1324C588.638 34.958 588.363 35.7529 587.909 36.446C587.455 37.1391 586.836 37.7089 586.109 38.1043C585.381 38.4998 584.566 38.7087 583.738 38.7123C583.433 38.7165 583.128 38.6921 582.827 38.6393L580.594 45.5244C581.375 45.9013 582.045 46.4746 582.538 47.1881C583.032 47.9016 583.332 48.7309 583.409 49.5951C583.486 50.4593 583.338 51.3288 582.979 52.1186C582.62 52.9084 582.062 53.5915 581.36 54.1011C580.659 54.6107 579.837 54.9295 578.975 55.0262C578.113 55.123 577.241 54.9944 576.444 54.653C575.647 54.3116 574.952 53.7692 574.427 53.0786C573.902 52.3881 573.565 51.5731 573.449 50.7132H566.212C566.095 51.5731 565.757 52.388 565.231 53.078C564.706 53.7681 564.01 54.3099 563.212 54.6503C562.414 54.9908 561.542 55.1183 560.68 55.0204C559.818 54.9225 558.996 54.6025 558.295 54.0918C557.594 53.581 557.037 52.897 556.679 52.1065C556.322 51.316 556.175 50.4461 556.253 49.5818C556.332 48.7176 556.634 47.8885 557.128 47.1758C557.623 46.463 558.294 45.8908 559.076 45.5153L556.843 38.6393C556.543 38.6952 556.237 38.7226 555.932 38.7214C555.101 38.7199 554.284 38.5123 553.553 38.1171C552.822 37.7219 552.201 37.1515 551.745 36.457C551.289 35.7626 551.011 34.9657 550.939 34.1378C550.866 33.3099 550.999 32.4768 551.327 31.7132C551.655 30.9496 552.167 30.2793 552.817 29.7623C553.468 29.2453 554.236 28.8979 555.054 28.751C555.871 28.6042 556.712 28.6626 557.502 28.9209C558.291 29.1793 559.005 29.6295 559.577 30.2314L565.419 25.9818C565.008 25.2165 564.802 24.3575 564.821 23.4887C564.841 22.62 565.085 21.7711 565.531 21.0251C565.976 20.279 566.607 19.6613 567.362 19.2322C568.118 18.8032 568.971 18.5774 569.84 18.577ZM569.84 17.665C568.268 17.665 566.76 18.2893 565.647 19.4006C564.535 20.512 563.909 22.0196 563.906 23.5926C563.906 24.3062 564.035 25.014 564.289 25.6809L559.632 29.055C558.891 28.4637 558.019 28.0587 557.089 27.8739C556.16 27.6891 555.199 27.7298 554.288 27.9927C553.378 28.2556 552.543 28.733 551.855 29.385C551.166 30.0369 550.644 30.8444 550.332 31.7398C550.019 32.6353 549.926 33.5926 550.059 34.5316C550.192 35.4706 550.548 36.364 551.098 37.1369C551.647 37.9099 552.373 38.5399 553.216 38.9742C554.059 39.4086 554.993 39.6346 555.941 39.6333H556.205L558.028 45.1049C557.23 45.6331 556.572 46.3468 556.11 47.185C555.648 48.0231 555.396 48.9608 555.375 49.9178C555.354 50.8748 555.564 51.8226 555.989 52.6803C556.414 53.5379 557.04 54.2799 557.814 54.8427C558.588 55.4055 559.486 55.7725 560.433 55.9122C561.379 56.0518 562.345 55.9601 563.249 55.6448C564.152 55.3295 564.965 54.8 565.62 54.1016C566.274 53.4031 566.749 52.5566 567.005 51.6343H572.747C573.001 52.5599 573.476 53.41 574.13 54.1118C574.784 54.8136 575.599 55.3461 576.504 55.6638C577.41 55.9815 578.378 56.0748 579.328 55.9357C580.277 55.7967 581.178 55.4294 581.954 54.8654C582.73 54.3014 583.358 53.5575 583.784 52.6974C584.21 51.8374 584.421 50.8868 584.4 49.9272C584.378 48.9676 584.124 48.0275 583.66 47.1877C583.195 46.3478 582.534 45.6331 581.733 45.1049L583.556 39.6333H583.738C584.544 39.6781 585.35 39.5579 586.108 39.2802C586.865 39.0026 587.558 38.5732 588.144 38.0184C588.73 37.4636 589.197 36.795 589.516 36.0535C589.835 35.312 590 34.5131 590 33.7058C590 32.8985 589.835 32.0997 589.516 31.3582C589.197 30.6167 588.73 29.9481 588.144 29.3933C587.558 28.8384 586.865 28.4091 586.108 28.1314C585.35 27.8537 584.544 27.7336 583.738 27.7783C582.396 27.775 581.093 28.232 580.047 29.0732L575.399 25.6991C575.646 25.0305 575.772 24.3235 575.773 23.6108C575.774 22.8304 575.621 22.0575 575.324 21.3361C575.026 20.6148 574.589 19.9593 574.038 19.4071C573.487 18.8548 572.833 18.4167 572.112 18.1178C571.392 17.8189 570.619 17.665 569.84 17.665V17.665Z" fill="white"/>
<path id="Vector_3" d="M583.738 28.6709C583.057 28.6691 582.382 28.8065 581.755 29.0746C581.128 29.3428 580.563 29.736 580.093 30.2303L574.251 25.9807C574.665 25.2153 574.874 24.3554 574.856 23.4851C574.838 22.6149 574.595 21.7642 574.15 21.0164C573.705 20.2685 573.073 19.6493 572.317 19.2192C571.56 18.7891 570.705 18.563 569.835 18.563C568.965 18.563 568.11 18.7891 567.354 19.2192C566.598 19.6493 565.966 20.2685 565.521 21.0164C565.076 21.7642 564.832 22.6149 564.815 23.4851C564.797 24.3554 565.005 25.2153 565.42 25.9807L559.569 30.2303C558.995 29.6333 558.284 29.1875 557.496 28.9327C556.709 28.6779 555.871 28.622 555.057 28.77C554.243 28.918 553.479 29.2653 552.831 29.7809C552.184 30.2965 551.675 30.9643 551.348 31.7249C551.021 32.4855 550.888 33.3151 550.96 34.1398C551.032 34.9644 551.306 35.7585 551.759 36.4512C552.212 37.1439 552.829 37.7136 553.556 38.1095C554.283 38.5054 555.096 38.7153 555.923 38.7203C556.229 38.7216 556.534 38.6941 556.834 38.6383L559.067 45.5051C558.285 45.8806 557.614 46.4528 557.12 47.1656C556.625 47.8783 556.323 48.7074 556.245 49.5716C556.166 50.4359 556.313 51.3058 556.671 52.0963C557.029 52.8868 557.585 53.5708 558.286 54.0816C558.988 54.5923 559.809 54.9123 560.671 55.0102C561.533 55.1081 562.405 54.9806 563.203 54.6401C564.001 54.2997 564.697 53.7579 565.223 53.0678C565.749 52.3778 566.086 51.5629 566.203 50.703H573.44C573.556 51.5629 573.893 52.3779 574.418 53.0684C574.943 53.759 575.638 54.3014 576.435 54.6428C577.232 54.9841 578.104 55.1127 578.966 55.016C579.828 54.9193 580.65 54.6005 581.352 54.0909C582.053 53.5813 582.611 52.8982 582.97 52.1084C583.329 51.3186 583.477 50.4491 583.4 49.5849C583.323 48.7207 583.023 47.8914 582.529 47.1779C582.036 46.4644 581.366 45.8911 580.585 45.5142L582.827 38.6383C583.128 38.6941 583.433 38.7216 583.738 38.7203C584.422 38.7616 585.107 38.6625 585.751 38.4291C586.395 38.1957 586.985 37.8329 587.483 37.3632C587.982 36.8934 588.379 36.3265 588.651 35.6973C588.922 35.0682 589.063 34.3901 589.063 33.7047C589.063 33.0194 588.922 32.3413 588.651 31.7121C588.379 31.083 587.982 30.5161 587.483 30.0463C586.985 29.5765 586.395 29.2138 585.751 28.9804C585.107 28.747 584.422 28.6479 583.738 28.6891V28.6709ZM578.416 53.7124C577.695 53.7124 576.99 53.4985 576.391 53.0976C575.791 52.6968 575.324 52.1271 575.048 51.4606C574.772 50.7941 574.7 50.0606 574.84 49.3531C574.981 48.6455 575.328 47.9955 575.838 47.4854C576.348 46.9752 576.998 46.6278 577.705 46.4871C578.412 46.3463 579.145 46.4186 579.811 46.6946C580.477 46.9707 581.047 47.4383 581.447 48.0381C581.848 48.638 582.062 49.3432 582.062 50.0647C582.062 51.0321 581.677 51.9599 580.994 52.644C580.31 53.3281 579.383 53.7124 578.416 53.7124ZM566.213 49.3625C566.063 48.2302 565.529 47.1838 564.7 46.3987L567.434 42.5778C568.166 42.9668 568.983 43.1703 569.813 43.1705C570.639 43.1734 571.454 42.9696 572.182 42.5778L574.916 46.3987C574.084 47.1829 573.547 48.2292 573.394 49.3625H566.213ZM557.563 50.0373C557.563 49.3159 557.777 48.6106 558.178 48.0108C558.578 47.4109 559.148 46.9434 559.814 46.6673C560.48 46.3912 561.213 46.319 561.92 46.4597C562.627 46.6005 563.277 46.9479 563.787 47.458C564.297 47.9681 564.644 48.6181 564.785 49.3257C564.925 50.0333 564.853 50.7667 564.577 51.4332C564.301 52.0998 563.834 52.6695 563.234 53.0703C562.635 53.4711 561.93 53.685 561.209 53.685C560.242 53.685 559.315 53.3007 558.631 52.6166C557.948 51.9326 557.563 51.0048 557.563 50.0373ZM555.941 30.0205C556.662 30.0205 557.367 30.2345 557.967 30.6353C558.566 31.0361 559.033 31.6058 559.309 32.2723C559.585 32.9389 559.657 33.6723 559.517 34.3799C559.376 35.0875 559.029 35.7374 558.519 36.2476C558.009 36.7577 557.36 37.1051 556.652 37.2459C555.945 37.3866 555.212 37.3144 554.546 37.0383C553.88 36.7622 553.311 36.2947 552.91 35.6948C552.509 35.0949 552.296 34.3897 552.296 33.6683C552.296 32.7008 552.68 31.773 553.363 31.0889C554.047 30.4049 554.974 30.0205 555.941 30.0205ZM566.158 23.6371C566.158 22.9156 566.372 22.2104 566.772 21.6105C567.173 21.0106 567.742 20.5431 568.408 20.267C569.074 19.9909 569.807 19.9187 570.515 20.0595C571.222 20.2002 571.871 20.5476 572.381 21.0577C572.891 21.5679 573.238 22.2178 573.379 22.9254C573.52 23.633 573.447 24.3665 573.171 25.033C572.896 25.6995 572.428 26.2692 571.829 26.67C571.229 27.0708 570.524 27.2848 569.803 27.2848C569.321 27.2848 568.843 27.189 568.398 27.0028C567.952 26.8167 567.548 26.5439 567.209 26.2003C566.87 25.8567 566.603 25.4492 566.422 25.0014C566.242 24.5536 566.152 24.0743 566.158 23.5915V23.6371ZM578.79 34.5802L574.369 35.9937C574.009 35.2393 573.468 34.5862 572.793 34.0928C572.119 33.5994 571.333 33.2812 570.505 33.1667V28.6071C571.634 28.4568 572.677 27.9222 573.458 27.0933L579.318 31.3428C578.922 32.0733 578.715 32.8917 578.717 33.723C578.719 34.0071 578.743 34.2907 578.79 34.5711V34.5802ZM573.513 38.164C573.513 38.8855 573.299 39.5907 572.898 40.1906C572.498 40.7905 571.928 41.258 571.262 41.5341C570.596 41.8102 569.863 41.8824 569.156 41.7417C568.449 41.6009 567.799 41.2535 567.289 40.7434C566.78 40.2332 566.432 39.5833 566.292 38.8757C566.151 38.1681 566.223 37.4347 566.499 36.7681C566.775 36.1016 567.242 35.5319 567.842 35.1311C568.441 34.7303 569.146 34.5163 569.867 34.5163C570.832 34.5163 571.758 34.8994 572.442 35.5815C573.125 36.2636 573.51 37.1891 573.513 38.1549V38.164ZM569.156 28.6071V33.1667C568.33 33.2794 567.546 33.596 566.873 34.0879C566.2 34.5798 565.66 35.2316 565.301 35.9845L560.872 34.5711C560.929 34.2705 560.956 33.9651 560.954 33.6591C560.946 32.8505 560.743 32.0557 560.361 31.3428L566.213 27.0841C566.99 27.9146 568.03 28.4523 569.156 28.6071ZM560.462 35.9025L564.891 37.316C564.835 37.6166 564.807 37.922 564.809 38.2279C564.806 38.9111 564.943 39.5876 565.213 40.2152C565.483 40.8428 565.879 41.408 566.377 41.8756L563.642 45.7057C562.915 45.3099 562.101 45.103 561.273 45.1038C560.967 45.102 560.662 45.1294 560.361 45.1859L558.119 38.2188C559.142 37.7343 559.971 36.918 560.471 35.9025H560.462ZM578.416 45.0217C577.59 45.023 576.776 45.2265 576.046 45.6145L573.312 41.8026C573.808 41.3337 574.203 40.7682 574.473 40.1409C574.742 39.5136 574.881 38.8378 574.88 38.1549C574.882 37.849 574.855 37.5436 574.798 37.243L579.182 35.8478C579.678 36.8791 580.506 37.7139 581.533 38.2188L579.3 45.0947C579.008 45.0436 578.712 45.0192 578.416 45.0217ZM580.093 33.6956C580.093 32.9742 580.307 32.2689 580.707 31.6691C581.108 31.0692 581.677 30.6017 582.343 30.3256C583.01 30.0495 583.743 29.9772 584.45 30.118C585.157 30.2587 585.806 30.6062 586.316 31.1163C586.826 31.6264 587.173 32.2764 587.314 32.984C587.455 33.6916 587.382 34.425 587.107 35.0915C586.831 35.7581 586.363 36.3278 585.764 36.7286C585.164 37.1294 584.459 37.3433 583.738 37.3433C582.772 37.3433 581.844 36.959 581.161 36.2749C580.477 35.5908 580.093 34.663 580.093 33.6956Z" fill="#AA643B"/>
</g>
</g>
</g>
<text id="VCN" fill="#AE562C" xml:space="preserve" style="white-space: pre" font-family="Oracle Sans" font-size="16" font-weight="600" letter-spacing="0em"><tspan x="49" y="54.816">JSON Workload VCN</tspan></text>
</g>
<g id="OCI Subnet Boxes_New">
<rect x="80.5" y="64.5" width="480" height="319" stroke="#AA643B" stroke-dasharray="8 4"/>
<text id="Subnet" fill="#AE562C" xml:space="preserve" style="white-space: pre" font-family="Oracle Sans" font-size="16" font-weight="600" letter-spacing="0em"><tspan x="88" y="85.816">Private Subnet (Backend Tier)</tspan></text>
<text id="00.0.00.0/00" fill="#312D2A" xml:space="preserve" style="white-space: pre" font-family="Oracle Sans" font-size="16" font-weight="300" letter-spacing="0em"><tspan x="88" y="101.816">10.2.10.1/28</tspan></text>
<g id="Icon Master_2">
<g id="Srv-Route table and security list">
<g id="Group">
<g id="Group_2">
<path id="Vector_4" d="M512.476 83.5194V57.0771H529.238V49.2886L540.476 44.481L551.619 49.2886V59.481C551.619 59.5771 551.619 62.0771 550.19 65.0579C548.952 67.7502 546.381 71.404 540.857 73.4233V83.4233H512.476V83.5194Z" fill="white"/>
<path id="Vector_5" d="M540.381 45.0577L551.048 49.5769V59.4808C551.048 59.5769 551.048 61.9808 549.714 64.8654C548.476 67.5577 546 71.1154 540.667 73.0385L540.476 73.1346H540.381V83.0385H512.952V57.5577H529.714V49.5769L540.381 45.0577ZM540.381 44L540 44.1923L529.333 48.7115L528.762 49V49.6731V56.6923H512.952H512V57.6538V83.0385V84H512.952H540.381H541.333V83.0385V73.8077C546.667 71.6923 549.333 68.0385 550.571 65.25C552 62.1731 552 59.5769 552 59.4808V49.5769V49L551.429 48.7115L540.762 44.1923L540.381 44Z" fill="white"/>
</g>
<g id="Group_3">
<path id="Vector_6" d="M539.048 73.7115H521.524V66.9808H531.048C530.762 66.5 530.571 66.1154 530.381 65.7308H521.524V59H528.667V57.75H512.952V83.1346H540.381V74.2885L539.905 74.0962C539.619 73.9038 539.333 73.8077 539.048 73.7115ZM514.19 58.9038H520.286V65.6346H514.19V58.9038ZM520.286 66.8846V73.6154H514.19V66.8846H520.286ZM514.19 74.9615H520.286V81.6923H514.19V74.9615ZM539.048 81.6923H521.524V74.9615H539.048V81.6923Z" fill="#AA643B"/>
<path id="Vector_7" d="M537.619 79.1924H536.381V80.4424H537.619V79.1924Z" fill="#AA643B"/>
<path id="Vector_8" d="M532.381 80.4422L533.524 79.2884L534.667 80.4422L535.524 79.4807L534.381 78.3268L535.524 77.173L534.667 76.3076L533.524 77.4615L532.381 76.3076L531.428 77.173L532.571 78.3268L531.428 79.4807L532.381 80.4422Z" fill="#AA643B"/>
<path id="Vector_9" d="M529.619 79.1924H528.381V80.4424H529.619V79.1924Z" fill="#AA643B"/>
<path id="Vector_10" d="M523.524 79.4807L524.381 80.4422L525.524 79.2884L526.667 80.4422L527.619 79.4807L526.476 78.3268L527.619 77.173L526.667 76.3076L525.524 77.4615L524.381 76.3076L523.524 77.173L524.667 78.3268L523.524 79.4807Z" fill="#AA643B"/>
<path id="Vector_11" d="M529.619 71.1157H528.381V72.3657H529.619V71.1157Z" fill="#AA643B"/>
<path id="Vector_12" d="M523.524 71.404L524.381 72.3656L525.524 71.2117L526.667 72.3656L527.619 71.404L526.476 70.2502L527.619 69.0963L526.667 68.231L525.524 69.3848L524.381 68.231L523.524 69.0963L524.667 70.2502L523.524 71.404Z" fill="#AA643B"/>
<path id="Vector_13" d="M528.095 64.3847H529.333V63.1347C529.333 63.1347 529.333 63.1347 529.333 63.0386H528.095V64.3847Z" fill="#AA643B"/>
<path id="Vector_14" d="M523.143 63.423L524.095 64.2884L525.238 63.1346L526.381 64.2884L527.238 63.423L526.095 62.2692L527.238 61.1153L526.381 60.1538L525.238 61.3077L524.095 60.1538L523.143 61.1153L524.286 62.2692L523.143 63.423Z" fill="#AA643B"/>
<path id="Vector_15" d="M529.714 49.5768V59.4807C529.714 59.5768 529.81 61.9807 531.048 64.8653C532.286 67.5576 534.857 71.1153 540.191 73.0384L540.381 73.1345L540.571 73.0384C545.905 71.1153 548.476 67.5576 549.619 64.8653C550.952 61.9807 550.952 59.5768 550.952 59.4807V49.5768L540.381 45.0576L529.714 49.5768ZM549.81 59.4807C549.81 59.5768 549.619 68.2307 540.476 71.6922C536.667 70.2499 533.905 67.7499 532.286 64.3845C531.048 61.7884 531.048 59.4807 531.048 59.4807V50.4422L540.476 46.4038L549.81 50.4422V59.4807Z" fill="#AA643B"/>
<path id="Vector_16" d="M539.238 60.8267H534.286V62.0767H539.238V60.8267Z" fill="#AA643B"/>
<path id="Vector_17" d="M539.238 54.3848H534.286V55.6348H539.238V54.3848Z" fill="#AA643B"/>
<path id="Vector_18" d="M545.905 52.9424L543.143 55.6347L542.19 54.6732L541.238 55.5385L543.143 57.4616L546.762 53.8078L545.905 52.9424Z" fill="#AA643B"/>
<path id="Vector_19" d="M534.286 58.9038H539.048H539.238V57.5576H534.286V58.9038Z" fill="#AA643B"/>
</g>
</g>
</g>
</g>
</g>
<g id="OCI Subnet Boxes_New_2">
<rect x="80.5" y="408.5" width="479" height="159" stroke="#AA643B" stroke-dasharray="8 4"/>
<text id="Subnet_2" fill="#AE562C" xml:space="preserve" style="white-space: pre" font-family="Oracle Sans" font-size="16" font-weight="600" letter-spacing="0em"><tspan x="88" y="429.816">Private Subnet (Database Tier)</tspan></text>
<text id="00.0.00.0/00_2" fill="#312D2A" xml:space="preserve" style="white-space: pre" font-family="Oracle Sans" font-size="16" font-weight="300" letter-spacing="0em"><tspan x="88" y="445.816">10.2.20.1/28</tspan></text>
<g id="Icon Master_3">
<g id="Srv-Route table and security list_2">
<g id="Group_4">
<g id="Group_5">
<path id="Vector_20" d="M511.476 427.519V401.077H528.238V393.289L539.476 388.481L550.619 393.289V403.481C550.619 403.577 550.619 406.077 549.19 409.058C547.952 411.75 545.381 415.404 539.857 417.423V427.423H511.476V427.519Z" fill="white"/>
<path id="Vector_21" d="M539.381 389.058L550.048 393.577V403.481C550.048 403.577 550.048 405.981 548.714 408.865C547.476 411.558 545 415.115 539.667 417.038L539.476 417.135H539.381V427.038H511.952V401.558H528.714V393.577L539.381 389.058ZM539.381 388L539 388.192L528.333 392.712L527.762 393V393.673V400.692H511.952H511V401.654V427.038V428H511.952H539.381H540.333V427.038V417.808C545.667 415.692 548.333 412.038 549.571 409.25C551 406.173 551 403.577 551 403.481V393.577V393L550.429 392.712L539.762 388.192L539.381 388Z" fill="white"/>
</g>
<g id="Group_6">
<path id="Vector_22" d="M538.048 417.712H520.524V410.981H530.048C529.762 410.5 529.571 410.115 529.381 409.731H520.524V403H527.667V401.75H511.952V427.135H539.381V418.288L538.905 418.096C538.619 417.904 538.333 417.808 538.048 417.712ZM513.19 402.904H519.286V409.635H513.19V402.904ZM519.286 410.885V417.615H513.19V410.885H519.286ZM513.19 418.962H519.286V425.692H513.19V418.962ZM538.048 425.692H520.524V418.962H538.048V425.692Z" fill="#AA643B"/>
<path id="Vector_23" d="M536.619 423.192H535.381V424.442H536.619V423.192Z" fill="#AA643B"/>
<path id="Vector_24" d="M531.381 424.442L532.524 423.288L533.667 424.442L534.524 423.481L533.381 422.327L534.524 421.173L533.667 420.308L532.524 421.461L531.381 420.308L530.428 421.173L531.571 422.327L530.428 423.481L531.381 424.442Z" fill="#AA643B"/>
<path id="Vector_25" d="M528.619 423.192H527.381V424.442H528.619V423.192Z" fill="#AA643B"/>
<path id="Vector_26" d="M522.524 423.481L523.381 424.442L524.524 423.288L525.667 424.442L526.619 423.481L525.476 422.327L526.619 421.173L525.667 420.308L524.524 421.461L523.381 420.308L522.524 421.173L523.667 422.327L522.524 423.481Z" fill="#AA643B"/>
<path id="Vector_27" d="M528.619 415.116H527.381V416.366H528.619V415.116Z" fill="#AA643B"/>
<path id="Vector_28" d="M522.524 415.404L523.381 416.366L524.524 415.212L525.667 416.366L526.619 415.404L525.476 414.25L526.619 413.096L525.667 412.231L524.524 413.385L523.381 412.231L522.524 413.096L523.667 414.25L522.524 415.404Z" fill="#AA643B"/>
<path id="Vector_29" d="M527.095 408.385H528.333V407.135C528.333 407.135 528.333 407.135 528.333 407.039H527.095V408.385Z" fill="#AA643B"/>
<path id="Vector_30" d="M522.143 407.423L523.095 408.288L524.238 407.135L525.381 408.288L526.238 407.423L525.095 406.269L526.238 405.115L525.381 404.154L524.238 405.308L523.095 404.154L522.143 405.115L523.286 406.269L522.143 407.423Z" fill="#AA643B"/>
<path id="Vector_31" d="M528.714 393.577V403.481C528.714 403.577 528.81 405.981 530.048 408.865C531.286 411.558 533.857 415.115 539.191 417.038L539.381 417.135L539.571 417.038C544.905 415.115 547.476 411.558 548.619 408.865C549.952 405.981 549.952 403.577 549.952 403.481V393.577L539.381 389.058L528.714 393.577ZM548.81 403.481C548.81 403.577 548.619 412.231 539.476 415.692C535.667 414.25 532.905 411.75 531.286 408.385C530.048 405.788 530.048 403.481 530.048 403.481V394.442L539.476 390.404L548.81 394.442V403.481Z" fill="#AA643B"/>
<path id="Vector_32" d="M538.238 404.827H533.286V406.077H538.238V404.827Z" fill="#AA643B"/>
<path id="Vector_33" d="M538.238 398.385H533.286V399.635H538.238V398.385Z" fill="#AA643B"/>
<path id="Vector_34" d="M544.905 396.942L542.143 399.635L541.19 398.673L540.238 399.539L542.143 401.462L545.762 397.808L544.905 396.942Z" fill="#AA643B"/>
<path id="Vector_35" d="M533.286 402.904H538.048H538.238V401.558H533.286V402.904Z" fill="#AA643B"/>
</g>
</g>
</g>
</g>
</g>
<g id="Autonomous-Transaction-Processing-ATP">
<g id="Srv-Oracle Autonomous JSON Database">
<g id="Autonomous-JSON-Database">
<g id="Group 1512">
<path id="Vector_36" d="M349.5 473.031L348.51 474.035L347.024 475.507L346.034 476.511L345.029 475.507L344.336 474.828C343.883 476.737 343.035 478.506 341.889 480.034V507.367C341.889 511.371 335.848 512.828 333.853 513.309C332.042 513.748 329.934 514.087 327.401 514.37L327.076 514.413V515.389H289.5V494.408H294.975V470.413C294.975 466.353 301.016 464.853 302.997 464.372C307.114 463.34 312.603 462.774 318.432 462.774H319.847C322.436 459.675 326.312 457.695 330.641 457.667H330.74C334.461 457.667 337.941 459.11 340.587 461.741C341.577 462.774 342.426 463.948 343.105 465.235L343.586 466.155L343.119 466.636L343.289 466.82L348.51 472.026L349.5 473.031Z" fill="white"/>
<g id="Group_7">
<path id="Vector_37" d="M315.192 468.49L313.721 469.961L318.927 475.167L324.133 469.961L322.662 468.49L320.045 471.107C320.455 465.604 325.081 461.232 330.656 461.175C333.485 461.175 336.131 462.236 338.097 464.203C339.059 465.165 339.781 466.254 340.304 467.443L341.86 465.886C341.266 464.741 340.516 463.679 339.583 462.717C337.192 460.326 334.037 459.039 330.656 459.067C323.865 459.124 318.29 464.542 317.979 471.263L315.178 468.461L315.206 468.49H315.192Z" fill="#2D5967"/>
<path id="Vector_38" d="M342.214 467.797L337.008 473.003L338.479 474.475L341.195 471.758C341.125 477.545 336.343 482.256 330.556 482.312C327.755 482.312 325.081 481.251 323.115 479.285C322.054 478.224 321.247 476.979 320.752 475.606L319.167 477.191C319.762 478.492 320.625 479.709 321.657 480.742C324.02 483.105 327.161 484.392 330.5 484.392C333.839 484.392 330.556 484.392 330.57 484.392C337.489 484.335 343.176 478.691 343.275 471.786L345.991 474.503L347.463 473.031L342.256 467.825L342.186 467.797H342.214Z" fill="#2D5967"/>
<path id="Vector_39" d="M325.025 478.209H328.038L328.689 475.379H332.028L332.679 478.209H335.791L331.844 464.458H329.015L325.053 478.209H325.025ZM330.344 467.867L331.505 472.946H329.17L330.33 467.867H330.344Z" fill="#2D5967"/>
<path id="Vector_40" d="M333.004 485.764C329.113 486.698 323.921 487.221 318.403 487.221C312.886 487.221 307.694 486.698 303.803 485.764C299.417 484.731 298.441 483.529 298.441 483.217V473.286C299.587 473.979 301.214 474.587 303.322 475.097C307.085 476.03 312.009 476.568 317.243 476.625C317.017 475.946 316.805 475.252 316.677 474.545C311.796 474.446 307.283 473.923 303.817 473.074C299.403 471.984 298.455 470.796 298.455 470.4C298.455 470.004 299.417 468.815 303.817 467.726C307.496 466.82 312.376 466.297 317.583 466.255C317.894 465.533 318.262 464.826 318.7 464.175H318.446C312.773 464.175 307.396 464.712 303.35 465.731C298.738 466.877 296.404 468.433 296.404 470.4C296.404 472.366 296.404 470.612 296.404 470.711V494.238H298.484V485.962C299.629 486.641 301.256 487.235 303.364 487.731C307.411 488.693 312.773 489.23 318.46 489.23C324.147 489.23 329.509 488.693 333.555 487.731C335.649 487.235 337.29 486.641 338.436 485.962V495.172C338.436 495.512 337.446 496.672 333.074 497.719C331.363 498.129 329.424 498.44 327.288 498.709V500.789C329.594 500.534 331.716 500.195 333.57 499.756C335.663 499.261 337.305 498.667 338.45 497.988V507.382C338.45 507.721 337.46 508.881 333.089 509.928C331.377 510.338 329.438 510.65 327.302 510.918V512.998C329.608 512.744 331.73 512.404 333.584 511.965C338.196 510.848 340.53 509.32 340.53 507.396V481.873C339.752 482.623 338.903 483.302 337.969 483.868C337.319 484.392 335.918 485.113 333.089 485.792H333.06L333.004 485.764Z" fill="#2D5967"/>
<path id="Vector_41" d="M290.915 513.974H325.661V495.823H290.915V513.974ZM292.994 497.888H323.596V511.894H292.994V497.888Z" fill="#2D5967"/>
<path id="Vector_42" d="M296.927 502.387L298.243 502.798V506.321C298.243 507 297.875 507.325 297.154 507.325C296.432 507.325 296.743 507.297 296.503 507.254C296.262 507.212 296.008 507.099 295.725 507V508.315C295.937 508.443 296.192 508.528 296.503 508.598C296.786 508.655 297.097 508.697 297.408 508.697C298.158 508.697 298.752 508.513 299.177 508.131C299.601 507.749 299.799 507.198 299.799 506.504V501.609H296.927V502.444V502.387Z" fill="#2D5967"/>
<path id="Vector_43" d="M304.242 504.482L303.492 504.227C303.053 504.1 302.77 503.972 302.615 503.845C302.459 503.746 302.388 503.59 302.388 503.406C302.388 502.94 302.799 502.713 303.633 502.713C304.468 502.713 304.256 502.741 304.624 502.812C304.992 502.883 305.317 502.968 305.657 503.095V501.779C305.402 501.68 305.091 501.567 304.723 501.496C304.355 501.426 304.001 501.397 303.633 501.397C303.068 501.397 302.544 501.468 302.134 501.652C301.724 501.836 301.384 502.062 301.143 502.374C300.903 502.685 300.804 503.067 300.804 503.491C300.804 503.916 300.931 504.397 301.214 504.736C301.497 505.048 301.936 505.33 302.558 505.543L303.308 505.797C303.747 505.925 304.03 506.052 304.185 506.179C304.341 506.278 304.412 506.434 304.412 506.59C304.412 506.816 304.284 507 304.044 507.127C303.803 507.255 303.478 507.339 303.053 507.339C302.36 507.339 301.596 507.212 300.846 506.929V508.245C301.002 508.316 301.214 508.401 301.469 508.457C301.724 508.514 302.007 508.556 302.318 508.584C302.629 508.613 302.912 508.641 303.195 508.641C304.072 508.641 304.751 508.457 305.246 508.075C305.741 507.693 305.968 507.198 305.968 506.519C305.968 505.84 305.841 505.557 305.558 505.246C305.275 504.934 304.836 504.68 304.185 504.439L304.214 504.496L304.242 504.482Z" fill="#2D5967"/>
<path id="Vector_44" d="M310.212 501.397C309.123 501.397 308.288 501.709 307.694 502.359C307.1 503.01 306.817 503.887 306.817 505.033C306.817 506.179 307.1 507.085 307.694 507.707C308.288 508.33 309.123 508.641 310.212 508.641C311.301 508.641 312.136 508.33 312.73 507.707C313.325 507.085 313.608 506.179 313.608 505.033C313.608 503.887 313.325 503.01 312.73 502.359C312.136 501.709 311.301 501.397 310.212 501.397ZM311.556 506.759C311.273 507.17 310.806 507.354 310.212 507.354C309.618 507.354 309.151 507.141 308.868 506.759C308.585 506.349 308.429 505.769 308.429 505.019C308.429 504.269 308.585 503.675 308.868 503.279C309.151 502.883 309.618 502.685 310.212 502.685C310.806 502.685 311.273 502.897 311.556 503.279C311.839 503.661 311.995 504.269 311.995 505.019C311.995 505.769 311.839 506.363 311.556 506.759Z" fill="#2D5967"/>
<path id="Vector_45" d="M319.338 506.066L316.197 501.539H314.782V508.513H316.31V503.972L319.437 508.513H320.865V501.539H319.338V506.066Z" fill="#2D5967"/>
</g>
</g>
</g>
</g>
<g id="Icon Text Label">
<text id="IconLabel" fill="black" xml:space="preserve" style="white-space: pre" font-family="Oracle Sans" font-size="16" letter-spacing="0em"><tspan x="247.43" y="533.816">Oracle Autonomous</tspan></text>
<text id="IconLabel_2" fill="black" xml:space="preserve" style="white-space: pre" font-family="Oracle Sans" font-size="16" letter-spacing="0em"><tspan x="263.555" y="549.816">JSON Database</tspan></text>
</g>
</g>
<g id="Gateway">
<rect id="Rectangle 699" x="40" y="246" width="2" height="76" fill="#F5F4F2"/>
<g id="Icon Master_4">
<g id="Srv-NAT gateway">
<g id="Group 28">
<path id="Vector_46" d="M41.1194 285.697C40.5635 285.697 40.0079 285.668 39.4549 285.612H39.1239L38.7929 285.564C38.4713 285.564 38.1592 285.479 37.8471 285.413C37.535 285.346 37.2324 285.261 36.9014 285.185L36.5798 285.1L36.2961 284.977C34.704 284.486 33.1933 283.761 31.8132 282.827L31.4444 282.552L31.1228 282.306L30.527 281.851L30.196 281.548L29.9312 281.311C29.7231 281.122 29.515 280.932 29.3164 280.733L29.0327 280.421C28.749 280.118 28.4747 279.815 28.2099 279.474C26.1442 276.935 24.8764 273.839 24.5667 270.579C24.2569 267.318 24.9192 264.039 26.4697 261.155C26.7156 260.691 26.971 260.274 27.2263 259.876L27.3776 259.658C27.6141 259.317 27.8505 258.995 28.0964 258.711L28.3612 258.399C28.5882 258.124 28.8341 257.849 29.0894 257.575L29.3826 257.281C29.6474 257.016 29.9123 256.76 30.196 256.523L30.4419 256.305C30.7729 256.031 31.085 255.784 31.3876 255.548L31.5673 255.387C31.9267 255.131 32.305 254.894 32.6833 254.667C33.9872 253.906 35.3867 253.323 36.8446 252.933C37.327 252.81 37.7904 252.706 38.2538 252.63H38.3295L36.769 251.02L41.11 246.672L45.4605 251.02L43.8621 252.63H43.9094L44.4012 252.706L44.8646 252.82L45.328 252.943L45.8955 253.085L46.3684 253.227C47.154 253.485 47.9191 253.801 48.6571 254.174L49.1205 254.411C49.3191 254.515 49.4988 254.629 49.6785 254.742L50.0663 254.979C50.4635 255.235 50.8418 255.51 51.2201 255.784C52.4021 256.695 53.458 257.759 54.36 258.948C54.6816 259.374 54.9275 259.744 55.1639 260.113L55.2868 260.312C55.4949 260.653 55.6935 261.003 55.8732 261.354L56.0435 261.676C56.2042 262.007 56.3556 262.348 56.4974 262.689L56.6582 263.087C56.7811 263.428 56.9041 263.769 57.0081 264.129L57.1311 264.508C57.2351 264.906 57.3297 265.294 57.4148 265.692L57.4621 265.957C57.5566 266.433 57.626 266.914 57.6701 267.397C57.9452 270.144 57.5358 272.917 56.4785 275.467C55.0246 278.962 52.4128 281.849 49.0827 283.641C48.6666 283.869 48.2883 284.039 47.91 284.21L47.7586 284.285L47.5317 284.39L46.7656 284.674L46.3873 284.806L45.9901 284.948C45.7536 285.024 45.5172 285.072 45.2902 285.138L44.8552 285.242L44.4107 285.346C43.328 285.57 42.225 285.682 41.1194 285.678V285.697ZM38.424 252.63L38.7456 252.573L39.3793 252.479L39.8994 252.431H39.9656V251.067L38.424 252.63ZM42.9164 252.469L43.5027 252.554L43.8338 252.611L42.2543 251.067V252.422H42.3206V252.374L42.9164 252.469Z" fill="white"/>
<path id="Vector_47" d="M41.1095 247.336L42.7362 248.965L42.793 249.022L44.8074 251.02L43.8617 251.967L42.8213 250.925L41.781 249.921V252.877C42.1215 252.877 42.4619 252.877 42.793 252.933C43.0578 252.933 43.3226 253.009 43.5874 253.047L44.2778 253.151C44.5048 253.199 44.7318 253.265 44.9493 253.322C45.1668 253.379 45.4789 253.445 45.7343 253.521C46.8086 253.853 47.8451 254.298 48.8269 254.847C49.0822 254.989 49.3092 255.14 49.5551 255.292L49.7443 255.406C50.132 255.652 50.5009 255.917 50.8602 256.192C52.0345 257.069 53.0844 258.101 53.9812 259.261L54.038 259.327C54.2933 259.677 54.5392 260.037 54.7662 260.397L54.8892 260.587C55.0878 260.918 55.2769 261.259 55.4566 261.6L55.6174 261.913C55.7782 262.235 55.92 262.566 56.0524 262.86C56.1092 262.983 56.1659 263.116 56.2132 263.239C56.3362 263.58 56.4497 263.911 56.5537 264.252C56.5537 264.385 56.6388 264.508 56.6672 264.631C56.7807 265.01 56.8658 265.389 56.9509 265.777C56.9509 265.863 56.9509 265.948 56.9509 266.033C57.0409 266.497 57.1072 266.965 57.1495 267.435C57.4601 270.591 56.8332 273.769 55.3476 276.569C53.8619 279.37 51.5836 281.669 48.7985 283.177H48.7418C48.3918 283.367 48.023 283.537 47.6636 283.708L47.2853 283.878C46.9921 284.001 46.6989 284.106 46.3963 284.21C46.0936 284.314 45.9991 284.361 45.791 284.418C45.5829 284.475 45.2046 284.579 44.9115 284.646C44.6183 284.712 44.4859 284.769 44.2683 284.807C43.2134 285.023 42.1391 285.131 41.0622 285.129C40.5222 285.132 39.9824 285.106 39.445 285.053L38.9248 284.977C38.5749 284.977 38.225 284.882 37.875 284.816C37.5251 284.75 37.1941 284.646 36.8536 284.56L36.3429 284.428C34.7958 283.953 33.3292 283.247 31.9924 282.334C31.8033 282.211 31.6331 282.069 31.4534 281.937C31.2737 281.804 30.9616 281.586 30.7346 281.387C30.5076 281.188 30.413 281.103 30.2523 280.951C30.0915 280.8 29.7794 280.535 29.5619 280.307C29.3443 280.08 29.3727 280.099 29.2781 280.004C29.007 279.707 28.7422 279.392 28.4837 279.057C26.5196 276.593 25.3211 273.605 25.037 270.465C24.7528 267.324 25.3955 264.17 26.8854 261.392C27.1124 260.975 27.3582 260.568 27.6136 260.179L27.7838 259.933C28.0014 259.602 28.2378 259.289 28.4742 258.986L28.7296 258.673C28.9566 258.408 29.193 258.134 29.4389 257.878L29.7321 257.584C29.9874 257.328 30.2428 257.082 30.5171 256.845C30.601 256.768 30.6895 256.695 30.7819 256.628C31.0751 256.372 31.3872 256.135 31.7276 255.908L31.9073 255.775C32.2667 255.529 32.6261 255.292 33.0044 255.074H33.0706C34.3113 254.351 35.6444 253.799 37.0333 253.435C37.4778 253.322 37.9223 253.218 38.3668 253.142H38.5938C38.8681 253.142 39.1423 253.038 39.4261 253.009C39.7665 253.009 40.0976 252.943 40.438 252.933V249.921L39.4261 250.935L38.3857 251.977L37.44 251.03L39.4261 249.031L39.4828 248.974L41.1095 247.345V247.336ZM41.1095 246.009L40.4475 246.682L38.8208 248.302L38.764 248.359L36.7685 250.348L36.097 251.02L36.7685 251.683L37.4022 252.318C37.2036 252.318 36.9955 252.403 36.7969 252.46C35.314 252.856 33.8895 253.445 32.5599 254.212L32.5126 254.26C32.1248 254.487 31.7371 254.743 31.3588 254.998L31.1696 255.131C30.8386 255.377 30.5171 255.633 30.2239 255.898L29.9402 256.135C29.6659 256.372 29.4011 256.628 29.1079 256.912L29.0417 256.978L28.7296 257.224C28.4837 257.48 28.2378 257.755 27.973 258.067L27.9068 258.152L27.7082 258.389C27.4717 258.692 27.2353 259.014 26.9705 259.393L26.9232 259.469L26.8381 259.63C26.5733 260.037 26.3179 260.464 26.0815 260.909C24.4785 263.866 23.7847 267.231 24.0877 270.582C24.3906 273.933 25.6766 277.119 27.7838 279.739L27.8311 279.796C28.1054 280.137 28.408 280.468 28.6634 280.743L28.7296 280.857L28.9187 281.065C29.1268 281.274 29.3349 281.463 29.5524 281.652L29.6564 281.757L29.8078 281.889L30.1671 282.211L30.7724 282.675L30.9332 282.798L31.1034 282.931L31.4912 283.215C32.9114 284.179 34.4669 284.926 36.1065 285.432L36.4659 285.526H36.6456H36.759C37.0711 285.612 37.3927 285.697 37.7048 285.763C38.0169 285.83 38.3763 285.877 38.6978 285.915H38.8113H38.991H39.3599C39.9273 285.972 40.5042 286 41.0717 286C42.212 286 43.3494 285.886 44.4669 285.659L44.9304 285.545L45.1384 285.489H45.3465C45.5924 285.432 45.8383 285.375 46.0747 285.299L46.5192 285.148L46.7178 285.072L46.8502 285.024C47.1245 284.93 47.3893 284.835 47.6636 284.721L47.9189 284.608L48.0608 284.541C48.4013 284.39 48.808 284.2 49.2052 283.982H49.2525C52.6635 282.136 55.3353 279.169 56.8185 275.581C57.9003 272.971 58.3226 270.134 58.048 267.321V267.265C58.0007 266.781 57.925 266.317 57.8399 265.806C57.8345 265.746 57.8345 265.686 57.8399 265.626V265.531C57.7453 265.086 57.6508 264.688 57.5467 264.319C57.5209 264.219 57.4893 264.121 57.4522 264.025V263.921C57.3292 263.523 57.2063 263.173 57.0833 262.851C57.0833 262.737 56.9982 262.623 56.9509 262.51V262.443C56.7996 262.064 56.6483 261.723 56.4875 261.401C56.4307 261.307 56.3834 261.202 56.3362 261.108C56.1186 260.7 55.92 260.341 55.712 260L55.5985 259.82C55.3431 259.412 55.0783 259.024 54.8135 258.664L54.7473 258.588C53.8183 257.411 52.737 256.363 51.5317 255.472C51.1061 255.15 50.7089 254.866 50.3212 254.619L50.1888 254.525H50.1226L49.9239 254.402C49.7348 254.278 49.5456 254.165 49.347 254.061L48.4013 253.559C47.9757 253.36 47.5406 253.17 47.1056 253.009L46.0558 252.63H46.0085L45.4316 252.488L45.2046 252.431L44.9777 252.375H44.8358L45.46 251.683L46.122 251.011L45.46 250.338L43.4644 248.349L43.4077 248.292L41.781 246.673L41.1095 246V246.009Z" fill="white"/>
<path id="Vector_48" d="M42.7939 252.934V254.288C46.5539 254.719 50.007 256.574 52.4452 259.473C54.8833 262.371 56.1217 266.095 55.9064 269.879C55.6911 273.663 54.0384 277.221 51.2873 279.824C48.5361 282.427 44.895 283.877 41.1104 283.877C37.3259 283.877 33.6847 282.427 30.9335 279.824C28.1824 277.221 26.5297 273.663 26.3144 269.879C26.0991 266.095 27.3375 262.371 29.7757 259.473C32.2138 256.574 35.6669 254.719 39.427 254.288V252.934C35.3062 253.366 31.5081 255.365 28.8163 258.519C26.1244 261.674 24.744 265.743 24.96 269.887C25.1759 274.031 26.9717 277.934 29.9768 280.79C32.9819 283.647 36.9671 285.24 41.1104 285.24C45.2537 285.24 49.2389 283.647 52.244 280.79C55.2492 277.934 57.0449 274.031 57.2608 269.887C57.4768 265.743 56.0964 261.674 53.4046 258.519C50.7127 255.365 46.9146 253.366 42.7939 252.934Z" fill="#2D5967"/>
<path id="Vector_49" d="M40.439 281.179H41.7819V249.922L42.7939 250.935L43.8342 251.977L44.7894 251.021L42.7939 249.022L42.7371 248.965L41.1104 247.336L39.4837 248.965L39.427 249.022L37.4409 251.021L38.3867 251.977L39.427 250.935L40.439 249.922V281.179Z" fill="#2D5967"/>
<path id="Vector_50" d="M46.4726 271.764L44.4204 269.708H53.0645V268.363H44.4204L46.4726 266.308L45.5174 265.351L42.7937 268.079L41.8479 269.036L42.7937 269.992L45.5174 272.72L46.4726 271.764Z" fill="#2D5967"/>
<path id="Vector_51" d="M35.7563 266.308L37.7991 268.363H29.1549V269.708H37.7991L35.7563 271.764L36.702 272.72L39.4258 269.992L40.381 269.036L39.4258 268.079L36.702 265.351L35.7563 266.308Z" fill="#2D5967"/>
</g>
</g>
<g id="Icon Text Label_2">
<text id="IconLabel_3" fill="black" xml:space="preserve" style="white-space: pre" font-family="Oracle Sans" font-size="16" letter-spacing="0em"><tspan x="25.6094" y="303.816">NAT</tspan></text>
<text id="IconLabel_4" fill="black" xml:space="preserve" style="white-space: pre" font-family="Oracle Sans" font-size="16" letter-spacing="0em"><tspan x="11.0859" y="319.816">gateway</tspan></text>
</g>
</g>
</g>
<g id="Gateway_2">
<rect id="Rectangle 699_2" x="598" y="245" width="2" height="76" fill="#F5F4F2"/>
<g id="Icon Master_5">
<g id="Srv-OCI Service Gateway">
<g id="Group 37">
<path id="Vector_52" d="M601.146 284.706C598.435 284.712 595.76 284.086 593.333 282.879C590.906 281.672 588.795 279.916 587.167 277.752C586.218 277.102 585.334 276.362 584.527 275.544C584.131 275.18 583.768 274.782 583.441 274.355C583.288 274.165 582.631 273.289 582.488 273.013C582.345 272.738 582.307 272.728 582.221 272.576L581.964 272.157C581.849 271.957 581.725 271.767 581.621 271.567C581.516 271.368 581.459 271.253 581.382 271.092L581.163 270.625C581.068 270.435 580.973 270.245 580.887 270.045C580.801 269.845 580.744 269.684 580.677 269.493L580.468 269.008C580.391 268.827 580.325 268.637 580.258 268.437C580.191 268.237 580.144 268 580.086 267.781L579.953 267.267C579.953 267.105 579.867 266.934 579.829 266.763C579.791 266.591 579.724 266.154 579.686 265.811L579.629 265.383C579.629 265.25 579.581 265.126 579.562 264.993C579.505 264.441 579.477 263.842 579.477 263.242C579.482 258.591 581.335 254.131 584.629 250.842C587.923 247.553 592.39 245.703 597.048 245.698C597.611 245.698 598.201 245.698 598.792 245.784L599.145 245.831H599.354C599.726 245.831 600.107 245.927 600.479 246.003L600.917 246.174L601.108 246.222C601.46 246.307 601.775 246.383 602.061 246.478L602.556 246.64L602.747 246.707L603.624 247.03C603.824 247.106 604.014 247.201 604.205 247.287H604.31L605.12 247.677L605.768 248.039C606.034 248.191 606.292 248.343 606.54 248.505L607.168 248.933L607.864 249.456C608.171 249.682 608.461 249.93 608.731 250.198C609.559 250.938 610.315 251.753 610.99 252.634C614.103 254.739 616.459 257.785 617.71 261.325C618.961 264.866 619.041 268.713 617.94 272.303C616.838 275.892 614.612 279.034 611.589 281.267C608.567 283.499 604.906 284.705 601.146 284.706Z" fill="white"/>
<path id="Vector_53" d="M597.048 246.173C597.615 246.173 598.181 246.201 598.745 246.259L599.288 246.335C599.659 246.382 600.021 246.43 600.384 246.506C600.603 246.506 600.812 246.611 601.032 246.658L601.984 246.896L602.632 247.125C602.928 247.229 603.214 247.324 603.5 247.438L604.157 247.733L604.948 248.114C605.167 248.228 605.377 248.352 605.587 248.476C605.796 248.599 606.092 248.77 606.33 248.923C606.568 249.075 606.74 249.199 606.94 249.341C607.14 249.484 607.397 249.674 607.626 249.855L608.445 250.55C609.276 251.293 610.032 252.115 610.704 253.004C612.765 254.389 614.498 256.206 615.784 258.329C617.07 260.451 617.876 262.828 618.147 265.294C618.418 267.76 618.148 270.255 617.354 272.605C616.561 274.956 615.263 277.105 613.553 278.904C611.842 280.702 609.759 282.107 607.449 283.019C605.139 283.932 602.657 284.33 600.177 284.187C597.696 284.043 595.277 283.362 593.088 282.19C590.899 281.017 588.992 279.382 587.5 277.399C586.552 276.759 585.671 276.026 584.87 275.21C584.87 275.21 584.012 274.259 583.822 274.05C583.631 273.84 583.021 272.994 582.869 272.737C582.716 272.48 582.612 272.318 582.488 272.109C582.364 271.899 582.164 271.595 582.021 271.338C581.878 271.081 581.792 270.872 581.687 270.644C581.582 270.415 581.42 270.12 581.306 269.844C581.192 269.569 581.116 269.331 581.02 269.074C580.925 268.817 580.82 268.56 580.734 268.294C580.649 268.027 580.582 267.694 580.506 267.399C580.429 267.104 580.372 266.914 580.315 266.667C580.258 266.419 580.201 265.944 580.153 265.582C580.153 265.382 580.077 265.182 580.058 264.983C579.988 264.412 579.953 263.831 579.953 263.242C579.968 258.719 581.774 254.387 584.977 251.189C588.179 247.991 592.519 246.188 597.048 246.173ZM597.048 245.222C592.266 245.237 587.684 247.14 584.303 250.516C580.921 253.892 579.015 258.467 579 263.242C578.999 263.855 579.03 264.468 579.095 265.078C579.095 265.221 579.095 265.363 579.153 265.496C579.21 265.63 579.153 265.639 579.153 265.715V265.915C579.153 266.22 579.229 266.533 579.295 266.866C579.362 267.199 579.381 267.219 579.429 267.399C579.477 267.58 579.429 267.561 579.496 267.637L579.553 267.884C579.61 268.122 579.667 268.351 579.743 268.579C579.82 268.807 579.877 268.979 579.953 269.178L580.039 269.407L580.124 269.645C580.188 269.842 580.261 270.035 580.344 270.225C580.429 270.434 580.534 270.644 580.63 270.843L580.744 271.062L580.849 271.291C580.922 271.463 581.004 271.632 581.096 271.795C581.211 272.004 581.335 272.204 581.459 272.413L581.582 272.613L581.706 272.813C581.802 272.975 581.887 273.127 581.992 273.279C582.097 273.431 582.85 274.459 583.021 274.659C583.365 275.107 583.744 275.527 584.155 275.914C584.953 276.726 585.827 277.459 586.766 278.103C588.363 280.136 590.38 281.803 592.679 282.989C594.979 284.176 597.507 284.854 600.092 284.979C602.677 285.103 605.259 284.671 607.662 283.711C610.065 282.751 612.233 281.286 614.019 279.415C615.804 277.545 617.166 275.313 618.011 272.87C618.856 270.428 619.165 267.832 618.917 265.26C618.668 262.688 617.868 260.199 616.571 257.963C615.274 255.727 613.51 253.796 611.399 252.3C610.716 251.41 609.95 250.585 609.112 249.836C608.842 249.574 608.556 249.33 608.255 249.103L607.53 248.561L606.882 248.124C606.635 247.962 606.368 247.81 606.111 247.657C605.853 247.505 605.663 247.391 605.434 247.277L604.595 246.868L604.481 246.82L603.9 246.563C603.604 246.439 603.3 246.335 603.004 246.23L602.766 246.173L602.251 245.992C601.937 245.897 601.622 245.821 601.298 245.745H601.232L601.041 245.678L600.574 245.574C600.183 245.498 599.793 245.441 599.412 245.393H599.231L598.83 245.307C598.23 245.222 597.63 245.222 597.048 245.222Z" fill="white"/>
<path id="Vector_54" d="M583.365 270.854C582.059 268.53 581.376 265.908 581.383 263.243C581.385 260.576 582.069 257.953 583.371 255.624C584.674 253.296 586.55 251.338 588.823 249.937C591.096 248.535 593.69 247.737 596.359 247.618C599.028 247.5 601.683 248.063 604.072 249.257C605.613 249.497 607.115 249.939 608.541 250.57C605.267 247.437 600.88 245.731 596.347 245.828C591.813 245.924 587.503 247.815 584.365 251.084C581.228 254.352 579.519 258.732 579.616 263.259C579.712 267.785 581.606 272.088 584.88 275.221C584.185 273.838 583.675 272.37 583.365 270.854Z" fill="#2D5967"/>
<path id="Vector_55" d="M601.146 250.083C597.767 250.093 594.467 251.101 591.661 252.981C588.855 254.862 586.671 257.529 585.382 260.648C584.093 263.767 583.758 267.196 584.42 270.505C585.081 273.813 586.709 276.852 589.099 279.237C591.488 281.623 594.532 283.248 597.845 283.909C601.159 284.569 604.594 284.235 607.718 282.949C610.841 281.662 613.513 279.48 615.396 276.679C617.279 273.878 618.289 270.583 618.299 267.209C618.299 262.667 616.492 258.311 613.275 255.099C610.058 251.888 605.695 250.083 601.146 250.083ZM601.146 282.803C598.045 282.803 595.014 281.885 592.436 280.165C589.858 278.444 587.849 275.999 586.663 273.139C585.477 270.279 585.167 267.131 585.772 264.095C586.378 261.059 587.872 258.27 590.065 256.082C592.258 253.893 595.052 252.403 598.094 251.801C601.135 251.198 604.287 251.509 607.151 252.695C610.016 253.881 612.463 255.889 614.184 258.464C615.906 261.039 616.824 264.066 616.822 267.161C616.817 271.31 615.163 275.287 612.224 278.219C609.285 281.152 605.301 282.8 601.146 282.803Z" fill="#2D5967"/>
<path id="Vector_56" d="M605.033 276.02L604.033 275.012L601.86 277.181V257.315L604.033 259.485L605.033 258.476L601.145 254.594L597.257 258.476L598.267 259.485L600.44 257.315V277.181L598.267 275.012L597.257 276.02L601.145 279.902L605.033 276.02Z" fill="#2D5967"/>
<path id="Vector_57" d="M596.485 271.042L600.373 267.161L596.485 263.279L595.475 264.278L597.648 266.447H588.5V267.865H597.648L595.475 270.034L596.485 271.042Z" fill="#2D5967"/>
<path id="Vector_58" d="M613.791 266.447H604.653L606.816 264.278L605.815 263.279L601.918 267.161L605.815 271.042L606.816 270.034L604.653 267.865H613.791V266.447Z" fill="#2D5967"/>
</g>
</g>
<g id="Icon Text Label_3">
<text id="IconLabel_5" fill="black" xml:space="preserve" style="white-space: pre" font-family="Oracle Sans" font-size="16" letter-spacing="0em"><tspan x="572.789" y="302.816">Service</tspan></text>
<text id="IconLabel_6" fill="black" xml:space="preserve" style="white-space: pre" font-family="Oracle Sans" font-size="16" letter-spacing="0em"><tspan x="568.117" y="318.816">Gateway</tspan></text>
</g>
</g>
</g>
<g id="Group 2">
<g id="OCI Region_2">
<rect x="97.5" y="112.5" width="446" height="255" fill="white"/>
<rect x="97.5" y="112.5" width="446" height="255" stroke="#9E9892" stroke-dasharray="2 2"/>
<text id="Tier" fill="#312D2A" xml:space="preserve" style="white-space: pre" font-family="Oracle Sans" font-size="16" letter-spacing="0em"><tspan x="105" y="133.816">Instance Pool</tspan></text>
</g>
</g>
</g>
<g id="Group 6">
<g id="OCI Region_3">
<rect x="112.5" y="152.5" width="200" height="199" rx="3.5" fill="white"/>
<rect x="112.5" y="152.5" width="200" height="199" rx="3.5" stroke="#9E9892"/>
</g>
<path id="Vector 13" d="M313 255H112" stroke="#9E9892" stroke-dasharray="2 2"/>
<g id="Icon Master_6">
<g id="Srv-Oracle REST&#226;&#128;&#168;Data Services">
<g id="Group 437">
<path id="Vector_59" d="M199.422 295.506L195.689 266.652L212.453 262.494L229.292 266.652L225.37 295.506L212.462 301.478L199.422 295.506Z" fill="white"/>
<path id="Vector_60" d="M212.453 262.949L228.76 267.013L224.933 295.23L212.462 300.927L199.859 295.23L196.221 267.013L212.453 262.949ZM212.453 262L212.263 262.057L195.984 266.092L195.167 266.291L195.271 267.136L198.966 295.306L199.033 295.829L199.507 296.047L212.111 301.82L212.51 302L212.909 301.82L225.379 296.047L225.854 295.829L225.921 295.306L229.72 267.136L229.834 266.301L229.007 266.092L212.681 262.057L212.453 262Z" fill="white"/>
<path id="Vector_61" d="M212.453 262.949L196.221 267.013L199.859 295.23L212.462 300.927L224.933 295.23L228.732 267.06L212.453 262.949ZM223.66 294.281L212.453 299.408L201.15 294.281L197.769 268.076L212.453 264.421L227.203 268.076L223.66 294.281Z" fill="#2D5967"/>
<path id="Vector_62" d="M212.491 278.976C211.731 278.976 205.063 279.043 205.063 281.34C205.063 281.34 205.063 281.397 205.063 281.426C205.063 281.454 205.063 281.483 205.063 281.502V293.161C205.063 295.354 211.246 295.468 212.491 295.468C213.735 295.468 219.908 295.354 219.908 293.161V281.502C219.912 281.476 219.912 281.451 219.908 281.426C219.913 281.397 219.913 281.368 219.908 281.34C219.908 279.09 213.212 278.976 212.491 278.976ZM212.491 294.063C208.929 294.063 206.839 293.427 206.469 293.056V290.749C208.421 291.337 210.453 291.615 212.491 291.575C214.525 291.615 216.554 291.336 218.503 290.749V293.056C218.132 293.427 216.062 294.063 212.491 294.063ZM218.503 289.173C218.132 289.534 216.043 290.17 212.491 290.17C208.938 290.17 206.839 289.534 206.469 289.173V286.913C208.421 287.501 210.453 287.779 212.491 287.739C214.525 287.779 216.554 287.5 218.503 286.913V289.173ZM218.503 285.375C218.132 285.736 216.043 286.372 212.491 286.372C208.938 286.372 206.839 285.736 206.469 285.337V282.888C208.419 283.488 210.451 283.78 212.491 283.752C214.527 283.779 216.556 283.487 218.503 282.888V285.375ZM218.408 281.378C217.847 281.758 215.824 282.328 212.491 282.328C209.157 282.328 207.124 281.748 206.573 281.378C207.124 280.998 209.157 280.429 212.491 280.429C215.824 280.429 217.847 280.989 218.408 281.34V281.378Z" fill="#2D5967"/>
<path id="Vector_63" d="M205.671 274.485L204.674 275.435L207.457 278.217L210.23 275.444L209.28 274.495L208.188 275.577V275.416C208.173 273.91 207.568 272.469 206.503 271.404C205.437 270.339 203.996 269.734 202.489 269.719H200.865V271.067H202.413C203.564 271.07 204.666 271.528 205.48 272.341C206.293 273.154 206.751 274.256 206.754 275.406V275.568L205.671 274.485Z" fill="#2D5967"/>
<path id="Vector_64" d="M222.558 269.662C221.052 269.676 219.611 270.281 218.545 271.347C217.48 272.412 216.875 273.852 216.86 275.358V275.52L215.777 274.437L214.78 275.387L217.562 278.159L220.336 275.377L219.339 274.428L218.265 275.51V275.349C218.265 274.2 218.721 273.097 219.533 272.284C220.345 271.471 221.447 271.012 222.596 271.01H224.163V269.662H222.558Z" fill="#2D5967"/>
<path id="Vector_65" d="M211.788 269.947V277.429H213.194V269.947L215.321 272.074L216.318 271.087L212.491 267.26L208.663 271.087L209.651 272.074L211.788 269.947Z" fill="#2D5967"/>
</g>
</g>
<g id="Icon Text Label_4">
<text id="IconLabel_7" fill="black" xml:space="preserve" style="white-space: pre" font-family="Oracle Sans" font-size="16" letter-spacing="0em"><tspan x="121.227" y="319.816">Oracle REST Data Service </tspan></text>
<text id="IconLabel_8" fill="black" xml:space="preserve" style="white-space: pre" font-family="Oracle Sans" font-size="16" letter-spacing="0em"><tspan x="142.445" y="335.816"> with MongoDB API</tspan></text>
</g>
</g>
<g id="Icon Master_7">
<g id="Application-Server">
<g id="Group 191">
<path id="Vector_66" d="M178.199 221.302V218.981L181.119 217.527H181.776V163.978H210.523V217.527H211.179L214.1 218.981V221.302H178.199Z" fill="white"/>
<path id="Vector_67" d="M209.824 164.677V218.227H211.04L213.429 219.415V220.603H178.897V219.415L181.287 218.227H182.475V164.677H209.824ZM211.221 163.279H181.078V216.828H180.952L180.658 216.968L178.269 218.157L177.5 218.548V222.002H214.799V218.548L214.016 218.157L211.641 216.968L211.347 216.828H211.221V163.279Z" fill="white"/>
<path id="Vector_68" d="M244.313 175.876H213.401C212.027 175.876 210.913 176.991 210.913 178.365V207.503C210.913 208.877 212.027 209.991 213.401 209.991H244.313C245.687 209.991 246.801 208.877 246.801 207.503V178.365C246.801 176.991 245.687 175.876 244.313 175.876Z" fill="white"/>
<path id="Vector_69" d="M244.313 176.576C244.788 176.576 245.243 176.764 245.578 177.1C245.914 177.436 246.102 177.891 246.102 178.366V207.517C246.102 207.992 245.914 208.447 245.578 208.782C245.243 209.118 244.788 209.307 244.313 209.307H213.387C212.915 209.303 212.464 209.113 212.131 208.777C211.799 208.442 211.612 207.989 211.612 207.517V178.366C211.61 178.131 211.655 177.899 211.743 177.682C211.832 177.465 211.962 177.267 212.127 177.101C212.292 176.935 212.488 176.802 212.705 176.712C212.921 176.622 213.153 176.576 213.387 176.576H244.313ZM244.313 175.178H213.387C212.544 175.181 211.738 175.519 211.143 176.116C210.548 176.714 210.215 177.522 210.215 178.366V207.517C210.215 208.36 210.548 209.169 211.143 209.766C211.738 210.363 212.544 210.701 213.387 210.705H244.313C245.157 210.701 245.966 210.364 246.562 209.767C247.159 209.17 247.496 208.361 247.5 207.517V178.366C247.5 177.52 247.164 176.709 246.566 176.111C245.969 175.514 245.158 175.178 244.313 175.178Z" fill="white"/>
<path id="Vector_70" d="M203.283 174.787H189.015V177.177H186.639V179.554H189.015V181.931H203.283V179.554H205.659V177.177H203.283V174.787ZM200.908 179.554H191.391V177.177H200.908V179.554Z" fill="#2D5967"/>
<path id="Vector_71" d="M205.673 170.634H186.639V173.01H205.673V170.634Z" fill="#2D5967"/>
<path id="Vector_72" d="M205.673 183.721H186.639V186.096H205.673V183.721Z" fill="#2D5967"/>
<path id="Vector_73" d="M205.673 212.27H186.639V214.646H205.673V212.27Z" fill="#2D5967"/>
<path id="Vector_74" d="M205.673 208.104H186.639V210.48H205.673V208.104Z" fill="#2D5967"/>
<path id="Vector_75" d="M186.639 206.328H205.659V197.939H186.639V206.328ZM189.015 200.372H203.283V203.951H189.015V200.372Z" fill="#2D5967"/>
<path id="Vector_76" d="M186.639 196.206H205.659V187.887H186.639V196.206ZM189.015 190.264H203.283V193.829H189.015V190.264Z" fill="#2D5967"/>
<path id="Vector_77" d="M211.04 218.226H209.852V164.677H182.475V218.226H181.287L178.898 219.414V220.603H213.401V219.414L211.04 218.226ZM184.879 218.226V167.054H207.448V218.226H184.879Z" fill="#2D5967"/>
<path id="Vector_78" d="M244.313 176.575H213.387C213.153 176.575 212.921 176.622 212.705 176.712C212.488 176.802 212.292 176.934 212.127 177.1C211.962 177.267 211.832 177.464 211.743 177.681C211.655 177.898 211.611 178.13 211.612 178.365V207.516C211.612 207.987 211.799 208.439 212.132 208.772C212.465 209.105 212.916 209.292 213.387 209.292H244.313C244.548 209.294 244.78 209.249 244.997 209.161C245.214 209.072 245.411 208.942 245.578 208.777C245.744 208.612 245.876 208.415 245.966 208.199C246.056 207.983 246.102 207.751 246.102 207.516V178.365C246.102 177.89 245.914 177.435 245.578 177.099C245.243 176.764 244.788 176.575 244.313 176.575ZM243.727 178.952V184.908H213.988V178.952H243.727ZM213.988 206.915V187.341H243.727V206.915H213.988Z" fill="#2D5967"/>
<path id="Vector_79" d="M217.552 183.117C218.208 183.117 218.74 182.585 218.74 181.929C218.74 181.273 218.208 180.741 217.552 180.741C216.896 180.741 216.364 181.273 216.364 181.929C216.364 182.585 216.896 183.117 217.552 183.117Z" fill="#2D5967"/>
<path id="Vector_80" d="M221.716 183.117C222.372 183.117 222.904 182.585 222.904 181.929C222.904 181.273 222.372 180.741 221.716 180.741C221.06 180.741 220.528 181.273 220.528 181.929C220.528 182.585 221.06 183.117 221.716 183.117Z" fill="#2D5967"/>
<path id="Vector_81" d="M225.88 183.117C226.537 183.117 227.068 182.585 227.068 181.929C227.068 181.273 226.537 180.741 225.88 180.741C225.224 180.741 224.693 181.273 224.693 181.929C224.693 182.585 225.224 183.117 225.88 183.117Z" fill="#2D5967"/>
<path id="Vector_82" d="M234.797 190.906L232.743 192.108C232.221 191.691 231.636 191.361 231.01 191.129V189.06H226.678V191.129C225.938 191.402 225.256 191.81 224.665 192.332L222.639 191.143L220.571 194.667L222.695 195.911C222.626 196.261 222.594 196.617 222.597 196.974C222.576 197.281 222.576 197.589 222.597 197.896L220.501 199.127L222.569 202.65L224.498 201.518C225.105 202.087 225.823 202.525 226.608 202.804V205.125H230.898V202.804C231.573 202.567 232.199 202.207 232.743 201.741L234.685 202.888L236.754 199.364L234.923 198.232C235.008 197.813 235.05 197.387 235.049 196.96C235.049 196.489 234.992 196.019 234.881 195.561L236.823 194.429L234.797 190.906ZM228.858 200.818C228.094 200.818 227.348 200.592 226.713 200.167C226.079 199.743 225.585 199.139 225.293 198.433C225.002 197.727 224.926 196.951 225.076 196.202C225.226 195.453 225.595 194.765 226.135 194.226C226.676 193.687 227.365 193.32 228.114 193.173C228.863 193.026 229.639 193.104 230.344 193.398C231.048 193.693 231.65 194.189 232.072 194.826C232.494 195.462 232.718 196.21 232.715 196.974C232.715 197.483 232.614 197.988 232.417 198.458C232.22 198.928 231.932 199.355 231.57 199.712C231.207 200.07 230.776 200.352 230.304 200.542C229.831 200.732 229.325 200.826 228.816 200.818H228.858Z" fill="#2D5967"/>
</g>
</g>
<g id="Icon Text Label_5">
<text id="IconLabel_9" fill="black" xml:space="preserve" style="white-space: pre" font-family="Oracle Sans" font-size="16" letter-spacing="0em"><tspan x="146.484" y="239.816">Application Server</tspan></text>
</g>
</g>
</g>
<g id="Group 7">
<g id="OCI Region_4">
<rect x="328.5" y="152.5" width="200" height="199" rx="3.5" fill="white"/>
<rect x="328.5" y="152.5" width="200" height="199" rx="3.5" stroke="#9E9892"/>
</g>
<path id="Vector 13_2" d="M529 255H328" stroke="#9E9892" stroke-dasharray="2 2"/>
<g id="Icon Master_8">
<g id="Srv-Oracle REST&#226;&#128;&#168;Data Services_2">
<g id="Group 437_2">
<path id="Vector_83" d="M415.422 295.506L411.689 266.652L428.453 262.494L445.292 266.652L441.37 295.506L428.462 301.478L415.422 295.506Z" fill="white"/>
<path id="Vector_84" d="M428.453 262.949L444.76 267.013L440.933 295.23L428.462 300.927L415.859 295.23L412.221 267.013L428.453 262.949ZM428.453 262L428.263 262.057L411.984 266.092L411.167 266.291L411.271 267.136L414.966 295.306L415.033 295.829L415.507 296.047L428.111 301.82L428.51 302L428.909 301.82L441.379 296.047L441.854 295.829L441.921 295.306L445.72 267.136L445.834 266.301L445.007 266.092L428.681 262.057L428.453 262Z" fill="white"/>
<path id="Vector_85" d="M428.453 262.949L412.221 267.013L415.859 295.23L428.462 300.927L440.933 295.23L444.732 267.06L428.453 262.949ZM439.66 294.281L428.453 299.408L417.151 294.281L413.769 268.076L428.453 264.421L443.203 268.076L439.66 294.281Z" fill="#2D5967"/>
<path id="Vector_86" d="M428.491 278.976C427.731 278.976 421.063 279.043 421.063 281.34C421.063 281.34 421.063 281.397 421.063 281.426C421.063 281.454 421.063 281.483 421.063 281.502V293.161C421.063 295.354 427.246 295.468 428.491 295.468C429.735 295.468 435.908 295.354 435.908 293.161V281.502C435.912 281.476 435.912 281.451 435.908 281.426C435.913 281.397 435.913 281.368 435.908 281.34C435.908 279.09 429.213 278.976 428.491 278.976ZM428.491 294.063C424.929 294.063 422.84 293.427 422.469 293.056V290.749C424.421 291.337 426.453 291.615 428.491 291.575C430.526 291.615 432.554 291.336 434.503 290.749V293.056C434.132 293.427 432.062 294.063 428.491 294.063ZM434.503 289.173C434.132 289.534 432.043 290.17 428.491 290.17C424.939 290.17 422.84 289.534 422.469 289.173V286.913C424.421 287.501 426.453 287.779 428.491 287.739C430.526 287.779 432.554 287.5 434.503 286.913V289.173ZM434.503 285.375C434.132 285.736 432.043 286.372 428.491 286.372C424.939 286.372 422.84 285.736 422.469 285.337V282.888C424.419 283.488 426.451 283.78 428.491 283.752C430.528 283.779 432.556 283.487 434.503 282.888V285.375ZM434.408 281.378C433.847 281.758 431.824 282.328 428.491 282.328C425.157 282.328 423.124 281.748 422.574 281.378C423.124 280.998 425.157 280.429 428.491 280.429C431.824 280.429 433.847 280.989 434.408 281.34V281.378Z" fill="#2D5967"/>
<path id="Vector_87" d="M421.671 274.485L420.674 275.435L423.457 278.217L426.23 275.444L425.28 274.495L424.188 275.577V275.416C424.173 273.91 423.568 272.469 422.503 271.404C421.437 270.339 419.996 269.734 418.49 269.719H416.865V271.067H418.414C419.564 271.07 420.667 271.528 421.48 272.341C422.293 273.154 422.752 274.256 422.754 275.406V275.568L421.671 274.485Z" fill="#2D5967"/>
<path id="Vector_88" d="M438.558 269.662C437.052 269.676 435.611 270.281 434.545 271.347C433.48 272.412 432.875 273.852 432.86 275.358V275.52L431.777 274.437L430.78 275.387L433.563 278.159L436.336 275.377L435.339 274.428L434.265 275.51V275.349C434.265 274.2 434.721 273.097 435.533 272.284C436.345 271.471 437.447 271.012 438.596 271.01H440.164V269.662H438.558Z" fill="#2D5967"/>
<path id="Vector_89" d="M427.788 269.947V277.429H429.194V269.947L431.321 272.074L432.318 271.087L428.491 267.26L424.663 271.087L425.651 272.074L427.788 269.947Z" fill="#2D5967"/>
</g>
</g>
<g id="Icon Text Label_6">
<text id="IconLabel_10" fill="black" xml:space="preserve" style="white-space: pre" font-family="Oracle Sans" font-size="16" letter-spacing="0em"><tspan x="337.227" y="319.816">Oracle REST Data Service </tspan></text>
<text id="IconLabel_11" fill="black" xml:space="preserve" style="white-space: pre" font-family="Oracle Sans" font-size="16" letter-spacing="0em"><tspan x="358.445" y="335.816"> with MongoDB API</tspan></text>
</g>
</g>
<g id="Icon Master_9">
<g id="Application-Server_2">
<g id="Group 191_2">
<path id="Vector_90" d="M394.199 221.302V218.981L397.119 217.527H397.776V163.978H426.523V217.527H427.179L430.1 218.981V221.302H394.199Z" fill="white"/>
<path id="Vector_91" d="M425.824 164.677V218.227H427.04L429.429 219.415V220.603H394.897V219.415L397.287 218.227H398.475V164.677H425.824ZM427.221 163.279H397.078V216.828H396.952L396.658 216.968L394.269 218.157L393.5 218.548V222.002H430.799V218.548L430.016 218.157L427.641 216.968L427.347 216.828H427.221V163.279Z" fill="white"/>
<path id="Vector_92" d="M460.313 175.876H429.401C428.027 175.876 426.914 176.991 426.914 178.365V207.503C426.914 208.877 428.027 209.991 429.401 209.991H460.313C461.687 209.991 462.801 208.877 462.801 207.503V178.365C462.801 176.991 461.687 175.876 460.313 175.876Z" fill="white"/>
<path id="Vector_93" d="M460.313 176.576C460.788 176.576 461.243 176.764 461.578 177.1C461.914 177.436 462.102 177.891 462.102 178.366V207.517C462.102 207.992 461.914 208.447 461.578 208.782C461.243 209.118 460.788 209.307 460.313 209.307H429.387C428.915 209.303 428.464 209.113 428.131 208.777C427.799 208.442 427.612 207.989 427.612 207.517V178.366C427.61 178.131 427.655 177.899 427.743 177.682C427.832 177.465 427.962 177.267 428.127 177.101C428.292 176.935 428.488 176.802 428.704 176.712C428.921 176.622 429.153 176.576 429.387 176.576H460.313ZM460.313 175.178H429.387C428.544 175.181 427.737 175.519 427.143 176.116C426.548 176.714 426.215 177.522 426.215 178.366V207.517C426.215 208.36 426.548 209.169 427.143 209.766C427.737 210.363 428.544 210.701 429.387 210.705H460.313C461.157 210.701 461.965 210.364 462.562 209.767C463.159 209.17 463.496 208.361 463.499 207.517V178.366C463.499 177.52 463.164 176.709 462.566 176.111C461.969 175.514 461.158 175.178 460.313 175.178Z" fill="white"/>
<path id="Vector_94" d="M419.283 174.787H405.015V177.177H402.639V179.554H405.015V181.931H419.283V179.554H421.659V177.177H419.283V174.787ZM416.907 179.554H407.391V177.177H416.907V179.554Z" fill="#2D5967"/>
<path id="Vector_95" d="M421.673 170.634H402.639V173.01H421.673V170.634Z" fill="#2D5967"/>
<path id="Vector_96" d="M421.673 183.721H402.639V186.096H421.673V183.721Z" fill="#2D5967"/>
<path id="Vector_97" d="M421.673 212.27H402.639V214.646H421.673V212.27Z" fill="#2D5967"/>
<path id="Vector_98" d="M421.673 208.104H402.639V210.48H421.673V208.104Z" fill="#2D5967"/>
<path id="Vector_99" d="M402.639 206.328H421.659V197.939H402.639V206.328ZM405.015 200.372H419.283V203.951H405.015V200.372Z" fill="#2D5967"/>
<path id="Vector_100" d="M402.639 196.206H421.659V187.887H402.639V196.206ZM405.015 190.264H419.283V193.829H405.015V190.264Z" fill="#2D5967"/>
<path id="Vector_101" d="M427.04 218.226H425.852V164.677H398.475V218.226H397.287L394.897 219.414V220.603H429.401V219.414L427.04 218.226ZM400.879 218.226V167.054H423.448V218.226H400.879Z" fill="#2D5967"/>
<path id="Vector_102" d="M460.313 176.575H429.387C429.153 176.575 428.921 176.622 428.705 176.712C428.488 176.802 428.292 176.934 428.127 177.1C427.962 177.267 427.832 177.464 427.743 177.681C427.655 177.898 427.611 178.13 427.612 178.365V207.516C427.612 207.987 427.799 208.439 428.132 208.772C428.465 209.105 428.916 209.292 429.387 209.292H460.313C460.548 209.294 460.78 209.249 460.997 209.161C461.214 209.072 461.411 208.942 461.578 208.777C461.744 208.612 461.876 208.415 461.966 208.199C462.056 207.983 462.102 207.751 462.102 207.516V178.365C462.102 177.89 461.914 177.435 461.578 177.099C461.243 176.764 460.788 176.575 460.313 176.575ZM459.727 178.952V184.908H429.988V178.952H459.727ZM429.988 206.915V187.341H459.727V206.915H429.988Z" fill="#2D5967"/>
<path id="Vector_103" d="M433.552 183.117C434.208 183.117 434.74 182.585 434.74 181.929C434.74 181.273 434.208 180.741 433.552 180.741C432.896 180.741 432.364 181.273 432.364 181.929C432.364 182.585 432.896 183.117 433.552 183.117Z" fill="#2D5967"/>
<path id="Vector_104" d="M437.716 183.117C438.372 183.117 438.904 182.585 438.904 181.929C438.904 181.273 438.372 180.741 437.716 180.741C437.06 180.741 436.528 181.273 436.528 181.929C436.528 182.585 437.06 183.117 437.716 183.117Z" fill="#2D5967"/>
<path id="Vector_105" d="M441.88 183.117C442.537 183.117 443.068 182.585 443.068 181.929C443.068 181.273 442.537 180.741 441.88 180.741C441.224 180.741 440.693 181.273 440.693 181.929C440.693 182.585 441.224 183.117 441.88 183.117Z" fill="#2D5967"/>
<path id="Vector_106" d="M450.797 190.906L448.743 192.108C448.221 191.691 447.636 191.361 447.01 191.129V189.06H442.678V191.129C441.939 191.402 441.256 191.81 440.665 192.332L438.639 191.143L436.571 194.667L438.695 195.911C438.627 196.261 438.594 196.617 438.597 196.974C438.576 197.281 438.576 197.589 438.597 197.896L436.501 199.127L438.569 202.65L440.498 201.518C441.105 202.087 441.823 202.525 442.608 202.804V205.125H446.898V202.804C447.574 202.567 448.199 202.207 448.743 201.741L450.685 202.888L452.754 199.364L450.923 198.232C451.008 197.813 451.05 197.387 451.049 196.96C451.049 196.489 450.992 196.019 450.881 195.561L452.824 194.429L450.797 190.906ZM444.858 200.818C444.094 200.818 443.348 200.592 442.714 200.167C442.079 199.743 441.585 199.139 441.293 198.433C441.002 197.727 440.926 196.951 441.076 196.202C441.226 195.453 441.595 194.765 442.136 194.226C442.676 193.687 443.365 193.32 444.114 193.173C444.863 193.026 445.639 193.104 446.344 193.398C447.048 193.693 447.65 194.189 448.072 194.826C448.494 195.462 448.718 196.21 448.715 196.974C448.715 197.483 448.614 197.988 448.417 198.458C448.221 198.928 447.932 199.355 447.57 199.712C447.207 200.07 446.777 200.352 446.304 200.542C445.831 200.732 445.325 200.826 444.816 200.818H444.858Z" fill="#2D5967"/>
</g>
</g>
<g id="Icon Text Label_7">
<text id="IconLabel_12" fill="black" xml:space="preserve" style="white-space: pre" font-family="Oracle Sans" font-size="16" letter-spacing="0em"><tspan x="362.484" y="239.816">Application Server</tspan></text>
</g>
</g>
</g>
</g>
<defs>
<clipPath id="clip0_20270_4989">
<rect width="640" height="600" fill="white"/>
</clipPath>
</defs>
</svg>
