<svg width="1241" height="388" viewBox="0 0 1241 388" fill="none" xmlns="http://www.w3.org/2000/svg">
<g id="traffic-route-from-vcn-to-on-prem">
<rect width="1241" height="388" fill="white"/>
<g id="Group 1282">
<g id="VCN box_New">
<rect id="Rectangle 28" x="1042" y="65.9712" width="198" height="210" stroke="#AA643B" stroke-width="2" stroke-dasharray="8 4"/>
<g id="Icon Master">
<g id="Virtual-Cloud-Network-VCN_red">
<g id="Group 39">
<path id="Vector" d="M1219.42 88.5102C1218.16 88.5097 1216.94 88.077 1215.97 87.285C1215 86.4929 1214.32 85.3896 1214.07 84.1603H1207.6C1207.41 85.0545 1207 85.8874 1206.41 86.5832C1205.82 87.2791 1205.06 87.8156 1204.21 88.1439C1203.36 88.4721 1202.44 88.5817 1201.53 88.4626C1200.62 88.3435 1199.76 87.9995 1199.03 87.4619C1198.29 86.9244 1197.7 86.2104 1197.3 85.3852C1196.91 84.56 1196.73 83.6498 1196.78 82.7376C1196.83 81.8254 1197.11 80.9403 1197.59 80.163C1198.07 79.3857 1198.74 78.7409 1199.53 78.2875L1197.53 72.1411C1197.34 72.1547 1197.14 72.1547 1196.94 72.1411C1196.05 72.1431 1195.18 71.9289 1194.39 71.5169C1193.61 71.105 1192.93 70.5077 1192.43 69.7766C1191.92 69.0456 1191.6 68.2028 1191.5 67.3209C1191.39 66.4391 1191.5 65.5448 1191.82 64.7152C1192.14 63.8857 1192.65 63.1458 1193.32 62.5595C1193.99 61.9733 1194.79 61.5582 1195.65 61.3502C1196.51 61.1422 1197.41 61.1475 1198.27 61.3657C1199.13 61.5838 1199.93 62.0083 1200.59 62.6024L1205.85 58.8726C1205.53 58.1674 1205.36 57.4028 1205.36 56.6293C1205.36 55.1781 1205.94 53.7864 1206.96 52.7603C1207.99 51.7342 1209.38 51.1577 1210.83 51.1577C1212.28 51.1577 1213.67 51.7342 1214.7 52.7603C1215.72 53.7864 1216.3 55.1781 1216.3 56.6293C1216.3 57.4021 1216.14 58.1667 1215.82 58.8726L1221.09 62.6389C1222.09 61.7257 1223.39 61.2182 1224.74 61.2163C1226.19 61.2163 1227.58 61.7927 1228.6 62.8188C1229.63 63.845 1230.21 65.2367 1230.21 66.6878C1230.21 68.139 1229.63 69.5307 1228.6 70.5568C1227.58 71.5829 1226.19 72.1594 1224.74 72.1594C1224.55 72.1594 1224.35 72.1594 1224.16 72.1594L1222.15 78.3058C1223.2 78.9051 1224.02 79.8351 1224.48 80.9505C1224.95 82.0659 1225.03 83.304 1224.72 84.4714C1224.41 85.6389 1223.72 86.6701 1222.76 87.404C1221.8 88.1379 1220.62 88.5333 1219.42 88.5284V88.5102Z" fill="white"/>
<path id="Vector_2" d="M1210.84 51.577C1211.71 51.579 1212.56 51.8059 1213.31 52.2356C1214.07 52.6653 1214.7 53.2832 1215.14 54.029C1215.59 54.7748 1215.83 55.623 1215.85 56.491C1215.87 57.359 1215.66 58.2172 1215.25 58.9818L1221.09 63.2314C1221.66 62.6323 1222.38 62.1844 1223.16 61.9277C1223.95 61.6711 1224.79 61.6137 1225.61 61.7607C1226.42 61.9076 1227.19 62.2544 1227.83 62.7699C1228.48 63.2855 1228.99 63.9538 1229.32 64.715C1229.65 65.4763 1229.78 66.3068 1229.71 67.1324C1229.64 67.958 1229.36 68.7529 1228.91 69.446C1228.45 70.1391 1227.84 70.7089 1227.11 71.1043C1226.38 71.4998 1225.57 71.7087 1224.74 71.7123C1224.43 71.7165 1224.13 71.6921 1223.83 71.6393L1221.59 78.5244C1222.37 78.9013 1223.04 79.4746 1223.54 80.1881C1224.03 80.9016 1224.33 81.7309 1224.41 82.5951C1224.49 83.4593 1224.34 84.3288 1223.98 85.1186C1223.62 85.9084 1223.06 86.5915 1222.36 87.1011C1221.66 87.6107 1220.84 87.9295 1219.97 88.0262C1219.11 88.123 1218.24 87.9944 1217.44 87.653C1216.65 87.3116 1215.95 86.7692 1215.43 86.0786C1214.9 85.3881 1214.56 84.5731 1214.45 83.7132H1207.21C1207.1 84.5731 1206.76 85.388 1206.23 86.078C1205.71 86.7681 1205.01 87.3099 1204.21 87.6503C1203.41 87.9908 1202.54 88.1183 1201.68 88.0204C1200.82 87.9225 1200 87.6025 1199.3 87.0918C1198.59 86.581 1198.04 85.897 1197.68 85.1065C1197.32 84.316 1197.17 83.4461 1197.25 82.5818C1197.33 81.7176 1197.63 80.8885 1198.13 80.1758C1198.62 79.463 1199.29 78.8908 1200.08 78.5153L1197.84 71.6393C1197.54 71.6952 1197.24 71.7226 1196.93 71.7214C1196.1 71.7199 1195.28 71.5123 1194.55 71.1171C1193.82 70.7219 1193.2 70.1515 1192.74 69.457C1192.29 68.7626 1192.01 67.9657 1191.94 67.1378C1191.87 66.3099 1192 65.4768 1192.33 64.7132C1192.65 63.9496 1193.17 63.2793 1193.82 62.7623C1194.47 62.2453 1195.24 61.8979 1196.05 61.751C1196.87 61.6042 1197.71 61.6626 1198.5 61.9209C1199.29 62.1793 1200 62.6295 1200.58 63.2314L1206.42 58.9818C1206.01 58.2165 1205.8 57.3575 1205.82 56.4887C1205.84 55.62 1206.09 54.7711 1206.53 54.0251C1206.98 53.279 1207.61 52.6613 1208.36 52.2322C1209.12 51.8032 1209.97 51.5774 1210.84 51.577ZM1210.84 50.665C1209.27 50.665 1207.76 51.2893 1206.65 52.4006C1205.53 53.512 1204.91 55.0196 1204.91 56.5926C1204.91 57.3062 1205.04 58.014 1205.29 58.6809L1200.63 62.055C1199.89 61.4637 1199.02 61.0587 1198.09 60.8739C1197.16 60.6891 1196.2 60.7298 1195.29 60.9927C1194.38 61.2556 1193.54 61.733 1192.85 62.385C1192.17 63.0369 1191.64 63.8444 1191.33 64.7398C1191.02 65.6353 1190.93 66.5926 1191.06 67.5316C1191.19 68.4706 1191.55 69.364 1192.1 70.1369C1192.65 70.9099 1193.37 71.5399 1194.22 71.9742C1195.06 72.4086 1195.99 72.6346 1196.94 72.6333H1197.21L1199.03 78.1049C1198.23 78.6331 1197.57 79.3468 1197.11 80.185C1196.65 81.0231 1196.4 81.9608 1196.37 82.9178C1196.35 83.8748 1196.56 84.8226 1196.99 85.6803C1197.41 86.5379 1198.04 87.2799 1198.81 87.8427C1199.59 88.4055 1200.49 88.7725 1201.43 88.9122C1202.38 89.0518 1203.35 88.9601 1204.25 88.6448C1205.15 88.3295 1205.97 87.8 1206.62 87.1016C1207.27 86.4031 1207.75 85.5566 1208.01 84.6343H1213.75C1214 85.5599 1214.48 86.41 1215.13 87.1118C1215.78 87.8136 1216.6 88.3461 1217.5 88.6638C1218.41 88.9815 1219.38 89.0748 1220.33 88.9357C1221.28 88.7967 1222.18 88.4294 1222.95 87.8654C1223.73 87.3014 1224.36 86.5575 1224.78 85.6974C1225.21 84.8374 1225.42 83.8868 1225.4 82.9272C1225.38 81.9676 1225.12 81.0275 1224.66 80.1877C1224.2 79.3478 1223.53 78.6331 1222.73 78.1049L1224.56 72.6333H1224.74C1225.54 72.6781 1226.35 72.5579 1227.11 72.2802C1227.87 72.0026 1228.56 71.5732 1229.14 71.0184C1229.73 70.4636 1230.2 69.795 1230.52 69.0535C1230.84 68.312 1231 67.5131 1231 66.7058C1231 65.8985 1230.84 65.0997 1230.52 64.3582C1230.2 63.6167 1229.73 62.9481 1229.14 62.3933C1228.56 61.8384 1227.87 61.4091 1227.11 61.1314C1226.35 60.8537 1225.54 60.7336 1224.74 60.7783C1223.4 60.775 1222.09 61.232 1221.05 62.0732L1216.4 58.6991C1216.65 58.0305 1216.77 57.3235 1216.77 56.6108C1216.77 55.8304 1216.62 55.0575 1216.32 54.3361C1216.03 53.6148 1215.59 52.9593 1215.04 52.4071C1214.49 51.8548 1213.83 51.4167 1213.11 51.1178C1212.39 50.8189 1211.62 50.665 1210.84 50.665V50.665Z" fill="white"/>
<path id="Vector_3" d="M1224.74 61.6709C1224.06 61.6691 1223.38 61.8065 1222.76 62.0746C1222.13 62.3428 1221.56 62.736 1221.09 63.2303L1215.25 58.9807C1215.67 58.2153 1215.87 57.3554 1215.86 56.4851C1215.84 55.6149 1215.59 54.7642 1215.15 54.0164C1214.7 53.2685 1214.07 52.6493 1213.32 52.2192C1212.56 51.7891 1211.71 51.563 1210.84 51.563C1209.97 51.563 1209.11 51.7891 1208.35 52.2192C1207.6 52.6493 1206.97 53.2685 1206.52 54.0164C1206.08 54.7642 1205.83 55.6149 1205.81 56.4851C1205.8 57.3554 1206.01 58.2153 1206.42 58.9807L1200.57 63.2303C1200 62.6333 1199.28 62.1875 1198.5 61.9327C1197.71 61.6779 1196.87 61.622 1196.06 61.77C1195.24 61.918 1194.48 62.2653 1193.83 62.7809C1193.18 63.2965 1192.67 63.9643 1192.35 64.7249C1192.02 65.4855 1191.89 66.3151 1191.96 67.1398C1192.03 67.9644 1192.31 68.7585 1192.76 69.4512C1193.21 70.1439 1193.83 70.7136 1194.56 71.1095C1195.28 71.5054 1196.1 71.7153 1196.92 71.7203C1197.23 71.7216 1197.53 71.6941 1197.83 71.6383L1200.07 78.5051C1199.29 78.8806 1198.61 79.4528 1198.12 80.1656C1197.62 80.8783 1197.32 81.7074 1197.24 82.5716C1197.17 83.4359 1197.31 84.3058 1197.67 85.0963C1198.03 85.8868 1198.59 86.5708 1199.29 87.0816C1199.99 87.5923 1200.81 87.9123 1201.67 88.0102C1202.53 88.1081 1203.41 87.9806 1204.2 87.6401C1205 87.2997 1205.7 86.7579 1206.22 86.0678C1206.75 85.3778 1207.09 84.5629 1207.2 83.703H1214.44C1214.56 84.5629 1214.89 85.3779 1215.42 86.0684C1215.94 86.759 1216.64 87.3014 1217.44 87.6428C1218.23 87.9841 1219.1 88.1127 1219.97 88.016C1220.83 87.9193 1221.65 87.6005 1222.35 87.0909C1223.05 86.5813 1223.61 85.8982 1223.97 85.1084C1224.33 84.3186 1224.48 83.4491 1224.4 82.5849C1224.32 81.7207 1224.02 80.8914 1223.53 80.1779C1223.04 79.4644 1222.37 78.8911 1221.59 78.5142L1223.83 71.6383C1224.13 71.6941 1224.43 71.7216 1224.74 71.7203C1225.42 71.7616 1226.11 71.6625 1226.75 71.4291C1227.4 71.1957 1227.98 70.8329 1228.48 70.3632C1228.98 69.8934 1229.38 69.3265 1229.65 68.6973C1229.92 68.0682 1230.06 67.3901 1230.06 66.7047C1230.06 66.0194 1229.92 65.3413 1229.65 64.7121C1229.38 64.083 1228.98 63.5161 1228.48 63.0463C1227.98 62.5765 1227.4 62.2138 1226.75 61.9804C1226.11 61.747 1225.42 61.6479 1224.74 61.6891V61.6709ZM1219.42 86.7124C1218.69 86.7124 1217.99 86.4985 1217.39 86.0976C1216.79 85.6968 1216.32 85.1271 1216.05 84.4606C1215.77 83.7941 1215.7 83.0606 1215.84 82.3531C1215.98 81.6455 1216.33 80.9955 1216.84 80.4854C1217.35 79.9752 1218 79.6278 1218.7 79.4871C1219.41 79.3463 1220.14 79.4186 1220.81 79.6946C1221.48 79.9707 1222.05 80.4383 1222.45 81.0381C1222.85 81.638 1223.06 82.3432 1223.06 83.0647C1223.06 84.0321 1222.68 84.9599 1221.99 85.644C1221.31 86.3281 1220.38 86.7124 1219.42 86.7124ZM1207.21 82.3625C1207.06 81.2302 1206.53 80.1838 1205.7 79.3987L1208.43 75.5778C1209.17 75.9668 1209.98 76.1703 1210.81 76.1705C1211.64 76.1734 1212.45 75.9696 1213.18 75.5778L1215.92 79.3987C1215.08 80.1829 1214.55 81.2292 1214.39 82.3625H1207.21ZM1198.56 83.0373C1198.56 82.3159 1198.78 81.6106 1199.18 81.0108C1199.58 80.4109 1200.15 79.9434 1200.81 79.6673C1201.48 79.3912 1202.21 79.319 1202.92 79.4597C1203.63 79.6005 1204.28 79.9479 1204.79 80.458C1205.3 80.9681 1205.64 81.6181 1205.78 82.3257C1205.93 83.0333 1205.85 83.7667 1205.58 84.4332C1205.3 85.0998 1204.83 85.6695 1204.23 86.0703C1203.63 86.4711 1202.93 86.685 1202.21 86.685C1201.24 86.685 1200.31 86.3007 1199.63 85.6166C1198.95 84.9326 1198.56 84.0048 1198.56 83.0373ZM1196.94 63.0205C1197.66 63.0205 1198.37 63.2345 1198.97 63.6353C1199.57 64.0361 1200.03 64.6058 1200.31 65.2723C1200.59 65.9389 1200.66 66.6723 1200.52 67.3799C1200.38 68.0875 1200.03 68.7374 1199.52 69.2476C1199.01 69.7577 1198.36 70.1051 1197.65 70.2459C1196.95 70.3866 1196.21 70.3144 1195.55 70.0383C1194.88 69.7622 1194.31 69.2947 1193.91 68.6948C1193.51 68.0949 1193.3 67.3897 1193.3 66.6683C1193.3 65.7008 1193.68 64.773 1194.36 64.0889C1195.05 63.4049 1195.97 63.0205 1196.94 63.0205ZM1207.16 56.6371C1207.16 55.9156 1207.37 55.2104 1207.77 54.6105C1208.17 54.0106 1208.74 53.5431 1209.41 53.267C1210.07 52.9909 1210.81 52.9187 1211.51 53.0595C1212.22 53.2002 1212.87 53.5476 1213.38 54.0577C1213.89 54.5679 1214.24 55.2178 1214.38 55.9254C1214.52 56.633 1214.45 57.3665 1214.17 58.033C1213.9 58.6995 1213.43 59.2692 1212.83 59.67C1212.23 60.0708 1211.52 60.2848 1210.8 60.2848C1210.32 60.2848 1209.84 60.189 1209.4 60.0028C1208.95 59.8167 1208.55 59.5439 1208.21 59.2003C1207.87 58.8567 1207.6 58.4492 1207.42 58.0014C1207.24 57.5536 1207.15 57.0743 1207.16 56.5915V56.6371ZM1219.79 67.5802L1215.37 68.9937C1215.01 68.2393 1214.47 67.5862 1213.79 67.0928C1213.12 66.5994 1212.33 66.2812 1211.51 66.1667V61.6071C1212.63 61.4568 1213.68 60.9222 1214.46 60.0933L1220.32 64.3428C1219.92 65.0733 1219.71 65.8917 1219.72 66.723C1219.72 67.0071 1219.74 67.2907 1219.79 67.5711V67.5802ZM1214.51 71.164C1214.51 71.8855 1214.3 72.5907 1213.9 73.1906C1213.5 73.7905 1212.93 74.258 1212.26 74.5341C1211.6 74.8102 1210.86 74.8824 1210.16 74.7417C1209.45 74.6009 1208.8 74.2535 1208.29 73.7434C1207.78 73.2332 1207.43 72.5833 1207.29 71.8757C1207.15 71.1681 1207.22 70.4347 1207.5 69.7681C1207.78 69.1016 1208.24 68.5319 1208.84 68.1311C1209.44 67.7303 1210.15 67.5163 1210.87 67.5163C1211.83 67.5163 1212.76 67.8994 1213.44 68.5815C1214.13 69.2636 1214.51 70.1891 1214.51 71.1549V71.164ZM1210.16 61.6071V66.1667C1209.33 66.2794 1208.55 66.596 1207.87 67.0879C1207.2 67.5798 1206.66 68.2316 1206.3 68.9845L1201.87 67.5711C1201.93 67.2705 1201.96 66.9651 1201.95 66.6591C1201.95 65.8505 1201.74 65.0557 1201.36 64.3428L1207.21 60.0841C1207.99 60.9146 1209.03 61.4523 1210.16 61.6071ZM1201.46 68.9025L1205.89 70.316C1205.83 70.6166 1205.81 70.922 1205.81 71.2279C1205.81 71.9111 1205.94 72.5876 1206.21 73.2152C1206.48 73.8428 1206.88 74.408 1207.38 74.8756L1204.64 78.7057C1203.92 78.3099 1203.1 78.103 1202.27 78.1038C1201.97 78.102 1201.66 78.1294 1201.36 78.1859L1199.12 71.2188C1200.14 70.7343 1200.97 69.918 1201.47 68.9025H1201.46ZM1219.42 78.0217C1218.59 78.023 1217.78 78.2265 1217.05 78.6145L1214.31 74.8026C1214.81 74.3337 1215.2 73.7682 1215.47 73.1409C1215.74 72.5136 1215.88 71.8378 1215.88 71.1549C1215.88 70.849 1215.85 70.5436 1215.8 70.243L1220.18 68.8478C1220.68 69.8791 1221.51 70.7139 1222.53 71.2188L1220.3 78.0947C1220.01 78.0436 1219.71 78.0192 1219.42 78.0217ZM1221.09 66.6956C1221.09 65.9742 1221.31 65.2689 1221.71 64.6691C1222.11 64.0692 1222.68 63.6017 1223.34 63.3256C1224.01 63.0495 1224.74 62.9772 1225.45 63.118C1226.16 63.2587 1226.81 63.6062 1227.32 64.1163C1227.83 64.6264 1228.17 65.2764 1228.31 65.984C1228.45 66.6916 1228.38 67.425 1228.11 68.0915C1227.83 68.7581 1227.36 69.3278 1226.76 69.7286C1226.16 70.1294 1225.46 70.3433 1224.74 70.3433C1223.77 70.3433 1222.84 69.959 1222.16 69.2749C1221.48 68.5908 1221.09 67.663 1221.09 66.6956Z" fill="#AA643B"/>
</g>
</g>
</g>
<text id="VCN" fill="#AE562C" xml:space="preserve" style="white-space: pre" font-family="Oracle Sans" font-size="16" font-weight="600" letter-spacing="0em"><tspan x="1050" y="87.816">VCN-1</tspan></text>
<text id="00.0.00.0/00" fill="#312D2A" xml:space="preserve" style="white-space: pre" font-family="Oracle Sans" font-size="16" font-weight="300" letter-spacing="0em"><tspan x="1050" y="103.816">10.1.0.0/16</tspan></text>
</g>
<g id="DO NOT USE THIS - OCI Subnet Boxes">
<rect x="1059.5" y="114.5" width="171" height="152" stroke="#AE562C" stroke-dasharray="8 4"/>
<text id="Subnet" fill="#AE562C" xml:space="preserve" style="white-space: pre" font-family="Oracle Sans" font-size="16" font-weight="600" letter-spacing="0em"><tspan x="1067" y="135.816">VCN-1-Subnet</tspan></text>
<text id="00.0.00.0/00_2" fill="#312D2A" xml:space="preserve" style="white-space: pre" font-family="Oracle Sans" font-size="16" font-weight="300" letter-spacing="0em"><tspan x="1067" y="151.816">10.1.1.0/24</tspan></text>
</g>
<g id="OCI Section Boxes">
<rect x="0.5" y="114.5" width="194" height="152" rx="3.5" fill="#F5F4F2"/>
<rect x="0.5" y="114.5" width="194" height="152" rx="3.5" stroke="#9E9892"/>
<text id="OCI Region" fill="#312D2A" xml:space="preserve" style="white-space: pre" font-family="Oracle Sans" font-size="16" font-weight="bold" letter-spacing="0em"><tspan x="8" y="135.816">On-premises Network</tspan></text>
<text id="OCI Region_2" fill="#312D2A" xml:space="preserve" style="white-space: pre" font-family="Oracle Sans" font-size="16" letter-spacing="0em"><tspan x="8" y="151.816">10.254.0.0/16</tspan></text>
</g>
<path id="Vector 63" d="M117.293 184.293C116.902 184.683 116.902 185.317 117.293 185.707L123.657 192.071C124.047 192.462 124.681 192.462 125.071 192.071C125.462 191.681 125.462 191.047 125.071 190.657L119.414 185L125.071 179.343C125.462 178.953 125.462 178.319 125.071 177.929C124.681 177.538 124.047 177.538 123.657 177.929L117.293 184.293ZM118 186H119.994V184H118V186ZM123.981 186H127.968V184H123.981V186ZM131.956 186H135.943V184H131.956V186ZM139.93 186H143.917V184H139.93V186ZM147.905 186H151.892V184H147.905V186ZM155.879 186H159.867V184H155.879V186ZM163.854 186H167.841V184H163.854V186ZM171.828 186H175.816V184H171.828V186ZM179.803 186H183.79V184H179.803V186ZM187.778 186H191.765V184H187.778V186ZM195.752 186H199.739V184H195.752V186ZM203.727 186H207.714V184H203.727V186ZM211.701 186H215.689V184H211.701V186ZM219.676 186H223.663V184H219.676V186ZM227.65 186H231.638V184H227.65V186ZM235.625 186H239.612V184H235.625V186ZM243.6 186H247.587V184H243.6V186ZM251.574 186H255.561V184H251.574V186ZM259.549 186H263.536V184H259.549V186ZM267.523 186H271.511V184H267.523V186ZM275.498 186H279.485V184H275.498V186ZM283.472 186H287.46V184H283.472V186ZM291.447 186H295.434V184H291.447V186ZM299.422 186H303.409V184H299.422V186ZM307.396 186H311.384V184H307.396V186ZM315.371 186H319.358V184H315.371V186ZM323.345 186H327.333V184H323.345V186ZM331.32 186H335.307V184H331.32V186ZM339.295 186H343.282V184H339.295V186ZM347.269 186H351.256V184H347.269V186ZM355.244 186H359.231V184H355.244V186ZM363.218 186H367.206V184H363.218V186ZM371.193 186H375.18V184H371.193V186ZM379.167 186H383.155V184H379.167V186ZM387.142 186H391.129V184H387.142V186ZM395.117 186H399.104V184H395.117V186ZM403.091 186H407.078V184H403.091V186ZM411.066 186H415.053V184H411.066V186ZM419.04 186H423.027V184H419.04V186ZM427.015 186H431.002V184H427.015V186ZM434.989 186H438.977V184H434.989V186ZM442.964 186H446.951V184H442.964V186ZM450.938 186H454.926V184H450.938V186ZM458.913 186H462.9V184H458.913V186ZM466.887 186H470.875V184H466.887V186ZM474.862 186H478.849V184H474.862V186ZM482.837 186H486.824V184H482.837V186ZM490.811 186H494.798V184H490.811V186ZM498.786 186H502.773V184H498.786V186ZM506.76 186H510.747V184H506.76V186ZM514.735 186H518.722V184H514.735V186ZM522.709 186H526.697V184H522.709V186ZM530.684 186H534.671V184H530.684V186ZM538.658 186H542.646V184H538.658V186ZM546.633 186H550.62V184H546.633V186ZM554.607 186H558.595V184H554.607V186ZM562.582 186H566.569V184H562.582V186ZM570.557 186H574.544V184H570.557V186ZM578.531 186H582.518V184H578.531V186ZM586.506 186H590.493V184H586.506V186ZM594.48 186H598.467V184H594.48V186ZM602.455 186H606.442V184H602.455V186ZM610.429 186H614.417V184H610.429V186ZM618.404 186H622.391V184H618.404V186ZM626.378 186H630.366V184H626.378V186ZM634.353 186H638.34V184H634.353V186ZM642.328 186H646.315V184H642.328V186ZM650.302 186H654.29V184H650.302V186ZM658.277 186H662.264V184H658.277V186ZM666.251 186H670.239V184H666.251V186ZM674.226 186H678.213V184H674.226V186ZM682.201 186H686.188V184H682.201V186ZM690.175 186H694.163V184H690.175V186ZM698.15 186H702.137V184H698.15V186ZM706.125 186H710.112V184H706.125V186ZM714.099 186H718.086V184H714.099V186ZM722.074 186H726.061V184H722.074V186ZM730.048 186H734.036V184H730.048V186ZM738.023 186H742.01V184H738.023V186ZM745.998 186H749.985V184H745.998V186ZM753.972 186H757.959V184H753.972V186ZM761.947 186H765.934V184H761.947V186ZM769.921 186H773.909V184H769.921V186ZM777.896 186H781.883V184H777.896V186ZM785.871 186H789.858V184H785.871V186ZM793.845 186H797.833V184H793.845V186ZM801.82 186H805.807V184H801.82V186ZM809.794 186H813.782V184H809.794V186ZM817.769 186H821.756V184H817.769V186ZM825.744 186H829.731V184H825.744V186ZM833.718 186H837.706V184H833.718V186ZM841.693 186H845.68V184H841.693V186ZM849.667 186H853.655V184H849.667V186ZM857.642 186H861.629V184H857.642V186ZM865.617 186H869.604V184H865.617V186ZM873.591 186H877.579V184H873.591V186ZM881.566 186H885.553V184H881.566V186ZM889.541 186H893.528V184H889.541V186ZM897.515 186H901.502V184H897.515V186ZM905.49 186H909.477V184H905.49V186ZM913.464 186H917.452V184H913.464V186ZM921.439 186H925.426V184H921.439V186ZM929.414 186H933.401V184H929.414V186ZM937.388 186H941.375V184H937.388V186ZM945.363 186H949.35V184H945.363V186ZM953.337 186H957.325V184H953.337V186ZM961.312 186H965.299V184H961.312V186ZM969.287 186H973.274V184H969.287V186ZM977.261 186H981.249V184H977.261V186ZM985.236 186H989.223V184H985.236V186ZM993.21 186H997.198V184H993.21V186ZM1001.19 186H1005.17V184H1001.19V186ZM1009.16 186H1013.15V184H1009.16V186ZM1017.13 186H1021.12V184H1017.13V186ZM1025.11 186H1029.1V184H1025.11V186ZM1033.08 186H1037.07V184H1033.08V186ZM1041.06 186H1045.05V184H1041.06V186ZM1049.03 186H1053.02V184H1049.03V186ZM1057.01 186H1059V184H1057.01V186Z" fill="#312D2A"/>
<g id="Special Connector">
<path id="Vector 46" d="M117 197L404 197" stroke="#312D2A" stroke-width="2"/>
<g id="Group 1237">
<g id="Background color=white bg">
<rect width="109" height="14" transform="translate(243 190)" fill="white"/>
<text id="Yes" fill="#312D2A" xml:space="preserve" style="white-space: pre" font-family="Oracle Sans" font-size="14" letter-spacing="0em"><tspan x="247.29" y="202.089">FastConnect VC</tspan></text>
</g>
<g id="Icon Master_2">
<g id="FastConnect">
<g id="Group">
<g id="Group_2">
<g id="Group_3">
<path id="Vector_4" d="M219 210.686C218.801 210.686 218.602 210.686 218.336 210.686C216.608 210.487 215.014 209.623 213.95 208.294C213.685 208.294 213.485 208.36 213.22 208.36C213.02 208.36 212.887 208.36 212.688 208.36C211.293 208.227 209.964 207.563 209.034 206.5H203.585V204.639H208.037C207.771 203.909 207.705 203.111 207.771 202.314V202.247H201.525V200.387H206.641C206.043 199.722 205.578 198.859 205.379 197.995H199.333V196.134H205.313C205.445 195.337 205.711 194.54 206.243 193.875H201.525V192.015H208.17C208.103 191.483 208.037 190.952 208.103 190.42C208.103 190.154 208.17 189.889 208.236 189.623H203.585V187.629H209.1C209.432 187.164 209.764 186.766 210.23 186.367C211.293 185.503 212.555 185.038 213.884 185.038C214.083 185.038 214.283 185.038 214.482 185.038C214.881 185.105 215.213 185.171 215.545 185.237C217.007 183.975 218.867 183.311 220.794 183.311C221.06 183.311 221.326 183.311 221.592 183.377C224.249 183.643 226.641 185.237 227.904 187.563H234.283V189.423H228.635C228.768 189.889 228.834 190.354 228.901 190.819C229.499 191.085 230.03 191.417 230.495 191.882H236.475V193.742H231.957C232.356 194.473 232.622 195.204 232.688 196.002H238.668V197.862H232.688C232.555 198.726 232.289 199.523 231.891 200.254H236.542V202.115H230.296C230.23 202.181 230.163 202.247 230.097 202.247C230.163 202.713 230.163 203.111 230.097 203.576C230.097 203.909 230.03 204.241 229.897 204.507H234.15L234.216 204.706C234.216 204.772 234.283 204.905 234.216 206.035V206.367H228.901C228.037 207.629 226.509 208.36 224.914 208.36C224.715 208.36 224.582 208.36 224.382 208.36C224.249 208.36 224.117 208.36 223.984 208.294C222.788 209.822 220.927 210.686 219 210.686Z" fill="white"/>
<path id="Vector_5" d="M220.794 183.776C221.06 183.776 221.326 183.776 221.591 183.843C224.316 184.108 226.575 185.77 227.771 188.029H234.017V189.225H228.236C228.435 189.823 228.568 190.487 228.635 191.152C229.299 191.417 229.897 191.816 230.429 192.281H236.209V193.477H231.425C232.023 194.341 232.355 195.338 232.422 196.401H238.402V197.597H232.422C232.422 197.597 232.422 197.597 232.422 197.663C232.289 198.793 231.89 199.79 231.292 200.72H236.209V201.916H230.229C230.096 202.049 229.963 202.182 229.764 202.248C229.831 202.713 229.897 203.178 229.831 203.643C229.764 204.108 229.698 204.574 229.498 204.972H234.017C234.083 205.105 234.017 206.168 234.017 206.168H228.834C227.904 207.364 226.442 208.162 224.847 208.162C224.714 208.162 224.515 208.162 224.316 208.162C224.116 208.162 223.983 208.095 223.784 208.095C222.721 209.491 220.927 210.354 219 210.354C218.801 210.354 218.601 210.354 218.402 210.354C216.674 210.155 215.146 209.291 214.15 207.962C213.884 208.029 213.551 208.029 213.286 208.029C213.086 208.029 212.953 208.029 212.754 208.029C211.359 207.896 210.096 207.231 209.233 206.168H203.917V204.972H208.502C208.169 204.175 207.97 203.245 208.103 202.381C208.103 202.248 208.169 202.049 208.169 201.916H201.857V200.72H207.439C206.508 199.922 205.844 198.859 205.645 197.663H199.664V196.467H205.645V196.401C205.777 195.338 206.243 194.341 206.907 193.544H201.857V192.348H208.568C208.568 192.348 208.568 192.348 208.635 192.348C208.502 191.75 208.435 191.085 208.502 190.421C208.568 190.022 208.635 189.623 208.767 189.225H203.917V187.962H209.233C209.565 187.497 209.963 187.032 210.362 186.633C211.359 185.836 212.555 185.437 213.751 185.437C213.95 185.437 214.15 185.437 214.282 185.437C214.681 185.504 215.08 185.57 215.478 185.703C217.073 184.441 218.867 183.776 220.794 183.776ZM220.794 183.112C218.867 183.112 216.94 183.776 215.478 184.972C215.146 184.906 214.814 184.839 214.482 184.773C214.282 184.773 214.083 184.773 213.884 184.773C212.488 184.773 211.159 185.238 210.03 186.168C209.631 186.501 209.233 186.899 208.967 187.364H203.917H203.252V188.029V189.225V189.889H203.917H207.837C207.837 190.022 207.771 190.155 207.771 190.288C207.704 190.753 207.704 191.152 207.771 191.617H201.857H201.193V192.281V193.477V194.142H201.857H205.645C205.379 194.673 205.179 195.205 205.047 195.736H199.664H199V196.401V197.597V198.261H199.664H205.113C205.246 198.926 205.578 199.457 205.91 199.989H201.857H201.193V200.653V201.849V202.514H201.857H207.372C207.306 203.112 207.372 203.71 207.571 204.241H203.917H203.252V204.906V206.102V206.766H203.917H208.9C209.897 207.829 211.226 208.494 212.621 208.627C212.821 208.627 213.02 208.627 213.219 208.627C213.419 208.627 213.618 208.627 213.817 208.627C214.947 209.956 216.542 210.819 218.336 211.019C218.535 211.019 218.801 211.019 219 211.019C220.993 211.019 222.854 210.155 224.116 208.627C224.183 208.627 224.249 208.627 224.316 208.627C224.515 208.627 224.714 208.627 224.914 208.627C226.575 208.627 228.103 207.896 229.166 206.633H234.017H234.615V206.035C234.681 204.906 234.615 204.706 234.548 204.574L234.415 204.175H233.95H230.362C230.429 203.976 230.429 203.776 230.429 203.577C230.495 203.178 230.429 202.78 230.429 202.381H236.209H236.874V201.716V200.52V199.856H236.209H232.422C232.688 199.324 232.887 198.726 232.953 198.128H238.336H239V197.464V196.401V195.736H238.336H232.953C232.821 195.205 232.688 194.673 232.488 194.142H236.209H236.874V193.477V192.281V191.617H236.209H230.694C230.229 191.218 229.831 190.952 229.299 190.687C229.299 190.421 229.233 190.155 229.166 189.889H234.017H234.681V189.225V187.962V187.298H234.017H228.169C226.774 184.972 224.382 183.378 221.658 183.112C221.392 183.112 221.06 183.112 220.794 183.112Z" fill="white"/>
</g>
<g id="Group_4">
<path id="Vector_6" d="M203.916 187.962V189.158H207.77C207.903 188.76 208.036 188.361 208.235 187.962H203.916Z" fill="#312D2A"/>
<path id="Vector_7" d="M234.017 189.158V187.962H228.768C228.968 188.361 229.101 188.76 229.233 189.158H234.017Z" fill="#312D2A"/>
<path id="Vector_8" d="M206.907 192.282H201.857V193.478H205.778C206.11 193.013 206.442 192.614 206.907 192.282Z" fill="#312D2A"/>
<path id="Vector_9" d="M236.209 193.411V192.215H231.625C231.957 192.614 232.223 192.946 232.422 193.411H236.209Z" fill="#312D2A"/>
<path id="Vector_10" d="M233.353 197.531H238.469V196.335H233.353C233.353 196.734 233.353 197.132 233.353 197.531Z" fill="#312D2A"/>
<path id="Vector_11" d="M204.714 196.335H199.664V197.531H204.78C204.714 197.132 204.714 196.734 204.714 196.335Z" fill="#312D2A"/>
<path id="Vector_12" d="M206.176 200.654H201.857V201.85H207.239C207.239 201.783 207.239 201.717 207.306 201.65C206.907 201.318 206.509 200.986 206.176 200.654Z" fill="#312D2A"/>
<path id="Vector_13" d="M236.21 201.784V200.588H232.356C232.09 200.987 231.824 201.385 231.492 201.784H236.21Z" fill="#312D2A"/>
<path id="Vector_14" d="M234.016 206.035V204.839H230.428C230.295 205.238 230.096 205.637 229.896 206.035H234.016Z" fill="#312D2A"/>
<path id="Vector_15" d="M203.916 204.906V206.102H208.102C207.836 205.703 207.703 205.304 207.504 204.906H203.916Z" fill="#312D2A"/>
<path id="Vector_16" d="M232.423 197.597C232.688 194.807 231.16 192.215 228.635 191.086C228.369 187.298 225.446 184.175 221.592 183.843C219.399 183.644 217.273 184.308 215.612 185.77C215.213 185.637 214.815 185.571 214.416 185.504C212.954 185.371 211.559 185.77 210.429 186.7C209.3 187.631 208.635 188.893 208.436 190.355C208.37 191.019 208.436 191.617 208.569 192.282C206.908 193.013 205.778 194.541 205.579 196.335C205.379 198.395 206.443 200.322 208.237 201.252C208.104 201.584 208.037 201.983 208.037 202.315C207.904 203.71 208.303 205.039 209.167 206.102C210.031 207.165 211.293 207.83 212.688 207.963C213.154 208.029 213.619 207.963 214.017 207.896C215.014 209.292 216.609 210.155 218.27 210.288C218.469 210.288 218.669 210.288 218.868 210.288C220.795 210.288 222.589 209.425 223.718 207.83C223.918 207.896 224.051 207.896 224.25 207.896C224.383 207.896 224.582 207.896 224.781 207.896C227.306 207.896 229.433 205.969 229.698 203.445C229.765 202.979 229.698 202.514 229.632 202.049C231.293 201.052 232.223 199.458 232.423 197.597ZM228.569 202.049C228.702 202.514 228.768 202.979 228.702 203.445C228.569 204.441 228.104 205.371 227.306 205.969C226.509 206.634 225.512 206.9 224.516 206.833C224.25 206.833 224.051 206.767 223.785 206.7L223.386 206.567L223.12 206.966C222.124 208.494 220.33 209.358 218.469 209.159C217.007 209.026 215.678 208.162 214.815 206.966L214.615 206.634L214.217 206.767C213.752 206.9 213.286 206.9 212.888 206.9C211.825 206.767 210.828 206.302 210.164 205.438C209.499 204.574 209.167 203.577 209.3 202.514C209.366 202.116 209.433 201.65 209.632 201.252L209.898 200.654L209.3 200.454C208.037 199.989 207.173 198.926 206.908 197.664H215.147L213.552 199.258L214.35 200.056L217.34 196.999L214.35 193.943L213.552 194.74L215.147 196.335H206.841C207.041 194.807 208.037 193.544 209.566 193.146L210.164 192.946L209.898 192.415C209.632 191.75 209.566 191.152 209.632 190.488C209.765 189.358 210.296 188.361 211.16 187.631C212.024 186.9 213.154 186.567 214.283 186.7C214.682 186.767 215.08 186.833 215.479 187.033L215.878 187.099L216.144 186.833C217.539 185.438 219.532 184.773 221.459 184.973C224.848 185.305 227.439 188.096 227.506 191.484V191.883L227.904 192.016C229.765 192.68 231.094 194.408 231.293 196.335H223.054L224.516 194.873L223.718 194.076L220.861 196.933L223.851 199.989L224.649 199.192L223.054 197.597H231.227C231.027 199.192 230.164 200.587 228.768 201.451L228.369 201.717L228.569 202.049Z" fill="#312D2A"/>
</g>
</g>
</g>
</g>
</g>
<rect id="Rectangle 695" x="239" y="195" width="4" height="4" fill="white"/>
</g>
</g>
<g id="Icon Master_3">
<g id="On-Premises-Customer-Data-Center">
<g id="Group 12">
<path id="Vector_17" d="M111.089 162.714H84.9747C83.3573 162.714 82.0461 164.026 82.0461 165.643V218.357C82.0461 219.975 83.3573 221.286 84.9747 221.286H111.089C112.706 221.286 114.018 219.975 114.018 218.357V165.643C114.018 164.026 112.706 162.714 111.089 162.714Z" fill="white"/>
<path id="Vector_18" d="M111.09 163.429C111.677 163.432 112.238 163.667 112.652 164.081C113.066 164.496 113.301 165.057 113.305 165.643V218.357C113.301 218.943 113.066 219.504 112.652 219.919C112.238 220.333 111.677 220.568 111.09 220.571H84.9761C84.39 220.568 83.829 220.333 83.4145 219.919C83.0001 219.504 82.7656 218.943 82.7618 218.357V165.643C82.7656 165.057 83.0001 164.496 83.4145 164.081C83.829 163.667 84.39 163.432 84.9761 163.429H111.09ZM111.09 162H84.9761C84.01 162 83.0834 162.384 82.4002 163.067C81.7171 163.75 81.3333 164.677 81.3333 165.643V218.357C81.3333 218.836 81.4275 219.309 81.6105 219.751C81.7936 220.193 82.0619 220.595 82.4002 220.933C82.7385 221.271 83.1401 221.54 83.582 221.723C84.024 221.906 84.4977 222 84.9761 222H111.09C112.057 222 112.983 221.616 113.666 220.933C114.349 220.25 114.733 219.323 114.733 218.357V165.643C114.733 164.677 114.349 163.75 113.666 163.067C112.983 162.384 112.057 162 111.09 162V162Z" fill="white"/>
<path id="Vector_19" d="M111.091 163.429H84.9765C84.3904 163.433 83.8293 163.667 83.4149 164.082C83.0004 164.496 82.766 165.057 82.7622 165.643V218.358C82.766 218.944 83.0004 219.505 83.4149 219.919C83.8293 220.334 84.3904 220.568 84.9765 220.572H111.091C111.677 220.568 112.238 220.334 112.652 219.919C113.067 219.505 113.301 218.944 113.305 218.358V165.643C113.301 165.057 113.067 164.496 112.652 164.082C112.238 163.667 111.677 163.433 111.091 163.429ZM111.334 218.358C111.33 218.421 111.304 218.481 111.259 218.526C111.214 218.571 111.154 218.597 111.091 218.601H84.9765C84.9132 218.597 84.8534 218.571 84.8086 218.526C84.7638 218.481 84.7371 218.421 84.7336 218.358V165.643C84.7371 165.58 84.7638 165.52 84.8086 165.476C84.8534 165.431 84.9132 165.404 84.9765 165.401H111.091C111.154 165.404 111.214 165.431 111.259 165.476C111.304 165.52 111.33 165.58 111.334 165.643V218.358Z" fill="#2D5967"/>
<path id="Vector_20" d="M86.2031 175.743H109.903V166.872H86.2031V175.743ZM88.1746 168.843H107.889V173.772H88.1746V168.843Z" fill="#2D5967"/>
<path id="Vector_21" d="M105.418 172.3C105.962 172.3 106.404 171.859 106.404 171.314C106.404 170.77 105.962 170.329 105.418 170.329C104.873 170.329 104.432 170.77 104.432 171.314C104.432 171.859 104.873 172.3 105.418 172.3Z" fill="#2D5967"/>
<path id="Vector_22" d="M86.2031 186.085H109.903V177.228H86.2031V186.085ZM88.1746 179.142H107.889V184.071H88.1746V179.142Z" fill="#2D5967"/>
<path id="Vector_23" d="M105.418 182.643C105.962 182.643 106.404 182.202 106.404 181.658C106.404 181.113 105.962 180.672 105.418 180.672C104.873 180.672 104.432 181.113 104.432 181.658C104.432 182.202 104.873 182.643 105.418 182.643Z" fill="#2D5967"/>
<path id="Vector_24" d="M86.2031 196.428H109.903V187.571H86.2031V196.428ZM88.1746 189.543H107.889V194.457H88.1746V189.543Z" fill="#2D5967"/>
<path id="Vector_25" d="M105.418 192.985C105.962 192.985 106.404 192.544 106.404 191.999C106.404 191.455 105.962 191.014 105.418 191.014C104.873 191.014 104.432 191.455 104.432 191.999C104.432 192.544 104.873 192.985 105.418 192.985Z" fill="#2D5967"/>
<path id="Vector_26" d="M86.2031 206.772H109.903V197.915H86.2031V206.772ZM88.1746 199.886H107.889V204.857H88.1746V199.886Z" fill="#2D5967"/>
<path id="Vector_27" d="M105.418 203.328C105.962 203.328 106.404 202.887 106.404 202.343C106.404 201.798 105.962 201.357 105.418 201.357C104.873 201.357 104.432 201.798 104.432 202.343C104.432 202.887 104.873 203.328 105.418 203.328Z" fill="#2D5967"/>
<path id="Vector_28" d="M86.2031 217.128H109.903V208.256H86.2031V217.128ZM88.1746 210.228H107.889V215.156H88.1746V210.228Z" fill="#2D5967"/>
<path id="Vector_29" d="M105.418 213.672C105.962 213.672 106.404 213.231 106.404 212.686C106.404 212.142 105.962 211.701 105.418 211.701C104.873 211.701 104.432 212.142 104.432 212.686C104.432 213.231 104.873 213.672 105.418 213.672Z" fill="#2D5967"/>
</g>
</g>
<g id="Icon Text Label">
<text id="IconLabel" fill="black" xml:space="preserve" style="white-space: pre" font-family="Oracle Sans" font-size="16" letter-spacing="0em"><tspan x="51.1094" y="239.816">On-premises</tspan></text>
<text id="IconLabel_2" fill="black" xml:space="preserve" style="white-space: pre" font-family="Oracle Sans" font-size="16" letter-spacing="0em"><tspan x="56.4219" y="255.816">Data center</tspan></text>
</g>
</g>
<g id="Gateway">
<rect id="Rectangle 699" x="424" y="169" width="2" height="60" fill="white"/>
<g id="Icon Master_4">
<g id="Dynamic-Routing-Gateway-DRG">
<path id="Vector_30" d="M425 208.524C435.783 208.524 444.524 199.783 444.524 189C444.524 178.217 435.783 169.476 425 169.476C414.217 169.476 405.476 178.217 405.476 189C405.476 199.783 414.217 208.524 425 208.524Z" fill="white"/>
<path id="Vector_31" d="M425 169.952C428.767 169.952 432.45 171.07 435.582 173.162C438.715 175.255 441.156 178.23 442.598 181.711C444.039 185.191 444.417 189.021 443.682 192.716C442.947 196.411 441.133 199.805 438.469 202.469C435.805 205.133 432.411 206.947 428.716 207.682C425.021 208.417 421.191 208.039 417.711 206.598C414.23 205.156 411.255 202.715 409.162 199.582C407.07 196.45 405.952 192.767 405.952 189C405.952 183.948 407.959 179.103 411.531 175.531C415.103 171.959 419.948 169.952 425 169.952ZM425 169C421.044 169 417.178 170.173 413.889 172.371C410.6 174.568 408.036 177.692 406.522 181.346C405.009 185.001 404.613 189.022 405.384 192.902C406.156 196.781 408.061 200.345 410.858 203.142C413.655 205.939 417.219 207.844 421.098 208.616C424.978 209.387 428.999 208.991 432.654 207.478C436.308 205.964 439.432 203.4 441.629 200.111C443.827 196.822 445 192.956 445 189C445 183.696 442.893 178.609 439.142 174.858C435.391 171.107 430.304 169 425 169V169Z" fill="white"/>
<path id="Vector_32" d="M425 169.952C421.233 169.952 417.55 171.069 414.418 173.162C411.285 175.255 408.844 178.23 407.402 181.711C405.961 185.191 405.583 189.021 406.318 192.716C407.053 196.411 408.867 199.805 411.531 202.468C414.195 205.132 417.589 206.946 421.284 207.681C424.979 208.416 428.809 208.039 432.289 206.597C435.77 205.156 438.745 202.714 440.838 199.582C442.931 196.45 444.048 192.767 444.048 189C444.048 186.498 443.555 184.022 442.598 181.711C441.64 179.4 440.237 177.3 438.469 175.531C436.7 173.762 434.6 172.359 432.289 171.402C429.978 170.445 427.501 169.952 425 169.952ZM425 206.457C421.547 206.457 418.172 205.433 415.301 203.515C412.431 201.597 410.193 198.87 408.872 195.68C407.55 192.49 407.205 188.98 407.878 185.594C408.552 182.208 410.215 179.097 412.656 176.656C415.097 174.214 418.208 172.552 421.594 171.878C424.981 171.204 428.491 171.55 431.681 172.871C434.87 174.193 437.597 176.43 439.515 179.301C441.433 182.172 442.457 185.547 442.457 189C442.452 193.628 440.611 198.066 437.339 201.338C434.066 204.611 429.628 206.452 425 206.457Z" fill="#2D5967"/>
<path id="Vector_33" d="M425.791 200.181V178.019L428.21 180.438L429.333 179.314L425 174.981L420.667 179.314L421.791 180.438L424.21 178.019V200.181L421.791 197.762L420.667 198.886L425 203.219L429.333 198.886L428.21 197.762L425.791 200.181Z" fill="#2D5967"/>
<path id="Vector_34" d="M419.809 184.667L418.685 185.79L421.105 188.209H410.914V189.79H421.105L418.685 192.209L419.809 193.333L424.133 189L419.809 184.667Z" fill="#2D5967"/>
<path id="Vector_35" d="M428.895 188.209L431.314 185.79L430.191 184.667L425.867 189L430.191 193.333L431.314 192.209L428.895 189.79H439.086V188.209H428.895Z" fill="#2D5967"/>
</g>
<g id="Icon Text Label_2">
<text id="IconLabel_3" fill="black" xml:space="preserve" style="white-space: pre" font-family="Oracle Sans" font-size="16" letter-spacing="0em"><tspan x="408.836" y="226.816">DRG</tspan></text>
</g>
</g>
</g>
<g id="Group 1240">
<g id="1">
<path d="M227.5 88.5H425.452V120.5H227.5V88.5Z" fill="#E4E1DD"/>
<path d="M227.5 88.5H425.452V120.5H227.5V88.5Z" stroke="#9E9892"/>
<text id="Neutral Group Heading H3" fill="#312D2A" xml:space="preserve" style="white-space: pre" font-family="Oracle Sans" font-size="16" font-weight="600" letter-spacing="0em"><tspan x="276.64" y="110.316">10.254.0.0/16</tspan></text>
</g>
<g id="2">
<path d="M425 88.5H621.5V120.5H425V88.5Z" fill="#E4E1DD"/>
<path d="M425 88.5H621.5V120.5H425V88.5Z" stroke="#9E9892"/>
<text id="Neutral Group Heading H3_2" fill="#312D2A" xml:space="preserve" style="white-space: pre" font-family="Oracle Sans" font-size="16" font-weight="600" letter-spacing="0em"><tspan x="495.188" y="110.316">ATT-VC</tspan></text>
</g>
<g id="Sub-Heading A">
<path d="M227.5 56.5H425.452V88.5H227.5V56.5Z" fill="#665F5B"/>
<path d="M227.5 56.5H425.452V88.5H227.5V56.5Z" stroke="#9E9892"/>
<text id="Neutral Group Heading H3_3" fill="white" xml:space="preserve" style="white-space: pre" font-family="Oracle Sans" font-size="16" font-weight="bold" letter-spacing="0em"><tspan x="281.968" y="78.316">Destination</tspan></text>
</g>
<g id="Sub-Heading B">
<path d="M425 56.5H621.5V88.5H425V56.5Z" fill="#665F5B"/>
<path d="M425 56.5H621.5V88.5H425V56.5Z" stroke="#9E9892"/>
<text id="Neutral Group Heading H3_4" fill="white" xml:space="preserve" style="white-space: pre" font-family="Oracle Sans" font-size="16" font-weight="bold" letter-spacing="0em"><tspan x="442.438" y="78.316">Nex-Hop Attachment</tspan></text>
</g>
<g id="HEADING">
<path d="M227.5 28C227.5 26.067 229.067 24.5 231 24.5H618C619.933 24.5 621.5 26.067 621.5 28V56.5H227.5V28Z" fill="#312D2A"/>
<path d="M227.5 28C227.5 26.067 229.067 24.5 231 24.5H618C619.933 24.5 621.5 26.067 621.5 28V56.5H227.5V28Z" stroke="#9E9892"/>
<text id="Neutral Group Heading H3_5" fill="white" xml:space="preserve" style="white-space: pre" font-family="Oracle Sans" font-size="16" font-weight="800" letter-spacing="0em"><tspan x="301.555" y="46.316">DRG Route Table for ATT-VCN-1</tspan></text>
</g>
</g>
<g id="Group 1242">
<g id="1_2">
<path d="M227.5 331.5H425.452V363.5H227.5V331.5Z" fill="#E4E1DD"/>
<path d="M227.5 331.5H425.452V363.5H227.5V331.5Z" stroke="#9E9892"/>
<text id="Neutral Group Heading H3_6" fill="#312D2A" xml:space="preserve" style="white-space: pre" font-family="Oracle Sans" font-size="16" font-weight="600" letter-spacing="0em"><tspan x="288.054" y="353.316">10.1.0.0/16</tspan></text>
</g>
<g id="2_2">
<path d="M425 331.5H621.5V363.5H425V331.5Z" fill="#E4E1DD"/>
<path d="M425 331.5H621.5V363.5H425V331.5Z" stroke="#9E9892"/>
<text id="Neutral Group Heading H3_7" fill="#312D2A" xml:space="preserve" style="white-space: pre" font-family="Oracle Sans" font-size="16" font-weight="600" letter-spacing="0em"><tspan x="482.766" y="353.316">ATT-VCN-1</tspan></text>
</g>
<g id="Sub-Heading A_2">
<path d="M227.5 299.5H425.452V331.5H227.5V299.5Z" fill="#665F5B"/>
<path d="M227.5 299.5H425.452V331.5H227.5V299.5Z" stroke="#9E9892"/>
<text id="Neutral Group Heading H3_8" fill="white" xml:space="preserve" style="white-space: pre" font-family="Oracle Sans" font-size="16" font-weight="bold" letter-spacing="0em"><tspan x="281.968" y="321.316">Destination</tspan></text>
</g>
<g id="Sub-Heading B_2">
<path d="M425 299.5H621.5V331.5H425V299.5Z" fill="#665F5B"/>
<path d="M425 299.5H621.5V331.5H425V299.5Z" stroke="#9E9892"/>
<text id="Neutral Group Heading H3_9" fill="white" xml:space="preserve" style="white-space: pre" font-family="Oracle Sans" font-size="16" font-weight="bold" letter-spacing="0em"><tspan x="442.438" y="321.316">Nex-Hop Attachment</tspan></text>
</g>
<g id="HEADING_2">
<path d="M227.5 271C227.5 269.067 229.067 267.5 231 267.5H618C619.933 267.5 621.5 269.067 621.5 271V299.5H227.5V271Z" fill="#312D2A"/>
<path d="M227.5 271C227.5 269.067 229.067 267.5 231 267.5H618C619.933 267.5 621.5 269.067 621.5 271V299.5H227.5V271Z" stroke="#9E9892"/>
<text id="Neutral Group Heading H3_10" fill="white" xml:space="preserve" style="white-space: pre" font-family="Oracle Sans" font-size="16" font-weight="800" letter-spacing="0em"><tspan x="314.57" y="289.316">DRG Route Table for ATT-VC</tspan></text>
</g>
</g>
<g id="Group 1241">
<g id="1_3">
<path d="M630.5 88.5H828.452V120.5H630.5V88.5Z" fill="#E4E1DD"/>
<path d="M630.5 88.5H828.452V120.5H630.5V88.5Z" stroke="#9E9892"/>
<text id="Neutral Group Heading H3_11" fill="#312D2A" xml:space="preserve" style="white-space: pre" font-family="Oracle Sans" font-size="16" font-weight="600" letter-spacing="0em"><tspan x="679.64" y="110.316">10.254.0.0/16</tspan></text>
</g>
<g id="2_3">
<path d="M828 88.5H1024.5V120.5H828V88.5Z" fill="#E4E1DD"/>
<path d="M828 88.5H1024.5V120.5H828V88.5Z" stroke="#9E9892"/>
<text id="Neutral Group Heading H3_12" fill="#312D2A" xml:space="preserve" style="white-space: pre" font-family="Oracle Sans" font-size="16" font-weight="600" letter-spacing="0em"><tspan x="909.844" y="110.316">DRG</tspan></text>
</g>
<g id="Sub-Heading A_3">
<path d="M630.5 56.5H828.452V88.5H630.5V56.5Z" fill="#665F5B"/>
<path d="M630.5 56.5H828.452V88.5H630.5V56.5Z" stroke="#9E9892"/>
<text id="Neutral Group Heading H3_13" fill="white" xml:space="preserve" style="white-space: pre" font-family="Oracle Sans" font-size="16" font-weight="bold" letter-spacing="0em"><tspan x="684.968" y="78.316">Destination</tspan></text>
</g>
<g id="Sub-Heading B_3">
<path d="M828 56.5H1024.5V88.5H828V56.5Z" fill="#665F5B"/>
<path d="M828 56.5H1024.5V88.5H828V56.5Z" stroke="#9E9892"/>
<text id="Neutral Group Heading H3_14" fill="white" xml:space="preserve" style="white-space: pre" font-family="Oracle Sans" font-size="16" font-weight="bold" letter-spacing="0em"><tspan x="901.672" y="78.316">Target</tspan></text>
</g>
<g id="HEADING_3">
<path d="M630.5 28C630.5 26.067 632.067 24.5 634 24.5H1021C1022.93 24.5 1024.5 26.067 1024.5 28V56.5H630.5V28Z" fill="#312D2A"/>
<path d="M630.5 28C630.5 26.067 632.067 24.5 634 24.5H1021C1022.93 24.5 1024.5 26.067 1024.5 28V56.5H630.5V28Z" stroke="#9E9892"/>
<text id="Neutral Group Heading H3_15" fill="white" xml:space="preserve" style="white-space: pre" font-family="Oracle Sans" font-size="16" font-weight="800" letter-spacing="0em"><tspan x="751.461" y="46.316">Subnet Route Table</tspan></text>
</g>
</g>
<g id="Group 1243">
<g id="1_4">
<path d="M630.5 331.5H828.452V363.5H630.5V331.5Z" fill="#E4E1DD"/>
<path d="M630.5 331.5H828.452V363.5H630.5V331.5Z" stroke="#9E9892"/>
<text id="Neutral Group Heading H3_16" fill="#312D2A" xml:space="preserve" style="white-space: pre" font-family="Oracle Sans" font-size="16" font-weight="600" letter-spacing="0em"><tspan x="691.054" y="353.316">10.1.0.0/16</tspan></text>
</g>
<g id="2_4">
<path d="M828 331.5H1024.5V363.5H828V331.5Z" fill="#E4E1DD"/>
<path d="M828 331.5H1024.5V363.5H828V331.5Z" stroke="#9E9892"/>
<text id="Neutral Group Heading H3_17" fill="#312D2A" xml:space="preserve" style="white-space: pre" font-family="Oracle Sans" font-size="16" font-weight="600" letter-spacing="0em"><tspan x="906.609" y="353.316">Local</tspan></text>
</g>
<g id="Sub-Heading A_4">
<path d="M630.5 299.5H828.452V331.5H630.5V299.5Z" fill="#665F5B"/>
<path d="M630.5 299.5H828.452V331.5H630.5V299.5Z" stroke="#9E9892"/>
<text id="Neutral Group Heading H3_18" fill="white" xml:space="preserve" style="white-space: pre" font-family="Oracle Sans" font-size="16" font-weight="bold" letter-spacing="0em"><tspan x="684.968" y="321.316">Destination</tspan></text>
</g>
<g id="Sub-Heading B_4">
<path d="M828 299.5H1024.5V331.5H828V299.5Z" fill="#665F5B"/>
<path d="M828 299.5H1024.5V331.5H828V299.5Z" stroke="#9E9892"/>
<text id="Neutral Group Heading H3_19" fill="white" xml:space="preserve" style="white-space: pre" font-family="Oracle Sans" font-size="16" font-weight="bold" letter-spacing="0em"><tspan x="901.672" y="321.316">Target</tspan></text>
</g>
<g id="HEADING_4">
<path d="M630.5 271C630.5 269.067 632.067 267.5 634 267.5H1021C1022.93 267.5 1024.5 269.067 1024.5 271V299.5H630.5V271Z" fill="#312D2A"/>
<path d="M630.5 271C630.5 269.067 632.067 267.5 634 267.5H1021C1022.93 267.5 1024.5 269.067 1024.5 271V299.5H630.5V271Z" stroke="#9E9892"/>
<text id="Neutral Group Heading H3_20" fill="white" xml:space="preserve" style="white-space: pre" font-family="Oracle Sans" font-size="16" font-weight="800" letter-spacing="0em"><tspan x="681.969" y="289.316">VCN Route Table for DRG Attachment</tspan></text>
</g>
</g>
<path id="Vector 70" d="M424.293 167.707C424.683 168.098 425.317 168.098 425.707 167.707L432.071 161.343C432.462 160.953 432.462 160.319 432.071 159.929C431.681 159.538 431.047 159.538 430.657 159.929L425 165.586L419.343 159.929C418.953 159.538 418.319 159.538 417.929 159.929C417.538 160.319 417.538 160.953 417.929 161.343L424.293 167.707ZM424 121L424 167L426 167L426 121L424 121Z" fill="#312D2A"/>
<path id="Vector 66" d="M482.707 380.707C483.098 380.317 483.098 379.683 482.707 379.293L476.343 372.929C475.953 372.538 475.319 372.538 474.929 372.929C474.538 373.319 474.538 373.953 474.929 374.343L480.586 380L474.929 385.657C474.538 386.047 474.538 386.681 474.929 387.071C475.319 387.462 475.953 387.462 476.343 387.071L482.707 380.707ZM369 381H482V379H369V381Z" fill="#312D2A"/>
<path id="Vector 68" d="M369.293 7.29289C368.902 7.68342 368.902 8.31658 369.293 8.70711L375.657 15.0711C376.047 15.4616 376.681 15.4616 377.071 15.0711C377.462 14.6805 377.462 14.0474 377.071 13.6569L371.414 8L377.071 2.34315C377.462 1.95262 377.462 1.31946 377.071 0.928932C376.681 0.538408 376.047 0.538408 375.657 0.928932L369.293 7.29289ZM370 9H483V7H370V9Z" fill="#312D2A"/>
<path id="Vector 67" d="M884.707 380.707C885.098 380.317 885.098 379.683 884.707 379.293L878.343 372.929C877.953 372.538 877.319 372.538 876.929 372.929C876.538 373.319 876.538 373.953 876.929 374.343L882.586 380L876.929 385.657C876.538 386.047 876.538 386.681 876.929 387.071C877.319 387.462 877.953 387.462 878.343 387.071L884.707 380.707ZM771 381H884V379H771V381Z" fill="#312D2A"/>
<path id="Vector 69" d="M771.293 7.29289C770.902 7.68342 770.902 8.31658 771.293 8.70711L777.657 15.0711C778.047 15.4616 778.681 15.4616 779.071 15.0711C779.462 14.6805 779.462 14.0474 779.071 13.6569L773.414 8L779.071 2.34315C779.462 1.95262 779.462 1.31946 779.071 0.928932C778.681 0.538408 778.047 0.538408 777.657 0.928932L771.293 7.29289ZM772 9H885V7H772V9Z" fill="#312D2A"/>
<path id="Vector 65" d="M828 168H827V169H828V168ZM1058.71 168.707C1059.1 168.317 1059.1 167.683 1058.71 167.293L1052.34 160.929C1051.95 160.538 1051.32 160.538 1050.93 160.929C1050.54 161.319 1050.54 161.953 1050.93 162.343L1056.59 168L1050.93 173.657C1050.54 174.047 1050.54 174.681 1050.93 175.071C1051.32 175.462 1051.95 175.462 1052.34 175.071L1058.71 168.707ZM827 121V168H829V121H827ZM828 169H1058V167H828V169Z" fill="#312D2A"/>
<g id="Connector Line Label">
<rect width="57" height="14" transform="translate(340 212)" fill="white"/>
<text id="Line Label" fill="#312D2A" xml:space="preserve" style="white-space: pre" font-family="Oracle Sans" font-size="14" letter-spacing="0em"><tspan x="344.431" y="224.089">ATT-VC</tspan></text>
</g>
<g id="Connector Line Label_2">
<rect width="78" height="14" transform="translate(453 212)" fill="white"/>
<text id="Line Label_2" fill="#312D2A" xml:space="preserve" style="white-space: pre" font-family="Oracle Sans" font-size="14" letter-spacing="0em"><tspan x="457.349" y="224.089">ATT-VCN-1</tspan></text>
</g>
<g id="Numbered circle">
<circle id="Ellipse 269" cx="425" cy="145" r="11.5" fill="#70665E" stroke="white"/>
<text id="1_5" fill="white" xml:space="preserve" style="white-space: pre" font-family="Oracle Sans" font-size="16" font-weight="bold" letter-spacing="0em"><tspan x="421.203" y="150.816">1</tspan></text>
</g>
<g id="Numbered circle_2">
<circle id="Ellipse 269_2" cx="828" cy="145" r="11.5" fill="#70665E" stroke="white"/>
<text id="1_6" fill="white" xml:space="preserve" style="white-space: pre" font-family="Oracle Sans" font-size="16" font-weight="bold" letter-spacing="0em"><tspan x="823.289" y="150.816">2</tspan></text>
</g>
</g>
</g>
<defs>
<clipPath id="clip0_12694_255891">
<rect width="1241" height="388" fill="white"/>
</clipPath>
</defs>
</svg>
