<svg width="738" height="498" viewBox="0 0 738 498" fill="none" xmlns="http://www.w3.org/2000/svg">
<g id="oci-speech-adb-ai-arch">
<rect width="738" height="498" fill="white"/>
<g id="Region">
<rect x="0.5" y="0.5" width="737" height="497" rx="3.5" fill="#F5F4F2"/>
<rect x="0.5" y="0.5" width="737" height="497" rx="3.5" stroke="#9E9892"/>
<text id="OCI Region" fill="#312D2A" xml:space="preserve" style="white-space: pre" font-family="Oracle Sans" font-size="16" font-weight="bold" letter-spacing="0em"><tspan x="8" y="21.816">OCI Region</tspan></text>
</g>
<g id="AD">
<rect x="142.5" y="14.5" width="293" height="345" rx="3.5" fill="#E4E1DD"/>
<rect x="142.5" y="14.5" width="293" height="345" rx="3.5" stroke="#9E9892"/>
<text id="Availability Domain" fill="#312D2A" xml:space="preserve" style="white-space: pre" font-family="Oracle Sans" font-size="16" font-weight="600" letter-spacing="0em"><tspan x="217.055" y="35.816">Availability Domain</tspan></text>
</g>
<g id="VCN box_New">
<rect id="Rectangle 28" x="26" y="47.959" width="506" height="298" stroke="#AA643B" stroke-width="2" stroke-dasharray="8 4"/>
<g id="Icon Master">
<g id="Srv-VCN">
<g id="Group 39">
<path id="Vector" d="M511.416 70.5097C510.161 70.5092 508.944 70.0766 507.97 69.2845C506.995 68.4924 506.323 67.3891 506.066 66.1598H499.595C499.408 67.054 499 67.8869 498.408 68.5828C497.816 69.2786 497.06 69.8151 496.208 70.1434C495.356 70.4716 494.435 70.5812 493.53 70.4621C492.625 70.343 491.764 69.999 491.026 69.4614C490.287 68.9239 489.695 68.21 489.304 67.3847C488.912 66.5595 488.733 65.6493 488.783 64.7371C488.833 63.8249 489.111 62.9398 489.59 62.1625C490.07 61.3852 490.737 60.7404 491.529 60.287L489.533 54.1406C489.336 54.1542 489.138 54.1542 488.941 54.1406C488.053 54.1426 487.179 53.9284 486.392 53.5165C485.606 53.1045 484.932 52.5072 484.428 51.7762C483.924 51.0451 483.605 50.2023 483.499 49.3204C483.394 48.4386 483.504 47.5443 483.821 46.7148C484.138 45.8852 484.652 45.1453 485.319 44.5591C485.986 43.9728 486.785 43.5577 487.648 43.3497C488.511 43.1417 489.412 43.147 490.272 43.3652C491.132 43.5833 491.927 44.0078 492.587 44.6019L497.845 40.8721C497.528 40.1669 497.363 39.4023 497.362 38.6288C497.362 37.1776 497.938 35.7859 498.964 34.7598C499.989 33.7337 501.38 33.1572 502.831 33.1572C504.281 33.1572 505.672 33.7337 506.697 34.7598C507.723 35.7859 508.299 37.1776 508.299 38.6288C508.301 39.4017 508.14 40.1662 507.825 40.8721L513.093 44.6384C514.088 43.7252 515.388 43.2177 516.738 43.2158C518.189 43.2158 519.579 43.7922 520.605 44.8184C521.63 45.8445 522.207 47.2362 522.207 48.6873C522.207 50.1385 521.63 51.5302 520.605 52.5563C519.579 53.5824 518.189 54.1589 516.738 54.1589C516.547 54.1589 516.346 54.1589 516.155 54.1589L514.15 60.3053C515.199 60.9047 516.02 61.8346 516.485 62.95C516.95 64.0654 517.033 65.3035 516.72 66.471C516.408 67.6384 515.718 68.6696 514.759 69.4035C513.799 70.1374 512.624 70.5328 511.416 70.528V70.5097Z" fill="white"/>
<path id="Vector_2" d="M502.84 33.576C503.707 33.578 504.56 33.8049 505.314 34.2346C506.068 34.6644 506.697 35.2822 507.142 36.028C507.586 36.7738 507.829 37.622 507.849 38.49C507.868 39.358 507.662 40.2162 507.251 40.9808L513.093 45.2304C513.665 44.6313 514.377 44.1834 515.164 43.9268C515.951 43.6701 516.79 43.6127 517.605 43.7597C518.42 43.9066 519.186 44.2534 519.835 44.7689C520.483 45.2845 520.994 45.9528 521.321 46.7141C521.648 47.4753 521.782 48.3059 521.71 49.1314C521.638 49.957 521.363 50.7519 520.909 51.445C520.455 52.1381 519.836 52.7079 519.109 53.1034C518.381 53.4988 517.566 53.7077 516.738 53.7113C516.433 53.7156 516.128 53.6911 515.827 53.6384L513.594 60.5234C514.375 60.9004 515.045 61.4736 515.538 62.1871C516.032 62.9006 516.332 63.73 516.409 64.5942C516.486 65.4584 516.338 66.3278 515.979 67.1176C515.62 67.9074 515.062 68.5905 514.36 69.1001C513.659 69.6097 512.837 69.9285 511.975 70.0252C511.113 70.122 510.241 69.9934 509.444 69.652C508.647 69.3106 507.952 68.7682 507.427 68.0777C506.902 67.3871 506.565 66.5721 506.449 65.7123H499.212C499.095 66.5722 498.757 67.387 498.231 68.0771C497.706 68.7672 497.01 69.3089 496.212 69.6494C495.414 69.9898 494.542 70.1173 493.68 70.0194C492.818 69.9215 491.996 69.6016 491.295 69.0908C490.594 68.58 490.037 67.896 489.679 67.1055C489.322 66.315 489.175 65.4451 489.253 64.5808C489.332 63.7166 489.634 62.8876 490.128 62.1748C490.623 61.462 491.294 60.8899 492.076 60.5143L489.843 53.6384C489.543 53.6942 489.237 53.7217 488.932 53.7204C488.101 53.7189 487.284 53.5113 486.553 53.1161C485.822 52.7209 485.201 52.1505 484.745 51.4561C484.289 50.7616 484.011 49.9647 483.939 49.1368C483.866 48.3089 483.999 47.4758 484.327 46.7122C484.655 45.9486 485.167 45.2783 485.817 44.7613C486.468 44.2444 487.236 43.8969 488.054 43.7501C488.871 43.6032 489.712 43.6616 490.502 43.9199C491.291 44.1783 492.005 44.6286 492.577 45.2304L498.419 40.9808C498.008 40.2155 497.802 39.3565 497.821 38.4878C497.841 37.619 498.085 36.7701 498.531 36.0241C498.976 35.2781 499.607 34.6603 500.362 34.2313C501.118 33.8022 501.971 33.5764 502.84 33.576ZM502.84 32.6641C501.268 32.6641 499.76 33.2883 498.647 34.3996C497.535 35.511 496.909 37.0187 496.906 38.5916C496.906 39.3052 497.035 40.013 497.289 40.6799L492.632 44.054C491.891 43.4627 491.019 43.0577 490.089 42.8729C489.16 42.6881 488.199 42.7288 487.288 42.9917C486.378 43.2546 485.543 43.7321 484.855 44.384C484.166 45.0359 483.644 45.8434 483.332 46.7389C483.019 47.6343 482.926 48.5916 483.059 49.5306C483.192 50.4696 483.548 51.363 484.098 52.1359C484.647 52.9089 485.373 53.5389 486.216 53.9733C487.059 54.4076 487.993 54.6336 488.941 54.6324H489.205L491.028 60.1039C490.23 60.6322 489.572 61.3459 489.11 62.184C488.648 63.0222 488.396 63.9598 488.375 64.9168C488.354 65.8738 488.564 66.8216 488.989 67.6793C489.414 68.537 490.04 69.2789 490.814 69.8418C491.588 70.4046 492.486 70.7715 493.433 70.9112C494.379 71.0509 495.345 70.9591 496.249 70.6438C497.152 70.3285 497.965 69.799 498.62 69.1006C499.274 68.4022 499.749 67.5556 500.005 66.6333H505.747C506.001 67.5589 506.476 68.409 507.13 69.1108C507.784 69.8126 508.599 70.3452 509.504 70.6628C510.41 70.9805 511.378 71.0738 512.328 70.9348C513.277 70.7957 514.178 70.4285 514.954 69.8645C515.73 69.3005 516.358 68.5565 516.784 67.6965C517.21 66.8364 517.421 65.8858 517.4 64.9262C517.378 63.9666 517.124 63.0266 516.66 62.1867C516.195 61.3468 515.534 60.6321 514.733 60.1039L516.556 54.6324H516.738C517.544 54.6771 518.35 54.5569 519.108 54.2793C519.865 54.0016 520.558 53.5722 521.144 53.0174C521.73 52.4626 522.197 51.794 522.516 51.0525C522.835 50.311 523 49.5121 523 48.7048C523 47.8975 522.835 47.0987 522.516 46.3572C522.197 45.6157 521.73 44.9471 521.144 44.3923C520.558 43.8375 519.865 43.4081 519.108 43.1304C518.35 42.8527 517.544 42.7326 516.738 42.7773C515.396 42.774 514.093 43.231 513.047 44.0723L508.399 40.6981C508.646 40.0296 508.772 39.3225 508.773 38.6098C508.774 37.8294 508.621 37.0565 508.324 36.3352C508.026 35.6138 507.589 34.9583 507.038 34.4061C506.487 33.8539 505.833 33.4157 505.112 33.1168C504.392 32.8179 503.619 32.6641 502.84 32.6641V32.6641Z" fill="white"/>
<path id="Vector_3" d="M516.738 43.6704C516.057 43.6686 515.382 43.806 514.755 44.0741C514.128 44.3423 513.563 44.7355 513.093 45.2298L507.251 40.9802C507.665 40.2148 507.874 39.3549 507.856 38.4847C507.838 37.6144 507.595 36.7637 507.15 36.0159C506.705 35.2681 506.073 34.6488 505.317 34.2187C504.56 33.7886 503.705 33.5625 502.835 33.5625C501.965 33.5625 501.11 33.7886 500.354 34.2187C499.598 34.6488 498.966 35.2681 498.521 36.0159C498.076 36.7637 497.832 37.6144 497.815 38.4847C497.797 39.3549 498.005 40.2148 498.42 40.9802L492.569 45.2298C491.995 44.6328 491.284 44.187 490.496 43.9322C489.709 43.6774 488.871 43.6216 488.057 43.7695C487.243 43.9175 486.479 44.2648 485.831 44.7804C485.184 45.296 484.675 45.9638 484.348 46.7244C484.021 47.485 483.888 48.3146 483.96 49.1393C484.032 49.964 484.306 50.758 484.759 51.4507C485.212 52.1434 485.829 52.7131 486.556 53.109C487.283 53.5049 488.096 53.7148 488.923 53.7198C489.229 53.7211 489.534 53.6936 489.834 53.6378L492.067 60.5046C491.285 60.8801 490.614 61.4523 490.12 62.1651C489.625 62.8778 489.323 63.7069 489.245 64.5711C489.166 65.4354 489.313 66.3053 489.671 67.0958C490.029 67.8863 490.585 68.5703 491.286 69.0811C491.988 69.5918 492.809 69.9118 493.671 70.0097C494.533 70.1076 495.405 69.9801 496.203 69.6397C497.001 69.2992 497.697 68.7575 498.223 68.0674C498.749 67.3773 499.086 66.5624 499.203 65.7025H506.44C506.556 66.5624 506.893 67.3774 507.418 68.0679C507.943 68.7585 508.638 69.3009 509.435 69.6423C510.232 69.9837 511.104 70.1123 511.966 70.0155C512.828 69.9188 513.65 69.6 514.352 69.0904C515.053 68.5808 515.611 67.8977 515.97 67.1079C516.329 66.3181 516.477 65.4487 516.4 64.5845C516.323 63.7203 516.023 62.8909 515.529 62.1774C515.036 61.4639 514.366 60.8906 513.585 60.5137L515.827 53.6378C516.128 53.6936 516.433 53.7211 516.738 53.7198C517.422 53.7611 518.107 53.662 518.751 53.4286C519.395 53.1952 519.985 52.8325 520.483 52.3627C520.982 51.8929 521.379 51.326 521.651 50.6968C521.922 50.0677 522.063 49.3896 522.063 48.7042C522.063 48.0189 521.922 47.3408 521.651 46.7117C521.379 46.0825 520.982 45.5156 520.483 45.0458C519.985 44.576 519.395 44.2133 518.751 43.9799C518.107 43.7465 517.422 43.6474 516.738 43.6886V43.6704ZM511.416 68.7119C510.695 68.7119 509.99 68.498 509.391 68.0971C508.791 67.6963 508.324 67.1266 508.048 66.4601C507.772 65.7936 507.7 65.0601 507.84 64.3526C507.981 63.645 508.328 62.995 508.838 62.4849C509.348 61.9747 509.998 61.6273 510.705 61.4866C511.412 61.3458 512.145 61.4181 512.811 61.6942C513.477 61.9702 514.047 62.4378 514.447 63.0376C514.848 63.6375 515.062 64.3427 515.062 65.0642C515.062 66.0316 514.677 66.9594 513.994 67.6435C513.31 68.3276 512.383 68.7119 511.416 68.7119ZM499.213 64.362C499.063 63.2297 498.529 62.1833 497.7 61.3983L500.434 57.5773C501.166 57.9663 501.983 58.1699 502.813 58.17C503.639 58.1729 504.454 57.9691 505.182 57.5773L507.916 61.3983C507.084 62.1824 506.547 63.2287 506.394 64.362H499.213ZM490.563 65.0368C490.563 64.3154 490.777 63.6101 491.178 63.0103C491.578 62.4104 492.148 61.9429 492.814 61.6668C493.48 61.3907 494.213 61.3185 494.92 61.4592C495.627 61.6 496.277 61.9474 496.787 62.4575C497.297 62.9677 497.644 63.6176 497.785 64.3252C497.925 65.0328 497.853 65.7662 497.577 66.4328C497.301 67.0993 496.834 67.669 496.234 68.0698C495.635 68.4706 494.93 68.6845 494.209 68.6845C493.242 68.6845 492.315 68.3002 491.631 67.6162C490.948 66.9321 490.563 66.0043 490.563 65.0368ZM488.941 45.0201C489.662 45.0201 490.367 45.234 490.967 45.6348C491.566 46.0356 492.033 46.6053 492.309 47.2718C492.585 47.9384 492.657 48.6718 492.517 49.3794C492.376 50.087 492.029 50.7369 491.519 51.2471C491.009 51.7572 490.36 52.1046 489.652 52.2454C488.945 52.3861 488.212 52.3139 487.546 52.0378C486.88 51.7617 486.311 51.2942 485.91 50.6943C485.509 50.0945 485.296 49.3892 485.296 48.6678C485.296 47.7003 485.68 46.7725 486.363 46.0884C487.047 45.4044 487.974 45.0201 488.941 45.0201ZM499.158 38.6366C499.158 37.9151 499.372 37.2099 499.772 36.61C500.173 36.0102 500.742 35.5426 501.408 35.2665C502.074 34.9905 502.807 34.9182 503.515 35.059C504.222 35.1997 504.871 35.5471 505.381 36.0573C505.891 36.5674 506.238 37.2174 506.379 37.9249C506.52 38.6325 506.447 39.366 506.171 40.0325C505.896 40.699 505.428 41.2687 504.829 41.6695C504.229 42.0703 503.524 42.2843 502.803 42.2843C502.321 42.2843 501.843 42.1885 501.398 42.0023C500.952 41.8162 500.548 41.5434 500.209 41.1998C499.87 40.8563 499.603 40.4487 499.422 40.0009C499.242 39.5531 499.152 39.0738 499.158 38.591V38.6366ZM511.79 49.5797L507.369 50.9932C507.009 50.2389 506.468 49.5857 505.793 49.0923C505.119 48.599 504.333 48.2807 503.505 48.1662V43.6066C504.634 43.4563 505.677 42.9217 506.458 42.0928L512.318 46.3424C511.922 47.0728 511.715 47.8912 511.717 48.7225C511.719 49.0066 511.743 49.2902 511.79 49.5706V49.5797ZM506.513 53.1636C506.513 53.885 506.299 54.5903 505.898 55.1901C505.498 55.79 504.928 56.2575 504.262 56.5336C503.596 56.8097 502.863 56.8819 502.156 56.7412C501.449 56.6004 500.799 56.253 500.289 55.7429C499.78 55.2327 499.432 54.5828 499.292 53.8752C499.151 53.1676 499.223 52.4342 499.499 51.7676C499.775 51.1011 500.242 50.5314 500.842 50.1306C501.441 49.7298 502.146 49.5159 502.867 49.5159C503.832 49.5159 504.758 49.8989 505.442 50.581C506.125 51.2631 506.51 52.1886 506.513 53.1544V53.1636ZM502.156 43.6066V48.1662C501.33 48.2789 500.546 48.5955 499.873 49.0874C499.2 49.5793 498.66 50.2311 498.301 50.9841L493.872 49.5706C493.929 49.27 493.956 48.9646 493.954 48.6586C493.946 47.85 493.743 47.0552 493.361 46.3424L499.213 42.0837C499.99 42.9141 501.03 43.4518 502.156 43.6066ZM493.462 50.902L497.891 52.3155C497.835 52.6161 497.807 52.9215 497.809 53.2274C497.806 53.9106 497.943 54.5871 498.213 55.2147C498.483 55.8423 498.879 56.4075 499.377 56.8751L496.642 60.7052C495.915 60.3094 495.101 60.1025 494.273 60.1033C493.967 60.1015 493.662 60.129 493.361 60.1854L491.119 53.2183C492.142 52.7338 492.971 51.9175 493.471 50.902H493.462ZM511.416 60.0212C510.59 60.0225 509.776 60.226 509.046 60.614L506.312 56.8021C506.808 56.3332 507.203 55.7677 507.473 55.1404C507.742 54.5131 507.881 53.8373 507.88 53.1544C507.882 52.8485 507.855 52.5431 507.798 52.2425L512.182 50.8473C512.678 51.8786 513.506 52.7134 514.533 53.2183L512.3 60.0942C512.008 60.0431 511.712 60.0187 511.416 60.0212ZM513.093 48.6951C513.093 47.9737 513.307 47.2684 513.707 46.6686C514.108 46.0687 514.677 45.6012 515.343 45.3251C516.01 45.049 516.743 44.9768 517.45 45.1175C518.157 45.2583 518.806 45.6057 519.316 46.1158C519.826 46.6259 520.173 47.2759 520.314 47.9835C520.455 48.6911 520.382 49.4245 520.107 50.091C519.831 50.7576 519.363 51.3273 518.764 51.7281C518.164 52.1289 517.459 52.3428 516.738 52.3428C515.772 52.3428 514.844 51.9585 514.161 51.2744C513.477 50.5904 513.093 49.6626 513.093 48.6951Z" fill="#AA643B"/>
</g>
</g>
</g>
<text id="VCN" fill="#AE562C" xml:space="preserve" style="white-space: pre" font-family="Oracle Sans" font-size="16" font-weight="600" letter-spacing="0em"><tspan x="34" y="69.816">VCN</tspan></text>
</g>
<g id="Private subnet">
<rect x="55.5" y="80.5" width="439" height="243" stroke="#AA643B" stroke-dasharray="8 4"/>
<text id="Subnet" fill="#AE562C" xml:space="preserve" style="white-space: pre" font-family="Oracle Sans" font-size="16" font-weight="600" letter-spacing="0em"><tspan x="63" y="101.816">Private</tspan></text>
<text id="Subnet_2" fill="#AE562C" xml:space="preserve" style="white-space: pre" font-family="Oracle Sans" font-size="16" font-weight="600" letter-spacing="0em"><tspan x="63" y="117.816">Subnet A</tspan></text>
<g id="Icon Master_2">
<g id="Srv-Route table and security list">
<g id="Group">
<g id="Group_2">
<path id="Vector_4" d="M446.476 99.5189V73.0766H463.238V65.2882L474.476 60.4805L485.619 65.2882V75.4805C485.619 75.5766 485.619 78.0766 484.19 81.0574C482.952 83.7497 480.381 87.4035 474.857 89.4228V99.4228H446.476V99.5189Z" fill="white"/>
<path id="Vector_5" d="M474.381 61.0577L485.048 65.5769V75.4808C485.048 75.5769 485.048 77.9808 483.714 80.8654C482.476 83.5577 480 87.1154 474.667 89.0385L474.476 89.1346H474.381V99.0385H446.952V73.5577H463.714V65.5769L474.381 61.0577ZM474.381 60L474 60.1923L463.333 64.7115L462.762 65V65.6731V72.6923H446.952H446V73.6538V99.0385V100H446.952H474.381H475.333V99.0385V89.8077C480.667 87.6923 483.333 84.0385 484.571 81.25C486 78.1731 486 75.5769 486 75.4808V65.5769V65L485.429 64.7115L474.762 60.1923L474.381 60Z" fill="white"/>
</g>
<g id="Group_3">
<path id="Vector_6" d="M473.047 89.7115H455.524V82.9808H465.047C464.762 82.5 464.571 82.1154 464.381 81.7308H455.524V75H462.666V73.75H446.952V99.1346H474.381V90.2885L473.905 90.0962C473.619 89.9038 473.333 89.8077 473.047 89.7115ZM448.19 74.9038H454.285V81.6346H448.19V74.9038ZM454.285 82.8846V89.6154H448.19V82.8846H454.285ZM448.19 90.9615H454.285V97.6923H448.19V90.9615ZM473.047 97.6923H455.524V90.9615H473.047V97.6923Z" fill="#AA643B"/>
<path id="Vector_7" d="M471.619 95.1924H470.381V96.4424H471.619V95.1924Z" fill="#AA643B"/>
<path id="Vector_8" d="M466.381 96.4422L467.523 95.2884L468.666 96.4422L469.523 95.4807L468.381 94.3268L469.523 93.173L468.666 92.3076L467.523 93.4615L466.381 92.3076L465.428 93.173L466.571 94.3268L465.428 95.4807L466.381 96.4422Z" fill="#AA643B"/>
<path id="Vector_9" d="M463.619 95.1924H462.381V96.4424H463.619V95.1924Z" fill="#AA643B"/>
<path id="Vector_10" d="M457.523 95.4807L458.381 96.4422L459.523 95.2884L460.666 96.4422L461.619 95.4807L460.476 94.3268L461.619 93.173L460.666 92.3076L459.523 93.4615L458.381 92.3076L457.523 93.173L458.666 94.3268L457.523 95.4807Z" fill="#AA643B"/>
<path id="Vector_11" d="M463.619 87.1152H462.381V88.3652H463.619V87.1152Z" fill="#AA643B"/>
<path id="Vector_12" d="M457.523 87.4035L458.381 88.3651L459.523 87.2112L460.666 88.3651L461.619 87.4035L460.476 86.2497L461.619 85.0959L460.666 84.2305L459.523 85.3843L458.381 84.2305L457.523 85.0959L458.666 86.2497L457.523 87.4035Z" fill="#AA643B"/>
<path id="Vector_13" d="M462.095 80.3852H463.333V79.1352C463.333 79.1352 463.333 79.1352 463.333 79.0391H462.095V80.3852Z" fill="#AA643B"/>
<path id="Vector_14" d="M457.143 79.4235L458.095 80.2889L459.238 79.1351L460.381 80.2889L461.238 79.4235L460.095 78.2697L461.238 77.1158L460.381 76.1543L459.238 77.3081L458.095 76.1543L457.143 77.1158L458.285 78.2697L457.143 79.4235Z" fill="#AA643B"/>
<path id="Vector_15" d="M463.714 65.5768V75.4807C463.714 75.5768 463.809 77.9807 465.047 80.8653C466.285 83.5576 468.857 87.1153 474.19 89.0384L474.381 89.1345L474.571 89.0384C479.904 87.1153 482.476 83.5576 483.619 80.8653C484.952 77.9807 484.952 75.5768 484.952 75.4807V65.5768L474.381 61.0576L463.714 65.5768ZM483.809 75.4807C483.809 75.5768 483.619 84.2307 474.476 87.6922C470.666 86.2499 467.904 83.7499 466.285 80.3845C465.047 77.7884 465.047 75.4807 465.047 75.4807V66.4422L474.476 62.4038L483.809 66.4422V75.4807Z" fill="#AA643B"/>
<path id="Vector_16" d="M473.238 76.8271H468.285V78.0771H473.238V76.8271Z" fill="#AA643B"/>
<path id="Vector_17" d="M473.238 70.3848H468.285V71.6348H473.238V70.3848Z" fill="#AA643B"/>
<path id="Vector_18" d="M479.904 68.9424L477.143 71.6347L476.19 70.6732L475.238 71.5385L477.143 73.4616L480.762 69.8078L479.904 68.9424Z" fill="#AA643B"/>
<path id="Vector_19" d="M468.285 74.9038H473.047H473.238V73.5576H468.285V74.9038Z" fill="#AA643B"/>
</g>
</g>
</g>
</g>
</g>
<g id="Gateway">
<rect id="Rectangle 699" x="54" y="175" width="2" height="60" fill="#F5F4F2"/>
<g id="Icon Master_3">
<g id="Srv-OCI DRG">
<path id="Vector_20" d="M54.9999 214.524C65.7826 214.524 74.5237 205.783 74.5237 195C74.5237 184.218 65.7826 175.477 54.9999 175.477C44.2172 175.477 35.4761 184.218 35.4761 195C35.4761 205.783 44.2172 214.524 54.9999 214.524Z" fill="white"/>
<path id="Vector_21" d="M55 175.952C58.7673 175.952 62.4499 177.07 65.5823 179.162C68.7147 181.255 71.156 184.23 72.5977 187.711C74.0394 191.191 74.4166 195.021 73.6816 198.716C72.9467 202.411 71.1326 205.805 68.4687 208.469C65.8048 211.133 62.4109 212.947 58.716 213.682C55.0211 214.417 51.1913 214.039 47.7108 212.598C44.2303 211.156 41.2555 208.715 39.1625 205.582C37.0695 202.45 35.9524 198.767 35.9524 195C35.9524 189.948 37.9592 185.103 41.5313 181.531C45.1034 177.959 49.9483 175.952 55 175.952ZM55 175C51.0444 175 47.1776 176.173 43.8886 178.371C40.5996 180.568 38.0362 183.692 36.5224 187.346C35.0087 191.001 34.6126 195.022 35.3843 198.902C36.156 202.781 38.0608 206.345 40.8579 209.142C43.6549 211.939 47.2186 213.844 51.0982 214.616C54.9778 215.387 58.9992 214.991 62.6537 213.478C66.3082 211.964 69.4318 209.4 71.6294 206.111C73.827 202.822 75 198.956 75 195C75 189.696 72.8929 184.609 69.1421 180.858C65.3914 177.107 60.3043 175 55 175V175Z" fill="white"/>
<path id="Vector_22" d="M54.9998 175.952C51.2325 175.952 47.5499 177.069 44.4175 179.162C41.2851 181.255 38.8437 184.23 37.4021 187.711C35.9604 191.191 35.5832 195.021 36.3182 198.716C37.0531 202.411 38.8672 205.805 41.5311 208.468C44.1949 211.132 47.5889 212.946 51.2838 213.681C54.9786 214.416 58.8085 214.039 62.289 212.597C65.7695 211.156 68.7443 208.714 70.8373 205.582C72.9303 202.45 74.0474 198.767 74.0474 195C74.0474 192.498 73.5547 190.022 72.5975 187.711C71.6403 185.4 70.2372 183.3 68.4685 181.531C66.6997 179.762 64.5999 178.359 62.289 177.402C59.978 176.445 57.5011 175.952 54.9998 175.952ZM54.9998 212.457C51.5471 212.457 48.1719 211.433 45.3011 209.515C42.4303 207.597 40.1928 204.87 38.8715 201.68C37.5502 198.49 37.2045 194.98 37.8781 191.594C38.5517 188.208 40.2143 185.097 42.6557 182.656C45.0971 180.214 48.2077 178.552 51.5941 177.878C54.9804 177.204 58.4905 177.55 61.6803 178.871C64.8702 180.193 67.5966 182.43 69.5149 185.301C71.4331 188.172 72.4569 191.547 72.4569 195C72.4519 199.628 70.611 204.066 67.3383 207.338C64.0655 210.611 59.6282 212.452 54.9998 212.457Z" fill="#2D5967"/>
<path id="Vector_23" d="M55.7908 206.18V184.019L58.2098 186.438L59.3337 185.314L55.0003 180.98L50.667 185.314L51.7908 186.438L54.2098 184.019V206.18L51.7908 203.761L50.667 204.885L55.0003 209.219L59.3337 204.885L58.2098 203.761L55.7908 206.18Z" fill="#2D5967"/>
<path id="Vector_24" d="M49.8093 190.667L48.6855 191.791L51.1045 194.21H40.9141V195.791H51.1045L48.6855 198.21L49.8093 199.334L54.1331 195L49.8093 190.667Z" fill="#2D5967"/>
<path id="Vector_25" d="M58.8953 194.21L61.3143 191.791L60.1905 190.667L55.8667 195L60.1905 199.334L61.3143 198.21L58.8953 195.791H69.0857V194.21H58.8953Z" fill="#2D5967"/>
</g>
<g id="Icon Text Label">
<text id="IconLabel" fill="black" xml:space="preserve" style="white-space: pre" font-family="Oracle Sans" font-size="16" letter-spacing="0em"><tspan x="38.8359" y="232.816">DRG</tspan></text>
</g>
</g>
</g>
<g id="ADW-D">
<g id="Srv-ADW-D">
<g id="Group 837">
<path id="Vector_26" d="M385.207 221.49L381.817 218.115C381.668 217.648 381.487 217.192 381.277 216.75L380.632 215.7C379.829 214.411 378.768 213.301 377.516 212.442C376.264 211.582 374.848 210.991 373.357 210.705H373.252L372.727 210.615H372.667H372.112H371.962H371.287H370.687L370.342 210.045C369.294 208.212 367.781 206.688 365.956 205.626C364.131 204.565 362.058 204.004 359.947 204C358.28 204.002 356.632 204.346 355.104 205.012C353.577 205.678 352.202 206.65 351.067 207.87C350.897 208.049 350.692 208.191 350.465 208.287C350.238 208.383 349.993 208.43 349.747 208.425H349.552C349.242 208.425 348.927 208.425 348.607 208.425C346.284 208.425 344.034 209.228 342.237 210.699C340.441 212.171 339.209 214.218 338.752 216.495C338.689 216.78 338.565 217.049 338.389 217.282C338.213 217.515 337.989 217.707 337.732 217.845C335.783 218.859 334.128 220.357 332.928 222.196C331.727 224.036 331.021 226.153 330.877 228.345L330.787 229.44L330.667 231L330.847 231.24V264H349.867V255.51H376.162V250.365H374.362V232.14C376.035 231.658 377.57 230.785 378.84 229.593C380.11 228.401 381.079 226.925 381.667 225.285L382.627 226.23L383.707 225.135L385.207 223.635L386.287 222.54L385.207 221.49Z" fill="white"/>
<path id="Vector_27" d="M367.207 211.215L367.552 211.095H367.687L368.017 210.99H368.182L368.452 210.915H368.662H368.752H368.872C367.943 209.355 366.626 208.062 365.048 207.163C363.471 206.264 361.687 205.789 359.872 205.785C358.417 205.786 356.977 206.086 355.643 206.666C354.309 207.247 353.109 208.096 352.117 209.16C351.755 209.493 351.323 209.741 350.854 209.886C350.384 210.031 349.888 210.07 349.402 210C347.309 209.807 345.219 210.394 343.533 211.648C341.846 212.902 340.683 214.735 340.267 216.795C340.161 217.307 339.944 217.788 339.63 218.206C339.316 218.624 338.914 218.966 338.452 219.21C336.752 220.102 335.309 221.414 334.259 223.021C333.209 224.627 332.587 226.476 332.452 228.39V229.5H338.452V227.445H334.612C334.88 226.084 335.451 224.801 336.282 223.689C337.113 222.578 338.182 221.668 339.412 221.025C340.149 220.642 340.791 220.098 341.29 219.434C341.788 218.769 342.131 218 342.292 217.185C342.49 216.167 342.932 215.213 343.58 214.403C344.228 213.593 345.062 212.952 346.012 212.535C347.013 212.087 348.114 211.906 349.207 212.01C350.036 212.097 350.873 211.991 351.654 211.7C352.435 211.408 353.138 210.939 353.707 210.33C354.574 209.391 355.642 208.66 356.832 208.191C358.021 207.723 359.301 207.529 360.576 207.624C361.85 207.719 363.087 208.101 364.194 208.741C365.301 209.381 366.248 210.263 366.967 211.32H367.087L367.207 211.215Z" fill="#2D5967"/>
<path id="Vector_28" d="M341.916 224.79C346.125 222.524 350.804 221.271 355.581 221.13L356.841 219.885L357.636 219.09C351.327 218.872 345.088 220.476 339.666 223.71L340.176 224.61L339.666 223.71L337.881 224.76L338.391 225.645L339.891 225.54V231.285H341.916V224.79Z" fill="#2D5967"/>
<path id="Vector_29" d="M372.771 232.5C372.636 232.507 372.501 232.507 372.366 232.5H370.761V251.91H368.691V235.41H357.366V251.91H355.296V235.41H349.881V237.48H353.241V241.095H349.881V243.15H353.241V246.495H349.881V248.565H353.241V251.91H349.881V253.965H374.616V251.91H372.816V232.5H372.771ZM366.666 246.495H359.421V243.15H366.666V246.495ZM366.666 237.495V241.11H359.421V237.48L366.666 237.495ZM359.451 248.58H366.666V251.925H359.421L359.451 248.58Z" fill="#2D5967"/>
<path id="Vector_30" d="M355.311 225.63H343.971V231.285H346.026V227.7H353.241V231.3H349.881V232.83V233.37H355.311V225.63Z" fill="#2D5967"/>
<path id="Vector_31" d="M357.366 233.37H368.691V232.275C367.788 232.063 366.916 231.735 366.096 231.3H359.421V227.7H362.166L362.031 227.505L361.941 227.385L361.281 226.32L361.011 225.69H357.366V233.37Z" fill="#2D5967"/>
<path id="Vector_32" d="M371.227 218.475L370.372 222.195H372.082L371.227 218.475Z" fill="white"/>
<path id="Vector_33" d="M372.276 216H370.251L367.386 225.93H369.516L369.996 223.845H372.456L372.936 225.93H375.141L372.276 216ZM371.166 218.475L372.021 222.195H370.371L371.166 218.475Z" fill="#2D5967"/>
<path id="Vector_34" d="M358.431 220.5L362.766 224.835L367.101 220.5L365.601 219L363.831 220.8C364.002 219.214 364.673 217.724 365.748 216.545C366.823 215.367 368.246 214.562 369.81 214.248C371.374 213.934 372.997 214.126 374.444 214.797C375.891 215.468 377.086 216.583 377.856 217.98L379.356 216.48C378.293 214.768 376.714 213.437 374.847 212.679C372.979 211.921 370.919 211.775 368.963 212.262C367.008 212.748 365.257 213.843 363.963 215.388C362.668 216.933 361.898 218.849 361.761 220.86L359.901 219L358.431 220.5Z" fill="#2D5967"/>
<path id="Vector_35" d="M382.657 224.04L384.157 222.54L379.777 218.25L375.442 222.585L376.942 224.085L378.667 222.24C378.473 223.808 377.79 225.274 376.714 226.431C375.638 227.587 374.225 228.374 372.676 228.68C371.126 228.986 369.519 228.795 368.085 228.134C366.65 227.473 365.461 226.377 364.687 225L363.187 226.5C364.249 228.212 365.827 229.542 367.693 230.301C369.559 231.059 371.618 231.207 373.573 230.722C375.528 230.237 377.279 229.144 378.574 227.601C379.87 226.058 380.642 224.145 380.782 222.135L382.657 224.04Z" fill="#2D5967"/>
<path id="Vector_36" d="M334.446 234.9V260.4H346.266V234.9H334.446ZM335.946 236.7H344.736V238.755H335.976L335.946 236.7ZM335.946 240.555H344.736V242.625H335.976L335.946 240.555ZM335.946 244.425H344.736V246.48H335.976L335.946 244.425ZM344.616 258.12H342.351L340.296 254.625L338.316 258.12H336.141L338.976 253.335L336.276 248.835H338.541L340.446 252.015L342.291 248.835H344.481L341.766 253.335L344.616 258.12Z" fill="white"/>
<path id="Vector_37" d="M332.391 232.83V262.5H348.321V232.83H332.391ZM346.266 260.4H334.446V234.9H346.266V260.4Z" fill="#2D5967"/>
<path id="Vector_38" d="M344.737 236.7H335.977V238.755H344.737V236.7Z" fill="#2D5967"/>
<path id="Vector_39" d="M344.737 240.555H335.977V242.61H344.737V240.555Z" fill="#2D5967"/>
<path id="Vector_40" d="M344.737 244.425H335.977V246.48H344.737V244.425Z" fill="#2D5967"/>
<path id="Vector_41" d="M344.481 248.895H342.291L340.446 252.075L338.541 248.895H336.276L338.976 253.335L336.141 258.12H338.316L340.296 254.625L342.351 258.12H344.616L341.766 253.365L344.481 248.895Z" fill="#2D5967"/>
</g>
</g>
<g id="Icon Text Label_2">
<text id="IconLabel_2" fill="black" xml:space="preserve" style="white-space: pre" font-family="Oracle Sans" font-size="16" letter-spacing="0em"><tspan x="286.43" y="281.816">Oracle Autonomous&#10;</tspan><tspan x="315.352" y="297.816">AI Database</tspan></text>
</g>
</g>
<g id="APEX">
<g id="Srv-Oracle APEX">
<g id="Group_4">
<g id="Group_5">
<path id="Vector_42" d="M170.845 271.275C169.131 271.275 167.703 269.846 167.703 268.132V215.846C167.703 214.132 169.131 212.703 170.845 212.703H223.274C224.988 212.703 226.417 214.132 226.417 215.846V268.275C226.417 269.989 224.988 271.417 223.274 271.417H170.845V271.275Z" fill="white"/>
<path id="Vector_43" d="M223.143 213.429C224.571 213.429 225.571 214.429 225.571 215.857V268.286C225.571 269.571 224.571 270.714 223.143 270.714H170.857C169.429 270.571 168.429 269.571 168.429 268.143V215.857C168.429 214.429 169.429 213.429 170.857 213.429H223.143ZM223.143 212H170.857C168.714 212 167 213.714 167 215.857V268.286C167 270.286 168.714 272 170.857 272H223.286C225.429 272 227.143 270.286 227.143 268.143V215.857C227 213.714 225.286 212 223.143 212Z" fill="white"/>
</g>
<g id="Group_6">
<path id="Vector_44" d="M223.153 215.866H170.867V268.295H223.296L223.153 215.866ZM208.439 253.152L207.581 252.295L206.724 251.438L208.296 249.866L206.439 248.009L204.867 249.581L204.01 248.723L203.153 247.866L204.724 246.295L203.01 244.581L204.724 242.866L215.439 253.581L208.724 260.152L198.01 249.438L199.724 247.723L208.724 256.723L212.01 253.438L209.867 251.295L208.439 253.152ZM190.867 235.581L190.01 234.723L189.153 233.866L190.724 232.295L188.581 230.152L187.01 231.723L186.153 230.866L185.296 230.009L186.867 228.438L184.867 226.438L181.581 229.723L190.581 238.866L188.867 240.581L178.153 229.866L184.867 223.295L195.581 234.009L193.867 235.723L192.296 234.152L190.867 235.581ZM182.296 249.723L208.867 223.152L215.581 229.723L189.01 256.295L179.439 259.295L182.296 249.723Z" fill="white"/>
<path id="Vector_45" d="M223.121 213.407H170.835C169.406 213.407 168.406 214.407 168.406 215.836V268.264C168.406 269.55 169.406 270.55 170.835 270.55H223.263C224.549 270.55 225.692 269.55 225.692 268.122V215.836C225.549 214.407 224.549 213.407 223.121 213.407ZM170.835 215.836H223.263V268.264H170.835V215.836Z" fill="#2D5967"/>
<path id="Vector_46" d="M208.886 257.029L199.886 248.029L198.171 249.743L208.886 260.458L215.6 253.886L204.886 243.172L203.171 244.886L204.886 246.6L203.314 248.172L204.171 249.029L205.029 249.886L206.6 248.315L208.457 250.172L206.886 251.743L207.743 252.6L208.6 253.458L210.171 251.886L212.314 254.029L208.886 257.029Z" fill="#2D5967"/>
<path id="Vector_47" d="M195.561 233.848L184.847 223.134L178.133 229.705L188.847 240.42L190.561 238.705L181.561 229.562L184.847 226.277L186.847 228.277L185.276 229.848L186.133 230.705L186.99 231.562L188.561 229.991L190.704 232.134L189.133 233.705L189.99 234.562L190.847 235.42L192.419 233.848L193.99 235.42L195.561 233.848Z" fill="#2D5967"/>
<path id="Vector_48" d="M209.545 232.271L212.116 229.7L208.831 226.414L206.259 228.985L209.545 232.271Z" fill="white"/>
<path id="Vector_49" d="M185.749 249.691L189.035 252.834L207.892 233.977L204.606 230.691L185.749 249.691Z" fill="white"/>
<path id="Vector_50" d="M187.196 254.409L184.339 251.552L183.053 255.695L187.196 254.409Z" fill="white"/>
<path id="Vector_51" d="M188.969 256.277L215.541 229.705L208.826 223.134L182.398 249.562L179.541 259.134L188.969 256.277ZM212.112 229.705L209.541 232.277L206.255 228.991L208.826 226.42L212.112 229.705ZM204.541 230.705L207.826 233.991L188.969 252.848L185.683 249.562L204.541 230.705ZM184.255 251.562L187.112 254.42L182.969 255.705L184.255 251.562Z" fill="#2D5967"/>
</g>
</g>
</g>
<g id="Icon Text Label_3">
<text id="IconLabel_3" fill="black" xml:space="preserve" style="white-space: pre" font-family="Oracle Sans" font-size="16" letter-spacing="0em"><tspan x="152.133" y="289.816">Oracle APEX</tspan></text>
</g>
</g>
<g id="OSN">
<rect x="549" y="23" width="177" height="454" stroke="#9E9892" stroke-width="2" stroke-dasharray="8 4"/>
<text id="Oracle Services Network" fill="#312D2A" xml:space="preserve" style="white-space: pre" font-family="Oracle Sans" font-size="16" font-weight="600" letter-spacing="0em"><tspan x="556" y="43.816">Oracle Services </tspan></text>
<text id="Oracle Services Network_2" fill="#312D2A" xml:space="preserve" style="white-space: pre" font-family="Oracle Sans" font-size="16" font-weight="600" letter-spacing="0em"><tspan x="556" y="59.816">Network</tspan></text>
<rect id="Rectangle 692" x="676" y="22" width="44" height="2" fill="#F5F4F2"/>
<g id="Srv-Oracle Services Network">
<g id="Group 747">
<path id="Vector_52" d="M701.153 38.8361L701.153 37.4857L694.842 37.4857L694.842 38.8361L690.42 41.3869L686.007 38.8361L686.007 33.7346L687.128 33.0903L683.995 27.6358L682.847 28.2889L678.434 25.7382L678.434 20.6455L682.847 18.0947L684.074 18.8008L687.137 13.3639L686.007 12.7108L686.007 7.61813L690.42 5.06738L694.842 7.61813L694.842 8.96853L701.153 8.96853L701.153 7.61813L705.566 5.06738L709.979 7.61813L709.979 12.7108L708.867 13.3639L711.991 18.7567L713.138 18.0947L717.56 20.6455L717.56 25.7382L713.138 28.2889L712.07 27.6711L708.867 33.0992L709.979 33.7346L709.979 38.8361L705.566 41.3869L701.153 38.8361Z" fill="white"/>
<path id="Vector_53" d="M705.565 5.57067L709.546 7.87429L709.546 12.4992L708.257 13.2406L711.788 19.4189L713.103 18.6598L717.075 20.9546L717.075 25.553L713.103 27.8478L711.876 27.1329L708.231 33.3112L709.511 34.0437L709.511 38.6333L705.53 40.9281L701.558 38.6333L701.558 37.0446L694.4 37.0446L694.4 38.5804L690.42 40.8752L686.448 38.5804L686.448 33.9908L687.701 33.2494L684.171 27.0711L682.865 27.8302L678.875 25.4912L678.875 20.8928L682.847 18.598L684.242 19.4012L687.772 13.2229L686.448 12.4992L686.448 7.87429L690.42 5.57067L694.4 7.87429L694.4 9.41003L701.594 9.41003L701.594 7.87429L705.565 5.57067ZM705.565 4.55566L705.124 4.81162L701.152 7.10641L700.711 7.36237L700.711 8.52742L695.283 8.52742L695.283 7.36237L694.842 7.10641L690.861 4.81162L690.42 4.55566L689.979 4.81162L686.007 7.10641L685.565 7.36237L685.565 12.967L686.007 13.2229L686.536 13.5318L683.889 18.192L683.271 17.839L682.829 17.583L682.388 17.839L678.434 20.1338L677.993 20.3897L677.993 25.9943L678.434 26.2503L682.406 28.5451L682.847 28.801L683.288 28.5451L683.827 28.2362L686.528 32.9317L686.007 33.2317L685.565 33.4877L685.565 39.0923L686.007 39.3482L689.979 41.643L690.42 41.899L690.861 41.643L694.842 39.3482L695.283 39.0923L695.283 37.9272L700.711 37.9272L700.711 39.0923L701.152 39.3482L705.124 41.643L705.565 41.899L706.007 41.643L709.987 39.3482L710.429 39.0923L710.429 33.4877L709.987 33.2317L709.475 32.9405L712.229 28.2715L712.697 28.5451L713.138 28.801L713.58 28.5451L717.551 26.2503L717.993 25.9943L717.993 20.3897L717.551 20.1338L713.58 17.839L713.138 17.583L712.697 17.839L712.15 18.1567L709.502 13.523L710.023 13.2229L710.464 12.967L710.464 7.36237L710.023 7.10641L706.007 4.81162L705.565 4.55566Z" fill="white"/>
<path id="Vector_54" d="M713.139 18.5977L711.823 19.3567L708.293 13.1784L709.546 12.4988L709.546 7.87393L705.566 5.57031L701.594 7.87393L701.594 9.40968L694.401 9.40968L694.401 7.87393L690.42 5.57031L686.448 7.87393L686.448 12.4988L687.702 13.2049L684.171 19.3832L682.847 18.5977L678.875 20.8925L678.875 25.4909L682.847 27.7857L684.171 27.0266L687.702 33.2049L686.422 33.9463L686.422 38.5359L690.394 40.8307L694.374 38.5359L694.374 37.0443L701.567 37.0443L701.567 38.58L705.539 40.8748L709.52 38.58L709.52 33.9904L708.24 33.2579L711.885 27.0796L713.112 27.7945L717.084 25.4997L717.084 20.8925L713.139 18.5977ZM703.103 8.74772L705.566 7.32671L708.002 8.74772L708.002 11.6162L705.566 13.0107L703.103 11.6162L703.103 8.74772ZM687.966 8.74772L690.42 7.32671L692.883 8.74772L692.883 11.6162L690.42 13.0107L687.966 11.6162L687.966 8.74772ZM680.394 24.6347L680.394 21.7751L682.847 20.3541L685.31 21.7751L685.31 24.6083L682.847 26.0293L680.394 24.6347ZM692.883 37.7062L690.42 39.1272L687.966 37.7062L687.966 34.8642L690.42 33.4432L692.883 34.8642L692.883 37.7062ZM708.028 37.7062L705.566 39.1272L703.103 37.7062L703.103 34.8642L705.566 33.4432L708.002 34.8642L708.028 37.7062ZM706.951 32.4988L705.566 31.6956L704.33 32.4106L701.973 28.3858L700.208 28.3858L703.006 33.2137L701.576 34.0346L701.576 35.535L694.401 35.535L694.401 33.9904L692.997 33.1696L695.795 28.3858L694.03 28.3858L691.656 32.4635L690.411 31.7398L689.034 32.543L685.504 26.3647L686.819 25.4909L686.819 23.9728L690.438 23.9728C690.829 23.3858 691.344 22.8917 691.947 22.5253C691.95 22.5048 691.95 22.484 691.947 22.4635L686.819 22.4635L686.819 20.8925L685.539 20.1599L689.07 13.9816L690.438 14.776L691.885 13.8933L695.195 19.595C695.411 19.5595 695.629 19.5418 695.848 19.5421L695.919 19.5421C696.133 19.3463 696.363 19.1691 696.607 19.0125L693.183 13.1608L694.401 12.4988L694.401 10.9189L701.594 10.9189L701.594 12.4988L702.856 13.2226L699.829 18.43C700.339 18.5191 700.831 18.6921 701.285 18.9419L704.171 13.9816L705.566 14.7936L706.951 13.9904L710.482 20.1687L709.131 20.9454L709.131 22.4723L705.583 22.4723C705.89 22.929 706.111 23.4374 706.236 23.9728L709.14 23.9728L709.14 25.4821L710.57 26.3029L706.951 32.4988ZM715.601 24.6083L713.139 26.0293L710.65 24.6083L710.65 21.7751L713.112 20.3541L715.575 21.7751L715.601 24.6083Z" fill="#2D5967"/>
<path id="Vector_55" d="M704.639 27.2034L704.85 26.8062C705.276 26.0127 705.383 25.0863 705.148 24.2166C704.914 23.347 704.356 22.6 703.588 22.1284C703.247 21.9129 702.87 21.7577 702.476 21.6694C702.398 21.6535 702.325 21.6208 702.261 21.5735C702.197 21.5263 702.144 21.4656 702.106 21.3958C701.823 20.8149 701.383 20.3253 700.835 19.9834C700.287 19.6415 699.653 19.4611 699.008 19.4629C698.541 19.4711 698.081 19.573 697.655 19.7626C697.229 19.9521 696.846 20.2254 696.527 20.5662C696.475 20.6228 696.411 20.6659 696.338 20.6921C696.266 20.7182 696.189 20.7265 696.113 20.7162C695.626 20.6706 695.136 20.7528 694.692 20.9545C694.261 21.1384 693.882 21.4241 693.587 21.7869C693.292 22.1498 693.089 22.579 692.997 23.0375C692.983 23.1106 692.954 23.1799 692.912 23.2408C692.869 23.3017 692.814 23.3527 692.75 23.3905C692.191 23.6809 691.716 24.1088 691.368 24.6338C691.021 25.1589 690.813 25.7637 690.764 26.3914L690.702 27.2034L704.639 27.2034ZM694.489 23.3287C694.532 23.1124 694.627 22.9096 694.765 22.7376C694.903 22.5656 695.081 22.4293 695.283 22.3402C695.493 22.2453 695.724 22.2058 695.954 22.2255C696.26 22.2582 696.57 22.2185 696.858 22.1097C697.146 22.0008 697.405 21.8259 697.613 21.5988C697.826 21.3656 698.094 21.1882 698.392 21.0823C698.689 20.9764 699.009 20.9451 699.322 20.9913C699.634 21.0375 699.931 21.1596 700.185 21.3471C700.44 21.5346 700.645 21.7816 700.782 22.0666C700.919 22.339 701.115 22.5771 701.357 22.7634C701.598 22.9498 701.878 23.0796 702.176 23.1434C702.404 23.1963 702.621 23.2857 702.82 23.4082C703.192 23.6436 703.478 23.9917 703.636 24.4015C703.795 24.8114 703.819 25.2613 703.703 25.6853L692.512 25.6853C692.716 25.2748 693.047 24.9407 693.456 24.7321C693.723 24.5915 693.955 24.3922 694.134 24.1491C694.312 23.9061 694.434 23.6255 694.489 23.3287Z" fill="#2D5967"/>
</g>
</g>
</g>
<g id="OCI Generative AI">
<g id="Srv-Generative AI">
<g id="Group_7">
<path id="Vector_56" d="M362.757 419.382H381.957C382.914 421.184 384.814 422.372 386.9 422.372C389.986 422.372 392.5 419.854 392.5 416.75C392.5 413.646 389.986 411.128 386.9 411.128C384.814 411.128 382.914 412.316 381.957 414.118H362.757H362.4V412.487H362.757H374.843H375.429L375.843 412.073L380.029 407.881C380.571 408.053 381.129 408.139 381.7 408.139C384.786 408.139 387.3 405.621 387.3 402.517C387.3 399.413 384.786 396.896 381.7 396.896C378.614 396.896 376.1 399.413 376.1 402.517C376.1 403.075 376.186 403.619 376.343 404.148L373.257 407.238H362.757H362.4V403.991L363.771 402.618L366.429 399.957C366.971 400.129 367.529 400.214 368.1 400.214C371.186 400.214 373.7 397.697 373.7 394.593C373.7 391.489 371.171 389 368.086 389C365.843 389 363.914 390.33 363.029 392.247V392.204L362.443 393.391L362.014 392.261C362.014 392.247 362 392.233 362 392.218C361.243 390.388 359.5 389.1 357.414 389.029C357.271 389.029 357.143 389.029 357 389.029C355.5 389.029 354 389.3 352.557 389.844C349.971 390.802 347.729 392.576 346.186 394.865C340.043 395.995 335.5 401.416 335.5 407.738C335.5 407.953 335.5 408.182 335.514 408.411C333.571 410.742 332.5 413.689 332.5 416.764C332.5 419.84 333.571 422.786 335.514 425.132C335.5 425.347 335.5 425.547 335.5 425.762C335.5 432.041 340.014 437.448 346.114 438.621C348.543 442.311 352.557 444.5 357 444.5C357.114 444.5 357.229 444.5 357.343 444.5C360.014 444.428 362.171 442.283 362.357 439.665H362.571C362.957 442.383 365.271 444.5 368.1 444.5C371.186 444.5 373.7 441.982 373.7 438.878C373.7 435.774 371.186 433.257 368.1 433.257C367.529 433.257 366.971 433.343 366.429 433.514L363.771 430.854L362.4 429.481V426.262H362.757H373.257L376.4 429.423C376.286 429.881 376.229 430.339 376.229 430.811C376.229 433.901 378.743 436.432 381.829 436.432C384.914 436.432 387.429 433.915 387.429 430.811C387.429 427.707 384.914 425.189 381.829 425.189C381.186 425.189 380.543 425.304 379.929 425.518L375.843 421.413L375.429 420.998H374.843H362.757H362.4V419.368H362.757V419.382Z" fill="white"/>
<g id="Group_8">
<path id="Vector_57" d="M366.086 398.284C366.686 398.613 367.372 398.799 368.086 398.799C370.386 398.799 372.257 396.925 372.257 394.607C372.257 392.29 370.386 390.431 368.086 390.431C365.786 390.431 363.915 392.305 363.915 394.622C363.915 395.337 364.1 395.995 364.4 396.581L362.743 398.241V401.616L366.086 398.284ZM368.086 392.819C369.072 392.819 369.872 393.62 369.872 394.607C369.872 395.594 369.072 396.395 368.086 396.395C367.1 396.395 366.3 395.594 366.3 394.607C366.3 393.62 367.1 392.819 368.086 392.819Z" fill="#2D5967"/>
<path id="Vector_58" d="M368.086 434.688C367.357 434.688 366.672 434.874 366.086 435.203L362.757 431.87V435.246L364.414 436.905C364.1 437.492 363.929 438.164 363.929 438.865C363.929 441.168 365.8 443.056 368.1 443.056C370.4 443.056 372.272 441.182 372.272 438.865C372.272 436.548 370.386 434.688 368.086 434.688ZM368.086 440.667C367.1 440.667 366.3 439.866 366.3 438.879C366.3 437.892 367.1 437.091 368.086 437.091C369.072 437.091 369.872 437.892 369.872 438.879C369.872 439.866 369.072 440.667 368.086 440.667Z" fill="#2D5967"/>
<path id="Vector_59" d="M360.957 429.624V394.207C360.957 392.161 359.372 390.516 357.357 390.445C355.9 390.402 354.457 390.63 353.057 391.16C350.543 392.089 348.429 393.863 347.043 396.152C341.314 396.924 336.929 401.874 336.929 407.724C336.929 408.096 336.943 408.468 337 408.883C335.014 411.028 333.929 413.817 333.929 416.764C333.929 419.711 335.014 422.486 336.986 424.646C336.943 425.032 336.929 425.404 336.929 425.761C336.929 431.583 341.3 436.532 346.986 437.305C349.072 440.867 352.857 443.069 357 443.069C357.1 443.069 357.2 443.069 357.3 443.069C359.329 443.012 360.972 441.324 360.972 439.307L360.957 429.624ZM357.286 392.848C358 392.876 358.586 393.491 358.586 394.221V404.362V408.697H351.1L350.357 407.953C350.657 407.366 350.843 406.708 350.843 406.007C350.843 403.704 348.972 401.816 346.672 401.816C344.372 401.816 342.5 403.69 342.5 406.007C342.5 408.325 344.372 410.199 346.672 410.199C347.4 410.199 348.1 409.998 348.7 409.669L350.129 411.1H358.6V415.591H347.4C346.886 413.86 345.286 412.602 343.4 412.602C341.1 412.602 339.229 414.475 339.229 416.793C339.229 419.096 341.1 420.984 343.4 420.984C345.286 420.984 346.886 419.725 347.4 417.994H358.6V422.486H350.129L348.886 423.73C348.243 423.33 347.486 423.087 346.672 423.087C344.372 423.087 342.5 424.96 342.5 427.278C342.5 429.581 344.372 431.469 346.672 431.469C348.972 431.469 350.843 429.595 350.843 427.278C350.843 426.648 350.7 426.062 350.457 425.533L351.1 424.889H358.586V439.35C358.586 440.094 357.986 440.709 357.229 440.724C357.143 440.724 357.072 440.724 356.986 440.724C353.514 440.724 350.372 438.792 348.772 435.688L348.472 435.102L347.814 435.045C343.043 434.659 339.314 430.611 339.314 425.804C339.314 425.389 339.357 424.96 339.429 424.431L339.514 423.83L339.086 423.401C337.3 421.642 336.314 419.296 336.314 416.793C336.314 414.289 337.3 411.944 339.086 410.184L339.514 409.755L339.429 409.154C339.343 408.625 339.314 408.182 339.314 407.767C339.314 402.946 343.072 398.884 347.857 398.526L348.514 398.483L348.829 397.897C349.929 395.837 351.729 394.264 353.886 393.448L357.286 392.848ZM346.657 407.795C345.672 407.795 344.872 406.994 344.872 406.007C344.872 405.02 345.672 404.219 346.657 404.219C347.643 404.219 348.443 405.02 348.443 406.007C348.443 406.98 347.643 407.795 346.657 407.795ZM345.157 416.764C345.157 417.751 344.357 418.552 343.372 418.552C342.386 418.552 341.586 417.751 341.586 416.764C341.586 415.777 342.386 414.976 343.372 414.976C344.357 414.976 345.157 415.777 345.157 416.764ZM348.443 427.22C348.443 428.207 347.643 429.008 346.657 429.008C345.672 429.008 344.872 428.207 344.872 427.22C344.872 426.233 345.672 425.432 346.657 425.432C347.643 425.432 348.443 426.233 348.443 427.22Z" fill="#2D5967"/>
<path id="Vector_60" d="M362.757 408.682V411.071H374.843L379.7 406.193C380.3 406.522 380.986 406.708 381.7 406.708C384 406.708 385.872 404.835 385.872 402.517C385.872 400.2 384 398.326 381.7 398.326C379.4 398.326 377.529 400.2 377.529 402.517C377.529 403.232 377.714 403.89 378.014 404.477L373.843 408.654H362.757V408.682ZM381.7 400.744C382.686 400.744 383.486 401.545 383.486 402.532C383.486 403.519 382.686 404.32 381.7 404.32C380.714 404.32 379.914 403.519 379.914 402.532C379.914 401.545 380.714 400.744 381.7 400.744Z" fill="#2D5967"/>
<path id="Vector_61" d="M381.829 426.62C381.029 426.62 380.272 426.849 379.643 427.249L374.843 422.429H362.757V424.817H373.857L378.057 429.052C377.8 429.595 377.657 430.182 377.657 430.811C377.657 433.114 379.529 435.002 381.829 435.002C384.129 435.002 386 433.128 386 430.811C386 428.508 384.129 426.62 381.829 426.62ZM381.829 432.599C380.843 432.599 380.043 431.798 380.043 430.811C380.043 429.824 380.843 429.023 381.829 429.023C382.814 429.023 383.614 429.824 383.614 430.811C383.614 431.798 382.814 432.599 381.829 432.599Z" fill="#2D5967"/>
<path id="Vector_62" d="M386.9 412.573C385.014 412.573 383.414 413.832 382.9 415.563H362.757V417.952H382.9C383.414 419.682 385.014 420.941 386.9 420.941C389.2 420.941 391.072 419.067 391.072 416.75C391.072 414.447 389.2 412.573 386.9 412.573ZM386.9 418.552C385.914 418.552 385.114 417.751 385.114 416.764C385.114 415.777 385.914 414.976 386.9 414.976C387.886 414.976 388.686 415.777 388.686 416.764C388.686 417.751 387.886 418.552 386.9 418.552Z" fill="#2D5967"/>
</g>
</g>
</g>
<g id="Icon Text Label_4">
<text id="IconLabel_4" fill="black" xml:space="preserve" style="white-space: pre" font-family="Oracle Sans" font-size="16" letter-spacing="0em"><tspan x="349.43" y="461.816">OCI</tspan></text>
<text id="IconLabel_5" fill="black" xml:space="preserve" style="white-space: pre" font-family="Oracle Sans" font-size="16" letter-spacing="0em"><tspan x="314.055" y="477.816">Generative AI</tspan></text>
</g>
</g>
<g id="OCI Speech">
<g id="Srv-Speech">
<g id="Group_9">
<path id="Vector_63" d="M644.407 155.648H645.923H646.484H647.102H647.645H649.095H650.724H651.042C651.304 155.705 651.576 155.752 651.884 155.752C652.184 155.752 652.465 155.705 652.727 155.648H653.054H654.673H656.19H656.751H657.369H657.912H659.372H661L660.176 154.219L659.016 152.2L660.953 148.905H659.306H657.855H657.303H656.751H656.208H654.758H653.101H652.68C652.427 148.838 652.165 148.8 651.884 148.8C651.604 148.8 651.342 148.848 651.089 148.905H650.686H649.039H647.589H647.036H646.484H645.942H644.491H644.397V147.4H644.416H645.932H646.494H647.111H647.654H649.105H650.733H651.042C651.304 147.467 651.576 147.505 651.884 147.505C652.184 147.505 652.465 147.457 652.727 147.4H653.045H654.664H656.18H656.742H657.359H657.902H659.372H661L660.176 145.971L659.016 143.952L660.953 140.657H659.306H657.855H657.303H656.751H656.208H654.758H653.11H652.689C652.437 140.59 652.175 140.552 651.894 140.552C651.613 140.552 651.351 140.6 651.098 140.657H650.696H649.049H647.598H647.046H646.494H645.951H644.491H644.397V133.952V133H643.461H642.217H641.281V133.952V138.4H621.936H621V139.352V170.143V171.095H621.936H624.818H625.212L625.483 170.81L629.994 166.171H641.271V172.048V173H642.207H643.461H644.397V172.048V163.905L644.416 163.895H645.932H646.494H647.111H647.654H649.105H650.733H651.051C651.314 163.952 651.585 164 651.894 164C652.193 164 652.474 163.952 652.736 163.895H653.064H654.683H656.199H656.76H657.378H657.921H659.372H661L660.176 162.467L659.016 160.448L660.953 157.152H659.306H657.855H657.303H656.751H656.208H654.758H653.101H652.68C652.427 157.086 652.165 157.048 651.884 157.048C651.604 157.048 651.342 157.095 651.089 157.152H650.686H649.039H647.589H647.036H646.484H645.942H644.491H644.397V155.648H644.407Z" fill="white"/>
<g id="Group_10">
<path id="Vector_64" d="M629.086 163.952L624.304 168.875H623.181V140.618H641.272V139.352H621.936V170.142H624.819L629.61 165.218H641.272V163.952H629.086Z" fill="#2D5967"/>
<path id="Vector_65" d="M630.874 156.019H632.119V154.752V152.295V151.028H631.389L631.669 150.305L632.343 148.571H630.509H629.227H628.544L628.179 149.152L626.606 151.628L626.41 151.943V152.314V154.762V156.028H627.645H630.874V156.019ZM627.645 152.295L629.217 149.819H630.5L629.545 152.276H630.865V154.733H627.645V152.295Z" fill="#2D5967"/>
<path id="Vector_66" d="M637.434 156.019H638.679V154.752V152.295V151.028H637.94L638.221 150.305L638.894 148.571H637.06H635.787H635.113L634.748 149.152L633.167 151.609L632.97 151.924V152.295V154.743V156.009H634.215H637.434V156.019ZM634.215 152.295L635.787 149.819H637.069L636.115 152.276H637.434V154.733H634.215V152.295Z" fill="#2D5967"/>
<path id="Vector_67" d="M643.452 133.952H642.208V172.047H643.452V133.952Z" fill="#2D5967"/>
<path id="Vector_68" d="M649.039 149.848H647.589L646.784 151.324L645.942 149.848H644.491L645.848 152.162L644.407 154.696H645.923L646.765 153.086L647.654 154.696H649.105L647.664 152.191L649.039 149.848Z" fill="#2D5967"/>
<path id="Vector_69" d="M653.129 150.037C652.783 149.837 652.371 149.742 651.884 149.742C651.398 149.742 650.986 149.837 650.64 150.037C650.293 150.238 650.031 150.523 649.853 150.904C649.676 151.276 649.582 151.733 649.582 152.266C649.582 153.067 649.779 153.695 650.181 154.133C650.583 154.572 651.145 154.8 651.884 154.8C652.624 154.8 653.185 154.581 653.588 154.133C653.99 153.695 654.187 153.067 654.187 152.266C654.187 151.733 654.093 151.276 653.915 150.904C653.737 150.523 653.475 150.238 653.129 150.037ZM651.894 153.676C651.257 153.676 650.939 153.21 650.939 152.266C650.939 151.333 651.257 150.857 651.894 150.857C652.53 150.857 652.848 151.323 652.848 152.266C652.848 153.21 652.53 153.676 651.894 153.676Z" fill="#2D5967"/>
<path id="Vector_70" d="M659.306 149.848H657.855L657.051 151.324L656.208 149.848H654.758L656.105 152.162L654.673 154.696H656.189L657.022 153.086L657.921 154.696H659.372L657.93 152.191L659.306 149.848Z" fill="#2D5967"/>
<path id="Vector_71" d="M649.039 141.59H647.589L646.784 143.066L645.942 141.59H644.491L645.848 143.905L644.407 146.438H645.923L646.765 144.829L647.654 146.438H649.105L647.664 143.933L649.039 141.59Z" fill="#2D5967"/>
<path id="Vector_72" d="M653.129 141.781C652.783 141.581 652.371 141.485 651.884 141.485C651.398 141.485 650.986 141.581 650.64 141.781C650.293 141.981 650.031 142.266 649.853 142.647C649.676 143.019 649.582 143.476 649.582 144.01C649.582 144.81 649.779 145.438 650.181 145.877C650.583 146.315 651.145 146.543 651.884 146.543C652.624 146.543 653.185 146.324 653.588 145.877C653.99 145.438 654.187 144.81 654.187 144.01C654.187 143.476 654.093 143.019 653.915 142.647C653.737 142.276 653.475 141.981 653.129 141.781ZM651.894 145.429C651.257 145.429 650.939 144.962 650.939 144.019C650.939 143.086 651.257 142.609 651.894 142.609C652.53 142.609 652.848 143.076 652.848 144.019C652.848 144.953 652.53 145.429 651.894 145.429Z" fill="#2D5967"/>
<path id="Vector_73" d="M656.189 146.438L657.022 144.829L657.921 146.438H659.372L657.93 143.933L659.306 141.59H657.855L657.051 143.066L656.208 141.59H654.758L656.105 143.905L654.673 146.438H656.189Z" fill="#2D5967"/>
<path id="Vector_74" d="M649.039 158.104H647.589L646.784 159.571L645.942 158.104H644.491L645.848 160.41L644.407 162.944H645.923L646.765 161.343L647.654 162.944H649.105L647.664 160.438L649.039 158.104Z" fill="#2D5967"/>
<path id="Vector_75" d="M653.129 158.295C652.783 158.095 652.371 158 651.884 158C651.398 158 650.986 158.095 650.64 158.295C650.293 158.495 650.031 158.781 649.853 159.162C649.676 159.534 649.582 159.991 649.582 160.524C649.582 161.324 649.779 161.953 650.181 162.391C650.583 162.829 651.145 163.058 651.884 163.058C652.624 163.058 653.185 162.839 653.588 162.391C653.99 161.953 654.187 161.324 654.187 160.524C654.187 159.991 654.093 159.534 653.915 159.162C653.737 158.781 653.475 158.495 653.129 158.295ZM651.894 161.934C651.257 161.934 650.939 161.467 650.939 160.524C650.939 159.591 651.257 159.114 651.894 159.114C652.53 159.114 652.848 159.581 652.848 160.524C652.848 161.467 652.53 161.934 651.894 161.934Z" fill="#2D5967"/>
<path id="Vector_76" d="M659.306 158.104H657.855L657.051 159.571L656.208 158.104H654.758L656.105 160.41L654.673 162.944H656.189L657.022 161.343L657.921 162.944H659.372L657.93 160.438L659.306 158.104Z" fill="#2D5967"/>
</g>
</g>
</g>
<g id="Icon Text Label_5">
<text id="IconLabel_6" fill="black" xml:space="preserve" style="white-space: pre" font-family="Oracle Sans" font-size="16" letter-spacing="0em"><tspan x="599.406" y="190.816">OCI Speech</tspan></text>
</g>
</g>
<g id="Object Storage">
<g id="Srv-OCI Object Storage">
<g id="Group_11">
<g id="Group_12">
<g id="Group_13">
<path id="Vector_77" d="M623.566 265.524C622.426 265.524 621.476 264.572 621.476 263.429V228.572C621.476 227.429 622.426 226.477 623.566 226.477H658.436C659.576 226.477 660.526 227.429 660.526 228.572V263.524C660.526 264.667 659.576 265.619 658.436 265.619L623.566 265.524Z" fill="white"/>
<path id="Vector_78" d="M658.34 226.952C659.195 226.952 659.955 227.714 659.955 228.571V263.524C659.955 264.381 659.195 265.143 658.34 265.143H623.565C622.71 265.048 621.95 264.286 621.95 263.429V228.571C621.95 227.714 622.71 226.952 623.565 226.952H658.34ZM658.34 226H623.565C622.14 226 621 227.143 621 228.571V263.524C621 264.857 622.14 266 623.565 266H658.435C659.86 266 661 264.857 661 263.429V228.571C660.905 227.143 659.765 226 658.34 226Z" fill="white"/>
</g>
<g id="Group_14">
<g id="Group_15">
<path id="Vector_79" d="M649.883 237.048L652.449 241.524L649.883 246.001H644.753L642.187 241.524L644.753 237.048H649.883ZM650.738 235.715H643.897L640.477 241.62L643.897 247.524H650.738L654.159 241.62L650.738 235.715Z" fill="#2D5967"/>
</g>
<g id="Group_16">
<path id="Vector_80" d="M640.667 250.667C643.137 250.667 645.132 252.667 645.132 255.144C645.132 257.62 643.137 259.62 640.667 259.62C638.196 259.62 636.201 257.62 636.201 255.144C636.201 252.667 638.196 250.667 640.667 250.667ZM640.667 249.334C637.436 249.334 634.776 252.001 634.776 255.239C634.776 258.477 637.436 261.144 640.667 261.144C643.897 261.144 646.557 258.477 646.557 255.239C646.557 251.905 643.897 249.334 640.667 249.334Z" fill="#2D5967"/>
</g>
<g id="Group_17">
<path id="Vector_81" d="M633.921 238.191L638.102 245.715H629.836L633.921 238.191ZM633.921 235.334L627.46 247.144H640.477L633.921 235.334Z" fill="#2D5967"/>
</g>
</g>
<g id="Group_18">
<path id="Vector_82" d="M658.34 265.048H623.565C622.71 265.048 621.95 264.287 621.95 263.429V230.763H659.955V263.429C659.955 264.287 659.195 265.048 658.34 265.048ZM623.375 232.191V263.525C623.375 263.62 623.47 263.715 623.565 263.715H658.435C658.53 263.715 658.625 263.62 658.625 263.525V232.191H623.375Z" fill="#2D5967"/>
</g>
<g id="Group_19">
<path id="Vector_83" d="M659.955 229.715H621.95V228.572C621.95 227.715 622.71 226.953 623.565 226.953H658.435C659.195 226.953 659.955 227.715 659.955 228.572V229.715Z" fill="#2D5967"/>
</g>
</g>
</g>
</g>
<g id="Icon Text Label_6">
<text id="IconLabel_7" fill="black" xml:space="preserve" style="white-space: pre" font-family="Oracle Sans" font-size="16" letter-spacing="0em"><tspan x="617.398" y="283.816">Object</tspan></text>
<text id="IconLabel_8" fill="black" xml:space="preserve" style="white-space: pre" font-family="Oracle Sans" font-size="16" letter-spacing="0em"><tspan x="613.188" y="299.816">Storage</tspan></text>
</g>
</g>
<path id="Vector 64" d="M359.707 305.293C359.317 304.902 358.683 304.902 358.293 305.293L351.929 311.657C351.538 312.047 351.538 312.681 351.929 313.071C352.319 313.462 352.953 313.462 353.343 313.071L359 307.414L364.657 313.071C365.047 313.462 365.681 313.462 366.071 313.071C366.462 312.681 366.462 312.047 366.071 311.657L359.707 305.293ZM358.293 384.707C358.683 385.098 359.317 385.098 359.707 384.707L366.071 378.343C366.462 377.953 366.462 377.319 366.071 376.929C365.681 376.538 365.047 376.538 364.657 376.929L359 382.586L353.343 376.929C352.953 376.538 352.319 376.538 351.929 376.929C351.538 377.319 351.538 377.953 351.929 378.343L358.293 384.707ZM359 306L358 306L358 384L359 384L360 384L360 306L359 306Z" fill="#312D2A"/>
<path id="Vector 63" d="M640.707 196.293C640.317 195.902 639.683 195.902 639.293 196.293L632.929 202.657C632.538 203.047 632.538 203.681 632.929 204.071C633.319 204.462 633.953 204.462 634.343 204.071L640 198.414L645.657 204.071C646.047 204.462 646.681 204.462 647.071 204.071C647.462 203.681 647.462 203.047 647.071 202.657L640.707 196.293ZM639.293 223.707C639.683 224.098 640.317 224.098 640.707 223.707L647.071 217.343C647.462 216.953 647.462 216.319 647.071 215.929C646.681 215.538 646.047 215.538 645.657 215.929L640 221.586L634.343 215.929C633.953 215.538 633.319 215.538 632.929 215.929C632.538 216.319 632.538 216.953 632.929 217.343L639.293 223.707ZM640 197L639 197L639 223L640 223L641 223L641 197L640 197Z" fill="#312D2A"/>
<path id="Vector 61" d="M232.293 251.293C231.902 251.683 231.902 252.317 232.293 252.707L238.657 259.071C239.047 259.462 239.681 259.462 240.071 259.071C240.462 258.681 240.462 258.047 240.071 257.657L234.414 252L240.071 246.343C240.462 245.953 240.462 245.319 240.071 244.929C239.681 244.538 239.047 244.538 238.657 244.929L232.293 251.293ZM233 252V253H328V252V251H233V252Z" fill="#312D2A"/>
<path id="Vector 62" d="M391.293 251.293C390.902 251.683 390.902 252.317 391.293 252.707L397.657 259.071C398.047 259.462 398.681 259.462 399.071 259.071C399.462 258.681 399.462 258.047 399.071 257.657L393.414 252L399.071 246.343C399.462 245.953 399.462 245.319 399.071 244.929C398.681 244.538 398.047 244.538 397.657 244.929L391.293 251.293ZM392 252V253H613V252V251H392V252Z" fill="#312D2A"/>
<g id="Compartments">
<g id="Srv-Compartments">
<g id="Group 11">
<path id="Vector_84" d="M620.882 366.623V337.594C620.882 336.375 621.872 335.385 623.091 335.385H633.072C633.758 335.385 634.444 335.69 634.825 336.299L636.882 339.042H657.987C659.206 339.042 660.196 340.032 660.196 341.251V366.699H620.882V366.623Z" fill="white"/>
<path id="Vector_85" d="M633.071 335.766C633.605 335.766 634.214 336.071 634.519 336.528L636.652 339.423H657.91C658.9 339.423 659.738 340.261 659.738 341.252V366.242H621.262V337.594C621.262 336.604 622.1 335.766 623.09 335.766H633.071ZM633.071 335.004H623.09C621.643 335.004 620.5 336.147 620.5 337.594V366.242V367.004H621.262H659.738H660.5V366.242V341.175C660.5 339.728 659.357 338.585 657.91 338.585H637.033L635.129 335.994C634.595 335.385 633.833 335.004 633.071 335.004Z" fill="white"/>
<path id="Vector_86" d="M657.909 339.423H636.652L634.519 336.528C634.214 336.07 633.681 335.766 633.071 335.766H623.09C622.1 335.766 621.262 336.604 621.262 337.594V366.242H659.738V341.175C659.738 340.185 658.9 339.423 657.909 339.423ZM658.062 364.642H622.862V337.594C622.862 337.518 622.938 337.366 623.09 337.366H633.071C633.147 337.366 633.224 337.366 633.224 337.442L635.89 341.023H657.986C658.062 341.023 658.214 341.099 658.214 341.251L658.062 364.642Z" fill="#2D5967"/>
<path id="Vector_87" d="M627.434 345.365H629.034V343.003H631.472V341.403H629.034V338.965H627.434V341.403H625.072V343.003H627.434V345.365Z" fill="#2D5967"/>
<path id="Vector_88" d="M651.661 351.994L650.289 349.479L648.918 351.994L646.784 355.803L645.489 358.165H648.232H652.499H655.242L653.87 355.803L651.661 351.994ZM648.156 356.641L650.289 352.832L652.423 356.641H648.156Z" fill="#2D5967"/>
<path id="Vector_89" d="M643.052 350.394C642.366 350.013 641.604 349.784 640.842 349.784C640.538 349.784 640.157 349.784 639.852 349.86C637.566 350.394 636.195 352.679 636.728 354.889C637.185 356.794 638.861 358.089 640.842 358.089C641.147 358.089 641.528 358.089 641.833 358.013C642.9 357.784 643.814 357.098 644.423 356.108C645.033 355.194 645.185 354.051 644.957 352.908C644.652 351.918 643.966 351.003 643.052 350.394ZM643.052 355.346C642.671 355.956 642.138 356.337 641.452 356.489C641.223 356.565 641.071 356.565 640.842 356.565C639.7 356.565 638.557 355.727 638.328 354.584C638.023 353.213 638.861 351.765 640.233 351.46C640.461 351.384 640.614 351.384 640.842 351.384C641.3 351.384 641.757 351.537 642.214 351.765C642.823 352.146 643.204 352.679 643.357 353.365C643.509 354.051 643.357 354.737 643.052 355.346Z" fill="#2D5967"/>
<path id="Vector_90" d="M633.299 350.776L632.842 350.014H631.927H629.032H628.118L627.661 350.776L626.213 353.29L625.756 354.128L626.213 354.966L627.661 357.48L628.118 358.242H629.032H631.927H632.842L633.299 357.48L634.746 354.966L635.203 354.128L634.823 353.29L633.299 350.776ZM631.927 356.642H629.032L627.584 354.128L629.032 351.614H631.927L633.375 354.128L631.927 356.642Z" fill="#2D5967"/>
</g>
</g>
<g id="Icon Text Label_7">
<text id="IconLabel_9" fill="black" xml:space="preserve" style="white-space: pre" font-family="Oracle Sans" font-size="16" letter-spacing="0em"><tspan x="586.008" y="384.816">Compartments</tspan></text>
</g>
</g>
<g id="Identity">
<g id="Srv-Oracle Identity Cloud Service">
<g id="Group 23">
<path id="Vector_91" d="M640.453 95.1279C634.587 92.1812 631.064 87.5804 630.77 82.5044V80.1945H621.514L621.619 78.7876C621.747 77.1914 622.281 75.6546 623.17 74.3235C624.059 72.9924 625.273 71.9113 626.698 71.1831C627 71.0163 627.26 70.7821 627.458 70.4986C627.655 70.2151 627.785 69.8899 627.837 69.5481C628.064 68.4064 628.562 67.3362 629.289 66.4279C630.016 65.5196 630.95 64.7998 632.014 64.3295C632.931 63.9325 633.919 63.7255 634.919 63.7211C635.14 63.7069 635.362 63.7069 635.583 63.7211H635.811C636.11 63.7245 636.406 63.6654 636.681 63.5475C636.955 63.4297 637.202 63.2557 637.406 63.0367C638.381 61.9884 639.595 61.1927 640.945 60.7179C642.295 60.2432 643.739 60.1036 645.155 60.3112C646.57 60.5187 647.914 61.0672 649.071 61.9095C650.229 62.7518 651.164 63.8628 651.798 65.147C651.949 65.468 652.171 65.7504 652.448 65.9728C652.724 66.1951 653.047 66.3516 653.393 66.4302C654.404 66.6531 655.368 67.0521 656.241 67.6089C658.178 68.8325 659.579 70.7461 660.162 72.9636C660.745 75.1811 660.467 77.5375 659.383 79.5576L659.022 80.2325H651.295V82.5139C651.01 87.6184 647.497 92.2192 641.612 95.166L641.033 95.4511L640.453 95.1279Z" fill="white"/>
<path id="Vector_92" d="M643.888 60.7269C645.445 60.7205 646.973 61.1519 648.297 61.972C649.621 62.7921 650.689 63.9679 651.379 65.3657C651.565 65.7391 651.832 66.0661 652.16 66.3227C652.489 66.5793 652.87 66.759 653.277 66.8486C654.239 67.0657 655.158 67.445 655.993 67.9703C657.833 69.1245 659.166 70.9374 659.72 73.0404C660.274 75.1434 660.007 77.3786 658.973 79.2916L658.746 79.7193H650.819V82.476C650.543 87.3809 647.107 91.8391 641.392 94.7003L641.031 94.8809L640.661 94.7003C634.965 91.8486 631.519 87.3809 631.243 82.476V79.7383H622.025L622.092 78.8638C622.197 77.3442 622.688 75.8767 623.519 74.6006C624.349 73.3245 625.492 72.2823 626.838 71.5729C627.205 71.3841 627.526 71.1153 627.775 70.7863C628.025 70.4573 628.198 70.0765 628.281 69.6718C628.489 68.6049 628.952 67.6043 629.63 66.7552C630.307 65.906 631.18 65.2337 632.174 64.7954C633.03 64.4219 633.954 64.2279 634.889 64.225H635.515H635.791C636.147 64.2202 636.499 64.1436 636.825 63.9999C637.151 63.8562 637.445 63.6483 637.689 63.3885C638.483 62.5401 639.443 61.8656 640.51 61.4075C641.577 60.9494 642.728 60.7177 643.888 60.7269ZM643.888 59.7764C642.607 59.7774 641.339 60.043 640.165 60.5565C638.991 61.0701 637.935 61.8206 637.063 62.7612C636.903 62.9309 636.71 63.0657 636.496 63.1573C636.282 63.2489 636.052 63.2953 635.819 63.2935H635.629C635.392 63.2793 635.154 63.2793 634.917 63.2935C633.136 63.2967 631.41 63.9179 630.034 65.0513C628.658 66.1846 627.717 67.7603 627.37 69.5102C627.316 69.7773 627.203 70.0288 627.038 70.246C626.874 70.4632 626.663 70.6406 626.421 70.765C624.933 71.5433 623.667 72.6883 622.744 74.0919C621.82 75.4956 621.269 77.1117 621.142 78.7878L621.076 79.6623L621 80.6889H630.294V82.4475V82.514C630.598 87.7992 634.215 92.5425 640.243 95.5653L640.604 95.746L641.031 95.9551L641.458 95.746L641.819 95.5653C647.847 92.5425 651.474 87.7897 651.768 82.5425V80.6889H659.363L659.628 80.1946L659.856 79.7669C661.009 77.6343 661.303 75.1414 660.68 72.7983C660.058 70.4552 658.564 68.439 656.505 67.1623C655.58 66.574 654.558 66.1555 653.486 65.9266C653.22 65.8682 652.969 65.753 652.752 65.589C652.534 65.425 652.354 65.2159 652.224 64.976C651.46 63.415 650.273 62.1002 648.8 61.181C647.326 60.2618 645.625 59.7751 643.888 59.7764Z" fill="white"/>
<path id="Vector_93" d="M636.188 78.6923C636.188 79.6323 636.467 80.5512 636.988 81.3328C637.51 82.1144 638.251 82.7236 639.119 83.0834C639.986 83.4431 640.94 83.5372 641.861 83.3538C642.782 83.1704 643.628 82.7178 644.292 82.0531C644.955 81.3884 645.407 80.5415 645.591 79.6195C645.774 78.6976 645.68 77.7419 645.321 76.8735C644.961 76.005 644.353 75.2627 643.572 74.7405C642.792 74.2182 641.874 73.9395 640.935 73.9395C639.676 73.9395 638.469 74.4402 637.579 75.3315C636.689 76.2229 636.188 77.4318 636.188 78.6923ZM644.077 78.6923C644.077 79.3131 643.893 79.92 643.549 80.436C643.204 80.9521 642.714 81.3542 642.141 81.5913C641.568 81.8284 640.938 81.89 640.33 81.7682C639.722 81.6464 639.164 81.3467 638.726 80.907C638.288 80.4674 637.991 79.9076 637.871 79.2984C637.751 78.6893 637.814 78.0583 638.053 77.4853C638.292 76.9122 638.695 76.423 639.211 76.0795C639.728 75.7359 640.334 75.5535 640.954 75.5554C641.368 75.5517 641.778 75.63 642.162 75.786C642.545 75.9419 642.894 76.1724 643.188 76.464C643.482 76.7557 643.715 77.1028 643.874 77.4852C644.033 77.8677 644.115 78.278 644.115 78.6923H644.077Z" fill="#2D5967"/>
<path id="Vector_94" d="M644.733 83.0933H643.717L643.47 83.407C643.177 83.7876 642.801 84.0959 642.371 84.308C641.941 84.5202 641.467 84.6305 640.987 84.6305C640.508 84.6305 640.034 84.5202 639.604 84.308C639.174 84.0959 638.798 83.7876 638.505 83.407L638.268 83.0933H637.204C636.674 83.0988 636.153 83.228 635.682 83.4706C635.211 83.7131 634.802 84.0624 634.489 84.4906C634.727 85.212 635.045 85.904 635.439 86.5534C635.439 86.0819 635.626 85.6298 635.959 85.2965C636.291 84.9631 636.743 84.7758 637.214 84.7758H637.489C637.934 85.2644 638.476 85.6547 639.08 85.9217C639.684 86.1887 640.337 86.3266 640.997 86.3266C641.657 86.3266 642.31 86.1887 642.914 85.9217C643.518 85.6547 644.06 85.2644 644.505 84.7758H644.733C645.204 84.7758 645.657 84.9628 645.991 85.2959C646.326 85.629 646.515 86.0811 646.517 86.5534V86.6865C646.959 86.0002 647.316 85.2629 647.581 84.4906C647.255 84.0434 646.826 83.6824 646.329 83.4389C645.833 83.1954 645.285 83.0768 644.733 83.0933Z" fill="#2D5967"/>
<path id="Vector_95" d="M656.002 67.97C655.164 67.4437 654.242 67.0643 653.277 66.8483C652.87 66.7587 652.488 66.579 652.16 66.3224C651.831 66.0658 651.564 65.7388 651.378 65.3654C650.689 63.9676 649.621 62.7918 648.297 61.9717C646.973 61.1516 645.445 60.7202 643.888 60.7266C642.737 60.729 641.599 60.9681 640.544 61.4292C639.489 61.8903 638.54 62.5636 637.755 63.4072C637.475 63.7059 637.13 63.9352 636.746 64.0771C636.362 64.219 635.95 64.2695 635.543 64.2247C634.402 64.1223 633.253 64.3086 632.202 64.7666C631.208 65.2048 630.336 65.8772 629.658 66.7263C628.98 67.5755 628.517 68.5761 628.31 69.643C628.226 70.0477 628.053 70.4285 627.803 70.7575C627.554 71.0865 627.234 71.3553 626.867 71.5441C625.52 72.2535 624.378 73.2957 623.547 74.5718C622.716 75.8478 622.225 77.3154 622.12 78.835L622.025 79.738H630.018V78.084H623.848C624.06 77.007 624.511 75.9915 625.169 75.1128C625.826 74.2341 626.672 73.5148 627.645 73.008C628.23 72.7045 628.739 72.2723 629.134 71.7439C629.528 71.2154 629.798 70.6044 629.923 69.9567C630.082 69.1491 630.433 68.392 630.948 67.7498C631.462 67.1076 632.123 66.5994 632.876 66.2685C633.669 65.9183 634.538 65.7744 635.401 65.8502C636.055 65.9189 636.715 65.8354 637.331 65.6062C637.947 65.3769 638.501 65.0083 638.952 64.5289C639.583 63.8496 640.347 63.3076 641.196 62.9364C642.045 62.5652 642.961 62.3728 643.888 62.3711C645.14 62.3615 646.369 62.7061 647.434 63.3654C648.499 64.0246 649.356 64.9716 649.907 66.0974C650.205 66.6911 650.631 67.2107 651.155 67.6186C651.679 68.0264 652.287 68.312 652.935 68.4548C653.942 68.6781 654.886 69.1237 655.699 69.7588C656.512 70.394 657.173 71.2028 657.635 72.1263C658.096 73.0498 658.345 74.0647 658.365 75.0971C658.385 76.1294 658.174 77.1531 657.748 78.0936H652.052V79.738H658.755L658.983 79.3103C660.022 77.3955 660.292 75.1558 659.738 73.0483C659.184 70.9408 657.848 69.1245 656.002 67.97Z" fill="#2D5967"/>
<path id="Vector_96" d="M631.243 73.3226V82.4766C631.518 87.3816 634.955 91.8397 640.66 94.7009L641.03 94.8816L641.391 94.7009C647.087 91.8492 650.543 87.3816 650.818 82.4766V73.3226L641.03 69.1211L631.243 73.3226ZM649.195 82.4006C648.938 86.6021 645.976 90.4614 641.03 93.0565C636.084 90.4614 633.122 86.6021 632.876 82.4006V74.3968L641.03 70.8987L649.195 74.3968V82.4006Z" fill="#2D5967"/>
</g>
</g>
<g id="Icon Text Label_8">
<text id="IconLabel_10" fill="black" xml:space="preserve" style="white-space: pre" font-family="Oracle Sans" font-size="16" letter-spacing="0em"><tspan x="611.391" y="113.816">OCI IAM</tspan></text>
</g>
</g>
</g>
<defs>
<clipPath id="clip0_16390_592">
<rect width="738" height="498" fill="white"/>
</clipPath>
</defs>
</svg>
