<svg width="870" height="560" viewBox="0 0 870 560" fill="none" xmlns="http://www.w3.org/2000/svg">
<g id="resolve-dns-oci-google-cloud" clip-path="url(#clip0_16249_294)">
<rect width="870" height="560" fill="white"/>
<g id="OCI regions">
<rect x="686.5" y="0.5" width="183" height="559" rx="3.5" fill="#F5F4F2"/>
<rect x="686.5" y="0.5" width="183" height="559" rx="3.5" stroke="#9E9892"/>
<text id="OCI Region" fill="#312D2A" xml:space="preserve" style="white-space: pre" font-family="Oracle Sans" font-size="16" font-weight="bold" letter-spacing="0em"><tspan x="694" y="21.816">OCI Region</tspan></text>
</g>
<g id="Google cloud boxes">
<rect width="674" height="560" rx="4" fill="#F6F6F6"/>
<text id="Google Cloud Platform" fill="#312D2A" xml:space="preserve" style="white-space: pre" font-family="Oracle Sans" font-size="16" font-weight="bold" letter-spacing="0em"><tspan x="8" y="21.816">Google Cloud</tspan></text>
</g>
<g id="Google project">
<rect x="8.5" y="32.5" width="650" height="515" fill="#F6F6F6"/>
<rect x="8.5" y="32.5" width="650" height="515" stroke="#616161" stroke-miterlimit="3.99933" stroke-dasharray="8 8"/>
<text id="Project" fill="#312D2A" xml:space="preserve" style="white-space: pre" font-family="Oracle Sans" font-size="16" font-weight="bold" letter-spacing="0em"><tspan x="16" y="53.816">Project</tspan></text>
</g>
<g id="Google VPC">
<rect x="17" y="73" width="623" height="457" fill="#E3F2FD"/>
<rect x="17" y="73" width="623" height="457" stroke="#706E6F" stroke-width="2" stroke-dasharray="4 4"/>
<g id="icon">
<rect id="blue BG" x="591" y="72" width="37.9502" height="4" fill="#E3F2FD"/>
<g id="VPC">
<g id="google-virtual-private-cloud-vpc">
<g id="A">
<g id="Group">
<path id="Vector" d="M619 53H631V65H619V53Z" fill="#AECBFA"/>
<path id="Vector_2" d="M625 53H631V65H625V53Z" fill="#669DF6"/>
<path id="Vector_3" d="M619 81H631V93H619V81Z" fill="#AECBFA"/>
<path id="Vector_4" d="M625 81H631V93H625V81Z" fill="#669DF6"/>
<path id="Vector_5" d="M591 53H603V65H591V53Z" fill="#AECBFA"/>
<path id="Vector_6" d="M597 53H603V65H597V53Z" fill="#669DF6"/>
<path id="Vector_7" d="M591 81H603V93H591V81Z" fill="#AECBFA"/>
<g id="Group_2">
<path id="Vector_8" d="M596.999 81.0001H602.999V93.0001H596.999V81.0001ZM602.999 57.0001H618.999V61.0001H602.999V57.0001Z" fill="#669DF6"/>
<path id="Vector_9" d="M603 85.0001H619V89.0001H603V85.0001ZM623 65.0001H627V81.0001H623V65.0001ZM595 65.0001H599V81.0001H595V65.0001Z" fill="#669DF6"/>
</g>
<path id="Vector_10" d="M595 65.0001H599V69.0001H595V65.0001ZM623 65.0001H627V69.0001H623V65.0001ZM603 57.0001H607V61.0001H603V57.0001ZM603 85.0001H607V89.0001H603V85.0001Z" fill="#4285F4"/>
</g>
</g>
</g>
</g>
</g>
<text id="VPC_2" fill="#312D2A" xml:space="preserve" style="white-space: pre" font-family="Oracle Sans" font-size="16" font-weight="600" letter-spacing="0em"><tspan x="25" y="94.816">VPC</tspan></text>
</g>
<g id="Google region">
<rect x="24.5" y="104.5" width="598" height="415" fill="#ECEFF1"/>
<rect x="24.5" y="104.5" width="598" height="415" stroke="#616161" stroke-miterlimit="3.99933" stroke-dasharray="2 2"/>
<text id="Project_2" fill="#312D2A" xml:space="preserve" style="white-space: pre" font-family="Oracle Sans" font-size="16" font-weight="bold" letter-spacing="0em"><tspan x="32" y="125.816">Google Cloud Region</tspan></text>
</g>
<g id="Google azone">
<rect x="32" y="144" width="168" height="227" rx="4" fill="#FFF3E0"/>
<text id="zone" fill="#312D2A" xml:space="preserve" style="white-space: pre" font-family="Oracle Sans" font-size="16" font-weight="600" letter-spacing="0em"><tspan x="40" y="165.816">Zone</tspan></text>
</g>
<g id="Google azone_2">
<rect x="40.5" y="192.5" width="147" height="166" fill="white"/>
<rect x="40.5" y="192.5" width="147" height="166" stroke="#7A7464" stroke-dasharray="2 2"/>
<text id="Subnet" fill="#706E6F" xml:space="preserve" style="white-space: pre" font-family="Oracle Sans" font-size="16" font-weight="600" letter-spacing="0em"><tspan x="48" y="213.816">Application</tspan></text>
<text id="Subnet_2" fill="#706E6F" xml:space="preserve" style="white-space: pre" font-family="Oracle Sans" font-size="16" font-weight="600" letter-spacing="0em"><tspan x="48" y="229.816">subnet</tspan></text>
</g>
<g id="Oracle Database@Google Cloud">
<rect x="228" y="145" width="376" height="360" fill="white"/>
<rect x="228" y="145" width="376" height="360" stroke="#C8D0DD" stroke-width="2" stroke-dasharray="8 4"/>
<text id="Oracle Database@Google Cloud_2" fill="#312D2A" xml:space="preserve" style="white-space: pre" font-family="Oracle Sans" font-size="16" font-weight="600" letter-spacing="0em"><tspan x="236" y="166.816">Oracle Database@Google Cloud</tspan></text>
<g id="icon_2">
<rect id="White BG" x="559.872" y="144" width="37.7983" height="3" fill="white"/>
<g id="Srv-Oracle Database@Google Cloud">
<g id="Group 1512">
<path id="art" d="M593.2 132.616C593.2 129.856 591.61 127.308 588.722 125.437C586.021 123.685 582.448 122.719 578.67 122.719C574.893 122.719 571.328 123.685 568.619 125.437C565.73 127.308 564.14 129.856 564.14 132.616V152.821C564.14 155.582 565.73 158.129 568.619 160.001C571.32 161.753 574.893 162.719 578.67 162.719C582.448 162.719 586.021 161.753 588.722 160.001C591.61 158.129 593.2 155.582 593.2 152.821V132.625V132.616ZM570.106 127.736C572.371 126.266 575.414 125.454 578.67 125.454C581.927 125.454 584.969 126.266 587.234 127.736C589.32 129.086 590.465 130.821 590.465 132.616C590.465 134.411 589.32 136.146 587.234 137.497C584.969 138.967 581.927 139.779 578.67 139.779C575.414 139.779 572.371 138.967 570.106 137.497C568.021 136.146 566.875 134.411 566.875 132.616C566.875 130.821 568.021 129.086 570.106 127.736ZM570.106 157.702C568.021 156.351 566.875 154.616 566.875 152.821V149.326C567.388 149.804 567.969 150.266 568.619 150.685C571.32 152.437 574.893 153.403 578.67 153.403C582.448 153.403 586.021 152.437 588.722 150.685C589.371 150.266 589.952 149.813 590.465 149.326V152.813C590.465 154.616 589.32 156.351 587.234 157.702C584.969 159.172 581.927 159.984 578.67 159.984C575.414 159.984 572.371 159.172 570.106 157.702ZM590.465 143.497C590.465 145.3 589.32 147.035 587.234 148.385C584.969 149.856 581.927 150.667 578.67 150.667C575.414 150.667 572.371 149.856 570.106 148.385C568.021 147.035 566.875 145.3 566.875 143.505V138.437C567.388 138.915 567.969 139.377 568.619 139.796C571.32 141.548 574.893 142.514 578.67 142.514C582.448 142.514 586.021 141.548 588.722 139.796C589.371 139.377 589.952 138.924 590.465 138.437V143.497Z" fill="#C74634"/>
</g>
</g>
</g>
</g>
<g id="ODB network">
<rect x="217.5" y="40.5" width="571" height="498" stroke="#AA643B" stroke-dasharray="6 4"/>
<text id="Compartment" fill="#AE562C" xml:space="preserve" style="white-space: pre" font-family="Oracle Sans" font-size="16" font-weight="bold" letter-spacing="0em"><tspan x="225" y="61.816">ODB network</tspan></text>
</g>
<g id="Control Plane">
<g id="Services-Cloud">
<g id="Group 511">
<path id="Vector_11" d="M796.77 167.259L796.927 165.151C797.119 162.759 797.92 160.457 799.255 158.462C800.59 156.468 802.413 154.848 804.551 153.757C805.005 153.507 805.395 153.156 805.692 152.732C805.989 152.307 806.183 151.819 806.261 151.307C806.744 148.845 808.069 146.628 810.009 145.035C811.948 143.442 814.382 142.573 816.893 142.577C817.225 142.556 817.558 142.556 817.89 142.577H818.232C818.681 142.582 819.125 142.493 819.538 142.317C819.95 142.14 820.321 141.879 820.626 141.551C822.09 139.981 823.913 138.788 825.939 138.077C827.965 137.366 830.134 137.157 832.259 137.468C834.384 137.779 836.401 138.6 838.138 139.862C839.876 141.125 841.28 142.789 842.231 144.713C842.455 145.197 842.787 145.622 843.203 145.956C843.618 146.289 844.105 146.522 844.626 146.636C846.671 147.097 848.581 148.024 850.209 149.344C851.836 150.664 853.137 152.342 854.008 154.247C854.88 156.153 855.3 158.233 855.235 160.327C855.169 162.421 854.621 164.472 853.632 166.319L853.091 167.33L796.77 167.259Z" fill="white"/>
<path id="Vector_12" d="M830.36 138.09C832.697 138.08 834.99 138.726 836.978 139.955C838.966 141.184 840.569 142.946 841.604 145.04C841.883 145.599 842.284 146.089 842.777 146.474C843.27 146.858 843.844 147.128 844.454 147.262C845.899 147.587 847.277 148.155 848.53 148.942C851.294 150.672 853.295 153.388 854.126 156.539C854.957 159.69 854.557 163.039 853.005 165.905L852.663 166.546H797.539L797.639 165.236C797.796 162.959 798.534 160.76 799.781 158.848C801.028 156.936 802.744 155.375 804.765 154.312C805.316 154.029 805.796 153.626 806.171 153.133C806.546 152.64 806.806 152.07 806.931 151.463C807.243 149.865 807.937 148.365 808.955 147.093C809.972 145.821 811.282 144.814 812.774 144.157C814.06 143.597 815.447 143.307 816.85 143.302H817.79H818.189C818.724 143.295 819.252 143.18 819.742 142.965C820.231 142.75 820.673 142.438 821.04 142.049C822.235 140.781 823.68 139.775 825.285 139.093C826.889 138.412 828.617 138.07 830.36 138.09ZM830.36 136.665C828.436 136.667 826.533 137.065 824.77 137.834C823.007 138.604 821.422 139.728 820.113 141.138C819.872 141.394 819.58 141.597 819.257 141.734C818.933 141.871 818.584 141.94 818.232 141.935H817.961C817.605 141.914 817.248 141.914 816.892 141.935C814.218 141.94 811.627 142.871 809.562 144.569C807.496 146.267 806.083 148.628 805.563 151.25C805.481 151.65 805.311 152.027 805.065 152.352C804.818 152.677 804.501 152.943 804.137 153.13C801.904 154.296 800.004 156.011 798.618 158.114C797.232 160.218 796.404 162.639 796.214 165.15L796.114 166.461L796 167.999H853.518L853.917 167.258L854.259 166.617C855.32 164.675 855.912 162.513 855.991 160.302C856.07 158.091 855.632 155.892 854.712 153.879C853.792 151.867 852.416 150.096 850.692 148.708C848.969 147.319 846.945 146.351 844.782 145.88C844.38 145.795 844.001 145.623 843.671 145.377C843.342 145.131 843.069 144.817 842.873 144.456C841.725 142.117 839.945 140.147 837.733 138.77C835.521 137.393 832.966 136.664 830.36 136.665Z" fill="white"/>
<path id="Vector_13" d="M853.006 165.907L852.664 166.548H827.012C825.93 166.544 824.859 166.327 823.861 165.91C822.863 165.493 821.957 164.883 821.195 164.116C820.433 163.349 819.829 162.44 819.419 161.44C819.008 160.439 818.799 159.368 818.803 158.287H821.254C821.243 159.812 821.836 161.279 822.904 162.368C823.972 163.457 825.429 164.079 826.954 164.098H851.182C852.218 161.815 852.397 159.235 851.685 156.831C850.973 154.428 849.418 152.361 847.305 151.009C846.3 150.345 845.186 149.863 844.013 149.585C843.04 149.371 842.127 148.943 841.341 148.332C840.555 147.721 839.914 146.942 839.467 146.053C838.64 144.366 837.353 142.947 835.755 141.959C834.156 140.972 832.311 140.455 830.432 140.47C829.022 140.473 827.629 140.77 826.341 141.342C825.053 141.913 823.898 142.746 822.95 143.788C822.273 144.513 821.436 145.071 820.506 145.417C819.576 145.763 818.578 145.888 817.591 145.782C816.295 145.669 814.991 145.884 813.801 146.409C812.671 146.905 811.678 147.666 810.906 148.628C810.134 149.591 809.607 150.725 809.368 151.935C809.181 152.9 808.78 153.811 808.192 154.6C807.605 155.389 806.848 156.036 805.977 156.493C804.516 157.252 803.246 158.33 802.259 159.646C801.272 160.963 800.595 162.484 800.276 164.098H818.803C819.459 165.064 820.285 165.903 821.24 166.576H797.54L797.64 165.266C797.797 162.989 798.534 160.79 799.782 158.878C801.029 156.966 802.744 155.405 804.765 154.342C805.316 154.059 805.797 153.656 806.172 153.163C806.547 152.67 806.806 152.1 806.931 151.493C807.244 149.895 807.938 148.396 808.955 147.123C809.973 145.851 811.283 144.844 812.774 144.187C814.352 143.501 816.077 143.222 817.791 143.375C818.402 143.442 819.019 143.367 819.596 143.154C820.172 142.941 820.691 142.598 821.111 142.15C822.29 140.873 823.72 139.854 825.312 139.155C826.903 138.457 828.622 138.094 830.361 138.091C832.698 138.082 834.991 138.728 836.979 139.957C838.967 141.185 840.57 142.947 841.605 145.042C841.884 145.601 842.285 146.091 842.778 146.475C843.271 146.86 843.844 147.129 844.455 147.263C845.899 147.589 847.278 148.157 848.531 148.944C851.295 150.673 853.295 153.39 854.127 156.541C854.958 159.691 854.557 163.041 853.006 165.907Z" fill="#2D5967"/>
</g>
</g>
<g id="Icon Text Label">
<text id="IconLabel" fill="black" xml:space="preserve" style="white-space: pre" font-family="Oracle Sans" font-size="16" letter-spacing="0em"><tspan x="799.539" y="185.816">Control</tspan></text>
<text id="IconLabel_2" fill="black" xml:space="preserve" style="white-space: pre" font-family="Oracle Sans" font-size="16" letter-spacing="0em"><tspan x="806.141" y="201.816">plane</tspan></text>
</g>
</g>
<g id="OCI DNS">
<g id="Srv-OCI DNS">
<g id="Group_3">
<g id="Group_4">
<g id="Group_5">
<path id="Vector_14" d="M824.315 359.282C809.079 359.282 796.674 346.878 796.674 331.642C796.674 316.406 809.079 304.001 824.315 304.001C837.663 304.001 849.124 313.44 851.55 326.653C853.708 327.327 855.326 329.35 855.326 331.777C855.326 334.204 853.843 336.091 851.55 336.9C849.124 349.844 837.798 359.282 824.315 359.282Z" fill="white"/>
<path id="Vector_15" d="M824.315 304.676C837.663 304.676 848.719 314.384 850.876 327.058C852.899 327.597 854.517 329.35 854.517 331.642C854.517 333.799 852.899 335.687 850.876 336.226C848.854 348.9 837.663 358.608 824.315 358.608C809.483 358.608 797.348 346.473 797.348 331.642C797.348 316.811 809.483 304.676 824.315 304.676ZM824.315 303.327C808.674 303.327 796 316.002 796 331.642C796 347.282 808.674 359.957 824.315 359.957C837.933 359.957 849.528 350.384 852.09 337.17C854.382 336.226 855.865 334.069 855.865 331.642C855.865 329.215 854.247 326.923 852.09 326.114C849.528 312.9 837.933 303.327 824.315 303.327Z" fill="white"/>
</g>
<g id="Group_6">
<path id="Vector_16" d="M854.652 331.642C854.652 329.485 853.034 327.597 851.011 327.058C848.854 314.384 837.663 304.676 824.315 304.676C809.483 304.676 797.348 316.811 797.348 331.642C797.348 346.474 809.483 358.608 824.315 358.608C837.663 358.608 848.719 348.9 850.876 336.226C853.034 335.687 854.652 333.799 854.652 331.642ZM849.933 334.069C848.584 334.069 847.506 332.99 847.506 331.642C847.506 330.294 848.584 329.215 849.933 329.215C851.281 329.215 852.36 330.294 852.36 331.642C852.36 332.99 851.281 334.069 849.933 334.069ZM848.719 327.193C847.101 327.597 845.888 328.945 845.483 330.563H835.101C835.101 328.271 834.832 326.114 834.427 323.957C836.584 323.013 838.202 320.856 838.202 318.294C838.202 314.923 835.371 312.092 832 312.092C831.326 312.092 830.787 312.226 830.247 312.361C829.303 310.608 828.225 308.856 826.876 307.238C837.798 308.181 846.697 316.541 848.719 327.193ZM816.764 339.867C820.135 339.058 822.697 336.226 823.101 332.856H832.809C832.539 341.215 829.573 349.305 824.315 355.777C820.539 351.058 817.978 345.665 816.764 339.867ZM808.539 331.642C808.539 328.271 811.371 325.44 814.742 325.44C818.112 325.44 820.944 328.271 820.944 331.642C820.944 335.013 818.112 337.844 814.742 337.844C811.371 337.844 808.539 335.013 808.539 331.642ZM823.101 330.563C822.697 327.058 820 324.226 816.629 323.552C817.843 317.754 820.539 312.361 824.18 307.642C825.663 309.395 826.876 311.417 827.955 313.305C826.472 314.384 825.528 316.271 825.528 318.159C825.528 321.53 828.36 324.361 831.73 324.361H831.865C832.27 326.384 832.539 328.406 832.539 330.563H823.101ZM832 314.249C834.157 314.249 835.91 316.002 835.91 318.159C835.91 320.316 834.157 322.069 832 322.069C829.843 322.069 828.09 320.316 828.09 318.159C828.09 316.002 829.708 314.249 832 314.249ZM821.888 307.103C818.247 311.957 815.685 317.35 814.472 323.283C810.292 323.417 806.921 326.518 806.382 330.563H799.641C800.18 318.294 809.753 308.316 821.888 307.103ZM799.641 332.721H806.382C806.921 336.766 810.292 339.867 814.472 340.002C815.685 345.799 818.247 351.327 821.888 356.181C809.753 354.968 800.18 344.99 799.641 332.721ZM826.876 356.181C832 349.44 834.832 341.215 835.101 332.721H845.483C845.888 334.339 847.101 335.552 848.719 336.092C846.697 346.743 837.798 355.103 826.876 356.181Z" fill="#2D5967"/>
</g>
</g>
</g>
</g>
<g id="Icon Text Label_2">
<text id="IconLabel_3" fill="black" xml:space="preserve" style="white-space: pre" font-family="Oracle Sans" font-size="16" letter-spacing="0em"><tspan x="810" y="377.816">DNS</tspan></text>
</g>
</g>
<g id="google application">
<g id="google-compute-engine">
<g id="Product Icons">
<path id="Vector_17" d="M123 275H105V293H123V275Z" fill="#AECBFA"/>
<path id="Vector_18" d="M117 254H111V266H117V254Z" fill="#669DF6"/>
<path id="Vector_19" d="M105 254H99V266H105V254Z" fill="#669DF6"/>
<path id="Vector_20" d="M129 254H123V266H129V254Z" fill="#669DF6"/>
<path id="Vector_21" d="M117 302H111V314H117V302Z" fill="#4285F4"/>
<path id="Vector_22" d="M105 302H99V314H105V302Z" fill="#4285F4"/>
<path id="Vector_23" d="M129 302H123V314H129V302Z" fill="#4285F4"/>
<path id="Vector_24" d="M132 281V287H144V281H132Z" fill="#4285F4"/>
<path id="Vector_25" d="M132 293V299H144V293H132Z" fill="#4285F4"/>
<path id="Vector_26" d="M132 269V275H144V269H132Z" fill="#4285F4"/>
<path id="Vector_27" d="M84 281V287H96V281H84Z" fill="#669DF6"/>
<path id="Vector_28" d="M84 293V299H96V293H84Z" fill="#669DF6"/>
<path id="Vector_29" d="M84 269V275H96V269H84Z" fill="#669DF6"/>
<path id="Vector_30" d="M93 263V305H135V263H93ZM129 299H99V269H129V299Z" fill="#AECBFA"/>
<path id="Vector_31" d="M105 293H123L114 284L105 293Z" fill="#669DF6"/>
<path id="Vector_32" d="M114 284L123 293V275L114 284Z" fill="#4285F4"/>
</g>
</g>
<g id="Icon Text Label_3">
<text id="IconLabel_4" fill="black" xml:space="preserve" style="white-space: pre" font-family="Oracle Sans" font-size="16" letter-spacing="0em"><tspan x="73.0781" y="331.816">Application</tspan></text>
</g>
</g>
<g id="VCN box_New">
<rect id="Rectangle 28" x="241" y="181.958" width="530" height="308" stroke="#AA643B" stroke-width="2" stroke-dasharray="8 4"/>
<g id="Icon Master">
<g id="Srv-VCN">
<g id="Group 39">
<path id="Vector_33" d="M750.416 204.51C749.16 204.509 747.944 204.077 746.969 203.285C745.995 202.493 745.323 201.389 745.066 200.16H738.595C738.408 201.054 738 201.887 737.408 202.583C736.816 203.279 736.06 203.815 735.208 204.144C734.356 204.472 733.435 204.581 732.53 204.462C731.625 204.343 730.764 203.999 730.025 203.462C729.287 202.924 728.695 202.21 728.303 201.385C727.912 200.56 727.733 199.65 727.783 198.737C727.833 197.825 728.11 196.94 728.59 196.163C729.07 195.385 729.737 194.741 730.529 194.287L728.533 188.141C728.336 188.154 728.138 188.154 727.941 188.141C727.053 188.143 726.178 187.929 725.392 187.517C724.606 187.105 723.931 186.507 723.427 185.776C722.923 185.045 722.605 184.203 722.499 183.321C722.393 182.439 722.504 181.545 722.821 180.715C723.138 179.885 723.652 179.146 724.319 178.559C724.986 177.973 725.785 177.558 726.648 177.35C727.511 177.142 728.411 177.147 729.272 177.365C730.132 177.584 730.927 178.008 731.586 178.602L736.845 174.872C736.527 174.167 736.363 173.403 736.362 172.629C736.362 171.178 736.938 169.786 737.964 168.76C738.989 167.734 740.38 167.157 741.83 167.157C743.281 167.157 744.672 167.734 745.697 168.76C746.723 169.786 747.299 171.178 747.299 172.629C747.301 173.402 747.139 174.166 746.825 174.872L752.093 178.639C753.087 177.725 754.388 177.218 755.738 177.216C757.188 177.216 758.579 177.792 759.605 178.819C760.63 179.845 761.206 181.236 761.206 182.688C761.206 184.139 760.63 185.53 759.605 186.557C758.579 187.583 757.188 188.159 755.738 188.159C755.547 188.159 755.346 188.159 755.155 188.159L753.15 194.306C754.199 194.905 755.02 195.835 755.484 196.95C755.949 198.066 756.032 199.304 755.72 200.471C755.408 201.639 754.718 202.67 753.758 203.404C752.799 204.138 751.623 204.533 750.416 204.528V204.51Z" fill="white"/>
<path id="Vector_34" d="M741.84 167.577C742.707 167.579 743.56 167.806 744.314 168.236C745.068 168.665 745.697 169.283 746.142 170.029C746.586 170.775 746.829 171.623 746.849 172.491C746.868 173.359 746.662 174.217 746.251 174.982L752.093 179.231C752.665 178.632 753.377 178.184 754.164 177.928C754.951 177.671 755.79 177.614 756.605 177.761C757.42 177.908 758.186 178.254 758.835 178.77C759.483 179.285 759.994 179.954 760.321 180.715C760.648 181.476 760.782 182.307 760.71 183.132C760.638 183.958 760.363 184.753 759.909 185.446C759.455 186.139 758.836 186.709 758.109 187.104C757.381 187.5 756.566 187.709 755.738 187.712C755.433 187.717 755.128 187.692 754.827 187.639L752.594 194.524C753.375 194.901 754.045 195.475 754.538 196.188C755.032 196.902 755.332 197.731 755.409 198.595C755.486 199.459 755.338 200.329 754.979 201.119C754.62 201.908 754.062 202.591 753.36 203.101C752.659 203.611 751.837 203.929 750.975 204.026C750.113 204.123 749.241 203.994 748.444 203.653C747.647 203.312 746.952 202.769 746.427 202.079C745.902 201.388 745.565 200.573 745.449 199.713H738.212C738.095 200.573 737.757 201.388 737.231 202.078C736.706 202.768 736.01 203.31 735.212 203.65C734.414 203.991 733.542 204.118 732.68 204.02C731.818 203.922 730.996 203.603 730.295 203.092C729.594 202.581 729.037 201.897 728.679 201.106C728.322 200.316 728.175 199.446 728.253 198.582C728.332 197.718 728.634 196.889 729.128 196.176C729.623 195.463 730.294 194.891 731.076 194.515L728.843 187.639C728.543 187.695 728.237 187.723 727.932 187.721C727.101 187.72 726.284 187.512 725.553 187.117C724.822 186.722 724.201 186.152 723.745 185.457C723.289 184.763 723.011 183.966 722.939 183.138C722.866 182.31 722.999 181.477 723.327 180.713C723.655 179.95 724.167 179.279 724.817 178.762C725.468 178.245 726.236 177.898 727.054 177.751C727.871 177.604 728.712 177.663 729.502 177.921C730.291 178.179 731.005 178.63 731.577 179.231L737.419 174.982C737.008 174.216 736.802 173.358 736.821 172.489C736.841 171.62 737.085 170.771 737.531 170.025C737.976 169.279 738.607 168.661 739.362 168.232C740.118 167.803 740.971 167.577 741.84 167.577ZM741.84 166.665C740.268 166.665 738.76 167.289 737.647 168.401C736.535 169.512 735.909 171.02 735.906 172.593C735.906 173.306 736.035 174.014 736.289 174.681L731.632 178.055C730.891 177.464 730.019 177.059 729.089 176.874C728.16 176.689 727.199 176.73 726.288 176.993C725.378 177.256 724.543 177.733 723.855 178.385C723.166 179.037 722.644 179.844 722.332 180.74C722.019 181.635 721.926 182.593 722.059 183.532C722.192 184.471 722.548 185.364 723.098 186.137C723.647 186.91 724.373 187.54 725.216 187.974C726.059 188.409 726.993 188.635 727.941 188.633H728.205L730.028 194.105C729.23 194.633 728.572 195.347 728.11 196.185C727.648 197.023 727.396 197.961 727.375 198.918C727.354 199.875 727.564 200.823 727.989 201.68C728.414 202.538 729.04 203.28 729.814 203.843C730.588 204.406 731.486 204.772 732.433 204.912C733.379 205.052 734.345 204.96 735.249 204.645C736.152 204.329 736.965 203.8 737.62 203.102C738.274 202.403 738.749 201.557 739.005 200.634H744.747C745.001 201.56 745.476 202.41 746.13 203.112C746.784 203.814 747.599 204.346 748.504 204.664C749.41 204.981 750.378 205.075 751.328 204.936C752.277 204.797 753.178 204.429 753.954 203.865C754.73 203.301 755.358 202.558 755.784 201.697C756.21 200.837 756.421 199.887 756.4 198.927C756.378 197.968 756.124 197.028 755.66 196.188C755.195 195.348 754.534 194.633 753.733 194.105L755.556 188.633H755.738C756.544 188.678 757.35 188.558 758.108 188.28C758.865 188.003 759.558 187.573 760.144 187.018C760.73 186.464 761.197 185.795 761.516 185.053C761.835 184.312 762 183.513 762 182.706C762 181.899 761.835 181.1 761.516 180.358C761.197 179.617 760.73 178.948 760.144 178.393C759.558 177.838 758.865 177.409 758.108 177.131C757.35 176.854 756.544 176.734 755.738 176.778C754.396 176.775 753.093 177.232 752.047 178.073L747.399 174.699C747.646 174.031 747.772 173.324 747.773 172.611C747.774 171.83 747.621 171.057 747.324 170.336C747.026 169.615 746.589 168.959 746.038 168.407C745.487 167.855 744.833 167.417 744.112 167.118C743.392 166.819 742.619 166.665 741.84 166.665V166.665Z" fill="white"/>
<path id="Vector_35" d="M755.738 177.671C755.057 177.669 754.382 177.807 753.755 178.075C753.128 178.343 752.563 178.736 752.093 179.23L746.251 174.981C746.665 174.215 746.874 173.355 746.856 172.485C746.838 171.615 746.595 170.764 746.15 170.016C745.705 169.269 745.073 168.649 744.317 168.219C743.56 167.789 742.705 167.563 741.835 167.563C740.965 167.563 740.11 167.789 739.354 168.219C738.598 168.649 737.966 169.269 737.521 170.016C737.076 170.764 736.832 171.615 736.815 172.485C736.797 173.355 737.005 174.215 737.42 174.981L731.569 179.23C730.995 178.633 730.284 178.188 729.496 177.933C728.709 177.678 727.871 177.622 727.057 177.77C726.243 177.918 725.479 178.265 724.831 178.781C724.184 179.296 723.675 179.964 723.348 180.725C723.021 181.485 722.888 182.315 722.96 183.14C723.032 183.964 723.306 184.759 723.759 185.451C724.212 186.144 724.829 186.714 725.556 187.11C726.283 187.505 727.096 187.715 727.923 187.72C728.229 187.722 728.534 187.694 728.834 187.638L731.067 194.505C730.285 194.881 729.614 195.453 729.12 196.166C728.625 196.878 728.323 197.707 728.245 198.572C728.166 199.436 728.313 200.306 728.671 201.096C729.029 201.887 729.585 202.571 730.286 203.082C730.988 203.592 731.809 203.912 732.671 204.01C733.533 204.108 734.405 203.981 735.203 203.64C736.001 203.3 736.697 202.758 737.223 202.068C737.749 201.378 738.086 200.563 738.203 199.703H745.44C745.556 200.563 745.893 201.378 746.418 202.068C746.943 202.759 747.638 203.301 748.435 203.643C749.232 203.984 750.104 204.113 750.966 204.016C751.828 203.919 752.65 203.601 753.352 203.091C754.053 202.581 754.611 201.898 754.97 201.108C755.329 200.319 755.477 199.449 755.4 198.585C755.323 197.721 755.023 196.891 754.529 196.178C754.036 195.464 753.366 194.891 752.585 194.514L754.827 187.638C755.128 187.694 755.433 187.722 755.738 187.72C756.422 187.762 757.107 187.662 757.751 187.429C758.395 187.196 758.985 186.833 759.483 186.363C759.982 185.893 760.379 185.326 760.651 184.697C760.922 184.068 761.063 183.39 761.063 182.705C761.063 182.019 760.922 181.341 760.651 180.712C760.379 180.083 759.982 179.516 759.483 179.046C758.985 178.577 758.395 178.214 757.751 177.98C757.107 177.747 756.422 177.648 755.738 177.689V177.671ZM750.416 202.712C749.695 202.712 748.99 202.498 748.391 202.098C747.791 201.697 747.324 201.127 747.048 200.461C746.772 199.794 746.7 199.061 746.84 198.353C746.981 197.645 747.328 196.996 747.838 196.485C748.348 195.975 748.998 195.628 749.705 195.487C750.412 195.346 751.145 195.419 751.811 195.695C752.477 195.971 753.047 196.438 753.447 197.038C753.848 197.638 754.062 198.343 754.062 199.065C754.062 200.032 753.677 200.96 752.994 201.644C752.31 202.328 751.383 202.712 750.416 202.712ZM738.213 198.362C738.063 197.23 737.529 196.184 736.7 195.399L739.434 191.578C740.166 191.967 740.983 192.17 741.813 192.171C742.639 192.173 743.454 191.97 744.182 191.578L746.916 195.399C746.084 196.183 745.547 197.229 745.394 198.362H738.213ZM729.563 199.037C729.563 198.316 729.777 197.611 730.178 197.011C730.578 196.411 731.148 195.943 731.814 195.667C732.48 195.391 733.213 195.319 733.92 195.46C734.627 195.6 735.277 195.948 735.787 196.458C736.297 196.968 736.644 197.618 736.785 198.326C736.925 199.033 736.853 199.767 736.577 200.433C736.301 201.1 735.834 201.669 735.234 202.07C734.635 202.471 733.93 202.685 733.209 202.685C732.242 202.685 731.315 202.301 730.631 201.617C729.948 200.933 729.563 200.005 729.563 199.037ZM727.941 179.021C728.662 179.021 729.367 179.234 729.967 179.635C730.566 180.036 731.033 180.606 731.309 181.272C731.585 181.939 731.657 182.672 731.517 183.38C731.376 184.087 731.029 184.737 730.519 185.248C730.009 185.758 729.36 186.105 728.652 186.246C727.945 186.387 727.212 186.314 726.546 186.038C725.88 185.762 725.311 185.295 724.91 184.695C724.509 184.095 724.296 183.39 724.296 182.668C724.296 181.701 724.68 180.773 725.363 180.089C726.047 179.405 726.974 179.021 727.941 179.021ZM738.158 172.637C738.158 171.916 738.372 171.21 738.772 170.611C739.173 170.011 739.742 169.543 740.408 169.267C741.074 168.991 741.807 168.919 742.515 169.059C743.222 169.2 743.871 169.548 744.381 170.058C744.891 170.568 745.238 171.218 745.379 171.925C745.52 172.633 745.447 173.366 745.171 174.033C744.896 174.7 744.428 175.269 743.829 175.67C743.229 176.071 742.524 176.285 741.803 176.285C741.321 176.285 740.843 176.189 740.398 176.003C739.952 175.817 739.548 175.544 739.209 175.2C738.87 174.857 738.603 174.449 738.422 174.001C738.242 173.554 738.152 173.074 738.158 172.591V172.637ZM750.79 183.58L746.369 184.994C746.009 184.239 745.468 183.586 744.793 183.093C744.119 182.599 743.333 182.281 742.505 182.167V177.607C743.634 177.457 744.677 176.922 745.458 176.093L751.318 180.343C750.922 181.073 750.715 181.892 750.717 182.723C750.719 183.007 750.743 183.291 750.79 183.571V183.58ZM745.513 187.164C745.513 187.885 745.299 188.591 744.898 189.191C744.498 189.79 743.928 190.258 743.262 190.534C742.596 190.81 741.863 190.882 741.156 190.742C740.449 190.601 739.799 190.254 739.289 189.743C738.78 189.233 738.432 188.583 738.292 187.876C738.151 187.168 738.223 186.435 738.499 185.768C738.775 185.102 739.242 184.532 739.842 184.131C740.441 183.73 741.146 183.516 741.867 183.516C742.832 183.516 743.758 183.899 744.442 184.582C745.125 185.264 745.51 186.189 745.513 187.155V187.164ZM741.156 177.607V182.167C740.33 182.279 739.546 182.596 738.873 183.088C738.2 183.58 737.66 184.232 737.301 184.985L732.872 183.571C732.929 183.27 732.956 182.965 732.954 182.659C732.946 181.85 732.743 181.056 732.361 180.343L738.213 176.084C738.99 176.915 740.03 177.452 741.156 177.607ZM732.462 184.902L736.891 186.316C736.835 186.617 736.807 186.922 736.809 187.228C736.806 187.911 736.943 188.588 737.213 189.215C737.483 189.843 737.879 190.408 738.377 190.876L735.642 194.706C734.915 194.31 734.101 194.103 733.273 194.104C732.967 194.102 732.662 194.129 732.361 194.186L730.119 187.219C731.142 186.734 731.971 185.918 732.471 184.902H732.462ZM750.416 194.022C749.59 194.023 748.776 194.227 748.046 194.614L745.312 190.803C745.808 190.334 746.203 189.768 746.473 189.141C746.742 188.514 746.881 187.838 746.88 187.155C746.882 186.849 746.855 186.544 746.798 186.243L751.182 184.848C751.678 185.879 752.506 186.714 753.533 187.219L751.3 194.095C751.008 194.044 750.712 194.019 750.416 194.022ZM752.093 182.696C752.093 181.974 752.307 181.269 752.707 180.669C753.108 180.069 753.677 179.602 754.343 179.326C755.01 179.049 755.743 178.977 756.45 179.118C757.157 179.259 757.806 179.606 758.316 180.116C758.826 180.626 759.173 181.276 759.314 181.984C759.455 182.692 759.382 183.425 759.107 184.092C758.831 184.758 758.363 185.328 757.764 185.729C757.164 186.129 756.459 186.343 755.738 186.343C754.772 186.343 753.844 185.959 753.161 185.275C752.477 184.591 752.093 183.663 752.093 182.696Z" fill="#AA643B"/>
</g>
</g>
</g>
<text id="VCN" fill="#AE562C" xml:space="preserve" style="white-space: pre" font-family="Oracle Sans" font-size="16" font-weight="600" letter-spacing="0em"><tspan x="249" y="203.816">VCN</tspan></text>
</g>
<g id="Client subnet">
<rect x="256.5" y="222.5" width="485" height="249" stroke="#AA643B" stroke-dasharray="8 4"/>
<text id="Subnet_3" fill="#AE562C" xml:space="preserve" style="white-space: pre" font-family="Oracle Sans" font-size="16" font-weight="600" letter-spacing="0em"><tspan x="264" y="243.816">Client subnet</tspan></text>
<g id="Icon Master_2">
<g id="Srv-Route table and security list">
<g id="Group_7">
<g id="Group_8">
<path id="Vector_36" d="M693.476 241.519V215.077H710.238V207.288L721.476 202.481L732.619 207.288V217.481C732.619 217.577 732.619 220.077 731.19 223.058C729.952 225.75 727.381 229.404 721.857 231.423V241.423H693.476V241.519Z" fill="white"/>
<path id="Vector_37" d="M721.381 203.058L732.048 207.577V217.481C732.048 217.577 732.048 219.981 730.714 222.865C729.476 225.558 727 229.115 721.667 231.038L721.476 231.135H721.381V241.038H693.952V215.558H710.714V207.577L721.381 203.058ZM721.381 202L721 202.192L710.333 206.712L709.762 207V207.673V214.692H693.952H693V215.654V241.038V242H693.952H721.381H722.333V241.038V231.808C727.667 229.692 730.333 226.038 731.571 223.25C733 220.173 733 217.577 733 217.481V207.577V207L732.429 206.712L721.762 202.192L721.381 202Z" fill="white"/>
</g>
<g id="Group_9">
<path id="Vector_38" d="M720.048 231.712H702.524V224.981H712.048C711.762 224.5 711.571 224.116 711.381 223.731H702.524V217H709.667V215.75H693.952V241.135H721.381V232.289L720.905 232.097C720.619 231.904 720.333 231.808 720.048 231.712ZM695.19 216.904H701.286V223.635H695.19V216.904ZM701.286 224.885V231.616H695.19V224.885H701.286ZM695.19 232.962H701.286V239.693H695.19V232.962ZM720.048 239.693H702.524V232.962H720.048V239.693Z" fill="#AA643B"/>
<path id="Vector_39" d="M718.619 237.193H717.381V238.443H718.619V237.193Z" fill="#AA643B"/>
<path id="Vector_40" d="M713.381 238.442L714.524 237.289L715.667 238.442L716.524 237.481L715.381 236.327L716.524 235.173L715.667 234.308L714.524 235.462L713.381 234.308L712.428 235.173L713.571 236.327L712.428 237.481L713.381 238.442Z" fill="#AA643B"/>
<path id="Vector_41" d="M710.619 237.193H709.381V238.443H710.619V237.193Z" fill="#AA643B"/>
<path id="Vector_42" d="M704.524 237.481L705.381 238.442L706.524 237.289L707.667 238.442L708.619 237.481L707.476 236.327L708.619 235.173L707.667 234.308L706.524 235.462L705.381 234.308L704.524 235.173L705.667 236.327L704.524 237.481Z" fill="#AA643B"/>
<path id="Vector_43" d="M710.619 229.116H709.381V230.366H710.619V229.116Z" fill="#AA643B"/>
<path id="Vector_44" d="M704.524 229.404L705.381 230.366L706.524 229.212L707.667 230.366L708.619 229.404L707.476 228.25L708.619 227.097L707.667 226.231L706.524 227.385L705.381 226.231L704.524 227.097L705.667 228.25L704.524 229.404Z" fill="#AA643B"/>
<path id="Vector_45" d="M709.095 222.385H710.333V221.135C710.333 221.135 710.333 221.135 710.333 221.039H709.095V222.385Z" fill="#AA643B"/>
<path id="Vector_46" d="M704.143 221.424L705.095 222.289L706.238 221.135L707.381 222.289L708.238 221.424L707.095 220.27L708.238 219.116L707.381 218.154L706.238 219.308L705.095 218.154L704.143 219.116L705.286 220.27L704.143 221.424Z" fill="#AA643B"/>
<path id="Vector_47" d="M710.714 207.577V217.481C710.714 217.577 710.81 219.981 712.048 222.866C713.286 225.558 715.857 229.116 721.191 231.039L721.381 231.135L721.571 231.039C726.905 229.116 729.476 225.558 730.619 222.866C731.952 219.981 731.952 217.577 731.952 217.481V207.577L721.381 203.058L710.714 207.577ZM730.81 217.481C730.81 217.577 730.619 226.231 721.476 229.692C717.667 228.25 714.905 225.75 713.286 222.385C712.048 219.789 712.048 217.481 712.048 217.481V208.442L721.476 204.404L730.81 208.442V217.481Z" fill="#AA643B"/>
<path id="Vector_48" d="M720.238 218.827H715.286V220.077H720.238V218.827Z" fill="#AA643B"/>
<path id="Vector_49" d="M720.238 212.385H715.286V213.635H720.238V212.385Z" fill="#AA643B"/>
<path id="Vector_50" d="M726.905 210.943L724.143 213.635L723.19 212.673L722.238 213.539L724.143 215.462L727.762 211.808L726.905 210.943Z" fill="#AA643B"/>
<path id="Vector_51" d="M715.286 216.904H720.048H720.238V215.558H715.286V216.904Z" fill="#AA643B"/>
</g>
</g>
</g>
</g>
</g>
<g id="Private Endpoint IP">
<g id="Srv-OCI Private Endpoint IP">
<g id="Group 424">
<path id="Vector_52" d="M407.28 401.811C404.103 397.216 402.88 391.545 403.878 386.047C404.877 380.548 408.017 375.672 412.606 372.491C417.196 369.311 422.859 368.086 428.351 369.086C433.842 370.086 438.712 373.23 441.889 377.825C444.313 381.364 445.611 385.554 445.611 389.846C445.611 394.137 444.313 398.328 441.889 401.867L424.591 426.779L407.28 401.811Z" fill="white"/>
<path id="Vector_53" d="M424.562 369.404C428.285 369.39 431.941 370.398 435.132 372.319C438.322 374.24 440.926 377 442.66 380.298C444.394 383.597 445.192 387.309 444.967 391.03C444.742 394.751 443.502 398.338 441.383 401.404L424.59 425.544L407.854 401.404C405.74 398.346 404.501 394.769 404.272 391.058C404.042 387.347 404.83 383.643 406.551 380.348C408.271 377.053 410.859 374.292 414.033 372.363C417.208 370.434 420.849 369.41 424.562 369.404ZM424.562 368C420.593 368.007 416.701 369.101 413.308 371.163C409.915 373.225 407.149 376.176 405.31 379.698C403.471 383.22 402.629 387.179 402.875 391.145C403.121 395.112 404.445 398.936 406.704 402.204L423.441 426.344L424.59 428L425.74 426.344L442.462 402.204C444.724 398.933 446.048 395.105 446.292 391.135C446.536 387.165 445.69 383.203 443.846 379.68C442.002 376.156 439.231 373.205 435.831 371.147C432.432 369.088 428.535 368 424.562 368V368Z" fill="white"/>
<path id="Vector_54" d="M441.315 378.176C438.238 373.733 433.525 370.696 428.213 369.733C422.9 368.769 417.423 369.958 412.986 373.039C408.549 376.119 405.515 380.838 404.553 386.157C403.591 391.477 404.779 396.961 407.855 401.404L424.592 425.544L441.315 401.404C443.66 397.986 444.916 393.937 444.916 389.79C444.916 385.643 443.66 381.593 441.315 378.176ZM439.282 400.014L424.592 421.235L409.846 400C407.987 397.311 406.898 394.164 406.697 390.899C406.497 387.635 407.193 384.378 408.709 381.481C410.225 378.584 412.504 376.157 415.298 374.465C418.093 372.772 421.297 371.877 424.564 371.877C427.83 371.877 431.034 372.772 433.829 374.465C436.624 376.157 438.903 378.584 440.419 381.481C441.935 384.378 442.631 387.635 442.43 390.899C442.23 394.164 441.141 397.311 439.282 400V400.014Z" fill="#2D5967"/>
<path id="Vector_55" d="M430.758 384.252V381.221C430.749 380.261 430.519 379.316 430.087 378.459C429.654 377.602 429.03 376.857 428.262 376.281C427.502 375.701 426.616 375.308 425.676 375.135C424.736 374.962 423.768 375.013 422.852 375.284C421.557 375.677 420.424 376.478 419.621 377.568C418.818 378.658 418.387 379.979 418.394 381.333V384.252C417.161 385.479 416.318 387.044 415.974 388.75C415.631 390.456 415.801 392.226 416.463 393.835C417.125 395.445 418.25 396.821 419.694 397.789C421.138 398.757 422.838 399.274 424.576 399.274C426.314 399.274 428.013 398.757 429.458 397.789C430.902 396.821 432.027 395.445 432.689 393.835C433.351 392.226 433.521 390.456 433.177 388.75C432.833 387.044 431.991 385.479 430.758 384.252ZM420.847 381.333C420.835 380.511 421.089 379.707 421.572 379.041C422.055 378.376 422.74 377.885 423.525 377.642C424.078 377.48 424.662 377.45 425.229 377.555C425.797 377.659 426.331 377.896 426.791 378.245C427.253 378.593 427.63 379.041 427.893 379.557C428.155 380.073 428.296 380.642 428.305 381.221V382.526C427.137 381.981 425.864 381.698 424.576 381.698C423.288 381.698 422.015 381.981 420.847 382.526V381.333ZM424.576 396.772C423.32 396.78 422.09 396.414 421.042 395.721C419.994 395.028 419.175 394.038 418.69 392.878C418.205 391.718 418.075 390.44 418.317 389.206C418.559 387.972 419.162 386.838 420.049 385.947C420.936 385.057 422.067 384.451 423.299 384.206C424.532 383.961 425.808 384.088 426.968 384.571C428.128 385.054 429.118 385.872 429.813 386.92C430.507 387.967 430.875 389.198 430.87 390.456C430.879 391.289 430.723 392.115 430.411 392.887C430.098 393.659 429.636 394.361 429.05 394.953C428.465 395.544 427.768 396.013 427 396.333C426.232 396.652 425.408 396.816 424.576 396.814V396.772Z" fill="#2D5967"/>
<path id="Vector_56" d="M424.577 387.761H424.353C423.95 387.811 423.574 387.992 423.283 388.276C422.992 388.559 422.802 388.931 422.741 389.333C422.683 389.712 422.745 390.1 422.918 390.443C423.092 390.785 423.368 391.064 423.708 391.241L423.343 393.627H425.81L425.474 391.241C425.764 391.077 426.005 390.838 426.173 390.55C426.34 390.261 426.428 389.933 426.427 389.599C426.423 389.11 426.227 388.643 425.88 388.298C425.534 387.954 425.065 387.761 424.577 387.761Z" fill="#2D5967"/>
</g>
</g>
<g id="Icon Text Label_4">
<text id="IconLabel_5" fill="black" xml:space="preserve" style="white-space: pre" font-family="Oracle Sans" font-size="16" letter-spacing="0em"><tspan x="381.508" y="445.816">Private DNS</tspan></text>
<text id="IconLabel_6" fill="black" xml:space="preserve" style="white-space: pre" font-family="Oracle Sans" font-size="16" letter-spacing="0em"><tspan x="360.383" y="461.816">Listener Endpoint</tspan></text>
</g>
</g>
<path id="Vector 62" d="M372.707 437.293C373.098 437.683 373.098 438.317 372.707 438.707L366.343 445.071C365.953 445.462 365.319 445.462 364.929 445.071C364.538 444.681 364.538 444.047 364.929 443.657L370.586 438L364.929 432.343C364.538 431.953 364.538 431.319 364.929 430.929C365.319 430.538 365.953 430.538 366.343 430.929L372.707 437.293ZM153 438L153 437L155.028 437L155.028 438L155.028 439L153 439L153 438ZM159.083 438L159.083 437L163.139 437L163.139 438L163.139 439L159.083 439L159.083 438ZM167.194 438L167.194 437L171.25 437L171.25 438L171.25 439L167.194 439L167.194 438ZM175.306 438L175.306 437L179.361 437L179.361 438L179.361 439L175.306 439L175.306 438ZM183.417 438L183.417 437L187.472 437L187.472 438L187.472 439L183.417 439L183.417 438ZM191.528 438L191.528 437L195.583 437L195.583 438L195.583 439L191.528 439L191.528 438ZM199.639 438L199.639 437L203.694 437L203.694 438L203.694 439L199.639 439L199.639 438ZM207.75 438L207.75 437L211.806 437L211.806 438L211.806 439L207.75 439L207.75 438ZM215.861 438L215.861 437L219.917 437L219.917 438L219.917 439L215.861 439L215.861 438ZM223.972 438L223.972 437L228.028 437L228.028 438L228.028 439L223.972 439L223.972 438ZM232.083 438L232.083 437L236.139 437L236.139 438L236.139 439L232.083 439L232.083 438ZM240.194 438L240.194 437L244.25 437L244.25 438L244.25 439L240.194 439L240.194 438ZM248.306 438L248.306 437L252.361 437L252.361 438L252.361 439L248.306 439L248.306 438ZM256.417 438L256.417 437L260.472 437L260.472 438L260.472 439L256.417 439L256.417 438ZM264.528 438L264.528 437L268.583 437L268.583 438L268.583 439L264.528 439L264.528 438ZM272.639 438L272.639 437L276.694 437L276.694 438L276.694 439L272.639 439L272.639 438ZM280.75 438L280.75 437L284.806 437L284.806 438L284.806 439L280.75 439L280.75 438ZM288.861 438L288.861 437L292.917 437L292.917 438L292.917 439L288.861 439L288.861 438ZM296.972 438L296.972 437L301.028 437L301.028 438L301.028 439L296.972 439L296.972 438ZM305.083 438L305.083 437L309.139 437L309.139 438L309.139 439L305.083 439L305.083 438ZM313.194 438L313.194 437L317.25 437L317.25 438L317.25 439L313.194 439L313.194 438ZM321.306 438L321.306 437L325.361 437L325.361 438L325.361 439L321.306 439L321.306 438ZM329.417 438L329.417 437L333.472 437L333.472 438L333.472 439L329.417 439L329.417 438ZM337.528 438L337.528 437L341.583 437L341.583 438L341.583 439L337.528 439L337.528 438ZM345.639 438L345.639 437L349.695 437L349.695 438L349.695 439L345.639 439L345.639 438ZM353.75 438L353.75 437L357.806 437L357.806 438L357.806 439L353.75 439L353.75 438ZM361.861 438L361.861 437L365.917 437L365.917 438L365.917 439L361.861 439L361.861 438ZM369.972 438L369.972 437L372 437L372 438L372 439L369.972 439L369.972 438Z" fill="#312D2A"/>
<g id="Cloud DNS">
<g id="Frame">
<g id="Product Icons_2">
<g id="colored-32/dns">
<g id="Group_10">
<path id="Fill-1" d="M117.5 451H112.5V426H117.5V451Z" fill="#4285F4"/>
<path id="Fill-2" d="M90 458.5H140V453.5H90V458.5Z" fill="#669DF6"/>
<path id="Fill-3" d="M110 461H120V451H110V461Z" fill="#AECBFA"/>
</g>
</g>
<path id="Vector_57" d="M140 411H90V426H140V411Z" fill="#AECBFA"/>
<path id="Vector_58" d="M140 411H115V426H140V411Z" fill="#669DF6"/>
<path id="Vector_59" d="M100 416H95V421H100V416Z" fill="white"/>
<path id="Vector_60" d="M140 431H90V446H140V431Z" fill="#AECBFA"/>
<path id="Vector_61" d="M140 431H115V446H140V431Z" fill="#669DF6"/>
<path id="Vector_62" d="M100 436H95V441H100V436Z" fill="white"/>
</g>
</g>
<g id="Icon Text Label_5">
<text id="IconLabel_7" fill="black" xml:space="preserve" style="white-space: pre" font-family="Oracle Sans" font-size="16" letter-spacing="0em"><tspan x="75.4141" y="484.816">Cloud DNS</tspan></text>
</g>
</g>
<path id="Vector 56" d="M829.707 387.293C829.316 386.902 828.683 386.902 828.293 387.293L821.929 393.657C821.538 394.047 821.538 394.681 821.929 395.071C822.319 395.462 822.952 395.462 823.343 395.071L829 389.414L834.657 395.071C835.047 395.462 835.68 395.462 836.071 395.071C836.461 394.68 836.461 394.047 836.071 393.657L829.707 387.293ZM829 439L829 440L830 440L830 439L829 439ZM829 388L828 388L828 390.125L829 390.125L830 390.125L830 388L829 388ZM829 394.375L828 394.375L828 398.625L829 398.625L830 398.625L830 394.375L829 394.375ZM829 402.875L828 402.875L828 407.125L829 407.125L830 407.125L830 402.875L829 402.875ZM829 411.375L828 411.375L828 415.625L829 415.625L830 415.625L830 411.375L829 411.375ZM829 419.875L828 419.875L828 424.125L829 424.125L830 424.125L830 419.875L829 419.875ZM829 428.375L828 428.375L828 432.625L829 432.625L830 432.625L830 428.375L829 428.375ZM829 436.875L828 436.875L828 439L829 439L830 439L830 436.875L829 436.875ZM829 439L829 438L826.988 438L826.988 439L826.988 440L829 440L829 439ZM822.964 439L822.964 438L818.94 438L818.94 439L818.94 440L822.964 440L822.964 439ZM814.917 439L814.917 438L810.893 438L810.893 439L810.893 440L814.917 440L814.917 439ZM806.869 439L806.869 438L802.845 438L802.845 439L802.845 440L806.869 440L806.869 439ZM798.821 439L798.821 438L794.798 438L794.798 439L794.798 440L798.821 440L798.821 439ZM790.774 439L790.774 438L786.75 438L786.75 439L786.75 440L790.774 440L790.774 439ZM782.726 439L782.726 438L778.702 438L778.702 439L778.702 440L782.726 440L782.726 439ZM774.679 439L774.679 438L770.655 438L770.655 439L770.655 440L774.679 440L774.679 439ZM766.631 439L766.631 438L762.607 438L762.607 439L762.607 440L766.631 440L766.631 439ZM758.583 439L758.583 438L754.56 438L754.56 439L754.56 440L758.583 440L758.583 439ZM750.536 439L750.536 438L746.512 438L746.512 439L746.512 440L750.536 440L750.536 439ZM742.488 439L742.488 438L738.464 438L738.464 439L738.464 440L742.488 440L742.488 439ZM734.44 439L734.44 438L730.417 438L730.417 439L730.417 440L734.44 440L734.44 439ZM726.393 439L726.393 438L722.369 438L722.369 439L722.369 440L726.393 440L726.393 439ZM718.345 439L718.345 438L714.321 438L714.321 439L714.321 440L718.345 440L718.345 439ZM710.298 439L710.298 438L706.274 438L706.274 439L706.274 440L710.298 440L710.298 439ZM702.25 439L702.25 438L698.226 438L698.226 439L698.226 440L702.25 440L702.25 439ZM694.202 439L694.202 438L690.179 438L690.179 439L690.179 440L694.202 440L694.202 439ZM686.155 439L686.155 438L682.131 438L682.131 439L682.131 440L686.155 440L686.155 439ZM678.107 439L678.107 438L674.083 438L674.083 439L674.083 440L678.107 440L678.107 439ZM670.06 439L670.06 438L666.036 438L666.036 439L666.036 440L670.06 440L670.06 439ZM662.012 439L662.012 438L657.988 438L657.988 439L657.988 440L662.012 440L662.012 439ZM653.964 439L653.964 438L649.941 438L649.941 439L649.941 440L653.964 440L653.964 439ZM645.917 439L645.917 438L641.893 438L641.893 439L641.893 440L645.917 440L645.917 439ZM637.869 439L637.869 438L633.845 438L633.845 439L633.845 440L637.869 440L637.869 439ZM629.821 439L629.821 438L625.798 438L625.798 439L625.798 440L629.821 440L629.821 439ZM621.774 439L621.774 438L617.75 438L617.75 439L617.75 440L621.774 440L621.774 439ZM613.726 439L613.726 438L609.702 438L609.702 439L609.702 440L613.726 440L613.726 439ZM605.679 439L605.679 438L601.655 438L601.655 439L601.655 440L605.679 440L605.679 439ZM597.631 439L597.631 438L593.607 438L593.607 439L593.607 440L597.631 440L597.631 439ZM589.583 439L589.583 438L585.56 438L585.56 439L585.56 440L589.583 440L589.583 439ZM581.536 439L581.536 438L577.512 438L577.512 439L577.512 440L581.536 440L581.536 439ZM573.488 439L573.488 438L569.464 438L569.464 439L569.464 440L573.488 440L573.488 439ZM565.441 439L565.441 438L561.417 438L561.417 439L561.417 440L565.441 440L565.441 439ZM557.393 439L557.393 438L553.369 438L553.369 439L553.369 440L557.393 440L557.393 439ZM549.345 439L549.345 438L545.322 438L545.322 439L545.322 440L549.345 440L549.345 439ZM541.298 439L541.298 438L537.274 438L537.274 439L537.274 440L541.298 440L541.298 439ZM533.25 439L533.25 438L529.226 438L529.226 439L529.226 440L533.25 440L533.25 439ZM525.203 439L525.203 438L521.179 438L521.179 439L521.179 440L525.203 440L525.203 439ZM517.155 439L517.155 438L513.131 438L513.131 439L513.131 440L517.155 440L517.155 439ZM509.107 439L509.107 438L505.084 438L505.084 439L505.084 440L509.107 440L509.107 439ZM501.06 439L501.06 438L497.036 438L497.036 439L497.036 440L501.06 440L501.06 439ZM493.012 439L493.012 438L491 438L491 439L491 440L493.012 440L493.012 439Z" fill="#312D2A"/>
<g id="NSG">
<g id="Srv-NSG Network Security Group">
<g id="Group 29">
<path id="Vector_63" d="M463.712 395.44C463.169 395.186 450.438 389.213 450.438 382.821V364.133H450.875C459.722 364.133 463.458 361.182 463.458 360H464.333C464.333 360.876 467.483 364.125 476.925 364.125H477.362V382.821C477.362 389.213 464.622 395.186 464.079 395.44L463.896 395.518L463.712 395.44Z" fill="white"/>
<path id="Vector_64" d="M463.896 360C463.896 361.305 467.483 364.562 476.925 364.562V382.821C476.925 389.012 463.896 395.081 463.896 395.081C463.896 395.081 450.875 389.012 450.875 382.821V364.571C459.993 364.571 463.896 361.48 463.896 360ZM464.771 360H463.021C462.986 360.762 459.722 363.695 450.875 363.695H450V382.821C450 389.494 462.977 395.58 463.528 395.834L463.896 396L464.263 395.834C464.814 395.58 477.8 389.494 477.8 382.821V363.695H476.925C468.157 363.695 464.876 360.779 464.771 360Z" fill="white"/>
<path id="Vector_65" d="M463.897 360C463.897 361.471 459.994 364.562 450.876 364.562V382.821C450.876 389.012 463.897 395.081 463.897 395.081C463.897 395.081 476.926 389.056 476.926 382.865V364.571C467.502 364.571 463.897 361.314 463.897 360ZM464.553 362.916C465.101 363.316 465.688 363.662 466.303 363.949C469.248 365.211 472.418 365.861 475.622 365.858V376.638H464.553V362.916ZM452.18 365.858C455.335 365.855 458.46 365.233 461.376 364.028C462.046 363.733 462.685 363.372 463.284 362.951V376.638H452.18V365.858ZM458.104 390.168C454.28 387.479 452.18 384.87 452.18 382.821V377.934H463.249V393.277C461.47 392.349 459.752 391.311 458.104 390.168ZM463.897 393.592H463.967H463.897ZM475.622 382.821C475.622 384.87 473.513 387.479 469.689 390.168C468.045 391.313 466.329 392.351 464.553 393.277V377.934H475.622V382.821Z" fill="#2D5967"/>
</g>
</g>
<g id="Icon Text Label_6">
<text id="IconLabel_8" fill="black" xml:space="preserve" style="white-space: pre" font-family="Oracle Sans" font-size="16" letter-spacing="0em"><tspan x="448.07" y="410.816">NSG</tspan></text>
</g>
</g>
<g id="Connector Line Label">
<rect width="136" height="14" transform="translate(188 420)" fill="white"/>
<text id="Line Label" fill="#312D2A" xml:space="preserve" style="white-space: pre" font-family="Oracle Sans" font-size="14" letter-spacing="0em"><tspan x="192.132" y="432.089">DNS forwarding rule</tspan></text>
</g>
<g id="Oracle Database@Google Cloud_3">
<g id="Srv-Oracle Database@Google Cloud_2">
<g id="Group 1512_2">
<path id="art_2" d="M445.795 271.424C445.795 267.283 443.41 263.463 439.077 260.655C435.026 258.027 429.667 256.578 424 256.578C418.333 256.578 412.987 258.027 408.923 260.655C404.59 263.463 402.205 267.283 402.205 271.424V301.732C402.205 305.873 404.59 309.694 408.923 312.501C412.974 315.129 418.333 316.578 424 316.578C429.667 316.578 435.026 315.129 439.077 312.501C443.41 309.694 445.795 305.873 445.795 301.732V271.437V271.424ZM411.154 264.104C414.551 261.899 419.115 260.681 424 260.681C428.885 260.681 433.449 261.899 436.846 264.104C439.974 266.129 441.692 268.732 441.692 271.424C441.692 274.117 439.974 276.719 436.846 278.745C433.449 280.95 428.885 282.168 424 282.168C419.115 282.168 414.551 280.95 411.154 278.745C408.026 276.719 406.308 274.117 406.308 271.424C406.308 268.732 408.026 266.129 411.154 264.104ZM411.154 309.052C408.026 307.027 406.308 304.424 406.308 301.732V296.488C407.077 297.206 407.949 297.899 408.923 298.527C412.974 301.155 418.333 302.604 424 302.604C429.667 302.604 435.026 301.155 439.077 298.527C440.051 297.899 440.923 297.219 441.692 296.488V301.719C441.692 304.424 439.974 307.027 436.846 309.052C433.449 311.258 428.885 312.476 424 312.476C419.115 312.476 414.551 311.258 411.154 309.052ZM441.692 287.745C441.692 290.45 439.974 293.052 436.846 295.078C433.449 297.283 428.885 298.501 424 298.501C419.115 298.501 414.551 297.283 411.154 295.078C408.026 293.052 406.308 290.45 406.308 287.758V280.155C407.077 280.873 407.949 281.565 408.923 282.194C412.974 284.822 418.333 286.27 424 286.27C429.667 286.27 435.026 284.822 439.077 282.194C440.051 281.565 440.923 280.886 441.692 280.155V287.745Z" fill="#C74634"/>
</g>
</g>
<g id="Icon Text Label_7">
<text id="IconLabel_9" fill="black" xml:space="preserve" style="white-space: pre" font-family="Oracle Sans" font-size="16" letter-spacing="0em"><tspan x="308.445" y="331.816">Oracle Database@Google Cloud</tspan></text>
</g>
</g>
</g>
<defs>
<clipPath id="clip0_16249_294">
<rect width="870" height="560" fill="white"/>
</clipPath>
</defs>
</svg>
