<svg width="1112" height="560" viewBox="0 0 1112 560" fill="none" xmlns="http://www.w3.org/2000/svg">
<g id="key-vault-database-at-azure-diagram" clip-path="url(#clip0_15286_583)">
<rect width="1112" height="560" fill="white"/>
<g id="Azure Region">
<rect x="0.5" y="0.5" width="1111" height="559" rx="3.5" fill="#ECF3FB"/>
<rect x="0.5" y="0.5" width="1111" height="559" rx="3.5" stroke="#0078D7"/>
<text id="Azure Region_2" fill="#312D2A" xml:space="preserve" style="white-space: pre" font-family="Oracle Sans" font-size="16" font-weight="800" letter-spacing="0em"><tspan x="503.531" y="21.816">Azure Region</tspan></text>
</g>
<g id="Availability Zone 1">
<rect x="8.5" y="32.5" width="463" height="519" rx="3.5" fill="#DAE8FC"/>
<rect x="8.5" y="32.5" width="463" height="519" rx="3.5" stroke="#0078D7"/>
<text id="Availability Zone" fill="#312D2A" xml:space="preserve" style="white-space: pre" font-family="Oracle Sans" font-size="16" font-weight="bold" letter-spacing="0em"><tspan x="170.594" y="53.816">Availability Zone 1</tspan></text>
</g>
<g id="Availability Zone 2">
<rect x="640.5" y="32.5" width="463" height="519" rx="3.5" fill="#DAE8FC"/>
<rect x="640.5" y="32.5" width="463" height="519" rx="3.5" stroke="#0078D7"/>
<text id="Availability Zone_2" fill="#312D2A" xml:space="preserve" style="white-space: pre" font-family="Oracle Sans" font-size="16" font-weight="bold" letter-spacing="0em"><tspan x="801.68" y="53.816">Availability Zone 2</tspan></text>
</g>
<g id="Application VNet">
<rect x="17" y="65" width="446" height="478" fill="white"/>
<rect x="17" y="65" width="446" height="478" stroke="#706E6F" stroke-width="2" stroke-dasharray="4 4"/>
<g id="VNet icon">
<rect id="White Vnet BG" x="411" y="62" width="45" height="6" fill="white"/>
<g id="Icon Master">
<g id="Azure_VNet">
<g id="Group">
<g id="Group_2">
<path id="Vector" d="M442.294 67.5452C443.724 67.5452 444.884 66.3855 444.884 64.9549C444.884 63.5243 443.724 62.3646 442.294 62.3646C440.863 62.3646 439.704 63.5243 439.704 64.9549C439.704 66.3855 440.863 67.5452 442.294 67.5452Z" fill="url(#paint0_linear_15286_583)"/>
<path id="Vector_2" d="M434.124 67.5452C435.555 67.5452 436.715 66.3855 436.715 64.9549C436.715 63.5243 435.555 62.3646 434.124 62.3646C432.694 62.3646 431.534 63.5243 431.534 64.9549C431.534 66.3855 432.694 67.5452 434.124 67.5452Z" fill="url(#paint1_linear_15286_583)"/>
<path id="Vector_3" d="M425.955 67.5452C427.386 67.5452 428.545 66.3855 428.545 64.9549C428.545 63.5243 427.386 62.3646 425.955 62.3646C424.524 62.3646 423.365 63.5243 423.365 64.9549C423.365 66.3855 424.524 67.5452 425.955 67.5452Z" fill="url(#paint2_linear_15286_583)"/>
<path id="Vector_4" d="M427.748 75.3161L426.154 76.9102C425.955 76.9102 425.557 76.9102 425.357 76.7109L414.398 65.752C414 65.3535 414 64.5565 414.398 63.9587L415.993 62.564L427.748 74.3199C427.948 74.5191 427.948 74.9176 427.748 75.3161Z" fill="#50E6FF"/>
<path id="Vector_5" d="M426.154 53.1991L427.748 54.7931C427.948 54.9924 427.948 55.3909 427.748 55.5902L415.993 67.3461L414.399 65.752C413.801 65.1543 413.801 64.3573 414.399 63.9588L425.158 53.1991C425.357 52.9999 425.756 52.9999 426.154 53.1991Z" fill="#1490DF"/>
<path id="Vector_6" d="M452.057 62.3646L453.452 63.7594C454.05 64.3572 454.05 65.1542 453.452 65.5527L442.493 76.5116C442.294 76.7108 441.895 76.7108 441.497 76.5116L439.903 74.9176C439.704 74.7183 439.704 74.3198 439.903 73.9213L452.057 62.3646Z" fill="#50E6FF"/>
<path id="Vector_7" d="M453.651 65.752L452.057 67.3461L440.501 55.7894C440.301 55.5902 440.301 55.1917 440.501 54.7931L441.895 53.1991C442.095 52.9999 442.493 52.9999 442.892 53.1991L453.651 63.9588C454.05 64.3573 454.05 65.1543 453.651 65.752Z" fill="#1490DF"/>
</g>
</g>
</g>
</g>
</g>
<text id="Azure subnet" fill="#706E6F" xml:space="preserve" style="white-space: pre" font-family="Oracle Sans" font-size="16" font-weight="600" letter-spacing="0em"><tspan x="25" y="86.816">Customer VNet</tspan></text>
<text id="00.0.00.0/00" fill="#312D2A" xml:space="preserve" style="white-space: pre" font-family="Oracle Sans" font-size="16" font-weight="300" letter-spacing="0em"><tspan x="25" y="105.216">10.1.0.0/16</tspan></text>
</g>
<g id="Application VNet_2">
<rect x="649" y="63" width="446" height="480" fill="white"/>
<rect x="649" y="63" width="446" height="480" stroke="#706E6F" stroke-width="2" stroke-dasharray="4 4"/>
<g id="VNet icon_2">
<rect id="White Vnet BG_2" x="1043" y="60" width="45" height="6" fill="white"/>
<g id="Icon Master_2">
<g id="Azure_VNet_2">
<g id="Group_3">
<g id="Group_4">
<path id="Vector_8" d="M1074.29 65.5452C1075.72 65.5452 1076.88 64.3855 1076.88 62.9549C1076.88 61.5243 1075.72 60.3646 1074.29 60.3646C1072.86 60.3646 1071.7 61.5243 1071.7 62.9549C1071.7 64.3855 1072.86 65.5452 1074.29 65.5452Z" fill="url(#paint3_linear_15286_583)"/>
<path id="Vector_9" d="M1066.12 65.5452C1067.56 65.5452 1068.71 64.3855 1068.71 62.9549C1068.71 61.5243 1067.56 60.3646 1066.12 60.3646C1064.69 60.3646 1063.53 61.5243 1063.53 62.9549C1063.53 64.3855 1064.69 65.5452 1066.12 65.5452Z" fill="url(#paint4_linear_15286_583)"/>
<path id="Vector_10" d="M1057.96 65.5452C1059.39 65.5452 1060.55 64.3855 1060.55 62.9549C1060.55 61.5243 1059.39 60.3646 1057.96 60.3646C1056.52 60.3646 1055.36 61.5243 1055.36 62.9549C1055.36 64.3855 1056.52 65.5452 1057.96 65.5452Z" fill="url(#paint5_linear_15286_583)"/>
<path id="Vector_11" d="M1059.75 73.3161L1058.15 74.9102C1057.96 74.9102 1057.56 74.9102 1057.36 74.7109L1046.4 63.752C1046 63.3535 1046 62.5565 1046.4 61.9587L1047.99 60.564L1059.75 72.3199C1059.95 72.5191 1059.95 72.9176 1059.75 73.3161Z" fill="#50E6FF"/>
<path id="Vector_12" d="M1058.15 51.1991L1059.75 52.7931C1059.95 52.9924 1059.95 53.3909 1059.75 53.5902L1047.99 65.3461L1046.4 63.752C1045.8 63.1543 1045.8 62.3573 1046.4 61.9588L1057.16 51.1991C1057.36 50.9999 1057.76 50.9999 1058.15 51.1991Z" fill="#1490DF"/>
<path id="Vector_13" d="M1084.06 60.3646L1085.45 61.7594C1086.05 62.3572 1086.05 63.1542 1085.45 63.5527L1074.49 74.5116C1074.29 74.7108 1073.9 74.7108 1073.5 74.5116L1071.9 72.9176C1071.7 72.7183 1071.7 72.3198 1071.9 71.9213L1084.06 60.3646Z" fill="#50E6FF"/>
<path id="Vector_14" d="M1085.65 63.752L1084.06 65.3461L1072.5 53.7894C1072.3 53.5902 1072.3 53.1917 1072.5 52.7931L1073.9 51.1991C1074.09 50.9999 1074.49 50.9999 1074.89 51.1991L1085.65 61.9588C1086.05 62.3573 1086.05 63.1543 1085.65 63.752Z" fill="#1490DF"/>
</g>
</g>
</g>
</g>
</g>
<text id="Azure subnet_2" fill="#706E6F" xml:space="preserve" style="white-space: pre" font-family="Oracle Sans" font-size="16" font-weight="600" letter-spacing="0em"><tspan x="657" y="84.816">Customer VNet</tspan></text>
<text id="00.0.00.0/00_2" fill="#312D2A" xml:space="preserve" style="white-space: pre" font-family="Oracle Sans" font-size="16" font-weight="300" letter-spacing="0em"><tspan x="657" y="103.216">10.2.0.0/16</tspan></text>
</g>
<g id="Azure Database subnet">
<rect x="32.5" y="112.5" width="415" height="183" fill="white"/>
<rect x="32.5" y="112.5" width="415" height="183" stroke="#706E6F" stroke-dasharray="8 4"/>
<text id="Azure subnet_3" fill="#706E6F" xml:space="preserve" style="white-space: pre" font-family="Oracle Sans" font-size="16" letter-spacing="0em"><tspan x="40" y="133.816">Client subnet (delegated)</tspan></text>
<text id="00.0.00.0/00_3" fill="#312D2A" xml:space="preserve" style="white-space: pre" font-family="Oracle Sans" font-size="16" font-weight="300" letter-spacing="0em"><tspan x="40" y="151.816">10.1.0.0/24</tspan></text>
</g>
<g id="Group 1242">
<g id="Azure Cloud boxes">
<rect x="41" y="161" width="398" height="126" fill="white"/>
<rect x="41" y="161" width="398" height="126" stroke="#0078D7" stroke-width="2" stroke-dasharray="8 4"/>
<g id="VNet icon_3">
<rect id="White Vnet BG_3" x="394.001" y="158" width="34" height="6" fill="white"/>
<g id="Oracle-Database@Azure">
<g id="Group_5">
<path id="Vector_15" d="M412.248 166.152C404.756 166.152 398.683 164.835 398.683 163.211V170.058C398.683 171.683 404.756 173 412.248 173C419.739 173 425.813 171.683 425.813 170.058V163.211C425.813 164.835 419.739 166.152 412.248 166.152ZM423.661 167.546C422.637 167.901 421.574 168.179 420.507 168.376C419.235 168.609 417.933 168.728 416.636 168.728C416.324 168.728 416.07 168.476 416.07 168.164C416.07 167.852 416.322 167.6 416.636 167.6C417.865 167.6 419.098 167.487 420.304 167.265C421.315 167.079 422.32 166.816 423.292 166.48C423.588 166.378 423.909 166.533 424.013 166.829C424.115 167.124 423.96 167.447 423.664 167.549L423.661 167.546ZM412.248 157.346C404.756 157.346 398.683 156.029 398.683 154.404V161.615C398.683 163.239 404.756 164.554 412.248 164.554C419.739 164.554 425.813 163.237 425.813 161.613V154.402C425.813 156.026 419.739 157.343 412.248 157.343V157.346ZM423.661 158.979C422.634 159.333 421.574 159.612 420.507 159.809C419.235 160.041 417.931 160.161 416.636 160.161C416.324 160.161 416.07 159.909 416.07 159.596C416.07 159.284 416.322 159.032 416.636 159.032C417.865 159.032 419.098 158.919 420.304 158.698C421.315 158.512 422.32 158.249 423.292 157.912C423.588 157.81 423.909 157.965 424.013 158.262C424.117 158.558 423.96 158.879 423.664 158.981L423.661 158.979ZM412.248 143.298C404.756 143.298 398.683 144.6 398.683 146.753V152.811C398.683 154.435 404.756 155.75 412.248 155.75C419.739 155.75 425.813 154.433 425.813 152.808V146.972C425.813 144.597 419.739 143.298 412.248 143.298ZM423.661 150.657C422.634 151.011 421.574 151.29 420.507 151.487C419.235 151.72 417.933 151.839 416.636 151.839C416.324 151.839 416.07 151.587 416.07 151.275C416.07 150.963 416.322 150.71 416.636 150.71C417.865 150.71 419.098 150.597 420.304 150.376C421.313 150.19 422.32 149.927 423.292 149.59C423.588 149.489 423.909 149.643 424.013 149.94C424.115 150.234 423.96 150.558 423.664 150.659L423.661 150.657ZM412.248 148.654C405.499 148.654 400.03 147.426 400.03 146.698C400.03 145.804 405.499 144.422 412.248 144.422C418.996 144.422 424.465 145.859 424.465 146.698C424.465 147.459 418.996 148.654 412.248 148.654Z" fill="url(#paint6_linear_15286_583)"/>
<path id="Vector_16" d="M398.683 146.696V146.591C398.683 144.584 403.968 143.318 410.76 143.157C409.979 141.404 408.344 140.104 406.343 139.839C406.172 135.928 402.892 132.883 398.981 133.004C395.87 132.949 393.061 134.864 391.977 137.781C388.654 138.181 386.125 140.952 386.027 144.296C386.176 148.077 389.354 151.022 393.134 150.887C393.344 150.887 393.559 150.879 393.758 150.861H398.68L398.683 146.696Z" fill="url(#paint7_linear_15286_583)"/>
</g>
</g>
</g>
<text id="Oracle Database@Azure" fill="#312D2A" xml:space="preserve" style="white-space: pre" font-family="Oracle Sans" font-size="16" font-weight="600" letter-spacing="0em"><tspan x="49" y="182.816">Oracle</tspan></text>
<text id="Oracle Database@Azure_2" fill="#312D2A" xml:space="preserve" style="white-space: pre" font-family="Oracle Sans" font-size="16" font-weight="600" letter-spacing="0em"><tspan x="49" y="198.816">Database@Azure</tspan></text>
</g>
<g id="Exadata Database Service">
<g id="Technology - Exadata-Cloud-Service">
<g id="Group 826">
<g id="Union">
<path fill-rule="evenodd" clip-rule="evenodd" d="M248.983 235.593V194.376H231.011V235.593H248.983ZM232.269 234.335H247.726V195.633H232.269V234.335Z" fill="white"/>
<path fill-rule="evenodd" clip-rule="evenodd" d="M233.05 184.201L233.143 182.947C232.71 182.915 232.275 182.914 231.842 182.943H230.835L230.232 183.073H229.899L229.715 183.131C229.386 183.234 229.062 183.355 228.745 183.493L229.246 184.646L228.735 183.497C228.076 183.79 227.454 184.157 226.879 184.592L226.874 184.596C226.587 184.816 226.315 185.054 226.059 185.31L226.055 185.314C224.721 186.661 223.848 188.395 223.558 190.269C223.509 190.488 223.414 190.695 223.28 190.876C223.144 191.06 222.97 191.213 222.771 191.325C221.478 191.985 220.324 192.886 219.369 193.98L219.359 193.993C218.112 195.462 217.253 197.22 216.861 199.107L216.86 199.113C216.762 199.595 216.697 200.084 216.665 200.575L216.493 203.25H227.429V239.178H252.566V203.25H259.57L260.252 201.973L260.254 201.97C261.582 199.516 261.931 196.648 261.231 193.947C260.53 191.243 258.831 188.907 256.477 187.408L256.469 187.404C255.399 186.732 254.221 186.25 252.987 185.977L252.97 185.973C252.742 185.926 252.525 185.829 252.337 185.689C252.154 185.553 252.002 185.38 251.89 185.181C251.656 184.717 251.395 184.267 251.107 183.835L251.099 183.823L251.091 183.813C250.527 183.003 249.857 182.272 249.1 181.64L249.094 181.635C247.124 180.011 244.642 179.141 242.09 179.179C239.538 179.218 237.083 180.164 235.163 181.847L235.16 181.85C234.901 182.079 234.63 182.333 234.382 182.597C234.316 182.664 234.246 182.727 234.173 182.786L234.03 182.857H233.957L233.612 182.943H233.481L233.425 182.948C233.338 182.956 233.25 182.956 233.162 182.948L233.05 184.201ZM217.92 200.656C217.948 200.221 218.006 199.789 218.092 199.362C218.441 197.681 219.206 196.115 220.317 194.807C221.17 193.828 222.203 193.023 223.36 192.436C223.726 192.236 224.043 191.959 224.291 191.624C224.539 191.289 224.711 190.904 224.796 190.495C225.039 188.87 225.793 187.365 226.949 186.198C227.165 185.982 227.395 185.781 227.638 185.595C228.136 185.218 228.675 184.9 229.246 184.646C229.522 184.526 229.805 184.421 230.093 184.33H230.365L230.968 184.201H231.887C232.274 184.172 232.663 184.172 233.05 184.201C233.212 184.215 233.375 184.215 233.538 184.201H233.767L234.112 184.115H234.327C234.45 184.075 234.566 184.017 234.672 183.942L234.844 183.856C235.002 183.738 235.151 183.609 235.289 183.468C235.504 183.238 235.748 183.008 235.992 182.792C237.688 181.306 239.856 180.471 242.109 180.437C244.362 180.403 246.555 181.171 248.294 182.606C248.966 183.166 249.56 183.814 250.06 184.531C250.324 184.928 250.564 185.341 250.777 185.767C250.977 186.133 251.254 186.451 251.588 186.699C251.923 186.948 252.308 187.12 252.715 187.204C253.809 187.446 254.853 187.874 255.802 188.469C257.887 189.797 259.393 191.867 260.014 194.262C260.634 196.657 260.324 199.199 259.146 201.374L258.816 201.992H253.074V199.65H257.381C258.063 198.031 258.149 196.222 257.623 194.545C257.097 192.869 255.994 191.433 254.51 190.495C253.79 190.011 252.987 189.665 252.141 189.475C251.387 189.309 250.68 188.977 250.072 188.502C249.463 188.027 248.969 187.422 248.624 186.73C248.03 185.542 247.118 184.543 245.991 183.843C244.863 183.143 243.563 182.769 242.237 182.764C241.251 182.763 240.276 182.966 239.372 183.359C238.468 183.752 237.655 184.327 236.983 185.049C236.46 185.614 235.813 186.049 235.093 186.321C234.373 186.593 233.6 186.694 232.834 186.615C231.927 186.527 231.012 186.676 230.179 187.046C229.39 187.4 228.697 187.938 228.16 188.616C227.623 189.294 227.257 190.091 227.092 190.941C226.939 191.694 226.618 192.403 226.153 193.015C225.689 193.627 225.092 194.127 224.408 194.476C223.417 194.993 222.549 195.718 221.863 196.601C221.449 197.134 221.107 197.717 220.844 198.335C220.672 198.741 220.534 199.161 220.432 199.592H226.949V201.992H217.834L217.92 200.656ZM231.019 192.048L228.686 193.718V237.921H251.309V192.048H231.019Z" fill="white"/>
</g>
<path id="Vector_17" d="M220.432 199.592C220.689 198.504 221.177 197.483 221.863 196.601C222.549 195.718 223.417 194.993 224.408 194.476C225.092 194.127 225.688 193.627 226.153 193.015C226.618 192.403 226.939 191.694 227.092 190.941C227.257 190.091 227.623 189.294 228.16 188.616C228.697 187.938 229.389 187.4 230.178 187.046C231.012 186.676 231.926 186.527 232.834 186.615C233.599 186.694 234.373 186.593 235.093 186.321C235.812 186.049 236.459 185.614 236.982 185.049C237.655 184.327 238.468 183.752 239.372 183.359C240.276 182.966 241.251 182.763 242.236 182.764C243.563 182.769 244.863 183.143 245.99 183.843C247.118 184.543 248.03 185.542 248.624 186.73C248.968 187.422 249.463 188.027 250.071 188.502C250.68 188.977 251.387 189.309 252.141 189.475C252.987 189.665 253.79 190.011 254.509 190.495C255.994 191.433 257.097 192.868 257.623 194.545C258.149 196.222 258.063 198.031 257.38 199.65H253.074V201.992H258.816L259.146 201.374C260.324 199.199 260.634 196.657 260.013 194.262C259.392 191.867 257.887 189.796 255.801 188.469C254.852 187.874 253.808 187.446 252.715 187.204C252.307 187.12 251.923 186.948 251.588 186.699C251.253 186.451 250.977 186.133 250.777 185.767C250.563 185.341 250.324 184.928 250.059 184.531C249.559 183.813 248.965 183.166 248.294 182.606C246.554 181.171 244.362 180.403 242.109 180.437C239.855 180.471 237.687 181.306 235.992 182.792C235.748 183.008 235.504 183.238 235.289 183.468C235.151 183.609 235.002 183.738 234.844 183.856L234.671 183.942C234.566 184.016 234.45 184.075 234.327 184.115H234.112L233.767 184.201H233.537C233.375 184.215 233.212 184.215 233.049 184.201C232.662 184.172 232.274 184.172 231.887 184.201H231.284H230.968L230.365 184.33H230.092C229.805 184.421 229.522 184.526 229.245 184.646C228.675 184.9 228.136 185.218 227.638 185.595C227.395 185.781 227.165 185.982 226.949 186.198C225.793 187.365 225.039 188.87 224.795 190.495C224.711 190.904 224.539 191.289 224.291 191.624C224.043 191.959 223.725 192.236 223.36 192.435C222.203 193.023 221.17 193.828 220.317 194.807C219.206 196.115 218.441 197.681 218.092 199.362C218.005 199.789 217.948 200.221 217.92 200.656L217.833 201.992H226.949V199.592H220.432Z" fill="#2D5967"/>
<path id="Union_2" fill-rule="evenodd" clip-rule="evenodd" d="M248.983 235.593H231.011V194.376H248.983V235.593ZM247.189 196.115H232.748V198.443H247.189V196.115ZM234.485 202.208H232.748V204.537H234.485V206.563H245.509V204.537H247.189V202.208H245.509V200.182H234.485V202.208ZM247.189 208.302H232.748V210.616H247.189V208.302ZM247.189 212.369H232.748V214.697H247.189V212.369Z" fill="white"/>
<path id="Vector_18" d="M243.184 202.496H236.811V204.235H243.184V202.496Z" fill="white"/>
<path id="Vector_19" d="M228.686 192.048V237.921H251.309V192.048H228.686ZM248.983 235.593H231.011V194.376H248.983V235.593Z" fill="#2D5967"/>
<path id="Vector_20" d="M247.246 196.115H232.748V198.443H247.246V196.115Z" fill="#2D5967"/>
<path id="Vector_21" d="M234.485 206.563H245.509V204.537H247.189V202.208H245.509V200.182H234.485V202.208H232.748V204.537H234.485V206.563ZM236.81 202.496H243.184V204.249H236.81V202.496Z" fill="#2D5967"/>
<path id="Vector_22" d="M247.246 208.302H232.748V210.63H247.246V208.302Z" fill="#2D5967"/>
<path id="Vector_23" d="M247.246 212.369H232.748V214.697H247.246V212.369Z" fill="#2D5967"/>
<path id="Vector_24" d="M244.261 219.602L241.761 219.616L240.127 223.76L238.394 219.63H235.88L238.646 225.699L235.782 232.145H238.283L240.029 227.68L241.901 232.131L244.415 232.117L241.523 225.769L244.261 219.602Z" fill="#2D5967"/>
</g>
</g>
<g id="Icon Text Label">
<text id="IconLabel" fill="black" xml:space="preserve" style="white-space: pre" font-family="Oracle Sans" font-size="16" letter-spacing="0em"><tspan x="185.938" y="256.816">Oracle Exadata</tspan></text>
<text id="IconLabel_2" fill="black" xml:space="preserve" style="white-space: pre" font-family="Oracle Sans" font-size="16" letter-spacing="0em"><tspan x="178.07" y="272.816">Database Service</tspan></text>
</g>
</g>
</g>
<g id="Group 1247">
<g id="Oracle Key Vault multi-node cluster">
<rect x="32.5" y="344.5" width="1047" height="183" fill="white"/>
<rect x="32.5" y="344.5" width="1047" height="183" stroke="#9E9892" stroke-dasharray="2 2"/>
<text id="Tier" fill="#312D2A" xml:space="preserve" style="white-space: pre" font-family="Oracle Sans" font-size="16" letter-spacing="0em"><tspan x="497.297" y="364.816">Oracle Key Vault </tspan></text>
<text id="Tier_2" fill="#312D2A" xml:space="preserve" style="white-space: pre" font-family="Oracle Sans" font-size="16" letter-spacing="0em"><tspan x="489.555" y="380.816">multi-node cluster</tspan></text>
</g>
<g id="Group 1244">
<g id="Azure Client subnet">
<rect x="256.5" y="352.5" width="191" height="167" fill="white"/>
<rect x="256.5" y="352.5" width="191" height="167" stroke="#706E6F" stroke-dasharray="8 4"/>
<text id="Azure subnet_4" fill="#706E6F" xml:space="preserve" style="white-space: pre" font-family="Oracle Sans" font-size="16" font-weight="600" letter-spacing="0em"><tspan x="264" y="373.816">App subnet</tspan></text>
<text id="00.0.00.0/00_4" fill="#312D2A" xml:space="preserve" style="white-space: pre" font-family="Oracle Sans" font-size="16" font-weight="300" letter-spacing="0em"><tspan x="264" y="391.816">10.1.2.0/24</tspan></text>
</g>
<g id="Key Vault">
<g id="Key-Vault">
<g id="Group_6">
<g id="Group_7">
<g id="Group_8">
<path id="Vector_25" d="M360.165 466.838C348.963 461.169 342.01 452.537 340.852 443.131L340.723 441.585V438.622H339.822V441.972H336.603V438.622H331.968C331.195 440.554 329.392 441.972 327.204 441.972C324.371 441.972 322.182 439.652 322.182 436.947C322.182 434.112 324.5 431.922 327.204 431.922C329.392 431.922 331.324 433.339 331.968 435.529H340.594V422.774L360.68 414.142L380.766 422.774V441.585C380.122 451.764 373.041 460.911 361.324 466.709L360.68 467.096L360.165 466.838Z" fill="white"/>
<path id="Vector_26" d="M360.809 414.915L380.251 423.29V441.586C379.736 451.377 372.783 460.396 361.195 466.194L360.809 466.452L360.423 466.194C349.478 460.654 342.654 452.279 341.496 443.003L341.367 441.586V437.978H339.951H339.178V441.328H337.247V437.978H331.453C330.938 439.911 329.264 441.328 327.204 441.328C324.757 441.328 322.826 439.395 322.826 436.947C322.826 434.499 324.757 432.567 327.204 432.567C329.393 432.567 331.195 434.113 331.453 436.174H339.822H341.238V423.29L360.809 414.915ZM360.809 413.498L360.294 413.756L340.852 422.13L340.079 422.517V423.419V435.015H339.951H332.483C331.581 432.953 329.521 431.407 327.204 431.407C324.114 431.407 321.539 433.984 321.539 437.076C321.539 440.168 324.114 442.745 327.204 442.745C329.521 442.745 331.453 441.457 332.354 439.395H335.959V441.457V442.745H337.247H339.178H340.079V443.26C341.238 453.052 348.448 461.814 359.65 467.483L360.036 467.74L360.68 467.998L361.453 467.612L361.839 467.354C373.813 461.298 381.024 452.022 381.539 441.714V423.29V422.388L380.766 422.002L361.324 413.756L360.809 413.498Z" fill="white"/>
</g>
<g id="Group_9">
<path id="Vector_27" d="M360.809 414.914L341.367 423.289V434.756H343.299V424.449L360.809 416.976L378.32 424.449V441.456C377.805 450.475 371.367 458.72 360.809 464.261C350.766 459.107 344.457 451.376 343.427 443.002H343.299H341.496C342.655 452.278 349.479 460.653 360.423 466.193L360.809 466.451L361.196 466.193C372.783 460.395 379.736 451.376 380.251 441.585V423.289L360.809 414.914Z" fill="#2D5967"/>
<path id="Vector_28" d="M369.951 425.093L368.664 423.676L364.672 427.67L363.127 426.253L361.84 427.541L364.672 430.376L369.951 425.093Z" fill="#2D5967"/>
<path id="Vector_29" d="M363.256 452.279H368.535L365.831 447.641L363.256 452.279Z" fill="#2D5967"/>
<path id="Vector_30" d="M354.629 447.77C353.342 448.028 352.569 449.316 352.955 450.605C353.342 451.893 354.5 452.666 355.788 452.28C357.075 451.893 357.848 450.733 357.462 449.445C357.204 448.285 355.917 447.512 354.629 447.77Z" fill="#2D5967"/>
<path id="Vector_31" d="M373.685 432.308H347.934V445.192H373.556L373.685 432.308ZM371.753 443.26H349.865V434.241H371.753V443.26Z" fill="#2D5967"/>
<path id="Vector_32" d="M366.603 440.426C367.598 440.426 368.405 439.618 368.405 438.622C368.405 437.626 367.598 436.818 366.603 436.818C365.607 436.818 364.8 437.626 364.8 438.622C364.8 439.618 365.607 440.426 366.603 440.426Z" fill="#2D5967"/>
<path id="Vector_33" d="M357.977 427.155H352.569V429.086H357.977V427.155Z" fill="#2D5967"/>
<path id="Vector_34" d="M341.367 437.977V441.456H343.298V441.327V435.916H339.951H331.582C331.195 433.854 329.393 432.308 327.204 432.308C324.758 432.308 322.826 434.241 322.826 436.689C322.826 439.137 324.758 441.069 327.204 441.069C329.264 441.069 330.938 439.652 331.453 437.719H337.247V441.069H339.178V437.977H339.951H341.367ZM327.204 439.394C325.788 439.394 324.758 438.235 324.758 436.946C324.758 435.658 325.916 434.498 327.204 434.498C328.491 434.498 329.65 435.658 329.65 436.946C329.65 438.364 328.62 439.394 327.204 439.394Z" fill="#2D5967"/>
</g>
</g>
</g>
</g>
<g id="Icon Text Label_2">
<text id="IconLabel_3" fill="black" xml:space="preserve" style="white-space: pre" font-family="Oracle Sans" font-size="16" letter-spacing="0em"><tspan x="313.25" y="485.816">Oracle Key </tspan></text>
<text id="IconLabel_4" fill="black" xml:space="preserve" style="white-space: pre" font-family="Oracle Sans" font-size="16" letter-spacing="0em"><tspan x="318.726" y="501.816">Vault VM</tspan></text>
</g>
</g>
</g>
<g id="Group 1245">
<g id="Azure Client subnet_2">
<rect x="664.5" y="352.5" width="191" height="167" fill="white"/>
<rect x="664.5" y="352.5" width="191" height="167" stroke="#706E6F" stroke-dasharray="8 4"/>
<text id="Azure subnet_5" fill="#706E6F" xml:space="preserve" style="white-space: pre" font-family="Oracle Sans" font-size="16" font-weight="600" letter-spacing="0em"><tspan x="672" y="373.816">App subnet</tspan></text>
<text id="00.0.00.0/00_5" fill="#312D2A" xml:space="preserve" style="white-space: pre" font-family="Oracle Sans" font-size="16" font-weight="300" letter-spacing="0em"><tspan x="672" y="391.816">10.2.1.0/24</tspan></text>
</g>
<g id="Key Vault_2">
<g id="Key-Vault_2">
<g id="Group_10">
<g id="Group_11">
<g id="Group_12">
<path id="Vector_35" d="M768.165 466.838C756.963 461.169 750.01 452.537 748.852 443.131L748.723 441.585V438.622H747.822V441.972H744.603V438.622H739.968C739.195 440.554 737.392 441.972 735.204 441.972C732.371 441.972 730.182 439.652 730.182 436.947C730.182 434.112 732.5 431.922 735.204 431.922C737.392 431.922 739.324 433.339 739.968 435.529H748.594V422.774L768.68 414.142L788.766 422.774V441.585C788.122 451.764 781.041 460.911 769.324 466.709L768.68 467.096L768.165 466.838Z" fill="white"/>
<path id="Vector_36" d="M768.809 414.915L788.251 423.29V441.586C787.736 451.377 780.783 460.396 769.195 466.194L768.809 466.452L768.423 466.194C757.478 460.654 750.654 452.279 749.496 443.003L749.367 441.586V437.978H747.951H747.178V441.328H745.247V437.978H739.453C738.938 439.911 737.264 441.328 735.204 441.328C732.757 441.328 730.826 439.395 730.826 436.947C730.826 434.499 732.757 432.567 735.204 432.567C737.393 432.567 739.195 434.113 739.453 436.174H747.822H749.238V423.29L768.809 414.915ZM768.809 413.498L768.294 413.756L748.852 422.13L748.079 422.517V423.419V435.015H747.951H740.483C739.581 432.953 737.521 431.407 735.204 431.407C732.114 431.407 729.539 433.984 729.539 437.076C729.539 440.168 732.114 442.745 735.204 442.745C737.521 442.745 739.453 441.457 740.354 439.395H743.959V441.457V442.745H745.247H747.178H748.079V443.26C749.238 453.052 756.448 461.814 767.65 467.483L768.036 467.74L768.68 467.998L769.453 467.612L769.839 467.354C781.813 461.298 789.024 452.022 789.539 441.714V423.29V422.388L788.766 422.002L769.324 413.756L768.809 413.498Z" fill="white"/>
</g>
<g id="Group_13">
<path id="Vector_37" d="M768.809 414.914L749.367 423.289V434.756H751.299V424.449L768.809 416.976L786.32 424.449V441.456C785.805 450.475 779.367 458.72 768.809 464.261C758.766 459.107 752.457 451.376 751.427 443.002H751.299H749.496C750.655 452.278 757.479 460.653 768.423 466.193L768.809 466.451L769.196 466.193C780.783 460.395 787.736 451.376 788.251 441.585V423.289L768.809 414.914Z" fill="#2D5967"/>
<path id="Vector_38" d="M777.951 425.093L776.664 423.676L772.672 427.67L771.127 426.253L769.84 427.541L772.672 430.376L777.951 425.093Z" fill="#2D5967"/>
<path id="Vector_39" d="M771.256 452.279H776.535L773.831 447.641L771.256 452.279Z" fill="#2D5967"/>
<path id="Vector_40" d="M762.629 447.77C761.342 448.028 760.569 449.316 760.955 450.605C761.342 451.893 762.5 452.666 763.788 452.28C765.075 451.893 765.848 450.733 765.462 449.445C765.204 448.285 763.917 447.512 762.629 447.77Z" fill="#2D5967"/>
<path id="Vector_41" d="M781.685 432.308H755.934V445.192H781.556L781.685 432.308ZM779.753 443.26H757.865V434.241H779.753V443.26Z" fill="#2D5967"/>
<path id="Vector_42" d="M774.603 440.426C775.598 440.426 776.405 439.618 776.405 438.622C776.405 437.626 775.598 436.818 774.603 436.818C773.607 436.818 772.8 437.626 772.8 438.622C772.8 439.618 773.607 440.426 774.603 440.426Z" fill="#2D5967"/>
<path id="Vector_43" d="M765.977 427.155H760.569V429.086H765.977V427.155Z" fill="#2D5967"/>
<path id="Vector_44" d="M749.367 437.977V441.456H751.298V441.327V435.916H747.951H739.582C739.195 433.854 737.393 432.308 735.204 432.308C732.758 432.308 730.826 434.241 730.826 436.689C730.826 439.137 732.758 441.069 735.204 441.069C737.264 441.069 738.938 439.652 739.453 437.719H745.247V441.069H747.178V437.977H747.951H749.367ZM735.204 439.394C733.788 439.394 732.758 438.235 732.758 436.946C732.758 435.658 733.916 434.498 735.204 434.498C736.491 434.498 737.65 435.658 737.65 436.946C737.65 438.364 736.62 439.394 735.204 439.394Z" fill="#2D5967"/>
</g>
</g>
</g>
</g>
<g id="Icon Text Label_3">
<text id="IconLabel_5" fill="black" xml:space="preserve" style="white-space: pre" font-family="Oracle Sans" font-size="16" letter-spacing="0em"><tspan x="721.25" y="485.816">Oracle Key </tspan></text>
<text id="IconLabel_6" fill="black" xml:space="preserve" style="white-space: pre" font-family="Oracle Sans" font-size="16" letter-spacing="0em"><tspan x="726.726" y="501.816">Vault VM</tspan></text>
</g>
</g>
</g>
<g id="Group 1246">
<g id="Azure Client subnet_3">
<rect x="880.5" y="352.5" width="191" height="167" fill="white"/>
<rect x="880.5" y="352.5" width="191" height="167" stroke="#706E6F" stroke-dasharray="8 4"/>
<text id="Azure subnet_6" fill="#706E6F" xml:space="preserve" style="white-space: pre" font-family="Oracle Sans" font-size="16" font-weight="600" letter-spacing="0em"><tspan x="888" y="373.816">App subnet</tspan></text>
<text id="00.0.00.0/00_6" fill="#312D2A" xml:space="preserve" style="white-space: pre" font-family="Oracle Sans" font-size="16" font-weight="300" letter-spacing="0em"><tspan x="888" y="391.816">10.2.2.0/24</tspan></text>
</g>
<g id="Key Vault_3">
<g id="Key-Vault_3">
<g id="Group_14">
<g id="Group_15">
<g id="Group_16">
<path id="Vector_45" d="M984.165 466.838C972.963 461.169 966.01 452.537 964.852 443.131L964.723 441.585V438.622H963.822V441.972H960.603V438.622H955.968C955.195 440.554 953.392 441.972 951.204 441.972C948.371 441.972 946.182 439.652 946.182 436.947C946.182 434.112 948.5 431.922 951.204 431.922C953.392 431.922 955.324 433.339 955.968 435.529H964.594V422.774L984.68 414.142L1004.77 422.774V441.585C1004.12 451.764 997.041 460.911 985.324 466.709L984.68 467.096L984.165 466.838Z" fill="white"/>
<path id="Vector_46" d="M984.809 414.915L1004.25 423.29V441.586C1003.74 451.377 996.783 460.396 985.195 466.194L984.809 466.452L984.423 466.194C973.478 460.654 966.654 452.279 965.496 443.003L965.367 441.586V437.978H963.951H963.178V441.328H961.247V437.978H955.453C954.938 439.911 953.264 441.328 951.204 441.328C948.757 441.328 946.826 439.395 946.826 436.947C946.826 434.499 948.757 432.567 951.204 432.567C953.393 432.567 955.195 434.113 955.453 436.174H963.822H965.238V423.29L984.809 414.915ZM984.809 413.498L984.294 413.756L964.852 422.13L964.079 422.517V423.419V435.015H963.951H956.483C955.581 432.953 953.521 431.407 951.204 431.407C948.114 431.407 945.539 433.984 945.539 437.076C945.539 440.168 948.114 442.745 951.204 442.745C953.521 442.745 955.453 441.457 956.354 439.395H959.959V441.457V442.745H961.247H963.178H964.079V443.26C965.238 453.052 972.448 461.814 983.65 467.483L984.036 467.74L984.68 467.998L985.453 467.612L985.839 467.354C997.813 461.298 1005.02 452.022 1005.54 441.714V423.29V422.388L1004.77 422.002L985.324 413.756L984.809 413.498Z" fill="white"/>
</g>
<g id="Group_17">
<path id="Vector_47" d="M984.809 414.914L965.367 423.289V434.756H967.299V424.449L984.809 416.976L1002.32 424.449V441.456C1001.8 450.475 995.367 458.72 984.809 464.261C974.766 459.107 968.457 451.376 967.427 443.002H967.299H965.496C966.655 452.278 973.479 460.653 984.423 466.193L984.809 466.451L985.196 466.193C996.783 460.395 1003.74 451.376 1004.25 441.585V423.289L984.809 414.914Z" fill="#2D5967"/>
<path id="Vector_48" d="M993.951 425.093L992.664 423.676L988.672 427.67L987.127 426.253L985.84 427.541L988.672 430.376L993.951 425.093Z" fill="#2D5967"/>
<path id="Vector_49" d="M987.256 452.279H992.535L989.831 447.641L987.256 452.279Z" fill="#2D5967"/>
<path id="Vector_50" d="M978.629 447.77C977.342 448.028 976.569 449.316 976.955 450.605C977.342 451.893 978.5 452.666 979.788 452.28C981.075 451.893 981.848 450.733 981.462 449.445C981.204 448.285 979.917 447.512 978.629 447.77Z" fill="#2D5967"/>
<path id="Vector_51" d="M997.685 432.308H971.934V445.192H997.556L997.685 432.308ZM995.753 443.26H973.865V434.241H995.753V443.26Z" fill="#2D5967"/>
<path id="Vector_52" d="M990.603 440.426C991.598 440.426 992.405 439.618 992.405 438.622C992.405 437.626 991.598 436.818 990.603 436.818C989.607 436.818 988.8 437.626 988.8 438.622C988.8 439.618 989.607 440.426 990.603 440.426Z" fill="#2D5967"/>
<path id="Vector_53" d="M981.977 427.155H976.569V429.086H981.977V427.155Z" fill="#2D5967"/>
<path id="Vector_54" d="M965.367 437.977V441.456H967.298V441.327V435.916H963.951H955.582C955.195 433.854 953.393 432.308 951.204 432.308C948.758 432.308 946.826 434.241 946.826 436.689C946.826 439.137 948.758 441.069 951.204 441.069C953.264 441.069 954.938 439.652 955.453 437.719H961.247V441.069H963.178V437.977H963.951H965.367ZM951.204 439.394C949.788 439.394 948.758 438.235 948.758 436.946C948.758 435.658 949.916 434.498 951.204 434.498C952.491 434.498 953.65 435.658 953.65 436.946C953.65 438.364 952.62 439.394 951.204 439.394Z" fill="#2D5967"/>
</g>
</g>
</g>
</g>
<g id="Icon Text Label_4">
<text id="IconLabel_7" fill="black" xml:space="preserve" style="white-space: pre" font-family="Oracle Sans" font-size="16" letter-spacing="0em"><tspan x="937.25" y="485.816">Oracle Key </tspan></text>
<text id="IconLabel_8" fill="black" xml:space="preserve" style="white-space: pre" font-family="Oracle Sans" font-size="16" letter-spacing="0em"><tspan x="942.726" y="501.816">Vault VM</tspan></text>
</g>
</g>
</g>
<g id="Group 1243">
<g id="Azure Client subnet_4">
<rect x="40.5" y="352.5" width="191" height="167" fill="white"/>
<rect x="40.5" y="352.5" width="191" height="167" stroke="#706E6F" stroke-dasharray="8 4"/>
<text id="Azure subnet_7" fill="#706E6F" xml:space="preserve" style="white-space: pre" font-family="Oracle Sans" font-size="16" font-weight="600" letter-spacing="0em"><tspan x="48" y="373.816">App subnet</tspan></text>
<text id="00.0.00.0/00_7" fill="#312D2A" xml:space="preserve" style="white-space: pre" font-family="Oracle Sans" font-size="16" font-weight="300" letter-spacing="0em"><tspan x="48" y="391.816">10.1.1.0/24</tspan></text>
</g>
<g id="Key Vault_4">
<g id="Key-Vault_4">
<g id="Group_18">
<g id="Group_19">
<g id="Group_20">
<path id="Vector_55" d="M144.165 466.838C132.963 461.169 126.01 452.537 124.852 443.131L124.723 441.585V438.622H123.822V441.972H120.603V438.622H115.968C115.195 440.554 113.392 441.972 111.204 441.972C108.371 441.972 106.182 439.652 106.182 436.947C106.182 434.112 108.5 431.922 111.204 431.922C113.392 431.922 115.324 433.339 115.968 435.529H124.594V422.774L144.68 414.142L164.766 422.774V441.585C164.122 451.764 157.041 460.911 145.324 466.709L144.68 467.096L144.165 466.838Z" fill="white"/>
<path id="Vector_56" d="M144.809 414.915L164.251 423.29V441.586C163.736 451.377 156.783 460.396 145.195 466.194L144.809 466.452L144.423 466.194C133.478 460.654 126.654 452.279 125.496 443.003L125.367 441.586V437.978H123.951H123.178V441.328H121.247V437.978H115.453C114.938 439.911 113.264 441.328 111.204 441.328C108.757 441.328 106.826 439.395 106.826 436.947C106.826 434.499 108.757 432.567 111.204 432.567C113.393 432.567 115.195 434.113 115.453 436.174H123.822H125.238V423.29L144.809 414.915ZM144.809 413.498L144.294 413.756L124.852 422.13L124.079 422.517V423.419V435.015H123.951H116.483C115.581 432.953 113.521 431.407 111.204 431.407C108.114 431.407 105.539 433.984 105.539 437.076C105.539 440.168 108.114 442.745 111.204 442.745C113.521 442.745 115.453 441.457 116.354 439.395H119.959V441.457V442.745H121.247H123.178H124.079V443.26C125.238 453.052 132.448 461.814 143.65 467.483L144.036 467.74L144.68 467.998L145.453 467.612L145.839 467.354C157.813 461.298 165.024 452.022 165.539 441.714V423.29V422.388L164.766 422.002L145.324 413.756L144.809 413.498Z" fill="white"/>
</g>
<g id="Group_21">
<path id="Vector_57" d="M144.809 414.914L125.367 423.289V434.756H127.299V424.449L144.809 416.976L162.32 424.449V441.456C161.805 450.475 155.367 458.72 144.809 464.261C134.766 459.107 128.457 451.376 127.427 443.002H127.299H125.496C126.655 452.278 133.479 460.653 144.423 466.193L144.809 466.451L145.196 466.193C156.783 460.395 163.736 451.376 164.251 441.585V423.289L144.809 414.914Z" fill="#2D5967"/>
<path id="Vector_58" d="M153.951 425.093L152.664 423.676L148.672 427.67L147.127 426.253L145.84 427.541L148.672 430.376L153.951 425.093Z" fill="#2D5967"/>
<path id="Vector_59" d="M147.256 452.279H152.535L149.831 447.641L147.256 452.279Z" fill="#2D5967"/>
<path id="Vector_60" d="M138.629 447.77C137.342 448.028 136.569 449.316 136.955 450.605C137.342 451.893 138.5 452.666 139.788 452.28C141.075 451.893 141.848 450.733 141.462 449.445C141.204 448.285 139.917 447.512 138.629 447.77Z" fill="#2D5967"/>
<path id="Vector_61" d="M157.685 432.308H131.934V445.192H157.556L157.685 432.308ZM155.753 443.26H133.865V434.241H155.753V443.26Z" fill="#2D5967"/>
<path id="Vector_62" d="M150.603 440.426C151.598 440.426 152.405 439.618 152.405 438.622C152.405 437.626 151.598 436.818 150.603 436.818C149.607 436.818 148.8 437.626 148.8 438.622C148.8 439.618 149.607 440.426 150.603 440.426Z" fill="#2D5967"/>
<path id="Vector_63" d="M141.977 427.155H136.569V429.086H141.977V427.155Z" fill="#2D5967"/>
<path id="Vector_64" d="M125.367 437.977V441.456H127.298V441.327V435.916H123.951H115.582C115.195 433.854 113.393 432.308 111.204 432.308C108.758 432.308 106.826 434.241 106.826 436.689C106.826 439.137 108.758 441.069 111.204 441.069C113.264 441.069 114.938 439.652 115.453 437.719H121.247V441.069H123.178V437.977H123.951H125.367ZM111.204 439.394C109.788 439.394 108.758 438.235 108.758 436.946C108.758 435.658 109.916 434.498 111.204 434.498C112.491 434.498 113.65 435.658 113.65 436.946C113.65 438.364 112.62 439.394 111.204 439.394Z" fill="#2D5967"/>
</g>
</g>
</g>
</g>
<g id="Icon Text Label_5">
<text id="IconLabel_9" fill="black" xml:space="preserve" style="white-space: pre" font-family="Oracle Sans" font-size="16" letter-spacing="0em"><tspan x="97.2495" y="485.816">Oracle Key </tspan></text>
<text id="IconLabel_10" fill="black" xml:space="preserve" style="white-space: pre" font-family="Oracle Sans" font-size="16" letter-spacing="0em"><tspan x="102.726" y="501.816">Vault VM</tspan></text>
</g>
</g>
</g>
</g>
<g id="Connectors">
<path id="Vector 61" d="M144.293 411.707C144.683 412.098 145.317 412.098 145.707 411.707L152.071 405.343C152.462 404.953 152.462 404.319 152.071 403.929C151.681 403.538 151.047 403.538 150.657 403.929L145 409.586L139.343 403.929C138.953 403.538 138.319 403.538 137.929 403.929C137.538 404.319 137.538 404.953 137.929 405.343L144.293 411.707ZM145 320V319H144V320H145ZM984.5 320H985.5V319H984.5V320ZM983.793 411.707C984.183 412.098 984.817 412.098 985.207 411.707L991.571 405.343C991.962 404.953 991.962 404.319 991.571 403.929C991.181 403.538 990.547 403.538 990.157 403.929L984.5 409.586L978.843 403.929C978.453 403.538 977.819 403.538 977.429 403.929C977.038 404.319 977.038 404.953 977.429 405.343L983.793 411.707ZM146 411V320H144V411H146ZM145 321H984.5V319H145V321ZM983.5 320V411H985.5V320H983.5Z" fill="#312D2A"/>
<path id="Vector 62" d="M360.293 411.707C360.683 412.098 361.317 412.098 361.707 411.707L368.071 405.343C368.462 404.953 368.462 404.319 368.071 403.929C367.681 403.538 367.047 403.538 366.657 403.929L361 409.586L355.343 403.929C354.953 403.538 354.319 403.538 353.929 403.929C353.538 404.319 353.538 404.953 353.929 405.343L360.293 411.707ZM362 411V320H360V411H362Z" fill="#312D2A"/>
<path id="Vector 65" d="M768.293 411.707C768.683 412.098 769.317 412.098 769.707 411.707L776.071 405.343C776.462 404.953 776.462 404.319 776.071 403.929C775.681 403.538 775.047 403.538 774.657 403.929L769 409.586L763.343 403.929C762.953 403.538 762.319 403.538 761.929 403.929C761.538 404.319 761.538 404.953 761.929 405.343L768.293 411.707ZM770 411V320H768V411H770Z" fill="#312D2A"/>
<path id="Vector 64" d="M255.293 215.293C254.902 215.683 254.902 216.317 255.293 216.707L261.657 223.071C262.047 223.462 262.681 223.462 263.071 223.071C263.462 222.681 263.462 222.047 263.071 221.657L257.414 216L263.071 210.343C263.462 209.953 263.462 209.319 263.071 208.929C262.681 208.538 262.047 208.538 261.657 208.929L255.293 215.293ZM556 216H557V215H556V216ZM555.293 318.707C555.683 319.098 556.317 319.098 556.707 318.707L563.071 312.343C563.462 311.953 563.462 311.319 563.071 310.929C562.681 310.538 562.047 310.538 561.657 310.929L556 316.586L550.343 310.929C549.953 310.538 549.319 310.538 548.929 310.929C548.538 311.319 548.538 311.953 548.929 312.343L555.293 318.707ZM256 217H556V215H256V217ZM555 216V318H557V216H555Z" fill="#312D2A"/>
</g>
</g>
<defs>
<linearGradient id="paint0_linear_15286_583" x1="440.488" y1="63.1293" x2="444.128" y2="66.7592" gradientUnits="userSpaceOnUse">
<stop stop-color="#86D633"/>
<stop offset="1" stop-color="#5E9624"/>
</linearGradient>
<linearGradient id="paint1_linear_15286_583" x1="430.479" y1="61.3419" x2="434.093" y2="64.9778" gradientUnits="userSpaceOnUse">
<stop stop-color="#86D633"/>
<stop offset="1" stop-color="#5E9624"/>
</linearGradient>
<linearGradient id="paint2_linear_15286_583" x1="422.282" y1="61.3347" x2="425.896" y2="64.9709" gradientUnits="userSpaceOnUse">
<stop stop-color="#86D633"/>
<stop offset="1" stop-color="#5E9624"/>
</linearGradient>
<linearGradient id="paint3_linear_15286_583" x1="1072.49" y1="61.1293" x2="1076.13" y2="64.7592" gradientUnits="userSpaceOnUse">
<stop stop-color="#86D633"/>
<stop offset="1" stop-color="#5E9624"/>
</linearGradient>
<linearGradient id="paint4_linear_15286_583" x1="1062.48" y1="59.3419" x2="1066.09" y2="62.9778" gradientUnits="userSpaceOnUse">
<stop stop-color="#86D633"/>
<stop offset="1" stop-color="#5E9624"/>
</linearGradient>
<linearGradient id="paint5_linear_15286_583" x1="1054.28" y1="59.3347" x2="1057.9" y2="62.9709" gradientUnits="userSpaceOnUse">
<stop stop-color="#86D633"/>
<stop offset="1" stop-color="#5E9624"/>
</linearGradient>
<linearGradient id="paint6_linear_15286_583" x1="398.683" y1="158.149" x2="425.813" y2="158.149" gradientUnits="userSpaceOnUse">
<stop stop-color="#C74634"/>
<stop offset="0.5" stop-color="#DB897D"/>
<stop offset="1" stop-color="#C74634"/>
</linearGradient>
<linearGradient id="paint7_linear_15286_583" x1="398.393" y1="150.892" x2="398.393" y2="133" gradientUnits="userSpaceOnUse">
<stop stop-color="#32BEDD"/>
<stop offset="1" stop-color="#50E6FF"/>
</linearGradient>
<clipPath id="clip0_15286_583">
<rect width="1112" height="560" fill="white"/>
</clipPath>
</defs>
</svg>
