<?xml version="1.0" encoding="UTF-8" standalone="no"?>
<svg
   width="888"
   height="566"
   viewBox="0 0 888 566"
   fill="none"
   version="1.1"
   id="svg33"
   sodipodi:docname="google-detailed-arch.svg"
   inkscape:version="1.4.2 (f4327f4, 2025-05-13)"
   xmlns:inkscape="http://www.inkscape.org/namespaces/inkscape"
   xmlns:sodipodi="http://sodipodi.sourceforge.net/DTD/sodipodi-0.dtd"
   xmlns="http://www.w3.org/2000/svg"
   xmlns:svg="http://www.w3.org/2000/svg">
  <defs
     id="defs33" />
  <sodipodi:namedview
     id="namedview33"
     pagecolor="#ffffff"
     bordercolor="#000000"
     borderopacity="0.25"
     inkscape:showpageshadow="2"
     inkscape:pageopacity="0.0"
     inkscape:pagecheckerboard="0"
     inkscape:deskcolor="#d1d1d1"
     inkscape:zoom="3.2067138"
     inkscape:cx="443.9124"
     inkscape:cy="283"
     inkscape:window-width="3840"
     inkscape:window-height="2054"
     inkscape:window-x="2509"
     inkscape:window-y="-11"
     inkscape:window-maximized="1"
     inkscape:current-layer="svg33" />
  <rect
     width="888"
     height="566"
     fill="#ffffff"
     id="rect1"
     x="0"
     y="0" />
  <g
     id="OCI regions">
    <rect
       x="677.5"
       y="0.5"
       width="210"
       height="554"
       rx="3.5"
       fill="#f5f4f2"
       id="rect2" />
    <rect
       x="677.5"
       y="0.5"
       width="210"
       height="554"
       rx="3.5"
       stroke="#9e9892"
       id="rect3" />
    <text
       id="OCI Region"
       fill="#312d2a"
       style="white-space:pre"
       xml:space="preserve"
       font-family="'Oracle Sans'"
       font-size="16px"
       font-weight="bold"
       letter-spacing="0em"><tspan
         x="685"
         y="21.816"
         id="tspan3">OCI Region</tspan></text>
  </g>
  <g
     id="Google cloud boxes">
    <rect
       width="664"
       height="560"
       rx="4"
       fill="#f6f6f6"
       id="rect4"
       x="0"
       y="0" />
    <text
       id="Google Cloud Platform"
       fill="#312d2a"
       style="white-space:pre"
       xml:space="preserve"
       font-family="'Oracle Sans'"
       font-size="16px"
       font-weight="bold"
       letter-spacing="0em"><tspan
         x="8"
         y="21.816"
         id="tspan4">Google Cloud</tspan></text>
  </g>
  <g
     id="Google project A">
    <rect
       x="8.5"
       y="32.5"
       width="647"
       height="515"
       fill="#f6f6f6"
       id="rect5" />
    <rect
       x="8.5"
       y="32.5"
       width="647"
       height="515"
       stroke="#616161"
       stroke-miterlimit="3.99933"
       stroke-dasharray="8, 8"
       id="rect6" />
    <text
       id="Project"
       fill="#312d2a"
       style="white-space:pre"
       xml:space="preserve"
       font-family="'Oracle Sans'"
       font-size="16px"
       font-weight="bold"
       letter-spacing="0em"><tspan
         x="16"
         y="53.816002"
         id="tspan6">Project A</tspan></text>
  </g>
  <g
     id="Google VPC">
    <rect
       x="17"
       y="73"
       width="630"
       height="457"
       fill="#e3f2fd"
       id="rect7" />
    <rect
       x="17"
       y="73"
       width="630"
       height="457"
       stroke="#706e6f"
       stroke-width="2"
       stroke-dasharray="4, 4"
       id="rect8" />
    <g
       id="icon">
      <rect
         id="blue BG"
         x="598"
         y="72"
         width="37.950199"
         height="4"
         fill="#e3f2fd" />
      <g
         id="VPC">
        <g
           id="google-virtual-private-cloud-vpc">
          <g
             id="A">
            <g
               id="Group">
              <path
                 id="Vector"
                 d="m 626,53 h 12 v 12 h -12 z"
                 fill="#aecbfa" />
              <path
                 id="Vector_2"
                 d="m 632,53 h 6 v 12 h -6 z"
                 fill="#669df6" />
              <path
                 id="Vector_3"
                 d="m 626,81 h 12 v 12 h -12 z"
                 fill="#aecbfa" />
              <path
                 id="Vector_4"
                 d="m 632,81 h 6 v 12 h -6 z"
                 fill="#669df6" />
              <path
                 id="Vector_5"
                 d="m 598,53 h 12 v 12 h -12 z"
                 fill="#aecbfa" />
              <path
                 id="Vector_6"
                 d="m 604,53 h 6 v 12 h -6 z"
                 fill="#669df6" />
              <path
                 id="Vector_7"
                 d="m 598,81 h 12 v 12 h -12 z"
                 fill="#aecbfa" />
              <g
                 id="Group_2">
                <path
                   id="Vector_8"
                   d="m 603.999,81 h 6 v 12 h -6 z m 6,-24 h 16 v 4 h -16 z"
                   fill="#669df6" />
                <path
                   id="Vector_9"
                   d="m 610,85 h 16 v 4 h -16 z m 20,-20 h 4 v 16 h -4 z m -28,0 h 4 v 16 h -4 z"
                   fill="#669df6" />
              </g>
              <path
                 id="Vector_10"
                 d="m 602,65 h 4 v 4 h -4 z m 28,0 h 4 v 4 h -4 z m -20,-8 h 4 v 4 h -4 z m 0,28 h 4 v 4 h -4 z"
                 fill="#4285f4" />
            </g>
          </g>
        </g>
      </g>
    </g>
    <text
       id="VPC_2"
       fill="#312d2a"
       style="white-space:pre"
       xml:space="preserve"
       font-family="'Oracle Sans'"
       font-size="16px"
       font-weight="600"
       letter-spacing="0em"><tspan
         x="25"
         y="94.816002"
         id="tspan8">VPC default</tspan></text>
  </g>
  <g
     id="Google region">
    <rect
       x="24.5"
       y="104.5"
       width="615"
       height="415"
       fill="#eceff1"
       id="rect9" />
    <rect
       x="24.5"
       y="104.5"
       width="615"
       height="415"
       stroke="#616161"
       stroke-miterlimit="3.99933"
       stroke-dasharray="2, 2"
       id="rect10" />
    <text
       id="Project_2"
       fill="#312d2a"
       style="white-space:pre"
       xml:space="preserve"
       font-family="'Oracle Sans'"
       font-size="16px"
       font-weight="bold"
       letter-spacing="0em"><tspan
         x="32"
         y="125.816"
         id="tspan10">Google Cloud Region</tspan></text>
  </g>
  <g
     id="Google azone">
    <rect
       x="32"
       y="144"
       width="184"
       height="370"
       rx="4"
       fill="#fff3e0"
       id="rect11" />
    <text
       id="zone"
       fill="#312d2a"
       style="white-space:pre"
       xml:space="preserve"
       font-family="'Oracle Sans'"
       font-size="16px"
       font-weight="600"
       letter-spacing="0em"><tspan
         x="40"
         y="165.81599"
         id="tspan11">Zone</tspan></text>
  </g>
  <g
     id="Google azone_2">
    <rect
       x="40.5"
       y="200.5"
       width="159"
       height="305"
       fill="#ffffff"
       id="rect12" />
    <rect
       x="40.5"
       y="200.5"
       width="159"
       height="305"
       stroke="#7a7464"
       stroke-dasharray="2, 2"
       id="rect13" />
    <text
       id="Subnet"
       fill="#706e6f"
       style="white-space:pre"
       xml:space="preserve"
       font-family="'Oracle Sans'"
       font-size="16px"
       font-weight="600"
       letter-spacing="0em"><tspan
         x="48"
         y="221.81599"
         id="tspan13">Application</tspan></text>
    <text
       id="Subnet_2"
       fill="#706e6f"
       style="white-space:pre"
       xml:space="preserve"
       font-family="'Oracle Sans'"
       font-size="16px"
       font-weight="600"
       letter-spacing="0em"><tspan
         x="48"
         y="237.81599"
         id="tspan14">subnet</tspan></text>
  </g>
  <g
     id="Google cloud boxes_2">
    <rect
       x="233"
       y="145"
       width="398"
       height="360"
       fill="#ffffff"
       id="rect14" />
    <rect
       x="233"
       y="145"
       width="398"
       height="360"
       stroke="#c8d0dd"
       stroke-width="2"
       stroke-dasharray="8, 4"
       id="rect15" />
    <text
       id="Oracle Database@Google Cloud"
       fill="#312d2a"
       style="white-space:pre"
       xml:space="preserve"
       font-family="'Oracle Sans'"
       font-size="16px"
       font-weight="600"
       letter-spacing="0em"><tspan
         x="241"
         y="166.81599"
         id="tspan15">Oracle AI Database@Google Cloud</tspan></text>
    <g
       id="icon_2">
      <rect
         id="White BG"
         x="586.87201"
         y="144"
         width="37.798302"
         height="3"
         fill="#ffffff" />
      <g
         id="Srv-Oracle Database@Google Cloud">
        <g
           id="Group 1512">
          <path
             id="art"
             d="m 620.2,132.616 c 0,-2.76 -1.589,-5.308 -4.478,-7.179 -2.701,-1.752 -6.274,-2.718 -10.051,-2.718 -3.778,0 -7.342,0.966 -10.052,2.718 -2.889,1.871 -4.478,4.419 -4.478,7.179 v 20.205 c 0,2.761 1.589,5.308 4.478,7.18 2.701,1.752 6.274,2.718 10.052,2.718 3.777,0 7.35,-0.966 10.051,-2.718 2.889,-1.872 4.478,-4.419 4.478,-7.18 v -20.196 z m -23.094,-4.88 c 2.265,-1.47 5.308,-2.282 8.565,-2.282 3.256,0 6.299,0.812 8.564,2.282 2.085,1.35 3.23,3.085 3.23,4.88 0,1.795 -1.145,3.53 -3.23,4.881 -2.265,1.47 -5.308,2.282 -8.564,2.282 -3.257,0 -6.3,-0.812 -8.565,-2.282 -2.085,-1.351 -3.23,-3.086 -3.23,-4.881 0,-1.795 1.145,-3.53 3.23,-4.88 z m 0,29.966 c -2.085,-1.351 -3.23,-3.086 -3.23,-4.881 v -3.495 c 0.512,0.478 1.094,0.94 1.743,1.359 2.701,1.752 6.274,2.718 10.052,2.718 3.777,0 7.35,-0.966 10.051,-2.718 0.649,-0.419 1.231,-0.872 1.743,-1.359 v 3.487 c 0,1.803 -1.145,3.538 -3.23,4.889 -2.265,1.47 -5.308,2.282 -8.564,2.282 -3.257,0 -6.3,-0.812 -8.565,-2.282 z m 20.359,-14.205 c 0,1.803 -1.145,3.538 -3.23,4.888 -2.265,1.471 -5.308,2.282 -8.564,2.282 -3.257,0 -6.3,-0.811 -8.565,-2.282 -2.085,-1.35 -3.23,-3.085 -3.23,-4.88 v -5.068 c 0.512,0.478 1.094,0.94 1.743,1.359 2.701,1.752 6.274,2.718 10.052,2.718 3.777,0 7.35,-0.966 10.051,-2.718 0.649,-0.419 1.231,-0.872 1.743,-1.359 z"
             fill="#c74634" />
        </g>
      </g>
    </g>
  </g>
  <text
     id="Oracle Database@Google"
     fill="#312d2a"
     style="white-space:pre"
     xml:space="preserve"
     font-family="'Oracle Sans'"
     font-size="16px"
     font-weight="600"
     letter-spacing="0em"><tspan
       x="241"
       y="187.81599"
       id="tspan16">OCI child site</tspan></text>
  <g
     id="ODB network">
    <rect
       x="208.5"
       y="40.5"
       width="575"
       height="498"
       stroke="#aa643b"
       stroke-dasharray="6, 4"
       id="rect16" />
    <text
       id="Compartment"
       fill="#ae562c"
       style="white-space:pre"
       xml:space="preserve"
       font-family="'Oracle Sans'"
       font-size="16px"
       font-weight="bold"
       letter-spacing="0em"><tspan
         x="216"
         y="61.816002"
         id="tspan17">ODB network</tspan></text>
  </g>
  <g
     id="Control Plane">
    <g
       id="Services-Cloud">
      <g
         id="Group 511">
        <path
           id="Vector_11"
           d="m 806.97,160.259 0.156,-2.108 c 0.193,-2.392 0.994,-4.694 2.329,-6.689 1.335,-1.994 3.158,-3.614 5.296,-4.705 0.454,-0.25 0.844,-0.601 1.141,-1.026 0.296,-0.424 0.491,-0.912 0.569,-1.424 0.483,-2.462 1.808,-4.679 3.748,-6.272 1.939,-1.593 4.373,-2.462 6.884,-2.458 0.332,-0.022 0.665,-0.022 0.997,0 h 0.342 c 0.449,0.005 0.893,-0.084 1.306,-0.26 0.412,-0.177 0.783,-0.438 1.088,-0.766 1.464,-1.57 3.287,-2.763 5.313,-3.474 2.026,-0.711 4.195,-0.92 6.32,-0.609 2.125,0.311 4.142,1.132 5.879,2.394 1.737,1.262 3.142,2.927 4.093,4.851 0.224,0.484 0.556,0.909 0.972,1.242 0.415,0.334 0.902,0.567 1.423,0.681 2.044,0.461 3.955,1.387 5.583,2.708 1.627,1.32 2.928,2.998 3.799,4.903 0.872,1.905 1.292,3.986 1.227,6.08 -0.066,2.094 -0.614,4.145 -1.603,5.992 l -0.541,1.011 z"
           fill="#ffffff" />
        <path
           id="Vector_12"
           d="m 840.56,131.089 c 2.337,-0.009 4.63,0.637 6.618,1.866 1.988,1.228 3.591,2.99 4.626,5.085 0.279,0.559 0.68,1.049 1.173,1.433 0.493,0.385 1.066,0.654 1.677,0.788 1.444,0.326 2.823,0.894 4.076,1.681 2.764,1.729 4.765,4.446 5.596,7.597 0.831,3.15 0.43,6.5 -1.121,9.366 l -0.342,0.641 h -55.124 l 0.1,-1.311 c 0.157,-2.277 0.895,-4.475 2.142,-6.387 1.247,-1.912 2.962,-3.474 4.983,-4.537 0.551,-0.283 1.032,-0.685 1.407,-1.178 0.375,-0.493 0.634,-1.064 0.759,-1.67 0.313,-1.599 1.007,-3.098 2.024,-4.37 1.018,-1.272 2.328,-2.28 3.819,-2.936 1.287,-0.56 2.674,-0.851 4.076,-0.855 h 0.941 0.399 c 0.535,-0.007 1.063,-0.122 1.553,-0.337 0.489,-0.216 0.93,-0.527 1.297,-0.916 1.196,-1.268 2.641,-2.275 4.245,-2.956 1.604,-0.681 3.333,-1.023 5.076,-1.004 z m 0,-1.424 c -1.924,0.002 -3.827,0.4 -5.59,1.169 -1.763,0.769 -3.348,1.894 -4.657,3.303 -0.241,0.256 -0.533,0.459 -0.857,0.597 -0.324,0.137 -0.672,0.205 -1.024,0.201 h -0.271 c -0.356,-0.022 -0.713,-0.022 -1.069,0 -2.675,0.005 -5.265,0.935 -7.33,2.633 -2.066,1.699 -3.479,4.059 -4,6.681 -0.081,0.4 -0.251,0.777 -0.498,1.103 -0.246,0.325 -0.563,0.591 -0.927,0.777 -2.233,1.166 -4.133,2.882 -5.519,4.985 -1.387,2.103 -2.214,4.525 -2.405,7.036 l -0.099,1.31 -0.114,1.538 h 57.518 l 0.399,-0.74 0.342,-0.641 c 1.06,-1.942 1.653,-4.105 1.732,-6.316 0.078,-2.211 -0.36,-4.41 -1.279,-6.422 -0.92,-2.013 -2.296,-3.783 -4.02,-5.172 -1.723,-1.388 -3.747,-2.356 -5.91,-2.827 -0.402,-0.086 -0.781,-0.257 -1.111,-0.503 -0.33,-0.246 -0.602,-0.56 -0.799,-0.921 -1.147,-2.339 -2.928,-4.309 -5.14,-5.686 -2.212,-1.378 -4.766,-2.107 -7.372,-2.105 z"
           fill="#ffffff" />
        <path
           id="Vector_13"
           d="m 863.205,158.906 -0.342,0.641 h -25.652 c -1.082,-0.003 -2.152,-0.22 -3.15,-0.637 -0.998,-0.417 -1.904,-1.027 -2.666,-1.794 -0.763,-0.767 -1.366,-1.677 -1.777,-2.677 -0.41,-1 -0.62,-2.071 -0.616,-3.152 h 2.451 c -0.011,1.525 0.582,2.992 1.651,4.081 1.068,1.089 2.524,1.711 4.05,1.73 h 24.227 c 1.037,-2.283 1.215,-4.863 0.503,-7.267 -0.712,-2.404 -2.266,-4.471 -4.379,-5.822 -1.005,-0.665 -2.12,-1.147 -3.292,-1.424 -0.973,-0.214 -1.886,-0.642 -2.672,-1.253 -0.787,-0.611 -1.427,-1.39 -1.874,-2.28 -0.827,-1.686 -2.114,-3.105 -3.713,-4.093 -1.598,-0.988 -3.443,-1.504 -5.323,-1.49 -1.409,0.004 -2.802,0.301 -4.09,0.872 -1.289,0.572 -2.444,1.405 -3.392,2.447 -0.677,0.725 -1.514,1.282 -2.444,1.628 -0.93,0.346 -1.927,0.471 -2.914,0.366 -1.296,-0.114 -2.6,0.102 -3.791,0.627 -1.13,0.495 -2.123,1.257 -2.895,2.219 -0.771,0.962 -1.299,2.097 -1.537,3.307 -0.187,0.965 -0.589,1.876 -1.176,2.665 -0.587,0.789 -1.345,1.436 -2.216,1.892 -1.46,0.759 -2.731,1.837 -3.717,3.154 -0.987,1.316 -1.665,2.838 -1.983,4.452 h 18.526 c 0.657,0.965 1.482,1.805 2.437,2.478 h -23.7 l 0.1,-1.311 c 0.158,-2.276 0.895,-4.475 2.142,-6.387 1.247,-1.912 2.963,-3.474 4.984,-4.536 0.551,-0.283 1.031,-0.686 1.406,-1.179 0.375,-0.493 0.635,-1.064 0.76,-1.67 0.312,-1.598 1.006,-3.098 2.024,-4.37 1.017,-1.272 2.328,-2.28 3.819,-2.936 1.578,-0.686 3.303,-0.966 5.016,-0.812 0.611,0.067 1.229,-0.009 1.805,-0.221 0.576,-0.213 1.095,-0.557 1.516,-1.004 1.178,-1.277 2.608,-2.297 4.2,-2.995 1.592,-0.699 3.311,-1.061 5.049,-1.064 2.337,-0.01 4.631,0.637 6.618,1.865 1.988,1.229 3.591,2.991 4.626,5.085 0.279,0.56 0.68,1.05 1.173,1.434 0.494,0.385 1.067,0.654 1.678,0.788 1.444,0.325 2.822,0.894 4.075,1.681 2.764,1.729 4.765,4.445 5.596,7.596 0.831,3.151 0.431,6.5 -1.121,9.366 z"
           fill="#2d5967" />
      </g>
    </g>
    <g
       id="Icon Text Label">
      <text
         id="IconLabel"
         fill="#000000"
         style="white-space:pre"
         xml:space="preserve"
         font-family="'Oracle Sans'"
         font-size="16px"
         letter-spacing="0em"><tspan
           x="809.73901"
           y="178.81599"
           id="tspan18">Control</tspan></text>
      <text
         id="IconLabel_2"
         fill="#000000"
         style="white-space:pre"
         xml:space="preserve"
         font-family="'Oracle Sans'"
         font-size="16px"
         letter-spacing="0em"><tspan
           x="816.34003"
           y="194.81599"
           id="tspan19">plane</tspan></text>
    </g>
  </g>
  <g
     id="Object Storage">
    <g
       id="Services/Object-Storage">
      <g
         id="Group_3">
        <g
           id="Group_4">
          <g
             id="Group_5">
            <path
               id="Vector_14"
               d="m 810.094,316.587 c -1.71,0 -3.135,-1.429 -3.135,-3.143 v -52.286 c 0,-1.714 1.425,-3.142 3.135,-3.142 h 52.304 c 1.711,0 3.136,1.428 3.136,3.142 v 52.429 c 0,1.714 -1.425,3.143 -3.136,3.143 z"
               fill="#ffffff" />
            <path
               id="Vector_15"
               d="m 862.254,258.73 c 1.283,0 2.423,1.143 2.423,2.428 v 52.429 c 0,1.286 -1.14,2.429 -2.423,2.429 h -52.161 c -1.283,-0.143 -2.423,-1.286 -2.423,-2.572 v -52.286 c 0,-1.285 1.14,-2.428 2.423,-2.428 z m 0,-1.429 h -52.161 c -2.138,0 -3.848,1.715 -3.848,3.857 v 52.429 c 0,2 1.71,3.714 3.848,3.714 h 52.304 c 2.137,0 3.848,-1.714 3.848,-3.857 v -52.286 c -0.143,-2.142 -1.853,-3.857 -3.991,-3.857 z"
               fill="#ffffff" />
          </g>
          <g
             id="Group_6">
            <g
               id="Group_7">
              <path
                 id="Vector_16"
                 d="m 849.57,273.873 3.848,6.714 -3.848,6.715 h -7.696 l -3.848,-6.715 3.848,-6.714 z m 1.282,-2 h -10.261 l -5.131,8.857 5.131,8.857 h 10.261 l 5.131,-8.857 z"
                 fill="#2d5967" />
            </g>
            <g
               id="Group_8">
              <path
                 id="Vector_17"
                 d="m 835.744,294.301 c 3.706,0 6.699,3 6.699,6.715 0,3.714 -2.993,6.714 -6.699,6.714 -3.705,0 -6.698,-3 -6.698,-6.714 0,-3.715 2.993,-6.715 6.698,-6.715 z m 0,-2 c -4.845,0 -8.836,4 -8.836,8.857 0,4.858 3.991,8.858 8.836,8.858 4.846,0 8.836,-4 8.836,-8.858 0,-5 -3.99,-8.857 -8.836,-8.857 z"
                 fill="#2d5967" />
            </g>
            <g
               id="Group_9">
              <path
                 id="Vector_18"
                 d="m 825.626,275.587 6.271,11.286 h -12.399 z m 0,-4.285 -9.691,17.714 h 19.525 z"
                 fill="#2d5967" />
            </g>
          </g>
          <g
             id="Group_10">
            <path
               id="Vector_19"
               d="m 862.255,315.873 h -52.162 c -1.282,0 -2.423,-1.142 -2.423,-2.428 v -49 h 57.008 v 49 c 0,1.286 -1.141,2.428 -2.423,2.428 z m -52.447,-49.285 v 47 c 0,0.143 0.143,0.285 0.285,0.285 h 52.304 c 0.143,0 0.285,-0.142 0.285,-0.285 v -47 z"
               fill="#2d5967" />
          </g>
          <g
             id="Group_11">
            <path
               id="Vector_20"
               d="M 864.678,262.873 H 807.67 v -1.714 c 0,-1.286 1.141,-2.429 2.423,-2.429 h 52.304 c 1.14,0 2.281,1.143 2.281,2.429 z"
               fill="#2d5967" />
          </g>
        </g>
      </g>
    </g>
    <g
       id="Icon Text Label_2">
      <text
         id="IconLabel_3"
         fill="#000000"
         style="white-space:pre"
         xml:space="preserve"
         font-family="'Oracle Sans'"
         font-size="16px"
         letter-spacing="0em"><tspan
           x="812.64301"
           y="335.117"
           id="tspan20">Object</tspan></text>
      <text
         id="IconLabel_4"
         fill="#000000"
         style="white-space:pre"
         xml:space="preserve"
         font-family="'Oracle Sans'"
         font-size="16px"
         letter-spacing="0em"><tspan
           x="808.43201"
           y="351.117"
           id="tspan21">Storage</tspan></text>
    </g>
  </g>
  <g
     id="google application">
    <g
       id="google-compute-engine">
      <g
         id="Product Icons">
        <path
           id="Vector_21"
           d="m 129,360.007 h -18 v 18 h 18 z"
           fill="#aecbfa" />
        <path
           id="Vector_22"
           d="m 123,339.007 h -6 v 12 h 6 z"
           fill="#669df6" />
        <path
           id="Vector_23"
           d="m 111,339.007 h -6 v 12 h 6 z"
           fill="#669df6" />
        <path
           id="Vector_24"
           d="m 135,339.007 h -6 v 12 h 6 z"
           fill="#669df6" />
        <path
           id="Vector_25"
           d="m 123,387.007 h -6 v 12 h 6 z"
           fill="#4285f4" />
        <path
           id="Vector_26"
           d="m 111,387.007 h -6 v 12 h 6 z"
           fill="#4285f4" />
        <path
           id="Vector_27"
           d="m 135,387.007 h -6 v 12 h 6 z"
           fill="#4285f4" />
        <path
           id="Vector_28"
           d="m 138,366.007 v 6 h 12 v -6 z"
           fill="#4285f4" />
        <path
           id="Vector_29"
           d="m 138,378.007 v 6 h 12 v -6 z"
           fill="#4285f4" />
        <path
           id="Vector_30"
           d="m 138,354.007 v 6 h 12 v -6 z"
           fill="#4285f4" />
        <path
           id="Vector_31"
           d="m 90,366.007 v 6 h 12 v -6 z"
           fill="#669df6" />
        <path
           id="Vector_32"
           d="m 90,378.007 v 6 h 12 v -6 z"
           fill="#669df6" />
        <path
           id="Vector_33"
           d="m 90,354.007 v 6 h 12 v -6 z"
           fill="#669df6" />
        <path
           id="Vector_34"
           d="m 99,348.007 v 42 h 42 v -42 z m 36,36 h -30 v -30 h 30 z"
           fill="#aecbfa" />
        <path
           id="Vector_35"
           d="m 111,378.007 h 18 l -9,-9 z"
           fill="#669df6" />
        <path
           id="Vector_36"
           d="m 120,369.007 9,9 v -18 z"
           fill="#4285f4" />
      </g>
    </g>
    <g
       id="Icon Text Label_3">
      <text
         id="IconLabel_5"
         fill="#000000"
         style="white-space:pre"
         xml:space="preserve"
         font-family="'Oracle Sans'"
         font-size="16px"
         letter-spacing="0em"><tspan
           x="79.078102"
           y="416.823"
           id="tspan22">Application</tspan></text>
    </g>
  </g>
  <g
     id="OCI Vault">
    <g
       id="OCI Vault_2">
      <g
         id="Group_12">
        <g
           id="Group_13">
          <g
             id="Group_14">
            <path
               id="Vector_37"
               d="m 844.871,466.838 c -11.202,-5.669 -18.154,-14.302 -19.313,-23.707 l -0.129,-1.546 v -2.963 h -0.901 v 3.349 h -3.219 v -3.349 h -4.635 c -0.773,1.932 -2.576,3.349 -4.764,3.349 -2.833,0 -5.022,-2.319 -5.022,-5.024 0,-2.835 2.318,-5.025 5.022,-5.025 2.188,0 4.12,1.417 4.764,3.607 h 8.626 v -12.755 l 20.086,-8.632 20.086,8.632 v 18.811 c -0.644,10.178 -7.725,19.326 -19.442,25.124 l -0.644,0.387 z"
               fill="#ffffff" />
            <path
               id="Vector_38"
               d="m 845.515,414.915 19.442,8.375 v 18.296 c -0.515,9.791 -7.468,18.81 -19.056,24.608 l -0.386,0.258 -0.386,-0.258 c -10.944,-5.54 -17.768,-13.915 -18.927,-23.191 l -0.129,-1.417 v -3.608 h -1.416 -0.773 v 3.35 h -1.931 v -3.35 h -5.794 c -0.515,1.933 -2.189,3.35 -4.249,3.35 -2.446,0 -4.378,-1.933 -4.378,-4.381 0,-2.448 1.932,-4.38 4.378,-4.38 2.189,0 3.991,1.546 4.249,3.607 h 8.369 1.416 V 423.29 Z m 0,-1.417 -0.515,0.258 -19.442,8.374 -0.773,0.387 v 0.902 11.596 h -0.128 -7.468 c -0.901,-2.062 -2.962,-3.608 -5.279,-3.608 -3.09,0 -5.665,2.577 -5.665,5.669 0,3.092 2.575,5.669 5.665,5.669 2.317,0 4.249,-1.288 5.15,-3.35 h 3.605 v 2.062 1.288 h 1.288 1.931 0.901 v 0.515 c 1.159,9.792 8.37,18.554 19.571,24.223 l 0.386,0.257 0.644,0.258 0.773,-0.386 0.386,-0.258 c 11.974,-6.056 19.185,-15.332 19.7,-25.64 v -18.424 -0.902 l -0.773,-0.386 -19.442,-8.246 z"
               fill="#ffffff" />
          </g>
          <g
             id="Group_15">
            <path
               id="Vector_39"
               d="m 845.515,414.915 -19.442,8.374 v 11.467 h 1.932 v -10.307 l 17.51,-7.473 17.511,7.473 v 17.007 c -0.515,9.019 -6.953,17.265 -17.511,22.805 -10.043,-5.154 -16.352,-12.884 -17.382,-21.259 h -0.128 -1.803 c 1.159,9.277 7.983,17.651 18.927,23.192 l 0.386,0.257 0.387,-0.257 c 11.588,-5.798 18.54,-14.817 19.055,-24.609 v -18.296 z"
               fill="#2d5967" />
            <path
               id="Vector_40"
               d="m 854.657,425.094 -1.287,-1.418 -3.991,3.994 -1.546,-1.417 -1.287,1.289 2.833,2.834 z"
               fill="#2d5967" />
            <path
               id="Vector_41"
               d="m 847.962,452.279 h 5.279 l -2.704,-4.638 z"
               fill="#2d5967" />
            <path
               id="Vector_42"
               d="m 839.335,447.77 c -1.287,0.258 -2.06,1.546 -1.674,2.835 0.387,1.288 1.545,2.061 2.833,1.675 1.287,-0.387 2.06,-1.546 1.674,-2.835 -0.258,-1.159 -1.545,-1.932 -2.833,-1.675 z"
               fill="#2d5967" />
            <path
               id="Vector_43"
               d="M 858.391,432.308 H 832.64 v 12.884 h 25.622 z m -1.932,10.952 h -21.888 v -9.019 h 21.888 z"
               fill="#2d5967" />
            <path
               id="Vector_44"
               d="m 851.309,440.426 c 0.995,0 1.802,-0.808 1.802,-1.804 0,-0.996 -0.807,-1.804 -1.802,-1.804 -0.996,0 -1.803,0.808 -1.803,1.804 0,0.996 0.807,1.804 1.803,1.804 z"
               fill="#2d5967" />
            <path
               id="Vector_45"
               d="m 842.683,427.155 h -5.408 v 1.932 h 5.408 z"
               fill="#2d5967" />
            <path
               id="Vector_46"
               d="m 826.073,437.977 v 3.479 h 1.931 v -0.129 -5.411 h -3.347 -8.369 c -0.387,-2.062 -2.189,-3.608 -4.378,-3.608 -2.446,0 -4.378,1.933 -4.378,4.381 0,2.448 1.932,4.38 4.378,4.38 2.06,0 3.734,-1.417 4.249,-3.35 h 5.794 v 3.35 h 1.931 v -3.092 h 0.773 z m -14.163,1.417 c -1.416,0 -2.446,-1.159 -2.446,-2.448 0,-1.288 1.158,-2.448 2.446,-2.448 1.287,0 2.446,1.16 2.446,2.448 0,1.418 -1.03,2.448 -2.446,2.448 z"
               fill="#2d5967" />
          </g>
        </g>
      </g>
    </g>
    <g
       id="Icon Text Label_4">
      <text
         id="IconLabel_6"
         fill="#000000"
         style="white-space:pre"
         xml:space="preserve"
         font-family="'Oracle Sans'"
         font-size="16px"
         letter-spacing="0em"><tspan
           x="802.76001"
           y="485.81601"
           id="tspan23">OCI Vault</tspan></text>
    </g>
  </g>
  <g
     id="VCN box_New">
    <rect
       id="Rectangle 28"
       x="241"
       y="200.967"
       width="534"
       height="243"
       stroke="#aa643b"
       stroke-width="2"
       stroke-dasharray="8, 4" />
    <g
       id="Icon Master">
      <g
         id="Srv-VCN">
        <g
           id="Group 39">
          <path
             id="Vector_47"
             d="m 754.416,223.51 c -1.255,0 -2.472,-0.433 -3.446,-1.225 -0.975,-0.792 -1.647,-1.895 -1.904,-3.125 h -6.471 c -0.187,0.894 -0.595,1.727 -1.187,2.423 -0.592,0.696 -1.348,1.233 -2.2,1.561 -0.852,0.328 -1.773,0.438 -2.678,0.319 -0.905,-0.12 -1.766,-0.464 -2.504,-1.001 -0.739,-0.538 -1.331,-1.252 -1.722,-2.077 -0.392,-0.825 -0.571,-1.735 -0.521,-2.647 0.05,-0.913 0.328,-1.798 0.807,-2.575 0.48,-0.777 1.147,-1.422 1.939,-1.875 l -1.996,-6.147 c -0.197,0.014 -0.395,0.014 -0.592,0 -0.888,0.002 -1.762,-0.212 -2.549,-0.624 -0.786,-0.412 -1.46,-1.009 -1.964,-1.74 -0.504,-0.731 -0.823,-1.574 -0.929,-2.456 -0.105,-0.882 0.005,-1.776 0.322,-2.606 0.317,-0.829 0.831,-1.569 1.498,-2.155 0.667,-0.587 1.466,-1.002 2.329,-1.21 0.863,-0.208 1.764,-0.202 2.624,0.016 0.86,0.218 1.655,0.642 2.315,1.236 l 5.258,-3.729 c -0.317,-0.706 -0.482,-1.47 -0.483,-2.244 0,-1.451 0.576,-2.843 1.602,-3.869 1.025,-1.026 2.416,-1.602 3.867,-1.602 1.45,0 2.841,0.576 3.866,1.602 1.026,1.026 1.602,2.418 1.602,3.869 0.002,0.773 -0.159,1.538 -0.474,2.244 l 5.268,3.766 c 0.995,-0.913 2.295,-1.421 3.645,-1.423 1.451,0 2.841,0.577 3.867,1.603 1.025,1.026 1.602,2.418 1.602,3.869 0,1.451 -0.577,2.843 -1.602,3.869 -1.026,1.026 -2.416,1.602 -3.867,1.602 -0.191,0 -0.392,0 -0.583,0 l -2.005,6.147 c 1.049,0.599 1.87,1.529 2.335,2.645 0.465,1.115 0.548,2.353 0.235,3.52 -0.312,1.168 -1.002,2.199 -1.961,2.933 -0.96,0.734 -2.135,1.129 -3.343,1.124 z"
             fill="#ffffff" />
          <path
             id="Vector_48"
             d="m 745.84,186.577 c 0.867,0.002 1.72,0.229 2.474,0.659 0.754,0.429 1.383,1.047 1.828,1.793 0.444,0.746 0.687,1.594 0.707,2.462 0.019,0.868 -0.187,1.726 -0.598,2.491 l 5.842,4.249 c 0.572,-0.599 1.284,-1.047 2.071,-1.303 0.787,-0.257 1.626,-0.314 2.441,-0.167 0.815,0.147 1.581,0.493 2.23,1.009 0.648,0.515 1.159,1.184 1.486,1.945 0.327,0.761 0.461,1.592 0.389,2.417 -0.072,0.826 -0.347,1.621 -0.801,2.314 -0.454,0.693 -1.073,1.263 -1.8,1.658 -0.728,0.396 -1.543,0.605 -2.371,0.608 -0.305,0.005 -0.61,-0.02 -0.911,-0.073 l -2.233,6.885 c 0.781,0.377 1.451,0.951 1.944,1.664 0.494,0.714 0.794,1.543 0.871,2.407 0.077,0.864 -0.071,1.734 -0.43,2.524 -0.359,0.789 -0.917,1.472 -1.619,1.982 -0.701,0.51 -1.523,0.828 -2.385,0.925 -0.862,0.097 -1.734,-0.032 -2.531,-0.373 -0.797,-0.341 -1.492,-0.884 -2.017,-1.574 -0.525,-0.691 -0.862,-1.506 -0.978,-2.366 h -7.237 c -0.117,0.86 -0.455,1.675 -0.981,2.365 -0.525,0.69 -1.221,1.232 -2.019,1.572 -0.798,0.341 -1.67,0.468 -2.532,0.37 -0.862,-0.098 -1.684,-0.417 -2.385,-0.928 -0.701,-0.511 -1.258,-1.195 -1.616,-1.986 -0.357,-0.79 -0.504,-1.66 -0.426,-2.524 0.079,-0.864 0.381,-1.693 0.875,-2.406 0.495,-0.713 1.166,-1.285 1.948,-1.661 l -2.233,-6.876 c -0.3,0.056 -0.606,0.084 -0.911,0.082 -0.831,-0.001 -1.648,-0.209 -2.379,-0.604 -0.731,-0.395 -1.352,-0.965 -1.808,-1.66 -0.456,-0.694 -0.734,-1.491 -0.806,-2.319 -0.073,-0.828 0.06,-1.661 0.388,-2.425 0.328,-0.763 0.84,-1.434 1.49,-1.951 0.651,-0.517 1.419,-0.864 2.237,-1.011 0.817,-0.147 1.658,-0.088 2.448,0.17 0.789,0.258 1.503,0.709 2.075,1.31 l 5.842,-4.249 c -0.411,-0.766 -0.617,-1.624 -0.598,-2.493 0.02,-0.869 0.264,-1.718 0.71,-2.464 0.445,-0.746 1.076,-1.364 1.831,-1.793 0.756,-0.429 1.609,-0.655 2.478,-0.655 z m 0,-0.912 c -1.572,0 -3.08,0.624 -4.193,1.736 -1.112,1.111 -1.738,2.619 -1.741,4.192 0,0.713 0.129,1.421 0.383,2.088 l -4.657,3.374 c -0.741,-0.591 -1.613,-0.996 -2.543,-1.181 -0.929,-0.185 -1.89,-0.144 -2.801,0.119 -0.91,0.263 -1.745,0.74 -2.433,1.392 -0.689,0.652 -1.211,1.459 -1.523,2.355 -0.313,0.895 -0.406,1.853 -0.273,2.792 0.133,0.939 0.489,1.832 1.039,2.605 0.549,0.773 1.275,1.403 2.118,1.837 0.843,0.435 1.777,0.661 2.725,0.659 h 0.264 l 1.823,5.472 c -0.798,0.528 -1.456,1.242 -1.918,2.08 -0.462,0.838 -0.714,1.776 -0.735,2.733 -0.021,0.957 0.189,1.905 0.614,2.762 0.425,0.858 1.051,1.6 1.825,2.163 0.774,0.563 1.672,0.929 2.619,1.069 0.946,0.14 1.912,0.048 2.816,-0.267 0.903,-0.316 1.716,-0.845 2.371,-1.543 0.654,-0.699 1.129,-1.545 1.385,-2.468 h 5.742 c 0.254,0.926 0.729,1.776 1.383,2.478 0.654,0.702 1.469,1.234 2.374,1.552 0.906,0.317 1.874,0.411 2.824,0.272 0.949,-0.139 1.85,-0.507 2.626,-1.071 0.776,-0.564 1.404,-1.307 1.83,-2.168 0.426,-0.86 0.637,-1.81 0.616,-2.77 -0.022,-0.959 -0.276,-1.899 -0.74,-2.739 -0.465,-0.84 -1.126,-1.555 -1.927,-2.083 l 1.823,-5.472 h 0.182 c 0.806,0.045 1.612,-0.075 2.37,-0.353 0.757,-0.277 1.45,-0.707 2.036,-1.262 0.586,-0.554 1.053,-1.223 1.372,-1.965 0.319,-0.741 0.484,-1.54 0.484,-2.347 0,-0.807 -0.165,-1.606 -0.484,-2.348 -0.319,-0.741 -0.786,-1.41 -1.372,-1.965 -0.586,-0.555 -1.279,-0.984 -2.036,-1.262 -0.758,-0.277 -1.564,-0.397 -2.37,-0.353 -1.342,-0.003 -2.645,0.454 -3.691,1.295 l -4.648,-3.374 c 0.247,-0.668 0.373,-1.375 0.374,-2.088 10e-4,-0.781 -0.152,-1.554 -0.449,-2.275 -0.298,-0.721 -0.735,-1.377 -1.286,-1.929 -0.551,-0.552 -1.205,-0.99 -1.926,-1.289 -0.72,-0.299 -1.493,-0.453 -2.272,-0.453 z"
             fill="#ffffff" />
          <path
             id="Vector_49"
             d="m 759.738,196.671 c -0.681,-0.002 -1.356,0.136 -1.983,0.404 -0.627,0.268 -1.192,0.661 -1.662,1.155 l -5.842,-4.249 c 0.414,-0.766 0.623,-1.626 0.605,-2.496 -0.018,-0.87 -0.261,-1.721 -0.706,-2.469 -0.445,-0.747 -1.077,-1.367 -1.833,-1.797 -0.757,-0.43 -1.612,-0.656 -2.482,-0.656 -0.87,0 -1.725,0.226 -2.481,0.656 -0.756,0.43 -1.388,1.05 -1.833,1.797 -0.445,0.748 -0.689,1.599 -0.706,2.469 -0.018,0.87 0.19,1.73 0.605,2.496 l -5.851,4.249 c -0.574,-0.597 -1.285,-1.042 -2.073,-1.297 -0.787,-0.255 -1.625,-0.311 -2.439,-0.163 -0.814,0.148 -1.578,0.495 -2.226,1.011 -0.647,0.515 -1.156,1.183 -1.483,1.944 -0.327,0.76 -0.46,1.59 -0.388,2.415 0.072,0.824 0.346,1.619 0.799,2.311 0.453,0.693 1.07,1.263 1.797,1.659 0.727,0.395 1.54,0.605 2.367,0.61 0.306,0.002 0.611,-0.026 0.911,-0.082 l 2.233,6.867 c -0.782,0.376 -1.453,0.948 -1.947,1.661 -0.495,0.712 -0.797,1.541 -0.875,2.406 -0.079,0.864 0.068,1.734 0.426,2.524 0.358,0.791 0.914,1.475 1.615,1.986 0.702,0.51 1.523,0.83 2.385,0.928 0.862,0.098 1.734,-0.029 2.532,-0.37 0.798,-0.34 1.494,-0.882 2.02,-1.572 0.526,-0.69 0.863,-1.505 0.98,-2.365 h 7.237 c 0.116,0.86 0.453,1.675 0.978,2.365 0.525,0.691 1.22,1.233 2.017,1.575 0.797,0.341 1.669,0.47 2.531,0.373 0.862,-0.097 1.684,-0.415 2.386,-0.925 0.701,-0.51 1.259,-1.193 1.618,-1.983 0.359,-0.789 0.507,-1.659 0.43,-2.523 -0.077,-0.864 -0.377,-1.694 -0.871,-2.407 -0.493,-0.714 -1.163,-1.287 -1.944,-1.664 l 2.242,-6.876 c 0.301,0.056 0.606,0.084 0.911,0.082 0.684,0.042 1.369,-0.058 2.013,-0.291 0.644,-0.233 1.234,-0.596 1.732,-1.066 0.499,-0.47 0.896,-1.037 1.168,-1.666 0.271,-0.629 0.412,-1.307 0.412,-1.992 0,-0.686 -0.141,-1.364 -0.412,-1.993 -0.272,-0.629 -0.669,-1.196 -1.168,-1.666 -0.498,-0.469 -1.088,-0.832 -1.732,-1.066 -0.644,-0.233 -1.329,-0.332 -2.013,-0.291 z m -5.322,25.041 c -0.721,0 -1.426,-0.214 -2.025,-0.614 -0.6,-0.401 -1.067,-0.971 -1.343,-1.637 -0.276,-0.667 -0.348,-1.4 -0.208,-2.108 0.141,-0.708 0.488,-1.357 0.998,-1.868 0.51,-0.51 1.16,-0.857 1.867,-0.998 0.707,-0.141 1.44,-0.068 2.106,0.208 0.666,0.276 1.236,0.743 1.636,1.343 0.401,0.6 0.615,1.305 0.615,2.027 0,0.967 -0.385,1.895 -1.068,2.579 -0.684,0.684 -1.611,1.068 -2.578,1.068 z m -12.203,-4.35 c -0.15,-1.132 -0.684,-2.178 -1.513,-2.963 l 2.734,-3.821 c 0.732,0.389 1.549,0.592 2.379,0.593 0.826,0.002 1.641,-0.201 2.369,-0.593 l 2.734,3.821 c -0.832,0.784 -1.369,1.83 -1.522,2.963 z m -8.65,0.675 c 0,-0.721 0.214,-1.426 0.615,-2.026 0.4,-0.6 0.97,-1.068 1.636,-1.344 0.666,-0.276 1.399,-0.348 2.106,-0.207 0.707,0.14 1.357,0.488 1.867,0.998 0.51,0.51 0.857,1.16 0.998,1.868 0.14,0.707 0.068,1.441 -0.208,2.107 -0.276,0.667 -0.743,1.236 -1.343,1.637 -0.599,0.401 -1.304,0.615 -2.025,0.615 -0.967,0 -1.894,-0.384 -2.578,-1.068 -0.683,-0.684 -1.068,-1.612 -1.068,-2.58 z m -1.622,-20.016 c 0.721,0 1.426,0.213 2.026,0.614 0.599,0.401 1.066,0.971 1.342,1.637 0.276,0.667 0.348,1.4 0.208,2.108 -0.141,0.707 -0.488,1.357 -0.998,1.868 -0.51,0.51 -1.159,0.857 -1.867,0.998 -0.707,0.141 -1.44,0.068 -2.106,-0.208 -0.666,-0.276 -1.235,-0.743 -1.636,-1.343 -0.401,-0.6 -0.614,-1.305 -0.614,-2.027 0,-0.967 0.384,-1.895 1.067,-2.579 0.684,-0.684 1.611,-1.068 2.578,-1.068 z m 10.217,-6.384 c 0,-0.721 0.214,-1.427 0.614,-2.026 0.401,-0.6 0.97,-1.068 1.636,-1.344 0.666,-0.276 1.399,-0.348 2.107,-0.208 0.707,0.141 1.356,0.489 1.866,0.999 0.51,0.51 0.857,1.16 0.998,1.867 0.141,0.708 0.068,1.441 -0.208,2.108 -0.275,0.667 -0.743,1.236 -1.342,1.637 -0.6,0.401 -1.305,0.615 -2.026,0.615 -0.482,0 -0.96,-0.096 -1.405,-0.282 -0.446,-0.186 -0.85,-0.459 -1.189,-0.803 -0.339,-0.343 -0.606,-0.751 -0.787,-1.199 -0.18,-0.447 -0.27,-0.927 -0.264,-1.41 z m 12.632,10.943 -4.421,1.414 c -0.36,-0.755 -0.901,-1.408 -1.576,-1.901 -0.674,-0.494 -1.46,-0.812 -2.288,-0.926 v -4.56 c 1.129,-0.15 2.172,-0.685 2.953,-1.514 l 5.86,4.25 c -0.396,0.73 -0.603,1.549 -0.601,2.38 0.002,0.284 0.026,0.568 0.073,0.848 z m -5.277,3.584 c 0,0.721 -0.214,1.427 -0.615,2.027 -0.4,0.599 -0.97,1.067 -1.636,1.343 -0.666,0.276 -1.399,0.348 -2.106,0.208 -0.707,-0.141 -1.357,-0.488 -1.867,-0.999 -0.509,-0.51 -0.857,-1.16 -0.997,-1.867 -0.141,-0.708 -0.069,-1.441 0.207,-2.108 0.276,-0.666 0.743,-1.236 1.343,-1.637 0.599,-0.401 1.304,-0.615 2.025,-0.615 0.965,0 1.891,0.383 2.575,1.066 0.683,0.682 1.068,1.607 1.071,2.573 z m -4.357,-9.557 v 4.56 c -0.826,0.112 -1.61,0.429 -2.283,0.921 -0.673,0.492 -1.213,1.144 -1.572,1.897 l -4.429,-1.414 c 0.057,-0.301 0.084,-0.606 0.082,-0.912 -0.008,-0.809 -0.211,-1.603 -0.593,-2.316 l 5.852,-4.259 c 0.777,0.831 1.817,1.368 2.943,1.523 z m -8.694,7.295 4.429,1.414 c -0.056,0.301 -0.084,0.606 -0.082,0.912 -0.003,0.683 0.134,1.36 0.404,1.987 0.27,0.628 0.666,1.193 1.164,1.661 l -2.735,3.83 c -0.727,-0.396 -1.541,-0.603 -2.369,-0.602 -0.306,-0.002 -0.611,0.025 -0.912,0.082 l -2.242,-6.967 c 1.023,-0.485 1.852,-1.301 2.352,-2.317 z m 17.954,9.12 c -0.826,0.001 -1.64,0.205 -2.37,0.592 l -2.734,-3.811 c 0.496,-0.469 0.891,-1.035 1.161,-1.662 0.269,-0.627 0.408,-1.303 0.407,-1.986 0.002,-0.306 -0.025,-0.611 -0.082,-0.912 l 4.384,-1.395 c 0.496,1.031 1.324,1.866 2.351,2.371 l -2.233,6.876 c -0.292,-0.051 -0.588,-0.076 -0.884,-0.073 z m 1.677,-11.326 c 0,-0.722 0.214,-1.427 0.614,-2.027 0.401,-0.6 0.97,-1.067 1.636,-1.343 0.667,-0.277 1.4,-0.349 2.107,-0.208 0.707,0.141 1.356,0.488 1.866,0.998 0.51,0.51 0.857,1.16 0.998,1.868 0.141,0.708 0.068,1.441 -0.207,2.108 -0.276,0.666 -0.744,1.236 -1.343,1.637 -0.6,0.4 -1.305,0.614 -2.026,0.614 -0.966,0 -1.894,-0.384 -2.577,-1.068 -0.684,-0.684 -1.068,-1.612 -1.068,-2.579 z"
             fill="#aa643b" />
        </g>
      </g>
    </g>
    <text
       id="VCN"
       fill="#ae562c"
       style="white-space:pre"
       xml:space="preserve"
       font-family="'Oracle Sans'"
       font-size="16px"
       font-weight="600"
       letter-spacing="0em"><tspan
         x="249"
         y="222.81599"
         id="tspan24">VCN</tspan></text>
  </g>
  <g
     id="Client subnet">
    <rect
       x="260.5"
       y="231.5"
       width="470"
       height="95"
       stroke="#aa643b"
       stroke-dasharray="8, 4"
       id="rect24" />
    <text
       id="Subnet_3"
       fill="#ae562c"
       style="white-space:pre"
       xml:space="preserve"
       font-family="'Oracle Sans'"
       font-size="16px"
       font-weight="600"
       letter-spacing="0em"><tspan
         x="268"
         y="252.81599"
         id="tspan25">Client subnet</tspan></text>
    <g
       id="Icon Master_2">
      <g
         id="Srv-Route table and security list">
        <g
           id="Group_16">
          <g
             id="Group_17">
            <path
               id="Vector_50"
               d="m 682.476,250.519 v -26.442 h 16.762 v -7.788 l 11.238,-4.808 11.143,4.808 v 10.192 c 0,0.096 0,2.596 -1.429,5.577 -1.238,2.692 -3.809,6.346 -9.333,8.365 v 10 h -28.381 z"
               fill="#ffffff" />
            <path
               id="Vector_51"
               d="m 710.381,212.058 10.667,4.519 v 9.904 c 0,0.096 0,2.5 -1.334,5.384 -1.238,2.693 -3.714,6.25 -9.047,8.173 l -0.191,0.097 h -0.095 v 9.903 h -27.429 v -25.48 h 16.762 v -7.981 z m 0,-1.058 -0.381,0.192 -10.667,4.52 -0.571,0.288 v 0.673 7.019 H 682.952 682 v 0.962 25.384 0.962 h 0.952 27.429 0.952 v -0.962 -9.23 c 5.334,-2.116 8,-5.77 9.238,-8.558 C 722,229.173 722,226.577 722,226.481 V 216.577 216 l -0.571,-0.288 -10.667,-4.52 z"
               fill="#ffffff" />
          </g>
          <g
             id="Group_18">
            <path
               id="Vector_52"
               d="m 709.047,240.712 h -17.523 v -6.731 h 9.523 c -0.285,-0.481 -0.476,-0.866 -0.666,-1.25 h -8.857 V 226 h 7.142 v -1.25 h -15.714 v 25.385 h 27.429 v -8.847 l -0.476,-0.192 c -0.286,-0.192 -0.572,-0.288 -0.858,-0.384 z M 684.19,225.904 h 6.095 v 6.731 h -6.095 z m 6.095,7.981 v 6.73 h -6.095 v -6.73 z m -6.095,8.077 h 6.095 v 6.73 h -6.095 z m 24.857,6.73 h -17.523 v -6.73 h 17.523 z"
               fill="#aa643b" />
            <path
               id="Vector_53"
               d="m 707.619,246.192 h -1.238 v 1.25 h 1.238 z"
               fill="#aa643b" />
            <path
               id="Vector_54"
               d="m 702.381,247.442 1.142,-1.154 1.143,1.154 0.857,-0.961 -1.142,-1.154 1.142,-1.154 -0.857,-0.865 -1.143,1.153 -1.142,-1.153 -0.953,0.865 1.143,1.154 -1.143,1.154 z"
               fill="#aa643b" />
            <path
               id="Vector_55"
               d="m 699.619,246.192 h -1.238 v 1.25 h 1.238 z"
               fill="#aa643b" />
            <path
               id="Vector_56"
               d="m 693.523,246.481 0.858,0.961 1.142,-1.154 1.143,1.154 0.953,-0.961 -1.143,-1.154 1.143,-1.154 -0.953,-0.865 -1.143,1.153 -1.142,-1.153 -0.858,0.865 1.143,1.154 z"
               fill="#aa643b" />
            <path
               id="Vector_57"
               d="m 699.619,238.116 h -1.238 v 1.25 h 1.238 z"
               fill="#aa643b" />
            <path
               id="Vector_58"
               d="m 693.523,238.404 0.858,0.962 1.142,-1.154 1.143,1.154 0.953,-0.962 -1.143,-1.154 1.143,-1.154 -0.953,-0.865 -1.143,1.154 -1.142,-1.154 -0.858,0.865 1.143,1.154 z"
               fill="#aa643b" />
            <path
               id="Vector_59"
               d="m 698.095,231.385 h 1.238 v -1.25 c 0,0 0,0 0,-0.096 h -1.238 z"
               fill="#aa643b" />
            <path
               id="Vector_60"
               d="m 693.143,230.423 0.952,0.865 1.143,-1.153 1.143,1.153 0.857,-0.865 -1.143,-1.154 1.143,-1.154 -0.857,-0.961 -1.143,1.154 -1.143,-1.154 -0.952,0.961 1.142,1.154 z"
               fill="#aa643b" />
            <path
               id="Vector_61"
               d="m 699.714,216.577 v 9.904 c 0,0.096 0.095,2.5 1.333,5.384 1.238,2.693 3.81,6.25 9.143,8.173 l 0.191,0.097 0.19,-0.097 c 5.333,-1.923 7.905,-5.48 9.048,-8.173 1.333,-2.884 1.333,-5.288 1.333,-5.384 v -9.904 l -10.571,-4.519 z m 20.095,9.904 c 0,0.096 -0.19,8.75 -9.333,12.211 -3.81,-1.442 -6.572,-3.942 -8.191,-7.307 -1.238,-2.597 -1.238,-4.904 -1.238,-4.904 v -9.039 l 9.429,-4.038 9.333,4.038 z"
               fill="#aa643b" />
            <path
               id="Vector_62"
               d="m 709.238,227.827 h -4.953 v 1.25 h 4.953 z"
               fill="#aa643b" />
            <path
               id="Vector_63"
               d="m 709.238,221.385 h -4.953 v 1.25 h 4.953 z"
               fill="#aa643b" />
            <path
               id="Vector_64"
               d="m 715.904,219.942 -2.761,2.693 -0.953,-0.962 -0.952,0.866 1.905,1.923 3.619,-3.654 z"
               fill="#aa643b" />
            <path
               id="Vector_65"
               d="m 704.285,225.904 h 4.762 0.191 v -1.346 h -4.953 z"
               fill="#aa643b" />
          </g>
        </g>
      </g>
    </g>
  </g>
  <g
     id="Backup subnet">
    <rect
       x="260.5"
       y="343.5"
       width="470"
       height="88"
       stroke="#aa643b"
       stroke-dasharray="8, 4"
       id="rect25" />
    <text
       id="Subnet_4"
       fill="#ae562c"
       style="white-space:pre"
       xml:space="preserve"
       font-family="'Oracle Sans'"
       font-size="16px"
       font-weight="600"
       letter-spacing="0em"><tspan
         x="268"
         y="364.81601"
         id="tspan26">Backup subnet</tspan></text>
    <g
       id="Icon Master_3">
      <g
         id="Srv-Route table and security list_2">
        <g
           id="Group_19">
          <g
             id="Group_20">
            <path
               id="Vector_66"
               d="m 682.476,362.519 v -26.442 h 16.762 v -7.788 l 11.238,-4.808 11.143,4.808 v 10.192 c 0,0.096 0,2.596 -1.429,5.577 -1.238,2.692 -3.809,6.346 -9.333,8.365 v 10 h -28.381 z"
               fill="#ffffff" />
            <path
               id="Vector_67"
               d="m 710.381,324.058 10.667,4.519 v 9.904 c 0,0.096 0,2.5 -1.334,5.384 -1.238,2.693 -3.714,6.25 -9.047,8.173 l -0.191,0.097 h -0.095 v 9.903 h -27.429 v -25.48 h 16.762 v -7.981 z m 0,-1.058 -0.381,0.192 -10.667,4.52 -0.571,0.288 v 0.673 7.019 H 682.952 682 v 0.962 25.384 0.962 h 0.952 27.429 0.952 v -0.962 -9.23 c 5.334,-2.116 8,-5.77 9.238,-8.558 C 722,341.173 722,338.577 722,338.481 V 328.577 328 l -0.571,-0.288 -10.667,-4.52 z"
               fill="#ffffff" />
          </g>
          <g
             id="Group_21">
            <path
               id="Vector_68"
               d="m 709.047,352.712 h -17.523 v -6.731 h 9.523 c -0.285,-0.481 -0.476,-0.866 -0.666,-1.25 h -8.857 V 338 h 7.142 v -1.25 h -15.714 v 25.385 h 27.429 v -8.847 l -0.476,-0.192 c -0.286,-0.192 -0.572,-0.288 -0.858,-0.384 z M 684.19,337.904 h 6.095 v 6.731 h -6.095 z m 6.095,7.981 v 6.73 h -6.095 v -6.73 z m -6.095,8.077 h 6.095 v 6.73 h -6.095 z m 24.857,6.73 h -17.523 v -6.73 h 17.523 z"
               fill="#aa643b" />
            <path
               id="Vector_69"
               d="m 707.619,358.192 h -1.238 v 1.25 h 1.238 z"
               fill="#aa643b" />
            <path
               id="Vector_70"
               d="m 702.381,359.442 1.142,-1.154 1.143,1.154 0.857,-0.961 -1.142,-1.154 1.142,-1.154 -0.857,-0.865 -1.143,1.153 -1.142,-1.153 -0.953,0.865 1.143,1.154 -1.143,1.154 z"
               fill="#aa643b" />
            <path
               id="Vector_71"
               d="m 699.619,358.192 h -1.238 v 1.25 h 1.238 z"
               fill="#aa643b" />
            <path
               id="Vector_72"
               d="m 693.523,358.481 0.858,0.961 1.142,-1.154 1.143,1.154 0.953,-0.961 -1.143,-1.154 1.143,-1.154 -0.953,-0.865 -1.143,1.153 -1.142,-1.153 -0.858,0.865 1.143,1.154 z"
               fill="#aa643b" />
            <path
               id="Vector_73"
               d="m 699.619,350.116 h -1.238 v 1.25 h 1.238 z"
               fill="#aa643b" />
            <path
               id="Vector_74"
               d="m 693.523,350.404 0.858,0.962 1.142,-1.154 1.143,1.154 0.953,-0.962 -1.143,-1.154 1.143,-1.154 -0.953,-0.865 -1.143,1.154 -1.142,-1.154 -0.858,0.865 1.143,1.154 z"
               fill="#aa643b" />
            <path
               id="Vector_75"
               d="m 698.095,343.385 h 1.238 v -1.25 c 0,0 0,0 0,-0.096 h -1.238 z"
               fill="#aa643b" />
            <path
               id="Vector_76"
               d="m 693.143,342.423 0.952,0.865 1.143,-1.153 1.143,1.153 0.857,-0.865 -1.143,-1.154 1.143,-1.154 -0.857,-0.961 -1.143,1.154 -1.143,-1.154 -0.952,0.961 1.142,1.154 z"
               fill="#aa643b" />
            <path
               id="Vector_77"
               d="m 699.714,328.577 v 9.904 c 0,0.096 0.095,2.5 1.333,5.384 1.238,2.693 3.81,6.25 9.143,8.173 l 0.191,0.097 0.19,-0.097 c 5.333,-1.923 7.905,-5.48 9.048,-8.173 1.333,-2.884 1.333,-5.288 1.333,-5.384 v -9.904 l -10.571,-4.519 z m 20.095,9.904 c 0,0.096 -0.19,8.75 -9.333,12.211 -3.81,-1.442 -6.572,-3.942 -8.191,-7.307 -1.238,-2.597 -1.238,-4.904 -1.238,-4.904 v -9.039 l 9.429,-4.038 9.333,4.038 z"
               fill="#aa643b" />
            <path
               id="Vector_78"
               d="m 709.238,339.827 h -4.953 v 1.25 h 4.953 z"
               fill="#aa643b" />
            <path
               id="Vector_79"
               d="m 709.238,333.385 h -4.953 v 1.25 h 4.953 z"
               fill="#aa643b" />
            <path
               id="Vector_80"
               d="m 715.904,331.942 -2.761,2.693 -0.953,-0.962 -0.952,0.866 1.905,1.923 3.619,-3.654 z"
               fill="#aa643b" />
            <path
               id="Vector_81"
               d="m 704.285,337.904 h 4.762 0.191 v -1.346 h -4.953 z"
               fill="#aa643b" />
          </g>
        </g>
      </g>
    </g>
  </g>
  <g
     id="Exadata Database Service">
    <g
       id="Technology - Exadata-Cloud-Service">
      <g
         id="Group 826">
        <g
           id="Union">
          <path
             fill-rule="evenodd"
             clip-rule="evenodd"
             d="m 442.48,360.025 v -48.086 h -20.967 v 48.086 z m -19.5,-1.467 h 18.033 V 313.406 H 422.98 Z"
             fill="#ffffff"
             id="path26" />
          <path
             fill-rule="evenodd"
             clip-rule="evenodd"
             d="M 423.891,300.068 424,298.605 c -0.505,-0.038 -1.012,-0.039 -1.518,-0.004 h -1.175 l -0.703,0.151 h -0.388 l -0.215,0.067 c -0.385,0.121 -0.763,0.262 -1.132,0.423 l 0.584,1.345 -0.596,-1.34 c -0.768,0.341 -1.494,0.77 -2.164,1.277 l -0.007,0.005 c -0.335,0.256 -0.652,0.534 -0.95,0.832 l -0.005,0.005 c -1.556,1.571 -2.575,3.595 -2.913,5.781 -0.058,0.256 -0.168,0.497 -0.324,0.708 -0.159,0.215 -0.362,0.393 -0.595,0.524 -1.508,0.77 -2.855,1.821 -3.968,3.098 l -0.013,0.015 c -1.454,1.713 -2.456,3.765 -2.914,5.966 l -0.001,0.007 c -0.114,0.563 -0.19,1.133 -0.227,1.706 l -0.201,3.121 h 12.758 v 41.916 h 29.328 v -41.916 h 8.17 l 0.796,-1.49 0.002,-0.003 c 1.55,-2.864 1.957,-6.209 1.14,-9.361 -0.817,-3.154 -2.799,-5.88 -5.546,-7.628 l -0.009,-0.006 c -1.249,-0.783 -2.623,-1.346 -4.062,-1.665 l -0.02,-0.004 c -0.267,-0.055 -0.519,-0.168 -0.738,-0.331 -0.214,-0.158 -0.392,-0.36 -0.522,-0.593 -0.273,-0.541 -0.579,-1.066 -0.914,-1.571 l -0.009,-0.013 -0.009,-0.012 c -0.658,-0.945 -1.44,-1.798 -2.324,-2.535 l -0.006,-0.005 c -2.298,-1.895 -5.195,-2.911 -8.172,-2.866 -2.977,0.046 -5.841,1.149 -8.081,3.112 l -0.004,0.004 c -0.302,0.267 -0.618,0.563 -0.907,0.871 -0.078,0.078 -0.159,0.152 -0.244,0.221 l -0.167,0.083 h -0.085 l -0.402,0.101 h -0.153 l -0.066,0.006 c -0.102,0.009 -0.204,0.009 -0.306,0 z m -17.651,19.197 c 0.033,-0.507 0.1,-1.011 0.201,-1.509 0.407,-1.961 1.3,-3.788 2.596,-5.315 0.995,-1.141 2.2,-2.08 3.55,-2.766 0.426,-0.233 0.797,-0.556 1.086,-0.947 0.289,-0.391 0.49,-0.84 0.589,-1.317 0.284,-1.895 1.164,-3.651 2.512,-5.013 0.252,-0.252 0.52,-0.487 0.804,-0.704 0.58,-0.439 1.21,-0.811 1.875,-1.107 0.323,-0.14 0.653,-0.263 0.988,-0.368 h 0.318 l 0.704,-0.151 h 1.072 c 0.451,-0.034 0.905,-0.034 1.356,0 0.19,0.017 0.38,0.017 0.57,0 h 0.267 l 0.402,-0.101 h 0.252 c 0.143,-0.046 0.278,-0.114 0.402,-0.201 l 0.201,-0.101 c 0.184,-0.137 0.358,-0.288 0.519,-0.452 0.251,-0.269 0.536,-0.537 0.82,-0.788 1.978,-1.735 4.507,-2.709 7.136,-2.749 2.629,-0.04 5.187,0.857 7.216,2.531 0.784,0.653 1.477,1.409 2.06,2.246 0.309,0.463 0.588,0.945 0.838,1.442 0.232,0.427 0.555,0.798 0.946,1.088 0.39,0.289 0.839,0.49 1.314,0.589 1.276,0.282 2.494,0.781 3.601,1.475 2.434,1.549 4.19,3.964 4.914,6.759 0.724,2.794 0.363,5.76 -1.012,8.298 l -0.385,0.721 h -6.699 v -2.733 h 5.024 c 0.796,-1.889 0.897,-4 0.283,-5.956 -0.613,-1.956 -1.9,-3.63 -3.632,-4.725 -0.839,-0.565 -1.776,-0.969 -2.763,-1.19 -0.88,-0.193 -1.705,-0.581 -2.415,-1.135 -0.71,-0.554 -1.287,-1.261 -1.688,-2.067 -0.694,-1.386 -1.758,-2.552 -3.073,-3.369 -1.316,-0.817 -2.832,-1.253 -4.38,-1.259 -1.15,-0.001 -2.287,0.236 -3.342,0.694 -1.054,0.459 -2.003,1.13 -2.787,1.972 -0.61,0.659 -1.365,1.167 -2.205,1.484 -0.84,0.318 -1.742,0.435 -2.635,0.343 -1.059,-0.102 -2.126,0.071 -3.098,0.503 -0.921,0.413 -1.728,1.041 -2.355,1.832 -0.627,0.791 -1.054,1.721 -1.246,2.712 -0.179,0.879 -0.553,1.706 -1.095,2.42 -0.543,0.714 -1.239,1.297 -2.037,1.705 -1.156,0.603 -2.168,1.448 -2.969,2.478 -0.483,0.622 -0.882,1.302 -1.189,2.023 -0.201,0.474 -0.362,0.964 -0.48,1.468 h 7.603 v 2.8 h -10.635 z m 15.282,-10.043 -2.722,1.949 v 51.57 h 26.393 v -53.519 z"
             fill="#ffffff"
             id="path27" />
        </g>
        <path
           id="Vector_82"
           d="m 409.17,318.024 c 0.3,-1.27 0.87,-2.46 1.67,-3.49 0.801,-1.03 1.813,-1.875 2.969,-2.479 0.798,-0.407 1.494,-0.99 2.036,-1.704 0.543,-0.714 0.917,-1.541 1.096,-2.42 0.192,-0.991 0.619,-1.922 1.246,-2.712 0.626,-0.791 1.434,-1.419 2.355,-1.832 0.972,-0.432 2.039,-0.606 3.098,-0.503 0.893,0.092 1.795,-0.026 2.635,-0.343 0.84,-0.317 1.594,-0.825 2.205,-1.484 0.784,-0.842 1.733,-1.513 2.787,-1.972 1.055,-0.459 2.192,-0.695 3.342,-0.694 1.548,0.006 3.064,0.442 4.38,1.259 1.315,0.817 2.379,1.983 3.072,3.368 0.402,0.807 0.979,1.513 1.689,2.067 0.71,0.555 1.535,0.942 2.414,1.136 0.987,0.221 1.925,0.625 2.764,1.19 1.731,1.094 3.019,2.769 3.632,4.725 0.614,1.956 0.513,4.066 -0.283,5.955 h -5.024 v 2.733 h 6.699 l 0.385,-0.721 c 1.374,-2.538 1.736,-5.503 1.012,-8.297 -0.724,-2.795 -2.481,-5.21 -4.914,-6.759 -1.107,-0.694 -2.325,-1.193 -3.601,-1.475 -0.475,-0.099 -0.924,-0.3 -1.315,-0.59 -0.39,-0.289 -0.713,-0.66 -0.946,-1.087 -0.249,-0.497 -0.529,-0.979 -0.837,-1.442 -0.583,-0.837 -1.276,-1.593 -2.06,-2.247 -2.029,-1.673 -4.587,-2.57 -7.216,-2.53 -2.629,0.04 -5.158,1.014 -7.136,2.748 -0.285,0.252 -0.569,0.52 -0.821,0.788 -0.16,0.165 -0.334,0.316 -0.519,0.453 l -0.201,0.101 c -0.123,0.086 -0.258,0.154 -0.402,0.201 h -0.251 l -0.402,0.1 h -0.268 c -0.189,0.017 -0.38,0.017 -0.569,0 -0.452,-0.033 -0.905,-0.033 -1.357,0 h -0.703 -0.368 l -0.704,0.151 h -0.318 c -0.336,0.106 -0.665,0.229 -0.988,0.369 -0.665,0.296 -1.295,0.667 -1.876,1.107 -0.283,0.216 -0.551,0.452 -0.804,0.704 -1.348,1.361 -2.228,3.117 -2.512,5.013 -0.098,0.476 -0.299,0.926 -0.588,1.316 -0.289,0.391 -0.66,0.714 -1.086,0.948 -1.35,0.685 -2.555,1.625 -3.551,2.766 -1.295,1.526 -2.188,3.354 -2.595,5.315 -0.101,0.498 -0.168,1.002 -0.201,1.509 l -0.101,1.559 h 10.634 v -2.8 z"
           fill="#2d5967" />
        <path
           id="Union_2"
           fill-rule="evenodd"
           clip-rule="evenodd"
           d="m 442.48,360.025 h -20.967 v -48.086 h 20.967 z m -2.093,-46.057 h -16.848 v 2.716 h 16.848 z m -14.822,7.109 h -2.026 v 2.716 h 2.026 v 2.364 h 12.862 v -2.364 h 1.96 v -2.716 h -1.96 v -2.364 h -12.862 z m 14.822,7.109 h -16.848 v 2.699 h 16.848 z m 0,4.745 h -16.848 v 2.716 h 16.848 z"
           fill="#ffffff" />
        <path
           id="Vector_83"
           d="m 435.714,321.412 h -7.435 v 2.028 h 7.435 z"
           fill="#ffffff" />
        <path
           id="Vector_84"
           d="m 418.8,309.222 v 53.519 h 26.394 v -53.519 z m 23.68,50.802 h -20.967 v -48.086 h 20.967 z"
           fill="#2d5967" />
        <path
           id="Vector_85"
           d="M 440.454,313.967 H 423.54 v 2.716 h 16.914 z"
           fill="#2d5967" />
        <path
           id="Vector_86"
           d="m 425.566,326.157 h 12.862 v -2.364 h 1.959 v -2.717 h -1.959 v -2.364 h -12.862 v 2.364 h -2.026 v 2.717 h 2.026 z m 2.713,-4.745 h 7.436 v 2.045 h -7.436 z"
           fill="#2d5967" />
        <path
           id="Vector_87"
           d="M 440.454,328.186 H 423.54 v 2.716 h 16.914 z"
           fill="#2d5967" />
        <path
           id="Vector_88"
           d="M 440.454,332.93 H 423.54 v 2.716 h 16.914 z"
           fill="#2d5967" />
        <path
           id="Vector_89"
           d="m 436.971,341.369 -2.917,0.016 -1.907,4.834 -2.02,-4.818 h -2.934 l 3.227,7.081 -3.341,7.52 h 2.917 l 2.037,-5.209 2.184,5.193 2.934,-0.016 -3.374,-7.407 z"
           fill="#2d5967" />
      </g>
    </g>
    <g
       id="Icon Text Label_5">
      <text
         id="IconLabel_7"
         fill="#000000"
         style="white-space:pre"
         xml:space="preserve"
         font-family="'Oracle Sans'"
         font-size="16px"
         letter-spacing="0em"><tspan
           x="377.93799"
           y="381.81601"
           id="tspan27">Oracle Exadata</tspan></text>
      <text
         id="IconLabel_8"
         fill="#000000"
         style="white-space:pre"
         xml:space="preserve"
         font-family="'Oracle Sans'"
         font-size="16px"
         letter-spacing="0em"><tspan
           x="370.07001"
           y="397.81601"
           id="tspan28">Database Service</tspan></text>
    </g>
  </g>
  <path
     id="Vector 56"
     d="m 119.293,335.707 c 0.391,0.391 1.024,0.391 1.414,0 l 6.364,-6.364 c 0.391,-0.39 0.391,-1.024 0,-1.414 -0.39,-0.391 -1.023,-0.391 -1.414,0 l -5.657,5.657 -5.657,-5.657 c -0.39,-0.391 -1.023,-0.391 -1.414,0 -0.39,0.391 -0.39,1.024 0,1.414 z M 120,272 v -1 h -1 v 1 z m 346.707,0.707 c 0.391,-0.39 0.391,-1.024 0,-1.414 l -6.364,-6.364 c -0.39,-0.391 -1.024,-0.391 -1.414,0 -0.391,0.39 -0.391,1.024 0,1.414 l 5.657,5.657 -5.657,5.657 c -0.391,0.39 -0.391,1.024 0,1.414 0.39,0.391 1.024,0.391 1.414,0 z M 120,335 h 1 v -63 h -1 -1 v 63 z m 0,-63 v 1 h 346 v -1 -1 H 120 Z"
     fill="#312d2a" />
  <path
     id="Vector 62"
     d="m 149.293,390.707 c -0.391,-0.39 -0.391,-1.024 0,-1.414 l 6.364,-6.364 c 0.39,-0.391 1.024,-0.391 1.414,0 0.391,0.39 0.391,1.024 0,1.414 l -5.657,5.657 5.657,5.657 c 0.391,0.39 0.391,1.024 0,1.414 -0.39,0.391 -1.024,0.391 -1.414,0 z m 192.414,-1.414 c 0.391,0.39 0.391,1.024 0,1.414 l -6.364,6.364 c -0.39,0.391 -1.024,0.391 -1.414,0 -0.391,-0.39 -0.391,-1.024 0,-1.414 l 5.657,-5.657 -5.657,-5.657 c -0.391,-0.39 -0.391,-1.024 0,-1.414 0.39,-0.391 1.024,-0.391 1.414,0 z M 150,390 v -1 h 191 v 1 1 H 150 Z"
     fill="#312d2a" />
  <g
     id="Autonomous DB">
    <g
       id="Srv-Oracle Autonomous Database">
      <g
         id="Group 7">
        <path
           id="Vector_90"
           d="m 548.391,287.449 c -3.843,0 -7.562,-0.371 -10.289,-0.991 -3.595,-0.868 -5.454,-2.232 -5.454,-4.091 v -17.975 h -11.529 l 0.124,-1.86 c 0.372,-4.587 2.975,-8.554 7.066,-10.661 0.868,-0.496 1.487,-1.24 1.735,-2.231 0.62,-3.224 2.852,-5.951 5.827,-7.191 1.239,-0.495 2.603,-0.867 4.091,-0.867 0.248,0 0.619,0 0.991,0 0.124,0 0.248,0 0.372,0 0.868,0 1.736,-0.372 2.232,-0.992 2.107,-2.355 4.958,-3.719 8.058,-3.967 h 1.239 c 4.587,0.124 8.678,2.727 10.661,6.818 0.124,0.248 0.372,0.62 0.62,0.868 0.248,0.372 0.744,0.992 0.992,1.488 3.719,0.124 7.066,2.107 9.049,5.206 v 0.124 l 0.372,1.86 5.083,5.082 -2.479,2.48 -1.612,-1.612 c -0.992,5.207 -5.578,9.05 -11.033,9.05 -0.124,0 -0.372,0 -0.496,0 v 14.256 c 0,1.859 -1.735,3.223 -5.454,4.091 -2.604,0.744 -6.323,1.115 -10.166,1.115 z"
           fill="#ffffff" />
        <path
           id="Vector_91"
           d="m 552.36,237.244 c 4.462,0 8.429,2.479 10.413,6.446 0.248,0.372 0.372,0.744 0.744,0.992 0.247,0.372 0.743,1.116 1.115,1.612 3.719,0 7.066,1.983 8.926,4.958 l 0.496,1.984 4.834,4.835 -1.611,1.611 -2.108,-2.107 c -0.371,5.454 -4.958,9.793 -10.537,9.793 -0.372,0 -0.744,0 -1.115,-0.124 v 15 c 0,1.488 -1.612,2.727 -4.959,3.471 -2.727,0.62 -6.322,0.992 -10.165,0.992 -3.843,0 -7.438,-0.372 -10.166,-0.992 -3.347,-0.744 -4.958,-1.983 -4.958,-3.471 v -18.595 h -11.405 l 0.124,-1.24 c 0.372,-4.338 2.851,-8.181 6.694,-10.165 0.992,-0.372 1.735,-1.364 1.983,-2.479 0.62,-2.975 2.604,-5.579 5.455,-6.818 1.24,-0.496 2.479,-0.744 3.843,-0.744 0.248,0 0.62,0 0.868,0 0.124,0 0.248,0 0.371,0 0.992,0 1.984,-0.372 2.728,-1.116 2.107,-2.355 5.082,-3.595 8.182,-3.719 v 1.116 -1.116 c 0,-0.124 0.124,-0.124 0.248,-0.124 z m 0.867,-1.24 h -1.239 -1.24 v 0.124 c -2.975,0.372 -5.827,1.736 -7.934,3.967 -0.372,0.62 -0.992,0.868 -1.735,0.868 -0.124,0 -0.124,0 -0.248,0 -0.372,0 -0.62,0 -0.992,0 -1.488,0 -2.975,0.372 -4.339,0.868 -3.223,1.363 -5.455,4.215 -6.198,7.686 -0.124,0.744 -0.62,1.487 -1.364,1.859 -4.215,2.232 -6.942,6.447 -7.314,11.157 l -0.124,1.24 v 1.24 h 1.364 10.165 v 17.355 c 0,3.223 4.463,4.339 5.95,4.711 2.852,0.62 6.571,0.992 10.414,0.992 3.967,0 7.562,-0.372 10.413,-0.992 1.487,-0.372 5.95,-1.364 5.95,-4.711 v -13.636 c 5.207,0 9.794,-3.595 11.157,-8.554 l 0.372,0.372 0.868,0.868 0.868,-0.868 1.611,-1.612 0.868,-0.867 -0.868,-0.868 -4.587,-4.587 -0.371,-1.612 v -0.248 l -0.124,-0.124 c -1.984,-3.223 -5.455,-5.33 -9.298,-5.578 -0.248,-0.372 -0.62,-0.868 -0.744,-1.116 v -0.124 l -0.124,-0.124 c -0.124,0 -0.372,-0.248 -0.496,-0.496 -1.983,-4.214 -6.074,-6.818 -10.661,-7.19 z"
           fill="#ffffff" />
        <path
           id="Vector_92"
           d="m 524.343,261.541 h 7.19 v 2.232 h -9.67 l 0.124,-1.24 c 0.372,-4.339 2.851,-8.182 6.694,-10.165 0.992,-0.496 1.736,-1.488 1.984,-2.604 0.62,-2.975 2.603,-5.578 5.454,-6.818 1.364,-0.744 2.976,-0.992 4.587,-0.744 1.24,0.124 2.356,-0.248 3.099,-1.115 2.108,-2.356 5.083,-3.595 8.182,-3.719 0.124,0 0.248,0 0.248,0 4.463,0 8.43,2.479 10.413,6.446 0.248,0.372 0.372,0.744 0.744,0.992 -0.868,0.124 -1.735,0.248 -2.479,0.496 -0.124,-0.124 -0.124,-0.248 -0.248,-0.496 -1.612,-3.223 -4.835,-5.207 -8.43,-5.207 -0.124,0 -0.124,0 -0.248,0 -2.479,0 -4.958,1.116 -6.694,2.975 -1.24,1.364 -3.099,2.108 -4.959,1.86 -1.239,-0.124 -2.355,0.124 -3.595,0.62 -2.107,0.991 -3.719,2.851 -4.091,5.206 -0.371,1.86 -1.487,3.347 -3.223,4.215 -2.603,1.364 -4.463,3.967 -5.082,7.066 z m 39.173,-10.661 h 2.232 l 3.099,11.033 h -2.48 l -0.371,-2.355 h -2.728 l -0.62,2.355 h -2.355 z m 0.124,6.818 h 1.86 l -0.992,-4.091 z m -9.545,-1.487 -2.108,-2.108 -1.611,1.612 4.834,4.834 4.835,-4.834 -1.611,-1.612 -1.984,1.984 c 0.372,-4.215 3.967,-7.438 8.182,-7.438 3.099,0 5.826,1.735 7.314,4.339 l 1.611,-1.612 c -1.859,-2.975 -5.206,-4.959 -8.925,-4.959 -5.579,0 -10.165,4.339 -10.537,9.794 z m 24.793,1.859 -4.835,-4.711 -4.834,4.835 1.611,1.612 1.984,-1.984 c -0.372,4.215 -3.967,7.438 -8.182,7.438 -3.099,0 -5.827,-1.735 -7.314,-4.339 l -1.612,1.612 c 1.86,2.975 5.207,4.959 8.926,4.959 5.578,0 10.165,-4.339 10.537,-9.794 l 2.107,2.108 z m -17.727,10.909 c 0.744,0.248 1.487,0.372 2.231,0.496 v 13.017 c 0,1.487 -1.611,2.727 -4.958,3.471 -2.728,0.62 -6.323,0.991 -10.166,0.991 -3.843,0 -7.438,-0.371 -10.165,-0.991 -3.347,-0.744 -4.959,-1.984 -4.959,-3.471 V 258.07 c 0,-1.487 1.612,-2.603 4.959,-3.347 2.603,-0.62 6.198,-0.868 10.165,-0.868 0.124,0 0.372,0 0.62,0 v 2.232 c -0.124,0 -0.372,0 -0.62,0 -8.182,0 -12.272,1.363 -12.768,2.107 v 0.124 c 0.496,0.868 5.206,2.231 12.768,2.231 1.612,0 2.975,0 4.339,-0.123 0.248,0.743 0.496,1.487 0.868,2.231 -1.612,0.124 -3.347,0.248 -5.207,0.248 -3.843,0 -7.438,-0.372 -10.165,-0.992 -1.116,-0.248 -1.984,-0.496 -2.727,-0.868 v 5.331 c 0.496,0.868 5.206,2.231 12.768,2.231 4.215,0 7.562,-0.496 9.794,-0.991 1.115,0.495 2.107,0.991 3.223,1.363 -0.744,0.372 -1.612,0.62 -2.727,0.868 -2.728,0.62 -6.323,0.992 -10.166,0.992 -3.843,0 -7.438,-0.372 -10.165,-0.992 -1.116,-0.248 -1.984,-0.496 -2.727,-0.868 v 5.331 c 0.496,0.868 5.206,2.231 12.768,2.231 7.562,0 12.273,-1.487 12.769,-2.231 z m 0,8.058 c -0.744,0.372 -1.612,0.62 -2.727,0.868 -2.728,0.62 -6.323,0.992 -10.166,0.992 -3.843,0 -7.438,-0.372 -10.165,-0.992 -1.116,-0.248 -1.984,-0.496 -2.727,-0.868 v 5.331 c 0.496,0.743 4.71,2.231 12.768,2.231 8.058,0 12.397,-1.611 12.769,-2.231 z"
           fill="#2d5967" />
      </g>
    </g>
    <g
       id="Icon Text Label_6">
      <text
         id="IconLabel_9"
         fill="#000000"
         style="white-space:pre"
         xml:space="preserve"
         font-family="'Oracle Sans'"
         font-size="16px"
         letter-spacing="0em"><tspan
           x="478.42999"
           y="305.81601"
           id="tspan29">Oracle Autonomous</tspan></text>
      <text
         id="IconLabel_10"
         fill="#000000"
         style="white-space:pre"
         xml:space="preserve"
         font-family="'Oracle Sans'"
         font-size="16px"
         letter-spacing="0em"><tspan
           x="507.35199"
           y="321.81601"
           id="tspan30">AI Database</tspan></text>
    </g>
  </g>
  <g
     id="Autonomous Recovery Service">
    <g
       id="Server-Process">
      <g
         id="Group_22">
        <g
           id="Group_23">
          <g
             id="Group_24">
            <path
               id="Vector_93"
               d="m 527.88,439.286 v -2.373 l 2.74,-1.367 v -54.832 h 29.376 v 29.789 h 2.469 l 0.33,2.971 2.334,-1.868 6.218,6.221 -1.866,2.336 2.97,0.331 v 8.799 l -2.97,0.33 1.866,2.336 -6.218,6.222 -2.334,-1.868 -0.33,2.973 z"
               fill="#ffffff" />
            <path
               id="Vector_94"
               d="m 559.282,381.429 v 29.787 h 2.543 l 0.372,3.334 c 0.087,0.036 0.175,0.071 0.261,0.109 l 2.618,-2.096 5.316,5.318 -2.094,2.62 c 0.037,0.088 0.074,0.175 0.108,0.262 l 3.333,0.371 v 7.522 l -3.333,0.371 c -0.034,0.087 -0.071,0.174 -0.108,0.262 l 2.094,2.618 -5.316,5.319 -2.618,-2.096 c -0.087,0.037 -0.174,0.074 -0.261,0.109 l -0.372,3.332 h -2.543 -1.519 -0.797 -2.657 -22.976 -0.303 -2.436 v -1.215 l 2.436,-1.216 h 0.304 V 381.429 Z M 560.71,380 h -1.428 -27.949 -1.428 v 1.429 53.675 l -1.949,0.973 -0.789,0.394 v 0.885 1.215 1.429 h 1.427 2.436 0.303 22.976 2.657 0.797 1.519 2.543 1.278 l 0.142,-1.271 0.117,-1.049 0.822,0.659 0.998,0.798 0.904,-0.904 5.316,-5.319 0.904,-0.904 -0.799,-0.999 -0.658,-0.822 1.048,-0.118 1.27,-0.141 v -1.279 -7.521 -1.279 l -1.27,-0.141 -1.048,-0.117 0.658,-0.823 0.799,-0.999 -0.906,-0.9 -5.315,-5.318 -0.904,-0.904 -0.998,0.798 -0.823,0.659 -0.117,-1.049 -0.141,-1.271 h -1.278 -1.115 v -28.357 z"
               fill="#ffffff" />
          </g>
          <g
             id="Group_25">
            <path
               id="Vector_95"
               d="m 553.51,391.763 h -14.581 v 2.431 h -2.431 v 2.432 h 2.43 v 2.431 h 14.582 v -2.431 h 2.43 v -2.432 h -2.43 z m -2.43,4.863 h -9.721 v -2.432 h 9.722 v 2.432 z"
               fill="#2d5967" />
            <path
               id="Vector_96"
               d="m 555.94,387.506 h -19.442 v 2.432 h 19.442 z"
               fill="#2d5967" />
            <path
               id="Vector_97"
               d="m 555.94,400.881 h -19.442 v 2.432 h 19.442 z"
               fill="#2d5967" />
            <path
               id="Vector_98"
               d="m 535.586,432.492 h 8.165 l -0.45,-0.451 1.018,-1.274 0.211,-0.263 -0.335,-0.037 -1.621,-0.182 v -0.224 h -6.988 z"
               fill="#2d5967" />
            <path
               id="Vector_99"
               d="m 542.574,425.806 h -6.988 v 2.431 h 6.988 z"
               fill="#2d5967" />
            <path
               id="Vector_100"
               d="m 535.586,423.981 h 6.988 v -2.431 h -4.557 v -3.647 h 5.41 l -0.126,-0.158 1.154,-1.154 1.119,-1.12 h -9.988 z"
               fill="#2d5967" />
            <path
               id="Vector_101"
               d="m 536.498,405.137 v 8.51 h 10.898 l 2.373,-2.375 0.059,-0.057 h -10.899 v -3.647 h 14.581 v 1.823 h 0.798 1.632 v -4.254 z"
               fill="#2d5967" />
            <path
               id="Vector_102"
               d="m 547.396,436.14 h -13.632 v -52.28 h 23.088 v 25.531 h 2.43 v -27.963 h -27.949 v 54.712 h -0.303 l -2.436,1.215 v 1.216 h 2.436 0.303 18.494 l -0.058,-0.057 z"
               fill="#2d5967" />
            <path
               id="Vector_103"
               d="m 568.296,420.5 2.095,-2.62 -5.316,-5.319 -2.619,2.096 c -0.087,-0.037 -0.174,-0.074 -0.261,-0.108 l -0.371,-3.335 h -7.518 l -0.371,3.335 c -0.087,0.035 -0.175,0.071 -0.261,0.108 l -2.619,-2.096 -5.316,5.319 2.095,2.62 c -0.037,0.087 -0.074,0.174 -0.108,0.261 l -3.333,0.372 v 7.521 l 3.333,0.372 c 0.035,0.087 0.071,0.174 0.108,0.261 l -2.095,2.62 5.316,5.319 2.619,-2.096 c 0.087,0.037 0.174,0.074 0.261,0.109 l 0.373,3.332 h 3.455 1.519 2.543 l 0.372,-3.334 c 0.087,-0.036 0.175,-0.071 0.261,-0.108 l 2.618,2.095 5.316,-5.318 -2.094,-2.62 c 0.037,-0.087 0.074,-0.175 0.108,-0.262 l 3.333,-0.371 v -7.522 l -3.333,-0.371 c -0.036,-0.086 -0.071,-0.173 -0.11,-0.26 z m 1.011,5.977 -2.707,0.302 -0.239,0.752 c -0.148,0.469 -0.338,0.926 -0.565,1.363 l -0.364,0.702 1.703,2.13 -2.238,2.24 -2.129,-1.705 -0.701,0.365 c -0.436,0.225 -0.894,0.415 -1.361,0.565 l -0.753,0.239 -0.301,2.709 h -1.887 -0.911 -0.369 l -0.301,-2.709 -0.752,-0.239 c -0.469,-0.148 -0.926,-0.338 -1.361,-0.565 l -0.701,-0.365 -2.129,1.705 -2.239,-2.24 1.702,-2.13 -0.364,-0.702 c -0.226,-0.435 -0.416,-0.894 -0.565,-1.363 l -0.239,-0.752 -2.707,-0.302 v -3.168 l 2.707,-0.302 0.239,-0.753 c 0.148,-0.468 0.338,-0.925 0.565,-1.363 l 0.364,-0.701 -1.702,-2.13 2.239,-2.24 2.129,1.704 0.701,-0.364 c 0.435,-0.226 0.894,-0.416 1.361,-0.566 l 0.752,-0.238 0.301,-2.709 h 3.167 l 0.301,2.709 0.753,0.238 c 0.468,0.149 0.925,0.339 1.361,0.566 l 0.701,0.364 2.129,-1.704 2.238,2.24 -1.703,2.131 0.364,0.702 c 0.226,0.436 0.416,0.894 0.565,1.363 l 0.239,0.753 2.707,0.301 z"
               fill="#2d5967" />
            <path
               id="Vector_104"
               d="m 558.067,418.117 c -3.685,0 -6.683,3 -6.683,6.687 0,3.687 2.998,6.687 6.683,6.687 3.686,0 6.684,-3 6.684,-6.687 0,-3.687 -2.998,-6.687 -6.684,-6.687 z m 0,10.941 c -2.344,0 -4.253,-1.908 -4.253,-4.256 0,-2.347 1.907,-4.255 4.253,-4.255 2.345,0 4.254,1.908 4.254,4.255 0,2.348 -1.909,4.256 -4.254,4.256 z"
               fill="#2d5967" />
          </g>
        </g>
      </g>
    </g>
    <g
       id="Icon Text Label_7">
      <text
         id="IconLabel_11"
         fill="#000000"
         style="white-space:pre"
         xml:space="preserve"
         font-family="'Oracle Sans'"
         font-size="16px"
         letter-spacing="0em"><tspan
           x="491.71899"
           y="457.81601"
           id="tspan31">Oracle Database</tspan></text>
      <text
         id="IconLabel_12"
         fill="#000000"
         style="white-space:pre"
         xml:space="preserve"
         font-family="'Oracle Sans'"
         font-size="16px"
         letter-spacing="0em"><tspan
           x="503.453"
           y="473.81601"
           id="tspan32">Autonomous </tspan></text>
      <text
         id="IconLabel_13"
         fill="#000000"
         style="white-space:pre"
         xml:space="preserve"
         font-family="'Oracle Sans'"
         font-size="16px"
         letter-spacing="0em"><tspan
           x="489.19501"
           y="489.81601"
           id="tspan33">Recovery Service</tspan></text>
    </g>
  </g>
</svg>
