<svg width="385" height="569" viewBox="0 0 385 569" fill="none" xmlns="http://www.w3.org/2000/svg">
<g id="exadata-dedicated-recovery-backup-architecture" clip-path="url(#clip0_9369_208504)">
<rect width="385" height="569" fill="white"/>
<g id="Group 1237">
<g id="OCI Region">
<rect x="0.5" y="0.5" width="384" height="568" rx="3.5" fill="#F5F4F2"/>
<text id="OCI Region_2" fill="#312D2A" xml:space="preserve" style="white-space: pre" font-family="Oracle Sans" font-size="16" font-weight="bold" letter-spacing="0em"><tspan x="8" y="21.816">OCI Region</tspan></text>
<rect x="0.5" y="0.5" width="384" height="568" rx="3.5" stroke="#9E9892"/>
</g>
<g id="VCN box_New">
<rect id="Rectangle 28" x="29" y="42.9575" width="346" height="309" stroke="#AA643B" stroke-width="2" stroke-dasharray="8 4"/>
<g id="Icon Master">
<g id="Virtual-Cloud-Network-VCN_red">
<g id="Group 39">
<path id="Vector" d="M354.416 65.5102C353.16 65.5097 351.944 65.077 350.969 64.285C349.995 63.4929 349.323 62.3896 349.066 61.1603H342.595C342.408 62.0545 342 62.8874 341.408 63.5832C340.816 64.2791 340.06 64.8156 339.208 65.1439C338.356 65.4721 337.435 65.5817 336.53 65.4626C335.625 65.3435 334.764 64.9995 334.026 64.4619C333.287 63.9244 332.695 63.2104 332.304 62.3852C331.912 61.56 331.733 60.6498 331.783 59.7376C331.833 58.8254 332.111 57.9403 332.59 57.163C333.07 56.3857 333.737 55.7409 334.529 55.2875L332.533 49.1411C332.336 49.1547 332.138 49.1547 331.941 49.1411C331.053 49.1431 330.179 48.9289 329.392 48.5169C328.606 48.105 327.931 47.5077 327.427 46.7766C326.923 46.0456 326.605 45.2028 326.499 44.3209C326.393 43.4391 326.504 42.5448 326.821 41.7152C327.138 40.8857 327.652 40.1458 328.319 39.5595C328.986 38.9733 329.785 38.5582 330.648 38.3502C331.511 38.1422 332.411 38.1475 333.272 38.3657C334.132 38.5838 334.927 39.0083 335.586 39.6024L340.845 35.8726C340.527 35.1674 340.363 34.4028 340.362 33.6293C340.362 32.1781 340.938 30.7864 341.964 29.7603C342.989 28.7342 344.38 28.1577 345.83 28.1577C347.281 28.1577 348.672 28.7342 349.697 29.7603C350.723 30.7864 351.299 32.1781 351.299 33.6293C351.301 34.4021 351.139 35.1667 350.825 35.8726L356.093 39.6389C357.088 38.7257 358.388 38.2182 359.738 38.2163C361.188 38.2163 362.579 38.7927 363.605 39.8188C364.63 40.845 365.206 42.2367 365.206 43.6878C365.206 45.139 364.63 46.5307 363.605 47.5568C362.579 48.5829 361.188 49.1594 359.738 49.1594C359.547 49.1594 359.346 49.1594 359.155 49.1594L357.15 55.3058C358.199 55.9051 359.02 56.8351 359.485 57.9505C359.95 59.0659 360.032 60.304 359.72 61.4714C359.408 62.6389 358.718 63.6701 357.759 64.404C356.799 65.1379 355.623 65.5333 354.416 65.5284V65.5102Z" fill="white"/>
<path id="Vector_2" d="M345.84 28.577C346.707 28.579 347.56 28.8059 348.314 29.2356C349.068 29.6653 349.697 30.2832 350.142 31.029C350.586 31.7748 350.829 32.623 350.849 33.491C350.868 34.359 350.662 35.2172 350.251 35.9818L356.093 40.2314C356.665 39.6323 357.377 39.1844 358.164 38.9277C358.951 38.6711 359.79 38.6137 360.605 38.7607C361.42 38.9076 362.186 39.2544 362.835 39.7699C363.483 40.2855 363.994 40.9538 364.321 41.715C364.648 42.4763 364.782 43.3068 364.71 44.1324C364.638 44.958 364.363 45.7529 363.909 46.446C363.455 47.1391 362.836 47.7089 362.109 48.1043C361.381 48.4998 360.566 48.7087 359.738 48.7123C359.433 48.7165 359.128 48.6921 358.827 48.6393L356.594 55.5244C357.375 55.9013 358.045 56.4746 358.538 57.1881C359.032 57.9016 359.332 58.7309 359.409 59.5951C359.486 60.4593 359.338 61.3288 358.979 62.1186C358.62 62.9084 358.062 63.5915 357.36 64.1011C356.659 64.6107 355.837 64.9295 354.975 65.0262C354.113 65.123 353.241 64.9944 352.444 64.653C351.647 64.3116 350.952 63.7692 350.427 63.0786C349.902 62.3881 349.565 61.5731 349.449 60.7132H342.212C342.095 61.5731 341.757 62.388 341.231 63.078C340.706 63.7681 340.01 64.3099 339.212 64.6503C338.414 64.9908 337.542 65.1183 336.68 65.0204C335.818 64.9225 334.996 64.6025 334.295 64.0918C333.594 63.581 333.037 62.897 332.679 62.1065C332.322 61.316 332.175 60.4461 332.253 59.5818C332.332 58.7176 332.634 57.8885 333.128 57.1758C333.623 56.463 334.294 55.8908 335.076 55.5153L332.843 48.6393C332.543 48.6952 332.237 48.7226 331.932 48.7214C331.101 48.7199 330.284 48.5123 329.553 48.1171C328.822 47.7219 328.201 47.1515 327.745 46.457C327.289 45.7626 327.011 44.9657 326.939 44.1378C326.866 43.3099 326.999 42.4768 327.327 41.7132C327.655 40.9496 328.167 40.2793 328.817 39.7623C329.468 39.2453 330.236 38.8979 331.054 38.751C331.871 38.6042 332.712 38.6626 333.502 38.9209C334.291 39.1793 335.005 39.6295 335.577 40.2314L341.419 35.9818C341.008 35.2165 340.802 34.3575 340.821 33.4887C340.841 32.62 341.085 31.7711 341.531 31.0251C341.976 30.279 342.607 29.6613 343.362 29.2322C344.118 28.8032 344.971 28.5774 345.84 28.577ZM345.84 27.665C344.268 27.665 342.76 28.2893 341.647 29.4006C340.535 30.512 339.909 32.0196 339.906 33.5926C339.906 34.3062 340.035 35.014 340.289 35.6809L335.632 39.055C334.891 38.4637 334.019 38.0587 333.089 37.8739C332.16 37.6891 331.199 37.7298 330.288 37.9927C329.378 38.2556 328.543 38.733 327.855 39.385C327.166 40.0369 326.644 40.8444 326.332 41.7398C326.019 42.6353 325.926 43.5926 326.059 44.5316C326.192 45.4706 326.548 46.364 327.098 47.1369C327.647 47.9099 328.373 48.5399 329.216 48.9742C330.059 49.4086 330.993 49.6346 331.941 49.6333H332.205L334.028 55.1049C333.23 55.6331 332.572 56.3468 332.11 57.185C331.648 58.0231 331.396 58.9608 331.375 59.9178C331.354 60.8748 331.564 61.8226 331.989 62.6803C332.414 63.5379 333.04 64.2799 333.814 64.8427C334.588 65.4055 335.486 65.7725 336.433 65.9122C337.379 66.0518 338.345 65.9601 339.249 65.6448C340.152 65.3295 340.965 64.8 341.62 64.1016C342.274 63.4031 342.749 62.5566 343.005 61.6343H348.747C349.001 62.5599 349.476 63.41 350.13 64.1118C350.784 64.8136 351.599 65.3461 352.504 65.6638C353.41 65.9815 354.378 66.0748 355.328 65.9357C356.277 65.7967 357.178 65.4294 357.954 64.8654C358.73 64.3014 359.358 63.5575 359.784 62.6974C360.21 61.8374 360.421 60.8868 360.4 59.9272C360.378 58.9676 360.124 58.0275 359.66 57.1877C359.195 56.3478 358.534 55.6331 357.733 55.1049L359.556 49.6333H359.738C360.544 49.6781 361.35 49.5579 362.108 49.2802C362.865 49.0026 363.558 48.5732 364.144 48.0184C364.73 47.4636 365.197 46.795 365.516 46.0535C365.835 45.312 366 44.5131 366 43.7058C366 42.8985 365.835 42.0997 365.516 41.3582C365.197 40.6167 364.73 39.9481 364.144 39.3933C363.558 38.8384 362.865 38.4091 362.108 38.1314C361.35 37.8537 360.544 37.7336 359.738 37.7783C358.396 37.775 357.093 38.232 356.047 39.0732L351.399 35.6991C351.646 35.0305 351.772 34.3235 351.773 33.6108C351.774 32.8304 351.621 32.0575 351.324 31.3361C351.026 30.6148 350.589 29.9593 350.038 29.4071C349.487 28.8548 348.833 28.4167 348.112 28.1178C347.392 27.8189 346.619 27.665 345.84 27.665V27.665Z" fill="white"/>
<path id="Vector_3" d="M359.739 38.6709C359.057 38.6691 358.382 38.8065 357.755 39.0746C357.128 39.3428 356.563 39.736 356.093 40.2303L350.251 35.9807C350.665 35.2153 350.874 34.3554 350.856 33.4851C350.838 32.6149 350.595 31.7642 350.15 31.0164C349.705 30.2685 349.073 29.6493 348.317 29.2192C347.56 28.7891 346.705 28.563 345.835 28.563C344.966 28.563 344.111 28.7891 343.354 29.2192C342.598 29.6493 341.966 30.2685 341.521 31.0164C341.076 31.7642 340.832 32.6149 340.815 33.4851C340.797 34.3554 341.005 35.2153 341.42 35.9807L335.569 40.2303C334.996 39.6333 334.284 39.1875 333.497 38.9327C332.709 38.6779 331.871 38.622 331.058 38.77C330.244 38.918 329.479 39.2653 328.832 39.7809C328.184 40.2965 327.675 40.9643 327.348 41.7249C327.022 42.4855 326.888 43.3151 326.96 44.1398C327.032 44.9644 327.306 45.7585 327.759 46.4512C328.212 47.1439 328.83 47.7136 329.556 48.1095C330.283 48.5054 331.096 48.7153 331.923 48.7203C332.229 48.7216 332.534 48.6941 332.835 48.6383L335.067 55.5051C334.286 55.8806 333.614 56.4528 333.12 57.1656C332.625 57.8783 332.323 58.7074 332.245 59.5716C332.166 60.4359 332.313 61.3058 332.671 62.0963C333.029 62.8868 333.585 63.5708 334.287 64.0816C334.988 64.5923 335.809 64.9123 336.671 65.0102C337.533 65.1081 338.405 64.9806 339.203 64.6401C340.001 64.2997 340.697 63.7579 341.223 63.0678C341.749 62.3778 342.087 61.5629 342.204 60.703H349.44C349.556 61.5629 349.893 62.3779 350.418 63.0684C350.943 63.759 351.638 64.3014 352.435 64.6428C353.233 64.9841 354.105 65.1127 354.966 65.016C355.828 64.9193 356.65 64.6005 357.352 64.0909C358.054 63.5813 358.611 62.8982 358.97 62.1084C359.329 61.3186 359.477 60.4491 359.4 59.5849C359.323 58.7207 359.023 57.8914 358.53 57.1779C358.036 56.4644 357.366 55.8911 356.585 55.5142L358.827 48.6383C359.128 48.6941 359.433 48.7216 359.739 48.7203C360.422 48.7616 361.107 48.6625 361.751 48.4291C362.395 48.1957 362.985 47.8329 363.483 47.3632C363.982 46.8934 364.379 46.3265 364.651 45.6973C364.923 45.0682 365.063 44.3901 365.063 43.7047C365.063 43.0194 364.923 42.3413 364.651 41.7121C364.379 41.083 363.982 40.5161 363.483 40.0463C362.985 39.5765 362.395 39.2138 361.751 38.9804C361.107 38.747 360.422 38.6479 359.739 38.6891V38.6709ZM354.416 63.7124C353.695 63.7124 352.99 63.4985 352.391 63.0976C351.791 62.6968 351.324 62.1271 351.048 61.4606C350.772 60.7941 350.7 60.0606 350.841 59.3531C350.981 58.6455 351.328 57.9955 351.838 57.4854C352.348 56.9752 352.998 56.6278 353.705 56.4871C354.412 56.3463 355.145 56.4186 355.811 56.6946C356.477 56.9707 357.047 57.4383 357.447 58.0381C357.848 58.638 358.062 59.3432 358.062 60.0647C358.062 61.0321 357.678 61.9599 356.994 62.644C356.31 63.3281 355.383 63.7124 354.416 63.7124ZM342.213 59.3625C342.063 58.2302 341.529 57.1838 340.7 56.3987L343.434 52.5778C344.167 52.9668 344.983 53.1703 345.813 53.1705C346.639 53.1734 347.454 52.9696 348.182 52.5778L350.916 56.3987C350.085 57.1829 349.547 58.2292 349.394 59.3625H342.213ZM333.564 60.0373C333.564 59.3159 333.777 58.6106 334.178 58.0108C334.579 57.4109 335.148 56.9434 335.814 56.6673C336.48 56.3912 337.213 56.319 337.92 56.4597C338.628 56.6005 339.277 56.9479 339.787 57.458C340.297 57.9681 340.644 58.6181 340.785 59.3257C340.925 60.0333 340.853 60.7667 340.577 61.4332C340.301 62.0998 339.834 62.6695 339.235 63.0703C338.635 63.4711 337.93 63.685 337.209 63.685C336.242 63.685 335.315 63.3007 334.631 62.6166C333.948 61.9326 333.564 61.0048 333.564 60.0373ZM331.941 40.0205C332.662 40.0205 333.367 40.2345 333.967 40.6353C334.566 41.0361 335.033 41.6058 335.309 42.2723C335.585 42.9389 335.658 43.6723 335.517 44.3799C335.376 45.0875 335.029 45.7374 334.519 46.2476C334.009 46.7577 333.36 47.1051 332.653 47.2459C331.945 47.3866 331.212 47.3144 330.546 47.0383C329.88 46.7622 329.311 46.2947 328.91 45.6948C328.51 45.0949 328.296 44.3897 328.296 43.6683C328.296 42.7008 328.68 41.773 329.364 41.0889C330.047 40.4049 330.974 40.0205 331.941 40.0205ZM342.158 33.6371C342.158 32.9156 342.372 32.2104 342.772 31.6105C343.173 31.0106 343.742 30.5431 344.408 30.267C345.075 29.9909 345.808 29.9187 346.515 30.0595C347.222 30.2002 347.871 30.5476 348.381 31.0577C348.891 31.5679 349.238 32.2178 349.379 32.9254C349.52 33.633 349.447 34.3665 349.172 35.033C348.896 35.6995 348.428 36.2692 347.829 36.67C347.229 37.0708 346.525 37.2848 345.804 37.2848C345.321 37.2848 344.843 37.189 344.398 37.0028C343.953 36.8167 343.549 36.5439 343.209 36.2003C342.87 35.8567 342.603 35.4492 342.422 35.0014C342.242 34.5536 342.152 34.0743 342.158 33.5915V33.6371ZM354.79 44.5802L350.37 45.9937C350.009 45.2393 349.468 44.5862 348.794 44.0928C348.119 43.5994 347.333 43.2812 346.505 43.1667V38.6071C347.634 38.4568 348.677 37.9222 349.458 37.0933L355.318 41.3428C354.922 42.0733 354.715 42.8917 354.717 43.723C354.719 44.0071 354.743 44.2907 354.79 44.5711V44.5802ZM349.513 48.164C349.513 48.8855 349.299 49.5907 348.898 50.1906C348.498 50.7905 347.929 51.258 347.262 51.5341C346.596 51.8102 345.863 51.8824 345.156 51.7417C344.449 51.6009 343.799 51.2535 343.29 50.7434C342.78 50.2332 342.432 49.5833 342.292 48.8757C342.151 48.1681 342.223 47.4347 342.499 46.7681C342.775 46.1016 343.242 45.5319 343.842 45.1311C344.441 44.7303 345.146 44.5163 345.867 44.5163C346.833 44.5163 347.758 44.8994 348.442 45.5815C349.125 46.2636 349.51 47.1891 349.513 48.1549V48.164ZM345.156 38.6071V43.1667C344.331 43.2794 343.546 43.596 342.873 44.0879C342.2 44.5798 341.66 45.2316 341.301 45.9845L336.872 44.5711C336.929 44.2705 336.956 43.9651 336.954 43.6591C336.946 42.8505 336.743 42.0557 336.362 41.3428L342.213 37.0841C342.99 37.9146 344.03 38.4523 345.156 38.6071ZM336.462 45.9025L340.891 47.316C340.835 47.6166 340.807 47.922 340.809 48.2279C340.806 48.9111 340.943 49.5876 341.213 50.2152C341.483 50.8428 341.879 51.408 342.377 51.8756L339.643 55.7057C338.915 55.3099 338.101 55.103 337.273 55.1038C336.967 55.102 336.662 55.1294 336.362 55.1859L334.12 48.2188C335.142 47.7343 335.971 46.918 336.471 45.9025H336.462ZM354.416 55.0217C353.59 55.023 352.776 55.2265 352.047 55.6145L349.312 51.8026C349.808 51.3337 350.203 50.7682 350.473 50.1409C350.743 49.5136 350.881 48.8378 350.88 48.1549C350.882 47.849 350.855 47.5436 350.798 47.243L355.182 45.8478C355.678 46.8791 356.506 47.7139 357.533 48.2188L355.3 55.0947C355.008 55.0436 354.712 55.0192 354.416 55.0217ZM356.093 43.6956C356.093 42.9742 356.307 42.2689 356.707 41.6691C357.108 41.0692 357.677 40.6017 358.343 40.3256C359.01 40.0495 359.743 39.9772 360.45 40.118C361.157 40.2587 361.807 40.6062 362.316 41.1163C362.826 41.6264 363.173 42.2764 363.314 42.984C363.455 43.6916 363.383 44.425 363.107 45.0915C362.831 45.7581 362.363 46.3278 361.764 46.7286C361.164 47.1294 360.46 47.3433 359.739 47.3433C358.772 47.3433 357.844 46.959 357.161 46.2749C356.477 45.5908 356.093 44.663 356.093 43.6956Z" fill="#AA643B"/>
</g>
</g>
</g>
<text id="VCN" fill="#AE562C" xml:space="preserve" style="white-space: pre" font-family="Oracle Sans" font-size="16" font-weight="600" letter-spacing="0em"><tspan x="37" y="64.816">VCN</tspan></text>
</g>
<g id="Subnet_New">
<text id="Subnet" fill="#AE562C" xml:space="preserve" style="white-space: pre" font-family="Oracle Sans" font-size="16" font-weight="600" letter-spacing="0em"><tspan x="65" y="107.816">Client</tspan></text>
<text id="Subnet_2" fill="#AE562C" xml:space="preserve" style="white-space: pre" font-family="Oracle Sans" font-size="16" font-weight="600" letter-spacing="0em"><tspan x="65" y="123.816">Subnet</tspan></text>
<g id="Icon Master_2">
<g id="OCI-SL_RT">
<g id="Group">
<g id="Group_2">
<path id="Vector_4" d="M317.476 105.519V79.0769H334.238V71.2884L345.476 66.4807L356.619 71.2884V81.4807C356.619 81.5769 356.619 84.0769 355.19 87.0576C353.952 89.7499 351.381 93.4038 345.857 95.423V105.423H317.476V105.519Z" fill="white"/>
<path id="Vector_5" d="M345.381 67.0577L356.048 71.5769V81.4808C356.048 81.5769 356.048 83.9808 354.714 86.8654C353.476 89.5577 351 93.1154 345.667 95.0385L345.476 95.1346H345.381V105.038H317.952V79.5577H334.714V71.5769L345.381 67.0577ZM345.381 66L345 66.1923L334.333 70.7115L333.762 71V71.6731V78.6923H317.952H317V79.6538V105.038V106H317.952H345.381H346.333V105.038V95.8077C351.667 93.6923 354.333 90.0385 355.571 87.25C357 84.1731 357 81.5769 357 81.4808V71.5769V71L356.429 70.7115L345.762 66.1923L345.381 66Z" fill="white"/>
</g>
<g id="Group_3">
<path id="Vector_6" d="M344.048 95.712H326.524V88.9813H336.048C335.762 88.5005 335.571 88.1159 335.381 87.7313H326.524V81.0005H333.667V79.7505H317.952V105.135H345.381V96.2889L344.905 96.0966C344.619 95.9043 344.333 95.8082 344.048 95.712ZM319.19 80.9043H325.286V87.6351H319.19V80.9043ZM325.286 88.8851V95.6159H319.19V88.8851H325.286ZM319.19 96.962H325.286V103.693H319.19V96.962ZM344.048 103.693H326.524V96.962H344.048V103.693Z" fill="#AA643B"/>
<path id="Vector_7" d="M342.619 101.193H341.381V102.443H342.619V101.193Z" fill="#AA643B"/>
<path id="Vector_8" d="M337.381 102.442L338.524 101.289L339.667 102.442L340.524 101.481L339.381 100.327L340.524 99.1732L339.667 98.3079L338.524 99.4617L337.381 98.3079L336.428 99.1732L337.571 100.327L336.428 101.481L337.381 102.442Z" fill="#AA643B"/>
<path id="Vector_9" d="M334.619 101.193H333.381V102.443H334.619V101.193Z" fill="#AA643B"/>
<path id="Vector_10" d="M328.524 101.481L329.381 102.442L330.524 101.289L331.667 102.442L332.619 101.481L331.476 100.327L332.619 99.1732L331.667 98.3079L330.524 99.4617L329.381 98.3079L328.524 99.1732L329.667 100.327L328.524 101.481Z" fill="#AA643B"/>
<path id="Vector_11" d="M334.619 93.1157H333.381V94.3657H334.619V93.1157Z" fill="#AA643B"/>
<path id="Vector_12" d="M328.524 93.4043L329.381 94.3658L330.524 93.212L331.667 94.3658L332.619 93.4043L331.476 92.2504L332.619 91.0966L331.667 90.2312L330.524 91.385L329.381 90.2312L328.524 91.0966L329.667 92.2504L328.524 93.4043Z" fill="#AA643B"/>
<path id="Vector_13" d="M333.095 86.385H334.333V85.135C334.333 85.135 334.333 85.135 334.333 85.0388H333.095V86.385Z" fill="#AA643B"/>
<path id="Vector_14" d="M328.143 85.4235L329.095 86.2889L330.238 85.1351L331.381 86.2889L332.238 85.4235L331.095 84.2697L332.238 83.1158L331.381 82.1543L330.238 83.3081L329.095 82.1543L328.143 83.1158L329.286 84.2697L328.143 85.4235Z" fill="#AA643B"/>
<path id="Vector_15" d="M334.714 71.5771V81.4809C334.714 81.5771 334.81 83.9809 336.048 86.8656C337.286 89.5579 339.857 93.1156 345.191 95.0386L345.381 95.1348L345.571 95.0386C350.905 93.1156 353.476 89.5579 354.619 86.8656C355.952 83.9809 355.952 81.5771 355.952 81.4809V71.5771L345.381 67.0579L334.714 71.5771ZM354.81 81.4809C354.81 81.5771 354.619 90.2309 345.476 93.6925C341.667 92.2502 338.905 89.7502 337.286 86.3848C336.048 83.7886 336.048 81.4809 336.048 81.4809V72.4425L345.476 68.404L354.81 72.4425V81.4809Z" fill="#AA643B"/>
<path id="Vector_16" d="M344.238 82.8271H339.286V84.0771H344.238V82.8271Z" fill="#AA643B"/>
<path id="Vector_17" d="M344.238 76.385H339.286V77.635H344.238V76.385Z" fill="#AA643B"/>
<path id="Vector_18" d="M350.905 74.9426L348.143 77.6349L347.19 76.6734L346.238 77.5388L348.143 79.4619L351.762 75.808L350.905 74.9426Z" fill="#AA643B"/>
<path id="Vector_19" d="M339.286 80.904H344.047H344.238V79.5579H339.286V80.904Z" fill="#AA643B"/>
</g>
</g>
</g>
</g>
<rect x="57.5" y="86.5" width="308" height="105" stroke="#AA643B" stroke-dasharray="8 4"/>
</g>
<g id="Subnet_New_2">
<text id="Subnet_3" fill="#AE562C" xml:space="preserve" style="white-space: pre" font-family="Oracle Sans" font-size="16" font-weight="600" letter-spacing="0em"><tspan x="65" y="237.816">Backup</tspan></text>
<text id="Subnet_4" fill="#AE562C" xml:space="preserve" style="white-space: pre" font-family="Oracle Sans" font-size="16" font-weight="600" letter-spacing="0em"><tspan x="65" y="253.816">Subnet</tspan></text>
<g id="Icon Master_3">
<g id="OCI-SL_RT_2">
<g id="Group_4">
<g id="Group_5">
<path id="Vector_20" d="M317.476 235.519V209.077H334.238V201.288L345.476 196.481L356.619 201.288V211.481C356.619 211.577 356.619 214.077 355.19 217.058C353.952 219.75 351.381 223.404 345.857 225.423V235.423H317.476V235.519Z" fill="white"/>
<path id="Vector_21" d="M345.381 197.058L356.048 201.577V211.481C356.048 211.577 356.048 213.981 354.714 216.865C353.476 219.558 351 223.115 345.667 225.038L345.476 225.135H345.381V235.038H317.952V209.558H334.714V201.577L345.381 197.058ZM345.381 196L345 196.192L334.333 200.712L333.762 201V201.673V208.692H317.952H317V209.654V235.038V236H317.952H345.381H346.333V235.038V225.808C351.667 223.692 354.333 220.038 355.571 217.25C357 214.173 357 211.577 357 211.481V201.577V201L356.429 200.712L345.762 196.192L345.381 196Z" fill="white"/>
</g>
<g id="Group_6">
<path id="Vector_22" d="M344.048 225.712H326.524V218.981H336.048C335.762 218.5 335.571 218.116 335.381 217.731H326.524V211H333.667V209.75H317.952V235.135H345.381V226.289L344.905 226.097C344.619 225.904 344.333 225.808 344.048 225.712ZM319.19 210.904H325.286V217.635H319.19V210.904ZM325.286 218.885V225.616H319.19V218.885H325.286ZM319.19 226.962H325.286V233.693H319.19V226.962ZM344.048 233.693H326.524V226.962H344.048V233.693Z" fill="#AA643B"/>
<path id="Vector_23" d="M342.619 231.193H341.381V232.443H342.619V231.193Z" fill="#AA643B"/>
<path id="Vector_24" d="M337.381 232.442L338.524 231.289L339.667 232.442L340.524 231.481L339.381 230.327L340.524 229.173L339.667 228.308L338.524 229.462L337.381 228.308L336.428 229.173L337.571 230.327L336.428 231.481L337.381 232.442Z" fill="#AA643B"/>
<path id="Vector_25" d="M334.619 231.193H333.381V232.443H334.619V231.193Z" fill="#AA643B"/>
<path id="Vector_26" d="M328.524 231.481L329.381 232.442L330.524 231.289L331.667 232.442L332.619 231.481L331.476 230.327L332.619 229.173L331.667 228.308L330.524 229.462L329.381 228.308L328.524 229.173L329.667 230.327L328.524 231.481Z" fill="#AA643B"/>
<path id="Vector_27" d="M334.619 223.116H333.381V224.366H334.619V223.116Z" fill="#AA643B"/>
<path id="Vector_28" d="M328.524 223.404L329.381 224.366L330.524 223.212L331.667 224.366L332.619 223.404L331.476 222.25L332.619 221.097L331.667 220.231L330.524 221.385L329.381 220.231L328.524 221.097L329.667 222.25L328.524 223.404Z" fill="#AA643B"/>
<path id="Vector_29" d="M333.095 216.385H334.333V215.135C334.333 215.135 334.333 215.135 334.333 215.039H333.095V216.385Z" fill="#AA643B"/>
<path id="Vector_30" d="M328.143 215.424L329.095 216.289L330.238 215.135L331.381 216.289L332.238 215.424L331.095 214.27L332.238 213.116L331.381 212.154L330.238 213.308L329.095 212.154L328.143 213.116L329.286 214.27L328.143 215.424Z" fill="#AA643B"/>
<path id="Vector_31" d="M334.714 201.577V211.481C334.714 211.577 334.81 213.981 336.048 216.866C337.286 219.558 339.857 223.116 345.191 225.039L345.381 225.135L345.571 225.039C350.905 223.116 353.476 219.558 354.619 216.866C355.952 213.981 355.952 211.577 355.952 211.481V201.577L345.381 197.058L334.714 201.577ZM354.81 211.481C354.81 211.577 354.619 220.231 345.476 223.692C341.667 222.25 338.905 219.75 337.286 216.385C336.048 213.789 336.048 211.481 336.048 211.481V202.442L345.476 198.404L354.81 202.442V211.481Z" fill="#AA643B"/>
<path id="Vector_32" d="M344.238 212.827H339.286V214.077H344.238V212.827Z" fill="#AA643B"/>
<path id="Vector_33" d="M344.238 206.385H339.286V207.635H344.238V206.385Z" fill="#AA643B"/>
<path id="Vector_34" d="M350.905 204.943L348.143 207.635L347.19 206.673L346.238 207.539L348.143 209.462L351.762 205.808L350.905 204.943Z" fill="#AA643B"/>
<path id="Vector_35" d="M339.286 210.904H344.047H344.238V209.558H339.286V210.904Z" fill="#AA643B"/>
</g>
</g>
</g>
</g>
<rect x="57.5" y="216.5" width="308" height="105" stroke="#AA643B" stroke-dasharray="8 4"/>
</g>
<g id="Oracle Services Network">
<text id="Oracle Services Network_2" fill="#312D2A" xml:space="preserve" style="white-space: pre" font-family="Oracle Sans" font-size="16" font-weight="600" letter-spacing="0em"><tspan x="54" y="451.816">Oracle Services Network</tspan></text>
<rect id="Rectangle 692" x="325" y="430" width="44" height="2" fill="#F5F4F2"/>
<g id="Oracle Services Network_3">
<g id="Group 747">
<path id="Vector_36" d="M350.153 446.837L350.153 445.486L343.842 445.486L343.842 446.837L339.42 449.388L335.007 446.837L335.007 441.735L336.128 441.091L332.995 435.637L331.847 436.29L327.434 433.739L327.434 428.646L331.847 426.095L333.074 426.802L336.137 421.365L335.007 420.712L335.007 415.619L339.42 413.068L343.842 415.619L343.842 416.969L350.153 416.969L350.153 415.619L354.566 413.068L358.979 415.619L358.979 420.712L357.867 421.365L360.991 426.757L362.139 426.095L366.56 428.646L366.56 433.739L362.139 436.29L361.071 435.672L357.867 441.1L358.979 441.735L358.979 446.837L354.566 449.388L350.153 446.837Z" fill="white"/>
<path id="Vector_37" d="M354.566 413.571L358.546 415.875L358.546 420.499L357.258 421.241L360.788 427.419L362.103 426.66L366.075 428.955L366.075 433.553L362.103 435.848L360.876 435.133L357.231 441.311L358.511 442.044L358.511 446.634L354.53 448.928L350.559 446.634L350.559 445.045L343.401 445.045L343.401 446.581L339.42 448.875L335.448 446.581L335.448 441.991L336.702 441.25L333.171 435.071L331.865 435.83L327.875 433.491L327.875 428.893L331.847 426.598L333.242 427.401L336.772 421.223L335.448 420.499L335.448 415.875L339.42 413.571L343.401 415.875L343.401 417.41L350.594 417.41L350.594 415.875L354.566 413.571ZM354.566 412.556L354.124 412.812L350.153 415.107L349.711 415.363L349.711 416.528L344.283 416.528L344.283 415.363L343.842 415.107L339.861 412.812L339.42 412.556L338.979 412.812L335.007 415.107L334.566 415.363L334.566 420.967L335.007 421.223L335.537 421.532L332.889 426.192L332.271 425.839L331.83 425.583L331.388 425.839L327.434 428.134L326.993 428.39L326.993 433.995L327.434 434.251L331.406 436.545L331.847 436.801L332.289 436.545L332.827 436.236L335.528 440.932L335.007 441.232L334.566 441.488L334.566 447.093L335.007 447.348L338.979 449.643L339.42 449.899L339.861 449.643L343.842 447.348L344.283 447.093L344.283 445.927L349.711 445.927L349.711 447.093L350.153 447.348L354.124 449.643L354.566 449.899L355.007 449.643L358.988 447.348L359.429 447.093L359.429 441.488L358.988 441.232L358.476 440.941L361.229 436.272L361.697 436.545L362.138 436.801L362.58 436.545L366.552 434.251L366.993 433.995L366.993 428.39L366.552 428.134L362.58 425.839L362.138 425.583L361.697 425.839L361.15 426.157L358.502 421.523L359.023 421.223L359.464 420.967L359.464 415.363L359.023 415.107L355.007 412.812L354.566 412.556Z" fill="white"/>
<path id="Vector_38" d="M362.139 426.598L360.823 427.357L357.293 421.179L358.546 420.5L358.546 415.875L354.566 413.571L350.594 415.875L350.594 417.41L343.401 417.41L343.401 415.875L339.42 413.571L335.448 415.875L335.448 420.5L336.702 421.206L333.171 427.384L331.847 426.598L327.875 428.893L327.875 433.492L331.847 435.786L333.171 435.027L336.702 441.206L335.422 441.947L335.422 446.537L339.394 448.831L343.374 446.537L343.374 445.045L350.567 445.045L350.567 446.581L354.539 448.876L358.52 446.581L358.52 441.991L357.24 441.259L360.885 435.08L362.112 435.795L366.084 433.5L366.084 428.893L362.139 426.598ZM352.103 416.748L354.566 415.327L357.002 416.748L357.002 419.617L354.566 421.011L352.103 419.617L352.103 416.748ZM336.966 416.748L339.42 415.327L341.883 416.748L341.883 419.617L339.42 421.011L336.966 419.617L336.966 416.748ZM329.394 432.635L329.394 429.776L331.847 428.355L334.31 429.776L334.31 432.609L331.847 434.03L329.394 432.635ZM341.883 445.707L339.42 447.128L336.966 445.707L336.966 442.865L339.42 441.444L341.883 442.865L341.883 445.707ZM357.028 445.707L354.566 447.128L352.103 445.707L352.103 442.865L354.566 441.444L357.002 442.865L357.028 445.707ZM355.951 440.5L354.566 439.696L353.33 440.411L350.973 436.387L349.208 436.387L352.006 441.214L350.576 442.035L350.576 443.536L343.401 443.536L343.401 441.991L341.997 441.17L344.795 436.387L343.03 436.387L340.656 440.464L339.411 439.741L338.034 440.544L334.504 434.365L335.819 433.492L335.819 431.974L339.438 431.974C339.829 431.387 340.344 430.892 340.947 430.526C340.95 430.506 340.95 430.485 340.947 430.464L335.819 430.464L335.819 428.893L334.539 428.161L338.07 421.982L339.438 422.777L340.885 421.894L344.195 427.596C344.411 427.56 344.629 427.543 344.848 427.543L344.919 427.543C345.133 427.347 345.363 427.17 345.607 427.013L342.183 421.162L343.401 420.5L343.401 418.92L350.594 418.92L350.594 420.5L351.856 421.223L348.829 426.431C349.339 426.52 349.831 426.693 350.285 426.943L353.171 421.982L354.566 422.794L355.951 421.991L359.482 428.169L358.131 428.946L358.131 430.473L354.583 430.473C354.89 430.93 355.111 431.438 355.236 431.974L358.14 431.974L358.14 433.483L359.57 434.304L355.951 440.5ZM364.601 432.609L362.139 434.03L359.65 432.609L359.65 429.776L362.112 428.355L364.575 429.776L364.601 432.609Z" fill="#2D5967"/>
<path id="Vector_39" d="M353.639 435.204L353.851 434.806C354.277 434.013 354.383 433.086 354.149 432.217C353.914 431.347 353.356 430.6 352.589 430.129C352.247 429.913 351.871 429.758 351.477 429.67C351.399 429.654 351.325 429.621 351.261 429.574C351.197 429.527 351.144 429.466 351.106 429.396C350.824 428.815 350.383 428.326 349.835 427.984C349.287 427.642 348.654 427.461 348.008 427.463C347.542 427.471 347.082 427.573 346.656 427.763C346.23 427.952 345.846 428.226 345.528 428.566C345.476 428.623 345.411 428.666 345.339 428.692C345.266 428.718 345.189 428.727 345.113 428.716C344.627 428.671 344.137 428.753 343.692 428.955C343.262 429.139 342.883 429.424 342.588 429.787C342.292 430.15 342.09 430.579 341.997 431.038C341.984 431.111 341.955 431.18 341.912 431.241C341.869 431.302 341.814 431.353 341.75 431.391C341.192 431.681 340.716 432.109 340.369 432.634C340.021 433.159 339.813 433.764 339.764 434.392L339.702 435.204L353.639 435.204ZM343.489 431.329C343.532 431.113 343.627 430.91 343.765 430.738C343.904 430.566 344.081 430.43 344.283 430.34C344.493 430.246 344.724 430.206 344.954 430.226C345.26 430.258 345.57 430.219 345.858 430.11C346.146 430.001 346.405 429.826 346.613 429.599C346.827 429.366 347.094 429.188 347.392 429.083C347.69 428.977 348.009 428.945 348.322 428.992C348.635 429.038 348.931 429.16 349.186 429.347C349.44 429.535 349.645 429.782 349.782 430.067C349.919 430.339 350.115 430.577 350.357 430.764C350.598 430.95 350.878 431.08 351.176 431.144C351.404 431.197 351.622 431.286 351.821 431.408C352.192 431.644 352.478 431.992 352.637 432.402C352.795 432.812 352.819 433.262 352.703 433.686L341.512 433.686C341.717 433.275 342.048 432.941 342.456 432.732C342.723 432.592 342.955 432.392 343.134 432.149C343.313 431.906 343.434 431.626 343.489 431.329Z" fill="#2D5967"/>
</g>
</g>
<rect x="47" y="431" width="328" height="128" stroke="#9E9892" stroke-width="2" stroke-dasharray="8 4"/>
</g>
<g id="IAM">
<g id="Services/IAM">
<g id="Group 22">
<path id="Vector_40" d="M109.267 528.984C101.633 525.18 97.0765 519.199 96.7002 512.627V506.887H64.6706V474.172H111.714V495.342L123.327 500.382V512.64C122.95 519.266 118.367 525.234 110.759 529.038L110.02 529.414L109.267 528.984Z" fill="white"/>
<path id="Vector_41" d="M111.043 474.844V495.785L122.683 500.772V512.586C122.32 518.93 117.884 524.683 110.492 528.379L110.048 528.608L109.605 528.379C102.212 524.683 97.7634 518.97 97.4005 512.586V506.215H65.3441V474.844H111.043ZM112.387 473.5H64V507.559H96.0296V512.479V512.559C96.4328 519.427 101.137 525.597 108.973 529.522L109.417 529.737L110.022 530.046L110.613 529.737L111.056 529.522C118.892 525.597 123.61 519.427 124 512.599V499.884L123.194 499.535L112.387 494.898V473.5Z" fill="white"/>
<path id="Vector_42" d="M67.3337 476.834H109.027V494.159L110.022 493.729L111.016 494.159V474.844H65.3444V506.215H95.8821V504.226H67.3337V476.834Z" fill="#2D5967"/>
<path id="Vector_43" d="M110.02 495.355L97.3724 500.732V512.546C97.7353 518.89 102.184 524.643 109.577 528.339L110.02 528.568L110.464 528.339C117.856 524.643 122.292 518.931 122.655 512.546V500.772L110.02 495.355ZM120.665 512.479C120.37 517.667 116.875 522.452 111.015 525.812V508.931H109.026V525.839C103.165 522.479 99.617 517.694 99.3616 512.506V502.076L109.026 497.936V506.807H111.042V497.936L120.692 502.076L120.665 512.479Z" fill="#2D5967"/>
<path id="Vector_44" d="M92.2928 483.54L90.8815 484.938L94.5912 488.648L101.715 481.524L100.317 480.113L94.5912 485.839L92.2928 483.54Z" fill="#2D5967"/>
<path id="Vector_45" d="M99.9148 497.102L97.3073 494.508L99.9148 491.9L98.517 490.489L95.9094 493.096L93.3019 490.489L91.8906 491.9L94.4982 494.508L91.8906 497.102L93.3019 498.513L95.9094 495.906L98.517 498.513L99.9148 497.102Z" fill="#2D5967"/>
<path id="Vector_46" d="M85.5041 499.845V495.49C85.5041 494.584 85.1445 493.716 84.5042 493.076C83.864 492.435 82.9956 492.076 82.0902 492.076H75.3697C74.4643 492.076 73.5959 492.435 72.9557 493.076C72.3154 493.716 71.9557 494.584 71.9557 495.49V499.845H73.8778V495.49C73.8778 495.301 73.915 495.114 73.9873 494.939C74.0595 494.765 74.1655 494.606 74.299 494.473C74.4326 494.339 74.5911 494.233 74.7656 494.161C74.9401 494.089 75.1271 494.052 75.316 494.052H82.0364C82.2246 494.052 82.411 494.089 82.5847 494.161C82.7585 494.234 82.9161 494.34 83.0486 494.474C83.1811 494.607 83.2858 494.766 83.3566 494.94C83.4274 495.115 83.4629 495.302 83.4611 495.49V499.845H85.5041Z" fill="#2D5967"/>
<path id="Vector_47" d="M78.705 490.462C79.6195 490.462 80.5134 490.191 81.2738 489.683C82.0341 489.175 82.6268 488.453 82.9767 487.608C83.3267 486.763 83.4182 485.833 83.2398 484.936C83.0614 484.04 82.6211 483.216 81.9744 482.569C81.3278 481.922 80.5039 481.482 79.607 481.304C78.7101 481.125 77.7805 481.217 76.9356 481.567C76.0908 481.917 75.3686 482.509 74.8606 483.27C74.3525 484.03 74.0814 484.924 74.0814 485.839C74.0814 487.065 74.5685 488.241 75.4356 489.108C76.3027 489.975 77.4787 490.462 78.705 490.462ZM78.705 483.204C79.2367 483.204 79.7564 483.362 80.1985 483.657C80.6406 483.953 80.9851 484.372 81.1886 484.864C81.392 485.355 81.4453 485.895 81.3415 486.417C81.2378 486.938 80.9818 487.417 80.6058 487.793C80.2299 488.169 79.7509 488.425 79.2295 488.529C78.708 488.633 78.1675 488.579 77.6763 488.376C77.1851 488.172 76.7653 487.828 76.4699 487.386C76.1745 486.944 76.0168 486.424 76.0168 485.892C76.0168 485.179 76.3001 484.496 76.8042 483.991C77.3083 483.487 77.9921 483.204 78.705 483.204Z" fill="#2D5967"/>
</g>
</g>
<g id="Icon Text Label">
<text id="IconLabel" fill="black" xml:space="preserve" style="white-space: pre" font-family="Oracle Sans" font-size="16" letter-spacing="0em"><tspan x="79.4219" y="547.816">IAM</tspan></text>
</g>
</g>
<g id="Gateway">
<rect id="Rectangle 699" x="210" y="330" width="2" height="76" fill="#F5F4F2"/>
<g id="Icon Master_4">
<g id="Service-Gateway">
<g id="Group 37">
<path id="Vector_48" d="M213.146 369.706C210.435 369.712 207.76 369.086 205.333 367.879C202.906 366.672 200.795 364.916 199.167 362.752C198.218 362.102 197.334 361.362 196.527 360.544C196.131 360.18 195.768 359.782 195.441 359.355C195.288 359.165 194.631 358.289 194.488 358.013C194.345 357.738 194.307 357.728 194.221 357.576L193.964 357.157C193.849 356.957 193.725 356.767 193.621 356.567C193.516 356.368 193.459 356.253 193.382 356.092L193.163 355.625C193.068 355.435 192.973 355.245 192.887 355.045C192.801 354.845 192.744 354.684 192.677 354.493L192.468 354.008C192.391 353.827 192.325 353.637 192.258 353.437C192.191 353.237 192.144 353 192.086 352.781L191.953 352.267C191.953 352.105 191.867 351.934 191.829 351.763C191.791 351.591 191.724 351.154 191.686 350.811L191.629 350.383C191.629 350.25 191.581 350.126 191.562 349.993C191.505 349.441 191.477 348.842 191.477 348.242C191.482 343.591 193.335 339.131 196.629 335.842C199.923 332.553 204.39 330.703 209.048 330.698C209.611 330.698 210.201 330.698 210.792 330.784L211.145 330.831H211.354C211.726 330.831 212.107 330.927 212.479 331.003L212.917 331.174L213.108 331.222C213.46 331.307 213.775 331.383 214.061 331.478L214.556 331.64L214.747 331.707L215.624 332.03C215.824 332.106 216.014 332.201 216.205 332.287H216.31L217.12 332.677L217.768 333.039C218.034 333.191 218.292 333.343 218.54 333.505L219.168 333.933L219.864 334.456C220.171 334.682 220.461 334.93 220.731 335.198C221.559 335.938 222.315 336.753 222.99 337.634C226.103 339.739 228.459 342.785 229.71 346.325C230.961 349.866 231.041 353.713 229.94 357.303C228.838 360.892 226.612 364.034 223.589 366.267C220.567 368.499 216.906 369.705 213.146 369.706Z" fill="white"/>
<path id="Vector_49" d="M209.048 331.173C209.615 331.173 210.181 331.201 210.745 331.259L211.288 331.335C211.659 331.382 212.021 331.43 212.384 331.506C212.603 331.506 212.812 331.611 213.032 331.658L213.984 331.896L214.632 332.125C214.928 332.229 215.214 332.324 215.5 332.438L216.157 332.733L216.948 333.114C217.167 333.228 217.377 333.352 217.587 333.476C217.796 333.599 218.092 333.77 218.33 333.923C218.568 334.075 218.74 334.199 218.94 334.341C219.14 334.484 219.397 334.674 219.626 334.855L220.445 335.55C221.276 336.293 222.032 337.115 222.704 338.004C224.765 339.389 226.498 341.206 227.784 343.329C229.07 345.451 229.876 347.828 230.147 350.294C230.418 352.76 230.148 355.255 229.354 357.605C228.561 359.956 227.263 362.105 225.553 363.904C223.842 365.702 221.759 367.107 219.449 368.019C217.139 368.932 214.657 369.33 212.177 369.187C209.696 369.043 207.277 368.362 205.088 367.19C202.899 366.017 200.992 364.382 199.5 362.399C198.552 361.759 197.671 361.026 196.87 360.21C196.87 360.21 196.012 359.259 195.822 359.05C195.631 358.84 195.021 357.994 194.869 357.737C194.716 357.48 194.612 357.318 194.488 357.109C194.364 356.899 194.164 356.595 194.021 356.338C193.878 356.081 193.792 355.872 193.687 355.644C193.582 355.415 193.42 355.12 193.306 354.844C193.192 354.569 193.116 354.331 193.02 354.074C192.925 353.817 192.82 353.56 192.734 353.294C192.649 353.027 192.582 352.694 192.506 352.399C192.429 352.104 192.372 351.914 192.315 351.667C192.258 351.419 192.201 350.944 192.153 350.582C192.153 350.382 192.077 350.182 192.058 349.983C191.988 349.412 191.953 348.831 191.953 348.242C191.968 343.719 193.774 339.387 196.977 336.189C200.179 332.991 204.519 331.188 209.048 331.173ZM209.048 330.222C204.266 330.237 199.684 332.14 196.303 335.516C192.921 338.892 191.015 343.467 191 348.242C190.999 348.855 191.03 349.468 191.095 350.078C191.095 350.221 191.095 350.363 191.153 350.496C191.21 350.63 191.153 350.639 191.153 350.715V350.915C191.153 351.22 191.229 351.533 191.295 351.866C191.362 352.199 191.381 352.219 191.429 352.399C191.477 352.58 191.429 352.561 191.496 352.637L191.553 352.884C191.61 353.122 191.667 353.351 191.743 353.579C191.82 353.807 191.877 353.979 191.953 354.178L192.039 354.407L192.124 354.645C192.188 354.842 192.261 355.035 192.344 355.225C192.429 355.434 192.534 355.644 192.63 355.843L192.744 356.062L192.849 356.291C192.922 356.463 193.004 356.632 193.096 356.795C193.211 357.004 193.335 357.204 193.459 357.413L193.582 357.613L193.706 357.813C193.802 357.975 193.887 358.127 193.992 358.279C194.097 358.431 194.85 359.459 195.021 359.659C195.365 360.107 195.744 360.527 196.155 360.914C196.953 361.726 197.827 362.459 198.766 363.103C200.363 365.136 202.38 366.803 204.679 367.989C206.979 369.176 209.507 369.854 212.092 369.979C214.677 370.103 217.259 369.671 219.662 368.711C222.065 367.751 224.233 366.286 226.019 364.415C227.804 362.545 229.166 360.313 230.011 357.87C230.856 355.428 231.165 352.832 230.917 350.26C230.668 347.688 229.868 345.199 228.571 342.963C227.274 340.727 225.51 338.796 223.399 337.3C222.716 336.41 221.95 335.585 221.112 334.836C220.842 334.574 220.556 334.33 220.255 334.103L219.53 333.561L218.882 333.124C218.635 332.962 218.368 332.81 218.111 332.657C217.853 332.505 217.663 332.391 217.434 332.277L216.595 331.868L216.481 331.82L215.9 331.563C215.604 331.439 215.3 331.335 215.004 331.23L214.766 331.173L214.251 330.992C213.937 330.897 213.622 330.821 213.298 330.745H213.232L213.041 330.678L212.574 330.574C212.183 330.498 211.793 330.441 211.412 330.393H211.231L210.83 330.307C210.23 330.222 209.63 330.222 209.048 330.222Z" fill="white"/>
<path id="Vector_50" d="M195.365 355.854C194.059 353.53 193.376 350.908 193.383 348.243C193.385 345.576 194.069 342.953 195.371 340.624C196.674 338.296 198.55 336.338 200.823 334.937C203.096 333.535 205.69 332.737 208.359 332.618C211.028 332.5 213.683 333.063 216.072 334.257C217.613 334.497 219.115 334.939 220.541 335.57C217.267 332.437 212.88 330.731 208.347 330.828C203.813 330.924 199.503 332.815 196.365 336.084C193.228 339.352 191.519 343.732 191.616 348.259C191.712 352.785 193.606 357.088 196.88 360.221C196.185 358.838 195.675 357.37 195.365 355.854Z" fill="#2D5967"/>
<path id="Vector_51" d="M213.146 335.083C209.767 335.093 206.467 336.101 203.661 337.981C200.856 339.862 198.671 342.529 197.382 345.648C196.093 348.767 195.758 352.196 196.42 355.505C197.082 358.813 198.71 361.852 201.099 364.237C203.488 366.623 206.532 368.248 209.845 368.909C213.159 369.569 216.594 369.235 219.718 367.949C222.841 366.662 225.513 364.48 227.396 361.679C229.279 358.878 230.289 355.583 230.299 352.209C230.299 347.667 228.492 343.311 225.275 340.099C222.058 336.888 217.695 335.083 213.146 335.083ZM213.146 367.803C210.045 367.803 207.014 366.885 204.436 365.165C201.858 363.444 199.849 360.999 198.663 358.139C197.477 355.279 197.167 352.131 197.773 349.095C198.378 346.059 199.872 343.27 202.065 341.082C204.259 338.893 207.053 337.403 210.094 336.801C213.135 336.198 216.287 336.509 219.152 337.695C222.016 338.881 224.463 340.889 226.185 343.464C227.906 346.039 228.824 349.066 228.822 352.161C228.817 356.31 227.163 360.287 224.224 363.219C221.285 366.152 217.301 367.8 213.146 367.803Z" fill="#2D5967"/>
<path id="Vector_52" d="M217.033 361.02L216.033 360.011L213.86 362.181V342.315L216.033 344.484L217.033 343.476L213.145 339.594L209.257 343.476L210.267 344.484L212.44 342.315V362.181L210.267 360.011L209.257 361.02L213.145 364.902L217.033 361.02Z" fill="#2D5967"/>
<path id="Vector_53" d="M208.485 356.042L212.373 352.161L208.485 348.279L207.475 349.278L209.648 351.447H200.5V352.865H209.648L207.475 355.034L208.485 356.042Z" fill="#2D5967"/>
<path id="Vector_54" d="M225.791 351.447H216.653L218.816 349.278L217.815 348.279L213.918 352.161L217.815 356.042L218.816 355.034L216.653 352.865H225.791V351.447Z" fill="#2D5967"/>
</g>
</g>
<g id="Icon Text Label_2">
<text id="IconLabel_2" fill="black" xml:space="preserve" style="white-space: pre" font-family="Oracle Sans" font-size="16" letter-spacing="0em"><tspan x="184.789" y="387.816">Service</tspan></text>
<text id="IconLabel_3" fill="black" xml:space="preserve" style="white-space: pre" font-family="Oracle Sans" font-size="16" letter-spacing="0em"><tspan x="180.117" y="403.816">Gateway</tspan></text>
</g>
</g>
</g>
<g id="Gateway_2">
<rect id="Rectangle 699_2" x="28" y="182" width="2" height="60" fill="#F5F4F2"/>
<g id="Icon Master_5">
<g id="Dynamic-Routing-Gateway-DRG">
<path id="Vector_55" d="M29 221.524C39.7827 221.524 48.5238 212.783 48.5238 202C48.5238 191.217 39.7827 182.476 29 182.476C18.2173 182.476 9.4762 191.217 9.4762 202C9.4762 212.783 18.2173 221.524 29 221.524Z" fill="white"/>
<path id="Vector_56" d="M29 182.952C32.7673 182.952 36.4499 184.07 39.5823 186.162C42.7147 188.255 45.156 191.23 46.5977 194.711C48.0394 198.191 48.4166 202.021 47.6816 205.716C46.9467 209.411 45.1326 212.805 42.4687 215.469C39.8048 218.133 36.4109 219.947 32.716 220.682C29.0211 221.417 25.1913 221.039 21.7108 219.598C18.2303 218.156 15.2555 215.715 13.1625 212.582C11.0695 209.45 9.95239 205.767 9.95239 202C9.95239 196.948 11.9592 192.103 15.5313 188.531C19.1034 184.959 23.9483 182.952 29 182.952ZM29 182C25.0444 182 21.1776 183.173 17.8886 185.371C14.5996 187.568 12.0362 190.692 10.5224 194.346C9.00867 198.001 8.6126 202.022 9.3843 205.902C10.156 209.781 12.0608 213.345 14.8579 216.142C17.6549 218.939 21.2186 220.844 25.0982 221.616C28.9778 222.387 32.9992 221.991 36.6537 220.478C40.3082 218.964 43.4318 216.4 45.6294 213.111C47.827 209.822 49 205.956 49 202C49 196.696 46.8929 191.609 43.1421 187.858C39.3914 184.107 34.3043 182 29 182V182Z" fill="white"/>
<path id="Vector_57" d="M29 182.952C25.2328 182.952 21.5501 184.07 18.4177 186.162C15.2854 188.255 12.844 191.23 11.4023 194.711C9.96065 198.191 9.58344 202.021 10.3184 205.716C11.0534 209.411 12.8675 212.805 15.5313 215.469C18.1952 218.133 21.5891 219.947 25.284 220.682C28.9789 221.417 32.8087 221.039 36.2892 219.598C39.7697 218.156 42.7446 215.715 44.8375 212.582C46.9305 209.45 48.0476 205.767 48.0476 202C48.0476 199.499 47.555 197.022 46.5977 194.711C45.6405 192.4 44.2375 190.3 42.4687 188.531C40.7 186.763 38.6002 185.36 36.2892 184.402C33.9783 183.445 31.5014 182.952 29 182.952ZM29 219.457C25.5473 219.457 22.1722 218.433 19.3014 216.515C16.4305 214.597 14.193 211.87 12.8717 208.681C11.5504 205.491 11.2047 201.981 11.8783 198.594C12.5519 195.208 14.2145 192.097 16.656 189.656C19.0974 187.215 22.2079 185.552 25.5943 184.878C28.9807 184.205 32.4907 184.55 35.6806 185.872C38.8705 187.193 41.5969 189.431 43.5151 192.301C45.4333 195.172 46.4572 198.547 46.4572 202C46.4521 206.628 44.6113 211.066 41.3385 214.339C38.0658 217.611 33.6284 219.452 29 219.457Z" fill="#2D5967"/>
<path id="Vector_58" d="M29.7906 213.181V191.019L32.2097 193.438L33.3335 192.314L29.0001 187.981L24.6668 192.314L25.7906 193.438L28.2097 191.019V213.181L25.7906 210.762L24.6668 211.886L29.0001 216.219L33.3335 211.886L32.2097 210.762L29.7906 213.181Z" fill="#2D5967"/>
<path id="Vector_59" d="M23.8094 197.667L22.6856 198.791L25.1046 201.21H14.9141V202.791H25.1046L22.6856 205.21L23.8094 206.333L28.1332 202L23.8094 197.667Z" fill="#2D5967"/>
<path id="Vector_60" d="M32.8952 201.21L35.3143 198.791L34.1904 197.667L29.8666 202L34.1904 206.333L35.3143 205.21L32.8952 202.791H43.0857V201.21H32.8952Z" fill="#2D5967"/>
</g>
<g id="Icon Text Label_3">
<text id="IconLabel_4" fill="black" xml:space="preserve" style="white-space: pre" font-family="Oracle Sans" font-size="16" letter-spacing="0em"><tspan x="12.8359" y="239.816">DRG</tspan></text>
</g>
</g>
</g>
<g id="Icon Master_6">
<g id="Zero-Data-Loss-Recovery-Appliance">
<g id="Group_7">
<g id="Group_8">
<path id="Vector_61" d="M193.881 529.286V526.714L196.738 525.286V470.714H226.452V525.286L229.31 526.714V529.286H193.881Z" fill="white"/>
<path id="Vector_62" d="M225.738 471.429V525.714L228.595 527.143V528.571H225.738H197.452H194.595V527.143L197.452 525.714V471.429H225.738ZM227.167 470H225.738H197.452H196.024V471.429V524.857L193.881 525.857L193.167 526.286V527.143V528.571V530H194.595H197.452H225.595H228.452H229.881V528.571V527.143V526.286L229.024 525.857L226.881 524.857V471.429V470H227.167Z" fill="white"/>
</g>
<g id="Group_9">
<path id="Vector_63" d="M225.738 525.714V471.429H197.452V525.714L194.595 527.143V528.571H197.452H225.595H228.452V527.143L225.738 525.714ZM200.452 525.714V474.286H222.881V525.714H200.452Z" fill="#2C5967"/>
<path id="Vector_64" d="M220.738 476.429H202.595V479.286H220.738V476.429Z" fill="#2C5967"/>
<path id="Vector_65" d="M218.452 481.571H204.738V484.143H202.595V487H204.738V489.571H218.452V487H220.595V484.143H218.452V481.571ZM215.595 486.571H207.595V484.429H215.595V486.571Z" fill="#2C5967"/>
<path id="Vector_66" d="M205.452 491.714H202.595V494.571H205.452V491.714Z" fill="#2C5967"/>
<path id="Vector_67" d="M210.452 491.714H207.595V494.571H210.452V491.714Z" fill="#2C5967"/>
<path id="Vector_68" d="M215.595 491.714H212.738V494.571H215.595V491.714Z" fill="#2C5967"/>
<path id="Vector_69" d="M220.595 491.714H217.738V494.571H220.595V491.714Z" fill="#2C5967"/>
<path id="Vector_70" d="M205.452 496.714H202.595V499.571H205.452V496.714Z" fill="#2C5967"/>
<path id="Vector_71" d="M210.452 496.714H207.595V499.571H210.452V496.714Z" fill="#2C5967"/>
<path id="Vector_72" d="M215.595 496.714H212.738V499.571H215.595V496.714Z" fill="#2C5967"/>
<path id="Vector_73" d="M220.595 496.714H217.738V499.571H220.595V496.714Z" fill="#2C5967"/>
</g>
<g id="Group_10">
<path id="Vector_74" d="M206.738 521V504.714H211.31C213.167 504.714 214.595 505.143 215.595 506C216.452 506.857 217.024 508.143 217.024 509.714C217.024 510.714 216.738 511.714 216.31 512.429C215.881 513.143 215.167 513.714 214.167 514.143L217.595 521H213.881L211.167 514.714L210.024 514.429V521H206.738ZM210.024 512.429H211.167C212.738 512.429 213.595 511.571 213.595 509.857C213.595 508.143 212.738 507.286 211.167 507.286H210.024V512.429Z" fill="#2C5967"/>
</g>
</g>
</g>
<g id="Icon Text Label_4">
<text id="IconLabel_5" fill="black" xml:space="preserve" style="white-space: pre" font-family="Oracle Sans" font-size="16" letter-spacing="0em"><tspan x="150.195" y="547.816">Recovery Service</tspan></text>
</g>
</g>
<g id="DNS">
<g id="Domain-Name-System-DNS">
<g id="Group_11">
<g id="Group_12">
<g id="Group_13">
<path id="Vector_75" d="M326.315 529.283C311.079 529.283 298.674 516.878 298.674 501.642C298.674 486.406 311.079 474.002 326.315 474.002C339.663 474.002 351.124 483.44 353.551 496.653C355.708 497.328 357.326 499.35 357.326 501.777C357.326 504.204 355.843 506.092 353.551 506.901C351.124 519.844 339.798 529.283 326.315 529.283Z" fill="white"/>
<path id="Vector_76" d="M326.315 474.676C339.663 474.676 350.719 484.384 352.876 497.058C354.899 497.597 356.517 499.35 356.517 501.642C356.517 503.799 354.899 505.687 352.876 506.226C350.854 518.901 339.663 528.608 326.315 528.608C311.483 528.608 299.348 516.474 299.348 501.642C299.348 486.811 311.483 474.676 326.315 474.676ZM326.315 473.328C310.674 473.328 298 486.002 298 501.642C298 517.283 310.674 529.957 326.315 529.957C339.933 529.957 351.528 520.384 354.09 507.17C356.382 506.226 357.865 504.069 357.865 501.642C357.865 499.215 356.247 496.923 354.09 496.114C351.528 482.901 339.933 473.328 326.315 473.328Z" fill="white"/>
</g>
<g id="Group_14">
<path id="Vector_77" d="M356.652 501.642C356.652 499.485 355.034 497.597 353.011 497.058C350.854 484.384 339.663 474.676 326.315 474.676C311.483 474.676 299.348 486.811 299.348 501.642C299.348 516.474 311.483 528.608 326.315 528.608C339.663 528.608 350.719 518.9 352.876 506.226C355.034 505.687 356.652 503.799 356.652 501.642ZM351.933 504.069C350.584 504.069 349.506 502.99 349.506 501.642C349.506 500.294 350.584 499.215 351.933 499.215C353.281 499.215 354.36 500.294 354.36 501.642C354.36 502.99 353.281 504.069 351.933 504.069ZM350.719 497.193C349.101 497.597 347.888 498.945 347.483 500.563H337.101C337.101 498.271 336.831 496.114 336.427 493.957C338.584 493.013 340.202 490.856 340.202 488.294C340.202 484.923 337.371 482.092 334 482.092C333.326 482.092 332.787 482.226 332.247 482.361C331.303 480.608 330.225 478.856 328.876 477.238C339.798 478.181 348.697 486.541 350.719 497.193ZM318.764 509.867C322.135 509.058 324.697 506.226 325.101 502.856H334.809C334.539 511.215 331.573 519.305 326.315 525.777C322.539 521.058 319.978 515.665 318.764 509.867ZM310.539 501.642C310.539 498.271 313.371 495.44 316.742 495.44C320.112 495.44 322.944 498.271 322.944 501.642C322.944 505.013 320.112 507.844 316.742 507.844C313.371 507.844 310.539 505.013 310.539 501.642ZM325.101 500.563C324.697 497.058 322 494.226 318.629 493.552C319.843 487.754 322.539 482.361 326.18 477.642C327.663 479.395 328.876 481.417 329.955 483.305C328.472 484.384 327.528 486.271 327.528 488.159C327.528 491.53 330.36 494.361 333.73 494.361H333.865C334.27 496.384 334.539 498.406 334.539 500.563H325.101ZM334 484.249C336.157 484.249 337.91 486.002 337.91 488.159C337.91 490.316 336.157 492.069 334 492.069C331.843 492.069 330.09 490.316 330.09 488.159C330.09 486.002 331.708 484.249 334 484.249ZM323.888 477.103C320.247 481.957 317.685 487.35 316.472 493.283C312.292 493.417 308.921 496.518 308.382 500.563H301.64C302.18 488.294 311.753 478.316 323.888 477.103ZM301.64 502.721H308.382C308.921 506.766 312.292 509.867 316.472 510.002C317.685 515.799 320.247 521.327 323.888 526.181C311.753 524.968 302.18 514.99 301.64 502.721ZM328.876 526.181C334 519.44 336.831 511.215 337.101 502.721H347.483C347.888 504.339 349.101 505.552 350.719 506.092C348.697 516.743 339.798 525.103 328.876 526.181Z" fill="#2D5967"/>
</g>
</g>
</g>
</g>
<g id="Icon Text Label_5">
<text id="IconLabel_6" fill="black" xml:space="preserve" style="white-space: pre" font-family="Oracle Sans" font-size="16" letter-spacing="0em"><tspan x="312" y="547.816">DNS</tspan></text>
</g>
</g>
<g id="Exadata DB">
<g id="Services-Exadata-Database-System">
<g id="Group 515">
<path id="Vector_78" d="M197.486 224.328V222.013L199.911 220.855V188.511H189.269L189.412 186.439C189.539 184.611 190.13 182.845 191.129 181.31C192.127 179.774 193.5 178.519 195.118 177.663C195.392 177.519 195.631 177.317 195.818 177.07C196.006 176.823 196.137 176.537 196.202 176.234C196.471 174.911 197.057 173.674 197.909 172.628C198.762 171.582 199.855 170.76 201.095 170.231C202.153 169.771 203.294 169.533 204.447 169.531C204.708 169.516 204.97 169.516 205.232 169.531H205.431C205.699 169.536 205.965 169.484 206.211 169.378C206.457 169.272 206.677 169.114 206.858 168.916C207.813 167.902 208.965 167.095 210.243 166.544C211.521 165.994 212.898 165.711 214.29 165.715C216.179 165.707 218.032 166.23 219.639 167.226C221.245 168.221 222.54 169.649 223.377 171.346C223.518 171.625 223.719 171.87 223.966 172.063C224.212 172.256 224.498 172.392 224.803 172.461C225.973 172.739 227.083 173.223 228.084 173.89C230.303 175.295 231.909 177.489 232.579 180.032C233.248 182.575 232.932 185.278 231.693 187.597L231.166 188.583H224.347V220.855L226.701 222.013V224.328H197.486Z" fill="white"/>
<path id="Vector_79" d="M214.289 166.429C216.044 166.421 217.766 166.907 219.259 167.832C220.752 168.757 221.956 170.084 222.734 171.66C222.932 172.024 223.207 172.341 223.54 172.587C223.872 172.834 224.254 173.006 224.659 173.09C226.117 173.41 227.481 174.066 228.642 175.004C229.804 175.943 230.733 177.139 231.355 178.498C231.977 179.857 232.276 181.342 232.228 182.837C232.18 184.331 231.787 185.794 231.079 187.111L230.751 187.725H223.618V221.313L225.972 222.47V223.599H198.198V222.456L200.566 221.298V187.868H190.038L190.124 186.625C190.229 184.897 190.78 183.226 191.723 181.776C192.665 180.325 193.967 179.145 195.502 178.349C195.868 178.155 196.189 177.883 196.44 177.553C196.691 177.222 196.868 176.84 196.957 176.434C197.297 174.695 198.23 173.128 199.596 172.002C200.962 170.875 202.677 170.26 204.446 170.26C204.683 170.245 204.922 170.245 205.159 170.26H205.43C205.797 170.264 206.16 170.191 206.496 170.045C206.833 169.9 207.135 169.686 207.384 169.416C208.271 168.473 209.341 167.721 210.528 167.207C211.715 166.693 212.995 166.428 214.289 166.429V166.429ZM214.289 165C212.797 165.003 211.323 165.312 209.956 165.91C208.589 166.507 207.359 167.38 206.343 168.473C206.225 168.596 206.083 168.694 205.926 168.76C205.769 168.826 205.6 168.86 205.43 168.859H205.302H204.446C202.349 168.854 200.316 169.578 198.693 170.907C197.07 172.237 195.957 174.089 195.544 176.148C195.509 176.347 195.427 176.535 195.306 176.696C195.184 176.858 195.027 176.988 194.845 177.077C193.109 177.983 191.633 179.319 190.557 180.957C189.481 182.596 188.841 184.483 188.697 186.439L188.611 187.682L188.497 189.297H199.139V220.412L197.57 221.184L196.771 221.57V224.728L197.841 225H198.012H227.413V221.57L226.614 221.184L225.059 220.412V189.297H231.607L232.006 188.54L232.334 187.939C233.674 185.447 234.017 182.537 233.293 179.801C232.57 177.064 230.835 174.706 228.44 173.204C227.362 172.526 226.174 172.043 224.93 171.775C224.724 171.734 224.53 171.646 224.364 171.517C224.198 171.388 224.065 171.222 223.975 171.031C223.082 169.222 221.701 167.698 219.99 166.632C218.278 165.567 216.304 165.001 214.289 165V165Z" fill="white"/>
<path id="Vector_80" d="M198.925 222.9L201.278 221.756V178.678H222.919V221.756L225.258 222.9H198.925Z" fill="white"/>
<path id="Vector_81" d="M222.206 179.393V222.171H201.992V179.393H222.206ZM223.632 177.964H200.565V221.313L198.197 222.471V223.6H225.986V222.456L223.632 221.299V177.964V177.964Z" fill="white"/>
<path id="Vector_82" d="M223.632 221.313V177.964H200.565V221.313L198.197 222.471V223.6H225.986V222.456L223.632 221.313ZM202.933 180.279H221.307V221.313H202.933V180.279ZM204.702 182.009H219.481V184.324H204.702V182.009ZM217.712 186.053H206.471V188.083H204.702V190.398H206.471V192.414H217.712V190.398H219.481V188.083H217.712V186.053ZM215.344 190.098H208.839V188.369H215.344V190.098ZM213.789 210.937L217.141 217.554H214.174L212.035 212.909L209.98 217.554H207.042L210.423 210.851L207.213 204.534H210.166L212.163 208.821L214.089 204.534H216.942L213.789 210.937ZM207.042 196.444H204.702V194.143H207.042V196.444ZM211.179 196.444H208.839V194.143H211.207L211.179 196.444ZM215.316 196.444H212.976V194.143H215.344L215.316 196.444ZM217.099 194.129H219.452V196.444H217.127L217.099 194.129ZM207.113 200.489H204.702V198.188H207.042L207.113 200.489ZM208.882 198.173H211.25V200.489H208.839L208.882 198.173ZM213.019 198.173H215.387V200.489H212.976L213.019 198.173ZM217.17 198.173H219.524V200.489H217.127L217.17 198.173Z" fill="#2D5967"/>
<path id="Vector_83" d="M231.081 187.181L230.753 187.795H225.047V185.48H229.326C230.005 183.87 230.09 182.071 229.568 180.403C229.045 178.736 227.949 177.308 226.473 176.376C225.768 175.918 224.984 175.594 224.163 175.418C223.415 175.255 222.713 174.925 222.11 174.452C221.507 173.98 221.019 173.377 220.682 172.688C220.167 171.654 219.41 170.76 218.475 170.084C217.54 169.407 216.455 168.967 215.313 168.803C214.172 168.639 213.007 168.754 211.92 169.14C210.832 169.525 209.855 170.169 209.07 171.016C208.551 171.579 207.908 172.013 207.192 172.283C206.477 172.553 205.708 172.653 204.947 172.574C204.046 172.486 203.136 172.634 202.308 173.003C201.519 173.35 200.825 173.884 200.286 174.559C199.747 175.233 199.379 176.028 199.213 176.876C199.064 177.622 198.749 178.326 198.292 178.934C197.835 179.543 197.248 180.041 196.574 180.392C195.589 180.906 194.727 181.627 194.045 182.505C193.363 183.382 192.878 184.397 192.622 185.48H199.099V187.867H190.04L190.126 186.623C190.231 184.896 190.782 183.225 191.725 181.775C192.667 180.324 193.97 179.143 195.504 178.348C195.871 178.154 196.191 177.882 196.442 177.551C196.694 177.221 196.87 176.839 196.959 176.433C197.185 175.222 197.702 174.084 198.465 173.118C199.228 172.152 200.214 171.386 201.338 170.887C202.524 170.358 203.827 170.146 205.119 170.273C205.528 170.321 205.944 170.27 206.331 170.126C206.718 169.982 207.065 169.748 207.344 169.444C208.381 168.315 209.676 167.457 211.119 166.942C212.561 166.428 214.107 166.273 215.622 166.491C217.138 166.709 218.577 167.293 219.817 168.194C221.056 169.094 222.058 170.284 222.736 171.659C222.934 172.023 223.209 172.339 223.542 172.586C223.874 172.833 224.257 173.004 224.662 173.088C226.119 173.409 227.483 174.065 228.645 175.003C229.807 175.942 230.735 177.138 231.358 178.497C231.98 179.856 232.279 181.341 232.231 182.836C232.183 184.33 231.789 185.793 231.081 187.109" fill="#2D5967"/>
</g>
</g>
<g id="Icon Text Label_6">
<text id="IconLabel_7" fill="black" xml:space="preserve" style="white-space: pre" font-family="Oracle Sans" font-size="16" letter-spacing="0em"><tspan x="156.938" y="242.816">Oracle Exadata</tspan></text>
<text id="IconLabel_8" fill="black" xml:space="preserve" style="white-space: pre" font-family="Oracle Sans" font-size="16" letter-spacing="0em"><tspan x="149.07" y="258.816">Database Service</tspan></text>
<text id="IconLabel_9" fill="black" xml:space="preserve" style="white-space: pre" font-family="Oracle Sans" font-size="16" letter-spacing="0em"><tspan x="163.195" y="274.816">on Dedicated</tspan></text>
<text id="IconLabel_10" fill="black" xml:space="preserve" style="white-space: pre" font-family="Oracle Sans" font-size="16" letter-spacing="0em"><tspan x="161.68" y="290.816">Infrastructure</tspan></text>
</g>
</g>
</g>
</g>
<defs>
<clipPath id="clip0_9369_208504">
<rect width="385" height="569" fill="white"/>
</clipPath>
</defs>
</svg>
