<svg width="640" height="600" viewBox="0 0 640 600" fill="none" xmlns="http://www.w3.org/2000/svg">
<g id="mongodb-atp-s-arch-variant" clip-path="url(#clip0_20271_6118)">
<rect width="640" height="600" fill="white"/>
<g id="Group 3">
<g id="OCI Region">
<rect x="0.5" y="0.5" width="639" height="599" rx="3.5" fill="#F5F4F2"/>
<rect x="0.5" y="0.5" width="639" height="599" rx="3.5" stroke="#9E9892"/>
<text id="On-premises" fill="#312D2A" xml:space="preserve" style="white-space: pre" font-family="Oracle Sans" font-size="16" font-weight="bold" letter-spacing="0em"><tspan x="8" y="21.816">OCI Region</tspan></text>
</g>
<g id="VCN box_New">
<rect id="Rectangle 28" x="41" y="32.9248" width="558" height="550" stroke="#AA643B" stroke-width="2" stroke-dasharray="8 4"/>
<g id="Icon Master">
<g id="Srv-VCN">
<g id="Group 39">
<path id="Vector" d="M578.416 55.51C577.16 55.5094 575.944 55.0768 574.969 54.2847C573.995 53.4927 573.323 52.3894 573.066 51.1601H566.595C566.408 52.0542 566 52.8872 565.408 53.583C564.816 54.2788 564.06 54.8153 563.208 55.1436C562.356 55.4719 561.435 55.5815 560.53 55.4623C559.625 55.3432 558.764 54.9992 558.026 54.4617C557.287 53.9241 556.695 53.2102 556.304 52.385C555.912 51.5598 555.733 50.6495 555.783 49.7374C555.833 48.8252 556.111 47.94 556.59 47.1627C557.07 46.3854 557.737 45.7407 558.529 45.2873L556.533 39.1409C556.336 39.1545 556.138 39.1545 555.941 39.1409C555.053 39.1429 554.179 38.9287 553.392 38.5167C552.606 38.1048 551.932 37.5075 551.428 36.7764C550.923 36.0453 550.605 35.2025 550.499 34.3207C550.394 33.4389 550.504 32.5446 550.821 31.715C551.138 30.8854 551.652 30.1456 552.319 29.5593C552.986 28.973 553.785 28.558 554.648 28.35C555.511 28.142 556.411 28.1473 557.272 28.3654C558.132 28.5836 558.927 29.008 559.586 29.6021L564.845 25.8724C564.527 25.1672 564.363 24.4026 564.362 23.629C564.362 22.1779 564.938 20.7862 565.964 19.7601C566.989 18.7339 568.38 18.1575 569.83 18.1575C571.281 18.1575 572.672 18.7339 573.697 19.7601C574.723 20.7862 575.299 22.1779 575.299 23.629C575.301 24.4019 575.139 25.1665 574.825 25.8724L580.093 29.6386C581.088 28.7254 582.388 28.218 583.738 28.216C585.188 28.216 586.579 28.7925 587.605 29.8186C588.63 30.8447 589.206 32.2364 589.206 33.6876C589.206 35.1387 588.63 36.5304 587.605 37.5565C586.579 38.5827 585.188 39.1591 583.738 39.1591C583.547 39.1591 583.346 39.1591 583.155 39.1591L581.15 45.3055C582.199 45.9049 583.02 46.8349 583.485 47.9503C583.95 49.0657 584.032 50.3037 583.72 51.4712C583.408 52.6387 582.718 53.6698 581.759 54.4038C580.799 55.1377 579.624 55.5331 578.416 55.5282V55.51Z" fill="white"/>
<path id="Vector_2" d="M569.84 18.577C570.707 18.579 571.56 18.8059 572.314 19.2356C573.068 19.6653 573.697 20.2832 574.142 21.029C574.586 21.7748 574.829 22.623 574.849 23.491C574.868 24.359 574.662 25.2172 574.251 25.9818L580.093 30.2314C580.665 29.6323 581.377 29.1844 582.164 28.9277C582.951 28.6711 583.79 28.6137 584.605 28.7607C585.42 28.9076 586.186 29.2544 586.835 29.7699C587.483 30.2855 587.994 30.9538 588.321 31.715C588.648 32.4763 588.782 33.3068 588.71 34.1324C588.638 34.958 588.363 35.7529 587.909 36.446C587.455 37.1391 586.836 37.7089 586.109 38.1043C585.381 38.4998 584.566 38.7087 583.738 38.7123C583.433 38.7165 583.128 38.6921 582.827 38.6393L580.594 45.5244C581.375 45.9013 582.045 46.4746 582.538 47.1881C583.032 47.9016 583.332 48.7309 583.409 49.5951C583.486 50.4593 583.338 51.3288 582.979 52.1186C582.62 52.9084 582.062 53.5915 581.36 54.1011C580.659 54.6107 579.837 54.9295 578.975 55.0262C578.113 55.123 577.241 54.9944 576.444 54.653C575.647 54.3116 574.952 53.7692 574.427 53.0786C573.902 52.3881 573.565 51.5731 573.449 50.7132H566.212C566.095 51.5731 565.757 52.388 565.231 53.078C564.706 53.7681 564.01 54.3099 563.212 54.6503C562.414 54.9908 561.542 55.1183 560.68 55.0204C559.818 54.9225 558.996 54.6025 558.295 54.0918C557.594 53.581 557.037 52.897 556.679 52.1065C556.322 51.316 556.175 50.4461 556.253 49.5818C556.332 48.7176 556.634 47.8885 557.128 47.1758C557.623 46.463 558.294 45.8908 559.076 45.5153L556.843 38.6393C556.543 38.6952 556.237 38.7226 555.932 38.7214C555.101 38.7199 554.284 38.5123 553.553 38.1171C552.822 37.7219 552.201 37.1515 551.745 36.457C551.289 35.7626 551.011 34.9657 550.939 34.1378C550.866 33.3099 550.999 32.4768 551.327 31.7132C551.655 30.9496 552.167 30.2793 552.817 29.7623C553.468 29.2453 554.236 28.8979 555.054 28.751C555.871 28.6042 556.712 28.6626 557.502 28.9209C558.291 29.1793 559.005 29.6295 559.577 30.2314L565.419 25.9818C565.008 25.2165 564.802 24.3575 564.821 23.4887C564.841 22.62 565.085 21.7711 565.531 21.0251C565.976 20.279 566.607 19.6613 567.362 19.2322C568.118 18.8032 568.971 18.5774 569.84 18.577ZM569.84 17.665C568.268 17.665 566.76 18.2893 565.647 19.4006C564.535 20.512 563.909 22.0196 563.906 23.5926C563.906 24.3062 564.035 25.014 564.289 25.6809L559.632 29.055C558.891 28.4637 558.019 28.0587 557.089 27.8739C556.16 27.6891 555.199 27.7298 554.288 27.9927C553.378 28.2556 552.543 28.733 551.855 29.385C551.166 30.0369 550.644 30.8444 550.332 31.7398C550.019 32.6353 549.926 33.5926 550.059 34.5316C550.192 35.4706 550.548 36.364 551.098 37.1369C551.647 37.9099 552.373 38.5399 553.216 38.9742C554.059 39.4086 554.993 39.6346 555.941 39.6333H556.205L558.028 45.1049C557.23 45.6331 556.572 46.3468 556.11 47.185C555.648 48.0231 555.396 48.9608 555.375 49.9178C555.354 50.8748 555.564 51.8226 555.989 52.6803C556.414 53.5379 557.04 54.2799 557.814 54.8427C558.588 55.4055 559.486 55.7725 560.433 55.9122C561.379 56.0518 562.345 55.9601 563.249 55.6448C564.152 55.3295 564.965 54.8 565.62 54.1016C566.274 53.4031 566.749 52.5566 567.005 51.6343H572.747C573.001 52.5599 573.476 53.41 574.13 54.1118C574.784 54.8136 575.599 55.3461 576.504 55.6638C577.41 55.9815 578.378 56.0748 579.328 55.9357C580.277 55.7967 581.178 55.4294 581.954 54.8654C582.73 54.3014 583.358 53.5575 583.784 52.6974C584.21 51.8374 584.421 50.8868 584.4 49.9272C584.378 48.9676 584.124 48.0275 583.66 47.1877C583.195 46.3478 582.534 45.6331 581.733 45.1049L583.556 39.6333H583.738C584.544 39.6781 585.35 39.5579 586.108 39.2802C586.865 39.0026 587.558 38.5732 588.144 38.0184C588.73 37.4636 589.197 36.795 589.516 36.0535C589.835 35.312 590 34.5131 590 33.7058C590 32.8985 589.835 32.0997 589.516 31.3582C589.197 30.6167 588.73 29.9481 588.144 29.3933C587.558 28.8384 586.865 28.4091 586.108 28.1314C585.35 27.8537 584.544 27.7336 583.738 27.7783C582.396 27.775 581.093 28.232 580.047 29.0732L575.399 25.6991C575.646 25.0305 575.772 24.3235 575.773 23.6108C575.774 22.8304 575.621 22.0575 575.324 21.3361C575.026 20.6148 574.589 19.9593 574.038 19.4071C573.487 18.8548 572.833 18.4167 572.112 18.1178C571.392 17.8189 570.619 17.665 569.84 17.665V17.665Z" fill="white"/>
<path id="Vector_3" d="M583.739 28.6709C583.057 28.6691 582.382 28.8065 581.755 29.0746C581.128 29.3428 580.563 29.736 580.093 30.2303L574.251 25.9807C574.665 25.2153 574.874 24.3554 574.856 23.4851C574.838 22.6149 574.595 21.7642 574.15 21.0164C573.705 20.2685 573.073 19.6493 572.317 19.2192C571.56 18.7891 570.705 18.563 569.835 18.563C568.966 18.563 568.111 18.7891 567.354 19.2192C566.598 19.6493 565.966 20.2685 565.521 21.0164C565.076 21.7642 564.832 22.6149 564.815 23.4851C564.797 24.3554 565.005 25.2153 565.42 25.9807L559.569 30.2303C558.996 29.6333 558.284 29.1875 557.497 28.9327C556.709 28.6779 555.871 28.622 555.058 28.77C554.244 28.918 553.479 29.2653 552.832 29.7809C552.184 30.2965 551.675 30.9643 551.348 31.7249C551.022 32.4855 550.888 33.3151 550.96 34.1398C551.032 34.9644 551.306 35.7585 551.759 36.4512C552.212 37.1439 552.83 37.7136 553.556 38.1095C554.283 38.5054 555.096 38.7153 555.923 38.7203C556.229 38.7216 556.534 38.6941 556.835 38.6383L559.067 45.5051C558.286 45.8806 557.614 46.4528 557.12 47.1656C556.625 47.8783 556.323 48.7074 556.245 49.5716C556.166 50.4359 556.313 51.3058 556.671 52.0963C557.029 52.8868 557.585 53.5708 558.287 54.0816C558.988 54.5923 559.809 54.9123 560.671 55.0102C561.533 55.1081 562.405 54.9806 563.203 54.6401C564.001 54.2997 564.697 53.7579 565.223 53.0678C565.749 52.3778 566.087 51.5629 566.204 50.703H573.44C573.556 51.5629 573.893 52.3779 574.418 53.0684C574.943 53.759 575.638 54.3014 576.435 54.6428C577.233 54.9841 578.105 55.1127 578.966 55.016C579.828 54.9193 580.65 54.6005 581.352 54.0909C582.054 53.5813 582.611 52.8982 582.97 52.1084C583.329 51.3186 583.477 50.4491 583.4 49.5849C583.323 48.7207 583.023 47.8914 582.53 47.1779C582.036 46.4644 581.366 45.8911 580.585 45.5142L582.827 38.6383C583.128 38.6941 583.433 38.7216 583.739 38.7203C584.422 38.7616 585.107 38.6625 585.751 38.4291C586.395 38.1957 586.985 37.8329 587.483 37.3632C587.982 36.8934 588.379 36.3265 588.651 35.6973C588.923 35.0682 589.063 34.3901 589.063 33.7047C589.063 33.0194 588.923 32.3413 588.651 31.7121C588.379 31.083 587.982 30.5161 587.483 30.0463C586.985 29.5765 586.395 29.2138 585.751 28.9804C585.107 28.747 584.422 28.6479 583.739 28.6891V28.6709ZM578.416 53.7124C577.695 53.7124 576.99 53.4985 576.391 53.0976C575.791 52.6968 575.324 52.1271 575.048 51.4606C574.772 50.7941 574.7 50.0606 574.841 49.3531C574.981 48.6455 575.328 47.9955 575.838 47.4854C576.348 46.9752 576.998 46.6278 577.705 46.4871C578.412 46.3463 579.145 46.4186 579.811 46.6946C580.477 46.9707 581.047 47.4383 581.447 48.0381C581.848 48.638 582.062 49.3432 582.062 50.0647C582.062 51.0321 581.678 51.9599 580.994 52.644C580.31 53.3281 579.383 53.7124 578.416 53.7124ZM566.213 49.3625C566.063 48.2302 565.529 47.1838 564.7 46.3987L567.434 42.5778C568.167 42.9668 568.983 43.1703 569.813 43.1705C570.639 43.1734 571.454 42.9696 572.182 42.5778L574.916 46.3987C574.085 47.1829 573.547 48.2292 573.394 49.3625H566.213ZM557.564 50.0373C557.564 49.3159 557.777 48.6106 558.178 48.0108C558.579 47.4109 559.148 46.9434 559.814 46.6673C560.48 46.3912 561.213 46.319 561.92 46.4597C562.628 46.6005 563.277 46.9479 563.787 47.458C564.297 47.9681 564.644 48.6181 564.785 49.3257C564.925 50.0333 564.853 50.7667 564.577 51.4332C564.301 52.0998 563.834 52.6695 563.235 53.0703C562.635 53.4711 561.93 53.685 561.209 53.685C560.242 53.685 559.315 53.3007 558.631 52.6166C557.948 51.9326 557.564 51.0048 557.564 50.0373ZM555.941 30.0205C556.662 30.0205 557.367 30.2345 557.967 30.6353C558.566 31.0361 559.033 31.6058 559.309 32.2723C559.585 32.9389 559.658 33.6723 559.517 34.3799C559.376 35.0875 559.029 35.7374 558.519 36.2476C558.009 36.7577 557.36 37.1051 556.653 37.2459C555.945 37.3866 555.212 37.3144 554.546 37.0383C553.88 36.7622 553.311 36.2947 552.91 35.6948C552.51 35.0949 552.296 34.3897 552.296 33.6683C552.296 32.7008 552.68 31.773 553.364 31.0889C554.047 30.4049 554.974 30.0205 555.941 30.0205ZM566.158 23.6371C566.158 22.9156 566.372 22.2104 566.772 21.6105C567.173 21.0106 567.742 20.5431 568.408 20.267C569.075 19.9909 569.808 19.9187 570.515 20.0595C571.222 20.2002 571.871 20.5476 572.381 21.0577C572.891 21.5679 573.238 22.2178 573.379 22.9254C573.52 23.633 573.447 24.3665 573.172 25.033C572.896 25.6995 572.428 26.2692 571.829 26.67C571.229 27.0708 570.525 27.2848 569.804 27.2848C569.321 27.2848 568.843 27.189 568.398 27.0028C567.953 26.8167 567.549 26.5439 567.209 26.2003C566.87 25.8567 566.603 25.4492 566.422 25.0014C566.242 24.5536 566.152 24.0743 566.158 23.5915V23.6371ZM578.79 34.5802L574.37 35.9937C574.009 35.2393 573.468 34.5862 572.794 34.0928C572.119 33.5994 571.333 33.2812 570.505 33.1667V28.6071C571.634 28.4568 572.677 27.9222 573.458 27.0933L579.318 31.3428C578.922 32.0733 578.715 32.8917 578.717 33.723C578.719 34.0071 578.743 34.2907 578.79 34.5711V34.5802ZM573.513 38.164C573.513 38.8855 573.299 39.5907 572.898 40.1906C572.498 40.7905 571.929 41.258 571.262 41.5341C570.596 41.8102 569.863 41.8824 569.156 41.7417C568.449 41.6009 567.799 41.2535 567.29 40.7434C566.78 40.2332 566.432 39.5833 566.292 38.8757C566.151 38.1681 566.223 37.4347 566.499 36.7681C566.775 36.1016 567.242 35.5319 567.842 35.1311C568.441 34.7303 569.146 34.5163 569.867 34.5163C570.833 34.5163 571.758 34.8994 572.442 35.5815C573.125 36.2636 573.51 37.1891 573.513 38.1549V38.164ZM569.156 28.6071V33.1667C568.331 33.2794 567.546 33.596 566.873 34.0879C566.2 34.5798 565.66 35.2316 565.301 35.9845L560.872 34.5711C560.929 34.2705 560.956 33.9651 560.954 33.6591C560.946 32.8505 560.743 32.0557 560.362 31.3428L566.213 27.0841C566.99 27.9146 568.03 28.4523 569.156 28.6071ZM560.462 35.9025L564.891 37.316C564.835 37.6166 564.807 37.922 564.809 38.2279C564.806 38.9111 564.943 39.5876 565.213 40.2152C565.483 40.8428 565.879 41.408 566.377 41.8756L563.643 45.7057C562.915 45.3099 562.101 45.103 561.273 45.1038C560.967 45.102 560.662 45.1294 560.362 45.1859L558.12 38.2188C559.142 37.7343 559.971 36.918 560.471 35.9025H560.462ZM578.416 45.0217C577.59 45.023 576.776 45.2265 576.047 45.6145L573.312 41.8026C573.808 41.3337 574.203 40.7682 574.473 40.1409C574.743 39.5136 574.881 38.8378 574.88 38.1549C574.882 37.849 574.855 37.5436 574.798 37.243L579.182 35.8478C579.678 36.8791 580.506 37.7139 581.533 38.2188L579.3 45.0947C579.008 45.0436 578.712 45.0192 578.416 45.0217ZM580.093 33.6956C580.093 32.9742 580.307 32.2689 580.707 31.6691C581.108 31.0692 581.677 30.6017 582.343 30.3256C583.01 30.0495 583.743 29.9772 584.45 30.118C585.157 30.2587 585.807 30.6062 586.316 31.1163C586.826 31.6264 587.173 32.2764 587.314 32.984C587.455 33.6916 587.383 34.425 587.107 35.0915C586.831 35.7581 586.363 36.3278 585.764 36.7286C585.164 37.1294 584.46 37.3433 583.739 37.3433C582.772 37.3433 581.844 36.959 581.161 36.2749C580.477 35.5908 580.093 34.663 580.093 33.6956Z" fill="#AA643B"/>
</g>
</g>
</g>
<text id="VCN" fill="#AE562C" xml:space="preserve" style="white-space: pre" font-family="Oracle Sans" font-size="16" font-weight="600" letter-spacing="0em"><tspan x="49" y="54.816">JSON Workload VCN</tspan></text>
</g>
<g id="OCI Subnet Boxes_New">
<rect x="80.5" y="64.5" width="480" height="319" stroke="#AA643B" stroke-dasharray="8 4"/>
<text id="Subnet" fill="#AE562C" xml:space="preserve" style="white-space: pre" font-family="Oracle Sans" font-size="16" font-weight="600" letter-spacing="0em"><tspan x="88" y="85.816">Private Subnet (Backend Tier)</tspan></text>
<text id="00.0.00.0/00" fill="#312D2A" xml:space="preserve" style="white-space: pre" font-family="Oracle Sans" font-size="16" font-weight="300" letter-spacing="0em"><tspan x="88" y="101.816">10.2.10.1/28</tspan></text>
<g id="Icon Master_2">
<g id="Srv-Route table and security list">
<g id="Group">
<g id="Group_2">
<path id="Vector_4" d="M512.476 83.5192V57.0769H529.238V49.2884L540.476 44.4807L551.619 49.2884V59.4807C551.619 59.5769 551.619 62.0769 550.19 65.0576C548.952 67.7499 546.381 71.4038 540.857 73.423V83.423H512.476V83.5192Z" fill="white"/>
<path id="Vector_5" d="M540.381 45.0577L551.048 49.5769V59.4808C551.048 59.5769 551.048 61.9808 549.714 64.8654C548.476 67.5577 546 71.1154 540.667 73.0385L540.476 73.1346H540.381V83.0385H512.952V57.5577H529.714V49.5769L540.381 45.0577ZM540.381 44L540 44.1923L529.333 48.7115L528.762 49V49.6731V56.6923H512.952H512V57.6538V83.0385V84H512.952H540.381H541.333V83.0385V73.8077C546.667 71.6923 549.333 68.0385 550.571 65.25C552 62.1731 552 59.5769 552 59.4808V49.5769V49L551.429 48.7115L540.762 44.1923L540.381 44Z" fill="white"/>
</g>
<g id="Group_3">
<path id="Vector_6" d="M539.048 73.712H521.524V66.9813H531.048C530.762 66.5005 530.571 66.1159 530.381 65.7313H521.524V59.0005H528.667V57.7505H512.952V83.1351H540.381V74.2889L539.905 74.0966C539.619 73.9043 539.333 73.8082 539.048 73.712ZM514.19 58.9043H520.286V65.6351H514.19V58.9043ZM520.286 66.8851V73.6159H514.19V66.8851H520.286ZM514.19 74.962H520.286V81.6928H514.19V74.962ZM539.048 81.6928H521.524V74.962H539.048V81.6928Z" fill="#AA643B"/>
<path id="Vector_7" d="M537.619 79.1926H536.381V80.4426H537.619V79.1926Z" fill="#AA643B"/>
<path id="Vector_8" d="M532.381 80.4425L533.524 79.2886L534.667 80.4425L535.524 79.4809L534.381 78.3271L535.524 77.1732L534.667 76.3079L533.524 77.4617L532.381 76.3079L531.428 77.1732L532.571 78.3271L531.428 79.4809L532.381 80.4425Z" fill="#AA643B"/>
<path id="Vector_9" d="M529.619 79.1926H528.381V80.4426H529.619V79.1926Z" fill="#AA643B"/>
<path id="Vector_10" d="M523.524 79.4809L524.381 80.4425L525.524 79.2886L526.667 80.4425L527.619 79.4809L526.476 78.3271L527.619 77.1732L526.667 76.3079L525.524 77.4617L524.381 76.3079L523.524 77.1732L524.667 78.3271L523.524 79.4809Z" fill="#AA643B"/>
<path id="Vector_11" d="M529.619 71.1157H528.381V72.3657H529.619V71.1157Z" fill="#AA643B"/>
<path id="Vector_12" d="M523.524 71.4043L524.381 72.3658L525.524 71.212L526.667 72.3658L527.619 71.4043L526.476 70.2504L527.619 69.0966L526.667 68.2312L525.524 69.385L524.381 68.2312L523.524 69.0966L524.667 70.2504L523.524 71.4043Z" fill="#AA643B"/>
<path id="Vector_13" d="M528.095 64.385H529.333V63.135C529.333 63.135 529.333 63.135 529.333 63.0388H528.095V64.385Z" fill="#AA643B"/>
<path id="Vector_14" d="M523.143 63.4235L524.095 64.2889L525.238 63.1351L526.381 64.2889L527.238 63.4235L526.095 62.2697L527.238 61.1158L526.381 60.1543L525.238 61.3081L524.095 60.1543L523.143 61.1158L524.286 62.2697L523.143 63.4235Z" fill="#AA643B"/>
<path id="Vector_15" d="M529.714 49.5771V59.4809C529.714 59.5771 529.81 61.9809 531.048 64.8656C532.286 67.5579 534.857 71.1156 540.191 73.0386L540.381 73.1348L540.571 73.0386C545.905 71.1156 548.476 67.5579 549.619 64.8656C550.952 61.9809 550.952 59.5771 550.952 59.4809V49.5771L540.381 45.0579L529.714 49.5771ZM549.81 59.4809C549.81 59.5771 549.619 68.2309 540.476 71.6925C536.667 70.2502 533.905 67.7502 532.286 64.3848C531.048 61.7886 531.048 59.4809 531.048 59.4809V50.4425L540.476 46.404L549.81 50.4425V59.4809Z" fill="#AA643B"/>
<path id="Vector_16" d="M539.238 60.8271H534.286V62.0771H539.238V60.8271Z" fill="#AA643B"/>
<path id="Vector_17" d="M539.238 54.385H534.286V55.635H539.238V54.385Z" fill="#AA643B"/>
<path id="Vector_18" d="M545.905 52.9426L543.143 55.6349L542.19 54.6734L541.238 55.5388L543.143 57.4619L546.762 53.808L545.905 52.9426Z" fill="#AA643B"/>
<path id="Vector_19" d="M534.286 58.904H539.048H539.238V57.5579H534.286V58.904Z" fill="#AA643B"/>
</g>
</g>
</g>
</g>
</g>
<g id="OCI Subnet Boxes_New_2">
<rect x="80.5" y="408.5" width="479" height="159" stroke="#AA643B" stroke-dasharray="8 4"/>
<text id="Subnet_2" fill="#AE562C" xml:space="preserve" style="white-space: pre" font-family="Oracle Sans" font-size="16" font-weight="600" letter-spacing="0em"><tspan x="88" y="429.816">Private Subnet (Database Tier)</tspan></text>
<text id="00.0.00.0/00_2" fill="#312D2A" xml:space="preserve" style="white-space: pre" font-family="Oracle Sans" font-size="16" font-weight="300" letter-spacing="0em"><tspan x="88" y="445.816">10.2.20.1/28</tspan></text>
<g id="Icon Master_3">
<g id="Srv-Route table and security list_2">
<g id="Group_4">
<g id="Group_5">
<path id="Vector_20" d="M511.476 427.519V401.077H528.238V393.288L539.476 388.481L550.619 393.288V403.481C550.619 403.577 550.619 406.077 549.19 409.058C547.952 411.75 545.381 415.404 539.857 417.423V427.423H511.476V427.519Z" fill="white"/>
<path id="Vector_21" d="M539.381 389.058L550.048 393.577V403.481C550.048 403.577 550.048 405.981 548.714 408.865C547.476 411.558 545 415.115 539.667 417.038L539.476 417.135H539.381V427.038H511.952V401.558H528.714V393.577L539.381 389.058ZM539.381 388L539 388.192L528.333 392.712L527.762 393V393.673V400.692H511.952H511V401.654V427.038V428H511.952H539.381H540.333V427.038V417.808C545.667 415.692 548.333 412.038 549.571 409.25C551 406.173 551 403.577 551 403.481V393.577V393L550.429 392.712L539.762 388.192L539.381 388Z" fill="white"/>
</g>
<g id="Group_6">
<path id="Vector_22" d="M538.048 417.712H520.524V410.981H530.048C529.762 410.5 529.571 410.116 529.381 409.731H520.524V403H527.667V401.75H511.952V427.135H539.381V418.289L538.905 418.097C538.619 417.904 538.333 417.808 538.048 417.712ZM513.19 402.904H519.286V409.635H513.19V402.904ZM519.286 410.885V417.616H513.19V410.885H519.286ZM513.19 418.962H519.286V425.693H513.19V418.962ZM538.048 425.693H520.524V418.962H538.048V425.693Z" fill="#AA643B"/>
<path id="Vector_23" d="M536.619 423.193H535.381V424.443H536.619V423.193Z" fill="#AA643B"/>
<path id="Vector_24" d="M531.381 424.442L532.524 423.289L533.667 424.442L534.524 423.481L533.381 422.327L534.524 421.173L533.667 420.308L532.524 421.462L531.381 420.308L530.428 421.173L531.571 422.327L530.428 423.481L531.381 424.442Z" fill="#AA643B"/>
<path id="Vector_25" d="M528.619 423.193H527.381V424.443H528.619V423.193Z" fill="#AA643B"/>
<path id="Vector_26" d="M522.524 423.481L523.381 424.442L524.524 423.289L525.667 424.442L526.619 423.481L525.476 422.327L526.619 421.173L525.667 420.308L524.524 421.462L523.381 420.308L522.524 421.173L523.667 422.327L522.524 423.481Z" fill="#AA643B"/>
<path id="Vector_27" d="M528.619 415.116H527.381V416.366H528.619V415.116Z" fill="#AA643B"/>
<path id="Vector_28" d="M522.524 415.404L523.381 416.366L524.524 415.212L525.667 416.366L526.619 415.404L525.476 414.25L526.619 413.097L525.667 412.231L524.524 413.385L523.381 412.231L522.524 413.097L523.667 414.25L522.524 415.404Z" fill="#AA643B"/>
<path id="Vector_29" d="M527.095 408.385H528.333V407.135C528.333 407.135 528.333 407.135 528.333 407.039H527.095V408.385Z" fill="#AA643B"/>
<path id="Vector_30" d="M522.143 407.424L523.095 408.289L524.238 407.135L525.381 408.289L526.238 407.424L525.095 406.27L526.238 405.116L525.381 404.154L524.238 405.308L523.095 404.154L522.143 405.116L523.286 406.27L522.143 407.424Z" fill="#AA643B"/>
<path id="Vector_31" d="M528.714 393.577V403.481C528.714 403.577 528.81 405.981 530.048 408.866C531.286 411.558 533.857 415.116 539.191 417.039L539.381 417.135L539.571 417.039C544.905 415.116 547.476 411.558 548.619 408.866C549.952 405.981 549.952 403.577 549.952 403.481V393.577L539.381 389.058L528.714 393.577ZM548.81 403.481C548.81 403.577 548.619 412.231 539.476 415.692C535.667 414.25 532.905 411.75 531.286 408.385C530.048 405.789 530.048 403.481 530.048 403.481V394.442L539.476 390.404L548.81 394.442V403.481Z" fill="#AA643B"/>
<path id="Vector_32" d="M538.238 404.827H533.286V406.077H538.238V404.827Z" fill="#AA643B"/>
<path id="Vector_33" d="M538.238 398.385H533.286V399.635H538.238V398.385Z" fill="#AA643B"/>
<path id="Vector_34" d="M544.905 396.943L542.143 399.635L541.19 398.673L540.238 399.539L542.143 401.462L545.762 397.808L544.905 396.943Z" fill="#AA643B"/>
<path id="Vector_35" d="M533.286 402.904H538.048H538.238V401.558H533.286V402.904Z" fill="#AA643B"/>
</g>
</g>
</g>
</g>
</g>
<g id="Gateway">
<rect id="Rectangle 699" x="40" y="246" width="2" height="76" fill="#F5F4F2"/>
<g id="Icon Master_4">
<g id="Srv-NAT gateway">
<g id="Group 28">
<path id="Vector_36" d="M41.1194 285.697C40.5635 285.697 40.0079 285.668 39.4549 285.612H39.1239L38.7929 285.564C38.4713 285.564 38.1592 285.479 37.8471 285.413C37.535 285.346 37.2324 285.261 36.9014 285.185L36.5798 285.1L36.2961 284.977C34.704 284.486 33.1933 283.761 31.8132 282.827L31.4444 282.552L31.1228 282.306L30.527 281.851L30.196 281.548L29.9312 281.311C29.7231 281.122 29.515 280.932 29.3164 280.733L29.0327 280.421C28.749 280.118 28.4747 279.815 28.2099 279.474C26.1442 276.935 24.8764 273.839 24.5667 270.579C24.2569 267.318 24.9192 264.039 26.4697 261.155C26.7156 260.691 26.971 260.274 27.2263 259.876L27.3776 259.658C27.6141 259.317 27.8505 258.995 28.0964 258.711L28.3612 258.399C28.5882 258.124 28.8341 257.849 29.0894 257.575L29.3826 257.281C29.6474 257.016 29.9123 256.76 30.196 256.523L30.4419 256.305C30.7729 256.031 31.085 255.784 31.3876 255.548L31.5673 255.387C31.9267 255.131 32.305 254.894 32.6833 254.667C33.9872 253.906 35.3867 253.323 36.8446 252.933C37.327 252.81 37.7904 252.706 38.2538 252.63H38.3295L36.769 251.02L41.11 246.672L45.4605 251.02L43.8621 252.63H43.9094L44.4012 252.706L44.8646 252.82L45.328 252.943L45.8955 253.085L46.3684 253.227C47.154 253.485 47.9191 253.801 48.6571 254.174L49.1205 254.411C49.3191 254.515 49.4988 254.629 49.6785 254.742L50.0663 254.979C50.4635 255.235 50.8418 255.51 51.2201 255.784C52.4021 256.695 53.458 257.759 54.36 258.948C54.6816 259.374 54.9275 259.744 55.1639 260.113L55.2868 260.312C55.4949 260.653 55.6935 261.003 55.8732 261.354L56.0435 261.676C56.2042 262.007 56.3556 262.348 56.4974 262.689L56.6582 263.087C56.7811 263.428 56.9041 263.769 57.0081 264.129L57.1311 264.508C57.2351 264.906 57.3297 265.294 57.4148 265.692L57.4621 265.957C57.5566 266.433 57.626 266.914 57.6701 267.397C57.9452 270.144 57.5358 272.917 56.4785 275.467C55.0246 278.962 52.4128 281.849 49.0827 283.641C48.6666 283.869 48.2883 284.039 47.91 284.21L47.7586 284.285L47.5317 284.39L46.7656 284.674L46.3873 284.806L45.9901 284.948C45.7536 285.024 45.5172 285.072 45.2902 285.138L44.8552 285.242L44.4107 285.346C43.328 285.57 42.225 285.682 41.1194 285.678V285.697ZM38.424 252.63L38.7456 252.573L39.3793 252.479L39.8994 252.431H39.9656V251.067L38.424 252.63ZM42.9164 252.469L43.5027 252.554L43.8338 252.611L42.2543 251.067V252.422H42.3206V252.374L42.9164 252.469Z" fill="white"/>
<path id="Vector_37" d="M41.1095 247.336L42.7362 248.965L42.793 249.022L44.8074 251.02L43.8617 251.967L42.8213 250.925L41.781 249.921V252.877C42.1215 252.877 42.4619 252.877 42.793 252.933C43.0578 252.933 43.3226 253.009 43.5874 253.047L44.2778 253.151C44.5048 253.199 44.7318 253.265 44.9493 253.322C45.1668 253.379 45.4789 253.445 45.7343 253.521C46.8086 253.853 47.8451 254.298 48.8269 254.847C49.0822 254.989 49.3092 255.14 49.5551 255.292L49.7443 255.406C50.132 255.652 50.5009 255.917 50.8602 256.192C52.0345 257.069 53.0844 258.101 53.9812 259.261L54.038 259.327C54.2933 259.677 54.5392 260.037 54.7662 260.397L54.8892 260.587C55.0878 260.918 55.2769 261.259 55.4566 261.6L55.6174 261.913C55.7782 262.235 55.92 262.566 56.0524 262.86C56.1092 262.983 56.1659 263.116 56.2132 263.239C56.3362 263.58 56.4497 263.911 56.5537 264.252C56.5537 264.385 56.6388 264.508 56.6672 264.631C56.7807 265.01 56.8658 265.389 56.9509 265.777C56.9509 265.863 56.9509 265.948 56.9509 266.033C57.0409 266.497 57.1072 266.965 57.1495 267.435C57.4601 270.591 56.8332 273.769 55.3476 276.569C53.8619 279.37 51.5836 281.669 48.7985 283.177H48.7418C48.3918 283.367 48.023 283.537 47.6636 283.708L47.2853 283.878C46.9921 284.001 46.6989 284.106 46.3963 284.21C46.0936 284.314 45.9991 284.361 45.791 284.418C45.5829 284.475 45.2046 284.579 44.9115 284.646C44.6183 284.712 44.4859 284.769 44.2683 284.807C43.2134 285.023 42.1391 285.131 41.0622 285.129C40.5222 285.132 39.9824 285.106 39.445 285.053L38.9248 284.977C38.5749 284.977 38.225 284.882 37.875 284.816C37.5251 284.75 37.1941 284.646 36.8536 284.56L36.3429 284.428C34.7958 283.953 33.3292 283.247 31.9924 282.334C31.8033 282.211 31.6331 282.069 31.4534 281.937C31.2737 281.804 30.9616 281.586 30.7346 281.387C30.5076 281.188 30.413 281.103 30.2523 280.951C30.0915 280.8 29.7794 280.535 29.5619 280.307C29.3443 280.08 29.3727 280.099 29.2781 280.004C29.007 279.707 28.7422 279.392 28.4837 279.057C26.5196 276.593 25.3211 273.605 25.037 270.465C24.7528 267.324 25.3955 264.17 26.8854 261.392C27.1124 260.975 27.3582 260.568 27.6136 260.179L27.7838 259.933C28.0014 259.602 28.2378 259.289 28.4742 258.986L28.7296 258.673C28.9566 258.408 29.193 258.134 29.4389 257.878L29.7321 257.584C29.9874 257.328 30.2428 257.082 30.5171 256.845C30.601 256.768 30.6895 256.695 30.7819 256.628C31.0751 256.372 31.3872 256.135 31.7276 255.908L31.9073 255.775C32.2667 255.529 32.6261 255.292 33.0044 255.074H33.0706C34.3113 254.351 35.6444 253.799 37.0333 253.435C37.4778 253.322 37.9223 253.218 38.3668 253.142H38.5938C38.8681 253.142 39.1423 253.038 39.4261 253.009C39.7665 253.009 40.0976 252.943 40.438 252.933V249.921L39.4261 250.935L38.3857 251.977L37.44 251.03L39.4261 249.031L39.4828 248.974L41.1095 247.345V247.336ZM41.1095 246.009L40.4475 246.682L38.8208 248.302L38.764 248.359L36.7685 250.348L36.097 251.02L36.7685 251.683L37.4022 252.318C37.2036 252.318 36.9955 252.403 36.7969 252.46C35.314 252.856 33.8895 253.445 32.5599 254.212L32.5126 254.26C32.1248 254.487 31.7371 254.743 31.3588 254.998L31.1696 255.131C30.8386 255.377 30.5171 255.633 30.2239 255.898L29.9402 256.135C29.6659 256.372 29.4011 256.628 29.1079 256.912L29.0417 256.978L28.7296 257.224C28.4837 257.48 28.2378 257.755 27.973 258.067L27.9068 258.152L27.7082 258.389C27.4717 258.692 27.2353 259.014 26.9705 259.393L26.9232 259.469L26.8381 259.63C26.5733 260.037 26.3179 260.464 26.0815 260.909C24.4785 263.866 23.7847 267.231 24.0877 270.582C24.3906 273.933 25.6766 277.119 27.7838 279.739L27.8311 279.796C28.1054 280.137 28.408 280.468 28.6634 280.743L28.7296 280.857L28.9187 281.065C29.1268 281.274 29.3349 281.463 29.5524 281.652L29.6564 281.757L29.8078 281.889L30.1671 282.211L30.7724 282.675L30.9332 282.798L31.1034 282.931L31.4912 283.215C32.9114 284.179 34.4669 284.926 36.1065 285.432L36.4659 285.526H36.6456H36.759C37.0711 285.612 37.3927 285.697 37.7048 285.763C38.0169 285.83 38.3763 285.877 38.6978 285.915H38.8113H38.991H39.3599C39.9273 285.972 40.5042 286 41.0717 286C42.212 286 43.3494 285.886 44.4669 285.659L44.9304 285.545L45.1384 285.489H45.3465C45.5924 285.432 45.8383 285.375 46.0747 285.299L46.5192 285.148L46.7178 285.072L46.8502 285.024C47.1245 284.93 47.3893 284.835 47.6636 284.721L47.9189 284.608L48.0608 284.541C48.4013 284.39 48.808 284.2 49.2052 283.982H49.2525C52.6635 282.136 55.3353 279.169 56.8185 275.581C57.9003 272.971 58.3226 270.134 58.048 267.321V267.265C58.0007 266.781 57.925 266.317 57.8399 265.806C57.8345 265.746 57.8345 265.686 57.8399 265.626V265.531C57.7453 265.086 57.6508 264.688 57.5467 264.319C57.5209 264.219 57.4893 264.121 57.4522 264.025V263.921C57.3292 263.523 57.2063 263.173 57.0833 262.851C57.0833 262.737 56.9982 262.623 56.9509 262.51V262.443C56.7996 262.064 56.6483 261.723 56.4875 261.401C56.4307 261.307 56.3834 261.202 56.3362 261.108C56.1186 260.7 55.92 260.341 55.712 260L55.5985 259.82C55.3431 259.412 55.0783 259.024 54.8135 258.664L54.7473 258.588C53.8183 257.411 52.737 256.363 51.5317 255.472C51.1061 255.15 50.7089 254.866 50.3212 254.619L50.1888 254.525H50.1226L49.9239 254.402C49.7348 254.278 49.5456 254.165 49.347 254.061L48.4013 253.559C47.9757 253.36 47.5406 253.17 47.1056 253.009L46.0558 252.63H46.0085L45.4316 252.488L45.2046 252.431L44.9777 252.375H44.8358L45.46 251.683L46.122 251.011L45.46 250.338L43.4644 248.349L43.4077 248.292L41.781 246.673L41.1095 246V246.009Z" fill="white"/>
<path id="Vector_38" d="M42.7939 252.934V254.288C46.5539 254.719 50.007 256.574 52.4452 259.473C54.8833 262.372 56.1217 266.095 55.9064 269.879C55.6911 273.663 54.0384 277.222 51.2873 279.824C48.5361 282.427 44.895 283.877 41.1104 283.877C37.3259 283.877 33.6847 282.427 30.9335 279.824C28.1824 277.222 26.5297 273.663 26.3144 269.879C26.0991 266.095 27.3375 262.372 29.7757 259.473C32.2138 256.574 35.6669 254.719 39.427 254.288V252.934C35.3062 253.366 31.5081 255.365 28.8163 258.52C26.1244 261.674 24.744 265.743 24.96 269.887C25.1759 274.031 26.9717 277.934 29.9768 280.791C32.9819 283.647 36.9671 285.24 41.1104 285.24C45.2537 285.24 49.2389 283.647 52.244 280.791C55.2492 277.934 57.0449 274.031 57.2608 269.887C57.4768 265.743 56.0964 261.674 53.4046 258.52C50.7127 255.365 46.9146 253.366 42.7939 252.934Z" fill="#2D5967"/>
<path id="Vector_39" d="M40.439 281.179H41.7819V249.922L42.7939 250.935L43.8342 251.977L44.7894 251.02L42.7939 249.022L42.7371 248.965L41.1104 247.336L39.4837 248.965L39.427 249.022L37.4409 251.02L38.3867 251.977L39.427 250.935L40.439 249.922V281.179Z" fill="#2D5967"/>
<path id="Vector_40" d="M46.4726 271.764L44.4204 269.708H53.0645V268.363H44.4204L46.4726 266.308L45.5174 265.351L42.7937 268.079L41.8479 269.036L42.7937 269.992L45.5174 272.72L46.4726 271.764Z" fill="#2D5967"/>
<path id="Vector_41" d="M35.7563 266.308L37.7991 268.363H29.1549V269.708H37.7991L35.7563 271.764L36.702 272.72L39.4258 269.992L40.381 269.036L39.4258 268.079L36.702 265.351L35.7563 266.308Z" fill="#2D5967"/>
</g>
</g>
<g id="Icon Text Label">
<text id="IconLabel" fill="black" xml:space="preserve" style="white-space: pre" font-family="Oracle Sans" font-size="16" letter-spacing="0em"><tspan x="25.6094" y="303.816">NAT</tspan></text>
<text id="IconLabel_2" fill="black" xml:space="preserve" style="white-space: pre" font-family="Oracle Sans" font-size="16" letter-spacing="0em"><tspan x="11.0859" y="319.816">gateway</tspan></text>
</g>
</g>
</g>
<g id="Gateway_2">
<rect id="Rectangle 699_2" x="598" y="246" width="2" height="76" fill="#F5F4F2"/>
<g id="Icon Master_5">
<g id="Srv-OCI Service Gateway">
<g id="Group 37">
<path id="Vector_42" d="M601.146 285.707C598.435 285.712 595.76 285.087 593.333 283.879C590.906 282.672 588.795 280.916 587.167 278.752C586.218 278.102 585.334 277.363 584.527 276.545C584.131 276.18 583.768 275.782 583.441 275.355C583.288 275.165 582.631 274.29 582.488 274.014C582.345 273.738 582.307 273.728 582.221 273.576L581.964 273.157C581.849 272.958 581.725 272.767 581.621 272.568C581.516 272.368 581.459 272.254 581.382 272.092L581.163 271.626C581.068 271.435 580.973 271.245 580.887 271.045C580.801 270.846 580.744 270.684 580.677 270.493L580.468 270.008C580.391 269.827 580.325 269.637 580.258 269.437C580.191 269.238 580.144 269 580.086 268.781L579.953 268.267C579.953 268.105 579.867 267.934 579.829 267.763C579.791 267.592 579.724 267.154 579.686 266.811L579.629 266.383C579.629 266.25 579.581 266.126 579.562 265.993C579.505 265.441 579.477 264.842 579.477 264.243C579.482 259.591 581.335 255.132 584.629 251.843C587.923 248.554 592.39 246.704 597.048 246.698C597.611 246.698 598.201 246.698 598.792 246.784L599.145 246.832H599.354C599.726 246.832 600.107 246.927 600.479 247.003L600.917 247.174L601.108 247.222C601.46 247.307 601.775 247.384 602.061 247.479L602.556 247.64L602.747 247.707L603.624 248.03C603.824 248.107 604.014 248.202 604.205 248.287H604.31L605.12 248.677L605.768 249.039C606.034 249.191 606.292 249.343 606.54 249.505L607.168 249.933L607.864 250.457C608.171 250.682 608.461 250.93 608.731 251.199C609.559 251.938 610.315 252.753 610.99 253.634C614.103 255.739 616.459 258.785 617.71 262.325C618.961 265.866 619.041 269.713 617.94 273.303C616.838 276.892 614.612 280.034 611.589 282.267C608.567 284.5 604.906 285.705 601.146 285.707Z" fill="white"/>
<path id="Vector_43" d="M597.048 247.173C597.615 247.173 598.181 247.202 598.745 247.259L599.288 247.335C599.659 247.383 600.021 247.43 600.384 247.506C600.603 247.506 600.812 247.611 601.032 247.659L601.984 247.896L602.632 248.125C602.928 248.229 603.214 248.325 603.5 248.439L604.157 248.734L604.948 249.114C605.167 249.228 605.377 249.352 605.587 249.476C605.796 249.599 606.092 249.771 606.33 249.923C606.568 250.075 606.74 250.199 606.94 250.342C607.14 250.484 607.397 250.675 607.626 250.855L608.445 251.55C609.276 252.293 610.032 253.115 610.704 254.005C612.765 255.39 614.498 257.207 615.784 259.329C617.07 261.452 617.876 263.829 618.147 266.294C618.418 268.76 618.148 271.255 617.354 273.605C616.561 275.956 615.263 278.105 613.553 279.904C611.842 281.702 609.759 283.107 607.449 284.019C605.139 284.932 602.657 285.33 600.177 285.187C597.696 285.044 595.277 284.362 593.088 283.19C590.899 282.017 588.992 280.383 587.5 278.399C586.552 277.759 585.671 277.026 584.87 276.211C584.87 276.211 584.012 275.259 583.822 275.05C583.631 274.841 583.021 273.994 582.869 273.737C582.716 273.48 582.612 273.318 582.488 273.109C582.364 272.9 582.164 272.595 582.021 272.338C581.878 272.082 581.792 271.872 581.687 271.644C581.582 271.416 581.42 271.121 581.306 270.845C581.192 270.569 581.116 270.331 581.02 270.074C580.925 269.817 580.82 269.56 580.734 269.294C580.649 269.027 580.582 268.694 580.506 268.4C580.429 268.105 580.372 267.914 580.315 267.667C580.258 267.42 580.201 266.944 580.153 266.582C580.153 266.383 580.077 266.183 580.058 265.983C579.988 265.412 579.953 264.832 579.953 264.242C579.968 259.72 581.774 255.387 584.977 252.189C588.179 248.992 592.519 247.188 597.048 247.173ZM597.048 246.222C592.266 246.237 587.684 248.14 584.303 251.516C580.921 254.893 579.015 259.467 579 264.242C578.999 264.855 579.03 265.468 579.095 266.078C579.095 266.221 579.095 266.363 579.153 266.497C579.21 266.63 579.153 266.639 579.153 266.716V266.915C579.153 267.22 579.229 267.534 579.295 267.867C579.362 268.2 579.381 268.219 579.429 268.4C579.477 268.58 579.429 268.561 579.496 268.637L579.553 268.885C579.61 269.123 579.667 269.351 579.743 269.579C579.82 269.808 579.877 269.979 579.953 270.179L580.039 270.407L580.124 270.645C580.188 270.842 580.261 271.036 580.344 271.225C580.429 271.435 580.534 271.644 580.63 271.844L580.744 272.062L580.849 272.291C580.922 272.463 581.004 272.632 581.096 272.795C581.211 273.004 581.335 273.204 581.459 273.413L581.582 273.613L581.706 273.813C581.802 273.975 581.887 274.127 581.992 274.279C582.097 274.432 582.85 275.459 583.021 275.659C583.365 276.107 583.744 276.527 584.155 276.915C584.953 277.726 585.827 278.459 586.766 279.103C588.363 281.136 590.38 282.803 592.679 283.989C594.979 285.176 597.507 285.854 600.092 285.979C602.677 286.103 605.259 285.671 607.662 284.711C610.065 283.751 612.233 282.286 614.019 280.416C615.804 278.545 617.166 276.313 618.011 273.87C618.856 271.428 619.165 268.832 618.917 266.26C618.668 263.688 617.868 261.199 616.571 258.963C615.274 256.727 613.51 254.796 611.399 253.3C610.716 252.41 609.95 251.585 609.112 250.836C608.842 250.575 608.556 250.33 608.255 250.104L607.53 249.561L606.882 249.124C606.635 248.962 606.368 248.81 606.111 248.658C605.853 248.505 605.663 248.391 605.434 248.277L604.595 247.868L604.481 247.82L603.9 247.563C603.604 247.44 603.3 247.335 603.004 247.23L602.766 247.173L602.251 246.993C601.937 246.897 601.622 246.821 601.298 246.745H601.232L601.041 246.679L600.574 246.574C600.183 246.498 599.793 246.441 599.412 246.393H599.231L598.83 246.308C598.23 246.222 597.63 246.222 597.048 246.222Z" fill="white"/>
<path id="Vector_44" d="M583.365 271.854C582.059 269.53 581.376 266.908 581.383 264.243C581.385 261.576 582.069 258.953 583.371 256.625C584.674 254.296 586.55 252.338 588.823 250.937C591.096 249.536 593.69 248.738 596.359 248.619C599.028 248.5 601.683 249.064 604.072 250.257C605.613 250.498 607.115 250.939 608.541 251.57C605.267 248.437 600.88 246.731 596.347 246.828C591.813 246.924 587.503 248.815 584.365 252.084C581.228 255.353 579.519 259.732 579.616 264.259C579.712 268.786 581.606 273.089 584.88 276.221C584.185 274.839 583.675 273.37 583.365 271.854Z" fill="#2D5967"/>
<path id="Vector_45" d="M601.146 251.084C597.767 251.093 594.467 252.102 591.661 253.982C588.856 255.862 586.671 258.53 585.382 261.648C584.093 264.767 583.758 268.197 584.42 271.505C585.082 274.813 586.71 277.852 589.099 280.238C591.488 282.623 594.532 284.249 597.845 284.909C601.159 285.57 604.594 285.235 607.718 283.949C610.841 282.662 613.513 280.481 615.396 277.679C617.279 274.878 618.289 271.583 618.299 268.209C618.299 263.667 616.492 259.311 613.275 256.1C610.058 252.888 605.695 251.084 601.146 251.084ZM601.146 283.803C598.045 283.803 595.014 282.885 592.436 281.165C589.858 279.445 587.849 277 586.663 274.139C585.477 271.279 585.167 268.132 585.773 265.095C586.378 262.059 587.872 259.27 590.065 257.082C592.259 254.894 595.053 253.404 598.094 252.801C601.135 252.198 604.287 252.509 607.152 253.695C610.016 254.881 612.463 256.889 614.185 259.464C615.906 262.039 616.824 265.066 616.822 268.162C616.817 272.31 615.163 276.287 612.224 279.22C609.285 282.152 605.301 283.801 601.146 283.803Z" fill="#2D5967"/>
<path id="Vector_46" d="M605.033 277.02L604.033 276.012L601.86 278.181V258.315L604.033 260.485L605.033 259.476L601.145 255.594L597.257 259.476L598.267 260.485L600.44 258.315V278.181L598.267 276.012L597.257 277.02L601.145 280.902L605.033 277.02Z" fill="#2D5967"/>
<path id="Vector_47" d="M596.485 272.042L600.373 268.161L596.485 264.279L595.475 265.278L597.648 267.447H588.5V268.865H597.648L595.475 271.034L596.485 272.042Z" fill="#2D5967"/>
<path id="Vector_48" d="M613.791 267.447H604.653L606.816 265.278L605.815 264.279L601.918 268.161L605.815 272.042L606.816 271.034L604.653 268.865H613.791V267.447Z" fill="#2D5967"/>
</g>
</g>
<g id="Icon Text Label_2">
<text id="IconLabel_3" fill="black" xml:space="preserve" style="white-space: pre" font-family="Oracle Sans" font-size="16" letter-spacing="0em"><tspan x="572.789" y="303.816">Service</tspan></text>
<text id="IconLabel_4" fill="black" xml:space="preserve" style="white-space: pre" font-family="Oracle Sans" font-size="16" letter-spacing="0em"><tspan x="568.117" y="319.816">Gateway</tspan></text>
</g>
</g>
</g>
<g id="Group 2">
<g id="OCI Region_2">
<rect x="97.5" y="112.5" width="446" height="255" fill="white"/>
<rect x="97.5" y="112.5" width="446" height="255" stroke="#9E9892" stroke-dasharray="2 2"/>
<text id="Tier" fill="#312D2A" xml:space="preserve" style="white-space: pre" font-family="Oracle Sans" font-size="16" letter-spacing="0em"><tspan x="105" y="133.816">Instance Pool</tspan></text>
</g>
</g>
</g>
<g id="Group 6">
<g id="OCI Region_3">
<rect x="112.5" y="152.5" width="200" height="199" rx="3.5" fill="white"/>
<rect x="112.5" y="152.5" width="200" height="199" rx="3.5" stroke="#9E9892"/>
</g>
<path id="Vector 13" d="M313 256H112" stroke="#9E9892" stroke-dasharray="2 2"/>
<g id="Icon Master_6">
<g id="Srv-Oracle REST&#226;&#128;&#168;Data Services">
<g id="Group 437">
<path id="Vector_49" d="M199.422 295.506L195.689 266.652L212.453 262.494L229.292 266.652L225.37 295.506L212.462 301.478L199.422 295.506Z" fill="white"/>
<path id="Vector_50" d="M212.453 262.949L228.76 267.013L224.933 295.23L212.462 300.927L199.859 295.23L196.221 267.013L212.453 262.949ZM212.453 262L212.263 262.057L195.984 266.092L195.167 266.291L195.271 267.136L198.966 295.306L199.033 295.829L199.507 296.047L212.111 301.82L212.51 302L212.909 301.82L225.379 296.047L225.854 295.829L225.921 295.306L229.72 267.136L229.834 266.301L229.007 266.092L212.681 262.057L212.453 262Z" fill="white"/>
<path id="Vector_51" d="M212.453 262.949L196.221 267.013L199.859 295.23L212.462 300.927L224.933 295.23L228.732 267.061L212.453 262.949ZM223.66 294.281L212.453 299.408L201.15 294.281L197.769 268.076L212.453 264.421L227.203 268.076L223.66 294.281Z" fill="#2D5967"/>
<path id="Vector_52" d="M212.491 278.976C211.731 278.976 205.063 279.042 205.063 281.34C205.063 281.34 205.063 281.397 205.063 281.425C205.063 281.454 205.063 281.482 205.063 281.501V293.16C205.063 295.354 211.246 295.468 212.491 295.468C213.735 295.468 219.908 295.354 219.908 293.16V281.501C219.912 281.476 219.912 281.451 219.908 281.425C219.913 281.397 219.913 281.368 219.908 281.34C219.908 279.09 213.212 278.976 212.491 278.976ZM212.491 294.062C208.929 294.062 206.839 293.426 206.469 293.056V290.749C208.421 291.336 210.453 291.615 212.491 291.575C214.525 291.614 216.554 291.336 218.503 290.749V293.056C218.132 293.426 216.062 294.062 212.491 294.062ZM218.503 289.173C218.132 289.534 216.043 290.17 212.491 290.17C208.938 290.17 206.839 289.534 206.469 289.173V286.913C208.421 287.501 210.453 287.779 212.491 287.739C214.525 287.779 216.554 287.5 218.503 286.913V289.173ZM218.503 285.375C218.132 285.736 216.043 286.372 212.491 286.372C208.938 286.372 206.839 285.736 206.469 285.337V282.888C208.419 283.488 210.451 283.779 212.491 283.752C214.527 283.779 216.556 283.487 218.503 282.888V285.375ZM218.408 281.378C217.847 281.758 215.824 282.327 212.491 282.327C209.157 282.327 207.124 281.748 206.573 281.378C207.124 280.998 209.157 280.428 212.491 280.428C215.824 280.428 217.847 280.989 218.408 281.34V281.378Z" fill="#2D5967"/>
<path id="Vector_53" d="M205.671 274.485L204.674 275.435L207.457 278.217L210.23 275.444L209.28 274.495L208.188 275.577V275.416C208.173 273.91 207.568 272.469 206.503 271.404C205.437 270.339 203.996 269.734 202.489 269.719H200.865V271.067H202.413C203.564 271.07 204.666 271.528 205.48 272.341C206.293 273.154 206.751 274.256 206.754 275.406V275.568L205.671 274.485Z" fill="#2D5967"/>
<path id="Vector_54" d="M222.558 269.662C221.052 269.676 219.611 270.281 218.545 271.347C217.48 272.412 216.875 273.852 216.86 275.358V275.52L215.777 274.437L214.78 275.387L217.562 278.159L220.336 275.377L219.339 274.428L218.265 275.51V275.349C218.265 274.2 218.721 273.097 219.533 272.284C220.345 271.471 221.447 271.012 222.596 271.01H224.163V269.662H222.558Z" fill="#2D5967"/>
<path id="Vector_55" d="M211.788 269.947V277.429H213.194V269.947L215.321 272.074L216.318 271.087L212.491 267.26L208.663 271.087L209.651 272.074L211.788 269.947Z" fill="#2D5967"/>
</g>
</g>
<g id="Icon Text Label_3">
<text id="IconLabel_5" fill="black" xml:space="preserve" style="white-space: pre" font-family="Oracle Sans" font-size="16" letter-spacing="0em"><tspan x="121.227" y="319.816">Oracle REST Data Service </tspan></text>
<text id="IconLabel_6" fill="black" xml:space="preserve" style="white-space: pre" font-family="Oracle Sans" font-size="16" letter-spacing="0em"><tspan x="142.445" y="335.816"> with MongoDB API</tspan></text>
</g>
</g>
<g id="Icon Master_7">
<g id="Application-Server">
<g id="Group 191">
<path id="Vector_56" d="M178.199 221.302V218.981L181.119 217.527H181.776V163.978H210.523V217.527H211.179L214.1 218.981V221.302H178.199Z" fill="white"/>
<path id="Vector_57" d="M209.824 164.677V218.227H211.04L213.429 219.415V220.603H178.897V219.415L181.287 218.227H182.475V164.677H209.824ZM211.221 163.279H181.078V216.828H180.952L180.658 216.968L178.269 218.157L177.5 218.548V222.002H214.799V218.548L214.016 218.157L211.641 216.968L211.347 216.828H211.221V163.279Z" fill="white"/>
<path id="Vector_58" d="M244.313 175.876H213.401C212.027 175.876 210.913 176.991 210.913 178.365V207.503C210.913 208.877 212.027 209.991 213.401 209.991H244.313C245.687 209.991 246.801 208.877 246.801 207.503V178.365C246.801 176.991 245.687 175.876 244.313 175.876Z" fill="white"/>
<path id="Vector_59" d="M244.313 176.576C244.788 176.576 245.243 176.764 245.578 177.1C245.914 177.436 246.102 177.891 246.102 178.366V207.517C246.102 207.992 245.914 208.447 245.578 208.782C245.243 209.118 244.788 209.307 244.313 209.307H213.387C212.915 209.303 212.464 209.113 212.131 208.777C211.799 208.442 211.612 207.989 211.612 207.517V178.366C211.61 178.131 211.655 177.899 211.743 177.682C211.832 177.465 211.962 177.267 212.127 177.101C212.292 176.935 212.488 176.802 212.705 176.712C212.921 176.622 213.153 176.576 213.387 176.576H244.313ZM244.313 175.178H213.387C212.544 175.181 211.738 175.519 211.143 176.116C210.548 176.714 210.215 177.522 210.215 178.366V207.517C210.215 208.36 210.548 209.169 211.143 209.766C211.738 210.363 212.544 210.701 213.387 210.705H244.313C245.157 210.701 245.966 210.364 246.562 209.767C247.159 209.17 247.496 208.361 247.5 207.517V178.366C247.5 177.52 247.164 176.709 246.566 176.111C245.969 175.514 245.158 175.178 244.313 175.178Z" fill="white"/>
<path id="Vector_60" d="M203.283 174.786H189.015V177.177H186.639V179.554H189.015V181.931H203.283V179.554H205.659V177.177H203.283V174.786ZM200.908 179.554H191.391V177.177H200.908V179.554Z" fill="#2D5967"/>
<path id="Vector_61" d="M205.673 170.634H186.639V173.009H205.673V170.634Z" fill="#2D5967"/>
<path id="Vector_62" d="M205.673 183.721H186.639V186.096H205.673V183.721Z" fill="#2D5967"/>
<path id="Vector_63" d="M205.673 212.27H186.639V214.646H205.673V212.27Z" fill="#2D5967"/>
<path id="Vector_64" d="M205.673 208.104H186.639V210.48H205.673V208.104Z" fill="#2D5967"/>
<path id="Vector_65" d="M186.639 206.328H205.659V197.939H186.639V206.328ZM189.015 200.372H203.283V203.951H189.015V200.372Z" fill="#2D5967"/>
<path id="Vector_66" d="M186.639 196.206H205.659V187.887H186.639V196.206ZM189.015 190.264H203.283V193.829H189.015V190.264Z" fill="#2D5967"/>
<path id="Vector_67" d="M211.04 218.226H209.852V164.677H182.475V218.226H181.287L178.898 219.414V220.603H213.401V219.414L211.04 218.226ZM184.879 218.226V167.054H207.448V218.226H184.879Z" fill="#2D5967"/>
<path id="Vector_68" d="M244.313 176.575H213.387C213.153 176.575 212.921 176.622 212.705 176.712C212.488 176.802 212.292 176.934 212.127 177.1C211.962 177.267 211.832 177.464 211.743 177.681C211.655 177.898 211.611 178.13 211.612 178.365V207.516C211.612 207.987 211.799 208.439 212.132 208.772C212.465 209.105 212.916 209.292 213.387 209.292H244.313C244.548 209.294 244.78 209.249 244.997 209.161C245.214 209.072 245.411 208.942 245.578 208.777C245.744 208.612 245.876 208.415 245.966 208.199C246.056 207.983 246.102 207.751 246.102 207.516V178.365C246.102 177.89 245.914 177.435 245.578 177.099C245.243 176.764 244.788 176.575 244.313 176.575ZM243.727 178.952V184.908H213.988V178.952H243.727ZM213.988 206.915V187.341H243.727V206.915H213.988Z" fill="#2D5967"/>
<path id="Vector_69" d="M217.552 183.117C218.208 183.117 218.74 182.585 218.74 181.929C218.74 181.273 218.208 180.741 217.552 180.741C216.896 180.741 216.364 181.273 216.364 181.929C216.364 182.585 216.896 183.117 217.552 183.117Z" fill="#2D5967"/>
<path id="Vector_70" d="M221.716 183.117C222.372 183.117 222.904 182.585 222.904 181.929C222.904 181.273 222.372 180.741 221.716 180.741C221.06 180.741 220.528 181.273 220.528 181.929C220.528 182.585 221.06 183.117 221.716 183.117Z" fill="#2D5967"/>
<path id="Vector_71" d="M225.88 183.117C226.537 183.117 227.068 182.585 227.068 181.929C227.068 181.273 226.537 180.741 225.88 180.741C225.224 180.741 224.693 181.273 224.693 181.929C224.693 182.585 225.224 183.117 225.88 183.117Z" fill="#2D5967"/>
<path id="Vector_72" d="M234.797 190.906L232.743 192.108C232.221 191.691 231.636 191.361 231.01 191.13V189.06H226.678V191.13C225.938 191.402 225.256 191.81 224.665 192.332L222.639 191.144L220.571 194.667L222.695 195.911C222.626 196.261 222.594 196.617 222.597 196.974C222.576 197.281 222.576 197.589 222.597 197.897L220.501 199.127L222.569 202.65L224.498 201.518C225.105 202.088 225.823 202.525 226.608 202.804V205.125H230.898V202.804C231.573 202.567 232.199 202.207 232.743 201.742L234.685 202.888L236.754 199.365L234.923 198.232C235.008 197.813 235.05 197.387 235.049 196.96C235.049 196.489 234.992 196.019 234.881 195.562L236.823 194.429L234.797 190.906ZM228.858 200.819C228.094 200.819 227.348 200.592 226.713 200.167C226.079 199.743 225.585 199.139 225.293 198.433C225.002 197.727 224.926 196.951 225.076 196.202C225.226 195.453 225.595 194.765 226.135 194.226C226.676 193.687 227.365 193.321 228.114 193.173C228.863 193.026 229.639 193.105 230.344 193.399C231.048 193.693 231.65 194.19 232.072 194.826C232.494 195.463 232.718 196.21 232.715 196.974C232.715 197.483 232.614 197.988 232.417 198.458C232.22 198.928 231.932 199.355 231.57 199.713C231.207 200.07 230.776 200.352 230.304 200.542C229.831 200.732 229.325 200.826 228.816 200.819H228.858Z" fill="#2D5967"/>
</g>
</g>
<g id="Icon Text Label_4">
<text id="IconLabel_7" fill="black" xml:space="preserve" style="white-space: pre" font-family="Oracle Sans" font-size="16" letter-spacing="0em"><tspan x="146.484" y="239.816">Application Server</tspan></text>
</g>
</g>
</g>
<g id="Group 7">
<g id="OCI Region_4">
<rect x="328.5" y="152.5" width="200" height="199" rx="3.5" fill="white"/>
<rect x="328.5" y="152.5" width="200" height="199" rx="3.5" stroke="#9E9892"/>
</g>
<path id="Vector 13_2" d="M529 256H328" stroke="#9E9892" stroke-dasharray="2 2"/>
<g id="Icon Master_8">
<g id="Srv-Oracle REST&#226;&#128;&#168;Data Services_2">
<g id="Group 437_2">
<path id="Vector_73" d="M415.422 295.506L411.689 266.652L428.453 262.494L445.292 266.652L441.37 295.506L428.462 301.478L415.422 295.506Z" fill="white"/>
<path id="Vector_74" d="M428.453 262.949L444.76 267.013L440.933 295.23L428.462 300.927L415.859 295.23L412.221 267.013L428.453 262.949ZM428.453 262L428.263 262.057L411.984 266.092L411.167 266.291L411.271 267.136L414.966 295.306L415.033 295.829L415.507 296.047L428.111 301.82L428.51 302L428.909 301.82L441.379 296.047L441.854 295.829L441.921 295.306L445.72 267.136L445.834 266.301L445.007 266.092L428.681 262.057L428.453 262Z" fill="white"/>
<path id="Vector_75" d="M428.453 262.949L412.221 267.013L415.859 295.23L428.462 300.927L440.933 295.23L444.732 267.061L428.453 262.949ZM439.66 294.281L428.453 299.408L417.15 294.281L413.769 268.076L428.453 264.421L443.203 268.076L439.66 294.281Z" fill="#2D5967"/>
<path id="Vector_76" d="M428.491 278.976C427.731 278.976 421.063 279.042 421.063 281.34C421.063 281.34 421.063 281.397 421.063 281.425C421.063 281.454 421.063 281.482 421.063 281.501V293.16C421.063 295.354 427.246 295.468 428.491 295.468C429.735 295.468 435.908 295.354 435.908 293.16V281.501C435.912 281.476 435.912 281.451 435.908 281.425C435.913 281.397 435.913 281.368 435.908 281.34C435.908 279.09 429.212 278.976 428.491 278.976ZM428.491 294.062C424.929 294.062 422.839 293.426 422.469 293.056V290.749C424.421 291.336 426.453 291.615 428.491 291.575C430.525 291.614 432.554 291.336 434.503 290.749V293.056C434.132 293.426 432.062 294.062 428.491 294.062ZM434.503 289.173C434.132 289.534 432.043 290.17 428.491 290.17C424.938 290.17 422.839 289.534 422.469 289.173V286.913C424.421 287.501 426.453 287.779 428.491 287.739C430.525 287.779 432.554 287.5 434.503 286.913V289.173ZM434.503 285.375C434.132 285.736 432.043 286.372 428.491 286.372C424.938 286.372 422.839 285.736 422.469 285.337V282.888C424.419 283.488 426.451 283.779 428.491 283.752C430.527 283.779 432.556 283.487 434.503 282.888V285.375ZM434.408 281.378C433.847 281.758 431.824 282.327 428.491 282.327C425.157 282.327 423.124 281.748 422.573 281.378C423.124 280.998 425.157 280.428 428.491 280.428C431.824 280.428 433.847 280.989 434.408 281.34V281.378Z" fill="#2D5967"/>
<path id="Vector_77" d="M421.671 274.485L420.674 275.435L423.457 278.217L426.23 275.444L425.28 274.495L424.188 275.577V275.416C424.173 273.91 423.568 272.469 422.503 271.404C421.437 270.339 419.996 269.734 418.489 269.719H416.865V271.067H418.413C419.564 271.07 420.666 271.528 421.48 272.341C422.293 273.154 422.751 274.256 422.754 275.406V275.568L421.671 274.485Z" fill="#2D5967"/>
<path id="Vector_78" d="M438.558 269.662C437.052 269.676 435.611 270.281 434.545 271.347C433.48 272.412 432.875 273.852 432.86 275.358V275.52L431.777 274.437L430.78 275.387L433.562 278.159L436.336 275.377L435.339 274.428L434.265 275.51V275.349C434.265 274.2 434.721 273.097 435.533 272.284C436.345 271.471 437.447 271.012 438.596 271.01H440.163V269.662H438.558Z" fill="#2D5967"/>
<path id="Vector_79" d="M427.788 269.947V277.429H429.194V269.947L431.321 272.074L432.318 271.087L428.491 267.26L424.663 271.087L425.651 272.074L427.788 269.947Z" fill="#2D5967"/>
</g>
</g>
<g id="Icon Text Label_5">
<text id="IconLabel_8" fill="black" xml:space="preserve" style="white-space: pre" font-family="Oracle Sans" font-size="16" letter-spacing="0em"><tspan x="337.227" y="319.816">Oracle REST Data Service </tspan></text>
<text id="IconLabel_9" fill="black" xml:space="preserve" style="white-space: pre" font-family="Oracle Sans" font-size="16" letter-spacing="0em"><tspan x="358.445" y="335.816"> with MongoDB API</tspan></text>
</g>
</g>
<g id="Icon Master_9">
<g id="Application-Server_2">
<g id="Group 191_2">
<path id="Vector_80" d="M394.199 221.302V218.981L397.119 217.527H397.776V163.978H426.523V217.527H427.179L430.1 218.981V221.302H394.199Z" fill="white"/>
<path id="Vector_81" d="M425.824 164.677V218.227H427.04L429.429 219.415V220.603H394.897V219.415L397.287 218.227H398.475V164.677H425.824ZM427.221 163.279H397.078V216.828H396.952L396.658 216.968L394.269 218.157L393.5 218.548V222.002H430.799V218.548L430.016 218.157L427.641 216.968L427.347 216.828H427.221V163.279Z" fill="white"/>
<path id="Vector_82" d="M460.313 175.876H429.401C428.027 175.876 426.913 176.991 426.913 178.365V207.503C426.913 208.877 428.027 209.991 429.401 209.991H460.313C461.687 209.991 462.801 208.877 462.801 207.503V178.365C462.801 176.991 461.687 175.876 460.313 175.876Z" fill="white"/>
<path id="Vector_83" d="M460.313 176.576C460.788 176.576 461.243 176.764 461.578 177.1C461.914 177.436 462.102 177.891 462.102 178.366V207.517C462.102 207.992 461.914 208.447 461.578 208.782C461.243 209.118 460.788 209.307 460.313 209.307H429.387C428.915 209.303 428.464 209.113 428.131 208.777C427.799 208.442 427.612 207.989 427.612 207.517V178.366C427.61 178.131 427.655 177.899 427.743 177.682C427.832 177.465 427.962 177.267 428.127 177.101C428.292 176.935 428.488 176.802 428.705 176.712C428.921 176.622 429.153 176.576 429.387 176.576H460.313ZM460.313 175.178H429.387C428.544 175.181 427.738 175.519 427.143 176.116C426.548 176.714 426.215 177.522 426.215 178.366V207.517C426.215 208.36 426.548 209.169 427.143 209.766C427.738 210.363 428.544 210.701 429.387 210.705H460.313C461.157 210.701 461.966 210.364 462.562 209.767C463.159 209.17 463.496 208.361 463.5 207.517V178.366C463.5 177.52 463.164 176.709 462.566 176.111C461.969 175.514 461.158 175.178 460.313 175.178Z" fill="white"/>
<path id="Vector_84" d="M419.283 174.786H405.015V177.177H402.639V179.554H405.015V181.931H419.283V179.554H421.659V177.177H419.283V174.786ZM416.908 179.554H407.391V177.177H416.908V179.554Z" fill="#2D5967"/>
<path id="Vector_85" d="M421.673 170.634H402.639V173.009H421.673V170.634Z" fill="#2D5967"/>
<path id="Vector_86" d="M421.673 183.721H402.639V186.096H421.673V183.721Z" fill="#2D5967"/>
<path id="Vector_87" d="M421.673 212.27H402.639V214.646H421.673V212.27Z" fill="#2D5967"/>
<path id="Vector_88" d="M421.673 208.104H402.639V210.48H421.673V208.104Z" fill="#2D5967"/>
<path id="Vector_89" d="M402.639 206.328H421.659V197.939H402.639V206.328ZM405.015 200.372H419.283V203.951H405.015V200.372Z" fill="#2D5967"/>
<path id="Vector_90" d="M402.639 196.206H421.659V187.887H402.639V196.206ZM405.015 190.264H419.283V193.829H405.015V190.264Z" fill="#2D5967"/>
<path id="Vector_91" d="M427.04 218.226H425.852V164.677H398.475V218.226H397.287L394.898 219.414V220.603H429.401V219.414L427.04 218.226ZM400.879 218.226V167.054H423.448V218.226H400.879Z" fill="#2D5967"/>
<path id="Vector_92" d="M460.313 176.575H429.387C429.153 176.575 428.921 176.622 428.705 176.712C428.488 176.802 428.292 176.934 428.127 177.1C427.962 177.267 427.832 177.464 427.743 177.681C427.655 177.898 427.611 178.13 427.612 178.365V207.516C427.612 207.987 427.799 208.439 428.132 208.772C428.465 209.105 428.916 209.292 429.387 209.292H460.313C460.548 209.294 460.78 209.249 460.997 209.161C461.214 209.072 461.411 208.942 461.578 208.777C461.744 208.612 461.876 208.415 461.966 208.199C462.056 207.983 462.102 207.751 462.102 207.516V178.365C462.102 177.89 461.914 177.435 461.578 177.099C461.243 176.764 460.788 176.575 460.313 176.575ZM459.727 178.952V184.908H429.988V178.952H459.727ZM429.988 206.915V187.341H459.727V206.915H429.988Z" fill="#2D5967"/>
<path id="Vector_93" d="M433.552 183.117C434.208 183.117 434.74 182.585 434.74 181.929C434.74 181.273 434.208 180.741 433.552 180.741C432.896 180.741 432.364 181.273 432.364 181.929C432.364 182.585 432.896 183.117 433.552 183.117Z" fill="#2D5967"/>
<path id="Vector_94" d="M437.716 183.117C438.372 183.117 438.904 182.585 438.904 181.929C438.904 181.273 438.372 180.741 437.716 180.741C437.06 180.741 436.528 181.273 436.528 181.929C436.528 182.585 437.06 183.117 437.716 183.117Z" fill="#2D5967"/>
<path id="Vector_95" d="M441.88 183.117C442.537 183.117 443.068 182.585 443.068 181.929C443.068 181.273 442.537 180.741 441.88 180.741C441.224 180.741 440.693 181.273 440.693 181.929C440.693 182.585 441.224 183.117 441.88 183.117Z" fill="#2D5967"/>
<path id="Vector_96" d="M450.797 190.906L448.743 192.108C448.221 191.691 447.636 191.361 447.01 191.13V189.06H442.678V191.13C441.938 191.402 441.256 191.81 440.665 192.332L438.639 191.144L436.571 194.667L438.695 195.911C438.626 196.261 438.594 196.617 438.597 196.974C438.576 197.281 438.576 197.589 438.597 197.897L436.501 199.127L438.569 202.65L440.498 201.518C441.105 202.088 441.823 202.525 442.608 202.804V205.125H446.898V202.804C447.573 202.567 448.199 202.207 448.743 201.742L450.685 202.888L452.754 199.365L450.923 198.232C451.008 197.813 451.05 197.387 451.049 196.96C451.049 196.489 450.992 196.019 450.881 195.562L452.823 194.429L450.797 190.906ZM444.858 200.819C444.094 200.819 443.348 200.592 442.713 200.167C442.079 199.743 441.585 199.139 441.293 198.433C441.002 197.727 440.926 196.951 441.076 196.202C441.226 195.453 441.595 194.765 442.135 194.226C442.676 193.687 443.365 193.321 444.114 193.173C444.863 193.026 445.639 193.105 446.344 193.399C447.048 193.693 447.65 194.19 448.072 194.826C448.494 195.463 448.718 196.21 448.715 196.974C448.715 197.483 448.614 197.988 448.417 198.458C448.22 198.928 447.932 199.355 447.57 199.713C447.207 200.07 446.776 200.352 446.304 200.542C445.831 200.732 445.325 200.826 444.816 200.819H444.858Z" fill="#2D5967"/>
</g>
</g>
<g id="Icon Text Label_6">
<text id="IconLabel_10" fill="black" xml:space="preserve" style="white-space: pre" font-family="Oracle Sans" font-size="16" letter-spacing="0em"><tspan x="362.484" y="239.816">Application Server</tspan></text>
</g>
</g>
</g>
<g id="Autonomous-Transaction-Processing-ATP">
<g id="Srv-Oracle Autonomous Transaction Processing ATP">
<g id="Group 526">
<path id="Vector_97" d="M319.357 515.513V514.861L319.279 515.513H318.392C312.507 515.314 306.887 513.015 302.546 509.031C298.204 505.048 295.427 499.642 294.716 493.789L292.799 495.734L290.426 493.358L294.716 489.128C294.816 487.857 295.016 486.595 295.315 485.355C293.807 484.552 292.61 483.268 291.912 481.707C291.214 480.145 291.056 478.396 291.463 476.734C291.87 475.073 292.819 473.595 294.159 472.534C295.498 471.473 297.153 470.89 298.862 470.876C300.465 470.881 302.025 471.393 303.321 472.339C307.362 468.933 312.39 466.92 317.662 466.594C318.184 466.555 318.653 466.555 319.109 466.555H320.491C321.593 464.879 323.165 463.568 325.011 462.787C326.856 462.007 328.891 461.791 330.859 462.169C332.826 462.546 334.638 463.499 336.065 464.907C337.492 466.315 338.469 468.115 338.875 470.08L340.27 468.683L342.656 471.072L342.538 471.177L342.186 471.595L338.392 475.394C341.368 478.925 343.264 483.24 343.855 487.823L346.163 485.512L348.536 487.888L344.025 492.405C343.946 493.812 343.745 495.21 343.425 496.583C344.314 497.093 345.092 497.776 345.712 498.593C346.333 499.41 346.783 500.343 347.036 501.337C347.29 502.331 347.341 503.366 347.188 504.381C347.034 505.395 346.679 506.368 346.143 507.243C345.607 508.117 344.901 508.875 344.067 509.471C343.233 510.067 342.288 510.489 341.287 510.713C340.287 510.936 339.253 510.956 338.245 510.772C337.237 510.587 336.276 510.202 335.42 509.638C333.086 511.615 330.407 513.142 327.519 514.143L327.271 514.221C326.802 514.391 326.319 514.521 325.837 514.652H325.641L325.315 514.743L324.69 514.9L323.894 515.056L323.242 515.187C323.021 515.187 322.799 515.187 322.564 515.265L321.678 515.37C320.843 515.448 320.1 515.487 319.422 515.487L319.357 515.513Z" fill="white"/>
<path id="Vector_98" d="M328.952 462.639C331.352 462.643 333.661 463.557 335.415 465.197C337.168 466.836 338.237 469.081 338.405 471.477L340.269 469.61L341.716 471.06L337.492 475.29C340.927 479.168 342.985 484.075 343.346 489.246L346.162 486.439L347.61 487.888L343.385 492.118C343.312 493.726 343.076 495.323 342.681 496.884C343.569 497.308 344.359 497.915 344.997 498.665C345.636 499.414 346.11 500.29 346.388 501.236C346.667 502.181 346.743 503.174 346.613 504.151C346.483 505.128 346.149 506.066 345.633 506.906C345.117 507.745 344.43 508.466 343.618 509.022C342.805 509.578 341.885 509.956 340.917 510.133C339.948 510.309 338.954 510.28 337.998 510.046C337.042 509.813 336.145 509.38 335.367 508.777C333.018 510.88 330.281 512.503 327.31 513.555L327.088 513.634C326.619 513.79 326.149 513.921 325.68 514.052L325.171 514.195C324.507 514.352 323.868 514.495 323.138 514.6L322.173 514.717H321.612C320.88 514.795 320.145 514.835 319.409 514.835H318.992C312.927 514.784 307.107 512.434 302.704 508.257C298.301 504.081 295.642 498.388 295.263 492.327L292.799 494.808L291.338 493.359L295.25 489.442C295.356 487.94 295.614 486.453 296.019 485.003C294.545 484.351 293.339 483.21 292.605 481.774C291.87 480.337 291.651 478.691 291.984 477.112C292.317 475.533 293.182 474.117 294.434 473.1C295.686 472.084 297.249 471.529 298.861 471.53C300.5 471.537 302.084 472.124 303.333 473.188C307.331 469.682 312.372 467.594 317.675 467.247C318.157 467.247 318.64 467.169 319.122 467.156H319.317C319.904 467.156 320.478 467.156 321.038 467.247L320.908 467.117C321.76 465.749 322.946 464.621 324.353 463.838C325.76 463.055 327.343 462.642 328.952 462.639ZM328.952 461.333C327.241 461.343 325.557 461.755 324.035 462.538C322.513 463.32 321.196 464.451 320.191 465.837H319.109C318.626 465.837 318.157 465.837 317.701 465.916H317.583C312.339 466.239 307.325 468.192 303.242 471.504C301.924 470.654 300.39 470.2 298.822 470.198C297.001 470.196 295.23 470.791 293.779 471.893C292.329 472.995 291.278 474.542 290.789 476.298C290.299 478.054 290.398 479.922 291.069 481.617C291.741 483.312 292.948 484.739 294.507 485.682C294.273 486.723 294.112 487.778 294.024 488.841L290.426 492.445L289.5 493.359L290.426 494.285L291.873 495.735L292.799 496.662L293.711 495.735L294.272 495.173C295.252 500.793 298.092 505.92 302.335 509.727C306.577 513.535 311.976 515.803 317.662 516.167V516.167H318.965H319.409C320.113 516.167 320.869 516.167 321.729 516.049H322.134H322.329H322.616L323.333 515.958L324.637 515.749L325.497 515.54L325.849 515.449H326.019L327.479 514.861H327.649H327.727C330.542 513.889 333.164 512.426 335.471 510.54C336.723 511.279 338.151 511.666 339.604 511.662C341.813 511.659 343.93 510.779 345.492 509.215C347.053 507.651 347.932 505.531 347.935 503.32C347.938 501.937 347.594 500.576 346.936 499.36C346.278 498.145 345.326 497.114 344.168 496.361C344.418 495.143 344.584 493.908 344.663 492.667L348.574 488.75L349.5 487.823L348.574 486.896L347.127 485.447L346.201 484.52L345.276 485.447L344.35 486.387C343.602 482.357 341.869 478.576 339.304 475.381L342.681 472L343.607 471.073L343.477 470.929L342.681 470.067L341.195 468.684L340.269 467.757L339.357 468.684L339.213 468.814C338.507 466.644 337.136 464.752 335.293 463.409C333.451 462.066 331.232 461.339 328.952 461.333V461.333Z" fill="white"/>
<path id="Vector_99" d="M322.813 512.536L323.138 514.559C321.905 514.757 320.658 514.857 319.41 514.86H318.992V512.81C320.258 512.823 321.523 512.731 322.773 512.536H322.813ZM302.291 507.627C303.256 508.618 304.303 509.526 305.42 510.342L306.633 508.671C305.6 507.937 304.64 507.107 303.764 506.191L302.291 507.627ZM307.154 511.478C308.341 512.192 309.589 512.799 310.883 513.293L311.665 511.374C310.483 510.925 309.345 510.37 308.262 509.716L307.154 511.478ZM313.412 511.974L312.852 513.946C313.517 514.128 314.155 514.298 314.872 514.429C315.59 514.559 316.241 514.664 316.919 514.729L317.141 512.692C316.515 512.627 315.837 512.523 315.251 512.405C314.664 512.288 314.025 512.144 313.412 511.974V511.974ZM324.664 512.157L325.159 514.142C326.499 513.823 327.808 513.386 329.071 512.836L328.249 510.943C327.096 511.487 325.896 511.924 324.664 512.248V512.157ZM300.374 501.634L298.627 502.64C299.298 503.851 300.074 505 300.948 506.073L302.539 504.768C301.742 503.786 301.031 502.738 300.414 501.634H300.374ZM298.706 497.887C298.706 497.678 298.562 497.47 298.51 497.274C298.458 497.078 298.432 496.986 298.393 496.843C297.949 495.242 297.69 493.594 297.623 491.934L300.57 494.871L302.017 493.357L296.685 488.017L291.339 493.357L292.799 494.806L295.577 492.025C295.652 493.656 295.892 495.274 296.294 496.856V496.856C296.294 497.013 296.385 497.156 296.424 497.313C296.46 497.467 296.503 497.62 296.554 497.77C296.554 497.992 296.685 498.214 296.763 498.423C296.841 498.631 296.828 498.658 296.867 498.775C297.102 499.441 297.376 500.081 297.663 500.773L299.527 499.924C299.214 499.193 298.94 498.54 298.706 497.887ZM291.835 478.578C291.832 477.183 292.243 475.818 293.016 474.656C293.788 473.495 294.888 472.589 296.175 472.054C297.462 471.519 298.878 471.378 300.245 471.65C301.612 471.922 302.868 472.593 303.853 473.58C304.839 474.567 305.51 475.824 305.781 477.193C306.052 478.562 305.912 479.98 305.377 481.269C304.843 482.558 303.938 483.659 302.778 484.432C301.619 485.206 300.256 485.618 298.862 485.615C296.999 485.612 295.214 484.869 293.897 483.55C292.58 482.231 291.838 480.443 291.835 478.578V478.578ZM293.882 478.578C293.879 479.568 294.17 480.537 294.718 481.361C295.265 482.185 296.045 482.828 296.958 483.208C297.871 483.588 298.876 483.689 299.846 483.496C300.816 483.304 301.707 482.827 302.406 482.127C303.105 481.427 303.581 480.535 303.773 479.564C303.965 478.592 303.866 477.586 303.486 476.672C303.106 475.757 302.464 474.977 301.641 474.428C300.818 473.88 299.851 473.588 298.862 473.591C297.542 473.594 296.277 474.121 295.344 475.055C294.411 475.99 293.885 477.257 293.882 478.578V478.578ZM306.033 473.878C309.551 471.092 313.848 469.472 318.328 469.243C318.524 468.523 318.791 467.823 319.123 467.155C313.882 467.236 308.814 469.044 304.703 472.298C305.199 472.771 305.637 473.301 306.007 473.878H306.033ZM338.771 477.077C338.443 477.74 338.046 478.366 337.584 478.944C339.628 482.014 340.857 485.554 341.157 489.231L338.393 486.438L336.945 487.887L342.278 493.226L347.61 487.887L346.163 486.438L343.243 489.362C342.941 484.93 341.401 480.673 338.797 477.077H338.771ZM346.62 503.188C346.62 504.583 346.206 505.946 345.432 507.106C344.658 508.266 343.558 509.169 342.27 509.702C340.983 510.236 339.567 510.375 338.201 510.101C336.835 509.828 335.58 509.156 334.596 508.168C333.612 507.181 332.943 505.924 332.672 504.555C332.402 503.187 332.544 501.769 333.078 500.481C333.613 499.193 334.518 498.093 335.677 497.32C336.837 496.547 338.199 496.135 339.592 496.138C341.457 496.141 343.245 496.886 344.562 498.207C345.88 499.529 346.62 501.32 346.62 503.188V503.188ZM344.573 503.188C344.575 502.198 344.284 501.229 343.736 500.405C343.189 499.581 342.409 498.938 341.496 498.558C340.583 498.178 339.578 498.077 338.608 498.27C337.638 498.463 336.747 498.939 336.048 499.639C335.349 500.339 334.873 501.231 334.681 502.203C334.489 503.174 334.589 504.18 334.968 505.094C335.348 506.009 335.99 506.789 336.813 507.338C337.636 507.886 338.603 508.178 339.592 508.175C340.912 508.172 342.177 507.645 343.11 506.711C344.043 505.776 344.569 504.51 344.573 503.188V503.188ZM302.069 477.808L300.622 476.359L298.249 478.722L297.115 477.586L295.668 479.048L298.275 481.659L302.069 477.808ZM330.244 497.887C330.244 500.629 323.321 501.36 319.657 501.36C315.994 501.36 309.227 500.629 309.227 497.887V481.751C309.227 478.617 317.923 478.461 319.657 478.461H319.944C320.49 479.253 321.144 479.965 321.887 480.576C321.196 480.576 320.453 480.576 319.657 480.576C315.055 480.576 312.213 481.346 311.417 481.881C312.278 482.39 315.12 483.187 319.657 483.187C321.585 483.207 323.51 483.045 325.407 482.704C326.549 483.092 327.747 483.29 328.953 483.291C329.389 483.292 329.825 483.266 330.257 483.213L330.244 497.887ZM328.145 492.313C328.128 492.386 328.128 492.462 328.145 492.535H328.236V489.127C325.475 489.975 322.597 490.376 319.71 490.315C316.878 490.362 314.056 489.979 311.339 489.179V492.469C312.004 492.978 314.899 493.775 319.71 493.775C324.859 493.775 327.819 492.809 328.197 492.326L328.145 492.313ZM311.287 483.983V486.921C311.952 487.417 314.846 488.226 319.657 488.226C324.807 488.226 327.767 487.273 328.145 486.79C328.125 486.858 328.125 486.931 328.145 486.999H328.236V483.918C325.475 484.765 322.597 485.166 319.71 485.106C316.879 485.159 314.056 484.78 311.339 483.983H311.287ZM328.288 497.783V494.676C325.527 495.523 322.649 495.924 319.762 495.864C316.93 495.911 314.108 495.528 311.391 494.728V497.796C311.887 498.305 314.755 499.363 319.762 499.363C324.468 499.363 327.715 498.37 328.288 497.783V497.783ZM341.039 500.498L339.736 501.804L338.432 500.498L336.985 501.961L338.288 503.266L336.985 504.572L338.432 506.021L339.736 504.715L341.039 506.021L342.487 504.572L341.183 503.266L342.487 501.961L341.039 500.498ZM332.695 508.214C331.814 508.896 330.886 509.516 329.918 510.068L330.909 511.857C332.016 511.243 333.071 510.54 334.064 509.755C333.543 509.31 333.075 508.806 332.669 508.253L332.695 508.214ZM321.039 467.324L322.278 468.551L322.382 468.656C323.123 467.234 324.304 466.091 325.748 465.397C327.192 464.703 328.821 464.495 330.393 464.805C331.964 465.115 333.393 465.926 334.466 467.117C335.539 468.307 336.199 469.814 336.346 471.411L334.547 469.609L333.099 471.058L337.415 475.38L341.717 471.058L340.27 469.609L338.406 471.476C338.266 469.476 337.497 467.572 336.21 466.037C334.922 464.501 333.182 463.414 331.24 462.929C329.297 462.445 327.251 462.589 325.395 463.341C323.539 464.093 321.969 465.415 320.909 467.115L321.078 467.272L321.039 467.324ZM332.813 476.515V476.594H330.635L330.166 474.518H327.715L327.232 476.594H325.12V476.515L327.962 466.685H329.983L332.813 476.515ZM328.106 472.808H329.775L328.94 469.165L328.106 472.808ZM316.228 473.238L317.676 474.688L319.488 472.86C319.638 474.854 320.414 476.75 321.706 478.276C322.997 479.802 324.737 480.88 326.678 481.355C328.618 481.83 330.659 481.679 332.508 480.922C334.357 480.165 335.919 478.842 336.972 477.142L335.511 475.693C334.758 477.095 333.575 478.218 332.137 478.898C330.699 479.577 329.081 479.776 327.521 479.467C325.961 479.157 324.542 478.354 323.471 477.177C322.401 475.999 321.736 474.509 321.574 472.925L323.399 474.727L324.859 473.278L320.505 468.878L316.189 473.199L316.228 473.238Z" fill="#2D5967"/>
</g>
</g>
<g id="Icon Text Label_7">
<text id="IconLabel_11" fill="black" xml:space="preserve" style="white-space: pre" font-family="Oracle Sans" font-size="16" letter-spacing="0em"><tspan x="203.078" y="535.816">Oracle Autonomous Transaction </tspan></text>
<text id="IconLabel_12" fill="black" xml:space="preserve" style="white-space: pre" font-family="Oracle Sans" font-size="16" letter-spacing="0em"><tspan x="241.391" y="551.816">Processing Serverless</tspan></text>
</g>
</g>
</g>
<defs>
<clipPath id="clip0_20271_6118">
<rect width="640" height="600" fill="white"/>
</clipPath>
</defs>
</svg>
