<svg width="1330" height="750" viewBox="0 0 1330 750" fill="none" xmlns="http://www.w3.org/2000/svg">
<g id="mongodb-atp-s-azure-physical-arch" clip-path="url(#clip0_20462_15492)">
<rect width="1330" height="750" fill="white"/>
<g id="Group 8">
<g id="OCI Region">
<rect x="111.5" y="231" width="138" height="319" rx="3.5" fill="white"/>
<rect x="111.5" y="231" width="138" height="319" rx="3.5" stroke="#9E9892"/>
</g>
</g>
<g id="Group 13">
<g id="OCI Region_2">
<rect x="1180.5" y="0.5" width="149" height="349" rx="3.5" fill="#E4E1DD"/>
<rect x="1180.5" y="0.5" width="149" height="349" rx="3.5" stroke="#9E9892"/>
<text id="Availability Domain" fill="#312D2A" xml:space="preserve" style="white-space: pre" font-family="Oracle Sans" font-size="16" font-weight="bold" letter-spacing="0em"><tspan x="1241.35" y="21.816">OCI</tspan></text>
<text id="Availability Domain_2" fill="#312D2A" xml:space="preserve" style="white-space: pre" font-family="Oracle Sans" font-size="16" font-weight="bold" letter-spacing="0em"><tspan x="1222.95" y="37.816">Services</tspan></text>
</g>
</g>
<g id="Icon Master">
<g id="User-Group">
<g id="Group 20">
<path id="Vector" d="M0.615234 429.803V411.126C0.631418 409.391 1.33123 407.732 2.56279 406.509C3.79436 405.287 5.4583 404.6 7.19349 404.597H9.83709V404.215C8.11189 403.212 6.76233 401.671 5.99421 399.829C5.2261 397.987 5.08158 395.944 5.5827 394.012C6.08383 392.08 7.20308 390.364 8.76979 389.128C10.3365 387.891 12.2647 387.201 14.2603 387.162C16.2559 387.123 18.2094 387.738 19.8229 388.913C21.4364 390.088 22.6214 391.759 23.1971 393.67C23.7728 395.581 23.7076 397.628 23.0115 399.499C22.3155 401.369 21.0267 402.961 19.3417 404.031H19.9565C20.682 403.091 21.6136 402.331 22.6796 401.809C23.7456 401.286 24.9174 401.016 26.1044 401.019H29.3013V399.678C27.2544 398.446 25.6676 396.577 24.7837 394.358C23.8997 392.138 23.7673 389.69 24.4068 387.388C25.0462 385.086 26.4222 383.057 28.3243 381.611C30.2264 380.165 32.5498 379.382 34.939 379.382C37.3281 379.382 39.6515 380.165 41.5536 381.611C43.4557 383.057 44.8317 385.086 45.4712 387.388C46.1106 389.69 45.9782 392.138 45.0943 394.358C44.2103 396.577 42.6235 398.446 40.5766 399.678V400.908H43.8473C45.0321 400.918 46.1996 401.194 47.2636 401.715C48.3276 402.237 49.2611 402.99 49.9952 403.92H50.61C48.9288 402.852 47.6421 401.265 46.9453 399.399C46.2484 397.533 46.1796 395.491 46.7491 393.582C47.3187 391.674 48.4956 390.003 50.101 388.825C51.7064 387.646 53.6527 387.023 55.6442 387.051C57.6357 387.079 59.5636 387.757 61.1352 388.98C62.7067 390.204 63.836 391.907 64.3515 393.831C64.867 395.755 64.7406 397.794 63.9914 399.64C63.2423 401.485 61.9113 403.035 60.2007 404.056V404.597H62.6598C64.4035 404.6 66.0748 405.294 67.3078 406.527C68.5407 407.76 69.2349 409.431 69.2381 411.175V429.803H0.615234Z" fill="white"/>
<path id="Vector_2" d="M34.9447 380.004C37.2312 379.999 39.4545 380.754 41.2654 382.15C43.0762 383.546 44.372 385.504 44.949 387.717C45.5261 389.929 45.3517 392.271 44.4534 394.373C43.555 396.476 41.9836 398.221 39.9859 399.333V401.583H43.8714C45.022 401.59 46.1549 401.866 47.1797 402.389C48.2044 402.913 49.0927 403.668 49.7734 404.596H53.7449C51.6921 404.141 49.8793 402.945 48.6542 401.236C47.4291 399.527 46.878 397.426 47.1066 395.336C47.3352 393.246 48.3273 391.314 49.8928 389.911C51.4582 388.507 53.4868 387.731 55.5893 387.731C57.6919 387.731 59.7204 388.507 61.2858 389.911C62.8513 391.314 63.8435 393.246 64.072 395.336C64.3006 397.426 63.7495 399.527 62.5244 401.236C61.2993 402.945 59.4865 404.141 57.4337 404.596H59.6469V405.161H62.7824C64.363 405.164 65.8779 405.794 66.9956 406.911C68.1132 408.029 68.7426 409.544 68.7458 411.125V429.187H1.22958V411.125C1.23283 409.544 1.86216 408.029 2.97983 406.911C4.09749 405.794 5.61243 405.164 7.19304 405.161H10.4145V404.596H12.5417C10.4889 404.141 8.67607 402.945 7.45098 401.236C6.2259 399.527 5.6748 397.426 5.90338 395.336C6.13195 393.246 7.12411 391.314 8.68956 389.911C10.255 388.507 12.2835 387.731 14.3861 387.731C16.4886 387.731 18.5172 388.507 20.0826 389.911C21.6481 391.314 22.6402 393.246 22.8688 395.336C23.0974 397.426 22.5463 399.527 21.3212 401.236C20.0961 402.945 18.2833 404.141 16.2305 404.596H20.202C20.8576 403.666 21.7269 402.906 22.7368 402.382C23.7467 401.858 24.8677 401.584 26.0056 401.583H29.8173V399.284C27.8381 398.156 26.2878 396.405 25.4081 394.304C24.5283 392.203 24.3687 389.87 24.9542 387.669C25.5396 385.467 26.8371 383.522 28.6443 382.135C30.4516 380.749 32.6669 379.999 34.9447 380.004ZM34.9447 378.774C32.4599 378.775 30.0416 379.577 28.0492 381.062C26.0567 382.547 24.5964 384.635 23.8852 387.015C23.174 389.396 23.2498 391.943 24.1015 394.277C24.9531 396.612 26.5351 398.609 28.6123 399.972V400.354H26.0302C24.9762 400.354 23.9323 400.558 22.9563 400.956C23.673 399.651 24.0815 398.199 24.1507 396.711C24.2199 395.223 23.9478 393.74 23.3553 392.373C22.7628 391.007 21.8656 389.794 20.7323 388.828C19.5991 387.862 18.2598 387.168 16.817 386.799C15.3742 386.43 13.8661 386.396 12.4081 386.7C10.9502 387.003 9.581 387.636 8.40538 388.551C7.22976 389.465 6.27886 390.636 5.62544 391.974C4.97202 393.312 4.63341 394.782 4.63552 396.271C4.63828 397.743 4.97112 399.195 5.60952 400.521C6.24792 401.846 7.17561 403.012 8.32426 403.932H7.09468C5.20507 403.961 3.40251 404.731 2.07543 406.076C0.748352 407.422 0.0030021 409.235 0 411.125L0 430.417H70V411.125C69.9967 409.218 69.2379 407.39 67.8896 406.042C66.5414 404.694 64.7137 403.935 62.807 403.932H61.5774C62.8805 402.91 63.9023 401.573 64.5464 400.047C65.1906 398.521 65.4361 396.857 65.2598 395.21C65.0834 393.563 64.4911 391.989 63.5385 390.634C62.5858 389.279 61.3042 388.189 59.8142 387.466C58.3242 386.743 56.6748 386.411 55.0211 386.501C53.3674 386.591 51.7638 387.101 50.3612 387.981C48.9586 388.862 47.8031 390.085 47.0033 391.535C46.2036 392.985 45.7859 394.615 45.7896 396.271C45.7915 397.92 46.2148 399.541 47.0191 400.981C46.0031 400.57 44.9181 400.357 43.8222 400.354H41.2155V400.034C43.3079 398.679 44.9061 396.684 45.7717 394.346C46.6373 392.008 46.724 389.453 46.0187 387.062C45.3135 384.672 43.8541 382.573 41.8584 381.079C39.8626 379.585 37.4375 378.777 34.9447 378.774V378.774Z" fill="white"/>
<path id="Vector_3" d="M55.6025 404.806C57.2937 404.808 58.9476 404.309 60.3548 403.37C61.762 402.432 62.8592 401.098 63.5075 399.536C64.1558 397.974 64.3261 396.255 63.9968 394.596C63.6674 392.937 62.8533 391.413 61.6574 390.217C60.4616 389.021 58.9378 388.207 57.2789 387.878C55.6201 387.549 53.9009 387.719 52.3389 388.367C50.7769 389.016 49.4424 390.113 48.5043 391.52C47.5662 392.927 47.0668 394.581 47.0692 396.272C47.0885 398.529 47.9937 400.689 49.5899 402.285C51.186 403.881 53.3453 404.786 55.6025 404.806ZM55.6025 389.842C56.8887 389.829 58.1495 390.2 59.2242 390.907C60.299 391.614 61.139 392.624 61.6374 393.81C62.1359 394.996 62.2701 396.303 62.023 397.566C61.776 398.828 61.1588 399.988 60.2502 400.899C59.3415 401.809 58.1824 402.429 56.9205 402.678C55.6587 402.927 54.3511 402.796 53.1643 402.3C51.9776 401.803 50.9654 400.965 50.2565 399.892C49.5477 398.819 49.1744 397.558 49.1841 396.272C49.2001 394.574 49.881 392.949 51.0809 391.747C52.2808 390.545 53.9041 389.861 55.6025 389.842Z" fill="#2D5967"/>
<path id="Vector_4" d="M62.8078 405.162H61.0495L60.7421 405.568C60.137 406.356 59.3588 406.994 58.4676 407.434C57.5764 407.873 56.5961 408.101 55.6025 408.101C54.6089 408.101 53.6286 407.873 52.7374 407.434C51.8462 406.994 51.068 406.356 50.4629 405.568L50.1555 405.162H50.0571C49.4332 404.081 48.5377 403.183 47.4592 402.555C46.3808 401.927 45.157 401.593 43.9092 401.584H41.8066L41.4992 401.99C40.7276 402.995 39.7353 403.809 38.5989 404.369C37.4625 404.929 36.2125 405.22 34.9456 405.22C33.6786 405.22 32.4286 404.929 31.2922 404.369C30.1558 403.809 29.1635 402.995 28.3919 401.99L28.0845 401.584H26.0311C24.7831 401.591 23.5588 401.926 22.4801 402.553C21.4015 403.181 20.5061 404.081 19.8832 405.162L19.5758 405.568C18.9707 406.356 18.1925 406.994 17.3013 407.434C16.4101 407.873 15.4298 408.101 14.4362 408.101C13.4426 408.101 12.4623 407.873 11.5711 407.434C10.6799 406.994 9.90162 406.356 9.29651 405.568L8.98912 405.162H7.19393C5.61332 405.165 4.09838 405.795 2.98072 406.912C1.86305 408.03 1.23372 409.545 1.23047 411.126V429.188H3.29616V411.126C3.29616 410.091 3.70642 409.098 4.43704 408.365C5.16767 407.632 6.15905 407.219 7.19393 407.215H7.95627C9.29165 408.734 11.1189 409.733 13.1177 410.039C15.1164 410.345 17.159 409.937 18.8872 408.888V429.188H20.9038V408.728C20.9038 407.381 21.4388 406.089 22.3911 405.137C23.3435 404.185 24.6351 403.65 25.9819 403.65H27.0517C28.0224 404.786 29.2281 405.699 30.5856 406.325C31.943 406.951 33.42 407.275 34.9148 407.275C36.4096 407.275 37.8866 406.951 39.2441 406.325C40.6015 405.699 41.8072 404.786 42.778 403.65H43.8354C45.1822 403.65 46.4739 404.185 47.4262 405.137C48.3786 406.089 48.9136 407.381 48.9136 408.728V429.188H50.9793V408.814C52.7066 409.926 54.7778 410.377 56.8112 410.084C58.8447 409.79 60.7036 408.771 62.0455 407.215H62.8078C63.8439 407.219 64.8365 407.632 65.5691 408.364C66.3017 409.097 66.7147 410.09 66.7179 411.126V429.188H68.7713V411.126C68.7681 409.545 68.1387 408.03 67.0211 406.912C65.9034 405.795 64.3885 405.165 62.8078 405.162Z" fill="#2D5967"/>
<path id="Vector_5" d="M14.397 404.806C16.0882 404.808 17.7421 404.309 19.1493 403.37C20.5565 402.432 21.6537 401.098 22.302 399.536C22.9503 397.974 23.1206 396.255 22.7913 394.596C22.4619 392.937 21.6478 391.413 20.4519 390.217C19.2561 389.021 17.7323 388.207 16.0734 387.878C14.4146 387.549 12.6954 387.719 11.1334 388.367C9.57136 389.016 8.23685 390.113 7.29878 391.52C6.36072 392.927 5.86129 394.581 5.86372 396.272C5.88298 398.529 6.78821 400.689 8.38435 402.285C9.9805 403.881 12.1398 404.786 14.397 404.806ZM14.397 389.842C15.6786 389.842 16.9314 390.222 17.997 390.934C19.0627 391.646 19.8932 392.658 20.3836 393.842C20.8741 395.026 21.0024 396.329 20.7524 397.586C20.5024 398.843 19.8852 399.997 18.979 400.903C18.0728 401.81 16.9181 402.427 15.6612 402.677C14.4042 402.927 13.1013 402.798 11.9173 402.308C10.7332 401.818 9.72119 400.987 9.00917 399.921C8.29716 398.856 7.91712 397.603 7.91712 396.321C7.91712 394.603 8.59982 392.955 9.81503 391.739C11.0302 390.524 12.6784 389.842 14.397 389.842Z" fill="#2D5967"/>
<path id="Vector_6" d="M34.9435 400.649C36.9857 400.644 38.9807 400.034 40.6762 398.895C42.3717 397.757 43.6917 396.141 44.4693 394.253C45.247 392.364 45.4473 390.288 45.045 388.286C44.6427 386.283 43.6558 384.445 42.2092 383.004C40.7625 381.562 38.9209 380.582 36.9173 380.187C34.9136 379.792 32.8378 379.999 30.9522 380.784C29.0665 381.568 27.4557 382.894 26.3234 384.593C25.191 386.293 24.588 388.29 24.5904 390.332C24.592 391.69 24.8612 393.034 25.3825 394.287C25.9038 395.54 26.667 396.678 27.6286 397.637C28.5901 398.595 29.7311 399.354 30.9862 399.871C32.2414 400.387 33.5861 400.652 34.9435 400.649ZM34.9435 382.07C36.5777 382.07 38.1752 382.554 39.534 383.462C40.8928 384.37 41.9519 385.661 42.5773 387.17C43.2027 388.68 43.3663 390.342 43.0475 391.944C42.7287 393.547 41.9417 395.02 40.7861 396.175C39.6306 397.331 38.1583 398.118 36.5555 398.436C34.9526 398.755 33.2913 398.592 31.7814 397.966C30.2716 397.341 28.9811 396.282 28.0732 394.923C27.1653 393.564 26.6807 391.967 26.6807 390.332C26.6839 388.142 27.5555 386.042 29.1044 384.493C30.6533 382.945 32.753 382.073 34.9435 382.07Z" fill="#2D5967"/>
<path id="Vector_7" d="M26.0296 416.45H24.9968V429.189H25.5132H27.0625V418.516L26.0296 416.45Z" fill="#2D5967"/>
<path id="Vector_8" d="M43.7992 416.45L42.7664 418.516V429.189H44.4878H44.8321V416.45H43.7992Z" fill="#2D5967"/>
<path id="Vector_9" d="M61.5652 420.568V429.187H63.6309V418.514H62.598L61.5652 420.568Z" fill="#2D5967"/>
<path id="Vector_10" d="M6.36884 418.514V429.187H8.42223V420.568L7.38939 418.514H6.36884Z" fill="#2D5967"/>
</g>
</g>
<g id="Icon Text Label">
<text id="IconLabel" fill="black" xml:space="preserve" style="white-space: pre" font-family="Oracle Sans" font-size="16" letter-spacing="0em"><tspan x="14.6719" y="448.316">Users</tspan></text>
</g>
</g>
<g id="Icon Master_2">
<g id="Azure_Front-Door">
<g id="Group">
<path id="Vector_11" d="M215.5 302.792C215.15 295.092 209.375 288.792 201.85 287.917C201.5 276.892 192.4 268.317 181.375 268.667C172.8 268.492 164.925 273.917 161.95 281.967C152.675 283.017 145.675 290.717 145.5 299.992C145.85 310.492 154.775 318.717 165.275 318.367H167.025H198.875C199.225 318.367 199.4 318.367 199.75 318.367C208.325 318.192 215.325 311.367 215.5 302.792Z" fill="url(#paint0_linear_20462_15492)"/>
<path id="f0276135-0079-4897-a518-21eb63472c16" d="M171.225 291.066H191V318.366H171.225V291.066Z" fill="#F2F2F2"/>
<path id="e528878d-2ed7-4392-94e6-99c6fc971bcb" d="M194.5 289.316L180.85 281.616C180.325 281.441 179.8 281.791 179.625 282.141C179.625 282.141 179.625 282.316 179.625 282.491V329.391C179.625 329.916 179.975 330.266 180.5 330.441H180.85L194.5 322.391C194.85 322.216 195.2 321.866 195.2 321.516V290.366C195.2 289.841 195.025 289.491 194.5 289.316Z" fill="#50E6FF"/>
</g>
</g>
<g id="Icon Text Label_2">
<text id="IconLabel_2" fill="black" xml:space="preserve" style="white-space: pre" font-family="Oracle Sans" font-size="16" letter-spacing="0em"><tspan x="159.531" y="348.316">Azure</tspan></text>
<text id="IconLabel_3" fill="black" xml:space="preserve" style="white-space: pre" font-family="Oracle Sans" font-size="16" letter-spacing="0em"><tspan x="141.477" y="364.316">Front Door</tspan></text>
</g>
</g>
<path id="Vector 17" d="M110.707 402.207C111.098 401.817 111.098 401.183 110.707 400.793L104.343 394.429C103.953 394.038 103.319 394.038 102.929 394.429C102.538 394.819 102.538 395.453 102.929 395.843L108.586 401.5L102.929 407.157C102.538 407.547 102.538 408.181 102.929 408.571C103.319 408.962 103.953 408.962 104.343 408.571L110.707 402.207ZM71 401.5V402.5H110V401.5V400.5H71V401.5Z" fill="#312D2A"/>
<path id="Vector 18" d="M250 401.5H289" stroke="#312D2A" stroke-width="2"/>
<g id="Group 12">
<g id="Icon Master_3">
<g id="Icon Text Label_3">
<text id="IconLabel_4" fill="black" xml:space="preserve" style="white-space: pre" font-family="Oracle Sans" font-size="16" letter-spacing="0em"><tspan x="122.352" y="505.316">Web Application</tspan></text>
<text id="IconLabel_5" fill="black" xml:space="preserve" style="white-space: pre" font-family="Oracle Sans" font-size="16" letter-spacing="0em"><tspan x="153.438" y="521.316">Firewall</tspan></text>
</g>
</g>
<g id="Web-Application-Firewall-Policies(WAF) 1">
<path id="Vector_12" d="M197.878 479.889C191.753 484.641 183.996 486.774 176.303 485.822C168.61 484.87 161.607 480.91 156.826 474.809C152.045 468.707 149.875 460.96 150.79 453.263C151.706 445.565 155.632 438.544 161.711 433.733L162.056 433.389C168.228 428.715 175.996 426.669 183.67 427.696C191.344 428.724 198.301 432.742 203.026 438.875C207.751 445.008 209.861 452.76 208.896 460.442C207.932 468.124 203.972 475.114 197.878 479.889Z" fill="url(#paint1_radial_20462_15492)"/>
<path id="Vector_13" d="M157.233 462.667C156.158 465.602 155.238 468.591 154.478 471.622L156.544 474.722L158.611 476.789C159.349 472.624 160.623 468.572 162.4 464.733C160.498 464.628 158.683 463.902 157.233 462.667ZM160.678 446.822C159.512 443.591 158.703 440.241 158.267 436.833C156.818 438.286 155.546 439.905 154.478 441.656C154.84 444.483 155.534 447.257 156.544 449.922C157.606 448.523 159.038 447.45 160.678 446.822Z" fill="#83B9F9"/>
<path id="Vector_14" d="M163.778 465.078C168.914 465.078 173.078 460.914 173.078 455.778C173.078 450.641 168.914 446.478 163.778 446.478C158.642 446.478 154.478 450.641 154.478 455.778C154.478 460.914 158.642 465.078 163.778 465.078Z" fill="url(#paint2_linear_20462_15492)"/>
<path id="Vector_15" d="M177.556 473C177.605 471.355 178.212 469.776 179.278 468.522C176.054 466.85 173.141 464.636 170.667 461.978C169.279 463.418 167.47 464.383 165.5 464.733C167.135 466.431 168.86 468.041 170.667 469.555C172.754 471.255 175.074 472.647 177.556 473.689V473ZM199.256 473.689C196.013 473.686 192.78 473.339 189.611 472.655V473C189.618 473.769 189.469 474.532 189.173 475.242C188.877 475.953 188.44 476.596 187.889 477.133C191.745 477.877 195.683 478.108 199.6 477.822C200.978 476.444 202.356 474.722 203.733 473.344C202.261 473.643 200.757 473.759 199.256 473.689Z" fill="#83B9F9"/>
<path id="Vector_16" d="M182.033 443.378C188.353 440.246 195.303 438.597 202.356 438.555C200.89 436.693 199.147 435.067 197.189 433.733C191.626 434.134 186.162 435.412 181 437.522C179.818 438.026 178.668 438.601 177.556 439.244C174.95 436.139 172.644 432.794 170.667 429.255C169.563 429.332 168.496 429.688 167.567 430.289C169.657 434.055 172.078 437.628 174.8 440.966C172.01 442.55 169.458 444.521 167.222 446.822C169.066 447.599 170.628 448.921 171.7 450.611C173.638 448.601 175.839 446.863 178.244 445.444C182.077 449.573 186.35 453.269 190.989 456.466C191.334 455.144 192.052 453.949 193.056 453.022C189.141 450.092 185.457 446.868 182.033 443.378Z" fill="#83B9F9"/>
<path id="Vector_17" d="M197.533 464.389C201.148 464.389 204.078 461.459 204.078 457.844C204.078 454.23 201.148 451.3 197.533 451.3C193.919 451.3 190.989 454.23 190.989 457.844C190.989 461.459 193.919 464.389 197.533 464.389Z" fill="#F2F2F2"/>
<path id="Vector_18" d="M208.556 462.322C208.211 461.978 207.867 461.978 207.522 461.634C207.178 461.289 206.833 461.289 206.489 460.945H206.144L205.111 460.256H204.767L203.733 459.567C203.468 460.827 202.728 461.937 201.667 462.667C202.011 463.011 202.356 463.011 203.044 463.356H203.389C203.733 463.7 204.078 463.7 204.422 464.045C205.456 464.734 206.489 465.078 207.522 465.767C207.867 464.734 208.211 463.356 208.556 462.322Z" fill="#83B9F9"/>
<path id="Vector_19" d="M163.778 465.078C168.914 465.078 173.078 460.914 173.078 455.778C173.078 450.641 168.914 446.478 163.778 446.478C158.642 446.478 154.478 450.641 154.478 455.778C154.478 460.914 158.642 465.078 163.778 465.078Z" fill="#F2F2F2"/>
<path id="Vector_20" d="M183.756 479.2C187.18 479.2 189.956 476.424 189.956 473C189.956 469.576 187.18 466.8 183.756 466.8C180.331 466.8 177.556 469.576 177.556 473C177.556 476.424 180.331 479.2 183.756 479.2Z" fill="#F2F2F2"/>
<path id="Vector_21" d="M167.911 462.667H209.589C210.278 462.667 211.311 463.355 211.311 464.044V486.089C211.282 486.536 211.091 486.957 210.774 487.274C210.457 487.591 210.036 487.782 209.589 487.811H167.911C167.502 487.761 167.129 487.552 166.871 487.231C166.614 486.909 166.492 486.499 166.533 486.089V464.389C166.492 463.979 166.614 463.569 166.871 463.247C167.129 462.925 167.502 462.717 167.911 462.667Z" fill="#821010"/>
<path id="Vector_22" d="M168.256 465.422H180.656V470.933H168.256V465.422Z" fill="#E62323"/>
<path id="Vector_23" d="M182.722 465.422H195.122V470.933H182.722V465.422Z" fill="#FF7381"/>
<path id="Vector_24" d="M196.844 465.422H209.244V470.933H196.844V465.422ZM168.256 472.656H173.422V478.167H168.256V472.656Z" fill="#E62323"/>
<path id="Vector_25" d="M204.078 472.656H209.244V478.167H204.078V472.656ZM175.489 472.656H187.889V478.167H175.489V472.656Z" fill="#FF7381"/>
<path id="Vector_26" d="M189.611 472.656H202.011V478.167H189.611V472.656ZM168.256 479.889H180.656V485.4H168.256V479.889Z" fill="#E62323"/>
<path id="Vector_27" d="M182.722 479.889H195.122V485.4H182.722V479.889Z" fill="#FF7381"/>
<path id="Vector_28" d="M196.844 479.889H209.244V485.4H196.844V479.889Z" fill="#E62323"/>
</g>
</g>
<g id="Azure Cloud boxes">
<rect x="310.5" y="0.5" width="759" height="359" rx="3.5" fill="#ECF3FB"/>
<rect x="310.5" y="0.5" width="759" height="359" rx="3.5" stroke="#0078D7"/>
<text id="Azure Region" fill="#312D2A" xml:space="preserve" style="white-space: pre" font-family="Oracle Sans" font-size="16" font-weight="bold" letter-spacing="0em"><tspan x="318" y="21.816">Azure Region 1</tspan></text>
</g>
<g id="Azure Cloud boxes_2">
<rect x="320.5" y="30.5" width="741" height="319" fill="white"/>
<rect x="320.5" y="30.5" width="741" height="319" stroke="#0078D7" stroke-dasharray="2 2"/>
<text id="Subscription" fill="#312D2A" xml:space="preserve" style="white-space: pre" font-family="Oracle Sans" font-size="16" font-weight="600" letter-spacing="0em"><tspan x="328" y="51.816">Subscription</tspan></text>
</g>
<g id="Azure Cloud boxes_3">
<rect x="330.5" y="70.5" width="719" height="269" rx="3.5" fill="#DAE8FC"/>
<rect x="330.5" y="70.5" width="719" height="269" rx="3.5" stroke="#0078D7"/>
<text id="Availability Zone" fill="#312D2A" xml:space="preserve" style="white-space: pre" font-family="Oracle Sans" font-size="16" font-weight="600" letter-spacing="0em"><tspan x="623.102" y="91.816">Availability Zone 1</tspan></text>
</g>
<g id="Azure Cloud boxes_4">
<rect x="341" y="101" width="238" height="228" fill="white"/>
<rect x="341" y="101" width="238" height="228" stroke="#706E6F" stroke-width="2" stroke-dasharray="4 4"/>
<g id="VNet icon">
<rect id="White Vnet BG" x="527" y="98" width="45" height="6" fill="white"/>
<g id="Icon Master_4">
<g id="Azure_VNet">
<g id="Group_2">
<g id="Group_3">
<path id="Vector_29" d="M558.294 103.545C559.724 103.545 560.884 102.386 560.884 100.955C560.884 99.5245 559.724 98.3647 558.294 98.3647C556.863 98.3647 555.704 99.5245 555.704 100.955C555.704 102.386 556.863 103.545 558.294 103.545Z" fill="url(#paint3_linear_20462_15492)"/>
<path id="Vector_30" d="M550.125 103.545C551.555 103.545 552.715 102.386 552.715 100.955C552.715 99.5245 551.555 98.3647 550.125 98.3647C548.694 98.3647 547.534 99.5245 547.534 100.955C547.534 102.386 548.694 103.545 550.125 103.545Z" fill="url(#paint4_linear_20462_15492)"/>
<path id="Vector_31" d="M541.955 103.545C543.386 103.545 544.545 102.386 544.545 100.955C544.545 99.5245 543.386 98.3647 541.955 98.3647C540.525 98.3647 539.365 99.5245 539.365 100.955C539.365 102.386 540.525 103.545 541.955 103.545Z" fill="url(#paint5_linear_20462_15492)"/>
<path id="Vector_32" d="M543.748 111.316L542.154 112.91C541.955 112.91 541.557 112.91 541.357 112.711L530.398 101.752C530 101.354 530 100.556 530.398 99.9587L531.993 98.564L543.748 110.32C543.948 110.519 543.948 110.918 543.748 111.316Z" fill="#50E6FF"/>
<path id="Vector_33" d="M542.154 89.1992L543.748 90.7933C543.948 90.9925 543.948 91.391 543.748 91.5903L531.993 103.346L530.399 101.752C529.801 101.154 529.801 100.357 530.399 99.9589L541.158 89.1992C541.357 89 541.756 89 542.154 89.1992Z" fill="#1490DF"/>
<path id="Vector_34" d="M568.057 98.3647L569.452 99.7595C570.05 100.357 570.05 101.154 569.452 101.553L558.493 112.512C558.294 112.711 557.895 112.711 557.497 112.512L555.903 110.918C555.704 110.718 555.704 110.32 555.903 109.921L568.057 98.3647Z" fill="#50E6FF"/>
<path id="Vector_35" d="M569.651 101.752L568.057 103.346L556.501 91.7895C556.301 91.5903 556.301 91.1918 556.501 90.7933L557.895 89.1992C558.095 89 558.493 89 558.892 89.1992L569.651 99.9589C570.05 100.357 570.05 101.154 569.651 101.752Z" fill="#1490DF"/>
</g>
</g>
</g>
</g>
</g>
<text id="VNet" fill="#706E6F" xml:space="preserve" style="white-space: pre" font-family="Oracle Sans" font-size="16" font-weight="600" letter-spacing="0em"><tspan x="349" y="122.816">Application VNet/Subnet</tspan></text>
</g>
<g id="Azure Cloud boxes_5">
<rect x="350.5" y="140.5" width="219" height="179" fill="white"/>
<rect x="350.5" y="140.5" width="219" height="179" stroke="#706E6F" stroke-dasharray="8 4"/>
<text id="Azure subnet" fill="#706E6F" xml:space="preserve" style="white-space: pre" font-family="Oracle Sans" font-size="16" font-weight="600" letter-spacing="0em"><tspan x="358" y="161.816">Integration subnet</tspan></text>
</g>
<path id="Vector 21" d="M730.707 231.707C731.098 231.317 731.098 230.683 730.707 230.293L724.343 223.929C723.953 223.538 723.319 223.538 722.929 223.929C722.538 224.319 722.538 224.953 722.929 225.343L728.586 231L722.929 236.657C722.538 237.047 722.538 237.681 722.929 238.071C723.319 238.462 723.953 238.462 724.343 238.071L730.707 231.707ZM503 231L503 232L730 232L730 231L730 230L503 230L503 231Z" fill="#312D2A"/>
<g id="Icon Master_5">
<g id="Azure-App-Services">
<g id="Group_4">
<path id="ee75dd06-1aca-4f76-9d11-d05a284020ad" d="M481.526 254.659C466.3 266.559 444.249 263.759 432.348 248.358C420.447 232.958 423.248 211.082 438.648 199.181L438.998 199.006C454.574 187.455 476.45 190.606 488.001 206.181C499.376 221.407 496.576 242.933 481.526 254.659Z" fill="url(#paint6_radial_20462_15492)"/>
<path id="Vector_36" opacity="0.6" d="M450.549 219.657C460.525 210.206 473.65 204.956 487.301 204.956C485.551 202.681 483.451 200.756 481.176 199.006C474.525 199.356 467.875 200.931 461.75 203.381C455.449 206.181 449.674 210.031 444.949 214.932C447.224 215.982 449.149 217.557 450.549 219.657Z" fill="white"/>
<path id="Vector_37" opacity="0.6" d="M433.223 233.658C431.823 237.158 430.598 240.833 429.723 244.508C430.423 245.908 431.298 247.133 432.348 248.358C433.048 249.234 433.748 250.109 434.623 250.984C435.498 246.083 437.073 241.358 438.998 236.633C436.898 236.283 434.798 235.233 433.223 233.658Z" fill="white"/>
<path id="Vector_38" opacity="0.55" d="M437.248 214.932C435.848 211.081 434.798 206.881 434.448 202.856C432.698 204.606 431.123 206.706 429.898 208.806C430.423 212.131 431.123 215.457 432.173 218.607C433.398 217.032 435.148 215.807 437.248 214.932Z" fill="#F2F2F2"/>
<path id="Vector_39" d="M441.098 236.808C447.284 236.808 452.299 231.793 452.299 225.607C452.299 219.421 447.284 214.407 441.098 214.407C434.912 214.407 429.898 219.421 429.898 225.607C429.898 231.793 434.912 236.808 441.098 236.808Z" fill="url(#paint7_linear_20462_15492)"/>
<path id="Vector_40" opacity="0.55" d="M457.374 246.258C457.374 244.333 458.249 242.408 459.649 241.008C455.799 238.908 452.299 236.283 449.149 233.308C447.574 235.058 445.299 236.283 443.023 236.808C444.949 238.733 446.874 240.483 448.974 242.058C451.599 243.983 454.399 245.733 457.374 247.133C457.549 246.783 457.374 246.433 457.374 246.258Z" fill="#F2F2F2"/>
<path id="Vector_41" opacity="0.55" d="M483.451 247.133C479.6 247.133 475.75 246.608 472.075 245.733C472.075 245.908 472.075 246.083 472.075 246.258C472.075 248.184 471.375 249.934 469.975 251.334C474.7 252.209 479.425 252.559 484.151 252.384C485.901 250.809 487.651 248.884 489.051 246.783C487.126 246.958 485.201 247.133 483.451 247.133Z" fill="#F2F2F2"/>
<path id="Vector_42" d="M464.725 253.609C468.784 253.609 472.075 250.318 472.075 246.259C472.075 242.199 468.784 238.908 464.725 238.908C460.665 238.908 457.374 242.199 457.374 246.259C457.374 250.318 460.665 253.609 464.725 253.609Z" fill="url(#paint8_linear_20462_15492)"/>
<path id="Vector_43" opacity="0.7" d="M473.825 226.657C474.175 225.082 475.05 223.682 476.275 222.457C469.45 217.557 463.325 211.781 457.899 205.306C454.749 201.631 451.949 197.606 449.674 193.23C448.099 193.755 446.699 194.281 445.124 194.981C447.574 199.706 450.549 204.081 454.049 208.106C459.824 215.107 466.475 221.407 473.825 226.657Z" fill="#F2F2F2"/>
<path id="Vector_44" d="M481.35 235.933C485.7 235.933 489.226 232.407 489.226 228.058C489.226 223.708 485.7 220.182 481.35 220.182C477.001 220.182 473.475 223.708 473.475 228.058C473.475 232.407 477.001 235.933 481.35 235.933Z" fill="url(#paint9_linear_20462_15492)"/>
<path id="Vector_45" opacity="0.55" d="M494.476 233.308L493.076 232.608L491.851 231.908H491.501L490.451 231.033H490.101L488.876 230.158C488.351 231.733 487.476 232.958 486.251 234.008C486.776 234.358 487.301 234.708 487.826 234.883L488.176 235.058L489.576 235.758L493.076 237.683C493.776 236.283 494.126 234.708 494.476 233.308Z" fill="#F2F2F2"/>
<path id="Vector_46" d="M441.098 236.808C447.284 236.808 452.299 231.793 452.299 225.607C452.299 219.421 447.284 214.407 441.098 214.407C434.912 214.407 429.898 219.421 429.898 225.607C429.898 231.793 434.912 236.808 441.098 236.808Z" fill="url(#paint10_linear_20462_15492)"/>
<path id="Vector_47" d="M464.725 253.609C468.784 253.609 472.075 250.318 472.075 246.259C472.075 242.199 468.784 238.908 464.725 238.908C460.665 238.908 457.374 242.199 457.374 246.259C457.374 250.318 460.665 253.609 464.725 253.609Z" fill="url(#paint11_linear_20462_15492)"/>
</g>
</g>
<g id="Icon Text Label_4">
<text id="IconLabel_6" fill="black" xml:space="preserve" style="white-space: pre" font-family="Oracle Sans" font-size="16" letter-spacing="0em"><tspan x="417" y="279.816">App Service</tspan></text>
</g>
</g>
<g id="Azure Cloud boxes_6">
<rect x="731" y="101" width="308" height="228" fill="white"/>
<rect x="731" y="101" width="308" height="228" stroke="#706E6F" stroke-width="2" stroke-dasharray="4 4"/>
<g id="VNet icon_2">
<rect id="White Vnet BG_2" x="987" y="98" width="45" height="6" fill="white"/>
<g id="Icon Master_6">
<g id="Azure_VNet_2">
<g id="Group_5">
<g id="Group_6">
<path id="Vector_48" d="M1018.29 103.545C1019.72 103.545 1020.88 102.386 1020.88 100.955C1020.88 99.5245 1019.72 98.3647 1018.29 98.3647C1016.86 98.3647 1015.7 99.5245 1015.7 100.955C1015.7 102.386 1016.86 103.545 1018.29 103.545Z" fill="url(#paint12_linear_20462_15492)"/>
<path id="Vector_49" d="M1010.12 103.545C1011.56 103.545 1012.71 102.386 1012.71 100.955C1012.71 99.5245 1011.56 98.3647 1010.12 98.3647C1008.69 98.3647 1007.53 99.5245 1007.53 100.955C1007.53 102.386 1008.69 103.545 1010.12 103.545Z" fill="url(#paint13_linear_20462_15492)"/>
<path id="Vector_50" d="M1001.96 103.545C1003.39 103.545 1004.55 102.386 1004.55 100.955C1004.55 99.5245 1003.39 98.3647 1001.96 98.3647C1000.52 98.3647 999.365 99.5245 999.365 100.955C999.365 102.386 1000.52 103.545 1001.96 103.545Z" fill="url(#paint14_linear_20462_15492)"/>
<path id="Vector_51" d="M1003.75 111.316L1002.15 112.91C1001.96 112.91 1001.56 112.91 1001.36 112.711L990.398 101.752C990 101.354 990 100.556 990.398 99.9587L991.993 98.564L1003.75 110.32C1003.95 110.519 1003.95 110.918 1003.75 111.316Z" fill="#50E6FF"/>
<path id="Vector_52" d="M1002.15 89.1992L1003.75 90.7933C1003.95 90.9925 1003.95 91.391 1003.75 91.5903L991.993 103.346L990.399 101.752C989.801 101.154 989.801 100.357 990.399 99.9589L1001.16 89.1992C1001.36 89 1001.76 89 1002.15 89.1992Z" fill="#1490DF"/>
<path id="Vector_53" d="M1028.06 98.3647L1029.45 99.7595C1030.05 100.357 1030.05 101.154 1029.45 101.553L1018.49 112.512C1018.29 112.711 1017.9 112.711 1017.5 112.512L1015.9 110.918C1015.7 110.718 1015.7 110.32 1015.9 109.921L1028.06 98.3647Z" fill="#50E6FF"/>
<path id="Vector_54" d="M1029.65 101.752L1028.06 103.346L1016.5 91.7895C1016.3 91.5903 1016.3 91.1918 1016.5 90.7933L1017.9 89.1992C1018.09 89 1018.49 89 1018.89 89.1992L1029.65 99.9589C1030.05 100.357 1030.05 101.154 1029.65 101.752Z" fill="#1490DF"/>
</g>
</g>
</g>
</g>
</g>
<text id="VNet_2" fill="#706E6F" xml:space="preserve" style="white-space: pre" font-family="Oracle Sans" font-size="16" font-weight="600" letter-spacing="0em"><tspan x="739" y="122.816">Primary Database VNet</tspan></text>
</g>
<g id="Azure Cloud boxes_7">
<rect x="740.5" y="140.5" width="289" height="179" fill="white"/>
<rect x="740.5" y="140.5" width="289" height="179" stroke="#706E6F" stroke-dasharray="8 4"/>
<text id="Azure subnet_2" fill="#706E6F" xml:space="preserve" style="white-space: pre" font-family="Oracle Sans" font-size="16" font-weight="600" letter-spacing="0em"><tspan x="748" y="161.816">Delegated subnet</tspan></text>
</g>
<path id="Vector 15" d="M579.293 178.293C578.902 178.683 578.902 179.317 579.293 179.707L585.657 186.071C586.047 186.462 586.681 186.462 587.071 186.071C587.462 185.681 587.462 185.047 587.071 184.657L581.414 179L587.071 173.343C587.462 172.953 587.462 172.319 587.071 171.929C586.681 171.538 586.047 171.538 585.657 171.929L579.293 178.293ZM730.707 179.707C731.098 179.317 731.098 178.683 730.707 178.293L724.343 171.929C723.953 171.538 723.319 171.538 722.929 171.929C722.538 172.319 722.538 172.953 722.929 173.343L728.586 179L722.929 184.657C722.538 185.047 722.538 185.681 722.929 186.071C723.319 186.462 723.953 186.462 724.343 186.071L730.707 179.707ZM580 179L580 180L730 180L730 179L730 178L580 178L580 179Z" fill="#312D2A"/>
<path id="Vector 19" d="M1220.71 229.707C1221.1 229.317 1221.1 228.683 1220.71 228.293L1214.34 221.929C1213.95 221.538 1213.32 221.538 1212.93 221.929C1212.54 222.319 1212.54 222.953 1212.93 223.343L1218.59 229L1212.93 234.657C1212.54 235.047 1212.54 235.681 1212.93 236.071C1213.32 236.462 1213.95 236.462 1214.34 236.071L1220.71 229.707ZM967 229V230H1220V229V228H967V229Z" fill="#312D2A"/>
<g id="Connector Line Label">
<rect width="97" height="14" transform="translate(605 172)" fill="#DAE8FC"/>
<text id="Line Label" fill="#312D2A" xml:space="preserve" style="white-space: pre" font-family="Oracle Sans" font-size="14" letter-spacing="0em"><tspan x="609.36" y="184.089">VNET peering</tspan></text>
</g>
<g id="Connector Line Label_2">
<rect width="74" height="14" transform="translate(1087 223)" fill="white"/>
<text id="Line Label_2" fill="#312D2A" xml:space="preserve" style="white-space: pre" font-family="Oracle Sans" font-size="14" letter-spacing="0em"><tspan x="1091.3" y="235.089">Automatic</tspan></text>
</g>
<g id="Connector Line Label_3">
<rect width="55" height="14" transform="translate(1097 237)" fill="white"/>
<text id="Line Label_3" fill="#312D2A" xml:space="preserve" style="white-space: pre" font-family="Oracle Sans" font-size="14" letter-spacing="0em"><tspan x="1101.48" y="249.089">backup</tspan></text>
</g>
<g id="Private Endpoint IP">
<g id="Srv-OCI Private Endpoint IP">
<g id="Group 424">
<path id="Vector_55" d="M776.78 225.811C773.603 221.216 772.38 215.545 773.378 210.047C774.377 204.548 777.517 199.672 782.106 196.491C786.696 193.311 792.359 192.086 797.851 193.086C803.342 194.086 808.212 197.23 811.389 201.825C813.813 205.364 815.111 209.554 815.111 213.846C815.111 218.137 813.813 222.328 811.389 225.867L794.091 250.779L776.78 225.811Z" fill="white"/>
<path id="Vector_56" d="M794.062 193.404C797.785 193.39 801.441 194.398 804.632 196.319C807.822 198.24 810.426 201 812.16 204.298C813.894 207.597 814.692 211.309 814.467 215.03C814.242 218.751 813.002 222.338 810.883 225.404L794.09 249.544L777.354 225.404C775.24 222.346 774.001 218.769 773.772 215.058C773.542 211.347 774.33 207.643 776.051 204.348C777.771 201.053 780.359 198.292 783.533 196.363C786.708 194.434 790.349 193.41 794.062 193.404V193.404ZM794.062 192C790.093 192.007 786.201 193.101 782.808 195.163C779.415 197.225 776.649 200.176 774.811 203.698C772.972 207.22 772.129 211.179 772.375 215.145C772.621 219.112 773.945 222.936 776.204 226.204L792.941 250.344L794.09 252L795.24 250.344L811.963 226.204C814.224 222.933 815.548 219.105 815.792 215.135C816.036 211.165 815.19 207.203 813.346 203.68C811.503 200.156 808.731 197.205 805.332 195.147C801.932 193.088 798.035 192 794.062 192V192Z" fill="white"/>
<path id="Vector_57" d="M810.815 202.176C807.738 197.733 803.025 194.696 797.713 193.733C792.4 192.769 786.923 193.958 782.486 197.039C778.049 200.119 775.015 204.838 774.053 210.157C773.091 215.477 774.279 220.961 777.355 225.404L794.092 249.544L810.815 225.404C813.16 221.986 814.416 217.937 814.416 213.79C814.416 209.643 813.16 205.593 810.815 202.176V202.176ZM808.782 224.014L794.092 245.235L779.346 224C777.487 221.311 776.398 218.164 776.197 214.899C775.997 211.635 776.693 208.378 778.209 205.481C779.725 202.584 782.004 200.157 784.798 198.465C787.593 196.772 790.797 195.877 794.064 195.877C797.33 195.877 800.534 196.772 803.329 198.465C806.124 200.157 808.403 202.584 809.919 205.481C811.435 208.378 812.131 211.635 811.93 214.899C811.73 218.164 810.641 221.311 808.782 224V224.014Z" fill="#2D5967"/>
<path id="Vector_58" d="M800.258 208.253V205.221C800.249 204.261 800.019 203.316 799.587 202.459C799.154 201.602 798.53 200.857 797.763 200.281C797.002 199.701 796.116 199.308 795.176 199.135C794.236 198.962 793.269 199.013 792.352 199.284C791.057 199.677 789.924 200.478 789.121 201.568C788.318 202.658 787.887 203.979 787.894 205.333V208.253C786.661 209.479 785.818 211.044 785.475 212.75C785.131 214.456 785.301 216.226 785.963 217.836C786.625 219.445 787.75 220.821 789.194 221.789C790.639 222.757 792.338 223.274 794.076 223.274C795.814 223.274 797.513 222.757 798.958 221.789C800.402 220.821 801.527 219.445 802.189 217.836C802.851 216.226 803.021 214.456 802.677 212.75C802.334 211.044 801.491 209.479 800.258 208.253V208.253ZM790.347 205.333C790.335 204.511 790.589 203.707 791.072 203.041C791.555 202.376 792.24 201.885 793.025 201.642C793.578 201.48 794.162 201.45 794.729 201.555C795.297 201.66 795.831 201.896 796.291 202.246C796.753 202.593 797.13 203.042 797.393 203.557C797.655 204.073 797.796 204.642 797.805 205.221V206.526C796.637 205.981 795.364 205.698 794.076 205.698C792.788 205.698 791.515 205.981 790.347 206.526V205.333ZM794.076 220.772C792.82 220.78 791.59 220.415 790.542 219.721C789.494 219.028 788.675 218.039 788.19 216.879C787.705 215.719 787.575 214.44 787.817 213.206C788.059 211.972 788.662 210.838 789.549 209.948C790.436 209.057 791.568 208.451 792.8 208.206C794.032 207.961 795.309 208.088 796.468 208.571C797.628 209.055 798.618 209.872 799.313 210.92C800.007 211.968 800.375 213.199 800.37 214.456C800.379 215.289 800.223 216.115 799.911 216.887C799.598 217.659 799.136 218.361 798.551 218.953C797.965 219.544 797.268 220.013 796.5 220.333C795.732 220.652 794.908 220.816 794.076 220.814V220.772Z" fill="#2D5967"/>
<path id="Vector_59" d="M794.077 211.761H793.853C793.45 211.811 793.074 211.992 792.783 212.276C792.492 212.559 792.302 212.931 792.241 213.333C792.183 213.712 792.245 214.1 792.418 214.443C792.592 214.785 792.868 215.064 793.208 215.241L792.843 217.627H795.31L794.974 215.241C795.264 215.077 795.505 214.838 795.673 214.55C795.84 214.261 795.928 213.933 795.927 213.599C795.923 213.11 795.727 212.643 795.38 212.298C795.034 211.954 794.565 211.761 794.077 211.761V211.761Z" fill="#2D5967"/>
</g>
</g>
<g id="Icon Text Label_5">
<text id="IconLabel_7" fill="black" xml:space="preserve" style="white-space: pre" font-family="Oracle Sans" font-size="16" letter-spacing="0em"><tspan x="780.93" y="269.816">OCI</tspan></text>
<text id="IconLabel_8" fill="black" xml:space="preserve" style="white-space: pre" font-family="Oracle Sans" font-size="16" letter-spacing="0em"><tspan x="768.969" y="285.816">Private</tspan></text>
<text id="IconLabel_9" fill="black" xml:space="preserve" style="white-space: pre" font-family="Oracle Sans" font-size="16" letter-spacing="0em"><tspan x="761.016" y="301.816">Endpoint</tspan></text>
</g>
</g>
<g id="Private Endpoint IP_2">
<g id="Srv-OCI Object Storage">
<g id="Group_7">
<g id="Group_8">
<g id="Group_9">
<path id="Vector_60" d="M1228.85 251.286C1227.14 251.286 1225.71 249.857 1225.71 248.143V195.857C1225.71 194.143 1227.14 192.714 1228.85 192.714H1281.15C1282.86 192.714 1284.29 194.143 1284.29 195.857V248.286C1284.29 250 1282.86 251.429 1281.15 251.429L1228.85 251.286Z" fill="white"/>
<path id="Vector_61" d="M1281.01 193.429C1282.29 193.429 1283.43 194.571 1283.43 195.857V248.286C1283.43 249.571 1282.29 250.714 1281.01 250.714H1228.85C1227.57 250.571 1226.43 249.429 1226.43 248.143V195.857C1226.43 194.571 1227.57 193.429 1228.85 193.429H1281.01ZM1281.01 192H1228.85C1226.71 192 1225 193.714 1225 195.857V248.286C1225 250.286 1226.71 252 1228.85 252H1281.15C1283.29 252 1285 250.286 1285 248.143V195.857C1284.86 193.714 1283.15 192 1281.01 192Z" fill="white"/>
</g>
<g id="Group_10">
<g id="Group_11">
<path id="Vector_62" d="M1268.32 208.572L1272.17 215.286L1268.32 222H1260.63L1256.78 215.286L1260.63 208.572H1268.32ZM1269.61 206.572H1259.35L1254.22 215.429L1259.35 224.286H1269.61L1274.74 215.429L1269.61 206.572Z" fill="#2D5967"/>
</g>
<g id="Group_12">
<path id="Vector_63" d="M1254.5 229C1258.2 229 1261.2 232 1261.2 235.714C1261.2 239.429 1258.2 242.429 1254.5 242.429C1250.79 242.429 1247.8 239.429 1247.8 235.714C1247.8 232 1250.79 229 1254.5 229ZM1254.5 227C1249.65 227 1245.66 231 1245.66 235.857C1245.66 240.714 1249.65 244.714 1254.5 244.714C1259.35 244.714 1263.34 240.714 1263.34 235.857C1263.34 230.857 1259.35 227 1254.5 227Z" fill="#2D5967"/>
</g>
<g id="Group_13">
<path id="Vector_64" d="M1244.38 210.286L1250.65 221.572H1238.25L1244.38 210.286ZM1244.38 206L1234.69 223.715H1254.22L1244.38 206Z" fill="#2D5967"/>
</g>
</g>
<g id="Group_14">
<path id="Vector_65" d="M1281.01 250.572H1228.85C1227.57 250.572 1226.43 249.429 1226.43 248.144V199.144H1283.43V248.144C1283.43 249.429 1282.29 250.572 1281.01 250.572ZM1228.56 201.286V248.286C1228.56 248.429 1228.71 248.572 1228.85 248.572H1281.15C1281.3 248.572 1281.44 248.429 1281.44 248.286V201.286H1228.56Z" fill="#2D5967"/>
</g>
<g id="Group_15">
<path id="Vector_66" d="M1283.43 197.572H1226.43V195.858C1226.43 194.572 1227.57 193.429 1228.85 193.429H1281.15C1282.29 193.429 1283.43 194.572 1283.43 195.858V197.572Z" fill="#2D5967"/>
</g>
</g>
</g>
</g>
<g id="Icon Text Label_6">
<text id="IconLabel_10" fill="black" xml:space="preserve" style="white-space: pre" font-family="Oracle Sans" font-size="16" letter-spacing="0em"><tspan x="1216.37" y="269.816">OCI Object</tspan></text>
<text id="IconLabel_11" fill="black" xml:space="preserve" style="white-space: pre" font-family="Oracle Sans" font-size="16" letter-spacing="0em"><tspan x="1227.19" y="285.816">Storage</tspan></text>
</g>
</g>
<g id="Group 14">
<g id="OCI Region_3">
<rect x="1180.5" y="420.5" width="149" height="329" rx="3.5" fill="#E4E1DD"/>
<rect x="1180.5" y="420.5" width="149" height="329" rx="3.5" stroke="#9E9892"/>
<text id="Availability Domain_3" fill="#312D2A" xml:space="preserve" style="white-space: pre" font-family="Oracle Sans" font-size="16" font-weight="bold" letter-spacing="0em"><tspan x="1241.35" y="441.816">OCI</tspan></text>
<text id="Availability Domain_4" fill="#312D2A" xml:space="preserve" style="white-space: pre" font-family="Oracle Sans" font-size="16" font-weight="bold" letter-spacing="0em"><tspan x="1222.95" y="457.816">Services</tspan></text>
</g>
</g>
<g id="Azure Cloud boxes_8">
<rect x="310.5" y="420.5" width="759" height="329" rx="3.5" fill="#ECF3FB"/>
<rect x="310.5" y="420.5" width="759" height="329" rx="3.5" stroke="#0078D7"/>
<text id="Azure Region_2" fill="#312D2A" xml:space="preserve" style="white-space: pre" font-family="Oracle Sans" font-size="16" font-weight="bold" letter-spacing="0em"><tspan x="318" y="441.816">Azure Region 2</tspan></text>
</g>
<g id="Azure Cloud boxes_9">
<rect x="320.5" y="450.5" width="741" height="289" fill="white"/>
<rect x="320.5" y="450.5" width="741" height="289" stroke="#0078D7" stroke-dasharray="2 2"/>
<text id="Subscription_2" fill="#312D2A" xml:space="preserve" style="white-space: pre" font-family="Oracle Sans" font-size="16" font-weight="600" letter-spacing="0em"><tspan x="328" y="471.816">Subscription</tspan></text>
</g>
<g id="Azure Cloud boxes_10">
<rect x="330.5" y="460.5" width="719" height="269" rx="3.5" fill="#DAE8FC"/>
<rect x="330.5" y="460.5" width="719" height="269" rx="3.5" stroke="#0078D7"/>
<text id="Availability Zone_2" fill="#312D2A" xml:space="preserve" style="white-space: pre" font-family="Oracle Sans" font-size="16" font-weight="600" letter-spacing="0em"><tspan x="623.102" y="481.816">Availability Zone 1</tspan></text>
</g>
<g id="Azure Cloud boxes_11">
<rect x="341" y="491" width="238" height="228" fill="white"/>
<rect x="341" y="491" width="238" height="228" stroke="#706E6F" stroke-width="2" stroke-dasharray="4 4"/>
<g id="VNet icon_3">
<rect id="White Vnet BG_3" x="527" y="488" width="45" height="6" fill="white"/>
<g id="Icon Master_7">
<g id="Azure_VNet_3">
<g id="Group_16">
<g id="Group_17">
<path id="Vector_67" d="M558.294 493.545C559.724 493.545 560.884 492.386 560.884 490.955C560.884 489.524 559.724 488.365 558.294 488.365C556.863 488.365 555.704 489.524 555.704 490.955C555.704 492.386 556.863 493.545 558.294 493.545Z" fill="url(#paint15_linear_20462_15492)"/>
<path id="Vector_68" d="M550.125 493.545C551.555 493.545 552.715 492.386 552.715 490.955C552.715 489.524 551.555 488.365 550.125 488.365C548.694 488.365 547.534 489.524 547.534 490.955C547.534 492.386 548.694 493.545 550.125 493.545Z" fill="url(#paint16_linear_20462_15492)"/>
<path id="Vector_69" d="M541.955 493.545C543.386 493.545 544.545 492.386 544.545 490.955C544.545 489.524 543.386 488.365 541.955 488.365C540.525 488.365 539.365 489.524 539.365 490.955C539.365 492.386 540.525 493.545 541.955 493.545Z" fill="url(#paint17_linear_20462_15492)"/>
<path id="Vector_70" d="M543.748 501.316L542.154 502.91C541.955 502.91 541.557 502.91 541.357 502.711L530.398 491.752C530 491.354 530 490.556 530.398 489.959L531.993 488.564L543.748 500.32C543.948 500.519 543.948 500.918 543.748 501.316Z" fill="#50E6FF"/>
<path id="Vector_71" d="M542.154 479.199L543.748 480.793C543.948 480.993 543.948 481.391 543.748 481.59L531.993 493.346L530.399 491.752C529.801 491.154 529.801 490.357 530.399 489.959L541.158 479.199C541.357 479 541.756 479 542.154 479.199Z" fill="#1490DF"/>
<path id="Vector_72" d="M568.057 488.365L569.452 489.76C570.05 490.357 570.05 491.154 569.452 491.553L558.493 502.512C558.294 502.711 557.895 502.711 557.497 502.512L555.903 500.918C555.704 500.718 555.704 500.32 555.903 499.921L568.057 488.365Z" fill="#50E6FF"/>
<path id="Vector_73" d="M569.651 491.752L568.057 493.346L556.501 481.79C556.301 481.59 556.301 481.192 556.501 480.793L557.895 479.199C558.095 479 558.493 479 558.892 479.199L569.651 489.959C570.05 490.357 570.05 491.154 569.651 491.752Z" fill="#1490DF"/>
</g>
</g>
</g>
</g>
</g>
<text id="VNet_3" fill="#706E6F" xml:space="preserve" style="white-space: pre" font-family="Oracle Sans" font-size="16" font-weight="600" letter-spacing="0em"><tspan x="349" y="512.816">Application VNet/Subnet</tspan></text>
</g>
<g id="Azure Cloud boxes_12">
<rect x="350.5" y="530.5" width="219" height="179" fill="white"/>
<rect x="350.5" y="530.5" width="219" height="179" stroke="#706E6F" stroke-dasharray="8 4"/>
<text id="Azure subnet_3" fill="#706E6F" xml:space="preserve" style="white-space: pre" font-family="Oracle Sans" font-size="16" font-weight="600" letter-spacing="0em"><tspan x="358" y="551.816">Integration subnet</tspan></text>
</g>
<path id="Vector 26" d="M730.707 621.707C731.098 621.317 731.098 620.683 730.707 620.293L724.343 613.929C723.953 613.538 723.319 613.538 722.929 613.929C722.538 614.319 722.538 614.953 722.929 615.343L728.586 621L722.929 626.657C722.538 627.047 722.538 627.681 722.929 628.071C723.319 628.462 723.953 628.462 724.343 628.071L730.707 621.707ZM503 621L503 622L730 622L730 621L730 620L503 620L503 621Z" fill="#312D2A"/>
<g id="Icon Master_8">
<g id="Azure-App-Services_2">
<g id="Group_18">
<path id="ee75dd06-1aca-4f76-9d11-d05a284020ad_2" d="M481.526 644.659C466.3 656.559 444.249 653.759 432.348 638.358C420.447 622.958 423.248 601.082 438.648 589.181L438.998 589.006C454.574 577.455 476.45 580.606 488.001 596.181C499.376 611.407 496.576 632.933 481.526 644.659Z" fill="url(#paint18_radial_20462_15492)"/>
<path id="Vector_74" opacity="0.6" d="M450.549 609.657C460.525 600.206 473.65 594.956 487.301 594.956C485.551 592.681 483.451 590.756 481.176 589.006C474.525 589.356 467.875 590.931 461.75 593.381C455.449 596.181 449.674 600.031 444.949 604.932C447.224 605.982 449.149 607.557 450.549 609.657Z" fill="white"/>
<path id="Vector_75" opacity="0.6" d="M433.223 623.658C431.823 627.158 430.598 630.833 429.723 634.508C430.423 635.908 431.298 637.133 432.348 638.358C433.048 639.234 433.748 640.109 434.623 640.984C435.498 636.083 437.073 631.358 438.998 626.633C436.898 626.283 434.798 625.233 433.223 623.658Z" fill="white"/>
<path id="Vector_76" opacity="0.55" d="M437.248 604.932C435.848 601.081 434.798 596.881 434.448 592.856C432.698 594.606 431.123 596.706 429.898 598.806C430.423 602.131 431.123 605.457 432.173 608.607C433.398 607.032 435.148 605.807 437.248 604.932Z" fill="#F2F2F2"/>
<path id="Vector_77" d="M441.098 626.808C447.284 626.808 452.299 621.793 452.299 615.607C452.299 609.421 447.284 604.407 441.098 604.407C434.912 604.407 429.898 609.421 429.898 615.607C429.898 621.793 434.912 626.808 441.098 626.808Z" fill="url(#paint19_linear_20462_15492)"/>
<path id="Vector_78" opacity="0.55" d="M457.374 636.258C457.374 634.333 458.249 632.408 459.649 631.008C455.799 628.908 452.299 626.283 449.149 623.308C447.574 625.058 445.299 626.283 443.023 626.808C444.949 628.733 446.874 630.483 448.974 632.058C451.599 633.983 454.399 635.733 457.374 637.133C457.549 636.783 457.374 636.433 457.374 636.258Z" fill="#F2F2F2"/>
<path id="Vector_79" opacity="0.55" d="M483.451 637.133C479.6 637.133 475.75 636.608 472.075 635.733C472.075 635.908 472.075 636.083 472.075 636.258C472.075 638.184 471.375 639.934 469.975 641.334C474.7 642.209 479.425 642.559 484.151 642.384C485.901 640.809 487.651 638.884 489.051 636.783C487.126 636.958 485.201 637.133 483.451 637.133Z" fill="#F2F2F2"/>
<path id="Vector_80" d="M464.725 643.609C468.784 643.609 472.075 640.318 472.075 636.259C472.075 632.199 468.784 628.908 464.725 628.908C460.665 628.908 457.374 632.199 457.374 636.259C457.374 640.318 460.665 643.609 464.725 643.609Z" fill="url(#paint20_linear_20462_15492)"/>
<path id="Vector_81" opacity="0.7" d="M473.825 616.657C474.175 615.082 475.05 613.682 476.275 612.457C469.45 607.557 463.325 601.781 457.899 595.306C454.749 591.631 451.949 587.606 449.674 583.23C448.099 583.755 446.699 584.281 445.124 584.981C447.574 589.706 450.549 594.081 454.049 598.106C459.824 605.107 466.475 611.407 473.825 616.657Z" fill="#F2F2F2"/>
<path id="Vector_82" d="M481.35 625.933C485.7 625.933 489.226 622.407 489.226 618.058C489.226 613.708 485.7 610.182 481.35 610.182C477.001 610.182 473.475 613.708 473.475 618.058C473.475 622.407 477.001 625.933 481.35 625.933Z" fill="url(#paint21_linear_20462_15492)"/>
<path id="Vector_83" opacity="0.55" d="M494.476 623.308L493.076 622.608L491.851 621.908H491.501L490.451 621.033H490.101L488.876 620.158C488.351 621.733 487.476 622.958 486.251 624.008C486.776 624.358 487.301 624.708 487.826 624.883L488.176 625.058L489.576 625.758L493.076 627.683C493.776 626.283 494.126 624.708 494.476 623.308Z" fill="#F2F2F2"/>
<path id="Vector_84" d="M441.098 626.808C447.284 626.808 452.299 621.793 452.299 615.607C452.299 609.421 447.284 604.407 441.098 604.407C434.912 604.407 429.898 609.421 429.898 615.607C429.898 621.793 434.912 626.808 441.098 626.808Z" fill="url(#paint22_linear_20462_15492)"/>
<path id="Vector_85" d="M464.725 643.609C468.784 643.609 472.075 640.318 472.075 636.259C472.075 632.199 468.784 628.908 464.725 628.908C460.665 628.908 457.374 632.199 457.374 636.259C457.374 640.318 460.665 643.609 464.725 643.609Z" fill="url(#paint23_linear_20462_15492)"/>
</g>
</g>
<g id="Icon Text Label_7">
<text id="IconLabel_12" fill="black" xml:space="preserve" style="white-space: pre" font-family="Oracle Sans" font-size="16" letter-spacing="0em"><tspan x="417" y="669.816">App Service</tspan></text>
</g>
</g>
<g id="Azure Cloud boxes_13">
<rect x="731" y="491" width="308" height="228" fill="white"/>
<rect x="731" y="491" width="308" height="228" stroke="#706E6F" stroke-width="2" stroke-dasharray="4 4"/>
<g id="VNet icon_4">
<rect id="White Vnet BG_4" x="987" y="488" width="45" height="6" fill="white"/>
<g id="Icon Master_9">
<g id="Azure_VNet_4">
<g id="Group_19">
<g id="Group_20">
<path id="Vector_86" d="M1018.29 493.545C1019.72 493.545 1020.88 492.386 1020.88 490.955C1020.88 489.524 1019.72 488.365 1018.29 488.365C1016.86 488.365 1015.7 489.524 1015.7 490.955C1015.7 492.386 1016.86 493.545 1018.29 493.545Z" fill="url(#paint24_linear_20462_15492)"/>
<path id="Vector_87" d="M1010.12 493.545C1011.56 493.545 1012.71 492.386 1012.71 490.955C1012.71 489.524 1011.56 488.365 1010.12 488.365C1008.69 488.365 1007.53 489.524 1007.53 490.955C1007.53 492.386 1008.69 493.545 1010.12 493.545Z" fill="url(#paint25_linear_20462_15492)"/>
<path id="Vector_88" d="M1001.96 493.545C1003.39 493.545 1004.55 492.386 1004.55 490.955C1004.55 489.524 1003.39 488.365 1001.96 488.365C1000.52 488.365 999.365 489.524 999.365 490.955C999.365 492.386 1000.52 493.545 1001.96 493.545Z" fill="url(#paint26_linear_20462_15492)"/>
<path id="Vector_89" d="M1003.75 501.316L1002.15 502.91C1001.96 502.91 1001.56 502.91 1001.36 502.711L990.398 491.752C990 491.354 990 490.556 990.398 489.959L991.993 488.564L1003.75 500.32C1003.95 500.519 1003.95 500.918 1003.75 501.316Z" fill="#50E6FF"/>
<path id="Vector_90" d="M1002.15 479.199L1003.75 480.793C1003.95 480.993 1003.95 481.391 1003.75 481.59L991.993 493.346L990.399 491.752C989.801 491.154 989.801 490.357 990.399 489.959L1001.16 479.199C1001.36 479 1001.76 479 1002.15 479.199Z" fill="#1490DF"/>
<path id="Vector_91" d="M1028.06 488.365L1029.45 489.76C1030.05 490.357 1030.05 491.154 1029.45 491.553L1018.49 502.512C1018.29 502.711 1017.9 502.711 1017.5 502.512L1015.9 500.918C1015.7 500.718 1015.7 500.32 1015.9 499.921L1028.06 488.365Z" fill="#50E6FF"/>
<path id="Vector_92" d="M1029.65 491.752L1028.06 493.346L1016.5 481.79C1016.3 481.59 1016.3 481.192 1016.5 480.793L1017.9 479.199C1018.09 479 1018.49 479 1018.89 479.199L1029.65 489.959C1030.05 490.357 1030.05 491.154 1029.65 491.752Z" fill="#1490DF"/>
</g>
</g>
</g>
</g>
</g>
<text id="VNet_4" fill="#706E6F" xml:space="preserve" style="white-space: pre" font-family="Oracle Sans" font-size="16" font-weight="600" letter-spacing="0em"><tspan x="739" y="512.816">Standby Database VNet</tspan></text>
</g>
<g id="Azure Cloud boxes_14">
<rect x="740.5" y="530.5" width="289" height="179" fill="white"/>
<rect x="740.5" y="530.5" width="289" height="179" stroke="#706E6F" stroke-dasharray="8 4"/>
<text id="Azure subnet_4" fill="#706E6F" xml:space="preserve" style="white-space: pre" font-family="Oracle Sans" font-size="16" font-weight="600" letter-spacing="0em"><tspan x="748" y="551.816">Delegated subnet</tspan></text>
</g>
<path id="Vector 27" d="M579.293 568.293C578.902 568.683 578.902 569.317 579.293 569.707L585.657 576.071C586.047 576.462 586.681 576.462 587.071 576.071C587.462 575.681 587.462 575.047 587.071 574.657L581.414 569L587.071 563.343C587.462 562.953 587.462 562.319 587.071 561.929C586.681 561.538 586.047 561.538 585.657 561.929L579.293 568.293ZM730.707 569.707C731.098 569.317 731.098 568.683 730.707 568.293L724.343 561.929C723.953 561.538 723.319 561.538 722.929 561.929C722.538 562.319 722.538 562.953 722.929 563.343L728.586 569L722.929 574.657C722.538 575.047 722.538 575.681 722.929 576.071C723.319 576.462 723.953 576.462 724.343 576.071L730.707 569.707ZM580 569L580 570L730 570L730 569L730 568L580 568L580 569Z" fill="#312D2A"/>
<g id="Connector Line Label_4">
<rect width="97" height="14" transform="translate(605 562)" fill="#DAE8FC"/>
<text id="Line Label_4" fill="#312D2A" xml:space="preserve" style="white-space: pre" font-family="Oracle Sans" font-size="14" letter-spacing="0em"><tspan x="609.36" y="574.089">VNET peering</tspan></text>
</g>
<g id="Private Endpoint IP_3">
<g id="Srv-OCI Private Endpoint IP_2">
<g id="Group 424_2">
<path id="Vector_93" d="M776.78 615.811C773.603 611.216 772.38 605.545 773.378 600.047C774.377 594.548 777.517 589.672 782.106 586.491C786.696 583.311 792.359 582.086 797.851 583.086C803.342 584.086 808.212 587.23 811.389 591.825C813.813 595.364 815.111 599.554 815.111 603.846C815.111 608.137 813.813 612.328 811.389 615.867L794.091 640.779L776.78 615.811Z" fill="white"/>
<path id="Vector_94" d="M794.062 583.404C797.785 583.39 801.441 584.398 804.632 586.319C807.822 588.24 810.426 591 812.16 594.298C813.894 597.597 814.692 601.309 814.467 605.03C814.242 608.751 813.002 612.338 810.883 615.404L794.09 639.544L777.354 615.404C775.24 612.346 774.001 608.769 773.772 605.058C773.542 601.347 774.33 597.643 776.051 594.348C777.771 591.053 780.359 588.292 783.533 586.363C786.708 584.434 790.349 583.41 794.062 583.404V583.404ZM794.062 582C790.093 582.007 786.201 583.101 782.808 585.163C779.415 587.225 776.649 590.176 774.811 593.698C772.972 597.22 772.129 601.179 772.375 605.145C772.621 609.112 773.945 612.936 776.204 616.204L792.941 640.344L794.09 642L795.24 640.344L811.963 616.204C814.224 612.933 815.548 609.105 815.792 605.135C816.036 601.165 815.19 597.203 813.346 593.68C811.503 590.156 808.731 587.205 805.332 585.147C801.932 583.088 798.035 582 794.062 582V582Z" fill="white"/>
<path id="Vector_95" d="M810.815 592.176C807.738 587.733 803.025 584.696 797.713 583.733C792.4 582.769 786.923 583.958 782.486 587.039C778.049 590.119 775.015 594.838 774.053 600.157C773.091 605.477 774.279 610.961 777.355 615.404L794.092 639.544L810.815 615.404C813.16 611.986 814.416 607.937 814.416 603.79C814.416 599.643 813.16 595.593 810.815 592.176V592.176ZM808.782 614.014L794.092 635.235L779.346 614C777.487 611.311 776.398 608.164 776.197 604.899C775.997 601.635 776.693 598.378 778.209 595.481C779.725 592.584 782.004 590.157 784.798 588.465C787.593 586.772 790.797 585.877 794.064 585.877C797.33 585.877 800.534 586.772 803.329 588.465C806.124 590.157 808.403 592.584 809.919 595.481C811.435 598.378 812.131 601.635 811.93 604.899C811.73 608.164 810.641 611.311 808.782 614V614.014Z" fill="#2D5967"/>
<path id="Vector_96" d="M800.258 598.253V595.221C800.249 594.261 800.019 593.316 799.587 592.459C799.154 591.602 798.53 590.857 797.763 590.281C797.002 589.701 796.116 589.308 795.176 589.135C794.236 588.962 793.269 589.013 792.352 589.284C791.057 589.677 789.924 590.478 789.121 591.568C788.318 592.658 787.887 593.979 787.894 595.333V598.253C786.661 599.479 785.818 601.044 785.475 602.75C785.131 604.456 785.301 606.226 785.963 607.836C786.625 609.445 787.75 610.821 789.194 611.789C790.639 612.757 792.338 613.274 794.076 613.274C795.814 613.274 797.513 612.757 798.958 611.789C800.402 610.821 801.527 609.445 802.189 607.836C802.851 606.226 803.021 604.456 802.677 602.75C802.334 601.044 801.491 599.479 800.258 598.253V598.253ZM790.347 595.333C790.335 594.511 790.589 593.707 791.072 593.041C791.555 592.376 792.24 591.885 793.025 591.642C793.578 591.48 794.162 591.45 794.729 591.555C795.297 591.66 795.831 591.896 796.291 592.246C796.753 592.593 797.13 593.042 797.393 593.557C797.655 594.073 797.796 594.642 797.805 595.221V596.526C796.637 595.981 795.364 595.698 794.076 595.698C792.788 595.698 791.515 595.981 790.347 596.526V595.333ZM794.076 610.772C792.82 610.78 791.59 610.415 790.542 609.721C789.494 609.028 788.675 608.039 788.19 606.879C787.705 605.719 787.575 604.44 787.817 603.206C788.059 601.972 788.662 600.838 789.549 599.948C790.436 599.057 791.568 598.451 792.8 598.206C794.032 597.961 795.309 598.088 796.468 598.571C797.628 599.055 798.618 599.872 799.313 600.92C800.007 601.968 800.375 603.199 800.37 604.456C800.379 605.289 800.223 606.115 799.911 606.887C799.598 607.659 799.136 608.361 798.551 608.953C797.965 609.544 797.268 610.013 796.5 610.333C795.732 610.652 794.908 610.816 794.076 610.814V610.772Z" fill="#2D5967"/>
<path id="Vector_97" d="M794.077 601.761H793.853C793.45 601.811 793.074 601.992 792.783 602.276C792.492 602.559 792.302 602.931 792.241 603.333C792.183 603.712 792.245 604.1 792.418 604.443C792.592 604.785 792.868 605.064 793.208 605.241L792.843 607.627H795.31L794.974 605.241C795.264 605.077 795.505 604.838 795.673 604.55C795.84 604.261 795.928 603.933 795.927 603.599C795.923 603.11 795.727 602.643 795.38 602.298C795.034 601.954 794.565 601.761 794.077 601.761V601.761Z" fill="#2D5967"/>
</g>
</g>
<g id="Icon Text Label_8">
<text id="IconLabel_13" fill="black" xml:space="preserve" style="white-space: pre" font-family="Oracle Sans" font-size="16" letter-spacing="0em"><tspan x="780.93" y="659.816">OCI</tspan></text>
<text id="IconLabel_14" fill="black" xml:space="preserve" style="white-space: pre" font-family="Oracle Sans" font-size="16" letter-spacing="0em"><tspan x="768.969" y="675.816">Private</tspan></text>
<text id="IconLabel_15" fill="black" xml:space="preserve" style="white-space: pre" font-family="Oracle Sans" font-size="16" letter-spacing="0em"><tspan x="761.016" y="691.816">Endpoint</tspan></text>
</g>
</g>
<g id="Autonomous-Transaction-Processing-ATP">
<g id="Srv-Oracle Autonomous Transaction Processing ATP">
<g id="Group 526">
<path id="Vector_98" d="M932.857 639.514V638.861L932.779 639.514H931.892C926.007 639.314 920.387 637.015 916.046 633.032C911.704 629.048 908.927 623.642 908.216 617.789L906.299 619.735L903.926 617.358L908.216 613.128C908.316 611.857 908.516 610.595 908.815 609.355C907.307 608.552 906.11 607.268 905.412 605.707C904.714 604.145 904.556 602.396 904.963 600.734C905.37 599.073 906.319 597.595 907.659 596.534C908.998 595.473 910.653 594.89 912.362 594.877C913.965 594.881 915.525 595.393 916.821 596.339C920.862 592.934 925.89 590.92 931.162 590.595C931.684 590.555 932.153 590.555 932.609 590.555H933.991C935.093 588.88 936.665 587.568 938.511 586.788C940.356 586.007 942.391 585.792 944.359 586.169C946.326 586.546 948.138 587.499 949.565 588.907C950.992 590.316 951.969 592.116 952.375 594.08L953.77 592.683L956.156 595.073L956.038 595.177L955.686 595.595L951.892 599.394C954.868 602.925 956.764 607.24 957.355 611.823L959.663 609.512L962.036 611.888L957.525 616.405C957.446 617.813 957.245 619.211 956.925 620.583C957.814 621.093 958.592 621.777 959.212 622.593C959.833 623.41 960.283 624.343 960.536 625.337C960.79 626.331 960.841 627.366 960.688 628.381C960.534 629.395 960.179 630.369 959.643 631.243C959.107 632.117 958.401 632.875 957.567 633.471C956.733 634.067 955.788 634.489 954.787 634.713C953.787 634.936 952.753 634.956 951.745 634.772C950.737 634.587 949.776 634.202 948.92 633.639C946.586 635.615 943.907 637.142 941.019 638.143L940.771 638.221C940.302 638.391 939.819 638.521 939.337 638.652H939.141L938.815 638.743L938.19 638.9L937.394 639.057L936.742 639.187C936.521 639.187 936.299 639.187 936.064 639.266L935.178 639.37C934.343 639.448 933.6 639.488 932.922 639.488L932.857 639.514Z" fill="white"/>
<path id="Vector_99" d="M942.452 586.639C944.852 586.643 947.161 587.557 948.915 589.197C950.668 590.837 951.737 593.081 951.905 595.478L953.769 593.611L955.216 595.06L950.992 599.29C954.427 603.168 956.485 608.075 956.846 613.246L959.662 610.439L961.11 611.888L956.885 616.118C956.812 617.727 956.576 619.323 956.181 620.884C957.069 621.308 957.859 621.915 958.497 622.665C959.136 623.415 959.61 624.291 959.888 625.236C960.167 626.181 960.243 627.175 960.113 628.151C959.983 629.128 959.649 630.067 959.133 630.906C958.617 631.745 957.93 632.466 957.118 633.022C956.305 633.578 955.385 633.957 954.417 634.133C953.448 634.31 952.454 634.28 951.498 634.047C950.542 633.813 949.645 633.381 948.867 632.777C946.518 634.88 943.781 636.503 940.81 637.556L940.588 637.634C940.119 637.791 939.649 637.921 939.18 638.052L938.671 638.195C938.007 638.352 937.368 638.496 936.638 638.6L935.673 638.718H935.112C934.38 638.796 933.645 638.835 932.909 638.835H932.492C926.427 638.784 920.607 636.434 916.204 632.257C911.801 628.081 909.142 622.389 908.763 616.327L906.299 618.808L904.838 617.359L908.75 613.442C908.856 611.94 909.114 610.453 909.519 609.003C908.045 608.351 906.839 607.211 906.105 605.774C905.37 604.337 905.151 602.692 905.484 601.112C905.817 599.533 906.682 598.117 907.934 597.1C909.186 596.084 910.749 595.53 912.361 595.53C914 595.537 915.584 596.124 916.833 597.188C920.831 593.682 925.872 591.594 931.175 591.248C931.657 591.248 932.14 591.169 932.622 591.156H932.817C933.404 591.156 933.978 591.156 934.538 591.248L934.408 591.117C935.26 589.75 936.446 588.621 937.853 587.838C939.26 587.055 940.843 586.642 942.452 586.639ZM942.452 585.333C940.741 585.343 939.057 585.756 937.535 586.538C936.013 587.321 934.696 588.451 933.691 589.838H932.609C932.126 589.838 931.657 589.838 931.201 589.916H931.083C925.839 590.239 920.825 592.193 916.742 595.504C915.424 594.654 913.89 594.201 912.322 594.198C910.501 594.196 908.73 594.792 907.279 595.893C905.829 596.995 904.778 598.542 904.289 600.298C903.799 602.054 903.898 603.922 904.569 605.617C905.241 607.312 906.448 608.74 908.007 609.682C907.773 610.723 907.612 611.778 907.524 612.842L903.926 616.445L903 617.359L903.926 618.286L905.373 619.735L906.299 620.662L907.211 619.735L907.772 619.173C908.752 624.794 911.592 629.92 915.835 633.728C920.077 637.536 925.476 639.804 931.162 640.167V640.167H932.465H932.909C933.613 640.167 934.369 640.167 935.229 640.049H935.634H935.829H936.116L936.833 639.958L938.137 639.749L938.997 639.54L939.349 639.449H939.519L940.979 638.861H941.149H941.227C944.042 637.889 946.664 636.426 948.971 634.54C950.223 635.279 951.651 635.667 953.104 635.663C955.313 635.659 957.43 634.779 958.992 633.215C960.553 631.652 961.432 629.532 961.435 627.32C961.438 625.937 961.094 624.576 960.436 623.361C959.778 622.145 958.826 621.114 957.668 620.362C957.918 619.143 958.084 617.908 958.163 616.667L962.074 612.75L963 611.823L962.074 610.896L960.627 609.447L959.701 608.52L958.776 609.447L957.85 610.387C957.102 606.357 955.369 602.576 952.804 599.381L956.181 596L957.107 595.073L956.977 594.929L956.181 594.068L954.695 592.684L953.769 591.757L952.857 592.684L952.713 592.814C952.007 590.644 950.636 588.753 948.793 587.409C946.951 586.066 944.732 585.34 942.452 585.333V585.333Z" fill="white"/>
<path id="Vector_100" d="M936.313 636.536L936.638 638.559C935.405 638.757 934.158 638.857 932.91 638.86H932.492V636.81C933.758 636.823 935.023 636.731 936.273 636.536H936.313ZM915.791 631.627C916.756 632.618 917.803 633.526 918.92 634.342L920.133 632.671C919.1 631.937 918.14 631.107 917.264 630.191L915.791 631.627ZM920.654 635.478C921.841 636.192 923.089 636.799 924.383 637.293L925.165 635.374C923.983 634.925 922.845 634.37 921.762 633.716L920.654 635.478ZM926.912 635.974L926.352 637.946C927.017 638.128 927.655 638.298 928.372 638.429C929.09 638.559 929.741 638.664 930.419 638.729L930.641 636.692C930.015 636.627 929.337 636.523 928.751 636.405C928.164 636.288 927.525 636.144 926.912 635.974V635.974ZM938.164 636.157L938.659 638.142C939.999 637.823 941.308 637.386 942.571 636.836L941.749 634.943C940.596 635.487 939.396 635.924 938.164 636.248V636.157ZM913.874 625.634L912.127 626.64C912.798 627.851 913.574 629 914.448 630.073L916.039 628.768C915.242 627.786 914.531 626.738 913.914 625.634H913.874ZM912.206 621.887C912.206 621.678 912.062 621.47 912.01 621.274C911.958 621.078 911.932 620.986 911.893 620.843C911.449 619.242 911.19 617.594 911.123 615.934L914.07 618.871L915.517 617.357L910.185 612.017L904.839 617.357L906.299 618.806L909.077 616.025C909.152 617.656 909.392 619.274 909.794 620.856V620.856C909.794 621.013 909.885 621.156 909.924 621.313C909.96 621.467 910.003 621.62 910.054 621.77C910.054 621.992 910.185 622.214 910.263 622.423C910.341 622.631 910.328 622.658 910.367 622.775C910.602 623.441 910.876 624.081 911.163 624.773L913.027 623.924C912.714 623.193 912.44 622.54 912.206 621.887ZM905.335 602.578C905.332 601.183 905.743 599.818 906.516 598.656C907.288 597.495 908.388 596.589 909.675 596.054C910.962 595.519 912.378 595.378 913.745 595.65C915.112 595.922 916.368 596.593 917.353 597.58C918.339 598.567 919.01 599.824 919.281 601.193C919.552 602.562 919.412 603.98 918.877 605.269C918.343 606.558 917.438 607.659 916.278 608.432C915.119 609.206 913.756 609.618 912.362 609.615C910.499 609.612 908.714 608.869 907.397 607.55C906.08 606.231 905.338 604.443 905.335 602.578V602.578ZM907.382 602.578C907.379 603.568 907.67 604.537 908.218 605.361C908.765 606.185 909.545 606.828 910.458 607.208C911.371 607.588 912.376 607.689 913.346 607.496C914.316 607.304 915.207 606.827 915.906 606.127C916.605 605.427 917.081 604.535 917.273 603.564C917.465 602.592 917.366 601.586 916.986 600.672C916.606 599.757 915.964 598.977 915.141 598.428C914.318 597.88 913.351 597.588 912.362 597.591C911.042 597.594 909.777 598.121 908.844 599.055C907.911 599.99 907.385 601.257 907.382 602.578V602.578ZM919.533 597.878C923.051 595.092 927.348 593.472 931.828 593.243C932.024 592.523 932.291 591.823 932.623 591.155C927.382 591.236 922.314 593.044 918.203 596.298C918.699 596.771 919.137 597.301 919.507 597.878H919.533ZM952.271 601.077C951.943 601.74 951.546 602.366 951.084 602.944C953.128 606.014 954.357 609.554 954.657 613.231L951.893 610.438L950.445 611.887L955.778 617.226L961.11 611.887L959.663 610.438L956.743 613.362C956.441 608.93 954.901 604.673 952.297 601.077H952.271ZM960.12 627.188C960.12 628.583 959.706 629.946 958.932 631.106C958.158 632.266 957.058 633.169 955.77 633.702C954.483 634.236 953.067 634.375 951.701 634.101C950.335 633.828 949.08 633.156 948.096 632.168C947.112 631.181 946.443 629.924 946.172 628.555C945.902 627.187 946.044 625.769 946.578 624.481C947.113 623.193 948.018 622.093 949.177 621.32C950.337 620.547 951.699 620.135 953.092 620.138C954.957 620.141 956.745 620.886 958.062 622.207C959.38 623.529 960.12 625.32 960.12 627.188V627.188ZM958.073 627.188C958.075 626.198 957.784 625.229 957.236 624.405C956.689 623.581 955.909 622.938 954.996 622.558C954.083 622.178 953.078 622.077 952.108 622.27C951.138 622.463 950.247 622.939 949.548 623.639C948.849 624.339 948.373 625.231 948.181 626.203C947.989 627.174 948.089 628.18 948.468 629.094C948.848 630.009 949.49 630.789 950.313 631.338C951.136 631.886 952.103 632.178 953.092 632.175C954.412 632.172 955.677 631.645 956.61 630.711C957.543 629.776 958.069 628.51 958.073 627.188V627.188ZM915.569 601.808L914.122 600.359L911.749 602.722L910.615 601.586L909.168 603.048L911.775 605.659L915.569 601.808ZM943.744 621.887C943.744 624.629 936.821 625.36 933.157 625.36C929.494 625.36 922.727 624.629 922.727 621.887V605.751C922.727 602.617 931.423 602.461 933.157 602.461H933.444C933.99 603.253 934.644 603.965 935.387 604.576C934.696 604.576 933.953 604.576 933.157 604.576C928.555 604.576 925.713 605.346 924.917 605.881C925.778 606.39 928.62 607.187 933.157 607.187C935.085 607.207 937.01 607.045 938.907 606.704C940.049 607.092 941.247 607.29 942.453 607.291C942.889 607.292 943.325 607.266 943.757 607.213L943.744 621.887ZM941.645 616.313C941.628 616.386 941.628 616.462 941.645 616.535H941.736V613.127C938.975 613.975 936.097 614.376 933.21 614.315C930.378 614.362 927.556 613.979 924.839 613.179V616.469C925.504 616.978 928.399 617.775 933.21 617.775C938.359 617.775 941.319 616.809 941.697 616.326L941.645 616.313ZM924.787 607.983V610.921C925.452 611.417 928.346 612.226 933.157 612.226C938.307 612.226 941.267 611.273 941.645 610.79C941.625 610.858 941.625 610.931 941.645 610.999H941.736V607.918C938.975 608.765 936.097 609.166 933.21 609.106C930.379 609.159 927.556 608.78 924.839 607.983H924.787ZM941.788 621.783V618.676C939.027 619.523 936.149 619.924 933.262 619.864C930.43 619.911 927.608 619.528 924.891 618.728V621.796C925.387 622.305 928.255 623.363 933.262 623.363C937.968 623.363 941.215 622.37 941.788 621.783V621.783ZM954.539 624.498L953.236 625.804L951.932 624.498L950.485 625.961L951.788 627.266L950.485 628.572L951.932 630.021L953.236 628.715L954.539 630.021L955.987 628.572L954.683 627.266L955.987 625.961L954.539 624.498ZM946.195 632.214C945.314 632.896 944.386 633.516 943.418 634.068L944.409 635.857C945.516 635.243 946.571 634.54 947.564 633.755C947.043 633.31 946.575 632.806 946.169 632.253L946.195 632.214ZM934.539 591.324L935.778 592.551L935.882 592.656C936.623 591.234 937.804 590.091 939.248 589.397C940.692 588.703 942.321 588.495 943.893 588.805C945.464 589.115 946.893 589.926 947.966 591.117C949.039 592.307 949.699 593.814 949.846 595.411L948.047 593.609L946.599 595.058L950.915 599.38L955.217 595.058L953.77 593.609L951.906 595.476C951.766 593.476 950.997 591.572 949.71 590.037C948.422 588.501 946.682 587.414 944.74 586.929C942.797 586.445 940.751 586.589 938.895 587.341C937.039 588.093 935.469 589.415 934.409 591.115L934.578 591.272L934.539 591.324ZM946.313 600.515V600.594H944.135L943.666 598.518H941.215L940.732 600.594H938.62V600.515L941.462 590.685H943.483L946.313 600.515ZM941.606 596.808H943.275L942.44 593.165L941.606 596.808ZM929.728 597.238L931.176 598.688L932.988 596.86C933.138 598.854 933.914 600.75 935.206 602.276C936.497 603.802 938.237 604.88 940.178 605.355C942.118 605.83 944.159 605.679 946.008 604.922C947.857 604.165 949.419 602.842 950.472 601.142L949.011 599.693C948.258 601.095 947.075 602.218 945.637 602.898C944.199 603.577 942.581 603.776 941.021 603.467C939.461 603.157 938.042 602.354 936.971 601.177C935.901 599.999 935.236 598.509 935.074 596.925L936.899 598.727L938.359 597.278L934.005 592.878L929.689 597.199L929.728 597.238Z" fill="#2D5967"/>
</g>
</g>
<g id="Icon Text Label_9">
<text id="IconLabel_16" fill="black" xml:space="preserve" style="white-space: pre" font-family="Oracle Sans" font-size="16" letter-spacing="0em"><tspan x="860.93" y="659.816">Oracle Autonomous</tspan></text>
<text id="IconLabel_17" fill="black" xml:space="preserve" style="white-space: pre" font-family="Oracle Sans" font-size="16" letter-spacing="0em"><tspan x="849.352" y="675.816">Transaction Processing  </tspan></text>
<text id="IconLabel_18" fill="black" xml:space="preserve" style="white-space: pre" font-family="Oracle Sans" font-size="16" letter-spacing="0em"><tspan x="896.148" y="691.816">Serverless</tspan></text>
</g>
</g>
<path id="Vector 25" d="M929.303 581.707C929.693 582.098 930.326 582.098 930.717 581.707L937.081 575.343C937.471 574.953 937.471 574.319 937.081 573.929C936.69 573.538 936.057 573.538 935.667 573.929L930.01 579.586L924.353 573.929C923.963 573.538 923.329 573.538 922.939 573.929C922.548 574.319 922.548 574.953 922.939 575.343L929.303 581.707ZM930.01 581L931.01 581L931.01 322L930.01 322L929.01 322L929.01 581L930.01 581Z" fill="#312D2A"/>
<path id="Vector 20" d="M418.707 621.707C419.098 621.317 419.098 620.683 418.707 620.293L412.343 613.929C411.953 613.538 411.319 613.538 410.929 613.929C410.538 614.319 410.538 614.953 410.929 615.343L416.586 621L410.929 626.657C410.538 627.047 410.538 627.681 410.929 628.071C411.319 628.462 411.953 628.462 412.343 628.071L418.707 621.707ZM418.707 231.707C419.098 231.317 419.098 230.683 418.707 230.293L412.343 223.929C411.953 223.538 411.319 223.538 410.929 223.929C410.538 224.319 410.538 224.953 410.929 225.343L416.586 231L410.929 236.657C410.538 237.047 410.538 237.681 410.929 238.071C411.319 238.462 411.953 238.462 412.343 238.071L418.707 231.707ZM289 231L289 230L288 230L288 231L289 231ZM289 621L288 621L288 622L289 622L289 621ZM289 231L289 232L418 232L418 231L418 230L289 230L289 231ZM418 621L418 620L289 620L289 621L289 622L418 622L418 621ZM289 621L290 621L290 231L289 231L288 231L288 621L289 621Z" fill="#312D2A"/>
<g id="Private Endpoint IP_4">
<g id="Srv-OCI Object Storage_2">
<g id="Group_21">
<g id="Group_22">
<g id="Group_23">
<path id="Vector_101" d="M1228.85 641.286C1227.14 641.286 1225.71 639.857 1225.71 638.143V585.857C1225.71 584.143 1227.14 582.714 1228.85 582.714H1281.15C1282.86 582.714 1284.29 584.143 1284.29 585.857V638.286C1284.29 640 1282.86 641.429 1281.15 641.429L1228.85 641.286Z" fill="white"/>
<path id="Vector_102" d="M1281.01 583.429C1282.29 583.429 1283.43 584.571 1283.43 585.857V638.286C1283.43 639.571 1282.29 640.714 1281.01 640.714H1228.85C1227.57 640.571 1226.43 639.429 1226.43 638.143V585.857C1226.43 584.571 1227.57 583.429 1228.85 583.429H1281.01ZM1281.01 582H1228.85C1226.71 582 1225 583.714 1225 585.857V638.286C1225 640.286 1226.71 642 1228.85 642H1281.15C1283.29 642 1285 640.286 1285 638.143V585.857C1284.86 583.714 1283.15 582 1281.01 582Z" fill="white"/>
</g>
<g id="Group_24">
<g id="Group_25">
<path id="Vector_103" d="M1268.32 598.572L1272.17 605.286L1268.32 612H1260.63L1256.78 605.286L1260.63 598.572H1268.32ZM1269.61 596.572H1259.35L1254.22 605.429L1259.35 614.286H1269.61L1274.74 605.429L1269.61 596.572Z" fill="#2D5967"/>
</g>
<g id="Group_26">
<path id="Vector_104" d="M1254.5 619C1258.2 619 1261.2 622 1261.2 625.714C1261.2 629.429 1258.2 632.429 1254.5 632.429C1250.79 632.429 1247.8 629.429 1247.8 625.714C1247.8 622 1250.79 619 1254.5 619ZM1254.5 617C1249.65 617 1245.66 621 1245.66 625.857C1245.66 630.714 1249.65 634.714 1254.5 634.714C1259.35 634.714 1263.34 630.714 1263.34 625.857C1263.34 620.857 1259.35 617 1254.5 617Z" fill="#2D5967"/>
</g>
<g id="Group_27">
<path id="Vector_105" d="M1244.38 600.286L1250.65 611.572H1238.25L1244.38 600.286ZM1244.38 596L1234.69 613.715H1254.22L1244.38 596Z" fill="#2D5967"/>
</g>
</g>
<g id="Group_28">
<path id="Vector_106" d="M1281.01 640.572H1228.85C1227.57 640.572 1226.43 639.429 1226.43 638.144V589.144H1283.43V638.144C1283.43 639.429 1282.29 640.572 1281.01 640.572ZM1228.56 591.286V638.286C1228.56 638.429 1228.71 638.572 1228.85 638.572H1281.15C1281.3 638.572 1281.44 638.429 1281.44 638.286V591.286H1228.56Z" fill="#2D5967"/>
</g>
<g id="Group_29">
<path id="Vector_107" d="M1283.43 587.572H1226.43V585.858C1226.43 584.572 1227.57 583.429 1228.85 583.429H1281.15C1282.29 583.429 1283.43 584.572 1283.43 585.858V587.572Z" fill="#2D5967"/>
</g>
</g>
</g>
</g>
<g id="Icon Text Label_10">
<text id="IconLabel_19" fill="black" xml:space="preserve" style="white-space: pre" font-family="Oracle Sans" font-size="16" letter-spacing="0em"><tspan x="1216.37" y="659.816">OCI Object</tspan></text>
<text id="IconLabel_20" fill="black" xml:space="preserve" style="white-space: pre" font-family="Oracle Sans" font-size="16" letter-spacing="0em"><tspan x="1227.19" y="675.816">Storage</tspan></text>
</g>
</g>
<g id="Autonomous-Transaction-Processing-ATP_2">
<g id="Srv-Oracle Autonomous Transaction Processing ATP_2">
<g id="Group 526_2">
<path id="Vector_108" d="M932.857 249.514V248.861L932.779 249.514H931.892C926.007 249.314 920.387 247.015 916.046 243.032C911.704 239.048 908.927 233.642 908.216 227.789L906.299 229.735L903.926 227.358L908.216 223.128C908.316 221.857 908.516 220.595 908.815 219.355C907.307 218.552 906.11 217.268 905.412 215.707C904.714 214.145 904.556 212.396 904.963 210.734C905.37 209.073 906.319 207.595 907.659 206.534C908.998 205.473 910.653 204.89 912.362 204.877C913.965 204.881 915.525 205.393 916.821 206.339C920.862 202.934 925.89 200.92 931.162 200.595C931.684 200.555 932.153 200.555 932.609 200.555H933.991C935.093 198.88 936.665 197.568 938.511 196.788C940.356 196.007 942.391 195.792 944.359 196.169C946.326 196.546 948.138 197.499 949.565 198.907C950.992 200.316 951.969 202.116 952.375 204.08L953.77 202.683L956.156 205.073L956.038 205.177L955.686 205.595L951.892 209.394C954.868 212.925 956.764 217.24 957.355 221.823L959.663 219.512L962.036 221.888L957.525 226.405C957.446 227.813 957.245 229.211 956.925 230.583C957.814 231.093 958.592 231.777 959.212 232.593C959.833 233.41 960.283 234.343 960.536 235.337C960.79 236.331 960.841 237.366 960.688 238.381C960.534 239.395 960.179 240.369 959.643 241.243C959.107 242.117 958.401 242.875 957.567 243.471C956.733 244.067 955.788 244.489 954.787 244.713C953.787 244.936 952.753 244.956 951.745 244.772C950.737 244.587 949.776 244.202 948.92 243.639C946.586 245.615 943.907 247.142 941.019 248.143L940.771 248.221C940.302 248.391 939.819 248.521 939.337 248.652H939.141L938.815 248.743L938.19 248.9L937.394 249.057L936.742 249.187C936.521 249.187 936.299 249.187 936.064 249.266L935.178 249.37C934.343 249.448 933.6 249.488 932.922 249.488L932.857 249.514Z" fill="white"/>
<path id="Vector_109" d="M942.452 196.639C944.852 196.643 947.161 197.557 948.915 199.197C950.668 200.837 951.737 203.081 951.905 205.478L953.769 203.611L955.216 205.06L950.992 209.29C954.427 213.168 956.485 218.075 956.846 223.246L959.662 220.439L961.11 221.888L956.885 226.118C956.812 227.727 956.576 229.323 956.181 230.884C957.069 231.308 957.859 231.915 958.497 232.665C959.136 233.415 959.61 234.291 959.888 235.236C960.167 236.181 960.243 237.175 960.113 238.151C959.983 239.128 959.649 240.067 959.133 240.906C958.617 241.745 957.93 242.466 957.118 243.022C956.305 243.578 955.385 243.957 954.417 244.133C953.448 244.31 952.454 244.28 951.498 244.047C950.542 243.813 949.645 243.381 948.867 242.777C946.518 244.88 943.781 246.503 940.81 247.556L940.588 247.634C940.119 247.791 939.649 247.921 939.18 248.052L938.671 248.195C938.007 248.352 937.368 248.496 936.638 248.6L935.673 248.718H935.112C934.38 248.796 933.645 248.835 932.909 248.835H932.492C926.427 248.784 920.607 246.434 916.204 242.257C911.801 238.081 909.142 232.389 908.763 226.327L906.299 228.808L904.838 227.359L908.75 223.442C908.856 221.94 909.114 220.453 909.519 219.003C908.045 218.351 906.839 217.211 906.105 215.774C905.37 214.337 905.151 212.692 905.484 211.112C905.817 209.533 906.682 208.117 907.934 207.1C909.186 206.084 910.749 205.53 912.361 205.53C914 205.537 915.584 206.124 916.833 207.188C920.831 203.682 925.872 201.594 931.175 201.248C931.657 201.248 932.14 201.169 932.622 201.156H932.817C933.404 201.156 933.978 201.156 934.538 201.248L934.408 201.117C935.26 199.75 936.446 198.621 937.853 197.838C939.26 197.055 940.843 196.642 942.452 196.639ZM942.452 195.333C940.741 195.343 939.057 195.756 937.535 196.538C936.013 197.321 934.696 198.451 933.691 199.838H932.609C932.126 199.838 931.657 199.838 931.201 199.916H931.083C925.839 200.239 920.825 202.193 916.742 205.504C915.424 204.654 913.89 204.201 912.322 204.198C910.501 204.196 908.73 204.792 907.279 205.893C905.829 206.995 904.778 208.542 904.289 210.298C903.799 212.054 903.898 213.922 904.569 215.617C905.241 217.312 906.448 218.74 908.007 219.682C907.773 220.723 907.612 221.778 907.524 222.842L903.926 226.445L903 227.359L903.926 228.286L905.373 229.735L906.299 230.662L907.211 229.735L907.772 229.173C908.752 234.794 911.592 239.92 915.835 243.728C920.077 247.536 925.476 249.804 931.162 250.167V250.167H932.465H932.909C933.613 250.167 934.369 250.167 935.229 250.049H935.634H935.829H936.116L936.833 249.958L938.137 249.749L938.997 249.54L939.349 249.449H939.519L940.979 248.861H941.149H941.227C944.042 247.889 946.664 246.426 948.971 244.54C950.223 245.279 951.651 245.667 953.104 245.663C955.313 245.659 957.43 244.779 958.992 243.215C960.553 241.652 961.432 239.532 961.435 237.32C961.438 235.937 961.094 234.576 960.436 233.361C959.778 232.145 958.826 231.114 957.668 230.362C957.918 229.143 958.084 227.908 958.163 226.667L962.074 222.75L963 221.823L962.074 220.896L960.627 219.447L959.701 218.52L958.776 219.447L957.85 220.387C957.102 216.357 955.369 212.576 952.804 209.381L956.181 206L957.107 205.073L956.977 204.929L956.181 204.068L954.695 202.684L953.769 201.757L952.857 202.684L952.713 202.814C952.007 200.644 950.636 198.753 948.793 197.409C946.951 196.066 944.732 195.34 942.452 195.333V195.333Z" fill="white"/>
<path id="Vector_110" d="M936.313 246.536L936.638 248.559C935.405 248.757 934.158 248.857 932.91 248.86H932.492V246.81C933.758 246.823 935.023 246.731 936.273 246.536H936.313ZM915.791 241.627C916.756 242.618 917.803 243.526 918.92 244.342L920.133 242.671C919.1 241.937 918.14 241.107 917.264 240.191L915.791 241.627ZM920.654 245.478C921.841 246.192 923.089 246.799 924.383 247.293L925.165 245.374C923.983 244.925 922.845 244.37 921.762 243.716L920.654 245.478ZM926.912 245.974L926.352 247.946C927.017 248.128 927.655 248.298 928.372 248.429C929.09 248.559 929.741 248.664 930.419 248.729L930.641 246.692C930.015 246.627 929.337 246.523 928.751 246.405C928.164 246.288 927.525 246.144 926.912 245.974V245.974ZM938.164 246.157L938.659 248.142C939.999 247.823 941.308 247.386 942.571 246.836L941.749 244.943C940.596 245.487 939.396 245.924 938.164 246.248V246.157ZM913.874 235.634L912.127 236.64C912.798 237.851 913.574 239 914.448 240.073L916.039 238.768C915.242 237.786 914.531 236.738 913.914 235.634H913.874ZM912.206 231.887C912.206 231.678 912.062 231.47 912.01 231.274C911.958 231.078 911.932 230.986 911.893 230.843C911.449 229.242 911.19 227.594 911.123 225.934L914.07 228.871L915.517 227.357L910.185 222.017L904.839 227.357L906.299 228.806L909.077 226.025C909.152 227.656 909.392 229.274 909.794 230.856V230.856C909.794 231.013 909.885 231.156 909.924 231.313C909.96 231.467 910.003 231.62 910.054 231.77C910.054 231.992 910.185 232.214 910.263 232.423C910.341 232.631 910.328 232.658 910.367 232.775C910.602 233.441 910.876 234.081 911.163 234.773L913.027 233.924C912.714 233.193 912.44 232.54 912.206 231.887ZM905.335 212.578C905.332 211.183 905.743 209.818 906.516 208.656C907.288 207.495 908.388 206.589 909.675 206.054C910.962 205.519 912.378 205.378 913.745 205.65C915.112 205.922 916.368 206.593 917.353 207.58C918.339 208.567 919.01 209.824 919.281 211.193C919.552 212.562 919.412 213.98 918.877 215.269C918.343 216.558 917.438 217.659 916.278 218.432C915.119 219.206 913.756 219.618 912.362 219.615C910.499 219.612 908.714 218.869 907.397 217.55C906.08 216.231 905.338 214.443 905.335 212.578V212.578ZM907.382 212.578C907.379 213.568 907.67 214.537 908.218 215.361C908.765 216.185 909.545 216.828 910.458 217.208C911.371 217.588 912.376 217.689 913.346 217.496C914.316 217.304 915.207 216.827 915.906 216.127C916.605 215.427 917.081 214.535 917.273 213.564C917.465 212.592 917.366 211.586 916.986 210.672C916.606 209.757 915.964 208.977 915.141 208.428C914.318 207.88 913.351 207.588 912.362 207.591C911.042 207.594 909.777 208.121 908.844 209.055C907.911 209.99 907.385 211.257 907.382 212.578V212.578ZM919.533 207.878C923.051 205.092 927.348 203.472 931.828 203.243C932.024 202.523 932.291 201.823 932.623 201.155C927.382 201.236 922.314 203.044 918.203 206.298C918.699 206.771 919.137 207.301 919.507 207.878H919.533ZM952.271 211.077C951.943 211.74 951.546 212.366 951.084 212.944C953.128 216.014 954.357 219.554 954.657 223.231L951.893 220.438L950.445 221.887L955.778 227.226L961.11 221.887L959.663 220.438L956.743 223.362C956.441 218.93 954.901 214.673 952.297 211.077H952.271ZM960.12 237.188C960.12 238.583 959.706 239.946 958.932 241.106C958.158 242.266 957.058 243.169 955.77 243.702C954.483 244.236 953.067 244.375 951.701 244.101C950.335 243.828 949.08 243.156 948.096 242.168C947.112 241.181 946.443 239.924 946.172 238.555C945.902 237.187 946.044 235.769 946.578 234.481C947.113 233.193 948.018 232.093 949.177 231.32C950.337 230.547 951.699 230.135 953.092 230.138C954.957 230.141 956.745 230.886 958.062 232.207C959.38 233.529 960.12 235.32 960.12 237.188V237.188ZM958.073 237.188C958.075 236.198 957.784 235.229 957.236 234.405C956.689 233.581 955.909 232.938 954.996 232.558C954.083 232.178 953.078 232.077 952.108 232.27C951.138 232.463 950.247 232.939 949.548 233.639C948.849 234.339 948.373 235.231 948.181 236.203C947.989 237.174 948.089 238.18 948.468 239.094C948.848 240.009 949.49 240.789 950.313 241.338C951.136 241.886 952.103 242.178 953.092 242.175C954.412 242.172 955.677 241.645 956.61 240.711C957.543 239.776 958.069 238.51 958.073 237.188V237.188ZM915.569 211.808L914.122 210.359L911.749 212.722L910.615 211.586L909.168 213.048L911.775 215.659L915.569 211.808ZM943.744 231.887C943.744 234.629 936.821 235.36 933.157 235.36C929.494 235.36 922.727 234.629 922.727 231.887V215.751C922.727 212.617 931.423 212.461 933.157 212.461H933.444C933.99 213.253 934.644 213.965 935.387 214.576C934.696 214.576 933.953 214.576 933.157 214.576C928.555 214.576 925.713 215.346 924.917 215.881C925.778 216.39 928.62 217.187 933.157 217.187C935.085 217.207 937.01 217.045 938.907 216.704C940.049 217.092 941.247 217.29 942.453 217.291C942.889 217.292 943.325 217.266 943.757 217.213L943.744 231.887ZM941.645 226.313C941.628 226.386 941.628 226.462 941.645 226.535H941.736V223.127C938.975 223.975 936.097 224.376 933.21 224.315C930.378 224.362 927.556 223.979 924.839 223.179V226.469C925.504 226.978 928.399 227.775 933.21 227.775C938.359 227.775 941.319 226.809 941.697 226.326L941.645 226.313ZM924.787 217.983V220.921C925.452 221.417 928.346 222.226 933.157 222.226C938.307 222.226 941.267 221.273 941.645 220.79C941.625 220.858 941.625 220.931 941.645 220.999H941.736V217.918C938.975 218.765 936.097 219.166 933.21 219.106C930.379 219.159 927.556 218.78 924.839 217.983H924.787ZM941.788 231.783V228.676C939.027 229.523 936.149 229.924 933.262 229.864C930.43 229.911 927.608 229.528 924.891 228.728V231.796C925.387 232.305 928.255 233.363 933.262 233.363C937.968 233.363 941.215 232.37 941.788 231.783V231.783ZM954.539 234.498L953.236 235.804L951.932 234.498L950.485 235.961L951.788 237.266L950.485 238.572L951.932 240.021L953.236 238.715L954.539 240.021L955.987 238.572L954.683 237.266L955.987 235.961L954.539 234.498ZM946.195 242.214C945.314 242.896 944.386 243.516 943.418 244.068L944.409 245.857C945.516 245.243 946.571 244.54 947.564 243.755C947.043 243.31 946.575 242.806 946.169 242.253L946.195 242.214ZM934.539 201.324L935.778 202.551L935.882 202.656C936.623 201.234 937.804 200.091 939.248 199.397C940.692 198.703 942.321 198.495 943.893 198.805C945.464 199.115 946.893 199.926 947.966 201.117C949.039 202.307 949.699 203.814 949.846 205.411L948.047 203.609L946.599 205.058L950.915 209.38L955.217 205.058L953.77 203.609L951.906 205.476C951.766 203.476 950.997 201.572 949.71 200.037C948.422 198.501 946.682 197.414 944.74 196.929C942.797 196.445 940.751 196.589 938.895 197.341C937.039 198.093 935.469 199.415 934.409 201.115L934.578 201.272L934.539 201.324ZM946.313 210.515V210.594H944.135L943.666 208.518H941.215L940.732 210.594H938.62V210.515L941.462 200.685H943.483L946.313 210.515ZM941.606 206.808H943.275L942.44 203.165L941.606 206.808ZM929.728 207.238L931.176 208.688L932.988 206.86C933.138 208.854 933.914 210.75 935.206 212.276C936.497 213.802 938.237 214.88 940.178 215.355C942.118 215.83 944.159 215.679 946.008 214.922C947.857 214.165 949.419 212.842 950.472 211.142L949.011 209.693C948.258 211.095 947.075 212.218 945.637 212.898C944.199 213.577 942.581 213.776 941.021 213.467C939.461 213.157 938.042 212.354 936.971 211.177C935.901 209.999 935.236 208.509 935.074 206.925L936.899 208.727L938.359 207.278L934.005 202.878L929.689 207.199L929.728 207.238Z" fill="#2D5967"/>
</g>
</g>
<g id="Icon Text Label_11">
<text id="IconLabel_21" fill="black" xml:space="preserve" style="white-space: pre" font-family="Oracle Sans" font-size="16" letter-spacing="0em"><tspan x="860.93" y="269.816">Oracle Autonomous</tspan></text>
<text id="IconLabel_22" fill="black" xml:space="preserve" style="white-space: pre" font-family="Oracle Sans" font-size="16" letter-spacing="0em"><tspan x="849.352" y="285.816">Transaction Processing  </tspan></text>
<text id="IconLabel_23" fill="black" xml:space="preserve" style="white-space: pre" font-family="Oracle Sans" font-size="16" letter-spacing="0em"><tspan x="896.148" y="301.816">Serverless</tspan></text>
</g>
</g>
<g id="Group 15">
<g id="Connector Line Label_5">
<rect width="90" height="14" transform="translate(885 377.5)" fill="white"/>
<text id="Line Label_5" fill="#312D2A" xml:space="preserve" style="white-space: pre" font-family="Oracle Sans" font-size="14" letter-spacing="0em"><tspan x="889.265" y="389.589">Cross-region</tspan></text>
</g>
<g id="Connector Line Label_6">
<rect width="166" height="14" transform="translate(847 391.5)" fill="white"/>
<text id="Line Label_6" fill="#312D2A" xml:space="preserve" style="white-space: pre" font-family="Oracle Sans" font-size="14" letter-spacing="0em"><tspan x="851.325" y="403.589">Autonomous Data Guard</tspan></text>
</g>
</g>
</g>
<defs>
<linearGradient id="paint0_linear_20462_15492" x1="180.5" y1="318.328" x2="180.5" y2="268.667" gradientUnits="userSpaceOnUse">
<stop stop-color="#0078D4"/>
<stop offset="0.82" stop-color="#5EA0EF"/>
</linearGradient>
<radialGradient id="paint1_radial_20462_15492" cx="0" cy="0" r="1" gradientUnits="userSpaceOnUse" gradientTransform="translate(179.827 456.8) scale(29.2568)">
<stop offset="0.183" stop-color="#5EA0EF"/>
<stop offset="1" stop-color="#0078D4"/>
</radialGradient>
<linearGradient id="paint2_linear_20462_15492" x1="163.854" y1="465.412" x2="163.747" y2="451.775" gradientUnits="userSpaceOnUse">
<stop stop-color="#CCCCCC"/>
<stop offset="0.123" stop-color="#D7D7D7"/>
<stop offset="0.421" stop-color="#EBEBEB"/>
<stop offset="0.716" stop-color="#F8F8F8"/>
<stop offset="1" stop-color="#FCFCFC"/>
</linearGradient>
<linearGradient id="paint3_linear_20462_15492" x1="556.488" y1="99.1294" x2="560.128" y2="102.759" gradientUnits="userSpaceOnUse">
<stop stop-color="#86D633"/>
<stop offset="1" stop-color="#5E9624"/>
</linearGradient>
<linearGradient id="paint4_linear_20462_15492" x1="546.479" y1="97.342" x2="550.093" y2="100.978" gradientUnits="userSpaceOnUse">
<stop stop-color="#86D633"/>
<stop offset="1" stop-color="#5E9624"/>
</linearGradient>
<linearGradient id="paint5_linear_20462_15492" x1="538.282" y1="97.3348" x2="541.896" y2="100.971" gradientUnits="userSpaceOnUse">
<stop stop-color="#86D633"/>
<stop offset="1" stop-color="#5E9624"/>
</linearGradient>
<radialGradient id="paint6_radial_20462_15492" cx="0" cy="0" r="1" gradientUnits="userSpaceOnUse" gradientTransform="translate(459.991 226.932) scale(35.0832 35.0832)">
<stop offset="0.18" stop-color="#5EA0EF"/>
<stop offset="1" stop-color="#0078D4"/>
</radialGradient>
<linearGradient id="paint7_linear_20462_15492" x1="441.103" y1="237.165" x2="440.979" y2="220.873" gradientUnits="userSpaceOnUse">
<stop stop-color="#CCCCCC"/>
<stop offset="1" stop-color="#FCFCFC"/>
</linearGradient>
<linearGradient id="paint8_linear_20462_15492" x1="464.732" y1="253.54" x2="464.732" y2="238.898" gradientUnits="userSpaceOnUse">
<stop stop-color="#CCCCCC"/>
<stop offset="1" stop-color="#FCFCFC"/>
</linearGradient>
<linearGradient id="paint9_linear_20462_15492" x1="481.436" y1="235.804" x2="481.436" y2="220.254" gradientUnits="userSpaceOnUse">
<stop stop-color="#CCCCCC"/>
<stop offset="1" stop-color="#FCFCFC"/>
</linearGradient>
<linearGradient id="paint10_linear_20462_15492" x1="441.103" y1="237.165" x2="440.979" y2="220.873" gradientUnits="userSpaceOnUse">
<stop stop-color="#CCCCCC"/>
<stop offset="1" stop-color="#FCFCFC"/>
</linearGradient>
<linearGradient id="paint11_linear_20462_15492" x1="464.732" y1="253.54" x2="464.732" y2="238.898" gradientUnits="userSpaceOnUse">
<stop stop-color="#CCCCCC"/>
<stop offset="1" stop-color="#FCFCFC"/>
</linearGradient>
<linearGradient id="paint12_linear_20462_15492" x1="1016.49" y1="99.1294" x2="1020.13" y2="102.759" gradientUnits="userSpaceOnUse">
<stop stop-color="#86D633"/>
<stop offset="1" stop-color="#5E9624"/>
</linearGradient>
<linearGradient id="paint13_linear_20462_15492" x1="1006.48" y1="97.342" x2="1010.09" y2="100.978" gradientUnits="userSpaceOnUse">
<stop stop-color="#86D633"/>
<stop offset="1" stop-color="#5E9624"/>
</linearGradient>
<linearGradient id="paint14_linear_20462_15492" x1="998.282" y1="97.3348" x2="1001.9" y2="100.971" gradientUnits="userSpaceOnUse">
<stop stop-color="#86D633"/>
<stop offset="1" stop-color="#5E9624"/>
</linearGradient>
<linearGradient id="paint15_linear_20462_15492" x1="556.488" y1="489.129" x2="560.128" y2="492.759" gradientUnits="userSpaceOnUse">
<stop stop-color="#86D633"/>
<stop offset="1" stop-color="#5E9624"/>
</linearGradient>
<linearGradient id="paint16_linear_20462_15492" x1="546.479" y1="487.342" x2="550.093" y2="490.978" gradientUnits="userSpaceOnUse">
<stop stop-color="#86D633"/>
<stop offset="1" stop-color="#5E9624"/>
</linearGradient>
<linearGradient id="paint17_linear_20462_15492" x1="538.282" y1="487.335" x2="541.896" y2="490.971" gradientUnits="userSpaceOnUse">
<stop stop-color="#86D633"/>
<stop offset="1" stop-color="#5E9624"/>
</linearGradient>
<radialGradient id="paint18_radial_20462_15492" cx="0" cy="0" r="1" gradientUnits="userSpaceOnUse" gradientTransform="translate(459.991 616.932) scale(35.0832 35.0832)">
<stop offset="0.18" stop-color="#5EA0EF"/>
<stop offset="1" stop-color="#0078D4"/>
</radialGradient>
<linearGradient id="paint19_linear_20462_15492" x1="441.103" y1="627.165" x2="440.979" y2="610.873" gradientUnits="userSpaceOnUse">
<stop stop-color="#CCCCCC"/>
<stop offset="1" stop-color="#FCFCFC"/>
</linearGradient>
<linearGradient id="paint20_linear_20462_15492" x1="464.732" y1="643.54" x2="464.732" y2="628.898" gradientUnits="userSpaceOnUse">
<stop stop-color="#CCCCCC"/>
<stop offset="1" stop-color="#FCFCFC"/>
</linearGradient>
<linearGradient id="paint21_linear_20462_15492" x1="481.436" y1="625.804" x2="481.436" y2="610.254" gradientUnits="userSpaceOnUse">
<stop stop-color="#CCCCCC"/>
<stop offset="1" stop-color="#FCFCFC"/>
</linearGradient>
<linearGradient id="paint22_linear_20462_15492" x1="441.103" y1="627.165" x2="440.979" y2="610.873" gradientUnits="userSpaceOnUse">
<stop stop-color="#CCCCCC"/>
<stop offset="1" stop-color="#FCFCFC"/>
</linearGradient>
<linearGradient id="paint23_linear_20462_15492" x1="464.732" y1="643.54" x2="464.732" y2="628.898" gradientUnits="userSpaceOnUse">
<stop stop-color="#CCCCCC"/>
<stop offset="1" stop-color="#FCFCFC"/>
</linearGradient>
<linearGradient id="paint24_linear_20462_15492" x1="1016.49" y1="489.129" x2="1020.13" y2="492.759" gradientUnits="userSpaceOnUse">
<stop stop-color="#86D633"/>
<stop offset="1" stop-color="#5E9624"/>
</linearGradient>
<linearGradient id="paint25_linear_20462_15492" x1="1006.48" y1="487.342" x2="1010.09" y2="490.978" gradientUnits="userSpaceOnUse">
<stop stop-color="#86D633"/>
<stop offset="1" stop-color="#5E9624"/>
</linearGradient>
<linearGradient id="paint26_linear_20462_15492" x1="998.282" y1="487.335" x2="1001.9" y2="490.971" gradientUnits="userSpaceOnUse">
<stop stop-color="#86D633"/>
<stop offset="1" stop-color="#5E9624"/>
</linearGradient>
<clipPath id="clip0_20462_15492">
<rect width="1330" height="750" fill="white"/>
</clipPath>
</defs>
</svg>
