<svg width="1274" height="616" viewBox="0 0 1274 616" fill="none" xmlns="http://www.w3.org/2000/svg">
<g id="oracle_database_at_google_cloud_w_zdm" >
<rect width="1274" height="616" fill="white"/>
<g id="Group 1514">
<g id="Google cloud boxes">
<rect x="348" width="673" height="616" rx="4" fill="#F6F6F6"/>
<text id="Google Cloud Platform" fill="#312D2A" xml:space="preserve" style="white-space: pre" font-family="Oracle Sans" font-size="16" font-weight="bold" letter-spacing="0em"><tspan x="356" y="21.816">Google Cloud</tspan></text>
</g>
<g id="Google cloud boxes_2">
<rect x="356.5" y="32.5" width="656" height="575" fill="#F6F6F6"/>
<rect x="356.5" y="32.5" width="656" height="575" stroke="#616161" stroke-miterlimit="3.99933" stroke-dasharray="8 8"/>
<text id="Project" fill="#312D2A" xml:space="preserve" style="white-space: pre" font-family="Oracle Sans" font-size="16" font-weight="bold" letter-spacing="0em"><tspan x="364" y="53.816">Project</tspan></text>
</g>
<g id="Google cloud boxes_3">
<rect x="365.5" y="64.5" width="628" height="534" fill="#ECEFF1"/>
<rect x="365.5" y="64.5" width="628" height="534" stroke="#616161" stroke-miterlimit="3.99933" stroke-dasharray="2 2"/>
<text id="Project_2" fill="#312D2A" xml:space="preserve" style="white-space: pre" font-family="Oracle Sans" font-size="16" font-weight="bold" letter-spacing="0em"><tspan x="373" y="85.816">Google cloud region</tspan></text>
</g>
<g id="Google cloud boxes_4">
<rect x="614" y="148" width="389" height="431" fill="#E3F2FD"/>
<rect x="614" y="148" width="389" height="431" stroke="#706E6F" stroke-width="2" stroke-dasharray="4 4"/>
<g id="icon">
<rect id="blue BG" x="954" y="147" width="37.9502" height="4" fill="#E3F2FD"/>
<g id="VPC">
<g id="google-virtual-private-cloud-vpc">
<g id="A">
<g id="Group">
<path id="Vector" d="M982 128H994V140H982V128Z" fill="#AECBFA"/>
<path id="Vector_2" d="M988 128H994V140H988V128Z" fill="#669DF6"/>
<path id="Vector_3" d="M982 156H994V168H982V156Z" fill="#AECBFA"/>
<path id="Vector_4" d="M988 156H994V168H988V156Z" fill="#669DF6"/>
<path id="Vector_5" d="M954 128H966V140H954V128Z" fill="#AECBFA"/>
<path id="Vector_6" d="M960 128H966V140H960V128Z" fill="#669DF6"/>
<path id="Vector_7" d="M954 156H966V168H954V156Z" fill="#AECBFA"/>
<g id="Group_2">
<path id="Vector_8" d="M959.999 156H965.999V168H959.999V156ZM965.999 132H981.999V136H965.999V132Z" fill="#669DF6"/>
<path id="Vector_9" d="M966 160H982V164H966V160ZM986 140H990V156H986V140ZM958 140H962V156H958V140Z" fill="#669DF6"/>
</g>
<path id="Vector_10" d="M958 140H962V144H958V140ZM986 140H990V144H986V140ZM966 132H970V136H966V132ZM966 160H970V164H966V160Z" fill="#4285F4"/>
</g>
</g>
</g>
</g>
</g>
<text id="VPC_2" fill="#312D2A" xml:space="preserve" style="white-space: pre" font-family="Oracle Sans" font-size="16" font-weight="600" letter-spacing="0em"><tspan x="727.031" y="169.816">Spoke VPC (Database)</tspan></text>
</g>
<g id="Google cloud boxes_5">
<rect x="400" y="148" width="131" height="266" fill="#E3F2FD"/>
<rect x="400" y="148" width="131" height="266" stroke="#706E6F" stroke-width="2" stroke-dasharray="4 4"/>
<g id="icon_2">
<rect id="blue BG_2" x="482" y="147" width="37.9502" height="4" fill="#E3F2FD"/>
<g id="VPC_3">
<g id="google-virtual-private-cloud-vpc_2">
<g id="A_2">
<g id="Group_3">
<path id="Vector_11" d="M510 128H522V140H510V128Z" fill="#AECBFA"/>
<path id="Vector_12" d="M516 128H522V140H516V128Z" fill="#669DF6"/>
<path id="Vector_13" d="M510 156H522V168H510V156Z" fill="#AECBFA"/>
<path id="Vector_14" d="M516 156H522V168H516V156Z" fill="#669DF6"/>
<path id="Vector_15" d="M482 128H494V140H482V128Z" fill="#AECBFA"/>
<path id="Vector_16" d="M488 128H494V140H488V128Z" fill="#669DF6"/>
<path id="Vector_17" d="M482 156H494V168H482V156Z" fill="#AECBFA"/>
<g id="Group_4">
<path id="Vector_18" d="M487.999 156H493.999V168H487.999V156ZM493.999 132H509.999V136H493.999V132Z" fill="#669DF6"/>
<path id="Vector_19" d="M494 160H510V164H494V160ZM514 140H518V156H514V140ZM486 140H490V156H486V140Z" fill="#669DF6"/>
</g>
<path id="Vector_20" d="M486 140H490V144H486V140ZM514 140H518V144H514V140ZM494 132H498V136H494V132ZM494 160H498V164H494V160Z" fill="#4285F4"/>
</g>
</g>
</g>
</g>
</g>
<text id="VPC_4" fill="#312D2A" xml:space="preserve" style="white-space: pre" font-family="Oracle Sans" font-size="16" font-weight="600" letter-spacing="0em"><tspan x="408" y="169.816">Hub VPC</tspan></text>
</g>
<g id="Google cloud boxes_6">
<rect x="634" y="206" width="350" height="363" fill="white"/>
<rect x="634" y="206" width="350" height="363" stroke="#C8D0DD" stroke-width="2" stroke-dasharray="8 4"/>
<text id="Oracle Database@Google" fill="#312D2A" xml:space="preserve" style="white-space: pre" font-family="Oracle Sans" font-size="16" font-weight="600" letter-spacing="0em"><tspan x="642" y="227.816">Oracle</tspan></text>
<text id="Oracle Database@Google_2" fill="#312D2A" xml:space="preserve" style="white-space: pre" font-family="Oracle Sans" font-size="16" font-weight="600" letter-spacing="0em"><tspan x="642" y="247.816">Database@Google Cloud</tspan></text>
<g id="Group 1506">
<rect id="White BG" x="868" y="205" width="107" height="3" fill="white"/>
<g id="Oracle-Database@Google-Cloud">
<g id="Group 1509">
<g id="Clip path group">
<mask id="mask0_17071_214" style="mask-type:luminance" maskUnits="userSpaceOnUse" x="847" y="184" width="45" height="36">
<g id="clippath">
<path id="Vector_21" d="M891.277 184.175H847.003V219.825H891.277V184.175Z" fill="white"/>
</g>
</mask>
<g mask="url(#mask0_17071_214)">
<g id="Group_5">
<g id="Clip path group_2">
<mask id="mask1_17071_214" style="mask-type:luminance" maskUnits="userSpaceOnUse" x="847" y="184" width="45" height="36">
<g id="clippath-1">
<path id="Vector_22" d="M891.277 184.175H847.003V219.825H891.277V184.175Z" fill="white"/>
</g>
</mask>
<g mask="url(#mask1_17071_214)">
<g id="Group_6">
<path id="Vector_23" d="M875.199 194.019H876.597L880.441 190.175L880.616 188.544C877.529 185.806 873.509 184.175 869.14 184.175C861.159 184.175 854.402 189.592 852.421 196.99C852.829 196.699 853.761 196.932 853.761 196.932L861.45 195.651C861.45 195.651 861.858 195.01 862.033 195.01C863.781 193.087 866.344 191.864 869.14 191.864C871.936 191.864 873.509 192.68 875.199 194.019Z" fill="#EA4335"/>
<path id="Vector_24" d="M885.917 196.991C885.044 193.67 883.179 190.758 880.675 188.544L875.199 194.02C877.412 195.767 878.811 198.505 878.811 201.534V202.525C881.49 202.525 883.646 204.68 883.646 207.359C883.646 210.039 881.49 212.194 878.811 212.194H869.199L868.209 213.185V218.952L869.199 219.884H878.811C885.684 219.884 891.335 214.292 891.335 207.359C891.335 200.427 889.179 199.321 885.917 197.049" fill="#4285F4"/>
<path id="Vector_25" d="M859.528 219.767H869.14V212.078H859.528C858.829 212.078 858.13 211.903 857.547 211.67L856.149 212.078L852.305 215.922L851.955 217.204C854.052 218.777 856.674 219.767 859.528 219.767Z" fill="#34A853"/>
<path id="Vector_26" d="M859.528 194.777C852.654 194.777 847.003 200.369 847.003 207.301C847.003 214.233 848.926 214.99 851.955 217.262L857.547 211.67C855.858 210.913 854.693 209.223 854.693 207.301C854.693 205.379 856.848 202.466 859.528 202.466C862.207 202.466 863.139 203.631 863.896 205.321L869.489 199.728C867.217 196.699 863.605 194.777 859.528 194.777Z" fill="#FBBC05"/>
</g>
</g>
</g>
</g>
</g>
</g>
<path id="Vector_27" d="M916.762 201.01H912.452V196.757H910.529V201.01H906.277V202.99H910.529V207.243H912.452V202.99H916.762V201.01Z" fill="#202124"/>
<path id="Union" fill-rule="evenodd" clip-rule="evenodd" d="M948.132 184C939.103 184 931.762 185.456 931.762 187.32V195.767C931.762 197.573 939.103 199.087 948.132 199.087C957.162 199.087 964.502 197.631 964.502 195.767V187.32C964.502 185.515 957.162 184 948.132 184ZM954.365 195.65C953.841 195.65 953.433 195.243 953.433 194.718C953.433 194.194 953.841 193.786 954.365 193.786C954.89 193.786 955.297 194.194 955.297 194.718C955.297 195.243 954.89 195.65 954.365 195.65ZM957.395 195.301C956.87 195.301 956.462 194.893 956.462 194.369C956.462 193.845 956.87 193.437 957.395 193.437C957.919 193.437 958.327 193.845 958.327 194.369C958.327 194.893 957.919 195.301 957.395 195.301ZM960.424 194.951C959.9 194.951 959.492 194.544 959.492 194.019C959.492 193.495 959.9 193.087 960.424 193.087C960.948 193.087 961.356 193.495 961.356 194.019C961.356 194.544 960.948 194.951 960.424 194.951ZM948.132 190.99C939.976 190.99 933.394 189.65 933.394 188.019C933.394 186.388 939.976 185.049 948.132 185.049C956.288 185.049 962.871 186.388 962.871 188.019C962.871 189.65 956.288 190.99 948.132 190.99ZM948.132 201.184C939.103 201.184 931.762 199.728 931.762 197.864V206.311C931.762 208.116 939.103 209.631 948.132 209.631C957.162 209.631 964.502 208.175 964.502 206.311V197.864C964.502 199.67 957.162 201.184 948.132 201.184ZM954.365 206.369C953.841 206.369 953.433 205.961 953.433 205.437C953.433 204.913 953.841 204.505 954.365 204.505C954.89 204.505 955.297 204.913 955.297 205.437C955.297 205.961 954.89 206.369 954.365 206.369ZM957.395 206.019C956.87 206.019 956.462 205.612 956.462 205.087C956.462 204.563 956.87 204.155 957.395 204.155C957.919 204.155 958.327 204.563 958.327 205.087C958.327 205.612 957.919 206.019 957.395 206.019ZM960.424 205.67C959.9 205.67 959.492 205.262 959.492 204.738C959.492 204.214 959.9 203.806 960.424 203.806C960.948 203.806 961.356 204.214 961.356 204.738C961.356 205.262 960.948 205.67 960.424 205.67ZM931.762 208.408C931.762 210.272 939.103 211.728 948.132 211.728C957.162 211.728 964.502 210.214 964.502 208.408V216.68C964.502 218.544 957.162 220 948.132 220C939.103 220 931.762 218.485 931.762 216.68V208.408ZM953.433 215.689C953.433 216.214 953.841 216.621 954.365 216.621C954.89 216.621 955.297 216.214 955.297 215.689C955.297 215.165 954.89 214.757 954.365 214.757C953.841 214.757 953.433 215.165 953.433 215.689ZM956.462 215.34C956.462 215.864 956.87 216.272 957.395 216.272C957.919 216.272 958.327 215.864 958.327 215.34C958.327 214.815 957.919 214.408 957.395 214.408C956.87 214.408 956.462 214.815 956.462 215.34ZM959.492 214.99C959.492 215.515 959.9 215.922 960.424 215.922C960.948 215.922 961.356 215.515 961.356 214.99C961.356 214.466 960.948 214.058 960.424 214.058C959.9 214.058 959.492 214.466 959.492 214.99Z" fill="#C74634"/>
</g>
</g>
</g>
</g>
<g id="OCI Region">
<rect x="0.5" y="0.5" width="236" height="615" rx="3.5" fill="#F5F4F2"/>
<rect x="0.5" y="0.5" width="236" height="615" rx="3.5" stroke="#9E9892"/>
<text id="OCI Region_2" fill="#312D2A" xml:space="preserve" style="white-space: pre" font-family="Oracle Sans" font-size="16" font-weight="bold" letter-spacing="0em"><tspan x="8" y="21.816">Customer data center</tspan></text>
</g>
<g id="OCI Region_3">
<rect x="9.5" y="64.5" width="218" height="534" rx="3.5" fill="#E4E1DD"/>
<rect x="9.5" y="64.5" width="218" height="534" rx="3.5" stroke="#9E9892"/>
<text id="Availability Domain" fill="#312D2A" xml:space="preserve" style="white-space: pre" font-family="Oracle Sans" font-size="16" font-weight="600" letter-spacing="0em"><tspan x="17" y="85.816">On-premises network</tspan></text>
</g>
<g id="OCI Region_4">
<rect x="1029.5" y="0.5" width="244" height="615" rx="3.5" fill="#F5F4F2"/>
<rect x="1029.5" y="0.5" width="244" height="615" rx="3.5" stroke="#9E9892"/>
<text id="OCI Region_5" fill="#312D2A" xml:space="preserve" style="white-space: pre" font-family="Oracle Sans" font-size="16" font-weight="bold" letter-spacing="0em"><tspan x="1037" y="21.816">OCI Region</tspan></text>
</g>
<g id="VCN">
<rect id="Rectangle 28" x="736" y="264.959" width="357" height="294" stroke="#AA643B" stroke-width="2" stroke-dasharray="8 4"/>
<g id="Icon Master">
<g id="Virtual-Cloud-Network-VCN_red">
<g id="Group 39">
<path id="Vector_28" d="M1072.42 287.51C1071.16 287.51 1069.94 287.077 1068.97 286.285C1068 285.493 1067.32 284.39 1067.07 283.16H1060.6C1060.41 284.054 1060 284.887 1059.41 285.583C1058.82 286.279 1058.06 286.816 1057.21 287.144C1056.36 287.472 1055.44 287.582 1054.53 287.463C1053.62 287.343 1052.76 286.999 1052.03 286.462C1051.29 285.924 1050.7 285.21 1050.3 284.385C1049.91 283.56 1049.73 282.65 1049.78 281.738C1049.83 280.825 1050.11 279.94 1050.59 279.163C1051.07 278.386 1051.74 277.741 1052.53 277.288L1050.53 271.141C1050.34 271.155 1050.14 271.155 1049.94 271.141C1049.05 271.143 1048.18 270.929 1047.39 270.517C1046.61 270.105 1045.93 269.508 1045.43 268.777C1044.92 268.046 1044.6 267.203 1044.5 266.321C1044.39 265.439 1044.5 264.545 1044.82 263.715C1045.14 262.886 1045.65 262.146 1046.32 261.56C1046.99 260.973 1047.79 260.558 1048.65 260.35C1049.51 260.142 1050.41 260.148 1051.27 260.366C1052.13 260.584 1052.93 261.008 1053.59 261.602L1058.85 257.873C1058.53 257.167 1058.36 256.403 1058.36 255.629C1058.36 254.178 1058.94 252.786 1059.96 251.76C1060.99 250.734 1062.38 250.158 1063.83 250.158C1065.28 250.158 1066.67 250.734 1067.7 251.76C1068.72 252.786 1069.3 254.178 1069.3 255.629C1069.3 256.402 1069.14 257.167 1068.82 257.873L1074.09 261.639C1075.09 260.726 1076.39 260.218 1077.74 260.216C1079.19 260.216 1080.58 260.793 1081.6 261.819C1082.63 262.845 1083.21 264.237 1083.21 265.688C1083.21 267.139 1082.63 268.531 1081.6 269.557C1080.58 270.583 1079.19 271.159 1077.74 271.159C1077.55 271.159 1077.35 271.159 1077.15 271.159L1075.15 277.306C1076.2 277.905 1077.02 278.835 1077.48 279.951C1077.95 281.066 1078.03 282.304 1077.72 283.471C1077.41 284.639 1076.72 285.67 1075.76 286.404C1074.8 287.138 1073.62 287.533 1072.42 287.528V287.51Z" fill="white"/>
<path id="Vector_29" d="M1063.84 250.577C1064.71 250.579 1065.56 250.806 1066.31 251.236C1067.07 251.665 1067.7 252.283 1068.14 253.029C1068.59 253.775 1068.83 254.623 1068.85 255.491C1068.87 256.359 1068.66 257.217 1068.25 257.982L1074.09 262.231C1074.66 261.632 1075.38 261.184 1076.16 260.928C1076.95 260.671 1077.79 260.614 1078.61 260.761C1079.42 260.908 1080.19 261.254 1080.83 261.77C1081.48 262.285 1081.99 262.954 1082.32 263.715C1082.65 264.476 1082.78 265.307 1082.71 266.132C1082.64 266.958 1082.36 267.753 1081.91 268.446C1081.45 269.139 1080.84 269.709 1080.11 270.104C1079.38 270.5 1078.57 270.709 1077.74 270.712C1077.43 270.717 1077.13 270.692 1076.83 270.639L1074.59 277.524C1075.37 277.901 1076.04 278.475 1076.54 279.188C1077.03 279.902 1077.33 280.731 1077.41 281.595C1077.49 282.459 1077.34 283.329 1076.98 284.119C1076.62 284.908 1076.06 285.591 1075.36 286.101C1074.66 286.611 1073.84 286.929 1072.97 287.026C1072.11 287.123 1071.24 286.994 1070.44 286.653C1069.65 286.312 1068.95 285.769 1068.43 285.079C1067.9 284.388 1067.56 283.573 1067.45 282.713H1060.21C1060.1 283.573 1059.76 284.388 1059.23 285.078C1058.71 285.768 1058.01 286.31 1057.21 286.65C1056.41 286.991 1055.54 287.118 1054.68 287.02C1053.82 286.922 1053 286.603 1052.3 286.092C1051.59 285.581 1051.04 284.897 1050.68 284.106C1050.32 283.316 1050.17 282.446 1050.25 281.582C1050.33 280.718 1050.63 279.889 1051.13 279.176C1051.62 278.463 1052.29 277.891 1053.08 277.515L1050.84 270.639C1050.54 270.695 1050.24 270.723 1049.93 270.721C1049.1 270.72 1048.28 270.512 1047.55 270.117C1046.82 269.722 1046.2 269.152 1045.74 268.457C1045.29 267.763 1045.01 266.966 1044.94 266.138C1044.87 265.31 1045 264.477 1045.33 263.713C1045.65 262.95 1046.17 262.279 1046.82 261.762C1047.47 261.245 1048.24 260.898 1049.05 260.751C1049.87 260.604 1050.71 260.663 1051.5 260.921C1052.29 261.179 1053 261.63 1053.58 262.231L1059.42 257.982C1059.01 257.216 1058.8 256.358 1058.82 255.489C1058.84 254.62 1059.09 253.771 1059.53 253.025C1059.98 252.279 1060.61 251.661 1061.36 251.232C1062.12 250.803 1062.97 250.577 1063.84 250.577ZM1063.84 249.665C1062.27 249.665 1060.76 250.289 1059.65 251.401C1058.53 252.512 1057.91 254.02 1057.91 255.593C1057.91 256.306 1058.04 257.014 1058.29 257.681L1053.63 261.055C1052.89 260.464 1052.02 260.059 1051.09 259.874C1050.16 259.689 1049.2 259.73 1048.29 259.993C1047.38 260.256 1046.54 260.733 1045.85 261.385C1045.17 262.037 1044.64 262.844 1044.33 263.74C1044.02 264.635 1043.93 265.593 1044.06 266.532C1044.19 267.471 1044.55 268.364 1045.1 269.137C1045.65 269.91 1046.37 270.54 1047.22 270.974C1048.06 271.409 1048.99 271.635 1049.94 271.633H1050.21L1052.03 277.105C1051.23 277.633 1050.57 278.347 1050.11 279.185C1049.65 280.023 1049.4 280.961 1049.37 281.918C1049.35 282.875 1049.56 283.823 1049.99 284.68C1050.41 285.538 1051.04 286.28 1051.81 286.843C1052.59 287.406 1053.49 287.772 1054.43 287.912C1055.38 288.052 1056.35 287.96 1057.25 287.645C1058.15 287.329 1058.97 286.8 1059.62 286.102C1060.27 285.403 1060.75 284.557 1061.01 283.634H1066.75C1067 284.56 1067.48 285.41 1068.13 286.112C1068.78 286.814 1069.6 287.346 1070.5 287.664C1071.41 287.981 1072.38 288.075 1073.33 287.936C1074.28 287.797 1075.18 287.429 1075.95 286.865C1076.73 286.301 1077.36 285.558 1077.78 284.697C1078.21 283.837 1078.42 282.887 1078.4 281.927C1078.38 280.968 1078.12 280.028 1077.66 279.188C1077.2 278.348 1076.53 277.633 1075.73 277.105L1077.56 271.633H1077.74C1078.54 271.678 1079.35 271.558 1080.11 271.28C1080.87 271.003 1081.56 270.573 1082.14 270.018C1082.73 269.464 1083.2 268.795 1083.52 268.053C1083.84 267.312 1084 266.513 1084 265.706C1084 264.899 1083.84 264.1 1083.52 263.358C1083.2 262.617 1082.73 261.948 1082.14 261.393C1081.56 260.838 1080.87 260.409 1080.11 260.131C1079.35 259.854 1078.54 259.734 1077.74 259.778C1076.4 259.775 1075.09 260.232 1074.05 261.073L1069.4 257.699C1069.65 257.031 1069.77 256.324 1069.77 255.611C1069.77 254.83 1069.62 254.057 1069.32 253.336C1069.03 252.615 1068.59 251.959 1068.04 251.407C1067.49 250.855 1066.83 250.417 1066.11 250.118C1065.39 249.819 1064.62 249.665 1063.84 249.665V249.665Z" fill="white"/>
<path id="Vector_30" d="M1077.74 260.671C1077.06 260.669 1076.38 260.807 1075.76 261.075C1075.13 261.343 1074.56 261.736 1074.09 262.23L1068.25 257.981C1068.67 257.215 1068.87 256.355 1068.86 255.485C1068.84 254.615 1068.59 253.764 1068.15 253.016C1067.7 252.269 1067.07 251.649 1066.32 251.219C1065.56 250.789 1064.71 250.563 1063.84 250.563C1062.97 250.563 1062.11 250.789 1061.35 251.219C1060.6 251.649 1059.97 252.269 1059.52 253.016C1059.08 253.764 1058.83 254.615 1058.81 255.485C1058.8 256.355 1059.01 257.215 1059.42 257.981L1053.57 262.23C1053 261.633 1052.28 261.188 1051.5 260.933C1050.71 260.678 1049.87 260.622 1049.06 260.77C1048.24 260.918 1047.48 261.265 1046.83 261.781C1046.18 262.296 1045.67 262.964 1045.35 263.725C1045.02 264.485 1044.89 265.315 1044.96 266.14C1045.03 266.964 1045.31 267.759 1045.76 268.451C1046.21 269.144 1046.83 269.714 1047.56 270.11C1048.28 270.505 1049.1 270.715 1049.92 270.72C1050.23 270.722 1050.53 270.694 1050.83 270.638L1053.07 277.505C1052.29 277.881 1051.61 278.453 1051.12 279.166C1050.62 279.878 1050.32 280.707 1050.24 281.572C1050.17 282.436 1050.31 283.306 1050.67 284.096C1051.03 284.887 1051.59 285.571 1052.29 286.082C1052.99 286.592 1053.81 286.912 1054.67 287.01C1055.53 287.108 1056.41 286.981 1057.2 286.64C1058 286.3 1058.7 285.758 1059.22 285.068C1059.75 284.378 1060.09 283.563 1060.2 282.703H1067.44C1067.56 283.563 1067.89 284.378 1068.42 285.068C1068.94 285.759 1069.64 286.301 1070.44 286.643C1071.23 286.984 1072.1 287.113 1072.97 287.016C1073.83 286.919 1074.65 286.601 1075.35 286.091C1076.05 285.581 1076.61 284.898 1076.97 284.108C1077.33 283.319 1077.48 282.449 1077.4 281.585C1077.32 280.721 1077.02 279.891 1076.53 279.178C1076.04 278.464 1075.37 277.891 1074.59 277.514L1076.83 270.638C1077.13 270.694 1077.43 270.722 1077.74 270.72C1078.42 270.762 1079.11 270.662 1079.75 270.429C1080.4 270.196 1080.98 269.833 1081.48 269.363C1081.98 268.893 1082.38 268.326 1082.65 267.697C1082.92 267.068 1083.06 266.39 1083.06 265.705C1083.06 265.019 1082.92 264.341 1082.65 263.712C1082.38 263.083 1081.98 262.516 1081.48 262.046C1080.98 261.577 1080.4 261.214 1079.75 260.98C1079.11 260.747 1078.42 260.648 1077.74 260.689V260.671ZM1072.42 285.712C1071.7 285.712 1070.99 285.498 1070.39 285.098C1069.79 284.697 1069.32 284.127 1069.05 283.461C1068.77 282.794 1068.7 282.061 1068.84 281.353C1068.98 280.645 1069.33 279.996 1069.84 279.485C1070.35 278.975 1071 278.628 1071.7 278.487C1072.41 278.346 1073.15 278.419 1073.81 278.695C1074.48 278.971 1075.05 279.438 1075.45 280.038C1075.85 280.638 1076.06 281.343 1076.06 282.065C1076.06 283.032 1075.68 283.96 1074.99 284.644C1074.31 285.328 1073.38 285.712 1072.42 285.712ZM1060.21 281.362C1060.06 280.23 1059.53 279.184 1058.7 278.399L1061.43 274.578C1062.17 274.967 1062.98 275.17 1063.81 275.171C1064.64 275.173 1065.45 274.97 1066.18 274.578L1068.92 278.399C1068.08 279.183 1067.55 280.229 1067.39 281.362H1060.21ZM1051.56 282.037C1051.56 281.316 1051.78 280.611 1052.18 280.011C1052.58 279.411 1053.15 278.943 1053.81 278.667C1054.48 278.391 1055.21 278.319 1055.92 278.46C1056.63 278.6 1057.28 278.948 1057.79 279.458C1058.3 279.968 1058.64 280.618 1058.78 281.326C1058.93 282.033 1058.85 282.767 1058.58 283.433C1058.3 284.1 1057.83 284.669 1057.23 285.07C1056.64 285.471 1055.93 285.685 1055.21 285.685C1054.24 285.685 1053.32 285.301 1052.63 284.617C1051.95 283.933 1051.56 283.005 1051.56 282.037ZM1049.94 262.021C1050.66 262.021 1051.37 262.234 1051.97 262.635C1052.57 263.036 1053.03 263.606 1053.31 264.272C1053.59 264.939 1053.66 265.672 1053.52 266.38C1053.38 267.087 1053.03 267.737 1052.52 268.248C1052.01 268.758 1051.36 269.105 1050.65 269.246C1049.95 269.387 1049.21 269.314 1048.55 269.038C1047.88 268.762 1047.31 268.295 1046.91 267.695C1046.51 267.095 1046.3 266.39 1046.3 265.668C1046.3 264.701 1046.68 263.773 1047.36 263.089C1048.05 262.405 1048.97 262.021 1049.94 262.021ZM1060.16 255.637C1060.16 254.916 1060.37 254.21 1060.77 253.611C1061.17 253.011 1061.74 252.543 1062.41 252.267C1063.07 251.991 1063.81 251.919 1064.51 252.059C1065.22 252.2 1065.87 252.548 1066.38 253.058C1066.89 253.568 1067.24 254.218 1067.38 254.925C1067.52 255.633 1067.45 256.366 1067.17 257.033C1066.9 257.7 1066.43 258.269 1065.83 258.67C1065.23 259.071 1064.52 259.285 1063.8 259.285C1063.32 259.285 1062.84 259.189 1062.4 259.003C1061.95 258.817 1061.55 258.544 1061.21 258.2C1060.87 257.857 1060.6 257.449 1060.42 257.001C1060.24 256.554 1060.15 256.074 1060.16 255.591V255.637ZM1072.79 266.58L1068.37 267.994C1068.01 267.239 1067.47 266.586 1066.79 266.093C1066.12 265.599 1065.33 265.281 1064.51 265.167V260.607C1065.63 260.457 1066.68 259.922 1067.46 259.093L1073.32 263.343C1072.92 264.073 1072.71 264.892 1072.72 265.723C1072.72 266.007 1072.74 266.291 1072.79 266.571V266.58ZM1067.51 270.164C1067.51 270.885 1067.3 271.591 1066.9 272.191C1066.5 272.79 1065.93 273.258 1065.26 273.534C1064.6 273.81 1063.86 273.882 1063.16 273.742C1062.45 273.601 1061.8 273.254 1061.29 272.743C1060.78 272.233 1060.43 271.583 1060.29 270.876C1060.15 270.168 1060.22 269.435 1060.5 268.768C1060.78 268.102 1061.24 267.532 1061.84 267.131C1062.44 266.73 1063.15 266.516 1063.87 266.516C1064.83 266.516 1065.76 266.899 1066.44 267.582C1067.13 268.264 1067.51 269.189 1067.51 270.155V270.164ZM1063.16 260.607V265.167C1062.33 265.279 1061.55 265.596 1060.87 266.088C1060.2 266.58 1059.66 267.232 1059.3 267.985L1054.87 266.571C1054.93 266.27 1054.96 265.965 1054.95 265.659C1054.95 264.85 1054.74 264.056 1054.36 263.343L1060.21 259.084C1060.99 259.915 1062.03 260.452 1063.16 260.607ZM1054.46 267.902L1058.89 269.316C1058.83 269.617 1058.81 269.922 1058.81 270.228C1058.81 270.911 1058.94 271.588 1059.21 272.215C1059.48 272.843 1059.88 273.408 1060.38 273.876L1057.64 277.706C1056.92 277.31 1056.1 277.103 1055.27 277.104C1054.97 277.102 1054.66 277.129 1054.36 277.186L1052.12 270.219C1053.14 269.734 1053.97 268.918 1054.47 267.902H1054.46ZM1072.42 277.022C1071.59 277.023 1070.78 277.227 1070.05 277.614L1067.31 273.803C1067.81 273.334 1068.2 272.768 1068.47 272.141C1068.74 271.514 1068.88 270.838 1068.88 270.155C1068.88 269.849 1068.85 269.544 1068.8 269.243L1073.18 267.848C1073.68 268.879 1074.51 269.714 1075.53 270.219L1073.3 277.095C1073.01 277.044 1072.71 277.019 1072.42 277.022ZM1074.09 265.696C1074.09 264.974 1074.31 264.269 1074.71 263.669C1075.11 263.069 1075.68 262.602 1076.34 262.326C1077.01 262.049 1077.74 261.977 1078.45 262.118C1079.16 262.259 1079.81 262.606 1080.32 263.116C1080.83 263.626 1081.17 264.276 1081.31 264.984C1081.45 265.692 1081.38 266.425 1081.11 267.092C1080.83 267.758 1080.36 268.328 1079.76 268.729C1079.16 269.129 1078.46 269.343 1077.74 269.343C1076.77 269.343 1075.84 268.959 1075.16 268.275C1074.48 267.591 1074.09 266.663 1074.09 265.696Z" fill="#AA643B"/>
</g>
</g>
</g>
<text id="VCN_2" fill="#AE562C" xml:space="preserve" style="white-space: pre" font-family="Oracle Sans" font-size="16" font-weight="600" letter-spacing="0em"><tspan x="744" y="286.816">VCN</tspan></text>
</g>
<g id="Subnet">
<rect x="745.5" y="312.5" width="338" height="130" stroke="#AA643B" stroke-dasharray="8 4"/>
<text id="Subnet_2" fill="#AE562C" xml:space="preserve" style="white-space: pre" font-family="Oracle Sans" font-size="16" font-weight="600" letter-spacing="0em"><tspan x="753" y="333.816">Client</tspan></text>
<text id="Subnet_3" fill="#AE562C" xml:space="preserve" style="white-space: pre" font-family="Oracle Sans" font-size="16" font-weight="600" letter-spacing="0em"><tspan x="753" y="349.816">Subnet</tspan></text>
<g id="Icon Master_2">
<g id="OCI-SL_RT">
<g id="Group_7">
<g id="Group_8">
<path id="Vector_31" d="M1035.48 331.519V305.077H1052.24V297.289L1063.48 292.481L1074.62 297.289V307.481C1074.62 307.577 1074.62 310.077 1073.19 313.058C1071.95 315.75 1069.38 319.404 1063.86 321.423V331.423H1035.48V331.519Z" fill="white"/>
<path id="Vector_32" d="M1063.38 293.058L1074.05 297.577V307.481C1074.05 307.577 1074.05 309.981 1072.71 312.865C1071.48 315.558 1069 319.115 1063.67 321.038L1063.48 321.135H1063.38V331.038H1035.95V305.558H1052.71V297.577L1063.38 293.058ZM1063.38 292L1063 292.192L1052.33 296.712L1051.76 297V297.673V304.692H1035.95H1035V305.654V331.038V332H1035.95H1063.38H1064.33V331.038V321.808C1069.67 319.692 1072.33 316.038 1073.57 313.25C1075 310.173 1075 307.577 1075 307.481V297.577V297L1074.43 296.712L1063.76 292.192L1063.38 292Z" fill="white"/>
</g>
<g id="Group_9">
<path id="Vector_33" d="M1062.05 321.712H1044.52V314.981H1054.05C1053.76 314.5 1053.57 314.115 1053.38 313.731H1044.52V307H1051.67V305.75H1035.95V331.135H1063.38V322.288L1062.9 322.096C1062.62 321.904 1062.33 321.808 1062.05 321.712ZM1037.19 306.904H1043.29V313.635H1037.19V306.904ZM1043.29 314.885V321.615H1037.19V314.885H1043.29ZM1037.19 322.962H1043.29V329.692H1037.19V322.962ZM1062.05 329.692H1044.52V322.962H1062.05V329.692Z" fill="#AA643B"/>
<path id="Vector_34" d="M1060.62 327.192H1059.38V328.442H1060.62V327.192Z" fill="#AA643B"/>
<path id="Vector_35" d="M1055.38 328.442L1056.52 327.288L1057.67 328.442L1058.52 327.481L1057.38 326.327L1058.52 325.173L1057.67 324.308L1056.52 325.461L1055.38 324.308L1054.43 325.173L1055.57 326.327L1054.43 327.481L1055.38 328.442Z" fill="#AA643B"/>
<path id="Vector_36" d="M1052.62 327.192H1051.38V328.442H1052.62V327.192Z" fill="#AA643B"/>
<path id="Vector_37" d="M1046.52 327.481L1047.38 328.442L1048.52 327.288L1049.67 328.442L1050.62 327.481L1049.48 326.327L1050.62 325.173L1049.67 324.308L1048.52 325.461L1047.38 324.308L1046.52 325.173L1047.67 326.327L1046.52 327.481Z" fill="#AA643B"/>
<path id="Vector_38" d="M1052.62 319.116H1051.38V320.366H1052.62V319.116Z" fill="#AA643B"/>
<path id="Vector_39" d="M1046.52 319.404L1047.38 320.366L1048.52 319.212L1049.67 320.366L1050.62 319.404L1049.48 318.25L1050.62 317.096L1049.67 316.231L1048.52 317.385L1047.38 316.231L1046.52 317.096L1047.67 318.25L1046.52 319.404Z" fill="#AA643B"/>
<path id="Vector_40" d="M1051.1 312.385H1052.33V311.135C1052.33 311.135 1052.33 311.135 1052.33 311.039H1051.1V312.385Z" fill="#AA643B"/>
<path id="Vector_41" d="M1046.14 311.423L1047.1 312.288L1048.24 311.135L1049.38 312.288L1050.24 311.423L1049.1 310.269L1050.24 309.115L1049.38 308.154L1048.24 309.308L1047.1 308.154L1046.14 309.115L1047.29 310.269L1046.14 311.423Z" fill="#AA643B"/>
<path id="Vector_42" d="M1052.71 297.577V307.481C1052.71 307.577 1052.81 309.981 1054.05 312.865C1055.29 315.558 1057.86 319.115 1063.19 321.038L1063.38 321.135L1063.57 321.038C1068.9 319.115 1071.48 315.558 1072.62 312.865C1073.95 309.981 1073.95 307.577 1073.95 307.481V297.577L1063.38 293.058L1052.71 297.577ZM1072.81 307.481C1072.81 307.577 1072.62 316.231 1063.48 319.692C1059.67 318.25 1056.9 315.75 1055.29 312.385C1054.05 309.788 1054.05 307.481 1054.05 307.481V298.442L1063.48 294.404L1072.81 298.442V307.481Z" fill="#AA643B"/>
<path id="Vector_43" d="M1062.24 308.827H1057.29V310.077H1062.24V308.827Z" fill="#AA643B"/>
<path id="Vector_44" d="M1062.24 302.385H1057.29V303.635H1062.24V302.385Z" fill="#AA643B"/>
<path id="Vector_45" d="M1068.9 300.942L1066.14 303.635L1065.19 302.673L1064.24 303.539L1066.14 305.462L1069.76 301.808L1068.9 300.942Z" fill="#AA643B"/>
<path id="Vector_46" d="M1057.29 306.904H1062.05H1062.24V305.558H1057.29V306.904Z" fill="#AA643B"/>
</g>
</g>
</g>
</g>
</g>
<g id="Subnet_4">
<rect x="745.5" y="465.5" width="338" height="84" stroke="#AA643B" stroke-dasharray="8 4"/>
<text id="Subnet_5" fill="#AE562C" xml:space="preserve" style="white-space: pre" font-family="Oracle Sans" font-size="16" font-weight="600" letter-spacing="0em"><tspan x="753" y="486.816">Backup</tspan></text>
<text id="Subnet_6" fill="#AE562C" xml:space="preserve" style="white-space: pre" font-family="Oracle Sans" font-size="16" font-weight="600" letter-spacing="0em"><tspan x="753" y="502.816">Subnet</tspan></text>
<g id="Icon Master_3">
<g id="OCI-SL_RT_2">
<g id="Group_10">
<g id="Group_11">
<path id="Vector_47" d="M1035.48 484.519V458.077H1052.24V450.289L1063.48 445.481L1074.62 450.289V460.481C1074.62 460.577 1074.62 463.077 1073.19 466.058C1071.95 468.75 1069.38 472.404 1063.86 474.423V484.423H1035.48V484.519Z" fill="white"/>
<path id="Vector_48" d="M1063.38 446.058L1074.05 450.577V460.481C1074.05 460.577 1074.05 462.981 1072.71 465.865C1071.48 468.558 1069 472.115 1063.67 474.038L1063.48 474.135H1063.38V484.038H1035.95V458.558H1052.71V450.577L1063.38 446.058ZM1063.38 445L1063 445.192L1052.33 449.712L1051.76 450V450.673V457.692H1035.95H1035V458.654V484.038V485H1035.95H1063.38H1064.33V484.038V474.808C1069.67 472.692 1072.33 469.038 1073.57 466.25C1075 463.173 1075 460.577 1075 460.481V450.577V450L1074.43 449.712L1063.76 445.192L1063.38 445Z" fill="white"/>
</g>
<g id="Group_12">
<path id="Vector_49" d="M1062.05 474.712H1044.52V467.981H1054.05C1053.76 467.5 1053.57 467.115 1053.38 466.731H1044.52V460H1051.67V458.75H1035.95V484.135H1063.38V475.288L1062.9 475.096C1062.62 474.904 1062.33 474.808 1062.05 474.712ZM1037.19 459.904H1043.29V466.635H1037.19V459.904ZM1043.29 467.885V474.615H1037.19V467.885H1043.29ZM1037.19 475.962H1043.29V482.692H1037.19V475.962ZM1062.05 482.692H1044.52V475.962H1062.05V482.692Z" fill="#AA643B"/>
<path id="Vector_50" d="M1060.62 480.192H1059.38V481.442H1060.62V480.192Z" fill="#AA643B"/>
<path id="Vector_51" d="M1055.38 481.442L1056.52 480.288L1057.67 481.442L1058.52 480.481L1057.38 479.327L1058.52 478.173L1057.67 477.308L1056.52 478.461L1055.38 477.308L1054.43 478.173L1055.57 479.327L1054.43 480.481L1055.38 481.442Z" fill="#AA643B"/>
<path id="Vector_52" d="M1052.62 480.192H1051.38V481.442H1052.62V480.192Z" fill="#AA643B"/>
<path id="Vector_53" d="M1046.52 480.481L1047.38 481.442L1048.52 480.288L1049.67 481.442L1050.62 480.481L1049.48 479.327L1050.62 478.173L1049.67 477.308L1048.52 478.461L1047.38 477.308L1046.52 478.173L1047.67 479.327L1046.52 480.481Z" fill="#AA643B"/>
<path id="Vector_54" d="M1052.62 472.116H1051.38V473.366H1052.62V472.116Z" fill="#AA643B"/>
<path id="Vector_55" d="M1046.52 472.404L1047.38 473.366L1048.52 472.212L1049.67 473.366L1050.62 472.404L1049.48 471.25L1050.62 470.096L1049.67 469.231L1048.52 470.385L1047.38 469.231L1046.52 470.096L1047.67 471.25L1046.52 472.404Z" fill="#AA643B"/>
<path id="Vector_56" d="M1051.1 465.385H1052.33V464.135C1052.33 464.135 1052.33 464.135 1052.33 464.039H1051.1V465.385Z" fill="#AA643B"/>
<path id="Vector_57" d="M1046.14 464.423L1047.1 465.288L1048.24 464.135L1049.38 465.288L1050.24 464.423L1049.1 463.269L1050.24 462.115L1049.38 461.154L1048.24 462.308L1047.1 461.154L1046.14 462.115L1047.29 463.269L1046.14 464.423Z" fill="#AA643B"/>
<path id="Vector_58" d="M1052.71 450.577V460.481C1052.71 460.577 1052.81 462.981 1054.05 465.865C1055.29 468.558 1057.86 472.115 1063.19 474.038L1063.38 474.135L1063.57 474.038C1068.9 472.115 1071.48 468.558 1072.62 465.865C1073.95 462.981 1073.95 460.577 1073.95 460.481V450.577L1063.38 446.058L1052.71 450.577ZM1072.81 460.481C1072.81 460.577 1072.62 469.231 1063.48 472.692C1059.67 471.25 1056.9 468.75 1055.29 465.385C1054.05 462.788 1054.05 460.481 1054.05 460.481V451.442L1063.48 447.404L1072.81 451.442V460.481Z" fill="#AA643B"/>
<path id="Vector_59" d="M1062.24 461.827H1057.29V463.077H1062.24V461.827Z" fill="#AA643B"/>
<path id="Vector_60" d="M1062.24 455.385H1057.29V456.635H1062.24V455.385Z" fill="#AA643B"/>
<path id="Vector_61" d="M1068.9 453.942L1066.14 456.635L1065.19 455.673L1064.24 456.539L1066.14 458.462L1069.76 454.808L1068.9 453.942Z" fill="#AA643B"/>
<path id="Vector_62" d="M1057.29 459.904H1062.05H1062.24V458.558H1057.29V459.904Z" fill="#AA643B"/>
</g>
</g>
</g>
</g>
</g>
<g id="Subnet_7">
<rect x="18.5" y="285.5" width="155" height="260" stroke="#AA643B" stroke-dasharray="8 4"/>
<text id="Subnet_8" fill="#AE562C" xml:space="preserve" style="white-space: pre" font-family="Oracle Sans" font-size="16" font-weight="600" letter-spacing="0em"><tspan x="33.7109" y="306.816">Database subnet</tspan></text>
</g>
<g id="Subnet_9">
<rect x="18.5" y="140.5" width="155" height="136" stroke="#AA643B" stroke-dasharray="8 4"/>
<text id="Subnet_10" fill="#AE562C" xml:space="preserve" style="white-space: pre" font-family="Oracle Sans" font-size="16" font-weight="600" letter-spacing="0em"><tspan x="36.5781" y="161.816">Gateway subnet</tspan></text>
</g>
<g id="Icon Master_4">
<g id="Other Cloud Services">
<g id="Group 34">
<g id="Group_13">
<path id="Vector_63" d="M1159.71 380.287L1159.86 378.151C1160.28 373.308 1162.99 368.893 1167.41 366.614C1168.41 366.187 1168.98 365.19 1169.26 364.193C1169.97 360.775 1172.25 357.784 1175.53 356.36C1176.96 355.79 1178.38 355.505 1179.95 355.505C1180.24 355.505 1180.66 355.505 1180.95 355.505C1181.09 355.505 1181.23 355.505 1181.23 355.505C1182.23 355.505 1183.09 355.078 1183.66 354.508C1186.22 351.802 1189.64 350.235 1193.35 350.235C1198.33 350.235 1202.9 353.084 1205.18 357.641C1205.6 358.638 1206.46 359.208 1207.6 359.493C1209.17 359.778 1210.59 360.49 1211.87 361.202C1217.86 365.047 1220 372.881 1216.58 379.147L1216.01 380.144L1159.71 380.287Z" fill="white"/>
<path id="Vector_64" d="M1193.35 351.09C1198.19 351.09 1202.47 353.796 1204.61 358.069C1205.18 359.208 1206.17 360.062 1207.46 360.347C1208.88 360.632 1210.31 361.202 1211.59 362.056C1217.29 365.617 1219.29 373.166 1216.01 379.005L1215.72 379.575H1193.63H1189.93H1168.55H1168.26H1160.57L1160.71 378.293C1161 373.593 1163.7 369.605 1167.84 367.326C1168.98 366.756 1169.69 365.617 1169.97 364.478C1170.54 361.202 1172.82 358.496 1175.82 357.214C1177.1 356.644 1178.52 356.359 1179.95 356.359C1180.24 356.359 1180.52 356.359 1180.95 356.359C1181.09 356.359 1181.23 356.359 1181.38 356.359C1182.52 356.359 1183.51 355.932 1184.23 355.078C1186.51 352.514 1189.93 351.09 1193.35 351.09ZM1193.35 349.666C1189.5 349.666 1185.79 351.232 1183.09 354.081C1182.66 354.65 1181.95 354.935 1181.23 354.935C1181.09 354.935 1181.09 354.935 1180.95 354.935C1180.52 354.935 1180.24 354.935 1179.81 354.935C1178.24 354.935 1176.67 355.22 1175.1 355.932C1171.83 357.356 1169.26 360.49 1168.55 364.193C1168.41 365.047 1167.84 365.617 1167.12 366.044C1162.56 368.466 1159.57 373.023 1159.14 378.15L1159 379.432V380.999H1160.57H1168.26H1168.55H1189.93H1193.63H1215.72H1216.58L1217 380.287L1217.29 379.575C1220.85 373.023 1218.71 364.762 1212.3 360.775C1210.88 359.92 1209.45 359.208 1207.74 358.923C1206.89 358.781 1206.17 358.211 1205.89 357.499C1203.47 352.656 1198.62 349.666 1193.35 349.666Z" fill="white"/>
</g>
<g id="Group_14">
<path id="Vector_65" d="M1216.01 378.864L1215.72 379.576H1190.07C1185.51 379.576 1181.95 375.873 1181.95 371.316H1184.37C1184.37 374.591 1186.93 377.155 1190.07 377.155H1214.3C1216.29 372.455 1214.58 366.758 1210.31 364.052C1209.31 363.34 1208.17 362.913 1207.03 362.628C1205.03 362.2 1203.32 360.919 1202.47 359.067C1200.76 355.649 1197.34 353.513 1193.49 353.513C1190.64 353.513 1187.93 354.652 1186.08 356.788C1184.65 358.213 1182.8 358.925 1180.66 358.782C1179.38 358.64 1178.1 358.925 1176.81 359.352C1174.53 360.349 1172.82 362.485 1172.4 364.906C1171.97 366.9 1170.83 368.467 1168.98 369.464C1165.98 371.031 1163.85 373.879 1163.28 377.155H1168.26H1168.55H1181.8C1182.52 378.152 1183.23 378.864 1184.23 379.576H1168.55H1168.26H1160.57L1160.71 378.294C1160.99 373.594 1163.7 369.606 1167.84 367.328C1168.98 366.758 1169.69 365.619 1169.97 364.479C1170.54 361.203 1172.82 358.497 1175.82 357.216C1177.38 356.503 1179.09 356.219 1180.8 356.361C1182.09 356.503 1183.23 356.076 1184.08 355.079C1186.51 352.516 1189.93 351.091 1193.35 351.091C1198.19 351.091 1202.47 353.797 1204.61 358.07C1205.18 359.209 1206.17 360.064 1207.46 360.349C1208.88 360.634 1210.31 361.203 1211.59 362.058C1217.29 365.476 1219.14 373.025 1216.01 378.864Z" fill="#2D5967"/>
</g>
</g>
</g>
<g id="Icon Text Label">
<text id="IconLabel" fill="black" xml:space="preserve" style="white-space: pre" font-family="Oracle Sans" font-size="16" letter-spacing="0em"><tspan x="1162.54" y="398.816">Control</tspan></text>
<text id="IconLabel_2" fill="black" xml:space="preserve" style="white-space: pre" font-family="Oracle Sans" font-size="16" letter-spacing="0em"><tspan x="1169.14" y="414.816">plane</tspan></text>
</g>
</g>
<g id="Icon Master_5">
<g id="google-compute-engine">
<g id="Product Icons">
<path id="Vector_66" d="M105 462H87.0001V480H105V462Z" fill="#AECBFA"/>
<path id="Vector_67" d="M99.0001 441H93.0001V453H99.0001V441Z" fill="#669DF6"/>
<path id="Vector_68" d="M87 441H81V453H87V441Z" fill="#669DF6"/>
<path id="Vector_69" d="M111 441H105V453H111V441Z" fill="#669DF6"/>
<path id="Vector_70" d="M99.0001 489H93.0001V501H99.0001V489Z" fill="#4285F4"/>
<path id="Vector_71" d="M87 489H81V501H87V489Z" fill="#4285F4"/>
<path id="Vector_72" d="M111 489H105V501H111V489Z" fill="#4285F4"/>
<path id="Vector_73" d="M114 468V474H126V468H114Z" fill="#4285F4"/>
<path id="Vector_74" d="M114 480V486H126V480H114Z" fill="#4285F4"/>
<path id="Vector_75" d="M114 456V462H126V456H114Z" fill="#4285F4"/>
<path id="Vector_76" d="M66.0001 468V474H78.0001V468H66.0001Z" fill="#669DF6"/>
<path id="Vector_77" d="M66.0001 480V486H78.0001V480H66.0001Z" fill="#669DF6"/>
<path id="Vector_78" d="M66.0001 456V462H78.0001V456H66.0001Z" fill="#669DF6"/>
<path id="Vector_79" d="M75.0001 450V492H117V450H75.0001ZM111 486H81.0001V456H111V486Z" fill="#AECBFA"/>
<path id="Vector_80" d="M87.0001 480H105L96.0001 471L87.0001 480Z" fill="#669DF6"/>
<path id="Vector_81" d="M96.0001 471L105 480V462L96.0001 471Z" fill="#4285F4"/>
</g>
</g>
<g id="Icon Text Label_2">
<text id="IconLabel_3" fill="black" xml:space="preserve" style="white-space: pre" font-family="Oracle Sans" font-size="16" letter-spacing="0em"><tspan x="50.125" y="518.816">ZDM Service</tspan></text>
<text id="IconLabel_4" fill="black" xml:space="preserve" style="white-space: pre" font-family="Oracle Sans" font-size="16" letter-spacing="0em"><tspan x="78.9922" y="534.816">Host</tspan></text>
</g>
</g>
<g id="Group 1511">
<rect id="Rectangle 700" x="399" y="181" width="4" height="93" fill="#E3F2FD"/>
<g id="Icon Master_6">
<g id="google-cloud-router">
<g id="Product Icons_2">
<g id="Group_15">
<g id="Group_16">
<g id="24 router">
<path id="Vector_82" d="M414 206V212L404 202L414 192V198H420V206H414ZM386 198H380V206H386V212L396 202L386 192V198ZM404 212V206H396V212H390L400 222L410 212H404ZM404 192V198H396V192H390L400 182L410 192H404Z" fill="#4285F4"/>
</g>
</g>
</g>
</g>
</g>
<g id="Icon Text Label_3">
<text id="IconLabel_5" fill="black" xml:space="preserve" style="white-space: pre" font-family="Oracle Sans" font-size="16" letter-spacing="0em"><tspan x="374.328" y="239.816">Google</tspan></text>
<text id="IconLabel_6" fill="black" xml:space="preserve" style="white-space: pre" font-family="Oracle Sans" font-size="16" letter-spacing="0em"><tspan x="380.172" y="255.816">cloud</tspan></text>
<text id="IconLabel_7" fill="black" xml:space="preserve" style="white-space: pre" font-family="Oracle Sans" font-size="16" letter-spacing="0em"><tspan x="377.977" y="271.816">router</tspan></text>
</g>
</g>
</g>
<g id="Icon Master_7">
<rect id="Rectangle 690" x="170" y="183" width="4" height="75" fill="#E4E1DD"/>
<g id="Icon Master_8">
<g id="google-cloud-router_2">
<g id="Product Icons_3">
<g id="Group_17">
<g id="Group_18">
<g id="24 router_2">
<path id="Vector_83" d="M186 206V212L176 202L186 192V198H192V206H186ZM158 198H152V206H158V212L168 202L158 192V198ZM176 212V206H168V212H162L172 222L182 212H176ZM176 192V198H168V192H162L172 182L182 192H176Z" fill="#4285F4"/>
</g>
</g>
</g>
</g>
</g>
<g id="Icon Text Label_4">
<text id="IconLabel_8" fill="black" xml:space="preserve" style="white-space: pre" font-family="Oracle Sans" font-size="16" letter-spacing="0em"><tspan x="125.109" y="239.816">On-premises</tspan></text>
<text id="IconLabel_9" fill="black" xml:space="preserve" style="white-space: pre" font-family="Oracle Sans" font-size="16" letter-spacing="0em"><tspan x="149.977" y="255.816">router</tspan></text>
</g>
</g>
</g>
<g id="Oracle Database">
<g id="Database">
<g id="Group 15">
<path id="Vector_84" d="M96.1891 380.286C93.5176 380.286 70.0462 380.071 70.0462 372.429V329.8C70.0462 321.943 93.5176 321.714 96.1891 321.714C98.8605 321.714 122.346 321.943 122.346 329.8V372.429C122.346 380.071 98.8748 380.286 96.1891 380.286Z" fill="white"/>
<path id="Vector_85" d="M96.1905 322.429C105.048 322.429 121.633 323.971 121.633 329.8V372.429C121.633 378.143 104.99 379.571 96.1905 379.571C87.3905 379.571 70.7619 378.143 70.7619 372.429V329.8C70.7619 323.971 87.4047 322.429 96.1905 322.429ZM96.1905 321C91.7047 321 69.3333 321.429 69.3333 329.8V372.429C69.3333 380.614 91.7047 381 96.1905 381C100.676 381 123.062 380.586 123.062 372.429V329.8C123.062 321.429 100.762 321 96.1905 321Z" fill="white"/>
<path id="Vector_86" d="M121.634 329.801C121.634 323.972 105.048 322.429 96.1909 322.429C87.3338 322.429 70.7623 323.972 70.7623 329.801V372.429C70.7623 378.143 87.4052 379.572 96.1909 379.572C104.977 379.572 121.634 378.143 121.634 372.429V329.801ZM118.777 358.372C118.777 358.629 117.705 359.915 112.805 361.101C107.345 362.264 101.772 362.81 96.1909 362.729C90.5891 362.805 84.9967 362.249 79.5195 361.072C74.6195 359.886 73.6195 358.601 73.6195 358.343V347.858C78.7338 350.643 89.6909 351.486 96.2623 351.486C102.834 351.486 113.805 350.643 118.919 347.858L118.777 358.372ZM118.777 344.343C118.777 344.601 117.705 345.901 112.805 347.072C107.345 348.235 101.772 348.781 96.1909 348.701C90.5891 348.776 84.9967 348.221 79.5195 347.043C74.6195 345.872 73.6195 344.572 73.6195 344.315V333.429C78.7338 336.286 89.6909 337.158 96.2623 337.158C102.834 337.158 113.805 336.301 118.919 333.429L118.777 344.343ZM79.5338 326.929C85.0041 325.74 90.5937 325.189 96.1909 325.286C101.796 325.212 107.39 325.787 112.862 327.001C117.905 328.143 118.848 329.572 118.848 329.801C118.848 330.029 117.834 331.429 112.862 332.658C107.39 333.871 101.796 334.446 96.1909 334.372C90.5915 334.45 85.0019 333.88 79.5338 332.672C74.5623 331.429 73.6195 330.086 73.6195 329.801C73.6195 329.515 74.6338 328.158 79.6052 326.943L79.5338 326.929ZM112.877 375.129C107.395 376.307 101.797 376.863 96.1909 376.786C90.5891 376.862 84.9967 376.306 79.5195 375.129C74.6195 373.958 73.6195 372.658 73.6195 372.429V361.886C78.7338 364.672 89.6909 365.515 96.2623 365.515C102.834 365.515 113.805 364.672 118.919 361.886V372.429C118.919 372.686 117.848 373.986 112.948 375.158" fill="#2D5967"/>
</g>
</g>
<g id="Icon Text Label_5">
<text id="IconLabel_10" fill="black" xml:space="preserve" style="white-space: pre" font-family="Oracle Sans" font-size="16" letter-spacing="0em"><tspan x="72.9375" y="398.816">Oracle</tspan></text>
<text id="IconLabel_11" fill="black" xml:space="preserve" style="white-space: pre" font-family="Oracle Sans" font-size="16" letter-spacing="0em"><tspan x="30.3047" y="414.816">Database (Source)</tspan></text>
</g>
</g>
<g id="Exadata Cloud">
<g id="Technology - Exadata-Cloud-Service">
<g id="Group 826">
<g id="Union_2">
<path fill-rule="evenodd" clip-rule="evenodd" d="M916.978 480.457V425.501H893.015V480.457H916.978ZM894.692 478.78H915.301V427.178H894.692V478.78Z" fill="white"/>
<path fill-rule="evenodd" clip-rule="evenodd" d="M895.733 411.935L895.857 410.263C895.279 410.22 894.7 410.218 894.123 410.258H892.78L891.976 410.43H891.532L891.287 410.508C890.847 410.646 890.415 410.807 889.993 410.991L890.661 412.529L889.979 410.997C889.102 411.387 888.272 411.877 887.506 412.456L887.498 412.462C887.116 412.754 886.753 413.072 886.412 413.413L886.407 413.418C884.628 415.214 883.463 417.527 883.078 420.025C883.012 420.318 882.886 420.593 882.707 420.835C882.525 421.08 882.294 421.284 882.028 421.433C880.304 422.313 878.765 423.515 877.492 424.974L877.478 424.991C875.815 426.949 874.67 429.293 874.148 431.809L874.146 431.817C874.016 432.46 873.929 433.112 873.887 433.767L873.657 437.333H888.238V485.238H921.755V437.333H931.093L932.002 435.631L932.005 435.627C933.776 432.354 934.241 428.531 933.308 424.929C932.373 421.325 930.108 418.209 926.969 416.211L926.959 416.205C925.531 415.31 923.961 414.666 922.316 414.302L922.294 414.298C921.989 414.234 921.7 414.105 921.45 413.919C921.205 413.738 921.002 413.507 920.853 413.241C920.541 412.623 920.193 412.023 919.809 411.446L919.799 411.431L919.789 411.417C919.036 410.337 918.143 409.363 917.133 408.52L917.125 408.514C914.499 406.349 911.189 405.188 907.786 405.239C904.384 405.291 901.11 406.552 898.551 408.796L898.546 408.8C898.201 409.105 897.84 409.444 897.509 409.796C897.421 409.885 897.328 409.969 897.23 410.048L897.04 410.143H896.942L896.483 410.258H896.308L896.233 410.265C896.117 410.275 895.999 410.275 895.883 410.265L895.733 411.935ZM875.56 433.875C875.597 433.295 875.674 432.719 875.789 432.15C876.255 429.909 877.275 427.82 878.756 426.076C879.894 424.771 881.271 423.698 882.814 422.914C883.301 422.648 883.724 422.278 884.055 421.832C884.385 421.385 884.615 420.872 884.728 420.327C885.052 418.161 886.058 416.154 887.598 414.598C887.887 414.31 888.193 414.041 888.517 413.793C889.181 413.291 889.9 412.867 890.661 412.529C891.029 412.368 891.406 412.228 891.79 412.107H892.154L892.957 411.935H894.182C894.698 411.896 895.217 411.896 895.733 411.935C895.949 411.954 896.167 411.954 896.383 411.935H896.69L897.149 411.82H897.436C897.6 411.766 897.755 411.689 897.895 411.59L898.125 411.475C898.336 411.318 898.535 411.145 898.718 410.957C899.005 410.651 899.331 410.344 899.656 410.057C901.917 408.075 904.807 406.962 907.812 406.916C910.816 406.87 913.739 407.895 916.059 409.808C916.954 410.555 917.746 411.418 918.413 412.375C918.765 412.905 919.085 413.455 919.37 414.023C919.636 414.511 920.005 414.935 920.451 415.266C920.897 415.597 921.41 415.827 921.954 415.939C923.411 416.262 924.803 416.832 926.069 417.626C928.85 419.396 930.857 422.156 931.685 425.35C932.512 428.543 932.099 431.932 930.528 434.833L930.088 435.657H922.432V432.533H928.174C929.084 430.375 929.199 427.963 928.498 425.727C927.796 423.492 926.325 421.578 924.346 420.327C923.387 419.681 922.316 419.22 921.188 418.967C920.183 418.746 919.24 418.303 918.429 417.669C917.617 417.036 916.958 416.229 916.499 415.307C915.706 413.723 914.491 412.391 912.987 411.457C911.484 410.524 909.751 410.026 907.982 410.018C906.668 410.018 905.368 410.288 904.163 410.812C902.957 411.336 901.873 412.103 900.977 413.065C900.279 413.818 899.417 414.399 898.457 414.762C897.497 415.124 896.466 415.258 895.446 415.154C894.236 415.036 893.016 415.234 891.905 415.729C890.853 416.2 889.93 416.918 889.213 417.822C888.497 418.725 888.009 419.789 887.79 420.921C887.585 421.926 887.157 422.871 886.538 423.687C885.918 424.503 885.123 425.169 884.211 425.635C882.89 426.324 881.732 427.29 880.817 428.468C880.265 429.178 879.809 429.956 879.459 430.78C879.229 431.321 879.045 431.882 878.909 432.457H887.598V435.657H875.445L875.56 433.875ZM893.025 422.397L889.915 424.624V483.561H920.078V422.397H893.025Z" fill="white"/>
</g>
<path id="Vector_87" d="M878.909 432.457C879.252 431.005 879.902 429.645 880.817 428.468C881.732 427.291 882.889 426.325 884.211 425.635C885.123 425.169 885.918 424.504 886.538 423.687C887.157 422.871 887.585 421.926 887.79 420.922C888.009 419.789 888.497 418.726 889.213 417.822C889.93 416.918 890.853 416.2 891.905 415.729C893.016 415.234 894.235 415.036 895.445 415.154C896.466 415.258 897.497 415.124 898.457 414.762C899.417 414.399 900.279 413.819 900.977 413.065C901.873 412.103 902.957 411.336 904.162 410.812C905.368 410.288 906.668 410.018 907.982 410.019C909.751 410.026 911.483 410.524 912.987 411.457C914.491 412.391 915.706 413.724 916.499 415.307C916.958 416.229 917.617 417.036 918.429 417.67C919.24 418.303 920.183 418.746 921.188 418.967C922.316 419.22 923.387 419.681 924.346 420.327C926.325 421.578 927.796 423.492 928.497 425.727C929.198 427.963 929.084 430.375 928.174 432.533H922.432V435.657H930.088L930.528 434.833C932.099 431.932 932.512 428.543 931.684 425.35C930.857 422.156 928.85 419.396 926.068 417.626C924.803 416.832 923.411 416.262 921.953 415.939C921.41 415.827 920.897 415.597 920.451 415.266C920.005 414.935 919.636 414.511 919.37 414.023C919.085 413.455 918.765 412.905 918.413 412.375C917.746 411.418 916.954 410.555 916.058 409.808C913.739 407.895 910.816 406.87 907.812 406.916C904.807 406.962 901.917 408.075 899.656 410.057C899.331 410.344 899.005 410.651 898.718 410.957C898.534 411.145 898.336 411.318 898.125 411.475L897.895 411.59C897.754 411.689 897.6 411.766 897.436 411.82H897.149L896.689 411.935H896.383C896.167 411.954 895.949 411.954 895.732 411.935V411.935C895.216 411.896 894.698 411.896 894.182 411.935H893.378H892.957L892.153 412.107H891.79C891.406 412.228 891.029 412.369 890.661 412.529V412.529C889.9 412.867 889.181 413.291 888.517 413.793C888.193 414.041 887.886 414.31 887.598 414.598C886.057 416.154 885.052 418.161 884.727 420.327C884.615 420.872 884.385 421.385 884.055 421.832C883.724 422.279 883.301 422.648 882.813 422.914C881.271 423.698 879.893 424.771 878.756 426.076C877.275 427.82 876.255 429.909 875.789 432.15C875.674 432.719 875.597 433.295 875.56 433.875L875.445 435.657H887.598V432.457H878.909Z" fill="#2D5967"/>
<path id="Union_3" fill-rule="evenodd" clip-rule="evenodd" d="M916.977 480.457H893.015V425.501H916.977V480.457ZM914.585 427.82H895.33V430.924H914.585V427.82ZM897.646 435.945H895.33V439.049H897.646V441.751H912.345V439.049H914.585V435.945H912.345V433.243H897.646V435.945ZM914.585 444.069H895.33V447.154H914.585V444.069ZM914.585 449.492H895.33V452.596H914.585V449.492Z" fill="white"/>
<path id="Vector_88" d="M909.245 436.328H900.747V438.646H909.245V436.328Z" fill="white"/>
<path id="Vector_89" d="M889.915 422.397V483.561H920.078V422.397H889.915ZM916.978 480.457H893.015V425.501H916.978V480.457Z" fill="#2D5967"/>
<path id="Vector_90" d="M914.662 427.82H895.331V430.924H914.662V427.82Z" fill="#2D5967"/>
<path id="Vector_91" d="M897.647 441.751H912.346V439.049H914.585V435.945H912.346V433.243H897.647V435.945H895.331V439.049H897.647V441.751ZM900.747 436.328H909.245V438.666H900.747V436.328Z" fill="#2D5967"/>
<path id="Vector_92" d="M914.662 444.069H895.331V447.174H914.662V444.069Z" fill="#2D5967"/>
<path id="Vector_93" d="M914.662 449.492H895.331V452.596H914.662V449.492Z" fill="#2D5967"/>
<path id="Vector_94" d="M910.682 459.136L907.348 459.155L905.169 464.68L902.859 459.173H899.507L903.194 467.266L899.376 475.86H902.71L905.038 469.907L907.534 475.842L910.887 475.823L907.031 467.359L910.682 459.136Z" fill="#2D5967"/>
</g>
</g>
<g id="Icon Text Label_6">
<text id="IconLabel_12" fill="black" xml:space="preserve" style="white-space: pre" font-family="Oracle Sans" font-size="16" letter-spacing="0em"><tspan x="846.516" y="502.816">Target Database</tspan></text>
<text id="IconLabel_13" fill="black" xml:space="preserve" style="white-space: pre" font-family="Oracle Sans" font-size="16" letter-spacing="0em"><tspan x="850.938" y="518.816">Oracle Exadata</tspan></text>
<text id="IconLabel_14" fill="black" xml:space="preserve" style="white-space: pre" font-family="Oracle Sans" font-size="16" letter-spacing="0em"><tspan x="843.07" y="534.816">Database Service</tspan></text>
</g>
</g>
<g id="OCI managed network">
<rect x="624" y="97" width="479" height="492" stroke="#9E9892" stroke-width="2" stroke-dasharray="8 4"/>
<g id="OCI Managed Network">
<text fill="#312D2A" xml:space="preserve" style="white-space: pre" font-family="Oracle Sans" font-size="16" font-weight="600" letter-spacing="0em"><tspan x="780.539" y="117.816">OCI managed n</tspan></text>
<text fill="#312D2A" xml:space="preserve" style="white-space: pre" font-family="Oracle Sans" font-size="16" font-weight="600" letter-spacing="0em"><tspan x="894.93" y="117.816">etwork</tspan></text>
</g>
</g>
<path id="Vector 57" d="M194.293 203.293C193.902 203.683 193.902 204.317 194.293 204.707L200.657 211.071C201.047 211.462 201.681 211.462 202.071 211.071C202.462 210.681 202.462 210.047 202.071 209.657L196.414 204L202.071 198.343C202.462 197.953 202.462 197.319 202.071 196.929C201.681 196.538 201.047 196.538 200.657 196.929L194.293 203.293ZM377.707 204.707C378.098 204.317 378.098 203.683 377.707 203.293L371.343 196.929C370.953 196.538 370.319 196.538 369.929 196.929C369.538 197.319 369.538 197.953 369.929 198.343L375.586 204L369.929 209.657C369.538 210.047 369.538 210.681 369.929 211.071C370.319 211.462 370.953 211.462 371.343 211.071L377.707 204.707ZM195 205H377V203H195V205Z" fill="#312D2A"/>
<g id="Group 1512">
<rect id="Rectangle 701" x="270" y="202" width="45" height="5" fill="white"/>
<g id="Icon Master_9">
<g id="google-cloud-interconnect">
<g id="Product Icons_4">
<g id="Group_19">
<path id="Fill-3" fill-rule="evenodd" clip-rule="evenodd" d="M272.5 206H280.5V202H272.5V206Z" fill="#4285F4"/>
<path id="Fill-6" fill-rule="evenodd" clip-rule="evenodd" d="M298.5 214H278.5V194H298.5V214Z" fill="#AECBFA"/>
<path id="Fill-1" fill-rule="evenodd" clip-rule="evenodd" d="M303.16 206H312.5V202H303.16V206Z" fill="#4285F4"/>
<path id="Vector_95" fill-rule="evenodd" clip-rule="evenodd" d="M284.5 186V190H302.5V218H284.5V222H306.5V218V190V186H284.5Z" fill="#669DF6"/>
<path id="Fill-7" fill-rule="evenodd" clip-rule="evenodd" d="M298.5 214H288.5V194H298.5V214Z" fill="#669DF6"/>
</g>
</g>
</g>
<g id="Icon Text Label_7">
<text id="IconLabel_15" fill="black" xml:space="preserve" style="white-space: pre" font-family="Oracle Sans" font-size="16" letter-spacing="0em"><tspan x="245.039" y="239.816">Google cloud</tspan></text>
<text id="IconLabel_16" fill="black" xml:space="preserve" style="white-space: pre" font-family="Oracle Sans" font-size="16" letter-spacing="0em"><tspan x="247.008" y="255.816">interconnect</tspan></text>
</g>
</g>
</g>
<path id="Vector 58" d="M532 350H613" stroke="#312D2A" stroke-width="2"/>
<g id="Group 1510">
<g id="Connector Line Label">
<rect width="35" height="14" transform="translate(555 327)" fill="#ECEFF1"/>
<text id="Line Label" fill="#312D2A" xml:space="preserve" style="white-space: pre" font-family="Oracle Sans" font-size="14" letter-spacing="0em"><tspan x="559.279" y="339.089">VPC</tspan></text>
</g>
<g id="Connector Line Label_2">
<rect width="57" height="14" transform="translate(544 341)" fill="#ECEFF1"/>
<text id="Line Label_2" fill="#312D2A" xml:space="preserve" style="white-space: pre" font-family="Oracle Sans" font-size="14" letter-spacing="0em"><tspan x="548.198" y="353.089">peering</tspan></text>
</g>
</g>
<g id="Autonomous Recovery Service">
<g id="OCI-Autonomous-Recovery-Service">
<g id="Group_20">
<path id="Vector_96" d="M490.819 453.618L491.834 452.603L490.819 451.589L487.086 446.959L486.485 446.002C484.569 442.93 481.137 441.029 477.533 441.029C476.789 441.029 476.074 441.129 475.373 441.286L474.1 440.558C472.313 439.543 470.282 439 468.208 439C464.919 439 461.744 440.386 459.499 442.801C459.156 443.172 458.655 443.387 458.112 443.387C458.04 443.387 457.969 443.387 457.897 443.387C457.597 443.358 457.282 443.344 456.982 443.344C455.637 443.344 454.265 443.63 453.035 444.173C450.089 445.459 447.972 448.116 447.343 451.26C447.228 451.874 446.828 452.389 446.256 452.689C442.366 454.732 439.849 458.548 439.52 462.92L439.448 463.977L439.334 465.506H451.018V492.113H454.465V495.556H457.911V499H480.007V465.492H487.615L488.016 464.735L488.302 464.22C489.803 461.434 490.132 458.176 489.26 455.147L489.417 454.99L490.819 453.589V453.618Z" fill="white"/>
<path id="Vector_97" d="M452.448 451.76V490.683H454.422V453.732H466.321L464.347 451.76H452.448Z" fill="#2D5967"/>
<path id="Vector_98" d="M485.57 462.105H480.064V464.077H486.772L487.058 463.563C488.559 460.791 488.688 457.618 487.673 454.832C487.344 455.818 486.886 456.732 486.3 457.561C486.471 459.076 486.242 460.648 485.57 462.105Z" fill="#2D5967"/>
<path id="Vector_99" d="M468.194 440.429C465.291 440.429 462.502 441.644 460.543 443.773C459.842 444.53 458.827 444.901 457.754 444.801C456.338 444.673 454.894 444.901 453.593 445.473C451.075 446.573 449.259 448.845 448.73 451.532C448.53 452.56 447.858 453.446 446.914 453.946C443.467 455.761 441.236 459.148 440.95 463.02L440.879 464.077H450.975V462.106H443.052C443.582 459.362 445.312 457.019 447.829 455.69C449.316 454.904 450.346 453.532 450.661 451.903C451.061 449.845 452.448 448.102 454.379 447.259C455.38 446.816 456.481 446.645 457.554 446.745C459.242 446.902 460.858 446.302 461.973 445.087C463.575 443.358 465.834 442.372 468.18 442.372C469.267 442.372 470.325 442.587 471.297 442.958C471.941 442.487 472.628 442.087 473.357 441.772C471.812 440.886 470.039 440.4 468.18 440.4L468.194 440.429Z" fill="#2D5967"/>
<path id="Vector_100" d="M455.909 455.204V494.127H457.883V457.176H468.652C468.265 456.561 467.922 455.904 467.665 455.204H455.909Z" fill="#2D5967"/>
<path id="Vector_101" d="M476.617 462.063V495.614H461.329V460.634H472.213C471.312 460.105 470.497 459.434 469.781 458.662H459.356V497.586H478.591V462.063C478.262 462.091 477.933 462.106 477.604 462.106C477.275 462.106 476.946 462.091 476.617 462.063Z" fill="#2D5967"/>
<path id="Vector_102" d="M471.884 486.44C472.198 485.854 472.356 485.211 472.341 484.554C472.341 483.425 472.012 482.568 471.369 481.982C470.725 481.396 469.81 481.082 468.48 481.082H465.276V492.413H467.493V487.983L468.28 488.083L470.21 492.427H472.67L470.368 487.626C470.997 487.426 471.526 487.012 471.884 486.454V486.44ZM468.48 486.497H467.493V482.796H468.48C469.595 482.796 470.053 483.496 470.053 484.668C470.053 485.84 469.595 486.483 468.48 486.483V486.497Z" fill="#2D5967"/>
<path id="Vector_103" d="M475.13 462.105H462.802V464.077H475.13V462.105Z" fill="#2D5967"/>
<path id="Vector_104" d="M464.29 470.978H473.657V469.249H475.13V467.278H473.657V465.549H464.29V467.278H462.817V469.249H464.29V470.978ZM466.264 467.535H471.684V469.006H466.264V467.535Z" fill="#2D5967"/>
<path id="Vector_105" d="M464.776 472.451H462.802V474.423H464.776V472.451Z" fill="#2D5967"/>
<path id="Vector_106" d="M468.237 472.451H466.264V474.423H468.237V472.451Z" fill="#2D5967"/>
<path id="Vector_107" d="M471.684 472.451H469.71V474.423H471.684V472.451Z" fill="#2D5967"/>
<path id="Vector_108" d="M475.144 472.451H473.171V474.423H475.144V472.451Z" fill="#2D5967"/>
<path id="Vector_109" d="M464.776 475.909H462.802V477.88H464.776V475.909Z" fill="#2D5967"/>
<path id="Vector_110" d="M468.237 475.909H466.264V477.88H468.237V475.909Z" fill="#2D5967"/>
<path id="Vector_111" d="M471.684 475.909H469.71V477.88H471.684V475.909Z" fill="#2D5967"/>
<path id="Vector_112" d="M475.144 475.909H473.171V477.88H475.144V475.909Z" fill="#2D5967"/>
<path id="Vector_113" d="M469.381 454.689L473.529 450.545L472.127 449.145L470.397 450.874C470.74 447.259 473.8 444.415 477.519 444.415C480.207 444.415 482.596 445.916 483.825 448.188L485.27 446.744C483.64 444.144 480.751 442.443 477.519 442.443C472.699 442.443 468.752 446.201 468.423 450.931L466.635 449.145L465.234 450.545L469.381 454.689Z" fill="#2D5967"/>
<path id="Vector_114" d="M478.477 455.304C478.663 455.49 478.92 455.59 479.178 455.59C479.435 455.59 479.678 455.49 479.878 455.304C480.265 454.918 480.265 454.289 479.878 453.904L478.105 452.132L478.134 448.317C478.134 447.774 477.705 447.331 477.147 447.331C476.603 447.331 476.16 447.774 476.16 448.317L476.131 452.546C476.131 452.803 476.232 453.061 476.417 453.246L478.477 455.304Z" fill="#2D5967"/>
<path id="Vector_115" d="M485.656 448.459L481.508 452.603L482.91 454.004L484.64 452.275C484.297 455.89 481.237 458.733 477.518 458.733C474.83 458.733 472.441 457.233 471.212 454.961L469.767 456.404C471.397 459.005 474.286 460.705 477.518 460.705C482.338 460.705 486.285 456.947 486.614 452.218L488.402 454.004L489.803 452.603L485.656 448.459Z" fill="#2D5967"/>
</g>
</g>
<g id="Data Integrator">
<text id="IconLabel_17" fill="black" xml:space="preserve" style="white-space: pre" font-family="Oracle Sans" font-size="16" letter-spacing="0em"><tspan x="393.43" y="516.816">Oracle Autonomous</tspan></text>
<text id="IconLabel_18" fill="black" xml:space="preserve" style="white-space: pre" font-family="Oracle Sans" font-size="16" letter-spacing="0em"><tspan x="402.234" y="532.816"> Recovery Service </tspan></text>
</g>
</g>
<g id="Autonomous Recovery Service_2">
<g id="OCI-Autonomous-Recovery-Service_2">
<g id="Group_21">
<path id="Vector_116" d="M1213.82 453.618L1214.83 452.603L1213.82 451.589L1210.09 446.959L1209.49 446.002C1207.57 442.93 1204.14 441.029 1200.53 441.029C1199.79 441.029 1199.07 441.129 1198.37 441.286L1197.1 440.558C1195.31 439.543 1193.28 439 1191.21 439C1187.92 439 1184.74 440.386 1182.5 442.801C1182.16 443.172 1181.66 443.387 1181.11 443.387C1181.04 443.387 1180.97 443.387 1180.9 443.387C1180.6 443.358 1180.28 443.344 1179.98 443.344C1178.64 443.344 1177.26 443.63 1176.03 444.173C1173.09 445.459 1170.97 448.116 1170.34 451.26C1170.23 451.874 1169.83 452.389 1169.26 452.689C1165.37 454.732 1162.85 458.548 1162.52 462.92L1162.45 463.977L1162.33 465.506H1174.02V492.113H1177.46V495.556H1180.91V499H1203.01V465.492H1210.62L1211.02 464.735L1211.3 464.22C1212.8 461.434 1213.13 458.176 1212.26 455.147L1212.42 454.99L1213.82 453.589V453.618Z" fill="white"/>
<path id="Vector_117" d="M1175.45 451.76V490.683H1177.42V453.732H1189.32L1187.35 451.76H1175.45Z" fill="#2D5967"/>
<path id="Vector_118" d="M1208.57 462.105H1203.06V464.077H1209.77L1210.06 463.563C1211.56 460.791 1211.69 457.618 1210.67 454.832C1210.34 455.818 1209.89 456.732 1209.3 457.561C1209.47 459.076 1209.24 460.648 1208.57 462.105Z" fill="#2D5967"/>
<path id="Vector_119" d="M1191.19 440.429C1188.29 440.429 1185.5 441.644 1183.54 443.773C1182.84 444.53 1181.83 444.901 1180.75 444.801C1179.34 444.673 1177.89 444.901 1176.59 445.473C1174.08 446.573 1172.26 448.845 1171.73 451.532C1171.53 452.56 1170.86 453.446 1169.91 453.946C1166.47 455.761 1164.24 459.148 1163.95 463.02L1163.88 464.077H1173.98V462.106H1166.05C1166.58 459.362 1168.31 457.019 1170.83 455.69C1172.32 454.904 1173.35 453.532 1173.66 451.903C1174.06 449.845 1175.45 448.102 1177.38 447.259C1178.38 446.816 1179.48 446.645 1180.55 446.745C1182.24 446.902 1183.86 446.302 1184.97 445.087C1186.57 443.358 1188.83 442.372 1191.18 442.372C1192.27 442.372 1193.33 442.587 1194.3 442.958C1194.94 442.487 1195.63 442.087 1196.36 441.772C1194.81 440.886 1193.04 440.4 1191.18 440.4L1191.19 440.429Z" fill="#2D5967"/>
<path id="Vector_120" d="M1178.91 455.204V494.127H1180.88V457.176H1191.65C1191.27 456.561 1190.92 455.904 1190.66 455.204H1178.91Z" fill="#2D5967"/>
<path id="Vector_121" d="M1199.62 462.063V495.614H1184.33V460.634H1195.21C1194.31 460.105 1193.5 459.434 1192.78 458.662H1182.36V497.586H1201.59V462.063C1201.26 462.091 1200.93 462.106 1200.6 462.106C1200.28 462.106 1199.95 462.091 1199.62 462.063Z" fill="#2D5967"/>
<path id="Vector_122" d="M1194.88 486.44C1195.2 485.854 1195.36 485.211 1195.34 484.554C1195.34 483.425 1195.01 482.568 1194.37 481.982C1193.73 481.396 1192.81 481.082 1191.48 481.082H1188.28V492.413H1190.49V487.983L1191.28 488.083L1193.21 492.427H1195.67L1193.37 487.626C1194 487.426 1194.53 487.012 1194.88 486.454V486.44ZM1191.48 486.497H1190.49V482.796H1191.48C1192.6 482.796 1193.05 483.496 1193.05 484.668C1193.05 485.84 1192.6 486.483 1191.48 486.483V486.497Z" fill="#2D5967"/>
<path id="Vector_123" d="M1198.13 462.105H1185.8V464.077H1198.13V462.105Z" fill="#2D5967"/>
<path id="Vector_124" d="M1187.29 470.978H1196.66V469.249H1198.13V467.278H1196.66V465.549H1187.29V467.278H1185.82V469.249H1187.29V470.978ZM1189.26 467.535H1194.68V469.006H1189.26V467.535Z" fill="#2D5967"/>
<path id="Vector_125" d="M1187.78 472.451H1185.8V474.423H1187.78V472.451Z" fill="#2D5967"/>
<path id="Vector_126" d="M1191.24 472.451H1189.26V474.423H1191.24V472.451Z" fill="#2D5967"/>
<path id="Vector_127" d="M1194.68 472.451H1192.71V474.423H1194.68V472.451Z" fill="#2D5967"/>
<path id="Vector_128" d="M1198.14 472.451H1196.17V474.423H1198.14V472.451Z" fill="#2D5967"/>
<path id="Vector_129" d="M1187.78 475.909H1185.8V477.88H1187.78V475.909Z" fill="#2D5967"/>
<path id="Vector_130" d="M1191.24 475.909H1189.26V477.88H1191.24V475.909Z" fill="#2D5967"/>
<path id="Vector_131" d="M1194.68 475.909H1192.71V477.88H1194.68V475.909Z" fill="#2D5967"/>
<path id="Vector_132" d="M1198.14 475.909H1196.17V477.88H1198.14V475.909Z" fill="#2D5967"/>
<path id="Vector_133" d="M1192.38 454.689L1196.53 450.545L1195.13 449.145L1193.4 450.874C1193.74 447.259 1196.8 444.415 1200.52 444.415C1203.21 444.415 1205.6 445.916 1206.83 448.188L1208.27 446.744C1206.64 444.144 1203.75 442.443 1200.52 442.443C1195.7 442.443 1191.75 446.201 1191.42 450.931L1189.64 449.145L1188.23 450.545L1192.38 454.689Z" fill="#2D5967"/>
<path id="Vector_134" d="M1201.48 455.304C1201.66 455.49 1201.92 455.59 1202.18 455.59C1202.44 455.59 1202.68 455.49 1202.88 455.304C1203.26 454.918 1203.26 454.289 1202.88 453.904L1201.11 452.132L1201.13 448.317C1201.13 447.774 1200.7 447.331 1200.15 447.331C1199.6 447.331 1199.16 447.774 1199.16 448.317L1199.13 452.546C1199.13 452.803 1199.23 453.061 1199.42 453.246L1201.48 455.304Z" fill="#2D5967"/>
<path id="Vector_135" d="M1208.66 448.459L1204.51 452.603L1205.91 454.004L1207.64 452.275C1207.3 455.89 1204.24 458.733 1200.52 458.733C1197.83 458.733 1195.44 457.233 1194.21 454.961L1192.77 456.404C1194.4 459.005 1197.29 460.705 1200.52 460.705C1205.34 460.705 1209.29 456.947 1209.61 452.218L1211.4 454.004L1212.8 452.603L1208.66 448.459Z" fill="#2D5967"/>
</g>
</g>
<g id="Data Integrator_2">
<text id="IconLabel_19" fill="black" xml:space="preserve" style="white-space: pre" font-family="Oracle Sans" font-size="16" letter-spacing="0em"><tspan x="1116.43" y="516.816">Oracle Autonomous</tspan></text>
<text id="IconLabel_20" fill="black" xml:space="preserve" style="white-space: pre" font-family="Oracle Sans" font-size="16" letter-spacing="0em"><tspan x="1125.23" y="532.816"> Recovery Service </tspan></text>
</g>
</g>
</g>
</g>
<defs>
<clipPath id="clip0_17071_214">
<rect width="1274" height="616" fill="white"/>
</clipPath>
</defs>
</svg>
