<svg width="728" height="416" viewBox="0 0 728 416" fill="none" xmlns="http://www.w3.org/2000/svg">
<g id="MSZ-01">
<rect width="728" height="416" fill="white"/>
<g id="OCI Section Boxes">
<rect x="104.5" y="0.5" width="623" height="415" fill="white"/>
<rect x="104.5" y="0.5" width="623" height="415" stroke="#9E9892" stroke-dasharray="2 1"/>
<text id="Tenancy" fill="#312D2A" xml:space="preserve" style="white-space: pre" font-family="Oracle Sans" font-size="16" font-weight="bold" letter-spacing="0em"><tspan x="112" y="21.816">Tenancy</tspan></text>
</g>
<g id="Compartment">
<rect x="112.5" y="40.5" width="607" height="367" fill="white"/>
<rect x="112.5" y="40.5" width="607" height="367" stroke="#AA643B" stroke-dasharray="6 4"/>
<text id="Compartment_2" fill="#AE562C" xml:space="preserve" style="white-space: pre" font-family="Oracle Sans" font-size="16" font-weight="600" letter-spacing="0em"><tspan x="120" y="61.816">Compartment</tspan></text>
<rect id="Rectangle 692" x="668.993" y="40" width="44" height="2" fill="white"/>
<g id="Compartments">
<g id="Group 11">
<path id="Vector" d="M671.375 59.6224V30.5938C671.375 29.3748 672.365 28.3843 673.584 28.3843H683.565C684.251 28.3843 684.937 28.689 685.318 29.2986L687.375 32.0414H708.48C709.699 32.0414 710.689 33.0319 710.689 34.2509V59.6986H671.375V59.6224Z" fill="white"/>
<path id="Vector_2" d="M683.564 28.7653C684.098 28.7653 684.707 29.0701 685.012 29.5272L687.145 32.4225H708.402C709.393 32.4225 710.231 33.2606 710.231 34.251V59.2415H671.755V30.5939C671.755 29.6034 672.593 28.7653 673.583 28.7653H683.564ZM683.564 28.0034H673.583C672.136 28.0034 670.993 29.1463 670.993 30.5939V59.2415V60.0034H671.755H710.231H710.993V59.2415V34.1748C710.993 32.7272 709.85 31.5844 708.402 31.5844H687.526L685.621 28.9939C685.088 28.3844 684.326 28.0034 683.564 28.0034Z" fill="white"/>
<path id="Vector_3" d="M708.402 32.4223H687.145L685.012 29.527C684.707 29.0699 684.174 28.7651 683.564 28.7651H673.583C672.593 28.7651 671.755 29.6032 671.755 30.5937V59.2413H710.231V34.1747C710.231 33.1842 709.393 32.4223 708.402 32.4223ZM708.555 57.6413H673.355V30.5937C673.355 30.5175 673.431 30.3651 673.583 30.3651H683.564C683.64 30.3651 683.717 30.3651 683.717 30.4413L686.383 34.0223H708.478C708.555 34.0223 708.707 34.0985 708.707 34.2509L708.555 57.6413Z" fill="#2D5967"/>
<path id="Vector_4" d="M677.927 38.3648H679.527V36.0029H681.965V34.4029H679.527V31.9648H677.927V34.4029H675.565V36.0029H677.927V38.3648Z" fill="#2D5967"/>
<path id="Vector_5" d="M702.153 44.9938L700.782 42.4795L699.411 44.9938L697.277 48.8033L695.982 51.1652H698.725H702.992H705.734L704.363 48.8033L702.153 44.9938ZM698.649 49.6414L700.782 45.8319L702.915 49.6414H698.649Z" fill="#2D5967"/>
<path id="Vector_6" d="M693.545 43.3937C692.859 43.0128 692.097 42.7842 691.335 42.7842C691.031 42.7842 690.65 42.7842 690.345 42.8604C688.059 43.3937 686.688 45.6794 687.221 47.8889C687.678 49.7937 689.354 51.0889 691.335 51.0889C691.64 51.0889 692.021 51.0889 692.326 51.0128C693.393 50.7842 694.307 50.0985 694.916 49.108C695.526 48.1937 695.678 47.0508 695.45 45.908C695.145 44.9175 694.459 44.0032 693.545 43.3937ZM693.545 48.3461C693.164 48.9556 692.631 49.3366 691.945 49.4889C691.716 49.5651 691.564 49.5651 691.335 49.5651C690.193 49.5651 689.05 48.727 688.821 47.5842C688.516 46.2128 689.354 44.7651 690.726 44.4604C690.954 44.3842 691.107 44.3842 691.335 44.3842C691.793 44.3842 692.25 44.5366 692.707 44.7651C693.316 45.1461 693.697 45.6794 693.85 46.3651C694.002 47.0508 693.85 47.7366 693.545 48.3461Z" fill="#2D5967"/>
<path id="Vector_7" d="M683.792 43.7751L683.335 43.0132H682.42H679.525H678.611L678.154 43.7751L676.706 46.2894L676.249 47.1275L676.706 47.9656L678.154 50.4798L678.611 51.2418H679.525H682.42H683.335L683.792 50.4798L685.239 47.9656L685.697 47.1275L685.316 46.2894L683.792 43.7751ZM682.42 49.6418H679.525L678.078 47.1275L679.525 44.6132H682.42L683.868 47.1275L682.42 49.6418Z" fill="#2D5967"/>
</g>
</g>
</g>
<g id="VCN box_New">
<rect id="Rectangle 28" x="121" y="80.9565" width="590" height="318" stroke="#AA643B" stroke-width="2" stroke-dasharray="8 4"/>
<g id="Icon Master">
<g id="Virtual-Cloud-Network-VCN_red">
<g id="Group 39">
<path id="Vector_8" d="M690.416 103.51C689.16 103.51 687.944 103.077 686.969 102.285C685.995 101.493 685.323 100.39 685.066 99.1603H678.595C678.408 100.054 678 100.887 677.408 101.583C676.816 102.279 676.06 102.816 675.208 103.144C674.356 103.472 673.435 103.582 672.53 103.463C671.625 103.343 670.764 102.999 670.026 102.462C669.287 101.924 668.695 101.21 668.304 100.385C667.912 99.56 667.733 98.6498 667.783 97.7376C667.833 96.8254 668.111 95.9403 668.59 95.163C669.07 94.3857 669.737 93.7409 670.529 93.2875L668.533 87.1411C668.336 87.1547 668.138 87.1547 667.941 87.1411C667.053 87.1431 666.179 86.9289 665.392 86.5169C664.606 86.105 663.932 85.5077 663.428 84.7766C662.923 84.0456 662.605 83.2028 662.499 82.3209C662.394 81.4391 662.504 80.5448 662.821 79.7152C663.138 78.8857 663.652 78.1458 664.319 77.5595C664.986 76.9733 665.785 76.5582 666.648 76.3502C667.511 76.1422 668.411 76.1475 669.272 76.3657C670.132 76.5838 670.927 77.0083 671.586 77.6024L676.845 73.8726C676.527 73.1674 676.363 72.4028 676.362 71.6293C676.362 70.1781 676.938 68.7864 677.964 67.7603C678.989 66.7342 680.38 66.1577 681.83 66.1577C683.281 66.1577 684.672 66.7342 685.697 67.7603C686.723 68.7864 687.299 70.1781 687.299 71.6293C687.301 72.4021 687.139 73.1667 686.825 73.8726L692.093 77.6389C693.088 76.7257 694.388 76.2182 695.738 76.2163C697.188 76.2163 698.579 76.7927 699.605 77.8188C700.63 78.845 701.206 80.2367 701.206 81.6878C701.206 83.139 700.63 84.5307 699.605 85.5568C698.579 86.5829 697.188 87.1594 695.738 87.1594C695.547 87.1594 695.346 87.1594 695.155 87.1594L693.15 93.3058C694.199 93.9051 695.02 94.8351 695.485 95.9505C695.95 97.0659 696.032 98.304 695.72 99.4714C695.408 100.639 694.718 101.67 693.759 102.404C692.799 103.138 691.624 103.533 690.416 103.528V103.51Z" fill="white"/>
<path id="Vector_9" d="M681.84 66.577C682.707 66.579 683.56 66.8059 684.314 67.2356C685.068 67.6653 685.697 68.2832 686.142 69.029C686.586 69.7748 686.829 70.623 686.849 71.491C686.868 72.359 686.662 73.2172 686.251 73.9818L692.093 78.2314C692.665 77.6323 693.377 77.1844 694.164 76.9277C694.951 76.6711 695.79 76.6137 696.605 76.7607C697.42 76.9076 698.186 77.2544 698.835 77.7699C699.483 78.2855 699.994 78.9538 700.321 79.715C700.648 80.4763 700.782 81.3068 700.71 82.1324C700.638 82.958 700.363 83.7529 699.909 84.446C699.455 85.1391 698.836 85.7089 698.109 86.1043C697.381 86.4998 696.566 86.7087 695.738 86.7123C695.433 86.7165 695.128 86.6921 694.827 86.6393L692.594 93.5244C693.375 93.9013 694.045 94.4746 694.538 95.1881C695.032 95.9016 695.332 96.7309 695.409 97.5951C695.486 98.4593 695.338 99.3288 694.979 100.119C694.62 100.908 694.062 101.591 693.36 102.101C692.659 102.611 691.837 102.929 690.975 103.026C690.113 103.123 689.241 102.994 688.444 102.653C687.647 102.312 686.952 101.769 686.427 101.079C685.902 100.388 685.565 99.5731 685.449 98.7132H678.212C678.095 99.5731 677.757 100.388 677.231 101.078C676.706 101.768 676.01 102.31 675.212 102.65C674.414 102.991 673.542 103.118 672.68 103.02C671.818 102.922 670.996 102.603 670.295 102.092C669.594 101.581 669.037 100.897 668.679 100.106C668.322 99.316 668.175 98.4461 668.253 97.5818C668.332 96.7176 668.634 95.8885 669.128 95.1758C669.623 94.463 670.294 93.8908 671.076 93.5153L668.843 86.6393C668.543 86.6952 668.237 86.7226 667.932 86.7214C667.101 86.7199 666.284 86.5123 665.553 86.1171C664.822 85.7219 664.201 85.1515 663.745 84.457C663.289 83.7626 663.011 82.9657 662.939 82.1378C662.866 81.3099 662.999 80.4768 663.327 79.7132C663.655 78.9496 664.167 78.2793 664.817 77.7623C665.468 77.2453 666.236 76.8979 667.054 76.751C667.871 76.6042 668.712 76.6626 669.502 76.9209C670.291 77.1793 671.005 77.6295 671.577 78.2314L677.419 73.9818C677.008 73.2165 676.802 72.3575 676.821 71.4887C676.841 70.62 677.085 69.7711 677.531 69.0251C677.976 68.279 678.607 67.6613 679.362 67.2322C680.118 66.8032 680.971 66.5774 681.84 66.577ZM681.84 65.665C680.268 65.665 678.76 66.2893 677.647 67.4006C676.535 68.512 675.909 70.0196 675.906 71.5926C675.906 72.3062 676.035 73.014 676.289 73.6809L671.632 77.055C670.891 76.4637 670.019 76.0587 669.089 75.8739C668.16 75.6891 667.199 75.7298 666.288 75.9927C665.378 76.2556 664.543 76.733 663.855 77.385C663.166 78.0369 662.644 78.8444 662.332 79.7398C662.019 80.6353 661.926 81.5926 662.059 82.5316C662.192 83.4706 662.548 84.364 663.098 85.1369C663.647 85.9099 664.373 86.5399 665.216 86.9742C666.059 87.4086 666.993 87.6346 667.941 87.6333H668.205L670.028 93.1049C669.23 93.6331 668.572 94.3468 668.11 95.185C667.648 96.0231 667.396 96.9608 667.375 97.9178C667.354 98.8748 667.564 99.8226 667.989 100.68C668.414 101.538 669.04 102.28 669.814 102.843C670.588 103.406 671.486 103.772 672.433 103.912C673.379 104.052 674.345 103.96 675.249 103.645C676.152 103.329 676.965 102.8 677.62 102.102C678.274 101.403 678.749 100.557 679.005 99.6343H684.747C685.001 100.56 685.476 101.41 686.13 102.112C686.784 102.814 687.599 103.346 688.504 103.664C689.41 103.981 690.378 104.075 691.328 103.936C692.277 103.797 693.178 103.429 693.954 102.865C694.73 102.301 695.358 101.558 695.784 100.697C696.21 99.8374 696.421 98.8868 696.4 97.9272C696.378 96.9676 696.124 96.0275 695.66 95.1877C695.195 94.3478 694.534 93.6331 693.733 93.1049L695.556 87.6333H695.738C696.544 87.6781 697.35 87.5579 698.108 87.2802C698.865 87.0026 699.558 86.5732 700.144 86.0184C700.73 85.4636 701.197 84.795 701.516 84.0535C701.835 83.312 702 82.5131 702 81.7058C702 80.8985 701.835 80.0997 701.516 79.3582C701.197 78.6167 700.73 77.9481 700.144 77.3933C699.558 76.8384 698.865 76.4091 698.108 76.1314C697.35 75.8537 696.544 75.7336 695.738 75.7783C694.396 75.775 693.093 76.232 692.047 77.0732L687.399 73.6991C687.646 73.0305 687.772 72.3235 687.773 71.6108C687.774 70.8304 687.621 70.0575 687.324 69.3361C687.026 68.6148 686.589 67.9593 686.038 67.4071C685.487 66.8548 684.833 66.4167 684.112 66.1178C683.392 65.8189 682.619 65.665 681.84 65.665V65.665Z" fill="white"/>
<path id="Vector_10" d="M695.739 76.6709C695.057 76.6691 694.382 76.8065 693.755 77.0746C693.128 77.3428 692.563 77.736 692.093 78.2303L686.251 73.9807C686.665 73.2153 686.874 72.3554 686.856 71.4851C686.838 70.6149 686.595 69.7642 686.15 69.0164C685.705 68.2685 685.073 67.6493 684.317 67.2192C683.56 66.7891 682.705 66.563 681.835 66.563C680.966 66.563 680.111 66.7891 679.354 67.2192C678.598 67.6493 677.966 68.2685 677.521 69.0164C677.076 69.7642 676.832 70.6149 676.815 71.4851C676.797 72.3554 677.005 73.2153 677.42 73.9807L671.569 78.2303C670.996 77.6333 670.284 77.1875 669.497 76.9327C668.709 76.6779 667.871 76.622 667.058 76.77C666.244 76.918 665.479 77.2653 664.832 77.7809C664.184 78.2965 663.675 78.9643 663.348 79.7249C663.022 80.4855 662.888 81.3151 662.96 82.1398C663.032 82.9644 663.306 83.7585 663.759 84.4512C664.212 85.1439 664.83 85.7136 665.556 86.1095C666.283 86.5054 667.096 86.7153 667.923 86.7203C668.229 86.7216 668.534 86.6941 668.835 86.6383L671.067 93.5051C670.286 93.8806 669.614 94.4528 669.12 95.1656C668.625 95.8783 668.323 96.7074 668.245 97.5716C668.166 98.4359 668.313 99.3058 668.671 100.096C669.029 100.887 669.585 101.571 670.287 102.082C670.988 102.592 671.809 102.912 672.671 103.01C673.533 103.108 674.405 102.981 675.203 102.64C676.001 102.3 676.697 101.758 677.223 101.068C677.749 100.378 678.087 99.5629 678.204 98.703H685.44C685.556 99.5629 685.893 100.378 686.418 101.068C686.943 101.759 687.638 102.301 688.435 102.643C689.233 102.984 690.105 103.113 690.966 103.016C691.828 102.919 692.65 102.601 693.352 102.091C694.054 101.581 694.611 100.898 694.97 100.108C695.329 99.3186 695.477 98.4491 695.4 97.5849C695.323 96.7207 695.023 95.8914 694.53 95.1779C694.036 94.4644 693.366 93.8911 692.585 93.5142L694.827 86.6383C695.128 86.6941 695.433 86.7216 695.739 86.7203C696.422 86.7616 697.107 86.6625 697.751 86.4291C698.395 86.1957 698.985 85.8329 699.483 85.3632C699.982 84.8934 700.379 84.3265 700.651 83.6973C700.923 83.0682 701.063 82.3901 701.063 81.7047C701.063 81.0194 700.923 80.3413 700.651 79.7121C700.379 79.083 699.982 78.5161 699.483 78.0463C698.985 77.5765 698.395 77.2138 697.751 76.9804C697.107 76.747 696.422 76.6479 695.739 76.6891V76.6709ZM690.416 101.712C689.695 101.712 688.99 101.498 688.391 101.098C687.791 100.697 687.324 100.127 687.048 99.4606C686.772 98.7941 686.7 98.0606 686.841 97.3531C686.981 96.6455 687.328 95.9955 687.838 95.4854C688.348 94.9752 688.998 94.6278 689.705 94.4871C690.412 94.3463 691.145 94.4186 691.811 94.6946C692.477 94.9707 693.047 95.4383 693.447 96.0381C693.848 96.638 694.062 97.3432 694.062 98.0647C694.062 99.0321 693.678 99.9599 692.994 100.644C692.31 101.328 691.383 101.712 690.416 101.712ZM678.213 97.3625C678.063 96.2302 677.529 95.1838 676.7 94.3987L679.434 90.5778C680.167 90.9668 680.983 91.1703 681.813 91.1705C682.639 91.1734 683.454 90.9696 684.182 90.5778L686.916 94.3987C686.085 95.1829 685.547 96.2292 685.394 97.3625H678.213ZM669.564 98.0373C669.564 97.3159 669.777 96.6106 670.178 96.0108C670.579 95.4109 671.148 94.9434 671.814 94.6673C672.48 94.3912 673.213 94.319 673.92 94.4597C674.628 94.6005 675.277 94.9479 675.787 95.458C676.297 95.9681 676.644 96.6181 676.785 97.3257C676.925 98.0333 676.853 98.7667 676.577 99.4332C676.301 100.1 675.834 100.669 675.235 101.07C674.635 101.471 673.93 101.685 673.209 101.685C672.242 101.685 671.315 101.301 670.631 100.617C669.948 99.9326 669.564 99.0048 669.564 98.0373ZM667.941 78.0205C668.662 78.0205 669.367 78.2345 669.967 78.6353C670.566 79.0361 671.033 79.6058 671.309 80.2723C671.585 80.9389 671.658 81.6723 671.517 82.3799C671.376 83.0875 671.029 83.7374 670.519 84.2476C670.009 84.7577 669.36 85.1051 668.653 85.2459C667.945 85.3866 667.212 85.3144 666.546 85.0383C665.88 84.7622 665.311 84.2947 664.91 83.6948C664.51 83.0949 664.296 82.3897 664.296 81.6683C664.296 80.7008 664.68 79.773 665.364 79.0889C666.047 78.4049 666.974 78.0205 667.941 78.0205ZM678.158 71.6371C678.158 70.9156 678.372 70.2104 678.772 69.6105C679.173 69.0106 679.742 68.5431 680.408 68.267C681.075 67.9909 681.808 67.9187 682.515 68.0595C683.222 68.2002 683.871 68.5476 684.381 69.0577C684.891 69.5679 685.238 70.2178 685.379 70.9254C685.52 71.633 685.447 72.3665 685.172 73.033C684.896 73.6995 684.428 74.2692 683.829 74.67C683.229 75.0708 682.525 75.2848 681.804 75.2848C681.321 75.2848 680.843 75.189 680.398 75.0028C679.953 74.8167 679.549 74.5439 679.209 74.2003C678.87 73.8567 678.603 73.4492 678.422 73.0014C678.242 72.5536 678.152 72.0743 678.158 71.5915V71.6371ZM690.79 82.5802L686.37 83.9937C686.009 83.2393 685.468 82.5862 684.794 82.0928C684.119 81.5994 683.333 81.2812 682.505 81.1667V76.6071C683.634 76.4568 684.677 75.9222 685.458 75.0933L691.318 79.3428C690.922 80.0733 690.715 80.8917 690.717 81.723C690.719 82.0071 690.743 82.2907 690.79 82.5711V82.5802ZM685.513 86.164C685.513 86.8855 685.299 87.5907 684.898 88.1906C684.498 88.7905 683.929 89.258 683.262 89.5341C682.596 89.8102 681.863 89.8824 681.156 89.7417C680.449 89.6009 679.799 89.2535 679.29 88.7434C678.78 88.2332 678.432 87.5833 678.292 86.8757C678.151 86.1681 678.223 85.4347 678.499 84.7681C678.775 84.1016 679.242 83.5319 679.842 83.1311C680.441 82.7303 681.146 82.5163 681.867 82.5163C682.833 82.5163 683.758 82.8994 684.442 83.5815C685.125 84.2636 685.51 85.1891 685.513 86.1549V86.164ZM681.156 76.6071V81.1667C680.331 81.2794 679.546 81.596 678.873 82.0879C678.2 82.5798 677.66 83.2316 677.301 83.9845L672.872 82.5711C672.929 82.2705 672.956 81.9651 672.954 81.6591C672.946 80.8505 672.743 80.0557 672.362 79.3428L678.213 75.0841C678.99 75.9146 680.03 76.4523 681.156 76.6071ZM672.462 83.9025L676.891 85.316C676.835 85.6166 676.807 85.922 676.809 86.2279C676.806 86.9111 676.943 87.5876 677.213 88.2152C677.483 88.8428 677.879 89.408 678.377 89.8756L675.643 93.7057C674.915 93.3099 674.101 93.103 673.273 93.1038C672.967 93.102 672.662 93.1294 672.362 93.1859L670.12 86.2188C671.142 85.7343 671.971 84.918 672.471 83.9025H672.462ZM690.416 93.0217C689.59 93.023 688.776 93.2265 688.047 93.6145L685.312 89.8026C685.808 89.3337 686.203 88.7682 686.473 88.1409C686.743 87.5136 686.881 86.8378 686.88 86.1549C686.882 85.849 686.855 85.5436 686.798 85.243L691.182 83.8478C691.678 84.8791 692.506 85.7139 693.533 86.2188L691.3 93.0947C691.008 93.0436 690.712 93.0192 690.416 93.0217ZM692.093 81.6956C692.093 80.9742 692.307 80.2689 692.707 79.6691C693.108 79.0692 693.677 78.6017 694.343 78.3256C695.01 78.0495 695.743 77.9772 696.45 78.118C697.157 78.2587 697.807 78.6062 698.316 79.1163C698.826 79.6264 699.173 80.2764 699.314 80.984C699.455 81.6916 699.383 82.425 699.107 83.0915C698.831 83.7581 698.363 84.3278 697.764 84.7286C697.164 85.1294 696.46 85.3433 695.739 85.3433C694.772 85.3433 693.844 84.959 693.161 84.2749C692.477 83.5908 692.093 82.663 692.093 81.6956Z" fill="#AA643B"/>
</g>
</g>
</g>
<text id="VCN" fill="#AE562C" xml:space="preserve" style="white-space: pre" font-family="Oracle Sans" font-size="16" font-weight="600" letter-spacing="0em"><tspan x="129" y="102.816">VCN</tspan></text>
</g>
<g id="Icon Master_2">
<g id="internet">
<g id="Group">
<g id="Group_2">
<path id="Vector_11" d="M45.9599 273.085C45.9146 273.128 45.8678 273.17 45.8197 273.21C45.6058 273.38 45.4883 273.462 45.3679 273.535C45.1612 273.661 45.0153 273.733 44.8666 273.796C44.6344 273.885 44.5098 273.925 44.3837 273.956C44.1118 274.022 43.9532 274.048 43.7946 274.062L43.4377 274.079L43.2763 274.072C43.0327 274.056 42.8741 274.035 42.7155 274.001C42.462 273.943 42.3006 273.898 42.142 273.838C40.706 273.288 39.777 271.945 39.7685 270.414V270.359C39.5533 270.469 38.7008 270.896 38.7008 270.896C38.6441 270.923 38.5846 270.944 38.5237 270.967C37.8865 271.249 37.2945 271.475 36.6969 271.692L36.4548 271.782C36.2891 271.846 36.1234 271.908 35.9535 271.965C35.3417 272.167 34.7186 272.33 34.0912 272.486L33.8108 272.559C33.6494 272.603 33.4865 272.649 33.3194 272.684C32.6623 272.824 31.9968 272.925 31.3269 273.014L31.0395 273.06C30.8922 273.085 30.7435 273.109 30.5934 273.126C29.6474 273.227 28.7071 273.278 27.7979 273.278C26.944 273.278 26.0702 273.234 25.2021 273.146C24.9458 273.122 24.6937 273.082 24.4403 273.041L23.6982 272.932C23.364 272.885 23.0284 272.84 22.7012 272.773C22.3245 272.698 21.9578 272.603 21.5896 272.507L20.9891 272.355C20.7526 272.298 20.5147 272.24 20.2825 272.169C19.8506 272.04 19.4257 271.886 19.0009 271.73L18.5675 271.58C18.4203 271.531 18.2744 271.485 18.1314 271.428L17.2024 271.055L17.225 271.029C11.4755 268.49 6.86741 264.02 4.13852 258.324H4.1286L3.91052 257.885L3.85387 257.743C3.56923 257.095 3.34406 256.507 3.12739 255.911L3.0311 255.647C2.96879 255.487 2.90789 255.324 2.85408 255.158C2.6544 254.55 2.49013 253.926 2.33577 253.298L2.25789 253.007C2.2154 252.846 2.17009 252.684 2.1361 252.52C1.9959 251.867 1.89677 251.201 1.80755 250.533L1.76224 250.254C1.73675 250.101 1.71126 249.946 1.69426 249.792C1.59372 248.846 1.54132 247.905 1.54132 246.994C1.54132 237.011 7.37156 227.73 16.3966 223.35C20.0106 221.598 23.8455 220.709 27.7965 220.709C32.8025 220.709 37.6939 222.154 41.9395 224.883C49.5215 229.762 54.0503 238.028 54.0503 246.994C54.0503 247.834 54.0064 248.708 53.92 249.592C53.8931 249.848 53.8534 250.098 53.8138 250.349L53.7061 251.073C53.6594 251.418 53.6127 251.761 53.5447 252.1C53.4682 252.484 53.3719 252.858 53.2742 253.234L53.1284 253.807C53.0703 254.047 53.0122 254.285 52.9414 254.519C52.8097 254.961 52.654 255.389 52.4968 255.822L52.3509 256.239C52.3042 256.385 52.2574 256.529 52.2008 256.672L51.8524 257.55L51.8241 257.527C51.7221 257.76 51.6145 257.994 51.4998 258.232L56.6106 262.978C56.7409 263.098 56.8585 263.228 56.9661 263.362C57.0157 263.421 57.0638 263.492 57.1134 263.562C57.2253 263.722 57.2691 263.787 57.3088 263.854C57.6784 264.51 57.8384 265.23 57.7818 265.955C57.7521 266.332 57.6671 266.698 57.5297 267.045C57.4603 267.221 57.3782 267.388 57.2833 267.55C56.6772 268.588 55.6363 269.244 54.4539 269.352L57.0794 275.325L48.5896 279.067L45.9599 273.085Z" fill="white"/>
<path id="Vector_12" d="M27.7966 221.418C32.865 221.418 37.5793 222.921 41.5558 225.48C48.6322 230.033 53.3423 237.965 53.3423 246.994C53.3423 247.848 53.297 248.69 53.2148 249.522C53.178 249.895 53.1072 250.258 53.0548 250.625C52.9911 251.072 52.9373 251.523 52.8509 251.961C52.7603 252.422 52.6356 252.87 52.5195 253.322C52.4346 253.652 52.3623 253.988 52.2646 254.313C52.123 254.788 51.9502 255.25 51.7817 255.715C51.6982 255.945 51.6316 256.183 51.5424 256.41L51.5311 256.4C51.2606 257.081 50.9589 257.743 50.6332 258.394L56.1307 263.496C56.2355 263.593 56.3303 263.698 56.4181 263.805C56.4705 263.869 56.5144 263.939 56.5612 264.007C56.6051 264.072 56.6546 264.134 56.6943 264.204C56.6971 264.21 56.6985 264.215 56.7028 264.221C56.9917 264.731 57.1234 265.314 57.0781 265.9C57.0554 266.196 56.9874 266.494 56.8727 266.783C56.8161 266.926 56.7495 267.062 56.6745 267.191C56.1462 268.097 55.1847 268.659 54.1113 268.659C54.1013 268.659 54.0914 268.659 54.0815 268.659L53.3749 268.652L56.1491 274.964L48.9509 278.131L46.1738 271.813L45.6555 272.388C45.5635 272.49 45.4629 272.583 45.3595 272.67C45.3312 272.694 45.3043 272.715 45.276 272.738C45.1868 272.807 45.0947 272.873 44.9984 272.932C44.98 272.943 44.9616 272.958 44.9432 272.968C44.8299 273.033 44.7138 273.091 44.5934 273.141C44.5637 273.153 44.5325 273.165 44.5014 273.176C44.4036 273.213 44.3045 273.245 44.2025 273.271C44.1728 273.279 44.1431 273.288 44.1119 273.295C43.9859 273.323 43.8598 273.345 43.731 273.356C43.7055 273.359 43.68 273.359 43.6531 273.36C43.5865 273.365 43.5214 273.37 43.4548 273.37C43.4081 273.37 43.3599 273.366 43.3132 273.365C43.2891 273.363 43.2636 273.363 43.2396 273.362C43.1121 273.353 42.9832 273.335 42.8558 273.308C42.8303 273.302 42.8048 273.296 42.7807 273.289C42.6476 273.26 42.5159 273.221 42.3871 273.172C41.2329 272.731 40.4809 271.646 40.4739 270.408L40.4668 269.171C39.7969 269.555 39.1073 269.908 38.402 270.231V270.251C38.327 270.285 38.2463 270.309 38.1712 270.343C37.6104 270.594 37.0355 270.814 36.4549 271.024C36.2127 271.112 35.9748 271.209 35.7284 271.29C35.135 271.484 34.5275 271.645 33.9157 271.795C33.6651 271.857 33.4187 271.934 33.1652 271.989C32.5293 272.125 31.8793 272.222 31.2265 272.31C30.9872 272.342 30.7535 272.393 30.5113 272.42C29.6178 272.515 28.7114 272.569 27.7923 272.569C26.9398 272.569 26.0986 272.524 25.2674 272.442C24.8921 272.405 24.5282 272.334 24.1585 272.28C23.7153 272.216 23.2692 272.164 22.833 272.077C22.3714 271.986 21.9225 271.86 21.4693 271.744C21.1408 271.659 20.8065 271.587 20.4822 271.489C20.0064 271.346 19.5448 271.174 19.0817 271.005C18.8523 270.922 18.6144 270.856 18.3878 270.766L18.3977 270.754C12.2743 268.318 7.31925 263.584 4.58186 257.612H4.56487C4.53088 257.536 4.5068 257.455 4.47282 257.378C4.22358 256.818 4.00407 256.246 3.79449 255.666C3.70527 255.422 3.60756 255.182 3.52684 254.934C3.33283 254.343 3.17422 253.736 3.02411 253.126C2.96038 252.873 2.88391 252.624 2.82868 252.369C2.69273 251.735 2.59785 251.087 2.50863 250.437C2.47606 250.194 2.42367 249.957 2.39818 249.714C2.30329 248.82 2.24948 247.914 2.24948 246.994C2.24948 236.874 8.1661 228.133 16.7054 223.988C20.0659 222.359 23.8187 221.418 27.7966 221.418ZM27.7966 220C23.7379 220 19.7983 220.913 16.0894 222.714C6.82077 227.21 0.833344 236.74 0.833344 246.994C0.833344 247.919 0.885741 248.884 0.990535 249.865C1.00894 250.037 1.03585 250.204 1.06417 250.371C1.07834 250.458 1.09391 250.543 1.10524 250.63C1.2072 251.385 1.30492 252.022 1.4437 252.668C1.48335 252.85 1.5315 253.027 1.57965 253.206L1.65045 253.471C1.79915 254.072 1.96625 254.721 2.18151 255.378C2.24098 255.558 2.30613 255.732 2.37268 255.907L2.46473 256.152C2.64458 256.648 2.88816 257.302 3.1813 257.958C3.21812 258.058 3.24503 258.13 3.2776 258.201L3.65429 259.032H3.69394C6.36336 264.38 10.6684 268.642 16.003 271.243L15.9464 271.304L17.8695 272.083C18.0267 272.145 18.1881 272.2 18.351 272.253C18.4345 272.281 18.5181 272.308 18.6016 272.338L18.7503 272.393C19.1907 272.554 19.6297 272.714 20.0815 272.848C20.318 272.919 20.5601 272.98 20.8037 273.038L21.1195 273.118L21.4056 273.192C21.7893 273.292 22.1717 273.391 22.564 273.468C22.9109 273.537 23.265 273.586 23.6204 273.635L23.9603 273.684L24.3157 273.739C24.5862 273.783 24.8581 273.825 25.1343 273.852C26.0278 273.942 26.9243 273.987 27.7966 273.987C28.7185 273.987 29.6843 273.934 30.6643 273.831C30.8342 273.813 30.9985 273.786 31.1628 273.757C31.2491 273.743 31.3341 273.727 31.4205 273.716C32.0677 273.63 32.763 273.528 33.4654 273.377C33.6467 273.338 33.8194 273.291 33.9922 273.244L34.2598 273.173C34.8334 273.03 35.5103 272.856 36.1716 272.639C36.3486 272.58 36.52 272.517 36.6914 272.451L36.9392 272.359C37.4433 272.176 38.1018 271.93 38.7504 271.639C38.851 271.602 38.9246 271.574 38.9954 271.541L39.1866 271.452C39.5236 272.831 40.5107 273.973 41.8843 274.497C42.0798 274.571 42.2724 274.626 42.4664 274.672L42.557 274.693C42.7637 274.736 42.9535 274.763 43.1447 274.775L43.1702 274.777L43.2396 274.78C43.3401 274.785 43.3996 274.788 43.4577 274.788C43.5511 274.788 43.6446 274.782 43.7381 274.775C43.782 274.774 43.8344 274.771 43.8853 274.765C44.0524 274.75 44.2408 274.719 44.4263 274.677L44.4631 274.669L44.5651 274.641C44.7138 274.602 44.8625 274.554 45.0097 274.497C45.0706 274.475 45.1174 274.458 45.1641 274.438C45.3185 274.374 45.4912 274.289 45.6583 274.191L45.6725 274.184L47.6579 278.701L48.2286 279.999L49.5244 279.429L56.717 276.26L58.0127 275.688L57.442 274.39L55.4523 269.864C56.4776 269.539 57.3386 268.857 57.8938 267.904C58.0056 267.712 58.1033 267.51 58.1855 267.305C58.3512 266.889 58.4531 266.451 58.4871 266.006C58.5523 265.155 58.3696 264.313 57.9575 263.564L57.9419 263.535C57.8697 263.408 57.813 263.323 57.7521 263.24L56.5583 264.005L57.7026 263.167C57.6431 263.08 57.5836 262.993 57.5157 262.911C57.384 262.749 57.2438 262.596 57.0908 262.454L52.3892 258.089L52.858 256.932C52.9203 256.774 52.9741 256.613 53.0265 256.451C53.0534 256.368 53.0803 256.282 53.1115 256.2L53.1653 256.053C53.3267 255.612 53.4853 255.171 53.6213 254.72C53.6935 254.476 53.7558 254.228 53.8153 253.978L53.8903 253.674L53.9626 253.394C54.0631 253.01 54.1622 252.627 54.2387 252.236C54.3095 251.881 54.3605 251.517 54.4101 251.153L54.4554 250.827L54.5106 250.469C54.5545 250.201 54.5956 249.935 54.6225 249.661C54.7117 248.761 54.757 247.863 54.757 246.996C54.757 237.787 50.1078 229.298 42.3205 224.288C37.963 221.482 32.94 220 27.7966 220Z" fill="white"/>
</g>
<g id="Group_3">
<path id="Vector_13" d="M30.8312 269.597C35.3005 263.421 37.8467 256.031 38.1215 248.376H50.5339C50.4079 250.463 50 252.475 49.3486 254.375L51.5394 256.41C52.6978 253.493 53.3407 250.319 53.3407 246.994C53.3421 232.891 41.8813 221.417 27.795 221.417C13.7087 221.417 2.2493 232.891 2.2493 246.994C2.2493 261.097 13.7087 272.57 27.795 272.57C31.5789 272.57 35.1688 271.736 38.4033 270.252L38.3849 267.182C36.0723 268.405 33.5261 269.237 30.8312 269.597ZM27.795 269.044C23.1685 263.132 20.5189 255.894 20.2286 248.376H35.36C35.0711 255.895 32.4215 263.132 27.795 269.044ZM35.3614 245.611H20.23C20.5203 238.094 23.1699 230.856 27.7964 224.944C32.4215 230.856 35.0711 238.094 35.3614 245.611ZM50.5339 245.611H38.1215C37.8467 237.957 35.3005 230.567 30.8312 224.391C41.516 225.823 49.8782 234.691 50.5339 245.611ZM24.7602 224.391C20.2909 230.567 17.7447 237.957 17.4699 245.611H5.0575C5.71317 234.691 14.0755 225.823 24.7602 224.391ZM5.0575 248.376H17.4699C17.7447 256.031 20.2909 263.421 24.7602 269.597C14.0755 268.166 5.71317 259.298 5.0575 248.376Z" fill="#2D5967"/>
<path id="Vector_14" d="M54.1066 268.657C55.1786 268.657 56.1416 268.095 56.6698 267.189C56.7449 267.06 56.8114 266.923 56.8681 266.781C56.9828 266.492 57.0507 266.195 57.0734 265.898C57.1187 265.312 56.987 264.729 56.6981 264.219C56.6953 264.213 56.6939 264.207 56.6896 264.202C56.65 264.134 56.6004 264.071 56.5565 264.005C56.5098 263.937 56.4659 263.869 56.4135 263.805C56.3257 263.697 56.2308 263.592 56.126 263.494L45.3818 253.521L45.3804 253.52C45.2826 253.429 45.1793 253.348 45.0731 253.273C45.049 253.256 45.0235 253.238 44.9994 253.221C44.8932 253.15 44.7842 253.085 44.6723 253.028C44.6581 253.021 44.644 253.015 44.6298 253.008C44.5264 252.958 44.4202 252.916 44.3126 252.879C44.2871 252.87 44.2616 252.861 44.2361 252.852C44.1186 252.815 43.9982 252.785 43.8778 252.764C43.8552 252.76 43.8325 252.758 43.8099 252.754C43.7008 252.737 43.5918 252.727 43.4813 252.723C43.4587 252.722 43.436 252.72 43.4133 252.72C43.4006 252.72 43.3878 252.719 43.3751 252.719C43.2618 252.719 43.1471 252.727 43.0324 252.74C43.0041 252.743 42.9758 252.75 42.9474 252.754C42.8455 252.77 42.7449 252.79 42.6444 252.815C42.609 252.824 42.5736 252.834 42.5396 252.844C42.4135 252.88 42.2875 252.923 42.1643 252.977C41.9887 253.053 41.8287 253.15 41.6757 253.253C40.9875 253.723 40.5315 254.444 40.4168 255.275C40.397 255.42 40.3871 255.569 40.3871 255.719L40.4749 270.405C40.4819 271.643 41.2339 272.727 42.3881 273.168C42.5183 273.218 42.65 273.255 42.7817 273.286C42.8072 273.292 42.8313 273.299 42.8568 273.303C42.9842 273.33 43.1131 273.347 43.2406 273.357C43.2646 273.358 43.2901 273.36 43.3142 273.36C43.3609 273.362 43.4091 273.367 43.4558 273.367C43.5224 273.367 43.5875 273.361 43.6541 273.357C43.6796 273.355 43.7065 273.355 43.732 273.353C43.8608 273.34 43.9869 273.32 44.1129 273.29C44.1441 273.283 44.1724 273.275 44.2035 273.266C44.3041 273.239 44.4046 273.208 44.5023 273.17C44.5335 273.158 44.5632 273.147 44.5944 273.134C44.7134 273.085 44.8309 273.028 44.9428 272.961C44.9626 272.95 44.9796 272.937 44.998 272.926C45.0929 272.866 45.1863 272.802 45.2756 272.732C45.3039 272.709 45.3322 272.688 45.3591 272.663C45.4625 272.577 45.5616 272.485 45.6551 272.381L46.1734 271.807L48.9504 278.131L56.1444 274.962L53.3702 268.65L54.0769 268.657C54.0868 268.657 54.0967 268.657 54.1066 268.657ZM52.5035 273.544L50.3666 274.485L46.9834 266.789L43.6059 270.532C43.5776 270.565 43.5096 270.64 43.3723 270.589C43.2363 270.537 43.2363 270.436 43.2363 270.392L43.1485 255.706C43.1485 255.668 43.1485 255.566 43.276 255.51C43.4034 255.454 43.4771 255.523 43.5054 255.549L54.2496 265.522C54.2808 265.552 54.3558 265.621 54.302 265.756C54.2482 265.89 54.142 265.888 54.1038 265.889L49.119 265.841L52.5035 273.544Z" fill="#2D5967"/>
</g>
</g>
</g>
<g id="Icon Text Label">
<text id="IconLabel" fill="black" xml:space="preserve" style="white-space: pre" font-family="Oracle Sans" font-size="16" letter-spacing="0em"><tspan x="1.51562" y="297.816">Internet</tspan></text>
</g>
</g>
<g id="Icon Master_3">
<g id="Services/Flex-Network-Load-Balancer">
<g id="Group 340">
<path id="Vector_15" d="M210.329 271.821L212.816 269.37L215.854 272.381C215.458 268.502 214.186 262.899 210.399 258.908C207.368 255.828 203.237 254.053 198.897 253.964C198.897 254.258 198.897 254.538 198.897 254.832C198.597 261.022 197.02 267.086 194.262 272.647C191.294 277.633 188.298 278.67 186.292 278.67C185.927 278.671 185.563 278.638 185.204 278.572C179.551 277.535 176.061 269.034 174.733 261.429C174.151 258.229 173.829 254.988 173.772 251.737H166.706V248.25H173.772C173.851 244.879 174.21 241.52 174.846 238.208C176.697 227.857 181.134 221.401 186.419 221.401C189.5 221.401 195.025 223.628 197.992 238.558C198.388 240.806 198.661 243.073 198.812 245.35C198.812 245.644 198.812 245.925 198.812 246.219C203.229 246.128 207.433 244.317 210.512 241.177C214.299 237.143 215.501 231.527 215.854 227.661L212.816 230.687L210.329 228.236L217.634 220.995L224.94 228.236L222.524 230.687L219.443 227.703C219.09 232.003 217.747 238.586 213.155 243.488C211.158 245.62 208.678 247.252 205.92 248.25H218.101L215.274 245.574L217.691 243.053L225.011 249.958L217.719 257.171L215.232 254.72L218.284 251.737H205.708C208.469 252.704 210.958 254.307 212.971 256.415C217.606 261.317 219.005 267.955 219.401 272.283L222.524 269.3L224.94 271.821L217.634 279.062L210.329 271.821Z" fill="white"/>
<path id="Vector_16" d="M217.634 221.975L219.048 223.375L220.461 224.692L223.937 228.235L222.524 229.636L220.319 227.577L218.906 226.176C218.751 230.14 217.762 237.689 212.703 243.081C210.911 244.925 208.768 246.399 206.399 247.418C204.029 248.437 201.48 248.982 198.897 249.02H219.867L216.25 245.616L217.663 244.104L223.937 249.972L217.719 256.19L216.236 254.72L219.952 251.036H198.275C200.908 251.022 203.516 251.534 205.944 252.542C208.373 253.55 210.57 255.034 212.406 256.905C217.479 262.269 218.553 269.846 218.751 273.866L220.164 272.395L222.524 270.28L223.937 271.821L220.418 275.322L219.005 276.723L217.592 278.123L216.066 276.443L215.162 275.56L211.332 271.821L212.816 270.35L215.006 272.521L216.702 274.202C216.532 270.532 215.557 263.319 210.922 258.417C209.264 256.75 207.282 255.431 205.097 254.54C202.911 253.65 200.567 253.206 198.204 253.235C198.204 253.749 198.176 254.267 198.12 254.79C197.867 260.894 196.352 266.881 193.668 272.381C190.998 276.849 188.341 277.983 186.349 277.983C186.026 277.985 185.705 277.957 185.388 277.899C180.032 276.919 176.711 268.361 175.496 261.331C174.866 257.933 174.526 254.49 174.479 251.036H167.413V248.95H174.479C174.496 245.383 174.836 241.825 175.496 238.319C177.305 228.403 181.544 222.101 186.419 222.059C189.245 222.059 194.375 224.244 197.244 238.655C197.64 240.865 197.909 243.096 198.049 245.336C198.049 245.84 198.12 246.359 198.148 246.891C200.546 246.913 202.924 246.454 205.139 245.541C207.353 244.629 209.359 243.283 211.035 241.583C215.684 236.625 216.546 229.398 216.688 225.784L215.063 227.465L212.816 229.706L211.332 228.305L215.176 224.412L215.939 223.655L217.634 221.975ZM217.634 220L216.631 220.994L214.95 222.675L214.172 223.431L210.329 227.241L209.325 228.235L210.329 229.216L211.813 230.616L212.816 231.611L213.819 230.616L214.964 229.482C214.466 233.581 212.76 237.444 210.06 240.588C207.28 243.431 203.521 245.131 199.533 245.35V245.21C199.377 242.919 199.104 240.638 198.713 238.375C195.774 223.739 190.432 220.658 186.476 220.658H186.363C180.71 220.658 176.089 227.227 174.154 238.067C173.564 241.196 173.223 244.367 173.136 247.549H166V252.437H173.136C173.212 255.501 173.529 258.554 174.083 261.569C175.496 269.384 179.057 278.151 185.119 279.258C185.52 279.33 185.927 279.367 186.334 279.37C188.525 279.37 191.775 278.277 194.813 273.081C197.612 267.395 199.19 261.195 199.448 254.874C199.442 254.823 199.442 254.771 199.448 254.72C203.36 254.935 207.047 256.6 209.778 259.384C212.527 262.491 214.3 266.327 214.879 270.42L213.819 269.37L212.816 268.375L211.813 269.37L210.329 270.77L209.325 271.765L210.329 272.759L214.172 276.555L215.063 277.451L216.631 279.006L217.634 280L218.638 279.006L220.051 277.605L221.464 276.204L224.997 272.717L226 271.723L224.997 270.728L223.513 269.258L222.51 268.277L221.52 269.272L219.994 270.77C219.414 265.292 217.139 260.126 213.48 255.98C212.158 254.578 210.629 253.383 208.944 252.437H216.546L215.232 253.725L214.243 254.72L215.232 255.7L216.645 257.171L217.649 258.165L218.652 257.171L224.912 250.966L225.943 249.944L224.898 248.964L218.61 243.025L217.578 242.059L216.603 243.067L215.19 244.58L214.215 245.588L215.232 246.555L216.292 247.549H209.114C210.811 246.592 212.351 245.383 213.678 243.964C217.272 239.824 219.479 234.681 219.994 229.244L221.407 230.644L222.397 231.639L223.4 230.644L224.884 229.244L225.887 228.263L224.884 227.269L221.422 223.754L220.093 222.437L218.68 221.036L217.634 220Z" fill="white"/>
<path id="Vector_17" d="M206.302 251.037H219.952L216.236 254.72L217.719 256.191L223.937 249.973L217.649 244.034L216.236 245.547L219.853 248.95H206.542C205.328 249.418 204.075 249.779 202.797 250.029C203.99 250.272 205.162 250.609 206.302 251.037Z" fill="#2D5967"/>
<path id="Vector_18" d="M220.277 272.437L218.864 273.908C218.666 269.888 217.592 262.311 212.519 256.947C210.683 255.077 208.485 253.593 206.057 252.584C203.629 251.576 201.02 251.064 198.388 251.079C198.388 250.379 198.388 249.678 198.388 248.992C201.046 248.995 203.677 248.466 206.124 247.439C208.571 246.411 210.785 244.906 212.632 243.012C217.691 237.619 218.68 230.07 218.835 226.107L220.248 227.507L222.523 229.706L223.937 228.306L220.432 224.748L219.019 223.432L217.606 222.031L215.91 223.712L215.147 224.468L211.332 228.236L212.816 229.636L215.062 227.395L216.73 225.813C216.603 229.426 215.741 236.653 211.077 241.611C209.401 243.311 207.395 244.658 205.181 245.57C202.966 246.482 200.588 246.941 198.19 246.919C198.19 246.387 198.19 245.869 198.091 245.365C197.951 243.124 197.682 240.894 197.286 238.684C194.431 224.202 189.302 222.059 186.475 222.059C181.544 222.101 177.304 228.404 175.538 238.32C174.864 241.825 174.51 245.382 174.478 248.95H167.413V251.037H174.478C174.517 254.485 174.848 257.924 175.467 261.317C176.697 268.32 180.018 276.905 185.359 277.886C185.676 277.943 185.998 277.971 186.32 277.97C188.312 277.97 190.969 276.835 193.64 272.367C196.324 266.868 197.839 260.88 198.091 254.776C198.091 254.263 198.119 253.745 198.176 253.222C200.539 253.193 202.883 253.636 205.068 254.527C207.254 255.417 209.235 256.736 210.894 258.404C215.529 263.306 216.546 270.519 216.673 274.188L214.978 272.507L212.816 270.281L211.332 271.821L215.161 275.631L216.066 276.513L217.634 278.068L219.047 276.667L220.46 275.267L223.937 271.821L222.523 270.281L220.277 272.437ZM191.435 271.079C190.135 273.25 188.129 275.729 185.91 275.281C182.745 274.706 179.466 268.628 178.11 260.813C177.523 257.577 177.216 254.297 177.191 251.009H189.909L186.193 254.692L187.606 256.163L193.866 249.944L187.281 243.81L185.868 245.309L189.74 248.978H177.135C177.168 245.577 177.494 242.184 178.11 238.838C179.848 229.118 183.649 224.678 186.447 224.664C189.047 224.664 192.566 228.46 194.7 239.146C196.424 248.726 196.042 262.297 191.435 271.079Z" fill="#2D5967"/>
</g>
</g>
<g id="Icon Text Label_2">
<text id="IconLabel_2" fill="black" xml:space="preserve" style="white-space: pre" font-family="Oracle Sans" font-size="16" letter-spacing="0em"><tspan x="145.141" y="297.816">Load balancer</tspan></text>
</g>
</g>
<g id="OCI Subnet Boxes_New">
<rect x="272.5" y="120.5" width="199" height="271" stroke="#AA643B" stroke-dasharray="8 4"/>
<text id="Subnet" fill="#AE562C" xml:space="preserve" style="white-space: pre" font-family="Oracle Sans" font-size="16" font-weight="600" letter-spacing="0em"><tspan x="280" y="141.816">Regional Subnet</tspan></text>
<g id="Icon Master_4">
<g id="Security-Lists_red">
<g id="Group_4">
<g id="Group_5">
<path id="Vector_19" d="M442.622 139.337C435.239 136.588 431.737 131.848 430.033 128.247C428.14 124.171 428.14 120.758 428.14 120.569V106.92L443 100.569L457.766 106.92V120.664C457.766 121.232 457.576 134.123 443.474 139.337L443.095 139.526L442.622 139.337Z" fill="white"/>
<path id="Vector_20" d="M443 101.043L457.292 107.204V120.664C457.292 121.232 457.102 133.744 443.284 138.863L443 138.957L442.81 138.863C435.522 136.209 432.115 131.564 430.506 128.057C428.707 124.171 428.613 120.758 428.613 120.664V107.204L443 101.043ZM443 100L442.621 100.19L428.234 106.351L427.666 106.54V107.204V120.664C427.666 120.853 427.666 124.36 429.654 128.531C431.358 132.133 434.954 137.062 442.526 139.81L442.81 139.905L443.094 140L443.378 139.905L443.662 139.81C458.144 134.502 458.333 121.232 458.333 120.664V107.204V106.54L457.765 106.256L443.378 100.19L443 100Z" fill="white"/>
</g>
<g id="Group_6">
<path id="Vector_21" d="M443 101.042L428.613 107.204V120.663C428.613 120.758 428.613 124.17 430.506 128.057C432.115 131.564 435.617 136.208 442.81 138.862L443.094 138.957L443.378 138.862C457.197 133.744 457.386 121.137 457.386 120.663V107.204L443 101.042ZM455.872 120.663C455.872 121.137 455.683 132.606 443 137.441C437.699 135.45 433.913 132.133 431.736 127.488C430.032 123.791 430.032 120.758 430.032 120.663V108.151L443 102.559L455.872 108.151V120.663Z" fill="#AA643B"/>
<path id="Vector_22" d="M442.905 112.038H434.291V113.459H442.905V112.038Z" fill="#AA643B"/>
<path id="Vector_23" d="M451.707 111.374L450.666 110.426L447.921 113.175L446.785 112.038L445.744 113.08L447.921 115.166L451.707 111.374Z" fill="#AA643B"/>
<path id="Vector_24" d="M442.905 118.957H434.291V120.379H442.905V118.957Z" fill="#AA643B"/>
<path id="Vector_25" d="M450.192 117.156L448.773 118.672L447.258 117.156L446.312 118.198L447.732 119.62L446.312 121.042L447.258 122.085L448.773 120.663L450.192 122.085L451.139 121.042L449.719 119.62L451.139 118.198L450.192 117.156Z" fill="#AA643B"/>
<path id="Vector_26" d="M442.905 125.402H434.291V126.824H442.905V125.402Z" fill="#AA643B"/>
<path id="Vector_27" d="M451.707 124.739L450.666 123.791L447.921 126.54L446.785 125.402L445.744 126.445L447.921 128.53L451.707 124.739Z" fill="#AA643B"/>
</g>
</g>
</g>
</g>
</g>
<g id="Object Storage">
<g id="Services/Object-Storage">
<g id="Group_7">
<g id="Group_8">
<g id="Group_9">
<path id="Vector_28" d="M629.85 279.286C628.139 279.286 626.714 277.857 626.714 276.143V223.857C626.714 222.143 628.139 220.714 629.85 220.714H682.154C683.864 220.714 685.289 222.143 685.289 223.857V276.286C685.289 278 683.864 279.429 682.154 279.429L629.85 279.286Z" fill="white"/>
<path id="Vector_29" d="M682.01 221.429C683.292 221.429 684.432 222.571 684.432 223.857V276.286C684.432 277.571 683.292 278.714 682.01 278.714H629.848C628.565 278.571 627.425 277.429 627.425 276.143V223.857C627.425 222.571 628.565 221.429 629.848 221.429H682.01ZM682.01 220H629.848C627.71 220 626 221.714 626 223.857V276.286C626 278.286 627.71 280 629.848 280H682.152C684.29 280 686 278.286 686 276.143V223.857C685.857 221.714 684.147 220 682.01 220Z" fill="white"/>
</g>
<g id="Group_10">
<g id="Group_11">
<path id="Vector_30" d="M669.325 236.572L673.173 243.286L669.325 250H661.629L657.781 243.286L661.629 236.572H669.325ZM670.608 234.572H660.346L655.216 243.429L660.346 252.286H670.608L675.738 243.429L670.608 234.572Z" fill="#2D5967"/>
</g>
<g id="Group_12">
<path id="Vector_31" d="M655.499 257C659.205 257 662.198 260 662.198 263.714C662.198 267.429 659.205 270.429 655.499 270.429C651.794 270.429 648.801 267.429 648.801 263.714C648.801 260 651.794 257 655.499 257ZM655.499 255C650.654 255 646.663 259 646.663 263.857C646.663 268.714 650.654 272.714 655.499 272.714C660.345 272.714 664.336 268.714 664.336 263.857C664.336 258.857 660.345 255 655.499 255Z" fill="#2D5967"/>
</g>
<g id="Group_13">
<path id="Vector_32" d="M645.382 238.286L651.652 249.572H639.253L645.382 238.286ZM645.382 234L635.69 251.715H655.215L645.382 234Z" fill="#2D5967"/>
</g>
</g>
<g id="Group_14">
<path id="Vector_33" d="M682.01 278.572H629.848C628.566 278.572 627.426 277.429 627.426 276.144V227.144H684.433V276.144C684.433 277.429 683.293 278.572 682.01 278.572ZM629.563 229.286V276.286C629.563 276.429 629.706 276.572 629.848 276.572H682.153C682.295 276.572 682.438 276.429 682.438 276.286V229.286H629.563Z" fill="#2D5967"/>
</g>
<g id="Group_15">
<path id="Vector_34" d="M684.433 225.572H627.426V223.858C627.426 222.572 628.566 221.429 629.848 221.429H682.153C683.293 221.429 684.433 222.572 684.433 223.858V225.572Z" fill="#2D5967"/>
</g>
</g>
</g>
</g>
<g id="Icon Text Label_3">
<text id="IconLabel_3" fill="black" xml:space="preserve" style="white-space: pre" font-family="Oracle Sans" font-size="16" letter-spacing="0em"><tspan x="617.367" y="297.816">OCI Object</tspan></text>
<text id="IconLabel_4" fill="black" xml:space="preserve" style="white-space: pre" font-family="Oracle Sans" font-size="16" letter-spacing="0em"><tspan x="628.188" y="313.816">Storage</tspan></text>
</g>
</g>
<g id="Object Storage_2">
<g id="Virtual-Machine-VM">
<g id="Group_16">
<g id="Group_17">
<path id="Vector_35" d="M345.85 219.286C344.139 219.286 342.714 217.857 342.714 216.143V163.857C342.714 162.143 344.139 160.714 345.85 160.714H398.154C399.864 160.714 401.289 162.143 401.289 163.857V216.286C401.289 218 399.864 219.429 398.154 219.429L345.85 219.286Z" fill="white"/>
<path id="Vector_36" d="M398.01 161.429C399.292 161.429 400.432 162.571 400.432 163.857V216.286C400.432 217.571 399.292 218.714 398.01 218.714H345.848C344.565 218.571 343.425 217.429 343.425 216.143V163.857C343.425 162.571 344.565 161.429 345.848 161.429H398.01ZM398.01 160H345.848C343.71 160 342 161.714 342 163.857V216.286C342 218.286 343.71 220 345.848 220H398.152C400.29 220 402 218.286 402 216.143V163.857C401.857 161.714 400.147 160 398.01 160Z" fill="white"/>
</g>
<g id="Group_18">
<path id="Vector_37" d="M398.01 161.429H345.848C344.566 161.429 343.426 162.572 343.426 163.858V216.286C343.426 217.429 344.566 218.572 345.848 218.572H398.153C399.435 218.572 400.575 217.429 400.575 216.143V163.858C400.433 162.572 399.293 161.429 398.01 161.429ZM398.295 216.143C398.295 216.286 398.153 216.429 398.01 216.429H345.848C345.706 216.429 345.563 216.286 345.563 216.143V163.858C345.563 163.715 345.706 163.572 345.848 163.572H398.153C398.295 163.572 398.438 163.715 398.438 163.858L398.295 216.143Z" fill="#2D5967"/>
<path id="Vector_38" d="M351.406 210.573H392.879V197.858H351.406V210.573ZM353.401 200.001H390.599V208.573H353.401V200.001Z" fill="#2D5967"/>
<path id="Vector_39" d="M385.895 205.858C386.761 205.858 387.463 205.154 387.463 204.286C387.463 203.418 386.761 202.715 385.895 202.715C385.029 202.715 384.328 203.418 384.328 204.286C384.328 205.154 385.029 205.858 385.895 205.858Z" fill="#2D5967"/>
<path id="Vector_40" d="M363.948 169.429H351.406V182.143H364.09L363.948 169.429ZM361.953 180H353.401V171.429H361.953V180Z" fill="#2D5967"/>
<path id="Vector_41" d="M378.201 169.429H365.516V182.143H378.201V169.429ZM376.205 180H367.654V171.429H376.205V180Z" fill="#2D5967"/>
<path id="Vector_42" d="M363.948 183.714H351.406V196.429H364.09L363.948 183.714ZM361.953 194.286H353.401V185.714H361.953V194.286Z" fill="#2D5967"/>
<path id="Vector_43" d="M378.201 183.714H365.516V196.429H378.201V183.714ZM376.205 194.286H367.654V185.714H376.205V194.286Z" fill="#2D5967"/>
<path id="Vector_44" d="M392.452 169.429H379.768V182.143H392.452V169.429ZM390.457 180H381.906V171.429H390.457V180Z" fill="#2D5967"/>
<path id="Vector_45" d="M392.452 183.714H379.768V196.429H392.452V183.714ZM390.457 194.286H381.906V185.714H390.457V194.286Z" fill="#2D5967"/>
</g>
</g>
</g>
<g id="Icon Text Label_4">
<text id="IconLabel_5" fill="black" xml:space="preserve" style="white-space: pre" font-family="Oracle Sans" font-size="16" letter-spacing="0em"><tspan x="347.961" y="237.816">Virtual</tspan></text>
<text id="IconLabel_6" fill="black" xml:space="preserve" style="white-space: pre" font-family="Oracle Sans" font-size="16" letter-spacing="0em"><tspan x="340.977" y="253.816">Machine</tspan></text>
</g>
</g>
<g id="Object Storage_3">
<g id="Virtual-Machine-VM_2">
<g id="Group_19">
<g id="Group_20">
<path id="Vector_46" d="M345.85 339.377C344.139 339.377 342.714 337.949 342.714 336.234V283.949C342.714 282.234 344.139 280.806 345.85 280.806H398.154C399.864 280.806 401.289 282.234 401.289 283.949V336.377C401.289 338.091 399.864 339.52 398.154 339.52L345.85 339.377Z" fill="white"/>
<path id="Vector_47" d="M398.01 281.52C399.292 281.52 400.432 282.663 400.432 283.948V336.377C400.432 337.663 399.292 338.806 398.01 338.806H345.848C344.565 338.663 343.425 337.52 343.425 336.234V283.948C343.425 282.663 344.565 281.52 345.848 281.52H398.01ZM398.01 280.091H345.848C343.71 280.091 342 281.806 342 283.948V336.377C342 338.377 343.71 340.091 345.848 340.091H398.152C400.29 340.091 402 338.377 402 336.234V283.948C401.857 281.806 400.147 280.091 398.01 280.091Z" fill="white"/>
</g>
<g id="Group_21">
<path id="Vector_48" d="M398.01 281.521H345.848C344.566 281.521 343.426 282.663 343.426 283.949V336.378C343.426 337.521 344.566 338.663 345.848 338.663H398.153C399.435 338.663 400.575 337.521 400.575 336.235V283.949C400.433 282.663 399.293 281.521 398.01 281.521ZM398.295 336.235C398.295 336.378 398.153 336.521 398.01 336.521H345.848C345.706 336.521 345.563 336.378 345.563 336.235V283.949C345.563 283.806 345.706 283.663 345.848 283.663H398.153C398.295 283.663 398.438 283.806 398.438 283.949L398.295 336.235Z" fill="#2D5967"/>
<path id="Vector_49" d="M351.406 330.664H392.879V317.95H351.406V330.664ZM353.401 320.093H390.599V328.664H353.401V320.093Z" fill="#2D5967"/>
<path id="Vector_50" d="M385.895 325.949C386.761 325.949 387.463 325.245 387.463 324.378C387.463 323.51 386.761 322.806 385.895 322.806C385.029 322.806 384.328 323.51 384.328 324.378C384.328 325.245 385.029 325.949 385.895 325.949Z" fill="#2D5967"/>
<path id="Vector_51" d="M363.948 289.52H351.406V302.234H364.09L363.948 289.52ZM361.953 300.091H353.401V291.52H361.953V300.091Z" fill="#2D5967"/>
<path id="Vector_52" d="M378.201 289.52H365.516V302.234H378.201V289.52ZM376.205 300.091H367.654V291.52H376.205V300.091Z" fill="#2D5967"/>
<path id="Vector_53" d="M363.948 303.806H351.406V316.52H364.09L363.948 303.806ZM361.953 314.377H353.401V305.806H361.953V314.377Z" fill="#2D5967"/>
<path id="Vector_54" d="M378.201 303.806H365.516V316.52H378.201V303.806ZM376.205 314.377H367.654V305.806H376.205V314.377Z" fill="#2D5967"/>
<path id="Vector_55" d="M392.452 289.52H379.768V302.234H392.452V289.52ZM390.457 300.091H381.906V291.52H390.457V300.091Z" fill="#2D5967"/>
<path id="Vector_56" d="M392.452 303.806H379.768V316.52H392.452V303.806ZM390.457 314.377H381.906V305.806H390.457V314.377Z" fill="#2D5967"/>
</g>
</g>
</g>
<g id="Icon Text Label_5">
<text id="IconLabel_7" fill="black" xml:space="preserve" style="white-space: pre" font-family="Oracle Sans" font-size="16" letter-spacing="0em"><tspan x="347.961" y="357.907">Virtual</tspan></text>
<text id="IconLabel_8" fill="black" xml:space="preserve" style="white-space: pre" font-family="Oracle Sans" font-size="16" letter-spacing="0em"><tspan x="340.977" y="373.907">Machine</tspan></text>
</g>
</g>
<g id="Object Storage_4">
<g id="Autonomous-Database">
<g id="Group 7">
<path id="Vector_57" d="M542.391 279.449C538.548 279.449 534.829 279.078 532.102 278.458C528.507 277.59 526.647 276.226 526.647 274.367V256.392H515.118L515.242 254.532C515.614 249.945 518.218 245.978 522.309 243.871C523.176 243.375 523.796 242.631 524.044 241.64C524.664 238.416 526.895 235.689 529.871 234.449C531.11 233.954 532.474 233.582 533.961 233.582C534.209 233.582 534.581 233.582 534.953 233.582C535.077 233.582 535.201 233.582 535.325 233.582C536.193 233.582 537.061 233.21 537.556 232.59C539.664 230.235 542.515 228.871 545.614 228.623H546.854C551.441 228.747 555.532 231.35 557.515 235.441C557.639 235.689 557.887 236.061 558.135 236.309C558.383 236.681 558.879 237.301 559.127 237.797C562.846 237.921 566.193 239.904 568.176 243.003V243.127L568.548 244.987L573.631 250.069L571.152 252.549L569.54 250.937C568.548 256.144 563.961 259.987 558.507 259.987C558.383 259.987 558.135 259.987 558.011 259.987V274.243C558.011 276.102 556.275 277.466 552.556 278.334C549.953 279.078 546.234 279.449 542.391 279.449Z" fill="white"/>
<path id="Vector_58" d="M546.36 229.244C550.822 229.244 554.789 231.723 556.773 235.69C557.021 236.062 557.145 236.434 557.517 236.682C557.764 237.054 558.26 237.798 558.632 238.294C562.351 238.294 565.698 240.277 567.558 243.252L568.054 245.236L572.888 250.071L571.277 251.682L569.169 249.575C568.798 255.029 564.211 259.368 558.632 259.368C558.26 259.368 557.888 259.368 557.517 259.244V274.244C557.517 275.732 555.905 276.971 552.558 277.715C549.831 278.335 546.236 278.707 542.393 278.707C538.55 278.707 534.955 278.335 532.227 277.715C528.88 276.971 527.269 275.732 527.269 274.244V255.649H515.864L515.988 254.409C516.36 250.071 518.839 246.228 522.682 244.244C523.674 243.872 524.417 242.88 524.665 241.765C525.285 238.79 527.269 236.186 530.12 234.947C531.36 234.451 532.599 234.203 533.963 234.203C534.211 234.203 534.583 234.203 534.831 234.203C534.955 234.203 535.079 234.203 535.202 234.203C536.194 234.203 537.186 233.831 537.93 233.087C540.037 230.732 543.012 229.492 546.112 229.368V230.484V229.368C546.112 229.244 546.236 229.244 546.36 229.244ZM547.227 228.004H545.988H544.748V228.128C541.773 228.5 538.921 229.864 536.814 232.095C536.442 232.715 535.822 232.963 535.079 232.963C534.955 232.963 534.955 232.963 534.831 232.963C534.459 232.963 534.211 232.963 533.839 232.963C532.351 232.963 530.864 233.335 529.5 233.831C526.277 235.194 524.045 238.046 523.302 241.517C523.178 242.261 522.682 243.004 521.938 243.376C517.723 245.608 514.996 249.823 514.624 254.533L514.5 255.773V257.013H515.864H526.029V274.368C526.029 277.591 530.492 278.707 531.979 279.079C534.831 279.699 538.55 280.071 542.393 280.071C546.36 280.071 549.955 279.699 552.806 279.079C554.293 278.707 558.756 277.715 558.756 274.368V260.732C563.963 260.732 568.55 257.137 569.913 252.178L570.285 252.55L571.153 253.418L572.021 252.55L573.632 250.938L574.5 250.071L573.632 249.203L569.045 244.616L568.674 243.004V242.756L568.55 242.632C566.566 239.409 563.095 237.302 559.252 237.054C559.004 236.682 558.632 236.186 558.508 235.938V235.814L558.384 235.69C558.26 235.69 558.012 235.442 557.888 235.194C555.905 230.98 551.814 228.376 547.227 228.004Z" fill="white"/>
<path id="Vector_59" d="M518.343 253.541H525.533V255.773H515.863L515.987 254.533C516.359 250.194 518.839 246.351 522.682 244.368C523.673 243.872 524.417 242.88 524.665 241.764C525.285 238.789 527.268 236.186 530.12 234.946C531.483 234.202 533.095 233.954 534.706 234.202C535.946 234.326 537.062 233.954 537.806 233.087C539.913 230.731 542.888 229.492 545.987 229.368C546.111 229.368 546.235 229.368 546.235 229.368C550.698 229.368 554.665 231.847 556.649 235.814C556.897 236.186 557.02 236.558 557.392 236.806C556.525 236.93 555.657 237.054 554.913 237.302C554.789 237.178 554.789 237.054 554.665 236.806C553.054 233.583 549.83 231.599 546.235 231.599C546.111 231.599 546.111 231.599 545.987 231.599C543.508 231.599 541.029 232.715 539.293 234.574C538.054 235.938 536.194 236.682 534.335 236.434C533.095 236.31 531.979 236.558 530.739 237.054C528.632 238.045 527.02 239.905 526.649 242.26C526.277 244.12 525.161 245.607 523.425 246.475C520.822 247.839 518.963 250.442 518.343 253.541ZM557.516 242.88H559.748L562.847 253.913H560.368L559.996 251.558H557.268L556.649 253.913H554.293L557.516 242.88ZM557.64 249.698H559.5L558.508 245.607L557.64 249.698ZM548.095 248.211L545.987 246.103L544.376 247.715L549.211 252.549L554.045 247.715L552.434 246.103L550.45 248.087C550.822 243.872 554.417 240.649 558.632 240.649C561.731 240.649 564.458 242.384 565.946 244.988L567.558 243.376C565.698 240.401 562.351 238.417 558.632 238.417C553.054 238.417 548.467 242.756 548.095 248.211ZM572.888 250.07L568.054 245.359L563.219 250.194L564.83 251.806L566.814 249.822C566.442 254.037 562.847 257.26 558.632 257.26C555.533 257.26 552.806 255.525 551.318 252.921L549.706 254.533C551.566 257.508 554.913 259.492 558.632 259.492C564.211 259.492 568.797 255.153 569.169 249.698L571.277 251.806L572.888 250.07ZM555.161 260.979C555.905 261.227 556.649 261.351 557.392 261.475V274.492C557.392 275.979 555.781 277.219 552.434 277.963C549.706 278.583 546.111 278.954 542.268 278.954C538.425 278.954 534.83 278.583 532.103 277.963C528.756 277.219 527.144 275.979 527.144 274.492V250.07C527.144 248.583 528.756 247.467 532.103 246.723C534.706 246.103 538.301 245.855 542.268 245.855C542.392 245.855 542.64 245.855 542.888 245.855V248.087C542.764 248.087 542.516 248.087 542.268 248.087C534.087 248.087 529.996 249.45 529.5 250.194V250.318C529.996 251.186 534.706 252.549 542.268 252.549C543.88 252.549 545.244 252.549 546.607 252.426C546.855 253.169 547.103 253.913 547.475 254.657C545.863 254.781 544.128 254.905 542.268 254.905C538.425 254.905 534.83 254.533 532.103 253.913C530.987 253.665 530.12 253.417 529.376 253.045V258.376C529.872 259.244 534.582 260.607 542.144 260.607C546.359 260.607 549.706 260.111 551.938 259.616C553.054 260.111 554.045 260.607 555.161 260.979C554.417 261.351 553.549 261.599 552.434 261.847C549.706 262.467 546.111 262.839 542.268 262.839C538.425 262.839 534.83 262.467 532.103 261.847C530.987 261.599 530.12 261.351 529.376 260.979V266.31C529.872 267.178 534.582 268.541 542.144 268.541C549.706 268.541 554.417 267.054 554.913 266.31L555.161 260.979ZM555.161 269.037C554.417 269.409 553.549 269.657 552.434 269.905C549.706 270.525 546.111 270.897 542.268 270.897C538.425 270.897 534.83 270.525 532.103 269.905C530.987 269.657 530.12 269.409 529.376 269.037V274.368C529.872 275.111 534.087 276.599 542.144 276.599C550.202 276.599 554.541 274.988 554.913 274.368L555.161 269.037Z" fill="#2D5967"/>
</g>
</g>
<g id="Icon Text Label_6">
<text id="IconLabel_9" fill="black" xml:space="preserve" style="white-space: pre" font-family="Oracle Sans" font-size="16" letter-spacing="0em"><tspan x="497.453" y="297.816">Autonomous</tspan></text>
<text id="IconLabel_10" fill="black" xml:space="preserve" style="white-space: pre" font-family="Oracle Sans" font-size="16" letter-spacing="0em"><tspan x="510.742" y="313.816">Database</tspan></text>
</g>
</g>
<path id="Vector 97" d="M164 250C162.664 250 92.1646 250 57.0822 250" stroke="#312D2A" stroke-width="2"/>
<path id="Vector 98" d="M512 250C511.1 250 463.625 250 440 250" stroke="#312D2A" stroke-width="2"/>
<path id="Vector 105" d="M404.031 192H440V312H404.031" stroke="#312D2A" stroke-width="2"/>
<path id="Vector 106" d="M227.094 250C228.055 250 278.776 250 304.016 250" stroke="#312D2A" stroke-width="2"/>
<path id="Vector 107" d="M339.984 192H304.016V312H339.984" stroke="#312D2A" stroke-width="2"/>
</g>
<defs>
<clipPath id="clip0_17615_377697">
<rect width="728" height="416" fill="white"/>
</clipPath>
</defs>
</svg>
