<svg width="992" height="392" viewBox="0 0 992 392" fill="none" xmlns="http://www.w3.org/2000/svg">
<g id="oracle-integration-rest-oauth-diagram">
<rect width="992" height="392" fill="white"/>
<g id="OCI Region">
<rect x="208.5" y="0.5" width="783" height="391" rx="3.5" fill="#F5F4F2"/>
<rect x="208.5" y="0.5" width="783" height="391" rx="3.5" stroke="#9E9892"/>
<text id="OCI Region_2" fill="#312D2A" xml:space="preserve" style="white-space: pre" font-family="Oracle Sans" font-size="16" font-weight="bold" letter-spacing="0em"><tspan x="216" y="21.816">OCI Region</tspan></text>
</g>
<g id="OCI Region_3">
<rect x="833" y="113" width="151" height="270" stroke="#9E9892" stroke-width="2" stroke-dasharray="8 4"/>
<text id="Oracle Services Network" fill="#312D2A" xml:space="preserve" style="white-space: pre" font-family="Oracle Sans" font-size="16" font-weight="600" letter-spacing="0em"><tspan x="840" y="133.816">Oracle</tspan></text>
<text id="Oracle Services Network_2" fill="#312D2A" xml:space="preserve" style="white-space: pre" font-family="Oracle Sans" font-size="16" font-weight="600" letter-spacing="0em"><tspan x="840" y="149.816">Services Network</tspan></text>
<rect id="Rectangle 692" x="934" y="112" width="44" height="2" fill="#F5F4F2"/>
<g id="Srv-Oracle Services Network">
<g id="Group 747">
<path id="Vector" d="M959.153 128.837L959.153 127.486L952.842 127.486L952.842 128.837L948.42 131.387L944.007 128.837L944.007 123.735L945.128 123.091L941.995 117.636L940.847 118.289L936.434 115.739L936.434 110.646L940.847 108.095L942.074 108.801L945.137 103.364L944.007 102.711L944.007 97.6186L948.42 95.0679L952.842 97.6186L952.842 98.969L959.153 98.969L959.153 97.6186L963.566 95.0679L967.979 97.6186L967.979 102.711L966.867 103.364L969.991 108.757L971.139 108.095L975.56 110.646L975.56 115.739L971.139 118.289L970.071 117.672L966.867 123.1L967.979 123.735L967.979 128.837L963.566 131.387L959.153 128.837Z" fill="white"/>
<path id="Vector_2" d="M963.566 95.5707L967.546 97.8743L967.546 102.499L966.258 103.241L969.788 109.419L971.103 108.66L975.075 110.955L975.075 115.553L971.103 117.848L969.876 117.133L966.231 123.311L967.511 124.044L967.511 128.633L963.53 130.928L959.559 128.633L959.559 127.045L952.401 127.045L952.401 128.58L948.42 130.875L944.448 128.58L944.448 123.991L945.702 123.249L942.171 117.071L940.865 117.83L936.876 115.491L936.876 110.893L940.847 108.598L942.242 109.401L945.772 103.223L944.448 102.499L944.448 97.8743L948.42 95.5707L952.401 97.8743L952.401 99.41L959.594 99.41L959.594 97.8743L963.566 95.5707ZM963.566 94.5557L963.124 94.8116L959.153 97.1064L958.711 97.3624L958.711 98.5274L953.283 98.5274L953.283 97.3624L952.842 97.1064L948.861 94.8116L948.42 94.5557L947.979 94.8116L944.007 97.1064L943.566 97.3624L943.566 102.967L944.007 103.223L944.537 103.532L941.889 108.192L941.271 107.839L940.83 107.583L940.388 107.839L936.434 110.134L935.993 110.39L935.993 115.994L936.434 116.25L940.406 118.545L940.847 118.801L941.289 118.545L941.827 118.236L944.528 122.932L944.007 123.232L943.566 123.488L943.566 129.092L944.007 129.348L947.979 131.643L948.42 131.899L948.861 131.643L952.842 129.348L953.283 129.092L953.283 127.927L958.711 127.927L958.711 129.092L959.153 129.348L963.124 131.643L963.566 131.899L964.007 131.643L967.988 129.348L968.429 129.092L968.429 123.488L967.988 123.232L967.476 122.94L970.229 118.271L970.697 118.545L971.139 118.801L971.58 118.545L975.552 116.25L975.993 115.994L975.993 110.39L975.552 110.134L971.58 107.839L971.139 107.583L970.697 107.839L970.15 108.157L967.502 103.523L968.023 103.223L968.464 102.967L968.464 97.3624L968.023 97.1064L964.007 94.8116L963.566 94.5557Z" fill="white"/>
<path id="Vector_3" d="M971.139 108.598L969.823 109.357L966.293 103.179L967.546 102.499L967.546 97.8744L963.566 95.5708L959.594 97.8744L959.594 99.4102L952.401 99.4102L952.401 97.8744L948.42 95.5708L944.448 97.8744L944.448 102.499L945.702 103.205L942.171 109.384L940.847 108.598L936.875 110.893L936.875 115.491L940.847 117.786L942.171 117.027L945.702 123.205L944.422 123.947L944.422 128.536L948.394 130.831L952.374 128.536L952.374 127.045L959.567 127.045L959.567 128.581L963.539 130.875L967.52 128.581L967.52 123.991L966.24 123.258L969.885 117.08L971.112 117.795L975.084 115.5L975.084 110.893L971.139 108.598ZM961.103 98.7482L963.566 97.3272L966.002 98.7482L966.002 101.617L963.566 103.011L961.103 101.617L961.103 98.7482ZM945.966 98.7482L948.42 97.3272L950.883 98.7482L950.883 101.617L948.42 103.011L945.966 101.617L945.966 98.7482ZM938.394 114.635L938.394 111.776L940.847 110.355L943.31 111.776L943.31 114.609L940.847 116.03L938.394 114.635ZM950.883 127.707L948.42 129.128L945.966 127.707L945.966 124.865L948.42 123.444L950.883 124.865L950.883 127.707ZM966.028 127.707L963.566 129.128L961.103 127.707L961.103 124.865L963.566 123.444L966.002 124.865L966.028 127.707ZM964.951 122.499L963.566 121.696L962.33 122.411L959.973 118.386L958.208 118.386L961.006 123.214L959.576 124.035L959.576 125.535L952.401 125.535L952.401 123.991L950.997 123.17L953.795 118.386L952.03 118.386L949.656 122.464L948.411 121.74L947.034 122.543L943.504 116.365L944.819 115.491L944.819 113.973L948.438 113.973C948.829 113.386 949.344 112.892 949.947 112.526C949.95 112.505 949.95 112.484 949.947 112.464L944.819 112.464L944.819 110.893L943.539 110.16L947.07 103.982L948.438 104.776L949.885 103.894L953.195 109.596C953.411 109.56 953.629 109.542 953.848 109.543L953.919 109.543C954.133 109.347 954.363 109.17 954.607 109.013L951.183 103.161L952.401 102.499L952.401 100.919L959.594 100.919L959.594 102.499L960.856 103.223L957.829 108.43C958.339 108.52 958.831 108.693 959.285 108.942L962.171 103.982L963.566 104.794L964.951 103.991L968.482 110.169L967.131 110.946L967.131 112.473L963.583 112.473C963.89 112.93 964.111 113.438 964.236 113.973L967.14 113.973L967.14 115.483L968.57 116.303L964.951 122.499ZM973.601 114.609L971.139 116.03L968.65 114.609L968.65 111.776L971.112 110.355L973.575 111.776L973.601 114.609Z" fill="#2D5967"/>
<path id="Vector_4" d="M962.639 117.203L962.851 116.806C963.277 116.013 963.383 115.086 963.149 114.217C962.914 113.347 962.356 112.6 961.589 112.128C961.247 111.913 960.871 111.758 960.477 111.669C960.399 111.654 960.325 111.621 960.261 111.574C960.197 111.526 960.144 111.466 960.106 111.396C959.824 110.815 959.383 110.325 958.835 109.983C958.287 109.641 957.654 109.461 957.008 109.463C956.542 109.471 956.082 109.573 955.656 109.763C955.23 109.952 954.846 110.225 954.528 110.566C954.476 110.623 954.411 110.666 954.339 110.692C954.267 110.718 954.189 110.726 954.113 110.716C953.627 110.671 953.137 110.753 952.692 110.955C952.262 111.138 951.883 111.424 951.588 111.787C951.292 112.15 951.09 112.579 950.997 113.037C950.984 113.111 950.955 113.18 950.912 113.241C950.869 113.302 950.814 113.353 950.75 113.391C950.192 113.681 949.716 114.109 949.369 114.634C949.021 115.159 948.813 115.764 948.764 116.391L948.703 117.203L962.639 117.203ZM952.489 113.329C952.532 113.112 952.627 112.91 952.766 112.738C952.904 112.566 953.081 112.429 953.283 112.34C953.493 112.245 953.724 112.206 953.954 112.225C954.26 112.258 954.57 112.219 954.858 112.11C955.147 112.001 955.405 111.826 955.613 111.599C955.827 111.366 956.094 111.188 956.392 111.082C956.69 110.976 957.009 110.945 957.322 110.991C957.635 111.037 957.931 111.16 958.186 111.347C958.44 111.535 958.645 111.782 958.782 112.067C958.919 112.339 959.116 112.577 959.357 112.763C959.598 112.95 959.878 113.08 960.176 113.143C960.404 113.196 960.622 113.286 960.821 113.408C961.192 113.644 961.478 113.992 961.637 114.402C961.796 114.811 961.819 115.261 961.703 115.685L950.512 115.685C950.717 115.275 951.048 114.941 951.456 114.732C951.723 114.592 951.955 114.392 952.134 114.149C952.313 113.906 952.434 113.626 952.489 113.329Z" fill="#2D5967"/>
</g>
</g>
</g>
<g id="Oracle Integration">
<g id="Srv-Oracle Integration Cloud Service">
<g id="Group 518">
<path id="Vector_5" d="M921.641 248.26C920.819 248.266 920.01 248.062 919.29 247.668C918.569 247.274 917.962 246.702 917.525 246.007C917.088 245.313 916.836 244.518 916.793 243.698C916.75 242.878 916.918 242.062 917.28 241.325C917.42 241.027 917.592 240.746 917.793 240.485C916.086 241.195 914.255 241.558 912.406 241.553C909.123 241.55 905.942 240.415 903.399 238.339C900.857 236.264 899.11 233.375 898.454 230.161C898.386 229.865 898.334 229.565 898.297 229.264C897.893 230.336 897.12 231.229 896.117 231.782C895.113 232.335 893.945 232.513 892.822 232.283C891.699 232.053 890.695 231.431 889.99 230.528C889.285 229.625 888.926 228.5 888.977 227.356C888.982 226.499 889.213 225.66 889.646 224.921H879.671L879.927 222.813C880.119 220.422 880.921 218.12 882.256 216.126C883.59 214.132 885.413 212.512 887.552 211.421C888.006 211.172 888.396 210.821 888.692 210.396C888.989 209.971 889.184 209.484 889.262 208.972C889.745 206.51 891.069 204.293 893.009 202.701C894.949 201.108 897.383 200.239 899.893 200.243C900.221 200.243 900.563 200.243 900.891 200.243H901.233C901.681 200.248 902.126 200.16 902.538 199.983C902.951 199.807 903.321 199.546 903.627 199.218C904.87 197.878 906.376 196.807 908.05 196.072C909.724 195.337 911.532 194.954 913.361 194.946C915.828 194.937 918.248 195.62 920.346 196.916C922.444 198.212 924.137 200.07 925.232 202.279C925.447 202.779 925.775 203.222 926.19 203.573C926.606 203.924 927.097 204.173 927.626 204.301C929.145 204.633 930.592 205.231 931.902 206.067C934.809 207.9 936.913 210.767 937.788 214.089C938.664 217.41 938.246 220.941 936.619 223.967L936.077 224.978H926.429C926.581 225.78 926.658 226.596 926.657 227.413C926.655 229.581 926.157 231.721 925.201 233.668C924.245 235.615 922.857 237.318 921.142 238.648V238.719H921.584H921.997C922.286 238.744 922.573 238.796 922.852 238.876C923.975 239.183 924.949 239.887 925.594 240.857C926.238 241.826 926.508 242.996 926.355 244.15C926.202 245.304 925.636 246.363 924.761 247.132C923.887 247.901 922.763 248.327 921.598 248.331L921.641 248.26Z" fill="white"/>
<path id="Vector_6" d="M913.36 195.756C915.697 195.746 917.99 196.393 919.978 197.621C921.966 198.85 923.569 200.611 924.604 202.705C924.883 203.264 925.284 203.754 925.777 204.139C926.27 204.523 926.844 204.792 927.454 204.926C928.899 205.252 930.277 205.82 931.53 206.607C934.294 208.336 936.295 211.052 937.126 214.202C937.957 217.352 937.557 220.701 936.005 223.566L935.663 224.207H925.559C926.219 226.849 926.058 229.629 925.098 232.178C924.139 234.727 922.425 236.923 920.186 238.475L920.828 239.501C921.09 239.444 921.357 239.416 921.626 239.415H921.982C922.227 239.437 922.471 239.48 922.709 239.543C923.577 239.78 924.343 240.294 924.89 241.008C925.437 241.722 925.733 242.595 925.735 243.494C925.736 244.393 925.442 245.267 924.898 245.983C924.353 246.698 923.588 247.215 922.721 247.454C921.854 247.693 920.932 247.64 920.098 247.305C919.263 246.969 918.562 246.369 918.102 245.596C917.643 244.823 917.45 243.921 917.553 243.028C917.657 242.135 918.051 241.301 918.676 240.654L918.063 239.686C916.211 240.544 914.189 240.971 912.148 240.936C910.107 240.9 908.1 240.402 906.28 239.479C904.459 238.557 902.872 237.234 901.637 235.609C900.402 233.985 899.552 232.102 899.151 230.102C899.052 229.632 898.981 229.157 898.938 228.678H897.769C897.57 229.282 897.234 229.832 896.786 230.284C896.338 230.735 895.791 231.077 895.188 231.281C894.586 231.485 893.944 231.547 893.314 231.461C892.683 231.375 892.081 231.143 891.556 230.785C891.03 230.426 890.595 229.95 890.285 229.395C889.975 228.84 889.799 228.22 889.77 227.585C889.741 226.95 889.86 226.316 890.118 225.735C890.376 225.154 890.765 224.641 891.256 224.236H880.539L880.639 222.926C880.796 220.649 881.534 218.451 882.781 216.539C884.028 214.628 885.744 213.066 887.765 212.004C888.316 211.721 888.796 211.318 889.171 210.825C889.546 210.332 889.806 209.762 889.931 209.156C890.243 207.557 890.937 206.058 891.955 204.786C892.972 203.514 894.282 202.507 895.774 201.851C897.06 201.291 898.447 201 899.85 200.996H900.79H901.189C901.724 200.989 902.252 200.874 902.742 200.659C903.231 200.444 903.673 200.132 904.04 199.743C905.232 198.47 906.677 197.459 908.281 196.773C909.885 196.086 911.615 195.74 913.36 195.756ZM913.36 194.332C911.436 194.334 909.533 194.731 907.77 195.501C906.007 196.27 904.422 197.394 903.113 198.803C902.872 199.059 902.58 199.262 902.257 199.4C901.933 199.537 901.584 199.605 901.232 199.601H900.961C900.605 199.579 900.248 199.579 899.892 199.601C897.218 199.606 894.627 200.536 892.562 202.234C890.496 203.932 889.083 206.292 888.563 208.914C888.481 209.314 888.311 209.69 888.065 210.016C887.818 210.341 887.501 210.607 887.137 210.793C884.904 211.959 883.004 213.674 881.618 215.777C880.232 217.88 879.404 220.301 879.214 222.812L879.114 224.122L879 225.66H888.605C888.419 226.215 888.322 226.797 888.32 227.383C888.318 228.497 888.653 229.586 889.281 230.506C889.909 231.427 890.801 232.136 891.84 232.541C892.879 232.946 894.016 233.028 895.102 232.776C896.188 232.523 897.172 231.949 897.926 231.128C898.765 234.329 900.64 237.164 903.258 239.191C905.877 241.218 909.093 242.323 912.405 242.334C913.743 242.332 915.075 242.155 916.367 241.808C916.131 242.535 916.051 243.304 916.132 244.065C916.213 244.825 916.453 245.56 916.837 246.222C917.322 247.067 918.021 247.768 918.865 248.256C919.708 248.743 920.666 249 921.64 248.999C922.6 249.003 923.544 248.752 924.376 248.272C925.007 247.912 925.561 247.431 926.006 246.856C926.451 246.282 926.778 245.625 926.969 244.924C927.159 244.223 927.21 243.491 927.117 242.771C927.024 242.05 926.79 241.355 926.428 240.725C926.07 240.094 925.59 239.541 925.014 239.099C924.439 238.656 923.781 238.333 923.079 238.148L922.837 238.077C924.268 236.686 925.406 235.024 926.185 233.187C926.963 231.351 927.366 229.377 927.369 227.383C927.366 226.807 927.328 226.231 927.255 225.66H936.518L936.917 224.919L937.259 224.278C938.32 222.337 938.912 220.175 938.991 217.964C939.07 215.753 938.632 213.555 937.712 211.543C936.792 209.531 935.416 207.76 933.692 206.372C931.969 204.984 929.945 204.016 927.782 203.545C927.38 203.46 927.001 203.288 926.671 203.042C926.342 202.796 926.069 202.482 925.873 202.121C924.725 199.783 922.945 197.813 920.733 196.436C918.521 195.059 915.966 194.33 913.36 194.332Z" fill="white"/>
<path id="Vector_7" d="M931.545 206.609C930.287 205.82 928.904 205.252 927.455 204.928C926.844 204.794 926.271 204.525 925.778 204.141C925.285 203.756 924.884 203.266 924.605 202.707C923.569 200.613 921.967 198.852 919.979 197.623C917.991 196.395 915.698 195.748 913.36 195.758C911.632 195.761 909.924 196.12 908.34 196.81C906.756 197.501 905.331 198.51 904.154 199.774C903.734 200.221 903.215 200.564 902.638 200.777C902.062 200.99 901.444 201.065 900.834 200.998C899.12 200.845 897.395 201.124 895.817 201.81C894.326 202.466 893.015 203.474 891.998 204.746C890.981 206.018 890.286 207.517 889.974 209.115C889.849 209.721 889.589 210.292 889.214 210.784C888.839 211.277 888.359 211.68 887.808 211.963C885.787 213.025 884.071 214.587 882.824 216.498C881.577 218.41 880.84 220.608 880.682 222.885L880.54 224.238H888.82C889.518 223.1 890.576 222.228 891.827 221.76H883.276C883.595 220.146 884.272 218.625 885.259 217.309C886.246 215.993 887.516 214.915 888.976 214.156C889.855 213.701 890.619 213.054 891.211 212.262C891.803 211.47 892.209 210.555 892.397 209.585C892.635 208.375 893.163 207.241 893.934 206.279C894.706 205.317 895.699 204.555 896.829 204.06C898.02 203.535 899.324 203.32 900.62 203.433C901.601 203.536 902.592 203.411 903.517 203.068C904.441 202.724 905.274 202.172 905.95 201.454C906.897 200.436 908.044 199.624 909.319 199.068C910.594 198.512 911.969 198.224 913.36 198.221C915.24 198.207 917.085 198.723 918.684 199.711C920.282 200.698 921.569 202.117 922.396 203.803C922.843 204.693 923.483 205.471 924.27 206.082C925.056 206.693 925.969 207.121 926.942 207.335C928.115 207.612 929.229 208.094 930.234 208.759C932.357 210.101 933.923 212.164 934.646 214.568C935.369 216.972 935.199 219.556 934.167 221.845H926.714C927.022 222.622 927.27 223.422 927.455 224.238H935.664L936.006 223.597C937.567 220.73 937.975 217.376 937.146 214.219C936.317 211.062 934.314 208.34 931.545 206.609Z" fill="#2D5967"/>
<path id="Vector_8" d="M920.829 239.43L920.188 238.476C921.972 237.234 923.43 235.579 924.436 233.652C925.443 231.726 925.968 229.585 925.968 227.412C925.968 225.238 925.443 223.097 924.436 221.171C923.43 219.245 921.972 217.59 920.188 216.347L920.729 215.336C921.037 215.409 921.353 215.447 921.67 215.45H922.026C922.271 215.421 922.513 215.379 922.753 215.322C923.57 215.103 924.3 214.637 924.843 213.988C925.386 213.339 925.716 212.539 925.788 211.696C925.86 210.854 925.67 210.009 925.244 209.278C924.818 208.547 924.178 207.965 923.409 207.611C922.641 207.257 921.781 207.148 920.949 207.299C920.116 207.45 919.35 207.853 918.755 208.455C918.16 209.056 917.765 209.826 917.623 210.66C917.482 211.494 917.601 212.351 917.964 213.115C918.139 213.474 918.359 213.809 918.62 214.112L918.05 215.151C916.293 214.344 914.383 213.927 912.449 213.927C909.328 213.93 906.305 215.01 903.89 216.985C901.475 218.96 899.816 221.707 899.195 224.763C899.096 225.233 899.025 225.709 898.982 226.187H897.813C897.521 225.246 896.902 224.441 896.067 223.918C895.232 223.395 894.237 223.188 893.263 223.336C892.288 223.483 891.399 223.974 890.756 224.721C890.114 225.468 889.76 226.42 889.76 227.405C889.76 228.389 890.114 229.341 890.756 230.088C891.399 230.835 892.288 231.326 893.263 231.474C894.237 231.621 895.232 231.414 896.067 230.891C896.902 230.368 897.521 229.563 897.813 228.622H898.953C898.996 229.1 899.067 229.576 899.167 230.046C899.568 232.046 900.418 233.929 901.653 235.553C902.887 237.177 904.475 238.5 906.295 239.423C908.116 240.345 910.122 240.843 912.163 240.879C914.204 240.915 916.227 240.488 918.078 239.629L918.691 240.598C918.381 240.919 918.126 241.29 917.936 241.694C917.636 242.32 917.5 243.011 917.542 243.703C917.583 244.395 917.8 245.066 918.172 245.651C918.544 246.236 919.059 246.717 919.668 247.049C920.278 247.381 920.962 247.552 921.655 247.547C922.65 247.546 923.611 247.184 924.358 246.529C925.106 245.874 925.59 244.97 925.721 243.984C925.852 242.999 925.62 242 925.069 241.173C924.517 240.346 923.684 239.747 922.724 239.487C922.486 239.423 922.243 239.381 921.997 239.359C921.607 239.324 921.213 239.348 920.829 239.43ZM920.188 210.452C920.331 210.2 920.539 209.99 920.788 209.843C921.038 209.695 921.323 209.616 921.613 209.612C921.899 209.612 922.18 209.691 922.425 209.84C922.756 210.079 922.986 210.432 923.071 210.831C923.156 211.23 923.091 211.647 922.888 212C922.684 212.354 922.357 212.62 921.969 212.747C921.581 212.874 921.16 212.853 920.786 212.688C920.419 212.463 920.152 212.105 920.04 211.689C919.929 211.273 919.982 210.83 920.188 210.452ZM923.494 227.355C923.497 229.546 922.849 231.69 921.632 233.513C920.416 235.337 918.685 236.759 916.659 237.6C914.634 238.441 912.404 238.662 910.252 238.236C908.1 237.81 906.123 236.756 904.571 235.208C903.019 233.659 901.962 231.685 901.533 229.535C901.104 227.386 901.323 225.158 902.161 223.133C903 221.107 904.421 219.376 906.245 218.158C908.069 216.94 910.213 216.29 912.406 216.29C915.343 216.294 918.159 217.461 920.237 219.534C922.315 221.608 923.486 224.42 923.494 227.355ZM893.851 229.021C893.521 229.021 893.199 228.923 892.925 228.74C892.651 228.557 892.437 228.297 892.311 227.992C892.184 227.688 892.151 227.353 892.216 227.03C892.28 226.706 892.439 226.41 892.672 226.177C892.905 225.944 893.202 225.785 893.526 225.721C893.849 225.656 894.185 225.689 894.489 225.815C894.794 225.942 895.054 226.155 895.238 226.429C895.421 226.703 895.519 227.025 895.519 227.355C895.52 227.574 895.479 227.791 895.396 227.994C895.312 228.197 895.19 228.382 895.034 228.537C894.879 228.692 894.695 228.815 894.491 228.898C894.288 228.981 894.071 229.023 893.851 229.021ZM923.066 242.62C923.244 242.994 923.274 243.422 923.151 243.818C923.028 244.213 922.761 244.548 922.402 244.756C922.043 244.964 921.619 245.03 921.214 244.94C920.809 244.85 920.453 244.612 920.216 244.272C920.071 244.021 919.995 243.737 919.995 243.447C919.994 243.158 920.07 242.873 920.214 242.623C920.359 242.372 920.567 242.163 920.817 242.018C921.067 241.872 921.352 241.795 921.641 241.794C921.931 241.794 922.215 241.87 922.465 242.015C922.716 242.16 922.923 242.369 923.066 242.62Z" fill="#2D5967"/>
<path id="Vector_9" d="M910.979 224.521L909.326 226.172L911.05 227.91L915.596 223.381L911.05 218.839L909.326 220.576L910.751 222.071H904.908C904.377 222.823 903.96 223.648 903.668 224.521H910.979Z" fill="#2D5967"/>
<path id="Vector_10" d="M913.76 230.629L915.442 228.949L913.717 227.212L909.186 231.74L913.717 236.283L915.442 234.545L914.017 233.121H919.618C920.218 232.385 920.699 231.558 921.043 230.672L913.76 230.629Z" fill="#2D5967"/>
</g>
</g>
<g id="Icon Text Label">
<text id="IconLabel" fill="black" xml:space="preserve" style="white-space: pre" font-family="Oracle Sans" font-size="16" letter-spacing="0em"><tspan x="885.938" y="266.816">Oracle</tspan></text>
<text id="IconLabel_2" fill="black" xml:space="preserve" style="white-space: pre" font-family="Oracle Sans" font-size="16" letter-spacing="0em"><tspan x="869.398" y="282.816">Integration</tspan></text>
</g>
</g>
<g id="Oracle Integration_2">
<rect id="Rectangle 690" x="832" y="297" width="4" height="80" fill="#F5F4F2"/>
<g id="Icon Master/60/default/1 line/Bottom/Default/None">
<g id="Business-Security-Lock">
<g id="Group 133">
<path id="Vector_11" d="M814.05 352.115V318.543H818.215V313.6C818.339 309.468 820.066 305.546 823.028 302.667C825.991 299.787 829.958 298.177 834.087 298.177C838.215 298.177 842.182 299.787 845.145 302.667C848.107 305.546 849.834 309.468 849.958 313.6V318.543H854.123V352.115H814.05Z" fill="white"/>
<path id="Vector_12" d="M834.092 298.429C838.111 298.436 841.962 300.039 844.802 302.886C847.642 305.732 849.239 309.59 849.243 313.614V319.257H853.409V351.4H814.762V319.257H818.928V313.614C818.931 309.588 820.53 305.728 823.373 302.881C826.217 300.033 830.072 298.432 834.092 298.429ZM834.092 297C829.693 297.004 825.475 298.755 822.365 301.87C819.254 304.985 817.505 309.209 817.501 313.614V317.829H813.335V352.829H854.835V317.829H850.67V313.614C850.67 309.21 848.924 304.987 845.815 301.871C842.707 298.756 838.49 297.004 834.092 297Z" fill="white"/>
<path id="Vector_13" d="M816.974 356.286L814.05 354.829V352.472H854.123V354.829L851.199 356.286H816.974Z" fill="white"/>
<path id="Vector_14" d="M853.409 353.186V354.386L851.026 355.572H817.144L814.762 354.386V353.186H853.409ZM854.835 351.757H813.335V355.257L814.12 355.657L816.502 356.843L816.802 357H851.369L851.668 356.843L854.051 355.657L854.835 355.257V351.757Z" fill="white"/>
<path id="Vector_15" d="M853.409 319.258H849.244V313.615C849.306 311.582 848.96 309.558 848.226 307.662C847.493 305.766 846.386 304.037 844.972 302.577C843.559 301.117 841.867 299.957 839.997 299.164C838.127 298.372 836.117 297.963 834.086 297.963C832.055 297.963 830.046 298.372 828.175 299.164C826.305 299.957 824.613 301.117 823.2 302.577C821.786 304.037 820.68 305.766 819.946 307.662C819.212 309.558 818.866 311.582 818.928 313.615V319.258H814.763V351.401H853.409V319.258ZM821.311 313.615C821.132 311.827 821.329 310.022 821.889 308.315C822.449 306.608 823.361 305.038 824.565 303.705C825.768 302.373 827.238 301.308 828.878 300.579C830.518 299.85 832.292 299.474 834.086 299.474C835.88 299.474 837.655 299.85 839.295 300.579C840.935 301.308 842.404 302.373 843.608 303.705C844.811 305.038 845.723 306.608 846.283 308.315C846.844 310.022 847.041 311.827 846.861 313.615V319.258H843.295V313.615C843.344 312.373 843.142 311.135 842.701 309.973C842.26 308.812 841.59 307.752 840.73 306.856C839.87 305.96 838.838 305.248 837.696 304.761C836.555 304.274 835.327 304.023 834.086 304.023C832.845 304.023 831.617 304.274 830.476 304.761C829.334 305.248 828.302 305.96 827.443 306.856C826.583 307.752 825.912 308.812 825.471 309.973C825.031 311.135 824.829 312.373 824.877 313.615V319.258H821.311V313.615ZM840.927 319.258H827.246V313.615C827.203 312.689 827.349 311.764 827.674 310.896C827.998 310.028 828.495 309.235 829.135 308.565C829.774 307.895 830.543 307.362 831.394 306.997C832.245 306.633 833.161 306.445 834.086 306.445C835.012 306.445 835.928 306.633 836.779 306.997C837.63 307.362 838.398 307.895 839.037 308.565C839.677 309.235 840.174 310.028 840.499 310.896C840.823 311.764 840.969 312.689 840.927 313.615V319.258ZM817.145 349.029V345.458H819.528V343.072H817.145V339.501H819.528V337.115H817.145V333.543H819.528V331.172H817.145V327.601H819.528V325.215H817.145V321.643H851.027V325.215H848.645V327.601H851.027V331.172H848.645V333.543H851.027V337.115H848.645V339.501H851.027V343.072H848.645V345.458H851.027V349.029H817.145Z" fill="#2D5967"/>
<path id="Vector_16" d="M834.092 328.786C833.24 328.783 832.404 329.025 831.685 329.484C830.967 329.942 830.394 330.598 830.037 331.373C829.679 332.148 829.551 333.009 829.668 333.855C829.785 334.7 830.142 335.495 830.697 336.143L830.126 343.371H838.044L837.473 336.143C838.027 335.495 838.384 334.703 838.502 333.858C838.619 333.014 838.493 332.154 838.137 331.379C837.781 330.605 837.211 329.949 836.494 329.489C835.777 329.03 834.944 328.785 834.092 328.786ZM835.519 334.814L835.062 335.2L835.533 340.986H832.694L833.165 335.2L832.708 334.814C832.49 334.618 832.315 334.378 832.195 334.109C832.075 333.841 832.011 333.551 832.009 333.257C831.986 332.97 832.022 332.68 832.115 332.408C832.209 332.135 832.358 331.884 832.553 331.672C832.748 331.46 832.985 331.29 833.248 331.175C833.512 331.059 833.797 330.999 834.085 330.999C834.373 330.999 834.658 331.059 834.922 331.175C835.186 331.29 835.423 331.46 835.618 331.672C835.813 331.884 835.962 332.135 836.055 332.408C836.149 332.68 836.185 332.97 836.161 333.257C836.159 333.551 836.096 333.841 835.975 334.109C835.855 334.378 835.68 334.618 835.462 334.814" fill="#2D5967"/>
<path id="Vector_17" d="M851.027 353.185H817.145H814.763V354.385L817.145 355.571H851.027L853.409 354.385V353.185H851.027Z" fill="#2D5967"/>
</g>
</g>
<g id="Icon Text Label_2">
<text id="IconLabel_3" fill="black" xml:space="preserve" style="white-space: pre" font-family="Oracle Sans" font-size="16" letter-spacing="0em"><tspan x="803.766" y="374.816">Allowlist</tspan></text>
</g>
</g>
</g>
<g id="OCI Region_4">
<rect x="0.5" y="0.5" width="151" height="391" rx="3.5" fill="#F5F4F2"/>
<rect x="0.5" y="0.5" width="151" height="391" rx="3.5" stroke="#9E9892"/>
<text id="OCI Region_5" fill="#312D2A" xml:space="preserve" style="white-space: pre" font-family="Oracle Sans" font-size="16" font-weight="bold" letter-spacing="0em"><tspan x="44.9922" y="21.816">Internet</tspan></text>
</g>
<g id="IAM">
<g id="Srv-OCI Identity and Access Management">
<g id="Group 22">
<path id="Vector_18" d="M608.767 61.9842C601.133 58.1804 596.576 52.1993 596.2 45.6267V39.8874H564.171V7.17236H611.214V28.3417L622.826 33.382V45.6401C622.45 52.2665 617.867 58.2342 610.259 62.038L609.52 62.4143L608.767 61.9842Z" fill="white"/>
<path id="Vector_19" d="M610.543 7.84409V28.7849L622.183 33.7715V45.586C621.82 51.9301 617.384 57.6828 609.992 61.379L609.548 61.6075L609.105 61.379C601.712 57.6828 597.263 51.9704 596.901 45.586V39.2151H564.844V7.84409H610.543ZM611.887 6.5H563.5V40.5591H595.53V45.4785V45.5591C595.933 52.4274 600.637 58.5968 608.473 62.5215L608.917 62.7366L609.522 63.0457L610.113 62.7366L610.556 62.5215C618.392 58.5968 623.11 52.4274 623.5 45.5995V32.8844L622.694 32.535L611.887 27.8979V6.5Z" fill="white"/>
<path id="Vector_20" d="M566.834 9.83397H608.527V27.1592L609.522 26.7291L610.516 27.1592V7.84473H564.844V39.2157H595.382V37.2264H566.834V9.83397Z" fill="#2D5967"/>
<path id="Vector_21" d="M609.52 28.3555L596.872 33.7318V45.5463C597.235 51.8904 601.684 57.6431 609.077 61.3393L609.52 61.5678L609.964 61.3393C617.356 57.6431 621.792 51.9307 622.155 45.5463V33.7721L609.52 28.3555ZM620.165 45.4791C619.87 50.6673 616.375 55.4522 610.515 58.8125V41.9307H608.526V58.8393C602.665 55.4791 599.117 50.6942 598.862 45.506V35.0759L608.526 30.9361V39.8071H610.542V30.9361L620.192 35.0759L620.165 45.4791Z" fill="#2D5967"/>
<path id="Vector_22" d="M591.793 16.5407L590.381 17.9386L594.091 21.6482L601.215 14.5246L599.817 13.1133L594.091 18.8391L591.793 16.5407Z" fill="#2D5967"/>
<path id="Vector_23" d="M599.415 30.1022L596.807 27.5081L599.415 24.9005L598.017 23.4893L595.409 26.0968L592.802 23.4893L591.391 24.9005L593.998 27.5081L591.391 30.1022L592.802 31.5135L595.409 28.9059L598.017 31.5135L599.415 30.1022Z" fill="#2D5967"/>
<path id="Vector_24" d="M585.004 32.845V28.4902C585.004 27.5847 584.644 26.7163 584.004 26.0761C583.364 25.4359 582.496 25.0762 581.59 25.0762H574.87C573.964 25.0762 573.096 25.4359 572.456 26.0761C571.815 26.7163 571.456 27.5847 571.456 28.4902V32.845H573.378V28.4902C573.378 28.3013 573.415 28.1143 573.487 27.9398C573.559 27.7653 573.665 27.6068 573.799 27.4732C573.933 27.3397 574.091 27.2337 574.266 27.1615C574.44 27.0892 574.627 27.052 574.816 27.052H581.536C581.725 27.052 581.911 27.0893 582.085 27.1617C582.258 27.2341 582.416 27.3403 582.549 27.474C582.681 27.6077 582.786 27.7664 582.856 27.9408C582.927 28.1152 582.963 28.3019 582.961 28.4902V32.845H585.004Z" fill="#2D5967"/>
<path id="Vector_25" d="M578.205 23.4622C579.12 23.4622 580.013 23.191 580.774 22.6829C581.534 22.1749 582.127 21.4528 582.477 20.6079C582.827 19.763 582.918 18.8334 582.74 17.9365C582.561 17.0396 582.121 16.2157 581.474 15.5691C580.828 14.9225 580.004 14.4821 579.107 14.3037C578.21 14.1253 577.281 14.2168 576.436 14.5668C575.591 14.9168 574.869 15.5094 574.361 16.2697C573.853 17.0301 573.581 17.924 573.581 18.8385C573.581 20.0648 574.069 21.2408 574.936 22.1079C575.803 22.975 576.979 23.4622 578.205 23.4622ZM578.205 16.2041C578.737 16.2041 579.256 16.3618 579.699 16.6571C580.141 16.9525 580.485 17.3723 580.689 17.8635C580.892 18.3547 580.945 18.8952 580.842 19.4167C580.738 19.9382 580.482 20.4171 580.106 20.7931C579.73 21.169 579.251 21.4251 578.73 21.5288C578.208 21.6325 577.668 21.5793 577.176 21.3758C576.685 21.1724 576.265 20.8278 575.97 20.3857C575.675 19.9437 575.517 19.4239 575.517 18.8923C575.517 18.1793 575.8 17.4956 576.304 16.9914C576.808 16.4873 577.492 16.2041 578.205 16.2041Z" fill="#2D5967"/>
</g>
</g>
<g id="Icon Text Label_3">
<text id="IconLabel_4" fill="black" xml:space="preserve" style="white-space: pre" font-family="Oracle Sans" font-size="16" letter-spacing="0em"><tspan x="535.258" y="80.816">OCI Identity and</tspan></text>
<text id="IconLabel_5" fill="black" xml:space="preserve" style="white-space: pre" font-family="Oracle Sans" font-size="16" letter-spacing="0em"><tspan x="518.391" y="96.816">Access Management</tspan></text>
</g>
</g>
<g id="User Group">
<g id="User-Group">
<g id="Group 20">
<path id="Vector_26" d="M48.0273 157.403V141.394C48.0412 139.906 48.6411 138.485 49.6967 137.437C50.7523 136.389 52.1785 135.8 53.6658 135.797H55.9318V135.471C54.453 134.61 53.2963 133.29 52.6379 131.711C51.9795 130.132 51.8556 128.381 52.2852 126.724C52.7147 125.068 53.6741 123.598 55.017 122.538C56.3599 121.478 58.0126 120.887 59.7231 120.853C61.4336 120.82 63.1081 121.347 64.4911 122.354C65.8741 123.362 66.8897 124.793 67.3832 126.432C67.8767 128.07 67.8208 129.824 67.2242 131.428C66.6276 133.031 65.5229 134.395 64.0786 135.313H64.6056C65.2274 134.507 66.026 133.855 66.9397 133.408C67.8534 132.96 68.8577 132.728 69.8752 132.73H72.6154V131.582C70.8609 130.525 69.5008 128.924 68.7431 127.021C67.9855 125.118 67.872 123.02 68.4201 121.047C68.9682 119.074 70.1476 117.334 71.778 116.095C73.4083 114.856 75.3998 114.185 77.4477 114.185C79.4956 114.185 81.487 114.856 83.1174 116.095C84.7477 117.334 85.9272 119.074 86.4753 121.047C87.0234 123.02 86.9099 125.118 86.1522 127.021C85.3946 128.924 84.0344 130.525 82.2799 131.582V132.636H85.0834C86.099 132.644 87.0997 132.881 88.0117 133.328C88.9237 133.775 89.7238 134.42 90.353 135.218H90.88C89.439 134.302 88.3361 132.942 87.7388 131.342C87.1415 129.743 87.0825 127.993 87.5707 126.357C88.0589 124.721 89.0676 123.289 90.4437 122.279C91.8198 121.268 93.488 120.734 95.195 120.759C96.902 120.783 98.5545 121.363 99.9016 122.412C101.249 123.461 102.217 124.92 102.658 126.569C103.1 128.218 102.992 129.967 102.35 131.548C101.708 133.13 100.567 134.459 99.1006 135.334V135.797H101.208C102.703 135.8 104.136 136.395 105.192 137.452C106.249 138.509 106.844 139.941 106.847 141.436V157.403H48.0273Z" fill="white"/>
<path id="Vector_27" d="M77.4526 114.718C79.4124 114.714 81.3182 115.361 82.8703 116.557C84.4225 117.754 85.5331 119.432 86.0277 121.329C86.5223 123.225 86.3729 125.232 85.6029 127.035C84.8329 128.837 83.4859 130.332 81.7737 131.286V133.214H85.1041C86.0902 133.22 87.0613 133.457 87.9397 133.906C88.8181 134.354 89.5794 135.001 90.1629 135.797H93.5671C91.8075 135.407 90.2537 134.382 89.2036 132.917C88.1535 131.452 87.6812 129.651 87.8771 127.86C88.073 126.068 88.9234 124.412 90.2653 123.209C91.6071 122.006 93.3458 121.341 95.148 121.341C96.9502 121.341 98.6889 122.006 100.031 123.209C101.373 124.412 102.223 126.068 102.419 127.86C102.615 129.651 102.142 131.452 101.092 132.917C100.042 134.382 98.4885 135.407 96.7289 135.797H98.6259V136.281H101.313C102.668 136.284 103.967 136.824 104.925 137.782C105.883 138.74 106.422 140.038 106.425 141.393V156.875H48.5539V141.393C48.5567 140.038 49.0961 138.74 50.0541 137.782C51.0121 136.824 52.3107 136.284 53.6655 136.281H56.4268V135.797H58.25C56.4905 135.407 54.9366 134.382 53.8866 132.917C52.8365 131.452 52.3641 129.651 52.56 127.86C52.756 126.068 53.6064 124.412 54.9482 123.209C56.29 122.006 58.0288 121.341 59.8309 121.341C61.6331 121.341 63.3719 122.006 64.7137 123.209C66.0555 124.412 66.9059 126.068 67.1018 127.86C67.2977 129.651 66.8254 131.452 65.7753 132.917C64.7252 134.382 63.1714 135.407 61.4118 135.797H64.816C65.3779 134.999 66.123 134.349 66.9887 133.899C67.8543 133.45 68.8152 133.215 69.7905 133.214H73.0577V131.244C71.3613 130.277 70.0324 128.776 69.2783 126.975C68.5243 125.175 68.3875 123.175 68.8893 121.288C69.3911 119.401 70.5032 117.733 72.0523 116.545C73.6013 115.356 75.5002 114.714 77.4526 114.718ZM77.4526 113.664C75.3228 113.665 73.25 114.352 71.5421 115.625C69.8343 116.898 68.5826 118.687 67.973 120.728C67.3634 122.769 67.4284 124.951 68.1584 126.952C68.8884 128.953 70.2443 130.665 72.0249 131.834V132.16H69.8116C68.9082 132.161 68.0134 132.336 67.1768 132.677C67.7911 131.558 68.1413 130.313 68.2006 129.038C68.2599 127.763 68.0267 126.491 67.5188 125.32C67.011 124.149 66.2419 123.11 65.2706 122.282C64.2992 121.453 63.1512 120.858 61.9145 120.542C60.6779 120.226 59.3852 120.197 58.1355 120.457C56.8859 120.717 55.7123 121.26 54.7046 122.044C53.6969 122.827 52.8819 123.831 52.3218 124.978C51.7617 126.125 51.4715 127.385 51.4733 128.661C51.4757 129.923 51.761 131.167 52.3082 132.304C52.8554 133.44 53.6505 134.439 54.6351 135.227H53.5812C51.9615 135.252 50.4164 135.912 49.2789 137.066C48.1414 138.219 47.5026 139.773 47.5 141.393V157.929H107.5V141.393C107.497 139.759 106.847 138.192 105.691 137.036C104.535 135.881 102.969 135.23 101.335 135.227H100.281C101.398 134.351 102.273 133.206 102.826 131.898C103.378 130.59 103.588 129.163 103.437 127.752C103.286 126.34 102.778 124.991 101.962 123.829C101.145 122.668 100.046 121.734 98.7693 121.114C97.4922 120.494 96.0784 120.21 94.6609 120.287C93.2435 120.364 91.869 120.801 90.6667 121.556C89.4645 122.31 88.4741 123.359 87.7886 124.602C87.1031 125.845 86.745 127.242 86.7482 128.661C86.7499 130.075 87.1127 131.464 87.8021 132.698C86.9313 132.346 86.0012 132.164 85.0619 132.16H82.8276V131.886C84.621 130.725 85.9909 129.015 86.7329 127.011C87.4749 125.007 87.5491 122.818 86.9446 120.768C86.3401 118.719 85.0892 116.92 83.3786 115.639C81.668 114.359 79.5893 113.666 77.4526 113.664V113.664Z" fill="white"/>
<path id="Vector_28" d="M95.1593 135.976C96.6089 135.978 98.0265 135.55 99.2327 134.746C100.439 133.942 101.379 132.798 101.935 131.459C102.491 130.121 102.637 128.647 102.354 127.225C102.072 125.803 101.374 124.497 100.349 123.472C99.3242 122.447 98.0181 121.749 96.5962 121.467C95.1744 121.185 93.7007 121.331 92.3619 121.886C91.023 122.442 89.8792 123.382 89.0751 124.589C88.271 125.795 87.843 127.212 87.845 128.662C87.8616 130.597 88.6375 132.448 90.0056 133.816C91.3737 135.184 93.2245 135.96 95.1593 135.976ZM95.1593 123.15C96.2618 123.14 97.3424 123.457 98.2636 124.063C99.1848 124.669 99.9049 125.535 100.332 126.552C100.759 127.568 100.874 128.689 100.663 129.771C100.451 130.853 99.9219 131.847 99.143 132.628C98.3641 133.408 97.3706 133.939 96.289 134.153C95.2074 134.366 94.0867 134.254 93.0694 133.828C92.0522 133.403 91.1846 132.685 90.577 131.765C89.9695 130.845 89.6495 129.764 89.6578 128.662C89.6715 127.206 90.2552 125.814 91.2837 124.783C92.3121 123.753 93.7035 123.166 95.1593 123.15Z" fill="#2D5967"/>
<path id="Vector_29" d="M101.335 136.282H99.8282L99.5647 136.63C99.046 137.305 98.379 137.852 97.6151 138.229C96.8512 138.605 96.011 138.801 95.1593 138.801C94.3076 138.801 93.4674 138.605 92.7035 138.229C91.9396 137.852 91.2725 137.305 90.7539 136.63L90.4904 136.282H90.4061C89.8713 135.356 89.1037 134.585 88.1793 134.047C87.2549 133.509 86.206 133.222 85.1365 133.215H83.3342L83.0708 133.563C82.4094 134.424 81.5588 135.122 80.5848 135.602C79.6107 136.082 78.5393 136.332 77.4533 136.332C76.3674 136.332 75.296 136.082 74.3219 135.602C73.3479 135.122 72.4973 134.424 71.8359 133.563L71.5724 133.215H69.8124C68.7426 133.221 67.6933 133.508 66.7687 134.046C65.8441 134.584 65.0767 135.355 64.5427 136.282L64.2793 136.63C63.7606 137.305 63.0935 137.852 62.3297 138.229C61.5658 138.605 60.7255 138.801 59.8739 138.801C59.0222 138.801 58.1819 138.605 57.4181 138.229C56.6542 137.852 55.9871 137.305 55.4684 136.63L55.205 136.282H53.6662C52.3114 136.285 51.0129 136.824 50.0549 137.782C49.0969 138.74 48.5575 140.038 48.5547 141.393V156.875H50.3253V141.393C50.3253 140.506 50.6769 139.655 51.3032 139.027C51.9294 138.399 52.7792 138.045 53.6662 138.042H54.3197C55.4643 139.343 57.0305 140.2 58.7437 140.462C60.4569 140.724 62.2077 140.375 63.6891 139.475V156.875H65.4175V139.338C65.4175 138.184 65.8761 137.077 66.6924 136.26C67.5087 135.444 68.6158 134.985 69.7702 134.985H70.6871C71.5192 135.96 72.5527 136.742 73.7162 137.278C74.8797 137.815 76.1458 138.093 77.427 138.093C78.7082 138.093 79.9742 137.815 81.1378 137.278C82.3013 136.742 83.3347 135.96 84.1668 134.985H85.0732C86.2276 134.985 87.3348 135.444 88.1511 136.26C88.9673 137.077 89.4259 138.184 89.4259 139.338V156.875H91.1965V139.412C92.6771 140.365 94.4524 140.752 96.1953 140.5C97.9383 140.248 99.5316 139.375 100.682 138.042H101.335C102.223 138.045 103.074 138.399 103.702 139.027C104.33 139.654 104.684 140.505 104.687 141.393V156.875H106.447V141.393C106.444 140.038 105.905 138.74 104.947 137.782C103.989 136.824 102.69 136.285 101.335 136.282Z" fill="#2D5967"/>
<path id="Vector_30" d="M59.8403 135.976C61.2899 135.978 62.7075 135.55 63.9137 134.746C65.1199 133.942 66.0604 132.798 66.6161 131.459C67.1718 130.121 67.3177 128.647 67.0354 127.225C66.7531 125.803 66.0553 124.497 65.0303 123.472C64.0052 122.447 62.6991 121.749 61.2773 121.467C59.8554 121.185 58.3818 121.331 57.0429 121.886C55.7041 122.442 54.5602 123.382 53.7561 124.589C52.9521 125.795 52.524 127.212 52.5261 128.662C52.5426 130.597 53.3185 132.448 54.6866 133.816C56.0547 135.184 57.9056 135.96 59.8403 135.976ZM59.8403 123.15C60.9388 123.15 62.0127 123.476 62.9261 124.086C63.8394 124.696 64.5513 125.564 64.9717 126.579C65.3921 127.594 65.5021 128.71 65.2878 129.788C65.0735 130.865 64.5445 131.855 63.7677 132.632C62.991 133.408 62.0013 133.937 60.9239 134.152C59.8465 134.366 58.7297 134.256 57.7148 133.836C56.6999 133.415 55.8325 132.703 55.2222 131.79C54.6119 130.876 54.2861 129.803 54.2861 128.704C54.2861 127.231 54.8713 125.818 55.9129 124.777C56.9545 123.735 58.3673 123.15 59.8403 123.15Z" fill="#2D5967"/>
<path id="Vector_31" d="M77.4515 132.413C79.202 132.409 80.912 131.886 82.3653 130.91C83.8186 129.935 84.95 128.55 85.6166 126.931C86.2831 125.313 86.4548 123.533 86.1099 121.817C85.7651 120.1 84.9192 118.525 83.6792 117.289C82.4392 116.054 80.8608 115.214 79.1434 114.875C77.4259 114.536 75.6466 114.714 74.0304 115.386C72.4141 116.059 71.0335 117.195 70.0629 118.652C69.0923 120.109 68.5754 121.821 68.5775 123.571C68.5788 124.734 68.8095 125.886 69.2564 126.961C69.7032 128.035 70.3574 129.01 71.1816 129.832C72.0058 130.653 72.9837 131.304 74.0596 131.747C75.1354 132.19 76.288 132.416 77.4515 132.413ZM77.4515 116.489C78.8523 116.489 80.2216 116.904 81.3863 117.682C82.551 118.46 83.4587 119.567 83.9948 120.861C84.5308 122.155 84.6711 123.579 84.3978 124.953C84.1245 126.327 83.45 127.589 82.4595 128.579C81.469 129.57 80.2071 130.244 78.8332 130.517C77.4594 130.791 76.0353 130.65 74.7412 130.114C73.4471 129.578 72.341 128.67 71.5627 127.506C70.7845 126.341 70.3691 124.972 70.3691 123.571C70.3719 121.694 71.119 119.894 72.4466 118.566C73.7742 117.238 75.574 116.491 77.4515 116.489Z" fill="#2D5967"/>
<path id="Vector_32" d="M69.8111 145.958H68.9258V156.876H69.3684H70.6964V147.728L69.8111 145.958Z" fill="#2D5967"/>
<path id="Vector_33" d="M85.0422 145.958L84.1569 147.728V156.876H85.6324H85.9275V145.958H85.0422Z" fill="#2D5967"/>
<path id="Vector_34" d="M100.27 149.487V156.875H102.041V147.727H101.155L100.27 149.487Z" fill="#2D5967"/>
<path id="Vector_35" d="M52.959 147.727V156.875H54.719V149.487L53.8337 147.727H52.959Z" fill="#2D5967"/>
</g>
</g>
<g id="Icon Text Label_4">
<text id="IconLabel_6" fill="black" xml:space="preserve" style="white-space: pre" font-family="Oracle Sans" font-size="16" letter-spacing="0em"><tspan x="65.25" y="175.816">API</tspan></text>
<text id="IconLabel_7" fill="black" xml:space="preserve" style="white-space: pre" font-family="Oracle Sans" font-size="16" letter-spacing="0em"><tspan x="41.3594" y="191.816">consumer</tspan></text>
</g>
</g>
<g id="User Group_2">
<g id="web-application">
<g id="Group">
<g id="Group_2">
<path id="Vector_36" d="M94 290H81V303H94V290Z" fill="#2D5967"/>
<path id="Vector_37" d="M52.1429 327.143H103.857C104 327.143 104.143 327 104.143 326.857V284.286H51.8572V326.857C51.8572 327 52 327.143 52.1429 327.143ZM95.1429 316.571H88.7143V323H86.2857V316.571H79.8572V314.143H86.2857V307.714H88.7143V314.143H95.1429V316.571ZM78.5715 290C78.5715 288.714 79.5715 287.571 81 287.571H94C95.2858 287.571 96.4286 288.571 96.4286 290V303C96.4286 304.286 95.4286 305.429 94 305.429H81C79.7143 305.429 78.5715 304.428 78.5715 303V290ZM59.7143 290C59.7143 288.714 60.7143 287.571 62.1429 287.571H75.1429C76.4286 287.571 77.5715 288.571 77.5715 290V303C77.5715 304.286 76.5715 305.429 75.1429 305.429H62.1429C60.8572 305.429 59.7143 304.428 59.7143 303V290ZM59.7143 308.857C59.7143 307.571 60.7143 306.428 62.1429 306.428H75.1429C76.4286 306.428 77.5715 307.429 77.5715 308.857V321.857C77.5715 323.143 76.5715 324.286 75.1429 324.286H62.1429C60.8572 324.286 59.7143 323.286 59.7143 321.857V308.857Z" fill="#2D5967"/>
<path id="Vector_38" d="M75.1429 308.857H62.1429V321.857H75.1429V308.857Z" fill="#2D5967"/>
<path id="Vector_39" d="M62.1429 305.286H75.1429C76.4286 305.286 77.5714 304.286 77.5714 302.857V289.857C77.5714 288.572 76.5714 287.429 75.1429 287.429H62.1429C60.8572 287.429 59.7143 288.429 59.7143 289.857V302.857C59.7143 304.286 60.7143 305.286 62.1429 305.286ZM62.1429 290H75.1429V303H62.1429V290Z" fill="#2D5967"/>
<path id="Vector_40" d="M81 305.286H94C95.2858 305.286 96.4286 304.286 96.4286 302.857V289.857C96.4286 288.572 95.4286 287.429 94 287.429H81C79.7143 287.429 78.5715 288.429 78.5715 289.857V302.857C78.5715 304.286 79.7143 305.286 81 305.286ZM81 290H94V303H81V290Z" fill="#2D5967"/>
<path id="Vector_41" d="M62.1429 324.143H75.1429C76.4286 324.143 77.5714 323.143 77.5714 321.714V308.714C77.5714 307.429 76.5714 306.286 75.1429 306.286H62.1429C60.8572 306.286 59.7143 307.286 59.7143 308.714V321.714C59.7143 323.143 60.7143 324.143 62.1429 324.143ZM62.1429 308.857H75.1429V321.857H62.1429V308.857Z" fill="#2D5967"/>
<path id="Vector_42" d="M88.5714 307.714H86.2857V314.143H79.7143V316.571H86.2857V323H88.5714V316.571H95.1429V314.143H88.5714V307.714Z" fill="#2D5967"/>
<path id="Vector_43" d="M104.571 272.572C104.286 272.429 104.143 272.429 103.857 272.429H52.1429C51.8572 272.429 51.7143 272.429 51.4286 272.572C50.5714 272.714 49.7143 273.572 49.5714 274.429C49.4286 274.714 49.4286 274.857 49.4286 275.143V326.857C49.4286 327 49.4286 327.286 49.5714 327.429C49.8572 328.429 50.5714 329.143 51.5714 329.429C51.7143 329.572 51.8572 329.572 52.1429 329.572H103.857C104 329.572 104.286 329.572 104.429 329.429C105.429 329.143 106.143 328.429 106.429 327.429C106.429 327.286 106.571 327 106.571 326.857V275.143C106.571 275 106.571 274.714 106.429 274.572C106.286 273.572 105.429 272.714 104.571 272.572ZM104.143 282H51.8572V275.143C51.8572 275 52 274.857 52.1429 274.857H103.857C104 274.857 104.143 275 104.143 275.143V282ZM51.8572 284.286H104.286V326.857C104.286 327 104.143 327.143 104 327.143H52.1429C52 327.143 51.8572 327 51.8572 326.857V284.286Z" fill="#2D5967"/>
<path id="Vector_44" d="M55.8572 280C56.6461 280 57.2857 279.361 57.2857 278.572C57.2857 277.783 56.6461 277.143 55.8572 277.143C55.0682 277.143 54.4286 277.783 54.4286 278.572C54.4286 279.361 55.0682 280 55.8572 280Z" fill="#2F2925"/>
<path id="Vector_45" d="M61.1429 280C61.9318 280 62.5714 279.361 62.5714 278.572C62.5714 277.783 61.9318 277.143 61.1429 277.143C60.3539 277.143 59.7143 277.783 59.7143 278.572C59.7143 279.361 60.3539 280 61.1429 280Z" fill="#2F2925"/>
<path id="Vector_46" d="M66.2857 280C67.0747 280 67.7143 279.361 67.7143 278.572C67.7143 277.783 67.0747 277.143 66.2857 277.143C65.4968 277.143 64.8572 277.783 64.8572 278.572C64.8572 279.361 65.4968 280 66.2857 280Z" fill="#2F2925"/>
</g>
<path id="Vector_47" d="M107.857 274.143C107.571 272.714 106.286 271.429 104.857 271.143C104.571 271 104.143 271 103.857 271H52.1429C51.8571 271 51.4286 271 51.1429 271.143C49.7143 271.429 48.4286 272.714 48.1429 274.143C48 274.429 48 274.857 48 275.143V326.857C48 327.143 48 327.429 48.1429 327.857C48.4286 329.286 49.7143 330.571 51.1429 330.857C51.4286 331 51.8571 331 52.1429 331H103.857C104.143 331 104.429 331 104.857 330.857C106.286 330.571 107.571 329.286 107.857 327.857C108 327.571 108 327.286 108 326.857V275.143C108 274.857 108 274.429 107.857 274.143Z" fill="white"/>
<g id="Group_3">
<path id="Vector_48" d="M62.1429 305.286H75.1429C76.4286 305.286 77.5714 304.286 77.5714 302.857V289.857C77.5714 288.572 76.5714 287.429 75.1429 287.429H62.1429C60.8572 287.429 59.7143 288.429 59.7143 289.857V302.857C59.7143 304.286 60.7143 305.286 62.1429 305.286ZM62.1429 290H75.1429V303H62.1429V290Z" fill="#2D5967"/>
<path id="Vector_49" d="M81 305.286H94C95.2858 305.286 96.4286 304.286 96.4286 302.857V289.857C96.4286 288.572 95.4286 287.429 94 287.429H81C79.7143 287.429 78.5715 288.429 78.5715 289.857V302.857C78.5715 304.286 79.7143 305.286 81 305.286ZM81 290H94V303H81V290Z" fill="#2D5967"/>
<path id="Vector_50" d="M62.1429 324.143H75.1429C76.4286 324.143 77.5714 323.143 77.5714 321.714V308.714C77.5714 307.429 76.5714 306.286 75.1429 306.286H62.1429C60.8572 306.286 59.7143 307.286 59.7143 308.714V321.714C59.7143 323.143 60.7143 324.143 62.1429 324.143ZM62.1429 308.857H75.1429V321.857H62.1429V308.857Z" fill="#2D5967"/>
<path id="Vector_51" d="M88.5714 307.714H86.2857V314.143H79.7143V316.571H86.2857V323H88.5714V316.571H95.1429V314.143H88.5714V307.714Z" fill="#2D5967"/>
<path id="Vector_52" d="M104.571 272.572C104.286 272.429 104.143 272.429 103.857 272.429H52.1429C51.8572 272.429 51.7143 272.429 51.4286 272.572C50.5714 272.714 49.7143 273.572 49.5714 274.429C49.4286 274.714 49.4286 274.857 49.4286 275.143V326.857C49.4286 327 49.4286 327.286 49.5714 327.429C49.8572 328.429 50.5714 329.143 51.5714 329.429C51.7143 329.572 51.8572 329.572 52.1429 329.572H103.857C104 329.572 104.286 329.572 104.429 329.429C105.429 329.143 106.143 328.429 106.429 327.429C106.429 327.286 106.571 327 106.571 326.857V275.143C106.571 275 106.571 274.714 106.429 274.572C106.286 273.572 105.429 272.714 104.571 272.572ZM104.143 282H51.8572V275.143C51.8572 275 52 274.857 52.1429 274.857H103.857C104 274.857 104.143 275 104.143 275.143V282ZM51.8572 284.286H104.286V326.857C104.286 327 104.143 327.143 104 327.143H52.1429C52 327.143 51.8572 327 51.8572 326.857V284.286Z" fill="#2D5967"/>
<path id="Vector_53" d="M55.8572 280C56.6461 280 57.2857 279.361 57.2857 278.572C57.2857 277.783 56.6461 277.143 55.8572 277.143C55.0682 277.143 54.4286 277.783 54.4286 278.572C54.4286 279.361 55.0682 280 55.8572 280Z" fill="#2D5967"/>
<path id="Vector_54" d="M61.1429 280C61.9318 280 62.5714 279.361 62.5714 278.572C62.5714 277.783 61.9318 277.143 61.1429 277.143C60.3539 277.143 59.7143 277.783 59.7143 278.572C59.7143 279.361 60.3539 280 61.1429 280Z" fill="#2D5967"/>
<path id="Vector_55" d="M66.2857 280C67.0747 280 67.7143 279.361 67.7143 278.572C67.7143 277.783 67.0747 277.143 66.2857 277.143C65.4968 277.143 64.8572 277.783 64.8572 278.572C64.8572 279.361 65.4968 280 66.2857 280Z" fill="#2D5967"/>
</g>
</g>
</g>
<g id="Icon Text Label_5">
<text id="IconLabel_8" fill="black" xml:space="preserve" style="white-space: pre" font-family="Oracle Sans" font-size="16" letter-spacing="0em"><tspan x="49.9375" y="348.816">Custom</tspan></text>
<text id="IconLabel_9" fill="black" xml:space="preserve" style="white-space: pre" font-family="Oracle Sans" font-size="16" letter-spacing="0em"><tspan x="34.4844" y="364.816">applications</tspan></text>
</g>
</g>
<g id="VCN box_New">
<rect id="Rectangle 28" x="217" y="111.963" width="534" height="271" stroke="#AA643B" stroke-width="2" stroke-dasharray="8 4"/>
<g id="Icon Master">
<g id="Srv-VCN">
<g id="Group 39">
<path id="Vector_56" d="M730.416 134.51C729.16 134.51 727.944 134.077 726.969 133.285C725.995 132.493 725.323 131.39 725.066 130.16H718.595C718.408 131.054 718 131.887 717.408 132.583C716.816 133.279 716.06 133.816 715.208 134.144C714.356 134.472 713.435 134.582 712.53 134.463C711.625 134.343 710.764 133.999 710.026 133.462C709.287 132.924 708.695 132.21 708.304 131.385C707.912 130.56 707.733 129.65 707.783 128.738C707.833 127.825 708.111 126.94 708.59 126.163C709.07 125.386 709.737 124.741 710.529 124.288L708.533 118.141C708.336 118.155 708.138 118.155 707.941 118.141C707.053 118.143 706.179 117.929 705.392 117.517C704.606 117.105 703.932 116.508 703.428 115.777C702.923 115.046 702.605 114.203 702.499 113.321C702.394 112.439 702.504 111.545 702.821 110.715C703.138 109.886 703.652 109.146 704.319 108.56C704.986 107.973 705.785 107.558 706.648 107.35C707.511 107.142 708.411 107.148 709.272 107.366C710.132 107.584 710.927 108.008 711.586 108.602L716.845 104.873C716.527 104.167 716.363 103.403 716.362 102.629C716.362 101.178 716.938 99.7864 717.964 98.7603C718.989 97.7342 720.38 97.1577 721.83 97.1577C723.281 97.1577 724.672 97.7342 725.697 98.7603C726.723 99.7864 727.299 101.178 727.299 102.629C727.301 103.402 727.139 104.167 726.825 104.873L732.093 108.639C733.088 107.726 734.388 107.218 735.738 107.216C737.188 107.216 738.579 107.793 739.605 108.819C740.63 109.845 741.206 111.237 741.206 112.688C741.206 114.139 740.63 115.531 739.605 116.557C738.579 117.583 737.188 118.159 735.738 118.159C735.547 118.159 735.346 118.159 735.155 118.159L733.15 124.306C734.199 124.905 735.02 125.835 735.485 126.951C735.95 128.066 736.032 129.304 735.72 130.471C735.408 131.639 734.718 132.67 733.759 133.404C732.799 134.138 731.624 134.533 730.416 134.528V134.51Z" fill="white"/>
<path id="Vector_57" d="M721.84 97.577C722.707 97.579 723.56 97.8059 724.314 98.2356C725.068 98.6653 725.697 99.2832 726.142 100.029C726.586 100.775 726.829 101.623 726.849 102.491C726.868 103.359 726.662 104.217 726.251 104.982L732.093 109.231C732.665 108.632 733.377 108.184 734.164 107.928C734.951 107.671 735.79 107.614 736.605 107.761C737.42 107.908 738.186 108.254 738.835 108.77C739.483 109.285 739.994 109.954 740.321 110.715C740.648 111.476 740.782 112.307 740.71 113.132C740.638 113.958 740.363 114.753 739.909 115.446C739.455 116.139 738.836 116.709 738.109 117.104C737.381 117.5 736.566 117.709 735.738 117.712C735.433 117.717 735.128 117.692 734.827 117.639L732.594 124.524C733.375 124.901 734.045 125.475 734.538 126.188C735.032 126.902 735.332 127.731 735.409 128.595C735.486 129.459 735.338 130.329 734.979 131.119C734.62 131.908 734.062 132.591 733.36 133.101C732.659 133.611 731.837 133.929 730.975 134.026C730.113 134.123 729.241 133.994 728.444 133.653C727.647 133.312 726.952 132.769 726.427 132.079C725.902 131.388 725.565 130.573 725.449 129.713H718.212C718.095 130.573 717.757 131.388 717.231 132.078C716.706 132.768 716.01 133.31 715.212 133.65C714.414 133.991 713.542 134.118 712.68 134.02C711.818 133.922 710.996 133.603 710.295 133.092C709.594 132.581 709.037 131.897 708.679 131.106C708.322 130.316 708.175 129.446 708.253 128.582C708.332 127.718 708.634 126.889 709.128 126.176C709.623 125.463 710.294 124.891 711.076 124.515L708.843 117.639C708.543 117.695 708.237 117.723 707.932 117.721C707.101 117.72 706.284 117.512 705.553 117.117C704.822 116.722 704.201 116.152 703.745 115.457C703.289 114.763 703.011 113.966 702.939 113.138C702.866 112.31 702.999 111.477 703.327 110.713C703.655 109.95 704.167 109.279 704.817 108.762C705.468 108.245 706.236 107.898 707.054 107.751C707.871 107.604 708.712 107.663 709.502 107.921C710.291 108.179 711.005 108.63 711.577 109.231L717.419 104.982C717.008 104.216 716.802 103.358 716.821 102.489C716.841 101.62 717.085 100.771 717.531 100.025C717.976 99.279 718.607 98.6613 719.362 98.2322C720.118 97.8032 720.971 97.5774 721.84 97.577ZM721.84 96.665C720.268 96.665 718.76 97.2893 717.647 98.4006C716.535 99.512 715.909 101.02 715.906 102.593C715.906 103.306 716.035 104.014 716.289 104.681L711.632 108.055C710.891 107.464 710.019 107.059 709.089 106.874C708.16 106.689 707.199 106.73 706.288 106.993C705.378 107.256 704.543 107.733 703.855 108.385C703.166 109.037 702.644 109.844 702.332 110.74C702.019 111.635 701.926 112.593 702.059 113.532C702.192 114.471 702.548 115.364 703.098 116.137C703.647 116.91 704.373 117.54 705.216 117.974C706.059 118.409 706.993 118.635 707.941 118.633H708.205L710.028 124.105C709.23 124.633 708.572 125.347 708.11 126.185C707.648 127.023 707.396 127.961 707.375 128.918C707.354 129.875 707.564 130.823 707.989 131.68C708.414 132.538 709.04 133.28 709.814 133.843C710.588 134.406 711.486 134.772 712.433 134.912C713.379 135.052 714.345 134.96 715.249 134.645C716.152 134.329 716.965 133.8 717.62 133.102C718.274 132.403 718.749 131.557 719.005 130.634H724.747C725.001 131.56 725.476 132.41 726.13 133.112C726.784 133.814 727.599 134.346 728.504 134.664C729.41 134.981 730.378 135.075 731.328 134.936C732.277 134.797 733.178 134.429 733.954 133.865C734.73 133.301 735.358 132.558 735.784 131.697C736.21 130.837 736.421 129.887 736.4 128.927C736.378 127.968 736.124 127.028 735.66 126.188C735.195 125.348 734.534 124.633 733.733 124.105L735.556 118.633H735.738C736.544 118.678 737.35 118.558 738.108 118.28C738.865 118.003 739.558 117.573 740.144 117.018C740.73 116.464 741.197 115.795 741.516 115.053C741.835 114.312 742 113.513 742 112.706C742 111.899 741.835 111.1 741.516 110.358C741.197 109.617 740.73 108.948 740.144 108.393C739.558 107.838 738.865 107.409 738.108 107.131C737.35 106.854 736.544 106.734 735.738 106.778C734.396 106.775 733.093 107.232 732.047 108.073L727.399 104.699C727.646 104.031 727.772 103.324 727.773 102.611C727.774 101.83 727.621 101.057 727.324 100.336C727.026 99.6148 726.589 98.9593 726.038 98.4071C725.487 97.8548 724.833 97.4167 724.112 97.1178C723.392 96.8189 722.619 96.665 721.84 96.665V96.665Z" fill="white"/>
<path id="Vector_58" d="M735.739 107.671C735.057 107.669 734.382 107.807 733.755 108.075C733.128 108.343 732.563 108.736 732.093 109.23L726.251 104.981C726.665 104.215 726.874 103.355 726.856 102.485C726.838 101.615 726.595 100.764 726.15 100.016C725.705 99.2685 725.073 98.6493 724.317 98.2192C723.56 97.7891 722.705 97.563 721.835 97.563C720.966 97.563 720.111 97.7891 719.354 98.2192C718.598 98.6493 717.966 99.2685 717.521 100.016C717.076 100.764 716.832 101.615 716.815 102.485C716.797 103.355 717.005 104.215 717.42 104.981L711.569 109.23C710.996 108.633 710.284 108.188 709.497 107.933C708.709 107.678 707.871 107.622 707.058 107.77C706.244 107.918 705.479 108.265 704.832 108.781C704.184 109.296 703.675 109.964 703.348 110.725C703.022 111.485 702.888 112.315 702.96 113.14C703.032 113.964 703.306 114.759 703.759 115.451C704.212 116.144 704.83 116.714 705.556 117.11C706.283 117.505 707.096 117.715 707.923 117.72C708.229 117.722 708.534 117.694 708.835 117.638L711.067 124.505C710.286 124.881 709.614 125.453 709.12 126.166C708.625 126.878 708.323 127.707 708.245 128.572C708.166 129.436 708.313 130.306 708.671 131.096C709.029 131.887 709.585 132.571 710.287 133.082C710.988 133.592 711.809 133.912 712.671 134.01C713.533 134.108 714.405 133.981 715.203 133.64C716.001 133.3 716.697 132.758 717.223 132.068C717.749 131.378 718.087 130.563 718.204 129.703H725.44C725.556 130.563 725.893 131.378 726.418 132.068C726.943 132.759 727.638 133.301 728.435 133.643C729.233 133.984 730.105 134.113 730.966 134.016C731.828 133.919 732.65 133.601 733.352 133.091C734.054 132.581 734.611 131.898 734.97 131.108C735.329 130.319 735.477 129.449 735.4 128.585C735.323 127.721 735.023 126.891 734.53 126.178C734.036 125.464 733.366 124.891 732.585 124.514L734.827 117.638C735.128 117.694 735.433 117.722 735.739 117.72C736.422 117.762 737.107 117.662 737.751 117.429C738.395 117.196 738.985 116.833 739.483 116.363C739.982 115.893 740.379 115.326 740.651 114.697C740.923 114.068 741.063 113.39 741.063 112.705C741.063 112.019 740.923 111.341 740.651 110.712C740.379 110.083 739.982 109.516 739.483 109.046C738.985 108.577 738.395 108.214 737.751 107.98C737.107 107.747 736.422 107.648 735.739 107.689V107.671ZM730.416 132.712C729.695 132.712 728.99 132.498 728.391 132.098C727.791 131.697 727.324 131.127 727.048 130.461C726.772 129.794 726.7 129.061 726.841 128.353C726.981 127.645 727.328 126.996 727.838 126.485C728.348 125.975 728.998 125.628 729.705 125.487C730.412 125.346 731.145 125.419 731.811 125.695C732.477 125.971 733.047 126.438 733.447 127.038C733.848 127.638 734.062 128.343 734.062 129.065C734.062 130.032 733.678 130.96 732.994 131.644C732.31 132.328 731.383 132.712 730.416 132.712ZM718.213 128.362C718.063 127.23 717.529 126.184 716.7 125.399L719.434 121.578C720.167 121.967 720.983 122.17 721.813 122.171C722.639 122.173 723.454 121.97 724.182 121.578L726.916 125.399C726.085 126.183 725.547 127.229 725.394 128.362H718.213ZM709.564 129.037C709.564 128.316 709.777 127.611 710.178 127.011C710.579 126.411 711.148 125.943 711.814 125.667C712.48 125.391 713.213 125.319 713.92 125.46C714.628 125.6 715.277 125.948 715.787 126.458C716.297 126.968 716.644 127.618 716.785 128.326C716.925 129.033 716.853 129.767 716.577 130.433C716.301 131.1 715.834 131.669 715.235 132.07C714.635 132.471 713.93 132.685 713.209 132.685C712.242 132.685 711.315 132.301 710.631 131.617C709.948 130.933 709.564 130.005 709.564 129.037ZM707.941 109.021C708.662 109.021 709.367 109.234 709.967 109.635C710.566 110.036 711.033 110.606 711.309 111.272C711.585 111.939 711.658 112.672 711.517 113.38C711.376 114.087 711.029 114.737 710.519 115.248C710.009 115.758 709.36 116.105 708.653 116.246C707.945 116.387 707.212 116.314 706.546 116.038C705.88 115.762 705.311 115.295 704.91 114.695C704.51 114.095 704.296 113.39 704.296 112.668C704.296 111.701 704.68 110.773 705.364 110.089C706.047 109.405 706.974 109.021 707.941 109.021ZM718.158 102.637C718.158 101.916 718.372 101.21 718.772 100.611C719.173 100.011 719.742 99.5431 720.408 99.267C721.075 98.9909 721.808 98.9187 722.515 99.0595C723.222 99.2002 723.871 99.5476 724.381 100.058C724.891 100.568 725.238 101.218 725.379 101.925C725.52 102.633 725.447 103.366 725.172 104.033C724.896 104.7 724.428 105.269 723.829 105.67C723.229 106.071 722.525 106.285 721.804 106.285C721.321 106.285 720.843 106.189 720.398 106.003C719.953 105.817 719.549 105.544 719.209 105.2C718.87 104.857 718.603 104.449 718.422 104.001C718.242 103.554 718.152 103.074 718.158 102.591V102.637ZM730.79 113.58L726.37 114.994C726.009 114.239 725.468 113.586 724.794 113.093C724.119 112.599 723.333 112.281 722.505 112.167V107.607C723.634 107.457 724.677 106.922 725.458 106.093L731.318 110.343C730.922 111.073 730.715 111.892 730.717 112.723C730.719 113.007 730.743 113.291 730.79 113.571V113.58ZM725.513 117.164C725.513 117.885 725.299 118.591 724.898 119.191C724.498 119.79 723.929 120.258 723.262 120.534C722.596 120.81 721.863 120.882 721.156 120.742C720.449 120.601 719.799 120.254 719.29 119.743C718.78 119.233 718.432 118.583 718.292 117.876C718.151 117.168 718.223 116.435 718.499 115.768C718.775 115.102 719.242 114.532 719.842 114.131C720.441 113.73 721.146 113.516 721.867 113.516C722.833 113.516 723.758 113.899 724.442 114.582C725.125 115.264 725.51 116.189 725.513 117.155V117.164ZM721.156 107.607V112.167C720.331 112.279 719.546 112.596 718.873 113.088C718.2 113.58 717.66 114.232 717.301 114.985L712.872 113.571C712.929 113.27 712.956 112.965 712.954 112.659C712.946 111.85 712.743 111.056 712.362 110.343L718.213 106.084C718.99 106.915 720.03 107.452 721.156 107.607ZM712.462 114.902L716.891 116.316C716.835 116.617 716.807 116.922 716.809 117.228C716.806 117.911 716.943 118.588 717.213 119.215C717.483 119.843 717.879 120.408 718.377 120.876L715.643 124.706C714.915 124.31 714.101 124.103 713.273 124.104C712.967 124.102 712.662 124.129 712.362 124.186L710.12 117.219C711.142 116.734 711.971 115.918 712.471 114.902H712.462ZM730.416 124.022C729.59 124.023 728.776 124.227 728.047 124.614L725.312 120.803C725.808 120.334 726.203 119.768 726.473 119.141C726.743 118.514 726.881 117.838 726.88 117.155C726.882 116.849 726.855 116.544 726.798 116.243L731.182 114.848C731.678 115.879 732.506 116.714 733.533 117.219L731.3 124.095C731.008 124.044 730.712 124.019 730.416 124.022ZM732.093 112.696C732.093 111.974 732.307 111.269 732.707 110.669C733.108 110.069 733.677 109.602 734.343 109.326C735.01 109.049 735.743 108.977 736.45 109.118C737.157 109.259 737.807 109.606 738.316 110.116C738.826 110.626 739.173 111.276 739.314 111.984C739.455 112.692 739.383 113.425 739.107 114.092C738.831 114.758 738.363 115.328 737.764 115.729C737.164 116.129 736.46 116.343 735.739 116.343C734.772 116.343 733.844 115.959 733.161 115.275C732.477 114.591 732.093 113.663 732.093 112.696Z" fill="#AA643B"/>
</g>
</g>
</g>
<text id="VCN" fill="#AE562C" xml:space="preserve" style="white-space: pre" font-family="Oracle Sans" font-size="16" font-weight="600" letter-spacing="0em"><tspan x="225" y="133.816">VCN</tspan></text>
</g>
<g id="OCI Subnet Boxes_New">
<rect x="232.5" y="144.5" width="135" height="183" stroke="#AA643B" stroke-dasharray="8 4"/>
<text id="Subnet" fill="#AE562C" xml:space="preserve" style="white-space: pre" font-family="Oracle Sans" font-size="16" font-weight="600" letter-spacing="0em"><tspan x="240" y="165.816">Public Subnet</tspan></text>
</g>
<g id="OCI Subnet Boxes_New_2">
<rect x="440.5" y="144.5" width="295" height="183" stroke="#AA643B" stroke-dasharray="8 4"/>
<text id="Subnet_2" fill="#AE562C" xml:space="preserve" style="white-space: pre" font-family="Oracle Sans" font-size="16" font-weight="600" letter-spacing="0em"><tspan x="448" y="165.816">Private Subnet</tspan></text>
</g>
<g id="Functions">
<g id="Srv-OCI Functions">
<g id="Group_4">
<g id="Group_5">
<path id="Vector_59" d="M478.847 248.286C477.136 248.286 475.711 246.857 475.711 245.143V192.857C475.711 191.143 477.136 189.714 478.847 189.714H531.151C532.861 189.714 534.286 191.143 534.286 192.857V245.286C534.286 247 532.861 248.429 531.151 248.429L478.847 248.286Z" fill="white"/>
<path id="Vector_60" d="M531.01 190.429C532.292 190.429 533.432 191.571 533.432 192.857V245.286C533.432 246.571 532.292 247.714 531.01 247.714H478.848C477.565 247.571 476.425 246.429 476.425 245.143V192.857C476.425 191.571 477.565 190.429 478.848 190.429H531.01ZM531.01 189H478.848C476.71 189 475 190.714 475 192.857V245.286C475 247.286 476.71 249 478.848 249H531.152C533.29 249 535 247.286 535 245.143V192.857C534.857 190.714 533.147 189 531.01 189Z" fill="white"/>
</g>
<g id="Group_6">
<path id="Vector_61" d="M531.01 190.429H478.848C477.566 190.429 476.426 191.572 476.426 192.858V245.286C476.426 246.429 477.566 247.572 478.848 247.572H531.153C532.435 247.572 533.575 246.429 533.575 245.143V192.858C533.433 191.572 532.293 190.429 531.01 190.429ZM531.295 245.143C531.295 245.286 531.152 245.429 531.01 245.429H478.848C478.706 245.429 478.563 245.286 478.563 245.143V192.858C478.563 192.715 478.706 192.572 478.848 192.572H531.153C531.295 192.572 531.438 192.715 531.438 192.858L531.295 245.143Z" fill="#2D5967"/>
<path id="Vector_62" d="M482.696 241H498.801V228.286H482.696V241ZM484.834 230.429H496.663V238.857H484.834V230.429Z" fill="#2D5967"/>
<path id="Vector_63" d="M482.696 209.429H527.019V196.715H482.696V209.429ZM484.834 198.858H524.882V207.286H484.834V198.858Z" fill="#2D5967"/>
<path id="Vector_64" d="M512.625 212.714H482.696V225.429H512.483V212.714H512.625ZM510.487 223.286H484.834V214.714H510.487V223.286Z" fill="#2D5967"/>
<path id="Vector_65" d="M526.022 213.715H515.191V224.287H526.022V213.715Z" fill="#2D5967"/>
<path id="Vector_66" d="M526.022 229.287H515.191V239.858H526.022V229.287Z" fill="#2D5967"/>
<path id="Vector_67" d="M512.626 229.287H501.795V239.858H512.626V229.287Z" fill="#2D5967"/>
</g>
</g>
</g>
<g id="Icon Text Label_6">
<text id="IconLabel_10" fill="black" xml:space="preserve" style="white-space: pre" font-family="Oracle Sans" font-size="16" letter-spacing="0em"><tspan x="491.93" y="266.816">OCI</tspan></text>
<text id="IconLabel_11" fill="black" xml:space="preserve" style="white-space: pre" font-family="Oracle Sans" font-size="16" letter-spacing="0em"><tspan x="469.227" y="282.816">Functions</tspan></text>
</g>
</g>
<g id="Oracle API Gateway">
<g id="Srv-Oracle API Gateway">
<g id="Group 3">
<path id="Vector_68" d="M272.53 234.522V202.643L286.59 190.532V246.773L272.53 234.522Z" fill="white"/>
<path id="Vector_69" d="M285.894 192.063V245.241L273.225 234.104V202.921L285.894 192.063ZM287.286 189L284.919 190.949L272.251 201.947L271.833 202.364V202.921V234.104V234.8L272.251 235.218L284.919 246.355L287.286 248.443V245.381V192.063V189Z" fill="white"/>
<path id="Vector_70" d="M315.544 190.532L329.605 202.643V234.522L315.544 246.773V190.532Z" fill="white"/>
<path id="Vector_71" d="M316.243 192.063L328.911 202.921V234.104L316.243 245.241V192.063ZM314.851 189V192.063V245.241V248.304L317.217 246.216L329.886 235.079L330.303 234.661V233.965V202.921V202.364L329.886 201.947L317.217 191.088L314.851 189Z" fill="white"/>
<path id="Vector_72" d="M301.623 248.303L301.066 243.292L300.51 248.303H286.449L295.776 191.227H306.635L315.684 248.303H301.623Z" fill="white"/>
<path id="Vector_73" d="M306.08 191.924L314.989 247.608H302.321L301.208 236.471L300.094 247.608H287.426L296.474 191.924H306.08ZM307.333 190.532H306.08H296.335H295.082L294.943 191.645L285.894 247.33L285.616 249H287.286H299.955H301.208H302.182H314.85H316.521L316.242 247.33L307.333 191.645V190.532Z" fill="white"/>
<path id="Vector_74" d="M283.805 196.518L275.313 203.896V233.27L283.805 240.648V196.518Z" fill="white"/>
<path id="Vector_75" d="M273.227 234.244L285.895 245.381V192.063L273.227 202.921V234.244ZM275.315 203.896L283.807 196.518V240.648L275.315 233.13V203.896Z" fill="#2D5967"/>
<path id="Vector_76" d="M318.331 240.648L326.823 233.27V203.896L318.331 196.518V240.648Z" fill="white"/>
<path id="Vector_77" d="M316.241 192.063V245.242L328.909 234.105V202.921L316.241 192.063ZM326.821 233.269L318.329 240.787V196.518L326.821 203.896V233.269Z" fill="#2D5967"/>
<path id="Vector_78" d="M298.144 194.011L289.652 245.519H298.144L301.068 216.007L303.991 245.519H312.483L304.27 194.011H298.144Z" fill="white"/>
<path id="Vector_79" d="M296.335 191.923L287.286 247.608H299.954L301.068 236.471L302.181 247.608H314.85L305.94 191.923C306.079 191.923 296.335 191.923 296.335 191.923ZM303.991 245.52L301.068 216.007L298.144 245.52H289.652L298.144 194.012H304.409L312.622 245.52H303.991V245.52Z" fill="#2D5967"/>
</g>
</g>
<g id="Icon Text Label_7">
<text id="IconLabel_12" fill="black" xml:space="preserve" style="white-space: pre" font-family="Oracle Sans" font-size="16" letter-spacing="0em"><tspan x="273.719" y="266.816">OCI API</tspan></text>
<text id="IconLabel_13" fill="black" xml:space="preserve" style="white-space: pre" font-family="Oracle Sans" font-size="16" letter-spacing="0em"><tspan x="270.117" y="282.816">Gateway</tspan></text>
</g>
</g>
<path id="Vector 1" d="M114.293 137.293C113.902 137.683 113.902 138.317 114.293 138.707L120.657 145.071C121.047 145.462 121.681 145.462 122.071 145.071C122.462 144.681 122.462 144.047 122.071 143.657L116.414 138L122.071 132.343C122.462 131.953 122.462 131.319 122.071 130.929C121.681 130.538 121.047 130.538 120.657 130.929L114.293 137.293ZM193 138H194V137H193V138ZM193 218H192V219H193V218ZM269.707 218.707C270.098 218.317 270.098 217.683 269.707 217.293L263.343 210.929C262.953 210.538 262.319 210.538 261.929 210.929C261.538 211.319 261.538 211.953 261.929 212.343L267.586 218L261.929 223.657C261.538 224.047 261.538 224.681 261.929 225.071C262.319 225.462 262.953 225.462 263.343 225.071L269.707 218.707ZM115 138V139H193V138V137H115V138ZM193 138H192V218H193H194V138H193ZM193 218V219H269V218V217H193V218Z" fill="#312D2A"/>
<path id="Vector 6" d="M560.707 25.7071C561.098 25.3166 561.098 24.6834 560.707 24.2929L554.343 17.9289C553.953 17.5384 553.319 17.5384 552.929 17.9289C552.538 18.3195 552.538 18.9526 552.929 19.3431L558.586 25L552.929 30.6569C552.538 31.0474 552.538 31.6805 552.929 32.0711C553.319 32.4616 553.953 32.4616 554.343 32.0711L560.707 25.7071ZM408 25V24H407V25H408ZM408 216H407V217H408V216ZM469.707 216.707C470.098 216.317 470.098 215.683 469.707 215.293L463.343 208.929C462.953 208.538 462.319 208.538 461.929 208.929C461.538 209.319 461.538 209.953 461.929 210.343L467.586 216L461.929 221.657C461.538 222.047 461.538 222.681 461.929 223.071C462.319 223.462 462.953 223.462 463.343 223.071L469.707 216.707ZM560 25V24H408V25V26H560V25ZM408 25H407V216H408H409V25H408ZM408 216V217H469V216V215H408V216Z" fill="#312D2A"/>
<path id="Vector 3" d="M331.293 232.293C330.902 232.683 330.902 233.317 331.293 233.707L337.657 240.071C338.047 240.462 338.681 240.462 339.071 240.071C339.462 239.681 339.462 239.047 339.071 238.657L333.414 233L339.071 227.343C339.462 226.953 339.462 226.319 339.071 225.929C338.681 225.538 338.047 225.538 337.657 225.929L331.293 232.293ZM468.707 233.707C469.098 233.317 469.098 232.683 468.707 232.293L462.343 225.929C461.953 225.538 461.319 225.538 460.929 225.929C460.538 226.319 460.538 226.953 460.929 227.343L466.586 233L460.929 238.657C460.538 239.047 460.538 239.681 460.929 240.071C461.319 240.462 461.953 240.462 462.343 240.071L468.707 233.707ZM332 233L332 234L468 234L468 233L468 232L332 232L332 233Z" fill="#312D2A"/>
<path id="Vector 5" d="M540.293 223.293C539.902 223.683 539.902 224.317 540.293 224.707L546.657 231.071C547.047 231.462 547.681 231.462 548.071 231.071C548.462 230.681 548.462 230.047 548.071 229.657L542.414 224L548.071 218.343C548.462 217.953 548.462 217.319 548.071 216.929C547.681 216.538 547.047 216.538 546.657 216.929L540.293 223.293ZM648.707 224.707C649.098 224.317 649.098 223.683 648.707 223.293L642.343 216.929C641.953 216.538 641.319 216.538 640.929 216.929C640.538 217.319 640.538 217.953 640.929 218.343L646.586 224L640.929 229.657C640.538 230.047 640.538 230.681 640.929 231.071C641.319 231.462 641.953 231.462 642.343 231.071L648.707 224.707ZM541 224L541 225L648 225L648 224L648 223L541 223L541 224Z" fill="#312D2A"/>
<path id="image" d="M300.707 287.293C300.317 286.902 299.683 286.902 299.293 287.293L292.929 293.657C292.538 294.047 292.538 294.681 292.929 295.071C293.319 295.462 293.953 295.462 294.343 295.071L300 289.414L305.657 295.071C306.047 295.462 306.681 295.462 307.071 295.071C307.462 294.681 307.462 294.047 307.071 293.657L300.707 287.293ZM300 344H299V345H300V344ZM809.707 344.707C810.098 344.317 810.098 343.683 809.707 343.293L803.343 336.929C802.953 336.538 802.319 336.538 801.929 336.929C801.538 337.319 801.538 337.953 801.929 338.343L807.586 344L801.929 349.657C801.538 350.047 801.538 350.681 801.929 351.071C802.319 351.462 802.953 351.462 803.343 351.071L809.707 344.707ZM300 288H299V344H300H301V288H300ZM300 344V345H809V344V343H300V344Z" fill="#312D2A"/>
<path id="image_2" d="M911.293 287.293C911.683 286.902 912.317 286.902 912.707 287.293L919.071 293.657C919.462 294.047 919.462 294.681 919.071 295.071C918.681 295.462 918.047 295.462 917.657 295.071L912 289.414L906.343 295.071C905.953 295.462 905.319 295.462 904.929 295.071C904.538 294.681 904.538 294.047 904.929 293.657L911.293 287.293ZM912 343H913V344H912V343ZM857.293 343.707C856.902 343.317 856.902 342.683 857.293 342.293L863.657 335.929C864.047 335.538 864.681 335.538 865.071 335.929C865.462 336.319 865.462 336.953 865.071 337.343L859.414 343L865.071 348.657C865.462 349.047 865.462 349.681 865.071 350.071C864.681 350.462 864.047 350.462 863.657 350.071L857.293 343.707ZM912 288H913V343H912H911V288H912ZM912 343V344H858V343V342H912V343Z" fill="#312D2A"/>
<path id="Vector 2" d="M114.293 313.707C113.902 313.317 113.902 312.683 114.293 312.293L120.657 305.929C121.047 305.538 121.681 305.538 122.071 305.929C122.462 306.319 122.462 306.953 122.071 307.343L116.414 313L122.071 318.657C122.462 319.047 122.462 319.681 122.071 320.071C121.681 320.462 121.047 320.462 120.657 320.071L114.293 313.707ZM193 313H194V314H193V313ZM193 233H192V232H193V233ZM269.707 232.293C270.098 232.683 270.098 233.317 269.707 233.707L263.343 240.071C262.953 240.462 262.319 240.462 261.929 240.071C261.538 239.681 261.538 239.047 261.929 238.657L267.586 233L261.929 227.343C261.538 226.953 261.538 226.319 261.929 225.929C262.319 225.538 262.953 225.538 263.343 225.929L269.707 232.293ZM115 313V312H193V313V314H115V313ZM193 313H192V233H193H194V313H193ZM193 233V232H269V233V234H193V233Z" fill="#312D2A"/>
<g id="Numbered circle">
<circle id="Ellipse 269" cx="410" cy="70" r="11.5" fill="#70665E" stroke="white"/>
<text id="1" fill="white" xml:space="preserve" style="white-space: pre" font-family="Oracle Sans" font-size="16" font-weight="bold" letter-spacing="0em"><tspan x="400.484" y="75.816">2b</tspan></text>
</g>
<g id="Numbered circle_2">
<circle id="Ellipse 269_2" cx="386" cy="233" r="11.5" fill="#70665E" stroke="white"/>
<text id="1_2" fill="white" xml:space="preserve" style="white-space: pre" font-family="Oracle Sans" font-size="16" font-weight="bold" letter-spacing="0em"><tspan x="382.203" y="238.816">1</tspan></text>
</g>
<g id="Numbered circle_3">
<circle id="Ellipse 269_3" cx="410" cy="233" r="11.5" fill="#70665E" stroke="white"/>
<text id="1_3" fill="white" xml:space="preserve" style="white-space: pre" font-family="Oracle Sans" font-size="16" font-weight="bold" letter-spacing="0em"><tspan x="401.336" y="238.816">2c</tspan></text>
</g>
<g id="Numbered circle_4">
<circle id="Ellipse 269_4" cx="386" cy="346" r="11.5" fill="#70665E" stroke="white"/>
<text id="1_4" fill="white" xml:space="preserve" style="white-space: pre" font-family="Oracle Sans" font-size="16" font-weight="bold" letter-spacing="0em"><tspan x="381.219" y="351.816">3</tspan></text>
</g>
<g id="Numbered circle_5">
<circle id="Ellipse 269_5" cx="595" cy="225" r="11.5" fill="#70665E" stroke="white"/>
<text id="1_5" fill="white" xml:space="preserve" style="white-space: pre" font-family="Oracle Sans" font-size="16" font-weight="bold" letter-spacing="0em"><tspan x="585.328" y="230.816">2a</tspan></text>
</g>
<g id="OCI Vault">
<g id="Srv-OCI Vault">
<g id="Group_7">
<g id="Group_8">
<g id="Group_9">
<path id="Vector_80" d="M691.627 247.838C680.425 242.169 673.472 233.536 672.313 224.131L672.184 222.585V219.622H671.283V222.971H668.064V219.622H663.429C662.657 221.554 660.854 222.971 658.665 222.971C655.833 222.971 653.644 220.652 653.644 217.947C653.644 215.112 655.961 212.922 658.665 212.922C660.854 212.922 662.785 214.339 663.429 216.529H672.056V203.774L692.142 195.142L712.227 203.774V222.585C711.584 232.763 704.502 241.911 692.785 247.709L692.142 248.096L691.627 247.838Z" fill="white"/>
<path id="Vector_81" d="M692.27 195.915L711.712 204.29V222.586C711.197 232.377 704.245 241.396 692.657 247.194L692.27 247.452L691.884 247.194C680.94 241.654 674.116 233.279 672.957 224.003L672.828 222.586V218.978H671.412H670.639V222.328H668.708V218.978H662.914C662.399 220.911 660.725 222.328 658.665 222.328C656.219 222.328 654.288 220.395 654.288 217.947C654.288 215.499 656.219 213.567 658.665 213.567C660.854 213.567 662.657 215.113 662.914 217.174H671.283H672.7V204.29L692.27 195.915ZM692.27 194.498L691.755 194.756L672.313 203.13L671.541 203.517V204.419V216.015H671.412H663.944C663.043 213.953 660.983 212.407 658.665 212.407C655.575 212.407 653 214.984 653 218.076C653 221.168 655.575 223.745 658.665 223.745C660.983 223.745 662.914 222.457 663.815 220.395H667.421V222.457V223.745H668.708H670.639H671.541V224.26C672.7 234.052 679.91 242.814 691.112 248.483L691.498 248.74L692.142 248.998L692.914 248.612L693.3 248.354C705.275 242.298 712.485 233.022 713 222.714V204.29V203.388L712.227 203.002L692.785 194.756L692.27 194.498Z" fill="white"/>
</g>
<g id="Group_10">
<path id="Vector_82" d="M692.27 195.915L672.828 204.289V215.756H674.76V205.449L692.27 197.976L709.781 205.449V222.456C709.266 231.475 702.828 239.721 692.27 245.261C682.227 240.107 675.918 232.377 674.888 224.002H674.76H672.957C674.116 233.279 680.94 241.653 691.884 247.194L692.27 247.451L692.657 247.194C704.245 241.396 711.197 232.377 711.712 222.585V204.289L692.27 195.915Z" fill="#2D5967"/>
<path id="Vector_83" d="M701.413 206.094L700.125 204.676L696.134 208.67L694.589 207.253L693.301 208.542L696.134 211.376L701.413 206.094Z" fill="#2D5967"/>
<path id="Vector_84" d="M694.717 233.279H699.996L697.292 228.641L694.717 233.279Z" fill="#2D5967"/>
<path id="Vector_85" d="M686.09 228.77C684.803 229.028 684.03 230.316 684.417 231.605C684.803 232.893 685.962 233.666 687.249 233.28C688.537 232.893 689.309 231.734 688.923 230.445C688.665 229.286 687.378 228.513 686.09 228.77Z" fill="#2D5967"/>
<path id="Vector_86" d="M705.146 213.308H679.395V226.192H705.017L705.146 213.308ZM703.215 224.26H681.326V215.241H703.215V224.26Z" fill="#2D5967"/>
<path id="Vector_87" d="M698.064 221.426C699.06 221.426 699.867 220.618 699.867 219.622C699.867 218.626 699.06 217.818 698.064 217.818C697.069 217.818 696.262 218.626 696.262 219.622C696.262 220.618 697.069 221.426 698.064 221.426Z" fill="#2D5967"/>
<path id="Vector_88" d="M689.438 208.155H684.03V210.087H689.438V208.155Z" fill="#2D5967"/>
<path id="Vector_89" d="M672.828 218.977V222.456H674.76V222.327V216.916H671.412H663.043C662.657 214.854 660.854 213.308 658.665 213.308C656.219 213.308 654.287 215.241 654.287 217.689C654.287 220.137 656.219 222.069 658.665 222.069C660.725 222.069 662.399 220.652 662.914 218.719H668.708V222.069H670.639V218.977H671.412H672.828ZM658.665 220.394C657.249 220.394 656.219 219.235 656.219 217.946C656.219 216.658 657.378 215.498 658.665 215.498C659.953 215.498 661.112 216.658 661.112 217.946C661.112 219.364 660.081 220.394 658.665 220.394Z" fill="#2D5967"/>
</g>
</g>
</g>
</g>
<g id="Icon Text Label_8">
<text id="IconLabel_14" fill="black" xml:space="preserve" style="white-space: pre" font-family="Oracle Sans" font-size="16" letter-spacing="0em"><tspan x="669.93" y="266.816">OCI</tspan></text>
<text id="IconLabel_15" fill="black" xml:space="preserve" style="white-space: pre" font-family="Oracle Sans" font-size="16" letter-spacing="0em"><tspan x="664.547" y="282.816">Vault</tspan></text>
</g>
</g>
</g>
<defs>
<clipPath id="clip0_20052_300">
<rect width="992" height="392" fill="white"/>
</clipPath>
</defs>
</svg>
